  0
SECTION
  2
HEADER
  9
$ACADVER
  1
AC1015
  9
$ACADMAINTVER
 70
     6
  9
$DWGCODEPAGE
  3
ANSI_1252
  9
$INSBASE
 10
0.0
 20
0.0
 30
0.0
  9
$EXTMIN
 10
0.0
 20
0.0
 30
0.0
  9
$EXTMAX
 10
2438.4
 20
1219.2
 30
0.0
  9
$LIMMIN
 10
0.0
 20
0.0
  9
$LIMMAX
 10
2438.4
 20
1219.2
  9
$ORTHOMODE
 70
     0
  9
$REGENMODE
 70
     1
  9
$FILLMODE
 70
     1
  9
$QTEXTMODE
 70
     0
  9
$MIRRTEXT
 70
     1
  9
$LTSCALE
 40
1.0
  9
$ATTMODE
 70
     1
  9
$TEXTSIZE
 40
2.5
  9
$TRACEWID
 40
1.0
  9
$TEXTSTYLE
  7
Standard
  9
$CLAYER
  8
0
  9
$CELTYPE
  6
ByLayer
  9
$CECOLOR
 62
   256
  9
$CELTSCALE
 40
1.0
  9
$DISPSILH
 70
     0
  9
$DIMSCALE
 40
1.0
  9
$DIMASZ
 40
2.5
  9
$DIMEXO
 40
0.625
  9
$DIMDLI
 40
3.75
  9
$DIMRND
 40
0.0
  9
$DIMDLE
 40
0.0
  9
$DIMEXE
 40
1.25
  9
$DIMTP
 40
0.0
  9
$DIMTM
 40
0.0
  9
$DIMTXT
 40
2.5
  9
$DIMCEN
 40
2.5
  9
$DIMTSZ
 40
0.0
  9
$DIMTOL
 70
     0
  9
$DIMLIM
 70
     0
  9
$DIMTIH
 70
     0
  9
$DIMTOH
 70
     0
  9
$DIMSE1
 70
     0
  9
$DIMSE2
 70
     0
  9
$DIMTAD
 70
     1
  9
$DIMZIN
 70
     8
  9
$DIMBLK
  1

  9
$DIMASO
 70
     1
  9
$DIMSHO
 70
     1
  9
$DIMPOST
  1

  9
$DIMAPOST
  1

  9
$DIMALT
 70
     0
  9
$DIMALTD
 70
     3
  9
$DIMALTF
 40
0.0393700787
  9
$DIMLFAC
 40
1.0
  9
$DIMTOFL
 70
     1
  9
$DIMTVP
 40
0.0
  9
$DIMTIX
 70
     0
  9
$DIMSOXD
 70
     0
  9
$DIMSAH
 70
     0
  9
$DIMBLK1
  1

  9
$DIMBLK2
  1

  9
$DIMSTYLE
  2
ISO-25
  9
$DIMCLRD
 70
     0
  9
$DIMCLRE
 70
     0
  9
$DIMCLRT
 70
     0
  9
$DIMTFAC
 40
1.0
  9
$DIMGAP
 40
0.625
  9
$DIMJUST
 70
     0
  9
$DIMSD1
 70
     0
  9
$DIMSD2
 70
     0
  9
$DIMTOLJ
 70
     0
  9
$DIMTZIN
 70
     8
  9
$DIMALTZ
 70
     0
  9
$DIMALTTZ
 70
     0
  9
$DIMUPT
 70
     0
  9
$DIMDEC
 70
     2
  9
$DIMTDEC
 70
     2
  9
$DIMALTU
 70
     2
  9
$DIMALTTD
 70
     3
  9
$DIMTXSTY
  7
Standard
  9
$DIMAUNIT
 70
     0
  9
$DIMADEC
 70
     0
  9
$DIMALTRND
 40
0.0
  9
$DIMAZIN
 70
     0
  9
$DIMDSEP
 70
    44
  9
$DIMATFIT
 70
     3
  9
$DIMFRAC
 70
     0
  9
$DIMLDRBLK
  1

  9
$DIMLUNIT
 70
     2
  9
$DIMLWD
 70
    -2
  9
$DIMLWE
 70
    -2
  9
$DIMTMOVE
 70
     0
  9
$LUNITS
 70
     2
  9
$LUPREC
 70
     4
  9
$SKETCHINC
 40
1.0
  9
$FILLETRAD
 40
10.0
  9
$AUNITS
 70
     0
  9
$AUPREC
 70
     0
  9
$MENU
  1
.
  9
$ELEVATION
 40
0.0
  9
$PELEVATION
 40
0.0
  9
$THICKNESS
 40
0.0
  9
$LIMCHECK
 70
     0
  9
$CHAMFERA
 40
10.0
  9
$CHAMFERB
 40
10.0
  9
$CHAMFERC
 40
20.0
  9
$CHAMFERD
 40
0.0
  9
$SKPOLY
 70
     0
  9
$TDCREATE
 40
2456471.685147141
  9
$TDUCREATE
 40
2456471.976813808
  9
$TDUPDATE
 40
2456471.685148611
  9
$TDUUPDATE
 40
2456471.976815278
  9
$TDINDWG
 40
0.0000000116
  9
$TDUSRTIMER
 40
0.0000000116
  9
$USRTIMER
 70
     1
  9
$ANGBASE
 50
0.0
  9
$ANGDIR
 70
     0
  9
$PDMODE
 70
     0
  9
$PDSIZE
 40
0.0
  9
$PLINEWID
 40
0.0
  9
$SPLFRAME
 70
     0
  9
$SPLINETYPE
 70
     6
  9
$SPLINESEGS
 70
     8
  9
$HANDSEED
  5
210
  9
$SURFTAB1
 70
     6
  9
$SURFTAB2
 70
     6
  9
$SURFTYPE
 70
     6
  9
$SURFU
 70
     6
  9
$SURFV
 70
     6
  9
$UCSBASE
  2

  9
$UCSNAME
  2

  9
$UCSORG
 10
0.0
 20
0.0
 30
0.0
  9
$UCSXDIR
 10
1.0
 20
0.0
 30
0.0
  9
$UCSYDIR
 10
0.0
 20
1.0
 30
0.0
  9
$UCSORTHOREF
  2

  9
$UCSORTHOVIEW
 70
     0
  9
$UCSORGTOP
 10
0.0
 20
0.0
 30
0.0
  9
$UCSORGBOTTOM
 10
0.0
 20
0.0
 30
0.0
  9
$UCSORGLEFT
 10
0.0
 20
0.0
 30
0.0
  9
$UCSORGRIGHT
 10
0.0
 20
0.0
 30
0.0
  9
$UCSORGFRONT
 10
0.0
 20
0.0
 30
0.0
  9
$UCSORGBACK
 10
0.0
 20
0.0
 30
0.0
  9
$PUCSBASE
  2

  9
$PUCSNAME
  2

  9
$PUCSORG
 10
0.0
 20
0.0
 30
0.0
  9
$PUCSXDIR
 10
1.0
 20
0.0
 30
0.0
  9
$PUCSYDIR
 10
0.0
 20
1.0
 30
0.0
  9
$PUCSORTHOREF
  2

  9
$PUCSORTHOVIEW
 70
     0
  9
$PUCSORGTOP
 10
0.0
 20
0.0
 30
0.0
  9
$PUCSORGBOTTOM
 10
0.0
 20
0.0
 30
0.0
  9
$PUCSORGLEFT
 10
0.0
 20
0.0
 30
0.0
  9
$PUCSORGRIGHT
 10
0.0
 20
0.0
 30
0.0
  9
$PUCSORGFRONT
 10
0.0
 20
0.0
 30
0.0
  9
$PUCSORGBACK
 10
0.0
 20
0.0
 30
0.0
  9
$USERI1
 70
     0
  9
$USERI2
 70
     0
  9
$USERI3
 70
     0
  9
$USERI4
 70
     0
  9
$USERI5
 70
     0
  9
$USERR1
 40
0.0
  9
$USERR2
 40
0.0
  9
$USERR3
 40
0.0
  9
$USERR4
 40
0.0
  9
$USERR5
 40
0.0
  9
$WORLDVIEW
 70
     1
  9
$SHADEDGE
 70
     3
  9
$SHADEDIF
 70
    70
  9
$TILEMODE
 70
     1
  9
$MAXACTVP
 70
    64
  9
$PINSBASE
 10
0.0
 20
0.0
 30
0.0
  9
$PLIMCHECK
 70
     0
  9
$PEXTMIN
 10
0.0
 20
0.0
 30
0.0
  9
$PEXTMAX
 10
2438.4
 20
1219.2
 30
0.0
  9
$PLIMMIN
 10
0.0
 20
0.0
  9
$PLIMMAX
 10
2438.4
 20
1219.2
  9
$UNITMODE
 70
     0
  9
$VISRETAIN
 70
     1
  9
$PLINEGEN
 70
     0
  9
$PSLTSCALE
 70
     1
  9
$TREEDEPTH
 70
  3020
  9
$CMLSTYLE
  2
Standard
  9
$CMLJUST
 70
     0
  9
$CMLSCALE
 40
20.0
  9
$PROXYGRAPHICS
 70
     1
  9
$MEASUREMENT
 70
     1
  9
$CELWEIGHT
370
    -1
  9
$ENDCAPS
280
     0
  9
$JOINSTYLE
280
     0
  9
$LWDISPLAY
290
     0
  9
$INSUNITS
 70
     4
  9
$HYPERLINKBASE
  1

  9
$STYLESHEET
  1

  9
$XEDIT
290
     1
  9
$CEPSNTYPE
380
     0
  9
$PSTYLEMODE
290
     1
  9
$FINGERPRINTGUID
  2
{ECD8F55C-B24B-4338-97ED-4CEE12FC1F05}
  9
$VERSIONGUID
  2
{FAEB1C32-E019-11D5-929B-00C0DF256EC4}
  9
$EXTNAMES
290
     1
  9
$PSVPSCALE
 40
0.0
  9
$OLESTARTUP
290
     0
  0
ENDSEC
  0
SECTION
  2
CLASSES
  0
CLASS
  1
ACDBDICTIONARYWDFLT
  2
AcDbDictionaryWithDefault
  3
ObjectDBX Classes
 90
        0
280
     0
281
     0
  0
CLASS
  1
VISUALSTYLE
  2
AcDbVisualStyle
  3
ObjectDBX Classes
 90
     4095
280
     0
281
     0
  0
CLASS
  1
MATERIAL
  2
AcDbMaterial
  3
ObjectDBX Classes
 90
     1153
280
     0
281
     0
  0
CLASS
  1
DICTIONARYVAR
  2
AcDbDictionaryVar
  3
ObjectDBX Classes
 90
        0
280
     0
281
     0
  0
CLASS
  1
ACDBPLACEHOLDER
  2
AcDbPlaceHolder
  3
ObjectDBX Classes
 90
        0
280
     0
281
     0
  0
CLASS
  1
LAYOUT
  2
AcDbLayout
  3
ObjectDBX Classes
 90
        0
280
     0
281
     0
  0
ENDSEC
  0
SECTION
  2
TABLES
  0
TABLE
  2
VPORT
  5
8
330
0
100
AcDbSymbolTable
 70
     1
  0
VPORT
  5
29
330
8
100
AcDbSymbolTableRecord
100
AcDbViewportTableRecord
  2
*Active
 70
     0
 10
0.0
 20
0.0
 11
1.0
 21
1.0
 12
344.1869158879
 22
148.5
 13
0.0
 23
0.0
 14
10.0
 24
10.0
 15
10.0
 25
10.0
 16
0.0
 26
0.0
 36
1.0
 17
0.0
 27
0.0
 37
0.0
 40
297.0
 41
1.9729729729
 42
50.0
 43
0.0
 44
0.0
 50
0.0
 51
0.0
 71
     0
 72
   100
 73
     1
 74
     3
 75
     0
 76
     0
 77
     0
 78
     0
281
     0
 65
     1
110
0.0
120
0.0
130
0.0
111
1.0
121
0.0
131
0.0
112
0.0
122
1.0
132
0.0
 79
     0
146
0.0
  0
ENDTAB
  0
TABLE
  2
LTYPE
  5
5
330
0
100
AcDbSymbolTable
 70
     2
  0
LTYPE
  5
14
330
5
100
AcDbSymbolTableRecord
100
AcDbLinetypeTableRecord
  2
ByBlock
 70
     0
  3

 72
    65
 73
     0
 40
0.0
  0
LTYPE
  5
15
330
5
100
AcDbSymbolTableRecord
100
AcDbLinetypeTableRecord
  2
ByLayer
 70
     0
  3

 72
    65
 73
     0
 40
0.0
  0
LTYPE
  5
16
330
5
100
AcDbSymbolTableRecord
100
AcDbLinetypeTableRecord
  2
Continuous
 70
     0
  3
Solid line
 72
    65
 73
     0
 40
0.0
  0
LTYPE
  5
B2
330
5
100
AcDbSymbolTableRecord
100
AcDbLinetypeTableRecord
  2
HIDDEN2
 70
     0
  3
Hidden (.5x) _ _ _ _ _ _ _ _ _ _ _ _ _ _ _ _ _ 
 72
    65
 73
     2
 40
4.7625
 49
3.175
 74
     4
 75
     0
340
0
 46
0.0
 50
0.0
 44
0.0
 45
0.0
 49
-1.5875
 74
     4
 75
     0
340
0
 46
0.0
 50
0.0
 44
0.0
 45
0.0
  0
ENDTAB
  0
TABLE
  2
LAYER
  5
2
330
0
100
AcDbSymbolTable
 70
     2
  0
LAYER
  5
10
330
2
100
AcDbSymbolTableRecord
100
AcDbLayerTableRecord
  2
0
 70
     0
 62
     7
  6
Continuous
370
    -3
390
F
  0
LAYER
  5
3F
330
2
100
AcDbSymbolTableRecord
100
AcDbLayerTableRecord
  2
Default
 70
     0
 62
     7
  6
Continuous
370
    -3
390
F
  0
ENDTAB
  0
TABLE
  2
STYLE
  5
3
330
0
100
AcDbSymbolTable
 70
     3
  0
STYLE
  5
11
330
3
100
AcDbSymbolTableRecord
100
AcDbTextStyleTableRecord
  2
Standard
 70
     0
 40
0.0
 41
1.0
 50
0.0
 71
     0
 42
2.5
  3
txt
  4

  0
STYLE
  5
A8
330
3
100
AcDbSymbolTableRecord
100
AcDbTextStyleTableRecord
  2
SEACAD_Solid_Edge_ANSI
 70
     0
 40
0.0
 41
1.0
 50
0.0
 71
     0
 42
0.2
  3
seans.ttf
  4

1001
ACAD
1000
Solid Edge ANSI
1071
        0
  0
STYLE
  5
137
330
3
100
AcDbSymbolTableRecord
100
AcDbTextStyleTableRecord
  2
SEACAD_Solid_Edge_ANSI1_Symbols
 70
     0
 40
0.0
 41
1.0
 50
0.0
 71
     0
 42
0.2
  3
semeca1.ttf
  4

1001
ACAD
1000
Solid Edge ANSI1 Symbols
1071
        0
  0
ENDTAB
  0
TABLE
  2
VIEW
  5
6
330
0
100
AcDbSymbolTable
 70
     0
  0
ENDTAB
  0
TABLE
  2
UCS
  5
7
330
0
100
AcDbSymbolTable
 70
     0
  0
ENDTAB
  0
TABLE
  2
APPID
  5
9
330
0
100
AcDbSymbolTable
 70
     1
  0
APPID
  5
12
330
9
100
AcDbSymbolTableRecord
100
AcDbRegAppTableRecord
  2
ACAD
 70
     0
  0
ENDTAB
  0
TABLE
  2
DIMSTYLE
  5
A
330
0
100
AcDbSymbolTable
 70
     3
100
AcDbDimStyleTable
  0
DIMSTYLE
105
27
330
A
100
AcDbSymbolTableRecord
100
AcDbDimStyleTableRecord
  2
ISO-25
 70
     0
 41
2.5
 42
0.625
 43
3.75
 44
1.25
 73
     0
 74
     0
 77
     1
 78
     8
140
2.5
141
2.5
143
0.0393700787
147
0.625
171
     3
172
     1
178
     0
271
     2
272
     2
274
     3
278
    44
283
     0
284
     8
340
11
  0
DIMSTYLE
105
E1
330
A
100
AcDbSymbolTableRecord
100
AcDbDimStyleTableRecord
  2
Standard
 70
     0
178
     0
340
11
  0
DIMSTYLE
105
F3
102
{ACAD_REACTORS
330
F4
330
FF
330
10A
330
115
330
120
330
12B
330
136
330
140
330
14B
330
156
330
161
330
16C
330
177
330
182
330
18D
330
198
330
1A3
330
1AE
330
1B9
330
1C4
330
1CF
330
1DA
102
}
330
A
100
AcDbSymbolTableRecord
100
AcDbDimStyleTableRecord
  2
ANSI_(mm)
 70
     0
 41
3.175
 42
1.5875
 44
1.5875
 78
     8
140
3.175
141
1.5875
147
1.5875
173
     1
178
     0
271
     2
272
     2
284
     8
340
A8
343
EE
344
EE
  0
ENDTAB
  0
TABLE
  2
BLOCK_RECORD
  5
1
330
0
100
AcDbSymbolTable
 70
    28
  0
BLOCK_RECORD
  5
1F
330
1
100
AcDbSymbolTableRecord
100
AcDbBlockTableRecord
  2
*Model_Space
340
22
  0
BLOCK_RECORD
  5
1B
330
1
100
AcDbSymbolTableRecord
100
AcDbBlockTableRecord
  2
*Paper_Space
340
1E
  0
BLOCK_RECORD
  5
A4
330
1
100
AcDbSymbolTableRecord
100
AcDbBlockTableRecord
  2
SEANNOT_GROUP
340
0
102
{BLKREFS
331
A5
102
}
  0
BLOCK_RECORD
  5
D5
330
1
100
AcDbSymbolTableRecord
100
AcDbBlockTableRecord
  2
SEANNOT_GROUP1
340
0
102
{BLKREFS
331
D6
102
}
  0
BLOCK_RECORD
  5
E2
330
1
100
AcDbSymbolTableRecord
100
AcDbBlockTableRecord
  2
_OBLIQUE
340
0
  0
BLOCK_RECORD
  5
E6
330
1
100
AcDbSymbolTableRecord
100
AcDbBlockTableRecord
  2
_DOT
340
0
  0
BLOCK_RECORD
  5
EE
330
1
100
AcDbSymbolTableRecord
100
AcDbBlockTableRecord
  2
_SE_FILLED
340
0
  0
BLOCK_RECORD
  5
F5
330
1
100
AcDbSymbolTableRecord
100
AcDbBlockTableRecord
  2
DMBLK7
340
0
  0
BLOCK_RECORD
  5
100
330
1
100
AcDbSymbolTableRecord
100
AcDbBlockTableRecord
  2
DMBLK8
340
0
  0
BLOCK_RECORD
  5
10B
330
1
100
AcDbSymbolTableRecord
100
AcDbBlockTableRecord
  2
DMBLK9
340
0
  0
BLOCK_RECORD
  5
116
330
1
100
AcDbSymbolTableRecord
100
AcDbBlockTableRecord
  2
DMBLK10
340
0
  0
BLOCK_RECORD
  5
121
330
1
100
AcDbSymbolTableRecord
100
AcDbBlockTableRecord
  2
DMBLK11
340
0
  0
BLOCK_RECORD
  5
12C
330
1
100
AcDbSymbolTableRecord
100
AcDbBlockTableRecord
  2
DMBLK12
340
0
  0
BLOCK_RECORD
  5
138
330
1
100
AcDbSymbolTableRecord
100
AcDbBlockTableRecord
  2
DMBLK13
340
0
  0
BLOCK_RECORD
  5
141
330
1
100
AcDbSymbolTableRecord
100
AcDbBlockTableRecord
  2
DMBLK14
340
0
  0
BLOCK_RECORD
  5
14C
330
1
100
AcDbSymbolTableRecord
100
AcDbBlockTableRecord
  2
DMBLK15
340
0
  0
BLOCK_RECORD
  5
157
330
1
100
AcDbSymbolTableRecord
100
AcDbBlockTableRecord
  2
DMBLK16
340
0
  0
BLOCK_RECORD
  5
162
330
1
100
AcDbSymbolTableRecord
100
AcDbBlockTableRecord
  2
DMBLK17
340
0
  0
BLOCK_RECORD
  5
16D
330
1
100
AcDbSymbolTableRecord
100
AcDbBlockTableRecord
  2
DMBLK18
340
0
  0
BLOCK_RECORD
  5
178
330
1
100
AcDbSymbolTableRecord
100
AcDbBlockTableRecord
  2
DMBLK19
340
0
  0
BLOCK_RECORD
  5
183
330
1
100
AcDbSymbolTableRecord
100
AcDbBlockTableRecord
  2
DMBLK20
340
0
  0
BLOCK_RECORD
  5
18E
330
1
100
AcDbSymbolTableRecord
100
AcDbBlockTableRecord
  2
DMBLK21
340
0
  0
BLOCK_RECORD
  5
199
330
1
100
AcDbSymbolTableRecord
100
AcDbBlockTableRecord
  2
DMBLK22
340
0
  0
BLOCK_RECORD
  5
1A4
330
1
100
AcDbSymbolTableRecord
100
AcDbBlockTableRecord
  2
DMBLK23
340
0
  0
BLOCK_RECORD
  5
1AF
330
1
100
AcDbSymbolTableRecord
100
AcDbBlockTableRecord
  2
DMBLK24
340
0
  0
BLOCK_RECORD
  5
1BA
330
1
100
AcDbSymbolTableRecord
100
AcDbBlockTableRecord
  2
DMBLK25
340
0
  0
BLOCK_RECORD
  5
1C5
330
1
100
AcDbSymbolTableRecord
100
AcDbBlockTableRecord
  2
DMBLK26
340
0
  0
BLOCK_RECORD
  5
1D0
330
1
100
AcDbSymbolTableRecord
100
AcDbBlockTableRecord
  2
DMBLK27
340
0
  0
BLOCK_RECORD
  5
1DB
330
1
100
AcDbSymbolTableRecord
100
AcDbBlockTableRecord
  2
DMBLK28
340
0
  0
ENDTAB
  0
ENDSEC
  0
SECTION
  2
BLOCKS
  0
BLOCK
  5
20
330
1F
100
AcDbEntity
  8
0
100
AcDbBlockBegin
  2
*Model_Space
 70
     0
 10
0.0
 20
0.0
 30
0.0
  3
*Model_Space
  1

  0
ENDBLK
  5
21
330
1F
100
AcDbEntity
  8
0
100
AcDbBlockEnd
  0
BLOCK
  5
1C
330
1B
100
AcDbEntity
 67
     1
  8
0
100
AcDbBlockBegin
  2
*Paper_Space
 70
     0
 10
0.0
 20
0.0
 30
0.0
  3
*Paper_Space
  1

  0
ENDBLK
  5
1D
330
1B
100
AcDbEntity
 67
     1
  8
0
100
AcDbBlockEnd
  0
BLOCK
  5
AA
330
A4
100
AcDbEntity
  8
0
100
AcDbBlockBegin
  2
SEANNOT_GROUP
 70
     0
 10
0.0
 20
0.0
 30
0.0
  3
SEANNOT_GROUP
  1

  0
LWPOLYLINE
  5
A6
330
A4
100
AcDbEntity
  8
Default
  6
Continuous
 62
     7
100
AcDbPolyline
 90
        2
 70
     0
 43
0.0
 10
351.1839968942
 20
268.4872286165
 10
335.0433567651
 20
260.337423329
  0
HATCH
  5
A7
330
A4
100
AcDbEntity
  8
Default
  6
Continuous
 62
     7
100
AcDbHatch
 10
0.0
 20
0.0
 30
0.0
210
0.0
220
0.0
230
1.0
  2
SOLID
 70
     1
 71
     0
 91
        1
 92
        1
 93
        3
 72
     1
 10
337.6390486088038
 20
262.2408481273123
 11
335.0433567650611
 21
260.3374233289507
 72
     1
 10
335.0433567650612
 20
260.3374233289507
 11
338.1160679032053
 21
261.2961142969979
 72
     1
 10
338.1160679032053
 20
261.2961142969979
 11
337.6390486088038
 21
262.2408481273123
 97
        0
 75
     0
 76
     1
 98
        0
  0
TEXT
  5
A9
330
A4
100
AcDbEntity
  8
Default
  6
Continuous
 62
     7
100
AcDbText
 10
352.2952468942
 20
266.8997286165
 30
0.0
 40
3.175
  1
M3 x 12
  7
SEACAD_Solid_Edge_ANSI
 11
352.2952468942
 21
270.0747286165
 31
0.0
100
AcDbText
 73
     3
  0
ENDBLK
  5
AB
330
A4
100
AcDbEntity
  8
0
100
AcDbBlockEnd
  0
BLOCK
  5
DB
330
D5
100
AcDbEntity
  8
0
100
AcDbBlockBegin
  2
SEANNOT_GROUP1
 70
     0
 10
0.0
 20
0.0
 30
0.0
  3
SEANNOT_GROUP1
  1

  0
LWPOLYLINE
  5
D7
330
D5
100
AcDbEntity
  8
Default
  6
Continuous
 62
     7
100
AcDbPolyline
 90
        2
 70
     0
 43
0.0
 10
237.7310333639
 20
237.0509267401
 10
224.0433567651
 20
228.587423329
  0
HATCH
  5
D8
330
D5
100
AcDbEntity
  8
Default
  6
Continuous
 62
     7
100
AcDbHatch
 10
0.0
 20
0.0
 30
0.0
210
0.0
220
0.0
230
1.0
  2
SOLID
 70
     1
 71
     0
 91
        1
 92
        1
 93
        3
 72
     1
 10
226.4655194625539
 20
230.7072747335461
 11
224.0433567650611
 21
228.5874233289507
 72
     1
 10
224.0433567650611
 20
228.5874233289507
 11
227.0221111236392
 21
229.8071218908676
 72
     1
 10
227.0221111236392
 20
229.8071218908676
 11
226.4655194625539
 21
230.707274733546
 97
        0
 75
     0
 76
     1
 98
        0
  0
TEXT
  5
D9
330
D5
100
AcDbEntity
  8
Default
  6
Continuous
 62
     7
100
AcDbText
 10
238.8422833639
 20
235.4634267401
 30
0.0
 40
3.175
  1
Counter Bore for M5 Opposite Side
  7
SEACAD_Solid_Edge_ANSI
 11
238.8422833639
 21
238.6384267401
 31
0.0
100
AcDbText
 73
     3
  0
TEXT
  5
DA
330
D5
100
AcDbEntity
  8
Default
  6
Continuous
 62
     7
100
AcDbText
 10
238.8422833639
 20
230.7009267401
 30
0.0
 40
3.175
  1
Clearance Hole
  7
SEACAD_Solid_Edge_ANSI
 11
238.8422833639
 21
233.8759267401
 31
0.0
100
AcDbText
 73
     3
  0
ENDBLK
  5
DC
330
D5
100
AcDbEntity
  8
0
100
AcDbBlockEnd
  0
BLOCK
  5
E3
330
E2
100
AcDbEntity
  8
0
100
AcDbBlockBegin
  2
_OBLIQUE
 70
     0
 10
0.0
 20
0.0
 30
0.0
  3
_OBLIQUE
  1

  0
LINE
  5
E5
330
E2
100
AcDbEntity
  8
0
  6
ByBlock
 62
     0
370
    -2
100
AcDbLine
 10
-0.5
 20
-0.5
 30
0.0
 11
0.5
 21
0.5
 31
0.0
  0
ENDBLK
  5
E4
330
E2
100
AcDbEntity
  8
0
100
AcDbBlockEnd
  0
BLOCK
  5
E7
330
E6
100
AcDbEntity
  8
0
100
AcDbBlockBegin
  2
_DOT
 70
     0
 10
0.0
 20
0.0
 30
0.0
  3
_DOT
  1

  0
POLYLINE
  5
E9
330
E6
100
AcDbEntity
  8
0
  6
ByBlock
 62
     0
100
AcDb2dPolyline
 66
     1
 10
0.0
 20
0.0
 30
0.0
 70
     1
 40
0.5
 41
0.5
  0
VERTEX
  5
EB
330
E9
100
AcDbEntity
  8
0
  6
ByBlock
 62
     0
100
AcDbVertex
100
AcDb2dVertex
 10
-0.25
 20
0.0
 30
0.0
 42
1.0
  0
VERTEX
  5
EC
330
E9
100
AcDbEntity
  8
0
  6
ByBlock
 62
     0
100
AcDbVertex
100
AcDb2dVertex
 10
0.25
 20
0.0
 30
0.0
 42
1.0
  0
SEQEND
  5
ED
330
E9
100
AcDbEntity
  8
0
  6
ByBlock
 62
     0
  0
LINE
  5
EA
330
E6
100
AcDbEntity
  8
0
  6
ByBlock
 62
     0
370
    -2
100
AcDbLine
 10
-0.5
 20
0.0
 30
0.0
 11
-1.0
 21
0.0
 31
0.0
  0
ENDBLK
  5
E8
330
E6
100
AcDbEntity
  8
0
100
AcDbBlockEnd
  0
BLOCK
  5
F1
330
EE
100
AcDbEntity
  8
0
100
AcDbBlockBegin
  2
_SE_FILLED
 70
     0
 10
0.0
 20
0.0
 30
0.0
  3
_SE_FILLED
  1

  0
SOLID
  5
EF
330
EE
100
AcDbEntity
  8
0
 62
     0
100
AcDbTrace
 10
0.0
 20
0.0
 30
0.0
 11
-1.0
 21
-0.1665
 31
0.0
 12
-1.0
 22
0.1665
 32
0.0
 13
0.0
 23
0.0
 33
0.0
  0
LINE
  5
F0
330
EE
100
AcDbEntity
  8
0
 62
     0
100
AcDbLine
 10
0.0
 20
0.0
 30
0.0
 11
-1.0
 21
0.0
 31
0.0
  0
ENDBLK
  5
F2
330
EE
100
AcDbEntity
  8
0
100
AcDbBlockEnd
  0
BLOCK
  5
FD
330
F5
100
AcDbEntity
  8
0
100
AcDbBlockBegin
  2
DMBLK7
 70
     0
 10
0.0
 20
0.0
 30
0.0
  3
DMBLK7
  1

  0
HATCH
  5
F6
330
F5
100
AcDbEntity
  8
Default
  6
Continuous
 62
     7
100
AcDbHatch
 10
0.0
 20
0.0
 30
0.0
210
0.0
220
0.0
230
1.0
  2
SOLID
 70
     1
 71
     0
 91
        1
 92
        1
 93
        3
 72
     1
 10
49.24021579790805
 20
263.5124232905802
 11
49.76938245817963
 21
260.3374233289507
 72
     1
 10
49.76938245817963
 20
260.3374233289507
 11
50.29854911845122
 21
263.5124232905802
 72
     1
 10
50.29854911845122
 20
263.5124232905802
 11
49.24021579790805
 21
263.5124232905802
 97
        0
 75
     0
 76
     1
 98
        0
  0
HATCH
  5
F7
330
F5
100
AcDbEntity
  8
Default
  6
Continuous
 62
     7
100
AcDbHatch
 10
0.0
 20
0.0
 30
0.0
210
0.0
220
0.0
230
1.0
  2
SOLID
 70
     1
 71
     0
 91
        1
 92
        1
 93
        3
 72
     1
 10
49.24021579790805
 20
282.5624233673212
 11
50.29854911845122
 21
282.5624233673212
 72
     1
 10
50.29854911845122
 20
282.5624233673212
 11
49.76938245817963
 21
285.7374233289507
 72
     1
 10
49.76938245817963
 20
285.7374233289507
 11
49.24021579790805
 21
282.5624233673212
 97
        0
 75
     0
 76
     1
 98
        0
  0
LINE
  5
F8
330
F5
100
AcDbEntity
  8
Default
  6
Continuous
 62
     7
100
AcDbLine
 10
57.9558567842
 20
260.337423329
 30
0.0
 11
48.1818824774
 21
260.337423329
 31
0.0
  0
LINE
  5
F9
330
F5
100
AcDbEntity
  8
Default
  6
Continuous
 62
     7
100
AcDbLine
 10
57.9558567842
 20
285.737423329
 30
0.0
 11
48.1818824774
 21
285.737423329
 31
0.0
  0
LINE
  5
FA
330
F5
100
AcDbEntity
  8
Default
  6
Continuous
 62
     7
100
AcDbLine
 10
49.7693824582
 20
260.337423329
 30
0.0
 11
49.7693824582
 21
270.3386729403
 31
0.0
  0
LINE
  5
FB
330
F5
100
AcDbEntity
  8
Default
  6
Continuous
 62
     7
100
AcDbLine
 10
49.7693824582
 20
275.7361727863
 30
0.0
 11
49.7693824582
 21
285.737423329
 31
0.0
  0
TEXT
  5
FC
330
F5
100
AcDbEntity
  8
Default
  6
Continuous
 62
     7
100
AcDbText
 10
45.5975801326
 20
271.4499231755
 30
0.0
 40
3.175
  1
25.4
  7
SEACAD_Solid_Edge_ANSI
 11
45.5975801326
 21
274.6249231755
 31
0.0
100
AcDbText
 73
     3
  0
ENDBLK
  5
FE
330
F5
100
AcDbEntity
  8
0
100
AcDbBlockEnd
  0
BLOCK
  5
108
330
100
100
AcDbEntity
  8
0
100
AcDbBlockBegin
  2
DMBLK8
 70
     0
 10
0.0
 20
0.0
 30
0.0
  3
DMBLK8
  1

  0
HATCH
  5
101
330
100
100
AcDbEntity
  8
Default
  6
Continuous
 62
     7
100
AcDbHatch
 10
0.0
 20
0.0
 30
0.0
210
0.0
220
0.0
230
1.0
  2
SOLID
 70
     1
 71
     0
 91
        1
 92
        1
 93
        3
 72
     1
 10
49.65539940167166
 20
73.01242329058022
 11
50.18456606194324
 21
69.8374233289507
 72
     1
 10
50.18456606194324
 20
69.8374233289507
 11
50.71373272221483
 21
73.01242329058022
 72
     1
 10
50.71373272221483
 20
73.01242329058022
 11
49.65539940167166
 21
73.01242329058022
 97
        0
 75
     0
 76
     1
 98
        0
  0
HATCH
  5
102
330
100
100
AcDbEntity
  8
Default
  6
Continuous
 62
     7
100
AcDbHatch
 10
0.0
 20
0.0
 30
0.0
210
0.0
220
0.0
230
1.0
  2
SOLID
 70
     1
 71
     0
 91
        1
 92
        1
 93
        3
 72
     1
 10
49.65539940167166
 20
92.0624233673212
 11
50.71373272221483
 21
92.0624233673212
 72
     1
 10
50.71373272221483
 20
92.0624233673212
 11
50.18456606194324
 21
95.23742332895071
 72
     1
 10
50.18456606194324
 20
95.23742332895071
 11
49.65539940167166
 21
92.0624233673212
 97
        0
 75
     0
 76
     1
 98
        0
  0
LINE
  5
103
330
100
100
AcDbEntity
  8
Default
  6
Continuous
 62
     7
100
AcDbLine
 10
57.9558567842
 20
69.837423329
 30
0.0
 11
48.5970660811
 21
69.837423329
 31
0.0
  0
LINE
  5
104
330
100
100
AcDbEntity
  8
Default
  6
Continuous
 62
     7
100
AcDbLine
 10
57.9558567842
 20
95.237423329
 30
0.0
 11
48.5970660811
 21
95.237423329
 31
0.0
  0
LINE
  5
105
330
100
100
AcDbEntity
  8
Default
  6
Continuous
 62
     7
100
AcDbLine
 10
50.1845660619
 20
69.837423329
 30
0.0
 11
50.1845660619
 21
79.8386729403
 31
0.0
  0
LINE
  5
106
330
100
100
AcDbEntity
  8
Default
  6
Continuous
 62
     7
100
AcDbLine
 10
50.1845660619
 20
85.2361727863
 30
0.0
 11
50.1845660619
 21
95.237423329
 31
0.0
  0
TEXT
  5
107
330
100
100
AcDbEntity
  8
Default
  6
Continuous
 62
     7
100
AcDbText
 10
46.0127637364
 20
80.9499231755
 30
0.0
 40
3.175
  1
25.4
  7
SEACAD_Solid_Edge_ANSI
 11
46.0127637364
 21
84.1249231755
 31
0.0
100
AcDbText
 73
     3
  0
ENDBLK
  5
109
330
100
100
AcDbEntity
  8
0
100
AcDbBlockEnd
  0
BLOCK
  5
113
330
10B
100
AcDbEntity
  8
0
100
AcDbBlockBegin
  2
DMBLK9
 70
     0
 10
0.0
 20
0.0
 30
0.0
  3
DMBLK9
  1

  0
HATCH
  5
10C
330
10B
100
AcDbEntity
  8
Default
  6
Continuous
 62
     7
100
AcDbHatch
 10
0.0
 20
0.0
 30
0.0
210
0.0
220
0.0
230
1.0
  2
SOLID
 70
     1
 71
     0
 91
        1
 92
        1
 93
        3
 72
     1
 10
20.09636547882054
 20
257.1624233673212
 11
21.15469879936371
 21
257.1624233673212
 72
     1
 10
21.15469879936371
 20
257.1624233673212
 11
20.62553213909213
 21
260.3374233289507
 72
     1
 10
20.62553213909213
 20
260.3374233289507
 11
20.09636547882054
 21
257.1624233673212
 97
        0
 75
     0
 76
     1
 98
        0
  0
HATCH
  5
10D
330
10B
100
AcDbEntity
  8
Default
  6
Continuous
 62
     7
100
AcDbHatch
 10
0.0
 20
0.0
 30
0.0
210
0.0
220
0.0
230
1.0
  2
SOLID
 70
     1
 71
     0
 91
        1
 92
        1
 93
        3
 72
     1
 10
20.09636547882054
 20
73.01242329058022
 11
20.62553213909213
 21
69.8374233289507
 72
     1
 10
20.62553213909213
 20
69.8374233289507
 11
21.15469879936371
 21
73.01242329058022
 72
     1
 10
21.15469879936371
 20
73.01242329058022
 11
20.09636547882054
 21
73.01242329058022
 97
        0
 75
     0
 76
     1
 98
        0
  0
LINE
  5
10E
330
10B
100
AcDbEntity
  8
Default
  6
Continuous
 62
     7
100
AcDbLine
 10
57.9558567842
 20
260.337423329
 30
0.0
 11
19.0380321583
 21
260.337423329
 31
0.0
  0
LINE
  5
10F
330
10B
100
AcDbEntity
  8
Default
  6
Continuous
 62
     7
100
AcDbLine
 10
195.6558567842
 20
69.837423329
 30
0.0
 11
19.0380321583
 21
69.837423329
 31
0.0
  0
LINE
  5
110
330
10B
100
AcDbEntity
  8
Default
  6
Continuous
 62
     7
100
AcDbLine
 10
20.6255321391
 20
260.337423329
 30
0.0
 11
20.6255321391
 21
167.7861695929
 31
0.0
  0
LINE
  5
111
330
10B
100
AcDbEntity
  8
Default
  6
Continuous
 62
     7
100
AcDbLine
 10
20.6255321391
 20
162.3886696144
 30
0.0
 11
20.6255321391
 21
69.837423329
 31
0.0
  0
TEXT
  5
112
330
10B
100
AcDbEntity
  8
Default
  6
Continuous
 62
     7
100
AcDbText
 10
15.6784391158
 20
163.4999202891
 30
0.0
 40
3.175
  1
190.5
  7
SEACAD_Solid_Edge_ANSI
 11
15.6784391158
 21
166.6749202891
 31
0.0
100
AcDbText
 73
     3
  0
ENDBLK
  5
114
330
10B
100
AcDbEntity
  8
0
100
AcDbBlockEnd
  0
BLOCK
  5
11E
330
116
100
AcDbEntity
  8
0
100
AcDbBlockBegin
  2
DMBLK10
 70
     0
 10
0.0
 20
0.0
 30
0.0
  3
DMBLK10
  1

  0
HATCH
  5
117
330
116
100
AcDbEntity
  8
Default
  6
Continuous
 62
     7
100
AcDbHatch
 10
0.0
 20
0.0
 30
0.0
210
0.0
220
0.0
230
1.0
  2
SOLID
 70
     1
 71
     0
 91
        1
 92
        1
 93
        3
 72
     1
 10
689.1601972324768
 20
98.41242329058022
 11
688.1018639119336
 21
98.41242329058022
 72
     1
 10
688.1018639119336
 20
98.41242329058022
 11
688.6310305722052
 21
95.23742332895071
 72
     1
 10
688.6310305722052
 20
95.23742332895071
 11
689.1601972324768
 21
98.41242329058022
 97
        0
 75
     0
 76
     1
 98
        0
  0
HATCH
  5
118
330
116
100
AcDbEntity
  8
Default
  6
Continuous
 62
     7
100
AcDbHatch
 10
0.0
 20
0.0
 30
0.0
210
0.0
220
0.0
230
1.0
  2
SOLID
 70
     1
 71
     0
 91
        1
 92
        1
 93
        3
 72
     1
 10
689.1601972324768
 20
257.1624233673212
 11
688.6310305722052
 21
260.3374233289507
 72
     1
 10
688.6310305722052
 20
260.3374233289507
 11
688.1018639119336
 21
257.1624233673212
 72
     1
 10
688.1018639119336
 20
257.1624233673212
 11
689.1601972324768
 21
257.1624233673212
 97
        0
 75
     0
 76
     1
 98
        0
  0
LINE
  5
119
330
116
100
AcDbEntity
  8
Default
  6
Continuous
 62
     7
100
AcDbLine
 10
396.5308580823
 20
95.237423329
 30
0.0
 11
690.218530553
 21
95.237423329
 31
0.0
  0
LINE
  5
11A
330
116
100
AcDbEntity
  8
Default
  6
Continuous
 62
     7
100
AcDbLine
 10
366.6308567459
 20
260.337423329
 30
0.0
 11
690.218530553
 21
260.337423329
 31
0.0
  0
LINE
  5
11B
330
116
100
AcDbEntity
  8
Default
  6
Continuous
 62
     7
100
AcDbLine
 10
688.6310305722
 20
95.237423329
 30
0.0
 11
688.6310305722
 21
175.0886706992
 31
0.0
  0
LINE
  5
11C
330
116
100
AcDbEntity
  8
Default
  6
Continuous
 62
     7
100
AcDbLine
 10
688.6310305722
 20
180.4861685081
 30
0.0
 11
688.6310305722
 21
260.337423329
 31
0.0
  0
TEXT
  5
11D
330
116
100
AcDbEntity
  8
Default
  6
Continuous
 62
     7
100
AcDbText
 10
684.1269608048
 20
176.199920003
 30
0.0
 40
3.175
  1
165.1
  7
SEACAD_Solid_Edge_ANSI
 11
684.1269608048
 21
179.374920003
 31
0.0
100
AcDbText
 73
     3
  0
ENDBLK
  5
11F
330
116
100
AcDbEntity
  8
0
100
AcDbBlockEnd
  0
BLOCK
  5
129
330
121
100
AcDbEntity
  8
0
100
AcDbBlockBegin
  2
DMBLK11
 70
     0
 10
0.0
 20
0.0
 30
0.0
  3
DMBLK11
  1

  0
HATCH
  5
122
330
121
100
AcDbEntity
  8
Default
  6
Continuous
 62
     7
100
AcDbHatch
 10
0.0
 20
0.0
 30
0.0
210
0.0
220
0.0
230
1.0
  2
SOLID
 70
     1
 71
     0
 91
        1
 92
        1
 93
        3
 72
     1
 10
665.9683568034316
 20
308.8331655462158
 11
665.9683568034316
 21
307.7748322256726
 72
     1
 10
665.9683568034316
 20
307.7748322256726
 11
669.1433567650611
 21
308.3039988859442
 72
     1
 10
669.1433567650611
 20
308.3039988859442
 11
665.9683568034316
 21
308.8331655462158
 97
        0
 75
     0
 76
     1
 98
        0
  0
HATCH
  5
123
330
121
100
AcDbEntity
  8
Default
  6
Continuous
 62
     7
100
AcDbHatch
 10
0.0
 20
0.0
 30
0.0
210
0.0
220
0.0
230
1.0
  2
SOLID
 70
     1
 71
     0
 91
        1
 92
        1
 93
        3
 72
     1
 10
62.71835672669057
 20
308.8331655462158
 11
59.54335676506106
 21
308.3039988859442
 72
     1
 10
59.54335676506106
 20
308.3039988859442
 11
62.71835672669057
 21
307.7748322256726
 72
     1
 10
62.71835672669057
 20
307.7748322256726
 11
62.71835672669057
 21
308.8331655462158
 97
        0
 75
     0
 76
     1
 98
        0
  0
LINE
  5
124
330
121
100
AcDbEntity
  8
Default
  6
Continuous
 62
     7
100
AcDbLine
 10
669.1433567651
 20
287.3249233098
 30
0.0
 11
669.1433567651
 21
309.8914988668
 31
0.0
  0
LINE
  5
125
330
121
100
AcDbEntity
  8
Default
  6
Continuous
 62
     7
100
AcDbLine
 10
59.5433567651
 20
287.3249233098
 30
0.0
 11
59.5433567651
 21
309.8914988668
 31
0.0
  0
LINE
  5
126
330
121
100
AcDbEntity
  8
Default
  6
Continuous
 62
     7
100
AcDbLine
 10
669.1433567651
 20
308.3039988859
 30
0.0
 11
370.881624902
 21
308.3039988859
 31
0.0
  0
LINE
  5
127
330
121
100
AcDbEntity
  8
Default
  6
Continuous
 62
     7
100
AcDbLine
 10
357.8050588258
 20
308.3039988859
 30
0.0
 11
59.5433567651
 21
308.3039988859
 31
0.0
  0
TEXT
  5
128
330
121
100
AcDbEntity
  8
Default
  6
Continuous
 62
     7
100
AcDbText
 10
358.9163181143
 20
306.7164988859
 30
0.0
 40
3.175
  1
609.6
  7
SEACAD_Solid_Edge_ANSI
 11
358.9163181143
 21
309.8914988859
 31
0.0
100
AcDbText
 73
     3
  0
ENDBLK
  5
12A
330
121
100
AcDbEntity
  8
0
100
AcDbBlockEnd
  0
BLOCK
  5
134
330
12C
100
AcDbEntity
  8
0
100
AcDbBlockBegin
  2
DMBLK12
 70
     0
 10
0.0
 20
0.0
 30
0.0
  3
DMBLK12
  1

  0
HATCH
  5
12D
330
12C
100
AcDbEntity
  8
Default
  6
Continuous
 62
     7
100
AcDbHatch
 10
0.0
 20
0.0
 30
0.0
210
0.0
220
0.0
230
1.0
  2
SOLID
 70
     1
 71
     0
 91
        1
 92
        1
 93
        3
 72
     1
 10
735.0549816949288
 20
73.01242329058022
 11
733.9966483743856
 21
73.01242329058022
 72
     1
 10
733.9966483743856
 20
73.01242329058022
 11
734.5258150346572
 21
69.8374233289507
 72
     1
 10
734.5258150346572
 20
69.8374233289507
 11
735.0549816949288
 21
73.01242329058022
 97
        0
 75
     0
 76
     1
 98
        0
  0
HATCH
  5
12E
330
12C
100
AcDbEntity
  8
Default
  6
Continuous
 62
     7
100
AcDbHatch
 10
0.0
 20
0.0
 30
0.0
210
0.0
220
0.0
230
1.0
  2
SOLID
 70
     1
 71
     0
 91
        1
 92
        1
 93
        3
 72
     1
 10
735.0549816949288
 20
282.5624233673212
 11
734.5258150346572
 21
285.7374233289507
 72
     1
 10
734.5258150346572
 20
285.7374233289507
 11
733.9966483743856
 21
282.5624233673212
 72
     1
 10
733.9966483743856
 20
282.5624233673212
 11
735.0549816949288
 21
282.5624233673212
 97
        0
 75
     0
 76
     1
 98
        0
  0
LINE
  5
12F
330
12C
100
AcDbEntity
  8
Default
  6
Continuous
 62
     7
100
AcDbLine
 10
670.7308567459
 20
69.837423329
 30
0.0
 11
736.1133150155
 21
69.837423329
 31
0.0
  0
LINE
  5
130
330
12C
100
AcDbEntity
  8
Default
  6
Continuous
 62
     7
100
AcDbLine
 10
670.7308567459
 20
285.737423329
 30
0.0
 11
736.1133150155
 21
285.737423329
 31
0.0
  0
LINE
  5
131
330
12C
100
AcDbEntity
  8
Default
  6
Continuous
 62
     7
100
AcDbLine
 10
734.5258150347
 20
69.837423329
 30
0.0
 11
734.5258150347
 21
175.0886759802
 31
0.0
  0
LINE
  5
132
330
12C
100
AcDbEntity
  8
Default
  6
Continuous
 62
     7
100
AcDbLine
 10
734.5258150347
 20
180.4861781283
 30
0.0
 11
734.5258150347
 21
285.737423329
 31
0.0
  0
TEXT
  5
133
330
12C
100
AcDbEntity
  8
Default
  6
Continuous
 62
     7
100
AcDbText
 10
729.5787220114
 20
176.199925284
 30
0.0
 40
3.175
  1
215.9
  7
SEACAD_Solid_Edge_ANSI
 11
729.5787220114
 21
179.374925284
 31
0.0
100
AcDbText
 73
     3
  0
ENDBLK
  5
135
330
12C
100
AcDbEntity
  8
0
100
AcDbBlockEnd
  0
BLOCK
  5
13E
330
138
100
AcDbEntity
  8
0
100
AcDbBlockBegin
  2
DMBLK13
 70
     0
 10
0.0
 20
0.0
 30
0.0
  3
DMBLK13
  1

  0
LINE
  5
139
330
138
100
AcDbEntity
  8
Default
  6
Continuous
 62
     7
100
AcDbLine
 10
336.0331209299
 20
261.4645288688
 30
0.0
 11
348.2865194814
 21
275.4182300436
 31
0.0
  0
HATCH
  5
13A
330
138
100
AcDbEntity
  8
Default
  6
Continuous
 62
     7
100
AcDbHatch
 10
0.0
 20
0.0
 30
0.0
210
0.0
220
0.0
230
1.0
  2
SOLID
 70
     1
 71
     0
 91
        1
 92
        1
 93
        3
 72
     1
 10
337.7305039372782
 20
264.1994023644227
 11
336.0331209298975
 21
261.4645288688208
 72
     1
 10
336.0331209298975
 20
261.4645288688208
 11
338.5257395030204
 21
263.5010687676721
 72
     1
 10
338.5257395030204
 20
263.5010687676721
 11
337.7305039372782
 21
264.1994023644227
 97
        0
 75
     0
 76
     1
 98
        0
  0
LINE
  5
13B
330
138
100
AcDbEntity
  8
Default
  6
Continuous
 62
     7
100
AcDbLine
 10
348.2865198059
 20
275.4182304131
 30
0.0
 11
353.0490198647
 21
275.4182304131
 31
0.0
  0
TEXT
  5
13C
330
138
100
AcDbEntity
  8
Default
  6
Continuous
 62
     7
100
AcDbText
 10
354.1602698647
 20
273.8307304131
 30
0.0
 40
3.175
  1
O
  7
SEACAD_Solid_Edge_ANSI1_Symbols
 11
354.1602698647
 21
277.0057304131
 31
0.0
100
AcDbText
 73
     3
  0
TEXT
  5
13D
330
138
100
AcDbEntity
  8
Default
  6
Continuous
 62
     7
100
AcDbText
 10
359.6858838998
 20
273.8307304131
 30
0.0
 40
3.175
  1
3
  7
SEACAD_Solid_Edge_ANSI
 11
359.6858838998
 21
277.0057304131
 31
0.0
100
AcDbText
 73
     3
  0
ENDBLK
  5
13F
330
138
100
AcDbEntity
  8
0
100
AcDbBlockEnd
  0
BLOCK
  5
149
330
141
100
AcDbEntity
  8
0
100
AcDbBlockBegin
  2
DMBLK14
 70
     0
 10
0.0
 20
0.0
 30
0.0
  3
DMBLK14
  1

  0
HATCH
  5
142
330
141
100
AcDbEntity
  8
Default
  6
Continuous
 62
     7
100
AcDbHatch
 10
0.0
 20
0.0
 30
0.0
210
0.0
220
0.0
230
1.0
  2
SOLID
 70
     1
 71
     0
 91
        1
 92
        1
 93
        3
 72
     1
 10
41.79372277576421
 20
364.8162980565815
 11
42.85205609630738
 21
364.8162980565815
 72
     1
 10
42.85205609630738
 20
364.8162980565815
 11
42.32288943603579
 21
367.991298018211
 72
     1
 10
42.32288943603579
 20
367.991298018211
 11
41.79372277576421
 21
364.8162980565815
 97
        0
 75
     0
 76
     1
 98
        0
  0
HATCH
  5
143
330
141
100
AcDbEntity
  8
Default
  6
Continuous
 62
     7
100
AcDbHatch
 10
0.0
 20
0.0
 30
0.0
210
0.0
220
0.0
230
1.0
  2
SOLID
 70
     1
 71
     0
 91
        1
 92
        1
 93
        3
 72
     1
 10
41.79372277576421
 20
333.0662979798405
 11
42.32288943603579
 21
329.891298018211
 72
     1
 10
42.32288943603579
 20
329.891298018211
 11
42.85205609630738
 21
333.0662979798405
 72
     1
 10
42.85205609630738
 20
333.0662979798405
 11
41.79372277576421
 21
333.0662979798405
 97
        0
 75
     0
 76
     1
 98
        0
  0
LINE
  5
144
330
141
100
AcDbEntity
  8
Default
  6
Continuous
 62
     7
100
AcDbLine
 10
57.9558567842
 20
367.9912980182
 30
0.0
 11
40.7353894552
 21
367.9912980182
 31
0.0
  0
LINE
  5
145
330
141
100
AcDbEntity
  8
Default
  6
Continuous
 62
     7
100
AcDbLine
 10
57.9558567842
 20
329.8912980182
 30
0.0
 11
40.7353894552
 21
329.8912980182
 31
0.0
  0
LINE
  5
146
330
141
100
AcDbEntity
  8
Default
  6
Continuous
 62
     7
100
AcDbLine
 10
42.322889436
 20
367.9912980182
 30
0.0
 11
42.322889436
 21
351.6400470866
 31
0.0
  0
LINE
  5
147
330
141
100
AcDbEntity
  8
Default
  6
Continuous
 62
     7
100
AcDbLine
 10
42.322889436
 20
346.2425470872
 30
0.0
 11
42.322889436
 21
329.8912980182
 31
0.0
  0
TEXT
  5
148
330
141
100
AcDbEntity
  8
Default
  6
Continuous
 62
     7
100
AcDbText
 10
38.7048661802
 20
347.3537977828
 30
0.0
 40
3.175
  1
38.1
  7
SEACAD_Solid_Edge_ANSI
 11
38.7048661802
 21
350.5287977828
 31
0.0
100
AcDbText
 73
     3
  0
ENDBLK
  5
14A
330
141
100
AcDbEntity
  8
0
100
AcDbBlockEnd
  0
BLOCK
  5
154
330
14C
100
AcDbEntity
  8
0
100
AcDbBlockBegin
  2
DMBLK15
 70
     0
 10
0.0
 20
0.0
 30
0.0
  3
DMBLK15
  1

  0
HATCH
  5
14D
330
14C
100
AcDbEntity
  8
Default
  6
Continuous
 62
     7
100
AcDbHatch
 10
0.0
 20
0.0
 30
0.0
210
0.0
220
0.0
230
1.0
  2
SOLID
 70
     1
 71
     0
 91
        1
 92
        1
 93
        3
 72
     1
 10
665.9683568034316
 20
389.7917921889587
 11
665.9683568034316
 21
388.7334588684155
 72
     1
 10
665.9683568034316
 20
388.7334588684155
 11
669.1433567650611
 21
389.2626255286871
 72
     1
 10
669.1433567650611
 20
389.2626255286871
 11
665.9683568034316
 21
389.7917921889587
 97
        0
 75
     0
 76
     1
 98
        0
  0
HATCH
  5
14E
330
14C
100
AcDbEntity
  8
Default
  6
Continuous
 62
     7
100
AcDbHatch
 10
0.0
 20
0.0
 30
0.0
210
0.0
220
0.0
230
1.0
  2
SOLID
 70
     1
 71
     0
 91
        1
 92
        1
 93
        3
 72
     1
 10
62.71835672669057
 20
389.7917921889587
 11
59.54335676506106
 21
389.2626255286871
 72
     1
 10
59.54335676506106
 20
389.2626255286871
 11
62.71835672669057
 21
388.7334588684155
 72
     1
 10
62.71835672669057
 20
388.7334588684155
 11
62.71835672669057
 21
389.7917921889587
 97
        0
 75
     0
 76
     1
 98
        0
  0
LINE
  5
14F
330
14C
100
AcDbEntity
  8
Default
  6
Continuous
 62
     7
100
AcDbLine
 10
669.1433567651
 20
369.578797999
 30
0.0
 11
669.1433567651
 21
390.8501255095
 31
0.0
  0
LINE
  5
150
330
14C
100
AcDbEntity
  8
Default
  6
Continuous
 62
     7
100
AcDbLine
 10
59.5433567651
 20
369.578797999
 30
0.0
 11
59.5433567651
 21
390.8501255095
 31
0.0
  0
LINE
  5
151
330
14C
100
AcDbEntity
  8
Default
  6
Continuous
 62
     7
100
AcDbLine
 10
669.1433567651
 20
389.2626255287
 30
0.0
 11
370.881624902
 21
389.2626255287
 31
0.0
  0
LINE
  5
152
330
14C
100
AcDbEntity
  8
Default
  6
Continuous
 62
     7
100
AcDbLine
 10
357.8050588258
 20
389.2626255287
 30
0.0
 11
59.5433567651
 21
389.2626255287
 31
0.0
  0
TEXT
  5
153
330
14C
100
AcDbEntity
  8
Default
  6
Continuous
 62
     7
100
AcDbText
 10
358.9163181143
 20
387.6751255287
 30
0.0
 40
3.175
  1
609.6
  7
SEACAD_Solid_Edge_ANSI
 11
358.9163181143
 21
390.8501255287
 31
0.0
100
AcDbText
 73
     3
  0
ENDBLK
  5
155
330
14C
100
AcDbEntity
  8
0
100
AcDbBlockEnd
  0
BLOCK
  5
15F
330
157
100
AcDbEntity
  8
0
100
AcDbBlockBegin
  2
DMBLK16
 70
     0
 10
0.0
 20
0.0
 30
0.0
  3
DMBLK16
  1

  0
HATCH
  5
158
330
157
100
AcDbEntity
  8
Default
  6
Continuous
 62
     7
100
AcDbHatch
 10
0.0
 20
0.0
 30
0.0
210
0.0
220
0.0
230
1.0
  2
SOLID
 70
     1
 71
     0
 91
        1
 92
        1
 93
        3
 72
     1
 10
682.7588861672202
 20
350.1662979798405
 11
681.700552846677
 21
350.1662979798405
 72
     1
 10
681.700552846677
 20
350.1662979798405
 11
682.2297195069486
 21
346.991298018211
 72
     1
 10
682.2297195069486
 20
346.991298018211
 11
682.7588861672202
 21
350.1662979798405
 97
        0
 75
     0
 76
     1
 98
        0
  0
HATCH
  5
159
330
157
100
AcDbEntity
  8
Default
  6
Continuous
 62
     7
100
AcDbHatch
 10
0.0
 20
0.0
 30
0.0
210
0.0
220
0.0
230
1.0
  2
SOLID
 70
     1
 71
     0
 91
        1
 92
        1
 93
        3
 72
     1
 10
682.7588861672202
 20
364.8162980565815
 11
682.2297195069486
 21
367.991298018211
 72
     1
 10
682.2297195069486
 20
367.991298018211
 11
681.700552846677
 21
364.8162980565815
 72
     1
 10
681.700552846677
 20
364.8162980565815
 11
682.7588861672202
 21
364.8162980565815
 97
        0
 75
     0
 76
     1
 98
        0
  0
LINE
  5
15A
330
157
100
AcDbEntity
  8
Default
  6
Continuous
 62
     7
100
AcDbLine
 10
670.7308567459
 20
346.9912980182
 30
0.0
 11
683.8172194878
 21
346.9912980182
 31
0.0
  0
LINE
  5
15B
330
157
100
AcDbEntity
  8
Default
  6
Continuous
 62
     7
100
AcDbLine
 10
670.7308567459
 20
367.9912980182
 30
0.0
 11
683.8172194878
 21
367.9912980182
 31
0.0
  0
LINE
  5
15C
330
157
100
AcDbEntity
  8
Default
  6
Continuous
 62
     7
100
AcDbLine
 10
682.2297195069
 20
346.9912980182
 30
0.0
 11
682.2297195069
 21
354.7925481072
 31
0.0
  0
LINE
  5
15D
330
157
100
AcDbEntity
  8
Default
  6
Continuous
 62
     7
100
AcDbLine
 10
682.2297195069
 20
360.1900479293
 30
0.0
 11
682.2297195069
 21
367.9912980182
 31
0.0
  0
TEXT
  5
15E
330
157
100
AcDbEntity
  8
Default
  6
Continuous
 62
     7
100
AcDbText
 10
680.1253590418
 20
355.9037978766
 30
0.0
 40
3.175
  1
21
  7
SEACAD_Solid_Edge_ANSI
 11
680.1253590418
 21
359.0787978766
 31
0.0
100
AcDbText
 73
     3
  0
ENDBLK
  5
160
330
157
100
AcDbEntity
  8
0
100
AcDbBlockEnd
  0
BLOCK
  5
16A
330
162
100
AcDbEntity
  8
0
100
AcDbBlockBegin
  2
DMBLK17
 70
     0
 10
0.0
 20
0.0
 30
0.0
  3
DMBLK17
  1

  0
HATCH
  5
163
330
162
100
AcDbEntity
  8
Default
  6
Continuous
 62
     7
100
AcDbHatch
 10
0.0
 20
0.0
 30
0.0
210
0.0
220
0.0
230
1.0
  2
SOLID
 70
     1
 71
     0
 91
        1
 92
        1
 93
        3
 72
     1
 10
299.1453741776745
 20
427.7382398935196
 11
298.0870408571313
 21
427.7382398935196
 72
     1
 10
298.0870408571313
 20
427.7382398935196
 11
298.6162075174029
 21
424.5632399318901
 72
     1
 10
298.6162075174029
 20
424.5632399318901
 11
299.1453741776745
 21
427.7382398935196
 97
        0
 75
     0
 76
     1
 98
        0
  0
HATCH
  5
164
330
162
100
AcDbEntity
  8
Default
  6
Continuous
 62
     7
100
AcDbHatch
 10
0.0
 20
0.0
 30
0.0
210
0.0
220
0.0
230
1.0
  2
SOLID
 70
     1
 71
     0
 91
        1
 92
        1
 93
        3
 72
     1
 10
299.1453741776745
 20
459.4882399702606
 11
298.6162075174029
 21
462.6632399318901
 72
     1
 10
298.6162075174029
 20
462.6632399318901
 11
298.0870408571313
 21
459.4882399702606
 72
     1
 10
298.0870408571313
 20
459.4882399702606
 11
299.1453741776745
 21
459.4882399702606
 97
        0
 75
     0
 76
     1
 98
        0
  0
LINE
  5
165
330
162
100
AcDbEntity
  8
Default
  6
Continuous
 62
     7
100
AcDbLine
 10
276.9576594799
 20
424.5632399319
 30
0.0
 11
300.2037074982
 21
424.5632399319
 31
0.0
  0
LINE
  5
166
330
162
100
AcDbEntity
  8
Default
  6
Continuous
 62
     7
100
AcDbLine
 10
276.9576594799
 20
462.6632399319
 30
0.0
 11
300.2037074982
 21
462.6632399319
 31
0.0
  0
LINE
  5
167
330
162
100
AcDbEntity
  8
Default
  6
Continuous
 62
     7
100
AcDbLine
 10
298.6162075174
 20
424.5632399319
 30
0.0
 11
298.6162075174
 21
440.9144908635
 31
0.0
  0
LINE
  5
168
330
162
100
AcDbEntity
  8
Default
  6
Continuous
 62
     7
100
AcDbLine
 10
298.6162075174
 20
446.3119908629
 30
0.0
 11
298.6162075174
 21
462.6632399319
 31
0.0
  0
TEXT
  5
169
330
162
100
AcDbEntity
  8
Default
  6
Continuous
 62
     7
100
AcDbText
 10
294.9981842616
 20
442.0257401673
 30
0.0
 40
3.175
  1
38.1
  7
SEACAD_Solid_Edge_ANSI
 11
294.9981842616
 21
445.2007401673
 31
0.0
100
AcDbText
 73
     3
  0
ENDBLK
  5
16B
330
162
100
AcDbEntity
  8
0
100
AcDbBlockEnd
  0
BLOCK
  5
175
330
16D
100
AcDbEntity
  8
0
100
AcDbBlockBegin
  2
DMBLK18
 70
     0
 10
0.0
 20
0.0
 30
0.0
  3
DMBLK18
  1

  0
HATCH
  5
16E
330
16D
100
AcDbEntity
  8
Default
  6
Continuous
 62
     7
100
AcDbHatch
 10
0.0
 20
0.0
 30
0.0
210
0.0
220
0.0
230
1.0
  2
SOLID
 70
     1
 71
     0
 91
        1
 92
        1
 93
        3
 72
     1
 10
62.64515946069607
 20
412.8241020001632
 11
62.64515946069607
 21
413.8824353207063
 72
     1
 10
62.64515946069607
 20
413.8824353207063
 11
59.47015949906656
 21
413.3532686604348
 72
     1
 10
59.47015949906656
 20
413.3532686604348
 11
62.64515946069607
 21
412.8241020001632
 97
        0
 75
     0
 76
     1
 98
        0
  0
HATCH
  5
16F
330
16D
100
AcDbEntity
  8
Default
  6
Continuous
 62
     7
100
AcDbHatch
 10
0.0
 20
0.0
 30
0.0
210
0.0
220
0.0
230
1.0
  2
SOLID
 70
     1
 71
     0
 91
        1
 92
        1
 93
        3
 72
     1
 10
272.1951595374371
 20
412.8241020001632
 11
275.3701594990666
 21
413.3532686604348
 72
     1
 10
275.3701594990666
 20
413.3532686604348
 11
272.1951595374371
 21
413.8824353207063
 72
     1
 10
272.1951595374371
 20
413.8824353207063
 11
272.1951595374371
 21
412.8241020001632
 97
        0
 75
     0
 76
     1
 98
        0
  0
LINE
  5
170
330
16D
100
AcDbEntity
  8
Default
  6
Continuous
 62
     7
100
AcDbLine
 10
59.4701594991
 20
422.9757399511
 30
0.0
 11
59.4701594991
 21
411.7657686796
 31
0.0
  0
LINE
  5
171
330
16D
100
AcDbEntity
  8
Default
  6
Continuous
 62
     7
100
AcDbLine
 10
275.3701594991
 20
422.9757399511
 30
0.0
 11
275.3701594991
 21
411.7657686796
 31
0.0
  0
LINE
  5
172
330
16D
100
AcDbEntity
  8
Default
  6
Continuous
 62
     7
100
AcDbLine
 10
59.4701594991
 20
413.3532686604
 30
0.0
 11
161.3618186993
 21
413.3532686604
 31
0.0
  0
LINE
  5
173
330
16D
100
AcDbEntity
  8
Default
  6
Continuous
 62
     7
100
AcDbLine
 10
173.4785077495
 20
413.3532686604
 30
0.0
 11
275.3701594991
 21
413.3532686604
 31
0.0
  0
TEXT
  5
174
330
16D
100
AcDbEntity
  8
Default
  6
Continuous
 62
     7
100
AcDbText
 10
162.4730684308
 20
411.7657686604
 30
0.0
 40
3.175
  1
215.9
  7
SEACAD_Solid_Edge_ANSI
 11
162.4730684308
 21
414.9407686604
 31
0.0
100
AcDbText
 73
     3
  0
ENDBLK
  5
176
330
16D
100
AcDbEntity
  8
0
100
AcDbBlockEnd
  0
BLOCK
  5
180
330
178
100
AcDbEntity
  8
0
100
AcDbBlockBegin
  2
DMBLK19
 70
     0
 10
0.0
 20
0.0
 30
0.0
  3
DMBLK19
  1

  0
HATCH
  5
179
330
178
100
AcDbEntity
  8
Default
  6
Continuous
 62
     7
100
AcDbHatch
 10
0.0
 20
0.0
 30
0.0
210
0.0
220
0.0
230
1.0
  2
SOLID
 70
     1
 71
     0
 91
        1
 92
        1
 93
        3
 72
     1
 10
195.9951595374371
 20
436.0744129650456
 11
199.1701594990666
 21
436.6035796253171
 72
     1
 10
199.1701594990666
 20
436.6035796253171
 11
195.9951595374371
 21
437.1327462855887
 72
     1
 10
195.9951595374371
 20
437.1327462855887
 11
195.9951595374371
 21
436.0744129650456
 97
        0
 75
     0
 76
     1
 98
        0
  0
HATCH
  5
17A
330
178
100
AcDbEntity
  8
Default
  6
Continuous
 62
     7
100
AcDbHatch
 10
0.0
 20
0.0
 30
0.0
210
0.0
220
0.0
230
1.0
  2
SOLID
 70
     1
 71
     0
 91
        1
 92
        1
 93
        3
 72
     1
 10
138.8451594606961
 20
436.0744129650456
 11
138.8451594606961
 21
437.1327462855887
 72
     1
 10
138.8451594606961
 20
437.1327462855887
 11
135.6701594990666
 21
436.6035796253171
 72
     1
 10
135.6701594990666
 20
436.6035796253171
 11
138.8451594606961
 21
436.0744129650456
 97
        0
 75
     0
 76
     1
 98
        0
  0
LINE
  5
17B
330
178
100
AcDbEntity
  8
Default
  6
Continuous
 62
     7
100
AcDbLine
 10
199.1701594991
 20
443.9757399511
 30
0.0
 11
199.1701594991
 21
435.0160796445
 31
0.0
  0
LINE
  5
17C
330
178
100
AcDbEntity
  8
Default
  6
Continuous
 62
     7
100
AcDbLine
 10
135.6701594991
 20
443.9757399511
 30
0.0
 11
135.6701594991
 21
435.0160796445
 31
0.0
  0
LINE
  5
17D
330
178
100
AcDbEntity
  8
Default
  6
Continuous
 62
     7
100
AcDbLine
 10
199.1701594991
 20
436.6035796253
 30
0.0
 11
172.7032105875
 21
436.6035796253
 31
0.0
  0
LINE
  5
17E
330
178
100
AcDbEntity
  8
Default
  6
Continuous
 62
     7
100
AcDbLine
 10
162.137106548
 20
436.6035796253
 30
0.0
 11
135.6701594991
 21
436.6035796253
 31
0.0
  0
TEXT
  5
17F
330
178
100
AcDbEntity
  8
Default
  6
Continuous
 62
     7
100
AcDbText
 10
163.2483561602
 20
435.0160796253
 30
0.0
 40
3.175
  1
63.5
  7
SEACAD_Solid_Edge_ANSI
 11
163.2483561602
 21
438.1910796253
 31
0.0
100
AcDbText
 73
     3
  0
ENDBLK
  5
181
330
178
100
AcDbEntity
  8
0
100
AcDbBlockEnd
  0
BLOCK
  5
18B
330
183
100
AcDbEntity
  8
0
100
AcDbBlockBegin
  2
DMBLK20
 70
     0
 10
0.0
 20
0.0
 30
0.0
  3
DMBLK20
  1

  0
HATCH
  5
184
330
183
100
AcDbEntity
  8
Default
  6
Continuous
 62
     7
100
AcDbHatch
 10
0.0
 20
0.0
 30
0.0
210
0.0
220
0.0
230
1.0
  2
SOLID
 70
     1
 71
     0
 91
        1
 92
        1
 93
        3
 72
     1
 10
284.6139284986059
 20
442.3882399702605
 11
284.0847618383343
 21
445.5632399318901
 72
     1
 10
284.0847618383343
 20
445.5632399318901
 11
283.5555951780627
 21
442.3882399702605
 72
     1
 10
283.5555951780627
 20
442.3882399702605
 11
284.6139284986059
 21
442.3882399702605
 97
        0
 75
     0
 76
     1
 98
        0
  0
HATCH
  5
185
330
183
100
AcDbEntity
  8
Default
  6
Continuous
 62
     7
100
AcDbHatch
 10
0.0
 20
0.0
 30
0.0
210
0.0
220
0.0
230
1.0
  2
SOLID
 70
     1
 71
     0
 91
        1
 92
        1
 93
        3
 72
     1
 10
284.6139284986059
 20
427.7382398935196
 11
283.5555951780627
 21
427.7382398935196
 72
     1
 10
283.5555951780627
 20
427.7382398935196
 11
284.0847618383343
 21
424.5632399318901
 72
     1
 10
284.0847618383343
 20
424.5632399318901
 11
284.6139284986059
 21
427.7382398935196
 97
        0
 75
     0
 76
     1
 98
        0
  0
LINE
  5
186
330
183
100
AcDbEntity
  8
Default
  6
Continuous
 62
     7
100
AcDbLine
 10
200.7576594799
 20
445.5632399319
 30
0.0
 11
285.6722618191
 21
445.5632399319
 31
0.0
  0
LINE
  5
187
330
183
100
AcDbEntity
  8
Default
  6
Continuous
 62
     7
100
AcDbLine
 10
169.0076594799
 20
424.5632399319
 30
0.0
 11
285.6722618191
 21
424.5632399319
 31
0.0
  0
LINE
  5
188
330
183
100
AcDbEntity
  8
Default
  6
Continuous
 62
     7
100
AcDbLine
 10
284.0847618383
 20
445.5632399319
 30
0.0
 11
284.0847618383
 21
437.7619898429
 31
0.0
  0
LINE
  5
189
330
183
100
AcDbEntity
  8
Default
  6
Continuous
 62
     7
100
AcDbLine
 10
284.0847618383
 20
432.3644900208
 30
0.0
 11
284.0847618383
 21
424.5632399319
 31
0.0
  0
TEXT
  5
18A
330
183
100
AcDbEntity
  8
Default
  6
Continuous
 62
     7
100
AcDbText
 10
281.9804013732
 20
433.4757400735
 30
0.0
 40
3.175
  1
21
  7
SEACAD_Solid_Edge_ANSI
 11
281.9804013732
 21
436.6507400735
 31
0.0
100
AcDbText
 73
     3
  0
ENDBLK
  5
18C
330
183
100
AcDbEntity
  8
0
100
AcDbBlockEnd
  0
BLOCK
  5
196
330
18E
100
AcDbEntity
  8
0
100
AcDbBlockBegin
  2
DMBLK21
 70
     0
 10
0.0
 20
0.0
 30
0.0
  3
DMBLK21
  1

  0
HATCH
  5
18F
330
18E
100
AcDbEntity
  8
Default
  6
Continuous
 62
     7
100
AcDbHatch
 10
0.0
 20
0.0
 30
0.0
210
0.0
220
0.0
230
1.0
  2
SOLID
 70
     1
 71
     0
 91
        1
 92
        1
 93
        3
 72
     1
 10
665.9683568034316
 20
223.2543430258405
 11
665.9683568034316
 21
222.1960097052973
 72
     1
 10
665.9683568034316
 20
222.1960097052973
 11
669.1433567650611
 21
222.7251763655689
 72
     1
 10
669.1433567650611
 20
222.7251763655689
 11
665.9683568034316
 21
223.2543430258405
 97
        0
 75
     0
 76
     1
 98
        0
  0
HATCH
  5
190
330
18E
100
AcDbEntity
  8
Default
  6
Continuous
 62
     7
100
AcDbHatch
 10
0.0
 20
0.0
 30
0.0
210
0.0
220
0.0
230
1.0
  2
SOLID
 70
     1
 71
     0
 91
        1
 92
        1
 93
        3
 72
     1
 10
267.3183567266906
 20
223.2543430258405
 11
264.1433567650611
 21
222.7251763655689
 72
     1
 10
264.1433567650611
 20
222.7251763655689
 11
267.3183567266906
 21
222.1960097052973
 72
     1
 10
267.3183567266906
 20
222.1960097052973
 11
267.3183567266906
 21
223.2543430258405
 97
        0
 75
     0
 76
     1
 98
        0
  0
LINE
  5
191
330
18E
100
AcDbEntity
  8
Default
  6
Continuous
 62
     7
100
AcDbLine
 10
669.1433567651
 20
211.1249233098
 30
0.0
 11
669.1433567651
 21
224.3126763464
 31
0.0
  0
LINE
  5
192
330
18E
100
AcDbEntity
  8
Default
  6
Continuous
 62
     7
100
AcDbLine
 10
264.1433567651
 20
211.1249233098
 30
0.0
 11
264.1433567651
 21
224.3126763464
 31
0.0
  0
LINE
  5
193
330
18E
100
AcDbEntity
  8
Default
  6
Continuous
 62
     7
100
AcDbLine
 10
669.1433567651
 20
222.7251763656
 30
0.0
 11
471.6310579427
 21
222.7251763656
 31
0.0
  0
LINE
  5
194
330
18E
100
AcDbEntity
  8
Default
  6
Continuous
 62
     7
100
AcDbLine
 10
461.6556555875
 20
222.7251763656
 30
0.0
 11
264.1433567651
 21
222.7251763656
 31
0.0
  0
TEXT
  5
195
330
18E
100
AcDbEntity
  8
Default
  6
Continuous
 62
     7
100
AcDbText
 10
462.7669026806
 20
221.1376763656
 30
0.0
 40
3.175
  1
405
  7
SEACAD_Solid_Edge_ANSI
 11
462.7669026806
 21
224.3126763656
 31
0.0
100
AcDbText
 73
     3
  0
ENDBLK
  5
197
330
18E
100
AcDbEntity
  8
0
100
AcDbBlockEnd
  0
BLOCK
  5
1A1
330
199
100
AcDbEntity
  8
0
100
AcDbBlockBegin
  2
DMBLK22
 70
     0
 10
0.0
 20
0.0
 30
0.0
  3
DMBLK22
  1

  0
HATCH
  5
19A
330
199
100
AcDbEntity
  8
Default
  6
Continuous
 62
     7
100
AcDbHatch
 10
0.0
 20
0.0
 30
0.0
210
0.0
220
0.0
230
1.0
  2
SOLID
 70
     1
 71
     0
 91
        1
 92
        1
 93
        3
 72
     1
 10
716.6842576725403
 20
142.8624233673212
 11
716.1550910122687
 21
146.0374233289507
 72
     1
 10
716.1550910122687
 20
146.0374233289507
 11
715.6259243519971
 21
142.8624233673212
 72
     1
 10
715.6259243519971
 20
142.8624233673212
 11
716.6842576725403
 21
142.8624233673212
 97
        0
 75
     0
 76
     1
 98
        0
  0
HATCH
  5
19B
330
199
100
AcDbEntity
  8
Default
  6
Continuous
 62
     7
100
AcDbHatch
 10
0.0
 20
0.0
 30
0.0
210
0.0
220
0.0
230
1.0
  2
SOLID
 70
     1
 71
     0
 91
        1
 92
        1
 93
        3
 72
     1
 10
716.6842576725403
 20
73.01242329058022
 11
715.6259243519971
 21
73.01242329058022
 72
     1
 10
715.6259243519971
 20
73.01242329058022
 11
716.1550910122687
 21
69.8374233289507
 72
     1
 10
716.1550910122687
 20
69.8374233289507
 11
716.6842576725403
 21
73.01242329058022
 97
        0
 75
     0
 76
     1
 98
        0
  0
LINE
  5
19C
330
199
100
AcDbEntity
  8
Default
  6
Continuous
 62
     7
100
AcDbLine
 10
670.7308680661
 20
146.037423329
 30
0.0
 11
717.7425909931
 21
146.037423329
 31
0.0
  0
LINE
  5
19D
330
199
100
AcDbEntity
  8
Default
  6
Continuous
 62
     7
100
AcDbLine
 10
336.6308567459
 20
69.837423329
 30
0.0
 11
717.7425909931
 21
69.837423329
 31
0.0
  0
LINE
  5
19E
330
199
100
AcDbEntity
  8
Default
  6
Continuous
 62
     7
100
AcDbLine
 10
716.1550910123
 20
146.037423329
 30
0.0
 11
716.1550910123
 21
110.6361721619
 31
0.0
  0
LINE
  5
19F
330
199
100
AcDbEntity
  8
Default
  6
Continuous
 62
     7
100
AcDbLine
 10
716.1550910123
 20
105.238674496
 30
0.0
 11
716.1550910123
 21
69.837423329
 31
0.0
  0
TEXT
  5
1A0
330
199
100
AcDbEntity
  8
Default
  6
Continuous
 62
     7
100
AcDbText
 10
712.057125896
 20
106.3499228581
 30
0.0
 40
3.175
  1
76.2
  7
SEACAD_Solid_Edge_ANSI
 11
712.057125896
 21
109.5249228581
 31
0.0
100
AcDbText
 73
     3
  0
ENDBLK
  5
1A2
330
199
100
AcDbEntity
  8
0
100
AcDbBlockEnd
  0
BLOCK
  5
1AC
330
1A4
100
AcDbEntity
  8
0
100
AcDbBlockBegin
  2
DMBLK23
 70
     0
 10
0.0
 20
0.0
 30
0.0
  3
DMBLK23
  1

  0
HATCH
  5
1A5
330
1A4
100
AcDbEntity
  8
Default
  6
Continuous
 62
     7
100
AcDbHatch
 10
0.0
 20
0.0
 30
0.0
210
0.0
220
0.0
230
1.0
  2
SOLID
 70
     1
 71
     0
 91
        1
 92
        1
 93
        3
 72
     1
 10
714.0893645448605
 20
212.7124232905802
 11
713.0310312243173
 21
212.7124232905802
 72
     1
 10
713.0310312243173
 20
212.7124232905802
 11
713.5601978845889
 21
209.5374233289507
 72
     1
 10
713.5601978845889
 20
209.5374233289507
 11
714.0893645448605
 21
212.7124232905802
 97
        0
 75
     0
 76
     1
 98
        0
  0
HATCH
  5
1A6
330
1A4
100
AcDbEntity
  8
Default
  6
Continuous
 62
     7
100
AcDbHatch
 10
0.0
 20
0.0
 30
0.0
210
0.0
220
0.0
230
1.0
  2
SOLID
 70
     1
 71
     0
 91
        1
 92
        1
 93
        3
 72
     1
 10
714.0893645448605
 20
282.5624233673212
 11
713.5601978845889
 21
285.7374233289507
 72
     1
 10
713.5601978845889
 20
285.7374233289507
 11
713.0310312243173
 21
282.5624233673212
 72
     1
 10
713.0310312243173
 20
282.5624233673212
 11
714.0893645448605
 21
282.5624233673212
 97
        0
 75
     0
 76
     1
 98
        0
  0
LINE
  5
1A7
330
1A4
100
AcDbEntity
  8
Default
  6
Continuous
 62
     7
100
AcDbLine
 10
670.7308567459
 20
209.537423329
 30
0.0
 11
715.1476978654
 21
209.537423329
 31
0.0
  0
LINE
  5
1A8
330
1A4
100
AcDbEntity
  8
Default
  6
Continuous
 62
     7
100
AcDbLine
 10
546.6308567459
 20
285.737423329
 30
0.0
 11
715.1476978654
 21
285.737423329
 31
0.0
  0
LINE
  5
1A9
330
1A4
100
AcDbEntity
  8
Default
  6
Continuous
 62
     7
100
AcDbLine
 10
713.5601978846
 20
209.537423329
 30
0.0
 11
713.5601978846
 21
244.938674496
 31
0.0
  0
LINE
  5
1AA
330
1A4
100
AcDbEntity
  8
Default
  6
Continuous
 62
     7
100
AcDbLine
 10
713.5601978846
 20
250.3361721619
 30
0.0
 11
713.5601978846
 21
285.737423329
 31
0.0
  0
TEXT
  5
1AB
330
1A4
100
AcDbEntity
  8
Default
  6
Continuous
 62
     7
100
AcDbText
 10
709.4622327683
 20
246.0499237998
 30
0.0
 40
3.175
  1
76.2
  7
SEACAD_Solid_Edge_ANSI
 11
709.4622327683
 21
249.2249237998
 31
0.0
100
AcDbText
 73
     3
  0
ENDBLK
  5
1AD
330
1A4
100
AcDbEntity
  8
0
100
AcDbBlockEnd
  0
BLOCK
  5
1B7
330
1AF
100
AcDbEntity
  8
0
100
AcDbBlockBegin
  2
DMBLK24
 70
     0
 10
0.0
 20
0.0
 30
0.0
  3
DMBLK24
  1

  0
HATCH
  5
1B0
330
1AF
100
AcDbEntity
  8
Default
  6
Continuous
 62
     7
100
AcDbHatch
 10
0.0
 20
0.0
 30
0.0
210
0.0
220
0.0
230
1.0
  2
SOLID
 70
     1
 71
     0
 91
        1
 92
        1
 93
        3
 72
     1
 10
665.9683568034316
 20
379.0043197769685
 11
665.9683568034316
 21
377.9459864564254
 72
     1
 10
665.9683568034316
 20
377.9459864564254
 11
669.1433567650611
 21
378.475153116697
 72
     1
 10
669.1433567650611
 20
378.475153116697
 11
665.9683568034316
 21
379.0043197769685
 97
        0
 75
     0
 76
     1
 98
        0
  0
HATCH
  5
1B1
330
1AF
100
AcDbEntity
  8
Default
  6
Continuous
 62
     7
100
AcDbHatch
 10
0.0
 20
0.0
 30
0.0
210
0.0
220
0.0
230
1.0
  2
SOLID
 70
     1
 71
     0
 91
        1
 92
        1
 93
        3
 72
     1
 10
267.3183567266906
 20
379.0043197769685
 11
264.1433567650611
 21
378.475153116697
 72
     1
 10
264.1433567650611
 20
378.475153116697
 11
267.3183567266906
 21
377.9459864564254
 72
     1
 10
267.3183567266906
 20
377.9459864564254
 11
267.3183567266906
 21
379.0043197769685
 97
        0
 75
     0
 76
     1
 98
        0
  0
LINE
  5
1B2
330
1AF
100
AcDbEntity
  8
Default
  6
Continuous
 62
     7
100
AcDbLine
 10
669.1433567651
 20
348.578797999
 30
0.0
 11
669.1433567651
 21
380.0626530975
 31
0.0
  0
LINE
  5
1B3
330
1AF
100
AcDbEntity
  8
Default
  6
Continuous
 62
     7
100
AcDbLine
 10
264.1433567651
 20
348.578797999
 30
0.0
 11
264.1433567651
 21
380.0626530975
 31
0.0
  0
LINE
  5
1B4
330
1AF
100
AcDbEntity
  8
Default
  6
Continuous
 62
     7
100
AcDbLine
 10
669.1433567651
 20
378.4751531167
 30
0.0
 11
471.6310579427
 21
378.4751531167
 31
0.0
  0
LINE
  5
1B5
330
1AF
100
AcDbEntity
  8
Default
  6
Continuous
 62
     7
100
AcDbLine
 10
461.6556555875
 20
378.4751531167
 30
0.0
 11
264.1433567651
 21
378.4751531167
 31
0.0
  0
TEXT
  5
1B6
330
1AF
100
AcDbEntity
  8
Default
  6
Continuous
 62
     7
100
AcDbText
 10
462.7669026806
 20
376.8876531167
 30
0.0
 40
3.175
  1
405
  7
SEACAD_Solid_Edge_ANSI
 11
462.7669026806
 21
380.0626531167
 31
0.0
100
AcDbText
 73
     3
  0
ENDBLK
  5
1B8
330
1AF
100
AcDbEntity
  8
0
100
AcDbBlockEnd
  0
BLOCK
  5
1C2
330
1BA
100
AcDbEntity
  8
0
100
AcDbBlockBegin
  2
DMBLK25
 70
     0
 10
0.0
 20
0.0
 30
0.0
  3
DMBLK25
  1

  0
HATCH
  5
1BB
330
1BA
100
AcDbEntity
  8
Default
  6
Continuous
 62
     7
100
AcDbHatch
 10
0.0
 20
0.0
 30
0.0
210
0.0
220
0.0
230
1.0
  2
SOLID
 70
     1
 71
     0
 91
        1
 92
        1
 93
        3
 72
     1
 10
95.19329264480567
 20
225.4124233673212
 11
96.25162596534884
 21
225.4124233673212
 72
     1
 10
96.25162596534884
 20
225.4124233673212
 11
95.72245930507725
 21
228.5874233289507
 72
     1
 10
95.72245930507725
 20
228.5874233289507
 11
95.19329264480567
 21
225.4124233673212
 97
        0
 75
     0
 76
     1
 98
        0
  0
HATCH
  5
1BC
330
1BA
100
AcDbEntity
  8
Default
  6
Continuous
 62
     7
100
AcDbHatch
 10
0.0
 20
0.0
 30
0.0
210
0.0
220
0.0
230
1.0
  2
SOLID
 70
     1
 71
     0
 91
        1
 92
        1
 93
        3
 72
     1
 10
95.19329264480567
 20
130.1624232905802
 11
95.72245930507725
 21
126.9874233289507
 72
     1
 10
95.72245930507725
 20
126.9874233289507
 11
96.25162596534884
 21
130.1624232905802
 72
     1
 10
96.25162596534884
 20
130.1624232905802
 11
95.19329264480567
 21
130.1624232905802
 97
        0
 75
     0
 76
     1
 98
        0
  0
LINE
  5
1BD
330
1BA
100
AcDbEntity
  8
Default
  6
Continuous
 62
     7
100
AcDbLine
 10
105.9558567842
 20
228.587423329
 30
0.0
 11
94.1349593243
 21
228.587423329
 31
0.0
  0
LINE
  5
1BE
330
1BA
100
AcDbEntity
  8
Default
  6
Continuous
 62
     7
100
AcDbLine
 10
105.9558567842
 20
126.987423329
 30
0.0
 11
94.1349593243
 21
126.987423329
 31
0.0
  0
LINE
  5
1BF
330
1BA
100
AcDbEntity
  8
Default
  6
Continuous
 62
     7
100
AcDbLine
 10
95.7224593051
 20
228.587423329
 30
0.0
 11
95.7224593051
 21
180.4861732467
 31
0.0
  0
LINE
  5
1C0
330
1BA
100
AcDbEntity
  8
Default
  6
Continuous
 62
     7
100
AcDbLine
 10
95.7224593051
 20
175.0886734112
 30
0.0
 11
95.7224593051
 21
126.987423329
 31
0.0
  0
TEXT
  5
1C1
330
1BA
100
AcDbEntity
  8
Default
  6
Continuous
 62
     7
100
AcDbText
 10
91.2183895376
 20
176.1999239429
 30
0.0
 40
3.175
  1
101.6
  7
SEACAD_Solid_Edge_ANSI
 11
91.2183895376
 21
179.3749239429
 31
0.0
100
AcDbText
 73
     3
  0
ENDBLK
  5
1C3
330
1BA
100
AcDbEntity
  8
0
100
AcDbBlockEnd
  0
BLOCK
  5
1CD
330
1C5
100
AcDbEntity
  8
0
100
AcDbBlockBegin
  2
DMBLK26
 70
     0
 10
0.0
 20
0.0
 30
0.0
  3
DMBLK26
  1

  0
HATCH
  5
1C6
330
1C5
100
AcDbEntity
  8
Default
  6
Continuous
 62
     7
100
AcDbHatch
 10
0.0
 20
0.0
 30
0.0
210
0.0
220
0.0
230
1.0
  2
SOLID
 70
     1
 71
     0
 91
        1
 92
        1
 93
        3
 72
     1
 10
38.23235228378272
 20
123.8124233673212
 11
39.29068560432589
 21
123.8124233673212
 72
     1
 10
39.29068560432589
 20
123.8124233673212
 11
38.7615189440543
 21
126.9874233289507
 72
     1
 10
38.7615189440543
 20
126.9874233289507
 11
38.23235228378272
 21
123.8124233673212
 97
        0
 75
     0
 76
     1
 98
        0
  0
HATCH
  5
1C7
330
1C5
100
AcDbEntity
  8
Default
  6
Continuous
 62
     7
100
AcDbHatch
 10
0.0
 20
0.0
 30
0.0
210
0.0
220
0.0
230
1.0
  2
SOLID
 70
     1
 71
     0
 91
        1
 92
        1
 93
        3
 72
     1
 10
38.23235228378272
 20
73.01242329058022
 11
38.7615189440543
 21
69.8374233289507
 72
     1
 10
38.7615189440543
 20
69.8374233289507
 11
39.29068560432589
 21
73.01242329058022
 72
     1
 10
39.29068560432589
 20
73.01242329058022
 11
38.23235228378272
 21
73.01242329058022
 97
        0
 75
     0
 76
     1
 98
        0
  0
LINE
  5
1C8
330
1C5
100
AcDbEntity
  8
Default
  6
Continuous
 62
     7
100
AcDbLine
 10
105.9558567842
 20
126.987423329
 30
0.0
 11
37.1740189632
 21
126.987423329
 31
0.0
  0
LINE
  5
1C9
330
1C5
100
AcDbEntity
  8
Default
  6
Continuous
 62
     7
100
AcDbLine
 10
81.9558567842
 20
69.837423329
 30
0.0
 11
37.1740189632
 21
69.837423329
 31
0.0
  0
LINE
  5
1CA
330
1C5
100
AcDbEntity
  8
Default
  6
Continuous
 62
     7
100
AcDbLine
 10
38.7615189441
 20
126.987423329
 30
0.0
 11
38.7615189441
 21
101.1111732109
 31
0.0
  0
LINE
  5
1CB
330
1C5
100
AcDbEntity
  8
Default
  6
Continuous
 62
     7
100
AcDbLine
 10
38.7615189441
 20
95.713673447
 30
0.0
 11
38.7615189441
 21
69.837423329
 31
0.0
  0
TEXT
  5
1CC
330
1C5
100
AcDbEntity
  8
Default
  6
Continuous
 62
     7
100
AcDbText
 10
33.8513445254
 20
96.8249239071
 30
0.0
 40
3.175
  1
57.15
  7
SEACAD_Solid_Edge_ANSI
 11
33.8513445254
 21
99.9999239071
 31
0.0
100
AcDbText
 73
     3
  0
ENDBLK
  5
1CE
330
1C5
100
AcDbEntity
  8
0
100
AcDbBlockEnd
  0
BLOCK
  5
1D8
330
1D0
100
AcDbEntity
  8
0
100
AcDbBlockBegin
  2
DMBLK27
 70
     0
 10
0.0
 20
0.0
 30
0.0
  3
DMBLK27
  1

  0
HATCH
  5
1D1
330
1D0
100
AcDbEntity
  8
Default
  6
Continuous
 62
     7
100
AcDbHatch
 10
0.0
 20
0.0
 30
0.0
210
0.0
220
0.0
230
1.0
  2
SOLID
 70
     1
 71
     0
 91
        1
 92
        1
 93
        3
 72
     1
 10
40.69024522323106
 20
282.5624233673212
 11
41.74857854377423
 21
282.5624233673212
 72
     1
 10
41.74857854377423
 20
282.5624233673212
 11
41.21941188350264
 21
285.7374233289507
 72
     1
 10
41.21941188350264
 20
285.7374233289507
 11
40.69024522323106
 21
282.5624233673212
 97
        0
 75
     0
 76
     1
 98
        0
  0
HATCH
  5
1D2
330
1D0
100
AcDbEntity
  8
Default
  6
Continuous
 62
     7
100
AcDbHatch
 10
0.0
 20
0.0
 30
0.0
210
0.0
220
0.0
230
1.0
  2
SOLID
 70
     1
 71
     0
 91
        1
 92
        1
 93
        3
 72
     1
 10
40.69024522323106
 20
231.7624232905802
 11
41.21941188350264
 21
228.5874233289507
 72
     1
 10
41.21941188350264
 20
228.5874233289507
 11
41.74857854377423
 21
231.7624232905802
 72
     1
 10
41.74857854377423
 20
231.7624232905802
 11
40.69024522323106
 21
231.7624232905802
 97
        0
 75
     0
 76
     1
 98
        0
  0
LINE
  5
1D3
330
1D0
100
AcDbEntity
  8
Default
  6
Continuous
 62
     7
100
AcDbLine
 10
57.9558567842
 20
285.737423329
 30
0.0
 11
39.6319119027
 21
285.737423329
 31
0.0
  0
LINE
  5
1D4
330
1D0
100
AcDbEntity
  8
Default
  6
Continuous
 62
     7
100
AcDbLine
 10
162.9558567842
 20
228.587423329
 30
0.0
 11
39.6319119027
 21
228.587423329
 31
0.0
  0
LINE
  5
1D5
330
1D0
100
AcDbEntity
  8
Default
  6
Continuous
 62
     7
100
AcDbLine
 10
41.2194118835
 20
285.737423329
 30
0.0
 11
41.2194118835
 21
259.8611732109
 31
0.0
  0
LINE
  5
1D6
330
1D0
100
AcDbEntity
  8
Default
  6
Continuous
 62
     7
100
AcDbLine
 10
41.2194118835
 20
254.463673447
 30
0.0
 11
41.2194118835
 21
228.587423329
 31
0.0
  0
TEXT
  5
1D7
330
1D0
100
AcDbEntity
  8
Default
  6
Continuous
 62
     7
100
AcDbText
 10
36.3092374649
 20
255.5749239071
 30
0.0
 40
3.175
  1
57.15
  7
SEACAD_Solid_Edge_ANSI
 11
36.3092374649
 21
258.7499239071
 31
0.0
100
AcDbText
 73
     3
  0
ENDBLK
  5
1D9
330
1D0
100
AcDbEntity
  8
0
100
AcDbBlockEnd
  0
BLOCK
  5
1E1
330
1DB
100
AcDbEntity
  8
0
100
AcDbBlockBegin
  2
DMBLK28
 70
     0
 10
0.0
 20
0.0
 30
0.0
  3
DMBLK28
  1

  0
LINE
  5
1DC
330
1DB
100
AcDbEntity
  8
Default
  6
Continuous
 62
     7
100
AcDbLine
 10
223.0464731182
 20
230.5850822661
 30
0.0
 11
234.4095610008
 21
245.6867568736
 31
0.0
  0
HATCH
  5
1DD
330
1DB
100
AcDbEntity
  8
Default
  6
Continuous
 62
     7
100
AcDbHatch
 10
0.0
 20
0.0
 30
0.0
210
0.0
220
0.0
230
1.0
  2
SOLID
 70
     1
 71
     0
 91
        1
 92
        1
 93
        3
 72
     1
 10
224.532593060292
 20
233.4402687097672
 11
223.0464731181654
 21
230.5850822660644
 72
     1
 10
223.0464731181654
 20
230.5850822660644
 11
225.3782686667834
 21
232.8039494613097
 72
     1
 10
225.3782686667834
 20
232.8039494613097
 11
224.5325930602921
 21
233.4402687097672
 97
        0
 75
     0
 76
     1
 98
        0
  0
LINE
  5
1DE
330
1DB
100
AcDbEntity
  8
Default
  6
Continuous
 62
     7
100
AcDbLine
 10
234.4095614935
 20
245.6867575285
 30
0.0
 11
239.1720615524
 21
245.6867575285
 31
0.0
  0
TEXT
  5
1DF
330
1DB
100
AcDbEntity
  8
Default
  6
Continuous
 62
     7
100
AcDbText
 10
240.2833115524
 20
244.0992575285
 30
0.0
 40
3.175
  1
O
  7
SEACAD_Solid_Edge_ANSI1_Symbols
 11
240.2833115524
 21
247.2742575285
 31
0.0
100
AcDbText
 73
     3
  0
TEXT
  5
1E0
330
1DB
100
AcDbEntity
  8
Default
  6
Continuous
 62
     7
100
AcDbText
 10
245.8089255875
 20
244.0992575285
 30
0.0
 40
3.175
  1
5
  7
SEACAD_Solid_Edge_ANSI
 11
245.8089255875
 21
247.2742575285
 31
0.0
100
AcDbText
 73
     3
  0
ENDBLK
  5
1E2
330
1DB
100
AcDbEntity
  8
0
100
AcDbBlockEnd
  0
ENDSEC
  0
SECTION
  2
ENTITIES
  0
LINE
  5
40
330
1F
100
AcDbEntity
  8
Default
  6
Continuous
 62
     7
100
AcDbLine
 10
59.5433567651
 20
69.837423329
 30
0.0
 11
669.1433567651
 21
69.837423329
 31
0.0
  0
LINE
  5
41
330
1F
100
AcDbEntity
  8
Default
  6
Continuous
 62
     7
100
AcDbLine
 10
669.1433567651
 20
69.837423329
 30
0.0
 11
669.1433567651
 21
285.737423329
 31
0.0
  0
LINE
  5
42
330
1F
100
AcDbEntity
  8
Default
  6
Continuous
 62
     7
100
AcDbLine
 10
669.1433567651
 20
285.737423329
 30
0.0
 11
59.5433567651
 21
285.737423329
 31
0.0
  0
LINE
  5
43
330
1F
100
AcDbEntity
  8
Default
  6
Continuous
 62
     7
100
AcDbLine
 10
59.5433567651
 20
285.737423329
 30
0.0
 11
59.5433567651
 21
69.837423329
 31
0.0
  0
LINE
  5
44
330
1F
100
AcDbEntity
  8
Default
  6
Continuous
 62
     7
100
AcDbLine
 10
59.5433567651
 20
69.837423329
 30
0.0
 11
668.5433567651
 21
69.837423329
 31
0.0
  0
LINE
  5
45
330
1F
100
AcDbEntity
  8
Default
  6
Continuous
 62
     7
100
AcDbLine
 10
668.5433567651
 20
69.837423329
 30
0.0
 11
668.5433567651
 21
146.037423329
 31
0.0
  0
LINE
  5
46
330
1F
100
AcDbEntity
  8
Default
  6
Continuous
 62
     7
100
AcDbLine
 10
59.5433567651
 20
146.037423329
 30
0.0
 11
59.5433567651
 21
69.837423329
 31
0.0
  0
LINE
  5
47
330
1F
100
AcDbEntity
  8
Default
  6
Continuous
 62
     7
100
AcDbLine
 10
59.5433567651
 20
69.837423329
 30
0.0
 11
668.5433567651
 21
69.837423329
 31
0.0
  0
LINE
  5
48
330
1F
100
AcDbEntity
  8
Default
  6
Continuous
 62
     7
100
AcDbLine
 10
59.5433567651
 20
209.537423329
 30
0.0
 11
59.5433567651
 21
69.837423329
 31
0.0
  0
LINE
  5
49
330
1F
100
AcDbEntity
  8
Default
  6
Continuous
 62
     7
100
AcDbLine
 10
59.5433567651
 20
69.837423329
 30
0.0
 11
668.5433567651
 21
69.837423329
 31
0.0
  0
LINE
  5
4A
330
1F
100
AcDbEntity
  8
Default
  6
Continuous
 62
     7
100
AcDbLine
 10
668.5433567651
 20
69.837423329
 30
0.0
 11
668.5433567651
 21
95.237423329
 31
0.0
  0
LINE
  5
4B
330
1F
100
AcDbEntity
  8
Default
  6
Continuous
 62
     7
100
AcDbLine
 10
668.5433567651
 20
95.237423329
 30
0.0
 11
59.5433567651
 21
95.237423329
 31
0.0
  0
LINE
  5
4C
330
1F
100
AcDbEntity
  8
Default
  6
Continuous
 62
     7
100
AcDbLine
 10
59.5433567651
 20
95.237423329
 30
0.0
 11
59.5433567651
 21
69.837423329
 31
0.0
  0
LINE
  5
4D
330
1F
100
AcDbEntity
  8
Default
  6
Continuous
 62
     7
100
AcDbLine
 10
59.5433567651
 20
69.837423329
 30
0.0
 11
668.5433567651
 21
69.837423329
 31
0.0
  0
LINE
  5
4E
330
1F
100
AcDbEntity
  8
Default
  6
Continuous
 62
     7
100
AcDbLine
 10
668.5433567651
 20
260.337423329
 30
0.0
 11
59.5433567651
 21
260.337423329
 31
0.0
  0
LINE
  5
4F
330
1F
100
AcDbEntity
  8
Default
  6
Continuous
 62
     7
100
AcDbLine
 10
59.5433567651
 20
260.337423329
 30
0.0
 11
59.5433567651
 21
69.837423329
 31
0.0
  0
LINE
  5
50
330
1F
100
AcDbEntity
  8
Default
  6
Continuous
 62
     7
100
AcDbLine
 10
59.5433567651
 20
69.837423329
 30
0.0
 11
334.9433567651
 21
69.837423329
 31
0.0
  0
LINE
  5
51
330
1F
100
AcDbEntity
  8
Default
  6
Continuous
 62
     7
100
AcDbLine
 10
334.9433567651
 20
69.837423329
 30
0.0
 11
334.9433567651
 21
95.237423329
 31
0.0
  0
LINE
  5
52
330
1F
100
AcDbEntity
  8
Default
  6
Continuous
 62
     7
100
AcDbLine
 10
334.9433567651
 20
95.237423329
 30
0.0
 11
59.5433567651
 21
95.237423329
 31
0.0
  0
LINE
  5
53
330
1F
100
AcDbEntity
  8
Default
  6
Continuous
 62
     7
100
AcDbLine
 10
59.5433567651
 20
95.237423329
 30
0.0
 11
59.5433567651
 21
69.837423329
 31
0.0
  0
LINE
  5
54
330
1F
100
AcDbEntity
  8
Default
  6
Continuous
 62
     7
100
AcDbLine
 10
334.9433567651
 20
69.837423329
 30
0.0
 11
394.9433567651
 21
69.837423329
 31
0.0
  0
LINE
  5
55
330
1F
100
AcDbEntity
  8
Default
  6
Continuous
 62
     7
100
AcDbLine
 10
394.9433567651
 20
69.837423329
 30
0.0
 11
394.9433567651
 21
95.237423329
 31
0.0
  0
LINE
  5
56
330
1F
100
AcDbEntity
  8
Default
  6
Continuous
 62
     7
100
AcDbLine
 10
394.9433567651
 20
95.237423329
 30
0.0
 11
334.9433567651
 21
95.237423329
 31
0.0
  0
LINE
  5
57
330
1F
100
AcDbEntity
  8
Default
  6
Continuous
 62
     7
100
AcDbLine
 10
334.9433567651
 20
95.237423329
 30
0.0
 11
334.9433567651
 21
69.837423329
 31
0.0
  0
LINE
  5
58
330
1F
100
AcDbEntity
  8
Default
  6
Continuous
 62
     7
100
AcDbLine
 10
394.9433567651
 20
69.837423329
 30
0.0
 11
454.9433567651
 21
69.837423329
 31
0.0
  0
LINE
  5
59
330
1F
100
AcDbEntity
  8
Default
  6
Continuous
 62
     7
100
AcDbLine
 10
454.9433567651
 20
69.837423329
 30
0.0
 11
454.9433567651
 21
95.237423329
 31
0.0
  0
LINE
  5
5A
330
1F
100
AcDbEntity
  8
Default
  6
Continuous
 62
     7
100
AcDbLine
 10
454.9433567651
 20
95.237423329
 30
0.0
 11
394.9433567651
 21
95.237423329
 31
0.0
  0
LINE
  5
5B
330
1F
100
AcDbEntity
  8
Default
  6
Continuous
 62
     7
100
AcDbLine
 10
394.9433567651
 20
95.237423329
 30
0.0
 11
394.9433567651
 21
69.837423329
 31
0.0
  0
LINE
  5
5C
330
1F
100
AcDbEntity
  8
Default
  6
Continuous
 62
     7
100
AcDbLine
 10
454.9433567651
 20
69.837423329
 30
0.0
 11
514.9433567651
 21
69.837423329
 31
0.0
  0
LINE
  5
5D
330
1F
100
AcDbEntity
  8
Default
  6
Continuous
 62
     7
100
AcDbLine
 10
514.9433567651
 20
69.837423329
 30
0.0
 11
514.9433567651
 21
95.237423329
 31
0.0
  0
LINE
  5
5E
330
1F
100
AcDbEntity
  8
Default
  6
Continuous
 62
     7
100
AcDbLine
 10
514.9433567651
 20
95.237423329
 30
0.0
 11
454.9433567651
 21
95.237423329
 31
0.0
  0
LINE
  5
5F
330
1F
100
AcDbEntity
  8
Default
  6
Continuous
 62
     7
100
AcDbLine
 10
454.9433567651
 20
95.237423329
 30
0.0
 11
454.9433567651
 21
69.837423329
 31
0.0
  0
LINE
  5
60
330
1F
100
AcDbEntity
  8
Default
  6
Continuous
 62
     7
100
AcDbLine
 10
514.9433567651
 20
69.837423329
 30
0.0
 11
574.9433567651
 21
69.837423329
 31
0.0
  0
LINE
  5
61
330
1F
100
AcDbEntity
  8
Default
  6
Continuous
 62
     7
100
AcDbLine
 10
574.9433567651
 20
69.837423329
 30
0.0
 11
574.9433567651
 21
95.237423329
 31
0.0
  0
LINE
  5
62
330
1F
100
AcDbEntity
  8
Default
  6
Continuous
 62
     7
100
AcDbLine
 10
574.9433567651
 20
95.237423329
 30
0.0
 11
514.9433567651
 21
95.237423329
 31
0.0
  0
LINE
  5
63
330
1F
100
AcDbEntity
  8
Default
  6
Continuous
 62
     7
100
AcDbLine
 10
514.9433567651
 20
95.237423329
 30
0.0
 11
514.9433567651
 21
69.837423329
 31
0.0
  0
LINE
  5
64
330
1F
100
AcDbEntity
  8
Default
  6
Continuous
 62
     7
100
AcDbLine
 10
574.9433567651
 20
69.837423329
 30
0.0
 11
634.9433567651
 21
69.837423329
 31
0.0
  0
LINE
  5
65
330
1F
100
AcDbEntity
  8
Default
  6
Continuous
 62
     7
100
AcDbLine
 10
634.9433567651
 20
69.837423329
 30
0.0
 11
634.9433567651
 21
95.237423329
 31
0.0
  0
LINE
  5
66
330
1F
100
AcDbEntity
  8
Default
  6
Continuous
 62
     7
100
AcDbLine
 10
634.9433567651
 20
95.237423329
 30
0.0
 11
574.9433567651
 21
95.237423329
 31
0.0
  0
LINE
  5
67
330
1F
100
AcDbEntity
  8
Default
  6
Continuous
 62
     7
100
AcDbLine
 10
574.9433567651
 20
95.237423329
 30
0.0
 11
574.9433567651
 21
69.837423329
 31
0.0
  0
CIRCLE
  5
68
330
1F
100
AcDbEntity
  8
Default
  6
Continuous
 62
     7
100
AcDbCircle
 10
334.9433567651
 20
95.237423329
 30
0.0
 40
1.5
  0
CIRCLE
  5
69
330
1F
100
AcDbEntity
  8
Default
  6
Continuous
 62
     7
100
AcDbCircle
 10
394.9433567651
 20
95.237423329
 30
0.0
 40
1.5
  0
CIRCLE
  5
6A
330
1F
100
AcDbEntity
  8
Default
  6
Continuous
 62
     7
100
AcDbCircle
 10
454.9433567651
 20
95.237423329
 30
0.0
 40
1.5
  0
CIRCLE
  5
6B
330
1F
100
AcDbEntity
  8
Default
  6
Continuous
 62
     7
100
AcDbCircle
 10
514.9433567651
 20
95.237423329
 30
0.0
 40
1.5
  0
CIRCLE
  5
6C
330
1F
100
AcDbEntity
  8
Default
  6
Continuous
 62
     7
100
AcDbCircle
 10
574.9433567651
 20
95.237423329
 30
0.0
 40
1.5
  0
CIRCLE
  5
6D
330
1F
100
AcDbEntity
  8
Default
  6
Continuous
 62
     7
100
AcDbCircle
 10
634.9433567651
 20
95.237423329
 30
0.0
 40
1.5
  0
LINE
  5
6E
330
1F
100
AcDbEntity
  8
Default
  6
Continuous
 62
     7
100
AcDbLine
 10
59.5433567651
 20
69.837423329
 30
0.0
 11
335.0433567651
 21
69.837423329
 31
0.0
  0
LINE
  5
6F
330
1F
100
AcDbEntity
  8
Default
  6
Continuous
 62
     7
100
AcDbLine
 10
335.0433567651
 20
69.837423329
 30
0.0
 11
335.0433567651
 21
260.337423329
 31
0.0
  0
LINE
  5
70
330
1F
100
AcDbEntity
  8
Default
  6
Continuous
 62
     7
100
AcDbLine
 10
335.0433567651
 20
260.337423329
 30
0.0
 11
59.5433567651
 21
260.337423329
 31
0.0
  0
LINE
  5
71
330
1F
100
AcDbEntity
  8
Default
  6
Continuous
 62
     7
100
AcDbLine
 10
59.5433567651
 20
260.337423329
 30
0.0
 11
59.5433567651
 21
69.837423329
 31
0.0
  0
LINE
  5
72
330
1F
100
AcDbEntity
  8
Default
  6
Continuous
 62
     7
100
AcDbLine
 10
335.0433567651
 20
260.337423329
 30
0.0
 11
395.0433567651
 21
260.337423329
 31
0.0
  0
LINE
  5
73
330
1F
100
AcDbEntity
  8
Default
  6
Continuous
 62
     7
100
AcDbLine
 10
395.0433567651
 20
260.337423329
 30
0.0
 11
395.0433567651
 21
285.737423329
 31
0.0
  0
LINE
  5
74
330
1F
100
AcDbEntity
  8
Default
  6
Continuous
 62
     7
100
AcDbLine
 10
395.0433567651
 20
285.737423329
 30
0.0
 11
335.0433567651
 21
285.737423329
 31
0.0
  0
LINE
  5
75
330
1F
100
AcDbEntity
  8
Default
  6
Continuous
 62
     7
100
AcDbLine
 10
335.0433567651
 20
285.737423329
 30
0.0
 11
335.0433567651
 21
260.337423329
 31
0.0
  0
LINE
  5
76
330
1F
100
AcDbEntity
  8
Default
  6
Continuous
 62
     7
100
AcDbLine
 10
395.0433567651
 20
260.337423329
 30
0.0
 11
455.0433567651
 21
260.337423329
 31
0.0
  0
LINE
  5
77
330
1F
100
AcDbEntity
  8
Default
  6
Continuous
 62
     7
100
AcDbLine
 10
455.0433567651
 20
260.337423329
 30
0.0
 11
455.0433567651
 21
285.737423329
 31
0.0
  0
LINE
  5
78
330
1F
100
AcDbEntity
  8
Default
  6
Continuous
 62
     7
100
AcDbLine
 10
455.0433567651
 20
285.737423329
 30
0.0
 11
395.0433567651
 21
285.737423329
 31
0.0
  0
LINE
  5
79
330
1F
100
AcDbEntity
  8
Default
  6
Continuous
 62
     7
100
AcDbLine
 10
395.0433567651
 20
285.737423329
 30
0.0
 11
395.0433567651
 21
260.337423329
 31
0.0
  0
LINE
  5
7A
330
1F
100
AcDbEntity
  8
Default
  6
Continuous
 62
     7
100
AcDbLine
 10
455.0433567651
 20
260.337423329
 30
0.0
 11
515.0433567651
 21
260.337423329
 31
0.0
  0
LINE
  5
7B
330
1F
100
AcDbEntity
  8
Default
  6
Continuous
 62
     7
100
AcDbLine
 10
515.0433567651
 20
260.337423329
 30
0.0
 11
515.0433567651
 21
285.737423329
 31
0.0
  0
LINE
  5
7C
330
1F
100
AcDbEntity
  8
Default
  6
Continuous
 62
     7
100
AcDbLine
 10
515.0433567651
 20
285.737423329
 30
0.0
 11
455.0433567651
 21
285.737423329
 31
0.0
  0
LINE
  5
7D
330
1F
100
AcDbEntity
  8
Default
  6
Continuous
 62
     7
100
AcDbLine
 10
455.0433567651
 20
285.737423329
 30
0.0
 11
455.0433567651
 21
260.337423329
 31
0.0
  0
LINE
  5
7E
330
1F
100
AcDbEntity
  8
Default
  6
Continuous
 62
     7
100
AcDbLine
 10
515.0433567651
 20
260.337423329
 30
0.0
 11
575.0433567651
 21
260.337423329
 31
0.0
  0
LINE
  5
7F
330
1F
100
AcDbEntity
  8
Default
  6
Continuous
 62
     7
100
AcDbLine
 10
575.0433567651
 20
260.337423329
 30
0.0
 11
575.0433567651
 21
285.737423329
 31
0.0
  0
LINE
  5
80
330
1F
100
AcDbEntity
  8
Default
  6
Continuous
 62
     7
100
AcDbLine
 10
575.0433567651
 20
285.737423329
 30
0.0
 11
515.0433567651
 21
285.737423329
 31
0.0
  0
LINE
  5
81
330
1F
100
AcDbEntity
  8
Default
  6
Continuous
 62
     7
100
AcDbLine
 10
515.0433567651
 20
285.737423329
 30
0.0
 11
515.0433567651
 21
260.337423329
 31
0.0
  0
LINE
  5
82
330
1F
100
AcDbEntity
  8
Default
  6
Continuous
 62
     7
100
AcDbLine
 10
575.0433567651
 20
260.337423329
 30
0.0
 11
635.0433567651
 21
260.337423329
 31
0.0
  0
LINE
  5
83
330
1F
100
AcDbEntity
  8
Default
  6
Continuous
 62
     7
100
AcDbLine
 10
635.0433567651
 20
260.337423329
 30
0.0
 11
635.0433567651
 21
285.737423329
 31
0.0
  0
LINE
  5
84
330
1F
100
AcDbEntity
  8
Default
  6
Continuous
 62
     7
100
AcDbLine
 10
635.0433567651
 20
285.737423329
 30
0.0
 11
575.0433567651
 21
285.737423329
 31
0.0
  0
LINE
  5
85
330
1F
100
AcDbEntity
  8
Default
  6
Continuous
 62
     7
100
AcDbLine
 10
575.0433567651
 20
285.737423329
 30
0.0
 11
575.0433567651
 21
260.337423329
 31
0.0
  0
CIRCLE
  5
86
330
1F
100
AcDbEntity
  8
Default
  6
Continuous
 62
     7
100
AcDbCircle
 10
335.0433567651
 20
260.337423329
 30
0.0
 40
1.5
  0
CIRCLE
  5
87
330
1F
100
AcDbEntity
  8
Default
  6
Continuous
 62
     7
100
AcDbCircle
 10
395.0433567651
 20
260.337423329
 30
0.0
 40
1.5
  0
CIRCLE
  5
88
330
1F
100
AcDbEntity
  8
Default
  6
Continuous
 62
     7
100
AcDbCircle
 10
455.0433567651
 20
260.337423329
 30
0.0
 40
1.5
  0
CIRCLE
  5
89
330
1F
100
AcDbEntity
  8
Default
  6
Continuous
 62
     7
100
AcDbCircle
 10
515.0433567651
 20
260.337423329
 30
0.0
 40
1.5
  0
CIRCLE
  5
8A
330
1F
100
AcDbEntity
  8
Default
  6
Continuous
 62
     7
100
AcDbCircle
 10
575.0433567651
 20
260.337423329
 30
0.0
 40
1.5
  0
CIRCLE
  5
8B
330
1F
100
AcDbEntity
  8
Default
  6
Continuous
 62
     7
100
AcDbCircle
 10
635.0433567651
 20
260.337423329
 30
0.0
 40
1.5
  0
LINE
  5
8C
330
1F
100
AcDbEntity
  8
Default
  6
Continuous
 62
     7
100
AcDbLine
 10
59.5433567651
 20
69.837423329
 30
0.0
 11
107.5433567651
 21
69.837423329
 31
0.0
  0
LINE
  5
8D
330
1F
100
AcDbEntity
  8
Default
  6
Continuous
 62
     7
100
AcDbLine
 10
107.5433567651
 20
69.837423329
 30
0.0
 11
107.5433567651
 21
120.637423329
 31
0.0
  0
LINE
  5
8E
330
1F
100
AcDbEntity
  8
Default
  6
Continuous
 62
     7
100
AcDbLine
 10
59.5433567651
 20
120.637423329
 30
0.0
 11
59.5433567651
 21
69.837423329
 31
0.0
  0
LINE
  5
8F
330
1F
100
AcDbEntity
  8
Default
  6
Continuous
 62
     7
100
AcDbLine
 10
107.5433567651
 20
69.837423329
 30
0.0
 11
145.5433567651
 21
69.837423329
 31
0.0
  0
LINE
  5
90
330
1F
100
AcDbEntity
  8
Default
  6
Continuous
 62
     7
100
AcDbLine
 10
145.5433567651
 20
69.837423329
 30
0.0
 11
145.5433567651
 21
120.637423329
 31
0.0
  0
LINE
  5
91
330
1F
100
AcDbEntity
  8
Default
  6
Continuous
 62
     7
100
AcDbLine
 10
107.5433567651
 20
120.637423329
 30
0.0
 11
107.5433567651
 21
69.837423329
 31
0.0
  0
LINE
  5
92
330
1F
100
AcDbEntity
  8
Default
  6
Continuous
 62
     7
100
AcDbLine
 10
145.5433567651
 20
69.837423329
 30
0.0
 11
183.5433567651
 21
69.837423329
 31
0.0
  0
LINE
  5
93
330
1F
100
AcDbEntity
  8
Default
  6
Continuous
 62
     7
100
AcDbLine
 10
183.5433567651
 20
69.837423329
 30
0.0
 11
183.5433567651
 21
120.637423329
 31
0.0
  0
LINE
  5
94
330
1F
100
AcDbEntity
  8
Default
  6
Continuous
 62
     7
100
AcDbLine
 10
145.5433567651
 20
120.637423329
 30
0.0
 11
145.5433567651
 21
69.837423329
 31
0.0
  0
LINE
  5
95
330
1F
100
AcDbEntity
  8
Default
  6
Continuous
 62
     7
100
AcDbLine
 10
183.5433567651
 20
69.837423329
 30
0.0
 11
221.5433567651
 21
69.837423329
 31
0.0
  0
LINE
  5
96
330
1F
100
AcDbEntity
  8
Default
  6
Continuous
 62
     7
100
AcDbLine
 10
221.5433567651
 20
69.837423329
 30
0.0
 11
221.5433567651
 21
120.637423329
 31
0.0
  0
LINE
  5
97
330
1F
100
AcDbEntity
  8
Default
  6
Continuous
 62
     7
100
AcDbLine
 10
183.5433567651
 20
120.637423329
 30
0.0
 11
183.5433567651
 21
69.837423329
 31
0.0
  0
LINE
  5
98
330
1F
100
AcDbEntity
  8
Default
  6
Continuous
 62
     7
100
AcDbLine
 10
59.5433567651
 20
69.837423329
 30
0.0
 11
107.5433567651
 21
69.837423329
 31
0.0
  0
LINE
  5
99
330
1F
100
AcDbEntity
  8
Default
  6
Continuous
 62
     7
100
AcDbLine
 10
107.5433567651
 20
69.837423329
 30
0.0
 11
107.5433567651
 21
234.937423329
 31
0.0
  0
LINE
  5
9A
330
1F
100
AcDbEntity
  8
Default
  6
Continuous
 62
     7
100
AcDbLine
 10
59.5433567651
 20
234.937423329
 30
0.0
 11
59.5433567651
 21
69.837423329
 31
0.0
  0
LINE
  5
9B
330
1F
100
AcDbEntity
  8
Default
  6
Continuous
 62
     7
100
AcDbLine
 10
107.5433567651
 20
69.837423329
 30
0.0
 11
145.5433567651
 21
69.837423329
 31
0.0
  0
LINE
  5
9C
330
1F
100
AcDbEntity
  8
Default
  6
Continuous
 62
     7
100
AcDbLine
 10
145.5433567651
 20
69.837423329
 30
0.0
 11
145.5433567651
 21
234.937423329
 31
0.0
  0
LINE
  5
9D
330
1F
100
AcDbEntity
  8
Default
  6
Continuous
 62
     7
100
AcDbLine
 10
107.5433567651
 20
234.937423329
 30
0.0
 11
107.5433567651
 21
69.837423329
 31
0.0
  0
LINE
  5
9E
330
1F
100
AcDbEntity
  8
Default
  6
Continuous
 62
     7
100
AcDbLine
 10
145.5433567651
 20
69.837423329
 30
0.0
 11
183.5433567651
 21
69.837423329
 31
0.0
  0
LINE
  5
9F
330
1F
100
AcDbEntity
  8
Default
  6
Continuous
 62
     7
100
AcDbLine
 10
183.5433567651
 20
69.837423329
 30
0.0
 11
183.5433567651
 21
234.937423329
 31
0.0
  0
LINE
  5
A0
330
1F
100
AcDbEntity
  8
Default
  6
Continuous
 62
     7
100
AcDbLine
 10
145.5433567651
 20
234.937423329
 30
0.0
 11
145.5433567651
 21
69.837423329
 31
0.0
  0
LINE
  5
A1
330
1F
100
AcDbEntity
  8
Default
  6
Continuous
 62
     7
100
AcDbLine
 10
183.5433567651
 20
69.837423329
 30
0.0
 11
221.5433567651
 21
69.837423329
 31
0.0
  0
LINE
  5
A2
330
1F
100
AcDbEntity
  8
Default
  6
Continuous
 62
     7
100
AcDbLine
 10
221.5433567651
 20
69.837423329
 30
0.0
 11
221.5433567651
 21
234.937423329
 31
0.0
  0
LINE
  5
A3
330
1F
100
AcDbEntity
  8
Default
  6
Continuous
 62
     7
100
AcDbLine
 10
183.5433567651
 20
234.937423329
 30
0.0
 11
183.5433567651
 21
69.837423329
 31
0.0
  0
INSERT
  5
A5
330
1F
100
AcDbEntity
  8
Default
100
AcDbBlockReference
  2
SEANNOT_GROUP
 10
0.0
 20
0.0
 30
0.0
  0
LINE
  5
AC
330
1F
100
AcDbEntity
  8
Default
  6
Continuous
 62
     7
100
AcDbLine
 10
59.5433567651
 20
329.8912980182
 30
0.0
 11
669.1433567651
 21
329.8912980182
 31
0.0
  0
LINE
  5
AD
330
1F
100
AcDbEntity
  8
Default
  6
Continuous
 62
     7
100
AcDbLine
 10
669.1433567651
 20
329.8912980182
 30
0.0
 11
669.1433567651
 21
367.9912980182
 31
0.0
  0
LINE
  5
AE
330
1F
100
AcDbEntity
  8
Default
  6
Continuous
 62
     7
100
AcDbLine
 10
669.1433567651
 20
367.9912980182
 30
0.0
 11
59.5433567651
 21
367.9912980182
 31
0.0
  0
LINE
  5
AF
330
1F
100
AcDbEntity
  8
Default
  6
Continuous
 62
     7
100
AcDbLine
 10
59.5433567651
 20
367.9912980182
 30
0.0
 11
59.5433567651
 21
329.8912980182
 31
0.0
  0
LINE
  5
B0
330
1F
100
AcDbEntity
  8
Default
  6
Continuous
 62
     7
100
AcDbLine
 10
59.5433567651
 20
329.8912980182
 30
0.0
 11
669.1433567651
 21
329.8912980182
 31
0.0
  0
LINE
  5
B1
330
1F
100
AcDbEntity
  8
Default
  6
Continuous
 62
     7
100
AcDbLine
 10
669.1433567651
 20
329.8912980182
 30
0.0
 11
669.1433567651
 21
346.9912980182
 31
0.0
  0
LINE
  5
B3
330
1F
100
AcDbEntity
  8
Default
  6
HIDDEN2
 62
     7
100
AcDbLine
 10
669.1433567651
 20
346.9912980182
 30
0.0
 11
264.1433567651
 21
346.9912980182
 31
0.0
  0
LINE
  5
B4
330
1F
100
AcDbEntity
  8
Default
  6
Continuous
 62
     7
100
AcDbLine
 10
59.5433567651
 20
346.9912980182
 30
0.0
 11
59.5433567651
 21
329.8912980182
 31
0.0
  0
LINE
  5
B5
330
1F
100
AcDbEntity
  8
Default
  6
Continuous
 62
     7
100
AcDbLine
 10
59.4701594991
 20
424.5632399319
 30
0.0
 11
275.3701594991
 21
424.5632399319
 31
0.0
  0
LINE
  5
B6
330
1F
100
AcDbEntity
  8
Default
  6
Continuous
 62
     7
100
AcDbLine
 10
275.3701594991
 20
424.5632399319
 30
0.0
 11
275.3701594991
 21
462.6632399319
 31
0.0
  0
LINE
  5
B7
330
1F
100
AcDbEntity
  8
Default
  6
Continuous
 62
     7
100
AcDbLine
 10
59.4701594991
 20
462.6632399319
 30
0.0
 11
59.4701594991
 21
424.5632399319
 31
0.0
  0
LINE
  5
B8
330
1F
100
AcDbEntity
  8
Default
  6
Continuous
 62
     7
100
AcDbLine
 10
59.4701594991
 20
424.5632399319
 30
0.0
 11
135.6701594991
 21
424.5632399319
 31
0.0
  0
LINE
  5
B9
330
1F
100
AcDbEntity
  8
Default
  6
Continuous
 62
     7
100
AcDbLine
 10
59.4701594991
 20
445.5632399319
 30
0.0
 11
59.4701594991
 21
424.5632399319
 31
0.0
  0
LINE
  5
BA
330
1F
100
AcDbEntity
  8
Default
  6
Continuous
 62
     7
100
AcDbLine
 10
135.6701594991
 20
445.5632399319
 30
0.0
 11
135.6701594991
 21
462.6632399319
 31
0.0
  0
LINE
  5
BB
330
1F
100
AcDbEntity
  8
Default
  6
Continuous
 62
     7
100
AcDbLine
 10
135.6701594991
 20
424.5632399319
 30
0.0
 11
199.1701594991
 21
424.5632399319
 31
0.0
  0
LINE
  5
BC
330
1F
100
AcDbEntity
  8
Default
  6
Continuous
 62
     7
100
AcDbLine
 10
199.1701594991
 20
445.5632399319
 30
0.0
 11
135.6701594991
 21
445.5632399319
 31
0.0
  0
LINE
  5
BD
330
1F
100
AcDbEntity
  8
Default
  6
Continuous
 62
     7
100
AcDbLine
 10
199.1701594991
 20
445.5632399319
 30
0.0
 11
199.1701594991
 21
462.6632399319
 31
0.0
  0
LINE
  5
BE
330
1F
100
AcDbEntity
  8
Default
  6
Continuous
 62
     7
100
AcDbLine
 10
135.6701594991
 20
462.6632399319
 30
0.0
 11
59.4701594991
 21
462.6632399319
 31
0.0
  0
LINE
  5
BF
330
1F
100
AcDbEntity
  8
Default
  6
Continuous
 62
     7
100
AcDbLine
 10
275.3701594991
 20
462.6632399319
 30
0.0
 11
199.1701594991
 21
462.6632399319
 31
0.0
  0
LINE
  5
C0
330
1F
100
AcDbEntity
  8
Default
  6
Continuous
 62
     7
100
AcDbLine
 10
669.1433567651
 20
146.037423329
 30
0.0
 11
669.1433567651
 21
209.537423329
 31
0.0
  0
LINE
  5
C1
330
1F
100
AcDbEntity
  8
Default
  6
Continuous
 62
     7
100
AcDbLine
 10
264.1433567651
 20
146.037423329
 30
0.0
 11
264.1433567651
 21
209.537423329
 31
0.0
  0
LINE
  5
C2
330
1F
100
AcDbEntity
  8
Default
  6
Continuous
 62
     7
100
AcDbLine
 10
669.1433567651
 20
209.537423329
 30
0.0
 11
264.1433567651
 21
209.537423329
 31
0.0
  0
LINE
  5
C3
330
1F
100
AcDbEntity
  8
Default
  6
Continuous
 62
     7
100
AcDbLine
 10
264.1433567651
 20
209.537423329
 30
0.0
 11
669.1433567651
 21
209.537423329
 31
0.0
  0
LINE
  5
C4
330
1F
100
AcDbEntity
  8
Default
  6
Continuous
 62
     7
100
AcDbLine
 10
264.1433567651
 20
146.037423329
 30
0.0
 11
669.1433567651
 21
146.037423329
 31
0.0
  0
LINE
  5
C5
330
1F
100
AcDbEntity
  8
Default
  6
HIDDEN2
 62
     7
100
AcDbLine
 10
264.1433567651
 20
346.9912980182
 30
0.0
 11
264.1433567651
 21
367.9912980182
 31
0.0
  0
LINE
  5
C6
330
1F
100
AcDbEntity
  8
Default
  6
Continuous
 62
     7
100
AcDbLine
 10
135.6701594991
 20
462.6632399319
 30
0.0
 11
199.1701594991
 21
462.6632399319
 31
0.0
  0
LINE
  5
C7
330
1F
100
AcDbEntity
  8
Default
  6
Continuous
 62
     7
100
AcDbLine
 10
107.5433567651
 20
126.987423329
 30
0.0
 11
107.5433567651
 21
120.637423329
 31
0.0
  0
LINE
  5
C8
330
1F
100
AcDbEntity
  8
Default
  6
Continuous
 62
     7
100
AcDbLine
 10
107.5433567651
 20
120.637423329
 30
0.0
 11
107.5433567651
 21
126.987423329
 31
0.0
  0
LINE
  5
C9
330
1F
100
AcDbEntity
  8
Default
  6
Continuous
 62
     7
100
AcDbLine
 10
107.5433567651
 20
126.987423329
 30
0.0
 11
221.5433567651
 21
126.987423329
 31
0.0
  0
LINE
  5
CA
330
1F
100
AcDbEntity
  8
Default
  6
Continuous
 62
     7
100
AcDbLine
 10
221.5433567651
 20
126.987423329
 30
0.0
 11
221.5433567651
 21
228.587423329
 31
0.0
  0
LINE
  5
CB
330
1F
100
AcDbEntity
  8
Default
  6
Continuous
 62
     7
100
AcDbLine
 10
221.5433567651
 20
228.587423329
 30
0.0
 11
107.5433567651
 21
228.587423329
 31
0.0
  0
LINE
  5
CC
330
1F
100
AcDbEntity
  8
Default
  6
Continuous
 62
     7
100
AcDbLine
 10
107.5433567651
 20
228.587423329
 30
0.0
 11
107.5433567651
 21
126.987423329
 31
0.0
  0
CIRCLE
  5
CD
330
1F
100
AcDbEntity
  8
Default
  6
Continuous
 62
     7
100
AcDbCircle
 10
107.5433567651
 20
228.587423329
 30
0.0
 40
2.5
  0
CIRCLE
  5
CE
330
1F
100
AcDbEntity
  8
Default
  6
Continuous
 62
     7
100
AcDbCircle
 10
145.5433567651
 20
228.587423329
 30
0.0
 40
2.5
  0
CIRCLE
  5
CF
330
1F
100
AcDbEntity
  8
Default
  6
Continuous
 62
     7
100
AcDbCircle
 10
183.5433567651
 20
228.587423329
 30
0.0
 40
2.5
  0
CIRCLE
  5
D0
330
1F
100
AcDbEntity
  8
Default
  6
Continuous
 62
     7
100
AcDbCircle
 10
221.5433567651
 20
228.587423329
 30
0.0
 40
2.5
  0
CIRCLE
  5
D1
330
1F
100
AcDbEntity
  8
Default
  6
Continuous
 62
     7
100
AcDbCircle
 10
107.5433567651
 20
126.987423329
 30
0.0
 40
2.5
  0
CIRCLE
  5
D2
330
1F
100
AcDbEntity
  8
Default
  6
Continuous
 62
     7
100
AcDbCircle
 10
145.5433567651
 20
126.987423329
 30
0.0
 40
2.5
  0
CIRCLE
  5
D3
330
1F
100
AcDbEntity
  8
Default
  6
Continuous
 62
     7
100
AcDbCircle
 10
183.5433567651
 20
126.987423329
 30
0.0
 40
2.5
  0
CIRCLE
  5
D4
330
1F
100
AcDbEntity
  8
Default
  6
Continuous
 62
     7
100
AcDbCircle
 10
221.5433567651
 20
126.987423329
 30
0.0
 40
2.5
  0
INSERT
  5
D6
330
1F
100
AcDbEntity
  8
Default
100
AcDbBlockReference
  2
SEANNOT_GROUP1
 10
0.0
 20
0.0
 30
0.0
  0
LINE
  5
DD
330
1F
100
AcDbEntity
  8
Default
  6
Continuous
 62
     7
100
AcDbLine
 10
221.5433567651
 20
126.987423329
 30
0.0
 11
240.5433567651
 21
126.987423329
 31
0.0
  0
LINE
  5
DE
330
1F
100
AcDbEntity
  8
Default
  6
Continuous
 62
     7
100
AcDbLine
 10
240.5433567651
 20
126.987423329
 30
0.0
 11
240.5433567651
 21
145.987423329
 31
0.0
  0
LINE
  5
DF
330
1F
100
AcDbEntity
  8
Default
  6
Continuous
 62
     7
100
AcDbLine
 10
240.5433567651
 20
145.987423329
 30
0.0
 11
221.5433567651
 21
145.987423329
 31
0.0
  0
LINE
  5
E0
330
1F
100
AcDbEntity
  8
Default
  6
Continuous
 62
     7
100
AcDbLine
 10
221.5433567651
 20
145.987423329
 30
0.0
 11
221.5433567651
 21
126.987423329
 31
0.0
  0
DIMENSION
  5
F4
330
1F
100
AcDbEntity
  8
Default
  6
Continuous
 62
     7
100
AcDbDimension
  2
DMBLK7
 10
49.7693824582
 20
260.337423329
 30
0.0
 11
49.7693824582
 21
273.0374231755
 31
0.0
 70
   161
  1
\A1;<>
 71
     5
 42
-1.0
  3
ANSI_(mm)
100
AcDbAlignedDimension
 13
59.5433567651
 23
260.337423329
 33
0.0
 14
59.5433567651
 24
285.737423329
 34
0.0
  0
DIMENSION
  5
FF
330
1F
100
AcDbEntity
  8
Default
  6
Continuous
 62
     7
100
AcDbDimension
  2
DMBLK8
 10
50.1845660619
 20
69.837423329
 30
0.0
 11
50.1845660619
 21
82.5374231755
 31
0.0
 70
   161
  1
\A1;<>
 71
     5
 42
-1.0
  3
ANSI_(mm)
100
AcDbAlignedDimension
 13
59.5433567651
 23
69.837423329
 33
0.0
 14
59.5433567651
 24
95.237423329
 34
0.0
  0
DIMENSION
  5
10A
330
1F
100
AcDbEntity
  8
Default
  6
Continuous
 62
     7
100
AcDbDimension
  2
DMBLK9
 10
20.6255321391
 20
69.837423329
 30
0.0
 11
20.6255321391
 21
165.0874202891
 31
0.0
 70
   160
  1
\A1;<>
 71
     5
 42
-1.0
  3
ANSI_(mm)
100
AcDbAlignedDimension
 13
59.5433567651
 23
260.337423329
 33
0.0
 14
197.2433567651
 24
69.837423329
 34
0.0
 50
90.0
100
AcDbRotatedDimension
  0
DIMENSION
  5
115
330
1F
100
AcDbEntity
  8
Default
  6
Continuous
 62
     7
100
AcDbDimension
  2
DMBLK10
 10
688.6310305722
 20
260.337423329
 30
0.0
 11
688.6310305722
 21
177.787420003
 31
0.0
 70
   160
  1
\A1;<>
 71
     5
 42
-1.0
  3
ANSI_(mm)
100
AcDbAlignedDimension
 13
334.9433567651
 23
95.237423329
 33
0.0
 14
365.0433567651
 24
260.337423329
 34
0.0
 50
90.0
100
AcDbRotatedDimension
  0
DIMENSION
  5
120
330
1F
100
AcDbEntity
  8
Default
  6
Continuous
 62
     7
100
AcDbDimension
  2
DMBLK11
 10
59.5433567651
 20
308.3039988859
 30
0.0
 11
364.343352998
 21
308.3039988859
 31
0.0
 70
   160
  1
\A1;<>
 71
     5
 42
-1.0
  3
ANSI_(mm)
100
AcDbAlignedDimension
 13
669.1433567651
 23
285.737423329
 33
0.0
 14
59.5433567651
 24
285.737423329
 34
0.0
100
AcDbRotatedDimension
  0
DIMENSION
  5
12B
330
1F
100
AcDbEntity
  8
Default
  6
Continuous
 62
     7
100
AcDbDimension
  2
DMBLK12
 10
734.5258150347
 20
69.837423329
 30
0.0
 11
734.5258150347
 21
177.787425284
 31
0.0
 70
   161
  1
\A1;<>
 71
     5
 42
-1.0
  3
ANSI_(mm)
100
AcDbAlignedDimension
 13
669.1433567651
 23
69.837423329
 33
0.0
 14
669.1433567651
 24
285.737423329
 34
0.0
  0
DIMENSION
  5
136
330
1F
100
AcDbEntity
  8
Default
  6
Continuous
 62
     7
100
AcDbDimension
  2
DMBLK13
 10
334.0535926002
 20
259.2103177891
 30
0.0
 11
353.0490198647
 21
275.4182304131
 31
0.0
 70
   163
  1
\A1;<>
 71
     5
 42
-1.0
  3
ANSI_(mm)
100
AcDbDiametricDimension
 15
336.0331209299
 25
261.4645288688
 35
0.0
 40
0.0
  0
DIMENSION
  5
140
330
1F
100
AcDbEntity
  8
Default
  6
Continuous
 62
     7
100
AcDbDimension
  2
DMBLK14
 10
42.322889436
 20
367.9912980182
 30
0.0
 11
42.322889436
 21
348.9412977828
 31
0.0
 70
   161
  1
\A1;<>
 71
     5
 42
-1.0
  3
ANSI_(mm)
100
AcDbAlignedDimension
 13
59.5433567651
 23
367.9912980182
 33
0.0
 14
59.5433567651
 24
329.8912980182
 34
0.0
  0
DIMENSION
  5
14B
330
1F
100
AcDbEntity
  8
Default
  6
Continuous
 62
     7
100
AcDbDimension
  2
DMBLK15
 10
59.5433567651
 20
389.2626255287
 30
0.0
 11
364.343352998
 21
389.2626255287
 31
0.0
 70
   160
  1
\A1;<>
 71
     5
 42
-1.0
  3
ANSI_(mm)
100
AcDbAlignedDimension
 13
669.1433567651
 23
367.9912980182
 33
0.0
 14
59.5433567651
 24
367.9912980182
 34
0.0
100
AcDbRotatedDimension
  0
DIMENSION
  5
156
330
1F
100
AcDbEntity
  8
Default
  6
Continuous
 62
     7
100
AcDbDimension
  2
DMBLK16
 10
682.2297195069
 20
346.9912980182
 30
0.0
 11
682.2297195069
 21
357.4912978766
 31
0.0
 70
   161
  1
\A1;<>
 71
     5
 42
-1.0
  3
ANSI_(mm)
100
AcDbAlignedDimension
 13
669.1433567651
 23
346.9912980182
 33
0.0
 14
669.1433567651
 24
367.9912980182
 34
0.0
  0
DIMENSION
  5
161
330
1F
100
AcDbEntity
  8
Default
  6
Continuous
 62
     7
100
AcDbDimension
  2
DMBLK17
 10
298.6162075174
 20
424.5632399319
 30
0.0
 11
298.6162075174
 21
443.6132401673
 31
0.0
 70
   161
  1
\A1;<>
 71
     5
 42
-1.0
  3
ANSI_(mm)
100
AcDbAlignedDimension
 13
275.3701594991
 23
424.5632399319
 33
0.0
 14
275.3701594991
 24
462.6632399319
 34
0.0
  0
DIMENSION
  5
16C
330
1F
100
AcDbEntity
  8
Default
  6
Continuous
 62
     7
100
AcDbDimension
  2
DMBLK18
 10
59.4701594991
 20
413.3532686604
 30
0.0
 11
167.4201614541
 21
413.3532686604
 31
0.0
 70
   161
  1
\A1;<>
 71
     5
 42
-1.0
  3
ANSI_(mm)
100
AcDbAlignedDimension
 13
59.4701594991
 23
424.5632399319
 33
0.0
 14
275.3701594991
 24
424.5632399319
 34
0.0
  0
DIMENSION
  5
177
330
1F
100
AcDbEntity
  8
Default
  6
Continuous
 62
     7
100
AcDbDimension
  2
DMBLK19
 10
135.6701594991
 20
436.6035796253
 30
0.0
 11
167.4201584858
 21
436.6035796253
 31
0.0
 70
   160
  1
\A1;<>
 71
     5
 42
-1.0
  3
ANSI_(mm)
100
AcDbAlignedDimension
 13
199.1701594991
 23
445.5632399319
 33
0.0
 14
135.6701594991
 24
445.5632399319
 34
0.0
100
AcDbRotatedDimension
  0
DIMENSION
  5
182
330
1F
100
AcDbEntity
  8
Default
  6
Continuous
 62
     7
100
AcDbDimension
  2
DMBLK20
 10
284.0847618383
 20
424.5632399319
 30
0.0
 11
284.0847618383
 21
435.0632400735
 31
0.0
 70
   160
  1
\A1;<>
 71
     5
 42
-1.0
  3
ANSI_(mm)
100
AcDbAlignedDimension
 13
199.1701594991
 23
445.5632399319
 33
0.0
 14
167.4201594991
 24
424.5632399319
 34
0.0
 50
90.0
100
AcDbRotatedDimension
  0
DIMENSION
  5
18D
330
1F
100
AcDbEntity
  8
Default
  6
Continuous
 62
     7
100
AcDbDimension
  2
DMBLK21
 10
264.1433567651
 20
222.7251763656
 30
0.0
 11
466.643356169
 21
222.7251763656
 31
0.0
 70
   160
  1
\A1;<>
 71
     5
 42
-1.0
  3
ANSI_(mm)
100
AcDbAlignedDimension
 13
669.1433567651
 23
209.537423329
 33
0.0
 14
264.1433567651
 24
209.537423329
 34
0.0
100
AcDbRotatedDimension
  0
DIMENSION
  5
198
330
1F
100
AcDbEntity
  8
Default
  6
Continuous
 62
     7
100
AcDbDimension
  2
DMBLK22
 10
716.1550910123
 20
69.837423329
 30
0.0
 11
716.1550910123
 21
107.9374228581
 31
0.0
 70
   160
  1
\A1;<>
 71
     5
 42
-1.0
  3
ANSI_(mm)
100
AcDbAlignedDimension
 13
264.1433567651
 23
146.037423329
 33
0.0
 14
335.0433567651
 24
69.837423329
 34
0.0
 50
90.0
100
AcDbRotatedDimension
  0
DIMENSION
  5
1A3
330
1F
100
AcDbEntity
  8
Default
  6
Continuous
 62
     7
100
AcDbDimension
  2
DMBLK23
 10
713.5601978846
 20
285.737423329
 30
0.0
 11
713.5601978846
 21
247.6374237998
 31
0.0
 70
   160
  1
\A1;<>
 71
     5
 42
-1.0
  3
ANSI_(mm)
100
AcDbAlignedDimension
 13
669.1433567651
 23
209.537423329
 33
0.0
 14
545.0433567651
 24
285.737423329
 34
0.0
 50
90.0
100
AcDbRotatedDimension
  0
DIMENSION
  5
1AE
330
1F
100
AcDbEntity
  8
Default
  6
Continuous
 62
     7
100
AcDbDimension
  2
DMBLK24
 10
264.1433567651
 20
378.4751531167
 30
0.0
 11
466.643356169
 21
378.4751531167
 31
0.0
 70
   160
  1
\A1;<>
 71
     5
 42
-1.0
  3
ANSI_(mm)
100
AcDbAlignedDimension
 13
669.1433567651
 23
346.9912980182
 33
0.0
 14
264.1433567651
 24
346.9912980182
 34
0.0
100
AcDbRotatedDimension
  0
DIMENSION
  5
1B9
330
1F
100
AcDbEntity
  8
Default
  6
Continuous
 62
     7
100
AcDbDimension
  2
DMBLK25
 10
95.7224593051
 20
228.587423329
 30
0.0
 11
95.7224593051
 21
177.7874239429
 31
0.0
 70
   161
  1
\A1;<>
 71
     5
 42
-1.0
  3
ANSI_(mm)
100
AcDbAlignedDimension
 13
107.5433567651
 23
228.587423329
 33
0.0
 14
107.5433567651
 24
126.987423329
 34
0.0
  0
DIMENSION
  5
1C4
330
1F
100
AcDbEntity
  8
Default
  6
Continuous
 62
     7
100
AcDbDimension
  2
DMBLK26
 10
38.7615189441
 20
69.837423329
 30
0.0
 11
38.7615189441
 21
98.4124239071
 31
0.0
 70
   160
  1
\A1;<>
 71
     5
 42
-1.0
  3
ANSI_(mm)
100
AcDbAlignedDimension
 13
107.5433567651
 23
126.987423329
 33
0.0
 14
83.5433567651
 24
69.837423329
 34
0.0
 50
90.0
100
AcDbRotatedDimension
  0
DIMENSION
  5
1CF
330
1F
100
AcDbEntity
  8
Default
  6
Continuous
 62
     7
100
AcDbDimension
  2
DMBLK27
 10
41.2194118835
 20
228.587423329
 30
0.0
 11
41.2194118835
 21
257.1624239071
 31
0.0
 70
   160
  1
\A1;<>
 71
     5
 42
-1.0
  3
ANSI_(mm)
100
AcDbAlignedDimension
 13
59.5433567651
 23
285.737423329
 33
0.0
 14
164.5433567651
 24
228.587423329
 34
0.0
 50
90.0
100
AcDbRotatedDimension
  0
DIMENSION
  5
1DA
330
1F
100
AcDbEntity
  8
Default
  6
Continuous
 62
     7
100
AcDbDimension
  2
DMBLK28
 10
220.040240412
 20
226.5897643918
 30
0.0
 11
239.1720615524
 21
245.6867575285
 31
0.0
 70
   163
  1
\A1;<>
 71
     5
 42
-1.0
  3
ANSI_(mm)
100
AcDbDiametricDimension
 15
223.0464731182
 25
230.5850822661
 35
0.0
 40
0.0
  0
ENDSEC
  0
SECTION
  2
OBJECTS
  0
DICTIONARY
  5
C
330
0
100
AcDbDictionary
281
     1
  3
ACAD_GROUP
350
D
  3
ACAD_LAYOUT
350
1A
  3
ACAD_MATERIAL
350
3B
  3
ACAD_MLEADERSTYLE
350
1E5
  3
ACAD_MLINESTYLE
350
17
  3
ACAD_PLOTSETTINGS
350
19
  3
ACAD_PLOTSTYLENAME
350
E
  3
ACAD_VISUALSTYLE
350
2A
  3
AcDbVariableDictionary
350
1E3
  0
DICTIONARY
  5
D
102
{ACAD_REACTORS
330
C
102
}
330
C
100
AcDbDictionary
281
     1
  0
DICTIONARY
  5
1A
102
{ACAD_REACTORS
330
C
102
}
330
C
100
AcDbDictionary
281
     1
  3
Layout1
350
1E
  3
Model
350
22
  0
DICTIONARY
  5
3B
102
{ACAD_REACTORS
330
C
102
}
330
C
100
AcDbDictionary
281
     1
  3
ByBlock
350
3D
  3
ByLayer
350
3C
  3
Global
350
3E
  0
DICTIONARY
  5
1E5
102
{ACAD_REACTORS
330
C
102
}
330
C
100
AcDbDictionary
281
     1
  0
DICTIONARY
  5
17
102
{ACAD_REACTORS
330
C
102
}
330
C
100
AcDbDictionary
281
     1
  3
Standard
350
18
  0
DICTIONARY
  5
19
102
{ACAD_REACTORS
330
C
102
}
330
C
100
AcDbDictionary
281
     1
  0
ACDBDICTIONARYWDFLT
  5
E
102
{ACAD_REACTORS
330
C
102
}
330
C
100
AcDbDictionary
281
     1
  3
Normal
350
F
100
AcDbDictionaryWithDefault
340
F
  0
DICTIONARY
  5
2A
102
{ACAD_REACTORS
330
C
102
}
330
C
100
AcDbDictionary
281
     1
  3
2dWireframe
350
2F
  3
3D Hidden
350
31
  3
3dWireframe
350
30
  3
Basic
350
32
  3
Brighten
350
36
  3
ColorChange
350
3A
  3
Conceptual
350
34
  3
Dim
350
35
  3
Facepattern
350
39
  3
Flat
350
2B
  3
FlatWithEdges
350
2C
  3
Gouraud
350
2D
  3
GouraudWithEdges
350
2E
  3
Linepattern
350
38
  3
Realistic
350
33
  3
Thicken
350
37
  0
DICTIONARY
  5
1E3
102
{ACAD_REACTORS
330
C
102
}
330
C
100
AcDbDictionary
281
     1
  3
DIMASSOC
350
1E8
  3
HIDETEXT
350
1E9
  3
PSOLHEIGHT
350
1E7
  3
PSOLWIDTH
350
1E6
  0
LAYOUT
  5
1E
102
{ACAD_REACTORS
330
1A
102
}
330
1A
100
AcDbPlotSettings
  1

  2
none_device
  4

  6

 40
0.0
 41
0.0
 42
0.0
 43
0.0
 44
0.0
 45
0.0
 46
0.0
 47
0.0
 48
0.0
 49
0.0
140
0.0
141
0.0
142
1.0
143
1.0
 70
   688
 72
     0
 73
     0
 74
     5
  7

 75
    16
147
1.0
148
0.0
149
0.0
100
AcDbLayout
  1
Layout1
 70
     1
 71
     1
 10
0.0
 20
0.0
 11
2438.4
 21
1219.2
 12
0.0
 22
0.0
 32
0.0
 14
0.0
 24
0.0
 34
0.0
 15
2438.4
 25
1219.2
 35
0.0
146
0.0
 13
0.0
 23
0.0
 33
0.0
 16
1.0
 26
0.0
 36
0.0
 17
0.0
 27
1.0
 37
0.0
 76
     0
330
1B
  0
LAYOUT
  5
22
102
{ACAD_REACTORS
330
1A
102
}
330
1A
100
AcDbPlotSettings
  1

  2
none_device
  4

  6

 40
0.0
 41
0.0
 42
0.0
 43
0.0
 44
0.0
 45
0.0
 46
0.0
 47
0.0
 48
0.0
 49
0.0
140
0.0
141
0.0
142
1.0
143
1.0
 70
  1712
 72
     0
 73
     0
 74
     0
  7

 75
     0
147
1.0
148
0.0
149
0.0
100
AcDbLayout
  1
Model
 70
     1
 71
     0
 10
0.0
 20
0.0
 11
2438.4
 21
1219.2
 12
0.0
 22
0.0
 32
0.0
 14
0.0
 24
0.0
 34
0.0
 15
2438.4
 25
1219.2
 35
0.0
146
0.0
 13
0.0
 23
0.0
 33
0.0
 16
1.0
 26
0.0
 36
0.0
 17
0.0
 27
1.0
 37
0.0
 76
     0
330
1F
331
29
  0
MATERIAL
  5
3D
102
{ACAD_REACTORS
330
3B
102
}
102
{ACAD_XDICTIONARY
360
20C
102
}
330
3B
100
AcDbMaterial
  1
ByBlock
  0
MATERIAL
  5
3C
102
{ACAD_REACTORS
330
3B
102
}
102
{ACAD_XDICTIONARY
360
20A
102
}
330
3B
100
AcDbMaterial
  1
ByLayer
  0
MATERIAL
  5
3E
102
{ACAD_REACTORS
330
3B
102
}
102
{ACAD_XDICTIONARY
360
20E
102
}
330
3B
100
AcDbMaterial
  1
Global
  0
MLINESTYLE
  5
18
102
{ACAD_REACTORS
330
17
102
}
330
17
100
AcDbMlineStyle
  2
Standard
 70
     0
  3

 62
   256
 51
90.0
 52
90.0
 71
     2
 49
0.5
 62
   256
  6
BYLAYER
 49
-0.5
 62
   256
  6
BYLAYER
  0
ACDBPLACEHOLDER
  5
F
102
{ACAD_REACTORS
330
E
102
}
330
E
  0
VISUALSTYLE
  5
2F
102
{ACAD_REACTORS
330
2A
102
}
102
{ACAD_XDICTIONARY
360
1F2
102
}
330
2A
100
AcDbVisualStyle
  2
2dWireframe
 70
     4
 71
     0
 72
     2
 73
     0
 90
        0
 40
-0.6
 41
-30.0
 62
     5
 63
     7
 74
     1
 91
        4
 64
     7
 65
   257
 75
     1
175
     1
 42
1.0
 92
        0
 66
   257
 43
1.0
 76
     1
 77
     6
 78
     2
 67
     7
 79
     5
170
     0
171
     0
290
     0
174
     0
 93
        1
 44
0.0
173
     0
291
     0
 45
0.0
1001
ACAD
1000
AcDbSavedByObjectVersion
1070
     0
  0
VISUALSTYLE
  5
31
102
{ACAD_REACTORS
330
2A
102
}
102
{ACAD_XDICTIONARY
360
1F6
102
}
330
2A
100
AcDbVisualStyle
  2
3D Hidden
 70
     6
 71
     1
 72
     2
 73
     2
 90
        0
 40
-0.6
 41
-30.0
 62
     5
 63
     7
 74
     2
 91
        2
 64
     7
 65
   257
 75
     2
175
     1
 42
40.0
 92
        0
 66
   257
 43
1.0
 76
     1
 77
     6
 78
     2
 67
     7
 79
     3
170
     0
171
     0
290
     0
174
     0
 93
        1
 44
0.0
173
     0
291
     0
 45
0.0
1001
ACAD
1000
AcDbSavedByObjectVersion
1070
     0
  0
VISUALSTYLE
  5
30
102
{ACAD_REACTORS
330
2A
102
}
102
{ACAD_XDICTIONARY
360
1F4
102
}
330
2A
100
AcDbVisualStyle
  2
3dWireframe
 70
     5
 71
     0
 72
     2
 73
     0
 90
        0
 40
-0.6
 41
-30.0
 62
     5
 63
     7
 74
     1
 91
        4
 64
     7
 65
   257
 75
     1
175
     1
 42
1.0
 92
        0
 66
   257
 43
1.0
 76
     1
 77
     6
 78
     2
 67
     7
 79
     5
170
     0
171
     0
290
     0
174
     0
 93
        1
 44
0.0
173
     0
291
     0
 45
0.0
1001
ACAD
1000
AcDbSavedByObjectVersion
1070
     0
  0
VISUALSTYLE
  5
32
102
{ACAD_REACTORS
330
2A
102
}
102
{ACAD_XDICTIONARY
360
1F8
102
}
330
2A
100
AcDbVisualStyle
  2
Basic
 70
     7
 71
     1
 72
     0
 73
     1
 90
        0
 40
-0.6
 41
-30.0
 62
     5
 63
     7
 74
     0
 91
        4
 64
     7
 65
   257
 75
     1
175
     1
 42
1.0
 92
        8
 66
     7
 43
1.0
 76
     1
 77
     6
 78
     2
 67
     7
 79
     5
170
     0
171
     0
290
     0
174
     0
 93
        1
 44
0.0
173
     0
291
     1
 45
0.0
1001
ACAD
1000
AcDbSavedByObjectVersion
1070
     0
  0
VISUALSTYLE
  5
36
102
{ACAD_REACTORS
330
2A
102
}
102
{ACAD_XDICTIONARY
360
200
102
}
330
2A
100
AcDbVisualStyle
  2
Brighten
 70
    12
 71
     2
 72
     2
 73
     0
 90
        0
 40
-0.6
 41
-30.0
 62
     5
 63
     7
 74
     1
 91
        4
 64
     7
 65
   257
 75
     1
175
     1
 42
1.0
 92
        8
 66
     7
 43
1.0
 76
     1
 77
     6
 78
     2
 67
     7
 79
     5
170
     0
171
     0
290
     0
174
     0
 93
        1
 44
50.0
173
     0
291
     1
 45
0.0
1001
ACAD
1000
AcDbSavedByObjectVersion
1070
     0
  0
VISUALSTYLE
  5
3A
102
{ACAD_REACTORS
330
2A
102
}
102
{ACAD_XDICTIONARY
360
208
102
}
330
2A
100
AcDbVisualStyle
  2
ColorChange
 70
    16
 71
     2
 72
     2
 73
     3
 90
        0
 40
-0.6
 41
-30.0
 62
     5
 63
     8
 74
     1
 91
        4
 64
     7
 65
   257
 75
     1
175
     1
 42
1.0
 92
        8
 66
     8
 43
1.0
 76
     1
 77
     6
 78
     2
 67
     7
 79
     5
170
     0
171
     0
290
     0
174
     0
 93
        1
 44
0.0
173
     0
291
     1
 45
0.0
1001
ACAD
1000
AcDbSavedByObjectVersion
1070
     0
  0
VISUALSTYLE
  5
34
102
{ACAD_REACTORS
330
2A
102
}
102
{ACAD_XDICTIONARY
360
1FC
102
}
330
2A
100
AcDbVisualStyle
  2
Conceptual
 70
     9
 71
     3
 72
     2
 73
     0
 90
        0
 40
-0.6
 41
-30.0
 62
     5
 63
     7
 74
     2
 91
        2
 64
     7
 65
   257
 75
     1
175
     1
 42
40.0
 92
        8
 66
     7
 43
1.0
 76
     1
 77
     6
 78
     2
 67
     7
 79
     3
170
     0
171
     0
290
     0
174
     0
 93
        1
 44
0.0
173
     0
291
     0
 45
0.0
1001
ACAD
1000
AcDbSavedByObjectVersion
1070
     0
  0
VISUALSTYLE
  5
35
102
{ACAD_REACTORS
330
2A
102
}
102
{ACAD_XDICTIONARY
360
1FE
102
}
330
2A
100
AcDbVisualStyle
  2
Dim
 70
    11
 71
     2
 72
     2
 73
     0
 90
        0
 40
-0.6
 41
-30.0
 62
     5
 63
     7
 74
     1
 91
        4
 64
     7
 65
   257
 75
     1
175
     1
 42
1.0
 92
        8
 66
     7
 43
1.0
 76
     1
 77
     6
 78
     2
 67
     7
 79
     5
170
     0
171
     0
290
     0
174
     0
 93
        1
 44
-50.0
173
     0
291
     1
 45
0.0
1001
ACAD
1000
AcDbSavedByObjectVersion
1070
     0
  0
VISUALSTYLE
  5
39
102
{ACAD_REACTORS
330
2A
102
}
102
{ACAD_XDICTIONARY
360
206
102
}
330
2A
100
AcDbVisualStyle
  2
Facepattern
 70
    15
 71
     2
 72
     2
 73
     0
 90
        0
 40
-0.6
 41
-30.0
 62
     5
 63
     7
 74
     1
 91
        4
 64
     7
 65
   257
 75
     1
175
     1
 42
1.0
 92
        8
 66
     7
 43
1.0
 76
     1
 77
     6
 78
     2
 67
     7
 79
     5
170
     0
171
     0
290
     0
174
     0
 93
        1
 44
0.0
173
     0
291
     1
 45
0.0
1001
ACAD
1000
AcDbSavedByObjectVersion
1070
     0
  0
VISUALSTYLE
  5
2B
102
{ACAD_REACTORS
330
2A
102
}
102
{ACAD_XDICTIONARY
360
1EA
102
}
330
2A
100
AcDbVisualStyle
  2
Flat
 70
     0
 71
     2
 72
     1
 73
     1
 90
        2
 40
-0.6
 41
30.0
 62
     5
 63
     7
 74
     0
 91
        4
 64
     7
 65
   257
 75
     1
175
     1
 42
1.0
 92
        8
 66
     7
 43
1.0
 76
     1
 77
     6
 78
     2
 67
     7
 79
     5
170
     0
171
     0
290
     0
174
     0
 93
       13
 44
0.0
173
     0
291
     1
 45
0.0
1001
ACAD
1000
AcDbSavedByObjectVersion
1070
     0
  0
VISUALSTYLE
  5
2C
102
{ACAD_REACTORS
330
2A
102
}
102
{ACAD_XDICTIONARY
360
1EC
102
}
330
2A
100
AcDbVisualStyle
  2
FlatWithEdges
 70
     1
 71
     2
 72
     1
 73
     1
 90
        2
 40
-0.6
 41
30.0
 62
     5
 63
     7
 74
     1
 91
        4
 64
     7
 65
   257
 75
     1
175
     1
 42
1.0
 92
        0
 66
   257
 43
1.0
 76
     1
 77
     6
 78
     2
 67
     7
 79
     5
170
     0
171
     0
290
     0
174
     0
 93
       13
 44
0.0
173
     0
291
     1
 45
0.0
1001
ACAD
1000
AcDbSavedByObjectVersion
1070
     0
  0
VISUALSTYLE
  5
2D
102
{ACAD_REACTORS
330
2A
102
}
102
{ACAD_XDICTIONARY
360
1EE
102
}
330
2A
100
AcDbVisualStyle
  2
Gouraud
 70
     2
 71
     2
 72
     2
 73
     1
 90
        2
 40
-0.6
 41
30.0
 62
     5
 63
     7
 74
     0
 91
        4
 64
     7
 65
   257
 75
     1
175
     1
 42
1.0
 92
        0
 66
     7
 43
1.0
 76
     1
 77
     6
 78
     2
 67
     7
 79
     5
170
     0
171
     0
290
     0
174
     0
 93
       13
 44
0.0
173
     0
291
     1
 45
0.0
1001
ACAD
1000
AcDbSavedByObjectVersion
1070
     0
  0
VISUALSTYLE
  5
2E
102
{ACAD_REACTORS
330
2A
102
}
102
{ACAD_XDICTIONARY
360
1F0
102
}
330
2A
100
AcDbVisualStyle
  2
GouraudWithEdges
 70
     3
 71
     2
 72
     2
 73
     1
 90
        2
 40
-0.6
 41
30.0
 62
     5
 63
     7
 74
     1
 91
        4
 64
     7
 65
   257
 75
     1
175
     1
 42
1.0
 92
        0
 66
   257
 43
1.0
 76
     1
 77
     6
 78
     2
 67
     7
 79
     5
170
     0
171
     0
290
     0
174
     0
 93
       13
 44
0.0
173
     0
291
     1
 45
0.0
1001
ACAD
1000
AcDbSavedByObjectVersion
1070
     0
  0
VISUALSTYLE
  5
38
102
{ACAD_REACTORS
330
2A
102
}
102
{ACAD_XDICTIONARY
360
204
102
}
330
2A
100
AcDbVisualStyle
  2
Linepattern
 70
    14
 71
     2
 72
     2
 73
     0
 90
        0
 40
-0.6
 41
-30.0
 62
     5
 63
     7
 74
     1
 91
        4
 64
     7
 65
   257
 75
     7
175
     7
 42
1.0
 92
        8
 66
     7
 43
1.0
 76
     1
 77
     6
 78
     2
 67
     7
 79
     5
170
     0
171
     0
290
     0
174
     0
 93
        1
 44
0.0
173
     0
291
     1
 45
0.0
1001
ACAD
1000
AcDbSavedByObjectVersion
1070
     0
  0
VISUALSTYLE
  5
33
102
{ACAD_REACTORS
330
2A
102
}
102
{ACAD_XDICTIONARY
360
1FA
102
}
330
2A
100
AcDbVisualStyle
  2
Realistic
 70
     8
 71
     2
 72
     2
 73
     0
 90
        0
 40
-0.6
 41
-30.0
 62
     5
 63
     7
 74
     1
 91
        0
 64
     7
 65
   257
 75
     1
175
     1
 42
1.0
 92
        8
 66
     8
 43
1.0
 76
     1
 77
     6
 78
     2
 67
     7
 79
     5
170
     0
171
     0
290
     0
174
     0
 93
       13
 44
0.0
173
     0
291
     0
 45
0.0
1001
ACAD
1000
AcDbSavedByObjectVersion
1070
     0
  0
VISUALSTYLE
  5
37
102
{ACAD_REACTORS
330
2A
102
}
102
{ACAD_XDICTIONARY
360
202
102
}
330
2A
100
AcDbVisualStyle
  2
Thicken
 70
    13
 71
     2
 72
     2
 73
     0
 90
        0
 40
-0.6
 41
-30.0
 62
     5
 63
     7
 74
     1
 91
        4
 64
     7
 65
   257
 75
     1
175
     1
 42
1.0
 92
       12
 66
     7
 43
1.0
 76
     1
 77
     6
 78
     2
 67
     7
 79
     5
170
     0
171
     0
290
     0
174
     0
 93
        1
 44
0.0
173
     0
291
     1
 45
0.0
1001
ACAD
1000
AcDbSavedByObjectVersion
1070
     0
  0
DICTIONARYVAR
  5
1E8
102
{ACAD_REACTORS
330
1E3
102
}
330
1E3
100
DictionaryVariables
280
     0
  1
2
  0
DICTIONARYVAR
  5
1E9
102
{ACAD_REACTORS
330
1E3
102
}
330
1E3
100
DictionaryVariables
280
     0
  1
1
  0
DICTIONARYVAR
  5
1E7
102
{ACAD_REACTORS
330
1E3
102
}
330
1E3
100
DictionaryVariables
280
     0
  1
80.000000
  0
DICTIONARYVAR
  5
1E6
102
{ACAD_REACTORS
330
1E3
102
}
330
1E3
100
DictionaryVariables
280
     0
  1
5.000000
  0
DICTIONARY
  5
20C
330
3D
100
AcDbDictionary
280
     1
281
     1
  3
ACAD_XREC_ROUNDTRIP
360
20D
  0
DICTIONARY
  5
20A
330
3C
100
AcDbDictionary
280
     1
281
     1
  3
ACAD_XREC_ROUNDTRIP
360
20B
  0
DICTIONARY
  5
20E
330
3E
100
AcDbDictionary
280
     1
281
     1
  3
ACAD_XREC_ROUNDTRIP
360
20F
  0
DICTIONARY
  5
1F2
330
2F
100
AcDbDictionary
280
     1
281
     1
  3
ACAD_XREC_ROUNDTRIP
360
1F3
  0
DICTIONARY
  5
1F6
330
31
100
AcDbDictionary
280
     1
281
     1
  3
ACAD_XREC_ROUNDTRIP
360
1F7
  0
DICTIONARY
  5
1F4
330
30
100
AcDbDictionary
280
     1
281
     1
  3
ACAD_XREC_ROUNDTRIP
360
1F5
  0
DICTIONARY
  5
1F8
330
32
100
AcDbDictionary
280
     1
281
     1
  3
ACAD_XREC_ROUNDTRIP
360
1F9
  0
DICTIONARY
  5
200
330
36
100
AcDbDictionary
280
     1
281
     1
  3
ACAD_XREC_ROUNDTRIP
360
201
  0
DICTIONARY
  5
208
330
3A
100
AcDbDictionary
280
     1
281
     1
  3
ACAD_XREC_ROUNDTRIP
360
209
  0
DICTIONARY
  5
1FC
330
34
100
AcDbDictionary
280
     1
281
     1
  3
ACAD_XREC_ROUNDTRIP
360
1FD
  0
DICTIONARY
  5
1FE
330
35
100
AcDbDictionary
280
     1
281
     1
  3
ACAD_XREC_ROUNDTRIP
360
1FF
  0
DICTIONARY
  5
206
330
39
100
AcDbDictionary
280
     1
281
     1
  3
ACAD_XREC_ROUNDTRIP
360
207
  0
DICTIONARY
  5
1EA
330
2B
100
AcDbDictionary
280
     1
281
     1
  3
ACAD_XREC_ROUNDTRIP
360
1EB
  0
DICTIONARY
  5
1EC
330
2C
100
AcDbDictionary
280
     1
281
     1
  3
ACAD_XREC_ROUNDTRIP
360
1ED
  0
DICTIONARY
  5
1EE
330
2D
100
AcDbDictionary
280
     1
281
     1
  3
ACAD_XREC_ROUNDTRIP
360
1EF
  0
DICTIONARY
  5
1F0
330
2E
100
AcDbDictionary
280
     1
281
     1
  3
ACAD_XREC_ROUNDTRIP
360
1F1
  0
DICTIONARY
  5
204
330
38
100
AcDbDictionary
280
     1
281
     1
  3
ACAD_XREC_ROUNDTRIP
360
205
  0
DICTIONARY
  5
1FA
330
33
100
AcDbDictionary
280
     1
281
     1
  3
ACAD_XREC_ROUNDTRIP
360
1FB
  0
DICTIONARY
  5
202
330
37
100
AcDbDictionary
280
     1
281
     1
  3
ACAD_XREC_ROUNDTRIP
360
203
  0
XRECORD
  5
20D
102
{ACAD_REACTORS
330
20C
102
}
330
20C
100
AcDbXrecord
280
     1
102
MATERIAL
148
0.0
149
0.0
149
0.0
 93
        0
 94
      127
282
     0
 72
     1
 77
     1
171
     1
175
     1
179
     1
273
     0
  0
XRECORD
  5
20B
102
{ACAD_REACTORS
330
20A
102
}
330
20A
100
AcDbXrecord
280
     1
102
MATERIAL
148
0.0
149
0.0
149
0.0
 93
        0
 94
      127
282
     0
 72
     1
 77
     1
171
     1
175
     1
179
     1
273
     0
  0
XRECORD
  5
20F
102
{ACAD_REACTORS
330
20E
102
}
330
20E
100
AcDbXrecord
280
     1
102
MATERIAL
148
0.0
149
0.0
149
0.0
 93
        0
 94
      127
282
     0
 72
     1
 77
     1
171
     1
175
     1
179
     1
273
     0
  0
XRECORD
  5
1F3
102
{ACAD_REACTORS
330
1F2
102
}
330
1F2
100
AcDbXrecord
280
     1
102
RTVSPropertyOp0
 70
     1
102
RTVSPropertyOp1
 70
     1
102
RTVSPropertyOp2
 70
     1
102
RTVSPropertyOp3
 70
     1
102
RTVSPropertyOp4
 70
     1
102
RTVSPropertyOp5
 70
     1
102
RTVSPropertyOp6
 70
     1
102
RTVSPropertyOp7
 70
     1
102
RTVSPropertyOp8
 70
     1
102
RTVSPropertyOp9
 70
     1
102
RTVSPropertyOp10
 70
     1
102
RTVSPropertyOp11
 70
     1
102
RTVSPropertyOp12
 70
     1
102
RTVSPropertyOp13
 70
     1
102
RTVSPropertyOp14
 70
     1
102
RTVSPropertyOp15
 70
     1
102
RTVSPropertyOp16
 70
     1
102
RTVSPropertyOp17
 70
     1
102
RTVSPropertyOp18
 70
     1
102
RTVSPropertyOp19
 70
     1
102
RTVSPropertyOp20
 70
     1
102
RTVSPropertyOp21
 70
     1
102
RTVSPropertyOp22
 70
     1
102
RTVSPropertyOp23
 70
     1
102
RTVSPropertyOp24
 70
     1
102
RTVSPropertyOp25
 70
     1
102
RTVSPropertyOp26
 70
     1
102
RTVSPropertyOp27
 70
     1
102
RTVSPropertyOp28
 70
     1
102
RTVSPropertyOp29
 70
     1
102
RTVSPropertyOp30
 70
     1
102
RTVSPropertyOp31
 70
     1
102
RTVSPropertyOp32
 70
     1
  0
XRECORD
  5
1F7
102
{ACAD_REACTORS
330
1F6
102
}
330
1F6
100
AcDbXrecord
280
     1
102
RTVSPropertyOp0
 70
     1
102
RTVSPropertyOp1
 70
     1
102
RTVSPropertyOp2
 70
     1
102
RTVSPropertyOp3
 70
     1
102
RTVSPropertyOp4
 70
     1
102
RTVSPropertyOp5
 70
     1
102
RTVSPropertyOp6
 70
     1
102
RTVSPropertyOp7
 70
     1
102
RTVSPropertyOp8
 70
     1
102
RTVSPropertyOp9
 70
     1
102
RTVSPropertyOp10
 70
     1
102
RTVSPropertyOp11
 70
     1
102
RTVSPropertyOp12
 70
     1
102
RTVSPropertyOp13
 70
     1
102
RTVSPropertyOp14
 70
     1
102
RTVSPropertyOp15
 70
     1
102
RTVSPropertyOp16
 70
     1
102
RTVSPropertyOp17
 70
     1
102
RTVSPropertyOp18
 70
     1
102
RTVSPropertyOp19
 70
     1
102
RTVSPropertyOp20
 70
     1
102
RTVSPropertyOp21
 70
     1
102
RTVSPropertyOp22
 70
     1
102
RTVSPropertyOp23
 70
     1
102
RTVSPropertyOp24
 70
     1
102
RTVSPropertyOp25
 70
     1
102
RTVSPropertyOp26
 70
     1
102
RTVSPropertyOp27
 70
     1
102
RTVSPropertyOp28
 70
     1
102
RTVSPropertyOp29
 70
     1
102
RTVSPropertyOp30
 70
     1
102
RTVSPropertyOp31
 70
     1
102
RTVSPropertyOp32
 70
     1
  0
XRECORD
  5
1F5
102
{ACAD_REACTORS
330
1F4
102
}
330
1F4
100
AcDbXrecord
280
     1
102
RTVSPropertyOp0
 70
     1
102
RTVSPropertyOp1
 70
     1
102
RTVSPropertyOp2
 70
     1
102
RTVSPropertyOp3
 70
     1
102
RTVSPropertyOp4
 70
     1
102
RTVSPropertyOp5
 70
     1
102
RTVSPropertyOp6
 70
     1
102
RTVSPropertyOp7
 70
     1
102
RTVSPropertyOp8
 70
     1
102
RTVSPropertyOp9
 70
     1
102
RTVSPropertyOp10
 70
     1
102
RTVSPropertyOp11
 70
     1
102
RTVSPropertyOp12
 70
     1
102
RTVSPropertyOp13
 70
     1
102
RTVSPropertyOp14
 70
     1
102
RTVSPropertyOp15
 70
     1
102
RTVSPropertyOp16
 70
     1
102
RTVSPropertyOp17
 70
     1
102
RTVSPropertyOp18
 70
     1
102
RTVSPropertyOp19
 70
     1
102
RTVSPropertyOp20
 70
     1
102
RTVSPropertyOp21
 70
     1
102
RTVSPropertyOp22
 70
     1
102
RTVSPropertyOp23
 70
     1
102
RTVSPropertyOp24
 70
     1
102
RTVSPropertyOp25
 70
     1
102
RTVSPropertyOp26
 70
     1
102
RTVSPropertyOp27
 70
     1
102
RTVSPropertyOp28
 70
     1
102
RTVSPropertyOp29
 70
     1
102
RTVSPropertyOp30
 70
     1
102
RTVSPropertyOp31
 70
     1
102
RTVSPropertyOp32
 70
     1
  0
XRECORD
  5
1F9
102
{ACAD_REACTORS
330
1F8
102
}
330
1F8
100
AcDbXrecord
280
     1
102
RTVSPropertyOp0
 70
     1
102
RTVSPropertyOp1
 70
     1
102
RTVSPropertyOp2
 70
     1
102
RTVSPropertyOp3
 70
     1
102
RTVSPropertyOp4
 70
     1
102
RTVSPropertyOp5
 70
     1
102
RTVSPropertyOp6
 70
     1
102
RTVSPropertyOp7
 70
     1
102
RTVSPropertyOp8
 70
     1
102
RTVSPropertyOp9
 70
     1
102
RTVSPropertyOp10
 70
     1
102
RTVSPropertyOp11
 70
     1
102
RTVSPropertyOp12
 70
     1
102
RTVSPropertyOp13
 70
     1
102
RTVSPropertyOp14
 70
     1
102
RTVSPropertyOp15
 70
     1
102
RTVSPropertyOp16
 70
     1
102
RTVSPropertyOp17
 70
     1
102
RTVSPropertyOp18
 70
     1
102
RTVSPropertyOp19
 70
     1
102
RTVSPropertyOp20
 70
     1
102
RTVSPropertyOp21
 70
     1
102
RTVSPropertyOp22
 70
     1
102
RTVSPropertyOp23
 70
     1
102
RTVSPropertyOp24
 70
     1
102
RTVSPropertyOp25
 70
     1
102
RTVSPropertyOp26
 70
     1
102
RTVSPropertyOp27
 70
     1
102
RTVSPropertyOp28
 70
     1
102
RTVSPropertyOp29
 70
     1
102
RTVSPropertyOp30
 70
     1
102
RTVSPropertyOp31
 70
     1
102
RTVSPropertyOp32
 70
     1
  0
XRECORD
  5
201
102
{ACAD_REACTORS
330
200
102
}
330
200
100
AcDbXrecord
280
     1
102
RTVSPropertyOp0
 70
     1
102
RTVSPropertyOp1
 70
     1
102
RTVSPropertyOp2
 70
     1
102
RTVSPropertyOp3
 70
     1
102
RTVSPropertyOp4
 70
     1
102
RTVSPropertyOp5
 70
     1
102
RTVSPropertyOp6
 70
     1
102
RTVSPropertyOp7
 70
     1
102
RTVSPropertyOp8
 70
     1
102
RTVSPropertyOp9
 70
     1
102
RTVSPropertyOp10
 70
     1
102
RTVSPropertyOp11
 70
     1
102
RTVSPropertyOp12
 70
     1
102
RTVSPropertyOp13
 70
     1
102
RTVSPropertyOp14
 70
     1
102
RTVSPropertyOp15
 70
     1
102
RTVSPropertyOp16
 70
     1
102
RTVSPropertyOp17
 70
     1
102
RTVSPropertyOp18
 70
     1
102
RTVSPropertyOp19
 70
     1
102
RTVSPropertyOp20
 70
     1
102
RTVSPropertyOp21
 70
     1
102
RTVSPropertyOp22
 70
     1
102
RTVSPropertyOp23
 70
     1
102
RTVSPropertyOp24
 70
     1
102
RTVSPropertyOp25
 70
     1
102
RTVSPropertyOp26
 70
     1
102
RTVSPropertyOp27
 70
     1
102
RTVSPropertyOp28
 70
     1
102
RTVSPropertyOp29
 70
     1
102
RTVSPropertyOp30
 70
     1
102
RTVSPropertyOp31
 70
     1
102
RTVSPropertyOp32
 70
     1
  0
XRECORD
  5
209
102
{ACAD_REACTORS
330
208
102
}
330
208
100
AcDbXrecord
280
     1
102
RTVSPropertyOp0
 70
     1
102
RTVSPropertyOp1
 70
     1
102
RTVSPropertyOp2
 70
     1
102
RTVSPropertyOp3
 70
     1
102
RTVSPropertyOp4
 70
     1
102
RTVSPropertyOp5
 70
     1
102
RTVSPropertyOp6
 70
     1
102
RTVSPropertyOp7
 70
     1
102
RTVSPropertyOp8
 70
     1
102
RTVSPropertyOp9
 70
     1
102
RTVSPropertyOp10
 70
     1
102
RTVSPropertyOp11
 70
     1
102
RTVSPropertyOp12
 70
     1
102
RTVSPropertyOp13
 70
     1
102
RTVSPropertyOp14
 70
     1
102
RTVSPropertyOp15
 70
     1
102
RTVSPropertyOp16
 70
     1
102
RTVSPropertyOp17
 70
     1
102
RTVSPropertyOp18
 70
     1
102
RTVSPropertyOp19
 70
     1
102
RTVSPropertyOp20
 70
     1
102
RTVSPropertyOp21
 70
     1
102
RTVSPropertyOp22
 70
     1
102
RTVSPropertyOp23
 70
     1
102
RTVSPropertyOp24
 70
     1
102
RTVSPropertyOp25
 70
     1
102
RTVSPropertyOp26
 70
     1
102
RTVSPropertyOp27
 70
     1
102
RTVSPropertyOp28
 70
     1
102
RTVSPropertyOp29
 70
     1
102
RTVSPropertyOp30
 70
     1
102
RTVSPropertyOp31
 70
     1
102
RTVSPropertyOp32
 70
     1
  0
XRECORD
  5
1FD
102
{ACAD_REACTORS
330
1FC
102
}
330
1FC
100
AcDbXrecord
280
     1
102
RTVSPropertyOp0
 70
     1
102
RTVSPropertyOp1
 70
     1
102
RTVSPropertyOp2
 70
     1
102
RTVSPropertyOp3
 70
     1
102
RTVSPropertyOp4
 70
     1
102
RTVSPropertyOp5
 70
     1
102
RTVSPropertyOp6
 70
     1
102
RTVSPropertyOp7
 70
     1
102
RTVSPropertyOp8
 70
     1
102
RTVSPropertyOp9
 70
     1
102
RTVSPropertyOp10
 70
     1
102
RTVSPropertyOp11
 70
     1
102
RTVSPropertyOp12
 70
     1
102
RTVSPropertyOp13
 70
     1
102
RTVSPropertyOp14
 70
     1
102
RTVSPropertyOp15
 70
     1
102
RTVSPropertyOp16
 70
     1
102
RTVSPropertyOp17
 70
     1
102
RTVSPropertyOp18
 70
     1
102
RTVSPropertyOp19
 70
     1
102
RTVSPropertyOp20
 70
     1
102
RTVSPropertyOp21
 70
     1
102
RTVSPropertyOp22
 70
     1
102
RTVSPropertyOp23
 70
     1
102
RTVSPropertyOp24
 70
     1
102
RTVSPropertyOp25
 70
     1
102
RTVSPropertyOp26
 70
     1
102
RTVSPropertyOp27
 70
     1
102
RTVSPropertyOp28
 70
     1
102
RTVSPropertyOp29
 70
     1
102
RTVSPropertyOp30
 70
     1
102
RTVSPropertyOp31
 70
     1
102
RTVSPropertyOp32
 70
     1
  0
XRECORD
  5
1FF
102
{ACAD_REACTORS
330
1FE
102
}
330
1FE
100
AcDbXrecord
280
     1
102
RTVSPropertyOp0
 70
     1
102
RTVSPropertyOp1
 70
     1
102
RTVSPropertyOp2
 70
     1
102
RTVSPropertyOp3
 70
     1
102
RTVSPropertyOp4
 70
     1
102
RTVSPropertyOp5
 70
     1
102
RTVSPropertyOp6
 70
     1
102
RTVSPropertyOp7
 70
     1
102
RTVSPropertyOp8
 70
     1
102
RTVSPropertyOp9
 70
     1
102
RTVSPropertyOp10
 70
     1
102
RTVSPropertyOp11
 70
     1
102
RTVSPropertyOp12
 70
     1
102
RTVSPropertyOp13
 70
     1
102
RTVSPropertyOp14
 70
     1
102
RTVSPropertyOp15
 70
     1
102
RTVSPropertyOp16
 70
     1
102
RTVSPropertyOp17
 70
     1
102
RTVSPropertyOp18
 70
     1
102
RTVSPropertyOp19
 70
     1
102
RTVSPropertyOp20
 70
     1
102
RTVSPropertyOp21
 70
     1
102
RTVSPropertyOp22
 70
     1
102
RTVSPropertyOp23
 70
     1
102
RTVSPropertyOp24
 70
     1
102
RTVSPropertyOp25
 70
     1
102
RTVSPropertyOp26
 70
     1
102
RTVSPropertyOp27
 70
     1
102
RTVSPropertyOp28
 70
     1
102
RTVSPropertyOp29
 70
     1
102
RTVSPropertyOp30
 70
     1
102
RTVSPropertyOp31
 70
     1
102
RTVSPropertyOp32
 70
     1
  0
XRECORD
  5
207
102
{ACAD_REACTORS
330
206
102
}
330
206
100
AcDbXrecord
280
     1
102
RTVSPropertyOp0
 70
     1
102
RTVSPropertyOp1
 70
     1
102
RTVSPropertyOp2
 70
     1
102
RTVSPropertyOp3
 70
     1
102
RTVSPropertyOp4
 70
     1
102
RTVSPropertyOp5
 70
     1
102
RTVSPropertyOp6
 70
     1
102
RTVSPropertyOp7
 70
     1
102
RTVSPropertyOp8
 70
     1
102
RTVSPropertyOp9
 70
     1
102
RTVSPropertyOp10
 70
     1
102
RTVSPropertyOp11
 70
     1
102
RTVSPropertyOp12
 70
     1
102
RTVSPropertyOp13
 70
     1
102
RTVSPropertyOp14
 70
     1
102
RTVSPropertyOp15
 70
     1
102
RTVSPropertyOp16
 70
     1
102
RTVSPropertyOp17
 70
     1
102
RTVSPropertyOp18
 70
     1
102
RTVSPropertyOp19
 70
     1
102
RTVSPropertyOp20
 70
     1
102
RTVSPropertyOp21
 70
     1
102
RTVSPropertyOp22
 70
     1
102
RTVSPropertyOp23
 70
     1
102
RTVSPropertyOp24
 70
     1
102
RTVSPropertyOp25
 70
     1
102
RTVSPropertyOp26
 70
     1
102
RTVSPropertyOp27
 70
     1
102
RTVSPropertyOp28
 70
     1
102
RTVSPropertyOp29
 70
     1
102
RTVSPropertyOp30
 70
     1
102
RTVSPropertyOp31
 70
     1
102
RTVSPropertyOp32
 70
     1
  0
XRECORD
  5
1EB
102
{ACAD_REACTORS
330
1EA
102
}
330
1EA
100
AcDbXrecord
280
     1
102
RTVSPropertyOp0
 70
     1
102
RTVSPropertyOp1
 70
     1
102
RTVSPropertyOp2
 70
     1
102
RTVSPropertyOp3
 70
     1
102
RTVSPropertyOp4
 70
     1
102
RTVSPropertyOp5
 70
     1
102
RTVSPropertyOp6
 70
     1
102
RTVSPropertyOp7
 70
     1
102
RTVSPropertyOp8
 70
     1
102
RTVSPropertyOp9
 70
     1
102
RTVSPropertyOp10
 70
     1
102
RTVSPropertyOp11
 70
     1
102
RTVSPropertyOp12
 70
     1
102
RTVSPropertyOp13
 70
     1
102
RTVSPropertyOp14
 70
     1
102
RTVSPropertyOp15
 70
     1
102
RTVSPropertyOp16
 70
     1
102
RTVSPropertyOp17
 70
     1
102
RTVSPropertyOp18
 70
     1
102
RTVSPropertyOp19
 70
     1
102
RTVSPropertyOp20
 70
     1
102
RTVSPropertyOp21
 70
     1
102
RTVSPropertyOp22
 70
     1
102
RTVSPropertyOp23
 70
     1
102
RTVSPropertyOp24
 70
     1
102
RTVSPropertyOp25
 70
     1
102
RTVSPropertyOp26
 70
     1
102
RTVSPropertyOp27
 70
     1
102
RTVSPropertyOp28
 70
     1
102
RTVSPropertyOp29
 70
     1
102
RTVSPropertyOp30
 70
     1
102
RTVSPropertyOp31
 70
     1
102
RTVSPropertyOp32
 70
     1
  0
XRECORD
  5
1ED
102
{ACAD_REACTORS
330
1EC
102
}
330
1EC
100
AcDbXrecord
280
     1
102
RTVSPropertyOp0
 70
     1
102
RTVSPropertyOp1
 70
     1
102
RTVSPropertyOp2
 70
     1
102
RTVSPropertyOp3
 70
     1
102
RTVSPropertyOp4
 70
     1
102
RTVSPropertyOp5
 70
     1
102
RTVSPropertyOp6
 70
     1
102
RTVSPropertyOp7
 70
     1
102
RTVSPropertyOp8
 70
     1
102
RTVSPropertyOp9
 70
     1
102
RTVSPropertyOp10
 70
     1
102
RTVSPropertyOp11
 70
     1
102
RTVSPropertyOp12
 70
     1
102
RTVSPropertyOp13
 70
     1
102
RTVSPropertyOp14
 70
     1
102
RTVSPropertyOp15
 70
     1
102
RTVSPropertyOp16
 70
     1
102
RTVSPropertyOp17
 70
     1
102
RTVSPropertyOp18
 70
     1
102
RTVSPropertyOp19
 70
     1
102
RTVSPropertyOp20
 70
     1
102
RTVSPropertyOp21
 70
     1
102
RTVSPropertyOp22
 70
     1
102
RTVSPropertyOp23
 70
     1
102
RTVSPropertyOp24
 70
     1
102
RTVSPropertyOp25
 70
     1
102
RTVSPropertyOp26
 70
     1
102
RTVSPropertyOp27
 70
     1
102
RTVSPropertyOp28
 70
     1
102
RTVSPropertyOp29
 70
     1
102
RTVSPropertyOp30
 70
     1
102
RTVSPropertyOp31
 70
     1
102
RTVSPropertyOp32
 70
     1
  0
XRECORD
  5
1EF
102
{ACAD_REACTORS
330
1EE
102
}
330
1EE
100
AcDbXrecord
280
     1
102
RTVSPropertyOp0
 70
     1
102
RTVSPropertyOp1
 70
     1
102
RTVSPropertyOp2
 70
     1
102
RTVSPropertyOp3
 70
     1
102
RTVSPropertyOp4
 70
     1
102
RTVSPropertyOp5
 70
     1
102
RTVSPropertyOp6
 70
     1
102
RTVSPropertyOp7
 70
     1
102
RTVSPropertyOp8
 70
     1
102
RTVSPropertyOp9
 70
     1
102
RTVSPropertyOp10
 70
     1
102
RTVSPropertyOp11
 70
     1
102
RTVSPropertyOp12
 70
     1
102
RTVSPropertyOp13
 70
     1
102
RTVSPropertyOp14
 70
     1
102
RTVSPropertyOp15
 70
     1
102
RTVSPropertyOp16
 70
     1
102
RTVSPropertyOp17
 70
     1
102
RTVSPropertyOp18
 70
     1
102
RTVSPropertyOp19
 70
     1
102
RTVSPropertyOp20
 70
     1
102
RTVSPropertyOp21
 70
     1
102
RTVSPropertyOp22
 70
     1
102
RTVSPropertyOp23
 70
     1
102
RTVSPropertyOp24
 70
     1
102
RTVSPropertyOp25
 70
     1
102
RTVSPropertyOp26
 70
     1
102
RTVSPropertyOp27
 70
     1
102
RTVSPropertyOp28
 70
     1
102
RTVSPropertyOp29
 70
     1
102
RTVSPropertyOp30
 70
     1
102
RTVSPropertyOp31
 70
     1
102
RTVSPropertyOp32
 70
     1
  0
XRECORD
  5
1F1
102
{ACAD_REACTORS
330
1F0
102
}
330
1F0
100
AcDbXrecord
280
     1
102
RTVSPropertyOp0
 70
     1
102
RTVSPropertyOp1
 70
     1
102
RTVSPropertyOp2
 70
     1
102
RTVSPropertyOp3
 70
     1
102
RTVSPropertyOp4
 70
     1
102
RTVSPropertyOp5
 70
     1
102
RTVSPropertyOp6
 70
     1
102
RTVSPropertyOp7
 70
     1
102
RTVSPropertyOp8
 70
     1
102
RTVSPropertyOp9
 70
     1
102
RTVSPropertyOp10
 70
     1
102
RTVSPropertyOp11
 70
     1
102
RTVSPropertyOp12
 70
     1
102
RTVSPropertyOp13
 70
     1
102
RTVSPropertyOp14
 70
     1
102
RTVSPropertyOp15
 70
     1
102
RTVSPropertyOp16
 70
     1
102
RTVSPropertyOp17
 70
     1
102
RTVSPropertyOp18
 70
     1
102
RTVSPropertyOp19
 70
     1
102
RTVSPropertyOp20
 70
     1
102
RTVSPropertyOp21
 70
     1
102
RTVSPropertyOp22
 70
     1
102
RTVSPropertyOp23
 70
     1
102
RTVSPropertyOp24
 70
     1
102
RTVSPropertyOp25
 70
     1
102
RTVSPropertyOp26
 70
     1
102
RTVSPropertyOp27
 70
     1
102
RTVSPropertyOp28
 70
     1
102
RTVSPropertyOp29
 70
     1
102
RTVSPropertyOp30
 70
     1
102
RTVSPropertyOp31
 70
     1
102
RTVSPropertyOp32
 70
     1
  0
XRECORD
  5
205
102
{ACAD_REACTORS
330
204
102
}
330
204
100
AcDbXrecord
280
     1
102
RTVSPropertyOp0
 70
     1
102
RTVSPropertyOp1
 70
     1
102
RTVSPropertyOp2
 70
     1
102
RTVSPropertyOp3
 70
     1
102
RTVSPropertyOp4
 70
     1
102
RTVSPropertyOp5
 70
     1
102
RTVSPropertyOp6
 70
     1
102
RTVSPropertyOp7
 70
     1
102
RTVSPropertyOp8
 70
     1
102
RTVSPropertyOp9
 70
     1
102
RTVSPropertyOp10
 70
     1
102
RTVSPropertyOp11
 70
     1
102
RTVSPropertyOp12
 70
     1
102
RTVSPropertyOp13
 70
     1
102
RTVSPropertyOp14
 70
     1
102
RTVSPropertyOp15
 70
     1
102
RTVSPropertyOp16
 70
     1
102
RTVSPropertyOp17
 70
     1
102
RTVSPropertyOp18
 70
     1
102
RTVSPropertyOp19
 70
     1
102
RTVSPropertyOp20
 70
     1
102
RTVSPropertyOp21
 70
     1
102
RTVSPropertyOp22
 70
     1
102
RTVSPropertyOp23
 70
     1
102
RTVSPropertyOp24
 70
     1
102
RTVSPropertyOp25
 70
     1
102
RTVSPropertyOp26
 70
     1
102
RTVSPropertyOp27
 70
     1
102
RTVSPropertyOp28
 70
     1
102
RTVSPropertyOp29
 70
     1
102
RTVSPropertyOp30
 70
     1
102
RTVSPropertyOp31
 70
     1
102
RTVSPropertyOp32
 70
     1
  0
XRECORD
  5
1FB
102
{ACAD_REACTORS
330
1FA
102
}
330
1FA
100
AcDbXrecord
280
     1
102
RTVSPropertyOp0
 70
     1
102
RTVSPropertyOp1
 70
     1
102
RTVSPropertyOp2
 70
     1
102
RTVSPropertyOp3
 70
     1
102
RTVSPropertyOp4
 70
     1
102
RTVSPropertyOp5
 70
     1
102
RTVSPropertyOp6
 70
     1
102
RTVSPropertyOp7
 70
     1
102
RTVSPropertyOp8
 70
     1
102
RTVSPropertyOp9
 70
     1
102
RTVSPropertyOp10
 70
     1
102
RTVSPropertyOp11
 70
     1
102
RTVSPropertyOp12
 70
     1
102
RTVSPropertyOp13
 70
     1
102
RTVSPropertyOp14
 70
     1
102
RTVSPropertyOp15
 70
     1
102
RTVSPropertyOp16
 70
     1
102
RTVSPropertyOp17
 70
     1
102
RTVSPropertyOp18
 70
     1
102
RTVSPropertyOp19
 70
     1
102
RTVSPropertyOp20
 70
     1
102
RTVSPropertyOp21
 70
     1
102
RTVSPropertyOp22
 70
     1
102
RTVSPropertyOp23
 70
     1
102
RTVSPropertyOp24
 70
     1
102
RTVSPropertyOp25
 70
     1
102
RTVSPropertyOp26
 70
     1
102
RTVSPropertyOp27
 70
     1
102
RTVSPropertyOp28
 70
     1
102
RTVSPropertyOp29
 70
     1
102
RTVSPropertyOp30
 70
     1
102
RTVSPropertyOp31
 70
     1
102
RTVSPropertyOp32
 70
     1
  0
XRECORD
  5
203
102
{ACAD_REACTORS
330
202
102
}
330
202
100
AcDbXrecord
280
     1
102
RTVSPropertyOp0
 70
     1
102
RTVSPropertyOp1
 70
     1
102
RTVSPropertyOp2
 70
     1
102
RTVSPropertyOp3
 70
     1
102
RTVSPropertyOp4
 70
     1
102
RTVSPropertyOp5
 70
     1
102
RTVSPropertyOp6
 70
     1
102
RTVSPropertyOp7
 70
     1
102
RTVSPropertyOp8
 70
     1
102
RTVSPropertyOp9
 70
     1
102
RTVSPropertyOp10
 70
     1
102
RTVSPropertyOp11
 70
     1
102
RTVSPropertyOp12
 70
     1
102
RTVSPropertyOp13
 70
     1
102
RTVSPropertyOp14
 70
     1
102
RTVSPropertyOp15
 70
     1
102
RTVSPropertyOp16
 70
     1
102
RTVSPropertyOp17
 70
     1
102
RTVSPropertyOp18
 70
     1
102
RTVSPropertyOp19
 70
     1
102
RTVSPropertyOp20
 70
     1
102
RTVSPropertyOp21
 70
     1
102
RTVSPropertyOp22
 70
     1
102
RTVSPropertyOp23
 70
     1
102
RTVSPropertyOp24
 70
     1
102
RTVSPropertyOp25
 70
     1
102
RTVSPropertyOp26
 70
     1
102
RTVSPropertyOp27
 70
     1
102
RTVSPropertyOp28
 70
     1
102
RTVSPropertyOp29
 70
     1
102
RTVSPropertyOp30
 70
     1
102
RTVSPropertyOp31
 70
     1
102
RTVSPropertyOp32
 70
     1
  0
ENDSEC
  0
EOF
