0
SECTION
  2
HEADER
  9
$LTSCALE
 40
     10
  9
$LIMMIN
 10
     0.0
 20
     0.0
  9
$LIMMAX
 10
      11.5
 20
       8.0
  9
$EXTMIN
 10
     0.0
 20
     0.0
  9
$EXTMAX
 10
      11.5
 20
       8.0
   9
$CLAYER
   8
1
   9
$CECOLOR
  62
     7
   9
$CELTYPE
   6
CONTINUOUS
  0
ENDSEC
  0
SECTION
  2
TABLES
  0
TABLE
  2
LTYPE
 70
    10
  0
LTYPE
  2
CONTINUOUS
 70
    64
  3
Solid line
 72
    65
 73
     0
 40
0.0
  0
LTYPE
  2
DASHED
 70
     0
  3
__ __ __ __ __ __ __ __ __ __ __ __ __ __ __
 72
    65
 73
     2
 40
0.75
 49
0.5
 49
-0.25
  0
LTYPE
  2
HIDDEN
 70
     0
  3
_ _ _ _ _ _ _ _ _ _ _ _ _ _ _ _ _ _ _ _ _ _
 72
    65
 73
     2
 40
0.375
 49
0.25
 49
-0.125
  0
LTYPE
  2
CENTER
 70
     0
  3
____ _ ____ _ ____ _ ____ _ ____ _ ____ _ __
 72
    65
 73
     4
 40
2.0
 49
1.25
 49
-0.25
 49
0.25
 49
-0.25
  0
LTYPE
  2
PHANTOM
 70
     0
  3
_____ _ _ _____ _ _ _____ _ _ _____ _ _ ____
 72
    65
 73
     6
 40
2.5
 49
1.25
 49
-0.25
 49
0.25
 49
-0.25
 49
0.25
 49
-0.25
  0
LTYPE
  2
DOT
 70
     0
  3
............................................
 72
    65
 73
     2
 40
0.25
 49
0.0
 49
-0.25
  0
LTYPE
  2
DASHDOT
 70
     0
  3
__ . __ . __ . __ . __ . __ . __ . __ . __ .
 72
    65
 73
     4
 40
1.0
 49
0.5
 49
-0.25
 49
0.0
 49
-0.25
  0
LTYPE
  2
BORDER
 70
     0
  3
__ __ . __ __ . __ __ . __ __ . __ __ . __ _
 72
    65
 73
     6
 40
1.75
 49
0.5
 49
-0.25
 49
0.5
 49
-0.25
 49
0.0
 49
-0.25
  0
LTYPE
  2
DIVIDE
 70
     0
  3
__ . . __ . . __ . . __ . . __ . . __ . . __
 72
    65
 73
     6
 40
1.25
 49
0.5
 49
-0.25
 49
0.0
 49
-0.25
 49
0.0
 49
-0.25
  0
LTYPE
  2
DIVIDE2
 70
     0
  3
close
 72
    65
 73
     2
 40
0.1
 49
0.05
 49
-0.05
  0
ENDTAB
0
TABLE
  2
LAYER
 70
   256
  0
LAYER
  2
1
 70
     0
  6
CONTINUOUS
 62
1
  0
ENDTAB
  0
TABLE
  2
STYLE
 70
     8
  0
STYLE
  2
TXT
 70
0
 40
0.0
 41
1.0
 50
0.0
 71
0
 42
1.0
  3
TXT
  4

  0
STYLE
  2
COMPLEX
 70
0
 40
0.0
 41
1.0
 50
0.0
 71
0
 42
1.0
  3
COMPLEX
  4

  0
STYLE
  2
ITALIC
 70
0
 40
0.0
 41
1.0
 50
0.0
 71
0
 42
1.0
  3
ITALIC
  4

  0
STYLE
  2
SIMPLEX
70
0
 40
0.0
 41
1.0
 50
0.0
 71
0
 42
1.0
  3
SIMPLEX
  4

  0
STYLE
  2
MONOTXT
 70
0
 40
0.0
 41
1.0
 50
0.0
 71
0
 42
1.0
  3
MONOTXT
  4

  0
STYLE
  2
SCRIPTC
 70
0
 40
0.0
 41
1.0
 50
0.0
 71
0
 42
1.0
  3
SCRIPTC
  4

  0
STYLE
  2
GOTHICE
 70
0
 40
0.0
 41
1.0
 50
0.0
 71
0
 42
1.0
  3
GOTHICE
  4

  0
ENDTAB
  0
TABLE
  2
VIEW
 70
     0
  0
ENDTAB
  0
ENDSEC
  0
SECTION
  2
ENTITIES
  0
LINE
  8
1
  6
CONTINUOUS
 62
     1
 10
 1.10824245900876E+0001
 20
 3.51449744894126E-0001
 11
 8.90078496305796E+0000
 21
 3.51449744894126E-0001
  0
LINE
  8
1
  6
CONTINUOUS
 62
     1
 10
 8.90078496305796E+0000
 20
 3.51449744894126E-0001
 11
 8.90078496305796E+0000
 21
 1.53831162810275E+0000
  0
LINE
  8
1
  6
CONTINUOUS
 62
     1
 10
 8.90078496305796E+0000
 20
 1.53831162810275E+0000
 11
 1.10824245900876E+0001
 21
 1.53831162810275E+0000
  0
LINE
  8
1
  6
CONTINUOUS
 62
     1
 10
 1.10824245900876E+0001
 20
 1.53831162810275E+0000
 11
 1.10824245900876E+0001
 21
 3.51449744894126E-0001
  0
LINE
  8
1
  6
CONTINUOUS
 62
     1
 10
 8.90010336294654E+0000
 20
 1.22492674883142E+0000
 11
 1.10833476808330E+0001
 21
 1.22492674883142E+0000
  0
LINE
  8
1
  6
CONTINUOUS
 62
     1
 10
 8.90774062665878E+0000
 20
 5.09257023086320E-0001
 11
 1.10909849445452E+0001
 21
 5.09257023086320E-0001
  0
TEXT
  8
1
 62
     1
 10
 8.94823287868348E+0000
 20
 1.33683165212824E+0000
 40
 1.18110236219991E-0001
  1
Benennung
  7
STANDARD
 11
 8.94823287868348E+0000
 21
 1.45494188834891E+0000
 50
 0.00000000000000E+0000
 41
 3.16937882393631E-0001
  0
LINE
  8
1
  6
CONTINUOUS
 62
     1
 10
 9.57264299190138E+0000
 20
 1.53687013449417E+0000
 11
 9.57264299190138E+0000
 21
 1.22492674883142E+0000
  0
LINE
  8
1
  6
CONTINUOUS
 62
     1
 10
 8.90010336294654E+0000
 20
 1.05889236613621E+0000
 11
 1.10833476808330E+0001
 21
 1.05889236613621E+0000
  0
LINE
  8
1
  6
CONTINUOUS
 62
     1
 10
 8.90010336294654E+0000
 20
 8.92857983440990E-0001
 11
 1.10833476808330E+0001
 21
 8.92857983440990E-0001
  0
TEXT
  8
1
 62
     1
 10
 8.95298969198484E+0000
 20
 1.07430056134581E+0000
 40
 1.18110236219991E-0001
  1
Werkstoff
  7
STANDARD
 11
 8.95298969198484E+0000
 21
 1.19241079756648E+0000
 50
 0.00000000000000E+0000
 41
 2.56976661400131E-0001
  0
LINE
  8
1
  6
CONTINUOUS
 62
     1
 10
 9.57264299190138E+0000
 20
 1.22492674883142E+0000
 11
 9.57264299190138E+0000
 21
 1.05889236613621E+0000
  0
LINE
  8
1
  6
CONTINUOUS
 62
     1
 10
 1.05011491960613E+0001
 20
 1.22492674883142E+0000
 11
 1.05011491960613E+0001
 21
 1.05889236613621E+0000
  0
TEXT
  8
1
 62
     1
 10
 1.05670323736267E+0001
 20
 1.07430056134581E+0000
 40
 1.18110236219991E-0001
  1
M 1:1
  7
STANDARD
 11
 1.05670323736267E+0001
 21
 1.19241079756648E+0000
 50
 0.00000000000000E+0000
 41
 2.62116194628561E-0001
  0
LINE
  8
1
  6
CONTINUOUS
 62
     1
 10
 8.90078496305796E+0000
 20
 1.53831162810275E+0000
 11
 1.10883666332957E+0001
 21
 1.53831162810275E+0000
  0
LINE
  8
1
  6
CONTINUOUS
 62
     1
 10
 8.90078496305796E+0000
 20
 1.53831162810275E+0000
 11
 1.10824245900876E+0001
 21
 1.53831162810275E+0000
  0
LINE
  8
1
  6
CONTINUOUS
 62
     1
 10
 1.10824245900876E+0001
 20
 1.53831162810275E+0000
 11
 1.10824245900876E+0001
 21
 3.51449744894126E-0001
  0
LINE
  8
1
  6
CONTINUOUS
 62
     1
 10
 1.10824245900876E+0001
 20
 3.51449744894126E-0001
 11
 8.90078496305796E+0000
 21
 3.51449744894126E-0001
  0
LINE
  8
1
  6
CONTINUOUS
 62
     1
 10
 8.90078496305796E+0000
 20
 3.51449744894126E-0001
 11
 8.90078496305796E+0000
 21
 1.53831162810275E+0000
  0
TEXT
  8
1
 62
     1
 10
 8.94643199958955E+0000
 20
 9.15212627564870E-0001
 40
 1.18110236219991E-0001
  1
Bearb.
  7
STANDARD
 11
 8.94643199958955E+0000
 21
 1.03332286378463E+0000
 50
 0.00000000000000E+0000
 41
 2.69825494470297E-0001
  0
LINE
  8
1
  6
CONTINUOUS
 62
     1
 10
 9.57372805119667E+0000
 20
 1.06001911084786E+0000
 11
 9.57372805119667E+0000
 21
 8.93909129134045E-0001
  0
LINE
  8
1
  6
CONTINUOUS
 62
     1
 10
 8.90204784499656E+0000
 20
 7.21866648085779E-0001
 11
 1.10827893074456E+0001
 21
 7.21866648085779E-0001
  0
LINE
  8
1
  6
CONTINUOUS
 62
     1
 10
 9.57372805119667E+0000
 20
 8.93909129134045E-0001
 11
 9.57372805119667E+0000
 21
 7.21866648085779E-0001
  0
TEXT
  8
1
 62
     1
 10
 8.94643199958955E+0000
 20
 7.40203896842104E-0001
 40
 1.18110236219991E-0001
  1
Datum
  7
STANDARD
 11
 8.94643199958955E+0000
 21
 8.58314133061867E-0001
 50
 0.00000000000000E+0000
 41
 3.23790593364265E-0001
  0
LINE
  8
1
  6
CONTINUOUS
 62
     1
 10
 1.04998774104170E+0001
 20
 5.05330421927283E-0001
 11
 1.04998774104170E+0001
 21
 3.54051688585969E-0001
  0
TEXT
  8
1
 62
     1
 10
 9.62994798035652E+0000
 20
 9.06313878548644E-0001
 40
 1.18110236219991E-0001
  1
D.Freind
  7
STANDARD
 11
 9.62994798035652E+0000
 21
 1.02442411476841E+0000
 50
 0.00000000000000E+0000
 41
 2.60188869667672E-0001
  0
TEXT
  8
1
 62
     1
 10
 1.05235489595507E+0001
 20
 3.69422687667793E-0001
 40
 1.18110236219991E-0001
  1
Blatt
  7
STANDARD
 11
 1.05235489595507E+0001
 21
 4.87532923887557E-0001
 50
 0.00000000000000E+0000
 41
 2.31278995260254E-0001
  0
TEXT
  8
1
 62
     1
 10
 9.04969655426976E+0000
 20
 5.31693096446361E-0001
 40
 1.18110236219991E-0001
  1
für Revolver 8-fach 
  7
STANDARD
 11
 9.04969655426976E+0000
 21
 6.49803332666124E-0001
 50
 0.00000000000000E+0000
 41
 2.35133645181349E-0001
  0
TEXT
  8
1
 62
     1
 10
 9.17994968355924E+0000
 20
 3.82868535619309E-0001
 40
 1.18110236219991E-0001
  1
www.cnc-projects.de.vu
  7
STANDARD
 11
 9.17994968355924E+0000
 21
 5.00978771839073E-0001
 50
 0.00000000000000E+0000
 41
 2.66321267269177E-0001
  0
TEXT
  8
1
 62
     1
 10
 9.63511565663794E+0000
 20
 1.08738187761446E+0000
 40
 1.18110236219991E-0001
  1
Aluminium
  7
STANDARD
 11
 9.63511565663794E+0000
 21
 1.20549211383513E+0000
 50
 0.00000000000000E+0000
 41
 2.99806104967047E-0001
  0
TEXT
  8
1
 62
     1
 10
 9.62784493365325E+0000
 20
 7.43870956724095E-0001
 40
 1.18110236219991E-0001
  1
28.12.2003
  7
STANDARD
 11
 9.62784493365325E+0000
 21
 8.61981192943858E-0001
 50
 0.00000000000000E+0000
 41
 2.77534794312487E-0001
  0
TEXT
  8
1
 62
     1
 10
 1.08078469247848E+0001
 20
 3.72097489890621E-0001
 40
 1.18110236219991E-0001
  1
1
  7
STANDARD
 11
 1.08078469247848E+0001
 21
 4.90207726110384E-0001
 50
 0.00000000000000E+0000
 41
 3.08371993680339E-0001
  0
TEXT
  8
1
 62
     1
 10
 9.85465051117353E+0000
 20
 1.29499493726689E+0000
 40
 1.96850393699833E-0001
  1
Abdeckring
  7
STANDARD
 11
 9.85465051117353E+0000
 21
 1.49184533096741E+0000
 50
 0.00000000000000E+0000
 41
 1.66520876587583E-0001
  0
LINE
  8
1
  6
DASHDOT
 62
     1
 10
 1.13170447263474E+0000
 20
 4.17525673411728E+0000
 11
 8.89685121107323E+0000
 21
 4.17525673411728E+0000
  0
LINE
  8
1
  6
DASHDOT
 62
     1
 10
 3.69580545943973E+0000
 20
 6.83331720152637E+0000
 11
 3.69580545943973E+0000
 21
 1.44417262750358E+0000
  0
CIRCLE
  8
1
  6
CONTINUOUS
 62
     1
 10
 3.69580545944336E+0000
 20
 4.17525673411728E+0000
 40
 2.17074458541174E+0000
  0
CIRCLE
  8
1
  6
CONTINUOUS
 62
     1
 10
 3.69580545944336E+0000
 20
 4.17525673411728E+0000
 40
 1.66083813917066E+0000
  0
CIRCLE
  8
1
  6
CONTINUOUS
 62
     1
 10
 3.69580545944336E+0000
 20
 4.17525673411728E+0000
 40
 1.70454440599133E+0000
  0
CIRCLE
  8
1
  6
CONTINUOUS
 62
     1
 10
 3.69580545944336E+0000
 20
 4.17525673411728E+0000
 40
 1.77738818402577E+0000
  0
LINE
  8
1
  6
CONTINUOUS
 62
     1
 10
 7.69429384126124E+0000
 20
 5.84734919470066E+0000
 11
 8.08575225505047E+0000
 21
 5.84734919470066E+0000
  0
LINE
  8
1
  6
CONTINUOUS
 62
     1
 10
 8.08575225503591E+0000
 20
 2.53455228935491E+0000
 11
 7.69007609011169E+0000
 21
 2.53455228935491E+0000
  0
LINE
  8
1
  6
CONTINUOUS
 62
     1
 10
 8.03302181711479E+0000
 20
 2.53454161126137E+0000
 11
 8.03302181711479E+0000
 21
 2.49414544787578E+0000
  0
LINE
  8
1
  6
CONTINUOUS
 62
     1
 10
 8.03302181711479E+0000
 20
 2.49414544787578E+0000
 11
 7.76885478806071E+0000
 21
 2.41784158370137E+0000
  0
LINE
  8
1
  6
CONTINUOUS
 62
     1
 10
 7.76885478806071E+0000
 20
 2.41784158370137E+0000
 11
 7.64796479172219E+0000
 21
 2.41784158370137E+0000
  0
LINE
  8
1
  6
CONTINUOUS
 62
     1
 10
 7.64796479172219E+0000
 20
 2.41784158370137E+0000
 11
 7.64796479172219E+0000
 21
 2.01836841242766E+0000
  0
LINE
  8
1
  6
CONTINUOUS
 62
     1
 10
 7.64796479172219E+0000
 20
 2.01836841242766E+0000
 11
 7.36588813357957E+0000
 21
 2.01836841242766E+0000
  0
LINE
  8
1
  6
CONTINUOUS
 62
     1
 10
 7.36588813359413E+0000
 20
 2.53454161126137E+0000
 11
 7.69273886443261E+0000
 21
 2.53454161126137E+0000
  0
LINE
  8
1
  6
CONTINUOUS
 62
     1
 10
 8.03447641151433E+0000
 20
 5.84664234746742E+0000
 11
 8.03447641151433E+0000
 21
 5.88703851085302E+0000
  0
LINE
  8
1
  6
CONTINUOUS
 62
     1
 10
 8.03447641151433E+0000
 20
 5.88703851085302E+0000
 11
 7.77030938246025E+0000
 21
 5.96334237502742E+0000
  0
LINE
  8
1
  6
CONTINUOUS
 62
     1
 10
 7.77030938246025E+0000
 20
 5.96334237502742E+0000
 11
 7.64941938610718E+0000
 21
 5.96334237502742E+0000
  0
LINE
  8
1
  6
CONTINUOUS
 62
     1
 10
 7.64941938610718E+0000
 20
 5.96334237502742E+0000
 11
 7.64941938612174E+0000
 21
 6.36281554630114E+0000
  0
LINE
  8
1
  6
CONTINUOUS
 62
     1
 10
 7.64941938612174E+0000
 20
 6.36281554630114E+0000
 11
 7.36734272797912E+0000
 21
 6.36281554630114E+0000
  0
LINE
  8
1
  6
CONTINUOUS
 62
     1
 10
 7.36734272797912E+0000
 20
 5.84664234746742E+0000
 11
 7.69419345883216E+0000
 21
 5.84664234746742E+0000
  0
LINE
  8
1
  6
CONTINUOUS
 62
     1
 10
 7.65325373793166E+0000
 20
 2.37202384552074E+0000
 11
 7.47544407848181E+0000
 21
 2.37202384552074E+0000
  0
LINE
  8
1
  6
CONTINUOUS
 62
     1
 10
 7.47544407848181E+0000
 20
 2.37202384552074E+0000
 11
 7.47544407848181E+0000
 21
 2.05117619335215E+0000
  0
LINE
  8
1
  6
CONTINUOUS
 62
     1
 10
 7.47544407848181E+0000
 20
 2.05117619335215E+0000
 11
 7.65325373793166E+0000
 21
 2.05117619333760E+0000
  0
LINE
  8
1
  6
CONTINUOUS
 62
     1
 10
 7.47544407848181E+0000
 20
 2.30072436725459E+0000
 11
 7.38653924875689E+0000
 21
 2.30072436725459E+0000
  0
LINE
  8
1
  6
CONTINUOUS
 62
     1
 10
 7.47544407848181E+0000
 20
 2.12247567160375E+0000
 11
 7.38653924875689E+0000
 21
 2.12247567160375E+0000
  0
LINE
  8
1
  6
CONTINUOUS
 62
     1
 10
 7.65325373796077E+0000
 20
 6.32126424219314E+0000
 11
 7.47544407849637E+0000
 21
 6.32126424219314E+0000
  0
LINE
  8
1
  6
CONTINUOUS
 62
     1
 10
 7.47544407849637E+0000
 20
 6.32126424219314E+0000
 11
 7.47544407849637E+0000
 21
 6.00041659002454E+0000
  0
LINE
  8
1
  6
CONTINUOUS
 62
     1
 10
 7.47544407849637E+0000
 20
 6.00041659002454E+0000
 11
 7.65325373794622E+0000
 21
 6.00041659002454E+0000
  0
LINE
  8
1
  6
CONTINUOUS
 62
     1
 10
 7.47544407849637E+0000
 20
 6.24996476394153E+0000
 11
 7.38653924877144E+0000
 21
 6.24996476394153E+0000
  0
LINE
  8
1
  6
CONTINUOUS
 62
     1
 10
 7.47544407849637E+0000
 20
 6.07171606827615E+0000
 11
 7.38653924877144E+0000
 21
 6.07171606827615E+0000
  0
LINE
  8
1
  6
CONTINUOUS
 62
     1
 10
 8.03302181711479E+0000
 20
 2.51920041256017E+0000
 11
 7.99779034643871E+0000
 21
 2.48396894188772E+0000
  0
LINE
  8
1
  6
CONTINUOUS
 62
     1
 10
 7.99825308644358E+0000
 20
 2.53454161126137E+0000
 11
 7.92732740509382E+0000
 21
 2.46361592991161E+0000
  0
LINE
  8
1
  6
CONTINUOUS
 62
     1
 10
 7.94814315706753E+0000
 20
 2.53454161126137E+0000
 11
 7.85686446374166E+0000
 21
 2.44326291793550E+0000
  0
LINE
  8
1
  6
CONTINUOUS
 62
     1
 10
 7.89803322769149E+0000
 20
 2.53454161126137E+0000
 11
 7.78640152238950E+0000
 21
 2.42290990595939E+0000
  0
LINE
  8
1
  6
CONTINUOUS
 62
     1
 10
 7.84792329832271E+0000
 20
 2.53454161126137E+0000
 11
 7.73122327076271E+0000
 21
 2.41784158370501E+0000
  0
LINE
  8
1
  6
CONTINUOUS
 62
     1
 10
 7.79781336894666E+0000
 20
 2.53454161126137E+0000
 11
 7.68111334139394E+0000
 21
 2.41784158370501E+0000
  0
LINE
  8
1
  6
CONTINUOUS
 62
     1
 10
 7.65139528028521E+0000
 20
 2.38812352259993E+0000
 11
 7.63599430856266E+0000
 21
 2.37272255088101E+0000
  0
LINE
  8
1
  6
CONTINUOUS
 62
     1
 10
 7.74770343957061E+0000
 20
 2.53454161126137E+0000
 11
 7.58566535045975E+0000
 21
 2.37250352215051E+0000
  0
LINE
  8
1
  6
CONTINUOUS
 62
     1
 10
 7.69759351019457E+0000
 20
 2.53454161126137E+0000
 11
 7.53533639235684E+0000
 21
 2.37228449342365E+0000
  0
LINE
  8
1
  6
CONTINUOUS
 62
     1
 10
 7.47544407848181E+0000
 20
 2.31239217954499E+0000
 11
 7.46269701031997E+0000
 21
 2.29964511137950E+0000
  0
LINE
  8
1
  6
CONTINUOUS
 62
     1
 10
 7.64748358082579E+0000
 20
 2.53454161126137E+0000
 11
 7.48500743425393E+0000
 21
 2.37206546469315E+0000
  0
LINE
  8
1
  6
CONTINUOUS
 62
     1
 10
 7.47544407848181E+0000
 20
 2.36250210892103E+0000
 11
 7.40795198446722E+0000
 21
 2.29501001490644E+0000
  0
LINE
  8
1
  6
CONTINUOUS
 62
     1
 10
 7.59737365144974E+0000
 20
 2.53454161126137E+0000
 11
 7.36906914039719E+0000
 21
 2.30623710020518E+0000
  0
LINE
  8
1
  6
CONTINUOUS
 62
     1
 10
 7.54726372207369E+0000
 20
 2.53454161126137E+0000
 11
 7.36838054429245E+0000
 21
 2.35565843347649E+0000
  0
LINE
  8
1
  6
CONTINUOUS
 62
     1
 10
 7.49715379270492E+0000
 20
 2.53454161126137E+0000
 11
 7.36769194818044E+0000
 21
 2.40507976674417E+0000
  0
LINE
  8
1
  6
CONTINUOUS
 62
     1
 10
 7.44704386332887E+0000
 20
 2.53454161126137E+0000
 11
 7.36700335207570E+0000
 21
 2.45450110001184E+0000
  0
LINE
  8
1
  6
CONTINUOUS
 62
     1
 10
 7.39693393395282E+0000
 20
 2.53454161126137E+0000
 11
 7.36631475597096E+0000
 21
 2.50392243327951E+0000
  0
LINE
  8
1
  6
CONTINUOUS
 62
     1
 10
 7.64744085857092E+0000
 20
 2.04289944396078E+0000
 11
 7.62290982703416E+0000
 21
 2.01836841242766E+0000
  0
LINE
  8
1
  6
CONTINUOUS
 62
     1
 10
 7.60584100962296E+0000
 20
 2.05140952438887E+0000
 11
 7.57279989766539E+0000
 21
 2.01836841242766E+0000
  0
LINE
  8
1
  6
CONTINUOUS
 62
     1
 10
 7.55564125328237E+0000
 20
 2.05131969742069E+0000
 11
 7.52268996828934E+0000
 21
 2.01836841242766E+0000
  0
LINE
  8
1
  6
CONTINUOUS
 62
     1
 10
 7.50544149694178E+0000
 20
 2.05122987045252E+0000
 11
 7.47258003891329E+0000
 21
 2.01836841242766E+0000
  0
LINE
  8
1
  6
CONTINUOUS
 62
     1
 10
 7.47544407848181E+0000
 20
 2.07134238137223E+0000
 11
 7.42247010953724E+0000
 21
 2.01836841242766E+0000
  0
LINE
  8
1
  6
CONTINUOUS
 62
     1
 10
 7.47544407848181E+0000
 20
 2.12145231074828E+0000
 11
 7.37236018016847E+0000
 21
 2.01836841242766E+0000
  0
LINE
  8
1
  6
CONTINUOUS
 62
     1
 10
 7.42641693623591E+0000
 20
 2.12253509787115E+0000
 11
 7.37668627138191E+0000
 21
 2.07280443301715E+0000
  0
LINE
  8
1
  6
CONTINUOUS
 62
     1
 10
 7.37955091117328E+0000
 20
 2.12577900218093E+0000
 11
 7.37636767204822E+0000
 21
 2.12259576305587E+0000
  0
LINE
  8
1
  6
CONTINUOUS
 62
     1
 10
 8.03447641151433E+0000
 20
 5.87169731216272E+0000
 11
 8.00942144682631E+0000
 21
 5.84664234747470E+0000
  0
LINE
  8
1
  6
CONTINUOUS
 62
     1
 10
 8.00749979628017E+0000
 20
 5.89483062629733E+0000
 11
 7.95931151745754E+0000
 21
 5.84664234747470E+0000
  0
LINE
  8
1
  6
CONTINUOUS
 62
     1
 10
 7.96862014038925E+0000
 20
 5.90606089978246E+0000
 11
 7.90920158808876E+0000
 21
 5.84664234747470E+0000
  0
LINE
  8
1
  6
CONTINUOUS
 62
     1
 10
 7.92974048450560E+0000
 20
 5.91729117326031E+0000
 11
 7.85909165871271E+0000
 21
 5.84664234747470E+0000
  0
LINE
  8
1
  6
CONTINUOUS
 62
     1
 10
 7.89086082861468E+0000
 20
 5.92852144674544E+0000
 11
 7.80898172933667E+0000
 21
 5.84664234747470E+0000
  0
LINE
  8
1
  6
CONTINUOUS
 62
     1
 10
 7.85198117272375E+0000
 20
 5.93975172023056E+0000
 11
 7.75887179996062E+0000
 21
 5.84664234747470E+0000
  0
LINE
  8
1
  6
CONTINUOUS
 62
     1
 10
 7.81310151683283E+0000
 20
 5.95098199371569E+0000
 11
 7.70876187059184E+0000
 21
 5.84664234747470E+0000
  0
LINE
  8
1
  6
CONTINUOUS
 62
     1
 10
 7.77422186094191E+0000
 20
 5.96221226720081E+0000
 11
 7.65865194121579E+0000
 21
 5.84664234747470E+0000
  0
LINE
  8
1
  6
CONTINUOUS
 62
     1
 10
 7.72524203939975E+0000
 20
 5.96334237502742E+0000
 11
 7.60854201183975E+0000
 21
 5.84664234747470E+0000
  0
LINE
  8
1
  6
CONTINUOUS
 62
     1
 10
 7.67513211002370E+0000
 20
 5.96334237502742E+0000
 11
 7.55843208246370E+0000
 21
 5.84664234747470E+0000
  0
LINE
  8
1
  6
CONTINUOUS
 62
     1
 10
 7.65223370183230E+0000
 20
 5.99055389621208E+0000
 11
 7.50832215309492E+0000
 21
 5.84664234747470E+0000
  0
LINE
  8
1
  6
CONTINUOUS
 62
     1
 10
 7.61198646627599E+0000
 20
 6.00041659003182E+0000
 11
 7.45821222371887E+0000
 21
 5.84664234747470E+0000
  0
LINE
  8
1
  6
CONTINUOUS
 62
     1
 10
 7.56187653689994E+0000
 20
 6.00041659003182E+0000
 11
 7.40810229434283E+0000
 21
 5.84664234747470E+0000
  0
LINE
  8
1
  6
CONTINUOUS
 62
     1
 10
 7.51176660753117E+0000
 20
 6.00041659003182E+0000
 11
 7.36722225647827E+0000
 21
 5.85587223897892E+0000
  0
LINE
  8
1
  6
CONTINUOUS
 62
     1
 10
 7.47544407850364E+0000
 20
 6.01420399038034E+0000
 11
 7.36657663252117E+0000
 21
 5.90533654439787E+0000
  0
LINE
  8
1
  6
CONTINUOUS
 62
     1
 10
 7.47544407850364E+0000
 20
 6.06431391975639E+0000
 11
 7.36593100856408E+0000
 21
 5.95480084981682E+0000
  0
LINE
  8
1
  6
CONTINUOUS
 62
     1
 10
 7.43255622535798E+0000
 20
 6.07153599598678E+0000
 11
 7.36528538460698E+0000
 21
 6.00426515523577E+0000
  0
LINE
  8
1
  6
CONTINUOUS
 62
     1
 10
 7.38223501339962E+0000
 20
 6.07132471340447E+0000
 11
 7.36463976064988E+0000
 21
 6.05372946064745E+0000
  0
LINE
  8
1
  6
CONTINUOUS
 62
     1
 10
 7.65113699980429E+0000
 20
 6.34420246872469E+0000
 11
 7.62819877327274E+0000
 21
 6.32126424219314E+0000
  0
LINE
  8
1
  6
CONTINUOUS
 62
     1
 10
 7.61964014800469E+0000
 20
 6.36281554630114E+0000
 11
 7.57808884390397E+0000
 21
 6.32126424219314E+0000
  0
LINE
  8
1
  6
CONTINUOUS
 62
     1
 10
 7.56953021863592E+0000
 20
 6.36281554630114E+0000
 11
 7.52797891452792E+0000
 21
 6.32126424219314E+0000
  0
LINE
  8
1
  6
CONTINUOUS
 62
     1
 10
 7.47544407849637E+0000
 20
 6.26872940616886E+0000
 11
 7.45667944844172E+0000
 21
 6.24996477610694E+0000
  0
LINE
  8
1
  6
CONTINUOUS
 62
     1
 10
 7.51942028925987E+0000
 20
 6.36281554630114E+0000
 11
 7.47786898514460E+0000
 21
 6.32126424218586E+0000
  0
LINE
  8
1
  6
CONTINUOUS
 62
     1
 10
 7.47544407849637E+0000
 20
 6.31883933554491E+0000
 11
 7.40656955156010E+0000
 21
 6.24996480860136E+0000
  0
LINE
  8
1
  6
CONTINUOUS
 62
     1
 10
 7.46931035988382E+0000
 20
 6.36281554630114E+0000
 11
 7.36462315099925E+0000
 21
 6.25812833742384E+0000
  0
LINE
  8
1
  6
CONTINUOUS
 62
     1
 10
 7.41920043050777E+0000
 20
 6.36281554630114E+0000
 11
 7.36595963207947E+0000
 21
 6.30957474788011E+0000
  0
LINE
  8
1
  6
CONTINUOUS
 62
     1
 10
 7.36909050113172E+0000
 20
 6.36281554630114E+0000
 11
 7.36729611315241E+0000
 21
 6.36102115832909E+0000
  0
LINE
  8
1
  6
CONTINUOUS
 62
     1
 10
 7.38653924875689E+0000
 20
 2.30072436725459E+0000
 11
 7.36474676308717E+0000
 21
 2.30072436725459E+0000
  0
LINE
  8
1
  6
CONTINUOUS
 62
     1
 10
 7.38653924875689E+0000
 20
 2.12247567160375E+0000
 11
 7.36474676308717E+0000
 21
 2.12247567160375E+0000
  0
LINE
  8
1
  6
CONTINUOUS
 62
     1
 10
 7.38653924877144E+0000
 20
 6.24996476394153E+0000
 11
 7.36474676308717E+0000
 21
 6.24996476394153E+0000
  0
LINE
  8
1
  6
CONTINUOUS
 62
     1
 10
 7.38653924877144E+0000
 20
 6.07171606827615E+0000
 11
 7.36474676308717E+0000
 21
 6.07171606827615E+0000
  0
LINE
  8
1
  6
CONTINUOUS
 62
     1
 10
 7.36734272797912E+0000
 20
 6.36281554630114E+0000
 11
 7.36588813357957E+0000
 21
 2.01836841242766E+0000
  0
LINE
  8
1
  6
CONTINUOUS
 62
     1
 10
 8.03447641151433E+0000
 20
 5.84664234746742E+0000
 11
 8.03447641151433E+0000
 21
 2.53623046003486E+0000
  0
CIRCLE
  8
1
  6
DASHDOT
 62
     1
 10
 3.69580545944336E+0000
 20
 4.17525673411728E+0000
 40
 1.96678200690803E+0000
  0
CIRCLE
  8
1
  6
CONTINUOUS
 62
     1
 10
 5.39395236525888E+0000
 20
 5.15391513481882E+0000
 40
 1.08274165875628E-0001
  0
CIRCLE
  8
1
  6
CONTINUOUS
 62
     1
 10
 5.39395236525888E+0000
 20
 5.15391513481882E+0000
 40
 1.58246857819904E-0001
  0
CIRCLE
  8
1
  6
CONTINUOUS
 62
     1
 10
 3.69891222048318E+0000
 20
 6.13254701869300E+0000
 40
 1.08274165875628E-0001
  0
CIRCLE
  8
1
  6
CONTINUOUS
 62
     1
 10
 3.69891222048318E+0000
 20
 6.13254701869300E+0000
 40
 1.58246857819904E-0001
  0
CIRCLE
  8
1
  6
CONTINUOUS
 62
     1
 10
 2.00387207570748E+0000
 20
 5.15391513481882E+0000
 40
 1.08274165875628E-0001
  0
CIRCLE
  8
1
  6
CONTINUOUS
 62
     1
 10
 2.00387207570748E+0000
 20
 5.15391513481882E+0000
 40
 1.58246857819904E-0001
  0
CIRCLE
  8
1
  6
CONTINUOUS
 62
     1
 10
 2.00387207571112E+0000
 20
 3.19665136707044E+0000
 40
 1.08274165875628E-0001
  0
CIRCLE
  8
1
  6
CONTINUOUS
 62
     1
 10
 2.00387207571112E+0000
 20
 3.19665136707044E+0000
 40
 1.58246857819904E-0001
  0
CIRCLE
  8
1
  6
CONTINUOUS
 62
     1
 10
 3.69891222049046E+0000
 20
 2.21801948319990E+0000
 40
 1.08274165875628E-0001
  0
CIRCLE
  8
1
  6
CONTINUOUS
 62
     1
 10
 3.69891222049046E+0000
 20
 2.21801948319990E+0000
 40
 1.58246857819904E-0001
  0
CIRCLE
  8
1
  6
CONTINUOUS
 62
     1
 10
 5.39395236526616E+0000
 20
 3.19665136707772E+0000
 40
 1.08274165875628E-0001
  0
CIRCLE
  8
1
  6
CONTINUOUS
 62
     1
 10
 5.39395236526616E+0000
 20
 3.19665136707772E+0000
 40
 1.58246857819904E-0001
  0
LINE
  8
1
  6
DASHDOT
 62
     1
 10
 7.30038126081490E+0000
 20
 6.16201761492266E+0000
 11
 7.78405922627280E+0000
 21
 6.16201761492266E+0000
  0
LINE
  8
1
  6
DASHDOT
 62
     1
 10
 7.28341010412987E+0000
 20
 2.20648098516540E+0000
 11
 7.78405922627280E+0000
 21
 2.20648098516540E+0000
  0
LINE
  8
1
  6
CONTINUOUS
 62
     1
 10
 7.47544407849637E+0000
 20
 6.32126424219314E+0000
 11
 7.47544407849637E+0000
 21
 6.70681430940749E+0000
  0
LINE
  8
1
  6
CONTINUOUS
 62
     1
 10
 7.47544407849637E+0000
 20
 6.70681430940749E+0000
 11
 7.65315032554645E+0000
 21
 6.70681430940749E+0000
  0
LINE
  8
1
  6
CONTINUOUS
 62
     1
 10
 7.65315032554645E+0000
 20
 6.70681430940749E+0000
 11
 7.65315032554645E+0000
 21
 6.36655309394700E+0000
  0
LINE
  8
1
  6
CONTINUOUS
 62
     1
 10
 8.08575225505047E+0000
 20
 5.84734919470066E+0000
 11
 8.41685237626371E+0000
 21
 5.84734919470066E+0000
  0
LINE
  8
1
  6
CONTINUOUS
 62
     1
 10
 8.41685237626371E+0000
 20
 5.84734919470066E+0000
 11
 8.41685237626371E+0000
 21
 2.53134582328494E+0000
  0
LINE
  8
1
  6
CONTINUOUS
 62
     1
 10
 8.41685237626371E+0000
 20
 2.53134582328494E+0000
 11
 8.07742924262129E+0000
 21
 2.53134582328494E+0000
  0
LINE
  8
1
  6
CONTINUOUS
 62
     1
 10
 8.03447641151433E+0000
 20
 5.88703851085302E+0000
 11
 8.70536203986558E+0000
 21
 5.88703851085302E+0000
  0
LINE
  8
1
  6
CONTINUOUS
 62
     1
 10
 8.70536203986558E+0000
 20
 5.88703851085302E+0000
 11
 8.70536203986558E+0000
 21
 2.49731970173889E+0000
  0
LINE
  8
1
  6
CONTINUOUS
 62
     1
 10
 8.70536203986558E+0000
 20
 2.49731970173889E+0000
 11
 8.03500135091599E+0000
 21
 2.49731970173889E+0000
  0
LINE
  8
1
  6
CONTINUOUS
 62
     1
 10
 7.77030938246025E+0000
 20
 5.96334237502742E+0000
 11
 9.03629959518730E+0000
 21
 5.96334237502742E+0000
  0
LINE
  8
1
  6
CONTINUOUS
 62
     1
 10
 9.03629959518730E+0000
 20
 5.96334237502742E+0000
 11
 9.03629959518730E+0000
 21
 2.42076092826028E+0000
  0
LINE
  8
1
  6
CONTINUOUS
 62
     1
 10
 9.03629959518730E+0000
 20
 2.42076092826028E+0000
 11
 7.77194842232711E+0000
 21
 2.42076092826028E+0000
  0
LINE
  8
1
  6
CONTINUOUS
 62
     1
 10
 7.36588813357957E+0000
 20
 2.01836841242766E+0000
 11
 7.36588813357957E+0000
 21
 1.12374786748842E+0000
  0
LINE
  8
1
  6
CONTINUOUS
 62
     1
 10
 7.36588813357957E+0000
 20
 1.12374786748842E+0000
 11
 7.64466474719666E+0000
 21
 1.12374786748842E+0000
  0
LINE
  8
1
  6
CONTINUOUS
 62
     1
 10
 7.64466474719666E+0000
 20
 1.12374786748842E+0000
 11
 8.03500135091599E+0000
 21
 1.12374786748842E+0000
  0
LINE
  8
1
  6
CONTINUOUS
 62
     1
 10
 8.03500135091599E+0000
 20
 1.12374786748842E+0000
 11
 8.03500135091599E+0000
 21
 2.50180579011067E+0000
  0
LINE
  8
1
  6
CONTINUOUS
 62
     1
 10
 7.36464066193730E+0000
 20
 1.73621805532093E+0000
 11
 7.64466474719666E+0000
 21
 1.73621805532093E+0000
  0
LINE
  8
1
  6
CONTINUOUS
 62
     1
 10
 7.64466474719666E+0000
 20
 1.73621805532093E+0000
 11
 7.64466474719666E+0000
 21
 2.02544008846235E+0000
  0
LINE
  8
1
  6
CONTINUOUS
 62
     1
 10
 7.36464066193730E+0000
 20
 1.42998296140286E+0000
 11
 7.79740515734738E+0000
 21
 1.42998296140286E+0000
  0
LINE
  8
1
  6
CONTINUOUS
 62
     1
 10
 7.79740515734738E+0000
 20
 1.42998296140286E+0000
 11
 7.79740515734738E+0000
 21
 2.41674048624554E+0000
  0
LINE
  8
1
  6
CONTINUOUS
 62
     1
 10
 3.69580545943609E+0000
 20
 6.14689499291126E+0000
 11
 1.04429193899341E+0000
 21
 6.14689499291126E+0000
  0
LINE
  8
1
  6
CONTINUOUS
 62
     1
 10
 1.04429193899341E+0000
 20
 6.14689499291126E+0000
 11
 1.04429193899341E+0000
 21
 2.21822320317006E+0000
  0
LINE
  8
1
  6
CONTINUOUS
 62
     1
 10
 1.04429193899341E+0000
 20
 2.21822320317006E+0000
 11
 3.69580545943609E+0000
 21
 2.21822320317006E+0000
  0
LINE
  8
1
  6
CONTINUOUS
 62
     1
 10
 3.54211008505445E+0000
 20
 2.22107645278084E+0000
 11
 3.54211008505445E+0000
 21
 1.37043582829392E+0000
  0
LINE
  8
1
  6
CONTINUOUS
 62
     1
 10
 3.54211008505445E+0000
 20
 1.37043582829392E+0000
 11
 3.85504883276735E+0000
 21
 1.37043582829392E+0000
  0
LINE
  8
1
  6
CONTINUOUS
 62
     1
 10
 3.85504883276735E+0000
 20
 1.37043582829392E+0000
 11
 3.85504883276735E+0000
 21
 2.22107645278084E+0000
  0
LINE
  8
1
  6
CONTINUOUS
 62
     1
 10
 5.28734540884034E+0000
 20
 3.19840823410414E+0000
 11
 5.28734540884034E+0000
 21
 2.24520810170361E+0000
  0
LINE
  8
1
  6
CONTINUOUS
 62
     1
 10
 5.28734540884034E+0000
 20
 2.24520810170361E+0000
 11
 5.50399531111179E+0000
 21
 2.24520810170361E+0000
  0
LINE
  8
1
  6
CONTINUOUS
 62
     1
 10
 5.50399531111179E+0000
 20
 2.24520810170361E+0000
 11
 5.50399531111179E+0000
 21
 3.20444114633210E+0000
  0
LINE
  8
1
  6
CONTINUOUS
 62
     1
 10
 7.36734272797912E+0000
 20
 6.36281554630114E+0000
 11
 6.76893791494513E+0000
 21
 6.36281554630114E+0000
  0
LINE
  8
1
  6
CONTINUOUS
 62
     1
 10
 6.76893791494513E+0000
 20
 6.36281554630114E+0000
 11
 6.76893791494513E+0000
 21
 2.02166933257831E+0000
  0
LINE
  8
1
  6
CONTINUOUS
 62
     1
 10
 6.76893791494513E+0000
 20
 2.02166933257831E+0000
 11
 7.36970210125583E+0000
 21
 2.02166933257831E+0000
  0
LINE
  8
1
  6
CONTINUOUS
 62
     1
 10
 9.03124962723814E+0000
 20
 5.94945918829762E+0000
 11
 9.03124962723814E+0000
 21
 5.94945918829762E+0000
  0
LINE
  8
1
  6
CONTINUOUS
 62
     1
 10
 9.03124962723814E+0000
 20
 5.94945918829762E+0000
 11
 9.00406810587447E+0000
 21
 5.79016986166971E+0000
  0
LINE
  8
1
  6
CONTINUOUS
 62
     1
 10
 9.00406810587447E+0000
 20
 5.79016986166971E+0000
 11
 9.06447174334608E+0000
 21
 5.79016986166971E+0000
  0
LINE
  8
1
  6
CONTINUOUS
 62
     1
 10
 9.06447174334608E+0000
 20
 5.79016986166971E+0000
 11
 9.03124962723814E+0000
 21
 5.94945918829762E+0000
  0
LINE
  8
1
  6
CONTINUOUS
 62
     1
 10
 9.00406810587447E+0000
 20
 5.79016986166971E+0000
 11
 9.06447174334608E+0000
 21
 5.79016986166971E+0000
  0
LINE
  8
1
  6
CONTINUOUS
 62
     1
 10
 9.01439520798158E+0000
 20
 5.79016986166971E+0000
 11
 9.00557346903952E+0000
 21
 5.79899160060450E+0000
  0
LINE
  8
1
  6
CONTINUOUS
 62
     1
 10
 9.03504941216670E+0000
 20
 5.79016986166971E+0000
 11
 9.00858419536962E+0000
 21
 5.81663507845224E+0000
  0
LINE
  8
1
  6
CONTINUOUS
 62
     1
 10
 9.05570361635182E+0000
 20
 5.79016986166971E+0000
 11
 9.01159492171428E+0000
 21
 5.83427855630725E+0000
  0
LINE
  8
1
  6
CONTINUOUS
 62
     1
 10
 9.06133944085741E+0000
 20
 5.80518824134197E+0000
 11
 9.01460564804438E+0000
 21
 5.85192203416227E+0000
  0
LINE
  8
1
  6
CONTINUOUS
 62
     1
 10
 9.05589650002366E+0000
 20
 5.83128538636811E+0000
 11
 9.01761637437448E+0000
 21
 5.86956551201001E+0000
  0
LINE
  8
1
  6
CONTINUOUS
 62
     1
 10
 9.05045355917537E+0000
 20
 5.85738253140153E+0000
 11
 9.02062710070459E+0000
 21
 5.88720898986503E+0000
  0
LINE
  8
1
  6
CONTINUOUS
 62
     1
 10
 9.04501061832707E+0000
 20
 5.88347967642767E+0000
 11
 9.02363782704924E+0000
 21
 5.90485246771277E+0000
  0
LINE
  8
1
  6
CONTINUOUS
 62
     1
 10
 9.03956767747877E+0000
 20
 5.90957682146109E+0000
 11
 9.02664855337935E+0000
 21
 5.92249594556779E+0000
  0
LINE
  8
1
  6
CONTINUOUS
 62
     1
 10
 9.03412473664503E+0000
 20
 5.93567396648723E+0000
 11
 9.02965927970945E+0000
 21
 5.94013942342281E+0000
  0
LINE
  8
1
  6
CONTINUOUS
 62
     1
 10
 9.06268957299471E+0000
 20
 5.79871479341091E+0000
 11
 9.05414464125352E+0000
 21
 5.79016986166971E+0000
  0
LINE
  8
1
  6
CONTINUOUS
 62
     1
 10
 9.05912523229199E+0000
 20
 5.81580465690058E+0000
 11
 9.03349043706839E+0000
 21
 5.79016986166971E+0000
  0
LINE
  8
1
  6
CONTINUOUS
 62
     1
 10
 9.05556089160382E+0000
 20
 5.83289452039025E+0000
 11
 9.01283623288327E+0000
 21
 5.79016986166971E+0000
  0
LINE
  8
1
  6
CONTINUOUS
 62
     1
 10
 9.05199655090109E+0000
 20
 5.84998438388720E+0000
 11
 9.00651369687694E+0000
 21
 5.80450152984849E+0000
  0
LINE
  8
1
  6
CONTINUOUS
 62
     1
 10
 9.04843221019837E+0000
 20
 5.86707424736232E+0000
 11
 9.01076335260586E+0000
 21
 5.82940538976982E+0000
  0
LINE
  8
1
  6
CONTINUOUS
 62
     1
 10
 9.04486786951020E+0000
 20
 5.88416411085927E+0000
 11
 9.01501300834934E+0000
 21
 5.85430924969114E+0000
  0
LINE
  8
1
  6
CONTINUOUS
 62
     1
 10
 9.04130352882203E+0000
 20
 5.90125397434895E+0000
 11
 9.01926266407827E+0000
 21
 5.87921310961246E+0000
  0
LINE
  8
1
  6
CONTINUOUS
 62
     1
 10
 9.03773918811930E+0000
 20
 5.91834383783862E+0000
 11
 9.02351231982175E+0000
 21
 5.90411696953379E+0000
  0
LINE
  8
1
  6
CONTINUOUS
 62
     1
 10
 9.03417484743113E+0000
 20
 5.93543370133557E+0000
 11
 9.02776197553612E+0000
 21
 5.92902082944784E+0000
  0
LINE
  8
1
  6
CONTINUOUS
 62
     1
 10
 8.70541142449656E+0000
 20
 5.87800608859106E+0000
 11
 8.70541142449656E+0000
 21
 5.87800608859106E+0000
  0
LINE
  8
1
  6
CONTINUOUS
 62
     1
 10
 8.70541142449656E+0000
 20
 5.87800608859106E+0000
 11
 8.67822990313289E+0000
 21
 5.71871676196315E+0000
  0
LINE
  8
1
  6
CONTINUOUS
 62
     1
 10
 8.67822990313289E+0000
 20
 5.71871676196315E+0000
 11
 8.73863354060450E+0000
 21
 5.71871676196315E+0000
  0
LINE
  8
1
  6
CONTINUOUS
 62
     1
 10
 8.73863354060450E+0000
 20
 5.71871676196315E+0000
 11
 8.70541142449656E+0000
 21
 5.87800608859106E+0000
  0
LINE
  8
1
  6
CONTINUOUS
 62
     1
 10
 8.67822990313289E+0000
 20
 5.71871676196315E+0000
 11
 8.73863354060450E+0000
 21
 5.71871676196315E+0000
  0
LINE
  8
1
  6
CONTINUOUS
 62
     1
 10
 8.68855700524000E+0000
 20
 5.71871676197043E+0000
 11
 8.67973526631249E+0000
 21
 5.72753850090521E+0000
  0
LINE
  8
1
  6
CONTINUOUS
 62
     1
 10
 8.70921120942512E+0000
 20
 5.71871676197043E+0000
 11
 8.68274599264259E+0000
 21
 5.74518197876023E+0000
  0
LINE
  8
1
  6
CONTINUOUS
 62
     1
 10
 8.72986541361024E+0000
 20
 5.71871676197043E+0000
 11
 8.68575671897270E+0000
 21
 5.76282545660797E+0000
  0
LINE
  8
1
  6
CONTINUOUS
 62
     1
 10
 8.73550123813038E+0000
 20
 5.73373514164268E+0000
 11
 8.68876744530280E+0000
 21
 5.78046893446299E+0000
  0
LINE
  8
1
  6
CONTINUOUS
 62
     1
 10
 8.73005829728208E+0000
 20
 5.75983228667610E+0000
 11
 8.69177817163290E+0000
 21
 5.79811241231801E+0000
  0
LINE
  8
1
  6
CONTINUOUS
 62
     1
 10
 8.72461535643379E+0000
 20
 5.78592943170952E+0000
 11
 8.69478889797756E+0000
 21
 5.81575589016575E+0000
  0
LINE
  8
1
  6
CONTINUOUS
 62
     1
 10
 8.71917241558549E+0000
 20
 5.81202657674294E+0000
 11
 8.69779962430766E+0000
 21
 5.83339936802076E+0000
  0
LINE
  8
1
  6
CONTINUOUS
 62
     1
 10
 8.71372947473719E+0000
 20
 5.83812372176908E+0000
 11
 8.70081035063777E+0000
 21
 5.85104284587578E+0000
  0
LINE
  8
1
  6
CONTINUOUS
 62
     1
 10
 8.70828653388890E+0000
 20
 5.86422086680250E+0000
 11
 8.70382107696787E+0000
 21
 5.86868632373080E+0000
  0
LINE
  8
1
  6
CONTINUOUS
 62
     1
 10
 8.73685137025313E+0000
 20
 5.72726169369707E+0000
 11
 8.72830643851194E+0000
 21
 5.71871676195587E+0000
  0
LINE
  8
1
  6
CONTINUOUS
 62
     1
 10
 8.73328702955041E+0000
 20
 5.74435155718675E+0000
 11
 8.70765223432682E+0000
 21
 5.71871676195587E+0000
  0
LINE
  8
1
  6
CONTINUOUS
 62
     1
 10
 8.72972268886224E+0000
 20
 5.76144142068370E+0000
 11
 8.68699803014169E+0000
 21
 5.71871676195587E+0000
  0
LINE
  8
1
  6
CONTINUOUS
 62
     1
 10
 8.72615834815952E+0000
 20
 5.77853128417337E+0000
 11
 8.68067549413536E+0000
 21
 5.73304843014193E+0000
  0
LINE
  8
1
  6
CONTINUOUS
 62
     1
 10
 8.72259400745679E+0000
 20
 5.79562114765577E+0000
 11
 8.68492514986428E+0000
 21
 5.75795229006326E+0000
  0
LINE
  8
1
  6
CONTINUOUS
 62
     1
 10
 8.71902966676862E+0000
 20
 5.81271101114544E+0000
 11
 8.68917480560776E+0000
 21
 5.78285614998458E+0000
  0
LINE
  8
1
  6
CONTINUOUS
 62
     1
 10
 8.71546532608045E+0000
 20
 5.82980087463511E+0000
 11
 8.69342446133669E+0000
 21
 5.80776000990591E+0000
  0
LINE
  8
1
  6
CONTINUOUS
 62
     1
 10
 8.71190098537772E+0000
 20
 5.84689073813206E+0000
 11
 8.69767411708017E+0000
 21
 5.83266386982723E+0000
  0
LINE
  8
1
  6
CONTINUOUS
 62
     1
 10
 8.70833664468955E+0000
 20
 5.86398060162173E+0000
 11
 8.70192377279454E+0000
 21
 5.85756772973400E+0000
  0
LINE
  8
1
  6
CONTINUOUS
 62
     1
 10
 8.41012055324973E+0000
 20
 5.83717574589537E+0000
 11
 8.41012055324973E+0000
 21
 5.83717574589537E+0000
  0
LINE
  8
1
  6
CONTINUOUS
 62
     1
 10
 8.41012055324973E+0000
 20
 5.83717574589537E+0000
 11
 8.38293903188605E+0000
 21
 5.67788641926745E+0000
  0
LINE
  8
1
  6
CONTINUOUS
 62
     1
 10
 8.38293903188605E+0000
 20
 5.67788641926745E+0000
 11
 8.44334266935766E+0000
 21
 5.67788641926745E+0000
  0
LINE
  8
1
  6
CONTINUOUS
 62
     1
 10
 8.44334266935766E+0000
 20
 5.67788641926745E+0000
 11
 8.41012055324973E+0000
 21
 5.83717574589537E+0000
  0
LINE
  8
1
  6
CONTINUOUS
 62
     1
 10
 8.38293903188605E+0000
 20
 5.67788641926745E+0000
 11
 8.44334266935766E+0000
 21
 5.67788641926745E+0000
  0
LINE
  8
1
  6
CONTINUOUS
 62
     1
 10
 8.39326613399317E+0000
 20
 5.67788641927473E+0000
 11
 8.38444439505110E+0000
 21
 5.68670815820951E+0000
  0
LINE
  8
1
  6
CONTINUOUS
 62
     1
 10
 8.41392033817829E+0000
 20
 5.67788641926745E+0000
 11
 8.38745512139576E+0000
 21
 5.70435163605725E+0000
  0
LINE
  8
1
  6
CONTINUOUS
 62
     1
 10
 8.43457454236341E+0000
 20
 5.67788641926745E+0000
 11
 8.39046584772586E+0000
 21
 5.72199511391227E+0000
  0
LINE
  8
1
  6
CONTINUOUS
 62
     1
 10
 8.44021036688355E+0000
 20
 5.69290479894698E+0000
 11
 8.39347657405597E+0000
 21
 5.73963859176729E+0000
  0
LINE
  8
1
  6
CONTINUOUS
 62
     1
 10
 8.43476742603525E+0000
 20
 5.71900194398040E+0000
 11
 8.39648730038607E+0000
 21
 5.75728206962231E+0000
  0
LINE
  8
1
  6
CONTINUOUS
 62
     1
 10
 8.42932448518695E+0000
 20
 5.74509908900654E+0000
 11
 8.39949802671617E+0000
 21
 5.77492554747005E+0000
  0
LINE
  8
1
  6
CONTINUOUS
 62
     1
 10
 8.42388154433866E+0000
 20
 5.77119623403996E+0000
 11
 8.40250875304628E+0000
 21
 5.79256902532507E+0000
  0
LINE
  8
1
  6
CONTINUOUS
 62
     1
 10
 8.41843860349036E+0000
 20
 5.79729337907338E+0000
 11
 8.40551947939093E+0000
 21
 5.81021250318008E+0000
  0
LINE
  8
1
  6
CONTINUOUS
 62
     1
 10
 8.41299566264206E+0000
 20
 5.82339052410680E+0000
 11
 8.40853020572104E+0000
 21
 5.82785598102782E+0000
  0
LINE
  8
1
  6
CONTINUOUS
 62
     1
 10
 8.44156049900630E+0000
 20
 5.68643135100865E+0000
 11
 8.43301556725055E+0000
 21
 5.67788641926018E+0000
  0
LINE
  8
1
  6
CONTINUOUS
 62
     1
 10
 8.43799615831813E+0000
 20
 5.70352121450560E+0000
 11
 8.41236136306543E+0000
 21
 5.67788641926018E+0000
  0
LINE
  8
1
  6
CONTINUOUS
 62
     1
 10
 8.43443181761540E+0000
 20
 5.72061107799527E+0000
 11
 8.39170715888031E+0000
 21
 5.67788641926018E+0000
  0
LINE
  8
1
  6
CONTINUOUS
 62
     1
 10
 8.43086747692723E+0000
 20
 5.73770094148495E+0000
 11
 8.38538462288852E+0000
 21
 5.69221808744624E+0000
  0
LINE
  8
1
  6
CONTINUOUS
 62
     1
 10
 8.42730313622451E+0000
 20
 5.75479080496734E+0000
 11
 8.38963427861745E+0000
 21
 5.71712194736756E+0000
  0
LINE
  8
1
  6
CONTINUOUS
 62
     1
 10
 8.42373879552179E+0000
 20
 5.77188066845702E+0000
 11
 8.39388393436093E+0000
 21
 5.74202580728161E+0000
  0
LINE
  8
1
  6
CONTINUOUS
 62
     1
 10
 8.42017445483361E+0000
 20
 5.78897053195396E+0000
 11
 8.39813359008986E+0000
 21
 5.76692966720293E+0000
  0
LINE
  8
1
  6
CONTINUOUS
 62
     1
 10
 8.41661011414544E+0000
 20
 5.80606039544364E+0000
 11
 8.40238324581878E+0000
 21
 5.79183352712425E+0000
  0
LINE
  8
1
  6
CONTINUOUS
 62
     1
 10
 8.41304577344272E+0000
 20
 5.82315025893331E+0000
 11
 8.40663290156226E+0000
 21
 5.81673738704558E+0000
  0
LINE
  8
1
  6
CONTINUOUS
 62
     1
 10
 6.77074709567387E+0000
 20
 6.34755502952612E+0000
 11
 6.77074709567387E+0000
 21
 6.34755502952612E+0000
  0
LINE
  8
1
  6
CONTINUOUS
 62
     1
 10
 6.77074709567387E+0000
 20
 6.34755502952612E+0000
 11
 6.74356557431020E+0000
 21
 6.18826570289821E+0000
  0
LINE
  8
1
  6
CONTINUOUS
 62
     1
 10
 6.74356557431020E+0000
 20
 6.18826570289821E+0000
 11
 6.80396921178180E+0000
 21
 6.18826570289821E+0000
  0
LINE
  8
1
  6
CONTINUOUS
 62
     1
 10
 6.80396921178180E+0000
 20
 6.18826570289821E+0000
 11
 6.77074709567387E+0000
 21
 6.34755502952612E+0000
  0
LINE
  8
1
  6
CONTINUOUS
 62
     1
 10
 6.74356557431020E+0000
 20
 6.18826570289821E+0000
 11
 6.80396921178180E+0000
 21
 6.18826570289821E+0000
  0
LINE
  8
1
  6
CONTINUOUS
 62
     1
 10
 6.75389267641731E+0000
 20
 6.18826570289821E+0000
 11
 6.74507093748252E+0000
 21
 6.19708744183299E+0000
  0
LINE
  8
1
  6
CONTINUOUS
 62
     1
 10
 6.77454688060243E+0000
 20
 6.18826570289821E+0000
 11
 6.74808166381263E+0000
 21
 6.21473091968801E+0000
  0
LINE
  8
1
  6
CONTINUOUS
 62
     1
 10
 6.79520108478755E+0000
 20
 6.18826570289821E+0000
 11
 6.75109239014273E+0000
 21
 6.23237439754303E+0000
  0
LINE
  8
1
  6
CONTINUOUS
 62
     1
 10
 6.80083690930041E+0000
 20
 6.20328408257046E+0000
 11
 6.75410311648011E+0000
 21
 6.25001787539804E+0000
  0
LINE
  8
1
  6
CONTINUOUS
 62
     1
 10
 6.79539396845212E+0000
 20
 6.22938122760388E+0000
 11
 6.75711384281021E+0000
 21
 6.26766135324578E+0000
  0
LINE
  8
1
  6
CONTINUOUS
 62
     1
 10
 6.78995102760382E+0000
 20
 6.25547837263730E+0000
 11
 6.76012456914032E+0000
 21
 6.28530483110080E+0000
  0
LINE
  8
1
  6
CONTINUOUS
 62
     1
 10
 6.78450808675552E+0000
 20
 6.28157551767072E+0000
 11
 6.76313529547770E+0000
 21
 6.30294830895582E+0000
  0
LINE
  8
1
  6
CONTINUOUS
 62
     1
 10
 6.77906514591450E+0000
 20
 6.30767266270414E+0000
 11
 6.76614602180780E+0000
 21
 6.32059178681084E+0000
  0
LINE
  8
1
  6
CONTINUOUS
 62
     1
 10
 6.77362220506620E+0000
 20
 6.33376980773755E+0000
 11
 6.76915674813790E+0000
 21
 6.33823526465858E+0000
  0
LINE
  8
1
  6
CONTINUOUS
 62
     1
 10
 6.80218704143044E+0000
 20
 6.19681063463941E+0000
 11
 6.79364210968924E+0000
 21
 6.18826570289821E+0000
  0
LINE
  8
1
  6
CONTINUOUS
 62
     1
 10
 6.79862270073500E+0000
 20
 6.21390049812908E+0000
 11
 6.77298790550412E+0000
 21
 6.18826570289821E+0000
  0
LINE
  8
1
  6
CONTINUOUS
 62
     1
 10
 6.79505836004682E+0000
 20
 6.23099036162603E+0000
 11
 6.75233370131900E+0000
 21
 6.18826570289821E+0000
  0
LINE
  8
1
  6
CONTINUOUS
 62
     1
 10
 6.79149401935138E+0000
 20
 6.24808022511570E+0000
 11
 6.74601116531994E+0000
 21
 6.20259737108427E+0000
  0
LINE
  8
1
  6
CONTINUOUS
 62
     1
 10
 6.78792967864865E+0000
 20
 6.26517008859810E+0000
 11
 6.75026082105614E+0000
 21
 6.22750123100559E+0000
  0
LINE
  8
1
  6
CONTINUOUS
 62
     1
 10
 6.78436533795320E+0000
 20
 6.28225995208777E+0000
 11
 6.75451047679235E+0000
 21
 6.25240509092691E+0000
  0
LINE
  8
1
  6
CONTINUOUS
 62
     1
 10
 6.78080099725776E+0000
 20
 6.29934981557744E+0000
 11
 6.75876013252127E+0000
 21
 6.27730895084824E+0000
  0
LINE
  8
1
  6
CONTINUOUS
 62
     1
 10
 6.77723665656231E+0000
 20
 6.31643967907439E+0000
 11
 6.76300978825748E+0000
 21
 6.30221281076956E+0000
  0
LINE
  8
1
  6
CONTINUOUS
 62
     1
 10
 6.77367231587414E+0000
 20
 6.33352954256407E+0000
 11
 6.76725944399368E+0000
 21
 6.32711667069088E+0000
  0
LINE
  8
1
  6
CONTINUOUS
 62
     1
 10
 7.66816015350196E+0000
 20
 6.70819558660878E+0000
 11
 7.66816015350196E+0000
 21
 6.70819558660878E+0000
  0
LINE
  8
1
  6
CONTINUOUS
 62
     1
 10
 7.66816015350196E+0000
 20
 6.70819558660878E+0000
 11
 7.82744948015170E+0000
 21
 6.68101406524511E+0000
  0
LINE
  8
1
  6
CONTINUOUS
 62
     1
 10
 7.82744948015170E+0000
 20
 6.68101406524511E+0000
 11
 7.82744948015170E+0000
 21
 6.74141770271672E+0000
  0
LINE
  8
1
  6
CONTINUOUS
 62
     1
 10
 7.82744948015170E+0000
 20
 6.74141770271672E+0000
 11
 7.66816015350196E+0000
 21
 6.70819558660878E+0000
  0
LINE
  8
1
  6
CONTINUOUS
 62
     1
 10
 7.82744948015170E+0000
 20
 6.68101406524511E+0000
 11
 7.82744948015170E+0000
 21
 6.74141770271672E+0000
  0
LINE
  8
1
  6
CONTINUOUS
 62
     1
 10
 7.68061208348081E+0000
 20
 6.70607075874432E+0000
 11
 7.67670508525771E+0000
 21
 6.70997775696014E+0000
  0
LINE
  8
1
  6
CONTINUOUS
 62
     1
 10
 7.70551594339486E+0000
 20
 6.70182110300811E+0000
 11
 7.69379494874738E+0000
 21
 6.71354209765559E+0000
  0
LINE
  8
1
  6
CONTINUOUS
 62
     1
 10
 7.73041980331618E+0000
 20
 6.69757144727191E+0000
 11
 7.71088481224433E+0000
 21
 6.71710643835104E+0000
  0
LINE
  8
1
  6
CONTINUOUS
 62
     1
 10
 7.75532366323750E+0000
 20
 6.69332179153571E+0000
 11
 7.72797467573400E+0000
 21
 6.72067077904649E+0000
  0
LINE
  8
1
  6
CONTINUOUS
 62
     1
 10
 7.78022752315883E+0000
 20
 6.68907213579951E+0000
 11
 7.74506453922368E+0000
 21
 6.72423511973466E+0000
  0
LINE
  8
1
  6
CONTINUOUS
 62
     1
 10
 7.80513138308015E+0000
 20
 6.68482248006330E+0000
 11
 7.76215440271335E+0000
 21
 6.72779946043011E+0000
  0
LINE
  8
1
  6
CONTINUOUS
 62
     1
 10
 7.82744948015170E+0000
 20
 6.68315858717688E+0000
 11
 7.77924426621030E+0000
 21
 6.73136380112555E+0000
  0
LINE
  8
1
  6
CONTINUOUS
 62
     1
 10
 7.82744948015170E+0000
 20
 6.70381279136927E+0000
 11
 7.79633412969997E+0000
 21
 6.73492814182100E+0000
  0
LINE
  8
1
  6
CONTINUOUS
 62
     1
 10
 7.82744948015170E+0000
 20
 6.72446699555439E+0000
 11
 7.81342399318964E+0000
 21
 6.73849248251645E+0000
  0
LINE
  8
1
  6
CONTINUOUS
 62
     1
 10
 7.82744948014442E+0000
 20
 6.69134116733039E+0000
 11
 7.81862774121691E+0000
 21
 6.68251942840288E+0000
  0
LINE
  8
1
  6
CONTINUOUS
 62
     1
 10
 7.82744948014442E+0000
 20
 6.71199537151551E+0000
 11
 7.80098426336190E+0000
 21
 6.68553015473299E+0000
  0
LINE
  8
1
  6
CONTINUOUS
 62
     1
 10
 7.82744948014442E+0000
 20
 6.73264957570063E+0000
 11
 7.78334078550688E+0000
 21
 6.68854088106309E+0000
  0
LINE
  8
1
  6
CONTINUOUS
 62
     1
 10
 7.81243110047944E+0000
 20
 6.73828540022805E+0000
 11
 7.76569730765186E+0000
 21
 6.69155160740047E+0000
  0
LINE
  8
1
  6
CONTINUOUS
 62
     1
 10
 7.78633395545330E+0000
 20
 6.73284245937975E+0000
 11
 7.74805382979685E+0000
 21
 6.69456233373057E+0000
  0
LINE
  8
1
  6
CONTINUOUS
 62
     1
 10
 7.76023681042716E+0000
 20
 6.72739951853873E+0000
 11
 7.73041035194910E+0000
 21
 6.69757306006068E+0000
  0
LINE
  8
1
  6
CONTINUOUS
 62
     1
 10
 7.73413966538646E+0000
 20
 6.72195657768316E+0000
 11
 7.71276687409409E+0000
 21
 6.70058378639078E+0000
  0
LINE
  8
1
  6
CONTINUOUS
 62
     1
 10
 7.70804252036032E+0000
 20
 6.71651363684214E+0000
 11
 7.69512339623907E+0000
 21
 6.70359451272816E+0000
  0
LINE
  8
1
  6
CONTINUOUS
 62
     1
 10
 7.68194537532690E+0000
 20
 6.71107069600112E+0000
 11
 7.67747991838405E+0000
 21
 6.70660523905826E+0000
  0
LINE
  8
1
  6
CONTINUOUS
 62
     1
 10
 7.66816015350196E+0000
 20
 6.70819558660878E+0000
 11
 7.66816015350196E+0000
 21
 6.70819558660878E+0000
  0
LINE
  8
1
  6
CONTINUOUS
 62
     1
 10
 7.66816015350196E+0000
 20
 6.70819558660878E+0000
 11
 7.82744948015170E+0000
 21
 6.68101406524511E+0000
  0
LINE
  8
1
  6
CONTINUOUS
 62
     1
 10
 7.82744948015170E+0000
 20
 6.68101406524511E+0000
 11
 7.82744948015170E+0000
 21
 6.74141770271672E+0000
  0
LINE
  8
1
  6
CONTINUOUS
 62
     1
 10
 7.82744948015170E+0000
 20
 6.74141770271672E+0000
 11
 7.66816015350196E+0000
 21
 6.70819558660878E+0000
  0
LINE
  8
1
  6
CONTINUOUS
 62
     1
 10
 7.82744948015170E+0000
 20
 6.68101406524511E+0000
 11
 7.82744948015170E+0000
 21
 6.74141770271672E+0000
  0
LINE
  8
1
  6
CONTINUOUS
 62
     1
 10
 7.68061208348081E+0000
 20
 6.70607075874432E+0000
 11
 7.67670508525771E+0000
 21
 6.70997775696014E+0000
  0
LINE
  8
1
  6
CONTINUOUS
 62
     1
 10
 7.70551594339486E+0000
 20
 6.70182110300811E+0000
 11
 7.69379494874738E+0000
 21
 6.71354209765559E+0000
  0
LINE
  8
1
  6
CONTINUOUS
 62
     1
 10
 7.73041980331618E+0000
 20
 6.69757144727191E+0000
 11
 7.71088481224433E+0000
 21
 6.71710643835104E+0000
  0
LINE
  8
1
  6
CONTINUOUS
 62
     1
 10
 7.75532366323750E+0000
 20
 6.69332179153571E+0000
 11
 7.72797467573400E+0000
 21
 6.72067077904649E+0000
  0
LINE
  8
1
  6
CONTINUOUS
 62
     1
 10
 7.78022752315883E+0000
 20
 6.68907213579951E+0000
 11
 7.74506453922368E+0000
 21
 6.72423511973466E+0000
  0
LINE
  8
1
  6
CONTINUOUS
 62
     1
 10
 7.80513138308015E+0000
 20
 6.68482248006330E+0000
 11
 7.76215440271335E+0000
 21
 6.72779946043011E+0000
  0
LINE
  8
1
  6
CONTINUOUS
 62
     1
 10
 7.82744948015170E+0000
 20
 6.68315858717688E+0000
 11
 7.77924426621030E+0000
 21
 6.73136380112555E+0000
  0
LINE
  8
1
  6
CONTINUOUS
 62
     1
 10
 7.82744948015170E+0000
 20
 6.70381279136927E+0000
 11
 7.79633412969997E+0000
 21
 6.73492814182100E+0000
  0
LINE
  8
1
  6
CONTINUOUS
 62
     1
 10
 7.82744948015170E+0000
 20
 6.72446699555439E+0000
 11
 7.81342399318964E+0000
 21
 6.73849248251645E+0000
  0
LINE
  8
1
  6
CONTINUOUS
 62
     1
 10
 7.82744948014442E+0000
 20
 6.69134116733039E+0000
 11
 7.81862774121691E+0000
 21
 6.68251942840288E+0000
  0
LINE
  8
1
  6
CONTINUOUS
 62
     1
 10
 7.82744948014442E+0000
 20
 6.71199537151551E+0000
 11
 7.80098426336190E+0000
 21
 6.68553015473299E+0000
  0
LINE
  8
1
  6
CONTINUOUS
 62
     1
 10
 7.82744948014442E+0000
 20
 6.73264957570063E+0000
 11
 7.78334078550688E+0000
 21
 6.68854088106309E+0000
  0
LINE
  8
1
  6
CONTINUOUS
 62
     1
 10
 7.81243110047944E+0000
 20
 6.73828540022805E+0000
 11
 7.76569730765186E+0000
 21
 6.69155160740047E+0000
  0
LINE
  8
1
  6
CONTINUOUS
 62
     1
 10
 7.78633395545330E+0000
 20
 6.73284245937975E+0000
 11
 7.74805382979685E+0000
 21
 6.69456233373057E+0000
  0
LINE
  8
1
  6
CONTINUOUS
 62
     1
 10
 7.76023681042716E+0000
 20
 6.72739951853873E+0000
 11
 7.73041035194910E+0000
 21
 6.69757306006068E+0000
  0
LINE
  8
1
  6
CONTINUOUS
 62
     1
 10
 7.73413966538646E+0000
 20
 6.72195657768316E+0000
 11
 7.71276687409409E+0000
 21
 6.70058378639078E+0000
  0
LINE
  8
1
  6
CONTINUOUS
 62
     1
 10
 7.70804252036032E+0000
 20
 6.71651363684214E+0000
 11
 7.69512339623907E+0000
 21
 6.70359451272816E+0000
  0
LINE
  8
1
  6
CONTINUOUS
 62
     1
 10
 7.68194537532690E+0000
 20
 6.71107069600112E+0000
 11
 7.67747991838405E+0000
 21
 6.70660523905826E+0000
  0
LINE
  8
1
  6
CONTINUOUS
 62
     1
 10
 7.45150205239042E+0000
 20
 6.70921848379658E+0000
 11
 7.45150205239042E+0000
 21
 6.70921848379658E+0000
  0
LINE
  8
1
  6
CONTINUOUS
 62
     1
 10
 7.45150205239042E+0000
 20
 6.70921848379658E+0000
 11
 7.29221272575523E+0000
 21
 6.73640000516025E+0000
  0
LINE
  8
1
  6
CONTINUOUS
 62
     1
 10
 7.29221272575523E+0000
 20
 6.73640000516025E+0000
 11
 7.29221272575523E+0000
 21
 6.67599636768864E+0000
  0
LINE
  8
1
  6
CONTINUOUS
 62
     1
 10
 7.29221272575523E+0000
 20
 6.67599636768864E+0000
 11
 7.45150205239042E+0000
 21
 6.70921848379658E+0000
  0
LINE
  8
1
  6
CONTINUOUS
 62
     1
 10
 7.29221272575523E+0000
 20
 6.73640000516025E+0000
 11
 7.29221272575523E+0000
 21
 6.67599636768864E+0000
  0
LINE
  8
1
  6
CONTINUOUS
 62
     1
 10
 7.30075765751099E+0000
 20
 6.67777853804000E+0000
 11
 7.29221272575523E+0000
 21
 6.68632346979575E+0000
  0
LINE
  8
1
  6
CONTINUOUS
 62
     1
 10
 7.31784752100066E+0000
 20
 6.68134287873545E+0000
 11
 7.29221272575523E+0000
 21
 6.70697767398087E+0000
  0
LINE
  8
1
  6
CONTINUOUS
 62
     1
 10
 7.33493738449033E+0000
 20
 6.68490721943090E+0000
 11
 7.29221272575523E+0000
 21
 6.72763187816599E+0000
  0
LINE
  8
1
  6
CONTINUOUS
 62
     1
 10
 7.35202724798000E+0000
 20
 6.68847156012635E+0000
 11
 7.30654439395585E+0000
 21
 6.73395441415050E+0000
  0
LINE
  8
1
  6
CONTINUOUS
 62
     1
 10
 7.36911711146968E+0000
 20
 6.69203590082179E+0000
 11
 7.33144825387717E+0000
 21
 6.72970475841430E+0000
  0
LINE
  8
1
  6
CONTINUOUS
 62
     1
 10
 7.38620697496663E+0000
 20
 6.69560024151724E+0000
 11
 7.35635211379849E+0000
 21
 6.72545510267810E+0000
  0
LINE
  8
1
  6
CONTINUOUS
 62
     1
 10
 7.40329683845630E+0000
 20
 6.69916458220541E+0000
 11
 7.38125597371254E+0000
 21
 6.72120544694917E+0000
  0
LINE
  8
1
  6
CONTINUOUS
 62
     1
 10
 7.42038670194597E+0000
 20
 6.70272892290086E+0000
 11
 7.40615983363386E+0000
 21
 6.71695579121297E+0000
  0
LINE
  8
1
  6
CONTINUOUS
 62
     1
 10
 7.43747656543565E+0000
 20
 6.70629326359631E+0000
 11
 7.43106369355519E+0000
 21
 6.71270613547676E+0000
  0
LINE
  8
1
  6
CONTINUOUS
 62
     1
 10
 7.44268031345564E+0000
 20
 6.71072384695435E+0000
 11
 7.43845347985916E+0000
 21
 6.70649701335788E+0000
  0
LINE
  8
1
  6
CONTINUOUS
 62
     1
 10
 7.42503683560062E+0000
 20
 6.71373457329173E+0000
 11
 7.41235633483302E+0000
 21
 6.70105407251685E+0000
  0
LINE
  8
1
  6
CONTINUOUS
 62
     1
 10
 7.40739335775288E+0000
 20
 6.71674529962183E+0000
 11
 7.38625918979960E+0000
 21
 6.69561113167583E+0000
  0
LINE
  8
1
  6
CONTINUOUS
 62
     1
 10
 7.38974987989786E+0000
 20
 6.71975602595194E+0000
 11
 7.36016204477346E+0000
 21
 6.69016819082754E+0000
  0
LINE
  8
1
  6
CONTINUOUS
 62
     1
 10
 7.37210640204285E+0000
 20
 6.72276675228204E+0000
 11
 7.33406489974732E+0000
 21
 6.68472524998651E+0000
  0
LINE
  8
1
  6
CONTINUOUS
 62
     1
 10
 7.35446292418783E+0000
 20
 6.72577747861942E+0000
 11
 7.30796775471390E+0000
 21
 6.67928230914549E+0000
  0
LINE
  8
1
  6
CONTINUOUS
 62
     1
 10
 7.33681944633281E+0000
 20
 6.72878820494952E+0000
 11
 7.29221272574796E+0000
 21
 6.68418148436467E+0000
  0
LINE
  8
1
  6
CONTINUOUS
 62
     1
 10
 7.31917596848507E+0000
 20
 6.73179893127963E+0000
 11
 7.29221272574796E+0000
 21
 6.70483568854979E+0000
  0
LINE
  8
1
  6
CONTINUOUS
 62
     1
 10
 7.30153249063733E+0000
 20
 6.73480965762428E+0000
 11
 7.29221272574796E+0000
 21
 6.72548989273491E+0000
  0
LINE
  8
1
  6
CONTINUOUS
 62
     1
 10
 7.45150205239042E+0000
 20
 6.70921848379658E+0000
 11
 7.45150205239042E+0000
 21
 6.70921848379658E+0000
  0
LINE
  8
1
  6
CONTINUOUS
 62
     1
 10
 7.45150205239042E+0000
 20
 6.70921848379658E+0000
 11
 7.29221272575523E+0000
 21
 6.73640000516025E+0000
  0
LINE
  8
1
  6
CONTINUOUS
 62
     1
 10
 7.29221272575523E+0000
 20
 6.73640000516025E+0000
 11
 7.29221272575523E+0000
 21
 6.67599636768864E+0000
  0
LINE
  8
1
  6
CONTINUOUS
 62
     1
 10
 7.29221272575523E+0000
 20
 6.67599636768864E+0000
 11
 7.45150205239042E+0000
 21
 6.70921848379658E+0000
  0
LINE
  8
1
  6
CONTINUOUS
 62
     1
 10
 7.29221272575523E+0000
 20
 6.73640000516025E+0000
 11
 7.29221272575523E+0000
 21
 6.67599636768864E+0000
  0
LINE
  8
1
  6
CONTINUOUS
 62
     1
 10
 7.30075765751099E+0000
 20
 6.67777853804000E+0000
 11
 7.29221272575523E+0000
 21
 6.68632346979575E+0000
  0
LINE
  8
1
  6
CONTINUOUS
 62
     1
 10
 7.31784752100066E+0000
 20
 6.68134287873545E+0000
 11
 7.29221272575523E+0000
 21
 6.70697767398087E+0000
  0
LINE
  8
1
  6
CONTINUOUS
 62
     1
 10
 7.33493738449033E+0000
 20
 6.68490721943090E+0000
 11
 7.29221272575523E+0000
 21
 6.72763187816599E+0000
  0
LINE
  8
1
  6
CONTINUOUS
 62
     1
 10
 7.35202724798000E+0000
 20
 6.68847156012635E+0000
 11
 7.30654439395585E+0000
 21
 6.73395441415050E+0000
  0
LINE
  8
1
  6
CONTINUOUS
 62
     1
 10
 7.36911711146968E+0000
 20
 6.69203590082179E+0000
 11
 7.33144825387717E+0000
 21
 6.72970475841430E+0000
  0
LINE
  8
1
  6
CONTINUOUS
 62
     1
 10
 7.38620697496663E+0000
 20
 6.69560024151724E+0000
 11
 7.35635211379849E+0000
 21
 6.72545510267810E+0000
  0
LINE
  8
1
  6
CONTINUOUS
 62
     1
 10
 7.40329683845630E+0000
 20
 6.69916458220541E+0000
 11
 7.38125597371254E+0000
 21
 6.72120544694917E+0000
  0
LINE
  8
1
  6
CONTINUOUS
 62
     1
 10
 7.42038670194597E+0000
 20
 6.70272892290086E+0000
 11
 7.40615983363386E+0000
 21
 6.71695579121297E+0000
  0
LINE
  8
1
  6
CONTINUOUS
 62
     1
 10
 7.43747656543565E+0000
 20
 6.70629326359631E+0000
 11
 7.43106369355519E+0000
 21
 6.71270613547676E+0000
  0
LINE
  8
1
  6
CONTINUOUS
 62
     1
 10
 7.44268031345564E+0000
 20
 6.71072384695435E+0000
 11
 7.43845347985916E+0000
 21
 6.70649701335788E+0000
  0
LINE
  8
1
  6
CONTINUOUS
 62
     1
 10
 7.42503683560062E+0000
 20
 6.71373457329173E+0000
 11
 7.41235633483302E+0000
 21
 6.70105407251685E+0000
  0
LINE
  8
1
  6
CONTINUOUS
 62
     1
 10
 7.40739335775288E+0000
 20
 6.71674529962183E+0000
 11
 7.38625918979960E+0000
 21
 6.69561113167583E+0000
  0
LINE
  8
1
  6
CONTINUOUS
 62
     1
 10
 7.38974987989786E+0000
 20
 6.71975602595194E+0000
 11
 7.36016204477346E+0000
 21
 6.69016819082754E+0000
  0
LINE
  8
1
  6
CONTINUOUS
 62
     1
 10
 7.37210640204285E+0000
 20
 6.72276675228204E+0000
 11
 7.33406489974732E+0000
 21
 6.68472524998651E+0000
  0
LINE
  8
1
  6
CONTINUOUS
 62
     1
 10
 7.35446292418783E+0000
 20
 6.72577747861942E+0000
 11
 7.30796775471390E+0000
 21
 6.67928230914549E+0000
  0
LINE
  8
1
  6
CONTINUOUS
 62
     1
 10
 7.33681944633281E+0000
 20
 6.72878820494952E+0000
 11
 7.29221272574796E+0000
 21
 6.68418148436467E+0000
  0
LINE
  8
1
  6
CONTINUOUS
 62
     1
 10
 7.31917596848507E+0000
 20
 6.73179893127963E+0000
 11
 7.29221272574796E+0000
 21
 6.70483568854979E+0000
  0
LINE
  8
1
  6
CONTINUOUS
 62
     1
 10
 7.30153249063733E+0000
 20
 6.73480965762428E+0000
 11
 7.29221272574796E+0000
 21
 6.72548989273491E+0000
  0
LINE
  8
1
  6
CONTINUOUS
 62
     1
 10
 9.03873079478217E+0000
 20
 2.42755955265602E+0000
 11
 9.03873079478217E+0000
 21
 2.42755955265602E+0000
  0
LINE
  8
1
  6
CONTINUOUS
 62
     1
 10
 9.03873079478217E+0000
 20
 2.42755955265602E+0000
 11
 9.06591231614584E+0000
 21
 2.58684887928393E+0000
  0
LINE
  8
1
  6
CONTINUOUS
 62
     1
 10
 9.06591231614584E+0000
 20
 2.58684887928393E+0000
 11
 9.00550867867423E+0000
 21
 2.58684887928393E+0000
  0
LINE
  8
1
  6
CONTINUOUS
 62
     1
 10
 9.00550867867423E+0000
 20
 2.58684887928393E+0000
 11
 9.03873079478217E+0000
 21
 2.42755955265602E+0000
  0
LINE
  8
1
  6
CONTINUOUS
 62
     1
 10
 9.06591231614584E+0000
 20
 2.58684887928393E+0000
 11
 9.00550867867423E+0000
 21
 2.58684887928393E+0000
  0
LINE
  8
1
  6
CONTINUOUS
 62
     1
 10
 9.04023615796177E+0000
 20
 2.43638129159444E+0000
 11
 9.03600932436530E+0000
 21
 2.44060812518728E+0000
  0
LINE
  8
1
  6
CONTINUOUS
 62
     1
 10
 9.04324688429188E+0000
 20
 2.45402476944946E+0000
 11
 9.03056638351700E+0000
 21
 2.46670527022070E+0000
  0
LINE
  8
1
  6
CONTINUOUS
 62
     1
 10
 9.04625761062198E+0000
 20
 2.47166824730084E+0000
 11
 9.02512344266870E+0000
 21
 2.49280241525048E+0000
  0
LINE
  8
1
  6
CONTINUOUS
 62
     1
 10
 9.04926833695208E+0000
 20
 2.48931172515586E+0000
 11
 9.01968050182040E+0000
 21
 2.51889956028390E+0000
  0
LINE
  8
1
  6
CONTINUOUS
 62
     1
 10
 9.05227906328219E+0000
 20
 2.50695520300724E+0000
 11
 9.01423756097211E+0000
 21
 2.54499670531732E+0000
  0
LINE
  8
1
  6
CONTINUOUS
 62
     1
 10
 9.05528978962684E+0000
 20
 2.52459868085862E+0000
 11
 9.00879462013836E+0000
 21
 2.57109385034710E+0000
  0
LINE
  8
1
  6
CONTINUOUS
 62
     1
 10
 9.05830051595694E+0000
 20
 2.54224215871000E+0000
 11
 9.01369379537937E+0000
 21
 2.58684887928393E+0000
  0
LINE
  8
1
  6
CONTINUOUS
 62
     1
 10
 9.06131124228705E+0000
 20
 2.55988563656501E+0000
 11
 9.03434799956449E+0000
 21
 2.58684887928393E+0000
  0
LINE
  8
1
  6
CONTINUOUS
 62
     1
 10
 9.06432196861715E+0000
 20
 2.57752911441639E+0000
 11
 9.05500220374961E+0000
 21
 2.58684887928393E+0000
  0
LINE
  8
1
  6
CONTINUOUS
 62
     1
 10
 9.04085562264663E+0000
 20
 2.44001148262032E+0000
 11
 9.03694862443081E+0000
 21
 2.43610448440450E+0000
  0
LINE
  8
1
  6
CONTINUOUS
 62
     1
 10
 9.04510527837556E+0000
 20
 2.46491534254164E+0000
 11
 9.03338428372808E+0000
 21
 2.45319434789781E+0000
  0
LINE
  8
1
  6
CONTINUOUS
 62
     1
 10
 9.04935493411904E+0000
 20
 2.48981920246297E+0000
 11
 9.02981994303991E+0000
 21
 2.47028421139112E+0000
  0
LINE
  8
1
  6
CONTINUOUS
 62
     1
 10
 9.05360458984796E+0000
 20
 2.51472306238429E+0000
 11
 9.02625560235174E+0000
 21
 2.48737407488079E+0000
  0
LINE
  8
1
  6
CONTINUOUS
 62
     1
 10
 9.05785424559144E+0000
 20
 2.53962692230562E+0000
 11
 9.02269126164902E+0000
 21
 2.50446393837410E+0000
  0
LINE
  8
1
  6
CONTINUOUS
 62
     1
 10
 9.06210390132037E+0000
 20
 2.56453078222694E+0000
 11
 9.01912692096084E+0000
 21
 2.52155380186377E+0000
  0
LINE
  8
1
  6
CONTINUOUS
 62
     1
 10
 9.06376779419952E+0000
 20
 2.58684887928757E+0000
 11
 9.01556258025812E+0000
 21
 2.53864366534617E+0000
  0
LINE
  8
1
  6
CONTINUOUS
 62
     1
 10
 9.04311359001440E+0000
 20
 2.58684887928757E+0000
 11
 9.01199823956995E+0000
 21
 2.55573352883584E+0000
  0
LINE
  8
1
  6
CONTINUOUS
 62
     1
 10
 9.02245938582928E+0000
 20
 2.58684887928757E+0000
 11
 9.00843389886722E+0000
 21
 2.57282339232916E+0000
  0
LINE
  8
1
  6
CONTINUOUS
 62
     1
 10
 8.71289259204059E+0000
 20
 2.49901265236258E+0000
 11
 8.71289259204059E+0000
 21
 2.49901265236258E+0000
  0
LINE
  8
1
  6
CONTINUOUS
 62
     1
 10
 8.71289259204059E+0000
 20
 2.49901265236258E+0000
 11
 8.74007411340426E+0000
 21
 2.65830197899049E+0000
  0
LINE
  8
1
  6
CONTINUOUS
 62
     1
 10
 8.74007411340426E+0000
 20
 2.65830197899049E+0000
 11
 8.67967047593265E+0000
 21
 2.65830197899049E+0000
  0
LINE
  8
1
  6
CONTINUOUS
 62
     1
 10
 8.67967047593265E+0000
 20
 2.65830197899049E+0000
 11
 8.71289259204059E+0000
 21
 2.49901265236258E+0000
  0
LINE
  8
1
  6
CONTINUOUS
 62
     1
 10
 8.74007411340426E+0000
 20
 2.65830197899049E+0000
 11
 8.67967047593265E+0000
 21
 2.65830197899049E+0000
  0
LINE
  8
1
  6
CONTINUOUS
 62
     1
 10
 8.71439795520564E+0000
 20
 2.50783439129009E+0000
 11
 8.71017112162372E+0000
 21
 2.51206122487565E+0000
  0
LINE
  8
1
  6
CONTINUOUS
 62
     1
 10
 8.71740868153574E+0000
 20
 2.52547786914511E+0000
 11
 8.70472818077542E+0000
 21
 2.53815836991271E+0000
  0
LINE
  8
1
  6
CONTINUOUS
 62
     1
 10
 8.72041940786585E+0000
 20
 2.54312134699649E+0000
 11
 8.69928523992712E+0000
 21
 2.56425551494613E+0000
  0
LINE
  8
1
  6
CONTINUOUS
 62
     1
 10
 8.72343013421050E+0000
 20
 2.56076482484423E+0000
 11
 8.69384229907882E+0000
 21
 2.59035265997227E+0000
  0
LINE
  8
1
  6
CONTINUOUS
 62
     1
 10
 8.72644086054061E+0000
 20
 2.57840830269924E+0000
 11
 8.68839935823053E+0000
 21
 2.61644980500932E+0000
  0
LINE
  8
1
  6
CONTINUOUS
 62
     1
 10
 8.72945158687071E+0000
 20
 2.59605178056154E+0000
 11
 8.68295641738223E+0000
 21
 2.64254695005002E+0000
  0
LINE
  8
1
  6
CONTINUOUS
 62
     1
 10
 8.73246231320081E+0000
 20
 2.61369525841656E+0000
 11
 8.68785559262324E+0000
 21
 2.65830197899049E+0000
  0
LINE
  8
1
  6
CONTINUOUS
 62
     1
 10
 8.73547303953092E+0000
 20
 2.63133873627157E+0000
 11
 8.70850979680836E+0000
 21
 2.65830197899049E+0000
  0
LINE
  8
1
  6
CONTINUOUS
 62
     1
 10
 8.73848376587557E+0000
 20
 2.64898221411931E+0000
 11
 8.72916400100803E+0000
 21
 2.65830197898686E+0000
  0
LINE
  8
1
  6
CONTINUOUS
 62
     1
 10
 8.71501741990505E+0000
 20
 2.51146458232324E+0000
 11
 8.71111042168923E+0000
 21
 2.50755758410742E+0000
  0
LINE
  8
1
  6
CONTINUOUS
 62
     1
 10
 8.71926707563398E+0000
 20
 2.53636844224093E+0000
 11
 8.70754608098650E+0000
 21
 2.52464744759709E+0000
  0
LINE
  8
1
  6
CONTINUOUS
 62
     1
 10
 8.72351673137746E+0000
 20
 2.56127230216225E+0000
 11
 8.70398174029833E+0000
 21
 2.54173731108676E+0000
  0
LINE
  8
1
  6
CONTINUOUS
 62
     1
 10
 8.72776638710639E+0000
 20
 2.58617616208358E+0000
 11
 8.70041739959561E+0000
 21
 2.55882717457644E+0000
  0
LINE
  8
1
  6
CONTINUOUS
 62
     1
 10
 8.73201604284986E+0000
 20
 2.61108002200490E+0000
 11
 8.69685305890744E+0000
 21
 2.57591703806975E+0000
  0
LINE
  8
1
  6
CONTINUOUS
 62
     1
 10
 8.73626569857879E+0000
 20
 2.63598388192622E+0000
 11
 8.69328871821926E+0000
 21
 2.59300690155942E+0000
  0
LINE
  8
1
  6
CONTINUOUS
 62
     1
 10
 8.73792959145794E+0000
 20
 2.65830197899049E+0000
 11
 8.68972437751654E+0000
 21
 2.61009676504545E+0000
  0
LINE
  8
1
  6
CONTINUOUS
 62
     1
 10
 8.71727538727282E+0000
 20
 2.65830197899049E+0000
 11
 8.68616003681382E+0000
 21
 2.62718662853877E+0000
  0
LINE
  8
1
  6
CONTINUOUS
 62
     1
 10
 8.69662118308770E+0000
 20
 2.65830197899049E+0000
 11
 8.68259569612565E+0000
 21
 2.64427649202844E+0000
  0
LINE
  8
1
  6
CONTINUOUS
 62
     1
 10
 8.41760172079375E+0000
 20
 2.55005058072857E+0000
 11
 8.41760172079375E+0000
 21
 2.55005058072857E+0000
  0
LINE
  8
1
  6
CONTINUOUS
 62
     1
 10
 8.41760172079375E+0000
 20
 2.55005058072857E+0000
 11
 8.44478324215743E+0000
 21
 2.70933990735648E+0000
  0
LINE
  8
1
  6
CONTINUOUS
 62
     1
 10
 8.44478324215743E+0000
 20
 2.70933990735648E+0000
 11
 8.38437960468582E+0000
 21
 2.70933990735648E+0000
  0
LINE
  8
1
  6
CONTINUOUS
 62
     1
 10
 8.38437960468582E+0000
 20
 2.70933990735648E+0000
 11
 8.41760172079375E+0000
 21
 2.55005058072857E+0000
  0
LINE
  8
1
  6
CONTINUOUS
 62
     1
 10
 8.44478324215743E+0000
 20
 2.70933990735648E+0000
 11
 8.38437960468582E+0000
 21
 2.70933990735648E+0000
  0
LINE
  8
1
  6
CONTINUOUS
 62
     1
 10
 8.41910708395881E+0000
 20
 2.55887231965244E+0000
 11
 8.41488025037688E+0000
 21
 2.56309915323800E+0000
  0
LINE
  8
1
  6
CONTINUOUS
 62
     1
 10
 8.42211781028891E+0000
 20
 2.57651579750382E+0000
 11
 8.40943730952858E+0000
 21
 2.58919629827142E+0000
  0
LINE
  8
1
  6
CONTINUOUS
 62
     1
 10
 8.42512853663357E+0000
 20
 2.59415927535883E+0000
 11
 8.40399436868029E+0000
 21
 2.61529344330120E+0000
  0
LINE
  8
1
  6
CONTINUOUS
 62
     1
 10
 8.42813926296367E+0000
 20
 2.61180275321385E+0000
 11
 8.39855142783199E+0000
 21
 2.64139058833462E+0000
  0
LINE
  8
1
  6
CONTINUOUS
 62
     1
 10
 8.43114998929377E+0000
 20
 2.62944623106159E+0000
 11
 8.39310848699824E+0000
 21
 2.66748773336440E+0000
  0
LINE
  8
1
  6
CONTINUOUS
 62
     1
 10
 8.43416071562388E+0000
 20
 2.64708970891297E+0000
 11
 8.38766554614995E+0000
 21
 2.69358487839781E+0000
  0
LINE
  8
1
  6
CONTINUOUS
 62
     1
 10
 8.43717144195398E+0000
 20
 2.66473318676799E+0000
 11
 8.39256472136185E+0000
 21
 2.70933990735648E+0000
  0
LINE
  8
1
  6
CONTINUOUS
 62
     1
 10
 8.44018216828408E+0000
 20
 2.68237666462301E+0000
 11
 8.41321892556152E+0000
 21
 2.70933990735648E+0000
  0
LINE
  8
1
  6
CONTINUOUS
 62
     1
 10
 8.44319289462874E+0000
 20
 2.70002014247439E+0000
 11
 8.43387312974664E+0000
 21
 2.70933990735648E+0000
  0
LINE
  8
1
  6
CONTINUOUS
 62
     1
 10
 8.41972654865822E+0000
 20
 2.56250251068923E+0000
 11
 8.41581955044239E+0000
 21
 2.55859551247340E+0000
  0
LINE
  8
1
  6
CONTINUOUS
 62
     1
 10
 8.42397620438715E+0000
 20
 2.58740637061055E+0000
 11
 8.41225520973967E+0000
 21
 2.57568537596671E+0000
  0
LINE
  8
1
  6
CONTINUOUS
 62
     1
 10
 8.42822586011607E+0000
 20
 2.61231023053188E+0000
 11
 8.40869086905150E+0000
 21
 2.59277523945639E+0000
  0
LINE
  8
1
  6
CONTINUOUS
 62
     1
 10
 8.43247551585955E+0000
 20
 2.63721409045320E+0000
 11
 8.40512652834877E+0000
 21
 2.60986510294242E+0000
  0
LINE
  8
1
  6
CONTINUOUS
 62
     1
 10
 8.43672517158848E+0000
 20
 2.66211795037088E+0000
 11
 8.40156218766060E+0000
 21
 2.62695496643573E+0000
  0
LINE
  8
1
  6
CONTINUOUS
 62
     1
 10
 8.44097482733196E+0000
 20
 2.68702181029221E+0000
 11
 8.39799784695788E+0000
 21
 2.64404482992904E+0000
  0
LINE
  8
1
  6
CONTINUOUS
 62
     1
 10
 8.44263872021111E+0000
 20
 2.70933990735648E+0000
 11
 8.39443350626971E+0000
 21
 2.66113469341872E+0000
  0
LINE
  8
1
  6
CONTINUOUS
 62
     1
 10
 8.42198451602599E+0000
 20
 2.70933990735648E+0000
 11
 8.39086916558153E+0000
 21
 2.67822455691203E+0000
  0
LINE
  8
1
  6
CONTINUOUS
 62
     1
 10
 8.40133031182631E+0000
 20
 2.70933990734920E+0000
 11
 8.38730482487881E+0000
 21
 2.69531442039806E+0000
  0
LINE
  8
1
  6
CONTINUOUS
 62
     1
 10
 6.77822826321790E+0000
 20
 2.01925612575360E+0000
 11
 6.77822826321790E+0000
 21
 2.01925612575360E+0000
  0
LINE
  8
1
  6
CONTINUOUS
 62
     1
 10
 6.77822826321790E+0000
 20
 2.01925612575360E+0000
 11
 6.80540978458157E+0000
 21
 2.17854545238151E+0000
  0
LINE
  8
1
  6
CONTINUOUS
 62
     1
 10
 6.80540978458157E+0000
 20
 2.17854545238151E+0000
 11
 6.74500614710996E+0000
 21
 2.17854545238151E+0000
  0
LINE
  8
1
  6
CONTINUOUS
 62
     1
 10
 6.74500614710996E+0000
 20
 2.17854545238151E+0000
 11
 6.77822826321790E+0000
 21
 2.01925612575360E+0000
  0
LINE
  8
1
  6
CONTINUOUS
 62
     1
 10
 6.80540978458157E+0000
 20
 2.17854545238151E+0000
 11
 6.74500614710996E+0000
 21
 2.17854545238151E+0000
  0
LINE
  8
1
  6
CONTINUOUS
 62
     1
 10
 6.77973362639023E+0000
 20
 2.02807786468111E+0000
 11
 6.77550679279375E+0000
 21
 2.03230469827031E+0000
  0
LINE
  8
1
  6
CONTINUOUS
 62
     1
 10
 6.78274435272033E+0000
 20
 2.04572134253249E+0000
 11
 6.77006385195273E+0000
 21
 2.05840184330009E+0000
  0
LINE
  8
1
  6
CONTINUOUS
 62
     1
 10
 6.78575507905043E+0000
 20
 2.06336482038387E+0000
 11
 6.76462091110443E+0000
 21
 2.08449898833715E+0000
  0
LINE
  8
1
  6
CONTINUOUS
 62
     1
 10
 6.78876580538781E+0000
 20
 2.08100829823888E+0000
 11
 6.75917797025613E+0000
 21
 2.11059613336693E+0000
  0
LINE
  8
1
  6
CONTINUOUS
 62
     1
 10
 6.79177653171791E+0000
 20
 2.09865177609026E+0000
 11
 6.75373502940784E+0000
 21
 2.13669327839671E+0000
  0
LINE
  8
1
  6
CONTINUOUS
 62
     1
 10
 6.79478725804802E+0000
 20
 2.11629525394164E+0000
 11
 6.74829208855954E+0000
 21
 2.16279042343012E+0000
  0
LINE
  8
1
  6
CONTINUOUS
 62
     1
 10
 6.79779798438540E+0000
 20
 2.13393873179666E+0000
 11
 6.75319126380055E+0000
 21
 2.17854545238151E+0000
  0
LINE
  8
1
  6
CONTINUOUS
 62
     1
 10
 6.80080871071550E+0000
 20
 2.15158220964804E+0000
 11
 6.77384546798567E+0000
 21
 2.17854545238151E+0000
  0
LINE
  8
1
  6
CONTINUOUS
 62
     1
 10
 6.80381943705288E+0000
 20
 2.16922568749942E+0000
 11
 6.79449967216351E+0000
 21
 2.17854545238515E+0000
  0
LINE
  8
1
  6
CONTINUOUS
 62
     1
 10
 6.78035309108236E+0000
 20
 2.03170805571426E+0000
 11
 6.77644609286654E+0000
 21
 2.02780105749844E+0000
  0
LINE
  8
1
  6
CONTINUOUS
 62
     1
 10
 6.78460274681856E+0000
 20
 2.05661191563559E+0000
 11
 6.77288175217109E+0000
 21
 2.04489092099175E+0000
  0
LINE
  8
1
  6
CONTINUOUS
 62
     1
 10
 6.78885240255477E+0000
 20
 2.08151577555691E+0000
 11
 6.76931741147564E+0000
 21
 2.06198078447778E+0000
  0
LINE
  8
1
  6
CONTINUOUS
 62
     1
 10
 6.79310205828369E+0000
 20
 2.10641963547096E+0000
 11
 6.76575307078019E+0000
 21
 2.07907064796746E+0000
  0
LINE
  8
1
  6
CONTINUOUS
 62
     1
 10
 6.79735171401990E+0000
 20
 2.13132349539228E+0000
 11
 6.76218873008474E+0000
 21
 2.09616051146077E+0000
  0
LINE
  8
1
  6
CONTINUOUS
 62
     1
 10
 6.80160136975610E+0000
 20
 2.15622735531360E+0000
 11
 6.75862438938930E+0000
 21
 2.11325037495044E+0000
  0
LINE
  8
1
  6
CONTINUOUS
 62
     1
 10
 6.80326526263525E+0000
 20
 2.17854545238151E+0000
 11
 6.75506004869385E+0000
 21
 2.13034023844011E+0000
  0
LINE
  8
1
  6
CONTINUOUS
 62
     1
 10
 6.78261105845013E+0000
 20
 2.17854545238151E+0000
 11
 6.75149570799840E+0000
 21
 2.14743010192979E+0000
  0
LINE
  8
1
  6
CONTINUOUS
 62
     1
 10
 6.76195685426501E+0000
 20
 2.17854545238151E+0000
 11
 6.74793136731023E+0000
 21
 2.16451996542310E+0000
  0
LINE
  8
1
  6
CONTINUOUS
 62
     1
 10
 7.36268683841627E+0000
 20
 1.12464622373955E+0000
 11
 7.36268683841627E+0000
 21
 1.12464622373955E+0000
  0
LINE
  8
1
  6
CONTINUOUS
 62
     1
 10
 7.36268683841627E+0000
 20
 1.12464622373955E+0000
 11
 7.52197616506601E+0000
 21
 1.09746470237587E+0000
  0
LINE
  8
1
  6
CONTINUOUS
 62
     1
 10
 7.52197616506601E+0000
 20
 1.09746470237587E+0000
 11
 7.52197616506601E+0000
 21
 1.15786833984748E+0000
  0
LINE
  8
1
  6
CONTINUOUS
 62
     1
 10
 7.52197616506601E+0000
 20
 1.15786833984748E+0000
 11
 7.36268683841627E+0000
 21
 1.12464622373955E+0000
  0
LINE
  8
1
  6
CONTINUOUS
 62
     1
 10
 7.52197616506601E+0000
 20
 1.09746470237587E+0000
 11
 7.52197616506601E+0000
 21
 1.15786833984748E+0000
  0
LINE
  8
1
  6
CONTINUOUS
 62
     1
 10
 7.37513876838057E+0000
 20
 1.12252139587326E+0000
 11
 7.37123177017202E+0000
 21
 1.12642839408727E+0000
  0
LINE
  8
1
  6
CONTINUOUS
 62
     1
 10
 7.40004262830189E+0000
 20
 1.11827174013706E+0000
 11
 7.38832163366169E+0000
 21
 1.12999273478090E+0000
  0
LINE
  8
1
  6
CONTINUOUS
 62
     1
 10
 7.42494648822321E+0000
 20
 1.11402208440268E+0000
 11
 7.40541149715136E+0000
 21
 1.13355707547453E+0000
  0
LINE
  8
1
  6
CONTINUOUS
 62
     1
 10
 7.44985034814454E+0000
 20
 1.10977242867193E+0000
 11
 7.42250136064104E+0000
 21
 1.13712141617361E+0000
  0
LINE
  8
1
  6
CONTINUOUS
 62
     1
 10
 7.47475420805858E+0000
 20
 1.10552277293573E+0000
 11
 7.43959122413071E+0000
 21
 1.14068575686724E+0000
  0
LINE
  8
1
  6
CONTINUOUS
 62
     1
 10
 7.49965806797991E+0000
 20
 1.10127311719953E+0000
 11
 7.45668108762038E+0000
 21
 1.14425009756087E+0000
  0
LINE
  8
1
  6
CONTINUOUS
 62
     1
 10
 7.52197616506601E+0000
 20
 1.09960922430218E+0000
 11
 7.47377095111005E+0000
 21
 1.14781443825450E+0000
  0
LINE
  8
1
  6
CONTINUOUS
 62
     1
 10
 7.52197616506601E+0000
 20
 1.12026342848731E+0000
 11
 7.49086081460700E+0000
 21
 1.15137877894813E+0000
  0
LINE
  8
1
  6
CONTINUOUS
 62
     1
 10
 7.52197616507328E+0000
 20
 1.14091763266879E+0000
 11
 7.50795067809668E+0000
 21
 1.15494311964176E+0000
  0
LINE
  8
1
  6
CONTINUOUS
 62
     1
 10
 7.52197616505873E+0000
 20
 1.10779180446480E+0000
 11
 7.51315442613850E+0000
 21
 1.09897006553911E+0000
  0
LINE
  8
1
  6
CONTINUOUS
 62
     1
 10
 7.52197616505873E+0000
 20
 1.12844600864628E+0000
 11
 7.49551094828348E+0000
 21
 1.10198079187103E+0000
  0
LINE
  8
1
  6
CONTINUOUS
 62
     1
 10
 7.52197616505873E+0000
 20
 1.14910021283140E+0000
 11
 7.47786747042846E+0000
 21
 1.10499151820295E+0000
  0
LINE
  8
1
  6
CONTINUOUS
 62
     1
 10
 7.50695778540830E+0000
 20
 1.15473603736791E+0000
 11
 7.46022399257345E+0000
 21
 1.10800224453487E+0000
  0
LINE
  8
1
  6
CONTINUOUS
 62
     1
 10
 7.48086064037489E+0000
 20
 1.14929309651961E+0000
 11
 7.44258051471843E+0000
 21
 1.11101297086498E+0000
  0
LINE
  8
1
  6
CONTINUOUS
 62
     1
 10
 7.45476349534874E+0000
 20
 1.14385015567677E+0000
 11
 7.42493703687069E+0000
 21
 1.11402369719690E+0000
  0
LINE
  8
1
  6
CONTINUOUS
 62
     1
 10
 7.42866635031532E+0000
 20
 1.13840721482848E+0000
 11
 7.40729355901567E+0000
 21
 1.11703442352882E+0000
  0
LINE
  8
1
  6
CONTINUOUS
 62
     1
 10
 7.40256920528191E+0000
 20
 1.13296427398382E+0000
 11
 7.38965008116065E+0000
 21
 1.12004514986074E+0000
  0
LINE
  8
1
  6
CONTINUOUS
 62
     1
 10
 7.37647206024849E+0000
 20
 1.12752133313552E+0000
 11
 7.37200660331291E+0000
 21
 1.12305587619812E+0000
  0
LINE
  8
1
  6
CONTINUOUS
 62
     1
 10
 7.36268683841627E+0000
 20
 1.12464622373955E+0000
 11
 7.36268683841627E+0000
 21
 1.12464622373955E+0000
  0
LINE
  8
1
  6
CONTINUOUS
 62
     1
 10
 7.36268683841627E+0000
 20
 1.12464622373955E+0000
 11
 7.52197616506601E+0000
 21
 1.09746470237587E+0000
  0
LINE
  8
1
  6
CONTINUOUS
 62
     1
 10
 7.52197616506601E+0000
 20
 1.09746470237587E+0000
 11
 7.52197616506601E+0000
 21
 1.15786833984748E+0000
  0
LINE
  8
1
  6
CONTINUOUS
 62
     1
 10
 7.52197616506601E+0000
 20
 1.15786833984748E+0000
 11
 7.36268683841627E+0000
 21
 1.12464622373955E+0000
  0
LINE
  8
1
  6
CONTINUOUS
 62
     1
 10
 7.52197616506601E+0000
 20
 1.09746470237587E+0000
 11
 7.52197616506601E+0000
 21
 1.15786833984748E+0000
  0
LINE
  8
1
  6
CONTINUOUS
 62
     1
 10
 7.37513876838057E+0000
 20
 1.12252139587326E+0000
 11
 7.37123177017202E+0000
 21
 1.12642839408727E+0000
  0
LINE
  8
1
  6
CONTINUOUS
 62
     1
 10
 7.40004262830189E+0000
 20
 1.11827174013706E+0000
 11
 7.38832163366169E+0000
 21
 1.12999273478090E+0000
  0
LINE
  8
1
  6
CONTINUOUS
 62
     1
 10
 7.42494648822321E+0000
 20
 1.11402208440268E+0000
 11
 7.40541149715136E+0000
 21
 1.13355707547453E+0000
  0
LINE
  8
1
  6
CONTINUOUS
 62
     1
 10
 7.44985034814454E+0000
 20
 1.10977242867193E+0000
 11
 7.42250136064104E+0000
 21
 1.13712141617361E+0000
  0
LINE
  8
1
  6
CONTINUOUS
 62
     1
 10
 7.47475420805858E+0000
 20
 1.10552277293573E+0000
 11
 7.43959122413071E+0000
 21
 1.14068575686724E+0000
  0
LINE
  8
1
  6
CONTINUOUS
 62
     1
 10
 7.49965806797991E+0000
 20
 1.10127311719953E+0000
 11
 7.45668108762038E+0000
 21
 1.14425009756087E+0000
  0
LINE
  8
1
  6
CONTINUOUS
 62
     1
 10
 7.52197616506601E+0000
 20
 1.09960922430218E+0000
 11
 7.47377095111005E+0000
 21
 1.14781443825450E+0000
  0
LINE
  8
1
  6
CONTINUOUS
 62
     1
 10
 7.52197616506601E+0000
 20
 1.12026342848731E+0000
 11
 7.49086081460700E+0000
 21
 1.15137877894813E+0000
  0
LINE
  8
1
  6
CONTINUOUS
 62
     1
 10
 7.52197616507328E+0000
 20
 1.14091763266879E+0000
 11
 7.50795067809668E+0000
 21
 1.15494311964176E+0000
  0
LINE
  8
1
  6
CONTINUOUS
 62
     1
 10
 7.52197616505873E+0000
 20
 1.10779180446480E+0000
 11
 7.51315442613850E+0000
 21
 1.09897006553911E+0000
  0
LINE
  8
1
  6
CONTINUOUS
 62
     1
 10
 7.52197616505873E+0000
 20
 1.12844600864628E+0000
 11
 7.49551094828348E+0000
 21
 1.10198079187103E+0000
  0
LINE
  8
1
  6
CONTINUOUS
 62
     1
 10
 7.52197616505873E+0000
 20
 1.14910021283140E+0000
 11
 7.47786747042846E+0000
 21
 1.10499151820295E+0000
  0
LINE
  8
1
  6
CONTINUOUS
 62
     1
 10
 7.50695778540830E+0000
 20
 1.15473603736791E+0000
 11
 7.46022399257345E+0000
 21
 1.10800224453487E+0000
  0
LINE
  8
1
  6
CONTINUOUS
 62
     1
 10
 7.48086064037489E+0000
 20
 1.14929309651961E+0000
 11
 7.44258051471843E+0000
 21
 1.11101297086498E+0000
  0
LINE
  8
1
  6
CONTINUOUS
 62
     1
 10
 7.45476349534874E+0000
 20
 1.14385015567677E+0000
 11
 7.42493703687069E+0000
 21
 1.11402369719690E+0000
  0
LINE
  8
1
  6
CONTINUOUS
 62
     1
 10
 7.42866635031532E+0000
 20
 1.13840721482848E+0000
 11
 7.40729355901567E+0000
 21
 1.11703442352882E+0000
  0
LINE
  8
1
  6
CONTINUOUS
 62
     1
 10
 7.40256920528191E+0000
 20
 1.13296427398382E+0000
 11
 7.38965008116065E+0000
 21
 1.12004514986074E+0000
  0
LINE
  8
1
  6
CONTINUOUS
 62
     1
 10
 7.37647206024849E+0000
 20
 1.12752133313552E+0000
 11
 7.37200660331291E+0000
 21
 1.12305587619812E+0000
  0
LINE
  8
1
  6
CONTINUOUS
 62
     1
 10
 8.02171890718455E+0000
 20
 1.12566912092734E+0000
 11
 8.02171890718455E+0000
 21
 1.12566912092734E+0000
  0
LINE
  8
1
  6
CONTINUOUS
 62
     1
 10
 8.02171890718455E+0000
 20
 1.12566912092734E+0000
 11
 7.86242958054936E+0000
 21
 1.15285064229101E+0000
  0
LINE
  8
1
  6
CONTINUOUS
 62
     1
 10
 7.86242958054936E+0000
 20
 1.15285064229101E+0000
 11
 7.86242958054936E+0000
 21
 1.09244700481941E+0000
  0
LINE
  8
1
  6
CONTINUOUS
 62
     1
 10
 7.86242958054936E+0000
 20
 1.09244700481941E+0000
 11
 8.02171890718455E+0000
 21
 1.12566912092734E+0000
  0
LINE
  8
1
  6
CONTINUOUS
 62
     1
 10
 7.86242958054936E+0000
 20
 1.15285064229101E+0000
 11
 7.86242958054936E+0000
 21
 1.09244700481941E+0000
  0
LINE
  8
1
  6
CONTINUOUS
 62
     1
 10
 7.87097451229783E+0000
 20
 1.09422917516895E+0000
 11
 7.86242958054936E+0000
 21
 1.10277410691560E+0000
  0
LINE
  8
1
  6
CONTINUOUS
 62
     1
 10
 7.88806437578751E+0000
 20
 1.09779351586258E+0000
 11
 7.86242958054936E+0000
 21
 1.12342831110072E+0000
  0
LINE
  8
1
  6
CONTINUOUS
 62
     1
 10
 7.90515423927718E+0000
 20
 1.10135785655621E+0000
 11
 7.86242958054936E+0000
 21
 1.14408251528585E+0000
  0
LINE
  8
1
  6
CONTINUOUS
 62
     1
 10
 7.92224410277413E+0000
 20
 1.10492219724983E+0000
 11
 7.87676124874270E+0000
 21
 1.15040505127763E+0000
  0
LINE
  8
1
  6
CONTINUOUS
 62
     1
 10
 7.93933396625653E+0000
 20
 1.10848653794892E+0000
 11
 7.90166510865674E+0000
 21
 1.14615539554688E+0000
  0
LINE
  8
1
  6
CONTINUOUS
 62
     1
 10
 7.95642382975348E+0000
 20
 1.11205087864255E+0000
 11
 7.92656896857807E+0000
 21
 1.14190573981250E+0000
  0
LINE
  8
1
  6
CONTINUOUS
 62
     1
 10
 7.97351369324315E+0000
 20
 1.11561521933618E+0000
 11
 7.95147282849939E+0000
 21
 1.13765608407630E+0000
  0
LINE
  8
1
  6
CONTINUOUS
 62
     1
 10
 7.99060355673282E+0000
 20
 1.11917956002981E+0000
 11
 7.97637668842071E+0000
 21
 1.13340642834009E+0000
  0
LINE
  8
1
  6
CONTINUOUS
 62
     1
 10
 8.00769342022249E+0000
 20
 1.12274390072344E+0000
 11
 8.00128054834204E+0000
 21
 1.12915677260571E+0000
  0
LINE
  8
1
  6
CONTINUOUS
 62
     1
 10
 8.01289716824249E+0000
 20
 1.12717448409239E+0000
 11
 8.00867033466056E+0000
 21
 1.12294765050501E+0000
  0
LINE
  8
1
  6
CONTINUOUS
 62
     1
 10
 7.99525369039475E+0000
 20
 1.13018521042432E+0000
 11
 7.98257318962715E+0000
 21
 1.11750470965671E+0000
  0
LINE
  8
1
  6
CONTINUOUS
 62
     1
 10
 7.97761021253973E+0000
 20
 1.13319593675624E+0000
 11
 7.95647604460100E+0000
 21
 1.11206176881205E+0000
  0
LINE
  8
1
  6
CONTINUOUS
 62
     1
 10
 7.95996673468471E+0000
 20
 1.13620666308816E+0000
 11
 7.93037889956031E+0000
 21
 1.10661882796376E+0000
  0
LINE
  8
1
  6
CONTINUOUS
 62
     1
 10
 7.94232325683697E+0000
 20
 1.13921738942554E+0000
 11
 7.90428175453417E+0000
 21
 1.10117588712092E+0000
  0
LINE
  8
1
  6
CONTINUOUS
 62
     1
 10
 7.92467977898195E+0000
 20
 1.14222811575564E+0000
 11
 7.87818460950075E+0000
 21
 1.09573294627262E+0000
  0
LINE
  8
1
  6
CONTINUOUS
 62
     1
 10
 7.90703630113421E+0000
 20
 1.14523884208756E+0000
 11
 7.86242958054208E+0000
 21
 1.10063212149907E+0000
  0
LINE
  8
1
  6
CONTINUOUS
 62
     1
 10
 7.88939282327920E+0000
 20
 1.14824956841949E+0000
 11
 7.86242958054208E+0000
 21
 1.12128632568420E+0000
  0
LINE
  8
1
  6
CONTINUOUS
 62
     1
 10
 7.87174934542418E+0000
 20
 1.15126029475141E+0000
 11
 7.86242958054208E+0000
 21
 1.14194052986932E+0000
  0
LINE
  8
1
  6
CONTINUOUS
 62
     1
 10
 8.02171890718455E+0000
 20
 1.12566912092734E+0000
 11
 8.02171890718455E+0000
 21
 1.12566912092734E+0000
  0
LINE
  8
1
  6
CONTINUOUS
 62
     1
 10
 8.02171890718455E+0000
 20
 1.12566912092734E+0000
 11
 7.86242958054936E+0000
 21
 1.15285064229101E+0000
  0
LINE
  8
1
  6
CONTINUOUS
 62
     1
 10
 7.86242958054936E+0000
 20
 1.15285064229101E+0000
 11
 7.86242958054936E+0000
 21
 1.09244700481941E+0000
  0
LINE
  8
1
  6
CONTINUOUS
 62
     1
 10
 7.86242958054936E+0000
 20
 1.09244700481941E+0000
 11
 8.02171890718455E+0000
 21
 1.12566912092734E+0000
  0
LINE
  8
1
  6
CONTINUOUS
 62
     1
 10
 7.86242958054936E+0000
 20
 1.15285064229101E+0000
 11
 7.86242958054936E+0000
 21
 1.09244700481941E+0000
  0
LINE
  8
1
  6
CONTINUOUS
 62
     1
 10
 7.87097451229783E+0000
 20
 1.09422917516895E+0000
 11
 7.86242958054936E+0000
 21
 1.10277410691560E+0000
  0
LINE
  8
1
  6
CONTINUOUS
 62
     1
 10
 7.88806437578751E+0000
 20
 1.09779351586258E+0000
 11
 7.86242958054936E+0000
 21
 1.12342831110072E+0000
  0
LINE
  8
1
  6
CONTINUOUS
 62
     1
 10
 7.90515423927718E+0000
 20
 1.10135785655621E+0000
 11
 7.86242958054936E+0000
 21
 1.14408251528585E+0000
  0
LINE
  8
1
  6
CONTINUOUS
 62
     1
 10
 7.92224410277413E+0000
 20
 1.10492219724983E+0000
 11
 7.87676124874270E+0000
 21
 1.15040505127763E+0000
  0
LINE
  8
1
  6
CONTINUOUS
 62
     1
 10
 7.93933396625653E+0000
 20
 1.10848653794892E+0000
 11
 7.90166510865674E+0000
 21
 1.14615539554688E+0000
  0
LINE
  8
1
  6
CONTINUOUS
 62
     1
 10
 7.95642382975348E+0000
 20
 1.11205087864255E+0000
 11
 7.92656896857807E+0000
 21
 1.14190573981250E+0000
  0
LINE
  8
1
  6
CONTINUOUS
 62
     1
 10
 7.97351369324315E+0000
 20
 1.11561521933618E+0000
 11
 7.95147282849939E+0000
 21
 1.13765608407630E+0000
  0
LINE
  8
1
  6
CONTINUOUS
 62
     1
 10
 7.99060355673282E+0000
 20
 1.11917956002981E+0000
 11
 7.97637668842071E+0000
 21
 1.13340642834009E+0000
  0
LINE
  8
1
  6
CONTINUOUS
 62
     1
 10
 8.00769342022249E+0000
 20
 1.12274390072344E+0000
 11
 8.00128054834204E+0000
 21
 1.12915677260571E+0000
  0
LINE
  8
1
  6
CONTINUOUS
 62
     1
 10
 8.01289716824249E+0000
 20
 1.12717448409239E+0000
 11
 8.00867033466056E+0000
 21
 1.12294765050501E+0000
  0
LINE
  8
1
  6
CONTINUOUS
 62
     1
 10
 7.99525369039475E+0000
 20
 1.13018521042432E+0000
 11
 7.98257318962715E+0000
 21
 1.11750470965671E+0000
  0
LINE
  8
1
  6
CONTINUOUS
 62
     1
 10
 7.97761021253973E+0000
 20
 1.13319593675624E+0000
 11
 7.95647604460100E+0000
 21
 1.11206176881205E+0000
  0
LINE
  8
1
  6
CONTINUOUS
 62
     1
 10
 7.95996673468471E+0000
 20
 1.13620666308816E+0000
 11
 7.93037889956031E+0000
 21
 1.10661882796376E+0000
  0
LINE
  8
1
  6
CONTINUOUS
 62
     1
 10
 7.94232325683697E+0000
 20
 1.13921738942554E+0000
 11
 7.90428175453417E+0000
 21
 1.10117588712092E+0000
  0
LINE
  8
1
  6
CONTINUOUS
 62
     1
 10
 7.92467977898195E+0000
 20
 1.14222811575564E+0000
 11
 7.87818460950075E+0000
 21
 1.09573294627262E+0000
  0
LINE
  8
1
  6
CONTINUOUS
 62
     1
 10
 7.90703630113421E+0000
 20
 1.14523884208756E+0000
 11
 7.86242958054208E+0000
 21
 1.10063212149907E+0000
  0
LINE
  8
1
  6
CONTINUOUS
 62
     1
 10
 7.88939282327920E+0000
 20
 1.14824956841949E+0000
 11
 7.86242958054208E+0000
 21
 1.12128632568420E+0000
  0
LINE
  8
1
  6
CONTINUOUS
 62
     1
 10
 7.87174934542418E+0000
 20
 1.15126029475141E+0000
 11
 7.86242958054208E+0000
 21
 1.14194052986932E+0000
  0
LINE
  8
1
  6
CONTINUOUS
 62
     1
 10
 7.81071436720958E+0000
 20
 1.43087379391000E+0000
 11
 7.81071436720958E+0000
 21
 1.43087379391000E+0000
  0
LINE
  8
1
  6
CONTINUOUS
 62
     1
 10
 7.81071436720958E+0000
 20
 1.43087379391000E+0000
 11
 7.97000369385933E+0000
 21
 1.40369227254632E+0000
  0
LINE
  8
1
  6
CONTINUOUS
 62
     1
 10
 7.97000369385933E+0000
 20
 1.40369227254632E+0000
 11
 7.97000369385933E+0000
 21
 1.46409591001793E+0000
  0
LINE
  8
1
  6
CONTINUOUS
 62
     1
 10
 7.97000369385933E+0000
 20
 1.46409591001793E+0000
 11
 7.81071436720958E+0000
 21
 1.43087379391000E+0000
  0
LINE
  8
1
  6
CONTINUOUS
 62
     1
 10
 7.97000369385933E+0000
 20
 1.40369227254632E+0000
 11
 7.97000369385933E+0000
 21
 1.46409591001793E+0000
  0
LINE
  8
1
  6
CONTINUOUS
 62
     1
 10
 7.82316629717388E+0000
 20
 1.42874896604553E+0000
 11
 7.81925929895806E+0000
 21
 1.43265596425954E+0000
  0
LINE
  8
1
  6
CONTINUOUS
 62
     1
 10
 7.84807015709521E+0000
 20
 1.42449931030933E+0000
 11
 7.83634916244773E+0000
 21
 1.43622030495317E+0000
  0
LINE
  8
1
  6
CONTINUOUS
 62
     1
 10
 7.87297401701653E+0000
 20
 1.42024965457313E+0000
 11
 7.85343902594468E+0000
 21
 1.43978464564680E+0000
  0
LINE
  8
1
  6
CONTINUOUS
 62
     1
 10
 7.89787787693786E+0000
 20
 1.41599999883874E+0000
 11
 7.87052888942708E+0000
 21
 1.44334898634588E+0000
  0
LINE
  8
1
  6
CONTINUOUS
 62
     1
 10
 7.92278173685918E+0000
 20
 1.41175034310254E+0000
 11
 7.88761875291675E+0000
 21
 1.44691332703951E+0000
  0
LINE
  8
1
  6
CONTINUOUS
 62
     1
 10
 7.94768559678050E+0000
 20
 1.40750068736634E+0000
 11
 7.90470861641370E+0000
 21
 1.45047766773314E+0000
  0
LINE
  8
1
  6
CONTINUOUS
 62
     1
 10
 7.97000369385933E+0000
 20
 1.40583679446900E+0000
 11
 7.92179847990337E+0000
 21
 1.45404200842677E+0000
  0
LINE
  8
1
  6
CONTINUOUS
 62
     1
 10
 7.97000369385933E+0000
 20
 1.42649099865412E+0000
 11
 7.93888834339305E+0000
 21
 1.45760634912040E+0000
  0
LINE
  8
1
  6
CONTINUOUS
 62
     1
 10
 7.97000369385933E+0000
 20
 1.44714520283924E+0000
 11
 7.95597820688999E+0000
 21
 1.46117068981403E+0000
  0
LINE
  8
1
  6
CONTINUOUS
 62
     1
 10
 7.97000369385205E+0000
 20
 1.41401937463706E+0000
 11
 7.96118195492454E+0000
 21
 1.40519763570956E+0000
  0
LINE
  8
1
  6
CONTINUOUS
 62
     1
 10
 7.97000369385205E+0000
 20
 1.43467357882218E+0000
 11
 7.94353847706952E+0000
 21
 1.40820836204148E+0000
  0
LINE
  8
1
  6
CONTINUOUS
 62
     1
 10
 7.97000369385205E+0000
 20
 1.45532778300731E+0000
 11
 7.92589499921451E+0000
 21
 1.41121908837340E+0000
  0
LINE
  8
1
  6
CONTINUOUS
 62
     1
 10
 7.95498531420162E+0000
 20
 1.46096360754564E+0000
 11
 7.90825152136676E+0000
 21
 1.41422981471078E+0000
  0
LINE
  8
1
  6
CONTINUOUS
 62
     1
 10
 7.92888816916820E+0000
 20
 1.45552066669552E+0000
 11
 7.89060804351902E+0000
 21
 1.41724054104270E+0000
  0
LINE
  8
1
  6
CONTINUOUS
 62
     1
 10
 7.90279102414206E+0000
 20
 1.45007772585268E+0000
 11
 7.87296456566401E+0000
 21
 1.42025126737462E+0000
  0
LINE
  8
1
  6
CONTINUOUS
 62
     1
 10
 7.87669387910864E+0000
 20
 1.44463478500438E+0000
 11
 7.85532108780899E+0000
 21
 1.42326199370655E+0000
  0
LINE
  8
1
  6
CONTINUOUS
 62
     1
 10
 7.85059673407522E+0000
 20
 1.43919184416154E+0000
 11
 7.83767760995397E+0000
 21
 1.42627272003847E+0000
  0
LINE
  8
1
  6
CONTINUOUS
 62
     1
 10
 7.82449958904181E+0000
 20
 1.43374890331324E+0000
 11
 7.82003413209895E+0000
 21
 1.42928344637039E+0000
  0
LINE
  8
1
  6
CONTINUOUS
 62
     1
 10
 7.81071436720958E+0000
 20
 1.43087379391000E+0000
 11
 7.81071436720958E+0000
 21
 1.43087379391000E+0000
  0
LINE
  8
1
  6
CONTINUOUS
 62
     1
 10
 7.81071436720958E+0000
 20
 1.43087379391000E+0000
 11
 7.97000369385933E+0000
 21
 1.40369227254632E+0000
  0
LINE
  8
1
  6
CONTINUOUS
 62
     1
 10
 7.97000369385933E+0000
 20
 1.40369227254632E+0000
 11
 7.97000369385933E+0000
 21
 1.46409591001793E+0000
  0
LINE
  8
1
  6
CONTINUOUS
 62
     1
 10
 7.97000369385933E+0000
 20
 1.46409591001793E+0000
 11
 7.81071436720958E+0000
 21
 1.43087379391000E+0000
  0
LINE
  8
1
  6
CONTINUOUS
 62
     1
 10
 7.97000369385933E+0000
 20
 1.40369227254632E+0000
 11
 7.97000369385933E+0000
 21
 1.46409591001793E+0000
  0
LINE
  8
1
  6
CONTINUOUS
 62
     1
 10
 7.82316629717388E+0000
 20
 1.42874896604553E+0000
 11
 7.81925929895806E+0000
 21
 1.43265596425954E+0000
  0
LINE
  8
1
  6
CONTINUOUS
 62
     1
 10
 7.84807015709521E+0000
 20
 1.42449931030933E+0000
 11
 7.83634916244773E+0000
 21
 1.43622030495317E+0000
  0
LINE
  8
1
  6
CONTINUOUS
 62
     1
 10
 7.87297401701653E+0000
 20
 1.42024965457313E+0000
 11
 7.85343902594468E+0000
 21
 1.43978464564680E+0000
  0
LINE
  8
1
  6
CONTINUOUS
 62
     1
 10
 7.89787787693786E+0000
 20
 1.41599999883874E+0000
 11
 7.87052888942708E+0000
 21
 1.44334898634588E+0000
  0
LINE
  8
1
  6
CONTINUOUS
 62
     1
 10
 7.92278173685918E+0000
 20
 1.41175034310254E+0000
 11
 7.88761875291675E+0000
 21
 1.44691332703951E+0000
  0
LINE
  8
1
  6
CONTINUOUS
 62
     1
 10
 7.94768559678050E+0000
 20
 1.40750068736634E+0000
 11
 7.90470861641370E+0000
 21
 1.45047766773314E+0000
  0
LINE
  8
1
  6
CONTINUOUS
 62
     1
 10
 7.97000369385933E+0000
 20
 1.40583679446900E+0000
 11
 7.92179847990337E+0000
 21
 1.45404200842677E+0000
  0
LINE
  8
1
  6
CONTINUOUS
 62
     1
 10
 7.97000369385933E+0000
 20
 1.42649099865412E+0000
 11
 7.93888834339305E+0000
 21
 1.45760634912040E+0000
  0
LINE
  8
1
  6
CONTINUOUS
 62
     1
 10
 7.97000369385933E+0000
 20
 1.44714520283924E+0000
 11
 7.95597820688999E+0000
 21
 1.46117068981403E+0000
  0
LINE
  8
1
  6
CONTINUOUS
 62
     1
 10
 7.97000369385205E+0000
 20
 1.41401937463706E+0000
 11
 7.96118195492454E+0000
 21
 1.40519763570956E+0000
  0
LINE
  8
1
  6
CONTINUOUS
 62
     1
 10
 7.97000369385205E+0000
 20
 1.43467357882218E+0000
 11
 7.94353847706952E+0000
 21
 1.40820836204148E+0000
  0
LINE
  8
1
  6
CONTINUOUS
 62
     1
 10
 7.97000369385205E+0000
 20
 1.45532778300731E+0000
 11
 7.92589499921451E+0000
 21
 1.41121908837340E+0000
  0
LINE
  8
1
  6
CONTINUOUS
 62
     1
 10
 7.95498531420162E+0000
 20
 1.46096360754564E+0000
 11
 7.90825152136676E+0000
 21
 1.41422981471078E+0000
  0
LINE
  8
1
  6
CONTINUOUS
 62
     1
 10
 7.92888816916820E+0000
 20
 1.45552066669552E+0000
 11
 7.89060804351902E+0000
 21
 1.41724054104270E+0000
  0
LINE
  8
1
  6
CONTINUOUS
 62
     1
 10
 7.90279102414206E+0000
 20
 1.45007772585268E+0000
 11
 7.87296456566401E+0000
 21
 1.42025126737462E+0000
  0
LINE
  8
1
  6
CONTINUOUS
 62
     1
 10
 7.87669387910864E+0000
 20
 1.44463478500438E+0000
 11
 7.85532108780899E+0000
 21
 1.42326199370655E+0000
  0
LINE
  8
1
  6
CONTINUOUS
 62
     1
 10
 7.85059673407522E+0000
 20
 1.43919184416154E+0000
 11
 7.83767760995397E+0000
 21
 1.42627272003847E+0000
  0
LINE
  8
1
  6
CONTINUOUS
 62
     1
 10
 7.82449958904181E+0000
 20
 1.43374890331324E+0000
 11
 7.82003413209895E+0000
 21
 1.42928344637039E+0000
  0
LINE
  8
1
  6
CONTINUOUS
 62
     1
 10
 7.34967761402368E+0000
 20
 1.43189669109779E+0000
 11
 7.34967761402368E+0000
 21
 1.43189669109779E+0000
  0
LINE
  8
1
  6
CONTINUOUS
 62
     1
 10
 7.34967761402368E+0000
 20
 1.43189669109779E+0000
 11
 7.19038828738849E+0000
 21
 1.45907821246146E+0000
  0
LINE
  8
1
  6
CONTINUOUS
 62
     1
 10
 7.19038828738849E+0000
 20
 1.45907821246146E+0000
 11
 7.19038828738849E+0000
 21
 1.39867457498985E+0000
  0
LINE
  8
1
  6
CONTINUOUS
 62
     1
 10
 7.19038828738849E+0000
 20
 1.39867457498985E+0000
 11
 7.34967761402368E+0000
 21
 1.43189669109779E+0000
  0
LINE
  8
1
  6
CONTINUOUS
 62
     1
 10
 7.19038828738849E+0000
 20
 1.45907821246146E+0000
 11
 7.19038828738849E+0000
 21
 1.39867457498985E+0000
  0
LINE
  8
1
  6
CONTINUOUS
 62
     1
 10
 7.19893321913696E+0000
 20
 1.40045674533576E+0000
 11
 7.19038828738849E+0000
 21
 1.40900167708241E+0000
  0
LINE
  8
1
  6
CONTINUOUS
 62
     1
 10
 7.21602308262663E+0000
 20
 1.40402108602939E+0000
 11
 7.19038828738849E+0000
 21
 1.42965588127299E+0000
  0
LINE
  8
1
  6
CONTINUOUS
 62
     1
 10
 7.23311294611631E+0000
 20
 1.40758542672847E+0000
 11
 7.19038828738849E+0000
 21
 1.45031008545811E+0000
  0
LINE
  8
1
  6
CONTINUOUS
 62
     1
 10
 7.25020280960598E+0000
 20
 1.41114976742210E+0000
 11
 7.20471995558182E+0000
 21
 1.45663262144990E+0000
  0
LINE
  8
1
  6
CONTINUOUS
 62
     1
 10
 7.26729267310293E+0000
 20
 1.41471410811573E+0000
 11
 7.22962381549587E+0000
 21
 1.45238296571915E+0000
  0
LINE
  8
1
  6
CONTINUOUS
 62
     1
 10
 7.28438253659260E+0000
 20
 1.41827844880936E+0000
 11
 7.25452767541719E+0000
 21
 1.44813330998477E+0000
  0
LINE
  8
1
  6
CONTINUOUS
 62
     1
 10
 7.30147240008228E+0000
 20
 1.42184278950299E+0000
 11
 7.27943153533852E+0000
 21
 1.44388365424857E+0000
  0
LINE
  8
1
  6
CONTINUOUS
 62
     1
 10
 7.31856226357195E+0000
 20
 1.42540713020207E+0000
 11
 7.30433539525984E+0000
 21
 1.43963399851236E+0000
  0
LINE
  8
1
  6
CONTINUOUS
 62
     1
 10
 7.33565212706162E+0000
 20
 1.42897147089570E+0000
 11
 7.32923925518116E+0000
 21
 1.43538434277798E+0000
  0
LINE
  8
1
  6
CONTINUOUS
 62
     1
 10
 7.34085587508889E+0000
 20
 1.43340205425920E+0000
 11
 7.33662904149969E+0000
 21
 1.42917522067182E+0000
  0
LINE
  8
1
  6
CONTINUOUS
 62
     1
 10
 7.32321239723387E+0000
 20
 1.43641278059113E+0000
 11
 7.31053189646627E+0000
 21
 1.42373227982353E+0000
  0
LINE
  8
1
  6
CONTINUOUS
 62
     1
 10
 7.30556891938613E+0000
 20
 1.43942350692851E+0000
 11
 7.28443475144013E+0000
 21
 1.41828933898068E+0000
  0
LINE
  8
1
  6
CONTINUOUS
 62
     1
 10
 7.28792544153112E+0000
 20
 1.44243423326043E+0000
 11
 7.25833760640671E+0000
 21
 1.41284639813239E+0000
  0
LINE
  8
1
  6
CONTINUOUS
 62
     1
 10
 7.27028196368337E+0000
 20
 1.44544495959235E+0000
 11
 7.23224046137329E+0000
 21
 1.40740345728773E+0000
  0
LINE
  8
1
  6
CONTINUOUS
 62
     1
 10
 7.25263848582836E+0000
 20
 1.44845568592427E+0000
 11
 7.20614331633988E+0000
 21
 1.40196051643943E+0000
  0
LINE
  8
1
  6
CONTINUOUS
 62
     1
 10
 7.23499500797334E+0000
 20
 1.45146641225620E+0000
 11
 7.19038828738121E+0000
 21
 1.40685969166589E+0000
  0
LINE
  8
1
  6
CONTINUOUS
 62
     1
 10
 7.21735153012560E+0000
 20
 1.45447713859176E+0000
 11
 7.19038828738121E+0000
 21
 1.42751389585101E+0000
  0
LINE
  8
1
  6
CONTINUOUS
 62
     1
 10
 7.19970805227058E+0000
 20
 1.45748786492368E+0000
 11
 7.19038828738121E+0000
 21
 1.44816810003067E+0000
  0
LINE
  8
1
  6
CONTINUOUS
 62
     1
 10
 7.34967761402368E+0000
 20
 1.43189669109779E+0000
 11
 7.34967761402368E+0000
 21
 1.43189669109779E+0000
  0
LINE
  8
1
  6
CONTINUOUS
 62
     1
 10
 7.34967761402368E+0000
 20
 1.43189669109779E+0000
 11
 7.19038828738849E+0000
 21
 1.45907821246146E+0000
  0
LINE
  8
1
  6
CONTINUOUS
 62
     1
 10
 7.19038828738849E+0000
 20
 1.45907821246146E+0000
 11
 7.19038828738849E+0000
 21
 1.39867457498985E+0000
  0
LINE
  8
1
  6
CONTINUOUS
 62
     1
 10
 7.19038828738849E+0000
 20
 1.39867457498985E+0000
 11
 7.34967761402368E+0000
 21
 1.43189669109779E+0000
  0
LINE
  8
1
  6
CONTINUOUS
 62
     1
 10
 7.19038828738849E+0000
 20
 1.45907821246146E+0000
 11
 7.19038828738849E+0000
 21
 1.39867457498985E+0000
  0
LINE
  8
1
  6
CONTINUOUS
 62
     1
 10
 7.19893321913696E+0000
 20
 1.40045674533576E+0000
 11
 7.19038828738849E+0000
 21
 1.40900167708241E+0000
  0
LINE
  8
1
  6
CONTINUOUS
 62
     1
 10
 7.21602308262663E+0000
 20
 1.40402108602939E+0000
 11
 7.19038828738849E+0000
 21
 1.42965588127299E+0000
  0
LINE
  8
1
  6
CONTINUOUS
 62
     1
 10
 7.23311294611631E+0000
 20
 1.40758542672847E+0000
 11
 7.19038828738849E+0000
 21
 1.45031008545811E+0000
  0
LINE
  8
1
  6
CONTINUOUS
 62
     1
 10
 7.25020280960598E+0000
 20
 1.41114976742210E+0000
 11
 7.20471995558182E+0000
 21
 1.45663262144990E+0000
  0
LINE
  8
1
  6
CONTINUOUS
 62
     1
 10
 7.26729267310293E+0000
 20
 1.41471410811573E+0000
 11
 7.22962381549587E+0000
 21
 1.45238296571915E+0000
  0
LINE
  8
1
  6
CONTINUOUS
 62
     1
 10
 7.28438253659260E+0000
 20
 1.41827844880936E+0000
 11
 7.25452767541719E+0000
 21
 1.44813330998477E+0000
  0
LINE
  8
1
  6
CONTINUOUS
 62
     1
 10
 7.30147240008228E+0000
 20
 1.42184278950299E+0000
 11
 7.27943153533852E+0000
 21
 1.44388365424857E+0000
  0
LINE
  8
1
  6
CONTINUOUS
 62
     1
 10
 7.31856226357195E+0000
 20
 1.42540713020207E+0000
 11
 7.30433539525984E+0000
 21
 1.43963399851236E+0000
  0
LINE
  8
1
  6
CONTINUOUS
 62
     1
 10
 7.33565212706162E+0000
 20
 1.42897147089570E+0000
 11
 7.32923925518116E+0000
 21
 1.43538434277798E+0000
  0
LINE
  8
1
  6
CONTINUOUS
 62
     1
 10
 7.34085587508889E+0000
 20
 1.43340205425920E+0000
 11
 7.33662904149969E+0000
 21
 1.42917522067182E+0000
  0
LINE
  8
1
  6
CONTINUOUS
 62
     1
 10
 7.32321239723387E+0000
 20
 1.43641278059113E+0000
 11
 7.31053189646627E+0000
 21
 1.42373227982353E+0000
  0
LINE
  8
1
  6
CONTINUOUS
 62
     1
 10
 7.30556891938613E+0000
 20
 1.43942350692851E+0000
 11
 7.28443475144013E+0000
 21
 1.41828933898068E+0000
  0
LINE
  8
1
  6
CONTINUOUS
 62
     1
 10
 7.28792544153112E+0000
 20
 1.44243423326043E+0000
 11
 7.25833760640671E+0000
 21
 1.41284639813239E+0000
  0
LINE
  8
1
  6
CONTINUOUS
 62
     1
 10
 7.27028196368337E+0000
 20
 1.44544495959235E+0000
 11
 7.23224046137329E+0000
 21
 1.40740345728773E+0000
  0
LINE
  8
1
  6
CONTINUOUS
 62
     1
 10
 7.25263848582836E+0000
 20
 1.44845568592427E+0000
 11
 7.20614331633988E+0000
 21
 1.40196051643943E+0000
  0
LINE
  8
1
  6
CONTINUOUS
 62
     1
 10
 7.23499500797334E+0000
 20
 1.45146641225620E+0000
 11
 7.19038828738121E+0000
 21
 1.40685969166589E+0000
  0
LINE
  8
1
  6
CONTINUOUS
 62
     1
 10
 7.21735153012560E+0000
 20
 1.45447713859176E+0000
 11
 7.19038828738121E+0000
 21
 1.42751389585101E+0000
  0
LINE
  8
1
  6
CONTINUOUS
 62
     1
 10
 7.19970805227058E+0000
 20
 1.45748786492368E+0000
 11
 7.19038828738121E+0000
 21
 1.44816810003067E+0000
  0
LINE
  8
1
  6
CONTINUOUS
 62
     1
 10
 7.33949517019209E+0000
 20
 1.73812426127552E+0000
 11
 7.33949517019209E+0000
 21
 1.73812426127552E+0000
  0
LINE
  8
1
  6
CONTINUOUS
 62
     1
 10
 7.33949517019209E+0000
 20
 1.73812426127552E+0000
 11
 7.18020584355691E+0000
 21
 1.76530578263919E+0000
  0
LINE
  8
1
  6
CONTINUOUS
 62
     1
 10
 7.18020584355691E+0000
 20
 1.76530578263919E+0000
 11
 7.18020584355691E+0000
 21
 1.70490214516758E+0000
  0
LINE
  8
1
  6
CONTINUOUS
 62
     1
 10
 7.18020584355691E+0000
 20
 1.70490214516758E+0000
 11
 7.33949517019209E+0000
 21
 1.73812426127552E+0000
  0
LINE
  8
1
  6
CONTINUOUS
 62
     1
 10
 7.18020584355691E+0000
 20
 1.76530578263919E+0000
 11
 7.18020584355691E+0000
 21
 1.70490214516758E+0000
  0
LINE
  8
1
  6
CONTINUOUS
 62
     1
 10
 7.18875077530538E+0000
 20
 1.70668431551348E+0000
 11
 7.18020584355691E+0000
 21
 1.71522924726014E+0000
  0
LINE
  8
1
  6
CONTINUOUS
 62
     1
 10
 7.20584063879505E+0000
 20
 1.71024865621075E+0000
 11
 7.18020584355691E+0000
 21
 1.73588345144162E+0000
  0
LINE
  8
1
  6
CONTINUOUS
 62
     1
 10
 7.22293050228473E+0000
 20
 1.71381299690438E+0000
 11
 7.18020584355691E+0000
 21
 1.75653765562856E+0000
  0
LINE
  8
1
  6
CONTINUOUS
 62
     1
 10
 7.24002036577440E+0000
 20
 1.71737733759801E+0000
 11
 7.19453751173569E+0000
 21
 1.76286019163490E+0000
  0
LINE
  8
1
  6
CONTINUOUS
 62
     1
 10
 7.25711022926407E+0000
 20
 1.72094167829346E+0000
 11
 7.21944137165701E+0000
 21
 1.75861053589870E+0000
  0
LINE
  8
1
  6
CONTINUOUS
 62
     1
 10
 7.27420009275374E+0000
 20
 1.72450601898709E+0000
 11
 7.24434523157834E+0000
 21
 1.75436088016431E+0000
  0
LINE
  8
1
  6
CONTINUOUS
 62
     1
 10
 7.29128995624342E+0000
 20
 1.72807035968435E+0000
 11
 7.26924909149966E+0000
 21
 1.75011122442811E+0000
  0
LINE
  8
1
  6
CONTINUOUS
 62
     1
 10
 7.30837981974037E+0000
 20
 1.73163470037798E+0000
 11
 7.29415295142098E+0000
 21
 1.74586156869191E+0000
  0
LINE
  8
1
  6
CONTINUOUS
 62
     1
 10
 7.32546968323004E+0000
 20
 1.73519904107343E+0000
 11
 7.31905681134231E+0000
 21
 1.74161191295752E+0000
  0
LINE
  8
1
  6
CONTINUOUS
 62
     1
 10
 7.33067343125731E+0000
 20
 1.73962962444239E+0000
 11
 7.32644659767539E+0000
 21
 1.73540279085319E+0000
  0
LINE
  8
1
  6
CONTINUOUS
 62
     1
 10
 7.31302995340957E+0000
 20
 1.74264035077249E+0000
 11
 7.30034945264197E+0000
 21
 1.72995985000489E+0000
  0
LINE
  8
1
  6
CONTINUOUS
 62
     1
 10
 7.29538647555455E+0000
 20
 1.74565107710441E+0000
 11
 7.27425230760855E+0000
 21
 1.72451690915659E+0000
  0
LINE
  8
1
  6
CONTINUOUS
 62
     1
 10
 7.27774299769953E+0000
 20
 1.74866180343633E+0000
 11
 7.24815516257513E+0000
 21
 1.71907396831375E+0000
  0
LINE
  8
1
  6
CONTINUOUS
 62
     1
 10
 7.26009951984452E+0000
 20
 1.75167252976826E+0000
 11
 7.22205801754171E+0000
 21
 1.71363102746545E+0000
  0
LINE
  8
1
  6
CONTINUOUS
 62
     1
 10
 7.24245604198950E+0000
 20
 1.75468325610018E+0000
 11
 7.19596087251557E+0000
 21
 1.70818808662261E+0000
  0
LINE
  8
1
  6
CONTINUOUS
 62
     1
 10
 7.22481256414176E+0000
 20
 1.75769398243210E+0000
 11
 7.18020584354963E+0000
 21
 1.71308726184179E+0000
  0
LINE
  8
1
  6
CONTINUOUS
 62
     1
 10
 7.20716908628674E+0000
 20
 1.76070470876402E+0000
 11
 7.18020584354963E+0000
 21
 1.73374146602691E+0000
  0
LINE
  8
1
  6
CONTINUOUS
 62
     1
 10
 7.18952560843172E+0000
 20
 1.76371543509595E+0000
 11
 7.18020584354963E+0000
 21
 1.75439567021385E+0000
  0
LINE
  8
1
  6
CONTINUOUS
 62
     1
 10
 7.33949517019209E+0000
 20
 1.73812426127552E+0000
 11
 7.33949517019209E+0000
 21
 1.73812426127552E+0000
  0
LINE
  8
1
  6
CONTINUOUS
 62
     1
 10
 7.33949517019209E+0000
 20
 1.73812426127552E+0000
 11
 7.18020584355691E+0000
 21
 1.76530578263919E+0000
  0
LINE
  8
1
  6
CONTINUOUS
 62
     1
 10
 7.18020584355691E+0000
 20
 1.76530578263919E+0000
 11
 7.18020584355691E+0000
 21
 1.70490214516758E+0000
  0
LINE
  8
1
  6
CONTINUOUS
 62
     1
 10
 7.18020584355691E+0000
 20
 1.70490214516758E+0000
 11
 7.33949517019209E+0000
 21
 1.73812426127552E+0000
  0
LINE
  8
1
  6
CONTINUOUS
 62
     1
 10
 7.18020584355691E+0000
 20
 1.76530578263919E+0000
 11
 7.18020584355691E+0000
 21
 1.70490214516758E+0000
  0
LINE
  8
1
  6
CONTINUOUS
 62
     1
 10
 7.18875077530538E+0000
 20
 1.70668431551348E+0000
 11
 7.18020584355691E+0000
 21
 1.71522924726014E+0000
  0
LINE
  8
1
  6
CONTINUOUS
 62
     1
 10
 7.20584063879505E+0000
 20
 1.71024865621075E+0000
 11
 7.18020584355691E+0000
 21
 1.73588345144162E+0000
  0
LINE
  8
1
  6
CONTINUOUS
 62
     1
 10
 7.22293050228473E+0000
 20
 1.71381299690438E+0000
 11
 7.18020584355691E+0000
 21
 1.75653765562856E+0000
  0
LINE
  8
1
  6
CONTINUOUS
 62
     1
 10
 7.24002036577440E+0000
 20
 1.71737733759801E+0000
 11
 7.19453751173569E+0000
 21
 1.76286019163490E+0000
  0
LINE
  8
1
  6
CONTINUOUS
 62
     1
 10
 7.25711022926407E+0000
 20
 1.72094167829346E+0000
 11
 7.21944137165701E+0000
 21
 1.75861053589870E+0000
  0
LINE
  8
1
  6
CONTINUOUS
 62
     1
 10
 7.27420009275374E+0000
 20
 1.72450601898709E+0000
 11
 7.24434523157834E+0000
 21
 1.75436088016431E+0000
  0
LINE
  8
1
  6
CONTINUOUS
 62
     1
 10
 7.29128995624342E+0000
 20
 1.72807035968435E+0000
 11
 7.26924909149966E+0000
 21
 1.75011122442811E+0000
  0
LINE
  8
1
  6
CONTINUOUS
 62
     1
 10
 7.30837981974037E+0000
 20
 1.73163470037798E+0000
 11
 7.29415295142098E+0000
 21
 1.74586156869191E+0000
  0
LINE
  8
1
  6
CONTINUOUS
 62
     1
 10
 7.32546968323004E+0000
 20
 1.73519904107343E+0000
 11
 7.31905681134231E+0000
 21
 1.74161191295752E+0000
  0
LINE
  8
1
  6
CONTINUOUS
 62
     1
 10
 7.33067343125731E+0000
 20
 1.73962962444239E+0000
 11
 7.32644659767539E+0000
 21
 1.73540279085319E+0000
  0
LINE
  8
1
  6
CONTINUOUS
 62
     1
 10
 7.31302995340957E+0000
 20
 1.74264035077249E+0000
 11
 7.30034945264197E+0000
 21
 1.72995985000489E+0000
  0
LINE
  8
1
  6
CONTINUOUS
 62
     1
 10
 7.29538647555455E+0000
 20
 1.74565107710441E+0000
 11
 7.27425230760855E+0000
 21
 1.72451690915659E+0000
  0
LINE
  8
1
  6
CONTINUOUS
 62
     1
 10
 7.27774299769953E+0000
 20
 1.74866180343633E+0000
 11
 7.24815516257513E+0000
 21
 1.71907396831375E+0000
  0
LINE
  8
1
  6
CONTINUOUS
 62
     1
 10
 7.26009951984452E+0000
 20
 1.75167252976826E+0000
 11
 7.22205801754171E+0000
 21
 1.71363102746545E+0000
  0
LINE
  8
1
  6
CONTINUOUS
 62
     1
 10
 7.24245604198950E+0000
 20
 1.75468325610018E+0000
 11
 7.19596087251557E+0000
 21
 1.70818808662261E+0000
  0
LINE
  8
1
  6
CONTINUOUS
 62
     1
 10
 7.22481256414176E+0000
 20
 1.75769398243210E+0000
 11
 7.18020584354963E+0000
 21
 1.71308726184179E+0000
  0
LINE
  8
1
  6
CONTINUOUS
 62
     1
 10
 7.20716908628674E+0000
 20
 1.76070470876402E+0000
 11
 7.18020584354963E+0000
 21
 1.73374146602691E+0000
  0
LINE
  8
1
  6
CONTINUOUS
 62
     1
 10
 7.18952560843172E+0000
 20
 1.76371543509595E+0000
 11
 7.18020584354963E+0000
 21
 1.75439567021385E+0000
  0
LINE
  8
1
  6
CONTINUOUS
 62
     1
 10
 7.63761282199266E+0000
 20
 1.73710136408772E+0000
 11
 7.63761282199266E+0000
 21
 1.73710136408772E+0000
  0
LINE
  8
1
  6
CONTINUOUS
 62
     1
 10
 7.63761282199266E+0000
 20
 1.73710136408772E+0000
 11
 7.79690214864240E+0000
 21
 1.70991984272405E+0000
  0
LINE
  8
1
  6
CONTINUOUS
 62
     1
 10
 7.79690214864240E+0000
 20
 1.70991984272405E+0000
 11
 7.79690214864240E+0000
 21
 1.77032348019566E+0000
  0
LINE
  8
1
  6
CONTINUOUS
 62
     1
 10
 7.79690214864240E+0000
 20
 1.77032348019566E+0000
 11
 7.63761282199266E+0000
 21
 1.73710136408772E+0000
  0
LINE
  8
1
  6
CONTINUOUS
 62
     1
 10
 7.79690214864240E+0000
 20
 1.70991984272405E+0000
 11
 7.79690214864240E+0000
 21
 1.77032348019566E+0000
  0
LINE
  8
1
  6
CONTINUOUS
 62
     1
 10
 7.65006475195696E+0000
 20
 1.73497653621780E+0000
 11
 7.64615775374114E+0000
 21
 1.73888353443181E+0000
  0
LINE
  8
1
  6
CONTINUOUS
 62
     1
 10
 7.67496861187828E+0000
 20
 1.73072688048160E+0000
 11
 7.66324761723081E+0000
 21
 1.74244787512544E+0000
  0
LINE
  8
1
  6
CONTINUOUS
 62
     1
 10
 7.69987247179233E+0000
 20
 1.72647722475085E+0000
 11
 7.68033748072048E+0000
 21
 1.74601221581906E+0000
  0
LINE
  8
1
  6
CONTINUOUS
 62
     1
 10
 7.72477633171366E+0000
 20
 1.72222756901465E+0000
 11
 7.69742734421015E+0000
 21
 1.74957655651815E+0000
  0
LINE
  8
1
  6
CONTINUOUS
 62
     1
 10
 7.74968019163498E+0000
 20
 1.71797791328027E+0000
 11
 7.71451720769983E+0000
 21
 1.75314089721178E+0000
  0
LINE
  8
1
  6
CONTINUOUS
 62
     1
 10
 7.77458405155630E+0000
 20
 1.71372825754406E+0000
 11
 7.73160707119678E+0000
 21
 1.75670523790541E+0000
  0
LINE
  8
1
  6
CONTINUOUS
 62
     1
 10
 7.79690214864968E+0000
 20
 1.71206436463581E+0000
 11
 7.74869693468645E+0000
 21
 1.76026957859904E+0000
  0
LINE
  8
1
  6
CONTINUOUS
 62
     1
 10
 7.79690214864968E+0000
 20
 1.73271856882093E+0000
 11
 7.76578679817612E+0000
 21
 1.76383391929267E+0000
  0
LINE
  8
1
  6
CONTINUOUS
 62
     1
 10
 7.79690214864240E+0000
 20
 1.75337277301151E+0000
 11
 7.78287666166580E+0000
 21
 1.76739825998629E+0000
  0
LINE
  8
1
  6
CONTINUOUS
 62
     1
 10
 7.79690214863513E+0000
 20
 1.72024694481479E+0000
 11
 7.78808040971489E+0000
 21
 1.71142520588728E+0000
  0
LINE
  8
1
  6
CONTINUOUS
 62
     1
 10
 7.79690214863513E+0000
 20
 1.74090114899445E+0000
 11
 7.77043693185988E+0000
 21
 1.71443593221920E+0000
  0
LINE
  8
1
  6
CONTINUOUS
 62
     1
 10
 7.79690214863513E+0000
 20
 1.76155535317957E+0000
 11
 7.75279345400486E+0000
 21
 1.71744665855113E+0000
  0
LINE
  8
1
  6
CONTINUOUS
 62
     1
 10
 7.78188376898470E+0000
 20
 1.76719117771609E+0000
 11
 7.73514997614984E+0000
 21
 1.72045738488305E+0000
  0
LINE
  8
1
  6
CONTINUOUS
 62
     1
 10
 7.75578662395128E+0000
 20
 1.76174823686779E+0000
 11
 7.71750649829482E+0000
 21
 1.72346811121497E+0000
  0
LINE
  8
1
  6
CONTINUOUS
 62
     1
 10
 7.72968947892514E+0000
 20
 1.75630529602495E+0000
 11
 7.69986302044708E+0000
 21
 1.72647883754689E+0000
  0
LINE
  8
1
  6
CONTINUOUS
 62
     1
 10
 7.70359233389172E+0000
 20
 1.75086235517665E+0000
 11
 7.68221954259207E+0000
 21
 1.72948956387881E+0000
  0
LINE
  8
1
  6
CONTINUOUS
 62
     1
 10
 7.67749518885830E+0000
 20
 1.74541941433381E+0000
 11
 7.66457606473705E+0000
 21
 1.73250029021074E+0000
  0
LINE
  8
1
  6
CONTINUOUS
 62
     1
 10
 7.65139804382488E+0000
 20
 1.73997647348551E+0000
 11
 7.64693258688931E+0000
 21
 1.73551101654630E+0000
  0
LINE
  8
1
  6
CONTINUOUS
 62
     1
 10
 7.63761282199266E+0000
 20
 1.73710136408772E+0000
 11
 7.63761282199266E+0000
 21
 1.73710136408772E+0000
  0
LINE
  8
1
  6
CONTINUOUS
 62
     1
 10
 7.63761282199266E+0000
 20
 1.73710136408772E+0000
 11
 7.79690214864240E+0000
 21
 1.70991984272405E+0000
  0
LINE
  8
1
  6
CONTINUOUS
 62
     1
 10
 7.79690214864240E+0000
 20
 1.70991984272405E+0000
 11
 7.79690214864240E+0000
 21
 1.77032348019566E+0000
  0
LINE
  8
1
  6
CONTINUOUS
 62
     1
 10
 7.79690214864240E+0000
 20
 1.77032348019566E+0000
 11
 7.63761282199266E+0000
 21
 1.73710136408772E+0000
  0
LINE
  8
1
  6
CONTINUOUS
 62
     1
 10
 7.79690214864240E+0000
 20
 1.70991984272405E+0000
 11
 7.79690214864240E+0000
 21
 1.77032348019566E+0000
  0
LINE
  8
1
  6
CONTINUOUS
 62
     1
 10
 7.65006475195696E+0000
 20
 1.73497653621780E+0000
 11
 7.64615775374114E+0000
 21
 1.73888353443181E+0000
  0
LINE
  8
1
  6
CONTINUOUS
 62
     1
 10
 7.67496861187828E+0000
 20
 1.73072688048160E+0000
 11
 7.66324761723081E+0000
 21
 1.74244787512544E+0000
  0
LINE
  8
1
  6
CONTINUOUS
 62
     1
 10
 7.69987247179233E+0000
 20
 1.72647722475085E+0000
 11
 7.68033748072048E+0000
 21
 1.74601221581906E+0000
  0
LINE
  8
1
  6
CONTINUOUS
 62
     1
 10
 7.72477633171366E+0000
 20
 1.72222756901465E+0000
 11
 7.69742734421015E+0000
 21
 1.74957655651815E+0000
  0
LINE
  8
1
  6
CONTINUOUS
 62
     1
 10
 7.74968019163498E+0000
 20
 1.71797791328027E+0000
 11
 7.71451720769983E+0000
 21
 1.75314089721178E+0000
  0
LINE
  8
1
  6
CONTINUOUS
 62
     1
 10
 7.77458405155630E+0000
 20
 1.71372825754406E+0000
 11
 7.73160707119678E+0000
 21
 1.75670523790541E+0000
  0
LINE
  8
1
  6
CONTINUOUS
 62
     1
 10
 7.79690214864968E+0000
 20
 1.71206436463581E+0000
 11
 7.74869693468645E+0000
 21
 1.76026957859904E+0000
  0
LINE
  8
1
  6
CONTINUOUS
 62
     1
 10
 7.79690214864968E+0000
 20
 1.73271856882093E+0000
 11
 7.76578679817612E+0000
 21
 1.76383391929267E+0000
  0
LINE
  8
1
  6
CONTINUOUS
 62
     1
 10
 7.79690214864240E+0000
 20
 1.75337277301151E+0000
 11
 7.78287666166580E+0000
 21
 1.76739825998629E+0000
  0
LINE
  8
1
  6
CONTINUOUS
 62
     1
 10
 7.79690214863513E+0000
 20
 1.72024694481479E+0000
 11
 7.78808040971489E+0000
 21
 1.71142520588728E+0000
  0
LINE
  8
1
  6
CONTINUOUS
 62
     1
 10
 7.79690214863513E+0000
 20
 1.74090114899445E+0000
 11
 7.77043693185988E+0000
 21
 1.71443593221920E+0000
  0
LINE
  8
1
  6
CONTINUOUS
 62
     1
 10
 7.79690214863513E+0000
 20
 1.76155535317957E+0000
 11
 7.75279345400486E+0000
 21
 1.71744665855113E+0000
  0
LINE
  8
1
  6
CONTINUOUS
 62
     1
 10
 7.78188376898470E+0000
 20
 1.76719117771609E+0000
 11
 7.73514997614984E+0000
 21
 1.72045738488305E+0000
  0
LINE
  8
1
  6
CONTINUOUS
 62
     1
 10
 7.75578662395128E+0000
 20
 1.76174823686779E+0000
 11
 7.71750649829482E+0000
 21
 1.72346811121497E+0000
  0
LINE
  8
1
  6
CONTINUOUS
 62
     1
 10
 7.72968947892514E+0000
 20
 1.75630529602495E+0000
 11
 7.69986302044708E+0000
 21
 1.72647883754689E+0000
  0
LINE
  8
1
  6
CONTINUOUS
 62
     1
 10
 7.70359233389172E+0000
 20
 1.75086235517665E+0000
 11
 7.68221954259207E+0000
 21
 1.72948956387881E+0000
  0
LINE
  8
1
  6
CONTINUOUS
 62
     1
 10
 7.67749518885830E+0000
 20
 1.74541941433381E+0000
 11
 7.66457606473705E+0000
 21
 1.73250029021074E+0000
  0
LINE
  8
1
  6
CONTINUOUS
 62
     1
 10
 7.65139804382488E+0000
 20
 1.73997647348551E+0000
 11
 7.64693258688931E+0000
 21
 1.73551101654630E+0000
  0
LINE
  8
1
  6
CONTINUOUS
 62
     1
 10
 1.04821365991666E+0000
 20
 6.14340331608400E+0000
 11
 1.04821365991666E+0000
 21
 6.14340331608400E+0000
  0
LINE
  8
1
  6
CONTINUOUS
 62
     1
 10
 1.04821365991666E+0000
 20
 6.14340331608400E+0000
 11
 1.02103213855298E+0000
 21
 5.98411398945609E+0000
  0
LINE
  8
1
  6
CONTINUOUS
 62
     1
 10
 1.02103213855298E+0000
 20
 5.98411398945609E+0000
 11
 1.08143577602459E+0000
 21
 5.98411398945609E+0000
  0
LINE
  8
1
  6
CONTINUOUS
 62
     1
 10
 1.08143577602459E+0000
 20
 5.98411398945609E+0000
 11
 1.04821365991666E+0000
 21
 6.14340331608400E+0000
  0
LINE
  8
1
  6
CONTINUOUS
 62
     1
 10
 1.02103213855298E+0000
 20
 5.98411398945609E+0000
 11
 1.08143577602459E+0000
 21
 5.98411398945609E+0000
  0
LINE
  8
1
  6
CONTINUOUS
 62
     1
 10
 1.03135924064736E+0000
 20
 5.98411398946337E+0000
 11
 1.02253750171985E+0000
 21
 5.99293572839088E+0000
  0
LINE
  8
1
  6
CONTINUOUS
 62
     1
 10
 1.05201344483430E+0000
 20
 5.98411398945609E+0000
 11
 1.02554822805178E+0000
 21
 6.01057920623862E+0000
  0
LINE
  8
1
  6
CONTINUOUS
 62
     1
 10
 1.07266764902124E+0000
 20
 5.98411398945609E+0000
 11
 1.02855895438734E+0000
 21
 6.02822268409363E+0000
  0
LINE
  8
1
  6
CONTINUOUS
 62
     1
 10
 1.07830347354502E+0000
 20
 5.99913236912107E+0000
 11
 1.03156968071926E+0000
 21
 6.04586616194865E+0000
  0
LINE
  8
1
  6
CONTINUOUS
 62
     1
 10
 1.07286053269672E+0000
 20
 6.02522951415449E+0000
 11
 1.03458040704936E+0000
 21
 6.06350963980367E+0000
  0
LINE
  8
1
  6
CONTINUOUS
 62
     1
 10
 1.06741759185024E+0000
 20
 6.05132665918791E+0000
 11
 1.03759113338492E+0000
 21
 6.08115311765141E+0000
  0
LINE
  8
1
  6
CONTINUOUS
 62
     1
 10
 1.06197465100377E+0000
 20
 6.07742380421405E+0000
 11
 1.04060185971684E+0000
 21
 6.09879659550643E+0000
  0
LINE
  8
1
  6
CONTINUOUS
 62
     1
 10
 1.05653171015911E+0000
 20
 6.10352094924747E+0000
 11
 1.04361258604877E+0000
 21
 6.11644007336145E+0000
  0
LINE
  8
1
  6
CONTINUOUS
 62
     1
 10
 1.05108876931081E+0000
 20
 6.12961809428089E+0000
 11
 1.04662331238251E+0000
 21
 6.13408355120919E+0000
  0
LINE
  8
1
  6
CONTINUOUS
 62
     1
 10
 1.07965360567505E+0000
 20
 5.99265892119729E+0000
 11
 1.07110867393021E+0000
 21
 5.98411398944882E+0000
  0
LINE
  8
1
  6
CONTINUOUS
 62
     1
 10
 1.07608926498142E+0000
 20
 6.00974878468696E+0000
 11
 1.05045446974327E+0000
 21
 5.98411398944882E+0000
  0
LINE
  8
1
  6
CONTINUOUS
 62
     1
 10
 1.07252492428233E+0000
 20
 6.02683864817664E+0000
 11
 1.02980026555815E+0000
 21
 5.98411398944882E+0000
  0
LINE
  8
1
  6
CONTINUOUS
 62
     1
 10
 1.06896058358871E+0000
 20
 6.04392851166631E+0000
 11
 1.02347772956091E+0000
 21
 5.99844565763487E+0000
  0
LINE
  8
1
  6
CONTINUOUS
 62
     1
 10
 1.06539624289508E+0000
 20
 6.06101837515598E+0000
 11
 1.02772738529711E+0000
 21
 6.02334951755620E+0000
  0
LINE
  8
1
  6
CONTINUOUS
 62
     1
 10
 1.06183190220145E+0000
 20
 6.07810823864565E+0000
 11
 1.03197704102786E+0000
 21
 6.04825337747752E+0000
  0
LINE
  8
1
  6
CONTINUOUS
 62
     1
 10
 1.05826756150236E+0000
 20
 6.09519810213533E+0000
 11
 1.03622669676406E+0000
 21
 6.07315723739885E+0000
  0
LINE
  8
1
  6
CONTINUOUS
 62
     1
 10
 1.05470322080873E+0000
 20
 6.11228796562500E+0000
 11
 1.04047635249844E+0000
 21
 6.09806109731289E+0000
  0
LINE
  8
1
  6
CONTINUOUS
 62
     1
 10
 1.05113888011510E+0000
 20
 6.12937782912195E+0000
 11
 1.04472600823465E+0000
 21
 6.12296495723422E+0000
  0
LINE
  8
1
  6
CONTINUOUS
 62
     1
 10
 1.04551238361455E+0000
 20
 2.20299266785878E+0000
 11
 1.04551238361455E+0000
 21
 2.20299266785878E+0000
  0
LINE
  8
1
  6
CONTINUOUS
 62
     1
 10
 1.04551238361455E+0000
 20
 2.20299266785878E+0000
 11
 1.07269390497822E+0000
 21
 2.36228199448669E+0000
  0
LINE
  8
1
  6
CONTINUOUS
 62
     1
 10
 1.07269390497822E+0000
 20
 2.36228199448669E+0000
 11
 1.01229026750661E+0000
 21
 2.36228199448669E+0000
  0
LINE
  8
1
  6
CONTINUOUS
 62
     1
 10
 1.01229026750661E+0000
 20
 2.36228199448669E+0000
 11
 1.04551238361455E+0000
 21
 2.20299266785878E+0000
  0
LINE
  8
1
  6
CONTINUOUS
 62
     1
 10
 1.07269390497822E+0000
 20
 2.36228199448669E+0000
 11
 1.01229026750661E+0000
 21
 2.36228199448669E+0000
  0
LINE
  8
1
  6
CONTINUOUS
 62
     1
 10
 1.04701774678142E+0000
 20
 2.21181440678629E+0000
 11
 1.04279091319222E+0000
 21
 2.21604124037549E+0000
  0
LINE
  8
1
  6
CONTINUOUS
 62
     1
 10
 1.05002847311334E+0000
 20
 2.22945788463767E+0000
 11
 1.03734797234574E+0000
 21
 2.24213838540891E+0000
  0
LINE
  8
1
  6
CONTINUOUS
 62
     1
 10
 1.05303919944708E+0000
 20
 2.24710136249269E+0000
 11
 1.03190503149744E+0000
 21
 2.26823553043869E+0000
  0
LINE
  8
1
  6
CONTINUOUS
 62
     1
 10
 1.05604992577901E+0000
 20
 2.26474484034406E+0000
 11
 1.02646209065097E+0000
 21
 2.29433267547211E+0000
  0
LINE
  8
1
  6
CONTINUOUS
 62
     1
 10
 1.05906065211093E+0000
 20
 2.28238831819544E+0000
 11
 1.02101914980449E+0000
 21
 2.32042982050552E+0000
  0
LINE
  8
1
  6
CONTINUOUS
 62
     1
 10
 1.06207137844467E+0000
 20
 2.30003179605046E+0000
 11
 1.01557620895801E+0000
 21
 2.34652696553530E+0000
  0
LINE
  8
1
  6
CONTINUOUS
 62
     1
 10
 1.06508210477659E+0000
 20
 2.31767527390184E+0000
 11
 1.02047538419356E+0000
 21
 2.36228199448669E+0000
  0
LINE
  8
1
  6
CONTINUOUS
 62
     1
 10
 1.06809283110852E+0000
 20
 2.33531875175686E+0000
 11
 1.04112958837868E+0000
 21
 2.36228199448669E+0000
  0
LINE
  8
1
  6
CONTINUOUS
 62
     1
 10
 1.07110355744226E+0000
 20
 2.35296222960824E+0000
 11
 1.06178379256198E+0000
 21
 2.36228199448669E+0000
  0
LINE
  8
1
  6
CONTINUOUS
 62
     1
 10
 1.04763721148265E+0000
 20
 2.21544459781944E+0000
 11
 1.04373021326683E+0000
 21
 2.21153759960362E+0000
  0
LINE
  8
1
  6
CONTINUOUS
 62
     1
 10
 1.05188686721704E+0000
 20
 2.24034845774077E+0000
 11
 1.04016587257138E+0000
 21
 2.22862746309329E+0000
  0
LINE
  8
1
  6
CONTINUOUS
 62
     1
 10
 1.05613652295324E+0000
 20
 2.26525231766209E+0000
 11
 1.03660153187775E+0000
 21
 2.24571732658660E+0000
  0
LINE
  8
1
  6
CONTINUOUS
 62
     1
 10
 1.06038617868580E+0000
 20
 2.29015617757977E+0000
 11
 1.03303719118230E+0000
 21
 2.26280719007264E+0000
  0
LINE
  8
1
  6
CONTINUOUS
 62
     1
 10
 1.06463583442201E+0000
 20
 2.31506003750110E+0000
 11
 1.02947285048867E+0000
 21
 2.27989705356595E+0000
  0
LINE
  8
1
  6
CONTINUOUS
 62
     1
 10
 1.06888549015821E+0000
 20
 2.33996389742242E+0000
 11
 1.02590850979141E+0000
 21
 2.29698691705562E+0000
  0
LINE
  8
1
  6
CONTINUOUS
 62
     1
 10
 1.07054938303736E+0000
 20
 2.36228199448669E+0000
 11
 1.02234416909778E+0000
 21
 2.31407678054529E+0000
  0
LINE
  8
1
  6
CONTINUOUS
 62
     1
 10
 1.04989517885224E+0000
 20
 2.36228199448669E+0000
 11
 1.01877982840233E+0000
 21
 2.33116664403497E+0000
  0
LINE
  8
1
  6
CONTINUOUS
 62
     1
 10
 1.02924097466712E+0000
 20
 2.36228199448669E+0000
 11
 1.01521548770870E+0000
 21
 2.34825650752828E+0000
  0
LINE
  8
1
  6
CONTINUOUS
 62
     1
 10
 5.51966450413602E+0000
 20
 2.24748064771120E+0000
 11
 5.51966450413602E+0000
 21
 2.24748064771120E+0000
  0
LINE
  8
1
  6
CONTINUOUS
 62
     1
 10
 5.51966450413602E+0000
 20
 2.24748064771120E+0000
 11
 5.67895383078576E+0000
 21
 2.22029912634753E+0000
  0
LINE
  8
1
  6
CONTINUOUS
 62
     1
 10
 5.67895383078576E+0000
 20
 2.22029912634753E+0000
 11
 5.67895383078576E+0000
 21
 2.28070276381914E+0000
  0
LINE
  8
1
  6
CONTINUOUS
 62
     1
 10
 5.67895383078576E+0000
 20
 2.28070276381914E+0000
 11
 5.51966450413602E+0000
 21
 2.24748064771120E+0000
  0
LINE
  8
1
  6
CONTINUOUS
 62
     1
 10
 5.67895383078576E+0000
 20
 2.22029912634753E+0000
 11
 5.67895383078576E+0000
 21
 2.28070276381914E+0000
  0
LINE
  8
1
  6
CONTINUOUS
 62
     1
 10
 5.53211643410032E+0000
 20
 2.24535581984674E+0000
 11
 5.52820943588449E+0000
 21
 2.24926281805892E+0000
  0
LINE
  8
1
  6
CONTINUOUS
 62
     1
 10
 5.55702029402164E+0000
 20
 2.24110616411053E+0000
 11
 5.54529929937416E+0000
 21
 2.25282715875437E+0000
  0
LINE
  8
1
  6
CONTINUOUS
 62
     1
 10
 5.58192415394296E+0000
 20
 2.23685650837797E+0000
 11
 5.56238916287111E+0000
 21
 2.25639149944982E+0000
  0
LINE
  8
1
  6
CONTINUOUS
 62
     1
 10
 5.60682801386429E+0000
 20
 2.23260685264177E+0000
 11
 5.57947902636079E+0000
 21
 2.25995584014163E+0000
  0
LINE
  8
1
  6
CONTINUOUS
 62
     1
 10
 5.63173187378561E+0000
 20
 2.22835719690556E+0000
 11
 5.59656888985046E+0000
 21
 2.26352018084071E+0000
  0
LINE
  8
1
  6
CONTINUOUS
 62
     1
 10
 5.65663573370693E+0000
 20
 2.22410754116936E+0000
 11
 5.61365875334013E+0000
 21
 2.26708452153252E+0000
  0
LINE
  8
1
  6
CONTINUOUS
 62
     1
 10
 5.67895383078576E+0000
 20
 2.22244364827202E+0000
 11
 5.63074861682981E+0000
 21
 2.27064886222797E+0000
  0
LINE
  8
1
  6
CONTINUOUS
 62
     1
 10
 5.67895383078576E+0000
 20
 2.24309785245714E+0000
 11
 5.64783848031948E+0000
 21
 2.27421320292342E+0000
  0
LINE
  8
1
  6
CONTINUOUS
 62
     1
 10
 5.67895383078576E+0000
 20
 2.26375205663862E+0000
 11
 5.66492834380915E+0000
 21
 2.27777754361523E+0000
  0
LINE
  8
1
  6
CONTINUOUS
 62
     1
 10
 5.67895383077848E+0000
 20
 2.23062622843645E+0000
 11
 5.67013209185825E+0000
 21
 2.22180448951258E+0000
  0
LINE
  8
1
  6
CONTINUOUS
 62
     1
 10
 5.67895383077848E+0000
 20
 2.25128043262157E+0000
 11
 5.65248861400323E+0000
 21
 2.22481521584268E+0000
  0
LINE
  8
1
  6
CONTINUOUS
 62
     1
 10
 5.67895383077848E+0000
 20
 2.27193463680669E+0000
 11
 5.63484513614821E+0000
 21
 2.22782594217279E+0000
  0
LINE
  8
1
  6
CONTINUOUS
 62
     1
 10
 5.66393545112078E+0000
 20
 2.27757046133411E+0000
 11
 5.61720165829320E+0000
 21
 2.23083666850653E+0000
  0
LINE
  8
1
  6
CONTINUOUS
 62
     1
 10
 5.63783830609464E+0000
 20
 2.27212752049309E+0000
 11
 5.59955818043818E+0000
 21
 2.23384739483663E+0000
  0
LINE
  8
1
  6
CONTINUOUS
 62
     1
 10
 5.61174116106122E+0000
 20
 2.26668457964479E+0000
 11
 5.58191470259044E+0000
 21
 2.23685812117037E+0000
  0
LINE
  8
1
  6
CONTINUOUS
 62
     1
 10
 5.58564401603508E+0000
 20
 2.26124163880013E+0000
 11
 5.56427122473542E+0000
 21
 2.23986884750047E+0000
  0
LINE
  8
1
  6
CONTINUOUS
 62
     1
 10
 5.55954687100166E+0000
 20
 2.25579869795547E+0000
 11
 5.54662774688040E+0000
 21
 2.24287957383422E+0000
  0
LINE
  8
1
  6
CONTINUOUS
 62
     1
 10
 5.53344972596824E+0000
 20
 2.25035575710717E+0000
 11
 5.52898426903266E+0000
 21
 2.24589030017160E+0000
  0
LINE
  8
1
  6
CONTINUOUS
 62
     1
 10
 5.51966450413602E+0000
 20
 2.24748064771120E+0000
 11
 5.51966450413602E+0000
 21
 2.24748064771120E+0000
  0
LINE
  8
1
  6
CONTINUOUS
 62
     1
 10
 5.51966450413602E+0000
 20
 2.24748064771120E+0000
 11
 5.67895383078576E+0000
 21
 2.22029912634753E+0000
  0
LINE
  8
1
  6
CONTINUOUS
 62
     1
 10
 5.67895383078576E+0000
 20
 2.22029912634753E+0000
 11
 5.67895383078576E+0000
 21
 2.28070276381914E+0000
  0
LINE
  8
1
  6
CONTINUOUS
 62
     1
 10
 5.67895383078576E+0000
 20
 2.28070276381914E+0000
 11
 5.51966450413602E+0000
 21
 2.24748064771120E+0000
  0
LINE
  8
1
  6
CONTINUOUS
 62
     1
 10
 5.67895383078576E+0000
 20
 2.22029912634753E+0000
 11
 5.67895383078576E+0000
 21
 2.28070276381914E+0000
  0
LINE
  8
1
  6
CONTINUOUS
 62
     1
 10
 5.53211643410032E+0000
 20
 2.24535581984674E+0000
 11
 5.52820943588449E+0000
 21
 2.24926281805892E+0000
  0
LINE
  8
1
  6
CONTINUOUS
 62
     1
 10
 5.55702029402164E+0000
 20
 2.24110616411053E+0000
 11
 5.54529929937416E+0000
 21
 2.25282715875437E+0000
  0
LINE
  8
1
  6
CONTINUOUS
 62
     1
 10
 5.58192415394296E+0000
 20
 2.23685650837797E+0000
 11
 5.56238916287111E+0000
 21
 2.25639149944982E+0000
  0
LINE
  8
1
  6
CONTINUOUS
 62
     1
 10
 5.60682801386429E+0000
 20
 2.23260685264177E+0000
 11
 5.57947902636079E+0000
 21
 2.25995584014163E+0000
  0
LINE
  8
1
  6
CONTINUOUS
 62
     1
 10
 5.63173187378561E+0000
 20
 2.22835719690556E+0000
 11
 5.59656888985046E+0000
 21
 2.26352018084071E+0000
  0
LINE
  8
1
  6
CONTINUOUS
 62
     1
 10
 5.65663573370693E+0000
 20
 2.22410754116936E+0000
 11
 5.61365875334013E+0000
 21
 2.26708452153252E+0000
  0
LINE
  8
1
  6
CONTINUOUS
 62
     1
 10
 5.67895383078576E+0000
 20
 2.22244364827202E+0000
 11
 5.63074861682981E+0000
 21
 2.27064886222797E+0000
  0
LINE
  8
1
  6
CONTINUOUS
 62
     1
 10
 5.67895383078576E+0000
 20
 2.24309785245714E+0000
 11
 5.64783848031948E+0000
 21
 2.27421320292342E+0000
  0
LINE
  8
1
  6
CONTINUOUS
 62
     1
 10
 5.67895383078576E+0000
 20
 2.26375205663862E+0000
 11
 5.66492834380915E+0000
 21
 2.27777754361523E+0000
  0
LINE
  8
1
  6
CONTINUOUS
 62
     1
 10
 5.67895383077848E+0000
 20
 2.23062622843645E+0000
 11
 5.67013209185825E+0000
 21
 2.22180448951258E+0000
  0
LINE
  8
1
  6
CONTINUOUS
 62
     1
 10
 5.67895383077848E+0000
 20
 2.25128043262157E+0000
 11
 5.65248861400323E+0000
 21
 2.22481521584268E+0000
  0
LINE
  8
1
  6
CONTINUOUS
 62
     1
 10
 5.67895383077848E+0000
 20
 2.27193463680669E+0000
 11
 5.63484513614821E+0000
 21
 2.22782594217279E+0000
  0
LINE
  8
1
  6
CONTINUOUS
 62
     1
 10
 5.66393545112078E+0000
 20
 2.27757046133411E+0000
 11
 5.61720165829320E+0000
 21
 2.23083666850653E+0000
  0
LINE
  8
1
  6
CONTINUOUS
 62
     1
 10
 5.63783830609464E+0000
 20
 2.27212752049309E+0000
 11
 5.59955818043818E+0000
 21
 2.23384739483663E+0000
  0
LINE
  8
1
  6
CONTINUOUS
 62
     1
 10
 5.61174116106122E+0000
 20
 2.26668457964479E+0000
 11
 5.58191470259044E+0000
 21
 2.23685812117037E+0000
  0
LINE
  8
1
  6
CONTINUOUS
 62
     1
 10
 5.58564401603508E+0000
 20
 2.26124163880013E+0000
 11
 5.56427122473542E+0000
 21
 2.23986884750047E+0000
  0
LINE
  8
1
  6
CONTINUOUS
 62
     1
 10
 5.55954687100166E+0000
 20
 2.25579869795547E+0000
 11
 5.54662774688040E+0000
 21
 2.24287957383422E+0000
  0
LINE
  8
1
  6
CONTINUOUS
 62
     1
 10
 5.53344972596824E+0000
 20
 2.25035575710717E+0000
 11
 5.52898426903266E+0000
 21
 2.24589030017160E+0000
  0
LINE
  8
1
  6
CONTINUOUS
 62
     1
 10
 3.85992615886789E+0000
 20
 1.36962827987372E+0000
 11
 3.85992615886789E+0000
 21
 1.36962827987372E+0000
  0
LINE
  8
1
  6
CONTINUOUS
 62
     1
 10
 3.85992615886789E+0000
 20
 1.36962827987372E+0000
 11
 4.01921548551763E+0000
 21
 1.34244675851005E+0000
  0
LINE
  8
1
  6
CONTINUOUS
 62
     1
 10
 4.01921548551763E+0000
 20
 1.34244675851005E+0000
 11
 4.01921548551763E+0000
 21
 1.40285039598166E+0000
  0
LINE
  8
1
  6
CONTINUOUS
 62
     1
 10
 4.01921548551763E+0000
 20
 1.40285039598166E+0000
 11
 3.85992615886789E+0000
 21
 1.36962827987372E+0000
  0
LINE
  8
1
  6
CONTINUOUS
 62
     1
 10
 4.01921548551763E+0000
 20
 1.34244675851005E+0000
 11
 4.01921548551763E+0000
 21
 1.40285039598166E+0000
  0
LINE
  8
1
  6
CONTINUOUS
 62
     1
 10
 3.87237808882855E+0000
 20
 1.36750345200562E+0000
 11
 3.86847109061273E+0000
 21
 1.37141045022145E+0000
  0
LINE
  8
1
  6
CONTINUOUS
 62
     1
 10
 3.89728194874988E+0000
 20
 1.36325379627124E+0000
 11
 3.88556095410604E+0000
 21
 1.37497479091508E+0000
  0
LINE
  8
1
  6
CONTINUOUS
 62
     1
 10
 3.92218580866756E+0000
 20
 1.35900414053685E+0000
 11
 3.90265081759571E+0000
 21
 1.37853913160870E+0000
  0
LINE
  8
1
  6
CONTINUOUS
 62
     1
 10
 3.94708966858889E+0000
 20
 1.35475448480247E+0000
 11
 3.91974068108539E+0000
 21
 1.38210347230415E+0000
  0
LINE
  8
1
  6
CONTINUOUS
 62
     1
 10
 3.97199352851021E+0000
 20
 1.35050482906809E+0000
 11
 3.93683054457870E+0000
 21
 1.38566781299960E+0000
  0
LINE
  8
1
  6
CONTINUOUS
 62
     1
 10
 3.99689738842790E+0000
 20
 1.34625517333370E+0000
 11
 3.95392040806837E+0000
 21
 1.38923215369323E+0000
  0
LINE
  8
1
  6
CONTINUOUS
 62
     1
 10
 4.01921548551763E+0000
 20
 1.34459128042909E+0000
 11
 3.97101027155804E+0000
 21
 1.39279649438868E+0000
  0
LINE
  8
1
  6
CONTINUOUS
 62
     1
 10
 4.01921548551763E+0000
 20
 1.36524548461421E+0000
 11
 3.98810013505135E+0000
 21
 1.39636083508231E+0000
  0
LINE
  8
1
  6
CONTINUOUS
 62
     1
 10
 4.01921548551763E+0000
 20
 1.38589968879933E+0000
 11
 4.00518999854103E+0000
 21
 1.39992517577593E+0000
  0
LINE
  8
1
  6
CONTINUOUS
 62
     1
 10
 4.01921548551036E+0000
 20
 1.35277386060261E+0000
 11
 4.01039374659013E+0000
 21
 1.34395212167510E+0000
  0
LINE
  8
1
  6
CONTINUOUS
 62
     1
 10
 4.01921548551036E+0000
 20
 1.37342806478773E+0000
 11
 3.99275026873511E+0000
 21
 1.34696284800702E+0000
  0
LINE
  8
1
  6
CONTINUOUS
 62
     1
 10
 4.01921548551036E+0000
 20
 1.39408226897285E+0000
 11
 3.97510679088009E+0000
 21
 1.34997357433895E+0000
  0
LINE
  8
1
  6
CONTINUOUS
 62
     1
 10
 4.00419710585993E+0000
 20
 1.39971809350209E+0000
 11
 3.95746331302871E+0000
 21
 1.35298430067269E+0000
  0
LINE
  8
1
  6
CONTINUOUS
 62
     1
 10
 3.97809996082651E+0000
 20
 1.39427515265561E+0000
 11
 3.93981983517369E+0000
 21
 1.35599502700461E+0000
  0
LINE
  8
1
  6
CONTINUOUS
 62
     1
 10
 3.95200281579673E+0000
 20
 1.38883221181095E+0000
 11
 3.92217635732231E+0000
 21
 1.35900575333653E+0000
  0
LINE
  8
1
  6
CONTINUOUS
 62
     1
 10
 3.92590567076331E+0000
 20
 1.38338927096447E+0000
 11
 3.90453287946730E+0000
 21
 1.36201647966845E+0000
  0
LINE
  8
1
  6
CONTINUOUS
 62
     1
 10
 3.89980852573717E+0000
 20
 1.37794633012163E+0000
 11
 3.88688940161592E+0000
 21
 1.36502720600038E+0000
  0
LINE
  8
1
  6
CONTINUOUS
 62
     1
 10
 3.87371138070375E+0000
 20
 1.37250338927515E+0000
 11
 3.86924592376454E+0000
 21
 1.36803793233412E+0000
  0
LINE
  8
1
  6
CONTINUOUS
 62
     1
 10
 3.85992615886789E+0000
 20
 1.36962827987372E+0000
 11
 3.85992615886789E+0000
 21
 1.36962827987372E+0000
  0
LINE
  8
1
  6
CONTINUOUS
 62
     1
 10
 3.85992615886789E+0000
 20
 1.36962827987372E+0000
 11
 4.01921548551763E+0000
 21
 1.34244675851005E+0000
  0
LINE
  8
1
  6
CONTINUOUS
 62
     1
 10
 4.01921548551763E+0000
 20
 1.34244675851005E+0000
 11
 4.01921548551763E+0000
 21
 1.40285039598166E+0000
  0
LINE
  8
1
  6
CONTINUOUS
 62
     1
 10
 4.01921548551763E+0000
 20
 1.40285039598166E+0000
 11
 3.85992615886789E+0000
 21
 1.36962827987372E+0000
  0
LINE
  8
1
  6
CONTINUOUS
 62
     1
 10
 4.01921548551763E+0000
 20
 1.34244675851005E+0000
 11
 4.01921548551763E+0000
 21
 1.40285039598166E+0000
  0
LINE
  8
1
  6
CONTINUOUS
 62
     1
 10
 3.87237808882855E+0000
 20
 1.36750345200562E+0000
 11
 3.86847109061273E+0000
 21
 1.37141045022145E+0000
  0
LINE
  8
1
  6
CONTINUOUS
 62
     1
 10
 3.89728194874988E+0000
 20
 1.36325379627124E+0000
 11
 3.88556095410604E+0000
 21
 1.37497479091508E+0000
  0
LINE
  8
1
  6
CONTINUOUS
 62
     1
 10
 3.92218580866756E+0000
 20
 1.35900414053685E+0000
 11
 3.90265081759571E+0000
 21
 1.37853913160870E+0000
  0
LINE
  8
1
  6
CONTINUOUS
 62
     1
 10
 3.94708966858889E+0000
 20
 1.35475448480247E+0000
 11
 3.91974068108539E+0000
 21
 1.38210347230415E+0000
  0
LINE
  8
1
  6
CONTINUOUS
 62
     1
 10
 3.97199352851021E+0000
 20
 1.35050482906809E+0000
 11
 3.93683054457870E+0000
 21
 1.38566781299960E+0000
  0
LINE
  8
1
  6
CONTINUOUS
 62
     1
 10
 3.99689738842790E+0000
 20
 1.34625517333370E+0000
 11
 3.95392040806837E+0000
 21
 1.38923215369323E+0000
  0
LINE
  8
1
  6
CONTINUOUS
 62
     1
 10
 4.01921548551763E+0000
 20
 1.34459128042909E+0000
 11
 3.97101027155804E+0000
 21
 1.39279649438868E+0000
  0
LINE
  8
1
  6
CONTINUOUS
 62
     1
 10
 4.01921548551763E+0000
 20
 1.36524548461421E+0000
 11
 3.98810013505135E+0000
 21
 1.39636083508231E+0000
  0
LINE
  8
1
  6
CONTINUOUS
 62
     1
 10
 4.01921548551763E+0000
 20
 1.38589968879933E+0000
 11
 4.00518999854103E+0000
 21
 1.39992517577593E+0000
  0
LINE
  8
1
  6
CONTINUOUS
 62
     1
 10
 4.01921548551036E+0000
 20
 1.35277386060261E+0000
 11
 4.01039374659013E+0000
 21
 1.34395212167510E+0000
  0
LINE
  8
1
  6
CONTINUOUS
 62
     1
 10
 4.01921548551036E+0000
 20
 1.37342806478773E+0000
 11
 3.99275026873511E+0000
 21
 1.34696284800702E+0000
  0
LINE
  8
1
  6
CONTINUOUS
 62
     1
 10
 4.01921548551036E+0000
 20
 1.39408226897285E+0000
 11
 3.97510679088009E+0000
 21
 1.34997357433895E+0000
  0
LINE
  8
1
  6
CONTINUOUS
 62
     1
 10
 4.00419710585993E+0000
 20
 1.39971809350209E+0000
 11
 3.95746331302871E+0000
 21
 1.35298430067269E+0000
  0
LINE
  8
1
  6
CONTINUOUS
 62
     1
 10
 3.97809996082651E+0000
 20
 1.39427515265561E+0000
 11
 3.93981983517369E+0000
 21
 1.35599502700461E+0000
  0
LINE
  8
1
  6
CONTINUOUS
 62
     1
 10
 3.95200281579673E+0000
 20
 1.38883221181095E+0000
 11
 3.92217635732231E+0000
 21
 1.35900575333653E+0000
  0
LINE
  8
1
  6
CONTINUOUS
 62
     1
 10
 3.92590567076331E+0000
 20
 1.38338927096447E+0000
 11
 3.90453287946730E+0000
 21
 1.36201647966845E+0000
  0
LINE
  8
1
  6
CONTINUOUS
 62
     1
 10
 3.89980852573717E+0000
 20
 1.37794633012163E+0000
 11
 3.88688940161592E+0000
 21
 1.36502720600038E+0000
  0
LINE
  8
1
  6
CONTINUOUS
 62
     1
 10
 3.87371138070375E+0000
 20
 1.37250338927515E+0000
 11
 3.86924592376454E+0000
 21
 1.36803793233412E+0000
  0
LINE
  8
1
  6
CONTINUOUS
 62
     1
 10
 3.53126117555803E+0000
 20
 1.37065117706152E+0000
 11
 3.53126117555803E+0000
 21
 1.37065117706152E+0000
  0
LINE
  8
1
  6
CONTINUOUS
 62
     1
 10
 3.53126117555803E+0000
 20
 1.37065117706152E+0000
 11
 3.37197184892284E+0000
 21
 1.39783269842519E+0000
  0
LINE
  8
1
  6
CONTINUOUS
 62
     1
 10
 3.37197184892284E+0000
 20
 1.39783269842519E+0000
 11
 3.37197184892284E+0000
 21
 1.33742906095358E+0000
  0
LINE
  8
1
  6
CONTINUOUS
 62
     1
 10
 3.37197184892284E+0000
 20
 1.33742906095358E+0000
 11
 3.53126117555803E+0000
 21
 1.37065117706152E+0000
  0
LINE
  8
1
  6
CONTINUOUS
 62
     1
 10
 3.37197184892284E+0000
 20
 1.39783269842519E+0000
 11
 3.37197184892284E+0000
 21
 1.33742906095358E+0000
  0
LINE
  8
1
  6
CONTINUOUS
 62
     1
 10
 3.38051678067131E+0000
 20
 1.33921123130131E+0000
 11
 3.37197184892648E+0000
 21
 1.34775616304796E+0000
  0
LINE
  8
1
  6
CONTINUOUS
 62
     1
 10
 3.39760664416099E+0000
 20
 1.34277557199675E+0000
 11
 3.37197184892648E+0000
 21
 1.36841036723308E+0000
  0
LINE
  8
1
  6
CONTINUOUS
 62
     1
 10
 3.41469650765066E+0000
 20
 1.34633991269038E+0000
 11
 3.37197184892648E+0000
 21
 1.38906457141820E+0000
  0
LINE
  8
1
  6
CONTINUOUS
 62
     1
 10
 3.43178637114397E+0000
 20
 1.34990425338583E+0000
 11
 3.38630351711254E+0000
 21
 1.39538710741726E+0000
  0
LINE
  8
1
  6
CONTINUOUS
 62
     1
 10
 3.44887623463364E+0000
 20
 1.35346859408128E+0000
 11
 3.41120737703022E+0000
 21
 1.39113745168288E+0000
  0
LINE
  8
1
  6
CONTINUOUS
 62
     1
 10
 3.46596609812332E+0000
 20
 1.35703293477673E+0000
 11
 3.43611123695155E+0000
 21
 1.38688779594850E+0000
  0
LINE
  8
1
  6
CONTINUOUS
 62
     1
 10
 3.48305596161663E+0000
 20
 1.36059727547035E+0000
 11
 3.46101509687287E+0000
 21
 1.38263814021411E+0000
  0
LINE
  8
1
  6
CONTINUOUS
 62
     1
 10
 3.50014582510630E+0000
 20
 1.36416161616398E+0000
 11
 3.48591895679056E+0000
 21
 1.37838848447791E+0000
  0
LINE
  8
1
  6
CONTINUOUS
 62
     1
 10
 3.51723568859597E+0000
 20
 1.36772595685943E+0000
 11
 3.51082281671188E+0000
 21
 1.37413882874171E+0000
  0
LINE
  8
1
  6
CONTINUOUS
 62
     1
 10
 3.52243943662688E+0000
 20
 1.37215654022475E+0000
 11
 3.51821260303768E+0000
 21
 1.36792970663555E+0000
  0
LINE
  8
1
  6
CONTINUOUS
 62
     1
 10
 3.50479595877187E+0000
 20
 1.37516726655667E+0000
 11
 3.49211545800426E+0000
 21
 1.36248676578907E+0000
  0
LINE
  8
1
  6
CONTINUOUS
 62
     1
 10
 3.48715248092049E+0000
 20
 1.37817799289223E+0000
 11
 3.46601831297448E+0000
 21
 1.35704382494441E+0000
  0
LINE
  8
1
  6
CONTINUOUS
 62
     1
 10
 3.46950900306911E+0000
 20
 1.38118871922416E+0000
 11
 3.43992116794107E+0000
 21
 1.35160088409793E+0000
  0
LINE
  8
1
  6
CONTINUOUS
 62
     1
 10
 3.45186552521409E+0000
 20
 1.38419944555608E+0000
 11
 3.41382402291129E+0000
 21
 1.34615794325146E+0000
  0
LINE
  8
1
  6
CONTINUOUS
 62
     1
 10
 3.43422204736271E+0000
 20
 1.38721017188982E+0000
 11
 3.38772687787787E+0000
 21
 1.34071500240316E+0000
  0
LINE
  8
1
  6
CONTINUOUS
 62
     1
 10
 3.41657856951133E+0000
 20
 1.39022089822174E+0000
 11
 3.37197184891920E+0000
 21
 1.34561417763143E+0000
  0
LINE
  8
1
  6
CONTINUOUS
 62
     1
 10
 3.39893509165631E+0000
 20
 1.39323162455366E+0000
 11
 3.37197184891920E+0000
 21
 1.36626838181655E+0000
  0
LINE
  8
1
  6
CONTINUOUS
 62
     1
 10
 3.38129161380493E+0000
 20
 1.39624235088559E+0000
 11
 3.37197184891920E+0000
 21
 1.38692258600167E+0000
  0
LINE
  8
1
  6
CONTINUOUS
 62
     1
 10
 3.53126117555803E+0000
 20
 1.37065117706152E+0000
 11
 3.53126117555803E+0000
 21
 1.37065117706152E+0000
  0
LINE
  8
1
  6
CONTINUOUS
 62
     1
 10
 3.53126117555803E+0000
 20
 1.37065117706152E+0000
 11
 3.37197184892284E+0000
 21
 1.39783269842519E+0000
  0
LINE
  8
1
  6
CONTINUOUS
 62
     1
 10
 3.37197184892284E+0000
 20
 1.39783269842519E+0000
 11
 3.37197184892284E+0000
 21
 1.33742906095358E+0000
  0
LINE
  8
1
  6
CONTINUOUS
 62
     1
 10
 3.37197184892284E+0000
 20
 1.33742906095358E+0000
 11
 3.53126117555803E+0000
 21
 1.37065117706152E+0000
  0
LINE
  8
1
  6
CONTINUOUS
 62
     1
 10
 3.37197184892284E+0000
 20
 1.39783269842519E+0000
 11
 3.37197184892284E+0000
 21
 1.33742906095358E+0000
  0
LINE
  8
1
  6
CONTINUOUS
 62
     1
 10
 3.38051678067131E+0000
 20
 1.33921123130131E+0000
 11
 3.37197184892648E+0000
 21
 1.34775616304796E+0000
  0
LINE
  8
1
  6
CONTINUOUS
 62
     1
 10
 3.39760664416099E+0000
 20
 1.34277557199675E+0000
 11
 3.37197184892648E+0000
 21
 1.36841036723308E+0000
  0
LINE
  8
1
  6
CONTINUOUS
 62
     1
 10
 3.41469650765066E+0000
 20
 1.34633991269038E+0000
 11
 3.37197184892648E+0000
 21
 1.38906457141820E+0000
  0
LINE
  8
1
  6
CONTINUOUS
 62
     1
 10
 3.43178637114397E+0000
 20
 1.34990425338583E+0000
 11
 3.38630351711254E+0000
 21
 1.39538710741726E+0000
  0
LINE
  8
1
  6
CONTINUOUS
 62
     1
 10
 3.44887623463364E+0000
 20
 1.35346859408128E+0000
 11
 3.41120737703022E+0000
 21
 1.39113745168288E+0000
  0
LINE
  8
1
  6
CONTINUOUS
 62
     1
 10
 3.46596609812332E+0000
 20
 1.35703293477673E+0000
 11
 3.43611123695155E+0000
 21
 1.38688779594850E+0000
  0
LINE
  8
1
  6
CONTINUOUS
 62
     1
 10
 3.48305596161663E+0000
 20
 1.36059727547035E+0000
 11
 3.46101509687287E+0000
 21
 1.38263814021411E+0000
  0
LINE
  8
1
  6
CONTINUOUS
 62
     1
 10
 3.50014582510630E+0000
 20
 1.36416161616398E+0000
 11
 3.48591895679056E+0000
 21
 1.37838848447791E+0000
  0
LINE
  8
1
  6
CONTINUOUS
 62
     1
 10
 3.51723568859597E+0000
 20
 1.36772595685943E+0000
 11
 3.51082281671188E+0000
 21
 1.37413882874171E+0000
  0
LINE
  8
1
  6
CONTINUOUS
 62
     1
 10
 3.52243943662688E+0000
 20
 1.37215654022475E+0000
 11
 3.51821260303768E+0000
 21
 1.36792970663555E+0000
  0
LINE
  8
1
  6
CONTINUOUS
 62
     1
 10
 3.50479595877187E+0000
 20
 1.37516726655667E+0000
 11
 3.49211545800426E+0000
 21
 1.36248676578907E+0000
  0
LINE
  8
1
  6
CONTINUOUS
 62
     1
 10
 3.48715248092049E+0000
 20
 1.37817799289223E+0000
 11
 3.46601831297448E+0000
 21
 1.35704382494441E+0000
  0
LINE
  8
1
  6
CONTINUOUS
 62
     1
 10
 3.46950900306911E+0000
 20
 1.38118871922416E+0000
 11
 3.43992116794107E+0000
 21
 1.35160088409793E+0000
  0
LINE
  8
1
  6
CONTINUOUS
 62
     1
 10
 3.45186552521409E+0000
 20
 1.38419944555608E+0000
 11
 3.41382402291129E+0000
 21
 1.34615794325146E+0000
  0
LINE
  8
1
  6
CONTINUOUS
 62
     1
 10
 3.43422204736271E+0000
 20
 1.38721017188982E+0000
 11
 3.38772687787787E+0000
 21
 1.34071500240316E+0000
  0
LINE
  8
1
  6
CONTINUOUS
 62
     1
 10
 3.41657856951133E+0000
 20
 1.39022089822174E+0000
 11
 3.37197184891920E+0000
 21
 1.34561417763143E+0000
  0
LINE
  8
1
  6
CONTINUOUS
 62
     1
 10
 3.39893509165631E+0000
 20
 1.39323162455366E+0000
 11
 3.37197184891920E+0000
 21
 1.36626838181655E+0000
  0
LINE
  8
1
  6
CONTINUOUS
 62
     1
 10
 3.38129161380493E+0000
 20
 1.39624235088559E+0000
 11
 3.37197184891920E+0000
 21
 1.38692258600167E+0000
  0
LINE
  8
1
  6
CONTINUOUS
 62
     1
 10
 5.27245907151519E+0000
 20
 2.24850354489899E+0000
 11
 5.27245907151519E+0000
 21
 2.24850354489899E+0000
  0
LINE
  8
1
  6
CONTINUOUS
 62
     1
 10
 5.27245907151519E+0000
 20
 2.24850354489899E+0000
 11
 5.11316974488000E+0000
 21
 2.27568506626267E+0000
  0
LINE
  8
1
  6
CONTINUOUS
 62
     1
 10
 5.11316974488000E+0000
 20
 2.27568506626267E+0000
 11
 5.11316974488000E+0000
 21
 2.21528142879106E+0000
  0
LINE
  8
1
  6
CONTINUOUS
 62
     1
 10
 5.11316974488000E+0000
 20
 2.21528142879106E+0000
 11
 5.27245907151519E+0000
 21
 2.24850354489899E+0000
  0
LINE
  8
1
  6
CONTINUOUS
 62
     1
 10
 5.11316974488000E+0000
 20
 2.27568506626267E+0000
 11
 5.11316974488000E+0000
 21
 2.21528142879106E+0000
  0
LINE
  8
1
  6
CONTINUOUS
 62
     1
 10
 5.12171467662847E+0000
 20
 2.21706359913878E+0000
 11
 5.11316974488727E+0000
 21
 2.22560853088362E+0000
  0
LINE
  8
1
  6
CONTINUOUS
 62
     1
 10
 5.13880454011814E+0000
 20
 2.22062793983423E+0000
 11
 5.11316974488000E+0000
 21
 2.24626273507238E+0000
  0
LINE
  8
1
  6
CONTINUOUS
 62
     1
 10
 5.15589440360782E+0000
 20
 2.22419228052968E+0000
 11
 5.11316974488000E+0000
 21
 2.26691693925750E+0000
  0
LINE
  8
1
  6
CONTINUOUS
 62
     1
 10
 5.17298426710477E+0000
 20
 2.22775662122149E+0000
 11
 5.12750141307333E+0000
 21
 2.27323947525292E+0000
  0
LINE
  8
1
  6
CONTINUOUS
 62
     1
 10
 5.19007413059444E+0000
 20
 2.23132096191694E+0000
 11
 5.15240527299466E+0000
 21
 2.26898981951672E+0000
  0
LINE
  8
1
  6
CONTINUOUS
 62
     1
 10
 5.20716399408411E+0000
 20
 2.23488530261238E+0000
 11
 5.17730913291598E+0000
 21
 2.26474016378052E+0000
  0
LINE
  8
1
  6
CONTINUOUS
 62
     1
 10
 5.22425385757379E+0000
 20
 2.23844964330783E+0000
 11
 5.20221299283003E+0000
 21
 2.26049050804795E+0000
  0
LINE
  8
1
  6
CONTINUOUS
 62
     1
 10
 5.24134372106346E+0000
 20
 2.24201398400328E+0000
 11
 5.22711685275135E+0000
 21
 2.25624085231175E+0000
  0
LINE
  8
1
  6
CONTINUOUS
 62
     1
 10
 5.25843358455313E+0000
 20
 2.24557832469509E+0000
 11
 5.25202071267267E+0000
 21
 2.25199119657555E+0000
  0
LINE
  8
1
  6
CONTINUOUS
 62
     1
 10
 5.26363733258040E+0000
 20
 2.25000890806405E+0000
 11
 5.25941049899848E+0000
 21
 2.24578207447485E+0000
  0
LINE
  8
1
  6
CONTINUOUS
 62
     1
 10
 5.24599385473266E+0000
 20
 2.25301963439415E+0000
 11
 5.23331335396506E+0000
 21
 2.24033913362655E+0000
  0
LINE
  8
1
  6
CONTINUOUS
 62
     1
 10
 5.22835037687764E+0000
 20
 2.25603036072789E+0000
 11
 5.20721620892436E+0000
 21
 2.23489619277825E+0000
  0
LINE
  8
1
  6
CONTINUOUS
 62
     1
 10
 5.21070689902990E+0000
 20
 2.25904108706163E+0000
 11
 5.18111906389822E+0000
 21
 2.22945325193359E+0000
  0
LINE
  8
1
  6
CONTINUOUS
 62
     1
 10
 5.19306342117488E+0000
 20
 2.26205181339537E+0000
 11
 5.15502191886480E+0000
 21
 2.22401031108529E+0000
  0
LINE
  8
1
  6
CONTINUOUS
 62
     1
 10
 5.17541994331987E+0000
 20
 2.26506253972548E+0000
 11
 5.12892477383866E+0000
 21
 2.21856737024427E+0000
  0
LINE
  8
1
  6
CONTINUOUS
 62
     1
 10
 5.15777646546485E+0000
 20
 2.26807326605922E+0000
 11
 5.11316974487272E+0000
 21
 2.22346654546345E+0000
  0
LINE
  8
1
  6
CONTINUOUS
 62
     1
 10
 5.14013298760983E+0000
 20
 2.27108399238932E+0000
 11
 5.11316974487272E+0000
 21
 2.24412074964857E+0000
  0
LINE
  8
1
  6
CONTINUOUS
 62
     1
 10
 5.12248950976209E+0000
 20
 2.27409471872306E+0000
 11
 5.11316974487272E+0000
 21
 2.26477495383369E+0000
  0
LINE
  8
1
  6
CONTINUOUS
 62
     1
 10
 5.27245907151519E+0000
 20
 2.24850354489899E+0000
 11
 5.27245907151519E+0000
 21
 2.24850354489899E+0000
  0
LINE
  8
1
  6
CONTINUOUS
 62
     1
 10
 5.27245907151519E+0000
 20
 2.24850354489899E+0000
 11
 5.11316974488000E+0000
 21
 2.27568506626267E+0000
  0
LINE
  8
1
  6
CONTINUOUS
 62
     1
 10
 5.11316974488000E+0000
 20
 2.27568506626267E+0000
 11
 5.11316974488000E+0000
 21
 2.21528142879106E+0000
  0
LINE
  8
1
  6
CONTINUOUS
 62
     1
 10
 5.11316974488000E+0000
 20
 2.21528142879106E+0000
 11
 5.27245907151519E+0000
 21
 2.24850354489899E+0000
  0
LINE
  8
1
  6
CONTINUOUS
 62
     1
 10
 5.11316974488000E+0000
 20
 2.27568506626267E+0000
 11
 5.11316974488000E+0000
 21
 2.21528142879106E+0000
  0
LINE
  8
1
  6
CONTINUOUS
 62
     1
 10
 5.12171467662847E+0000
 20
 2.21706359913878E+0000
 11
 5.11316974488727E+0000
 21
 2.22560853088362E+0000
  0
LINE
  8
1
  6
CONTINUOUS
 62
     1
 10
 5.13880454011814E+0000
 20
 2.22062793983423E+0000
 11
 5.11316974488000E+0000
 21
 2.24626273507238E+0000
  0
LINE
  8
1
  6
CONTINUOUS
 62
     1
 10
 5.15589440360782E+0000
 20
 2.22419228052968E+0000
 11
 5.11316974488000E+0000
 21
 2.26691693925750E+0000
  0
LINE
  8
1
  6
CONTINUOUS
 62
     1
 10
 5.17298426710477E+0000
 20
 2.22775662122149E+0000
 11
 5.12750141307333E+0000
 21
 2.27323947525292E+0000
  0
LINE
  8
1
  6
CONTINUOUS
 62
     1
 10
 5.19007413059444E+0000
 20
 2.23132096191694E+0000
 11
 5.15240527299466E+0000
 21
 2.26898981951672E+0000
  0
LINE
  8
1
  6
CONTINUOUS
 62
     1
 10
 5.20716399408411E+0000
 20
 2.23488530261238E+0000
 11
 5.17730913291598E+0000
 21
 2.26474016378052E+0000
  0
LINE
  8
1
  6
CONTINUOUS
 62
     1
 10
 5.22425385757379E+0000
 20
 2.23844964330783E+0000
 11
 5.20221299283003E+0000
 21
 2.26049050804795E+0000
  0
LINE
  8
1
  6
CONTINUOUS
 62
     1
 10
 5.24134372106346E+0000
 20
 2.24201398400328E+0000
 11
 5.22711685275135E+0000
 21
 2.25624085231175E+0000
  0
LINE
  8
1
  6
CONTINUOUS
 62
     1
 10
 5.25843358455313E+0000
 20
 2.24557832469509E+0000
 11
 5.25202071267267E+0000
 21
 2.25199119657555E+0000
  0
LINE
  8
1
  6
CONTINUOUS
 62
     1
 10
 5.26363733258040E+0000
 20
 2.25000890806405E+0000
 11
 5.25941049899848E+0000
 21
 2.24578207447485E+0000
  0
LINE
  8
1
  6
CONTINUOUS
 62
     1
 10
 5.24599385473266E+0000
 20
 2.25301963439415E+0000
 11
 5.23331335396506E+0000
 21
 2.24033913362655E+0000
  0
LINE
  8
1
  6
CONTINUOUS
 62
     1
 10
 5.22835037687764E+0000
 20
 2.25603036072789E+0000
 11
 5.20721620892436E+0000
 21
 2.23489619277825E+0000
  0
LINE
  8
1
  6
CONTINUOUS
 62
     1
 10
 5.21070689902990E+0000
 20
 2.25904108706163E+0000
 11
 5.18111906389822E+0000
 21
 2.22945325193359E+0000
  0
LINE
  8
1
  6
CONTINUOUS
 62
     1
 10
 5.19306342117488E+0000
 20
 2.26205181339537E+0000
 11
 5.15502191886480E+0000
 21
 2.22401031108529E+0000
  0
LINE
  8
1
  6
CONTINUOUS
 62
     1
 10
 5.17541994331987E+0000
 20
 2.26506253972548E+0000
 11
 5.12892477383866E+0000
 21
 2.21856737024427E+0000
  0
LINE
  8
1
  6
CONTINUOUS
 62
     1
 10
 5.15777646546485E+0000
 20
 2.26807326605922E+0000
 11
 5.11316974487272E+0000
 21
 2.22346654546345E+0000
  0
LINE
  8
1
  6
CONTINUOUS
 62
     1
 10
 5.14013298760983E+0000
 20
 2.27108399238932E+0000
 11
 5.11316974487272E+0000
 21
 2.24412074964857E+0000
  0
LINE
  8
1
  6
CONTINUOUS
 62
     1
 10
 5.12248950976209E+0000
 20
 2.27409471872306E+0000
 11
 5.11316974487272E+0000
 21
 2.26477495383369E+0000
  0
TEXT
  8
1
 62
     1
 10
 7.47024714911822E+0000
 20
 6.75353413306584E+0000
 40
 1.18110236219991E-0001
  1
4.5
  7
STANDARD
 11
 7.47024714911822E+0000
 21
 6.87164436928288E+0000
 50
 0.00000000000000E+0000
 41
 2.56976661400131E-0001
  0
TEXT
  8
1
 62
     1
 10
 7.40823910201289E+0000
 20
 1.74956128500526E+0000
 40
 1.18110236219991E-0001
  1
7,5
  7
STANDARD
 11
 7.40823910201289E+0000
 21
 1.86767152122593E+0000
 50
 0.00000000000000E+0000
 41
 2.56976661400131E-0001
  0
TEXT
  8
1
 62
     1
 10
 7.45991247459460E+0000
 20
 1.43875551804740E+0000
 40
 1.18110236219991E-0001
  1
10
  7
STANDARD
 11
 7.45991247459460E+0000
 21
 1.55686575426807E+0000
 50
 0.00000000000000E+0000
 41
 3.08371993680339E-0001
  0
TEXT
  8
1
 62
     1
 10
 7.58392856881255E+0000
 20
 1.15903032778078E+0000
 40
 1.18110236219991E-0001
  1
17
  7
STANDARD
 11
 7.58392856881255E+0000
 21
 1.27714056400146E+0000
 50
 0.00000000000000E+0000
 41
 3.08371993680339E-0001
  0
TEXT
  8
1
 62
     1
 10
 5.31030017504236E+0000
 20
 2.25721070437794E+0000
 40
 1.18110236219991E-0001
  1
4.5
  7
STANDARD
 11
 5.31030017504236E+0000
 21
 2.37532094059861E+0000
 50
 0.00000000000000E+0000
 41
 2.56976661400131E-0001
  0
TEXT
  8
1
 62
     1
 10
 3.62574822874376E+0000
 20
 1.41803513358536E+0000
 40
 1.18110236219991E-0001
  1
8
  7
STANDARD
 11
 3.62574822874376E+0000
 21
 1.53614536980604E+0000
 50
 0.00000000000000E+0000
 41
 3.08371993680339E-0001
  0
TEXT
  8
1
 62
     1
 10
 6.59179981516354E+0000
 20
 3.85268030810039E+0000
 40
 1.18110236219991E-0001
  1
110
  7
STANDARD
 11
 6.59179981516354E+0000
 21
 3.97079054432106E+0000
 50
 9.00000000000000E+0001
 41
 3.08371993680339E-0001
  0
TEXT
  8
1
 62
     1
 10
 8.28668643598212E+0000
 20
 3.94592203819411E+0000
 40
 1.18110236219991E-0001
  1
84 +0.1
  7
STANDARD
 11
 8.28668643598212E+0000
 21
 4.06403227441479E+0000
 50
 9.00000000000000E+0001
 41
 2.64318851725875E-0001
  0
TEXT
  8
1
 62
     1
 10
 8.55538797342160E+0000
 20
 3.94592203819411E+0000
 40
 1.18110236219991E-0001
  1
86
  7
STANDARD
 11
 8.55538797342160E+0000
 21
 4.06403227441479E+0000
 50
 9.00000000000000E+0001
 41
 3.08371993680339E-0001
  0
TEXT
  8
1
 62
     1
 10
 8.86542820894101E+0000
 20
 3.97700261488717E+0000
 40
 1.18110236219991E-0001
  1
90
  7
STANDARD
 11
 8.86542820894101E+0000
 21
 4.09511285110784E+0000
 50
 9.00000000000000E+0001
 41
 3.08371993680339E-0001
  0
TEXT
  8
1
 62
     1
 10
 8.54914530015776E-0001
 20
 3.81806901846721E+0000
 40
 1.18110236219991E-0001
  1
TK 100
  7
STANDARD
 11
 8.54914530015776E-0001
 21
 3.93617925468789E+0000
 50
 9.00000000000000E+0001
 41
 3.08371993678975E-0001
  0
TEXT
  8
1
 62
     1
 10
 9.02293957961956E+0000
 20
 3.86669268905280E-0001
 40
 1.18110236219991E-0001
  1
(c)
  7
STANDARD
 11
 9.02293957961956E+0000
 21
 5.04779505125043E-0001
 50
 0.00000000000000E+0000
 41
 2.05581329120378E-0001
0
ENDSEC
0
EOF
