0
SECTION
  2
HEADER
  9
$LTSCALE
 40
     10
  9
$LIMMIN
 10
     0.0
 20
     0.0
  9
$LIMMAX
 10
      11.5
 20
       8.0
  9
$EXTMIN
 10
     0.0
 20
     0.0
  9
$EXTMAX
 10
      11.5
 20
       8.0
   9
$CLAYER
   8
1
   9
$CECOLOR
  62
     7
   9
$CELTYPE
   6
CONTINUOUS
  0
ENDSEC
  0
SECTION
  2
TABLES
  0
TABLE
  2
LTYPE
 70
    10
  0
LTYPE
  2
CONTINUOUS
 70
    64
  3
Solid line
 72
    65
 73
     0
 40
0.0
  0
LTYPE
  2
DASHED
 70
     0
  3
__ __ __ __ __ __ __ __ __ __ __ __ __ __ __
 72
    65
 73
     2
 40
0.75
 49
0.5
 49
-0.25
  0
LTYPE
  2
HIDDEN
 70
     0
  3
_ _ _ _ _ _ _ _ _ _ _ _ _ _ _ _ _ _ _ _ _ _
 72
    65
 73
     2
 40
0.375
 49
0.25
 49
-0.125
  0
LTYPE
  2
CENTER
 70
     0
  3
____ _ ____ _ ____ _ ____ _ ____ _ ____ _ __
 72
    65
 73
     4
 40
2.0
 49
1.25
 49
-0.25
 49
0.25
 49
-0.25
  0
LTYPE
  2
PHANTOM
 70
     0
  3
_____ _ _ _____ _ _ _____ _ _ _____ _ _ ____
 72
    65
 73
     6
 40
2.5
 49
1.25
 49
-0.25
 49
0.25
 49
-0.25
 49
0.25
 49
-0.25
  0
LTYPE
  2
DOT
 70
     0
  3
............................................
 72
    65
 73
     2
 40
0.25
 49
0.0
 49
-0.25
  0
LTYPE
  2
DASHDOT
 70
     0
  3
__ . __ . __ . __ . __ . __ . __ . __ . __ .
 72
    65
 73
     4
 40
1.0
 49
0.5
 49
-0.25
 49
0.0
 49
-0.25
  0
LTYPE
  2
BORDER
 70
     0
  3
__ __ . __ __ . __ __ . __ __ . __ __ . __ _
 72
    65
 73
     6
 40
1.75
 49
0.5
 49
-0.25
 49
0.5
 49
-0.25
 49
0.0
 49
-0.25
  0
LTYPE
  2
DIVIDE
 70
     0
  3
__ . . __ . . __ . . __ . . __ . . __ . . __
 72
    65
 73
     6
 40
1.25
 49
0.5
 49
-0.25
 49
0.0
 49
-0.25
 49
0.0
 49
-0.25
  0
LTYPE
  2
DIVIDE2
 70
     0
  3
close
 72
    65
 73
     2
 40
0.1
 49
0.05
 49
-0.05
  0
ENDTAB
0
TABLE
  2
LAYER
 70
   256
  0
LAYER
  2
1
 70
     0
  6
CONTINUOUS
 62
1
  0
ENDTAB
  0
TABLE
  2
STYLE
 70
     8
  0
STYLE
  2
TXT
 70
0
 40
0.0
 41
1.0
 50
0.0
 71
0
 42
1.0
  3
TXT
  4

  0
STYLE
  2
COMPLEX
 70
0
 40
0.0
 41
1.0
 50
0.0
 71
0
 42
1.0
  3
COMPLEX
  4

  0
STYLE
  2
ITALIC
 70
0
 40
0.0
 41
1.0
 50
0.0
 71
0
 42
1.0
  3
ITALIC
  4

  0
STYLE
  2
SIMPLEX
70
0
 40
0.0
 41
1.0
 50
0.0
 71
0
 42
1.0
  3
SIMPLEX
  4

  0
STYLE
  2
MONOTXT
 70
0
 40
0.0
 41
1.0
 50
0.0
 71
0
 42
1.0
  3
MONOTXT
  4

  0
STYLE
  2
SCRIPTC
 70
0
 40
0.0
 41
1.0
 50
0.0
 71
0
 42
1.0
  3
SCRIPTC
  4

  0
STYLE
  2
GOTHICE
 70
0
 40
0.0
 41
1.0
 50
0.0
 71
0
 42
1.0
  3
GOTHICE
  4

  0
ENDTAB
  0
TABLE
  2
VIEW
 70
     0
  0
ENDTAB
  0
ENDSEC
  0
SECTION
  2
ENTITIES
  0
LINE
  8
1
  6
CONTINUOUS
 62
     1
 10
 8.90078496305796E+0000
 20
 3.66054472739052E-0001
 11
 8.90078496305796E+0000
 21
 1.55291635594767E+0000
  0
LINE
  8
1
  6
CONTINUOUS
 62
     1
 10
 8.90078496305796E+0000
 20
 1.55291635594767E+0000
 11
 1.10824245900876E+0001
 21
 1.55291635594767E+0000
  0
LINE
  8
1
  6
CONTINUOUS
 62
     1
 10
 1.10824245900876E+0001
 20
 1.55291635594767E+0000
 11
 1.10824245900876E+0001
 21
 3.66054472739052E-0001
  0
LINE
  8
1
  6
CONTINUOUS
 62
     1
 10
 8.90010336294654E+0000
 20
 1.23953147667635E+0000
 11
 1.10833476808330E+0001
 21
 1.23953147667635E+0000
  0
LINE
  8
1
  6
CONTINUOUS
 62
     1
 10
 8.90774062665878E+0000
 20
 5.23861750931246E-0001
 11
 1.10909849445452E+0001
 21
 5.23861750931246E-0001
  0
TEXT
  8
1
 62
     1
 10
 8.94823287868348E+0000
 20
 1.35143637997317E+0000
 40
 1.18110236219991E-0001
  1
Benennung
  7
STANDARD
 11
 8.94823287868348E+0000
 21
 1.46954661619384E+0000
 50
 0.00000000000000E+0000
 41
 3.16937882393631E-0001
  0
LINE
  8
1
  6
CONTINUOUS
 62
     1
 10
 9.57264299190138E+0000
 20
 1.55147486233909E+0000
 11
 9.57264299190138E+0000
 21
 1.23953147667635E+0000
  0
LINE
  8
1
  6
CONTINUOUS
 62
     1
 10
 8.90010336294654E+0000
 20
 1.07349709398113E+0000
 11
 1.10833476808330E+0001
 21
 1.07349709398113E+0000
  0
LINE
  8
1
  6
CONTINUOUS
 62
     1
 10
 8.90010336294654E+0000
 20
 9.07462711285916E-0001
 11
 1.10833476808330E+0001
 21
 9.07462711285916E-0001
  0
TEXT
  8
1
 62
     1
 10
 8.95298969198484E+0000
 20
 1.08890528919073E+0000
 40
 1.18110236219991E-0001
  1
Werkstoff
  7
STANDARD
 11
 8.95298969198484E+0000
 21
 1.20701552541141E+0000
 50
 0.00000000000000E+0000
 41
 2.56976661400131E-0001
  0
LINE
  8
1
  6
CONTINUOUS
 62
     1
 10
 9.57264299190138E+0000
 20
 1.23953147667635E+0000
 11
 9.57264299190138E+0000
 21
 1.07349709398113E+0000
  0
LINE
  8
1
  6
CONTINUOUS
 62
     1
 10
 1.05011491960613E+0001
 20
 1.23953147667635E+0000
 11
 1.05011491960613E+0001
 21
 1.07349709398113E+0000
  0
TEXT
  8
1
 62
     1
 10
 1.05670323736267E+0001
 20
 1.08890528919073E+0000
 40
 1.18110236219991E-0001
  1
M 1:1
  7
STANDARD
 11
 1.05670323736267E+0001
 21
 1.20701552541141E+0000
 50
 0.00000000000000E+0000
 41
 2.62116194628561E-0001
  0
LINE
  8
1
  6
CONTINUOUS
 62
     1
 10
 8.90078496305796E+0000
 20
 1.55291635594767E+0000
 11
 1.10883666332957E+0001
 21
 1.55291635594767E+0000
  0
LINE
  8
1
  6
CONTINUOUS
 62
     1
 10
 8.90078496305796E+0000
 20
 1.55291635594767E+0000
 11
 1.10824245900876E+0001
 21
 1.55291635594767E+0000
  0
LINE
  8
1
  6
CONTINUOUS
 62
     1
 10
 1.10824245900876E+0001
 20
 1.55291635594767E+0000
 11
 1.10824245900876E+0001
 21
 3.66054472739052E-0001
  0
LINE
  8
1
  6
CONTINUOUS
 62
     1
 10
 1.10824245900876E+0001
 20
 3.66054472739052E-0001
 11
 8.90078496305796E+0000
 21
 3.66054472739052E-0001
  0
LINE
  8
1
  6
CONTINUOUS
 62
     1
 10
 8.90078496305796E+0000
 20
 3.66054472739052E-0001
 11
 8.90078496305796E+0000
 21
 1.55291635594767E+0000
  0
TEXT
  8
1
 62
     1
 10
 8.94643199958955E+0000
 20
 9.29817355409796E-0001
 40
 1.18110236219991E-0001
  1
Bearb.
  7
STANDARD
 11
 8.94643199958955E+0000
 21
 1.04792759162956E+0000
 50
 0.00000000000000E+0000
 41
 2.69825494470297E-0001
  0
LINE
  8
1
  6
CONTINUOUS
 62
     1
 10
 9.57372805119667E+0000
 20
 1.07462383869279E+0000
 11
 9.57372805119667E+0000
 21
 9.08513856978971E-0001
  0
LINE
  8
1
  6
CONTINUOUS
 62
     1
 10
 8.90204784499656E+0000
 20
 7.36471375930705E-0001
 11
 1.10827893074456E+0001
 21
 7.36471375930705E-0001
  0
LINE
  8
1
  6
CONTINUOUS
 62
     1
 10
 9.57372805119667E+0000
 20
 9.08513856978971E-0001
 11
 9.57372805119667E+0000
 21
 7.36471375930705E-0001
  0
TEXT
  8
1
 62
     1
 10
 8.94643199958955E+0000
 20
 7.54808624687030E-0001
 40
 1.18110236219991E-0001
  1
Datum
  7
STANDARD
 11
 8.94643199958955E+0000
 21
 8.72918860906793E-0001
 50
 0.00000000000000E+0000
 41
 3.23790593364265E-0001
  0
LINE
  8
1
  6
CONTINUOUS
 62
     1
 10
 1.04998774104170E+0001
 20
 5.19935149772209E-0001
 11
 1.04998774104170E+0001
 21
 3.68656416430895E-0001
  0
TEXT
  8
1
 62
     1
 10
 9.62994798035652E+0000
 20
 9.20918606393570E-0001
 40
 1.18110236219991E-0001
  1
D.Freind
  7
STANDARD
 11
 9.62994798035652E+0000
 21
 1.03902884261333E+0000
 50
 0.00000000000000E+0000
 41
 2.60188869667672E-0001
  0
TEXT
  8
1
 62
     1
 10
 1.05235489595507E+0001
 20
 3.84027415512719E-0001
 40
 1.18110236219991E-0001
  1
Blatt
  7
STANDARD
 11
 1.05235489595507E+0001
 21
 5.02137651732482E-0001
 50
 0.00000000000000E+0000
 41
 2.31278995260254E-0001
  0
TEXT
  8
1
 62
     1
 10
 9.04969655426976E+0000
 20
 5.46297824291287E-0001
 40
 1.18110236219991E-0001
  1
für Revolver 8-fach 
  7
STANDARD
 11
 9.04969655426976E+0000
 21
 6.64408060511050E-0001
 50
 0.00000000000000E+0000
 41
 2.35133645181349E-0001
  0
TEXT
  8
1
 62
     1
 10
 9.24727704843099E+0000
 20
 3.93308872470698E-0001
 40
 1.18110236219991E-0001
  1
www.cnc-projects.de.vu
  7
STANDARD
 11
 9.24727704843099E+0000
 21
 5.11419108690461E-0001
 50
 0.00000000000000E+0000
 41
 2.66321267269177E-0001
  0
TEXT
  8
1
 62
     1
 10
 1.08190234414215E+0001
 20
 3.87295368881496E-0001
 40
 1.18110236219991E-0001
  1
1
  7
STANDARD
 11
 1.08190234414215E+0001
 21
 5.05405605101259E-0001
 50
 0.00000000000000E+0000
 41
 3.08371993680339E-0001
  0
TEXT
  8
1
 62
     1
 10
 9.63127492301282E+0000
 20
 1.08115686670317E+0000
 40
 1.18110236219991E-0001
  1
Silberstahl
  7
STANDARD
 11
 9.63127492301282E+0000
 21
 1.19926710292384E+0000
 50
 0.00000000000000E+0000
 41
 2.45295904063823E-0001
  0
TEXT
  8
1
 62
     1
 10
 9.63643000324373E+0000
 20
 7.51752940468577E-0001
 40
 1.18110236219991E-0001
  1
06.01.2004
  7
STANDARD
 11
 9.63643000324373E+0000
 21
 8.69863176688341E-0001
 50
 0.00000000000000E+0000
 41
 2.77534794312487E-0001
  0
LINE
  8
1
  6
DASHDOT
 62
     1
 10
 3.37901343759586E+0000
 20
 3.90000951815819E+0000
 11
 5.34294885880081E+0000
 21
 3.90000951815819E+0000
  0
LINE
  8
1
  6
DASHDOT
 62
     1
 10
 3.82089890736825E+0000
 20
 4.22136823320034E+0000
 11
 3.82089890736825E+0000
 21
 3.66035217133322E+0000
  0
LINE
  8
1
  6
DASHDOT
 62
     1
 10
 5.34294885880081E+0000
 20
 3.90000951815819E+0000
 11
 6.69492766245821E+0000
 21
 3.90000951815819E+0000
  0
LINE
  8
1
  6
CONTINUOUS
 62
     1
 10
 4.70355090461817E+0000
 20
 4.27772013956564E+0000
 11
 4.70355090461817E+0000
 21
 4.27772013956564E+0000
  0
LINE
  8
1
  6
CONTINUOUS
 62
     1
 10
 4.70355090461817E+0000
 20
 4.27772013956564E+0000
 11
 4.54426157798298E+0000
 21
 4.30490166092932E+0000
  0
LINE
  8
1
  6
CONTINUOUS
 62
     1
 10
 4.54426157798298E+0000
 20
 4.30490166092932E+0000
 11
 4.54426157798298E+0000
 21
 4.24449802345771E+0000
  0
LINE
  8
1
  6
CONTINUOUS
 62
     1
 10
 4.54426157798298E+0000
 20
 4.24449802345771E+0000
 11
 4.70355090461817E+0000
 21
 4.27772013956564E+0000
  0
LINE
  8
1
  6
CONTINUOUS
 62
     1
 10
 4.54426157798298E+0000
 20
 4.30490166092932E+0000
 11
 4.54426157798298E+0000
 21
 4.24449802345771E+0000
  0
LINE
  8
1
  6
CONTINUOUS
 62
     1
 10
 4.55280650973145E+0000
 20
 4.24628019380907E+0000
 11
 4.54426157798298E+0000
 21
 4.25482512555027E+0000
  0
LINE
  8
1
  6
CONTINUOUS
 62
     1
 10
 4.56989637322113E+0000
 20
 4.24984453450452E+0000
 11
 4.54426157798298E+0000
 21
 4.27547932973539E+0000
  0
LINE
  8
1
  6
CONTINUOUS
 62
     1
 10
 4.58698623671080E+0000
 20
 4.25340887519997E+0000
 11
 4.54426157798298E+0000
 21
 4.29613353392779E+0000
  0
LINE
  8
1
  6
CONTINUOUS
 62
     1
 10
 4.60407610020047E+0000
 20
 4.25697321588814E+0000
 11
 4.55859324617632E+0000
 21
 4.30245606991957E+0000
  0
LINE
  8
1
  6
CONTINUOUS
 62
     1
 10
 4.62116596369015E+0000
 20
 4.26053755658359E+0000
 11
 4.58349710609036E+0000
 21
 4.29820641418337E+0000
  0
LINE
  8
1
  6
CONTINUOUS
 62
     1
 10
 4.63825582717982E+0000
 20
 4.26410189727903E+0000
 11
 4.60840096601169E+0000
 21
 4.29395675845444E+0000
  0
LINE
  8
1
  6
CONTINUOUS
 62
     1
 10
 4.65534569066949E+0000
 20
 4.26766623797448E+0000
 11
 4.63330482593301E+0000
 21
 4.28970710271824E+0000
  0
LINE
  8
1
  6
CONTINUOUS
 62
     1
 10
 4.67243555416644E+0000
 20
 4.27123057866993E+0000
 11
 4.65820868584706E+0000
 21
 4.28545744698204E+0000
  0
LINE
  8
1
  6
CONTINUOUS
 62
     1
 10
 4.68952541765611E+0000
 20
 4.27479491936538E+0000
 11
 4.68311254576838E+0000
 21
 4.28120779125311E+0000
  0
LINE
  8
1
  6
CONTINUOUS
 62
     1
 10
 4.69472916568338E+0000
 20
 4.27922550273070E+0000
 11
 4.69050233210146E+0000
 21
 4.27499866914150E+0000
  0
LINE
  8
1
  6
CONTINUOUS
 62
     1
 10
 4.67708568783564E+0000
 20
 4.28223622906080E+0000
 11
 4.66440518706804E+0000
 21
 4.26955572829320E+0000
  0
LINE
  8
1
  6
CONTINUOUS
 62
     1
 10
 4.65944220998063E+0000
 20
 4.28524695539090E+0000
 11
 4.63830804203462E+0000
 21
 4.26411278744490E+0000
  0
LINE
  8
1
  6
CONTINUOUS
 62
     1
 10
 4.64179873213288E+0000
 20
 4.28825768172828E+0000
 11
 4.61221089700121E+0000
 21
 4.25866984659660E+0000
  0
LINE
  8
1
  6
CONTINUOUS
 62
     1
 10
 4.62415525427787E+0000
 20
 4.29126840805839E+0000
 11
 4.58611375196779E+0000
 21
 4.25322690574831E+0000
  0
LINE
  8
1
  6
CONTINUOUS
 62
     1
 10
 4.60651177642285E+0000
 20
 4.29427913438849E+0000
 11
 4.56001660693437E+0000
 21
 4.24778396490001E+0000
  0
LINE
  8
1
  6
CONTINUOUS
 62
     1
 10
 4.58886829856783E+0000
 20
 4.29728986072587E+0000
 11
 4.54426157797570E+0000
 21
 4.25268314012646E+0000
  0
LINE
  8
1
  6
CONTINUOUS
 62
     1
 10
 4.57122482072009E+0000
 20
 4.30030058705597E+0000
 11
 4.54426157797570E+0000
 21
 4.27333734431159E+0000
  0
LINE
  8
1
  6
CONTINUOUS
 62
     1
 10
 4.55358134286507E+0000
 20
 4.30331131338608E+0000
 11
 4.54426157798298E+0000
 21
 4.29399154850398E+0000
  0
LINE
  8
1
  6
CONTINUOUS
 62
     1
 10
 4.70355090461817E+0000
 20
 4.27772013956564E+0000
 11
 4.70355090461817E+0000
 21
 4.27772013956564E+0000
  0
LINE
  8
1
  6
CONTINUOUS
 62
     1
 10
 4.70355090461817E+0000
 20
 4.27772013956564E+0000
 11
 4.54426157798298E+0000
 21
 4.30490166092932E+0000
  0
LINE
  8
1
  6
CONTINUOUS
 62
     1
 10
 4.54426157798298E+0000
 20
 4.30490166092932E+0000
 11
 4.54426157798298E+0000
 21
 4.24449802345771E+0000
  0
LINE
  8
1
  6
CONTINUOUS
 62
     1
 10
 4.54426157798298E+0000
 20
 4.24449802345771E+0000
 11
 4.70355090461817E+0000
 21
 4.27772013956564E+0000
  0
LINE
  8
1
  6
CONTINUOUS
 62
     1
 10
 4.54426157798298E+0000
 20
 4.30490166092932E+0000
 11
 4.54426157798298E+0000
 21
 4.24449802345771E+0000
  0
LINE
  8
1
  6
CONTINUOUS
 62
     1
 10
 4.55280650973145E+0000
 20
 4.24628019380907E+0000
 11
 4.54426157798298E+0000
 21
 4.25482512555027E+0000
  0
LINE
  8
1
  6
CONTINUOUS
 62
     1
 10
 4.56989637322113E+0000
 20
 4.24984453450452E+0000
 11
 4.54426157798298E+0000
 21
 4.27547932973539E+0000
  0
LINE
  8
1
  6
CONTINUOUS
 62
     1
 10
 4.58698623671080E+0000
 20
 4.25340887519997E+0000
 11
 4.54426157798298E+0000
 21
 4.29613353392779E+0000
  0
LINE
  8
1
  6
CONTINUOUS
 62
     1
 10
 4.60407610020047E+0000
 20
 4.25697321588814E+0000
 11
 4.55859324617632E+0000
 21
 4.30245606991957E+0000
  0
LINE
  8
1
  6
CONTINUOUS
 62
     1
 10
 4.62116596369015E+0000
 20
 4.26053755658359E+0000
 11
 4.58349710609036E+0000
 21
 4.29820641418337E+0000
  0
LINE
  8
1
  6
CONTINUOUS
 62
     1
 10
 4.63825582717982E+0000
 20
 4.26410189727903E+0000
 11
 4.60840096601169E+0000
 21
 4.29395675845444E+0000
  0
LINE
  8
1
  6
CONTINUOUS
 62
     1
 10
 4.65534569066949E+0000
 20
 4.26766623797448E+0000
 11
 4.63330482593301E+0000
 21
 4.28970710271824E+0000
  0
LINE
  8
1
  6
CONTINUOUS
 62
     1
 10
 4.67243555416644E+0000
 20
 4.27123057866993E+0000
 11
 4.65820868584706E+0000
 21
 4.28545744698204E+0000
  0
LINE
  8
1
  6
CONTINUOUS
 62
     1
 10
 4.68952541765611E+0000
 20
 4.27479491936538E+0000
 11
 4.68311254576838E+0000
 21
 4.28120779125311E+0000
  0
LINE
  8
1
  6
CONTINUOUS
 62
     1
 10
 4.69472916568338E+0000
 20
 4.27922550273070E+0000
 11
 4.69050233210146E+0000
 21
 4.27499866914150E+0000
  0
LINE
  8
1
  6
CONTINUOUS
 62
     1
 10
 4.67708568783564E+0000
 20
 4.28223622906080E+0000
 11
 4.66440518706804E+0000
 21
 4.26955572829320E+0000
  0
LINE
  8
1
  6
CONTINUOUS
 62
     1
 10
 4.65944220998063E+0000
 20
 4.28524695539090E+0000
 11
 4.63830804203462E+0000
 21
 4.26411278744490E+0000
  0
LINE
  8
1
  6
CONTINUOUS
 62
     1
 10
 4.64179873213288E+0000
 20
 4.28825768172828E+0000
 11
 4.61221089700121E+0000
 21
 4.25866984659660E+0000
  0
LINE
  8
1
  6
CONTINUOUS
 62
     1
 10
 4.62415525427787E+0000
 20
 4.29126840805839E+0000
 11
 4.58611375196779E+0000
 21
 4.25322690574831E+0000
  0
LINE
  8
1
  6
CONTINUOUS
 62
     1
 10
 4.60651177642285E+0000
 20
 4.29427913438849E+0000
 11
 4.56001660693437E+0000
 21
 4.24778396490001E+0000
  0
LINE
  8
1
  6
CONTINUOUS
 62
     1
 10
 4.58886829856783E+0000
 20
 4.29728986072587E+0000
 11
 4.54426157797570E+0000
 21
 4.25268314012646E+0000
  0
LINE
  8
1
  6
CONTINUOUS
 62
     1
 10
 4.57122482072009E+0000
 20
 4.30030058705597E+0000
 11
 4.54426157797570E+0000
 21
 4.27333734431159E+0000
  0
LINE
  8
1
  6
CONTINUOUS
 62
     1
 10
 4.55358134286507E+0000
 20
 4.30331131338608E+0000
 11
 4.54426157798298E+0000
 21
 4.29399154850398E+0000
  0
LINE
  8
1
  6
CONTINUOUS
 62
     1
 10
 4.75002481626871E+0000
 20
 4.27560924918362E+0000
 11
 4.75002481626871E+0000
 21
 4.27560924918362E+0000
  0
LINE
  8
1
  6
CONTINUOUS
 62
     1
 10
 4.75002481626871E+0000
 20
 4.27560924918362E+0000
 11
 4.90931414291845E+0000
 21
 4.24842772781994E+0000
  0
LINE
  8
1
  6
CONTINUOUS
 62
     1
 10
 4.90931414291845E+0000
 20
 4.24842772781994E+0000
 11
 4.90931414291845E+0000
 21
 4.30883136529155E+0000
  0
LINE
  8
1
  6
CONTINUOUS
 62
     1
 10
 4.90931414291845E+0000
 20
 4.30883136529155E+0000
 11
 4.75002481626871E+0000
 21
 4.27560924918362E+0000
  0
LINE
  8
1
  6
CONTINUOUS
 62
     1
 10
 4.90931414291845E+0000
 20
 4.24842772781994E+0000
 11
 4.90931414291845E+0000
 21
 4.30883136529155E+0000
  0
LINE
  8
1
  6
CONTINUOUS
 62
     1
 10
 4.76247674622573E+0000
 20
 4.27348442131915E+0000
 11
 4.75856974801718E+0000
 21
 4.27739141952770E+0000
  0
LINE
  8
1
  6
CONTINUOUS
 62
     1
 10
 4.78738060614705E+0000
 20
 4.26923476558295E+0000
 11
 4.77565961150685E+0000
 21
 4.28095576022315E+0000
  0
LINE
  8
1
  6
CONTINUOUS
 62
     1
 10
 4.81228446606838E+0000
 20
 4.26498510984675E+0000
 11
 4.79274947499653E+0000
 21
 4.28452010091860E+0000
  0
LINE
  8
1
  6
CONTINUOUS
 62
     1
 10
 4.83718832598970E+0000
 20
 4.26073545411782E+0000
 11
 4.80983933848620E+0000
 21
 4.28808444161405E+0000
  0
LINE
  8
1
  6
CONTINUOUS
 62
     1
 10
 4.86209218590375E+0000
 20
 4.25648579838162E+0000
 11
 4.82692920197587E+0000
 21
 4.29164878230949E+0000
  0
LINE
  8
1
  6
CONTINUOUS
 62
     1
 10
 4.88699604582507E+0000
 20
 4.25223614264542E+0000
 11
 4.84401906546555E+0000
 21
 4.29521312300494E+0000
  0
LINE
  8
1
  6
CONTINUOUS
 62
     1
 10
 4.90931414291845E+0000
 20
 4.25057224973716E+0000
 11
 4.86110892896249E+0000
 21
 4.29877746370039E+0000
  0
LINE
  8
1
  6
CONTINUOUS
 62
     1
 10
 4.90931414291845E+0000
 20
 4.27122645392228E+0000
 11
 4.87819879245217E+0000
 21
 4.30234180438856E+0000
  0
LINE
  8
1
  6
CONTINUOUS
 62
     1
 10
 4.90931414291845E+0000
 20
 4.29188065810740E+0000
 11
 4.89528865594184E+0000
 21
 4.30590614508401E+0000
  0
LINE
  8
1
  6
CONTINUOUS
 62
     1
 10
 4.90931414291117E+0000
 20
 4.25875482990523E+0000
 11
 4.90049240398366E+0000
 21
 4.24993309097772E+0000
  0
LINE
  8
1
  6
CONTINUOUS
 62
     1
 10
 4.90931414291117E+0000
 20
 4.27940903409035E+0000
 11
 4.88284892612864E+0000
 21
 4.25294381731510E+0000
  0
LINE
  8
1
  6
CONTINUOUS
 62
     1
 10
 4.90931414291117E+0000
 20
 4.30006323827547E+0000
 11
 4.86520544828090E+0000
 21
 4.25595454364520E+0000
  0
LINE
  8
1
  6
CONTINUOUS
 62
     1
 10
 4.89429576326074E+0000
 20
 4.30569906281016E+0000
 11
 4.84756197043316E+0000
 21
 4.25896526998258E+0000
  0
LINE
  8
1
  6
CONTINUOUS
 62
     1
 10
 4.86819861822732E+0000
 20
 4.30025612196914E+0000
 11
 4.82991849257814E+0000
 21
 4.26197599631269E+0000
  0
LINE
  8
1
  6
CONTINUOUS
 62
     1
 10
 4.84210147319391E+0000
 20
 4.29481318112084E+0000
 11
 4.81227501472313E+0000
 21
 4.26498672264279E+0000
  0
LINE
  8
1
  6
CONTINUOUS
 62
     1
 10
 4.81600432816776E+0000
 20
 4.28937024027255E+0000
 11
 4.79463153686811E+0000
 21
 4.26799744897289E+0000
  0
LINE
  8
1
  6
CONTINUOUS
 62
     1
 10
 4.78990718313435E+0000
 20
 4.28392729942425E+0000
 11
 4.77698805901309E+0000
 21
 4.27100817531027E+0000
  0
LINE
  8
1
  6
CONTINUOUS
 62
     1
 10
 4.76381003810820E+0000
 20
 4.27848435858323E+0000
 11
 4.75934458116535E+0000
 21
 4.27401890164037E+0000
  0
LINE
  8
1
  6
CONTINUOUS
 62
     1
 10
 4.75002481626871E+0000
 20
 4.27560924918362E+0000
 11
 4.75002481626871E+0000
 21
 4.27560924918362E+0000
  0
LINE
  8
1
  6
CONTINUOUS
 62
     1
 10
 4.75002481626871E+0000
 20
 4.27560924918362E+0000
 11
 4.90931414291845E+0000
 21
 4.24842772781994E+0000
  0
LINE
  8
1
  6
CONTINUOUS
 62
     1
 10
 4.90931414291845E+0000
 20
 4.24842772781994E+0000
 11
 4.90931414291845E+0000
 21
 4.30883136529155E+0000
  0
LINE
  8
1
  6
CONTINUOUS
 62
     1
 10
 4.90931414291845E+0000
 20
 4.30883136529155E+0000
 11
 4.75002481626871E+0000
 21
 4.27560924918362E+0000
  0
LINE
  8
1
  6
CONTINUOUS
 62
     1
 10
 4.90931414291845E+0000
 20
 4.24842772781994E+0000
 11
 4.90931414291845E+0000
 21
 4.30883136529155E+0000
  0
LINE
  8
1
  6
CONTINUOUS
 62
     1
 10
 4.76247674622573E+0000
 20
 4.27348442131915E+0000
 11
 4.75856974801718E+0000
 21
 4.27739141952770E+0000
  0
LINE
  8
1
  6
CONTINUOUS
 62
     1
 10
 4.78738060614705E+0000
 20
 4.26923476558295E+0000
 11
 4.77565961150685E+0000
 21
 4.28095576022315E+0000
  0
LINE
  8
1
  6
CONTINUOUS
 62
     1
 10
 4.81228446606838E+0000
 20
 4.26498510984675E+0000
 11
 4.79274947499653E+0000
 21
 4.28452010091860E+0000
  0
LINE
  8
1
  6
CONTINUOUS
 62
     1
 10
 4.83718832598970E+0000
 20
 4.26073545411782E+0000
 11
 4.80983933848620E+0000
 21
 4.28808444161405E+0000
  0
LINE
  8
1
  6
CONTINUOUS
 62
     1
 10
 4.86209218590375E+0000
 20
 4.25648579838162E+0000
 11
 4.82692920197587E+0000
 21
 4.29164878230949E+0000
  0
LINE
  8
1
  6
CONTINUOUS
 62
     1
 10
 4.88699604582507E+0000
 20
 4.25223614264542E+0000
 11
 4.84401906546555E+0000
 21
 4.29521312300494E+0000
  0
LINE
  8
1
  6
CONTINUOUS
 62
     1
 10
 4.90931414291845E+0000
 20
 4.25057224973716E+0000
 11
 4.86110892896249E+0000
 21
 4.29877746370039E+0000
  0
LINE
  8
1
  6
CONTINUOUS
 62
     1
 10
 4.90931414291845E+0000
 20
 4.27122645392228E+0000
 11
 4.87819879245217E+0000
 21
 4.30234180438856E+0000
  0
LINE
  8
1
  6
CONTINUOUS
 62
     1
 10
 4.90931414291845E+0000
 20
 4.29188065810740E+0000
 11
 4.89528865594184E+0000
 21
 4.30590614508401E+0000
  0
LINE
  8
1
  6
CONTINUOUS
 62
     1
 10
 4.90931414291117E+0000
 20
 4.25875482990523E+0000
 11
 4.90049240398366E+0000
 21
 4.24993309097772E+0000
  0
LINE
  8
1
  6
CONTINUOUS
 62
     1
 10
 4.90931414291117E+0000
 20
 4.27940903409035E+0000
 11
 4.88284892612864E+0000
 21
 4.25294381731510E+0000
  0
LINE
  8
1
  6
CONTINUOUS
 62
     1
 10
 4.90931414291117E+0000
 20
 4.30006323827547E+0000
 11
 4.86520544828090E+0000
 21
 4.25595454364520E+0000
  0
LINE
  8
1
  6
CONTINUOUS
 62
     1
 10
 4.89429576326074E+0000
 20
 4.30569906281016E+0000
 11
 4.84756197043316E+0000
 21
 4.25896526998258E+0000
  0
LINE
  8
1
  6
CONTINUOUS
 62
     1
 10
 4.86819861822732E+0000
 20
 4.30025612196914E+0000
 11
 4.82991849257814E+0000
 21
 4.26197599631269E+0000
  0
LINE
  8
1
  6
CONTINUOUS
 62
     1
 10
 4.84210147319391E+0000
 20
 4.29481318112084E+0000
 11
 4.81227501472313E+0000
 21
 4.26498672264279E+0000
  0
LINE
  8
1
  6
CONTINUOUS
 62
     1
 10
 4.81600432816776E+0000
 20
 4.28937024027255E+0000
 11
 4.79463153686811E+0000
 21
 4.26799744897289E+0000
  0
LINE
  8
1
  6
CONTINUOUS
 62
     1
 10
 4.78990718313435E+0000
 20
 4.28392729942425E+0000
 11
 4.77698805901309E+0000
 21
 4.27100817531027E+0000
  0
LINE
  8
1
  6
CONTINUOUS
 62
     1
 10
 4.76381003810820E+0000
 20
 4.27848435858323E+0000
 11
 4.75934458116535E+0000
 21
 4.27401890164037E+0000
  0
TEXT
  8
1
 62
     1
 10
 9.63783138428698E+0000
 20
 1.29894020714164E+0000
 40
 1.96850393699833E-0001
  1
Achse 6mm
  7
STANDARD
 11
 9.63783138428698E+0000
 21
 1.49579060084216E+0000
 50
 0.00000000000000E+0000
 41
 2.00441795892630E-0001
  0
CIRCLE
  8
1
  6
CONTINUOUS
 62
     1
 10
 3.82325122553812E+0000
 20
 3.90225817966348E+0000
 40
 1.16114428576111E-0001
  0
CIRCLE
  8
1
  6
CONTINUOUS
 62
     1
 10
 3.82325122553812E+0000
 20
 3.90225817966711E+0000
 40
 9.86972642931505E-0002
  0
LINE
  8
1
  6
CONTINUOUS
 62
     1
 10
 4.70458021161176E+0000
 20
 3.99982192891548E+0000
 11
 4.70458021161176E+0000
 21
 3.81223379444054E+0000
  0
LINE
  8
1
  6
CONTINUOUS
 62
     1
 10
 4.72336870672734E+0000
 20
 4.01858074236225E+0000
 11
 4.72336870672734E+0000
 21
 3.78972321830588E+0000
  0
LINE
  8
1
  6
CONTINUOUS
 62
     1
 10
 4.70458021161176E+0000
 20
 3.99982192891548E+0000
 11
 4.72336870672734E+0000
 21
 4.01858074236225E+0000
  0
LINE
  8
1
  6
CONTINUOUS
 62
     1
 10
 4.70458021161176E+0000
 20
 3.81223379444054E+0000
 11
 4.72336870672734E+0000
 21
 3.78972321830588E+0000
  0
LINE
  8
1
  6
CONTINUOUS
 62
     1
 10
 4.72336870672734E+0000
 20
 4.01858074236225E+0000
 11
 4.74671226626378E+0000
 21
 4.01858074236225E+0000
  0
LINE
  8
1
  6
CONTINUOUS
 62
     1
 10
 4.74671226626378E+0000
 20
 4.01858074236225E+0000
 11
 4.74671226626378E+0000
 21
 3.79227624706255E+0000
  0
LINE
  8
1
  6
CONTINUOUS
 62
     1
 10
 4.74671226626378E+0000
 20
 3.79227624706255E+0000
 11
 4.72362533007254E+0000
 21
 3.79227624706255E+0000
  0
LINE
  8
1
  6
CONTINUOUS
 62
     1
 10
 4.74671226626378E+0000
 20
 4.00182591922930E+0000
 11
 4.79288613864628E+0000
 21
 4.00182591922930E+0000
  0
LINE
  8
1
  6
CONTINUOUS
 62
     1
 10
 4.79288613864628E+0000
 20
 4.00182591922930E+0000
 11
 4.79288613864628E+0000
 21
 4.01858989299944E+0000
  0
LINE
  8
1
  6
CONTINUOUS
 62
     1
 10
 4.74671226626378E+0000
 20
 3.81113571755850E+0000
 11
 4.79288613864628E+0000
 21
 3.81113571755850E+0000
  0
LINE
  8
1
  6
CONTINUOUS
 62
     1
 10
 4.79288613864628E+0000
 20
 3.81113571755850E+0000
 11
 4.79288613864628E+0000
 21
 3.79227624706255E+0000
  0
LINE
  8
1
  6
CONTINUOUS
 62
     1
 10
 4.79288613864628E+0000
 20
 4.01858989299944E+0000
 11
 5.90090550419700E+0000
 21
 4.01858989299944E+0000
  0
LINE
  8
1
  6
CONTINUOUS
 62
     1
 10
 5.90090550419700E+0000
 20
 4.01858989299944E+0000
 11
 5.90090550419700E+0000
 21
 3.79156071160105E+0000
  0
LINE
  8
1
  6
CONTINUOUS
 62
     1
 10
 5.90090550419700E+0000
 20
 3.79156071160105E+0000
 11
 4.79242542374413E+0000
 21
 3.79156071160105E+0000
  0
LINE
  8
1
  6
CONTINUOUS
 62
     1
 10
 5.92578410950227E+0000
 20
 3.99579497745071E+0000
 11
 5.92578410950227E+0000
 21
 3.81364009169192E+0000
  0
LINE
  8
1
  6
CONTINUOUS
 62
     1
 10
 5.90090550419700E+0000
 20
 4.01858989299944E+0000
 11
 5.92578410950227E+0000
 21
 3.99579497745071E+0000
  0
LINE
  8
1
  6
CONTINUOUS
 62
     1
 10
 5.92578410950227E+0000
 20
 3.81364009169192E+0000
 11
 5.90090550419700E+0000
 21
 3.79156071160105E+0000
  0
LINE
  8
1
  6
CONTINUOUS
 62
     1
 10
 4.79288613864628E+0000
 20
 4.00182591922930E+0000
 11
 4.79288613864628E+0000
 21
 3.81088016918147E+0000
  0
LINE
  8
1
  6
CONTINUOUS
 62
     1
 10
 4.70458021161176E+0000
 20
 3.99982192891548E+0000
 11
 4.70458021161176E+0000
 21
 4.62521652791474E+0000
  0
LINE
  8
1
  6
CONTINUOUS
 62
     1
 10
 4.70458021161176E+0000
 20
 4.62521652791474E+0000
 11
 5.92804839956807E+0000
 21
 4.62521652791474E+0000
  0
LINE
  8
1
  6
CONTINUOUS
 62
     1
 10
 5.92804839956807E+0000
 20
 4.62521652791474E+0000
 11
 5.92804839956807E+0000
 21
 3.98532071133013E+0000
  0
LINE
  8
1
  6
CONTINUOUS
 62
     1
 10
 4.74671226626378E+0000
 20
 3.79227624706255E+0000
 11
 4.74671226626378E+0000
 21
 3.49658138685118E+0000
  0
LINE
  8
1
  6
CONTINUOUS
 62
     1
 10
 4.74671226626378E+0000
 20
 3.49658138685118E+0000
 11
 4.79258092126838E+0000
 21
 3.49658138685118E+0000
  0
LINE
  8
1
  6
CONTINUOUS
 62
     1
 10
 4.79258092126838E+0000
 20
 3.49658138685118E+0000
 11
 4.79258092126838E+0000
 21
 3.79385582132818E+0000
  0
LINE
  8
1
  6
CONTINUOUS
 62
     1
 10
 4.74671226626378E+0000
 20
 4.01858074236225E+0000
 11
 4.74671226626378E+0000
 21
 4.27755659606919E+0000
  0
LINE
  8
1
  6
CONTINUOUS
 62
     1
 10
 4.74671226626378E+0000
 20
 4.27755659606919E+0000
 11
 4.70679004512931E+0000
 21
 4.27755659606919E+0000
  0
LINE
  8
1
  6
CONTINUOUS
 62
     1
 10
 3.70757866423810E+0000
 20
 3.89966536579959E+0000
 11
 3.70757866423810E+0000
 21
 4.62521652791474E+0000
  0
LINE
  8
1
  6
CONTINUOUS
 62
     1
 10
 3.70757866423810E+0000
 20
 4.62521652791474E+0000
 11
 3.93467215989222E+0000
 21
 4.62521652791474E+0000
  0
LINE
  8
1
  6
CONTINUOUS
 62
     1
 10
 3.93467215989222E+0000
 20
 4.62521652791474E+0000
 11
 3.93467215989222E+0000
 21
 3.89966536579959E+0000
  0
LINE
  8
1
  6
CONTINUOUS
 62
     1
 10
 4.70544046870054E+0000
 20
 4.62148573133891E+0000
 11
 4.70544046870054E+0000
 21
 4.62148573133891E+0000
  0
LINE
  8
1
  6
CONTINUOUS
 62
     1
 10
 4.70544046870054E+0000
 20
 4.62148573133891E+0000
 11
 4.86472979535029E+0000
 21
 4.59430420997523E+0000
  0
LINE
  8
1
  6
CONTINUOUS
 62
     1
 10
 4.86472979535029E+0000
 20
 4.59430420997523E+0000
 11
 4.86472979535029E+0000
 21
 4.65470784744684E+0000
  0
LINE
  8
1
  6
CONTINUOUS
 62
     1
 10
 4.86472979535029E+0000
 20
 4.65470784744684E+0000
 11
 4.70544046870054E+0000
 21
 4.62148573133891E+0000
  0
LINE
  8
1
  6
CONTINUOUS
 62
     1
 10
 4.86472979535029E+0000
 20
 4.59430420997523E+0000
 11
 4.86472979535029E+0000
 21
 4.65470784744684E+0000
  0
LINE
  8
1
  6
CONTINUOUS
 62
     1
 10
 4.71789239865757E+0000
 20
 4.61936090347444E+0000
 11
 4.71398540044174E+0000
 21
 4.62326790168299E+0000
  0
LINE
  8
1
  6
CONTINUOUS
 62
     1
 10
 4.74279625857889E+0000
 20
 4.61511124773824E+0000
 11
 4.73107526393869E+0000
 21
 4.62683224237844E+0000
  0
LINE
  8
1
  6
CONTINUOUS
 62
     1
 10
 4.76770011850022E+0000
 20
 4.61086159200204E+0000
 11
 4.74816512742836E+0000
 21
 4.63039658307389E+0000
  0
LINE
  8
1
  6
CONTINUOUS
 62
     1
 10
 4.79260397841426E+0000
 20
 4.60661193626584E+0000
 11
 4.76525499091804E+0000
 21
 4.63396092376934E+0000
  0
LINE
  8
1
  6
CONTINUOUS
 62
     1
 10
 4.81750783833559E+0000
 20
 4.60236228053691E+0000
 11
 4.78234485440771E+0000
 21
 4.63752526446478E+0000
  0
LINE
  8
1
  6
CONTINUOUS
 62
     1
 10
 4.84241169825691E+0000
 20
 4.59811262480071E+0000
 11
 4.79943471789738E+0000
 21
 4.64108960516023E+0000
  0
LINE
  8
1
  6
CONTINUOUS
 62
     1
 10
 4.86472979535029E+0000
 20
 4.59644873189245E+0000
 11
 4.81652458139433E+0000
 21
 4.64465394584840E+0000
  0
LINE
  8
1
  6
CONTINUOUS
 62
     1
 10
 4.86472979535029E+0000
 20
 4.61710293607757E+0000
 11
 4.83361444488401E+0000
 21
 4.64821828654385E+0000
  0
LINE
  8
1
  6
CONTINUOUS
 62
     1
 10
 4.86472979535029E+0000
 20
 4.63775714026269E+0000
 11
 4.85070430837368E+0000
 21
 4.65178262723930E+0000
  0
LINE
  8
1
  6
CONTINUOUS
 62
     1
 10
 4.86472979534301E+0000
 20
 4.60463131206052E+0000
 11
 4.85590805641550E+0000
 21
 4.59580957313301E+0000
  0
LINE
  8
1
  6
CONTINUOUS
 62
     1
 10
 4.86472979534301E+0000
 20
 4.62528551624564E+0000
 11
 4.83826457856048E+0000
 21
 4.59882029946311E+0000
  0
LINE
  8
1
  6
CONTINUOUS
 62
     1
 10
 4.86472979534301E+0000
 20
 4.64593972043076E+0000
 11
 4.82062110071274E+0000
 21
 4.60183102580049E+0000
  0
LINE
  8
1
  6
CONTINUOUS
 62
     1
 10
 4.84971141569258E+0000
 20
 4.65157554496545E+0000
 11
 4.80297762285772E+0000
 21
 4.60484175213787E+0000
  0
LINE
  8
1
  6
CONTINUOUS
 62
     1
 10
 4.82361427065916E+0000
 20
 4.64613260412443E+0000
 11
 4.78533414500998E+0000
 21
 4.60785247846798E+0000
  0
LINE
  8
1
  6
CONTINUOUS
 62
     1
 10
 4.79751712562575E+0000
 20
 4.64068966326886E+0000
 11
 4.76769066715497E+0000
 21
 4.61086320479808E+0000
  0
LINE
  8
1
  6
CONTINUOUS
 62
     1
 10
 4.77141998059960E+0000
 20
 4.63524672242784E+0000
 11
 4.75004718929995E+0000
 21
 4.61387393112818E+0000
  0
LINE
  8
1
  6
CONTINUOUS
 62
     1
 10
 4.74532283556618E+0000
 20
 4.62980378157954E+0000
 11
 4.73240371144493E+0000
 21
 4.61688465746556E+0000
  0
LINE
  8
1
  6
CONTINUOUS
 62
     1
 10
 4.71922569054004E+0000
 20
 4.62436084073852E+0000
 11
 4.71476023359719E+0000
 21
 4.61989538379567E+0000
  0
LINE
  8
1
  6
CONTINUOUS
 62
     1
 10
 4.70544046870054E+0000
 20
 4.62148573133891E+0000
 11
 4.70544046870054E+0000
 21
 4.62148573133891E+0000
  0
LINE
  8
1
  6
CONTINUOUS
 62
     1
 10
 4.70544046870054E+0000
 20
 4.62148573133891E+0000
 11
 4.86472979535029E+0000
 21
 4.59430420997523E+0000
  0
LINE
  8
1
  6
CONTINUOUS
 62
     1
 10
 4.86472979535029E+0000
 20
 4.59430420997523E+0000
 11
 4.86472979535029E+0000
 21
 4.65470784744684E+0000
  0
LINE
  8
1
  6
CONTINUOUS
 62
     1
 10
 4.86472979535029E+0000
 20
 4.65470784744684E+0000
 11
 4.70544046870054E+0000
 21
 4.62148573133891E+0000
  0
LINE
  8
1
  6
CONTINUOUS
 62
     1
 10
 4.86472979535029E+0000
 20
 4.59430420997523E+0000
 11
 4.86472979535029E+0000
 21
 4.65470784744684E+0000
  0
LINE
  8
1
  6
CONTINUOUS
 62
     1
 10
 4.71789239865757E+0000
 20
 4.61936090347444E+0000
 11
 4.71398540044174E+0000
 21
 4.62326790168299E+0000
  0
LINE
  8
1
  6
CONTINUOUS
 62
     1
 10
 4.74279625857889E+0000
 20
 4.61511124773824E+0000
 11
 4.73107526393869E+0000
 21
 4.62683224237844E+0000
  0
LINE
  8
1
  6
CONTINUOUS
 62
     1
 10
 4.76770011850022E+0000
 20
 4.61086159200204E+0000
 11
 4.74816512742836E+0000
 21
 4.63039658307389E+0000
  0
LINE
  8
1
  6
CONTINUOUS
 62
     1
 10
 4.79260397841426E+0000
 20
 4.60661193626584E+0000
 11
 4.76525499091804E+0000
 21
 4.63396092376934E+0000
  0
LINE
  8
1
  6
CONTINUOUS
 62
     1
 10
 4.81750783833559E+0000
 20
 4.60236228053691E+0000
 11
 4.78234485440771E+0000
 21
 4.63752526446478E+0000
  0
LINE
  8
1
  6
CONTINUOUS
 62
     1
 10
 4.84241169825691E+0000
 20
 4.59811262480071E+0000
 11
 4.79943471789738E+0000
 21
 4.64108960516023E+0000
  0
LINE
  8
1
  6
CONTINUOUS
 62
     1
 10
 4.86472979535029E+0000
 20
 4.59644873189245E+0000
 11
 4.81652458139433E+0000
 21
 4.64465394584840E+0000
  0
LINE
  8
1
  6
CONTINUOUS
 62
     1
 10
 4.86472979535029E+0000
 20
 4.61710293607757E+0000
 11
 4.83361444488401E+0000
 21
 4.64821828654385E+0000
  0
LINE
  8
1
  6
CONTINUOUS
 62
     1
 10
 4.86472979535029E+0000
 20
 4.63775714026269E+0000
 11
 4.85070430837368E+0000
 21
 4.65178262723930E+0000
  0
LINE
  8
1
  6
CONTINUOUS
 62
     1
 10
 4.86472979534301E+0000
 20
 4.60463131206052E+0000
 11
 4.85590805641550E+0000
 21
 4.59580957313301E+0000
  0
LINE
  8
1
  6
CONTINUOUS
 62
     1
 10
 4.86472979534301E+0000
 20
 4.62528551624564E+0000
 11
 4.83826457856048E+0000
 21
 4.59882029946311E+0000
  0
LINE
  8
1
  6
CONTINUOUS
 62
     1
 10
 4.86472979534301E+0000
 20
 4.64593972043076E+0000
 11
 4.82062110071274E+0000
 21
 4.60183102580049E+0000
  0
LINE
  8
1
  6
CONTINUOUS
 62
     1
 10
 4.84971141569258E+0000
 20
 4.65157554496545E+0000
 11
 4.80297762285772E+0000
 21
 4.60484175213787E+0000
  0
LINE
  8
1
  6
CONTINUOUS
 62
     1
 10
 4.82361427065916E+0000
 20
 4.64613260412443E+0000
 11
 4.78533414500998E+0000
 21
 4.60785247846798E+0000
  0
LINE
  8
1
  6
CONTINUOUS
 62
     1
 10
 4.79751712562575E+0000
 20
 4.64068966326886E+0000
 11
 4.76769066715497E+0000
 21
 4.61086320479808E+0000
  0
LINE
  8
1
  6
CONTINUOUS
 62
     1
 10
 4.77141998059960E+0000
 20
 4.63524672242784E+0000
 11
 4.75004718929995E+0000
 21
 4.61387393112818E+0000
  0
LINE
  8
1
  6
CONTINUOUS
 62
     1
 10
 4.74532283556618E+0000
 20
 4.62980378157954E+0000
 11
 4.73240371144493E+0000
 21
 4.61688465746556E+0000
  0
LINE
  8
1
  6
CONTINUOUS
 62
     1
 10
 4.71922569054004E+0000
 20
 4.62436084073852E+0000
 11
 4.71476023359719E+0000
 21
 4.61989538379567E+0000
  0
LINE
  8
1
  6
CONTINUOUS
 62
     1
 10
 5.93031107437855E+0000
 20
 4.62359662172094E+0000
 11
 5.93031107437855E+0000
 21
 4.62359662172094E+0000
  0
LINE
  8
1
  6
CONTINUOUS
 62
     1
 10
 5.93031107437855E+0000
 20
 4.62359662172094E+0000
 11
 5.77102174774336E+0000
 21
 4.65077814308461E+0000
  0
LINE
  8
1
  6
CONTINUOUS
 62
     1
 10
 5.77102174774336E+0000
 20
 4.65077814308461E+0000
 11
 5.77102174774336E+0000
 21
 4.59037450561300E+0000
  0
LINE
  8
1
  6
CONTINUOUS
 62
     1
 10
 5.77102174774336E+0000
 20
 4.59037450561300E+0000
 11
 5.93031107437855E+0000
 21
 4.62359662172094E+0000
  0
LINE
  8
1
  6
CONTINUOUS
 62
     1
 10
 5.77102174774336E+0000
 20
 4.65077814308461E+0000
 11
 5.77102174774336E+0000
 21
 4.59037450561300E+0000
  0
LINE
  8
1
  6
CONTINUOUS
 62
     1
 10
 5.77956667949184E+0000
 20
 4.59215667596436E+0000
 11
 5.77102174774336E+0000
 21
 4.60070160771284E+0000
  0
LINE
  8
1
  6
CONTINUOUS
 62
     1
 10
 5.79665654298151E+0000
 20
 4.59572101665981E+0000
 11
 5.77102174774336E+0000
 21
 4.62135581189796E+0000
  0
LINE
  8
1
  6
CONTINUOUS
 62
     1
 10
 5.81374640647118E+0000
 20
 4.59928535735526E+0000
 11
 5.77102174774336E+0000
 21
 4.64201001608308E+0000
  0
LINE
  8
1
  6
CONTINUOUS
 62
     1
 10
 5.83083626996813E+0000
 20
 4.60284969804343E+0000
 11
 5.78535341593670E+0000
 21
 4.64833255207486E+0000
  0
LINE
  8
1
  6
CONTINUOUS
 62
     1
 10
 5.84792613345780E+0000
 20
 4.60641403873888E+0000
 11
 5.81025727585802E+0000
 21
 4.64408289633866E+0000
  0
LINE
  8
1
  6
CONTINUOUS
 62
     1
 10
 5.86501599694748E+0000
 20
 4.60997837943432E+0000
 11
 5.83516113577934E+0000
 21
 4.63983324060246E+0000
  0
LINE
  8
1
  6
CONTINUOUS
 62
     1
 10
 5.88210586043715E+0000
 20
 4.61354272012977E+0000
 11
 5.86006499569339E+0000
 21
 4.63558358487353E+0000
  0
LINE
  8
1
  6
CONTINUOUS
 62
     1
 10
 5.89919572392682E+0000
 20
 4.61710706082522E+0000
 11
 5.88496885561472E+0000
 21
 4.63133392913733E+0000
  0
LINE
  8
1
  6
CONTINUOUS
 62
     1
 10
 5.91628558741650E+0000
 20
 4.62067140152067E+0000
 11
 5.90987271553604E+0000
 21
 4.62708427340112E+0000
  0
LINE
  8
1
  6
CONTINUOUS
 62
     1
 10
 5.92148933544377E+0000
 20
 4.62510198488599E+0000
 11
 5.91726250186184E+0000
 21
 4.62087515129679E+0000
  0
LINE
  8
1
  6
CONTINUOUS
 62
     1
 10
 5.90384585759602E+0000
 20
 4.62811271121609E+0000
 11
 5.89116535682842E+0000
 21
 4.61543221044849E+0000
  0
LINE
  8
1
  6
CONTINUOUS
 62
     1
 10
 5.88620237974101E+0000
 20
 4.63112343754619E+0000
 11
 5.86506821179501E+0000
 21
 4.60998926960019E+0000
  0
LINE
  8
1
  6
CONTINUOUS
 62
     1
 10
 5.86855890189327E+0000
 20
 4.63413416388357E+0000
 11
 5.83897106676159E+0000
 21
 4.60454632875917E+0000
  0
LINE
  8
1
  6
CONTINUOUS
 62
     1
 10
 5.85091542403825E+0000
 20
 4.63714489021368E+0000
 11
 5.81287392172817E+0000
 21
 4.59910338791087E+0000
  0
LINE
  8
1
  6
CONTINUOUS
 62
     1
 10
 5.83327194618323E+0000
 20
 4.64015561655106E+0000
 11
 5.78677677669475E+0000
 21
 4.59366044706258E+0000
  0
LINE
  8
1
  6
CONTINUOUS
 62
     1
 10
 5.81562846832821E+0000
 20
 4.64316634288116E+0000
 11
 5.77102174773609E+0000
 21
 4.59855962228175E+0000
  0
LINE
  8
1
  6
CONTINUOUS
 62
     1
 10
 5.79798499048047E+0000
 20
 4.64617706921126E+0000
 11
 5.77102174773609E+0000
 21
 4.61921382646688E+0000
  0
LINE
  8
1
  6
CONTINUOUS
 62
     1
 10
 5.78034151262545E+0000
 20
 4.64918779554137E+0000
 11
 5.77102174774336E+0000
 21
 4.63986803065927E+0000
  0
LINE
  8
1
  6
CONTINUOUS
 62
     1
 10
 5.93031107437855E+0000
 20
 4.62359662172094E+0000
 11
 5.93031107437855E+0000
 21
 4.62359662172094E+0000
  0
LINE
  8
1
  6
CONTINUOUS
 62
     1
 10
 5.93031107437855E+0000
 20
 4.62359662172094E+0000
 11
 5.77102174774336E+0000
 21
 4.65077814308461E+0000
  0
LINE
  8
1
  6
CONTINUOUS
 62
     1
 10
 5.77102174774336E+0000
 20
 4.65077814308461E+0000
 11
 5.77102174774336E+0000
 21
 4.59037450561300E+0000
  0
LINE
  8
1
  6
CONTINUOUS
 62
     1
 10
 5.77102174774336E+0000
 20
 4.59037450561300E+0000
 11
 5.93031107437855E+0000
 21
 4.62359662172094E+0000
  0
LINE
  8
1
  6
CONTINUOUS
 62
     1
 10
 5.77102174774336E+0000
 20
 4.65077814308461E+0000
 11
 5.77102174774336E+0000
 21
 4.59037450561300E+0000
  0
LINE
  8
1
  6
CONTINUOUS
 62
     1
 10
 5.77956667949184E+0000
 20
 4.59215667596436E+0000
 11
 5.77102174774336E+0000
 21
 4.60070160771284E+0000
  0
LINE
  8
1
  6
CONTINUOUS
 62
     1
 10
 5.79665654298151E+0000
 20
 4.59572101665981E+0000
 11
 5.77102174774336E+0000
 21
 4.62135581189796E+0000
  0
LINE
  8
1
  6
CONTINUOUS
 62
     1
 10
 5.81374640647118E+0000
 20
 4.59928535735526E+0000
 11
 5.77102174774336E+0000
 21
 4.64201001608308E+0000
  0
LINE
  8
1
  6
CONTINUOUS
 62
     1
 10
 5.83083626996813E+0000
 20
 4.60284969804343E+0000
 11
 5.78535341593670E+0000
 21
 4.64833255207486E+0000
  0
LINE
  8
1
  6
CONTINUOUS
 62
     1
 10
 5.84792613345780E+0000
 20
 4.60641403873888E+0000
 11
 5.81025727585802E+0000
 21
 4.64408289633866E+0000
  0
LINE
  8
1
  6
CONTINUOUS
 62
     1
 10
 5.86501599694748E+0000
 20
 4.60997837943432E+0000
 11
 5.83516113577934E+0000
 21
 4.63983324060246E+0000
  0
LINE
  8
1
  6
CONTINUOUS
 62
     1
 10
 5.88210586043715E+0000
 20
 4.61354272012977E+0000
 11
 5.86006499569339E+0000
 21
 4.63558358487353E+0000
  0
LINE
  8
1
  6
CONTINUOUS
 62
     1
 10
 5.89919572392682E+0000
 20
 4.61710706082522E+0000
 11
 5.88496885561472E+0000
 21
 4.63133392913733E+0000
  0
LINE
  8
1
  6
CONTINUOUS
 62
     1
 10
 5.91628558741650E+0000
 20
 4.62067140152067E+0000
 11
 5.90987271553604E+0000
 21
 4.62708427340112E+0000
  0
LINE
  8
1
  6
CONTINUOUS
 62
     1
 10
 5.92148933544377E+0000
 20
 4.62510198488599E+0000
 11
 5.91726250186184E+0000
 21
 4.62087515129679E+0000
  0
LINE
  8
1
  6
CONTINUOUS
 62
     1
 10
 5.90384585759602E+0000
 20
 4.62811271121609E+0000
 11
 5.89116535682842E+0000
 21
 4.61543221044849E+0000
  0
LINE
  8
1
  6
CONTINUOUS
 62
     1
 10
 5.88620237974101E+0000
 20
 4.63112343754619E+0000
 11
 5.86506821179501E+0000
 21
 4.60998926960019E+0000
  0
LINE
  8
1
  6
CONTINUOUS
 62
     1
 10
 5.86855890189327E+0000
 20
 4.63413416388357E+0000
 11
 5.83897106676159E+0000
 21
 4.60454632875917E+0000
  0
LINE
  8
1
  6
CONTINUOUS
 62
     1
 10
 5.85091542403825E+0000
 20
 4.63714489021368E+0000
 11
 5.81287392172817E+0000
 21
 4.59910338791087E+0000
  0
LINE
  8
1
  6
CONTINUOUS
 62
     1
 10
 5.83327194618323E+0000
 20
 4.64015561655106E+0000
 11
 5.78677677669475E+0000
 21
 4.59366044706258E+0000
  0
LINE
  8
1
  6
CONTINUOUS
 62
     1
 10
 5.81562846832821E+0000
 20
 4.64316634288116E+0000
 11
 5.77102174773609E+0000
 21
 4.59855962228175E+0000
  0
LINE
  8
1
  6
CONTINUOUS
 62
     1
 10
 5.79798499048047E+0000
 20
 4.64617706921126E+0000
 11
 5.77102174773609E+0000
 21
 4.61921382646688E+0000
  0
LINE
  8
1
  6
CONTINUOUS
 62
     1
 10
 5.78034151262545E+0000
 20
 4.64918779554137E+0000
 11
 5.77102174774336E+0000
 21
 4.63986803065927E+0000
  0
LINE
  8
1
  6
CONTINUOUS
 62
     1
 10
 4.79627786696074E+0000
 20
 3.49788914001329E+0000
 11
 4.79627786696074E+0000
 21
 3.49788914001329E+0000
  0
LINE
  8
1
  6
CONTINUOUS
 62
     1
 10
 4.79627786696074E+0000
 20
 3.49788914001329E+0000
 11
 4.95556719361048E+0000
 21
 3.47070761864961E+0000
  0
LINE
  8
1
  6
CONTINUOUS
 62
     1
 10
 4.95556719361048E+0000
 20
 3.47070761864961E+0000
 11
 4.95556719361048E+0000
 21
 3.53111125612122E+0000
  0
LINE
  8
1
  6
CONTINUOUS
 62
     1
 10
 4.95556719361048E+0000
 20
 3.53111125612122E+0000
 11
 4.79627786696074E+0000
 21
 3.49788914001329E+0000
  0
LINE
  8
1
  6
CONTINUOUS
 62
     1
 10
 4.95556719361048E+0000
 20
 3.47070761864961E+0000
 11
 4.95556719361048E+0000
 21
 3.53111125612122E+0000
  0
LINE
  8
1
  6
CONTINUOUS
 62
     1
 10
 4.80872979691776E+0000
 20
 3.49576431214518E+0000
 11
 4.80482279870921E+0000
 21
 3.49967131036101E+0000
  0
LINE
  8
1
  6
CONTINUOUS
 62
     1
 10
 4.83363365683908E+0000
 20
 3.49151465641262E+0000
 11
 4.82191266219888E+0000
 21
 3.50323565105646E+0000
  0
LINE
  8
1
  6
CONTINUOUS
 62
     1
 10
 4.85853751676041E+0000
 20
 3.48726500068005E+0000
 11
 4.83900252568856E+0000
 21
 3.50679999174827E+0000
  0
LINE
  8
1
  6
CONTINUOUS
 62
     1
 10
 4.88344137668173E+0000
 20
 3.48301534494385E+0000
 11
 4.85609238917823E+0000
 21
 3.51036433244371E+0000
  0
LINE
  8
1
  6
CONTINUOUS
 62
     1
 10
 4.90834523659578E+0000
 20
 3.47876568921129E+0000
 11
 4.87318225266790E+0000
 21
 3.51392867313916E+0000
  0
LINE
  8
1
  6
CONTINUOUS
 62
     1
 10
 4.93324909651710E+0000
 20
 3.47451603347508E+0000
 11
 4.89027211616485E+0000
 21
 3.51749301383097E+0000
  0
LINE
  8
1
  6
CONTINUOUS
 62
     1
 10
 4.95556719361048E+0000
 20
 3.47285214056683E+0000
 11
 4.90736197965452E+0000
 21
 3.52105735452642E+0000
  0
LINE
  8
1
  6
CONTINUOUS
 62
     1
 10
 4.95556719361048E+0000
 20
 3.49350634475195E+0000
 11
 4.92445184314420E+0000
 21
 3.52462169522187E+0000
  0
LINE
  8
1
  6
CONTINUOUS
 62
     1
 10
 4.95556719361048E+0000
 20
 3.51416054893707E+0000
 11
 4.94154170663387E+0000
 21
 3.52818603591368E+0000
  0
LINE
  8
1
  6
CONTINUOUS
 62
     1
 10
 4.95556719360320E+0000
 20
 3.48103472073853E+0000
 11
 4.94674545467569E+0000
 21
 3.47221298181103E+0000
  0
LINE
  8
1
  6
CONTINUOUS
 62
     1
 10
 4.95556719360320E+0000
 20
 3.50168892492366E+0000
 11
 4.92910197682068E+0000
 21
 3.47522370814113E+0000
  0
LINE
  8
1
  6
CONTINUOUS
 62
     1
 10
 4.95556719360320E+0000
 20
 3.52234312910878E+0000
 11
 4.91145849897293E+0000
 21
 3.47823443447487E+0000
  0
LINE
  8
1
  6
CONTINUOUS
 62
     1
 10
 4.94054881395277E+0000
 20
 3.52797895363983E+0000
 11
 4.89381502112519E+0000
 21
 3.48124516081225E+0000
  0
LINE
  8
1
  6
CONTINUOUS
 62
     1
 10
 4.91445166891936E+0000
 20
 3.52253601279517E+0000
 11
 4.87617154327017E+0000
 21
 3.48425588714235E+0000
  0
LINE
  8
1
  6
CONTINUOUS
 62
     1
 10
 4.88835452388594E+0000
 20
 3.51709307194687E+0000
 11
 4.85852806541516E+0000
 21
 3.48726661347609E+0000
  0
LINE
  8
1
  6
CONTINUOUS
 62
     1
 10
 4.86225737885979E+0000
 20
 3.51165013110585E+0000
 11
 4.84088458756014E+0000
 21
 3.49027733980620E+0000
  0
LINE
  8
1
  6
CONTINUOUS
 62
     1
 10
 4.83616023382638E+0000
 20
 3.50620719025756E+0000
 11
 4.82324110970512E+0000
 21
 3.49328806613994E+0000
  0
LINE
  8
1
  6
CONTINUOUS
 62
     1
 10
 4.81006308880023E+0000
 20
 3.50076424941290E+0000
 11
 4.80559763185738E+0000
 21
 3.49629879247004E+0000
  0
LINE
  8
1
  6
CONTINUOUS
 62
     1
 10
 4.79627786696074E+0000
 20
 3.49788914001329E+0000
 11
 4.79627786696074E+0000
 21
 3.49788914001329E+0000
  0
LINE
  8
1
  6
CONTINUOUS
 62
     1
 10
 4.79627786696074E+0000
 20
 3.49788914001329E+0000
 11
 4.95556719361048E+0000
 21
 3.47070761864961E+0000
  0
LINE
  8
1
  6
CONTINUOUS
 62
     1
 10
 4.95556719361048E+0000
 20
 3.47070761864961E+0000
 11
 4.95556719361048E+0000
 21
 3.53111125612122E+0000
  0
LINE
  8
1
  6
CONTINUOUS
 62
     1
 10
 4.95556719361048E+0000
 20
 3.53111125612122E+0000
 11
 4.79627786696074E+0000
 21
 3.49788914001329E+0000
  0
LINE
  8
1
  6
CONTINUOUS
 62
     1
 10
 4.95556719361048E+0000
 20
 3.47070761864961E+0000
 11
 4.95556719361048E+0000
 21
 3.53111125612122E+0000
  0
LINE
  8
1
  6
CONTINUOUS
 62
     1
 10
 4.80872979691776E+0000
 20
 3.49576431214518E+0000
 11
 4.80482279870921E+0000
 21
 3.49967131036101E+0000
  0
LINE
  8
1
  6
CONTINUOUS
 62
     1
 10
 4.83363365683908E+0000
 20
 3.49151465641262E+0000
 11
 4.82191266219888E+0000
 21
 3.50323565105646E+0000
  0
LINE
  8
1
  6
CONTINUOUS
 62
     1
 10
 4.85853751676041E+0000
 20
 3.48726500068005E+0000
 11
 4.83900252568856E+0000
 21
 3.50679999174827E+0000
  0
LINE
  8
1
  6
CONTINUOUS
 62
     1
 10
 4.88344137668173E+0000
 20
 3.48301534494385E+0000
 11
 4.85609238917823E+0000
 21
 3.51036433244371E+0000
  0
LINE
  8
1
  6
CONTINUOUS
 62
     1
 10
 4.90834523659578E+0000
 20
 3.47876568921129E+0000
 11
 4.87318225266790E+0000
 21
 3.51392867313916E+0000
  0
LINE
  8
1
  6
CONTINUOUS
 62
     1
 10
 4.93324909651710E+0000
 20
 3.47451603347508E+0000
 11
 4.89027211616485E+0000
 21
 3.51749301383097E+0000
  0
LINE
  8
1
  6
CONTINUOUS
 62
     1
 10
 4.95556719361048E+0000
 20
 3.47285214056683E+0000
 11
 4.90736197965452E+0000
 21
 3.52105735452642E+0000
  0
LINE
  8
1
  6
CONTINUOUS
 62
     1
 10
 4.95556719361048E+0000
 20
 3.49350634475195E+0000
 11
 4.92445184314420E+0000
 21
 3.52462169522187E+0000
  0
LINE
  8
1
  6
CONTINUOUS
 62
     1
 10
 4.95556719361048E+0000
 20
 3.51416054893707E+0000
 11
 4.94154170663387E+0000
 21
 3.52818603591368E+0000
  0
LINE
  8
1
  6
CONTINUOUS
 62
     1
 10
 4.95556719360320E+0000
 20
 3.48103472073853E+0000
 11
 4.94674545467569E+0000
 21
 3.47221298181103E+0000
  0
LINE
  8
1
  6
CONTINUOUS
 62
     1
 10
 4.95556719360320E+0000
 20
 3.50168892492366E+0000
 11
 4.92910197682068E+0000
 21
 3.47522370814113E+0000
  0
LINE
  8
1
  6
CONTINUOUS
 62
     1
 10
 4.95556719360320E+0000
 20
 3.52234312910878E+0000
 11
 4.91145849897293E+0000
 21
 3.47823443447487E+0000
  0
LINE
  8
1
  6
CONTINUOUS
 62
     1
 10
 4.94054881395277E+0000
 20
 3.52797895363983E+0000
 11
 4.89381502112519E+0000
 21
 3.48124516081225E+0000
  0
LINE
  8
1
  6
CONTINUOUS
 62
     1
 10
 4.91445166891936E+0000
 20
 3.52253601279517E+0000
 11
 4.87617154327017E+0000
 21
 3.48425588714235E+0000
  0
LINE
  8
1
  6
CONTINUOUS
 62
     1
 10
 4.88835452388594E+0000
 20
 3.51709307194687E+0000
 11
 4.85852806541516E+0000
 21
 3.48726661347609E+0000
  0
LINE
  8
1
  6
CONTINUOUS
 62
     1
 10
 4.86225737885979E+0000
 20
 3.51165013110585E+0000
 11
 4.84088458756014E+0000
 21
 3.49027733980620E+0000
  0
LINE
  8
1
  6
CONTINUOUS
 62
     1
 10
 4.83616023382638E+0000
 20
 3.50620719025756E+0000
 11
 4.82324110970512E+0000
 21
 3.49328806613994E+0000
  0
LINE
  8
1
  6
CONTINUOUS
 62
     1
 10
 4.81006308880023E+0000
 20
 3.50076424941290E+0000
 11
 4.80559763185738E+0000
 21
 3.49629879247004E+0000
  0
LINE
  8
1
  6
CONTINUOUS
 62
     1
 10
 4.74437837482401E+0000
 20
 3.49496148065737E+0000
 11
 4.74437837482401E+0000
 21
 3.49496148065737E+0000
  0
LINE
  8
1
  6
CONTINUOUS
 62
     1
 10
 4.74437837482401E+0000
 20
 3.49496148065737E+0000
 11
 4.58508904818882E+0000
 21
 3.52214300202104E+0000
  0
LINE
  8
1
  6
CONTINUOUS
 62
     1
 10
 4.58508904818882E+0000
 20
 3.52214300202104E+0000
 11
 4.58508904818882E+0000
 21
 3.46173936454943E+0000
  0
LINE
  8
1
  6
CONTINUOUS
 62
     1
 10
 4.58508904818882E+0000
 20
 3.46173936454943E+0000
 11
 4.74437837482401E+0000
 21
 3.49496148065737E+0000
  0
LINE
  8
1
  6
CONTINUOUS
 62
     1
 10
 4.58508904818882E+0000
 20
 3.52214300202104E+0000
 11
 4.58508904818882E+0000
 21
 3.46173936454943E+0000
  0
LINE
  8
1
  6
CONTINUOUS
 62
     1
 10
 4.59363397993729E+0000
 20
 3.46352153489715E+0000
 11
 4.58508904818882E+0000
 21
 3.47206646664563E+0000
  0
LINE
  8
1
  6
CONTINUOUS
 62
     1
 10
 4.61072384342697E+0000
 20
 3.46708587559260E+0000
 11
 4.58508904818882E+0000
 21
 3.49272067083075E+0000
  0
LINE
  8
1
  6
CONTINUOUS
 62
     1
 10
 4.62781370691664E+0000
 20
 3.47065021628805E+0000
 11
 4.58508904818882E+0000
 21
 3.51337487501587E+0000
  0
LINE
  8
1
  6
CONTINUOUS
 62
     1
 10
 4.64490357040631E+0000
 20
 3.47421455698350E+0000
 11
 4.59942071638216E+0000
 21
 3.51969741101129E+0000
  0
LINE
  8
1
  6
CONTINUOUS
 62
     1
 10
 4.66199343390326E+0000
 20
 3.47777889767531E+0000
 11
 4.62432457630348E+0000
 21
 3.51544775527509E+0000
  0
LINE
  8
1
  6
CONTINUOUS
 62
     1
 10
 4.67908329739294E+0000
 20
 3.48134323837075E+0000
 11
 4.64922843622480E+0000
 21
 3.51119809954253E+0000
  0
LINE
  8
1
  6
CONTINUOUS
 62
     1
 10
 4.69617316088261E+0000
 20
 3.48490757906620E+0000
 11
 4.67413229613885E+0000
 21
 3.50694844380632E+0000
  0
LINE
  8
1
  6
CONTINUOUS
 62
     1
 10
 4.71326302437228E+0000
 20
 3.48847191976165E+0000
 11
 4.69903615606017E+0000
 21
 3.50269878807012E+0000
  0
LINE
  8
1
  6
CONTINUOUS
 62
     1
 10
 4.73035288786195E+0000
 20
 3.49203626045710E+0000
 11
 4.72394001598150E+0000
 21
 3.49844913233756E+0000
  0
LINE
  8
1
  6
CONTINUOUS
 62
     1
 10
 4.73555663589650E+0000
 20
 3.49646684381878E+0000
 11
 4.73132980230730E+0000
 21
 3.49224001023322E+0000
  0
LINE
  8
1
  6
CONTINUOUS
 62
     1
 10
 4.71791315804148E+0000
 20
 3.49947757015252E+0000
 11
 4.70523265727388E+0000
 21
 3.48679706938492E+0000
  0
LINE
  8
1
  6
CONTINUOUS
 62
     1
 10
 4.70026968018647E+0000
 20
 3.50248829648262E+0000
 11
 4.67913551224046E+0000
 21
 3.48135412853662E+0000
  0
LINE
  8
1
  6
CONTINUOUS
 62
     1
 10
 4.68262620233872E+0000
 20
 3.50549902282000E+0000
 11
 4.65303836720705E+0000
 21
 3.47591118769196E+0000
  0
LINE
  8
1
  6
CONTINUOUS
 62
     1
 10
 4.66498272448371E+0000
 20
 3.50850974915375E+0000
 11
 4.62694122217363E+0000
 21
 3.47046824684367E+0000
  0
LINE
  8
1
  6
CONTINUOUS
 62
     1
 10
 4.64733924662869E+0000
 20
 3.51152047548385E+0000
 11
 4.60084407714021E+0000
 21
 3.46502530599537E+0000
  0
LINE
  8
1
  6
CONTINUOUS
 62
     1
 10
 4.62969576878095E+0000
 20
 3.51453120181759E+0000
 11
 4.58508904818154E+0000
 21
 3.46992448122182E+0000
  0
LINE
  8
1
  6
CONTINUOUS
 62
     1
 10
 4.61205229092593E+0000
 20
 3.51754192814769E+0000
 11
 4.58508904818154E+0000
 21
 3.49057868540694E+0000
  0
LINE
  8
1
  6
CONTINUOUS
 62
     1
 10
 4.59440881307091E+0000
 20
 3.52055265448143E+0000
 11
 4.58508904818882E+0000
 21
 3.51123288959570E+0000
  0
LINE
  8
1
  6
CONTINUOUS
 62
     1
 10
 4.74437837482401E+0000
 20
 3.49496148065737E+0000
 11
 4.74437837482401E+0000
 21
 3.49496148065737E+0000
  0
LINE
  8
1
  6
CONTINUOUS
 62
     1
 10
 4.74437837482401E+0000
 20
 3.49496148065737E+0000
 11
 4.58508904818882E+0000
 21
 3.52214300202104E+0000
  0
LINE
  8
1
  6
CONTINUOUS
 62
     1
 10
 4.58508904818882E+0000
 20
 3.52214300202104E+0000
 11
 4.58508904818882E+0000
 21
 3.46173936454943E+0000
  0
LINE
  8
1
  6
CONTINUOUS
 62
     1
 10
 4.58508904818882E+0000
 20
 3.46173936454943E+0000
 11
 4.74437837482401E+0000
 21
 3.49496148065737E+0000
  0
LINE
  8
1
  6
CONTINUOUS
 62
     1
 10
 4.58508904818882E+0000
 20
 3.52214300202104E+0000
 11
 4.58508904818882E+0000
 21
 3.46173936454943E+0000
  0
LINE
  8
1
  6
CONTINUOUS
 62
     1
 10
 4.59363397993729E+0000
 20
 3.46352153489715E+0000
 11
 4.58508904818882E+0000
 21
 3.47206646664563E+0000
  0
LINE
  8
1
  6
CONTINUOUS
 62
     1
 10
 4.61072384342697E+0000
 20
 3.46708587559260E+0000
 11
 4.58508904818882E+0000
 21
 3.49272067083075E+0000
  0
LINE
  8
1
  6
CONTINUOUS
 62
     1
 10
 4.62781370691664E+0000
 20
 3.47065021628805E+0000
 11
 4.58508904818882E+0000
 21
 3.51337487501587E+0000
  0
LINE
  8
1
  6
CONTINUOUS
 62
     1
 10
 4.64490357040631E+0000
 20
 3.47421455698350E+0000
 11
 4.59942071638216E+0000
 21
 3.51969741101129E+0000
  0
LINE
  8
1
  6
CONTINUOUS
 62
     1
 10
 4.66199343390326E+0000
 20
 3.47777889767531E+0000
 11
 4.62432457630348E+0000
 21
 3.51544775527509E+0000
  0
LINE
  8
1
  6
CONTINUOUS
 62
     1
 10
 4.67908329739294E+0000
 20
 3.48134323837075E+0000
 11
 4.64922843622480E+0000
 21
 3.51119809954253E+0000
  0
LINE
  8
1
  6
CONTINUOUS
 62
     1
 10
 4.69617316088261E+0000
 20
 3.48490757906620E+0000
 11
 4.67413229613885E+0000
 21
 3.50694844380632E+0000
  0
LINE
  8
1
  6
CONTINUOUS
 62
     1
 10
 4.71326302437228E+0000
 20
 3.48847191976165E+0000
 11
 4.69903615606017E+0000
 21
 3.50269878807012E+0000
  0
LINE
  8
1
  6
CONTINUOUS
 62
     1
 10
 4.73035288786195E+0000
 20
 3.49203626045710E+0000
 11
 4.72394001598150E+0000
 21
 3.49844913233756E+0000
  0
LINE
  8
1
  6
CONTINUOUS
 62
     1
 10
 4.73555663589650E+0000
 20
 3.49646684381878E+0000
 11
 4.73132980230730E+0000
 21
 3.49224001023322E+0000
  0
LINE
  8
1
  6
CONTINUOUS
 62
     1
 10
 4.71791315804148E+0000
 20
 3.49947757015252E+0000
 11
 4.70523265727388E+0000
 21
 3.48679706938492E+0000
  0
LINE
  8
1
  6
CONTINUOUS
 62
     1
 10
 4.70026968018647E+0000
 20
 3.50248829648262E+0000
 11
 4.67913551224046E+0000
 21
 3.48135412853662E+0000
  0
LINE
  8
1
  6
CONTINUOUS
 62
     1
 10
 4.68262620233872E+0000
 20
 3.50549902282000E+0000
 11
 4.65303836720705E+0000
 21
 3.47591118769196E+0000
  0
LINE
  8
1
  6
CONTINUOUS
 62
     1
 10
 4.66498272448371E+0000
 20
 3.50850974915375E+0000
 11
 4.62694122217363E+0000
 21
 3.47046824684367E+0000
  0
LINE
  8
1
  6
CONTINUOUS
 62
     1
 10
 4.64733924662869E+0000
 20
 3.51152047548385E+0000
 11
 4.60084407714021E+0000
 21
 3.46502530599537E+0000
  0
LINE
  8
1
  6
CONTINUOUS
 62
     1
 10
 4.62969576878095E+0000
 20
 3.51453120181759E+0000
 11
 4.58508904818154E+0000
 21
 3.46992448122182E+0000
  0
LINE
  8
1
  6
CONTINUOUS
 62
     1
 10
 4.61205229092593E+0000
 20
 3.51754192814769E+0000
 11
 4.58508904818154E+0000
 21
 3.49057868540694E+0000
  0
LINE
  8
1
  6
CONTINUOUS
 62
     1
 10
 4.59440881307091E+0000
 20
 3.52055265448143E+0000
 11
 4.58508904818882E+0000
 21
 3.51123288959570E+0000
  0
LINE
  8
1
  6
CONTINUOUS
 62
     1
 10
 3.92827606133142E+0000
 20
 4.62652428107685E+0000
 11
 3.92827606133142E+0000
 21
 4.62652428107685E+0000
  0
LINE
  8
1
  6
CONTINUOUS
 62
     1
 10
 3.92827606133142E+0000
 20
 4.62652428107685E+0000
 11
 4.08756538798480E+0000
 21
 4.59934275971318E+0000
  0
LINE
  8
1
  6
CONTINUOUS
 62
     1
 10
 4.08756538798480E+0000
 20
 4.59934275971318E+0000
 11
 4.08756538798480E+0000
 21
 4.65974639718479E+0000
  0
LINE
  8
1
  6
CONTINUOUS
 62
     1
 10
 4.08756538798480E+0000
 20
 4.65974639718479E+0000
 11
 3.92827606133142E+0000
 21
 4.62652428107685E+0000
  0
LINE
  8
1
  6
CONTINUOUS
 62
     1
 10
 4.08756538798480E+0000
 20
 4.59934275971318E+0000
 11
 4.08756538798480E+0000
 21
 4.65974639718479E+0000
  0
LINE
  8
1
  6
CONTINUOUS
 62
     1
 10
 3.94072799129208E+0000
 20
 4.62439945321239E+0000
 11
 3.93682099307989E+0000
 21
 4.62830645142822E+0000
  0
LINE
  8
1
  6
CONTINUOUS
 62
     1
 10
 3.96563185121340E+0000
 20
 4.62014979747619E+0000
 11
 3.95391085656956E+0000
 21
 4.63187079211639E+0000
  0
LINE
  8
1
  6
CONTINUOUS
 62
     1
 10
 3.99053571113109E+0000
 20
 4.61590014173998E+0000
 11
 3.97100072005924E+0000
 21
 4.63543513281184E+0000
  0
LINE
  8
1
  6
CONTINUOUS
 62
     1
 10
 4.01543957104877E+0000
 20
 4.61165048601106E+0000
 11
 3.98809058355255E+0000
 21
 4.63899947350728E+0000
  0
LINE
  8
1
  6
CONTINUOUS
 62
     1
 10
 4.04034343097010E+0000
 20
 4.60740083027486E+0000
 11
 4.00518044704222E+0000
 21
 4.64256381420273E+0000
  0
LINE
  8
1
  6
CONTINUOUS
 62
     1
 10
 4.06524729089142E+0000
 20
 4.60315117453865E+0000
 11
 4.02227031053189E+0000
 21
 4.64612815489818E+0000
  0
LINE
  8
1
  6
CONTINUOUS
 62
     1
 10
 4.08756538798480E+0000
 20
 4.60148728163040E+0000
 11
 4.03936017402157E+0000
 21
 4.64969249559363E+0000
  0
LINE
  8
1
  6
CONTINUOUS
 62
     1
 10
 4.08756538798480E+0000
 20
 4.62214148581552E+0000
 11
 4.05645003751852E+0000
 21
 4.65325683628180E+0000
  0
LINE
  8
1
  6
CONTINUOUS
 62
     1
 10
 4.08756538798480E+0000
 20
 4.64279569000064E+0000
 11
 4.07353990100819E+0000
 21
 4.65682117697725E+0000
  0
LINE
  8
1
  6
CONTINUOUS
 62
     1
 10
 4.08756538797752E+0000
 20
 4.60966986179847E+0000
 11
 4.07874364905001E+0000
 21
 4.60084812287096E+0000
  0
LINE
  8
1
  6
CONTINUOUS
 62
     1
 10
 4.08756538797752E+0000
 20
 4.63032406598359E+0000
 11
 4.06110017120227E+0000
 21
 4.60385884920834E+0000
  0
LINE
  8
1
  6
CONTINUOUS
 62
     1
 10
 4.08756538797752E+0000
 20
 4.65097827016871E+0000
 11
 4.04345669334725E+0000
 21
 4.60686957553844E+0000
  0
LINE
  8
1
  6
CONTINUOUS
 62
     1
 10
 4.07254700832709E+0000
 20
 4.65661409470340E+0000
 11
 4.02581321549224E+0000
 21
 4.60988030186854E+0000
  0
LINE
  8
1
  6
CONTINUOUS
 62
     1
 10
 4.04644986329367E+0000
 20
 4.65117115385510E+0000
 11
 4.00816973763722E+0000
 21
 4.61289102819865E+0000
  0
LINE
  8
1
  6
CONTINUOUS
 62
     1
 10
 4.02035271826026E+0000
 20
 4.64572821301408E+0000
 11
 3.99052625978584E+0000
 21
 4.61590175452875E+0000
  0
LINE
  8
1
  6
CONTINUOUS
 62
     1
 10
 3.99425557323048E+0000
 20
 4.64028527216578E+0000
 11
 3.97288278193082E+0000
 21
 4.61891248086613E+0000
  0
LINE
  8
1
  6
CONTINUOUS
 62
     1
 10
 3.96815842820070E+0000
 20
 4.63484233131749E+0000
 11
 3.95523930407944E+0000
 21
 4.62192320719623E+0000
  0
LINE
  8
1
  6
CONTINUOUS
 62
     1
 10
 3.94206128316728E+0000
 20
 4.62939939046919E+0000
 11
 3.93759582622806E+0000
 21
 4.62493393353361E+0000
  0
LINE
  8
1
  6
CONTINUOUS
 62
     1
 10
 3.92827606133142E+0000
 20
 4.62652428107685E+0000
 11
 3.92827606133142E+0000
 21
 4.62652428107685E+0000
  0
LINE
  8
1
  6
CONTINUOUS
 62
     1
 10
 3.92827606133142E+0000
 20
 4.62652428107685E+0000
 11
 4.08756538798480E+0000
 21
 4.59934275971318E+0000
  0
LINE
  8
1
  6
CONTINUOUS
 62
     1
 10
 4.08756538798480E+0000
 20
 4.59934275971318E+0000
 11
 4.08756538798480E+0000
 21
 4.65974639718479E+0000
  0
LINE
  8
1
  6
CONTINUOUS
 62
     1
 10
 4.08756538798480E+0000
 20
 4.65974639718479E+0000
 11
 3.92827606133142E+0000
 21
 4.62652428107685E+0000
  0
LINE
  8
1
  6
CONTINUOUS
 62
     1
 10
 4.08756538798480E+0000
 20
 4.59934275971318E+0000
 11
 4.08756538798480E+0000
 21
 4.65974639718479E+0000
  0
LINE
  8
1
  6
CONTINUOUS
 62
     1
 10
 3.94072799129208E+0000
 20
 4.62439945321239E+0000
 11
 3.93682099307989E+0000
 21
 4.62830645142822E+0000
  0
LINE
  8
1
  6
CONTINUOUS
 62
     1
 10
 3.96563185121340E+0000
 20
 4.62014979747619E+0000
 11
 3.95391085656956E+0000
 21
 4.63187079211639E+0000
  0
LINE
  8
1
  6
CONTINUOUS
 62
     1
 10
 3.99053571113109E+0000
 20
 4.61590014173998E+0000
 11
 3.97100072005924E+0000
 21
 4.63543513281184E+0000
  0
LINE
  8
1
  6
CONTINUOUS
 62
     1
 10
 4.01543957104877E+0000
 20
 4.61165048601106E+0000
 11
 3.98809058355255E+0000
 21
 4.63899947350728E+0000
  0
LINE
  8
1
  6
CONTINUOUS
 62
     1
 10
 4.04034343097010E+0000
 20
 4.60740083027486E+0000
 11
 4.00518044704222E+0000
 21
 4.64256381420273E+0000
  0
LINE
  8
1
  6
CONTINUOUS
 62
     1
 10
 4.06524729089142E+0000
 20
 4.60315117453865E+0000
 11
 4.02227031053189E+0000
 21
 4.64612815489818E+0000
  0
LINE
  8
1
  6
CONTINUOUS
 62
     1
 10
 4.08756538798480E+0000
 20
 4.60148728163040E+0000
 11
 4.03936017402157E+0000
 21
 4.64969249559363E+0000
  0
LINE
  8
1
  6
CONTINUOUS
 62
     1
 10
 4.08756538798480E+0000
 20
 4.62214148581552E+0000
 11
 4.05645003751852E+0000
 21
 4.65325683628180E+0000
  0
LINE
  8
1
  6
CONTINUOUS
 62
     1
 10
 4.08756538798480E+0000
 20
 4.64279569000064E+0000
 11
 4.07353990100819E+0000
 21
 4.65682117697725E+0000
  0
LINE
  8
1
  6
CONTINUOUS
 62
     1
 10
 4.08756538797752E+0000
 20
 4.60966986179847E+0000
 11
 4.07874364905001E+0000
 21
 4.60084812287096E+0000
  0
LINE
  8
1
  6
CONTINUOUS
 62
     1
 10
 4.08756538797752E+0000
 20
 4.63032406598359E+0000
 11
 4.06110017120227E+0000
 21
 4.60385884920834E+0000
  0
LINE
  8
1
  6
CONTINUOUS
 62
     1
 10
 4.08756538797752E+0000
 20
 4.65097827016871E+0000
 11
 4.04345669334725E+0000
 21
 4.60686957553844E+0000
  0
LINE
  8
1
  6
CONTINUOUS
 62
     1
 10
 4.07254700832709E+0000
 20
 4.65661409470340E+0000
 11
 4.02581321549224E+0000
 21
 4.60988030186854E+0000
  0
LINE
  8
1
  6
CONTINUOUS
 62
     1
 10
 4.04644986329367E+0000
 20
 4.65117115385510E+0000
 11
 4.00816973763722E+0000
 21
 4.61289102819865E+0000
  0
LINE
  8
1
  6
CONTINUOUS
 62
     1
 10
 4.02035271826026E+0000
 20
 4.64572821301408E+0000
 11
 3.99052625978584E+0000
 21
 4.61590175452875E+0000
  0
LINE
  8
1
  6
CONTINUOUS
 62
     1
 10
 3.99425557323048E+0000
 20
 4.64028527216578E+0000
 11
 3.97288278193082E+0000
 21
 4.61891248086613E+0000
  0
LINE
  8
1
  6
CONTINUOUS
 62
     1
 10
 3.96815842820070E+0000
 20
 4.63484233131749E+0000
 11
 3.95523930407944E+0000
 21
 4.62192320719623E+0000
  0
LINE
  8
1
  6
CONTINUOUS
 62
     1
 10
 3.94206128316728E+0000
 20
 4.62939939046919E+0000
 11
 3.93759582622806E+0000
 21
 4.62493393353361E+0000
  0
LINE
  8
1
  6
CONTINUOUS
 62
     1
 10
 3.70479481692746E+0000
 20
 4.62359662172094E+0000
 11
 3.70479481692746E+0000
 21
 4.62359662172094E+0000
  0
LINE
  8
1
  6
CONTINUOUS
 62
     1
 10
 3.70479481692746E+0000
 20
 4.62359662172094E+0000
 11
 3.54550549029227E+0000
 21
 4.65077814308461E+0000
  0
LINE
  8
1
  6
CONTINUOUS
 62
     1
 10
 3.54550549029227E+0000
 20
 4.65077814308461E+0000
 11
 3.54550549029227E+0000
 21
 4.59037450561300E+0000
  0
LINE
  8
1
  6
CONTINUOUS
 62
     1
 10
 3.54550549029227E+0000
 20
 4.59037450561300E+0000
 11
 3.70479481692746E+0000
 21
 4.62359662172094E+0000
  0
LINE
  8
1
  6
CONTINUOUS
 62
     1
 10
 3.54550549029227E+0000
 20
 4.65077814308461E+0000
 11
 3.54550549029227E+0000
 21
 4.59037450561300E+0000
  0
LINE
  8
1
  6
CONTINUOUS
 62
     1
 10
 3.55405042203711E+0000
 20
 4.59215667596436E+0000
 11
 3.54550549029227E+0000
 21
 4.60070160770556E+0000
  0
LINE
  8
1
  6
CONTINUOUS
 62
     1
 10
 3.57114028553042E+0000
 20
 4.59572101665981E+0000
 11
 3.54550549029227E+0000
 21
 4.62135581189068E+0000
  0
LINE
  8
1
  6
CONTINUOUS
 62
     1
 10
 3.58823014902009E+0000
 20
 4.59928535734798E+0000
 11
 3.54550549029227E+0000
 21
 4.64201001607580E+0000
  0
LINE
  8
1
  6
CONTINUOUS
 62
     1
 10
 3.60532001250976E+0000
 20
 4.60284969804343E+0000
 11
 3.55983715848197E+0000
 21
 4.64833255207486E+0000
  0
LINE
  8
1
  6
CONTINUOUS
 62
     1
 10
 3.62240987599944E+0000
 20
 4.60641403873888E+0000
 11
 3.58474101839965E+0000
 21
 4.64408289633866E+0000
  0
LINE
  8
1
  6
CONTINUOUS
 62
     1
 10
 3.63949973948911E+0000
 20
 4.60997837943432E+0000
 11
 3.60964487832098E+0000
 21
 4.63983324060973E+0000
  0
LINE
  8
1
  6
CONTINUOUS
 62
     1
 10
 3.65658960298242E+0000
 20
 4.61354272012977E+0000
 11
 3.63454873823866E+0000
 21
 4.63558358487353E+0000
  0
LINE
  8
1
  6
CONTINUOUS
 62
     1
 10
 3.67367946647209E+0000
 20
 4.61710706082522E+0000
 11
 3.65945259815999E+0000
 21
 4.63133392913733E+0000
  0
LINE
  8
1
  6
CONTINUOUS
 62
     1
 10
 3.69076932996177E+0000
 20
 4.62067140152067E+0000
 11
 3.68435645807767E+0000
 21
 4.62708427340840E+0000
  0
LINE
  8
1
  6
CONTINUOUS
 62
     1
 10
 3.69597307799631E+0000
 20
 4.62510198487871E+0000
 11
 3.69174624441075E+0000
 21
 4.62087515129679E+0000
  0
LINE
  8
1
  6
CONTINUOUS
 62
     1
 10
 3.67832960014493E+0000
 20
 4.62811271121609E+0000
 11
 3.66564909937733E+0000
 21
 4.61543221044849E+0000
  0
LINE
  8
1
  6
CONTINUOUS
 62
     1
 10
 3.66068612228992E+0000
 20
 4.63112343754619E+0000
 11
 3.63955195434028E+0000
 21
 4.60998926960019E+0000
  0
LINE
  8
1
  6
CONTINUOUS
 62
     1
 10
 3.64304264444218E+0000
 20
 4.63413416388357E+0000
 11
 3.61345480931413E+0000
 21
 4.60454632875189E+0000
  0
LINE
  8
1
  6
CONTINUOUS
 62
     1
 10
 3.62539916658716E+0000
 20
 4.63714489021368E+0000
 11
 3.58735766428072E+0000
 21
 4.59910338790360E+0000
  0
LINE
  8
1
  6
CONTINUOUS
 62
     1
 10
 3.60775568873578E+0000
 20
 4.64015561654378E+0000
 11
 3.56126051924730E+0000
 21
 4.59366044705530E+0000
  0
LINE
  8
1
  6
CONTINUOUS
 62
     1
 10
 3.59011221088076E+0000
 20
 4.64316634288116E+0000
 11
 3.54550549028500E+0000
 21
 4.59855962228175E+0000
  0
LINE
  8
1
  6
CONTINUOUS
 62
     1
 10
 3.57246873302938E+0000
 20
 4.64617706921126E+0000
 11
 3.54550549028500E+0000
 21
 4.61921382646688E+0000
  0
LINE
  8
1
  6
CONTINUOUS
 62
     1
 10
 3.55482525517436E+0000
 20
 4.64918779554137E+0000
 11
 3.54550549029227E+0000
 21
 4.63986803065927E+0000
  0
LINE
  8
1
  6
CONTINUOUS
 62
     1
 10
 3.70479481692746E+0000
 20
 4.62359662172094E+0000
 11
 3.70479481692746E+0000
 21
 4.62359662172094E+0000
  0
LINE
  8
1
  6
CONTINUOUS
 62
     1
 10
 3.70479481692746E+0000
 20
 4.62359662172094E+0000
 11
 3.54550549029227E+0000
 21
 4.65077814308461E+0000
  0
LINE
  8
1
  6
CONTINUOUS
 62
     1
 10
 3.54550549029227E+0000
 20
 4.65077814308461E+0000
 11
 3.54550549029227E+0000
 21
 4.59037450561300E+0000
  0
LINE
  8
1
  6
CONTINUOUS
 62
     1
 10
 3.54550549029227E+0000
 20
 4.59037450561300E+0000
 11
 3.70479481692746E+0000
 21
 4.62359662172094E+0000
  0
LINE
  8
1
  6
CONTINUOUS
 62
     1
 10
 3.54550549029227E+0000
 20
 4.65077814308461E+0000
 11
 3.54550549029227E+0000
 21
 4.59037450561300E+0000
  0
LINE
  8
1
  6
CONTINUOUS
 62
     1
 10
 3.55405042203711E+0000
 20
 4.59215667596436E+0000
 11
 3.54550549029227E+0000
 21
 4.60070160770556E+0000
  0
LINE
  8
1
  6
CONTINUOUS
 62
     1
 10
 3.57114028553042E+0000
 20
 4.59572101665981E+0000
 11
 3.54550549029227E+0000
 21
 4.62135581189068E+0000
  0
LINE
  8
1
  6
CONTINUOUS
 62
     1
 10
 3.58823014902009E+0000
 20
 4.59928535734798E+0000
 11
 3.54550549029227E+0000
 21
 4.64201001607580E+0000
  0
LINE
  8
1
  6
CONTINUOUS
 62
     1
 10
 3.60532001250976E+0000
 20
 4.60284969804343E+0000
 11
 3.55983715848197E+0000
 21
 4.64833255207486E+0000
  0
LINE
  8
1
  6
CONTINUOUS
 62
     1
 10
 3.62240987599944E+0000
 20
 4.60641403873888E+0000
 11
 3.58474101839965E+0000
 21
 4.64408289633866E+0000
  0
LINE
  8
1
  6
CONTINUOUS
 62
     1
 10
 3.63949973948911E+0000
 20
 4.60997837943432E+0000
 11
 3.60964487832098E+0000
 21
 4.63983324060973E+0000
  0
LINE
  8
1
  6
CONTINUOUS
 62
     1
 10
 3.65658960298242E+0000
 20
 4.61354272012977E+0000
 11
 3.63454873823866E+0000
 21
 4.63558358487353E+0000
  0
LINE
  8
1
  6
CONTINUOUS
 62
     1
 10
 3.67367946647209E+0000
 20
 4.61710706082522E+0000
 11
 3.65945259815999E+0000
 21
 4.63133392913733E+0000
  0
LINE
  8
1
  6
CONTINUOUS
 62
     1
 10
 3.69076932996177E+0000
 20
 4.62067140152067E+0000
 11
 3.68435645807767E+0000
 21
 4.62708427340840E+0000
  0
LINE
  8
1
  6
CONTINUOUS
 62
     1
 10
 3.69597307799631E+0000
 20
 4.62510198487871E+0000
 11
 3.69174624441075E+0000
 21
 4.62087515129679E+0000
  0
LINE
  8
1
  6
CONTINUOUS
 62
     1
 10
 3.67832960014493E+0000
 20
 4.62811271121609E+0000
 11
 3.66564909937733E+0000
 21
 4.61543221044849E+0000
  0
LINE
  8
1
  6
CONTINUOUS
 62
     1
 10
 3.66068612228992E+0000
 20
 4.63112343754619E+0000
 11
 3.63955195434028E+0000
 21
 4.60998926960019E+0000
  0
LINE
  8
1
  6
CONTINUOUS
 62
     1
 10
 3.64304264444218E+0000
 20
 4.63413416388357E+0000
 11
 3.61345480931413E+0000
 21
 4.60454632875189E+0000
  0
LINE
  8
1
  6
CONTINUOUS
 62
     1
 10
 3.62539916658716E+0000
 20
 4.63714489021368E+0000
 11
 3.58735766428072E+0000
 21
 4.59910338790360E+0000
  0
LINE
  8
1
  6
CONTINUOUS
 62
     1
 10
 3.60775568873578E+0000
 20
 4.64015561654378E+0000
 11
 3.56126051924730E+0000
 21
 4.59366044705530E+0000
  0
LINE
  8
1
  6
CONTINUOUS
 62
     1
 10
 3.59011221088076E+0000
 20
 4.64316634288116E+0000
 11
 3.54550549028500E+0000
 21
 4.59855962228175E+0000
  0
LINE
  8
1
  6
CONTINUOUS
 62
     1
 10
 3.57246873302938E+0000
 20
 4.64617706921126E+0000
 11
 3.54550549028500E+0000
 21
 4.61921382646688E+0000
  0
LINE
  8
1
  6
CONTINUOUS
 62
     1
 10
 3.55482525517436E+0000
 20
 4.64918779554137E+0000
 11
 3.54550549029227E+0000
 21
 4.63986803065927E+0000
  0
TEXT
  8
1
 62
     1
 10
 3.65711344297961E+0000
 20
 4.65322423406906E+0000
 40
 1.18110236219991E-0001
  1
6 -0.02
  7
STANDARD
 11
 3.65711344297961E+0000
 21
 4.77133447028609E+0000
 50
 0.00000000000000E+0000
 41
 2.42292280748870E-0001
  0
TEXT
  8
1
 62
     1
 10
 5.16602355857322E+0000
 20
 4.62299293564865E+0000
 40
 1.18110236219991E-0001
  1
31
  7
STANDARD
 11
 5.16602355857322E+0000
 21
 4.74110317186569E+0000
 50
 0.00000000000000E+0000
 41
 3.08371993680339E-0001
  0
LINE
  8
1
  6
CONTINUOUS
 62
     1
 10
 4.90865093015600E+0000
 20
 4.27755659606919E+0000
 11
 5.17107008069434E+0000
 21
 4.27755659606919E+0000
  0
LINE
  8
1
  6
CONTINUOUS
 62
     1
 10
 4.95406962928973E+0000
 20
 3.49658138685118E+0000
 11
 5.18116312495113E+0000
 21
 3.49658138685118E+0000
  0
TEXT
  8
1
 62
     1
 10
 4.94397658504022E+0000
 20
 4.28541010327899E+0000
 40
 1.18110236219991E-0001
  1
1
  7
STANDARD
 11
 4.94397658504022E+0000
 21
 4.40352033949603E+0000
 50
 0.00000000000000E+0000
 41
 3.08371993680339E-0001
  0
TEXT
  8
1
 62
     1
 10
 4.99444180629507E+0000
 20
 3.50443489405006E+0000
 40
 1.18110236219991E-0001
  1
1.1
  7
STANDARD
 11
 4.99444180629507E+0000
 21
 3.62254513027074E+0000
 50
 0.00000000000000E+0000
 41
 2.56976661400131E-0001
  0
TEXT
  8
1
 62
     1
 10
 9.09884275260265E+0000
 20
 3.89199410999026E-0001
 40
 1.18110236219991E-0001
  1
(c)
  7
STANDARD
 11
 9.09884275260265E+0000
 21
 5.07309647218790E-0001
 50
 0.00000000000000E+0000
 41
 2.05581329120378E-0001
0
ENDSEC
0
EOF
