0
SECTION
  2
HEADER
  9
$LTSCALE
 40
     10
  9
$LIMMIN
 10
     0.0
 20
     0.0
  9
$LIMMAX
 10
      11.5
 20
       8.0
  9
$EXTMIN
 10
     0.0
 20
     0.0
  9
$EXTMAX
 10
      11.5
 20
       8.0
   9
$CLAYER
   8
1
   9
$CECOLOR
  62
     7
   9
$CELTYPE
   6
CONTINUOUS
  0
ENDSEC
  0
SECTION
  2
TABLES
  0
TABLE
  2
LTYPE
 70
    10
  0
LTYPE
  2
CONTINUOUS
 70
    64
  3
Solid line
 72
    65
 73
     0
 40
0.0
  0
LTYPE
  2
DASHED
 70
     0
  3
__ __ __ __ __ __ __ __ __ __ __ __ __ __ __
 72
    65
 73
     2
 40
0.75
 49
0.5
 49
-0.25
  0
LTYPE
  2
HIDDEN
 70
     0
  3
_ _ _ _ _ _ _ _ _ _ _ _ _ _ _ _ _ _ _ _ _ _
 72
    65
 73
     2
 40
0.375
 49
0.25
 49
-0.125
  0
LTYPE
  2
CENTER
 70
     0
  3
____ _ ____ _ ____ _ ____ _ ____ _ ____ _ __
 72
    65
 73
     4
 40
2.0
 49
1.25
 49
-0.25
 49
0.25
 49
-0.25
  0
LTYPE
  2
PHANTOM
 70
     0
  3
_____ _ _ _____ _ _ _____ _ _ _____ _ _ ____
 72
    65
 73
     6
 40
2.5
 49
1.25
 49
-0.25
 49
0.25
 49
-0.25
 49
0.25
 49
-0.25
  0
LTYPE
  2
DOT
 70
     0
  3
............................................
 72
    65
 73
     2
 40
0.25
 49
0.0
 49
-0.25
  0
LTYPE
  2
DASHDOT
 70
     0
  3
__ . __ . __ . __ . __ . __ . __ . __ . __ .
 72
    65
 73
     4
 40
1.0
 49
0.5
 49
-0.25
 49
0.0
 49
-0.25
  0
LTYPE
  2
BORDER
 70
     0
  3
__ __ . __ __ . __ __ . __ __ . __ __ . __ _
 72
    65
 73
     6
 40
1.75
 49
0.5
 49
-0.25
 49
0.5
 49
-0.25
 49
0.0
 49
-0.25
  0
LTYPE
  2
DIVIDE
 70
     0
  3
__ . . __ . . __ . . __ . . __ . . __ . . __
 72
    65
 73
     6
 40
1.25
 49
0.5
 49
-0.25
 49
0.0
 49
-0.25
 49
0.0
 49
-0.25
  0
LTYPE
  2
DIVIDE2
 70
     0
  3
close
 72
    65
 73
     2
 40
0.1
 49
0.05
 49
-0.05
  0
ENDTAB
0
TABLE
  2
LAYER
 70
   256
  0
LAYER
  2
1
 70
     0
  6
CONTINUOUS
 62
1
  0
ENDTAB
  0
TABLE
  2
STYLE
 70
     8
  0
STYLE
  2
TXT
 70
0
 40
0.0
 41
1.0
 50
0.0
 71
0
 42
1.0
  3
TXT
  4

  0
STYLE
  2
COMPLEX
 70
0
 40
0.0
 41
1.0
 50
0.0
 71
0
 42
1.0
  3
COMPLEX
  4

  0
STYLE
  2
ITALIC
 70
0
 40
0.0
 41
1.0
 50
0.0
 71
0
 42
1.0
  3
ITALIC
  4

  0
STYLE
  2
SIMPLEX
70
0
 40
0.0
 41
1.0
 50
0.0
 71
0
 42
1.0
  3
SIMPLEX
  4

  0
STYLE
  2
MONOTXT
 70
0
 40
0.0
 41
1.0
 50
0.0
 71
0
 42
1.0
  3
MONOTXT
  4

  0
STYLE
  2
SCRIPTC
 70
0
 40
0.0
 41
1.0
 50
0.0
 71
0
 42
1.0
  3
SCRIPTC
  4

  0
STYLE
  2
GOTHICE
 70
0
 40
0.0
 41
1.0
 50
0.0
 71
0
 42
1.0
  3
GOTHICE
  4

  0
ENDTAB
  0
TABLE
  2
VIEW
 70
     0
  0
ENDTAB
  0
ENDSEC
  0
SECTION
  2
ENTITIES
  0
LINE
  8
1
  6
CONTINUOUS
 62
     1
 10
 1.10824245900876E+0001
 20
 3.66054472739052E-0001
 11
 8.90078496305796E+0000
 21
 3.66054472739052E-0001
  0
LINE
  8
1
  6
CONTINUOUS
 62
     1
 10
 8.90078496305796E+0000
 20
 3.66054472739052E-0001
 11
 8.90078496305796E+0000
 21
 1.55291635594767E+0000
  0
LINE
  8
1
  6
CONTINUOUS
 62
     1
 10
 8.90078496305796E+0000
 20
 1.55291635594767E+0000
 11
 1.10824245900876E+0001
 21
 1.55291635594767E+0000
  0
LINE
  8
1
  6
CONTINUOUS
 62
     1
 10
 1.10824245900876E+0001
 20
 1.55291635594767E+0000
 11
 1.10824245900876E+0001
 21
 3.66054472739052E-0001
  0
LINE
  8
1
  6
CONTINUOUS
 62
     1
 10
 8.90010336294654E+0000
 20
 1.23953147667635E+0000
 11
 1.10833476808330E+0001
 21
 1.23953147667635E+0000
  0
LINE
  8
1
  6
CONTINUOUS
 62
     1
 10
 8.90774062665878E+0000
 20
 5.23861750931246E-0001
 11
 1.10909849445452E+0001
 21
 5.23861750931246E-0001
  0
TEXT
  8
1
 62
     1
 10
 8.94823287868348E+0000
 20
 1.35143637997317E+0000
 40
 1.18110236219991E-0001
  1
Benennung
  7
STANDARD
 11
 8.94823287868348E+0000
 21
 1.46954661619384E+0000
 50
 0.00000000000000E+0000
 41
 3.16937882393631E-0001
  0
LINE
  8
1
  6
CONTINUOUS
 62
     1
 10
 9.57264299190138E+0000
 20
 1.55147486233909E+0000
 11
 9.57264299190138E+0000
 21
 1.23953147667635E+0000
  0
LINE
  8
1
  6
CONTINUOUS
 62
     1
 10
 8.90010336294654E+0000
 20
 1.07349709398113E+0000
 11
 1.10833476808330E+0001
 21
 1.07349709398113E+0000
  0
LINE
  8
1
  6
CONTINUOUS
 62
     1
 10
 8.90010336294654E+0000
 20
 9.07462711285916E-0001
 11
 1.10833476808330E+0001
 21
 9.07462711285916E-0001
  0
TEXT
  8
1
 62
     1
 10
 8.95298969198484E+0000
 20
 1.08890528919073E+0000
 40
 1.18110236219991E-0001
  1
Werkstoff
  7
STANDARD
 11
 8.95298969198484E+0000
 21
 1.20701552541141E+0000
 50
 0.00000000000000E+0000
 41
 2.56976661400131E-0001
  0
LINE
  8
1
  6
CONTINUOUS
 62
     1
 10
 9.57264299190138E+0000
 20
 1.23953147667635E+0000
 11
 9.57264299190138E+0000
 21
 1.07349709398113E+0000
  0
LINE
  8
1
  6
CONTINUOUS
 62
     1
 10
 1.05011491960613E+0001
 20
 1.23953147667635E+0000
 11
 1.05011491960613E+0001
 21
 1.07349709398113E+0000
  0
TEXT
  8
1
 62
     1
 10
 1.05670323736267E+0001
 20
 1.08890528919073E+0000
 40
 1.18110236219991E-0001
  1
M 1:1
  7
STANDARD
 11
 1.05670323736267E+0001
 21
 1.20701552541141E+0000
 50
 0.00000000000000E+0000
 41
 2.62116194628561E-0001
  0
LINE
  8
1
  6
CONTINUOUS
 62
     1
 10
 8.90078496305796E+0000
 20
 1.55291635594767E+0000
 11
 1.10883666332957E+0001
 21
 1.55291635594767E+0000
  0
LINE
  8
1
  6
CONTINUOUS
 62
     1
 10
 8.90078496305796E+0000
 20
 1.55291635594767E+0000
 11
 1.10824245900876E+0001
 21
 1.55291635594767E+0000
  0
LINE
  8
1
  6
CONTINUOUS
 62
     1
 10
 1.10824245900876E+0001
 20
 1.55291635594767E+0000
 11
 1.10824245900876E+0001
 21
 3.66054472739052E-0001
  0
LINE
  8
1
  6
CONTINUOUS
 62
     1
 10
 1.10824245900876E+0001
 20
 3.66054472739052E-0001
 11
 8.90078496305796E+0000
 21
 3.66054472739052E-0001
  0
LINE
  8
1
  6
CONTINUOUS
 62
     1
 10
 8.90078496305796E+0000
 20
 3.66054472739052E-0001
 11
 8.90078496305796E+0000
 21
 1.55291635594767E+0000
  0
TEXT
  8
1
 62
     1
 10
 8.94643199958955E+0000
 20
 9.29817355409796E-0001
 40
 1.18110236219991E-0001
  1
Bearb.
  7
STANDARD
 11
 8.94643199958955E+0000
 21
 1.04792759162956E+0000
 50
 0.00000000000000E+0000
 41
 2.69825494470297E-0001
  0
LINE
  8
1
  6
CONTINUOUS
 62
     1
 10
 9.57372805119667E+0000
 20
 1.07462383869279E+0000
 11
 9.57372805119667E+0000
 21
 9.08513856978971E-0001
  0
LINE
  8
1
  6
CONTINUOUS
 62
     1
 10
 8.90204784499656E+0000
 20
 7.36471375930705E-0001
 11
 1.10827893074456E+0001
 21
 7.36471375930705E-0001
  0
LINE
  8
1
  6
CONTINUOUS
 62
     1
 10
 9.57372805119667E+0000
 20
 9.08513856978971E-0001
 11
 9.57372805119667E+0000
 21
 7.36471375930705E-0001
  0
TEXT
  8
1
 62
     1
 10
 8.94643199958955E+0000
 20
 7.54808624687030E-0001
 40
 1.18110236219991E-0001
  1
Datum
  7
STANDARD
 11
 8.94643199958955E+0000
 21
 8.72918860906793E-0001
 50
 0.00000000000000E+0000
 41
 3.23790593364265E-0001
  0
LINE
  8
1
  6
CONTINUOUS
 62
     1
 10
 1.04998774104170E+0001
 20
 5.19935149772209E-0001
 11
 1.04998774104170E+0001
 21
 3.68656416430895E-0001
  0
TEXT
  8
1
 62
     1
 10
 9.62994798035652E+0000
 20
 9.20918606393570E-0001
 40
 1.18110236219991E-0001
  1
D.Freind
  7
STANDARD
 11
 9.62994798035652E+0000
 21
 1.03902884261333E+0000
 50
 0.00000000000000E+0000
 41
 2.60188869667672E-0001
  0
TEXT
  8
1
 62
     1
 10
 1.05235489595507E+0001
 20
 3.84027415512719E-0001
 40
 1.18110236219991E-0001
  1
Blatt
  7
STANDARD
 11
 1.05235489595507E+0001
 21
 5.02137651732482E-0001
 50
 0.00000000000000E+0000
 41
 2.31278995260254E-0001
  0
TEXT
  8
1
 62
     1
 10
 9.04969655426976E+0000
 20
 5.46297824291287E-0001
 40
 1.18110236219991E-0001
  1
für Revolver 8-fach 
  7
STANDARD
 11
 9.04969655426976E+0000
 21
 6.64408060511050E-0001
 50
 0.00000000000000E+0000
 41
 2.35133645181349E-0001
  0
TEXT
  8
1
 62
     1
 10
 9.28755188295327E+0000
 20
 3.96762269881947E-0001
 40
 1.18110236219991E-0001
  1
www.cnc-projects.de.vu
  7
STANDARD
 11
 9.28755188295327E+0000
 21
 5.14872506101710E-0001
 50
 0.00000000000000E+0000
 41
 2.66321267269177E-0001
  0
TEXT
  8
1
 62
     1
 10
 1.08190234414215E+0001
 20
 3.87295368881496E-0001
 40
 1.18110236219991E-0001
  1
1
  7
STANDARD
 11
 1.08190234414215E+0001
 21
 5.05405605101259E-0001
 50
 0.00000000000000E+0000
 41
 3.08371993680339E-0001
  0
TEXT
  8
1
 62
     1
 10
 9.63127492301282E+0000
 20
 1.08115686670317E+0000
 40
 1.18110236219991E-0001
  1
Silberstahl
  7
STANDARD
 11
 9.63127492301282E+0000
 21
 1.19926710292384E+0000
 50
 0.00000000000000E+0000
 41
 2.45295904063823E-0001
  0
TEXT
  8
1
 62
     1
 10
 9.63643000324373E+0000
 20
 7.51752940468577E-0001
 40
 1.18110236219991E-0001
  1
06.01.2004
  7
STANDARD
 11
 9.63643000324373E+0000
 21
 8.69863176688341E-0001
 50
 0.00000000000000E+0000
 41
 2.77534794312487E-0001
  0
TEXT
  8
1
 62
     1
 10
 9.82716797191824E+0000
 20
 1.28549820832814E+0000
 40
 1.96850393699833E-0001
  1
Achse 8mm
  7
STANDARD
 11
 9.82716797191824E+0000
 21
 1.48234860202865E+0000
 50
 0.00000000000000E+0000
 41
 2.00441795892630E-0001
  0
LINE
  8
1
  6
DASHDOT
 62
     1
 10
 3.37901343759586E+0000
 20
 3.90000951815819E+0000
 11
 5.34294885880081E+0000
 21
 3.90000951815819E+0000
  0
LINE
  8
1
  6
DASHDOT
 62
     1
 10
 3.82089890736825E+0000
 20
 4.22136823320034E+0000
 11
 3.82089890736825E+0000
 21
 3.66035217133322E+0000
  0
CIRCLE
  8
1
  6
CONTINUOUS
 62
     1
 10
 3.82089890736825E+0000
 20
 3.90000951816182E+0000
 40
 1.58205908926902E-0001
  0
CIRCLE
  8
1
  6
CONTINUOUS
 62
     1
 10
 3.82089890736825E+0000
 20
 3.90000951816182E+0000
 40
 1.36384404249839E-0001
  0
LINE
  8
1
  6
CONTINUOUS
 62
     1
 10
 4.72708959267038E+0000
 20
 3.90100901032929E+0000
 11
 4.72708959267038E+0000
 21
 4.04149550936563E+0000
  0
LINE
  8
1
  6
CONTINUOUS
 62
     1
 10
 4.72708959267038E+0000
 20
 4.04149550936563E+0000
 11
 4.74804622063675E+0000
 21
 4.05942995604710E+0000
  0
LINE
  8
1
  6
CONTINUOUS
 62
     1
 10
 4.74804622063675E+0000
 20
 4.05942995604710E+0000
 11
 6.59222948200477E+0000
 21
 4.05942995604710E+0000
  0
LINE
  8
1
  6
CONTINUOUS
 62
     1
 10
 6.59222948200477E+0000
 20
 4.05942995604710E+0000
 11
 6.61318610997841E+0000
 21
 4.04149550936563E+0000
  0
LINE
  8
1
  6
CONTINUOUS
 62
     1
 10
 6.61318610997841E+0000
 20
 4.04149550936563E+0000
 11
 6.61318610997841E+0000
 21
 3.90100901032929E+0000
  0
LINE
  8
1
  6
CONTINUOUS
 62
     1
 10
 6.61318610997841E+0000
 20
 3.90100901032929E+0000
 11
 6.61318610997841E+0000
 21
 3.76052251129659E+0000
  0
LINE
  8
1
  6
CONTINUOUS
 62
     1
 10
 6.61318610997841E+0000
 20
 3.76052251129659E+0000
 11
 6.59222948200477E+0000
 21
 3.74258806460784E+0000
  0
LINE
  8
1
  6
CONTINUOUS
 62
     1
 10
 6.59222948200477E+0000
 20
 3.74258806460784E+0000
 11
 4.74804622063675E+0000
 21
 3.74258806460784E+0000
  0
LINE
  8
1
  6
CONTINUOUS
 62
     1
 10
 4.74804622063675E+0000
 20
 3.74258806460784E+0000
 11
 4.72708959267038E+0000
 21
 3.76052251129659E+0000
  0
LINE
  8
1
  6
CONTINUOUS
 62
     1
 10
 4.72708959267038E+0000
 20
 3.76052251129659E+0000
 11
 4.72708959267038E+0000
 21
 3.90100901032929E+0000
  0
LINE
  8
1
  6
CONTINUOUS
 62
     1
 10
 4.74861490652256E+0000
 20
 4.05921100211708E+0000
 11
 4.74861490652256E+0000
 21
 3.74222891501631E+0000
  0
LINE
  8
1
  6
CONTINUOUS
 62
     1
 10
 6.59278075186012E+0000
 20
 4.05921100211708E+0000
 11
 6.59278075186012E+0000
 21
 3.74222891501631E+0000
  0
LINE
  8
1
  6
DASHDOT
 62
     1
 10
 5.34294885880081E+0000
 20
 3.90000951815819E+0000
 11
 6.69492766245821E+0000
 21
 3.90000951815819E+0000
  0
LINE
  8
1
  6
CONTINUOUS
 62
     1
 10
 3.66062785544636E+0000
 20
 3.90005512237985E+0000
 11
 3.66062785544636E+0000
 21
 4.70061112834810E+0000
  0
LINE
  8
1
  6
CONTINUOUS
 62
     1
 10
 3.66062785544636E+0000
 20
 4.70061112834810E+0000
 11
 3.97271453840585E+0000
 21
 4.70061112834810E+0000
  0
LINE
  8
1
  6
CONTINUOUS
 62
     1
 10
 3.97271453840585E+0000
 20
 4.70061112834810E+0000
 11
 3.97271453840585E+0000
 21
 3.90005512237985E+0000
  0
LINE
  8
1
  6
CONTINUOUS
 62
     1
 10
 4.72708959267038E+0000
 20
 4.04149550936563E+0000
 11
 4.72708959267038E+0000
 21
 4.69974378360348E+0000
  0
LINE
  8
1
  6
CONTINUOUS
 62
     1
 10
 4.72708959267038E+0000
 20
 4.69974378360348E+0000
 11
 6.61210815184313E+0000
 21
 4.69974378360348E+0000
  0
LINE
  8
1
  6
CONTINUOUS
 62
     1
 10
 6.61210815184313E+0000
 20
 4.69974378360348E+0000
 11
 6.61210815184313E+0000
 21
 4.03820648526016E+0000
  0
LINE
  8
1
  6
CONTINUOUS
 62
     1
 10
 6.61341386604909E+0000
 20
 4.70309926875052E+0000
 11
 6.61341386604909E+0000
 21
 4.70309926875052E+0000
  0
LINE
  8
1
  6
CONTINUOUS
 62
     1
 10
 6.61341386604909E+0000
 20
 4.70309926875052E+0000
 11
 6.45412453941390E+0000
 21
 4.73028079011419E+0000
  0
LINE
  8
1
  6
CONTINUOUS
 62
     1
 10
 6.45412453941390E+0000
 20
 4.73028079011419E+0000
 11
 6.45412453941390E+0000
 21
 4.66987715264258E+0000
  0
LINE
  8
1
  6
CONTINUOUS
 62
     1
 10
 6.45412453941390E+0000
 20
 4.66987715264258E+0000
 11
 6.61341386604909E+0000
 21
 4.70309926875052E+0000
  0
LINE
  8
1
  6
CONTINUOUS
 62
     1
 10
 6.45412453941390E+0000
 20
 4.73028079011419E+0000
 11
 6.45412453941390E+0000
 21
 4.66987715264258E+0000
  0
LINE
  8
1
  6
CONTINUOUS
 62
     1
 10
 6.46266947116237E+0000
 20
 4.67165932299395E+0000
 11
 6.45412453942117E+0000
 21
 4.68020425474242E+0000
  0
LINE
  8
1
  6
CONTINUOUS
 62
     1
 10
 6.47975933465204E+0000
 20
 4.67522366368939E+0000
 11
 6.45412453941390E+0000
 21
 4.70085845892754E+0000
  0
LINE
  8
1
  6
CONTINUOUS
 62
     1
 10
 6.49684919814899E+0000
 20
 4.67878800438484E+0000
 11
 6.45412453941390E+0000
 21
 4.72151266311266E+0000
  0
LINE
  8
1
  6
CONTINUOUS
 62
     1
 10
 6.51393906163867E+0000
 20
 4.68235234508029E+0000
 11
 6.46845620760723E+0000
 21
 4.72783519910445E+0000
  0
LINE
  8
1
  6
CONTINUOUS
 62
     1
 10
 6.53102892512834E+0000
 20
 4.68591668577574E+0000
 11
 6.49336006752856E+0000
 21
 4.72358554336824E+0000
  0
LINE
  8
1
  6
CONTINUOUS
 62
     1
 10
 6.54811878861801E+0000
 20
 4.68948102646391E+0000
 11
 6.51826392744988E+0000
 21
 4.71933588763204E+0000
  0
LINE
  8
1
  6
CONTINUOUS
 62
     1
 10
 6.56520865210769E+0000
 20
 4.69304536715936E+0000
 11
 6.54316778737120E+0000
 21
 4.71508623190311E+0000
  0
LINE
  8
1
  6
CONTINUOUS
 62
     1
 10
 6.58229851559736E+0000
 20
 4.69660970785480E+0000
 11
 6.56807164729253E+0000
 21
 4.71083657616691E+0000
  0
LINE
  8
1
  6
CONTINUOUS
 62
     1
 10
 6.59938837909431E+0000
 20
 4.70017404855025E+0000
 11
 6.59297550720657E+0000
 21
 4.70658692043071E+0000
  0
LINE
  8
1
  6
CONTINUOUS
 62
     1
 10
 6.60459212712158E+0000
 20
 4.70460463191557E+0000
 11
 6.60036529353238E+0000
 21
 4.70037779832637E+0000
  0
LINE
  8
1
  6
CONTINUOUS
 62
     1
 10
 6.58694864926656E+0000
 20
 4.70761535824568E+0000
 11
 6.57426814849896E+0000
 21
 4.69493485747807E+0000
  0
LINE
  8
1
  6
CONTINUOUS
 62
     1
 10
 6.56930517141154E+0000
 20
 4.71062608457578E+0000
 11
 6.54817100346554E+0000
 21
 4.68949191662978E+0000
  0
LINE
  8
1
  6
CONTINUOUS
 62
     1
 10
 6.55166169355653E+0000
 20
 4.71363681090588E+0000
 11
 6.52207385843212E+0000
 21
 4.68404897578876E+0000
  0
LINE
  8
1
  6
CONTINUOUS
 62
     1
 10
 6.53401821570151E+0000
 20
 4.71664753724326E+0000
 11
 6.49597671339870E+0000
 21
 4.67860603494046E+0000
  0
LINE
  8
1
  6
CONTINUOUS
 62
     1
 10
 6.51637473785377E+0000
 20
 4.71965826357336E+0000
 11
 6.46987956837256E+0000
 21
 4.67316309409216E+0000
  0
LINE
  8
1
  6
CONTINUOUS
 62
     1
 10
 6.49873125999875E+0000
 20
 4.72266898990347E+0000
 11
 6.45412453940662E+0000
 21
 4.67806226931134E+0000
  0
LINE
  8
1
  6
CONTINUOUS
 62
     1
 10
 6.48108778214373E+0000
 20
 4.72567971623357E+0000
 11
 6.45412453940662E+0000
 21
 4.69871647350374E+0000
  0
LINE
  8
1
  6
CONTINUOUS
 62
     1
 10
 6.46344430428871E+0000
 20
 4.72869044257095E+0000
 11
 6.45412453940662E+0000
 21
 4.71937067768886E+0000
  0
LINE
  8
1
  6
CONTINUOUS
 62
     1
 10
 6.61341386604909E+0000
 20
 4.70309926875052E+0000
 11
 6.61341386604909E+0000
 21
 4.70309926875052E+0000
  0
LINE
  8
1
  6
CONTINUOUS
 62
     1
 10
 6.61341386604909E+0000
 20
 4.70309926875052E+0000
 11
 6.45412453941390E+0000
 21
 4.73028079011419E+0000
  0
LINE
  8
1
  6
CONTINUOUS
 62
     1
 10
 6.45412453941390E+0000
 20
 4.73028079011419E+0000
 11
 6.45412453941390E+0000
 21
 4.66987715264258E+0000
  0
LINE
  8
1
  6
CONTINUOUS
 62
     1
 10
 6.45412453941390E+0000
 20
 4.66987715264258E+0000
 11
 6.61341386604909E+0000
 21
 4.70309926875052E+0000
  0
LINE
  8
1
  6
CONTINUOUS
 62
     1
 10
 6.45412453941390E+0000
 20
 4.73028079011419E+0000
 11
 6.45412453941390E+0000
 21
 4.66987715264258E+0000
  0
LINE
  8
1
  6
CONTINUOUS
 62
     1
 10
 6.46266947116237E+0000
 20
 4.67165932299395E+0000
 11
 6.45412453942117E+0000
 21
 4.68020425474242E+0000
  0
LINE
  8
1
  6
CONTINUOUS
 62
     1
 10
 6.47975933465204E+0000
 20
 4.67522366368939E+0000
 11
 6.45412453941390E+0000
 21
 4.70085845892754E+0000
  0
LINE
  8
1
  6
CONTINUOUS
 62
     1
 10
 6.49684919814899E+0000
 20
 4.67878800438484E+0000
 11
 6.45412453941390E+0000
 21
 4.72151266311266E+0000
  0
LINE
  8
1
  6
CONTINUOUS
 62
     1
 10
 6.51393906163867E+0000
 20
 4.68235234508029E+0000
 11
 6.46845620760723E+0000
 21
 4.72783519910445E+0000
  0
LINE
  8
1
  6
CONTINUOUS
 62
     1
 10
 6.53102892512834E+0000
 20
 4.68591668577574E+0000
 11
 6.49336006752856E+0000
 21
 4.72358554336824E+0000
  0
LINE
  8
1
  6
CONTINUOUS
 62
     1
 10
 6.54811878861801E+0000
 20
 4.68948102646391E+0000
 11
 6.51826392744988E+0000
 21
 4.71933588763204E+0000
  0
LINE
  8
1
  6
CONTINUOUS
 62
     1
 10
 6.56520865210769E+0000
 20
 4.69304536715936E+0000
 11
 6.54316778737120E+0000
 21
 4.71508623190311E+0000
  0
LINE
  8
1
  6
CONTINUOUS
 62
     1
 10
 6.58229851559736E+0000
 20
 4.69660970785480E+0000
 11
 6.56807164729253E+0000
 21
 4.71083657616691E+0000
  0
LINE
  8
1
  6
CONTINUOUS
 62
     1
 10
 6.59938837909431E+0000
 20
 4.70017404855025E+0000
 11
 6.59297550720657E+0000
 21
 4.70658692043071E+0000
  0
LINE
  8
1
  6
CONTINUOUS
 62
     1
 10
 6.60459212712158E+0000
 20
 4.70460463191557E+0000
 11
 6.60036529353238E+0000
 21
 4.70037779832637E+0000
  0
LINE
  8
1
  6
CONTINUOUS
 62
     1
 10
 6.58694864926656E+0000
 20
 4.70761535824568E+0000
 11
 6.57426814849896E+0000
 21
 4.69493485747807E+0000
  0
LINE
  8
1
  6
CONTINUOUS
 62
     1
 10
 6.56930517141154E+0000
 20
 4.71062608457578E+0000
 11
 6.54817100346554E+0000
 21
 4.68949191662978E+0000
  0
LINE
  8
1
  6
CONTINUOUS
 62
     1
 10
 6.55166169355653E+0000
 20
 4.71363681090588E+0000
 11
 6.52207385843212E+0000
 21
 4.68404897578876E+0000
  0
LINE
  8
1
  6
CONTINUOUS
 62
     1
 10
 6.53401821570151E+0000
 20
 4.71664753724326E+0000
 11
 6.49597671339870E+0000
 21
 4.67860603494046E+0000
  0
LINE
  8
1
  6
CONTINUOUS
 62
     1
 10
 6.51637473785377E+0000
 20
 4.71965826357336E+0000
 11
 6.46987956837256E+0000
 21
 4.67316309409216E+0000
  0
LINE
  8
1
  6
CONTINUOUS
 62
     1
 10
 6.49873125999875E+0000
 20
 4.72266898990347E+0000
 11
 6.45412453940662E+0000
 21
 4.67806226931134E+0000
  0
LINE
  8
1
  6
CONTINUOUS
 62
     1
 10
 6.48108778214373E+0000
 20
 4.72567971623357E+0000
 11
 6.45412453940662E+0000
 21
 4.69871647350374E+0000
  0
LINE
  8
1
  6
CONTINUOUS
 62
     1
 10
 6.46344430428871E+0000
 20
 4.72869044257095E+0000
 11
 6.45412453940662E+0000
 21
 4.71937067768886E+0000
  0
LINE
  8
1
  6
CONTINUOUS
 62
     1
 10
 4.73211632567836E+0000
 20
 4.70098837836849E+0000
 11
 4.73211632567836E+0000
 21
 4.70098837836849E+0000
  0
LINE
  8
1
  6
CONTINUOUS
 62
     1
 10
 4.73211632567836E+0000
 20
 4.70098837836849E+0000
 11
 4.89140565232810E+0000
 21
 4.67380685700482E+0000
  0
LINE
  8
1
  6
CONTINUOUS
 62
     1
 10
 4.89140565232810E+0000
 20
 4.67380685700482E+0000
 11
 4.89140565232810E+0000
 21
 4.73421049447643E+0000
  0
LINE
  8
1
  6
CONTINUOUS
 62
     1
 10
 4.89140565232810E+0000
 20
 4.73421049447643E+0000
 11
 4.73211632567836E+0000
 21
 4.70098837836849E+0000
  0
LINE
  8
1
  6
CONTINUOUS
 62
     1
 10
 4.89140565232810E+0000
 20
 4.67380685700482E+0000
 11
 4.89140565232810E+0000
 21
 4.73421049447643E+0000
  0
LINE
  8
1
  6
CONTINUOUS
 62
     1
 10
 4.74456825564266E+0000
 20
 4.69886355050403E+0000
 11
 4.74066125742684E+0000
 21
 4.70277054871985E+0000
  0
LINE
  8
1
  6
CONTINUOUS
 62
     1
 10
 4.76947211556399E+0000
 20
 4.69461389476783E+0000
 11
 4.75775112091651E+0000
 21
 4.70633488941530E+0000
  0
LINE
  8
1
  6
CONTINUOUS
 62
     1
 10
 4.79437597548531E+0000
 20
 4.69036423903162E+0000
 11
 4.77484098440618E+0000
 21
 4.70989923011075E+0000
  0
LINE
  8
1
  6
CONTINUOUS
 62
     1
 10
 4.81927983540663E+0000
 20
 4.68611458329542E+0000
 11
 4.79193084790313E+0000
 21
 4.71346357079892E+0000
  0
LINE
  8
1
  6
CONTINUOUS
 62
     1
 10
 4.84418369532068E+0000
 20
 4.68186492756649E+0000
 11
 4.80902071139280E+0000
 21
 4.71702791149437E+0000
  0
LINE
  8
1
  6
CONTINUOUS
 62
     1
 10
 4.86908755524200E+0000
 20
 4.67761527183029E+0000
 11
 4.82611057488248E+0000
 21
 4.72059225218982E+0000
  0
LINE
  8
1
  6
CONTINUOUS
 62
     1
 10
 4.89140565232810E+0000
 20
 4.67595137892931E+0000
 11
 4.84320043837215E+0000
 21
 4.72415659288527E+0000
  0
LINE
  8
1
  6
CONTINUOUS
 62
     1
 10
 4.89140565232810E+0000
 20
 4.69660558311443E+0000
 11
 4.86029030186182E+0000
 21
 4.72772093358071E+0000
  0
LINE
  8
1
  6
CONTINUOUS
 62
     1
 10
 4.89140565232810E+0000
 20
 4.71725978729955E+0000
 11
 4.87738016535150E+0000
 21
 4.73128527427616E+0000
  0
LINE
  8
1
  6
CONTINUOUS
 62
     1
 10
 4.89140565232810E+0000
 20
 4.68413395909738E+0000
 11
 4.88258391340059E+0000
 21
 4.67531222016987E+0000
  0
LINE
  8
1
  6
CONTINUOUS
 62
     1
 10
 4.89140565232810E+0000
 20
 4.70478816328250E+0000
 11
 4.86494043554558E+0000
 21
 4.67832294649997E+0000
  0
LINE
  8
1
  6
CONTINUOUS
 62
     1
 10
 4.89140565232810E+0000
 20
 4.72544236746762E+0000
 11
 4.84729695769056E+0000
 21
 4.68133367283008E+0000
  0
LINE
  8
1
  6
CONTINUOUS
 62
     1
 10
 4.87638727267040E+0000
 20
 4.73107819199504E+0000
 11
 4.82965347983554E+0000
 21
 4.68434439916018E+0000
  0
LINE
  8
1
  6
CONTINUOUS
 62
     1
 10
 4.85029012763698E+0000
 20
 4.72563525114674E+0000
 11
 4.81201000198780E+0000
 21
 4.68735512549756E+0000
  0
LINE
  8
1
  6
CONTINUOUS
 62
     1
 10
 4.82419298260356E+0000
 20
 4.72019231029844E+0000
 11
 4.79436652413278E+0000
 21
 4.69036585182766E+0000
  0
LINE
  8
1
  6
CONTINUOUS
 62
     1
 10
 4.79809583757742E+0000
 20
 4.71474936945742E+0000
 11
 4.77672304627777E+0000
 21
 4.69337657815777E+0000
  0
LINE
  8
1
  6
CONTINUOUS
 62
     1
 10
 4.77199869254400E+0000
 20
 4.70930642860912E+0000
 11
 4.75907956842275E+0000
 21
 4.69638730448787E+0000
  0
LINE
  8
1
  6
CONTINUOUS
 62
     1
 10
 4.74590154751058E+0000
 20
 4.70386348776810E+0000
 11
 4.74143609056773E+0000
 21
 4.69939803082525E+0000
  0
LINE
  8
1
  6
CONTINUOUS
 62
     1
 10
 4.73211632567836E+0000
 20
 4.70098837836849E+0000
 11
 4.73211632567836E+0000
 21
 4.70098837836849E+0000
  0
LINE
  8
1
  6
CONTINUOUS
 62
     1
 10
 4.73211632567836E+0000
 20
 4.70098837836849E+0000
 11
 4.89140565232810E+0000
 21
 4.67380685700482E+0000
  0
LINE
  8
1
  6
CONTINUOUS
 62
     1
 10
 4.89140565232810E+0000
 20
 4.67380685700482E+0000
 11
 4.89140565232810E+0000
 21
 4.73421049447643E+0000
  0
LINE
  8
1
  6
CONTINUOUS
 62
     1
 10
 4.89140565232810E+0000
 20
 4.73421049447643E+0000
 11
 4.73211632567836E+0000
 21
 4.70098837836849E+0000
  0
LINE
  8
1
  6
CONTINUOUS
 62
     1
 10
 4.89140565232810E+0000
 20
 4.67380685700482E+0000
 11
 4.89140565232810E+0000
 21
 4.73421049447643E+0000
  0
LINE
  8
1
  6
CONTINUOUS
 62
     1
 10
 4.74456825564266E+0000
 20
 4.69886355050403E+0000
 11
 4.74066125742684E+0000
 21
 4.70277054871985E+0000
  0
LINE
  8
1
  6
CONTINUOUS
 62
     1
 10
 4.76947211556399E+0000
 20
 4.69461389476783E+0000
 11
 4.75775112091651E+0000
 21
 4.70633488941530E+0000
  0
LINE
  8
1
  6
CONTINUOUS
 62
     1
 10
 4.79437597548531E+0000
 20
 4.69036423903162E+0000
 11
 4.77484098440618E+0000
 21
 4.70989923011075E+0000
  0
LINE
  8
1
  6
CONTINUOUS
 62
     1
 10
 4.81927983540663E+0000
 20
 4.68611458329542E+0000
 11
 4.79193084790313E+0000
 21
 4.71346357079892E+0000
  0
LINE
  8
1
  6
CONTINUOUS
 62
     1
 10
 4.84418369532068E+0000
 20
 4.68186492756649E+0000
 11
 4.80902071139280E+0000
 21
 4.71702791149437E+0000
  0
LINE
  8
1
  6
CONTINUOUS
 62
     1
 10
 4.86908755524200E+0000
 20
 4.67761527183029E+0000
 11
 4.82611057488248E+0000
 21
 4.72059225218982E+0000
  0
LINE
  8
1
  6
CONTINUOUS
 62
     1
 10
 4.89140565232810E+0000
 20
 4.67595137892931E+0000
 11
 4.84320043837215E+0000
 21
 4.72415659288527E+0000
  0
LINE
  8
1
  6
CONTINUOUS
 62
     1
 10
 4.89140565232810E+0000
 20
 4.69660558311443E+0000
 11
 4.86029030186182E+0000
 21
 4.72772093358071E+0000
  0
LINE
  8
1
  6
CONTINUOUS
 62
     1
 10
 4.89140565232810E+0000
 20
 4.71725978729955E+0000
 11
 4.87738016535150E+0000
 21
 4.73128527427616E+0000
  0
LINE
  8
1
  6
CONTINUOUS
 62
     1
 10
 4.89140565232810E+0000
 20
 4.68413395909738E+0000
 11
 4.88258391340059E+0000
 21
 4.67531222016987E+0000
  0
LINE
  8
1
  6
CONTINUOUS
 62
     1
 10
 4.89140565232810E+0000
 20
 4.70478816328250E+0000
 11
 4.86494043554558E+0000
 21
 4.67832294649997E+0000
  0
LINE
  8
1
  6
CONTINUOUS
 62
     1
 10
 4.89140565232810E+0000
 20
 4.72544236746762E+0000
 11
 4.84729695769056E+0000
 21
 4.68133367283008E+0000
  0
LINE
  8
1
  6
CONTINUOUS
 62
     1
 10
 4.87638727267040E+0000
 20
 4.73107819199504E+0000
 11
 4.82965347983554E+0000
 21
 4.68434439916018E+0000
  0
LINE
  8
1
  6
CONTINUOUS
 62
     1
 10
 4.85029012763698E+0000
 20
 4.72563525114674E+0000
 11
 4.81201000198780E+0000
 21
 4.68735512549756E+0000
  0
LINE
  8
1
  6
CONTINUOUS
 62
     1
 10
 4.82419298260356E+0000
 20
 4.72019231029844E+0000
 11
 4.79436652413278E+0000
 21
 4.69036585182766E+0000
  0
LINE
  8
1
  6
CONTINUOUS
 62
     1
 10
 4.79809583757742E+0000
 20
 4.71474936945742E+0000
 11
 4.77672304627777E+0000
 21
 4.69337657815777E+0000
  0
LINE
  8
1
  6
CONTINUOUS
 62
     1
 10
 4.77199869254400E+0000
 20
 4.70930642860912E+0000
 11
 4.75907956842275E+0000
 21
 4.69638730448787E+0000
  0
LINE
  8
1
  6
CONTINUOUS
 62
     1
 10
 4.74590154751058E+0000
 20
 4.70386348776810E+0000
 11
 4.74143609056773E+0000
 21
 4.69939803082525E+0000
  0
LINE
  8
1
  6
CONTINUOUS
 62
     1
 10
 3.64548707702488E+0000
 20
 4.70309926875052E+0000
 11
 3.64548707702488E+0000
 21
 4.70309926875052E+0000
  0
LINE
  8
1
  6
CONTINUOUS
 62
     1
 10
 3.64548707702488E+0000
 20
 4.70309926875052E+0000
 11
 3.48619775038969E+0000
 21
 4.73028079011419E+0000
  0
LINE
  8
1
  6
CONTINUOUS
 62
     1
 10
 3.48619775038969E+0000
 20
 4.73028079011419E+0000
 11
 3.48619775038969E+0000
 21
 4.66987715264258E+0000
  0
LINE
  8
1
  6
CONTINUOUS
 62
     1
 10
 3.48619775038969E+0000
 20
 4.66987715264258E+0000
 11
 3.64548707702488E+0000
 21
 4.70309926875052E+0000
  0
LINE
  8
1
  6
CONTINUOUS
 62
     1
 10
 3.48619775038969E+0000
 20
 4.73028079011419E+0000
 11
 3.48619775038969E+0000
 21
 4.66987715264258E+0000
  0
LINE
  8
1
  6
CONTINUOUS
 62
     1
 10
 3.49474268213453E+0000
 20
 4.67165932298667E+0000
 11
 3.48619775038969E+0000
 21
 4.68020425473514E+0000
  0
LINE
  8
1
  6
CONTINUOUS
 62
     1
 10
 3.51183254562420E+0000
 20
 4.67522366368212E+0000
 11
 3.48619775038969E+0000
 21
 4.70085845892027E+0000
  0
LINE
  8
1
  6
CONTINUOUS
 62
     1
 10
 3.52892240911387E+0000
 20
 4.67878800437757E+0000
 11
 3.48619775038969E+0000
 21
 4.72151266310539E+0000
  0
LINE
  8
1
  6
CONTINUOUS
 62
     1
 10
 3.54601227260719E+0000
 20
 4.68235234507301E+0000
 11
 3.50052941856848E+0000
 21
 4.72783519911172E+0000
  0
LINE
  8
1
  6
CONTINUOUS
 62
     1
 10
 3.56310213609686E+0000
 20
 4.68591668576846E+0000
 11
 3.52543327848980E+0000
 21
 4.72358554337552E+0000
  0
LINE
  8
1
  6
CONTINUOUS
 62
     1
 10
 3.58019199958653E+0000
 20
 4.68948102646391E+0000
 11
 3.55033713841112E+0000
 21
 4.71933588763932E+0000
  0
LINE
  8
1
  6
CONTINUOUS
 62
     1
 10
 3.59728186307620E+0000
 20
 4.69304536715936E+0000
 11
 3.57524099833245E+0000
 21
 4.71508623190311E+0000
  0
LINE
  8
1
  6
CONTINUOUS
 62
     1
 10
 3.61437172656952E+0000
 20
 4.69660970785480E+0000
 11
 3.60014485825377E+0000
 21
 4.71083657616691E+0000
  0
LINE
  8
1
  6
CONTINUOUS
 62
     1
 10
 3.63146159005919E+0000
 20
 4.70017404855025E+0000
 11
 3.62504871817509E+0000
 21
 4.70658692043071E+0000
  0
LINE
  8
1
  6
CONTINUOUS
 62
     1
 10
 3.63666533809374E+0000
 20
 4.70460463190830E+0000
 11
 3.63243850450453E+0000
 21
 4.70037779831910E+0000
  0
LINE
  8
1
  6
CONTINUOUS
 62
     1
 10
 3.61902186023872E+0000
 20
 4.70761535823840E+0000
 11
 3.60634135947112E+0000
 21
 4.69493485747080E+0000
  0
LINE
  8
1
  6
CONTINUOUS
 62
     1
 10
 3.60137838238734E+0000
 20
 4.71062608457578E+0000
 11
 3.58024421444134E+0000
 21
 4.68949191662978E+0000
  0
LINE
  8
1
  6
CONTINUOUS
 62
     1
 10
 3.58373490453596E+0000
 20
 4.71363681091316E+0000
 11
 3.55414706940792E+0000
 21
 4.68404897578148E+0000
  0
LINE
  8
1
  6
CONTINUOUS
 62
     1
 10
 3.56609142668458E+0000
 20
 4.71664753724326E+0000
 11
 3.52804992438178E+0000
 21
 4.67860603494046E+0000
  0
LINE
  8
1
  6
CONTINUOUS
 62
     1
 10
 3.54844794882956E+0000
 20
 4.71965826357336E+0000
 11
 3.50195277934472E+0000
 21
 4.67316309409216E+0000
  0
LINE
  8
1
  6
CONTINUOUS
 62
     1
 10
 3.53080447097818E+0000
 20
 4.72266898990347E+0000
 11
 3.48619775038605E+0000
 21
 4.67806226931862E+0000
  0
LINE
  8
1
  6
CONTINUOUS
 62
     1
 10
 3.51316099312317E+0000
 20
 4.72567971624085E+0000
 11
 3.48619775038605E+0000
 21
 4.69871647350374E+0000
  0
LINE
  8
1
  6
CONTINUOUS
 62
     1
 10
 3.49551751526815E+0000
 20
 4.72869044257095E+0000
 11
 3.48619775038605E+0000
 21
 4.71937067768886E+0000
  0
LINE
  8
1
  6
CONTINUOUS
 62
     1
 10
 3.64548707702488E+0000
 20
 4.70309926875052E+0000
 11
 3.64548707702488E+0000
 21
 4.70309926875052E+0000
  0
LINE
  8
1
  6
CONTINUOUS
 62
     1
 10
 3.64548707702488E+0000
 20
 4.70309926875052E+0000
 11
 3.48619775038969E+0000
 21
 4.73028079011419E+0000
  0
LINE
  8
1
  6
CONTINUOUS
 62
     1
 10
 3.48619775038969E+0000
 20
 4.73028079011419E+0000
 11
 3.48619775038969E+0000
 21
 4.66987715264258E+0000
  0
LINE
  8
1
  6
CONTINUOUS
 62
     1
 10
 3.48619775038969E+0000
 20
 4.66987715264258E+0000
 11
 3.64548707702488E+0000
 21
 4.70309926875052E+0000
  0
LINE
  8
1
  6
CONTINUOUS
 62
     1
 10
 3.48619775038969E+0000
 20
 4.73028079011419E+0000
 11
 3.48619775038969E+0000
 21
 4.66987715264258E+0000
  0
LINE
  8
1
  6
CONTINUOUS
 62
     1
 10
 3.49474268213453E+0000
 20
 4.67165932298667E+0000
 11
 3.48619775038969E+0000
 21
 4.68020425473514E+0000
  0
LINE
  8
1
  6
CONTINUOUS
 62
     1
 10
 3.51183254562420E+0000
 20
 4.67522366368212E+0000
 11
 3.48619775038969E+0000
 21
 4.70085845892027E+0000
  0
LINE
  8
1
  6
CONTINUOUS
 62
     1
 10
 3.52892240911387E+0000
 20
 4.67878800437757E+0000
 11
 3.48619775038969E+0000
 21
 4.72151266310539E+0000
  0
LINE
  8
1
  6
CONTINUOUS
 62
     1
 10
 3.54601227260719E+0000
 20
 4.68235234507301E+0000
 11
 3.50052941856848E+0000
 21
 4.72783519911172E+0000
  0
LINE
  8
1
  6
CONTINUOUS
 62
     1
 10
 3.56310213609686E+0000
 20
 4.68591668576846E+0000
 11
 3.52543327848980E+0000
 21
 4.72358554337552E+0000
  0
LINE
  8
1
  6
CONTINUOUS
 62
     1
 10
 3.58019199958653E+0000
 20
 4.68948102646391E+0000
 11
 3.55033713841112E+0000
 21
 4.71933588763932E+0000
  0
LINE
  8
1
  6
CONTINUOUS
 62
     1
 10
 3.59728186307620E+0000
 20
 4.69304536715936E+0000
 11
 3.57524099833245E+0000
 21
 4.71508623190311E+0000
  0
LINE
  8
1
  6
CONTINUOUS
 62
     1
 10
 3.61437172656952E+0000
 20
 4.69660970785480E+0000
 11
 3.60014485825377E+0000
 21
 4.71083657616691E+0000
  0
LINE
  8
1
  6
CONTINUOUS
 62
     1
 10
 3.63146159005919E+0000
 20
 4.70017404855025E+0000
 11
 3.62504871817509E+0000
 21
 4.70658692043071E+0000
  0
LINE
  8
1
  6
CONTINUOUS
 62
     1
 10
 3.63666533809374E+0000
 20
 4.70460463190830E+0000
 11
 3.63243850450453E+0000
 21
 4.70037779831910E+0000
  0
LINE
  8
1
  6
CONTINUOUS
 62
     1
 10
 3.61902186023872E+0000
 20
 4.70761535823840E+0000
 11
 3.60634135947112E+0000
 21
 4.69493485747080E+0000
  0
LINE
  8
1
  6
CONTINUOUS
 62
     1
 10
 3.60137838238734E+0000
 20
 4.71062608457578E+0000
 11
 3.58024421444134E+0000
 21
 4.68949191662978E+0000
  0
LINE
  8
1
  6
CONTINUOUS
 62
     1
 10
 3.58373490453596E+0000
 20
 4.71363681091316E+0000
 11
 3.55414706940792E+0000
 21
 4.68404897578148E+0000
  0
LINE
  8
1
  6
CONTINUOUS
 62
     1
 10
 3.56609142668458E+0000
 20
 4.71664753724326E+0000
 11
 3.52804992438178E+0000
 21
 4.67860603494046E+0000
  0
LINE
  8
1
  6
CONTINUOUS
 62
     1
 10
 3.54844794882956E+0000
 20
 4.71965826357336E+0000
 11
 3.50195277934472E+0000
 21
 4.67316309409216E+0000
  0
LINE
  8
1
  6
CONTINUOUS
 62
     1
 10
 3.53080447097818E+0000
 20
 4.72266898990347E+0000
 11
 3.48619775038605E+0000
 21
 4.67806226931862E+0000
  0
LINE
  8
1
  6
CONTINUOUS
 62
     1
 10
 3.51316099312317E+0000
 20
 4.72567971624085E+0000
 11
 3.48619775038605E+0000
 21
 4.69871647350374E+0000
  0
LINE
  8
1
  6
CONTINUOUS
 62
     1
 10
 3.49551751526815E+0000
 20
 4.72869044257095E+0000
 11
 3.48619775038605E+0000
 21
 4.71937067768886E+0000
  0
LINE
  8
1
  6
CONTINUOUS
 62
     1
 10
 3.96989876394946E+0000
 20
 4.70098837836849E+0000
 11
 3.96989876394946E+0000
 21
 4.70098837836849E+0000
  0
LINE
  8
1
  6
CONTINUOUS
 62
     1
 10
 3.96989876394946E+0000
 20
 4.70098837836849E+0000
 11
 4.12918809059920E+0000
 21
 4.67380685700482E+0000
  0
LINE
  8
1
  6
CONTINUOUS
 62
     1
 10
 4.12918809059920E+0000
 20
 4.67380685700482E+0000
 11
 4.12918809059920E+0000
 21
 4.73421049447643E+0000
  0
LINE
  8
1
  6
CONTINUOUS
 62
     1
 10
 4.12918809059920E+0000
 20
 4.73421049447643E+0000
 11
 3.96989876394946E+0000
 21
 4.70098837836849E+0000
  0
LINE
  8
1
  6
CONTINUOUS
 62
     1
 10
 4.12918809059920E+0000
 20
 4.67380685700482E+0000
 11
 4.12918809059920E+0000
 21
 4.73421049447643E+0000
  0
LINE
  8
1
  6
CONTINUOUS
 62
     1
 10
 3.98235069391376E+0000
 20
 4.69886355050403E+0000
 11
 3.97844369569793E+0000
 21
 4.70277054871985E+0000
  0
LINE
  8
1
  6
CONTINUOUS
 62
     1
 10
 4.00725455383508E+0000
 20
 4.69461389476783E+0000
 11
 3.99553355918761E+0000
 21
 4.70633488941530E+0000
  0
LINE
  8
1
  6
CONTINUOUS
 62
     1
 10
 4.03215841375641E+0000
 20
 4.69036423903162E+0000
 11
 4.01262342267728E+0000
 21
 4.70989923011075E+0000
  0
LINE
  8
1
  6
CONTINUOUS
 62
     1
 10
 4.05706227367045E+0000
 20
 4.68611458329542E+0000
 11
 4.02971328616695E+0000
 21
 4.71346357079892E+0000
  0
LINE
  8
1
  6
CONTINUOUS
 62
     1
 10
 4.08196613359178E+0000
 20
 4.68186492756649E+0000
 11
 4.04680314966390E+0000
 21
 4.71702791149437E+0000
  0
LINE
  8
1
  6
CONTINUOUS
 62
     1
 10
 4.10686999351310E+0000
 20
 4.67761527183029E+0000
 11
 4.06389301315357E+0000
 21
 4.72059225218982E+0000
  0
LINE
  8
1
  6
CONTINUOUS
 62
     1
 10
 4.12918809059920E+0000
 20
 4.67595137892931E+0000
 11
 4.08098287664325E+0000
 21
 4.72415659288527E+0000
  0
LINE
  8
1
  6
CONTINUOUS
 62
     1
 10
 4.12918809059920E+0000
 20
 4.69660558311443E+0000
 11
 4.09807274013292E+0000
 21
 4.72772093358071E+0000
  0
LINE
  8
1
  6
CONTINUOUS
 62
     1
 10
 4.12918809059920E+0000
 20
 4.71725978729955E+0000
 11
 4.11516260362259E+0000
 21
 4.73128527427616E+0000
  0
LINE
  8
1
  6
CONTINUOUS
 62
     1
 10
 4.12918809059920E+0000
 20
 4.68413395909738E+0000
 11
 4.12036635167169E+0000
 21
 4.67531222016987E+0000
  0
LINE
  8
1
  6
CONTINUOUS
 62
     1
 10
 4.12918809059920E+0000
 20
 4.70478816328250E+0000
 11
 4.10272287381667E+0000
 21
 4.67832294649997E+0000
  0
LINE
  8
1
  6
CONTINUOUS
 62
     1
 10
 4.12918809059920E+0000
 20
 4.72544236746762E+0000
 11
 4.08507939596166E+0000
 21
 4.68133367283008E+0000
  0
LINE
  8
1
  6
CONTINUOUS
 62
     1
 10
 4.11416971094150E+0000
 20
 4.73107819199504E+0000
 11
 4.06743591810664E+0000
 21
 4.68434439916018E+0000
  0
LINE
  8
1
  6
CONTINUOUS
 62
     1
 10
 4.08807256590808E+0000
 20
 4.72563525114674E+0000
 11
 4.04979244025890E+0000
 21
 4.68735512549756E+0000
  0
LINE
  8
1
  6
CONTINUOUS
 62
     1
 10
 4.06197542087466E+0000
 20
 4.72019231029844E+0000
 11
 4.03214896240388E+0000
 21
 4.69036585182766E+0000
  0
LINE
  8
1
  6
CONTINUOUS
 62
     1
 10
 4.03587827584852E+0000
 20
 4.71474936945742E+0000
 11
 4.01450548454886E+0000
 21
 4.69337657815777E+0000
  0
LINE
  8
1
  6
CONTINUOUS
 62
     1
 10
 4.00978113081510E+0000
 20
 4.70930642860912E+0000
 11
 3.99686200669385E+0000
 21
 4.69638730448787E+0000
  0
LINE
  8
1
  6
CONTINUOUS
 62
     1
 10
 3.98368398578532E+0000
 20
 4.70386348776810E+0000
 11
 3.97921852884247E+0000
 21
 4.69939803082525E+0000
  0
LINE
  8
1
  6
CONTINUOUS
 62
     1
 10
 3.96989876394946E+0000
 20
 4.70098837836849E+0000
 11
 3.96989876394946E+0000
 21
 4.70098837836849E+0000
  0
LINE
  8
1
  6
CONTINUOUS
 62
     1
 10
 3.96989876394946E+0000
 20
 4.70098837836849E+0000
 11
 4.12918809059920E+0000
 21
 4.67380685700482E+0000
  0
LINE
  8
1
  6
CONTINUOUS
 62
     1
 10
 4.12918809059920E+0000
 20
 4.67380685700482E+0000
 11
 4.12918809059920E+0000
 21
 4.73421049447643E+0000
  0
LINE
  8
1
  6
CONTINUOUS
 62
     1
 10
 4.12918809059920E+0000
 20
 4.73421049447643E+0000
 11
 3.96989876394946E+0000
 21
 4.70098837836849E+0000
  0
LINE
  8
1
  6
CONTINUOUS
 62
     1
 10
 4.12918809059920E+0000
 20
 4.67380685700482E+0000
 11
 4.12918809059920E+0000
 21
 4.73421049447643E+0000
  0
LINE
  8
1
  6
CONTINUOUS
 62
     1
 10
 3.98235069391376E+0000
 20
 4.69886355050403E+0000
 11
 3.97844369569793E+0000
 21
 4.70277054871985E+0000
  0
LINE
  8
1
  6
CONTINUOUS
 62
     1
 10
 4.00725455383508E+0000
 20
 4.69461389476783E+0000
 11
 3.99553355918761E+0000
 21
 4.70633488941530E+0000
  0
LINE
  8
1
  6
CONTINUOUS
 62
     1
 10
 4.03215841375641E+0000
 20
 4.69036423903162E+0000
 11
 4.01262342267728E+0000
 21
 4.70989923011075E+0000
  0
LINE
  8
1
  6
CONTINUOUS
 62
     1
 10
 4.05706227367045E+0000
 20
 4.68611458329542E+0000
 11
 4.02971328616695E+0000
 21
 4.71346357079892E+0000
  0
LINE
  8
1
  6
CONTINUOUS
 62
     1
 10
 4.08196613359178E+0000
 20
 4.68186492756649E+0000
 11
 4.04680314966390E+0000
 21
 4.71702791149437E+0000
  0
LINE
  8
1
  6
CONTINUOUS
 62
     1
 10
 4.10686999351310E+0000
 20
 4.67761527183029E+0000
 11
 4.06389301315357E+0000
 21
 4.72059225218982E+0000
  0
LINE
  8
1
  6
CONTINUOUS
 62
     1
 10
 4.12918809059920E+0000
 20
 4.67595137892931E+0000
 11
 4.08098287664325E+0000
 21
 4.72415659288527E+0000
  0
LINE
  8
1
  6
CONTINUOUS
 62
     1
 10
 4.12918809059920E+0000
 20
 4.69660558311443E+0000
 11
 4.09807274013292E+0000
 21
 4.72772093358071E+0000
  0
LINE
  8
1
  6
CONTINUOUS
 62
     1
 10
 4.12918809059920E+0000
 20
 4.71725978729955E+0000
 11
 4.11516260362259E+0000
 21
 4.73128527427616E+0000
  0
LINE
  8
1
  6
CONTINUOUS
 62
     1
 10
 4.12918809059920E+0000
 20
 4.68413395909738E+0000
 11
 4.12036635167169E+0000
 21
 4.67531222016987E+0000
  0
LINE
  8
1
  6
CONTINUOUS
 62
     1
 10
 4.12918809059920E+0000
 20
 4.70478816328250E+0000
 11
 4.10272287381667E+0000
 21
 4.67832294649997E+0000
  0
LINE
  8
1
  6
CONTINUOUS
 62
     1
 10
 4.12918809059920E+0000
 20
 4.72544236746762E+0000
 11
 4.08507939596166E+0000
 21
 4.68133367283008E+0000
  0
LINE
  8
1
  6
CONTINUOUS
 62
     1
 10
 4.11416971094150E+0000
 20
 4.73107819199504E+0000
 11
 4.06743591810664E+0000
 21
 4.68434439916018E+0000
  0
LINE
  8
1
  6
CONTINUOUS
 62
     1
 10
 4.08807256590808E+0000
 20
 4.72563525114674E+0000
 11
 4.04979244025890E+0000
 21
 4.68735512549756E+0000
  0
LINE
  8
1
  6
CONTINUOUS
 62
     1
 10
 4.06197542087466E+0000
 20
 4.72019231029844E+0000
 11
 4.03214896240388E+0000
 21
 4.69036585182766E+0000
  0
LINE
  8
1
  6
CONTINUOUS
 62
     1
 10
 4.03587827584852E+0000
 20
 4.71474936945742E+0000
 11
 4.01450548454886E+0000
 21
 4.69337657815777E+0000
  0
LINE
  8
1
  6
CONTINUOUS
 62
     1
 10
 4.00978113081510E+0000
 20
 4.70930642860912E+0000
 11
 3.99686200669385E+0000
 21
 4.69638730448787E+0000
  0
LINE
  8
1
  6
CONTINUOUS
 62
     1
 10
 3.98368398578532E+0000
 20
 4.70386348776810E+0000
 11
 3.97921852884247E+0000
 21
 4.69939803082525E+0000
  0
TEXT
  8
1
 62
     1
 10
 3.66739171201334E+0000
 20
 4.74396624181827E+0000
 40
 1.18110236219991E-0001
  1
8 -0.02
  7
STANDARD
 11
 3.66739171201334E+0000
 21
 4.86207647803531E+0000
 50
 0.00000000000000E+0000
 41
 2.42292280748870E-0001
  0
TEXT
  8
1
 62
     1
 10
 5.41442134464887E+0000
 20
 4.73049697763054E+0000
 40
 1.18110236219991E-0001
  1
48 -0.3
  7
STANDARD
 11
 5.41442134464887E+0000
 21
 4.84860721384757E+0000
 50
 0.00000000000000E+0000
 41
 2.42292280748870E-0001
  0
TEXT
  8
1
 62
     1
 10
 9.11576443347440E+0000
 20
 3.94009330641893E-0001
 40
 1.18110236219991E-0001
  1
(c)
  7
STANDARD
 11
 9.11576443347440E+0000
 21
 5.12119566861656E-0001
 50
 0.00000000000000E+0000
 41
 2.05581329120378E-0001
0
ENDSEC
0
EOF
