0
SECTION
  2
HEADER
  9
$LTSCALE
 40
     10
  9
$LIMMIN
 10
     0.0
 20
     0.0
  9
$LIMMAX
 10
      11.5
 20
       8.0
  9
$EXTMIN
 10
     0.0
 20
     0.0
  9
$EXTMAX
 10
      11.5
 20
       8.0
   9
$CLAYER
   8
1
   9
$CECOLOR
  62
     7
   9
$CELTYPE
   6
CONTINUOUS
  0
ENDSEC
  0
SECTION
  2
TABLES
  0
TABLE
  2
LTYPE
 70
    10
  0
LTYPE
  2
CONTINUOUS
 70
    64
  3
Solid line
 72
    65
 73
     0
 40
0.0
  0
LTYPE
  2
DASHED
 70
     0
  3
__ __ __ __ __ __ __ __ __ __ __ __ __ __ __
 72
    65
 73
     2
 40
0.75
 49
0.5
 49
-0.25
  0
LTYPE
  2
HIDDEN
 70
     0
  3
_ _ _ _ _ _ _ _ _ _ _ _ _ _ _ _ _ _ _ _ _ _
 72
    65
 73
     2
 40
0.375
 49
0.25
 49
-0.125
  0
LTYPE
  2
CENTER
 70
     0
  3
____ _ ____ _ ____ _ ____ _ ____ _ ____ _ __
 72
    65
 73
     4
 40
2.0
 49
1.25
 49
-0.25
 49
0.25
 49
-0.25
  0
LTYPE
  2
PHANTOM
 70
     0
  3
_____ _ _ _____ _ _ _____ _ _ _____ _ _ ____
 72
    65
 73
     6
 40
2.5
 49
1.25
 49
-0.25
 49
0.25
 49
-0.25
 49
0.25
 49
-0.25
  0
LTYPE
  2
DOT
 70
     0
  3
............................................
 72
    65
 73
     2
 40
0.25
 49
0.0
 49
-0.25
  0
LTYPE
  2
DASHDOT
 70
     0
  3
__ . __ . __ . __ . __ . __ . __ . __ . __ .
 72
    65
 73
     4
 40
1.0
 49
0.5
 49
-0.25
 49
0.0
 49
-0.25
  0
LTYPE
  2
BORDER
 70
     0
  3
__ __ . __ __ . __ __ . __ __ . __ __ . __ _
 72
    65
 73
     6
 40
1.75
 49
0.5
 49
-0.25
 49
0.5
 49
-0.25
 49
0.0
 49
-0.25
  0
LTYPE
  2
DIVIDE
 70
     0
  3
__ . . __ . . __ . . __ . . __ . . __ . . __
 72
    65
 73
     6
 40
1.25
 49
0.5
 49
-0.25
 49
0.0
 49
-0.25
 49
0.0
 49
-0.25
  0
LTYPE
  2
DIVIDE2
 70
     0
  3
close
 72
    65
 73
     2
 40
0.1
 49
0.05
 49
-0.05
  0
ENDTAB
0
TABLE
  2
LAYER
 70
   256
  0
LAYER
  2
1
 70
     0
  6
CONTINUOUS
 62
1
  0
ENDTAB
  0
TABLE
  2
STYLE
 70
     8
  0
STYLE
  2
TXT
 70
0
 40
0.0
 41
1.0
 50
0.0
 71
0
 42
1.0
  3
TXT
  4

  0
STYLE
  2
COMPLEX
 70
0
 40
0.0
 41
1.0
 50
0.0
 71
0
 42
1.0
  3
COMPLEX
  4

  0
STYLE
  2
ITALIC
 70
0
 40
0.0
 41
1.0
 50
0.0
 71
0
 42
1.0
  3
ITALIC
  4

  0
STYLE
  2
SIMPLEX
70
0
 40
0.0
 41
1.0
 50
0.0
 71
0
 42
1.0
  3
SIMPLEX
  4

  0
STYLE
  2
MONOTXT
 70
0
 40
0.0
 41
1.0
 50
0.0
 71
0
 42
1.0
  3
MONOTXT
  4

  0
STYLE
  2
SCRIPTC
 70
0
 40
0.0
 41
1.0
 50
0.0
 71
0
 42
1.0
  3
SCRIPTC
  4

  0
STYLE
  2
GOTHICE
 70
0
 40
0.0
 41
1.0
 50
0.0
 71
0
 42
1.0
  3
GOTHICE
  4

  0
ENDTAB
  0
TABLE
  2
VIEW
 70
     0
  0
ENDTAB
  0
ENDSEC
  0
SECTION
  2
ENTITIES
  0
LINE
  8
1
  6
CONTINUOUS
 62
     1
 10
 1.10824245900876E+0001
 20
 3.66054472739052E-0001
 11
 8.90078496305796E+0000
 21
 3.66054472739052E-0001
  0
LINE
  8
1
  6
CONTINUOUS
 62
     1
 10
 8.90078496305796E+0000
 20
 3.66054472739052E-0001
 11
 8.90078496305796E+0000
 21
 1.55291635594767E+0000
  0
LINE
  8
1
  6
CONTINUOUS
 62
     1
 10
 8.90078496305796E+0000
 20
 1.55291635594767E+0000
 11
 1.10824245900876E+0001
 21
 1.55291635594767E+0000
  0
LINE
  8
1
  6
CONTINUOUS
 62
     1
 10
 1.10824245900876E+0001
 20
 1.55291635594767E+0000
 11
 1.10824245900876E+0001
 21
 3.66054472739052E-0001
  0
LINE
  8
1
  6
CONTINUOUS
 62
     1
 10
 8.90010336294654E+0000
 20
 1.23953147667635E+0000
 11
 1.10833476808330E+0001
 21
 1.23953147667635E+0000
  0
LINE
  8
1
  6
CONTINUOUS
 62
     1
 10
 8.90774062665878E+0000
 20
 5.23861750931246E-0001
 11
 1.10909849445452E+0001
 21
 5.23861750931246E-0001
  0
TEXT
  8
1
 62
     1
 10
 8.94823287868348E+0000
 20
 1.35143637997317E+0000
 40
 1.18110236219991E-0001
  1
Benennung
  7
STANDARD
 11
 8.94823287868348E+0000
 21
 1.46954661619384E+0000
 50
 0.00000000000000E+0000
 41
 3.02793547149122E-0001
  0
LINE
  8
1
  6
CONTINUOUS
 62
     1
 10
 9.57264299190138E+0000
 20
 1.55147486233909E+0000
 11
 9.57264299190138E+0000
 21
 1.23953147667635E+0000
  0
LINE
  8
1
  6
CONTINUOUS
 62
     1
 10
 8.90010336294654E+0000
 20
 1.07349709398113E+0000
 11
 1.10833476808330E+0001
 21
 1.07349709398113E+0000
  0
LINE
  8
1
  6
CONTINUOUS
 62
     1
 10
 8.90010336294654E+0000
 20
 9.07462711285916E-0001
 11
 1.10833476808330E+0001
 21
 9.07462711285916E-0001
  0
TEXT
  8
1
 62
     1
 10
 8.95298969198484E+0000
 20
 1.08890528919073E+0000
 40
 1.18110236219991E-0001
  1
Werkstoff
  7
STANDARD
 11
 8.95298969198484E+0000
 21
 1.20701552541141E+0000
 50
 0.00000000000000E+0000
 41
 2.45508281472439E-0001
  0
LINE
  8
1
  6
CONTINUOUS
 62
     1
 10
 9.57264299190138E+0000
 20
 1.23953147667635E+0000
 11
 9.57264299190138E+0000
 21
 1.07349709398113E+0000
  0
LINE
  8
1
  6
CONTINUOUS
 62
     1
 10
 1.05011491960613E+0001
 20
 1.23953147667635E+0000
 11
 1.05011491960613E+0001
 21
 1.07349709398113E+0000
  0
TEXT
  8
1
 62
     1
 10
 1.05670323736267E+0001
 20
 1.08890528919073E+0000
 40
 1.18110236219991E-0001
  1
M 1:1
  7
STANDARD
 11
 1.05670323736267E+0001
 21
 1.20701552541141E+0000
 50
 0.00000000000000E+0000
 41
 2.50418447096763E-0001
  0
LINE
  8
1
  6
CONTINUOUS
 62
     1
 10
 8.90078496305796E+0000
 20
 1.55291635594767E+0000
 11
 1.10883666332957E+0001
 21
 1.55291635594767E+0000
  0
LINE
  8
1
  6
CONTINUOUS
 62
     1
 10
 8.90078496305796E+0000
 20
 1.55291635594767E+0000
 11
 1.10824245900876E+0001
 21
 1.55291635594767E+0000
  0
LINE
  8
1
  6
CONTINUOUS
 62
     1
 10
 1.10824245900876E+0001
 20
 1.55291635594767E+0000
 11
 1.10824245900876E+0001
 21
 3.66054472739052E-0001
  0
LINE
  8
1
  6
CONTINUOUS
 62
     1
 10
 1.10824245900876E+0001
 20
 3.66054472739052E-0001
 11
 8.90078496305796E+0000
 21
 3.66054472739052E-0001
  0
LINE
  8
1
  6
CONTINUOUS
 62
     1
 10
 8.90078496305796E+0000
 20
 3.66054472739052E-0001
 11
 8.90078496305796E+0000
 21
 1.55291635594767E+0000
  0
TEXT
  8
1
 62
     1
 10
 8.94643199958955E+0000
 20
 9.29817355409796E-0001
 40
 1.18110236219991E-0001
  1
Bearb.
  7
STANDARD
 11
 8.94643199958955E+0000
 21
 1.04792759162956E+0000
 50
 0.00000000000000E+0000
 41
 2.57783695545186E-0001
  0
LINE
  8
1
  6
CONTINUOUS
 62
     1
 10
 9.57372805119667E+0000
 20
 1.07462383869279E+0000
 11
 9.57372805119667E+0000
 21
 9.08513856978971E-0001
  0
LINE
  8
1
  6
CONTINUOUS
 62
     1
 10
 8.90204784499656E+0000
 20
 7.36471375930705E-0001
 11
 1.10827893074456E+0001
 21
 7.36471375930705E-0001
  0
LINE
  8
1
  6
CONTINUOUS
 62
     1
 10
 9.57372805119667E+0000
 20
 9.08513856978971E-0001
 11
 9.57372805119667E+0000
 21
 7.36471375930705E-0001
  0
TEXT
  8
1
 62
     1
 10
 8.94643199958955E+0000
 20
 7.54808624687030E-0001
 40
 1.18110236219991E-0001
  1
Datum
  7
STANDARD
 11
 8.94643199958955E+0000
 21
 8.72918860906793E-0001
 50
 0.00000000000000E+0000
 41
 3.09340434654132E-0001
  0
LINE
  8
1
  6
CONTINUOUS
 62
     1
 10
 1.04998774104170E+0001
 20
 5.19935149772209E-0001
 11
 1.04998774104170E+0001
 21
 3.68656416430895E-0001
  0
TEXT
  8
1
 62
     1
 10
 9.62994798035652E+0000
 20
 9.20918606393570E-0001
 40
 1.18110236219991E-0001
  1
D.Freind
  7
STANDARD
 11
 9.62994798035652E+0000
 21
 1.03902884261333E+0000
 50
 0.00000000000000E+0000
 41
 2.48577134984316E-0001
  0
TEXT
  8
1
 62
     1
 10
 1.05235489595507E+0001
 20
 3.84027415512719E-0001
 40
 1.18110236219991E-0001
  1
Blatt
  7
STANDARD
 11
 1.05235489595507E+0001
 21
 5.02137651732482E-0001
 50
 0.00000000000000E+0000
 41
 2.20957453317624E-0001
  0
TEXT
  8
1
 62
     1
 10
 9.04969655426976E+0000
 20
 5.46297824291287E-0001
 40
 1.18110236219991E-0001
  1
für Revolver 8-fach 
  7
STANDARD
 11
 9.04969655426976E+0000
 21
 6.64408060511050E-0001
 50
 0.00000000000000E+0000
 41
 2.24640077545928E-0001
  0
TEXT
  8
1
 62
     1
 10
 9.28210591475363E+0000
 20
 3.96229024693639E-0001
 40
 1.18110236219991E-0001
  1
www.cnc-projects.de.vu
  7
STANDARD
 11
 9.28210591475363E+0000
 21
 5.14339260913403E-0001
 50
 0.00000000000000E+0000
 41
 2.54435855340944E-0001
  0
TEXT
  8
1
 62
     1
 10
 9.63511565663794E+0000
 20
 1.10198660545939E+0000
 40
 1.18110236219991E-0001
  1
Aluminium
  7
STANDARD
 11
 9.63511565663794E+0000
 21
 1.22009684168006E+0000
 50
 0.00000000000000E+0000
 41
 2.86426328383186E-0001
  0
LINE
  8
1
  6
CONTINUOUS
 62
     1
 10
 7.97381456146832E+0000
 20
 4.24566946744017E+0000
 11
 7.97381456146832E+0000
 21
 4.24566946744017E+0000
  0
LINE
  8
1
  6
CONTINUOUS
 62
     1
 10
 7.97381456146832E+0000
 20
 4.24566946744017E+0000
 11
 7.81452523483313E+0000
 21
 4.27285098880384E+0000
  0
LINE
  8
1
  6
CONTINUOUS
 62
     1
 10
 7.81452523483313E+0000
 20
 4.27285098880384E+0000
 11
 7.81452523483313E+0000
 21
 4.21244735133223E+0000
  0
LINE
  8
1
  6
CONTINUOUS
 62
     1
 10
 7.81452523483313E+0000
 20
 4.21244735133223E+0000
 11
 7.97381456146832E+0000
 21
 4.24566946744017E+0000
  0
LINE
  8
1
  6
CONTINUOUS
 62
     1
 10
 7.81452523483313E+0000
 20
 4.27285098880384E+0000
 11
 7.81452523483313E+0000
 21
 4.21244735133223E+0000
  0
LINE
  8
1
  6
CONTINUOUS
 62
     1
 10
 7.82268882252538E+0000
 20
 4.21414998680848E+0000
 11
 7.81452523483313E+0000
 21
 4.22231357450073E+0000
  0
LINE
  8
1
  6
CONTINUOUS
 62
     1
 10
 7.83901599789533E+0000
 20
 4.21755525774643E+0000
 11
 7.81452523483313E+0000
 21
 4.24204602080863E+0000
  0
LINE
  8
1
  6
CONTINUOUS
 62
     1
 10
 7.85534317325801E+0000
 20
 4.22096052869165E+0000
 11
 7.81452523483313E+0000
 21
 4.26177846712380E+0000
  0
LINE
  8
1
  6
CONTINUOUS
 62
     1
 10
 7.87167034862068E+0000
 20
 4.22436579963687E+0000
 11
 7.82496696127055E+0000
 21
 4.27106918699428E+0000
  0
LINE
  8
1
  6
CONTINUOUS
 62
     1
 10
 7.88799752399063E+0000
 20
 4.22777107058209E+0000
 11
 7.84875940925849E+0000
 21
 4.26700918532151E+0000
  0
LINE
  8
1
  6
CONTINUOUS
 62
     1
 10
 7.90432469935331E+0000
 20
 4.23117634152732E+0000
 11
 7.87255185724644E+0000
 21
 4.26294918364147E+0000
  0
LINE
  8
1
  6
CONTINUOUS
 62
     1
 10
 7.92065187472326E+0000
 20
 4.23458161247254E+0000
 11
 7.89634430523438E+0000
 21
 4.25888918196870E+0000
  0
LINE
  8
1
  6
CONTINUOUS
 62
     1
 10
 7.93697905009321E+0000
 20
 4.23798688341776E+0000
 11
 7.92013675322232E+0000
 21
 4.25482918028865E+0000
  0
LINE
  8
1
  6
CONTINUOUS
 62
     1
 10
 7.95330622545589E+0000
 20
 4.24139215436298E+0000
 11
 7.94392920121027E+0000
 21
 4.25076917861588E+0000
  0
LINE
  8
1
  6
CONTINUOUS
 62
     1
 10
 7.96963340082584E+0000
 20
 4.24479742530821E+0000
 11
 7.96772164919821E+0000
 21
 4.24670917693584E+0000
  0
LINE
  8
1
  6
CONTINUOUS
 62
     1
 10
 7.96538651997980E+0000
 20
 4.24710764911288E+0000
 11
 7.96134832193638E+0000
 21
 4.24306945106946E+0000
  0
LINE
  8
1
  6
CONTINUOUS
 62
     1
 10
 7.94853043701005E+0000
 20
 4.24998401245102E+0000
 11
 7.93641584288707E+0000
 21
 4.23786941832805E+0000
  0
LINE
  8
1
  6
CONTINUOUS
 62
     1
 10
 7.93167435402574E+0000
 20
 4.25286037578189E+0000
 11
 7.91148336382321E+0000
 21
 4.23266938557936E+0000
  0
LINE
  8
1
  6
CONTINUOUS
 62
     1
 10
 7.91481827105599E+0000
 20
 4.25573673912731E+0000
 11
 7.88655088477390E+0000
 21
 4.22746935283794E+0000
  0
LINE
  8
1
  6
CONTINUOUS
 62
     1
 10
 7.89796218808624E+0000
 20
 4.25861310246546E+0000
 11
 7.86161840572458E+0000
 21
 4.22226932009653E+0000
  0
LINE
  8
1
  6
CONTINUOUS
 62
     1
 10
 7.88110610510921E+0000
 20
 4.26148946579633E+0000
 11
 7.83668592667527E+0000
 21
 4.21706928736239E+0000
  0
LINE
  8
1
  6
CONTINUOUS
 62
     1
 10
 7.86425002213946E+0000
 20
 4.26436582914175E+0000
 11
 7.81452523482585E+0000
 21
 4.21464104182087E+0000
  0
LINE
  8
1
  6
CONTINUOUS
 62
     1
 10
 7.84739393916971E+0000
 20
 4.26724219247990E+0000
 11
 7.81452523482585E+0000
 21
 4.23437348813604E+0000
  0
LINE
  8
1
  6
CONTINUOUS
 62
     1
 10
 7.83053785619268E+0000
 20
 4.27011855581077E+0000
 11
 7.81452523482585E+0000
 21
 4.25410593444394E+0000
  0
LINE
  8
1
  6
CONTINUOUS
 62
     1
 10
 7.97381456146832E+0000
 20
 4.24566946744017E+0000
 11
 7.97381456146832E+0000
 21
 4.24566946744017E+0000
  0
LINE
  8
1
  6
CONTINUOUS
 62
     1
 10
 7.97381456146832E+0000
 20
 4.24566946744017E+0000
 11
 7.81452523483313E+0000
 21
 4.27285098880384E+0000
  0
LINE
  8
1
  6
CONTINUOUS
 62
     1
 10
 7.81452523483313E+0000
 20
 4.27285098880384E+0000
 11
 7.81452523483313E+0000
 21
 4.21244735133223E+0000
  0
LINE
  8
1
  6
CONTINUOUS
 62
     1
 10
 7.81452523483313E+0000
 20
 4.21244735133223E+0000
 11
 7.97381456146832E+0000
 21
 4.24566946744017E+0000
  0
LINE
  8
1
  6
CONTINUOUS
 62
     1
 10
 7.81452523483313E+0000
 20
 4.27285098880384E+0000
 11
 7.81452523483313E+0000
 21
 4.21244735133223E+0000
  0
LINE
  8
1
  6
CONTINUOUS
 62
     1
 10
 7.82268882252538E+0000
 20
 4.21414998680848E+0000
 11
 7.81452523483313E+0000
 21
 4.22231357450073E+0000
  0
LINE
  8
1
  6
CONTINUOUS
 62
     1
 10
 7.83901599789533E+0000
 20
 4.21755525774643E+0000
 11
 7.81452523483313E+0000
 21
 4.24204602080863E+0000
  0
LINE
  8
1
  6
CONTINUOUS
 62
     1
 10
 7.85534317325801E+0000
 20
 4.22096052869165E+0000
 11
 7.81452523483313E+0000
 21
 4.26177846712380E+0000
  0
LINE
  8
1
  6
CONTINUOUS
 62
     1
 10
 7.87167034862068E+0000
 20
 4.22436579963687E+0000
 11
 7.82496696127055E+0000
 21
 4.27106918699428E+0000
  0
LINE
  8
1
  6
CONTINUOUS
 62
     1
 10
 7.88799752399063E+0000
 20
 4.22777107058209E+0000
 11
 7.84875940925849E+0000
 21
 4.26700918532151E+0000
  0
LINE
  8
1
  6
CONTINUOUS
 62
     1
 10
 7.90432469935331E+0000
 20
 4.23117634152732E+0000
 11
 7.87255185724644E+0000
 21
 4.26294918364147E+0000
  0
LINE
  8
1
  6
CONTINUOUS
 62
     1
 10
 7.92065187472326E+0000
 20
 4.23458161247254E+0000
 11
 7.89634430523438E+0000
 21
 4.25888918196870E+0000
  0
LINE
  8
1
  6
CONTINUOUS
 62
     1
 10
 7.93697905009321E+0000
 20
 4.23798688341776E+0000
 11
 7.92013675322232E+0000
 21
 4.25482918028865E+0000
  0
LINE
  8
1
  6
CONTINUOUS
 62
     1
 10
 7.95330622545589E+0000
 20
 4.24139215436298E+0000
 11
 7.94392920121027E+0000
 21
 4.25076917861588E+0000
  0
LINE
  8
1
  6
CONTINUOUS
 62
     1
 10
 7.96963340082584E+0000
 20
 4.24479742530821E+0000
 11
 7.96772164919821E+0000
 21
 4.24670917693584E+0000
  0
LINE
  8
1
  6
CONTINUOUS
 62
     1
 10
 7.96538651997980E+0000
 20
 4.24710764911288E+0000
 11
 7.96134832193638E+0000
 21
 4.24306945106946E+0000
  0
LINE
  8
1
  6
CONTINUOUS
 62
     1
 10
 7.94853043701005E+0000
 20
 4.24998401245102E+0000
 11
 7.93641584288707E+0000
 21
 4.23786941832805E+0000
  0
LINE
  8
1
  6
CONTINUOUS
 62
     1
 10
 7.93167435402574E+0000
 20
 4.25286037578189E+0000
 11
 7.91148336382321E+0000
 21
 4.23266938557936E+0000
  0
LINE
  8
1
  6
CONTINUOUS
 62
     1
 10
 7.91481827105599E+0000
 20
 4.25573673912731E+0000
 11
 7.88655088477390E+0000
 21
 4.22746935283794E+0000
  0
LINE
  8
1
  6
CONTINUOUS
 62
     1
 10
 7.89796218808624E+0000
 20
 4.25861310246546E+0000
 11
 7.86161840572458E+0000
 21
 4.22226932009653E+0000
  0
LINE
  8
1
  6
CONTINUOUS
 62
     1
 10
 7.88110610510921E+0000
 20
 4.26148946579633E+0000
 11
 7.83668592667527E+0000
 21
 4.21706928736239E+0000
  0
LINE
  8
1
  6
CONTINUOUS
 62
     1
 10
 7.86425002213946E+0000
 20
 4.26436582914175E+0000
 11
 7.81452523482585E+0000
 21
 4.21464104182087E+0000
  0
LINE
  8
1
  6
CONTINUOUS
 62
     1
 10
 7.84739393916971E+0000
 20
 4.26724219247990E+0000
 11
 7.81452523482585E+0000
 21
 4.23437348813604E+0000
  0
LINE
  8
1
  6
CONTINUOUS
 62
     1
 10
 7.83053785619268E+0000
 20
 4.27011855581077E+0000
 11
 7.81452523482585E+0000
 21
 4.25410593444394E+0000
  0
TEXT
  8
1
 62
     1
 10
 9.63329763148795E+0000
 20
 7.55740026959757E-0001
 40
 1.18110236219991E-0001
  1
28.12.2003
  7
STANDARD
 11
 9.63329763148795E+0000
 21
 8.73850263179520E-0001
 50
 0.00000000000000E+0000
 41
 2.65148943985878E-0001
  0
TEXT
  8
1
 62
     1
 10
 1.08126663704898E+0001
 20
 3.87039068117701E-0001
 40
 1.18110236219991E-0001
  1
1
  7
STANDARD
 11
 1.08126663704898E+0001
 21
 5.05149304337465E-0001
 50
 0.00000000000000E+0000
 41
 2.94609937787754E-0001
  0
TEXT
  8
1
 62
     1
 10
 9.60290152994276E+0000
 20
 1.29556428803153E+0000
 40
 1.96850393699833E-0001
  1
Druckdosendeckel
  7
STANDARD
 11
 9.60290152994276E+0000
 21
 1.49241468173204E+0000
 50
 0.00000000000000E+0000
 41
 1.62956121826028E-0001
  0
LINE
  8
1
  6
CONTINUOUS
 62
     1
 10
 7.69134980668605E+0000
 20
 5.65274374281580E+0000
 11
 8.48571496685327E+0000
 21
 5.65274374281580E+0000
  0
LINE
  8
1
  6
CONTINUOUS
 62
     1
 10
 8.48571496685327E+0000
 20
 5.65274374281580E+0000
 11
 8.48571496685327E+0000
 21
 2.50858315808000E+0000
  0
LINE
  8
1
  6
CONTINUOUS
 62
     1
 10
 8.48571496685327E+0000
 20
 2.50858315808000E+0000
 11
 7.68372142410226E+0000
 21
 2.50858315809455E+0000
  0
LINE
  8
1
  6
DASHDOT
 62
     1
 10
 8.05412590049673E+0000
 20
 5.76650231091480E+0000
 11
 8.05412590049673E+0000
 21
 5.11821442151995E+0000
  0
LINE
  8
1
  6
CONTINUOUS
 62
     1
 10
 7.87610418735130E+0000
 20
 5.65359824028565E+0000
 11
 7.87610418735130E+0000
 21
 5.25843399311998E+0000
  0
LINE
  8
1
  6
CONTINUOUS
 62
     1
 10
 8.23214761362760E+0000
 20
 5.65359824028565E+0000
 11
 8.23214761362760E+0000
 21
 5.25843399311998E+0000
  0
LINE
  8
1
  6
DOT
 62
     1
 10
 8.25212964265666E+0000
 20
 5.65359824028565E+0000
 11
 8.25212964265666E+0000
 21
 5.25843399311998E+0000
  0
LINE
  8
1
  6
DOT
 62
     1
 10
 7.85612215833680E+0000
 20
 5.65359824028565E+0000
 11
 7.85612215833680E+0000
 21
 5.25843399311998E+0000
  0
LINE
  8
1
  6
CONTINUOUS
 62
     1
 10
 7.87610418735858E+0000
 20
 5.28627284277172E+0000
 11
 7.84822769785387E+0000
 21
 5.25839635327429E+0000
  0
LINE
  8
1
  6
CONTINUOUS
 62
     1
 10
 7.87610418735130E+0000
 20
 5.34195054208249E+0000
 11
 7.79247471885174E+0000
 21
 5.25832107357564E+0000
  0
LINE
  8
1
  6
CONTINUOUS
 62
     1
 10
 7.87610418735130E+0000
 20
 5.39762824138597E+0000
 11
 7.73672173984960E+0000
 21
 5.25824579388427E+0000
  0
LINE
  8
1
  6
CONTINUOUS
 62
     1
 10
 7.87610418735130E+0000
 20
 5.45330594068946E+0000
 11
 7.69134980669332E+0000
 21
 5.26855156003148E+0000
  0
LINE
  8
1
  6
CONTINUOUS
 62
     1
 10
 7.87610418735130E+0000
 20
 5.50898364000022E+0000
 11
 7.69134980669332E+0000
 21
 5.32422925933497E+0000
  0
LINE
  8
1
  6
CONTINUOUS
 62
     1
 10
 7.87610418735130E+0000
 20
 5.56466133930371E+0000
 11
 7.69134980668605E+0000
 21
 5.37990695864573E+0000
  0
LINE
  8
1
  6
CONTINUOUS
 62
     1
 10
 7.87610418735130E+0000
 20
 5.62033903860720E+0000
 11
 7.69134980668605E+0000
 21
 5.43558465794922E+0000
  0
LINE
  8
1
  6
CONTINUOUS
 62
     1
 10
 7.85358152135450E+0000
 20
 5.65349407192116E+0000
 11
 7.69134980668605E+0000
 21
 5.49126235725271E+0000
  0
LINE
  8
1
  6
CONTINUOUS
 62
     1
 10
 7.79764511359826E+0000
 20
 5.65323536347569E+0000
 11
 7.69134980668605E+0000
 21
 5.54694005656347E+0000
  0
LINE
  8
1
  6
CONTINUOUS
 62
     1
 10
 7.74170870584931E+0000
 20
 5.65297665503022E+0000
 11
 7.69134980668605E+0000
 21
 5.60261775586696E+0000
  0
LINE
  8
1
  6
CONTINUOUS
 62
     1
 10
 7.98317458052770E+0000
 20
 2.90296954389487E+0000
 11
 7.68529461605067E+0000
 21
 2.90296954389487E+0000
  0
LINE
  8
1
  6
CONTINUOUS
 62
     1
 10
 7.98317458052770E+0000
 20
 2.90296954389487E+0000
 11
 7.98317458052770E+0000
 21
 3.65334034062107E+0000
  0
LINE
  8
1
  6
CONTINUOUS
 62
     1
 10
 7.98317458052770E+0000
 20
 3.65334034062107E+0000
 11
 8.36265113457921E+0000
 21
 3.65334034062107E+0000
  0
LINE
  8
1
  6
CONTINUOUS
 62
     1
 10
 8.36265113457921E+0000
 20
 4.50398884569586E+0000
 11
 7.98317458052770E+0000
 21
 4.50398884569586E+0000
  0
LINE
  8
1
  6
CONTINUOUS
 62
     1
 10
 7.98317458052770E+0000
 20
 4.50398884569586E+0000
 11
 7.98317458052770E+0000
 21
 5.25810986083525E+0000
  0
LINE
  8
1
  6
CONTINUOUS
 62
     1
 10
 8.23214761362760E+0000
 20
 5.25843399311998E+0000
 11
 8.23214761362760E+0000
 21
 5.14348346653424E+0000
  0
LINE
  8
1
  6
CONTINUOUS
 62
     1
 10
 8.23214761362760E+0000
 20
 5.14348346653424E+0000
 11
 8.05545582892955E+0000
 21
 5.05298894472071E+0000
  0
LINE
  8
1
  6
CONTINUOUS
 62
     1
 10
 8.05545582892955E+0000
 20
 5.05298894472071E+0000
 11
 7.98317458052770E+0000
 21
 5.07712081720820E+0000
  0
LINE
  8
1
  6
CONTINUOUS
 62
     1
 10
 7.69134980668605E+0000
 20
 5.25818453104876E+0000
 11
 7.98317458052770E+0000
 21
 5.25818453104876E+0000
  0
LINE
  8
1
  6
CONTINUOUS
 62
     1
 10
 8.36265113457921E+0000
 20
 3.65334034062107E+0000
 11
 8.36265113457921E+0000
 21
 4.50398884569586E+0000
  0
LINE
  8
1
  6
CONTINUOUS
 62
     1
 10
 7.68372142410226E+0000
 20
 2.50858315809455E+0000
 11
 7.68372142410226E+0000
 21
 5.65285143503570E+0000
  0
LINE
  8
1
  6
CONTINUOUS
 62
     1
 10
 7.98317458052770E+0000
 20
 3.65334034062107E+0000
 11
 7.98317458052770E+0000
 21
 4.50445690260676E+0000
  0
LINE
  8
1
  6
DASHDOT
 62
     1
 10
 7.51924132959539E+0000
 20
 4.07538641796418E+0000
 11
 8.61986788432114E+0000
 21
 4.07538641796418E+0000
  0
LINE
  8
1
  6
DASHDOT
 62
     1
 10
 7.51502436961164E+0000
 20
 2.69983692307869E+0000
 11
 8.63251876426511E+0000
 21
 2.69983692307869E+0000
  0
LINE
  8
1
  6
DASHDOT
 62
     1
 10
 7.51924132959539E+0000
 20
 4.07538641796418E+0000
 11
 1.77272971933598E+0000
 21
 4.07538641796418E+0000
  0
LINE
  8
1
  6
DASHDOT
 62
     1
 10
 3.52098039215343E+0000
 20
 5.78177679682994E+0000
 11
 3.52098039215343E+0000
 21
 2.29124684238195E+0000
  0
LINE
  8
1
  6
CONTINUOUS
 62
     1
 10
 8.48840869205014E+0000
 20
 2.86404176330325E+0000
 11
 8.12905222031986E+0000
 21
 2.86404176330325E+0000
  0
LINE
  8
1
  6
CONTINUOUS
 62
     1
 10
 8.12905222031986E+0000
 20
 2.86404176330325E+0000
 11
 8.12905222031986E+0000
 21
 2.54106458870956E+0000
  0
LINE
  8
1
  6
CONTINUOUS
 62
     1
 10
 8.12905222031986E+0000
 20
 2.54106458870956E+0000
 11
 8.48840869205014E+0000
 21
 2.54106458870956E+0000
  0
LINE
  8
1
  6
CONTINUOUS
 62
     1
 10
 8.12905222031986E+0000
 20
 2.78950856916708E+0000
 11
 7.68295453127939E+0000
 21
 2.78950856916708E+0000
  0
LINE
  8
1
  6
CONTINUOUS
 62
     1
 10
 8.12905222031986E+0000
 20
 2.60938668333620E+0000
 11
 7.68295453127939E+0000
 21
 2.60938668333620E+0000
  0
LINE
  8
1
  6
CONTINUOUS
 62
     1
 10
 8.48838182729378E+0000
 20
 2.89185374819135E+0000
 11
 8.46056984239840E+0000
 21
 2.86404176330689E+0000
  0
LINE
  8
1
  6
CONTINUOUS
 62
     1
 10
 8.48832809773739E+0000
 20
 2.94747771794937E+0000
 11
 8.40489214309491E+0000
 21
 2.86404176330689E+0000
  0
LINE
  8
1
  6
CONTINUOUS
 62
     1
 10
 8.48827436819556E+0000
 20
 3.00310168770739E+0000
 11
 8.34921444379142E+0000
 21
 2.86404176330689E+0000
  0
LINE
  8
1
  6
CONTINUOUS
 62
     1
 10
 8.48822063865373E+0000
 20
 3.05872565746540E+0000
 11
 8.29353674448794E+0000
 21
 2.86404176330689E+0000
  0
LINE
  8
1
  6
CONTINUOUS
 62
     1
 10
 8.48816690911190E+0000
 20
 3.11434962722706E+0000
 11
 8.23785904518445E+0000
 21
 2.86404176330689E+0000
  0
LINE
  8
1
  6
CONTINUOUS
 62
     1
 10
 8.48811317955551E+0000
 20
 3.16997359698507E+0000
 11
 8.18218134588096E+0000
 21
 2.86404176330689E+0000
  0
LINE
  8
1
  6
CONTINUOUS
 62
     1
 10
 8.12905222031986E+0000
 20
 2.81091263774942E+0000
 11
 8.10764815173752E+0000
 21
 2.78950856916708E+0000
  0
LINE
  8
1
  6
CONTINUOUS
 62
     1
 10
 8.48805945001368E+0000
 20
 3.22559756674309E+0000
 11
 8.05197045243403E+0000
 21
 2.78950856916708E+0000
  0
LINE
  8
1
  6
CONTINUOUS
 62
     1
 10
 8.48800572047185E+0000
 20
 3.28122153650475E+0000
 11
 7.99629275313055E+0000
 21
 2.78950856916708E+0000
  0
LINE
  8
1
  6
CONTINUOUS
 62
     1
 10
 8.48795199093001E+0000
 20
 3.33684550626276E+0000
 11
 7.94061505382706E+0000
 21
 2.78950856916708E+0000
  0
LINE
  8
1
  6
CONTINUOUS
 62
     1
 10
 8.48789826137363E+0000
 20
 3.39246947602078E+0000
 11
 7.88493735452357E+0000
 21
 2.78950856916708E+0000
  0
LINE
  8
1
  6
CONTINUOUS
 62
     1
 10
 8.48784453183180E+0000
 20
 3.44809344577880E+0000
 11
 7.98317458052770E+0000
 21
 2.94342349447470E+0000
  0
LINE
  8
1
  6
CONTINUOUS
 62
     1
 10
 7.94272062994423E+0000
 20
 2.90296954389487E+0000
 11
 7.82925965522008E+0000
 21
 2.78950856916708E+0000
  0
LINE
  8
1
  6
CONTINUOUS
 62
     1
 10
 8.48779080228996E+0000
 20
 3.50371741554045E+0000
 11
 7.98317458052770E+0000
 21
 2.99910119377819E+0000
  0
LINE
  8
1
  6
CONTINUOUS
 62
     1
 10
 7.88704293064075E+0000
 20
 2.90296954389487E+0000
 11
 7.77358195591660E+0000
 21
 2.78950856916708E+0000
  0
LINE
  8
1
  6
CONTINUOUS
 62
     1
 10
 8.48773707274813E+0000
 20
 3.55934138529847E+0000
 11
 7.98317458052770E+0000
 21
 3.05477889308531E+0000
  0
LINE
  8
1
  6
CONTINUOUS
 62
     1
 10
 7.83136523133726E+0000
 20
 2.90296954389487E+0000
 11
 7.71790425661311E+0000
 21
 2.78950856916708E+0000
  0
LINE
  8
1
  6
CONTINUOUS
 62
     1
 10
 8.48768334319175E+0000
 20
 3.61496535505648E+0000
 11
 7.98317458052770E+0000
 21
 3.11045659238880E+0000
  0
LINE
  8
1
  6
CONTINUOUS
 62
     1
 10
 7.77568753203377E+0000
 20
 2.90296954389487E+0000
 11
 7.68339103980543E+0000
 21
 2.81067305167016E+0000
  0
LINE
  8
1
  6
CONTINUOUS
 62
     1
 10
 8.48762961364991E+0000
 20
 3.67058932481450E+0000
 11
 7.98317458052770E+0000
 21
 3.16613429169229E+0000
  0
LINE
  8
1
  6
CONTINUOUS
 62
     1
 10
 7.72000983273028E+0000
 20
 2.90296954389487E+0000
 11
 7.68456355144008E+0000
 21
 2.86752326260830E+0000
  0
LINE
  8
1
  6
CONTINUOUS
 62
     1
 10
 8.48757588410808E+0000
 20
 3.72621329457616E+0000
 11
 7.98317458052770E+0000
 21
 3.22181199099577E+0000
  0
LINE
  8
1
  6
CONTINUOUS
 62
     1
 10
 8.48752215456625E+0000
 20
 3.78183726433417E+0000
 11
 8.36265113457921E+0000
 21
 3.65696624435077E+0000
  0
LINE
  8
1
  6
CONTINUOUS
 62
     1
 10
 8.35902523084951E+0000
 20
 3.65334034062107E+0000
 11
 7.98317458052770E+0000
 21
 3.27748969030290E+0000
  0
LINE
  8
1
  6
CONTINUOUS
 62
     1
 10
 8.48746842500987E+0000
 20
 3.83746123409219E+0000
 11
 8.36265113457921E+0000
 21
 3.71264394365426E+0000
  0
LINE
  8
1
  6
CONTINUOUS
 62
     1
 10
 8.30334753154602E+0000
 20
 3.65334034062107E+0000
 11
 7.98317458052770E+0000
 21
 3.33316738960639E+0000
  0
LINE
  8
1
  6
CONTINUOUS
 62
     1
 10
 8.48741469546803E+0000
 20
 3.89308520385384E+0000
 11
 8.36265113457921E+0000
 21
 3.76832164295774E+0000
  0
LINE
  8
1
  6
CONTINUOUS
 62
     1
 10
 8.24766983224254E+0000
 20
 3.65334034062107E+0000
 11
 7.98317458052770E+0000
 21
 3.38884508890987E+0000
  0
LINE
  8
1
  6
CONTINUOUS
 62
     1
 10
 8.48736096592620E+0000
 20
 3.94870917361186E+0000
 11
 8.36265113457921E+0000
 21
 3.82399934226487E+0000
  0
LINE
  8
1
  6
CONTINUOUS
 62
     1
 10
 8.19199213293905E+0000
 20
 3.65334034062107E+0000
 11
 7.98317458052770E+0000
 21
 3.44452278821336E+0000
  0
LINE
  8
1
  6
CONTINUOUS
 62
     1
 10
 8.48730723638437E+0000
 20
 4.00433314336988E+0000
 11
 8.36265113457921E+0000
 21
 3.87967704156836E+0000
  0
LINE
  8
1
  6
CONTINUOUS
 62
     1
 10
 8.13631443363556E+0000
 20
 3.65334034062107E+0000
 11
 7.98317458052770E+0000
 21
 3.50020048752049E+0000
  0
LINE
  8
1
  6
CONTINUOUS
 62
     1
 10
 8.48725350682798E+0000
 20
 4.05995711313153E+0000
 11
 8.36265113457921E+0000
 21
 3.93535474087184E+0000
  0
LINE
  8
1
  6
CONTINUOUS
 62
     1
 10
 8.08063673433207E+0000
 20
 3.65334034062107E+0000
 11
 7.98317458052770E+0000
 21
 3.55587818682397E+0000
  0
LINE
  8
1
  6
CONTINUOUS
 62
     1
 10
 8.48719977728615E+0000
 20
 4.11558108288591E+0000
 11
 8.36265113457921E+0000
 21
 3.99103244017533E+0000
  0
LINE
  8
1
  6
CONTINUOUS
 62
     1
 10
 8.02495903501404E+0000
 20
 3.65334034062107E+0000
 11
 7.98317458052770E+0000
 21
 3.61155588612746E+0000
  0
LINE
  8
1
  6
CONTINUOUS
 62
     1
 10
 8.48714604774432E+0000
 20
 4.17120505264757E+0000
 11
 8.36265113457921E+0000
 21
 4.04671013948246E+0000
  0
LINE
  8
1
  6
CONTINUOUS
 62
     1
 10
 8.48709231820249E+0000
 20
 4.22682902240922E+0000
 11
 8.36265113457921E+0000
 21
 4.10238783879322E+0000
  0
LINE
  8
1
  6
CONTINUOUS
 62
     1
 10
 8.48703858864610E+0000
 20
 4.28245299216360E+0000
 11
 8.36265113457921E+0000
 21
 4.15806553809671E+0000
  0
LINE
  8
1
  6
CONTINUOUS
 62
     1
 10
 8.48698485910427E+0000
 20
 4.33807696192525E+0000
 11
 8.36265113457921E+0000
 21
 4.21374323740747E+0000
  0
LINE
  8
1
  6
CONTINUOUS
 62
     1
 10
 8.48693112956244E+0000
 20
 4.39370093168691E+0000
 11
 8.36265113457921E+0000
 21
 4.26942093671096E+0000
  0
LINE
  8
1
  6
CONTINUOUS
 62
     1
 10
 8.48687740002060E+0000
 20
 4.44932490144129E+0000
 11
 8.36265113457921E+0000
 21
 4.32509863601445E+0000
  0
LINE
  8
1
  6
CONTINUOUS
 62
     1
 10
 8.48682367046422E+0000
 20
 4.50494887120294E+0000
 11
 8.36265113457921E+0000
 21
 4.38077633531793E+0000
  0
LINE
  8
1
  6
CONTINUOUS
 62
     1
 10
 8.48676994093694E+0000
 20
 4.56057284097187E+0000
 11
 8.36265113457921E+0000
 21
 4.43645403462142E+0000
  0
LINE
  8
1
  6
CONTINUOUS
 62
     1
 10
 8.48671621139511E+0000
 20
 4.61619681072625E+0000
 11
 8.36265113457921E+0000
 21
 4.49213173392491E+0000
  0
LINE
  8
1
  6
CONTINUOUS
 62
     1
 10
 8.48666248183872E+0000
 20
 4.67182078048791E+0000
 11
 8.31888453000283E+0000
 21
 4.50404282864474E+0000
  0
LINE
  8
1
  6
CONTINUOUS
 62
     1
 10
 8.48660875229689E+0000
 20
 4.72744475024956E+0000
 11
 8.26327542051149E+0000
 21
 4.50411141846416E+0000
  0
LINE
  8
1
  6
CONTINUOUS
 62
     1
 10
 8.48655502275506E+0000
 20
 4.78306872000394E+0000
 11
 8.20766631103470E+0000
 21
 4.50418000828358E+0000
  0
LINE
  8
1
  6
CONTINUOUS
 62
     1
 10
 8.48650129321322E+0000
 20
 4.83869268976559E+0000
 11
 8.15205720154336E+0000
 21
 4.50424859810300E+0000
  0
LINE
  8
1
  6
CONTINUOUS
 62
     1
 10
 8.48644756365684E+0000
 20
 4.89431665952725E+0000
 11
 8.09644809205201E+0000
 21
 4.50431718792242E+0000
  0
LINE
  8
1
  6
CONTINUOUS
 62
     1
 10
 8.48639383411501E+0000
 20
 4.94994062928163E+0000
 11
 8.04083898257522E+0000
 21
 4.50438577774185E+0000
  0
LINE
  8
1
  6
CONTINUOUS
 62
     1
 10
 8.48634010457317E+0000
 20
 5.00556459904328E+0000
 11
 7.98522987308388E+0000
 21
 4.50445436756127E+0000
  0
LINE
  8
1
  6
CONTINUOUS
 62
     1
 10
 8.48628637503134E+0000
 20
 5.06118856880494E+0000
 11
 7.98317458052770E+0000
 21
 4.55807677430130E+0000
  0
LINE
  8
1
  6
CONTINUOUS
 62
     1
 10
 8.48623264547496E+0000
 20
 5.11681253855932E+0000
 11
 7.98317458052770E+0000
 21
 4.61375447360479E+0000
  0
LINE
  8
1
  6
CONTINUOUS
 62
     1
 10
 8.48617891593312E+0000
 20
 5.17243650832097E+0000
 11
 7.98317458052770E+0000
 21
 4.66943217290827E+0000
  0
LINE
  8
1
  6
CONTINUOUS
 62
     1
 10
 8.48612518639129E+0000
 20
 5.22806047807535E+0000
 11
 7.98317458052770E+0000
 21
 4.72510987221904E+0000
  0
LINE
  8
1
  6
CONTINUOUS
 62
     1
 10
 8.48607145684946E+0000
 20
 5.28368444783700E+0000
 11
 7.98317458052770E+0000
 21
 4.78078757152252E+0000
  0
LINE
  8
1
  6
CONTINUOUS
 62
     1
 10
 8.48601772729307E+0000
 20
 5.33930841759866E+0000
 11
 7.98317458052770E+0000
 21
 4.83646527082601E+0000
  0
LINE
  8
1
  6
CONTINUOUS
 62
     1
 10
 8.48596399775124E+0000
 20
 5.39493238735304E+0000
 11
 7.98317458052770E+0000
 21
 4.89214297012950E+0000
  0
LINE
  8
1
  6
CONTINUOUS
 62
     1
 10
 8.48591026820941E+0000
 20
 5.45055635711469E+0000
 11
 8.23214761362760E+0000
 21
 5.19679370253289E+0000
  0
LINE
  8
1
  6
CONTINUOUS
 62
     1
 10
 8.12286942513310E+0000
 20
 5.08751551403839E+0000
 11
 7.98317458052770E+0000
 21
 4.94782066943299E+0000
  0
LINE
  8
1
  6
CONTINUOUS
 62
     1
 10
 8.48585653866758E+0000
 20
 5.50618032687635E+0000
 11
 8.23214761362760E+0000
 21
 5.25247140183637E+0000
  0
LINE
  8
1
  6
CONTINUOUS
 62
     1
 10
 8.03836958341708E+0000
 20
 5.05869337162585E+0000
 11
 7.98317458052770E+0000
 21
 5.00349836873647E+0000
  0
LINE
  8
1
  6
CONTINUOUS
 62
     1
 10
 8.48580280911119E+0000
 20
 5.56180429663073E+0000
 11
 8.23214761362760E+0000
 21
 5.30814910113986E+0000
  0
LINE
  8
1
  6
CONTINUOUS
 62
     1
 10
 7.99662782070664E+0000
 20
 5.07262930822617E+0000
 11
 7.98317458052770E+0000
 21
 5.05917606803996E+0000
  0
LINE
  8
1
  6
CONTINUOUS
 62
     1
 10
 8.48574907956936E+0000
 20
 5.61742826639238E+0000
 11
 8.23214761362760E+0000
 21
 5.36382680044335E+0000
  0
LINE
  8
1
  6
CONTINUOUS
 62
     1
 10
 8.46545513038291E+0000
 20
 5.65281201651669E+0000
 11
 8.23214761362760E+0000
 21
 5.41950449975411E+0000
  0
LINE
  8
1
  6
CONTINUOUS
 62
     1
 10
 8.40996442937467E+0000
 20
 5.65299901481194E+0000
 11
 8.23214761362760E+0000
 21
 5.47518219906488E+0000
  0
LINE
  8
1
  6
CONTINUOUS
 62
     1
 10
 8.35447372836643E+0000
 20
 5.65318601309991E+0000
 11
 8.23214761362760E+0000
 21
 5.53085989837564E+0000
  0
LINE
  8
1
  6
CONTINUOUS
 62
     1
 10
 8.29898302735819E+0000
 20
 5.65337301140244E+0000
 11
 8.23214761362760E+0000
 21
 5.58653759767913E+0000
  0
LINE
  8
1
  6
CONTINUOUS
 62
     1
 10
 8.24349232634995E+0000
 20
 5.65356000969769E+0000
 11
 8.23214761362760E+0000
 21
 5.64221529698261E+0000
  0
LINE
  8
1
  6
CONTINUOUS
 62
     1
 10
 8.48823245552194E+0000
 20
 2.53893949640405E+0000
 11
 8.45787611720152E+0000
 21
 2.50858315808364E+0000
  0
LINE
  8
1
  6
CONTINUOUS
 62
     1
 10
 8.43467984852032E+0000
 20
 2.54106458871320E+0000
 11
 8.40219841789803E+0000
 21
 2.50858315808364E+0000
  0
LINE
  8
1
  6
CONTINUOUS
 62
     1
 10
 8.37900214921683E+0000
 20
 2.54106458871320E+0000
 11
 8.34652071859455E+0000
 21
 2.50858315808364E+0000
  0
LINE
  8
1
  6
CONTINUOUS
 62
     1
 10
 8.32332444991334E+0000
 20
 2.54106458871320E+0000
 11
 8.29084301929106E+0000
 21
 2.50858315808364E+0000
  0
LINE
  8
1
  6
CONTINUOUS
 62
     1
 10
 8.26764675060986E+0000
 20
 2.54106458871320E+0000
 11
 8.23516531998757E+0000
 21
 2.50858315808728E+0000
  0
LINE
  8
1
  6
CONTINUOUS
 62
     1
 10
 8.21196905130637E+0000
 20
 2.54106458871320E+0000
 11
 8.17948762068409E+0000
 21
 2.50858315808728E+0000
  0
LINE
  8
1
  6
CONTINUOUS
 62
     1
 10
 8.15629135200288E+0000
 20
 2.54106458871320E+0000
 11
 8.12380992138060E+0000
 21
 2.50858315808728E+0000
  0
LINE
  8
1
  6
CONTINUOUS
 62
     1
 10
 8.12905222031986E+0000
 20
 2.56950315633730E+0000
 11
 8.06813222207711E+0000
 21
 2.50858315808728E+0000
  0
LINE
  8
1
  6
CONTINUOUS
 62
     1
 10
 8.11325804801891E+0000
 20
 2.60938668333620E+0000
 11
 8.01245452277362E+0000
 21
 2.50858315808728E+0000
  0
LINE
  8
1
  6
CONTINUOUS
 62
     1
 10
 8.05758034871542E+0000
 20
 2.60938668333620E+0000
 11
 7.95677682347014E+0000
 21
 2.50858315808728E+0000
  0
LINE
  8
1
  6
CONTINUOUS
 62
     1
 10
 8.00190264941193E+0000
 20
 2.60938668333620E+0000
 11
 7.90109912415937E+0000
 21
 2.50858315808728E+0000
  0
LINE
  8
1
  6
CONTINUOUS
 62
     1
 10
 7.94622495010844E+0000
 20
 2.60938668333620E+0000
 11
 7.84542142486316E+0000
 21
 2.50858315809455E+0000
  0
LINE
  8
1
  6
CONTINUOUS
 62
     1
 10
 7.89054725080496E+0000
 20
 2.60938668333620E+0000
 11
 7.78974372555967E+0000
 21
 2.50858315809455E+0000
  0
LINE
  8
1
  6
CONTINUOUS
 62
     1
 10
 7.83486955149419E+0000
 20
 2.60938668333620E+0000
 11
 7.73406602625619E+0000
 21
 2.50858315809455E+0000
  0
LINE
  8
1
  6
CONTINUOUS
 62
     1
 10
 7.77919185219071E+0000
 20
 2.60938668333620E+0000
 11
 7.68368115732301E+0000
 21
 2.51387598846486E+0000
  0
LINE
  8
1
  6
CONTINUOUS
 62
     1
 10
 7.72351415288722E+0000
 20
 2.60938668333620E+0000
 11
 7.68326077086385E+0000
 21
 2.56913330131283E+0000
  0
CIRCLE
  8
1
  6
CONTINUOUS
 62
     1
 10
 3.52098039214616E+0000
 20
 4.07302363921917E+0000
 40
 1.57731060702645E+0000
  0
CIRCLE
  8
1
  6
DASHDOT
 62
     1
 10
 3.52098039214616E+0000
 20
 4.07302363921917E+0000
 40
 1.18298295527347E+0000
  0
CIRCLE
  8
1
  6
DASHDOT
 62
     1
 10
 3.52098039214616E+0000
 20
 4.07302363921917E+0000
 40
 4.38141835285933E-0001
  0
CIRCLE
  8
1
  6
DASHDOT
 62
     1
 10
 3.52098039214616E+0000
 20
 4.07302363921917E+0000
 40
 1.37284441723750E+0000
  0
CIRCLE
  8
1
  6
CONTINUOUS
 62
     1
 10
 3.51917760149445E+0000
 20
 2.70501487049478E+0000
 40
 8.70751387883502E-0002
  0
CIRCLE
  8
1
  6
CONTINUOUS
 62
     1
 10
 3.51917760149445E+0000
 20
 2.70501487049478E+0000
 40
 1.60418025476247E-0001
  0
CIRCLE
  8
1
  6
CONTINUOUS
 62
     1
 10
 4.70773155864299E+0000
 20
 3.39122681754452E+0000
 40
 8.70751387883502E-0002
  0
CIRCLE
  8
1
  6
CONTINUOUS
 62
     1
 10
 4.70773155859933E+0000
 20
 3.39122681754452E+0000
 40
 1.60418025476247E-0001
  0
CIRCLE
  8
1
  6
CONTINUOUS
 62
     1
 10
 4.70773155859933E+0000
 20
 4.76365071172040E+0000
 40
 8.70751387883502E-0002
  0
CIRCLE
  8
1
  6
CONTINUOUS
 62
     1
 10
 4.70773155859933E+0000
 20
 4.76365071171313E+0000
 40
 1.60418025476247E-0001
  0
CIRCLE
  8
1
  6
CONTINUOUS
 62
     1
 10
 3.51917760146898E+0000
 20
 5.44986265881744E+0000
 40
 8.70751387883502E-0002
  0
CIRCLE
  8
1
  6
CONTINUOUS
 62
     1
 10
 3.51917760147262E+0000
 20
 5.44986265881744E+0000
 40
 1.60418025476247E-0001
  0
CIRCLE
  8
1
  6
CONTINUOUS
 62
     1
 10
 2.33062364438592E+0000
 20
 4.76365071169130E+0000
 40
 8.70751387883502E-0002
  0
CIRCLE
  8
1
  6
CONTINUOUS
 62
     1
 10
 2.33062364438956E+0000
 20
 4.76365071169130E+0000
 40
 1.60418025476247E-0001
  0
CIRCLE
  8
1
  6
CONTINUOUS
 62
     1
 10
 2.33062364440775E+0000
 20
 3.39122681750086E+0000
 40
 8.70751387883502E-0002
  0
CIRCLE
  8
1
  6
CONTINUOUS
 62
     1
 10
 2.33062364440775E+0000
 20
 3.39122681750450E+0000
 40
 1.60418025476247E-0001
  0
CIRCLE
  8
1
  6
CONTINUOUS
 62
     1
 10
 3.51917760151628E+0000
 20
 2.70501487044385E+0000
 40
 8.70751387883502E-0002
  0
CIRCLE
  8
1
  6
CONTINUOUS
 62
     1
 10
 3.51917760151264E+0000
 20
 2.70501487044385E+0000
 40
 1.60418025476247E-0001
  0
LINE
  8
1
  6
DASHDOT
 62
     1
 10
 4.46081242634682E+0000
 20
 5.70426318540558E+0000
 11
 3.97997762216255E+0000
 21
 4.87411409824563E+0000
  0
LINE
  8
1
  6
DASHDOT
 62
     1
 10
 4.47068801946443E+0000
 20
 5.33307980401150E+0000
 11
 4.26284627968562E+0000
 21
 4.99233268011449E+0000
  0
LINE
  8
1
  6
DASHDOT
 62
     1
 10
 4.13727522857516E+0000
 20
 5.52624218634446E+0000
 11
 3.94458861564999E+0000
 21
 5.17681360706774E+0000
  0
LINE
  8
1
  6
DASHDOT
 62
     1
 10
 4.15459537355491E+0000
 20
 5.51756073096476E+0000
 11
 3.96190876063338E+0000
 21
 5.16813215168804E+0000
  0
LINE
  8
1
  6
DASHDOT
 62
     1
 10
 4.45120285636222E+0000
 20
 5.34610198709561E+0000
 11
 4.24985617095081E+0000
 21
 5.00752522704715E+0000
  0
LINE
  8
1
  6
CONTINUOUS
 62
     1
 10
 7.98317458052770E+0000
 20
 4.50398884569586E+0000
 11
 7.80221774794336E+0000
 21
 4.50398884569586E+0000
  0
LINE
  8
1
  6
CONTINUOUS
 62
     1
 10
 7.80221774794336E+0000
 20
 4.50398884569586E+0000
 11
 7.80221774794336E+0000
 21
 3.66409125961218E+0000
  0
LINE
  8
1
  6
CONTINUOUS
 62
     1
 10
 7.80221774794336E+0000
 20
 3.66409125961218E+0000
 11
 7.80221774794336E+0000
 21
 3.65586404813803E+0000
  0
LINE
  8
1
  6
CONTINUOUS
 62
     1
 10
 7.80221774794336E+0000
 20
 3.65586404813803E+0000
 11
 7.98277059097018E+0000
 21
 3.65586404813803E+0000
  0
LINE
  8
1
  6
CONTINUOUS
 62
     1
 10
 7.69134980668605E+0000
 20
 5.25818453104876E+0000
 11
 7.26876616624941E+0000
 21
 5.25818453104876E+0000
  0
LINE
  8
1
  6
CONTINUOUS
 62
     1
 10
 7.26876616624941E+0000
 20
 5.25818453104876E+0000
 11
 7.26876616624941E+0000
 21
 2.89896059212697E+0000
  0
LINE
  8
1
  6
CONTINUOUS
 62
     1
 10
 7.26876616624941E+0000
 20
 2.89896059212697E+0000
 11
 7.69552743159875E+0000
 21
 2.89896059212697E+0000
  0
LINE
  8
1
  6
CONTINUOUS
 62
     1
 10
 8.48571496685327E+0000
 20
 5.65274374281580E+0000
 11
 8.97581122766132E+0000
 21
 5.65274374281580E+0000
  0
LINE
  8
1
  6
CONTINUOUS
 62
     1
 10
 8.97581122766132E+0000
 20
 5.65274374281580E+0000
 11
 8.97581122766132E+0000
 21
 2.51228165264547E+0000
  0
LINE
  8
1
  6
CONTINUOUS
 62
     1
 10
 8.97581122766132E+0000
 20
 2.51228165264547E+0000
 11
 8.48339438303083E+0000
 21
 2.51228165264547E+0000
  0
LINE
  8
1
  6
CONTINUOUS
 62
     1
 10
 8.12905222031986E+0000
 20
 2.54106458870956E+0000
 11
 8.12905222031986E+0000
 21
 1.96928569507145E+0000
  0
LINE
  8
1
  6
CONTINUOUS
 62
     1
 10
 8.12905222031986E+0000
 20
 1.96928569507145E+0000
 11
 8.48339438303083E+0000
 21
 1.96928569507145E+0000
  0
LINE
  8
1
  6
CONTINUOUS
 62
     1
 10
 8.48339438303083E+0000
 20
 1.96928569507145E+0000
 11
 8.48339438303083E+0000
 21
 2.52873607560105E+0000
  0
LINE
  8
1
  6
CONTINUOUS
 62
     1
 10
 3.51819119957872E+0000
 20
 5.44939615041949E+0000
 11
 1.67983497959176E+0000
 21
 5.44939615041949E+0000
  0
LINE
  8
1
  6
CONTINUOUS
 62
     1
 10
 1.67983497959176E+0000
 20
 5.44939615041949E+0000
 11
 1.67983497959176E+0000
 21
 2.70973472812329E+0000
  0
LINE
  8
1
  6
CONTINUOUS
 62
     1
 10
 1.67983497959176E+0000
 20
 2.70973472812329E+0000
 11
 3.51819119957872E+0000
 21
 2.70973472812329E+0000
  0
LINE
  8
1
  6
CONTINUOUS
 62
     1
 10
 8.36029017186956E+0000
 20
 4.23999606310099E+0000
 11
 7.98277059097018E+0000
 21
 4.23999606310099E+0000
  0
LINE
  8
1
  6
CONTINUOUS
 62
     1
 10
 7.98317458052770E+0000
 20
 2.90296954389487E+0000
 11
 7.98317458052770E+0000
 21
 2.19964761646770E+0000
  0
LINE
  8
1
  6
CONTINUOUS
 62
     1
 10
 7.98317458052770E+0000
 20
 2.19964761646770E+0000
 11
 7.68732048419770E+0000
 21
 2.19964761646770E+0000
  0
LINE
  8
1
  6
CONTINUOUS
 62
     1
 10
 7.68732048419770E+0000
 20
 2.19964761646770E+0000
 11
 7.68732048419770E+0000
 21
 2.51228165264547E+0000
  0
LINE
  8
1
  6
CONTINUOUS
 62
     1
 10
 8.48571496685327E+0000
 20
 5.65274374281580E+0000
 11
 8.48571496685327E+0000
 21
 6.70064006574103E+0000
  0
LINE
  8
1
  6
CONTINUOUS
 62
     1
 10
 8.48571496685327E+0000
 20
 6.70064006574103E+0000
 11
 7.68255161368870E+0000
 21
 6.70064006574103E+0000
  0
LINE
  8
1
  6
CONTINUOUS
 62
     1
 10
 7.68255161368870E+0000
 20
 6.70064006574103E+0000
 11
 7.68255161368870E+0000
 21
 5.63932978502999E+0000
  0
LINE
  8
1
  6
CONTINUOUS
 62
     1
 10
 8.48683245993743E+0000
 20
 6.15764410817064E+0000
 11
 8.05186424717249E+0000
 21
 6.15764410817064E+0000
  0
LINE
  8
1
  6
CONTINUOUS
 62
     1
 10
 8.05186424717249E+0000
 20
 6.15764410817064E+0000
 11
 8.05186424717249E+0000
 21
 5.65578420799284E+0000
  0
LINE
  8
1
  6
CONTINUOUS
 62
     1
 10
 7.97800172046118E+0000
 20
 5.56528488173353E+0000
 11
 6.65668318734970E+0000
 21
 6.56900468208187E+0000
  0
LINE
  8
1
  6
CONTINUOUS
 62
     1
 10
 6.65668318734970E+0000
 20
 6.56900468208187E+0000
 11
 4.35053096494812E+0000
 21
 6.56900468208187E+0000
  0
LINE
  8
1
  6
CONTINUOUS
 62
     1
 10
 4.71163665101631E+0000
 20
 4.84951748311141E+0000
 11
 5.35998549646320E+0000
 21
 4.84951748311141E+0000
  0
LINE
  8
1
  6
CONTINUOUS
 62
     1
 10
 5.35998549646320E+0000
 20
 4.84951748311141E+0000
 11
 5.35998549646320E+0000
 21
 4.67674604206695E+0000
  0
LINE
  8
1
  6
CONTINUOUS
 62
     1
 10
 5.35998549646320E+0000
 20
 4.67674604206695E+0000
 11
 4.71163665101631E+0000
 21
 4.67674604206695E+0000
  0
LINE
  8
1
  6
CONTINUOUS
 62
     1
 10
 4.71984359843191E+0000
 20
 3.54961806952633E+0000
 11
 5.36819244387152E+0000
 21
 3.54961806952633E+0000
  0
LINE
  8
1
  6
CONTINUOUS
 62
     1
 10
 5.36819244387152E+0000
 20
 3.54961806952633E+0000
 11
 5.36819244387152E+0000
 21
 3.22875682187805E+0000
  0
LINE
  8
1
  6
CONTINUOUS
 62
     1
 10
 5.36819244387152E+0000
 20
 3.22875682187805E+0000
 11
 4.70342970360798E+0000
 21
 3.22875682187805E+0000
  0
LINE
  8
1
  6
CONTINUOUS
 62
     1
 10
 1.67800555811118E+0000
 20
 5.45365095985471E+0000
 11
 1.67800555811118E+0000
 21
 5.45365095985471E+0000
  0
LINE
  8
1
  6
CONTINUOUS
 62
     1
 10
 1.67800555811118E+0000
 20
 5.45365095985471E+0000
 11
 1.65082403674751E+0000
 21
 5.29436163322680E+0000
  0
LINE
  8
1
  6
CONTINUOUS
 62
     1
 10
 1.65082403674751E+0000
 20
 5.29436163322680E+0000
 11
 1.71122767421912E+0000
 21
 5.29436163322680E+0000
  0
LINE
  8
1
  6
CONTINUOUS
 62
     1
 10
 1.71122767421912E+0000
 20
 5.29436163322680E+0000
 11
 1.67800555811118E+0000
 21
 5.45365095985471E+0000
  0
LINE
  8
1
  6
CONTINUOUS
 62
     1
 10
 1.65082403674751E+0000
 20
 5.29436163322680E+0000
 11
 1.71122767421912E+0000
 21
 5.29436163322680E+0000
  0
LINE
  8
1
  6
CONTINUOUS
 62
     1
 10
 1.66069025990691E+0000
 20
 5.29436163322680E+0000
 11
 1.65226221841840E+0000
 21
 5.30278967471531E+0000
  0
LINE
  8
1
  6
CONTINUOUS
 62
     1
 10
 1.68042270621845E+0000
 20
 5.29436163322680E+0000
 11
 1.65513858175837E+0000
 21
 5.31964575769234E+0000
  0
LINE
  8
1
  6
CONTINUOUS
 62
     1
 10
 1.70015515253181E+0000
 20
 5.29436163322680E+0000
 11
 1.65801494509651E+0000
 21
 5.33650184066209E+0000
  0
LINE
  8
1
  6
CONTINUOUS
 62
     1
 10
 1.70894555010636E+0000
 20
 5.30530368196196E+0000
 11
 1.66089130843648E+0000
 21
 5.35335792363185E+0000
  0
LINE
  8
1
  6
CONTINUOUS
 62
     1
 10
 1.70374551736313E+0000
 20
 5.33023616101855E+0000
 11
 1.66376767177462E+0000
 21
 5.37021400660888E+0000
  0
LINE
  8
1
  6
CONTINUOUS
 62
     1
 10
 1.69854548461990E+0000
 20
 5.35516864007514E+0000
 11
 1.66664403511459E+0000
 21
 5.38707008957863E+0000
  0
LINE
  8
1
  6
CONTINUOUS
 62
     1
 10
 1.69334545187849E+0000
 20
 5.38010111912445E+0000
 11
 1.66952039845273E+0000
 21
 5.40392617254838E+0000
  0
LINE
  8
1
  6
CONTINUOUS
 62
     1
 10
 1.68814541913525E+0000
 20
 5.40503359818103E+0000
 11
 1.67239676179088E+0000
 21
 5.42078225552541E+0000
  0
LINE
  8
1
  6
CONTINUOUS
 62
     1
 10
 1.68294538639202E+0000
 20
 5.42996607723035E+0000
 11
 1.67527312513084E+0000
 21
 5.43763833849516E+0000
  0
LINE
  8
1
  6
CONTINUOUS
 62
     1
 10
 1.70952503874287E+0000
 20
 5.30252522090450E+0000
 11
 1.70136145105971E+0000
 21
 5.29436163321952E+0000
  0
LINE
  8
1
  6
CONTINUOUS
 62
     1
 10
 1.70611976779765E+0000
 20
 5.31885239626718E+0000
 11
 1.68162900474817E+0000
 21
 5.29436163321952E+0000
  0
LINE
  8
1
  6
CONTINUOUS
 62
     1
 10
 1.70271449685242E+0000
 20
 5.33517957163713E+0000
 11
 1.66189655843664E+0000
 21
 5.29436163321952E+0000
  0
LINE
  8
1
  6
CONTINUOUS
 62
     1
 10
 1.69930922590720E+0000
 20
 5.35150674699980E+0000
 11
 1.65260583855161E+0000
 21
 5.30480335964967E+0000
  0
LINE
  8
1
  6
CONTINUOUS
 62
     1
 10
 1.69590395496198E+0000
 20
 5.36783392236975E+0000
 11
 1.65666584022983E+0000
 21
 5.32859580763761E+0000
  0
LINE
  8
1
  6
CONTINUOUS
 62
     1
 10
 1.69249868402221E+0000
 20
 5.38416109773971E+0000
 11
 1.66072584190806E+0000
 21
 5.35238825562556E+0000
  0
LINE
  8
1
  6
CONTINUOUS
 62
     1
 10
 1.68909341307699E+0000
 20
 5.40048827310238E+0000
 11
 1.66478584358447E+0000
 21
 5.37618070361350E+0000
  0
LINE
  8
1
  6
CONTINUOUS
 62
     1
 10
 1.68568814213359E+0000
 20
 5.41681544847233E+0000
 11
 1.66884584526269E+0000
 21
 5.39997315160144E+0000
  0
LINE
  8
1
  6
CONTINUOUS
 62
     1
 10
 1.68228287118836E+0000
 20
 5.43314262383501E+0000
 11
 1.67290584694092E+0000
 21
 5.42376559958939E+0000
  0
LINE
  8
1
  6
CONTINUOUS
 62
     1
 10
 1.67887760024314E+0000
 20
 5.44946979920496E+0000
 11
 1.67696584861369E+0000
 21
 5.44755804757006E+0000
  0
LINE
  8
1
  6
CONTINUOUS
 62
     1
 10
 1.67530428180908E+0000
 20
 2.71559744307888E+0000
 11
 1.67530428180908E+0000
 21
 2.71559744307888E+0000
  0
LINE
  8
1
  6
CONTINUOUS
 62
     1
 10
 1.67530428180908E+0000
 20
 2.71559744307888E+0000
 11
 1.70248580317275E+0000
 21
 2.87488676970679E+0000
  0
LINE
  8
1
  6
CONTINUOUS
 62
     1
 10
 1.70248580317275E+0000
 20
 2.87488676970679E+0000
 11
 1.64208216570114E+0000
 21
 2.87488676970679E+0000
  0
LINE
  8
1
  6
CONTINUOUS
 62
     1
 10
 1.64208216570114E+0000
 20
 2.87488676970679E+0000
 11
 1.67530428180908E+0000
 21
 2.71559744307888E+0000
  0
LINE
  8
1
  6
CONTINUOUS
 62
     1
 10
 1.70248580317275E+0000
 20
 2.87488676970679E+0000
 11
 1.64208216570114E+0000
 21
 2.87488676970679E+0000
  0
LINE
  8
1
  6
CONTINUOUS
 62
     1
 10
 1.67674246347815E+0000
 20
 2.72402548456375E+0000
 11
 1.67270426543837E+0000
 21
 2.72806368260353E+0000
  0
LINE
  8
1
  6
CONTINUOUS
 62
     1
 10
 1.67961882681811E+0000
 20
 2.74088156753714E+0000
 11
 1.66750423269696E+0000
 21
 2.75299616165648E+0000
  0
LINE
  8
1
  6
CONTINUOUS
 62
     1
 10
 1.68249519015626E+0000
 20
 2.75773765051053E+0000
 11
 1.66230419995372E+0000
 21
 2.77792864070943E+0000
  0
LINE
  8
1
  6
CONTINUOUS
 62
     1
 10
 1.68537155349622E+0000
 20
 2.77459373348029E+0000
 11
 1.65710416721231E+0000
 21
 2.80286111976602E+0000
  0
LINE
  8
1
  6
CONTINUOUS
 62
     1
 10
 1.68824791683619E+0000
 20
 2.79144981645368E+0000
 11
 1.65190413447090E+0000
 21
 2.82779359881897E+0000
  0
LINE
  8
1
  6
CONTINUOUS
 62
     1
 10
 1.69112428017434E+0000
 20
 2.80830589942343E+0000
 11
 1.64670410172948E+0000
 21
 2.85272607787192E+0000
  0
LINE
  8
1
  6
CONTINUOUS
 62
     1
 10
 1.69400064351430E+0000
 20
 2.82516198239682E+0000
 11
 1.64427585620069E+0000
 21
 2.87488676971043E+0000
  0
LINE
  8
1
  6
CONTINUOUS
 62
     1
 10
 1.69687700685245E+0000
 20
 2.84201806536657E+0000
 11
 1.66400830251223E+0000
 21
 2.87488676971043E+0000
  0
LINE
  8
1
  6
CONTINUOUS
 62
     1
 10
 1.69975337019241E+0000
 20
 2.85887414833996E+0000
 11
 1.68374074882377E+0000
 21
 2.87488676971043E+0000
  0
LINE
  8
1
  6
CONTINUOUS
 62
     1
 10
 1.67733428264728E+0000
 20
 2.72749366707285E+0000
 11
 1.67360164633646E+0000
 21
 2.72376103076022E+0000
  0
LINE
  8
1
  6
CONTINUOUS
 62
     1
 10
 1.68139428432551E+0000
 20
 2.75128611506079E+0000
 11
 1.67019637539124E+0000
 21
 2.74008820612653E+0000
  0
LINE
  8
1
  6
CONTINUOUS
 62
     1
 10
 1.68545428600191E+0000
 20
 2.77507856304874E+0000
 11
 1.66679110444602E+0000
 21
 2.75641538149284E+0000
  0
LINE
  8
1
  6
CONTINUOUS
 62
     1
 10
 1.68951428768014E+0000
 20
 2.79887101103668E+0000
 11
 1.66338583350262E+0000
 21
 2.77274255686280E+0000
  0
LINE
  8
1
  6
CONTINUOUS
 62
     1
 10
 1.69357428935473E+0000
 20
 2.82266345902462E+0000
 11
 1.65998056255921E+0000
 21
 2.78906973222911E+0000
  0
LINE
  8
1
  6
CONTINUOUS
 62
     1
 10
 1.69763429103295E+0000
 20
 2.84645590701257E+0000
 11
 1.65657529161399E+0000
 21
 2.80539690759178E+0000
  0
LINE
  8
1
  6
CONTINUOUS
 62
     1
 10
 1.70169429271118E+0000
 20
 2.87024835500051E+0000
 11
 1.65317002066877E+0000
 21
 2.82172408295810E+0000
  0
LINE
  8
1
  6
CONTINUOUS
 62
     1
 10
 1.68660026110229E+0000
 20
 2.87488676970679E+0000
 11
 1.64976474972354E+0000
 21
 2.83805125832441E+0000
  0
LINE
  8
1
  6
CONTINUOUS
 62
     1
 10
 1.66686781479257E+0000
 20
 2.87488676970679E+0000
 11
 1.64635947877832E+0000
 21
 2.85437843369073E+0000
  0
LINE
  8
1
  6
CONTINUOUS
 62
     1
 10
 1.64713536848103E+0000
 20
 2.87488676970679E+0000
 11
 1.64295420783310E+0000
 21
 2.87070560905704E+0000
  0
LINE
  8
1
  6
CONTINUOUS
 62
     1
 10
 5.36862226814992E+0000
 20
 3.55492115076413E+0000
 11
 5.36862226814992E+0000
 21
 3.55492115076413E+0000
  0
LINE
  8
1
  6
CONTINUOUS
 62
     1
 10
 5.36862226814992E+0000
 20
 3.55492115076413E+0000
 11
 5.39580378951359E+0000
 21
 3.71421047739568E+0000
  0
LINE
  8
1
  6
CONTINUOUS
 62
     1
 10
 5.39580378951359E+0000
 20
 3.71421047739568E+0000
 11
 5.33540015204198E+0000
 21
 3.71421047739568E+0000
  0
LINE
  8
1
  6
CONTINUOUS
 62
     1
 10
 5.33540015204198E+0000
 20
 3.71421047739568E+0000
 11
 5.36862226814992E+0000
 21
 3.55492115076413E+0000
  0
LINE
  8
1
  6
CONTINUOUS
 62
     1
 10
 5.39580378951359E+0000
 20
 3.71421047739568E+0000
 11
 5.33540015204198E+0000
 21
 3.71421047739568E+0000
  0
LINE
  8
1
  6
CONTINUOUS
 62
     1
 10
 5.37006044982263E+0000
 20
 3.56334919225264E+0000
 11
 5.36602225177921E+0000
 21
 3.56738739029242E+0000
  0
LINE
  8
1
  6
CONTINUOUS
 62
     1
 10
 5.37293681316078E+0000
 20
 3.58020527522604E+0000
 11
 5.36082221903780E+0000
 21
 3.59231986934537E+0000
  0
LINE
  8
1
  6
CONTINUOUS
 62
     1
 10
 5.37581317649892E+0000
 20
 3.59706135819579E+0000
 11
 5.35562218629639E+0000
 21
 3.61725234840196E+0000
  0
LINE
  8
1
  6
CONTINUOUS
 62
     1
 10
 5.37868953983707E+0000
 20
 3.61391744116918E+0000
 11
 5.35042215355497E+0000
 21
 3.64218482745491E+0000
  0
LINE
  8
1
  6
CONTINUOUS
 62
     1
 10
 5.38156590317521E+0000
 20
 3.63077352413893E+0000
 11
 5.34522212081356E+0000
 21
 3.66711730650786E+0000
  0
LINE
  8
1
  6
CONTINUOUS
 62
     1
 10
 5.38444226652064E+0000
 20
 3.64762960711232E+0000
 11
 5.34002208806487E+0000
 21
 3.69204978556081E+0000
  0
LINE
  8
1
  6
CONTINUOUS
 62
     1
 10
 5.38731862985878E+0000
 20
 3.66448569008571E+0000
 11
 5.33759384254517E+0000
 21
 3.71421047739568E+0000
  0
LINE
  8
1
  6
CONTINUOUS
 62
     1
 10
 5.39019499319693E+0000
 20
 3.68134177305546E+0000
 11
 5.35732628885307E+0000
 21
 3.71421047739568E+0000
  0
LINE
  8
1
  6
CONTINUOUS
 62
     1
 10
 5.39307135653507E+0000
 20
 3.69819785602886E+0000
 11
 5.37705873516825E+0000
 21
 3.71421047739932E+0000
  0
LINE
  8
1
  6
CONTINUOUS
 62
     1
 10
 5.37065226898267E+0000
 20
 3.56681737475446E+0000
 11
 5.36691963267367E+0000
 21
 3.56308473844183E+0000
  0
LINE
  8
1
  6
CONTINUOUS
 62
     1
 10
 5.37471227066271E+0000
 20
 3.59060982274241E+0000
 11
 5.36351436172845E+0000
 21
 3.57941191380814E+0000
  0
LINE
  8
1
  6
CONTINUOUS
 62
     1
 10
 5.37877227233548E+0000
 20
 3.61440227073035E+0000
 11
 5.36010909078323E+0000
 21
 3.59573908917446E+0000
  0
LINE
  8
1
  6
CONTINUOUS
 62
     1
 10
 5.38283227401553E+0000
 20
 3.63819471871830E+0000
 11
 5.35670381983800E+0000
 21
 3.61206626454441E+0000
  0
LINE
  8
1
  6
CONTINUOUS
 62
     1
 10
 5.38689227569557E+0000
 20
 3.66198716670988E+0000
 11
 5.35329854889278E+0000
 21
 3.62839343991072E+0000
  0
LINE
  8
1
  6
CONTINUOUS
 62
     1
 10
 5.39095227736834E+0000
 20
 3.68577961469782E+0000
 11
 5.34989327795483E+0000
 21
 3.64472061527704E+0000
  0
LINE
  8
1
  6
CONTINUOUS
 62
     1
 10
 5.39501227904839E+0000
 20
 3.70957206268577E+0000
 11
 5.34648800700961E+0000
 21
 3.66104779064335E+0000
  0
LINE
  8
1
  6
CONTINUOUS
 62
     1
 10
 5.37991824744677E+0000
 20
 3.71421047739204E+0000
 11
 5.34308273606439E+0000
 21
 3.67737496600967E+0000
  0
LINE
  8
1
  6
CONTINUOUS
 62
     1
 10
 5.36018580113159E+0000
 20
 3.71421047739204E+0000
 11
 5.33967746511917E+0000
 21
 3.69370214137598E+0000
  0
LINE
  8
1
  6
CONTINUOUS
 62
     1
 10
 5.34045335482369E+0000
 20
 3.71421047739204E+0000
 11
 5.33627219417394E+0000
 21
 3.71002931674229E+0000
  0
LINE
  8
1
  6
CONTINUOUS
 62
     1
 10
 5.36079744190647E+0000
 20
 4.84920537291327E+0000
 11
 5.36079744190647E+0000
 21
 4.84920537291327E+0000
  0
LINE
  8
1
  6
CONTINUOUS
 62
     1
 10
 5.36079744190647E+0000
 20
 4.84920537291327E+0000
 11
 5.38797896327014E+0000
 21
 5.00849469954119E+0000
  0
LINE
  8
1
  6
CONTINUOUS
 62
     1
 10
 5.38797896327014E+0000
 20
 5.00849469954119E+0000
 11
 5.32757532579853E+0000
 21
 5.00849469954119E+0000
  0
LINE
  8
1
  6
CONTINUOUS
 62
     1
 10
 5.32757532579853E+0000
 20
 5.00849469954119E+0000
 11
 5.36079744190647E+0000
 21
 4.84920537291327E+0000
  0
LINE
  8
1
  6
CONTINUOUS
 62
     1
 10
 5.38797896327014E+0000
 20
 5.00849469954119E+0000
 11
 5.32757532579853E+0000
 21
 5.00849469954119E+0000
  0
LINE
  8
1
  6
CONTINUOUS
 62
     1
 10
 5.36223562357918E+0000
 20
 4.85763341440179E+0000
 11
 5.35819742553576E+0000
 21
 4.86167161244521E+0000
  0
LINE
  8
1
  6
CONTINUOUS
 62
     1
 10
 5.36511198691733E+0000
 20
 4.87448949737154E+0000
 11
 5.35299739279435E+0000
 21
 4.88660409149452E+0000
  0
LINE
  8
1
  6
CONTINUOUS
 62
     1
 10
 5.36798835025547E+0000
 20
 4.89134558034857E+0000
 11
 5.34779736005294E+0000
 21
 4.91153657055111E+0000
  0
LINE
  8
1
  6
CONTINUOUS
 62
     1
 10
 5.37086471359362E+0000
 20
 4.90820166331832E+0000
 11
 5.34259732731152E+0000
 21
 4.93646904960042E+0000
  0
LINE
  8
1
  6
CONTINUOUS
 62
     1
 10
 5.37374107693176E+0000
 20
 4.92505774628808E+0000
 11
 5.33739729457011E+0000
 21
 4.96140152865701E+0000
  0
LINE
  8
1
  6
CONTINUOUS
 62
     1
 10
 5.37661744026991E+0000
 20
 4.94191382926510E+0000
 11
 5.33219726182870E+0000
 21
 4.98633400771359E+0000
  0
LINE
  8
1
  6
CONTINUOUS
 62
     1
 10
 5.37949380360806E+0000
 20
 4.95876991223486E+0000
 11
 5.32976901630173E+0000
 21
 5.00849469954119E+0000
  0
LINE
  8
1
  6
CONTINUOUS
 62
     1
 10
 5.38237016695348E+0000
 20
 4.97562599520461E+0000
 11
 5.34950146261690E+0000
 21
 5.00849469954119E+0000
  0
LINE
  8
1
  6
CONTINUOUS
 62
     1
 10
 5.38524653029162E+0000
 20
 4.99248207818164E+0000
 11
 5.36923390892480E+0000
 21
 5.00849469954119E+0000
  0
LINE
  8
1
  6
CONTINUOUS
 62
     1
 10
 5.36282744273922E+0000
 20
 4.86110159689997E+0000
 11
 5.35909480643022E+0000
 21
 4.85736896059097E+0000
  0
LINE
  8
1
  6
CONTINUOUS
 62
     1
 10
 5.36688744441926E+0000
 20
 4.88489404488791E+0000
 11
 5.35568953548500E+0000
 21
 4.87369613595365E+0000
  0
LINE
  8
1
  6
CONTINUOUS
 62
     1
 10
 5.37094744609203E+0000
 20
 4.90868649287586E+0000
 11
 5.35228426453978E+0000
 21
 4.89002331132360E+0000
  0
LINE
  8
1
  6
CONTINUOUS
 62
     1
 10
 5.37500744777208E+0000
 20
 4.93247894087108E+0000
 11
 5.34887899359455E+0000
 21
 4.90635048668628E+0000
  0
LINE
  8
1
  6
CONTINUOUS
 62
     1
 10
 5.37906744945212E+0000
 20
 4.95627138885902E+0000
 11
 5.34547372264933E+0000
 21
 4.92267766205623E+0000
  0
LINE
  8
1
  6
CONTINUOUS
 62
     1
 10
 5.38312745112489E+0000
 20
 4.98006383684697E+0000
 11
 5.34206845170411E+0000
 21
 4.93900483741891E+0000
  0
LINE
  8
1
  6
CONTINUOUS
 62
     1
 10
 5.38718745280494E+0000
 20
 5.00385628483491E+0000
 11
 5.33866318075889E+0000
 21
 4.95533201278886E+0000
  0
LINE
  8
1
  6
CONTINUOUS
 62
     1
 10
 5.37209342119604E+0000
 20
 5.00849469953391E+0000
 11
 5.33525790982094E+0000
 21
 4.97165918815881E+0000
  0
LINE
  8
1
  6
CONTINUOUS
 62
     1
 10
 5.35236097488087E+0000
 20
 5.00849469953391E+0000
 11
 5.33185263887572E+0000
 21
 4.98798636352149E+0000
  0
LINE
  8
1
  6
CONTINUOUS
 62
     1
 10
 5.33262852857297E+0000
 20
 5.00849469953391E+0000
 11
 5.32844736793049E+0000
 21
 5.00431353889144E+0000
  0
LINE
  8
1
  6
CONTINUOUS
 62
     1
 10
 5.37132354445203E+0000
 20
 3.23375741520431E+0000
 11
 5.37132354445203E+0000
 21
 3.23375741520431E+0000
  0
LINE
  8
1
  6
CONTINUOUS
 62
     1
 10
 5.37132354445203E+0000
 20
 3.23375741520431E+0000
 11
 5.34414202308835E+0000
 21
 3.07446808857640E+0000
  0
LINE
  8
1
  6
CONTINUOUS
 62
     1
 10
 5.34414202308835E+0000
 20
 3.07446808857640E+0000
 11
 5.40454566055996E+0000
 21
 3.07446808857640E+0000
  0
LINE
  8
1
  6
CONTINUOUS
 62
     1
 10
 5.40454566055996E+0000
 20
 3.07446808857640E+0000
 11
 5.37132354445203E+0000
 21
 3.23375741520431E+0000
  0
LINE
  8
1
  6
CONTINUOUS
 62
     1
 10
 5.34414202308835E+0000
 20
 3.07446808857640E+0000
 11
 5.40454566055996E+0000
 21
 3.07446808857640E+0000
  0
LINE
  8
1
  6
CONTINUOUS
 62
     1
 10
 5.35400824624230E+0000
 20
 3.07446808857640E+0000
 11
 5.34558020476106E+0000
 21
 3.08289613006127E+0000
  0
LINE
  8
1
  6
CONTINUOUS
 62
     1
 10
 5.37374069255020E+0000
 20
 3.07446808857640E+0000
 11
 5.34845656809921E+0000
 21
 3.09975221303466E+0000
  0
LINE
  8
1
  6
CONTINUOUS
 62
     1
 10
 5.39347313886537E+0000
 20
 3.07446808857640E+0000
 11
 5.35133293143736E+0000
 21
 3.11660829600442E+0000
  0
LINE
  8
1
  6
CONTINUOUS
 62
     1
 10
 5.40226353645266E+0000
 20
 3.08541013730064E+0000
 11
 5.35420929477550E+0000
 21
 3.13346437897417E+0000
  0
LINE
  8
1
  6
CONTINUOUS
 62
     1
 10
 5.39706350371125E+0000
 20
 3.11034261635359E+0000
 11
 5.35708565811365E+0000
 21
 3.15032046194756E+0000
  0
LINE
  8
1
  6
CONTINUOUS
 62
     1
 10
 5.39186347096256E+0000
 20
 3.13527509541018E+0000
 11
 5.35996202145179E+0000
 21
 3.16717654492095E+0000
  0
LINE
  8
1
  6
CONTINUOUS
 62
     1
 10
 5.38666343822115E+0000
 20
 3.16020757446313E+0000
 11
 5.36283838478994E+0000
 21
 3.18403262789070E+0000
  0
LINE
  8
1
  6
CONTINUOUS
 62
     1
 10
 5.38146340547974E+0000
 20
 3.18514005351608E+0000
 11
 5.36571474812808E+0000
 21
 3.20088871086409E+0000
  0
LINE
  8
1
  6
CONTINUOUS
 62
     1
 10
 5.37626337273832E+0000
 20
 3.21007253256903E+0000
 11
 5.36859111147351E+0000
 21
 3.21774479383748E+0000
  0
LINE
  8
1
  6
CONTINUOUS
 62
     1
 10
 5.40284302508371E+0000
 20
 3.08263167625773E+0000
 11
 5.39467943739874E+0000
 21
 3.07446808857640E+0000
  0
LINE
  8
1
  6
CONTINUOUS
 62
     1
 10
 5.39943775413849E+0000
 20
 3.09895885162405E+0000
 11
 5.37494699109084E+0000
 21
 3.07446808857640E+0000
  0
LINE
  8
1
  6
CONTINUOUS
 62
     1
 10
 5.39603248319327E+0000
 20
 3.11528602699036E+0000
 11
 5.35521454478294E+0000
 21
 3.07446808857640E+0000
  0
LINE
  8
1
  6
CONTINUOUS
 62
     1
 10
 5.39262721224804E+0000
 20
 3.13161320235668E+0000
 11
 5.34592382489063E+0000
 21
 3.08490981499563E+0000
  0
LINE
  8
1
  6
CONTINUOUS
 62
     1
 10
 5.38922194130282E+0000
 20
 3.14794037772299E+0000
 11
 5.34998382656340E+0000
 21
 3.10870226298357E+0000
  0
LINE
  8
1
  6
CONTINUOUS
 62
     1
 10
 5.38581667035760E+0000
 20
 3.16426755308930E+0000
 11
 5.35404382824345E+0000
 21
 3.13249471097515E+0000
  0
LINE
  8
1
  6
CONTINUOUS
 62
     1
 10
 5.38241139941238E+0000
 20
 3.18059472845562E+0000
 11
 5.35810382992349E+0000
 21
 3.15628715896310E+0000
  0
LINE
  8
1
  6
CONTINUOUS
 62
     1
 10
 5.37900612846715E+0000
 20
 3.19692190382193E+0000
 11
 5.36216383159626E+0000
 21
 3.18007960695104E+0000
  0
LINE
  8
1
  6
CONTINUOUS
 62
     1
 10
 5.37560085752921E+0000
 20
 3.21324907919188E+0000
 11
 5.36622383327631E+0000
 21
 3.20387205493898E+0000
  0
LINE
  8
1
  6
CONTINUOUS
 62
     1
 10
 5.37219558658398E+0000
 20
 3.22957625455820E+0000
 11
 5.37028383495635E+0000
 21
 3.22766450292693E+0000
  0
LINE
  8
1
  6
CONTINUOUS
 62
     1
 10
 5.36349871820858E+0000
 20
 4.66923627976939E+0000
 11
 5.36349871820858E+0000
 21
 4.66923627976939E+0000
  0
LINE
  8
1
  6
CONTINUOUS
 62
     1
 10
 5.36349871820858E+0000
 20
 4.66923627976939E+0000
 11
 5.33631719684490E+0000
 21
 4.50994695314148E+0000
  0
LINE
  8
1
  6
CONTINUOUS
 62
     1
 10
 5.33631719684490E+0000
 20
 4.50994695314148E+0000
 11
 5.39672083431651E+0000
 21
 4.50994695314148E+0000
  0
LINE
  8
1
  6
CONTINUOUS
 62
     1
 10
 5.39672083431651E+0000
 20
 4.50994695314148E+0000
 11
 5.36349871820858E+0000
 21
 4.66923627976939E+0000
  0
LINE
  8
1
  6
CONTINUOUS
 62
     1
 10
 5.33631719684490E+0000
 20
 4.50994695314148E+0000
 11
 5.39672083431651E+0000
 21
 4.50994695314148E+0000
  0
LINE
  8
1
  6
CONTINUOUS
 62
     1
 10
 5.34618341999885E+0000
 20
 4.50994695314148E+0000
 11
 5.33775537851761E+0000
 21
 4.51837499462999E+0000
  0
LINE
  8
1
  6
CONTINUOUS
 62
     1
 10
 5.36591586631403E+0000
 20
 4.50994695314148E+0000
 11
 5.34063174185576E+0000
 21
 4.53523107759975E+0000
  0
LINE
  8
1
  6
CONTINUOUS
 62
     1
 10
 5.38564831262192E+0000
 20
 4.50994695314148E+0000
 11
 5.34350810519391E+0000
 21
 4.55208716056950E+0000
  0
LINE
  8
1
  6
CONTINUOUS
 62
     1
 10
 5.39443871020922E+0000
 20
 4.52088900186936E+0000
 11
 5.34638446853205E+0000
 21
 4.56894324354653E+0000
  0
LINE
  8
1
  6
CONTINUOUS
 62
     1
 10
 5.38923867746780E+0000
 20
 4.54582148092595E+0000
 11
 5.34926083187020E+0000
 21
 4.58579932651628E+0000
  0
LINE
  8
1
  6
CONTINUOUS
 62
     1
 10
 5.38403864472639E+0000
 20
 4.57075395997526E+0000
 11
 5.35213719520834E+0000
 21
 4.60265540948603E+0000
  0
LINE
  8
1
  6
CONTINUOUS
 62
     1
 10
 5.37883861197770E+0000
 20
 4.59568643903185E+0000
 11
 5.35501355855376E+0000
 21
 4.61951149246306E+0000
  0
LINE
  8
1
  6
CONTINUOUS
 62
     1
 10
 5.37363857923629E+0000
 20
 4.62061891808116E+0000
 11
 5.35788992189191E+0000
 21
 4.63636757543281E+0000
  0
LINE
  8
1
  6
CONTINUOUS
 62
     1
 10
 5.36843854649487E+0000
 20
 4.64555139713775E+0000
 11
 5.36076628523006E+0000
 21
 4.65322365840257E+0000
  0
LINE
  8
1
  6
CONTINUOUS
 62
     1
 10
 5.39501819884026E+0000
 20
 4.51811054081918E+0000
 11
 5.38685461115529E+0000
 21
 4.50994695313420E+0000
  0
LINE
  8
1
  6
CONTINUOUS
 62
     1
 10
 5.39161292789504E+0000
 20
 4.53443771618913E+0000
 11
 5.36712216484739E+0000
 21
 4.50994695313420E+0000
  0
LINE
  8
1
  6
CONTINUOUS
 62
     1
 10
 5.38820765694982E+0000
 20
 4.55076489155181E+0000
 11
 5.34738971853221E+0000
 21
 4.50994695313420E+0000
  0
LINE
  8
1
  6
CONTINUOUS
 62
     1
 10
 5.38480238600459E+0000
 20
 4.56709206692176E+0000
 11
 5.33809899864718E+0000
 21
 4.52038867956435E+0000
  0
LINE
  8
1
  6
CONTINUOUS
 62
     1
 10
 5.38139711505937E+0000
 20
 4.58341924228444E+0000
 11
 5.34215900032723E+0000
 21
 4.54418112755229E+0000
  0
LINE
  8
1
  6
CONTINUOUS
 62
     1
 10
 5.37799184411415E+0000
 20
 4.59974641765439E+0000
 11
 5.34621900200000E+0000
 21
 4.56797357554024E+0000
  0
LINE
  8
1
  6
CONTINUOUS
 62
     1
 10
 5.37458657316893E+0000
 20
 4.61607359301706E+0000
 11
 5.35027900368004E+0000
 21
 4.59176602352818E+0000
  0
LINE
  8
1
  6
CONTINUOUS
 62
     1
 10
 5.37118130223098E+0000
 20
 4.63240076838701E+0000
 11
 5.35433900535281E+0000
 21
 4.61555847151612E+0000
  0
LINE
  8
1
  6
CONTINUOUS
 62
     1
 10
 5.36777603128576E+0000
 20
 4.64872794375697E+0000
 11
 5.35839900703286E+0000
 21
 4.63935091950407E+0000
  0
LINE
  8
1
  6
CONTINUOUS
 62
     1
 10
 5.36437076034053E+0000
 20
 4.66505511911964E+0000
 11
 5.36245900870563E+0000
 21
 4.66314336749201E+0000
  0
LINE
  8
1
  6
CONTINUOUS
 62
     1
 10
 8.36272053711582E+0000
 20
 4.24464657025237E+0000
 11
 8.36272053711582E+0000
 21
 4.24464657025237E+0000
  0
LINE
  8
1
  6
CONTINUOUS
 62
     1
 10
 8.36272053711582E+0000
 20
 4.24464657025237E+0000
 11
 8.52200986376556E+0000
 21
 4.21746504888870E+0000
  0
LINE
  8
1
  6
CONTINUOUS
 62
     1
 10
 8.52200986376556E+0000
 20
 4.21746504888870E+0000
 11
 8.52200986376556E+0000
 21
 4.27786868636031E+0000
  0
LINE
  8
1
  6
CONTINUOUS
 62
     1
 10
 8.52200986376556E+0000
 20
 4.27786868636031E+0000
 11
 8.36272053711582E+0000
 21
 4.24464657025237E+0000
  0
LINE
  8
1
  6
CONTINUOUS
 62
     1
 10
 8.52200986376556E+0000
 20
 4.21746504888870E+0000
 11
 8.52200986376556E+0000
 21
 4.27786868636031E+0000
  0
LINE
  8
1
  6
CONTINUOUS
 62
     1
 10
 8.37461676112434E+0000
 20
 4.24261656941235E+0000
 11
 8.37088412480080E+0000
 21
 4.24634920572134E+0000
  0
LINE
  8
1
  6
CONTINUOUS
 62
     1
 10
 8.39840920911229E+0000
 20
 4.23855656773230E+0000
 11
 8.38721130017075E+0000
 21
 4.24975447666657E+0000
  0
LINE
  8
1
  6
CONTINUOUS
 62
     1
 10
 8.42220165708568E+0000
 20
 4.23449656605953E+0000
 11
 8.40353847554070E+0000
 21
 4.25315974761179E+0000
  0
LINE
  8
1
  6
CONTINUOUS
 62
     1
 10
 8.44599410507362E+0000
 20
 4.23043656438676E+0000
 11
 8.41986565091065E+0000
 21
 4.25656501855701E+0000
  0
LINE
  8
1
  6
CONTINUOUS
 62
     1
 10
 8.46978655306157E+0000
 20
 4.22637656270672E+0000
 11
 8.43619282626605E+0000
 21
 4.25997028950223E+0000
  0
LINE
  8
1
  6
CONTINUOUS
 62
     1
 10
 8.49357900104951E+0000
 20
 4.22231656103395E+0000
 11
 8.45252000163600E+0000
 21
 4.26337556044746E+0000
  0
LINE
  8
1
  6
CONTINUOUS
 62
     1
 10
 8.51737144903746E+0000
 20
 4.21825655936118E+0000
 11
 8.46884717700596E+0000
 21
 4.26678083139268E+0000
  0
LINE
  8
1
  6
CONTINUOUS
 62
     1
 10
 8.52200986376556E+0000
 20
 4.23335059093370E+0000
 11
 8.48517435237591E+0000
 21
 4.27018610233790E+0000
  0
LINE
  8
1
  6
CONTINUOUS
 62
     1
 10
 8.52200986376556E+0000
 20
 4.25308303724887E+0000
 11
 8.50150152773131E+0000
 21
 4.27359137328312E+0000
  0
LINE
  8
1
  6
CONTINUOUS
 62
     1
 10
 8.52200986376556E+0000
 20
 4.27281548355677E+0000
 11
 8.51782870310126E+0000
 21
 4.27699664422107E+0000
  0
LINE
  8
1
  6
CONTINUOUS
 62
     1
 10
 8.52200986376556E+0000
 20
 4.22733127204265E+0000
 11
 8.51358182226249E+0000
 21
 4.21890323054686E+0000
  0
LINE
  8
1
  6
CONTINUOUS
 62
     1
 10
 8.52200986376556E+0000
 20
 4.24706371835055E+0000
 11
 8.49672573930002E+0000
 21
 4.22177959389228E+0000
  0
LINE
  8
1
  6
CONTINUOUS
 62
     1
 10
 8.52200986376556E+0000
 20
 4.26679616466572E+0000
 11
 8.47986965632299E+0000
 21
 4.22465595722315E+0000
  0
LINE
  8
1
  6
CONTINUOUS
 62
     1
 10
 8.51106781502313E+0000
 20
 4.27558656223846E+0000
 11
 8.46301357334596E+0000
 21
 4.22753232056129E+0000
  0
LINE
  8
1
  6
CONTINUOUS
 62
     1
 10
 8.48613533597381E+0000
 20
 4.27038652950432E+0000
 11
 8.44615749038348E+0000
 21
 4.23040868390672E+0000
  0
LINE
  8
1
  6
CONTINUOUS
 62
     1
 10
 8.46120285692450E+0000
 20
 4.26518649676291E+0000
 11
 8.42930140740646E+0000
 21
 4.23328504724486E+0000
  0
LINE
  8
1
  6
CONTINUOUS
 62
     1
 10
 8.43627037787519E+0000
 20
 4.25998646402149E+0000
 11
 8.41244532442943E+0000
 21
 4.23616141057573E+0000
  0
LINE
  8
1
  6
CONTINUOUS
 62
     1
 10
 8.41133789882588E+0000
 20
 4.25478643128008E+0000
 11
 8.39558924146695E+0000
 21
 4.23903777392115E+0000
  0
LINE
  8
1
  6
CONTINUOUS
 62
     1
 10
 8.38640541976201E+0000
 20
 4.24958639853139E+0000
 11
 8.37873315848992E+0000
 21
 4.24191413725930E+0000
  0
LINE
  8
1
  6
CONTINUOUS
 62
     1
 10
 8.36272053711582E+0000
 20
 4.24464657025237E+0000
 11
 8.36272053711582E+0000
 21
 4.24464657025237E+0000
  0
LINE
  8
1
  6
CONTINUOUS
 62
     1
 10
 8.36272053711582E+0000
 20
 4.24464657025237E+0000
 11
 8.52200986376556E+0000
 21
 4.21746504888870E+0000
  0
LINE
  8
1
  6
CONTINUOUS
 62
     1
 10
 8.52200986376556E+0000
 20
 4.21746504888870E+0000
 11
 8.52200986376556E+0000
 21
 4.27786868636031E+0000
  0
LINE
  8
1
  6
CONTINUOUS
 62
     1
 10
 8.52200986376556E+0000
 20
 4.27786868636031E+0000
 11
 8.36272053711582E+0000
 21
 4.24464657025237E+0000
  0
LINE
  8
1
  6
CONTINUOUS
 62
     1
 10
 8.52200986376556E+0000
 20
 4.21746504888870E+0000
 11
 8.52200986376556E+0000
 21
 4.27786868636031E+0000
  0
LINE
  8
1
  6
CONTINUOUS
 62
     1
 10
 8.37461676112434E+0000
 20
 4.24261656941235E+0000
 11
 8.37088412480080E+0000
 21
 4.24634920572134E+0000
  0
LINE
  8
1
  6
CONTINUOUS
 62
     1
 10
 8.39840920911229E+0000
 20
 4.23855656773230E+0000
 11
 8.38721130017075E+0000
 21
 4.24975447666657E+0000
  0
LINE
  8
1
  6
CONTINUOUS
 62
     1
 10
 8.42220165708568E+0000
 20
 4.23449656605953E+0000
 11
 8.40353847554070E+0000
 21
 4.25315974761179E+0000
  0
LINE
  8
1
  6
CONTINUOUS
 62
     1
 10
 8.44599410507362E+0000
 20
 4.23043656438676E+0000
 11
 8.41986565091065E+0000
 21
 4.25656501855701E+0000
  0
LINE
  8
1
  6
CONTINUOUS
 62
     1
 10
 8.46978655306157E+0000
 20
 4.22637656270672E+0000
 11
 8.43619282626605E+0000
 21
 4.25997028950223E+0000
  0
LINE
  8
1
  6
CONTINUOUS
 62
     1
 10
 8.49357900104951E+0000
 20
 4.22231656103395E+0000
 11
 8.45252000163600E+0000
 21
 4.26337556044746E+0000
  0
LINE
  8
1
  6
CONTINUOUS
 62
     1
 10
 8.51737144903746E+0000
 20
 4.21825655936118E+0000
 11
 8.46884717700596E+0000
 21
 4.26678083139268E+0000
  0
LINE
  8
1
  6
CONTINUOUS
 62
     1
 10
 8.52200986376556E+0000
 20
 4.23335059093370E+0000
 11
 8.48517435237591E+0000
 21
 4.27018610233790E+0000
  0
LINE
  8
1
  6
CONTINUOUS
 62
     1
 10
 8.52200986376556E+0000
 20
 4.25308303724887E+0000
 11
 8.50150152773131E+0000
 21
 4.27359137328312E+0000
  0
LINE
  8
1
  6
CONTINUOUS
 62
     1
 10
 8.52200986376556E+0000
 20
 4.27281548355677E+0000
 11
 8.51782870310126E+0000
 21
 4.27699664422107E+0000
  0
LINE
  8
1
  6
CONTINUOUS
 62
     1
 10
 8.52200986376556E+0000
 20
 4.22733127204265E+0000
 11
 8.51358182226249E+0000
 21
 4.21890323054686E+0000
  0
LINE
  8
1
  6
CONTINUOUS
 62
     1
 10
 8.52200986376556E+0000
 20
 4.24706371835055E+0000
 11
 8.49672573930002E+0000
 21
 4.22177959389228E+0000
  0
LINE
  8
1
  6
CONTINUOUS
 62
     1
 10
 8.52200986376556E+0000
 20
 4.26679616466572E+0000
 11
 8.47986965632299E+0000
 21
 4.22465595722315E+0000
  0
LINE
  8
1
  6
CONTINUOUS
 62
     1
 10
 8.51106781502313E+0000
 20
 4.27558656223846E+0000
 11
 8.46301357334596E+0000
 21
 4.22753232056129E+0000
  0
LINE
  8
1
  6
CONTINUOUS
 62
     1
 10
 8.48613533597381E+0000
 20
 4.27038652950432E+0000
 11
 8.44615749038348E+0000
 21
 4.23040868390672E+0000
  0
LINE
  8
1
  6
CONTINUOUS
 62
     1
 10
 8.46120285692450E+0000
 20
 4.26518649676291E+0000
 11
 8.42930140740646E+0000
 21
 4.23328504724486E+0000
  0
LINE
  8
1
  6
CONTINUOUS
 62
     1
 10
 8.43627037787519E+0000
 20
 4.25998646402149E+0000
 11
 8.41244532442943E+0000
 21
 4.23616141057573E+0000
  0
LINE
  8
1
  6
CONTINUOUS
 62
     1
 10
 8.41133789882588E+0000
 20
 4.25478643128008E+0000
 11
 8.39558924146695E+0000
 21
 4.23903777392115E+0000
  0
LINE
  8
1
  6
CONTINUOUS
 62
     1
 10
 8.38640541976201E+0000
 20
 4.24958639853139E+0000
 11
 8.37873315848992E+0000
 21
 4.24191413725930E+0000
  0
LINE
  8
1
  6
CONTINUOUS
 62
     1
 10
 8.49574258323992E+0000
 20
 1.96984399799840E+0000
 11
 8.49574258323992E+0000
 21
 1.96984399799840E+0000
  0
LINE
  8
1
  6
CONTINUOUS
 62
     1
 10
 8.49574258323992E+0000
 20
 1.96984399799840E+0000
 11
 8.65503190988966E+0000
 21
 1.94266247663472E+0000
  0
LINE
  8
1
  6
CONTINUOUS
 62
     1
 10
 8.65503190988966E+0000
 20
 1.94266247663472E+0000
 11
 8.65503190988966E+0000
 21
 2.00306611410633E+0000
  0
LINE
  8
1
  6
CONTINUOUS
 62
     1
 10
 8.65503190988966E+0000
 20
 2.00306611410633E+0000
 11
 8.49574258323992E+0000
 21
 1.96984399799840E+0000
  0
LINE
  8
1
  6
CONTINUOUS
 62
     1
 10
 8.65503190988966E+0000
 20
 1.94266247663472E+0000
 11
 8.65503190988966E+0000
 21
 2.00306611410633E+0000
  0
LINE
  8
1
  6
CONTINUOUS
 62
     1
 10
 8.50763880724844E+0000
 20
 1.96781399716019E+0000
 11
 8.50390617092489E+0000
 21
 1.97154663347101E+0000
  0
LINE
  8
1
  6
CONTINUOUS
 62
     1
 10
 8.53143125523638E+0000
 20
 1.96375399548197E+0000
 11
 8.52023334629484E+0000
 21
 1.97495190441623E+0000
  0
LINE
  8
1
  6
CONTINUOUS
 62
     1
 10
 8.55522370322433E+0000
 20
 1.95969399380556E+0000
 11
 8.53656052166480E+0000
 21
 1.97835717536145E+0000
  0
LINE
  8
1
  6
CONTINUOUS
 62
     1
 10
 8.57901615119772E+0000
 20
 1.95563399213279E+0000
 11
 8.55288769703475E+0000
 21
 1.98176244630667E+0000
  0
LINE
  8
1
  6
CONTINUOUS
 62
     1
 10
 8.60280859918566E+0000
 20
 1.95157399045456E+0000
 11
 8.56921487240470E+0000
 21
 1.98516771724644E+0000
  0
LINE
  8
1
  6
CONTINUOUS
 62
     1
 10
 8.62660104717361E+0000
 20
 1.94751398877634E+0000
 11
 8.58554204776010E+0000
 21
 1.98857298819166E+0000
  0
LINE
  8
1
  6
CONTINUOUS
 62
     1
 10
 8.65039349516155E+0000
 20
 1.94345398709993E+0000
 11
 8.60186922313005E+0000
 21
 1.99197825913689E+0000
  0
LINE
  8
1
  6
CONTINUOUS
 62
     1
 10
 8.65503190988966E+0000
 20
 1.95854801868882E+0000
 11
 8.61819639850000E+0000
 21
 1.99538353008211E+0000
  0
LINE
  8
1
  6
CONTINUOUS
 62
     1
 10
 8.65503190988966E+0000
 20
 1.97828046499490E+0000
 11
 8.63452357386996E+0000
 21
 1.99878880102551E+0000
  0
LINE
  8
1
  6
CONTINUOUS
 62
     1
 10
 8.65503190988966E+0000
 20
 1.99801291130643E+0000
 11
 8.65085074922536E+0000
 21
 2.00219407197073E+0000
  0
LINE
  8
1
  6
CONTINUOUS
 62
     1
 10
 8.65503190987511E+0000
 20
 1.95252869979049E+0000
 11
 8.64660386840114E+0000
 21
 1.94410065830562E+0000
  0
LINE
  8
1
  6
CONTINUOUS
 62
     1
 10
 8.65503190987511E+0000
 20
 1.97226114610203E+0000
 11
 8.62974778542412E+0000
 21
 1.94697702164194E+0000
  0
LINE
  8
1
  6
CONTINUOUS
 62
     1
 10
 8.65503190987511E+0000
 20
 1.99199359241175E+0000
 11
 8.61289170244709E+0000
 21
 1.94985338497827E+0000
  0
LINE
  8
1
  6
CONTINUOUS
 62
     1
 10
 8.64408986114722E+0000
 20
 2.00078398998812E+0000
 11
 8.59603561947006E+0000
 21
 1.95272974832005E+0000
  0
LINE
  8
1
  6
CONTINUOUS
 62
     1
 10
 8.61915738209791E+0000
 20
 1.99558395724671E+0000
 11
 8.57917953650758E+0000
 21
 1.95560611165638E+0000
  0
LINE
  8
1
  6
CONTINUOUS
 62
     1
 10
 8.59422490303405E+0000
 20
 1.99038392450166E+0000
 11
 8.56232345353055E+0000
 21
 1.95848247499271E+0000
  0
LINE
  8
1
  6
CONTINUOUS
 62
     1
 10
 8.56929242398473E+0000
 20
 1.98518389176206E+0000
 11
 8.54546737055352E+0000
 21
 1.96135883833449E+0000
  0
LINE
  8
1
  6
CONTINUOUS
 62
     1
 10
 8.54435994493542E+0000
 20
 1.97998385902065E+0000
 11
 8.52861128757650E+0000
 21
 1.96423520167082E+0000
  0
LINE
  8
1
  6
CONTINUOUS
 62
     1
 10
 8.51942746587156E+0000
 20
 1.97478382627560E+0000
 11
 8.51175520461402E+0000
 21
 1.96711156501260E+0000
  0
LINE
  8
1
  6
CONTINUOUS
 62
     1
 10
 8.49574258323992E+0000
 20
 1.96984399799840E+0000
 11
 8.49574258323992E+0000
 21
 1.96984399799840E+0000
  0
LINE
  8
1
  6
CONTINUOUS
 62
     1
 10
 8.49574258323992E+0000
 20
 1.96984399799840E+0000
 11
 8.65503190988966E+0000
 21
 1.94266247663472E+0000
  0
LINE
  8
1
  6
CONTINUOUS
 62
     1
 10
 8.65503190988966E+0000
 20
 1.94266247663472E+0000
 11
 8.65503190988966E+0000
 21
 2.00306611410633E+0000
  0
LINE
  8
1
  6
CONTINUOUS
 62
     1
 10
 8.65503190988966E+0000
 20
 2.00306611410633E+0000
 11
 8.49574258323992E+0000
 21
 1.96984399799840E+0000
  0
LINE
  8
1
  6
CONTINUOUS
 62
     1
 10
 8.65503190988966E+0000
 20
 1.94266247663472E+0000
 11
 8.65503190988966E+0000
 21
 2.00306611410633E+0000
  0
LINE
  8
1
  6
CONTINUOUS
 62
     1
 10
 8.50763880724844E+0000
 20
 1.96781399716019E+0000
 11
 8.50390617092489E+0000
 21
 1.97154663347101E+0000
  0
LINE
  8
1
  6
CONTINUOUS
 62
     1
 10
 8.53143125523638E+0000
 20
 1.96375399548197E+0000
 11
 8.52023334629484E+0000
 21
 1.97495190441623E+0000
  0
LINE
  8
1
  6
CONTINUOUS
 62
     1
 10
 8.55522370322433E+0000
 20
 1.95969399380556E+0000
 11
 8.53656052166480E+0000
 21
 1.97835717536145E+0000
  0
LINE
  8
1
  6
CONTINUOUS
 62
     1
 10
 8.57901615119772E+0000
 20
 1.95563399213279E+0000
 11
 8.55288769703475E+0000
 21
 1.98176244630667E+0000
  0
LINE
  8
1
  6
CONTINUOUS
 62
     1
 10
 8.60280859918566E+0000
 20
 1.95157399045456E+0000
 11
 8.56921487240470E+0000
 21
 1.98516771724644E+0000
  0
LINE
  8
1
  6
CONTINUOUS
 62
     1
 10
 8.62660104717361E+0000
 20
 1.94751398877634E+0000
 11
 8.58554204776010E+0000
 21
 1.98857298819166E+0000
  0
LINE
  8
1
  6
CONTINUOUS
 62
     1
 10
 8.65039349516155E+0000
 20
 1.94345398709993E+0000
 11
 8.60186922313005E+0000
 21
 1.99197825913689E+0000
  0
LINE
  8
1
  6
CONTINUOUS
 62
     1
 10
 8.65503190988966E+0000
 20
 1.95854801868882E+0000
 11
 8.61819639850000E+0000
 21
 1.99538353008211E+0000
  0
LINE
  8
1
  6
CONTINUOUS
 62
     1
 10
 8.65503190988966E+0000
 20
 1.97828046499490E+0000
 11
 8.63452357386996E+0000
 21
 1.99878880102551E+0000
  0
LINE
  8
1
  6
CONTINUOUS
 62
     1
 10
 8.65503190988966E+0000
 20
 1.99801291130643E+0000
 11
 8.65085074922536E+0000
 21
 2.00219407197073E+0000
  0
LINE
  8
1
  6
CONTINUOUS
 62
     1
 10
 8.65503190987511E+0000
 20
 1.95252869979049E+0000
 11
 8.64660386840114E+0000
 21
 1.94410065830562E+0000
  0
LINE
  8
1
  6
CONTINUOUS
 62
     1
 10
 8.65503190987511E+0000
 20
 1.97226114610203E+0000
 11
 8.62974778542412E+0000
 21
 1.94697702164194E+0000
  0
LINE
  8
1
  6
CONTINUOUS
 62
     1
 10
 8.65503190987511E+0000
 20
 1.99199359241175E+0000
 11
 8.61289170244709E+0000
 21
 1.94985338497827E+0000
  0
LINE
  8
1
  6
CONTINUOUS
 62
     1
 10
 8.64408986114722E+0000
 20
 2.00078398998812E+0000
 11
 8.59603561947006E+0000
 21
 1.95272974832005E+0000
  0
LINE
  8
1
  6
CONTINUOUS
 62
     1
 10
 8.61915738209791E+0000
 20
 1.99558395724671E+0000
 11
 8.57917953650758E+0000
 21
 1.95560611165638E+0000
  0
LINE
  8
1
  6
CONTINUOUS
 62
     1
 10
 8.59422490303405E+0000
 20
 1.99038392450166E+0000
 11
 8.56232345353055E+0000
 21
 1.95848247499271E+0000
  0
LINE
  8
1
  6
CONTINUOUS
 62
     1
 10
 8.56929242398473E+0000
 20
 1.98518389176206E+0000
 11
 8.54546737055352E+0000
 21
 1.96135883833449E+0000
  0
LINE
  8
1
  6
CONTINUOUS
 62
     1
 10
 8.54435994493542E+0000
 20
 1.97998385902065E+0000
 11
 8.52861128757650E+0000
 21
 1.96423520167082E+0000
  0
LINE
  8
1
  6
CONTINUOUS
 62
     1
 10
 8.51942746587156E+0000
 20
 1.97478382627560E+0000
 11
 8.51175520461402E+0000
 21
 1.96711156501260E+0000
  0
LINE
  8
1
  6
CONTINUOUS
 62
     1
 10
 8.12248626007931E+0000
 20
 1.97086689518619E+0000
 11
 8.12248626007931E+0000
 21
 1.97086689518619E+0000
  0
LINE
  8
1
  6
CONTINUOUS
 62
     1
 10
 8.12248626007931E+0000
 20
 1.97086689518619E+0000
 11
 7.96319693343685E+0000
 21
 1.99804841654986E+0000
  0
LINE
  8
1
  6
CONTINUOUS
 62
     1
 10
 7.96319693343685E+0000
 20
 1.99804841654986E+0000
 11
 7.96319693343685E+0000
 21
 1.93764477907825E+0000
  0
LINE
  8
1
  6
CONTINUOUS
 62
     1
 10
 7.96319693343685E+0000
 20
 1.93764477907825E+0000
 11
 8.12248626007931E+0000
 21
 1.97086689518619E+0000
  0
LINE
  8
1
  6
CONTINUOUS
 62
     1
 10
 7.96319693343685E+0000
 20
 1.99804841654986E+0000
 11
 7.96319693343685E+0000
 21
 1.93764477907825E+0000
  0
LINE
  8
1
  6
CONTINUOUS
 62
     1
 10
 7.97136052112182E+0000
 20
 1.93934741454905E+0000
 11
 7.96319693344412E+0000
 21
 1.94751100223220E+0000
  0
LINE
  8
1
  6
CONTINUOUS
 62
     1
 10
 7.98768769649178E+0000
 20
 1.94275268549245E+0000
 11
 7.96319693344412E+0000
 21
 1.96724344854192E+0000
  0
LINE
  8
1
  6
CONTINUOUS
 62
     1
 10
 8.00401487185445E+0000
 20
 1.94615795643767E+0000
 11
 7.96319693344412E+0000
 21
 1.98697589485346E+0000
  0
LINE
  8
1
  6
CONTINUOUS
 62
     1
 10
 8.02034204722440E+0000
 20
 1.94956322738290E+0000
 11
 7.97363865985972E+0000
 21
 1.99626661474940E+0000
  0
LINE
  8
1
  6
CONTINUOUS
 62
     1
 10
 8.03666922259436E+0000
 20
 1.95296849832812E+0000
 11
 7.99743110784766E+0000
 21
 1.99220661307118E+0000
  0
LINE
  8
1
  6
CONTINUOUS
 62
     1
 10
 8.05299639796431E+0000
 20
 1.95637376926788E+0000
 11
 8.02122355582833E+0000
 21
 1.98814661139477E+0000
  0
LINE
  8
1
  6
CONTINUOUS
 62
     1
 10
 8.06932357331971E+0000
 20
 1.95977904021311E+0000
 11
 8.04501600381627E+0000
 21
 1.98408660971654E+0000
  0
LINE
  8
1
  6
CONTINUOUS
 62
     1
 10
 8.08565074868966E+0000
 20
 1.96318431115833E+0000
 11
 8.06880845181877E+0000
 21
 1.98002660803832E+0000
  0
LINE
  8
1
  6
CONTINUOUS
 62
     1
 10
 8.10197792405961E+0000
 20
 1.96658958210355E+0000
 11
 8.09260089980671E+0000
 21
 1.97596660636009E+0000
  0
LINE
  8
1
  6
CONTINUOUS
 62
     1
 10
 8.11830509942956E+0000
 20
 1.96999485304877E+0000
 11
 8.11639334779466E+0000
 21
 1.97190660468368E+0000
  0
LINE
  8
1
  6
CONTINUOUS
 62
     1
 10
 8.11405821859080E+0000
 20
 1.97230507685526E+0000
 11
 8.11002002054011E+0000
 21
 1.96826687881367E+0000
  0
LINE
  8
1
  6
CONTINUOUS
 62
     1
 10
 8.09720213561377E+0000
 20
 1.97518144019159E+0000
 11
 8.08508754149079E+0000
 21
 1.96306684606861E+0000
  0
LINE
  8
1
  6
CONTINUOUS
 62
     1
 10
 8.08034605263674E+0000
 20
 1.97805780353156E+0000
 11
 8.06015506244148E+0000
 21
 1.95786681332902E+0000
  0
LINE
  8
1
  6
CONTINUOUS
 62
     1
 10
 8.06348996965971E+0000
 20
 1.98093416686788E+0000
 11
 8.03522258337762E+0000
 21
 1.95266678058397E+0000
  0
LINE
  8
1
  6
CONTINUOUS
 62
     1
 10
 8.04663388669724E+0000
 20
 1.98381053020967E+0000
 11
 8.01029010432831E+0000
 21
 1.94746674784437E+0000
  0
LINE
  8
1
  6
CONTINUOUS
 62
     1
 10
 8.02977780372021E+0000
 20
 1.98668689354599E+0000
 11
 7.98535762527899E+0000
 21
 1.94226671510296E+0000
  0
LINE
  8
1
  6
CONTINUOUS
 62
     1
 10
 8.01292172074318E+0000
 20
 1.98956325688232E+0000
 11
 7.96319693342957E+0000
 21
 1.93983846956871E+0000
  0
LINE
  8
1
  6
CONTINUOUS
 62
     1
 10
 7.99606563778070E+0000
 20
 1.99243962022410E+0000
 11
 7.96319693342957E+0000
 21
 1.95957091587843E+0000
  0
LINE
  8
1
  6
CONTINUOUS
 62
     1
 10
 7.97920955480367E+0000
 20
 1.99531598356043E+0000
 11
 7.96319693342957E+0000
 21
 1.97930336218451E+0000
  0
LINE
  8
1
  6
CONTINUOUS
 62
     1
 10
 8.12248626007931E+0000
 20
 1.97086689518619E+0000
 11
 8.12248626007931E+0000
 21
 1.97086689518619E+0000
  0
LINE
  8
1
  6
CONTINUOUS
 62
     1
 10
 8.12248626007931E+0000
 20
 1.97086689518619E+0000
 11
 7.96319693343685E+0000
 21
 1.99804841654986E+0000
  0
LINE
  8
1
  6
CONTINUOUS
 62
     1
 10
 7.96319693343685E+0000
 20
 1.99804841654986E+0000
 11
 7.96319693343685E+0000
 21
 1.93764477907825E+0000
  0
LINE
  8
1
  6
CONTINUOUS
 62
     1
 10
 7.96319693343685E+0000
 20
 1.93764477907825E+0000
 11
 8.12248626007931E+0000
 21
 1.97086689518619E+0000
  0
LINE
  8
1
  6
CONTINUOUS
 62
     1
 10
 7.96319693343685E+0000
 20
 1.99804841654986E+0000
 11
 7.96319693343685E+0000
 21
 1.93764477907825E+0000
  0
LINE
  8
1
  6
CONTINUOUS
 62
     1
 10
 7.97136052112182E+0000
 20
 1.93934741454905E+0000
 11
 7.96319693344412E+0000
 21
 1.94751100223220E+0000
  0
LINE
  8
1
  6
CONTINUOUS
 62
     1
 10
 7.98768769649178E+0000
 20
 1.94275268549245E+0000
 11
 7.96319693344412E+0000
 21
 1.96724344854192E+0000
  0
LINE
  8
1
  6
CONTINUOUS
 62
     1
 10
 8.00401487185445E+0000
 20
 1.94615795643767E+0000
 11
 7.96319693344412E+0000
 21
 1.98697589485346E+0000
  0
LINE
  8
1
  6
CONTINUOUS
 62
     1
 10
 8.02034204722440E+0000
 20
 1.94956322738290E+0000
 11
 7.97363865985972E+0000
 21
 1.99626661474940E+0000
  0
LINE
  8
1
  6
CONTINUOUS
 62
     1
 10
 8.03666922259436E+0000
 20
 1.95296849832812E+0000
 11
 7.99743110784766E+0000
 21
 1.99220661307118E+0000
  0
LINE
  8
1
  6
CONTINUOUS
 62
     1
 10
 8.05299639796431E+0000
 20
 1.95637376926788E+0000
 11
 8.02122355582833E+0000
 21
 1.98814661139477E+0000
  0
LINE
  8
1
  6
CONTINUOUS
 62
     1
 10
 8.06932357331971E+0000
 20
 1.95977904021311E+0000
 11
 8.04501600381627E+0000
 21
 1.98408660971654E+0000
  0
LINE
  8
1
  6
CONTINUOUS
 62
     1
 10
 8.08565074868966E+0000
 20
 1.96318431115833E+0000
 11
 8.06880845181877E+0000
 21
 1.98002660803832E+0000
  0
LINE
  8
1
  6
CONTINUOUS
 62
     1
 10
 8.10197792405961E+0000
 20
 1.96658958210355E+0000
 11
 8.09260089980671E+0000
 21
 1.97596660636009E+0000
  0
LINE
  8
1
  6
CONTINUOUS
 62
     1
 10
 8.11830509942956E+0000
 20
 1.96999485304877E+0000
 11
 8.11639334779466E+0000
 21
 1.97190660468368E+0000
  0
LINE
  8
1
  6
CONTINUOUS
 62
     1
 10
 8.11405821859080E+0000
 20
 1.97230507685526E+0000
 11
 8.11002002054011E+0000
 21
 1.96826687881367E+0000
  0
LINE
  8
1
  6
CONTINUOUS
 62
     1
 10
 8.09720213561377E+0000
 20
 1.97518144019159E+0000
 11
 8.08508754149079E+0000
 21
 1.96306684606861E+0000
  0
LINE
  8
1
  6
CONTINUOUS
 62
     1
 10
 8.08034605263674E+0000
 20
 1.97805780353156E+0000
 11
 8.06015506244148E+0000
 21
 1.95786681332902E+0000
  0
LINE
  8
1
  6
CONTINUOUS
 62
     1
 10
 8.06348996965971E+0000
 20
 1.98093416686788E+0000
 11
 8.03522258337762E+0000
 21
 1.95266678058397E+0000
  0
LINE
  8
1
  6
CONTINUOUS
 62
     1
 10
 8.04663388669724E+0000
 20
 1.98381053020967E+0000
 11
 8.01029010432831E+0000
 21
 1.94746674784437E+0000
  0
LINE
  8
1
  6
CONTINUOUS
 62
     1
 10
 8.02977780372021E+0000
 20
 1.98668689354599E+0000
 11
 7.98535762527899E+0000
 21
 1.94226671510296E+0000
  0
LINE
  8
1
  6
CONTINUOUS
 62
     1
 10
 8.01292172074318E+0000
 20
 1.98956325688232E+0000
 11
 7.96319693342957E+0000
 21
 1.93983846956871E+0000
  0
LINE
  8
1
  6
CONTINUOUS
 62
     1
 10
 7.99606563778070E+0000
 20
 1.99243962022410E+0000
 11
 7.96319693342957E+0000
 21
 1.95957091587843E+0000
  0
LINE
  8
1
  6
CONTINUOUS
 62
     1
 10
 7.97920955480367E+0000
 20
 1.99531598356043E+0000
 11
 7.96319693342957E+0000
 21
 1.97930336218451E+0000
  0
LINE
  8
1
  6
CONTINUOUS
 62
     1
 10
 7.97784081540158E+0000
 20
 2.20287815386837E+0000
 11
 7.97784081540158E+0000
 21
 2.20287815386837E+0000
  0
LINE
  8
1
  6
CONTINUOUS
 62
     1
 10
 7.97784081540158E+0000
 20
 2.20287815386837E+0000
 11
 8.13713014205860E+0000
 21
 2.17569663250470E+0000
  0
LINE
  8
1
  6
CONTINUOUS
 62
     1
 10
 8.13713014205860E+0000
 20
 2.17569663250470E+0000
 11
 8.13713014205860E+0000
 21
 2.23610026997630E+0000
  0
LINE
  8
1
  6
CONTINUOUS
 62
     1
 10
 8.13713014205860E+0000
 20
 2.23610026997630E+0000
 11
 7.97784081540158E+0000
 21
 2.20287815386837E+0000
  0
LINE
  8
1
  6
CONTINUOUS
 62
     1
 10
 8.13713014205860E+0000
 20
 2.17569663250470E+0000
 11
 8.13713014205860E+0000
 21
 2.23610026997630E+0000
  0
LINE
  8
1
  6
CONTINUOUS
 62
     1
 10
 7.98973703939555E+0000
 20
 2.20084815302471E+0000
 11
 7.98600440308655E+0000
 21
 2.20458078933734E+0000
  0
LINE
  8
1
  6
CONTINUOUS
 62
     1
 10
 8.01352948737622E+0000
 20
 2.19678815135194E+0000
 11
 8.00233157844923E+0000
 21
 2.20798606028256E+0000
  0
LINE
  8
1
  6
CONTINUOUS
 62
     1
 10
 8.03732193537871E+0000
 20
 2.19272814967553E+0000
 11
 8.01865875381918E+0000
 21
 2.21139133122779E+0000
  0
LINE
  8
1
  6
CONTINUOUS
 62
     1
 10
 8.06111438335211E+0000
 20
 2.18866814800276E+0000
 11
 8.03498592918913E+0000
 21
 2.21479660217301E+0000
  0
LINE
  8
1
  6
CONTINUOUS
 62
     1
 10
 8.08490683134005E+0000
 20
 2.18460814632635E+0000
 11
 8.05131310455909E+0000
 21
 2.21820187311823E+0000
  0
LINE
  8
1
  6
CONTINUOUS
 62
     1
 10
 8.10869927932799E+0000
 20
 2.18054814465359E+0000
 11
 8.06764027991449E+0000
 21
 2.22160714406346E+0000
  0
LINE
  8
1
  6
CONTINUOUS
 62
     1
 10
 8.13249172731594E+0000
 20
 2.17648814297354E+0000
 11
 8.08396745528444E+0000
 21
 2.22501241500868E+0000
  0
LINE
  8
1
  6
CONTINUOUS
 62
     1
 10
 8.13713014205860E+0000
 20
 2.19158217453878E+0000
 11
 8.10029463065439E+0000
 21
 2.22841768594662E+0000
  0
LINE
  8
1
  6
CONTINUOUS
 62
     1
 10
 8.13713014205860E+0000
 20
 2.21131462085395E+0000
 11
 8.11662180602434E+0000
 21
 2.23182295689185E+0000
  0
LINE
  8
1
  6
CONTINUOUS
 62
     1
 10
 8.13713014205860E+0000
 20
 2.23104706716549E+0000
 11
 8.13294898139429E+0000
 21
 2.23522822783707E+0000
  0
LINE
  8
1
  6
CONTINUOUS
 62
     1
 10
 8.13713014204404E+0000
 20
 2.18556285565501E+0000
 11
 8.12870210057008E+0000
 21
 2.17713481417013E+0000
  0
LINE
  8
1
  6
CONTINUOUS
 62
     1
 10
 8.13713014204404E+0000
 20
 2.20529530196654E+0000
 11
 8.11184601759305E+0000
 21
 2.18001117750828E+0000
  0
LINE
  8
1
  6
CONTINUOUS
 62
     1
 10
 8.13713014204404E+0000
 20
 2.22502774827808E+0000
 11
 8.09498993461602E+0000
 21
 2.18288754085006E+0000
  0
LINE
  8
1
  6
CONTINUOUS
 62
     1
 10
 8.12618809331616E+0000
 20
 2.23381814586173E+0000
 11
 8.07813385163900E+0000
 21
 2.18576390418457E+0000
  0
LINE
  8
1
  6
CONTINUOUS
 62
     1
 10
 8.10125561426685E+0000
 20
 2.22861811312396E+0000
 11
 8.06127776867652E+0000
 21
 2.18864026752271E+0000
  0
LINE
  8
1
  6
CONTINUOUS
 62
     1
 10
 8.07632313521754E+0000
 20
 2.22341808037891E+0000
 11
 8.04442168569949E+0000
 21
 2.19151663086450E+0000
  0
LINE
  8
1
  6
CONTINUOUS
 62
     1
 10
 8.05139065616822E+0000
 20
 2.21821804763749E+0000
 11
 8.02756560272246E+0000
 21
 2.19439299419901E+0000
  0
LINE
  8
1
  6
CONTINUOUS
 62
     1
 10
 8.02645817710436E+0000
 20
 2.21301801489244E+0000
 11
 8.01070951975998E+0000
 21
 2.19726935754079E+0000
  0
LINE
  8
1
  6
CONTINUOUS
 62
     1
 10
 8.00152569805505E+0000
 20
 2.20781798215103E+0000
 11
 7.99385343678296E+0000
 21
 2.20014572087894E+0000
  0
LINE
  8
1
  6
CONTINUOUS
 62
     1
 10
 7.97784081540158E+0000
 20
 2.20287815386837E+0000
 11
 7.97784081540158E+0000
 21
 2.20287815386837E+0000
  0
LINE
  8
1
  6
CONTINUOUS
 62
     1
 10
 7.97784081540158E+0000
 20
 2.20287815386837E+0000
 11
 8.13713014205860E+0000
 21
 2.17569663250470E+0000
  0
LINE
  8
1
  6
CONTINUOUS
 62
     1
 10
 8.13713014205860E+0000
 20
 2.17569663250470E+0000
 11
 8.13713014205860E+0000
 21
 2.23610026997630E+0000
  0
LINE
  8
1
  6
CONTINUOUS
 62
     1
 10
 8.13713014205860E+0000
 20
 2.23610026997630E+0000
 11
 7.97784081540158E+0000
 21
 2.20287815386837E+0000
  0
LINE
  8
1
  6
CONTINUOUS
 62
     1
 10
 8.13713014205860E+0000
 20
 2.17569663250470E+0000
 11
 8.13713014205860E+0000
 21
 2.23610026997630E+0000
  0
LINE
  8
1
  6
CONTINUOUS
 62
     1
 10
 7.98973703939555E+0000
 20
 2.20084815302471E+0000
 11
 7.98600440308655E+0000
 21
 2.20458078933734E+0000
  0
LINE
  8
1
  6
CONTINUOUS
 62
     1
 10
 8.01352948737622E+0000
 20
 2.19678815135194E+0000
 11
 8.00233157844923E+0000
 21
 2.20798606028256E+0000
  0
LINE
  8
1
  6
CONTINUOUS
 62
     1
 10
 8.03732193537871E+0000
 20
 2.19272814967553E+0000
 11
 8.01865875381918E+0000
 21
 2.21139133122779E+0000
  0
LINE
  8
1
  6
CONTINUOUS
 62
     1
 10
 8.06111438335211E+0000
 20
 2.18866814800276E+0000
 11
 8.03498592918913E+0000
 21
 2.21479660217301E+0000
  0
LINE
  8
1
  6
CONTINUOUS
 62
     1
 10
 8.08490683134005E+0000
 20
 2.18460814632635E+0000
 11
 8.05131310455909E+0000
 21
 2.21820187311823E+0000
  0
LINE
  8
1
  6
CONTINUOUS
 62
     1
 10
 8.10869927932799E+0000
 20
 2.18054814465359E+0000
 11
 8.06764027991449E+0000
 21
 2.22160714406346E+0000
  0
LINE
  8
1
  6
CONTINUOUS
 62
     1
 10
 8.13249172731594E+0000
 20
 2.17648814297354E+0000
 11
 8.08396745528444E+0000
 21
 2.22501241500868E+0000
  0
LINE
  8
1
  6
CONTINUOUS
 62
     1
 10
 8.13713014205860E+0000
 20
 2.19158217453878E+0000
 11
 8.10029463065439E+0000
 21
 2.22841768594662E+0000
  0
LINE
  8
1
  6
CONTINUOUS
 62
     1
 10
 8.13713014205860E+0000
 20
 2.21131462085395E+0000
 11
 8.11662180602434E+0000
 21
 2.23182295689185E+0000
  0
LINE
  8
1
  6
CONTINUOUS
 62
     1
 10
 8.13713014205860E+0000
 20
 2.23104706716549E+0000
 11
 8.13294898139429E+0000
 21
 2.23522822783707E+0000
  0
LINE
  8
1
  6
CONTINUOUS
 62
     1
 10
 8.13713014204404E+0000
 20
 2.18556285565501E+0000
 11
 8.12870210057008E+0000
 21
 2.17713481417013E+0000
  0
LINE
  8
1
  6
CONTINUOUS
 62
     1
 10
 8.13713014204404E+0000
 20
 2.20529530196654E+0000
 11
 8.11184601759305E+0000
 21
 2.18001117750828E+0000
  0
LINE
  8
1
  6
CONTINUOUS
 62
     1
 10
 8.13713014204404E+0000
 20
 2.22502774827808E+0000
 11
 8.09498993461602E+0000
 21
 2.18288754085006E+0000
  0
LINE
  8
1
  6
CONTINUOUS
 62
     1
 10
 8.12618809331616E+0000
 20
 2.23381814586173E+0000
 11
 8.07813385163900E+0000
 21
 2.18576390418457E+0000
  0
LINE
  8
1
  6
CONTINUOUS
 62
     1
 10
 8.10125561426685E+0000
 20
 2.22861811312396E+0000
 11
 8.06127776867652E+0000
 21
 2.18864026752271E+0000
  0
LINE
  8
1
  6
CONTINUOUS
 62
     1
 10
 8.07632313521754E+0000
 20
 2.22341808037891E+0000
 11
 8.04442168569949E+0000
 21
 2.19151663086450E+0000
  0
LINE
  8
1
  6
CONTINUOUS
 62
     1
 10
 8.05139065616822E+0000
 20
 2.21821804763749E+0000
 11
 8.02756560272246E+0000
 21
 2.19439299419901E+0000
  0
LINE
  8
1
  6
CONTINUOUS
 62
     1
 10
 8.02645817710436E+0000
 20
 2.21301801489244E+0000
 11
 8.01070951975998E+0000
 21
 2.19726935754079E+0000
  0
LINE
  8
1
  6
CONTINUOUS
 62
     1
 10
 8.00152569805505E+0000
 20
 2.20781798215103E+0000
 11
 7.99385343678296E+0000
 21
 2.20014572087894E+0000
  0
LINE
  8
1
  6
CONTINUOUS
 62
     1
 10
 7.67958804215596E+0000
 20
 2.20592137423955E+0000
 11
 7.67958804215596E+0000
 21
 2.20592137423955E+0000
  0
LINE
  8
1
  6
CONTINUOUS
 62
     1
 10
 7.67958804215596E+0000
 20
 2.20592137423955E+0000
 11
 7.52029871552077E+0000
 21
 2.23310289560322E+0000
  0
LINE
  8
1
  6
CONTINUOUS
 62
     1
 10
 7.52029871552077E+0000
 20
 2.23310289560322E+0000
 11
 7.52029871552077E+0000
 21
 2.17269925813162E+0000
  0
LINE
  8
1
  6
CONTINUOUS
 62
     1
 10
 7.52029871552077E+0000
 20
 2.17269925813162E+0000
 11
 7.67958804215596E+0000
 21
 2.20592137423955E+0000
  0
LINE
  8
1
  6
CONTINUOUS
 62
     1
 10
 7.52029871552077E+0000
 20
 2.23310289560322E+0000
 11
 7.52029871552077E+0000
 21
 2.17269925813162E+0000
  0
LINE
  8
1
  6
CONTINUOUS
 62
     1
 10
 7.52846230320574E+0000
 20
 2.17440189360423E+0000
 11
 7.52029871552077E+0000
 21
 2.18256548128556E+0000
  0
LINE
  8
1
  6
CONTINUOUS
 62
     1
 10
 7.54478947856842E+0000
 20
 2.17780716454945E+0000
 11
 7.52029871552077E+0000
 21
 2.20229792759710E+0000
  0
LINE
  8
1
  6
CONTINUOUS
 62
     1
 10
 7.56111665393837E+0000
 20
 2.18121243549467E+0000
 11
 7.52029871552804E+0000
 21
 2.22203037390500E+0000
  0
LINE
  8
1
  6
CONTINUOUS
 62
     1
 10
 7.57744382930832E+0000
 20
 2.18461770643626E+0000
 11
 7.53074044194364E+0000
 21
 2.23132109380094E+0000
  0
LINE
  8
1
  6
CONTINUOUS
 62
     1
 10
 7.59377100467100E+0000
 20
 2.18802297738148E+0000
 11
 7.55453288993158E+0000
 21
 2.22726109212454E+0000
  0
LINE
  8
1
  6
CONTINUOUS
 62
     1
 10
 7.61009818004095E+0000
 20
 2.19142824832670E+0000
 11
 7.57832533791952E+0000
 21
 2.22320109044813E+0000
  0
LINE
  8
1
  6
CONTINUOUS
 62
     1
 10
 7.62642535540363E+0000
 20
 2.19483351927192E+0000
 11
 7.60211778590747E+0000
 21
 2.21914108876808E+0000
  0
LINE
  8
1
  6
CONTINUOUS
 62
     1
 10
 7.64275253077358E+0000
 20
 2.19823879021715E+0000
 11
 7.62591023389541E+0000
 21
 2.21508108709168E+0000
  0
LINE
  8
1
  6
CONTINUOUS
 62
     1
 10
 7.65907970613625E+0000
 20
 2.20164406115873E+0000
 11
 7.64970268188335E+0000
 21
 2.21102108541527E+0000
  0
LINE
  8
1
  6
CONTINUOUS
 62
     1
 10
 7.67540688150621E+0000
 20
 2.20504933210395E+0000
 11
 7.67349512987130E+0000
 21
 2.20696108373522E+0000
  0
LINE
  8
1
  6
CONTINUOUS
 62
     1
 10
 7.67116000066017E+0000
 20
 2.20735955590499E+0000
 11
 7.66712180262402E+0000
 21
 2.20332135786521E+0000
  0
LINE
  8
1
  6
CONTINUOUS
 62
     1
 10
 7.65430391769041E+0000
 20
 2.21023591924313E+0000
 11
 7.64218932356744E+0000
 21
 2.19812132512379E+0000
  0
LINE
  8
1
  6
CONTINUOUS
 62
     1
 10
 7.63744783472066E+0000
 20
 2.21311228258492E+0000
 11
 7.61725684451085E+0000
 21
 2.19292129237874E+0000
  0
LINE
  8
1
  6
CONTINUOUS
 62
     1
 10
 7.62059175174363E+0000
 20
 2.21598864591942E+0000
 11
 7.59232436546154E+0000
 21
 2.18772125964097E+0000
  0
LINE
  8
1
  6
CONTINUOUS
 62
     1
 10
 7.60373566877388E+0000
 20
 2.21886500926121E+0000
 11
 7.56739188641222E+0000
 21
 2.18252122689955E+0000
  0
LINE
  8
1
  6
CONTINUOUS
 62
     1
 10
 7.58687958579685E+0000
 20
 2.22174137259572E+0000
 11
 7.54245940735564E+0000
 21
 2.17732119415450E+0000
  0
LINE
  8
1
  6
CONTINUOUS
 62
     1
 10
 7.57002350282710E+0000
 20
 2.22461773593750E+0000
 11
 7.52029871551349E+0000
 21
 2.17489294862389E+0000
  0
LINE
  8
1
  6
CONTINUOUS
 62
     1
 10
 7.55316741985735E+0000
 20
 2.22749409927565E+0000
 11
 7.52029871551349E+0000
 21
 2.19462539493543E+0000
  0
LINE
  8
1
  6
CONTINUOUS
 62
     1
 10
 7.53631133688759E+0000
 20
 2.23037046261743E+0000
 11
 7.52029871551349E+0000
 21
 2.21435784124697E+0000
  0
LINE
  8
1
  6
CONTINUOUS
 62
     1
 10
 7.67958804215596E+0000
 20
 2.20592137423955E+0000
 11
 7.67958804215596E+0000
 21
 2.20592137423955E+0000
  0
LINE
  8
1
  6
CONTINUOUS
 62
     1
 10
 7.67958804215596E+0000
 20
 2.20592137423955E+0000
 11
 7.52029871552077E+0000
 21
 2.23310289560322E+0000
  0
LINE
  8
1
  6
CONTINUOUS
 62
     1
 10
 7.52029871552077E+0000
 20
 2.23310289560322E+0000
 11
 7.52029871552077E+0000
 21
 2.17269925813162E+0000
  0
LINE
  8
1
  6
CONTINUOUS
 62
     1
 10
 7.52029871552077E+0000
 20
 2.17269925813162E+0000
 11
 7.67958804215596E+0000
 21
 2.20592137423955E+0000
  0
LINE
  8
1
  6
CONTINUOUS
 62
     1
 10
 7.52029871552077E+0000
 20
 2.23310289560322E+0000
 11
 7.52029871552077E+0000
 21
 2.17269925813162E+0000
  0
LINE
  8
1
  6
CONTINUOUS
 62
     1
 10
 7.52846230320574E+0000
 20
 2.17440189360423E+0000
 11
 7.52029871552077E+0000
 21
 2.18256548128556E+0000
  0
LINE
  8
1
  6
CONTINUOUS
 62
     1
 10
 7.54478947856842E+0000
 20
 2.17780716454945E+0000
 11
 7.52029871552077E+0000
 21
 2.20229792759710E+0000
  0
LINE
  8
1
  6
CONTINUOUS
 62
     1
 10
 7.56111665393837E+0000
 20
 2.18121243549467E+0000
 11
 7.52029871552804E+0000
 21
 2.22203037390500E+0000
  0
LINE
  8
1
  6
CONTINUOUS
 62
     1
 10
 7.57744382930832E+0000
 20
 2.18461770643626E+0000
 11
 7.53074044194364E+0000
 21
 2.23132109380094E+0000
  0
LINE
  8
1
  6
CONTINUOUS
 62
     1
 10
 7.59377100467100E+0000
 20
 2.18802297738148E+0000
 11
 7.55453288993158E+0000
 21
 2.22726109212454E+0000
  0
LINE
  8
1
  6
CONTINUOUS
 62
     1
 10
 7.61009818004095E+0000
 20
 2.19142824832670E+0000
 11
 7.57832533791952E+0000
 21
 2.22320109044813E+0000
  0
LINE
  8
1
  6
CONTINUOUS
 62
     1
 10
 7.62642535540363E+0000
 20
 2.19483351927192E+0000
 11
 7.60211778590747E+0000
 21
 2.21914108876808E+0000
  0
LINE
  8
1
  6
CONTINUOUS
 62
     1
 10
 7.64275253077358E+0000
 20
 2.19823879021715E+0000
 11
 7.62591023389541E+0000
 21
 2.21508108709168E+0000
  0
LINE
  8
1
  6
CONTINUOUS
 62
     1
 10
 7.65907970613625E+0000
 20
 2.20164406115873E+0000
 11
 7.64970268188335E+0000
 21
 2.21102108541527E+0000
  0
LINE
  8
1
  6
CONTINUOUS
 62
     1
 10
 7.67540688150621E+0000
 20
 2.20504933210395E+0000
 11
 7.67349512987130E+0000
 21
 2.20696108373522E+0000
  0
LINE
  8
1
  6
CONTINUOUS
 62
     1
 10
 7.67116000066017E+0000
 20
 2.20735955590499E+0000
 11
 7.66712180262402E+0000
 21
 2.20332135786521E+0000
  0
LINE
  8
1
  6
CONTINUOUS
 62
     1
 10
 7.65430391769041E+0000
 20
 2.21023591924313E+0000
 11
 7.64218932356744E+0000
 21
 2.19812132512379E+0000
  0
LINE
  8
1
  6
CONTINUOUS
 62
     1
 10
 7.63744783472066E+0000
 20
 2.21311228258492E+0000
 11
 7.61725684451085E+0000
 21
 2.19292129237874E+0000
  0
LINE
  8
1
  6
CONTINUOUS
 62
     1
 10
 7.62059175174363E+0000
 20
 2.21598864591942E+0000
 11
 7.59232436546154E+0000
 21
 2.18772125964097E+0000
  0
LINE
  8
1
  6
CONTINUOUS
 62
     1
 10
 7.60373566877388E+0000
 20
 2.21886500926121E+0000
 11
 7.56739188641222E+0000
 21
 2.18252122689955E+0000
  0
LINE
  8
1
  6
CONTINUOUS
 62
     1
 10
 7.58687958579685E+0000
 20
 2.22174137259572E+0000
 11
 7.54245940735564E+0000
 21
 2.17732119415450E+0000
  0
LINE
  8
1
  6
CONTINUOUS
 62
     1
 10
 7.57002350282710E+0000
 20
 2.22461773593750E+0000
 11
 7.52029871551349E+0000
 21
 2.17489294862389E+0000
  0
LINE
  8
1
  6
CONTINUOUS
 62
     1
 10
 7.55316741985735E+0000
 20
 2.22749409927565E+0000
 11
 7.52029871551349E+0000
 21
 2.19462539493543E+0000
  0
LINE
  8
1
  6
CONTINUOUS
 62
     1
 10
 7.53631133688759E+0000
 20
 2.23037046261743E+0000
 11
 7.52029871551349E+0000
 21
 2.21435784124697E+0000
  0
LINE
  8
1
  6
CONTINUOUS
 62
     1
 10
 8.04432775103487E+0000
 20
 6.15831891088601E+0000
 11
 8.04432775103487E+0000
 21
 6.15831891088601E+0000
  0
LINE
  8
1
  6
CONTINUOUS
 62
     1
 10
 8.04432775103487E+0000
 20
 6.15831891088601E+0000
 11
 7.88503842439241E+0000
 21
 6.18550043224968E+0000
  0
LINE
  8
1
  6
CONTINUOUS
 62
     1
 10
 7.88503842439241E+0000
 20
 6.18550043224968E+0000
 11
 7.88503842439241E+0000
 21
 6.12509679477807E+0000
  0
LINE
  8
1
  6
CONTINUOUS
 62
     1
 10
 7.88503842439241E+0000
 20
 6.12509679477807E+0000
 11
 8.04432775103487E+0000
 21
 6.15831891088601E+0000
  0
LINE
  8
1
  6
CONTINUOUS
 62
     1
 10
 7.88503842439241E+0000
 20
 6.18550043224968E+0000
 11
 7.88503842439241E+0000
 21
 6.12509679477807E+0000
  0
LINE
  8
1
  6
CONTINUOUS
 62
     1
 10
 7.89320201209193E+0000
 20
 6.12679943025432E+0000
 11
 7.88503842439968E+0000
 21
 6.13496301794657E+0000
  0
LINE
  8
1
  6
CONTINUOUS
 62
     1
 10
 7.90952918745461E+0000
 20
 6.13020470119955E+0000
 11
 7.88503842439968E+0000
 21
 6.15469546426175E+0000
  0
LINE
  8
1
  6
CONTINUOUS
 62
     1
 10
 7.92585636282456E+0000
 20
 6.13360997214477E+0000
 11
 7.88503842439241E+0000
 21
 6.17442791056965E+0000
  0
LINE
  8
1
  6
CONTINUOUS
 62
     1
 10
 7.94218353818724E+0000
 20
 6.13701524308999E+0000
 11
 7.89548015083710E+0000
 21
 6.18371863044013E+0000
  0
LINE
  8
1
  6
CONTINUOUS
 62
     1
 10
 7.95851071355719E+0000
 20
 6.14042051403521E+0000
 11
 7.91927259882505E+0000
 21
 6.17965862876736E+0000
  0
LINE
  8
1
  6
CONTINUOUS
 62
     1
 10
 7.97483788892714E+0000
 20
 6.14382578498044E+0000
 11
 7.94306504681299E+0000
 21
 6.17559862708731E+0000
  0
LINE
  8
1
  6
CONTINUOUS
 62
     1
 10
 7.99116506428982E+0000
 20
 6.14723105591838E+0000
 11
 7.96685749480093E+0000
 21
 6.17153862541454E+0000
  0
LINE
  8
1
  6
CONTINUOUS
 62
     1
 10
 8.00749223965977E+0000
 20
 6.15063632686361E+0000
 11
 7.99064994278888E+0000
 21
 6.16747862373450E+0000
  0
LINE
  8
1
  6
CONTINUOUS
 62
     1
 10
 8.02381941502972E+0000
 20
 6.15404159780883E+0000
 11
 8.01444239077682E+0000
 21
 6.16341862206173E+0000
  0
LINE
  8
1
  6
CONTINUOUS
 62
     1
 10
 8.04014659038512E+0000
 20
 6.15744686875405E+0000
 11
 8.03823483876477E+0000
 21
 6.15935862038168E+0000
  0
LINE
  8
1
  6
CONTINUOUS
 62
     1
 10
 8.03589970954636E+0000
 20
 6.15975709255872E+0000
 11
 8.03186151151021E+0000
 21
 6.15571889451530E+0000
  0
LINE
  8
1
  6
CONTINUOUS
 62
     1
 10
 8.01904362658388E+0000
 20
 6.16263345589687E+0000
 11
 8.00692903246090E+0000
 21
 6.15051886177389E+0000
  0
LINE
  8
1
  6
CONTINUOUS
 62
     1
 10
 8.00218754359230E+0000
 20
 6.16550981922774E+0000
 11
 7.98199655339704E+0000
 21
 6.14531882902520E+0000
  0
LINE
  8
1
  6
CONTINUOUS
 62
     1
 10
 7.98533146062982E+0000
 20
 6.16838618257316E+0000
 11
 7.95706407434045E+0000
 21
 6.14011879628379E+0000
  0
LINE
  8
1
  6
CONTINUOUS
 62
     1
 10
 7.96847537766007E+0000
 20
 6.17126254591130E+0000
 11
 7.93213159529114E+0000
 21
 6.13491876354237E+0000
  0
LINE
  8
1
  6
CONTINUOUS
 62
     1
 10
 7.95161929469032E+0000
 20
 6.17413890925673E+0000
 11
 7.90719911622728E+0000
 21
 6.12971873079368E+0000
  0
LINE
  8
1
  6
CONTINUOUS
 62
     1
 10
 7.93476321170601E+0000
 20
 6.17701527258760E+0000
 11
 7.88503842438513E+0000
 21
 6.12729048525944E+0000
  0
LINE
  8
1
  6
CONTINUOUS
 62
     1
 10
 7.91790712873626E+0000
 20
 6.17989163592574E+0000
 11
 7.88503842438513E+0000
 21
 6.14702293156734E+0000
  0
LINE
  8
1
  6
CONTINUOUS
 62
     1
 10
 7.90105104577378E+0000
 20
 6.18276799926389E+0000
 11
 7.88503842438513E+0000
 21
 6.16675537788251E+0000
  0
LINE
  8
1
  6
CONTINUOUS
 62
     1
 10
 8.04432775103487E+0000
 20
 6.15831891088601E+0000
 11
 8.04432775103487E+0000
 21
 6.15831891088601E+0000
  0
LINE
  8
1
  6
CONTINUOUS
 62
     1
 10
 8.04432775103487E+0000
 20
 6.15831891088601E+0000
 11
 7.88503842439241E+0000
 21
 6.18550043224968E+0000
  0
LINE
  8
1
  6
CONTINUOUS
 62
     1
 10
 7.88503842439241E+0000
 20
 6.18550043224968E+0000
 11
 7.88503842439241E+0000
 21
 6.12509679477807E+0000
  0
LINE
  8
1
  6
CONTINUOUS
 62
     1
 10
 7.88503842439241E+0000
 20
 6.12509679477807E+0000
 11
 8.04432775103487E+0000
 21
 6.15831891088601E+0000
  0
LINE
  8
1
  6
CONTINUOUS
 62
     1
 10
 7.88503842439241E+0000
 20
 6.18550043224968E+0000
 11
 7.88503842439241E+0000
 21
 6.12509679477807E+0000
  0
LINE
  8
1
  6
CONTINUOUS
 62
     1
 10
 7.89320201209193E+0000
 20
 6.12679943025432E+0000
 11
 7.88503842439968E+0000
 21
 6.13496301794657E+0000
  0
LINE
  8
1
  6
CONTINUOUS
 62
     1
 10
 7.90952918745461E+0000
 20
 6.13020470119955E+0000
 11
 7.88503842439968E+0000
 21
 6.15469546426175E+0000
  0
LINE
  8
1
  6
CONTINUOUS
 62
     1
 10
 7.92585636282456E+0000
 20
 6.13360997214477E+0000
 11
 7.88503842439241E+0000
 21
 6.17442791056965E+0000
  0
LINE
  8
1
  6
CONTINUOUS
 62
     1
 10
 7.94218353818724E+0000
 20
 6.13701524308999E+0000
 11
 7.89548015083710E+0000
 21
 6.18371863044013E+0000
  0
LINE
  8
1
  6
CONTINUOUS
 62
     1
 10
 7.95851071355719E+0000
 20
 6.14042051403521E+0000
 11
 7.91927259882505E+0000
 21
 6.17965862876736E+0000
  0
LINE
  8
1
  6
CONTINUOUS
 62
     1
 10
 7.97483788892714E+0000
 20
 6.14382578498044E+0000
 11
 7.94306504681299E+0000
 21
 6.17559862708731E+0000
  0
LINE
  8
1
  6
CONTINUOUS
 62
     1
 10
 7.99116506428982E+0000
 20
 6.14723105591838E+0000
 11
 7.96685749480093E+0000
 21
 6.17153862541454E+0000
  0
LINE
  8
1
  6
CONTINUOUS
 62
     1
 10
 8.00749223965977E+0000
 20
 6.15063632686361E+0000
 11
 7.99064994278888E+0000
 21
 6.16747862373450E+0000
  0
LINE
  8
1
  6
CONTINUOUS
 62
     1
 10
 8.02381941502972E+0000
 20
 6.15404159780883E+0000
 11
 8.01444239077682E+0000
 21
 6.16341862206173E+0000
  0
LINE
  8
1
  6
CONTINUOUS
 62
     1
 10
 8.04014659038512E+0000
 20
 6.15744686875405E+0000
 11
 8.03823483876477E+0000
 21
 6.15935862038168E+0000
  0
LINE
  8
1
  6
CONTINUOUS
 62
     1
 10
 8.03589970954636E+0000
 20
 6.15975709255872E+0000
 11
 8.03186151151021E+0000
 21
 6.15571889451530E+0000
  0
LINE
  8
1
  6
CONTINUOUS
 62
     1
 10
 8.01904362658388E+0000
 20
 6.16263345589687E+0000
 11
 8.00692903246090E+0000
 21
 6.15051886177389E+0000
  0
LINE
  8
1
  6
CONTINUOUS
 62
     1
 10
 8.00218754359230E+0000
 20
 6.16550981922774E+0000
 11
 7.98199655339704E+0000
 21
 6.14531882902520E+0000
  0
LINE
  8
1
  6
CONTINUOUS
 62
     1
 10
 7.98533146062982E+0000
 20
 6.16838618257316E+0000
 11
 7.95706407434045E+0000
 21
 6.14011879628379E+0000
  0
LINE
  8
1
  6
CONTINUOUS
 62
     1
 10
 7.96847537766007E+0000
 20
 6.17126254591130E+0000
 11
 7.93213159529114E+0000
 21
 6.13491876354237E+0000
  0
LINE
  8
1
  6
CONTINUOUS
 62
     1
 10
 7.95161929469032E+0000
 20
 6.17413890925673E+0000
 11
 7.90719911622728E+0000
 21
 6.12971873079368E+0000
  0
LINE
  8
1
  6
CONTINUOUS
 62
     1
 10
 7.93476321170601E+0000
 20
 6.17701527258760E+0000
 11
 7.88503842438513E+0000
 21
 6.12729048525944E+0000
  0
LINE
  8
1
  6
CONTINUOUS
 62
     1
 10
 7.91790712873626E+0000
 20
 6.17989163592574E+0000
 11
 7.88503842438513E+0000
 21
 6.14702293156734E+0000
  0
LINE
  8
1
  6
CONTINUOUS
 62
     1
 10
 7.90105104577378E+0000
 20
 6.18276799926389E+0000
 11
 7.88503842438513E+0000
 21
 6.16675537788251E+0000
  0
LINE
  8
1
  6
CONTINUOUS
 62
     1
 10
 8.47854169017228E+0000
 20
 6.70677936201537E+0000
 11
 8.47854169017228E+0000
 21
 6.70677936201537E+0000
  0
LINE
  8
1
  6
CONTINUOUS
 62
     1
 10
 8.47854169017228E+0000
 20
 6.70677936201537E+0000
 11
 8.31925236353709E+0000
 21
 6.73396088337904E+0000
  0
LINE
  8
1
  6
CONTINUOUS
 62
     1
 10
 8.31925236353709E+0000
 20
 6.73396088337904E+0000
 11
 8.31925236353709E+0000
 21
 6.67355724590743E+0000
  0
LINE
  8
1
  6
CONTINUOUS
 62
     1
 10
 8.31925236353709E+0000
 20
 6.67355724590743E+0000
 11
 8.47854169017228E+0000
 21
 6.70677936201537E+0000
  0
LINE
  8
1
  6
CONTINUOUS
 62
     1
 10
 8.31925236353709E+0000
 20
 6.73396088337904E+0000
 11
 8.31925236353709E+0000
 21
 6.67355724590743E+0000
  0
LINE
  8
1
  6
CONTINUOUS
 62
     1
 10
 8.32741595123662E+0000
 20
 6.67525988138368E+0000
 11
 8.31925236353709E+0000
 21
 6.68342346907593E+0000
  0
LINE
  8
1
  6
CONTINUOUS
 62
     1
 10
 8.34374312659202E+0000
 20
 6.67866515232890E+0000
 11
 8.31925236353709E+0000
 21
 6.70315591538383E+0000
  0
LINE
  8
1
  6
CONTINUOUS
 62
     1
 10
 8.36007030196197E+0000
 20
 6.68207042327413E+0000
 11
 8.31925236353709E+0000
 21
 6.72288836169901E+0000
  0
LINE
  8
1
  6
CONTINUOUS
 62
     1
 10
 8.37639747733192E+0000
 20
 6.68547569421935E+0000
 11
 8.32969408997451E+0000
 21
 6.73217908156948E+0000
  0
LINE
  8
1
  6
CONTINUOUS
 62
     1
 10
 8.39272465270187E+0000
 20
 6.68888096516457E+0000
 11
 8.35348653796245E+0000
 21
 6.72811907989671E+0000
  0
LINE
  8
1
  6
CONTINUOUS
 62
     1
 10
 8.40905182807182E+0000
 20
 6.69228623610979E+0000
 11
 8.37727898595040E+0000
 21
 6.72405907821667E+0000
  0
LINE
  8
1
  6
CONTINUOUS
 62
     1
 10
 8.42537900342722E+0000
 20
 6.69569150705502E+0000
 11
 8.40107143393834E+0000
 21
 6.71999907654390E+0000
  0
LINE
  8
1
  6
CONTINUOUS
 62
     1
 10
 8.44170617879718E+0000
 20
 6.69909677799296E+0000
 11
 8.42486388192629E+0000
 21
 6.71593907486385E+0000
  0
LINE
  8
1
  6
CONTINUOUS
 62
     1
 10
 8.45803335416713E+0000
 20
 6.70250204893819E+0000
 11
 8.44865632991423E+0000
 21
 6.71187907319108E+0000
  0
LINE
  8
1
  6
CONTINUOUS
 62
     1
 10
 8.47436052953708E+0000
 20
 6.70590731988341E+0000
 11
 8.47244877790217E+0000
 21
 6.70781907151104E+0000
  0
LINE
  8
1
  6
CONTINUOUS
 62
     1
 10
 8.47011364866921E+0000
 20
 6.70821754367353E+0000
 11
 8.46607545063307E+0000
 21
 6.70417934563739E+0000
  0
LINE
  8
1
  6
CONTINUOUS
 62
     1
 10
 8.45325756570674E+0000
 20
 6.71109390701895E+0000
 11
 8.44114297158376E+0000
 21
 6.69897931289597E+0000
  0
LINE
  8
1
  6
CONTINUOUS
 62
     1
 10
 8.43640148274426E+0000
 20
 6.71397027035709E+0000
 11
 8.41621049253445E+0000
 21
 6.69377928015456E+0000
  0
LINE
  8
1
  6
CONTINUOUS
 62
     1
 10
 8.41954539975268E+0000
 20
 6.71684663368796E+0000
 11
 8.39127801348513E+0000
 21
 6.68857924741314E+0000
  0
LINE
  8
1
  6
CONTINUOUS
 62
     1
 10
 8.40268931679020E+0000
 20
 6.71972299703339E+0000
 11
 8.36634553443582E+0000
 21
 6.68337921467173E+0000
  0
LINE
  8
1
  6
CONTINUOUS
 62
     1
 10
 8.38583323381317E+0000
 20
 6.72259936037153E+0000
 11
 8.34141305538651E+0000
 21
 6.67817918193759E+0000
  0
LINE
  8
1
  6
CONTINUOUS
 62
     1
 10
 8.36897715085070E+0000
 20
 6.72547572371695E+0000
 11
 8.31925236353709E+0000
 21
 6.67575093639607E+0000
  0
LINE
  8
1
  6
CONTINUOUS
 62
     1
 10
 8.35212106787367E+0000
 20
 6.72835208705510E+0000
 11
 8.31925236353709E+0000
 21
 6.69548338271125E+0000
  0
LINE
  8
1
  6
CONTINUOUS
 62
     1
 10
 8.33526498489664E+0000
 20
 6.73122845038597E+0000
 11
 8.31925236353709E+0000
 21
 6.71521582901914E+0000
  0
LINE
  8
1
  6
CONTINUOUS
 62
     1
 10
 8.47854169017228E+0000
 20
 6.70677936201537E+0000
 11
 8.47854169017228E+0000
 21
 6.70677936201537E+0000
  0
LINE
  8
1
  6
CONTINUOUS
 62
     1
 10
 8.47854169017228E+0000
 20
 6.70677936201537E+0000
 11
 8.31925236353709E+0000
 21
 6.73396088337904E+0000
  0
LINE
  8
1
  6
CONTINUOUS
 62
     1
 10
 8.31925236353709E+0000
 20
 6.73396088337904E+0000
 11
 8.31925236353709E+0000
 21
 6.67355724590743E+0000
  0
LINE
  8
1
  6
CONTINUOUS
 62
     1
 10
 8.31925236353709E+0000
 20
 6.67355724590743E+0000
 11
 8.47854169017228E+0000
 21
 6.70677936201537E+0000
  0
LINE
  8
1
  6
CONTINUOUS
 62
     1
 10
 8.31925236353709E+0000
 20
 6.73396088337904E+0000
 11
 8.31925236353709E+0000
 21
 6.67355724590743E+0000
  0
LINE
  8
1
  6
CONTINUOUS
 62
     1
 10
 8.32741595123662E+0000
 20
 6.67525988138368E+0000
 11
 8.31925236353709E+0000
 21
 6.68342346907593E+0000
  0
LINE
  8
1
  6
CONTINUOUS
 62
     1
 10
 8.34374312659202E+0000
 20
 6.67866515232890E+0000
 11
 8.31925236353709E+0000
 21
 6.70315591538383E+0000
  0
LINE
  8
1
  6
CONTINUOUS
 62
     1
 10
 8.36007030196197E+0000
 20
 6.68207042327413E+0000
 11
 8.31925236353709E+0000
 21
 6.72288836169901E+0000
  0
LINE
  8
1
  6
CONTINUOUS
 62
     1
 10
 8.37639747733192E+0000
 20
 6.68547569421935E+0000
 11
 8.32969408997451E+0000
 21
 6.73217908156948E+0000
  0
LINE
  8
1
  6
CONTINUOUS
 62
     1
 10
 8.39272465270187E+0000
 20
 6.68888096516457E+0000
 11
 8.35348653796245E+0000
 21
 6.72811907989671E+0000
  0
LINE
  8
1
  6
CONTINUOUS
 62
     1
 10
 8.40905182807182E+0000
 20
 6.69228623610979E+0000
 11
 8.37727898595040E+0000
 21
 6.72405907821667E+0000
  0
LINE
  8
1
  6
CONTINUOUS
 62
     1
 10
 8.42537900342722E+0000
 20
 6.69569150705502E+0000
 11
 8.40107143393834E+0000
 21
 6.71999907654390E+0000
  0
LINE
  8
1
  6
CONTINUOUS
 62
     1
 10
 8.44170617879718E+0000
 20
 6.69909677799296E+0000
 11
 8.42486388192629E+0000
 21
 6.71593907486385E+0000
  0
LINE
  8
1
  6
CONTINUOUS
 62
     1
 10
 8.45803335416713E+0000
 20
 6.70250204893819E+0000
 11
 8.44865632991423E+0000
 21
 6.71187907319108E+0000
  0
LINE
  8
1
  6
CONTINUOUS
 62
     1
 10
 8.47436052953708E+0000
 20
 6.70590731988341E+0000
 11
 8.47244877790217E+0000
 21
 6.70781907151104E+0000
  0
LINE
  8
1
  6
CONTINUOUS
 62
     1
 10
 8.47011364866921E+0000
 20
 6.70821754367353E+0000
 11
 8.46607545063307E+0000
 21
 6.70417934563739E+0000
  0
LINE
  8
1
  6
CONTINUOUS
 62
     1
 10
 8.45325756570674E+0000
 20
 6.71109390701895E+0000
 11
 8.44114297158376E+0000
 21
 6.69897931289597E+0000
  0
LINE
  8
1
  6
CONTINUOUS
 62
     1
 10
 8.43640148274426E+0000
 20
 6.71397027035709E+0000
 11
 8.41621049253445E+0000
 21
 6.69377928015456E+0000
  0
LINE
  8
1
  6
CONTINUOUS
 62
     1
 10
 8.41954539975268E+0000
 20
 6.71684663368796E+0000
 11
 8.39127801348513E+0000
 21
 6.68857924741314E+0000
  0
LINE
  8
1
  6
CONTINUOUS
 62
     1
 10
 8.40268931679020E+0000
 20
 6.71972299703339E+0000
 11
 8.36634553443582E+0000
 21
 6.68337921467173E+0000
  0
LINE
  8
1
  6
CONTINUOUS
 62
     1
 10
 8.38583323381317E+0000
 20
 6.72259936037153E+0000
 11
 8.34141305538651E+0000
 21
 6.67817918193759E+0000
  0
LINE
  8
1
  6
CONTINUOUS
 62
     1
 10
 8.36897715085070E+0000
 20
 6.72547572371695E+0000
 11
 8.31925236353709E+0000
 21
 6.67575093639607E+0000
  0
LINE
  8
1
  6
CONTINUOUS
 62
     1
 10
 8.35212106787367E+0000
 20
 6.72835208705510E+0000
 11
 8.31925236353709E+0000
 21
 6.69548338271125E+0000
  0
LINE
  8
1
  6
CONTINUOUS
 62
     1
 10
 8.33526498489664E+0000
 20
 6.73122845038597E+0000
 11
 8.31925236353709E+0000
 21
 6.71521582901914E+0000
  0
LINE
  8
1
  6
CONTINUOUS
 62
     1
 10
 8.49021326359070E+0000
 20
 6.15527569051483E+0000
 11
 8.49021326359070E+0000
 21
 6.15527569051483E+0000
  0
LINE
  8
1
  6
CONTINUOUS
 62
     1
 10
 8.49021326359070E+0000
 20
 6.15527569051483E+0000
 11
 8.64950259024044E+0000
 21
 6.12809416915115E+0000
  0
LINE
  8
1
  6
CONTINUOUS
 62
     1
 10
 8.64950259024044E+0000
 20
 6.12809416915115E+0000
 11
 8.64950259024044E+0000
 21
 6.18849780662276E+0000
  0
LINE
  8
1
  6
CONTINUOUS
 62
     1
 10
 8.64950259024044E+0000
 20
 6.18849780662276E+0000
 11
 8.49021326359070E+0000
 21
 6.15527569051483E+0000
  0
LINE
  8
1
  6
CONTINUOUS
 62
     1
 10
 8.64950259024044E+0000
 20
 6.12809416915115E+0000
 11
 8.64950259024044E+0000
 21
 6.18849780662276E+0000
  0
LINE
  8
1
  6
CONTINUOUS
 62
     1
 10
 8.50210948759923E+0000
 20
 6.15324568967480E+0000
 11
 8.49837685127568E+0000
 21
 6.15697832599108E+0000
  0
LINE
  8
1
  6
CONTINUOUS
 62
     1
 10
 8.52590193558717E+0000
 20
 6.14918568800204E+0000
 11
 8.51470402664563E+0000
 21
 6.16038359693630E+0000
  0
LINE
  8
1
  6
CONTINUOUS
 62
     1
 10
 8.54969438357512E+0000
 20
 6.14512568632199E+0000
 11
 8.53103120201558E+0000
 21
 6.16378886787425E+0000
  0
LINE
  8
1
  6
CONTINUOUS
 62
     1
 10
 8.57348683154851E+0000
 20
 6.14106568464922E+0000
 11
 8.54735837738554E+0000
 21
 6.16719413881947E+0000
  0
LINE
  8
1
  6
CONTINUOUS
 62
     1
 10
 8.59727927953645E+0000
 20
 6.13700568297645E+0000
 11
 8.56368555274094E+0000
 21
 6.17059940976469E+0000
  0
LINE
  8
1
  6
CONTINUOUS
 62
     1
 10
 8.62107172752440E+0000
 20
 6.13294568129641E+0000
 11
 8.58001272811089E+0000
 21
 6.17400468070991E+0000
  0
LINE
  8
1
  6
CONTINUOUS
 62
     1
 10
 8.64486417551234E+0000
 20
 6.12888567962364E+0000
 11
 8.59633990348084E+0000
 21
 6.17740995165514E+0000
  0
LINE
  8
1
  6
CONTINUOUS
 62
     1
 10
 8.64950259024044E+0000
 20
 6.14397971120343E+0000
 11
 8.61266707885079E+0000
 21
 6.18081522260036E+0000
  0
LINE
  8
1
  6
CONTINUOUS
 62
     1
 10
 8.64950259024044E+0000
 20
 6.16371215751133E+0000
 11
 8.62899425422074E+0000
 21
 6.18422049354558E+0000
  0
LINE
  8
1
  6
CONTINUOUS
 62
     1
 10
 8.64950259024044E+0000
 20
 6.18344460382650E+0000
 11
 8.64532142957614E+0000
 21
 6.18762576449080E+0000
  0
LINE
  8
1
  6
CONTINUOUS
 62
     1
 10
 8.64950259022589E+0000
 20
 6.13796039229055E+0000
 11
 8.64107454875193E+0000
 21
 6.12953235081659E+0000
  0
LINE
  8
1
  6
CONTINUOUS
 62
     1
 10
 8.64950259022589E+0000
 20
 6.15769283860573E+0000
 11
 8.62421846577490E+0000
 21
 6.13240871415474E+0000
  0
LINE
  8
1
  6
CONTINUOUS
 62
     1
 10
 8.64950259022589E+0000
 20
 6.17742528491362E+0000
 11
 8.60736238279787E+0000
 21
 6.13528507748561E+0000
  0
LINE
  8
1
  6
CONTINUOUS
 62
     1
 10
 8.63856054149801E+0000
 20
 6.18621568249364E+0000
 11
 8.59050629982085E+0000
 21
 6.13816144083103E+0000
  0
LINE
  8
1
  6
CONTINUOUS
 62
     1
 10
 8.61362806244870E+0000
 20
 6.18101564975223E+0000
 11
 8.57365021685837E+0000
 21
 6.14103780416917E+0000
  0
LINE
  8
1
  6
CONTINUOUS
 62
     1
 10
 8.58869558338483E+0000
 20
 6.17581561701809E+0000
 11
 8.55679413388134E+0000
 21
 6.14391416751459E+0000
  0
LINE
  8
1
  6
CONTINUOUS
 62
     1
 10
 8.56376310433552E+0000
 20
 6.17061558427667E+0000
 11
 8.53993805090431E+0000
 21
 6.14679053084546E+0000
  0
LINE
  8
1
  6
CONTINUOUS
 62
     1
 10
 8.53883062528621E+0000
 20
 6.16541555153526E+0000
 11
 8.52308196794183E+0000
 21
 6.14966689418361E+0000
  0
LINE
  8
1
  6
CONTINUOUS
 62
     1
 10
 8.51389814623690E+0000
 20
 6.16021551879385E+0000
 11
 8.50622588496481E+0000
 21
 6.15254325752176E+0000
  0
LINE
  8
1
  6
CONTINUOUS
 62
     1
 10
 8.49021326359070E+0000
 20
 6.15527569051483E+0000
 11
 8.49021326359070E+0000
 21
 6.15527569051483E+0000
  0
LINE
  8
1
  6
CONTINUOUS
 62
     1
 10
 8.49021326359070E+0000
 20
 6.15527569051483E+0000
 11
 8.64950259024044E+0000
 21
 6.12809416915115E+0000
  0
LINE
  8
1
  6
CONTINUOUS
 62
     1
 10
 8.64950259024044E+0000
 20
 6.12809416915115E+0000
 11
 8.64950259024044E+0000
 21
 6.18849780662276E+0000
  0
LINE
  8
1
  6
CONTINUOUS
 62
     1
 10
 8.64950259024044E+0000
 20
 6.18849780662276E+0000
 11
 8.49021326359070E+0000
 21
 6.15527569051483E+0000
  0
LINE
  8
1
  6
CONTINUOUS
 62
     1
 10
 8.64950259024044E+0000
 20
 6.12809416915115E+0000
 11
 8.64950259024044E+0000
 21
 6.18849780662276E+0000
  0
LINE
  8
1
  6
CONTINUOUS
 62
     1
 10
 8.50210948759923E+0000
 20
 6.15324568967480E+0000
 11
 8.49837685127568E+0000
 21
 6.15697832599108E+0000
  0
LINE
  8
1
  6
CONTINUOUS
 62
     1
 10
 8.52590193558717E+0000
 20
 6.14918568800204E+0000
 11
 8.51470402664563E+0000
 21
 6.16038359693630E+0000
  0
LINE
  8
1
  6
CONTINUOUS
 62
     1
 10
 8.54969438357512E+0000
 20
 6.14512568632199E+0000
 11
 8.53103120201558E+0000
 21
 6.16378886787425E+0000
  0
LINE
  8
1
  6
CONTINUOUS
 62
     1
 10
 8.57348683154851E+0000
 20
 6.14106568464922E+0000
 11
 8.54735837738554E+0000
 21
 6.16719413881947E+0000
  0
LINE
  8
1
  6
CONTINUOUS
 62
     1
 10
 8.59727927953645E+0000
 20
 6.13700568297645E+0000
 11
 8.56368555274094E+0000
 21
 6.17059940976469E+0000
  0
LINE
  8
1
  6
CONTINUOUS
 62
     1
 10
 8.62107172752440E+0000
 20
 6.13294568129641E+0000
 11
 8.58001272811089E+0000
 21
 6.17400468070991E+0000
  0
LINE
  8
1
  6
CONTINUOUS
 62
     1
 10
 8.64486417551234E+0000
 20
 6.12888567962364E+0000
 11
 8.59633990348084E+0000
 21
 6.17740995165514E+0000
  0
LINE
  8
1
  6
CONTINUOUS
 62
     1
 10
 8.64950259024044E+0000
 20
 6.14397971120343E+0000
 11
 8.61266707885079E+0000
 21
 6.18081522260036E+0000
  0
LINE
  8
1
  6
CONTINUOUS
 62
     1
 10
 8.64950259024044E+0000
 20
 6.16371215751133E+0000
 11
 8.62899425422074E+0000
 21
 6.18422049354558E+0000
  0
LINE
  8
1
  6
CONTINUOUS
 62
     1
 10
 8.64950259024044E+0000
 20
 6.18344460382650E+0000
 11
 8.64532142957614E+0000
 21
 6.18762576449080E+0000
  0
LINE
  8
1
  6
CONTINUOUS
 62
     1
 10
 8.64950259022589E+0000
 20
 6.13796039229055E+0000
 11
 8.64107454875193E+0000
 21
 6.12953235081659E+0000
  0
LINE
  8
1
  6
CONTINUOUS
 62
     1
 10
 8.64950259022589E+0000
 20
 6.15769283860573E+0000
 11
 8.62421846577490E+0000
 21
 6.13240871415474E+0000
  0
LINE
  8
1
  6
CONTINUOUS
 62
     1
 10
 8.64950259022589E+0000
 20
 6.17742528491362E+0000
 11
 8.60736238279787E+0000
 21
 6.13528507748561E+0000
  0
LINE
  8
1
  6
CONTINUOUS
 62
     1
 10
 8.63856054149801E+0000
 20
 6.18621568249364E+0000
 11
 8.59050629982085E+0000
 21
 6.13816144083103E+0000
  0
LINE
  8
1
  6
CONTINUOUS
 62
     1
 10
 8.61362806244870E+0000
 20
 6.18101564975223E+0000
 11
 8.57365021685837E+0000
 21
 6.14103780416917E+0000
  0
LINE
  8
1
  6
CONTINUOUS
 62
     1
 10
 8.58869558338483E+0000
 20
 6.17581561701809E+0000
 11
 8.55679413388134E+0000
 21
 6.14391416751459E+0000
  0
LINE
  8
1
  6
CONTINUOUS
 62
     1
 10
 8.56376310433552E+0000
 20
 6.17061558427667E+0000
 11
 8.53993805090431E+0000
 21
 6.14679053084546E+0000
  0
LINE
  8
1
  6
CONTINUOUS
 62
     1
 10
 8.53883062528621E+0000
 20
 6.16541555153526E+0000
 11
 8.52308196794183E+0000
 21
 6.14966689418361E+0000
  0
LINE
  8
1
  6
CONTINUOUS
 62
     1
 10
 8.51389814623690E+0000
 20
 6.16021551879385E+0000
 11
 8.50622588496481E+0000
 21
 6.15254325752176E+0000
  0
LINE
  8
1
  6
CONTINUOUS
 62
     1
 10
 7.68257533678843E+0000
 20
 6.70373614164419E+0000
 11
 7.68257533678843E+0000
 21
 6.70373614164419E+0000
  0
LINE
  8
1
  6
CONTINUOUS
 62
     1
 10
 7.68257533678843E+0000
 20
 6.70373614164419E+0000
 11
 7.84186466343817E+0000
 21
 6.67655462028051E+0000
  0
LINE
  8
1
  6
CONTINUOUS
 62
     1
 10
 7.84186466343817E+0000
 20
 6.67655462028051E+0000
 11
 7.84186466343817E+0000
 21
 6.73695825775212E+0000
  0
LINE
  8
1
  6
CONTINUOUS
 62
     1
 10
 7.84186466343817E+0000
 20
 6.73695825775212E+0000
 11
 7.68257533678843E+0000
 21
 6.70373614164419E+0000
  0
LINE
  8
1
  6
CONTINUOUS
 62
     1
 10
 7.84186466343817E+0000
 20
 6.67655462028051E+0000
 11
 7.84186466343817E+0000
 21
 6.73695825775212E+0000
  0
LINE
  8
1
  6
CONTINUOUS
 62
     1
 10
 7.69447156079696E+0000
 20
 6.70170614080416E+0000
 11
 7.69073892448068E+0000
 21
 6.70543877712043E+0000
  0
LINE
  8
1
  6
CONTINUOUS
 62
     1
 10
 7.71826400878490E+0000
 20
 6.69764613912412E+0000
 11
 7.70706609985064E+0000
 21
 6.70884404806566E+0000
  0
LINE
  8
1
  6
CONTINUOUS
 62
     1
 10
 7.74205645677284E+0000
 20
 6.69358613745135E+0000
 11
 7.72339327521331E+0000
 21
 6.71224931901088E+0000
  0
LINE
  8
1
  6
CONTINUOUS
 62
     1
 10
 7.76584890476079E+0000
 20
 6.68952613577130E+0000
 11
 7.73972045058326E+0000
 21
 6.71565458995610E+0000
  0
LINE
  8
1
  6
CONTINUOUS
 62
     1
 10
 7.78964135274873E+0000
 20
 6.68546613409853E+0000
 11
 7.75604762594594E+0000
 21
 6.71905986089405E+0000
  0
LINE
  8
1
  6
CONTINUOUS
 62
     1
 10
 7.81343380073668E+0000
 20
 6.68140613241849E+0000
 11
 7.77237480131589E+0000
 21
 6.72246513183927E+0000
  0
LINE
  8
1
  6
CONTINUOUS
 62
     1
 10
 7.83722624872462E+0000
 20
 6.67734613073844E+0000
 11
 7.78870197667857E+0000
 21
 6.72587040278449E+0000
  0
LINE
  8
1
  6
CONTINUOUS
 62
     1
 10
 7.84186466343817E+0000
 20
 6.69244016234006E+0000
 11
 7.80502915204852E+0000
 21
 6.72927567372972E+0000
  0
LINE
  8
1
  6
CONTINUOUS
 62
     1
 10
 7.84186466344545E+0000
 20
 6.71217260864796E+0000
 11
 7.82135632741847E+0000
 21
 6.73268094467494E+0000
  0
LINE
  8
1
  6
CONTINUOUS
 62
     1
 10
 7.84186466344545E+0000
 20
 6.73190505495586E+0000
 11
 7.83768350278115E+0000
 21
 6.73608621562016E+0000
  0
LINE
  8
1
  6
CONTINUOUS
 62
     1
 10
 7.84186466342362E+0000
 20
 6.68642084342719E+0000
 11
 7.83343662194966E+0000
 21
 6.67799280194595E+0000
  0
LINE
  8
1
  6
CONTINUOUS
 62
     1
 10
 7.84186466342362E+0000
 20
 6.70615328973508E+0000
 11
 7.81658053897991E+0000
 21
 6.68086916528409E+0000
  0
LINE
  8
1
  6
CONTINUOUS
 62
     1
 10
 7.84186466342362E+0000
 20
 6.72588573605026E+0000
 11
 7.79972445599560E+0000
 21
 6.68374552861496E+0000
  0
LINE
  8
1
  6
CONTINUOUS
 62
     1
 10
 7.83092261469574E+0000
 20
 6.73467613362300E+0000
 11
 7.78286837302585E+0000
 21
 6.68662189196039E+0000
  0
LINE
  8
1
  6
CONTINUOUS
 62
     1
 10
 7.80599013564643E+0000
 20
 6.72947610088886E+0000
 11
 7.76601229005610E+0000
 21
 6.68949825529853E+0000
  0
LINE
  8
1
  6
CONTINUOUS
 62
     1
 10
 7.78105765658984E+0000
 20
 6.72427606814745E+0000
 11
 7.74915620708634E+0000
 21
 6.69237461864395E+0000
  0
LINE
  8
1
  6
CONTINUOUS
 62
     1
 10
 7.75612517754053E+0000
 20
 6.71907603540603E+0000
 11
 7.73230012410932E+0000
 21
 6.69525098197482E+0000
  0
LINE
  8
1
  6
CONTINUOUS
 62
     1
 10
 7.73119269849121E+0000
 20
 6.71387600266462E+0000
 11
 7.71544404113956E+0000
 21
 6.69812734531297E+0000
  0
LINE
  8
1
  6
CONTINUOUS
 62
     1
 10
 7.70626021944190E+0000
 20
 6.70867596992321E+0000
 11
 7.69858795816981E+0000
 21
 6.70100370865839E+0000
  0
LINE
  8
1
  6
CONTINUOUS
 62
     1
 10
 7.68257533678843E+0000
 20
 6.70373614164419E+0000
 11
 7.68257533678843E+0000
 21
 6.70373614164419E+0000
  0
LINE
  8
1
  6
CONTINUOUS
 62
     1
 10
 7.68257533678843E+0000
 20
 6.70373614164419E+0000
 11
 7.84186466343817E+0000
 21
 6.67655462028051E+0000
  0
LINE
  8
1
  6
CONTINUOUS
 62
     1
 10
 7.84186466343817E+0000
 20
 6.67655462028051E+0000
 11
 7.84186466343817E+0000
 21
 6.73695825775212E+0000
  0
LINE
  8
1
  6
CONTINUOUS
 62
     1
 10
 7.84186466343817E+0000
 20
 6.73695825775212E+0000
 11
 7.68257533678843E+0000
 21
 6.70373614164419E+0000
  0
LINE
  8
1
  6
CONTINUOUS
 62
     1
 10
 7.84186466343817E+0000
 20
 6.67655462028051E+0000
 11
 7.84186466343817E+0000
 21
 6.73695825775212E+0000
  0
LINE
  8
1
  6
CONTINUOUS
 62
     1
 10
 7.69447156079696E+0000
 20
 6.70170614080416E+0000
 11
 7.69073892448068E+0000
 21
 6.70543877712043E+0000
  0
LINE
  8
1
  6
CONTINUOUS
 62
     1
 10
 7.71826400878490E+0000
 20
 6.69764613912412E+0000
 11
 7.70706609985064E+0000
 21
 6.70884404806566E+0000
  0
LINE
  8
1
  6
CONTINUOUS
 62
     1
 10
 7.74205645677284E+0000
 20
 6.69358613745135E+0000
 11
 7.72339327521331E+0000
 21
 6.71224931901088E+0000
  0
LINE
  8
1
  6
CONTINUOUS
 62
     1
 10
 7.76584890476079E+0000
 20
 6.68952613577130E+0000
 11
 7.73972045058326E+0000
 21
 6.71565458995610E+0000
  0
LINE
  8
1
  6
CONTINUOUS
 62
     1
 10
 7.78964135274873E+0000
 20
 6.68546613409853E+0000
 11
 7.75604762594594E+0000
 21
 6.71905986089405E+0000
  0
LINE
  8
1
  6
CONTINUOUS
 62
     1
 10
 7.81343380073668E+0000
 20
 6.68140613241849E+0000
 11
 7.77237480131589E+0000
 21
 6.72246513183927E+0000
  0
LINE
  8
1
  6
CONTINUOUS
 62
     1
 10
 7.83722624872462E+0000
 20
 6.67734613073844E+0000
 11
 7.78870197667857E+0000
 21
 6.72587040278449E+0000
  0
LINE
  8
1
  6
CONTINUOUS
 62
     1
 10
 7.84186466343817E+0000
 20
 6.69244016234006E+0000
 11
 7.80502915204852E+0000
 21
 6.72927567372972E+0000
  0
LINE
  8
1
  6
CONTINUOUS
 62
     1
 10
 7.84186466344545E+0000
 20
 6.71217260864796E+0000
 11
 7.82135632741847E+0000
 21
 6.73268094467494E+0000
  0
LINE
  8
1
  6
CONTINUOUS
 62
     1
 10
 7.84186466344545E+0000
 20
 6.73190505495586E+0000
 11
 7.83768350278115E+0000
 21
 6.73608621562016E+0000
  0
LINE
  8
1
  6
CONTINUOUS
 62
     1
 10
 7.84186466342362E+0000
 20
 6.68642084342719E+0000
 11
 7.83343662194966E+0000
 21
 6.67799280194595E+0000
  0
LINE
  8
1
  6
CONTINUOUS
 62
     1
 10
 7.84186466342362E+0000
 20
 6.70615328973508E+0000
 11
 7.81658053897991E+0000
 21
 6.68086916528409E+0000
  0
LINE
  8
1
  6
CONTINUOUS
 62
     1
 10
 7.84186466342362E+0000
 20
 6.72588573605026E+0000
 11
 7.79972445599560E+0000
 21
 6.68374552861496E+0000
  0
LINE
  8
1
  6
CONTINUOUS
 62
     1
 10
 7.83092261469574E+0000
 20
 6.73467613362300E+0000
 11
 7.78286837302585E+0000
 21
 6.68662189196039E+0000
  0
LINE
  8
1
  6
CONTINUOUS
 62
     1
 10
 7.80599013564643E+0000
 20
 6.72947610088886E+0000
 11
 7.76601229005610E+0000
 21
 6.68949825529853E+0000
  0
LINE
  8
1
  6
CONTINUOUS
 62
     1
 10
 7.78105765658984E+0000
 20
 6.72427606814745E+0000
 11
 7.74915620708634E+0000
 21
 6.69237461864395E+0000
  0
LINE
  8
1
  6
CONTINUOUS
 62
     1
 10
 7.75612517754053E+0000
 20
 6.71907603540603E+0000
 11
 7.73230012410932E+0000
 21
 6.69525098197482E+0000
  0
LINE
  8
1
  6
CONTINUOUS
 62
     1
 10
 7.73119269849121E+0000
 20
 6.71387600266462E+0000
 11
 7.71544404113956E+0000
 21
 6.69812734531297E+0000
  0
LINE
  8
1
  6
CONTINUOUS
 62
     1
 10
 7.70626021944190E+0000
 20
 6.70867596992321E+0000
 11
 7.69858795816981E+0000
 21
 6.70100370865839E+0000
  0
LINE
  8
1
  6
CONTINUOUS
 62
     1
 10
 7.44809980966966E+0000
 20
 4.80588886633632E+0000
 11
 7.44809980966966E+0000
 21
 4.80588886633632E+0000
  0
LINE
  8
1
  6
CONTINUOUS
 62
     1
 10
 7.44809980966966E+0000
 20
 4.80588886633632E+0000
 11
 7.44809980966966E+0000
 21
 4.80588886633632E+0000
  0
LINE
  8
1
  6
CONTINUOUS
 62
     1
 10
 7.27364026420400E+0000
 20
 5.26185516306577E+0000
 11
 7.27364026420400E+0000
 21
 5.26185516306577E+0000
  0
LINE
  8
1
  6
CONTINUOUS
 62
     1
 10
 7.27364026420400E+0000
 20
 5.26185516306577E+0000
 11
 7.24645874284033E+0000
 21
 5.10256583643786E+0000
  0
LINE
  8
1
  6
CONTINUOUS
 62
     1
 10
 7.24645874284033E+0000
 20
 5.10256583643786E+0000
 11
 7.30686238031194E+0000
 21
 5.10256583643786E+0000
  0
LINE
  8
1
  6
CONTINUOUS
 62
     1
 10
 7.30686238031194E+0000
 20
 5.10256583643786E+0000
 11
 7.27364026420400E+0000
 21
 5.26185516306577E+0000
  0
LINE
  8
1
  6
CONTINUOUS
 62
     1
 10
 7.24645874284033E+0000
 20
 5.10256583643786E+0000
 11
 7.30686238031194E+0000
 21
 5.10256583643786E+0000
  0
LINE
  8
1
  6
CONTINUOUS
 62
     1
 10
 7.25632496600883E+0000
 20
 5.10256583643786E+0000
 11
 7.24789692451304E+0000
 21
 5.11099387793365E+0000
  0
LINE
  8
1
  6
CONTINUOUS
 62
     1
 10
 7.27605741232401E+0000
 20
 5.10256583643786E+0000
 11
 7.25077328785119E+0000
 21
 5.12784996091068E+0000
  0
LINE
  8
1
  6
CONTINUOUS
 62
     1
 10
 7.29578985863191E+0000
 20
 5.10256583643786E+0000
 11
 7.25364965118933E+0000
 21
 5.14470604388043E+0000
  0
LINE
  8
1
  6
CONTINUOUS
 62
     1
 10
 7.30458025619737E+0000
 20
 5.11350788518757E+0000
 11
 7.25652601453476E+0000
 21
 5.16156212685019E+0000
  0
LINE
  8
1
  6
CONTINUOUS
 62
     1
 10
 7.29938022345596E+0000
 20
 5.13844036424416E+0000
 11
 7.25940237787290E+0000
 21
 5.17841820982721E+0000
  0
LINE
  8
1
  6
CONTINUOUS
 62
     1
 10
 7.29418019070727E+0000
 20
 5.16337284329347E+0000
 11
 7.26227874121105E+0000
 21
 5.19527429279697E+0000
  0
LINE
  8
1
  6
CONTINUOUS
 62
     1
 10
 7.28898015796585E+0000
 20
 5.18830532235006E+0000
 11
 7.26515510454919E+0000
 21
 5.21213037577400E+0000
  0
LINE
  8
1
  6
CONTINUOUS
 62
     1
 10
 7.28378012522444E+0000
 20
 5.21323780140665E+0000
 11
 7.26803146788734E+0000
 21
 5.22898645874375E+0000
  0
LINE
  8
1
  6
CONTINUOUS
 62
     1
 10
 7.27858009248303E+0000
 20
 5.23817028045596E+0000
 11
 7.27090783122549E+0000
 21
 5.24584254171350E+0000
  0
LINE
  8
1
  6
CONTINUOUS
 62
     1
 10
 7.30515974484297E+0000
 20
 5.11072942412284E+0000
 11
 7.29699615715799E+0000
 21
 5.10256583643786E+0000
  0
LINE
  8
1
  6
CONTINUOUS
 62
     1
 10
 7.30175447389774E+0000
 20
 5.12705659949279E+0000
 11
 7.27726371084282E+0000
 21
 5.10256583643786E+0000
  0
LINE
  8
1
  6
CONTINUOUS
 62
     1
 10
 7.29834920295252E+0000
 20
 5.14338377485547E+0000
 11
 7.25753126453492E+0000
 21
 5.10256583643786E+0000
  0
LINE
  8
1
  6
CONTINUOUS
 62
     1
 10
 7.29494393200730E+0000
 20
 5.15971095022542E+0000
 11
 7.24824054463534E+0000
 21
 5.11300756285345E+0000
  0
LINE
  8
1
  6
CONTINUOUS
 62
     1
 10
 7.29153866106208E+0000
 20
 5.17603812558809E+0000
 11
 7.25230054631538E+0000
 21
 5.13680001084140E+0000
  0
LINE
  8
1
  6
CONTINUOUS
 62
     1
 10
 7.28813339011685E+0000
 20
 5.19236530095077E+0000
 11
 7.25636054799543E+0000
 21
 5.16059245883662E+0000
  0
LINE
  8
1
  6
CONTINUOUS
 62
     1
 10
 7.28472811917163E+0000
 20
 5.20869247632072E+0000
 11
 7.26042054967547E+0000
 21
 5.18438490682456E+0000
  0
LINE
  8
1
  6
CONTINUOUS
 62
     1
 10
 7.28132284822641E+0000
 20
 5.22501965168340E+0000
 11
 7.26448055134824E+0000
 21
 5.20817735481251E+0000
  0
LINE
  8
1
  6
CONTINUOUS
 62
     1
 10
 7.27791757728119E+0000
 20
 5.24134682705335E+0000
 11
 7.26854055302829E+0000
 21
 5.23196980280045E+0000
  0
LINE
  8
1
  6
CONTINUOUS
 62
     1
 10
 7.27451230633596E+0000
 20
 5.25767400241602E+0000
 11
 7.27260055470833E+0000
 21
 5.25576225078839E+0000
  0
LINE
  8
1
  6
CONTINUOUS
 62
     1
 10
 7.27093898790190E+0000
 20
 2.91064596402430E+0000
 11
 7.27093898790190E+0000
 21
 2.91064596402430E+0000
  0
LINE
  8
1
  6
CONTINUOUS
 62
     1
 10
 7.27093898790190E+0000
 20
 2.91064596402430E+0000
 11
 7.29812050926557E+0000
 21
 3.06993529065221E+0000
  0
LINE
  8
1
  6
CONTINUOUS
 62
     1
 10
 7.29812050926557E+0000
 20
 3.06993529065221E+0000
 11
 7.23771687179396E+0000
 21
 3.06993529065221E+0000
  0
LINE
  8
1
  6
CONTINUOUS
 62
     1
 10
 7.23771687179396E+0000
 20
 3.06993529065221E+0000
 11
 7.27093898790190E+0000
 21
 2.91064596402430E+0000
  0
LINE
  8
1
  6
CONTINUOUS
 62
     1
 10
 7.29812050926557E+0000
 20
 3.06993529065221E+0000
 11
 7.23771687179396E+0000
 21
 3.06993529065221E+0000
  0
LINE
  8
1
  6
CONTINUOUS
 62
     1
 10
 7.27237716957461E+0000
 20
 2.91907400551281E+0000
 11
 7.26833897153119E+0000
 21
 2.92311220355623E+0000
  0
LINE
  8
1
  6
CONTINUOUS
 62
     1
 10
 7.27525353291276E+0000
 20
 2.93593008848620E+0000
 11
 7.26313893878978E+0000
 21
 2.94804468260918E+0000
  0
LINE
  8
1
  6
CONTINUOUS
 62
     1
 10
 7.27812989625090E+0000
 20
 2.95278617145959E+0000
 11
 7.25793890604837E+0000
 21
 2.97297716166213E+0000
  0
LINE
  8
1
  6
CONTINUOUS
 62
     1
 10
 7.28100625958905E+0000
 20
 2.96964225442935E+0000
 11
 7.25273887330695E+0000
 21
 2.99790964071508E+0000
  0
LINE
  8
1
  6
CONTINUOUS
 62
     1
 10
 7.28388262292719E+0000
 20
 2.98649833740274E+0000
 11
 7.24753884056554E+0000
 21
 3.02284211976803E+0000
  0
LINE
  8
1
  6
CONTINUOUS
 62
     1
 10
 7.28675898626534E+0000
 20
 3.00335442037613E+0000
 11
 7.24233880782413E+0000
 21
 3.04777459882098E+0000
  0
LINE
  8
1
  6
CONTINUOUS
 62
     1
 10
 7.28963534961076E+0000
 20
 3.02021050334588E+0000
 11
 7.23991056229715E+0000
 21
 3.06993529065585E+0000
  0
LINE
  8
1
  6
CONTINUOUS
 62
     1
 10
 7.29251171294891E+0000
 20
 3.03706658631927E+0000
 11
 7.25964300861233E+0000
 21
 3.06993529065585E+0000
  0
LINE
  8
1
  6
CONTINUOUS
 62
     1
 10
 7.29538807628705E+0000
 20
 3.05392266929266E+0000
 11
 7.27937545492750E+0000
 21
 3.06993529065221E+0000
  0
LINE
  8
1
  6
CONTINUOUS
 62
     1
 10
 7.27296898873465E+0000
 20
 2.92254218801463E+0000
 11
 7.26923635241837E+0000
 21
 2.91880955170200E+0000
  0
LINE
  8
1
  6
CONTINUOUS
 62
     1
 10
 7.27702899040742E+0000
 20
 2.94633463600258E+0000
 11
 7.26583108147315E+0000
 21
 2.93513672706831E+0000
  0
LINE
  8
1
  6
CONTINUOUS
 62
     1
 10
 7.28108899208746E+0000
 20
 2.97012708399052E+0000
 11
 7.26242581052793E+0000
 21
 2.95146390243463E+0000
  0
LINE
  8
1
  6
CONTINUOUS
 62
     1
 10
 7.28514899376751E+0000
 20
 2.99391953198210E+0000
 11
 7.25902053958271E+0000
 21
 2.96779107780094E+0000
  0
LINE
  8
1
  6
CONTINUOUS
 62
     1
 10
 7.28920899544028E+0000
 20
 3.01771197997004E+0000
 11
 7.25561526863748E+0000
 21
 2.98411825316725E+0000
  0
LINE
  8
1
  6
CONTINUOUS
 62
     1
 10
 7.29326899712032E+0000
 20
 3.04150442795799E+0000
 11
 7.25220999769226E+0000
 21
 3.00044542853357E+0000
  0
LINE
  8
1
  6
CONTINUOUS
 62
     1
 10
 7.29732899880037E+0000
 20
 3.06529687594593E+0000
 11
 7.24880472674704E+0000
 21
 3.01677260389988E+0000
  0
LINE
  8
1
  6
CONTINUOUS
 62
     1
 10
 7.28223496718419E+0000
 20
 3.06993529064857E+0000
 11
 7.24539945580909E+0000
 21
 3.03309977926619E+0000
  0
LINE
  8
1
  6
CONTINUOUS
 62
     1
 10
 7.26250252087630E+0000
 20
 3.06993529064857E+0000
 11
 7.24199418486387E+0000
 21
 3.04942695463615E+0000
  0
LINE
  8
1
  6
CONTINUOUS
 62
     1
 10
 7.24277007456840E+0000
 20
 3.06993529064857E+0000
 11
 7.23858891391865E+0000
 21
 3.06575413000246E+0000
  0
LINE
  8
1
  6
CONTINUOUS
 62
     1
 10
 7.80067999364110E+0000
 20
 4.50379298871121E+0000
 11
 7.80067999364110E+0000
 21
 4.50379298871121E+0000
  0
LINE
  8
1
  6
CONTINUOUS
 62
     1
 10
 7.80067999364110E+0000
 20
 4.50379298871121E+0000
 11
 7.82786151500477E+0000
 21
 4.66308231533912E+0000
  0
LINE
  8
1
  6
CONTINUOUS
 62
     1
 10
 7.82786151500477E+0000
 20
 4.66308231533912E+0000
 11
 7.76745787753316E+0000
 21
 4.66308231533912E+0000
  0
LINE
  8
1
  6
CONTINUOUS
 62
     1
 10
 7.76745787753316E+0000
 20
 4.66308231533912E+0000
 11
 7.80067999364110E+0000
 21
 4.50379298871121E+0000
  0
LINE
  8
1
  6
CONTINUOUS
 62
     1
 10
 7.82786151500477E+0000
 20
 4.66308231533912E+0000
 11
 7.76745787753316E+0000
 21
 4.66308231533912E+0000
  0
LINE
  8
1
  6
CONTINUOUS
 62
     1
 10
 7.80211817532108E+0000
 20
 4.51222103021428E+0000
 11
 7.79807997727039E+0000
 21
 4.51625922825770E+0000
  0
LINE
  8
1
  6
CONTINUOUS
 62
     1
 10
 7.80499453865923E+0000
 20
 4.52907711318403E+0000
 11
 7.79287994452898E+0000
 21
 4.54119170730701E+0000
  0
LINE
  8
1
  6
CONTINUOUS
 62
     1
 10
 7.80787090199738E+0000
 20
 4.54593319615378E+0000
 11
 7.78767991178756E+0000
 21
 4.56612418636360E+0000
  0
LINE
  8
1
  6
CONTINUOUS
 62
     1
 10
 7.81074726533552E+0000
 20
 4.56278927912354E+0000
 11
 7.78247987904615E+0000
 21
 4.59105666542018E+0000
  0
LINE
  8
1
  6
CONTINUOUS
 62
     1
 10
 7.81362362867367E+0000
 20
 4.57964536210056E+0000
 11
 7.77727984630474E+0000
 21
 4.61598914446949E+0000
  0
LINE
  8
1
  6
CONTINUOUS
 62
     1
 10
 7.81649999201181E+0000
 20
 4.59650144507032E+0000
 11
 7.77207981356332E+0000
 21
 4.64092162352608E+0000
  0
LINE
  8
1
  6
CONTINUOUS
 62
     1
 10
 7.81937635534996E+0000
 20
 4.61335752804007E+0000
 11
 7.76965156805090E+0000
 21
 4.66308231534640E+0000
  0
LINE
  8
1
  6
CONTINUOUS
 62
     1
 10
 7.82225271868811E+0000
 20
 4.63021361101710E+0000
 11
 7.78938401436608E+0000
 21
 4.66308231534640E+0000
  0
LINE
  8
1
  6
CONTINUOUS
 62
     1
 10
 7.82512908203353E+0000
 20
 4.64706969398685E+0000
 11
 7.80911646068125E+0000
 21
 4.66308231533912E+0000
  0
LINE
  8
1
  6
CONTINUOUS
 62
     1
 10
 7.80270999447384E+0000
 20
 4.51568921270518E+0000
 11
 7.79897735816485E+0000
 21
 4.51195657638891E+0000
  0
LINE
  8
1
  6
CONTINUOUS
 62
     1
 10
 7.80676999615389E+0000
 20
 4.53948166069313E+0000
 11
 7.79557208721963E+0000
 21
 4.52828375175886E+0000
  0
LINE
  8
1
  6
CONTINUOUS
 62
     1
 10
 7.81082999782666E+0000
 20
 4.56327410868107E+0000
 11
 7.79216681627440E+0000
 21
 4.54461092712154E+0000
  0
LINE
  8
1
  6
CONTINUOUS
 62
     1
 10
 7.81488999950670E+0000
 20
 4.58706655666901E+0000
 11
 7.78876154532918E+0000
 21
 4.56093810249149E+0000
  0
LINE
  8
1
  6
CONTINUOUS
 62
     1
 10
 7.81895000118675E+0000
 20
 4.61085900465696E+0000
 11
 7.78535627438396E+0000
 21
 4.57726527785417E+0000
  0
LINE
  8
1
  6
CONTINUOUS
 62
     1
 10
 7.82301000286679E+0000
 20
 4.63465145264490E+0000
 11
 7.78195100343873E+0000
 21
 4.59359245322412E+0000
  0
LINE
  8
1
  6
CONTINUOUS
 62
     1
 10
 7.82707000453956E+0000
 20
 4.65844390063285E+0000
 11
 7.77854573249351E+0000
 21
 4.60991962858679E+0000
  0
LINE
  8
1
  6
CONTINUOUS
 62
     1
 10
 7.81197597293794E+0000
 20
 4.66308231533912E+0000
 11
 7.77514046154829E+0000
 21
 4.62624680395675E+0000
  0
LINE
  8
1
  6
CONTINUOUS
 62
     1
 10
 7.79224352661549E+0000
 20
 4.66308231533185E+0000
 11
 7.77173519060307E+0000
 21
 4.64257397931942E+0000
  0
LINE
  8
1
  6
CONTINUOUS
 62
     1
 10
 7.77251108030032E+0000
 20
 4.66308231533185E+0000
 11
 7.76832991965784E+0000
 21
 4.65890115468210E+0000
  0
LINE
  8
1
  6
CONTINUOUS
 62
     1
 10
 7.80338126994320E+0000
 20
 3.65129669548332E+0000
 11
 7.80338126994320E+0000
 21
 3.65129669548332E+0000
  0
LINE
  8
1
  6
CONTINUOUS
 62
     1
 10
 7.80338126994320E+0000
 20
 3.65129669548332E+0000
 11
 7.77619974857953E+0000
 21
 3.49200736885541E+0000
  0
LINE
  8
1
  6
CONTINUOUS
 62
     1
 10
 7.77619974857953E+0000
 20
 3.49200736885541E+0000
 11
 7.83660338605114E+0000
 21
 3.49200736885541E+0000
  0
LINE
  8
1
  6
CONTINUOUS
 62
     1
 10
 7.83660338605114E+0000
 20
 3.49200736885541E+0000
 11
 7.80338126994320E+0000
 21
 3.65129669548332E+0000
  0
LINE
  8
1
  6
CONTINUOUS
 62
     1
 10
 7.77619974857953E+0000
 20
 3.49200736885541E+0000
 11
 7.83660338605114E+0000
 21
 3.49200736885541E+0000
  0
LINE
  8
1
  6
CONTINUOUS
 62
     1
 10
 7.78606597174075E+0000
 20
 3.49200736885905E+0000
 11
 7.77763793025224E+0000
 21
 3.50043541034393E+0000
  0
LINE
  8
1
  6
CONTINUOUS
 62
     1
 10
 7.80579841804865E+0000
 20
 3.49200736885905E+0000
 11
 7.78051429359039E+0000
 21
 3.51729149331732E+0000
  0
LINE
  8
1
  6
CONTINUOUS
 62
     1
 10
 7.82553086437110E+0000
 20
 3.49200736885541E+0000
 11
 7.78339065693581E+0000
 21
 3.53414757629798E+0000
  0
LINE
  8
1
  6
CONTINUOUS
 62
     1
 10
 7.83432126193657E+0000
 20
 3.50294941760512E+0000
 11
 7.78626702027395E+0000
 21
 3.55100365927137E+0000
  0
LINE
  8
1
  6
CONTINUOUS
 62
     1
 10
 7.82912122919515E+0000
 20
 3.52788189665807E+0000
 11
 7.78914338361210E+0000
 21
 3.56785974224113E+0000
  0
LINE
  8
1
  6
CONTINUOUS
 62
     1
 10
 7.82392119645374E+0000
 20
 3.55281437571102E+0000
 11
 7.79201974695025E+0000
 21
 3.58471582521452E+0000
  0
LINE
  8
1
  6
CONTINUOUS
 62
     1
 10
 7.81872116370505E+0000
 20
 3.57774685476761E+0000
 11
 7.79489611028839E+0000
 21
 3.60157190818791E+0000
  0
LINE
  8
1
  6
CONTINUOUS
 62
     1
 10
 7.81352113096364E+0000
 20
 3.60267933382056E+0000
 11
 7.79777247362654E+0000
 21
 3.61842799115766E+0000
  0
LINE
  8
1
  6
CONTINUOUS
 62
     1
 10
 7.80832109822222E+0000
 20
 3.62761181287351E+0000
 11
 7.80064883696468E+0000
 21
 3.63528407413105E+0000
  0
LINE
  8
1
  6
CONTINUOUS
 62
     1
 10
 7.83490075057489E+0000
 20
 3.50017095654039E+0000
 11
 7.82673716288264E+0000
 21
 3.49200736884814E+0000
  0
LINE
  8
1
  6
CONTINUOUS
 62
     1
 10
 7.83149547963694E+0000
 20
 3.51649813190670E+0000
 11
 7.80700471658201E+0000
 21
 3.49200736885177E+0000
  0
LINE
  8
1
  6
CONTINUOUS
 62
     1
 10
 7.82809020869172E+0000
 20
 3.53282530727301E+0000
 11
 7.78727227026684E+0000
 21
 3.49200736885177E+0000
  0
LINE
  8
1
  6
CONTINUOUS
 62
     1
 10
 7.82468493774650E+0000
 20
 3.54915248263933E+0000
 11
 7.77798155037453E+0000
 21
 3.50244909527464E+0000
  0
LINE
  8
1
  6
CONTINUOUS
 62
     1
 10
 7.82127966680127E+0000
 20
 3.56547965800564E+0000
 11
 7.78204155205458E+0000
 21
 3.52624154326259E+0000
  0
LINE
  8
1
  6
CONTINUOUS
 62
     1
 10
 7.81787439585605E+0000
 20
 3.58180683337196E+0000
 11
 7.78610155373462E+0000
 21
 3.55003399125053E+0000
  0
LINE
  8
1
  6
CONTINUOUS
 62
     1
 10
 7.81446912491083E+0000
 20
 3.59813400873827E+0000
 11
 7.79016155540739E+0000
 21
 3.57382643923847E+0000
  0
LINE
  8
1
  6
CONTINUOUS
 62
     1
 10
 7.81106385396561E+0000
 20
 3.61446118410458E+0000
 11
 7.79422155708744E+0000
 21
 3.59761888723006E+0000
  0
LINE
  8
1
  6
CONTINUOUS
 62
     1
 10
 7.80765858302038E+0000
 20
 3.63078835947090E+0000
 11
 7.79828155876748E+0000
 21
 3.62141133521800E+0000
  0
LINE
  8
1
  6
CONTINUOUS
 62
     1
 10
 7.80425331207516E+0000
 20
 3.64711553483721E+0000
 11
 7.80234156044025E+0000
 21
 3.64520378320594E+0000
  0
LINE
  8
1
  6
CONTINUOUS
 62
     1
 10
 8.97575890560984E+0000
 20
 5.65361262815713E+0000
 11
 8.97575890560984E+0000
 21
 5.65361262815713E+0000
  0
LINE
  8
1
  6
CONTINUOUS
 62
     1
 10
 8.97575890560984E+0000
 20
 5.65361262815713E+0000
 11
 8.94857738424616E+0000
 21
 5.49432330152922E+0000
  0
LINE
  8
1
  6
CONTINUOUS
 62
     1
 10
 8.94857738424616E+0000
 20
 5.49432330152922E+0000
 11
 9.00898102171777E+0000
 21
 5.49432330152922E+0000
  0
LINE
  8
1
  6
CONTINUOUS
 62
     1
 10
 9.00898102171777E+0000
 20
 5.49432330152922E+0000
 11
 8.97575890560984E+0000
 21
 5.65361262815713E+0000
  0
LINE
  8
1
  6
CONTINUOUS
 62
     1
 10
 8.94857738424616E+0000
 20
 5.49432330152922E+0000
 11
 9.00898102171777E+0000
 21
 5.49432330152922E+0000
  0
LINE
  8
1
  6
CONTINUOUS
 62
     1
 10
 8.95844360740739E+0000
 20
 5.49432330152922E+0000
 11
 8.95001556591887E+0000
 21
 5.50275134302501E+0000
  0
LINE
  8
1
  6
CONTINUOUS
 62
     1
 10
 8.97817605372984E+0000
 20
 5.49432330152922E+0000
 11
 8.95289192926430E+0000
 21
 5.51960742600204E+0000
  0
LINE
  8
1
  6
CONTINUOUS
 62
     1
 10
 8.99790850003774E+0000
 20
 5.49432330152922E+0000
 11
 8.95576829259517E+0000
 21
 5.53646350897179E+0000
  0
LINE
  8
1
  6
CONTINUOUS
 62
     1
 10
 9.00669889760320E+0000
 20
 5.50526535027893E+0000
 11
 8.95864465594059E+0000
 21
 5.55331959194154E+0000
  0
LINE
  8
1
  6
CONTINUOUS
 62
     1
 10
 9.00149886486179E+0000
 20
 5.53019782933552E+0000
 11
 8.96152101927146E+0000
 21
 5.57017567491857E+0000
  0
LINE
  8
1
  6
CONTINUOUS
 62
     1
 10
 8.99629883212037E+0000
 20
 5.55513030838483E+0000
 11
 8.96439738261688E+0000
 21
 5.58703175788833E+0000
  0
LINE
  8
1
  6
CONTINUOUS
 62
     1
 10
 8.99109879937896E+0000
 20
 5.58006278744142E+0000
 11
 8.96727374594775E+0000
 21
 5.60388784085808E+0000
  0
LINE
  8
1
  6
CONTINUOUS
 62
     1
 10
 8.98589876662300E+0000
 20
 5.60499526649073E+0000
 11
 8.97015010929317E+0000
 21
 5.62074392383511E+0000
  0
LINE
  8
1
  6
CONTINUOUS
 62
     1
 10
 8.98069873388158E+0000
 20
 5.62992774554732E+0000
 11
 8.97302647262404E+0000
 21
 5.63760000680486E+0000
  0
LINE
  8
1
  6
CONTINUOUS
 62
     1
 10
 9.00727838624152E+0000
 20
 5.50248688921420E+0000
 11
 8.99911479855655E+0000
 21
 5.49432330152922E+0000
  0
LINE
  8
1
  6
CONTINUOUS
 62
     1
 10
 9.00387311530358E+0000
 20
 5.51881406457687E+0000
 11
 8.97938235224865E+0000
 21
 5.49432330152922E+0000
  0
LINE
  8
1
  6
CONTINUOUS
 62
     1
 10
 9.00046784435108E+0000
 20
 5.53514123994682E+0000
 11
 8.95964990594075E+0000
 21
 5.49432330152922E+0000
  0
LINE
  8
1
  6
CONTINUOUS
 62
     1
 10
 8.99706257341313E+0000
 20
 5.55146841530950E+0000
 11
 8.95035918604117E+0000
 21
 5.50476502794481E+0000
  0
LINE
  8
1
  6
CONTINUOUS
 62
     1
 10
 8.99365730246063E+0000
 20
 5.56779559067945E+0000
 11
 8.95441918772121E+0000
 21
 5.52855747593276E+0000
  0
LINE
  8
1
  6
CONTINUOUS
 62
     1
 10
 8.99025203152269E+0000
 20
 5.58412276604213E+0000
 11
 8.95847918940126E+0000
 21
 5.55234992392070E+0000
  0
LINE
  8
1
  6
CONTINUOUS
 62
     1
 10
 8.98684676057019E+0000
 20
 5.60044994141208E+0000
 11
 8.96253919108131E+0000
 21
 5.57614237191592E+0000
  0
LINE
  8
1
  6
CONTINUOUS
 62
     1
 10
 8.98344148963224E+0000
 20
 5.61677711677476E+0000
 11
 8.96659919274680E+0000
 21
 5.59993481990386E+0000
  0
LINE
  8
1
  6
CONTINUOUS
 62
     1
 10
 8.98003621867974E+0000
 20
 5.63310429214471E+0000
 11
 8.97065919442684E+0000
 21
 5.62372726789181E+0000
  0
LINE
  8
1
  6
CONTINUOUS
 62
     1
 10
 8.97663094774180E+0000
 20
 5.64943146750738E+0000
 11
 8.97471919610689E+0000
 21
 5.64751971587975E+0000
  0
LINE
  8
1
  6
CONTINUOUS
 62
     1
 10
 8.97305762930773E+0000
 20
 2.51018277748153E+0000
 11
 8.97305762930773E+0000
 21
 2.51018277748153E+0000
  0
LINE
  8
1
  6
CONTINUOUS
 62
     1
 10
 8.97305762930773E+0000
 20
 2.51018277748153E+0000
 11
 9.00023915067140E+0000
 21
 2.66947210410945E+0000
  0
LINE
  8
1
  6
CONTINUOUS
 62
     1
 10
 9.00023915067140E+0000
 20
 2.66947210410945E+0000
 11
 8.93983551319980E+0000
 21
 2.66947210410945E+0000
  0
LINE
  8
1
  6
CONTINUOUS
 62
     1
 10
 8.93983551319980E+0000
 20
 2.66947210410945E+0000
 11
 8.97305762930773E+0000
 21
 2.51018277748153E+0000
  0
LINE
  8
1
  6
CONTINUOUS
 62
     1
 10
 9.00023915067140E+0000
 20
 2.66947210410945E+0000
 11
 8.93983551319980E+0000
 21
 2.66947210410945E+0000
  0
LINE
  8
1
  6
CONTINUOUS
 62
     1
 10
 8.97449581098044E+0000
 20
 2.51861081897368E+0000
 11
 8.97045761292975E+0000
 21
 2.52264901702074E+0000
  0
LINE
  8
1
  6
CONTINUOUS
 62
     1
 10
 8.97737217432586E+0000
 20
 2.53546690194344E+0000
 11
 8.96525758018834E+0000
 21
 2.54758149607005E+0000
  0
LINE
  8
1
  6
CONTINUOUS
 62
     1
 10
 8.98024853765673E+0000
 20
 2.55232298491683E+0000
 11
 8.96005754744692E+0000
 21
 2.57251397512664E+0000
  0
LINE
  8
1
  6
CONTINUOUS
 62
     1
 10
 8.98312490100216E+0000
 20
 2.56917906788658E+0000
 11
 8.95485751470551E+0000
 21
 2.59744645417959E+0000
  0
LINE
  8
1
  6
CONTINUOUS
 62
     1
 10
 8.98600126433303E+0000
 20
 2.58603515085633E+0000
 11
 8.94965748196410E+0000
 21
 2.62237893323618E+0000
  0
LINE
  8
1
  6
CONTINUOUS
 62
     1
 10
 8.98887762767845E+0000
 20
 2.60289123383336E+0000
 11
 8.94445744922268E+0000
 21
 2.64731141228549E+0000
  0
LINE
  8
1
  6
CONTINUOUS
 62
     1
 10
 8.99175399102387E+0000
 20
 2.61974731680311E+0000
 11
 8.94202920371026E+0000
 21
 2.66947210410581E+0000
  0
LINE
  8
1
  6
CONTINUOUS
 62
     1
 10
 8.99463035435474E+0000
 20
 2.63660339977287E+0000
 11
 8.96176165001816E+0000
 21
 2.66947210410581E+0000
  0
LINE
  8
1
  6
CONTINUOUS
 62
     1
 10
 8.99750671770016E+0000
 20
 2.65345948274626E+0000
 11
 8.98149409632606E+0000
 21
 2.66947210411308E+0000
  0
LINE
  8
1
  6
CONTINUOUS
 62
     1
 10
 8.97508763012593E+0000
 20
 2.52207900146459E+0000
 11
 8.97135499383148E+0000
 21
 2.51834636516651E+0000
  0
LINE
  8
1
  6
CONTINUOUS
 62
     1
 10
 8.97914763180597E+0000
 20
 2.54587144945617E+0000
 11
 8.96794972287898E+0000
 21
 2.53467354053282E+0000
  0
LINE
  8
1
  6
CONTINUOUS
 62
     1
 10
 8.98320763348602E+0000
 20
 2.56966389744412E+0000
 11
 8.96454445194104E+0000
 21
 2.55100071589914E+0000
  0
LINE
  8
1
  6
CONTINUOUS
 62
     1
 10
 8.98726763516606E+0000
 20
 2.59345634543206E+0000
 11
 8.96113918098854E+0000
 21
 2.56732789126181E+0000
  0
LINE
  8
1
  6
CONTINUOUS
 62
     1
 10
 8.99132763684611E+0000
 20
 2.61724879342000E+0000
 11
 8.95773391005059E+0000
 21
 2.58365506662813E+0000
  0
LINE
  8
1
  6
CONTINUOUS
 62
     1
 10
 8.99538763852615E+0000
 20
 2.64104124141159E+0000
 11
 8.95432863911265E+0000
 21
 2.59998224199444E+0000
  0
LINE
  8
1
  6
CONTINUOUS
 62
     1
 10
 8.99944764019165E+0000
 20
 2.66483368939953E+0000
 11
 8.95092336816015E+0000
 21
 2.61630941736075E+0000
  0
LINE
  8
1
  6
CONTINUOUS
 62
     1
 10
 8.98435360859730E+0000
 20
 2.66947210410581E+0000
 11
 8.94751809722220E+0000
 21
 2.63263659272707E+0000
  0
LINE
  8
1
  6
CONTINUOUS
 62
     1
 10
 8.96462116227485E+0000
 20
 2.66947210410581E+0000
 11
 8.94411282626970E+0000
 21
 2.64896376809338E+0000
  0
LINE
  8
1
  6
CONTINUOUS
 62
     1
 10
 8.94488871596695E+0000
 20
 2.66947210410581E+0000
 11
 8.94070755533176E+0000
 21
 2.66529094345969E+0000
  0
TEXT
  8
1
 62
     1
 10
 4.40967448417359E+0000
 20
 6.56915968687099E+0000
 40
 1.18110236219991E-0001
  1
M10x1 um 30   versetzt gezeichnet
  7
STANDARD
 11
 4.40967448417359E+0000
 21
 6.68726992308802E+0000
 50
 0.00000000000000E+0000
 41
 2.43276388000822E-0001
  0
TEXT
  8
1
 62
     1
 10
 7.90617582980485E+0000
 20
 6.74441642098827E+0000
 40
 1.18110236219991E-0001
  1
20
  7
STANDARD
 11
 7.90617582980485E+0000
 21
 6.86252665720531E+0000
 50
 0.00000000000000E+0000
 41
 2.94609937749101E-0001
  0
TEXT
  8
1
 62
     1
 10
 8.13927591951506E+0000
 20
 6.20404149080423E+0000
 40
 1.18110236219991E-0001
  1
11
  7
STANDARD
 11
 8.13927591951506E+0000
 21
 6.32215172702126E+0000
 50
 0.00000000000000E+0000
 41
 2.94609937749101E-0001
  0
TEXT
  8
1
 62
     1
 10
 8.05186338587373E+0000
 20
 4.26161268770375E+0000
 40
 1.18110236219991E-0001
  1
10
  7
STANDARD
 11
 8.05186338587373E+0000
 21
 4.37972292392078E+0000
 50
 0.00000000000000E+0000
 41
 2.94609937749101E-0001
  0
TEXT
  8
1
 62
     1
 10
 7.74591951812909E+0000
 20
 2.21695078969424E+0000
 40
 1.18110236219991E-0001
  1
7.5
  7
STANDARD
 11
 7.74591951812909E+0000
 21
 2.33506102591491E+0000
 50
 0.00000000000000E+0000
 41
 2.45508281464026E-0001
  0
TEXT
  8
1
 62
     1
 10
 8.19755094194261E+0000
 20
 1.99787987205127E+0000
 40
 1.18110236219991E-0001
  1
9
  7
STANDARD
 11
 8.19755094194261E+0000
 21
 2.11599010827194E+0000
 50
 0.00000000000000E+0000
 41
 2.94609937787754E-0001
  0
TEXT
  8
1
 62
     1
 10
 7.68764449570881E+0000
 20
 3.88188976377933E+0000
 40
 1.18110236219991E-0001
  1
22
  7
STANDARD
 11
 7.68764449570881E+0000
 21
 4.00000000000000E+0000
 50
 9.00000000000000E+0001
 41
 2.94609937768655E-0001
  0
TEXT
  8
1
 62
     1
 10
 7.13403178263979E+0000
 20
 3.85268030809311E+0000
 40
 1.18110236219991E-0001
  1
60
  7
STANDARD
 11
 7.13403178263979E+0000
 21
 3.97079054431379E+0000
 50
 9.00000000000000E+0001
 41
 2.94609937768655E-0001
  0
TEXT
  8
1
 62
     1
 10
 8.80943867743190E+0000
 20
 3.82347085241418E+0000
 40
 1.18110236219991E-0001
  1
80
  7
STANDARD
 11
 8.80943867743190E+0000
 21
 3.94158108863485E+0000
 50
 9.00000000000000E+0001
 41
 2.94609937749101E-0001
  0
TEXT
  8
1
 62
     1
 10
 5.24009355376620E+0000
 20
 4.93343016847939E+0000
 40
 1.18110236219991E-0001
  1
4.5
  7
STANDARD
 11
 5.24009355376620E+0000
 21
 5.05154040469642E+0000
 50
 9.00000000000000E+0001
 41
 2.45508281464026E-0001
  0
TEXT
  8
1
 62
     1
 10
 5.22552479815931E+0000
 20
 3.22467701085043E+0000
 40
 1.18110236219991E-0001
  1
8
  7
STANDARD
 11
 5.22552479815931E+0000
 21
 3.34278724707110E+0000
 50
 9.00000000000000E+0001
 41
 2.94609937749101E-0001
  0
TEXT
  8
1
 62
     1
 10
 1.49592336281421E+0000
 20
 3.60439993477121E+0000
 40
 1.18110236219991E-0001
  1
TK 70
  7
STANDARD
 11
 1.49592336281421E+0000
 21
 3.72251017099188E+0000
 50
 9.00000000000000E+0001
 41
 2.94609937762743E-0001
  0
LINE
  8
1
  6
CONTINUOUS
 62
     1
 10
 5.36288421868085E+0000
 20
 5.01725328884640E+0000
 11
 5.36288421868085E+0000
 21
 5.26909737353708E+0000
  0
TEXT
  8
1
 62
     1
 10
 9.12141422662535E+0000
 20
 3.92960704414691E-0001
 40
 1.18110236219991E-0001
  1
(c)
  7
STANDARD
 11
 9.12141422662535E+0000
 21
 5.11070940634454E-0001
 50
 0.00000000000000E+0000
 41
 1.96406625165992E-0001
0
ENDSEC
0
EOF
