0
SECTION
  2
HEADER
  9
$LTSCALE
 40
     10
  9
$LIMMIN
 10
     0.0
 20
     0.0
  9
$LIMMAX
 10
      11.5
 20
       8.0
  9
$EXTMIN
 10
     0.0
 20
     0.0
  9
$EXTMAX
 10
      11.5
 20
       8.0
   9
$CLAYER
   8
1
   9
$CECOLOR
  62
     7
   9
$CELTYPE
   6
CONTINUOUS
  0
ENDSEC
  0
SECTION
  2
TABLES
  0
TABLE
  2
LTYPE
 70
    10
  0
LTYPE
  2
CONTINUOUS
 70
    64
  3
Solid line
 72
    65
 73
     0
 40
0.0
  0
LTYPE
  2
DASHED
 70
     0
  3
__ __ __ __ __ __ __ __ __ __ __ __ __ __ __
 72
    65
 73
     2
 40
0.75
 49
0.5
 49
-0.25
  0
LTYPE
  2
HIDDEN
 70
     0
  3
_ _ _ _ _ _ _ _ _ _ _ _ _ _ _ _ _ _ _ _ _ _
 72
    65
 73
     2
 40
0.375
 49
0.25
 49
-0.125
  0
LTYPE
  2
CENTER
 70
     0
  3
____ _ ____ _ ____ _ ____ _ ____ _ ____ _ __
 72
    65
 73
     4
 40
2.0
 49
1.25
 49
-0.25
 49
0.25
 49
-0.25
  0
LTYPE
  2
PHANTOM
 70
     0
  3
_____ _ _ _____ _ _ _____ _ _ _____ _ _ ____
 72
    65
 73
     6
 40
2.5
 49
1.25
 49
-0.25
 49
0.25
 49
-0.25
 49
0.25
 49
-0.25
  0
LTYPE
  2
DOT
 70
     0
  3
............................................
 72
    65
 73
     2
 40
0.25
 49
0.0
 49
-0.25
  0
LTYPE
  2
DASHDOT
 70
     0
  3
__ . __ . __ . __ . __ . __ . __ . __ . __ .
 72
    65
 73
     4
 40
1.0
 49
0.5
 49
-0.25
 49
0.0
 49
-0.25
  0
LTYPE
  2
BORDER
 70
     0
  3
__ __ . __ __ . __ __ . __ __ . __ __ . __ _
 72
    65
 73
     6
 40
1.75
 49
0.5
 49
-0.25
 49
0.5
 49
-0.25
 49
0.0
 49
-0.25
  0
LTYPE
  2
DIVIDE
 70
     0
  3
__ . . __ . . __ . . __ . . __ . . __ . . __
 72
    65
 73
     6
 40
1.25
 49
0.5
 49
-0.25
 49
0.0
 49
-0.25
 49
0.0
 49
-0.25
  0
LTYPE
  2
DIVIDE2
 70
     0
  3
close
 72
    65
 73
     2
 40
0.1
 49
0.05
 49
-0.05
  0
ENDTAB
0
TABLE
  2
LAYER
 70
   256
  0
LAYER
  2
1
 70
     0
  6
CONTINUOUS
 62
1
  0
ENDTAB
  0
TABLE
  2
STYLE
 70
     8
  0
STYLE
  2
TXT
 70
0
 40
0.0
 41
1.0
 50
0.0
 71
0
 42
1.0
  3
TXT
  4

  0
STYLE
  2
COMPLEX
 70
0
 40
0.0
 41
1.0
 50
0.0
 71
0
 42
1.0
  3
COMPLEX
  4

  0
STYLE
  2
ITALIC
 70
0
 40
0.0
 41
1.0
 50
0.0
 71
0
 42
1.0
  3
ITALIC
  4

  0
STYLE
  2
SIMPLEX
70
0
 40
0.0
 41
1.0
 50
0.0
 71
0
 42
1.0
  3
SIMPLEX
  4

  0
STYLE
  2
MONOTXT
 70
0
 40
0.0
 41
1.0
 50
0.0
 71
0
 42
1.0
  3
MONOTXT
  4

  0
STYLE
  2
SCRIPTC
 70
0
 40
0.0
 41
1.0
 50
0.0
 71
0
 42
1.0
  3
SCRIPTC
  4

  0
STYLE
  2
GOTHICE
 70
0
 40
0.0
 41
1.0
 50
0.0
 71
0
 42
1.0
  3
GOTHICE
  4

  0
ENDTAB
  0
TABLE
  2
VIEW
 70
     0
  0
ENDTAB
  0
ENDSEC
  0
SECTION
  2
ENTITIES
  0
LINE
  8
1
  6
CONTINUOUS
 62
     0
 10
 1.10824245900876E+0001
 20
 3.66054472739052E-0001
 11
 8.90078496305796E+0000
 21
 3.66054472739052E-0001
  0
LINE
  8
1
  6
CONTINUOUS
 62
     0
 10
 8.90078496305796E+0000
 20
 3.66054472739052E-0001
 11
 8.90078496305796E+0000
 21
 1.55291635594767E+0000
  0
LINE
  8
1
  6
CONTINUOUS
 62
     0
 10
 8.90078496305796E+0000
 20
 1.55291635594767E+0000
 11
 1.10824245900876E+0001
 21
 1.55291635594767E+0000
  0
LINE
  8
1
  6
CONTINUOUS
 62
     0
 10
 1.10824245900876E+0001
 20
 1.55291635594767E+0000
 11
 1.10824245900876E+0001
 21
 3.66054472739052E-0001
  0
LINE
  8
1
  6
CONTINUOUS
 62
     0
 10
 8.90010336294654E+0000
 20
 1.23953147667635E+0000
 11
 1.10833476808330E+0001
 21
 1.23953147667635E+0000
  0
LINE
  8
1
  6
CONTINUOUS
 62
     0
 10
 8.90774062665878E+0000
 20
 5.23861750931246E-0001
 11
 1.10909849445452E+0001
 21
 5.23861750931246E-0001
  0
TEXT
  8
1
 62
     0
 10
 8.94823287868348E+0000
 20
 1.35143637997317E+0000
 40
 1.18110236219991E-0001
  1
Benennung
  7
STANDARD
 11
 8.94823287868348E+0000
 21
 1.46954661619384E+0000
 50
 0.00000000000000E+0000
 41
 3.16937882393631E-0001
  0
LINE
  8
1
  6
CONTINUOUS
 62
     0
 10
 9.57264299190138E+0000
 20
 1.55147486233909E+0000
 11
 9.57264299190138E+0000
 21
 1.23953147667635E+0000
  0
LINE
  8
1
  6
CONTINUOUS
 62
     0
 10
 8.90010336294654E+0000
 20
 1.07349709398113E+0000
 11
 1.10833476808330E+0001
 21
 1.07349709398113E+0000
  0
LINE
  8
1
  6
CONTINUOUS
 62
     0
 10
 8.90010336294654E+0000
 20
 9.07462711285916E-0001
 11
 1.10833476808330E+0001
 21
 9.07462711285916E-0001
  0
TEXT
  8
1
 62
     0
 10
 8.95298969198484E+0000
 20
 1.08890528919073E+0000
 40
 1.18110236219991E-0001
  1
Werkstoff
  7
STANDARD
 11
 8.95298969198484E+0000
 21
 1.20701552541141E+0000
 50
 0.00000000000000E+0000
 41
 2.56976661400131E-0001
  0
LINE
  8
1
  6
CONTINUOUS
 62
     0
 10
 9.57264299190138E+0000
 20
 1.23953147667635E+0000
 11
 9.57264299190138E+0000
 21
 1.07349709398113E+0000
  0
LINE
  8
1
  6
CONTINUOUS
 62
     0
 10
 1.05011491960613E+0001
 20
 1.23953147667635E+0000
 11
 1.05011491960613E+0001
 21
 1.07349709398113E+0000
  0
TEXT
  8
1
 62
     0
 10
 1.05670323736267E+0001
 20
 1.08890528919073E+0000
 40
 1.18110236219991E-0001
  1
M 1:1
  7
STANDARD
 11
 1.05670323736267E+0001
 21
 1.20701552541141E+0000
 50
 0.00000000000000E+0000
 41
 2.62116194628561E-0001
  0
LINE
  8
1
  6
CONTINUOUS
 62
     0
 10
 8.90078496305796E+0000
 20
 1.55291635594767E+0000
 11
 1.10883666332957E+0001
 21
 1.55291635594767E+0000
  0
LINE
  8
1
  6
CONTINUOUS
 62
     0
 10
 8.90078496305796E+0000
 20
 1.55291635594767E+0000
 11
 1.10824245900876E+0001
 21
 1.55291635594767E+0000
  0
LINE
  8
1
  6
CONTINUOUS
 62
     0
 10
 1.10824245900876E+0001
 20
 1.55291635594767E+0000
 11
 1.10824245900876E+0001
 21
 3.66054472739052E-0001
  0
LINE
  8
1
  6
CONTINUOUS
 62
     0
 10
 1.10824245900876E+0001
 20
 3.66054472739052E-0001
 11
 8.90078496305796E+0000
 21
 3.66054472739052E-0001
  0
LINE
  8
1
  6
CONTINUOUS
 62
     0
 10
 8.90078496305796E+0000
 20
 3.66054472739052E-0001
 11
 8.90078496305796E+0000
 21
 1.55291635594767E+0000
  0
TEXT
  8
1
 62
     0
 10
 8.94643199958955E+0000
 20
 9.29817355409796E-0001
 40
 1.18110236219991E-0001
  1
Bearb.
  7
STANDARD
 11
 8.94643199958955E+0000
 21
 1.04792759162956E+0000
 50
 0.00000000000000E+0000
 41
 2.69825494470297E-0001
  0
LINE
  8
1
  6
CONTINUOUS
 62
     0
 10
 9.57372805119667E+0000
 20
 1.07462383869279E+0000
 11
 9.57372805119667E+0000
 21
 9.08513856978971E-0001
  0
LINE
  8
1
  6
CONTINUOUS
 62
     0
 10
 8.90204784499656E+0000
 20
 7.36471375930705E-0001
 11
 1.10827893074456E+0001
 21
 7.36471375930705E-0001
  0
LINE
  8
1
  6
CONTINUOUS
 62
     0
 10
 9.57372805119667E+0000
 20
 9.08513856978971E-0001
 11
 9.57372805119667E+0000
 21
 7.36471375930705E-0001
  0
TEXT
  8
1
 62
     0
 10
 8.94643199958955E+0000
 20
 7.54808624687030E-0001
 40
 1.18110236219991E-0001
  1
Datum
  7
STANDARD
 11
 8.94643199958955E+0000
 21
 8.72918860906793E-0001
 50
 0.00000000000000E+0000
 41
 3.23790593364265E-0001
  0
LINE
  8
1
  6
CONTINUOUS
 62
     0
 10
 1.04998774104170E+0001
 20
 5.19935149772209E-0001
 11
 1.04998774104170E+0001
 21
 3.68656416430895E-0001
  0
TEXT
  8
1
 62
     0
 10
 9.62994798035652E+0000
 20
 9.20918606393570E-0001
 40
 1.18110236219991E-0001
  1
D.Freind
  7
STANDARD
 11
 9.62994798035652E+0000
 21
 1.03902884261333E+0000
 50
 0.00000000000000E+0000
 41
 2.60188869667672E-0001
  0
TEXT
  8
1
 62
     0
 10
 1.05235489595507E+0001
 20
 3.84027415512719E-0001
 40
 1.18110236219991E-0001
  1
Blatt
  7
STANDARD
 11
 1.05235489595507E+0001
 21
 5.02137651732482E-0001
 50
 0.00000000000000E+0000
 41
 2.31278995260254E-0001
  0
TEXT
  8
1
 62
     0
 10
 9.04969655426976E+0000
 20
 5.46297824291287E-0001
 40
 1.18110236219991E-0001
  1
für Revolver 8-fach 
  7
STANDARD
 11
 9.04969655426976E+0000
 21
 6.64408060511050E-0001
 50
 0.00000000000000E+0000
 41
 2.35133645181349E-0001
  0
TEXT
  8
1
 62
     0
 10
 9.25031665858114E+0000
 20
 3.93308872470698E-0001
 40
 1.18110236219991E-0001
  1
www.cnc-projects.de.vu
  7
STANDARD
 11
 9.25031665858114E+0000
 21
 5.11419108690461E-0001
 50
 0.00000000000000E+0000
 41
 2.66321267269177E-0001
  0
TEXT
  8
1
 62
     0
 10
 9.63511565663794E+0000
 20
 1.10198660545939E+0000
 40
 1.18110236219991E-0001
  1
Aluminium
  7
STANDARD
 11
 9.63511565663794E+0000
 21
 1.22009684168006E+0000
 50
 0.00000000000000E+0000
 41
 2.99806104967047E-0001
  0
TEXT
  8
1
 62
     0
 10
 9.63343892543344E+0000
 20
 7.63141181908395E-0001
 40
 1.18110236219991E-0001
  1
28.12.2003
  7
STANDARD
 11
 9.63343892543344E+0000
 21
 8.81251418128159E-0001
 50
 0.00000000000000E+0000
 41
 2.77534794312487E-0001
  0
TEXT
  8
1
 62
     0
 10
 1.08207106508344E+0001
 20
 3.88803059645397E-0001
 40
 1.18110236219991E-0001
  1
1
  7
STANDARD
 11
 1.08207106508344E+0001
 21
 5.06913295865161E-0001
 50
 0.00000000000000E+0000
 41
 3.08371993680339E-0001
  0
TEXT
  8
1
 62
     0
 10
 9.58237347487011E+0000
 20
 1.30189895260810E+0000
 40
 1.96850393699833E-0001
  1
Druckdosenflansch
  7
STANDARD
 11
 9.58237347487011E+0000
 21
 1.49874934630861E+0000
 50
 0.00000000000000E+0000
 41
 1.68697620072408E-0001
  0
LINE
  8
1
  6
CONTINUOUS
 62
     0
 10
 7.00179096091597E+0000
 20
 2.85892380034056E+0000
 11
 8.17044275281660E+0000
 21
 2.85892380033329E+0000
  0
LINE
  8
1
  6
CONTINUOUS
 62
     0
 10
 7.00179096092324E+0000
 20
 6.00325721102126E+0000
 11
 8.18255313408736E+0000
 21
 6.00325721102126E+0000
  0
LINE
  8
1
  6
CONTINUOUS
 62
     0
 10
 8.18255313408736E+0000
 20
 6.00325721102126E+0000
 11
 8.18255313408736E+0000
 21
 5.60869799925422E+0000
  0
LINE
  8
1
  6
CONTINUOUS
 62
     0
 10
 8.18255313408736E+0000
 20
 5.60869799925422E+0000
 11
 7.00179096092324E+0000
 21
 5.60869799925422E+0000
  0
LINE
  8
1
  6
CONTINUOUS
 62
     0
 10
 8.17044275281660E+0000
 20
 3.25348301210033E+0000
 11
 7.00179096092324E+0000
 21
 3.25348301210033E+0000
  0
LINE
  8
1
  6
CONTINUOUS
 62
     0
 10
 7.02496790128498E+0000
 20
 5.89651143161609E+0000
 11
 7.00035428897536E+0000
 21
 5.92112504392571E+0000
  0
LINE
  8
1
  6
CONTINUOUS
 62
     0
 10
 7.07505658968876E+0000
 20
 5.89653267258109E+0000
 11
 7.00121575278172E+0000
 21
 5.97037350949540E+0000
  0
LINE
  8
1
  6
CONTINUOUS
 62
     0
 10
 7.12514527809981E+0000
 20
 5.89655391354609E+0000
 11
 7.01844198061735E+0000
 21
 6.00325721102854E+0000
  0
LINE
  8
1
  6
CONTINUOUS
 62
     0
 10
 7.17523396650358E+0000
 20
 5.89657515451836E+0000
 11
 7.06855190999340E+0000
 21
 6.00325721102854E+0000
  0
LINE
  8
1
  6
CONTINUOUS
 62
     0
 10
 7.22532265490736E+0000
 20
 5.89659639548336E+0000
 11
 7.11866183936945E+0000
 21
 6.00325721102854E+0000
  0
LINE
  8
1
  6
CONTINUOUS
 62
     0
 10
 7.27541134331841E+0000
 20
 5.89661763644835E+0000
 11
 7.16877176873822E+0000
 21
 6.00325721102854E+0000
  0
LINE
  8
1
  6
CONTINUOUS
 62
     0
 10
 7.32550003172219E+0000
 20
 5.89663887742063E+0000
 11
 7.21888169811427E+0000
 21
 6.00325721102854E+0000
  0
LINE
  8
1
  6
CONTINUOUS
 62
     0
 10
 7.37558872013324E+0000
 20
 5.89666011838563E+0000
 11
 7.26899162749032E+0000
 21
 6.00325721102854E+0000
  0
LINE
  8
1
  6
CONTINUOUS
 62
     0
 10
 7.42567740853701E+0000
 20
 5.89668135935062E+0000
 11
 7.31910155686637E+0000
 21
 6.00325721102854E+0000
  0
LINE
  8
1
  6
CONTINUOUS
 62
     0
 10
 7.47576609694806E+0000
 20
 5.89670260032290E+0000
 11
 7.36921148623514E+0000
 21
 6.00325721102854E+0000
  0
LINE
  8
1
  6
CONTINUOUS
 62
     0
 10
 7.52585478535184E+0000
 20
 5.89672384128789E+0000
 11
 7.41932141561119E+0000
 21
 6.00325721102854E+0000
  0
LINE
  8
1
  6
CONTINUOUS
 62
     0
 10
 7.57594347375561E+0000
 20
 5.89674508225289E+0000
 11
 7.46943134498724E+0000
 21
 6.00325721102854E+0000
  0
LINE
  8
1
  6
CONTINUOUS
 62
     0
 10
 7.62603216216667E+0000
 20
 5.89676632322517E+0000
 11
 7.51954127435602E+0000
 21
 6.00325721102854E+0000
  0
LINE
  8
1
  6
CONTINUOUS
 62
     0
 10
 7.67612085057044E+0000
 20
 5.89678756419016E+0000
 11
 7.56965120373206E+0000
 21
 6.00325721102854E+0000
  0
LINE
  8
1
  6
CONTINUOUS
 62
     0
 10
 7.72620953898149E+0000
 20
 5.89680880515516E+0000
 11
 7.61976113310811E+0000
 21
 6.00325721102854E+0000
  0
LINE
  8
1
  6
CONTINUOUS
 62
     0
 10
 7.77629822738527E+0000
 20
 5.89683004612016E+0000
 11
 7.66987106248416E+0000
 21
 6.00325721102854E+0000
  0
LINE
  8
1
  6
CONTINUOUS
 62
     0
 10
 7.82638691578904E+0000
 20
 5.89685128709243E+0000
 11
 7.71998099185294E+0000
 21
 6.00325721102854E+0000
  0
LINE
  8
1
  6
CONTINUOUS
 62
     0
 10
 7.87647560420010E+0000
 20
 5.89687252805743E+0000
 11
 7.77009092122898E+0000
 21
 6.00325721102854E+0000
  0
LINE
  8
1
  6
CONTINUOUS
 62
     0
 10
 7.92656429260387E+0000
 20
 5.89689376902243E+0000
 11
 7.82020085060503E+0000
 21
 6.00325721102854E+0000
  0
LINE
  8
1
  6
CONTINUOUS
 62
     0
 10
 7.97665298101492E+0000
 20
 5.89691500999470E+0000
 11
 7.87031077997381E+0000
 21
 6.00325721102854E+0000
  0
LINE
  8
1
  6
CONTINUOUS
 62
     0
 10
 8.02674166942597E+0000
 20
 5.89693625095970E+0000
 11
 7.92042070934986E+0000
 21
 6.00325721102854E+0000
  0
LINE
  8
1
  6
CONTINUOUS
 62
     0
 10
 8.07683035782247E+0000
 20
 5.89695749192470E+0000
 11
 7.97053063872590E+0000
 21
 6.00325721102854E+0000
  0
LINE
  8
1
  6
CONTINUOUS
 62
     0
 10
 8.12691904623352E+0000
 20
 5.89697873289697E+0000
 11
 8.02064056809468E+0000
 21
 6.00325721102854E+0000
  0
LINE
  8
1
  6
CONTINUOUS
 62
     0
 10
 8.17700773464458E+0000
 20
 5.89699997386197E+0000
 11
 8.07075049747073E+0000
 21
 6.00325721102854E+0000
  0
LINE
  8
1
  6
CONTINUOUS
 62
     0
 10
 8.18210363000981E+0000
 20
 5.94201400785823E+0000
 11
 8.12086042684678E+0000
 21
 6.00325721102854E+0000
  0
LINE
  8
1
  6
CONTINUOUS
 62
     0
 10
 8.18246873990574E+0000
 20
 5.99175882734562E+0000
 11
 8.17097035622282E+0000
 21
 6.00325721102854E+0000
  0
LINE
  8
1
  6
CONTINUOUS
 62
     0
 10
 7.02684592561855E+0000
 20
 5.60869799925422E+0000
 11
 7.00136152928462E+0000
 21
 5.63418239559542E+0000
  0
LINE
  8
1
  6
CONTINUOUS
 62
     0
 10
 7.07695585499459E+0000
 20
 5.60869799925422E+0000
 11
 7.00050266600738E+0000
 21
 5.68515118824143E+0000
  0
LINE
  8
1
  6
CONTINUOUS
 62
     0
 10
 7.12706578437064E+0000
 20
 5.60869799925422E+0000
 11
 7.01624118331529E+0000
 21
 5.71952260030957E+0000
  0
LINE
  8
1
  6
CONTINUOUS
 62
     0
 10
 7.17717571374669E+0000
 20
 5.60869799925422E+0000
 11
 7.06633731410693E+0000
 21
 5.71953639889398E+0000
  0
LINE
  8
1
  6
CONTINUOUS
 62
     0
 10
 7.22728564311547E+0000
 20
 5.60869799925422E+0000
 11
 7.11643344489130E+0000
 21
 5.71955019747838E+0000
  0
LINE
  8
1
  6
CONTINUOUS
 62
     0
 10
 7.27739557249151E+0000
 20
 5.60869799925422E+0000
 11
 7.16652957568294E+0000
 21
 5.71956399606279E+0000
  0
LINE
  8
1
  6
CONTINUOUS
 62
     0
 10
 7.32750550186756E+0000
 20
 5.60869799925422E+0000
 11
 7.21662570646731E+0000
 21
 5.71957779465447E+0000
  0
LINE
  8
1
  6
CONTINUOUS
 62
     0
 10
 7.37761543123634E+0000
 20
 5.60869799925422E+0000
 11
 7.26672183725896E+0000
 21
 5.71959159323887E+0000
  0
LINE
  8
1
  6
CONTINUOUS
 62
     0
 10
 7.42772536061238E+0000
 20
 5.60869799925422E+0000
 11
 7.31681796804332E+0000
 21
 5.71960539182328E+0000
  0
LINE
  8
1
  6
CONTINUOUS
 62
     0
 10
 7.47783528998843E+0000
 20
 5.60869799925422E+0000
 11
 7.36691409883497E+0000
 21
 5.71961919040768E+0000
  0
LINE
  8
1
  6
CONTINUOUS
 62
     0
 10
 7.52794521936448E+0000
 20
 5.60869799925422E+0000
 11
 7.41701022962661E+0000
 21
 5.71963298899209E+0000
  0
LINE
  8
1
  6
CONTINUOUS
 62
     0
 10
 7.57805514873326E+0000
 20
 5.60869799925422E+0000
 11
 7.46710636041098E+0000
 21
 5.71964678757649E+0000
  0
LINE
  8
1
  6
CONTINUOUS
 62
     0
 10
 7.62816507810930E+0000
 20
 5.60869799925422E+0000
 11
 7.51720249120262E+0000
 21
 5.71966058616090E+0000
  0
LINE
  8
1
  6
CONTINUOUS
 62
     0
 10
 7.67827500748535E+0000
 20
 5.60869799925422E+0000
 11
 7.56729862198699E+0000
 21
 5.71967438474530E+0000
  0
LINE
  8
1
  6
CONTINUOUS
 62
     0
 10
 7.72838493686140E+0000
 20
 5.60869799925422E+0000
 11
 7.61739475277864E+0000
 21
 5.71968818332971E+0000
  0
LINE
  8
1
  6
CONTINUOUS
 62
     0
 10
 7.77849486623018E+0000
 20
 5.60869799925422E+0000
 11
 7.66749088357028E+0000
 21
 5.71970198191411E+0000
  0
LINE
  8
1
  6
CONTINUOUS
 62
     0
 10
 7.82860479560622E+0000
 20
 5.60869799925422E+0000
 11
 7.71758701435465E+0000
 21
 5.71971578050579E+0000
  0
LINE
  8
1
  6
CONTINUOUS
 62
     0
 10
 7.87871472498227E+0000
 20
 5.60869799925422E+0000
 11
 7.76768314514629E+0000
 21
 5.71972957909020E+0000
  0
LINE
  8
1
  6
CONTINUOUS
 62
     0
 10
 7.92882465435105E+0000
 20
 5.60869799925422E+0000
 11
 7.81777927593794E+0000
 21
 5.71974337767460E+0000
  0
LINE
  8
1
  6
CONTINUOUS
 62
     0
 10
 7.97893458372710E+0000
 20
 5.60869799925422E+0000
 11
 7.86787540672231E+0000
 21
 5.71975717625901E+0000
  0
LINE
  8
1
  6
CONTINUOUS
 62
     0
 10
 8.02904451309587E+0000
 20
 5.60869799925422E+0000
 11
 7.91797153751395E+0000
 21
 5.71977097484341E+0000
  0
LINE
  8
1
  6
CONTINUOUS
 62
     0
 10
 8.07915444247192E+0000
 20
 5.60869799925422E+0000
 11
 7.96806766829832E+0000
 21
 5.71978477342782E+0000
  0
LINE
  8
1
  6
CONTINUOUS
 62
     0
 10
 8.12926437184797E+0000
 20
 5.60869799925422E+0000
 11
 8.01816379908996E+0000
 21
 5.71979857201222E+0000
  0
LINE
  8
1
  6
CONTINUOUS
 62
     0
 10
 8.17937430122402E+0000
 20
 5.60869799925422E+0000
 11
 8.06825992987433E+0000
 21
 5.71981237059663E+0000
  0
LINE
  8
1
  6
CONTINUOUS
 62
     0
 10
 8.18222150522342E+0000
 20
 5.65596072463813E+0000
 11
 8.11835606067325E+0000
 21
 5.71982616918103E+0000
  0
LINE
  8
1
  6
CONTINUOUS
 62
     0
 10
 8.18186741377576E+0000
 20
 5.70642474544729E+0000
 11
 8.16845219145762E+0000
 21
 5.71983996777271E+0000
  0
LINE
  8
1
  6
CONTINUOUS
 62
     0
 10
 7.02488012326648E+0000
 20
 3.13887816749047E+0000
 11
 7.00024417196255E+0000
 21
 3.16351411879077E+0000
  0
LINE
  8
1
  6
CONTINUOUS
 62
     0
 10
 7.07499897890375E+0000
 20
 3.13886924122198E+0000
 11
 7.00109112500650E+0000
 21
 3.21277709512287E+0000
  0
LINE
  8
1
  6
CONTINUOUS
 62
     0
 10
 7.12511783454829E+0000
 20
 3.13886031495713E+0000
 11
 7.01049513740145E+0000
 21
 3.25348301210033E+0000
  0
LINE
  8
1
  6
CONTINUOUS
 62
     0
 10
 7.17523669019283E+0000
 20
 3.13885138868500E+0000
 11
 7.06060506677750E+0000
 21
 3.25348301210033E+0000
  0
LINE
  8
1
  6
CONTINUOUS
 62
     0
 10
 7.22535554583010E+0000
 20
 3.13884246242014E+0000
 11
 7.11071499615355E+0000
 21
 3.25348301210033E+0000
  0
LINE
  8
1
  6
CONTINUOUS
 62
     0
 10
 7.27547440147464E+0000
 20
 3.13883353615165E+0000
 11
 7.16082492552232E+0000
 21
 3.25348301210033E+0000
  0
LINE
  8
1
  6
CONTINUOUS
 62
     0
 10
 7.32559325711190E+0000
 20
 3.13882460988316E+0000
 11
 7.21093485489837E+0000
 21
 3.25348301210033E+0000
  0
LINE
  8
1
  6
CONTINUOUS
 62
     0
 10
 7.37571211275645E+0000
 20
 3.13881568361830E+0000
 11
 7.26104478427442E+0000
 21
 3.25348301210033E+0000
  0
LINE
  8
1
  6
CONTINUOUS
 62
     0
 10
 7.42583096840099E+0000
 20
 3.13880675734617E+0000
 11
 7.31115471364319E+0000
 21
 3.25348301210033E+0000
  0
LINE
  8
1
  6
CONTINUOUS
 62
     0
 10
 7.47594982403825E+0000
 20
 3.13879783108132E+0000
 11
 7.36126464301924E+0000
 21
 3.25348301210033E+0000
  0
LINE
  8
1
  6
CONTINUOUS
 62
     0
 10
 7.52606867968279E+0000
 20
 3.13878890481283E+0000
 11
 7.41137457239529E+0000
 21
 3.25348301210033E+0000
  0
LINE
  8
1
  6
CONTINUOUS
 62
     0
 10
 7.57618753532734E+0000
 20
 3.13877997854433E+0000
 11
 7.46148450177134E+0000
 21
 3.25348301210033E+0000
  0
LINE
  8
1
  6
CONTINUOUS
 62
     0
 10
 7.62630639096460E+0000
 20
 3.13877105227948E+0000
 11
 7.51159443114011E+0000
 21
 3.25348301210033E+0000
  0
LINE
  8
1
  6
CONTINUOUS
 62
     0
 10
 7.67642524660914E+0000
 20
 3.13876212600735E+0000
 11
 7.56170436051616E+0000
 21
 3.25348301210033E+0000
  0
LINE
  8
1
  6
CONTINUOUS
 62
     0
 10
 7.72654410225368E+0000
 20
 3.13875319974250E+0000
 11
 7.61181428989221E+0000
 21
 3.25348301210033E+0000
  0
LINE
  8
1
  6
CONTINUOUS
 62
     0
 10
 7.77666295789095E+0000
 20
 3.13874427347400E+0000
 11
 7.66192421926098E+0000
 21
 3.25348301210033E+0000
  0
LINE
  8
1
  6
CONTINUOUS
 62
     0
 10
 7.82678181353549E+0000
 20
 3.13873534720551E+0000
 11
 7.71203414863703E+0000
 21
 3.25348301210033E+0000
  0
LINE
  8
1
  6
CONTINUOUS
 62
     0
 10
 7.87690066917276E+0000
 20
 3.13872642094066E+0000
 11
 7.76214407801308E+0000
 21
 3.25348301210033E+0000
  0
LINE
  8
1
  6
CONTINUOUS
 62
     0
 10
 7.92701952481730E+0000
 20
 3.13871749466853E+0000
 11
 7.81225400738913E+0000
 21
 3.25348301210033E+0000
  0
LINE
  8
1
  6
CONTINUOUS
 62
     0
 10
 7.97713838046184E+0000
 20
 3.13870856840367E+0000
 11
 7.86236393675790E+0000
 21
 3.25348301210033E+0000
  0
LINE
  8
1
  6
CONTINUOUS
 62
     0
 10
 8.02725723609910E+0000
 20
 3.13869964213518E+0000
 11
 7.91247386613395E+0000
 21
 3.25348301210033E+0000
  0
LINE
  8
1
  6
CONTINUOUS
 62
     0
 10
 8.07737609173637E+0000
 20
 3.13869071586669E+0000
 11
 7.96258379551000E+0000
 21
 3.25348301210033E+0000
  0
LINE
  8
1
  6
CONTINUOUS
 62
     0
 10
 8.12749494738819E+0000
 20
 3.13868178960183E+0000
 11
 8.01269372488605E+0000
 21
 3.25348301210033E+0000
  0
LINE
  8
1
  6
CONTINUOUS
 62
     0
 10
 8.17112537541834E+0000
 20
 3.14516129094409E+0000
 11
 8.06280365426210E+0000
 21
 3.25348301210033E+0000
  0
LINE
  8
1
  6
CONTINUOUS
 62
     0
 10
 8.17080758968950E+0000
 20
 3.19558900605625E+0000
 11
 8.11291358363815E+0000
 21
 3.25348301210033E+0000
  0
LINE
  8
1
  6
CONTINUOUS
 62
     0
 10
 8.17048980394611E+0000
 20
 3.24601672116842E+0000
 11
 8.16302351301420E+0000
 21
 3.25348301210033E+0000
  0
LINE
  8
1
  6
CONTINUOUS
 62
     0
 10
 7.02684592560399E+0000
 20
 2.85892380034056E+0000
 11
 7.00130222756707E+0000
 21
 2.88446749837749E+0000
  0
LINE
  8
1
  6
CONTINUOUS
 62
     0
 10
 7.07695585498004E+0000
 20
 2.85892380034056E+0000
 11
 7.00032476087654E+0000
 21
 2.93555489444771E+0000
  0
LINE
  8
1
  6
CONTINUOUS
 62
     0
 10
 7.12706578435609E+0000
 20
 2.85892380034056E+0000
 11
 7.02409762374009E+0000
 21
 2.96189196095293E+0000
  0
LINE
  8
1
  6
CONTINUOUS
 62
     0
 10
 7.17717571372486E+0000
 20
 2.85892380034056E+0000
 11
 7.07422399756615E+0000
 21
 2.96187551650655E+0000
  0
LINE
  8
1
  6
CONTINUOUS
 62
     0
 10
 7.22728564310091E+0000
 20
 2.85892380034056E+0000
 11
 7.12435037138493E+0000
 21
 2.96185907205654E+0000
  0
LINE
  8
1
  6
CONTINUOUS
 62
     0
 10
 7.27739557247696E+0000
 20
 2.85892380034056E+0000
 11
 7.17447674521100E+0000
 21
 2.96184262761017E+0000
  0
LINE
  8
1
  6
CONTINUOUS
 62
     0
 10
 7.32750550185301E+0000
 20
 2.85892380034056E+0000
 11
 7.22460311902978E+0000
 21
 2.96182618316379E+0000
  0
LINE
  8
1
  6
CONTINUOUS
 62
     0
 10
 7.37761543122178E+0000
 20
 2.85892380034056E+0000
 11
 7.27472949284856E+0000
 21
 2.96180973871742E+0000
  0
LINE
  8
1
  6
CONTINUOUS
 62
     0
 10
 7.42772536059783E+0000
 20
 2.85892380034056E+0000
 11
 7.32485586666735E+0000
 21
 2.96179329426741E+0000
  0
LINE
  8
1
  6
CONTINUOUS
 62
     0
 10
 7.47783528997388E+0000
 20
 2.85892380034056E+0000
 11
 7.37498224049341E+0000
 21
 2.96177684982104E+0000
  0
LINE
  8
1
  6
CONTINUOUS
 62
     0
 10
 7.52794521934993E+0000
 20
 2.85892380034056E+0000
 11
 7.42510861431219E+0000
 21
 2.96176040537466E+0000
  0
LINE
  8
1
  6
CONTINUOUS
 62
     0
 10
 7.57805514871870E+0000
 20
 2.85892380034056E+0000
 11
 7.47523498813098E+0000
 21
 2.96174396092465E+0000
  0
LINE
  8
1
  6
CONTINUOUS
 62
     0
 10
 7.62816507809475E+0000
 20
 2.85892380033692E+0000
 11
 7.52536136195704E+0000
 21
 2.96172751647828E+0000
  0
LINE
  8
1
  6
CONTINUOUS
 62
     0
 10
 7.67827500747080E+0000
 20
 2.85892380033692E+0000
 11
 7.57548773577582E+0000
 21
 2.96171107203190E+0000
  0
LINE
  8
1
  6
CONTINUOUS
 62
     0
 10
 7.72838493684685E+0000
 20
 2.85892380033692E+0000
 11
 7.62561410959461E+0000
 21
 2.96169462758553E+0000
  0
LINE
  8
1
  6
CONTINUOUS
 62
     0
 10
 7.77849486622290E+0000
 20
 2.85892380033692E+0000
 11
 7.67574048342067E+0000
 21
 2.96167818313552E+0000
  0
LINE
  8
1
  6
CONTINUOUS
 62
     0
 10
 7.82860479559167E+0000
 20
 2.85892380033692E+0000
 11
 7.72586685723945E+0000
 21
 2.96166173868914E+0000
  0
LINE
  8
1
  6
CONTINUOUS
 62
     0
 10
 7.87871472496772E+0000
 20
 2.85892380033692E+0000
 11
 7.77599323106551E+0000
 21
 2.96164529423913E+0000
  0
LINE
  8
1
  6
CONTINUOUS
 62
     0
 10
 7.92882465434377E+0000
 20
 2.85892380033692E+0000
 11
 7.82611960488430E+0000
 21
 2.96162884979276E+0000
  0
LINE
  8
1
  6
CONTINUOUS
 62
     0
 10
 7.97893458371982E+0000
 20
 2.85892380033329E+0000
 11
 7.87624597870308E+0000
 21
 2.96161240534639E+0000
  0
LINE
  8
1
  6
CONTINUOUS
 62
     0
 10
 8.02904451309587E+0000
 20
 2.85892380033329E+0000
 11
 7.92637235252914E+0000
 21
 2.96159596090001E+0000
  0
LINE
  8
1
  6
CONTINUOUS
 62
     0
 10
 8.07915444247192E+0000
 20
 2.85892380033329E+0000
 11
 7.97649872634793E+0000
 21
 2.96157951645000E+0000
  0
LINE
  8
1
  6
CONTINUOUS
 62
     0
 10
 8.12926437183341E+0000
 20
 2.85892380033329E+0000
 11
 8.02662510017399E+0000
 21
 2.96156307200363E+0000
  0
LINE
  8
1
  6
CONTINUOUS
 62
     0
 10
 8.17050529930566E+0000
 20
 2.86779280224073E+0000
 11
 8.07675147398550E+0000
 21
 2.96154662755725E+0000
  0
LINE
  8
1
  6
CONTINUOUS
 62
     0
 10
 8.17085621270235E+0000
 20
 2.91755181821645E+0000
 11
 8.12687784781156E+0000
 21
 2.96153018311088E+0000
  0
LINE
  8
1
  6
CONTINUOUS
 62
     0
 10
 6.99982069544058E+0000
 20
 2.96189992523432E+0000
 11
 8.17169726629800E+0000
 21
 2.96189992523432E+0000
  0
LINE
  8
1
  6
CONTINUOUS
 62
     0
 10
 6.99982069544058E+0000
 20
 3.13888263062108E+0000
 11
 8.17169726629800E+0000
 21
 3.13888263062108E+0000
  0
LINE
  8
1
  6
CONTINUOUS
 62
     0
 10
 6.99992355706490E+0000
 20
 5.71951810574683E+0000
 11
 8.18053390085697E+0000
 21
 5.71951810574683E+0000
  0
LINE
  8
1
  6
CONTINUOUS
 62
     0
 10
 6.99992355706490E+0000
 20
 5.89650081112632E+0000
 11
 8.18053390085697E+0000
 21
 5.89650081112632E+0000
  0
LINE
  8
1
  6
CONTINUOUS
 62
     0
 10
 7.00179096091597E+0000
 20
 2.85892380034056E+0000
 11
 7.00179096091597E+0000
 21
 6.00274518888909E+0000
  0
LINE
  8
1
  6
CONTINUOUS
 62
     0
 10
 8.18255313408736E+0000
 20
 5.60869799925422E+0000
 11
 8.18255313408736E+0000
 21
 2.86024423312483E+0000
  0
LINE
  8
1
  6
CONTINUOUS
 62
     0
 10
 8.17044275281660E+0000
 20
 2.85892380033329E+0000
 11
 8.18247802343103E+0000
 21
 2.85892380033329E+0000
  0
LINE
  8
1
  6
CONTINUOUS
 62
     0
 10
 8.17169726629800E+0000
 20
 2.96189992523432E+0000
 11
 8.18247802343103E+0000
 21
 2.96189992523432E+0000
  0
LINE
  8
1
  6
CONTINUOUS
 62
     0
 10
 8.17169726629800E+0000
 20
 3.13888263062108E+0000
 11
 8.18247802343103E+0000
 21
 3.13888263062108E+0000
  0
LINE
  8
1
  6
CONTINUOUS
 62
     0
 10
 8.17044275281660E+0000
 20
 3.25348301210033E+0000
 11
 8.18247802343103E+0000
 21
 3.25348301210033E+0000
  0
LINE
  8
1
  6
DASHDOT
 62
     0
 10
 6.90500863065972E+0000
 20
 4.43077992333565E+0000
 11
 8.27125898127269E+0000
 21
 4.43077992333565E+0000
  0
LINE
  8
1
  6
DASHDOT
 62
     0
 10
 6.89965078615933E+0000
 20
 5.80435442099406E+0000
 11
 8.26054329224280E+0000
 21
 5.80435442099406E+0000
  0
LINE
  8
1
  6
DASHDOT
 62
     0
 10
 6.89965078615933E+0000
 20
 3.04651612998714E+0000
 11
 8.23911191419757E+0000
 21
 3.04651612998714E+0000
  0
LINE
  8
1
  6
DASHDOT
 62
     0
 10
 6.90500863065972E+0000
 20
 4.43077992333565E+0000
 11
 1.99126105343021E+0000
 21
 4.43077992333565E+0000
  0
LINE
  8
1
  6
DASHDOT
 62
     0
 10
 3.73951172624948E+0000
 20
 6.10308080937830E+0000
 11
 3.73951172624948E+0000
 21
 2.75859813336137E+0000
  0
CIRCLE
  8
1
  6
DASHDOT
 62
     0
 10
 3.73951172624948E+0000
 20
 4.42353710744646E+0000
 40
 1.38744914507697E+0000
  0
CIRCLE
  8
1
  6
CONTINUOUS
 62
     0
 10
 3.73951172624948E+0000
 20
 4.42353710744646E+0000
 40
 1.18298295527347E+0000
  0
CIRCLE
  8
1
  6
CONTINUOUS
 62
     0
 10
 3.73951172624948E+0000
 20
 4.42353710744646E+0000
 40
 1.57731060703372E+0000
  0
CIRCLE
  8
1
  6
CONTINUOUS
 62
     0
 10
 3.74247410650423E+0000
 20
 5.80980006113532E+0000
 40
 8.65539464102767E-0002
  0
CIRCLE
  8
1
  6
CONTINUOUS
 62
     0
 10
 2.54618215169830E+0000
 20
 5.11912057899463E+0000
 40
 8.65539464102767E-0002
  0
CIRCLE
  8
1
  6
CONTINUOUS
 62
     0
 10
 2.54618215170194E+0000
 20
 3.73776161472415E+0000
 40
 8.65539464102767E-0002
  0
CIRCLE
  8
1
  6
CONTINUOUS
 62
     0
 10
 3.74247410650787E+0000
 20
 3.04708213259073E+0000
 40
 8.65539464102767E-0002
  0
CIRCLE
  8
1
  6
CONTINUOUS
 62
     0
 10
 4.93876606136473E+0000
 20
 3.73776161473143E+0000
 40
 8.65539464102767E-0002
  0
CIRCLE
  8
1
  6
CONTINUOUS
 62
     0
 10
 4.93876606135746E+0000
 20
 5.11912057902373E+0000
 40
 8.65539464102767E-0002
  0
CIRCLE
  8
1
  6
CONTINUOUS
 62
     0
 10
 3.74247410648604E+0000
 20
 5.80980006115715E+0000
 40
 8.65539464102767E-0002
  0
LINE
  8
1
  6
CONTINUOUS
 62
     0
 10
 8.18255313408736E+0000
 20
 5.60869799925422E+0000
 11
 8.78030116621812E+0000
 21
 5.60869799925422E+0000
  0
LINE
  8
1
  6
CONTINUOUS
 62
     0
 10
 8.78030116621812E+0000
 20
 5.60869799925422E+0000
 11
 8.78030116621812E+0000
 21
 3.25515888001974E+0000
  0
LINE
  8
1
  6
CONTINUOUS
 62
     0
 10
 8.78030116621812E+0000
 20
 3.25515888001974E+0000
 11
 8.18298218633572E+0000
 21
 3.25515888001974E+0000
  0
LINE
  8
1
  6
CONTINUOUS
 62
     0
 10
 7.00179096092324E+0000
 20
 6.00325721102126E+0000
 11
 7.00179096092324E+0000
 21
 6.40978009407991E+0000
  0
LINE
  8
1
  6
CONTINUOUS
 62
     0
 10
 7.00179096092324E+0000
 20
 6.40978009407991E+0000
 11
 8.18298218633572E+0000
 21
 6.40978009407991E+0000
  0
LINE
  8
1
  6
CONTINUOUS
 62
     0
 10
 8.18298218633572E+0000
 20
 6.40978009407991E+0000
 11
 8.18298218633572E+0000
 21
 6.00084771448019E+0000
  0
LINE
  8
1
  6
CONTINUOUS
 62
     0
 10
 3.73664893972091E+0000
 20
 5.81306218998361E+0000
 11
 1.87220273258390E+0000
 21
 5.81306218998361E+0000
  0
LINE
  8
1
  6
CONTINUOUS
 62
     0
 10
 1.87220273258390E+0000
 20
 5.81306218998361E+0000
 11
 1.87220273258390E+0000
 21
 3.04353903713127E+0000
  0
LINE
  8
1
  6
CONTINUOUS
 62
     0
 10
 1.87220273258390E+0000
 20
 3.04353903713127E+0000
 11
 3.73664893972091E+0000
 21
 3.04353903713127E+0000
  0
LINE
  8
1
  6
CONTINUOUS
 62
     0
 10
 4.94438737349265E+0000
 20
 3.82294036156600E+0000
 11
 5.60109514685610E+0000
 21
 3.82294036156600E+0000
  0
LINE
  8
1
  6
CONTINUOUS
 62
     0
 10
 5.60109514685610E+0000
 20
 3.82294036156600E+0000
 11
 5.60109514685610E+0000
 21
 3.64889928912089E+0000
  0
LINE
  8
1
  6
CONTINUOUS
 62
     0
 10
 5.60109514685610E+0000
 20
 3.64889928912089E+0000
 11
 4.92929064307100E+0000
 21
 3.64889928912089E+0000
  0
LINE
  8
1
  6
CONTINUOUS
 62
     0
 10
 7.00179096092324E+0000
 20
 6.00325721102126E+0000
 11
 6.42386695486493E+0000
 21
 6.00325721102126E+0000
  0
LINE
  8
1
  6
CONTINUOUS
 62
     0
 10
 6.42386695486493E+0000
 20
 6.00325721102126E+0000
 11
 6.42386695486493E+0000
 21
 3.25541512532800E+0000
  0
LINE
  8
1
  6
CONTINUOUS
 62
     0
 10
 6.42386695486493E+0000
 20
 3.25541512532800E+0000
 11
 6.42386695486493E+0000
 21
 2.86231530736768E+0000
  0
LINE
  8
1
  6
CONTINUOUS
 62
     0
 10
 6.42386695486493E+0000
 20
 2.86231530736768E+0000
 11
 7.00523985410837E+0000
 21
 2.86231530736768E+0000
  0
LINE
  8
1
  6
CONTINUOUS
 62
     0
 10
 7.00231306988280E+0000
 20
 6.41364864866046E+0000
 11
 7.00231306988280E+0000
 21
 6.41364864866046E+0000
  0
LINE
  8
1
  6
CONTINUOUS
 62
     0
 10
 7.00231306988280E+0000
 20
 6.41364864866046E+0000
 11
 7.16160239653254E+0000
 21
 6.38646712729678E+0000
  0
LINE
  8
1
  6
CONTINUOUS
 62
     0
 10
 7.16160239653254E+0000
 20
 6.38646712729678E+0000
 11
 7.16160239653254E+0000
 21
 6.44687076476839E+0000
  0
LINE
  8
1
  6
CONTINUOUS
 62
     0
 10
 7.16160239653254E+0000
 20
 6.44687076476839E+0000
 11
 7.00231306988280E+0000
 21
 6.41364864866046E+0000
  0
LINE
  8
1
  6
CONTINUOUS
 62
     0
 10
 7.16160239653254E+0000
 20
 6.38646712729678E+0000
 11
 7.16160239653254E+0000
 21
 6.44687076476839E+0000
  0
LINE
  8
1
  6
CONTINUOUS
 62
     0
 10
 7.01476499985438E+0000
 20
 6.41152382078872E+0000
 11
 7.01085800163855E+0000
 21
 6.41543081901182E+0000
  0
LINE
  8
1
  6
CONTINUOUS
 62
     0
 10
 7.03966885977570E+0000
 20
 6.40727416505979E+0000
 11
 7.02794786512823E+0000
 21
 6.41899515970726E+0000
  0
LINE
  8
1
  6
CONTINUOUS
 62
     0
 10
 7.06457271969703E+0000
 20
 6.40302450932359E+0000
 11
 7.04503772861790E+0000
 21
 6.42255950040271E+0000
  0
LINE
  8
1
  6
CONTINUOUS
 62
     0
 10
 7.08947657961835E+0000
 20
 6.39877485358738E+0000
 11
 7.06212759210757E+0000
 21
 6.42612384109816E+0000
  0
LINE
  8
1
  6
CONTINUOUS
 62
     0
 10
 7.11438043953967E+0000
 20
 6.39452519785118E+0000
 11
 7.07921745559725E+0000
 21
 6.42968818178633E+0000
  0
LINE
  8
1
  6
CONTINUOUS
 62
     0
 10
 7.13928429946100E+0000
 20
 6.39027554211498E+0000
 11
 7.09630731908692E+0000
 21
 6.43325252248178E+0000
  0
LINE
  8
1
  6
CONTINUOUS
 62
     0
 10
 7.16160239653254E+0000
 20
 6.38861164922855E+0000
 11
 7.11339718258387E+0000
 21
 6.43681686317723E+0000
  0
LINE
  8
1
  6
CONTINUOUS
 62
     0
 10
 7.16160239653254E+0000
 20
 6.40926585341367E+0000
 11
 7.13048704607354E+0000
 21
 6.44038120387268E+0000
  0
LINE
  8
1
  6
CONTINUOUS
 62
     0
 10
 7.16160239653982E+0000
 20
 6.42992005759152E+0000
 11
 7.14757690956321E+0000
 21
 6.44394554456812E+0000
  0
LINE
  8
1
  6
CONTINUOUS
 62
     0
 10
 7.16160239651799E+0000
 20
 6.39679422937479E+0000
 11
 7.15278065760504E+0000
 21
 6.38797249046183E+0000
  0
LINE
  8
1
  6
CONTINUOUS
 62
     0
 10
 7.16160239651799E+0000
 20
 6.41744843355991E+0000
 11
 7.13513717975002E+0000
 21
 6.39098321679194E+0000
  0
LINE
  8
1
  6
CONTINUOUS
 62
     0
 10
 7.16160239651799E+0000
 20
 6.43810263775231E+0000
 11
 7.11749370189500E+0000
 21
 6.39399394312204E+0000
  0
LINE
  8
1
  6
CONTINUOUS
 62
     0
 10
 7.14658401687484E+0000
 20
 6.44373846228700E+0000
 11
 7.09985022404726E+0000
 21
 6.39700466945942E+0000
  0
LINE
  8
1
  6
CONTINUOUS
 62
     0
 10
 7.12048687183415E+0000
 20
 6.43829552143143E+0000
 11
 7.08220674619224E+0000
 21
 6.40001539578952E+0000
  0
LINE
  8
1
  6
CONTINUOUS
 62
     0
 10
 7.09438972680800E+0000
 20
 6.43285258059041E+0000
 11
 7.06456326833722E+0000
 21
 6.40302612211963E+0000
  0
LINE
  8
1
  6
CONTINUOUS
 62
     0
 10
 7.06829258177459E+0000
 20
 6.42740963974938E+0000
 11
 7.04691979048221E+0000
 21
 6.40603684844973E+0000
  0
LINE
  8
1
  6
CONTINUOUS
 62
     0
 10
 7.04219543674844E+0000
 20
 6.42196669890109E+0000
 11
 7.02927631262719E+0000
 21
 6.40904757478711E+0000
  0
LINE
  8
1
  6
CONTINUOUS
 62
     0
 10
 7.01609829172230E+0000
 20
 6.41652375806007E+0000
 11
 7.01163283477945E+0000
 21
 6.41205830111721E+0000
  0
LINE
  8
1
  6
CONTINUOUS
 62
     0
 10
 7.00231306988280E+0000
 20
 6.41364864866046E+0000
 11
 7.00231306988280E+0000
 21
 6.41364864866046E+0000
  0
LINE
  8
1
  6
CONTINUOUS
 62
     0
 10
 7.00231306988280E+0000
 20
 6.41364864866046E+0000
 11
 7.16160239653254E+0000
 21
 6.38646712729678E+0000
  0
LINE
  8
1
  6
CONTINUOUS
 62
     0
 10
 7.16160239653254E+0000
 20
 6.38646712729678E+0000
 11
 7.16160239653254E+0000
 21
 6.44687076476839E+0000
  0
LINE
  8
1
  6
CONTINUOUS
 62
     0
 10
 7.16160239653254E+0000
 20
 6.44687076476839E+0000
 11
 7.00231306988280E+0000
 21
 6.41364864866046E+0000
  0
LINE
  8
1
  6
CONTINUOUS
 62
     0
 10
 7.16160239653254E+0000
 20
 6.38646712729678E+0000
 11
 7.16160239653254E+0000
 21
 6.44687076476839E+0000
  0
LINE
  8
1
  6
CONTINUOUS
 62
     0
 10
 7.01476499985438E+0000
 20
 6.41152382078872E+0000
 11
 7.01085800163855E+0000
 21
 6.41543081901182E+0000
  0
LINE
  8
1
  6
CONTINUOUS
 62
     0
 10
 7.03966885977570E+0000
 20
 6.40727416505979E+0000
 11
 7.02794786512823E+0000
 21
 6.41899515970726E+0000
  0
LINE
  8
1
  6
CONTINUOUS
 62
     0
 10
 7.06457271969703E+0000
 20
 6.40302450932359E+0000
 11
 7.04503772861790E+0000
 21
 6.42255950040271E+0000
  0
LINE
  8
1
  6
CONTINUOUS
 62
     0
 10
 7.08947657961835E+0000
 20
 6.39877485358738E+0000
 11
 7.06212759210757E+0000
 21
 6.42612384109816E+0000
  0
LINE
  8
1
  6
CONTINUOUS
 62
     0
 10
 7.11438043953967E+0000
 20
 6.39452519785118E+0000
 11
 7.07921745559725E+0000
 21
 6.42968818178633E+0000
  0
LINE
  8
1
  6
CONTINUOUS
 62
     0
 10
 7.13928429946100E+0000
 20
 6.39027554211498E+0000
 11
 7.09630731908692E+0000
 21
 6.43325252248178E+0000
  0
LINE
  8
1
  6
CONTINUOUS
 62
     0
 10
 7.16160239653254E+0000
 20
 6.38861164922855E+0000
 11
 7.11339718258387E+0000
 21
 6.43681686317723E+0000
  0
LINE
  8
1
  6
CONTINUOUS
 62
     0
 10
 7.16160239653254E+0000
 20
 6.40926585341367E+0000
 11
 7.13048704607354E+0000
 21
 6.44038120387268E+0000
  0
LINE
  8
1
  6
CONTINUOUS
 62
     0
 10
 7.16160239653982E+0000
 20
 6.42992005759152E+0000
 11
 7.14757690956321E+0000
 21
 6.44394554456812E+0000
  0
LINE
  8
1
  6
CONTINUOUS
 62
     0
 10
 7.16160239651799E+0000
 20
 6.39679422937479E+0000
 11
 7.15278065760504E+0000
 21
 6.38797249046183E+0000
  0
LINE
  8
1
  6
CONTINUOUS
 62
     0
 10
 7.16160239651799E+0000
 20
 6.41744843355991E+0000
 11
 7.13513717975002E+0000
 21
 6.39098321679194E+0000
  0
LINE
  8
1
  6
CONTINUOUS
 62
     0
 10
 7.16160239651799E+0000
 20
 6.43810263775231E+0000
 11
 7.11749370189500E+0000
 21
 6.39399394312204E+0000
  0
LINE
  8
1
  6
CONTINUOUS
 62
     0
 10
 7.14658401687484E+0000
 20
 6.44373846228700E+0000
 11
 7.09985022404726E+0000
 21
 6.39700466945942E+0000
  0
LINE
  8
1
  6
CONTINUOUS
 62
     0
 10
 7.12048687183415E+0000
 20
 6.43829552143143E+0000
 11
 7.08220674619224E+0000
 21
 6.40001539578952E+0000
  0
LINE
  8
1
  6
CONTINUOUS
 62
     0
 10
 7.09438972680800E+0000
 20
 6.43285258059041E+0000
 11
 7.06456326833722E+0000
 21
 6.40302612211963E+0000
  0
LINE
  8
1
  6
CONTINUOUS
 62
     0
 10
 7.06829258177459E+0000
 20
 6.42740963974938E+0000
 11
 7.04691979048221E+0000
 21
 6.40603684844973E+0000
  0
LINE
  8
1
  6
CONTINUOUS
 62
     0
 10
 7.04219543674844E+0000
 20
 6.42196669890109E+0000
 11
 7.02927631262719E+0000
 21
 6.40904757478711E+0000
  0
LINE
  8
1
  6
CONTINUOUS
 62
     0
 10
 7.01609829172230E+0000
 20
 6.41652375806007E+0000
 11
 7.01163283477945E+0000
 21
 6.41205830111721E+0000
  0
LINE
  8
1
  6
CONTINUOUS
 62
     0
 10
 8.18362483962846E+0000
 20
 6.41467154584825E+0000
 11
 8.18362483962846E+0000
 21
 6.41467154584825E+0000
  0
LINE
  8
1
  6
CONTINUOUS
 62
     0
 10
 8.18362483962846E+0000
 20
 6.41467154584825E+0000
 11
 8.02433551299328E+0000
 21
 6.44185306721192E+0000
  0
LINE
  8
1
  6
CONTINUOUS
 62
     0
 10
 8.02433551299328E+0000
 20
 6.44185306721192E+0000
 11
 8.02433551299328E+0000
 21
 6.38144942974031E+0000
  0
LINE
  8
1
  6
CONTINUOUS
 62
     0
 10
 8.02433551299328E+0000
 20
 6.38144942974031E+0000
 11
 8.18362483962846E+0000
 21
 6.41467154584825E+0000
  0
LINE
  8
1
  6
CONTINUOUS
 62
     0
 10
 8.02433551299328E+0000
 20
 6.44185306721192E+0000
 11
 8.02433551299328E+0000
 21
 6.38144942974031E+0000
  0
LINE
  8
1
  6
CONTINUOUS
 62
     0
 10
 8.03288044474903E+0000
 20
 6.38323160009168E+0000
 11
 8.02433551299328E+0000
 21
 6.39177653184015E+0000
  0
LINE
  8
1
  6
CONTINUOUS
 62
     0
 10
 8.04997030823142E+0000
 20
 6.38679594078712E+0000
 11
 8.02433551299328E+0000
 21
 6.41243073603255E+0000
  0
LINE
  8
1
  6
CONTINUOUS
 62
     0
 10
 8.06706017172837E+0000
 20
 6.39036028148257E+0000
 11
 8.02433551299328E+0000
 21
 6.43308494021767E+0000
  0
LINE
  8
1
  6
CONTINUOUS
 62
     0
 10
 8.08415003522532E+0000
 20
 6.39392462217074E+0000
 11
 8.03866718120116E+0000
 21
 6.43940747620218E+0000
  0
LINE
  8
1
  6
CONTINUOUS
 62
     0
 10
 8.10123989870772E+0000
 20
 6.39748896286619E+0000
 11
 8.06357104111521E+0000
 21
 6.43515782046597E+0000
  0
LINE
  8
1
  6
CONTINUOUS
 62
     0
 10
 8.11832976220467E+0000
 20
 6.40105330356164E+0000
 11
 8.08847490102926E+0000
 21
 6.43090816472977E+0000
  0
LINE
  8
1
  6
CONTINUOUS
 62
     0
 10
 8.13541962568706E+0000
 20
 6.40461764425709E+0000
 11
 8.11337876095786E+0000
 21
 6.42665850899357E+0000
  0
LINE
  8
1
  6
CONTINUOUS
 62
     0
 10
 8.15250948918401E+0000
 20
 6.40818198495253E+0000
 11
 8.13828262087191E+0000
 21
 6.42240885326464E+0000
  0
LINE
  8
1
  6
CONTINUOUS
 62
     0
 10
 8.16959935266641E+0000
 20
 6.41174632564798E+0000
 11
 8.16318648078595E+0000
 21
 6.41815919752844E+0000
  0
LINE
  8
1
  6
CONTINUOUS
 62
     0
 10
 8.17480310070096E+0000
 20
 6.41617690902058E+0000
 11
 8.17057626710448E+0000
 21
 6.41195007541683E+0000
  0
LINE
  8
1
  6
CONTINUOUS
 62
     0
 10
 8.15715962284594E+0000
 20
 6.41918763535068E+0000
 11
 8.14447912207106E+0000
 21
 6.40650713457580E+0000
  0
LINE
  8
1
  6
CONTINUOUS
 62
     0
 10
 8.13951614499092E+0000
 20
 6.42219836168078E+0000
 11
 8.11838197705220E+0000
 21
 6.40106419373478E+0000
  0
LINE
  8
1
  6
CONTINUOUS
 62
     0
 10
 8.12187266715046E+0000
 20
 6.42520908801089E+0000
 11
 8.09228483200422E+0000
 21
 6.39562125287921E+0000
  0
LINE
  8
1
  6
CONTINUOUS
 62
     0
 10
 8.10422918929544E+0000
 20
 6.42821981434099E+0000
 11
 8.06618768698536E+0000
 21
 6.39017831203819E+0000
  0
LINE
  8
1
  6
CONTINUOUS
 62
     0
 10
 8.08658571144042E+0000
 20
 6.43123054067837E+0000
 11
 8.04009054195194E+0000
 21
 6.38473537118989E+0000
  0
LINE
  8
1
  6
CONTINUOUS
 62
     0
 10
 8.06894223358540E+0000
 20
 6.43424126700847E+0000
 11
 8.02433551299328E+0000
 21
 6.38963454641635E+0000
  0
LINE
  8
1
  6
CONTINUOUS
 62
     0
 10
 8.05129875573039E+0000
 20
 6.43725199333858E+0000
 11
 8.02433551299328E+0000
 21
 6.41028875060147E+0000
  0
LINE
  8
1
  6
CONTINUOUS
 62
     0
 10
 8.03365527787537E+0000
 20
 6.44026271966868E+0000
 11
 8.02433551299328E+0000
 21
 6.43094295478659E+0000
  0
LINE
  8
1
  6
CONTINUOUS
 62
     0
 10
 8.18362483962846E+0000
 20
 6.41467154584825E+0000
 11
 8.18362483962846E+0000
 21
 6.41467154584825E+0000
  0
LINE
  8
1
  6
CONTINUOUS
 62
     0
 10
 8.18362483962846E+0000
 20
 6.41467154584825E+0000
 11
 8.02433551299328E+0000
 21
 6.44185306721192E+0000
  0
LINE
  8
1
  6
CONTINUOUS
 62
     0
 10
 8.02433551299328E+0000
 20
 6.44185306721192E+0000
 11
 8.02433551299328E+0000
 21
 6.38144942974031E+0000
  0
LINE
  8
1
  6
CONTINUOUS
 62
     0
 10
 8.02433551299328E+0000
 20
 6.38144942974031E+0000
 11
 8.18362483962846E+0000
 21
 6.41467154584825E+0000
  0
LINE
  8
1
  6
CONTINUOUS
 62
     0
 10
 8.02433551299328E+0000
 20
 6.44185306721192E+0000
 11
 8.02433551299328E+0000
 21
 6.38144942974031E+0000
  0
LINE
  8
1
  6
CONTINUOUS
 62
     0
 10
 8.03288044474903E+0000
 20
 6.38323160009168E+0000
 11
 8.02433551299328E+0000
 21
 6.39177653184015E+0000
  0
LINE
  8
1
  6
CONTINUOUS
 62
     0
 10
 8.04997030823142E+0000
 20
 6.38679594078712E+0000
 11
 8.02433551299328E+0000
 21
 6.41243073603255E+0000
  0
LINE
  8
1
  6
CONTINUOUS
 62
     0
 10
 8.06706017172837E+0000
 20
 6.39036028148257E+0000
 11
 8.02433551299328E+0000
 21
 6.43308494021767E+0000
  0
LINE
  8
1
  6
CONTINUOUS
 62
     0
 10
 8.08415003522532E+0000
 20
 6.39392462217074E+0000
 11
 8.03866718120116E+0000
 21
 6.43940747620218E+0000
  0
LINE
  8
1
  6
CONTINUOUS
 62
     0
 10
 8.10123989870772E+0000
 20
 6.39748896286619E+0000
 11
 8.06357104111521E+0000
 21
 6.43515782046597E+0000
  0
LINE
  8
1
  6
CONTINUOUS
 62
     0
 10
 8.11832976220467E+0000
 20
 6.40105330356164E+0000
 11
 8.08847490102926E+0000
 21
 6.43090816472977E+0000
  0
LINE
  8
1
  6
CONTINUOUS
 62
     0
 10
 8.13541962568706E+0000
 20
 6.40461764425709E+0000
 11
 8.11337876095786E+0000
 21
 6.42665850899357E+0000
  0
LINE
  8
1
  6
CONTINUOUS
 62
     0
 10
 8.15250948918401E+0000
 20
 6.40818198495253E+0000
 11
 8.13828262087191E+0000
 21
 6.42240885326464E+0000
  0
LINE
  8
1
  6
CONTINUOUS
 62
     0
 10
 8.16959935266641E+0000
 20
 6.41174632564798E+0000
 11
 8.16318648078595E+0000
 21
 6.41815919752844E+0000
  0
LINE
  8
1
  6
CONTINUOUS
 62
     0
 10
 8.17480310070096E+0000
 20
 6.41617690902058E+0000
 11
 8.17057626710448E+0000
 21
 6.41195007541683E+0000
  0
LINE
  8
1
  6
CONTINUOUS
 62
     0
 10
 8.15715962284594E+0000
 20
 6.41918763535068E+0000
 11
 8.14447912207106E+0000
 21
 6.40650713457580E+0000
  0
LINE
  8
1
  6
CONTINUOUS
 62
     0
 10
 8.13951614499092E+0000
 20
 6.42219836168078E+0000
 11
 8.11838197705220E+0000
 21
 6.40106419373478E+0000
  0
LINE
  8
1
  6
CONTINUOUS
 62
     0
 10
 8.12187266715046E+0000
 20
 6.42520908801089E+0000
 11
 8.09228483200422E+0000
 21
 6.39562125287921E+0000
  0
LINE
  8
1
  6
CONTINUOUS
 62
     0
 10
 8.10422918929544E+0000
 20
 6.42821981434099E+0000
 11
 8.06618768698536E+0000
 21
 6.39017831203819E+0000
  0
LINE
  8
1
  6
CONTINUOUS
 62
     0
 10
 8.08658571144042E+0000
 20
 6.43123054067837E+0000
 11
 8.04009054195194E+0000
 21
 6.38473537118989E+0000
  0
LINE
  8
1
  6
CONTINUOUS
 62
     0
 10
 8.06894223358540E+0000
 20
 6.43424126700847E+0000
 11
 8.02433551299328E+0000
 21
 6.38963454641635E+0000
  0
LINE
  8
1
  6
CONTINUOUS
 62
     0
 10
 8.05129875573039E+0000
 20
 6.43725199333858E+0000
 11
 8.02433551299328E+0000
 21
 6.41028875060147E+0000
  0
LINE
  8
1
  6
CONTINUOUS
 62
     0
 10
 8.03365527787537E+0000
 20
 6.44026271966868E+0000
 11
 8.02433551299328E+0000
 21
 6.43094295478659E+0000
  0
LINE
  8
1
  6
CONTINUOUS
 62
     0
 10
 6.42468361058127E+0000
 20
 2.86580160102312E+0000
 11
 6.42468361058127E+0000
 21
 2.86580160102312E+0000
  0
LINE
  8
1
  6
CONTINUOUS
 62
     0
 10
 6.42468361058127E+0000
 20
 2.86580160102312E+0000
 11
 6.45186513194494E+0000
 21
 3.02509092765104E+0000
  0
LINE
  8
1
  6
CONTINUOUS
 62
     0
 10
 6.45186513194494E+0000
 20
 3.02509092765104E+0000
 11
 6.39146149447333E+0000
 21
 3.02509092765104E+0000
  0
LINE
  8
1
  6
CONTINUOUS
 62
     0
 10
 6.39146149447333E+0000
 20
 3.02509092765104E+0000
 11
 6.42468361058127E+0000
 21
 2.86580160102312E+0000
  0
LINE
  8
1
  6
CONTINUOUS
 62
     0
 10
 6.45186513194494E+0000
 20
 3.02509092765104E+0000
 11
 6.39146149447333E+0000
 21
 3.02509092765104E+0000
  0
LINE
  8
1
  6
CONTINUOUS
 62
     0
 10
 6.42618897374632E+0000
 20
 2.87462333994699E+0000
 11
 6.42196214015712E+0000
 21
 2.87885017353619E+0000
  0
LINE
  8
1
  6
CONTINUOUS
 62
     0
 10
 6.42919970008370E+0000
 20
 2.89226681779837E+0000
 11
 6.41651919931610E+0000
 21
 2.90494731856597E+0000
  0
LINE
  8
1
  6
CONTINUOUS
 62
     0
 10
 6.43221042641380E+0000
 20
 2.90991029565339E+0000
 11
 6.41107625846780E+0000
 21
 2.93104446359939E+0000
  0
LINE
  8
1
  6
CONTINUOUS
 62
     0
 10
 6.43522115274391E+0000
 20
 2.92755377350477E+0000
 11
 6.40563331761950E+0000
 21
 2.95714160862917E+0000
  0
LINE
  8
1
  6
CONTINUOUS
 62
     0
 10
 6.43823187908129E+0000
 20
 2.94519725135615E+0000
 11
 6.40019037677848E+0000
 21
 2.98323875365895E+0000
  0
LINE
  8
1
  6
CONTINUOUS
 62
     0
 10
 6.44124260541139E+0000
 20
 2.96284072921117E+0000
 11
 6.39474743593019E+0000
 21
 3.00933589869237E+0000
  0
LINE
  8
1
  6
CONTINUOUS
 62
     0
 10
 6.44425333174149E+0000
 20
 2.98048420706255E+0000
 11
 6.39964661115664E+0000
 21
 3.02509092765467E+0000
  0
LINE
  8
1
  6
CONTINUOUS
 62
     0
 10
 6.44726405807887E+0000
 20
 2.99812768491392E+0000
 11
 6.42030081534176E+0000
 21
 3.02509092765467E+0000
  0
LINE
  8
1
  6
CONTINUOUS
 62
     0
 10
 6.45027478440898E+0000
 20
 3.01577116276894E+0000
 11
 6.44095501952688E+0000
 21
 3.02509092765104E+0000
  0
LINE
  8
1
  6
CONTINUOUS
 62
     0
 10
 6.42680843844573E+0000
 20
 2.87825353098015E+0000
 11
 6.42290144022991E+0000
 21
 2.87434653276796E+0000
  0
LINE
  8
1
  6
CONTINUOUS
 62
     0
 10
 6.43105809418194E+0000
 20
 2.90315739090147E+0000
 11
 6.41933709953446E+0000
 21
 2.89143639625763E+0000
  0
LINE
  8
1
  6
CONTINUOUS
 62
     0
 10
 6.43530774991086E+0000
 20
 2.92806125082279E+0000
 11
 6.41577275883901E+0000
 21
 2.90852625974367E+0000
  0
LINE
  8
1
  6
CONTINUOUS
 62
     0
 10
 6.43955740564707E+0000
 20
 2.95296511074412E+0000
 11
 6.41220841814356E+0000
 21
 2.92561612323698E+0000
  0
LINE
  8
1
  6
CONTINUOUS
 62
     0
 10
 6.44380706138327E+0000
 20
 2.97786897066544E+0000
 11
 6.40864407744812E+0000
 21
 2.94270598672665E+0000
  0
LINE
  8
1
  6
CONTINUOUS
 62
     0
 10
 6.44805671711947E+0000
 20
 3.00277283058676E+0000
 11
 6.40507973675267E+0000
 21
 2.95979585021996E+0000
  0
LINE
  8
1
  6
CONTINUOUS
 62
     0
 10
 6.44972060999862E+0000
 20
 3.02509092764740E+0000
 11
 6.40151539605722E+0000
 21
 2.97688571370600E+0000
  0
LINE
  8
1
  6
CONTINUOUS
 62
     0
 10
 6.42906640581350E+0000
 20
 3.02509092764740E+0000
 11
 6.39795105536177E+0000
 21
 2.99397557719931E+0000
  0
LINE
  8
1
  6
CONTINUOUS
 62
     0
 10
 6.40841220162838E+0000
 20
 3.02509092764740E+0000
 11
 6.39438671466633E+0000
 21
 3.01106544068898E+0000
  0
LINE
  8
1
  6
CONTINUOUS
 62
     0
 10
 6.41953256064880E+0000
 20
 5.99585461524839E+0000
 11
 6.41953256064880E+0000
 21
 5.99585461524839E+0000
  0
LINE
  8
1
  6
CONTINUOUS
 62
     0
 10
 6.41953256064880E+0000
 20
 5.99585461524839E+0000
 11
 6.39235103928513E+0000
 21
 5.83656528862048E+0000
  0
LINE
  8
1
  6
CONTINUOUS
 62
     0
 10
 6.39235103928513E+0000
 20
 5.83656528862048E+0000
 11
 6.45275467675674E+0000
 21
 5.83656528862048E+0000
  0
LINE
  8
1
  6
CONTINUOUS
 62
     0
 10
 6.45275467675674E+0000
 20
 5.83656528862048E+0000
 11
 6.41953256064880E+0000
 21
 5.99585461524839E+0000
  0
LINE
  8
1
  6
CONTINUOUS
 62
     0
 10
 6.39235103928513E+0000
 20
 5.83656528862048E+0000
 11
 6.45275467675674E+0000
 21
 5.83656528862048E+0000
  0
LINE
  8
1
  6
CONTINUOUS
 62
     0
 10
 6.40267814138497E+0000
 20
 5.83656528862048E+0000
 11
 6.39385640245018E+0000
 21
 5.84538702755526E+0000
  0
LINE
  8
1
  6
CONTINUOUS
 62
     0
 10
 6.42333234557009E+0000
 20
 5.83656528862048E+0000
 11
 6.39686712878756E+0000
 21
 5.86303050540300E+0000
  0
LINE
  8
1
  6
CONTINUOUS
 62
     0
 10
 6.44398654974793E+0000
 20
 5.83656528862775E+0000
 11
 6.39987785511767E+0000
 21
 5.88067398325802E+0000
  0
LINE
  8
1
  6
CONTINUOUS
 62
     0
 10
 6.44962237428263E+0000
 20
 5.85158366827818E+0000
 11
 6.40288858144777E+0000
 21
 5.89831746111304E+0000
  0
LINE
  8
1
  6
CONTINUOUS
 62
     0
 10
 6.44417943344160E+0000
 20
 5.87768081331160E+0000
 11
 6.40589930778515E+0000
 21
 5.91596093896078E+0000
  0
LINE
  8
1
  6
CONTINUOUS
 62
     0
 10
 6.43873649259331E+0000
 20
 5.90377795833774E+0000
 11
 6.40891003411525E+0000
 21
 5.93360441681580E+0000
  0
LINE
  8
1
  6
CONTINUOUS
 62
     0
 10
 6.43329355174501E+0000
 20
 5.92987510337116E+0000
 11
 6.41192076045263E+0000
 21
 5.95124789466354E+0000
  0
LINE
  8
1
  6
CONTINUOUS
 62
     0
 10
 6.42785061089671E+0000
 20
 5.95597224840458E+0000
 11
 6.41493148678273E+0000
 21
 5.96889137251856E+0000
  0
LINE
  8
1
  6
CONTINUOUS
 62
     0
 10
 6.42240767004841E+0000
 20
 5.98206939343800E+0000
 11
 6.41794221312011E+0000
 21
 5.98653485037357E+0000
  0
LINE
  8
1
  6
CONTINUOUS
 62
     0
 10
 6.45097250639810E+0000
 20
 5.84511022036168E+0000
 11
 6.44242757466418E+0000
 21
 5.83656528862048E+0000
  0
LINE
  8
1
  6
CONTINUOUS
 62
     0
 10
 6.44740816570993E+0000
 20
 5.86220008385135E+0000
 11
 6.42177337047906E+0000
 21
 5.83656528862048E+0000
  0
LINE
  8
1
  6
CONTINUOUS
 62
     0
 10
 6.44384382501448E+0000
 20
 5.87928994734102E+0000
 11
 6.40111916628666E+0000
 21
 5.83656528862048E+0000
  0
LINE
  8
1
  6
CONTINUOUS
 62
     0
 10
 6.44027948431903E+0000
 20
 5.89637981083069E+0000
 11
 6.39479663028760E+0000
 21
 5.85089695679926E+0000
  0
LINE
  8
1
  6
CONTINUOUS
 62
     0
 10
 6.43671514361631E+0000
 20
 5.91346967431309E+0000
 11
 6.39904628602380E+0000
 21
 5.87580081672058E+0000
  0
LINE
  8
1
  6
CONTINUOUS
 62
     0
 10
 6.43315080292086E+0000
 20
 5.93055953781004E+0000
 11
 6.40329594176001E+0000
 21
 5.90070467664191E+0000
  0
LINE
  8
1
  6
CONTINUOUS
 62
     0
 10
 6.42958646223269E+0000
 20
 5.94764940129971E+0000
 11
 6.40754559749621E+0000
 21
 5.92560853656323E+0000
  0
LINE
  8
1
  6
CONTINUOUS
 62
     0
 10
 6.42602212153724E+0000
 20
 5.96473926478939E+0000
 11
 6.41179525323241E+0000
 21
 5.95051239648456E+0000
  0
LINE
  8
1
  6
CONTINUOUS
 62
     0
 10
 6.42245778084180E+0000
 20
 5.98182912827906E+0000
 11
 6.41604490896862E+0000
 21
 5.97541625640588E+0000
  0
LINE
  8
1
  6
CONTINUOUS
 62
     0
 10
 8.77523042852408E+0000
 20
 5.61014059562876E+0000
 11
 8.77523042852408E+0000
 21
 5.61014059562876E+0000
  0
LINE
  8
1
  6
CONTINUOUS
 62
     0
 10
 8.77523042852408E+0000
 20
 5.61014059562876E+0000
 11
 8.74804890716041E+0000
 21
 5.45085126900085E+0000
  0
LINE
  8
1
  6
CONTINUOUS
 62
     0
 10
 8.74804890716041E+0000
 20
 5.45085126900085E+0000
 11
 8.80845254463202E+0000
 21
 5.45085126900085E+0000
  0
LINE
  8
1
  6
CONTINUOUS
 62
     0
 10
 8.80845254463202E+0000
 20
 5.45085126900085E+0000
 11
 8.77523042852408E+0000
 21
 5.61014059562876E+0000
  0
LINE
  8
1
  6
CONTINUOUS
 62
     0
 10
 8.74804890716041E+0000
 20
 5.45085126900085E+0000
 11
 8.80845254463202E+0000
 21
 5.45085126900085E+0000
  0
LINE
  8
1
  6
CONTINUOUS
 62
     0
 10
 8.75837600926752E+0000
 20
 5.45085126900085E+0000
 11
 8.74955427032546E+0000
 21
 5.45967300793563E+0000
  0
LINE
  8
1
  6
CONTINUOUS
 62
     0
 10
 8.77903021345264E+0000
 20
 5.45085126900085E+0000
 11
 8.75256499667012E+0000
 21
 5.47731648579065E+0000
  0
LINE
  8
1
  6
CONTINUOUS
 62
     0
 10
 8.79968441763776E+0000
 20
 5.45085126900085E+0000
 11
 8.75557572300022E+0000
 21
 5.49495996364567E+0000
  0
LINE
  8
1
  6
CONTINUOUS
 62
     0
 10
 8.80532024214335E+0000
 20
 5.46586964868038E+0000
 11
 8.75858644933032E+0000
 21
 5.51260344150069E+0000
  0
LINE
  8
1
  6
CONTINUOUS
 62
     0
 10
 8.79987730130961E+0000
 20
 5.49196679370652E+0000
 11
 8.76159717566043E+0000
 21
 5.53024691935570E+0000
  0
LINE
  8
1
  6
CONTINUOUS
 62
     0
 10
 8.79443436046131E+0000
 20
 5.51806393873994E+0000
 11
 8.76460790199053E+0000
 21
 5.54789039720345E+0000
  0
LINE
  8
1
  6
CONTINUOUS
 62
     0
 10
 8.78899141961301E+0000
 20
 5.54416108377336E+0000
 11
 8.76761862832063E+0000
 21
 5.56553387505846E+0000
  0
LINE
  8
1
  6
CONTINUOUS
 62
     0
 10
 8.78354847876471E+0000
 20
 5.57025822880678E+0000
 11
 8.77062935465074E+0000
 21
 5.58317735291348E+0000
  0
LINE
  8
1
  6
CONTINUOUS
 62
     0
 10
 8.77810553791642E+0000
 20
 5.59635537384020E+0000
 11
 8.77364008099539E+0000
 21
 5.60082083076122E+0000
  0
LINE
  8
1
  6
CONTINUOUS
 62
     0
 10
 8.80667037428066E+0000
 20
 5.45939620074205E+0000
 11
 8.79812544253946E+0000
 21
 5.45085126900085E+0000
  0
LINE
  8
1
  6
CONTINUOUS
 62
     0
 10
 8.80310603359248E+0000
 20
 5.47648606423172E+0000
 11
 8.77747123835434E+0000
 21
 5.45085126900085E+0000
  0
LINE
  8
1
  6
CONTINUOUS
 62
     0
 10
 8.79954169288976E+0000
 20
 5.49357592772867E+0000
 11
 8.75681703416922E+0000
 21
 5.45085126900085E+0000
  0
LINE
  8
1
  6
CONTINUOUS
 62
     0
 10
 8.79597735220159E+0000
 20
 5.51066579121834E+0000
 11
 8.75049449816288E+0000
 21
 5.46518293718691E+0000
  0
LINE
  8
1
  6
CONTINUOUS
 62
     0
 10
 8.79241301149887E+0000
 20
 5.52775565470074E+0000
 11
 8.75474415390636E+0000
 21
 5.49008679710823E+0000
  0
LINE
  8
1
  6
CONTINUOUS
 62
     0
 10
 8.78884867079614E+0000
 20
 5.54484551819041E+0000
 11
 8.75899380963529E+0000
 21
 5.51499065702956E+0000
  0
LINE
  8
1
  6
CONTINUOUS
 62
     0
 10
 8.78528433010797E+0000
 20
 5.56193538168009E+0000
 11
 8.76324346537876E+0000
 21
 5.53989451695088E+0000
  0
LINE
  8
1
  6
CONTINUOUS
 62
     0
 10
 8.78171998941980E+0000
 20
 5.57902524517704E+0000
 11
 8.76749312110769E+0000
 21
 5.56479837687220E+0000
  0
LINE
  8
1
  6
CONTINUOUS
 62
     0
 10
 8.77815564871707E+0000
 20
 5.59611510866671E+0000
 11
 8.77174277683662E+0000
 21
 5.58970223677898E+0000
  0
LINE
  8
1
  6
CONTINUOUS
 62
     0
 10
 8.78038147845655E+0000
 20
 3.25938733532894E+0000
 11
 8.78038147845655E+0000
 21
 3.25938733532894E+0000
  0
LINE
  8
1
  6
CONTINUOUS
 62
     0
 10
 8.78038147845655E+0000
 20
 3.25938733532894E+0000
 11
 8.80756299982022E+0000
 21
 3.41867666195685E+0000
  0
LINE
  8
1
  6
CONTINUOUS
 62
     0
 10
 8.80756299982022E+0000
 20
 3.41867666195685E+0000
 11
 8.74715936234861E+0000
 21
 3.41867666195685E+0000
  0
LINE
  8
1
  6
CONTINUOUS
 62
     0
 10
 8.74715936234861E+0000
 20
 3.41867666195685E+0000
 11
 8.78038147845655E+0000
 21
 3.25938733532894E+0000
  0
LINE
  8
1
  6
CONTINUOUS
 62
     0
 10
 8.80756299982022E+0000
 20
 3.41867666195685E+0000
 11
 8.74715936234861E+0000
 21
 3.41867666195685E+0000
  0
LINE
  8
1
  6
CONTINUOUS
 62
     0
 10
 8.78188684162160E+0000
 20
 3.26820907426372E+0000
 11
 8.77766000802512E+0000
 21
 3.27243590786020E+0000
  0
LINE
  8
1
  6
CONTINUOUS
 62
     0
 10
 8.78489756795170E+0000
 20
 3.28585255211874E+0000
 11
 8.77221706719138E+0000
 21
 3.29853305288998E+0000
  0
LINE
  8
1
  6
CONTINUOUS
 62
     0
 10
 8.78790829429636E+0000
 20
 3.30349602997012E+0000
 11
 8.76677412634308E+0000
 21
 3.32463019792340E+0000
  0
LINE
  8
1
  6
CONTINUOUS
 62
     0
 10
 8.79091902062646E+0000
 20
 3.32113950782514E+0000
 11
 8.76133118549478E+0000
 21
 3.35072734295318E+0000
  0
LINE
  8
1
  6
CONTINUOUS
 62
     0
 10
 8.79392974695656E+0000
 20
 3.33878298567652E+0000
 11
 8.75588824464648E+0000
 21
 3.37682448798660E+0000
  0
LINE
  8
1
  6
CONTINUOUS
 62
     0
 10
 8.79694047328667E+0000
 20
 3.35642646352790E+0000
 11
 8.75044530379819E+0000
 21
 3.40292163302001E+0000
  0
LINE
  8
1
  6
CONTINUOUS
 62
     0
 10
 8.79995119961677E+0000
 20
 3.37406994138291E+0000
 11
 8.75534447903919E+0000
 21
 3.41867666195685E+0000
  0
LINE
  8
1
  6
CONTINUOUS
 62
     0
 10
 8.80296192594687E+0000
 20
 3.39171341923429E+0000
 11
 8.77599868322432E+0000
 21
 3.41867666195685E+0000
  0
LINE
  8
1
  6
CONTINUOUS
 62
     0
 10
 8.80597265227698E+0000
 20
 3.40935689708931E+0000
 11
 8.79665288742399E+0000
 21
 3.41867666195321E+0000
  0
LINE
  8
1
  6
CONTINUOUS
 62
     0
 10
 8.78250630632101E+0000
 20
 3.27183926528596E+0000
 11
 8.77859930810519E+0000
 21
 3.26793226707377E+0000
  0
LINE
  8
1
  6
CONTINUOUS
 62
     0
 10
 8.78675596204994E+0000
 20
 3.29674312520729E+0000
 11
 8.77503496740246E+0000
 21
 3.28502213056345E+0000
  0
LINE
  8
1
  6
CONTINUOUS
 62
     0
 10
 8.79100561779342E+0000
 20
 3.32164698512861E+0000
 11
 8.77147062671429E+0000
 21
 3.30211199405676E+0000
  0
LINE
  8
1
  6
CONTINUOUS
 62
     0
 10
 8.79525527352234E+0000
 20
 3.34655084504993E+0000
 11
 8.76790628602612E+0000
 21
 3.31920185754643E+0000
  0
LINE
  8
1
  6
CONTINUOUS
 62
     0
 10
 8.79950492926582E+0000
 20
 3.37145470497126E+0000
 11
 8.76434194532339E+0000
 21
 3.33629172102883E+0000
  0
LINE
  8
1
  6
CONTINUOUS
 62
     0
 10
 8.80375458499475E+0000
 20
 3.39635856489258E+0000
 11
 8.76077760462067E+0000
 21
 3.35338158451850E+0000
  0
LINE
  8
1
  6
CONTINUOUS
 62
     0
 10
 8.80541847787390E+0000
 20
 3.41867666195321E+0000
 11
 8.75721326393250E+0000
 21
 3.37047144801181E+0000
  0
LINE
  8
1
  6
CONTINUOUS
 62
     0
 10
 8.78476427368878E+0000
 20
 3.41867666195321E+0000
 11
 8.75364892324433E+0000
 21
 3.38756131150512E+0000
  0
LINE
  8
1
  6
CONTINUOUS
 62
     0
 10
 8.76411006950366E+0000
 20
 3.41867666195321E+0000
 11
 8.75008458254160E+0000
 21
 3.40465117499480E+0000
  0
LINE
  8
1
  6
CONTINUOUS
 62
     0
 10
 5.60018935682456E+0000
 20
 3.81040736335126E+0000
 11
 5.60018935682456E+0000
 21
 3.81040736335126E+0000
  0
LINE
  8
1
  6
CONTINUOUS
 62
     0
 10
 5.60018935682456E+0000
 20
 3.81040736335126E+0000
 11
 5.62737087818823E+0000
 21
 3.96969668997917E+0000
  0
LINE
  8
1
  6
CONTINUOUS
 62
     0
 10
 5.62737087818823E+0000
 20
 3.96969668997917E+0000
 11
 5.56696724071662E+0000
 21
 3.96969668997917E+0000
  0
LINE
  8
1
  6
CONTINUOUS
 62
     0
 10
 5.56696724071662E+0000
 20
 3.96969668997917E+0000
 11
 5.60018935682456E+0000
 21
 3.81040736335126E+0000
  0
LINE
  8
1
  6
CONTINUOUS
 62
     0
 10
 5.62737087818823E+0000
 20
 3.96969668997917E+0000
 11
 5.56696724071662E+0000
 21
 3.96969668997917E+0000
  0
LINE
  8
1
  6
CONTINUOUS
 62
     0
 10
 5.60169471998961E+0000
 20
 3.81922910227877E+0000
 11
 5.59746788640041E+0000
 21
 3.82345593586797E+0000
  0
LINE
  8
1
  6
CONTINUOUS
 62
     0
 10
 5.60470544632699E+0000
 20
 3.83687258013015E+0000
 11
 5.59202494555939E+0000
 21
 3.84955308090139E+0000
  0
LINE
  8
1
  6
CONTINUOUS
 62
     0
 10
 5.60771617265709E+0000
 20
 3.85451605798153E+0000
 11
 5.58658200471109E+0000
 21
 3.87565022593117E+0000
  0
LINE
  8
1
  6
CONTINUOUS
 62
     0
 10
 5.61072689899447E+0000
 20
 3.87215953583654E+0000
 11
 5.58113906386279E+0000
 21
 3.90174737096459E+0000
  0
LINE
  8
1
  6
CONTINUOUS
 62
     0
 10
 5.61373762532457E+0000
 20
 3.88980301368792E+0000
 11
 5.57569612301450E+0000
 21
 3.92784451599800E+0000
  0
LINE
  8
1
  6
CONTINUOUS
 62
     0
 10
 5.61674835165468E+0000
 20
 3.90744649153930E+0000
 11
 5.57025318216620E+0000
 21
 3.95394166103142E+0000
  0
LINE
  8
1
  6
CONTINUOUS
 62
     0
 10
 5.61975907799206E+0000
 20
 3.92508996939432E+0000
 11
 5.57515235740721E+0000
 21
 3.96969668997917E+0000
  0
LINE
  8
1
  6
CONTINUOUS
 62
     0
 10
 5.62276980432216E+0000
 20
 3.94273344724570E+0000
 11
 5.59580656158505E+0000
 21
 3.96969668997917E+0000
  0
LINE
  8
1
  6
CONTINUOUS
 62
     0
 10
 5.62578053065226E+0000
 20
 3.96037692510072E+0000
 11
 5.61646076577017E+0000
 21
 3.96969668998281E+0000
  0
LINE
  8
1
  6
CONTINUOUS
 62
     0
 10
 5.60231418468902E+0000
 20
 3.82285929330828E+0000
 11
 5.59840718647320E+0000
 21
 3.81895229509610E+0000
  0
LINE
  8
1
  6
CONTINUOUS
 62
     0
 10
 5.60656384042522E+0000
 20
 3.84776315322961E+0000
 11
 5.59484284577775E+0000
 21
 3.83604215858577E+0000
  0
LINE
  8
1
  6
CONTINUOUS
 62
     0
 10
 5.61081349616143E+0000
 20
 3.87266701315093E+0000
 11
 5.59127850508230E+0000
 21
 3.85313202207180E+0000
  0
LINE
  8
1
  6
CONTINUOUS
 62
     0
 10
 5.61506315189035E+0000
 20
 3.89757087306862E+0000
 11
 5.58771416438685E+0000
 21
 3.87022188556512E+0000
  0
LINE
  8
1
  6
CONTINUOUS
 62
     0
 10
 5.61931280762656E+0000
 20
 3.92247473298994E+0000
 11
 5.58414982369868E+0000
 21
 3.88731174905843E+0000
  0
LINE
  8
1
  6
CONTINUOUS
 62
     0
 10
 5.62356246336276E+0000
 20
 3.94737859290763E+0000
 11
 5.58058548300323E+0000
 21
 3.90440161254810E+0000
  0
LINE
  8
1
  6
CONTINUOUS
 62
     0
 10
 5.62522635624191E+0000
 20
 3.96969668997554E+0000
 11
 5.57702114230051E+0000
 21
 3.92149147603413E+0000
  0
LINE
  8
1
  6
CONTINUOUS
 62
     0
 10
 5.60457215205679E+0000
 20
 3.96969668997554E+0000
 11
 5.57345680161234E+0000
 21
 3.93858133952745E+0000
  0
LINE
  8
1
  6
CONTINUOUS
 62
     0
 10
 5.58391794787167E+0000
 20
 3.96969668997554E+0000
 11
 5.56989246091689E+0000
 21
 3.95567120301712E+0000
  0
LINE
  8
1
  6
CONTINUOUS
 62
     0
 10
 5.59503830689209E+0000
 20
 3.64221192410696E+0000
 11
 5.59503830689209E+0000
 21
 3.64221192410696E+0000
  0
LINE
  8
1
  6
CONTINUOUS
 62
     0
 10
 5.59503830689209E+0000
 20
 3.64221192410696E+0000
 11
 5.56785678552842E+0000
 21
 3.48292259747905E+0000
  0
LINE
  8
1
  6
CONTINUOUS
 62
     0
 10
 5.56785678552842E+0000
 20
 3.48292259747905E+0000
 11
 5.62826042300003E+0000
 21
 3.48292259747905E+0000
  0
LINE
  8
1
  6
CONTINUOUS
 62
     0
 10
 5.62826042300003E+0000
 20
 3.48292259747905E+0000
 11
 5.59503830689209E+0000
 21
 3.64221192410696E+0000
  0
LINE
  8
1
  6
CONTINUOUS
 62
     0
 10
 5.56785678552842E+0000
 20
 3.48292259747905E+0000
 11
 5.62826042300003E+0000
 21
 3.48292259747905E+0000
  0
LINE
  8
1
  6
CONTINUOUS
 62
     0
 10
 5.57818388762098E+0000
 20
 3.48292259748268E+0000
 11
 5.56936214869347E+0000
 21
 3.49174433640655E+0000
  0
LINE
  8
1
  6
CONTINUOUS
 62
     0
 10
 5.59883809181338E+0000
 20
 3.48292259747905E+0000
 11
 5.57237287503085E+0000
 21
 3.50938781426157E+0000
  0
LINE
  8
1
  6
CONTINUOUS
 62
     0
 10
 5.61949229599850E+0000
 20
 3.48292259747905E+0000
 11
 5.57538360136095E+0000
 21
 3.52703129211295E+0000
  0
LINE
  8
1
  6
CONTINUOUS
 62
     0
 10
 5.62512812051864E+0000
 20
 3.49794097714039E+0000
 11
 5.57839432769106E+0000
 21
 3.54467476996797E+0000
  0
LINE
  8
1
  6
CONTINUOUS
 62
     0
 10
 5.61968517967034E+0000
 20
 3.52403812217381E+0000
 11
 5.58140505402844E+0000
 21
 3.56231824781935E+0000
  0
LINE
  8
1
  6
CONTINUOUS
 62
     0
 10
 5.61424223882204E+0000
 20
 3.55013526720722E+0000
 11
 5.58441578035854E+0000
 21
 3.57996172567437E+0000
  0
LINE
  8
1
  6
CONTINUOUS
 62
     0
 10
 5.60879929798102E+0000
 20
 3.57623241223700E+0000
 11
 5.58742650668864E+0000
 21
 3.59760520352575E+0000
  0
LINE
  8
1
  6
CONTINUOUS
 62
     0
 10
 5.60335635713272E+0000
 20
 3.60232955727042E+0000
 11
 5.59043723302602E+0000
 21
 3.61524868137712E+0000
  0
LINE
  8
1
  6
CONTINUOUS
 62
     0
 10
 5.59791341628443E+0000
 20
 3.62842670230020E+0000
 11
 5.59344795935613E+0000
 21
 3.63289215923214E+0000
  0
LINE
  8
1
  6
CONTINUOUS
 62
     0
 10
 5.62647825264867E+0000
 20
 3.49146752922388E+0000
 11
 5.61793332090019E+0000
 21
 3.48292259747541E+0000
  0
LINE
  8
1
  6
CONTINUOUS
 62
     0
 10
 5.62291391195322E+0000
 20
 3.50855739271356E+0000
 11
 5.59727911671507E+0000
 21
 3.48292259747541E+0000
  0
LINE
  8
1
  6
CONTINUOUS
 62
     0
 10
 5.61934957125777E+0000
 20
 3.52564725619959E+0000
 11
 5.57662491252995E+0000
 21
 3.48292259747541E+0000
  0
LINE
  8
1
  6
CONTINUOUS
 62
     0
 10
 5.61578523056232E+0000
 20
 3.54273711969290E+0000
 11
 5.57030237653089E+0000
 21
 3.49725426565783E+0000
  0
LINE
  8
1
  6
CONTINUOUS
 62
     0
 10
 5.61222088986688E+0000
 20
 3.55982698318257E+0000
 11
 5.57455203226709E+0000
 21
 3.52215812557915E+0000
  0
LINE
  8
1
  6
CONTINUOUS
 62
     0
 10
 5.60865654917143E+0000
 20
 3.57691684667589E+0000
 11
 5.57880168800330E+0000
 21
 3.54706198550048E+0000
  0
LINE
  8
1
  6
CONTINUOUS
 62
     0
 10
 5.60509220847598E+0000
 20
 3.59400671016192E+0000
 11
 5.58305134373950E+0000
 21
 3.57196584542180E+0000
  0
LINE
  8
1
  6
CONTINUOUS
 62
     0
 10
 5.60152786778053E+0000
 20
 3.61109657365523E+0000
 11
 5.58730099946843E+0000
 21
 3.59686970534312E+0000
  0
LINE
  8
1
  6
CONTINUOUS
 62
     0
 10
 5.59796352709236E+0000
 20
 3.62818643714490E+0000
 11
 5.59155065520463E+0000
 21
 3.62177356526445E+0000
  0
LINE
  8
1
  6
CONTINUOUS
 62
     0
 10
 1.86518334941866E+0000
 20
 5.81480517746240E+0000
 11
 1.86518334941866E+0000
 21
 5.81480517746240E+0000
  0
LINE
  8
1
  6
CONTINUOUS
 62
     0
 10
 1.86518334941866E+0000
 20
 5.81480517746240E+0000
 11
 1.83800182805498E+0000
 21
 5.65551585083449E+0000
  0
LINE
  8
1
  6
CONTINUOUS
 62
     0
 10
 1.83800182805498E+0000
 20
 5.65551585083449E+0000
 11
 1.89840546552659E+0000
 21
 5.65551585083449E+0000
  0
LINE
  8
1
  6
CONTINUOUS
 62
     0
 10
 1.89840546552659E+0000
 20
 5.65551585083449E+0000
 11
 1.86518334941866E+0000
 21
 5.81480517746240E+0000
  0
LINE
  8
1
  6
CONTINUOUS
 62
     0
 10
 1.83800182805498E+0000
 20
 5.65551585083449E+0000
 11
 1.89840546552659E+0000
 21
 5.65551585083449E+0000
  0
LINE
  8
1
  6
CONTINUOUS
 62
     0
 10
 1.84832893014936E+0000
 20
 5.65551585083449E+0000
 11
 1.83950719122367E+0000
 21
 5.66433758976200E+0000
  0
LINE
  8
1
  6
CONTINUOUS
 62
     0
 10
 1.86898313433812E+0000
 20
 5.65551585083449E+0000
 11
 1.84251791755560E+0000
 21
 5.68198106761702E+0000
  0
LINE
  8
1
  6
CONTINUOUS
 62
     0
 10
 1.88963733852324E+0000
 20
 5.65551585083449E+0000
 11
 1.84552864388934E+0000
 21
 5.69962454546476E+0000
  0
LINE
  8
1
  6
CONTINUOUS
 62
     0
 10
 1.89527316304520E+0000
 20
 5.67053423049947E+0000
 11
 1.84853937022126E+0000
 21
 5.71726802331978E+0000
  0
LINE
  8
1
  6
CONTINUOUS
 62
     0
 10
 1.88983022219873E+0000
 20
 5.69663137552561E+0000
 11
 1.85155009655318E+0000
 21
 5.73491150117479E+0000
  0
LINE
  8
1
  6
CONTINUOUS
 62
     0
 10
 1.88438728135407E+0000
 20
 5.72272852055903E+0000
 11
 1.85456082288511E+0000
 21
 5.75255497902981E+0000
  0
LINE
  8
1
  6
CONTINUOUS
 62
     0
 10
 1.87894434050395E+0000
 20
 5.74882566559245E+0000
 11
 1.85757154921703E+0000
 21
 5.77019845688483E+0000
  0
LINE
  8
1
  6
CONTINUOUS
 62
     0
 10
 1.87350139965929E+0000
 20
 5.77492281062587E+0000
 11
 1.86058227555077E+0000
 21
 5.78784193473257E+0000
  0
LINE
  8
1
  6
CONTINUOUS
 62
     0
 10
 1.86805845881099E+0000
 20
 5.80101995565929E+0000
 11
 1.86359300188269E+0000
 21
 5.80548541258759E+0000
  0
LINE
  8
1
  6
CONTINUOUS
 62
     0
 10
 1.89662329517887E+0000
 20
 5.66406078257569E+0000
 11
 1.88807836343403E+0000
 21
 5.65551585083449E+0000
  0
LINE
  8
1
  6
CONTINUOUS
 62
     0
 10
 1.89305895448524E+0000
 20
 5.68115064606536E+0000
 11
 1.86742415924891E+0000
 21
 5.65551585083449E+0000
  0
LINE
  8
1
  6
CONTINUOUS
 62
     0
 10
 1.88949461378797E+0000
 20
 5.69824050955503E+0000
 11
 1.84676995506379E+0000
 21
 5.65551585083449E+0000
  0
LINE
  8
1
  6
CONTINUOUS
 62
     0
 10
 1.88593027309435E+0000
 20
 5.71533037304471E+0000
 11
 1.84044741906109E+0000
 21
 5.66984751901327E+0000
  0
LINE
  8
1
  6
CONTINUOUS
 62
     0
 10
 1.88236593240072E+0000
 20
 5.73242023654166E+0000
 11
 1.84469707479730E+0000
 21
 5.69475137893460E+0000
  0
LINE
  8
1
  6
CONTINUOUS
 62
     0
 10
 1.87880159170709E+0000
 20
 5.74951010003133E+0000
 11
 1.84894673053168E+0000
 21
 5.71965523885592E+0000
  0
LINE
  8
1
  6
CONTINUOUS
 62
     0
 10
 1.87523725100800E+0000
 20
 5.76659996351373E+0000
 11
 1.85319638626788E+0000
 21
 5.74455909877724E+0000
  0
LINE
  8
1
  6
CONTINUOUS
 62
     0
 10
 1.87167291031437E+0000
 20
 5.78368982701068E+0000
 11
 1.85744604200409E+0000
 21
 5.76946295869857E+0000
  0
LINE
  8
1
  6
CONTINUOUS
 62
     0
 10
 1.86810856962074E+0000
 20
 5.80077969050035E+0000
 11
 1.86169569773847E+0000
 21
 5.79436681861989E+0000
  0
LINE
  8
1
  6
CONTINUOUS
 62
     0
 10
 1.87033439935112E+0000
 20
 3.05472275349166E+0000
 11
 1.87033439935112E+0000
 21
 3.05472275349166E+0000
  0
LINE
  8
1
  6
CONTINUOUS
 62
     0
 10
 1.87033439935112E+0000
 20
 3.05472275349166E+0000
 11
 1.89751592071480E+0000
 21
 3.21401208011957E+0000
  0
LINE
  8
1
  6
CONTINUOUS
 62
     0
 10
 1.89751592071480E+0000
 20
 3.21401208011957E+0000
 11
 1.83711228324319E+0000
 21
 3.21401208011957E+0000
  0
LINE
  8
1
  6
CONTINUOUS
 62
     0
 10
 1.83711228324319E+0000
 20
 3.21401208011957E+0000
 11
 1.87033439935112E+0000
 21
 3.05472275349166E+0000
  0
LINE
  8
1
  6
CONTINUOUS
 62
     0
 10
 1.89751592071480E+0000
 20
 3.21401208011957E+0000
 11
 1.83711228324319E+0000
 21
 3.21401208011957E+0000
  0
LINE
  8
1
  6
CONTINUOUS
 62
     0
 10
 1.87183976251799E+0000
 20
 3.06354449241917E+0000
 11
 1.86761292892697E+0000
 21
 3.06777132600837E+0000
  0
LINE
  8
1
  6
CONTINUOUS
 62
     0
 10
 1.87485048884992E+0000
 20
 3.08118797027055E+0000
 11
 1.86216998808050E+0000
 21
 3.09386847104179E+0000
  0
LINE
  8
1
  6
CONTINUOUS
 62
     0
 10
 1.87786121518184E+0000
 20
 3.09883144812557E+0000
 11
 1.85672704723402E+0000
 21
 3.11996561607157E+0000
  0
LINE
  8
1
  6
CONTINUOUS
 62
     0
 10
 1.88087194151558E+0000
 20
 3.11647492597695E+0000
 11
 1.85128410638754E+0000
 21
 3.14606276110499E+0000
  0
LINE
  8
1
  6
CONTINUOUS
 62
     0
 10
 1.88388266784750E+0000
 20
 3.13411840382832E+0000
 11
 1.84584116554106E+0000
 21
 3.17215990613840E+0000
  0
LINE
  8
1
  6
CONTINUOUS
 62
     0
 10
 1.88689339418124E+0000
 20
 3.15176188168334E+0000
 11
 1.84039822469458E+0000
 21
 3.19825705116818E+0000
  0
LINE
  8
1
  6
CONTINUOUS
 62
     0
 10
 1.88990412051317E+0000
 20
 3.16940535953472E+0000
 11
 1.84529739992831E+0000
 21
 3.21401208011957E+0000
  0
LINE
  8
1
  6
CONTINUOUS
 62
     0
 10
 1.89291484684509E+0000
 20
 3.18704883738974E+0000
 11
 1.86595160411343E+0000
 21
 3.21401208011957E+0000
  0
LINE
  8
1
  6
CONTINUOUS
 62
     0
 10
 1.89592557317883E+0000
 20
 3.20469231524112E+0000
 11
 1.88660580830037E+0000
 21
 3.21401208011957E+0000
  0
LINE
  8
1
  6
CONTINUOUS
 62
     0
 10
 1.87245922721559E+0000
 20
 3.06717468344868E+0000
 11
 1.86855222900158E+0000
 21
 3.06326768523286E+0000
  0
LINE
  8
1
  6
CONTINUOUS
 62
     0
 10
 1.87670888295179E+0000
 20
 3.09207854337001E+0000
 11
 1.86498788830431E+0000
 21
 3.08035754872253E+0000
  0
LINE
  8
1
  6
CONTINUOUS
 62
     0
 10
 1.88095853868799E+0000
 20
 3.11698240329133E+0000
 11
 1.86142354761068E+0000
 21
 3.09744741221584E+0000
  0
LINE
  8
1
  6
CONTINUOUS
 62
     0
 10
 1.88520819442238E+0000
 20
 3.14188626321265E+0000
 11
 1.85785920691706E+0000
 21
 3.11453727570552E+0000
  0
LINE
  8
1
  6
CONTINUOUS
 62
     0
 10
 1.88945785015858E+0000
 20
 3.16679012313034E+0000
 11
 1.85429486622161E+0000
 21
 3.13162713919519E+0000
  0
LINE
  8
1
  6
CONTINUOUS
 62
     0
 10
 1.89370750589478E+0000
 20
 3.19169398305166E+0000
 11
 1.85073052552798E+0000
 21
 3.14871700268850E+0000
  0
LINE
  8
1
  6
CONTINUOUS
 62
     0
 10
 1.89537139877393E+0000
 20
 3.21401208011957E+0000
 11
 1.84716618483435E+0000
 21
 3.16580686617817E+0000
  0
LINE
  8
1
  6
CONTINUOUS
 62
     0
 10
 1.87471719458881E+0000
 20
 3.21401208011957E+0000
 11
 1.84360184413890E+0000
 21
 3.18289672966785E+0000
  0
LINE
  8
1
  6
CONTINUOUS
 62
     0
 10
 1.85406299040369E+0000
 20
 3.21401208011957E+0000
 11
 1.84003750344527E+0000
 21
 3.19998659315752E+0000
  0
TEXT
  8
1
 62
     0
 10
 7.45160980744549E+0000
 20
 6.44415666677378E+0000
 40
 1.18110236219991E-0001
  1
30
  7
STANDARD
 11
 7.45160980744549E+0000
 21
 6.56226690299081E+0000
 50
 0.00000000000000E+0000
 41
 3.08371993680339E-0001
  0
TEXT
  8
1
 62
     0
 10
 5.48852825088397E+0000
 20
 3.90159282316381E+0000
 40
 1.18110236219991E-0001
  1
4.5
  7
STANDARD
 11
 5.48852825088397E+0000
 21
 4.01970305938448E+0000
 50
 9.00000000000000E+0001
 41
 2.56976661400131E-0001
  0
TEXT
  8
1
 62
     0
 10
 1.72726398850500E+0000
 20
 4.24007655466994E+0000
 40
 1.18110236219991E-0001
  1
70
  7
STANDARD
 11
 1.72726398850500E+0000
 21
 4.35818679088698E+0000
 50
 9.00000000000000E+0001
 41
 3.08371993680339E-0001
  0
TEXT
  8
1
 62
     0
 10
 6.27376087351149E+0000
 20
 4.16135940780805E+0000
 40
 1.18110236219991E-0001
  1
80
  7
STANDARD
 11
 6.27376087351149E+0000
 21
 4.27946964402508E+0000
 50
 9.00000000000000E+0001
 41
 3.08371993680339E-0001
  0
TEXT
  8
1
 62
     0
 10
 8.63731106762134E+0000
 20
 4.17710283718043E+0000
 40
 1.18110236219991E-0001
  1
60 H7
  7
STANDARD
 11
 8.63731106762134E+0000
 21
 4.29521307339746E+0000
 50
 9.00000000000000E+0001
 41
 2.92953393996413E-0001
  0
LINE
  8
1
  6
CONTINUOUS
 62
     0
 10
 5.59846081805154E+0000
 20
 3.97247277126735E+0000
 11
 5.59846081805154E+0000
 21
 4.20862421185302E+0000
  0
LINE
  8
1
  6
DASHDOT
 62
     0
 10
 7.47812095212430E+0000
 20
 4.54954733944032E+0000
 11
 7.47812095212430E+0000
 21
 4.31790387405636E+0000
  0
CIRCLE
  8
1
  6
CONTINUOUS
 62
     0
 10
 7.47812095212430E+0000
 20
 4.43041641438322E+0000
 40
 5.94187495589722E-0002
  0
LINE
  8
1
  6
DASHDOT
 62
     0
 10
 4.90991055421182E+0000
 20
 4.48998187691177E+0000
 11
 5.31263763460447E+0000
 21
 4.48998187691177E+0000
  0
LINE
  8
1
  6
DASHDOT
 62
     0
 10
 4.91651263749372E+0000
 20
 4.37746933658491E+0000
 11
 5.31263763460447E+0000
 21
 4.37746933658491E+0000
  0
LINE
  8
1
  6
CONTINUOUS
 62
     0
 10
 7.47812095212430E+0000
 20
 4.54954733944032E+0000
 11
 7.47812095212430E+0000
 21
 4.75471726592514E+0000
  0
LINE
  8
1
  6
CONTINUOUS
 62
     0
 10
 7.47812095212430E+0000
 20
 4.75471726592514E+0000
 11
 7.00277095558704E+0000
 21
 4.75471726592514E+0000
  0
LINE
  8
1
  6
CONTINUOUS
 62
     0
 10
 7.47766306640551E+0000
 20
 4.75905246732873E+0000
 11
 7.47766306640551E+0000
 21
 4.75905246732873E+0000
  0
LINE
  8
1
  6
CONTINUOUS
 62
     0
 10
 7.47766306640551E+0000
 20
 4.75905246732873E+0000
 11
 7.63695239305525E+0000
 21
 4.73187094596506E+0000
  0
LINE
  8
1
  6
CONTINUOUS
 62
     0
 10
 7.63695239305525E+0000
 20
 4.73187094596506E+0000
 11
 7.63695239305525E+0000
 21
 4.79227458343667E+0000
  0
LINE
  8
1
  6
CONTINUOUS
 62
     0
 10
 7.63695239305525E+0000
 20
 4.79227458343667E+0000
 11
 7.47766306640551E+0000
 21
 4.75905246732873E+0000
  0
LINE
  8
1
  6
CONTINUOUS
 62
     0
 10
 7.63695239305525E+0000
 20
 4.73187094596506E+0000
 11
 7.63695239305525E+0000
 21
 4.79227458343667E+0000
  0
LINE
  8
1
  6
CONTINUOUS
 62
     0
 10
 7.49011499637709E+0000
 20
 4.75692763945699E+0000
 11
 7.48620799816126E+0000
 21
 4.76083463767282E+0000
  0
LINE
  8
1
  6
CONTINUOUS
 62
     0
 10
 7.51501885629114E+0000
 20
 4.75267798372806E+0000
 11
 7.50329786165094E+0000
 21
 4.76439897836826E+0000
  0
LINE
  8
1
  6
CONTINUOUS
 62
     0
 10
 7.53992271621246E+0000
 20
 4.74842832799186E+0000
 11
 7.52038772514061E+0000
 21
 4.76796331906371E+0000
  0
LINE
  8
1
  6
CONTINUOUS
 62
     0
 10
 7.56482657613378E+0000
 20
 4.74417867226293E+0000
 11
 7.53747758863028E+0000
 21
 4.77152765975916E+0000
  0
LINE
  8
1
  6
CONTINUOUS
 62
     0
 10
 7.58973043604783E+0000
 20
 4.73992901652673E+0000
 11
 7.55456745211995E+0000
 21
 4.77509200045461E+0000
  0
LINE
  8
1
  6
CONTINUOUS
 62
     0
 10
 7.61463429596915E+0000
 20
 4.73567936079053E+0000
 11
 7.57165731560963E+0000
 21
 4.77865634115005E+0000
  0
LINE
  8
1
  6
CONTINUOUS
 62
     0
 10
 7.63695239306253E+0000
 20
 4.73401546788227E+0000
 11
 7.58874717909930E+0000
 21
 4.78222068184550E+0000
  0
LINE
  8
1
  6
CONTINUOUS
 62
     0
 10
 7.63695239306253E+0000
 20
 4.75466967206739E+0000
 11
 7.60583704258897E+0000
 21
 4.78578502254095E+0000
  0
LINE
  8
1
  6
CONTINUOUS
 62
     0
 10
 7.63695239305525E+0000
 20
 4.77532387625979E+0000
 11
 7.62292690607865E+0000
 21
 4.78934936323640E+0000
  0
LINE
  8
1
  6
CONTINUOUS
 62
     0
 10
 7.63695239304798E+0000
 20
 4.74219804805762E+0000
 11
 7.62813065412047E+0000
 21
 4.73337630913011E+0000
  0
LINE
  8
1
  6
CONTINUOUS
 62
     0
 10
 7.63695239304798E+0000
 20
 4.76285225224274E+0000
 11
 7.61048717626545E+0000
 21
 4.73638703546021E+0000
  0
LINE
  8
1
  6
CONTINUOUS
 62
     0
 10
 7.63695239304798E+0000
 20
 4.78350645642786E+0000
 11
 7.59284369841771E+0000
 21
 4.73939776179031E+0000
  0
LINE
  8
1
  6
CONTINUOUS
 62
     0
 10
 7.62193401339755E+0000
 20
 4.78914228096255E+0000
 11
 7.57520022056269E+0000
 21
 4.74240848812769E+0000
  0
LINE
  8
1
  6
CONTINUOUS
 62
     0
 10
 7.59583686836413E+0000
 20
 4.78369934010698E+0000
 11
 7.55755674270767E+0000
 21
 4.74541921445780E+0000
  0
LINE
  8
1
  6
CONTINUOUS
 62
     0
 10
 7.56973972333071E+0000
 20
 4.77825639926596E+0000
 11
 7.53991326485266E+0000
 21
 4.74842994078790E+0000
  0
LINE
  8
1
  6
CONTINUOUS
 62
     0
 10
 7.54364257829729E+0000
 20
 4.77281345841038E+0000
 11
 7.52226978699764E+0000
 21
 4.75144066711800E+0000
  0
LINE
  8
1
  6
CONTINUOUS
 62
     0
 10
 7.51754543326388E+0000
 20
 4.76737051756936E+0000
 11
 7.50462630914990E+0000
 21
 4.75445139345538E+0000
  0
LINE
  8
1
  6
CONTINUOUS
 62
     0
 10
 7.49144828823773E+0000
 20
 4.76192757672834E+0000
 11
 7.48698283129488E+0000
 21
 4.75746211978549E+0000
  0
LINE
  8
1
  6
CONTINUOUS
 62
     0
 10
 7.47766306640551E+0000
 20
 4.75905246732873E+0000
 11
 7.47766306640551E+0000
 21
 4.75905246732873E+0000
  0
LINE
  8
1
  6
CONTINUOUS
 62
     0
 10
 7.47766306640551E+0000
 20
 4.75905246732873E+0000
 11
 7.63695239305525E+0000
 21
 4.73187094596506E+0000
  0
LINE
  8
1
  6
CONTINUOUS
 62
     0
 10
 7.63695239305525E+0000
 20
 4.73187094596506E+0000
 11
 7.63695239305525E+0000
 21
 4.79227458343667E+0000
  0
LINE
  8
1
  6
CONTINUOUS
 62
     0
 10
 7.63695239305525E+0000
 20
 4.79227458343667E+0000
 11
 7.47766306640551E+0000
 21
 4.75905246732873E+0000
  0
LINE
  8
1
  6
CONTINUOUS
 62
     0
 10
 7.63695239305525E+0000
 20
 4.73187094596506E+0000
 11
 7.63695239305525E+0000
 21
 4.79227458343667E+0000
  0
LINE
  8
1
  6
CONTINUOUS
 62
     0
 10
 7.49011499637709E+0000
 20
 4.75692763945699E+0000
 11
 7.48620799816126E+0000
 21
 4.76083463767282E+0000
  0
LINE
  8
1
  6
CONTINUOUS
 62
     0
 10
 7.51501885629114E+0000
 20
 4.75267798372806E+0000
 11
 7.50329786165094E+0000
 21
 4.76439897836826E+0000
  0
LINE
  8
1
  6
CONTINUOUS
 62
     0
 10
 7.53992271621246E+0000
 20
 4.74842832799186E+0000
 11
 7.52038772514061E+0000
 21
 4.76796331906371E+0000
  0
LINE
  8
1
  6
CONTINUOUS
 62
     0
 10
 7.56482657613378E+0000
 20
 4.74417867226293E+0000
 11
 7.53747758863028E+0000
 21
 4.77152765975916E+0000
  0
LINE
  8
1
  6
CONTINUOUS
 62
     0
 10
 7.58973043604783E+0000
 20
 4.73992901652673E+0000
 11
 7.55456745211995E+0000
 21
 4.77509200045461E+0000
  0
LINE
  8
1
  6
CONTINUOUS
 62
     0
 10
 7.61463429596915E+0000
 20
 4.73567936079053E+0000
 11
 7.57165731560963E+0000
 21
 4.77865634115005E+0000
  0
LINE
  8
1
  6
CONTINUOUS
 62
     0
 10
 7.63695239306253E+0000
 20
 4.73401546788227E+0000
 11
 7.58874717909930E+0000
 21
 4.78222068184550E+0000
  0
LINE
  8
1
  6
CONTINUOUS
 62
     0
 10
 7.63695239306253E+0000
 20
 4.75466967206739E+0000
 11
 7.60583704258897E+0000
 21
 4.78578502254095E+0000
  0
LINE
  8
1
  6
CONTINUOUS
 62
     0
 10
 7.63695239305525E+0000
 20
 4.77532387625979E+0000
 11
 7.62292690607865E+0000
 21
 4.78934936323640E+0000
  0
LINE
  8
1
  6
CONTINUOUS
 62
     0
 10
 7.63695239304798E+0000
 20
 4.74219804805762E+0000
 11
 7.62813065412047E+0000
 21
 4.73337630913011E+0000
  0
LINE
  8
1
  6
CONTINUOUS
 62
     0
 10
 7.63695239304798E+0000
 20
 4.76285225224274E+0000
 11
 7.61048717626545E+0000
 21
 4.73638703546021E+0000
  0
LINE
  8
1
  6
CONTINUOUS
 62
     0
 10
 7.63695239304798E+0000
 20
 4.78350645642786E+0000
 11
 7.59284369841771E+0000
 21
 4.73939776179031E+0000
  0
LINE
  8
1
  6
CONTINUOUS
 62
     0
 10
 7.62193401339755E+0000
 20
 4.78914228096255E+0000
 11
 7.57520022056269E+0000
 21
 4.74240848812769E+0000
  0
LINE
  8
1
  6
CONTINUOUS
 62
     0
 10
 7.59583686836413E+0000
 20
 4.78369934010698E+0000
 11
 7.55755674270767E+0000
 21
 4.74541921445780E+0000
  0
LINE
  8
1
  6
CONTINUOUS
 62
     0
 10
 7.56973972333071E+0000
 20
 4.77825639926596E+0000
 11
 7.53991326485266E+0000
 21
 4.74842994078790E+0000
  0
LINE
  8
1
  6
CONTINUOUS
 62
     0
 10
 7.54364257829729E+0000
 20
 4.77281345841038E+0000
 11
 7.52226978699764E+0000
 21
 4.75144066711800E+0000
  0
LINE
  8
1
  6
CONTINUOUS
 62
     0
 10
 7.51754543326388E+0000
 20
 4.76737051756936E+0000
 11
 7.50462630914990E+0000
 21
 4.75445139345538E+0000
  0
LINE
  8
1
  6
CONTINUOUS
 62
     0
 10
 7.49144828823773E+0000
 20
 4.76192757672834E+0000
 11
 7.48698283129488E+0000
 21
 4.75746211978549E+0000
  0
LINE
  8
1
  6
CONTINUOUS
 62
     0
 10
 7.00185193159268E+0000
 20
 4.76007536451652E+0000
 11
 7.00185193159268E+0000
 21
 4.76007536451652E+0000
  0
LINE
  8
1
  6
CONTINUOUS
 62
     0
 10
 7.00185193159268E+0000
 20
 4.76007536451652E+0000
 11
 6.84256260495749E+0000
 21
 4.78725688588020E+0000
  0
LINE
  8
1
  6
CONTINUOUS
 62
     0
 10
 6.84256260495749E+0000
 20
 4.78725688588020E+0000
 11
 6.84256260495749E+0000
 21
 4.72685324840859E+0000
  0
LINE
  8
1
  6
CONTINUOUS
 62
     0
 10
 6.84256260495749E+0000
 20
 4.72685324840859E+0000
 11
 7.00185193159268E+0000
 21
 4.76007536451652E+0000
  0
LINE
  8
1
  6
CONTINUOUS
 62
     0
 10
 6.84256260495749E+0000
 20
 4.78725688588020E+0000
 11
 6.84256260495749E+0000
 21
 4.72685324840859E+0000
  0
LINE
  8
1
  6
CONTINUOUS
 62
     0
 10
 6.85110753671324E+0000
 20
 4.72863541875995E+0000
 11
 6.84256260496477E+0000
 21
 4.73718035051570E+0000
  0
LINE
  8
1
  6
CONTINUOUS
 62
     0
 10
 6.86819740020292E+0000
 20
 4.73219975945540E+0000
 11
 6.84256260495749E+0000
 21
 4.75783455470082E+0000
  0
LINE
  8
1
  6
CONTINUOUS
 62
     0
 10
 6.88528726369259E+0000
 20
 4.73576410015085E+0000
 11
 6.84256260495749E+0000
 21
 4.77848875888594E+0000
  0
LINE
  8
1
  6
CONTINUOUS
 62
     0
 10
 6.90237712718954E+0000
 20
 4.73932844084629E+0000
 11
 6.85689427316538E+0000
 21
 4.78481129487045E+0000
  0
LINE
  8
1
  6
CONTINUOUS
 62
     0
 10
 6.91946699067921E+0000
 20
 4.74289278154174E+0000
 11
 6.88179813307943E+0000
 21
 4.78056163913425E+0000
  0
LINE
  8
1
  6
CONTINUOUS
 62
     0
 10
 6.93655685416888E+0000
 20
 4.74645712223719E+0000
 11
 6.90670199300075E+0000
 21
 4.77631198340532E+0000
  0
LINE
  8
1
  6
CONTINUOUS
 62
     0
 10
 6.95364671765856E+0000
 20
 4.75002146293264E+0000
 11
 6.93160585292208E+0000
 21
 4.77206232766912E+0000
  0
LINE
  8
1
  6
CONTINUOUS
 62
     0
 10
 6.97073658114823E+0000
 20
 4.75358580362808E+0000
 11
 6.95650971284340E+0000
 21
 4.76781267193292E+0000
  0
LINE
  8
1
  6
CONTINUOUS
 62
     0
 10
 6.98782644463790E+0000
 20
 4.75715014432353E+0000
 11
 6.98141357275745E+0000
 21
 4.76356301620399E+0000
  0
LINE
  8
1
  6
CONTINUOUS
 62
     0
 10
 6.99303019265790E+0000
 20
 4.76158072768158E+0000
 11
 6.98880335906142E+0000
 21
 4.75735389408510E+0000
  0
LINE
  8
1
  6
CONTINUOUS
 62
     0
 10
 6.97538671481016E+0000
 20
 4.76459145401168E+0000
 11
 6.96270621403528E+0000
 21
 4.75191095323680E+0000
  0
LINE
  8
1
  6
CONTINUOUS
 62
     0
 10
 6.95774323695514E+0000
 20
 4.76760218034178E+0000
 11
 6.93660906900914E+0000
 21
 4.74646801239578E+0000
  0
LINE
  8
1
  6
CONTINUOUS
 62
     0
 10
 6.94009975910012E+0000
 20
 4.77061290667916E+0000
 11
 6.91051192396844E+0000
 21
 4.74102507154021E+0000
  0
LINE
  8
1
  6
CONTINUOUS
 62
     0
 10
 6.92245628124510E+0000
 20
 4.77362363300927E+0000
 11
 6.88441477893502E+0000
 21
 4.73558213069919E+0000
  0
LINE
  8
1
  6
CONTINUOUS
 62
     0
 10
 6.90481280339736E+0000
 20
 4.77663435933937E+0000
 11
 6.85831763390888E+0000
 21
 4.73013918985816E+0000
  0
LINE
  8
1
  6
CONTINUOUS
 62
     0
 10
 6.88716932554235E+0000
 20
 4.77964508566947E+0000
 11
 6.84256260494294E+0000
 21
 4.73503836507734E+0000
  0
LINE
  8
1
  6
CONTINUOUS
 62
     0
 10
 6.86952584768733E+0000
 20
 4.78265581200685E+0000
 11
 6.84256260494294E+0000
 21
 4.75569256926246E+0000
  0
LINE
  8
1
  6
CONTINUOUS
 62
     0
 10
 6.85188236984686E+0000
 20
 4.78566653834423E+0000
 11
 6.84256260495749E+0000
 21
 4.77634677345486E+0000
  0
LINE
  8
1
  6
CONTINUOUS
 62
     0
 10
 7.00185193159268E+0000
 20
 4.76007536451652E+0000
 11
 7.00185193159268E+0000
 21
 4.76007536451652E+0000
  0
LINE
  8
1
  6
CONTINUOUS
 62
     0
 10
 7.00185193159268E+0000
 20
 4.76007536451652E+0000
 11
 6.84256260495749E+0000
 21
 4.78725688588020E+0000
  0
LINE
  8
1
  6
CONTINUOUS
 62
     0
 10
 6.84256260495749E+0000
 20
 4.78725688588020E+0000
 11
 6.84256260495749E+0000
 21
 4.72685324840859E+0000
  0
LINE
  8
1
  6
CONTINUOUS
 62
     0
 10
 6.84256260495749E+0000
 20
 4.72685324840859E+0000
 11
 7.00185193159268E+0000
 21
 4.76007536451652E+0000
  0
LINE
  8
1
  6
CONTINUOUS
 62
     0
 10
 6.84256260495749E+0000
 20
 4.78725688588020E+0000
 11
 6.84256260495749E+0000
 21
 4.72685324840859E+0000
  0
LINE
  8
1
  6
CONTINUOUS
 62
     0
 10
 6.85110753671324E+0000
 20
 4.72863541875995E+0000
 11
 6.84256260496477E+0000
 21
 4.73718035051570E+0000
  0
LINE
  8
1
  6
CONTINUOUS
 62
     0
 10
 6.86819740020292E+0000
 20
 4.73219975945540E+0000
 11
 6.84256260495749E+0000
 21
 4.75783455470082E+0000
  0
LINE
  8
1
  6
CONTINUOUS
 62
     0
 10
 6.88528726369259E+0000
 20
 4.73576410015085E+0000
 11
 6.84256260495749E+0000
 21
 4.77848875888594E+0000
  0
LINE
  8
1
  6
CONTINUOUS
 62
     0
 10
 6.90237712718954E+0000
 20
 4.73932844084629E+0000
 11
 6.85689427316538E+0000
 21
 4.78481129487045E+0000
  0
LINE
  8
1
  6
CONTINUOUS
 62
     0
 10
 6.91946699067921E+0000
 20
 4.74289278154174E+0000
 11
 6.88179813307943E+0000
 21
 4.78056163913425E+0000
  0
LINE
  8
1
  6
CONTINUOUS
 62
     0
 10
 6.93655685416888E+0000
 20
 4.74645712223719E+0000
 11
 6.90670199300075E+0000
 21
 4.77631198340532E+0000
  0
LINE
  8
1
  6
CONTINUOUS
 62
     0
 10
 6.95364671765856E+0000
 20
 4.75002146293264E+0000
 11
 6.93160585292208E+0000
 21
 4.77206232766912E+0000
  0
LINE
  8
1
  6
CONTINUOUS
 62
     0
 10
 6.97073658114823E+0000
 20
 4.75358580362808E+0000
 11
 6.95650971284340E+0000
 21
 4.76781267193292E+0000
  0
LINE
  8
1
  6
CONTINUOUS
 62
     0
 10
 6.98782644463790E+0000
 20
 4.75715014432353E+0000
 11
 6.98141357275745E+0000
 21
 4.76356301620399E+0000
  0
LINE
  8
1
  6
CONTINUOUS
 62
     0
 10
 6.99303019265790E+0000
 20
 4.76158072768158E+0000
 11
 6.98880335906142E+0000
 21
 4.75735389408510E+0000
  0
LINE
  8
1
  6
CONTINUOUS
 62
     0
 10
 6.97538671481016E+0000
 20
 4.76459145401168E+0000
 11
 6.96270621403528E+0000
 21
 4.75191095323680E+0000
  0
LINE
  8
1
  6
CONTINUOUS
 62
     0
 10
 6.95774323695514E+0000
 20
 4.76760218034178E+0000
 11
 6.93660906900914E+0000
 21
 4.74646801239578E+0000
  0
LINE
  8
1
  6
CONTINUOUS
 62
     0
 10
 6.94009975910012E+0000
 20
 4.77061290667916E+0000
 11
 6.91051192396844E+0000
 21
 4.74102507154021E+0000
  0
LINE
  8
1
  6
CONTINUOUS
 62
     0
 10
 6.92245628124510E+0000
 20
 4.77362363300927E+0000
 11
 6.88441477893502E+0000
 21
 4.73558213069919E+0000
  0
LINE
  8
1
  6
CONTINUOUS
 62
     0
 10
 6.90481280339736E+0000
 20
 4.77663435933937E+0000
 11
 6.85831763390888E+0000
 21
 4.73013918985816E+0000
  0
LINE
  8
1
  6
CONTINUOUS
 62
     0
 10
 6.88716932554235E+0000
 20
 4.77964508566947E+0000
 11
 6.84256260494294E+0000
 21
 4.73503836507734E+0000
  0
LINE
  8
1
  6
CONTINUOUS
 62
     0
 10
 6.86952584768733E+0000
 20
 4.78265581200685E+0000
 11
 6.84256260494294E+0000
 21
 4.75569256926246E+0000
  0
LINE
  8
1
  6
CONTINUOUS
 62
     0
 10
 6.85188236984686E+0000
 20
 4.78566653834423E+0000
 11
 6.84256260495749E+0000
 21
 4.77634677345486E+0000
  0
TEXT
  8
1
 62
     0
 10
 7.12521038633713E+0000
 20
 4.75903173234110E+0000
 40
 1.18110236219991E-0001
  1
12
  7
STANDARD
 11
 7.12521038633713E+0000
 21
 4.87714196855813E+0000
 50
 0.00000000000000E+0000
 41
 3.08371993680339E-0001
  0
LINE
  8
1
  6
CONTINUOUS
 62
     0
 10
 7.48832496701652E+0000
 20
 4.41385503778292E+0000
 11
 7.61376454943093E+0000
 21
 4.07631741679506E+0000
  0
LINE
  8
1
  6
CONTINUOUS
 62
     0
 10
 7.61376454943093E+0000
 20
 4.07631741679506E+0000
 11
 8.60407704219688E+0000
 21
 4.07631741679506E+0000
  0
TEXT
  8
1
 62
     0
 10
 7.64017288257310E+0000
 20
 4.07071972090489E+0000
 40
 1.18110236219991E-0001
  1
3mm Entlüftungsbohrung
  7
STANDARD
 11
 7.64017288257310E+0000
 21
 4.18882995712192E+0000
 50
 0.00000000000000E+0000
 41
 2.83842403273866E-0001
  0
TEXT
  8
1
 62
     0
 10
 9.10917861142661E+0000
 20
 3.94276749349046E-0001
 40
 1.18110236219991E-0001
  1
(c)
  7
STANDARD
 11
 9.10917861142661E+0000
 21
 5.12386985568810E-0001
 50
 0.00000000000000E+0000
 41
 2.05581329120378E-0001
0
ENDSEC
0
EOF
