0
SECTION
  2
HEADER
  9
$LTSCALE
 40
     10
  9
$LIMMIN
 10
     0.0
 20
     0.0
  9
$LIMMAX
 10
      11.5
 20
       8.0
  9
$EXTMIN
 10
     0.0
 20
     0.0
  9
$EXTMAX
 10
      11.5
 20
       8.0
   9
$CLAYER
   8
1
   9
$CECOLOR
  62
     7
   9
$CELTYPE
   6
CONTINUOUS
  0
ENDSEC
  0
SECTION
  2
TABLES
  0
TABLE
  2
LTYPE
 70
    10
  0
LTYPE
  2
CONTINUOUS
 70
    64
  3
Solid line
 72
    65
 73
     0
 40
0.0
  0
LTYPE
  2
DASHED
 70
     0
  3
__ __ __ __ __ __ __ __ __ __ __ __ __ __ __
 72
    65
 73
     2
 40
0.75
 49
0.5
 49
-0.25
  0
LTYPE
  2
HIDDEN
 70
     0
  3
_ _ _ _ _ _ _ _ _ _ _ _ _ _ _ _ _ _ _ _ _ _
 72
    65
 73
     2
 40
0.375
 49
0.25
 49
-0.125
  0
LTYPE
  2
CENTER
 70
     0
  3
____ _ ____ _ ____ _ ____ _ ____ _ ____ _ __
 72
    65
 73
     4
 40
2.0
 49
1.25
 49
-0.25
 49
0.25
 49
-0.25
  0
LTYPE
  2
PHANTOM
 70
     0
  3
_____ _ _ _____ _ _ _____ _ _ _____ _ _ ____
 72
    65
 73
     6
 40
2.5
 49
1.25
 49
-0.25
 49
0.25
 49
-0.25
 49
0.25
 49
-0.25
  0
LTYPE
  2
DOT
 70
     0
  3
............................................
 72
    65
 73
     2
 40
0.25
 49
0.0
 49
-0.25
  0
LTYPE
  2
DASHDOT
 70
     0
  3
__ . __ . __ . __ . __ . __ . __ . __ . __ .
 72
    65
 73
     4
 40
1.0
 49
0.5
 49
-0.25
 49
0.0
 49
-0.25
  0
LTYPE
  2
BORDER
 70
     0
  3
__ __ . __ __ . __ __ . __ __ . __ __ . __ _
 72
    65
 73
     6
 40
1.75
 49
0.5
 49
-0.25
 49
0.5
 49
-0.25
 49
0.0
 49
-0.25
  0
LTYPE
  2
DIVIDE
 70
     0
  3
__ . . __ . . __ . . __ . . __ . . __ . . __
 72
    65
 73
     6
 40
1.25
 49
0.5
 49
-0.25
 49
0.0
 49
-0.25
 49
0.0
 49
-0.25
  0
LTYPE
  2
DIVIDE2
 70
     0
  3
close
 72
    65
 73
     2
 40
0.1
 49
0.05
 49
-0.05
  0
ENDTAB
0
TABLE
  2
LAYER
 70
   256
  0
LAYER
  2
1
 70
     0
  6
CONTINUOUS
 62
1
  0
ENDTAB
  0
TABLE
  2
STYLE
 70
     8
  0
STYLE
  2
TXT
 70
0
 40
0.0
 41
1.0
 50
0.0
 71
0
 42
1.0
  3
TXT
  4

  0
STYLE
  2
COMPLEX
 70
0
 40
0.0
 41
1.0
 50
0.0
 71
0
 42
1.0
  3
COMPLEX
  4

  0
STYLE
  2
ITALIC
 70
0
 40
0.0
 41
1.0
 50
0.0
 71
0
 42
1.0
  3
ITALIC
  4

  0
STYLE
  2
SIMPLEX
70
0
 40
0.0
 41
1.0
 50
0.0
 71
0
 42
1.0
  3
SIMPLEX
  4

  0
STYLE
  2
MONOTXT
 70
0
 40
0.0
 41
1.0
 50
0.0
 71
0
 42
1.0
  3
MONOTXT
  4

  0
STYLE
  2
SCRIPTC
 70
0
 40
0.0
 41
1.0
 50
0.0
 71
0
 42
1.0
  3
SCRIPTC
  4

  0
STYLE
  2
GOTHICE
 70
0
 40
0.0
 41
1.0
 50
0.0
 71
0
 42
1.0
  3
GOTHICE
  4

  0
ENDTAB
  0
TABLE
  2
VIEW
 70
     0
  0
ENDTAB
  0
ENDSEC
  0
SECTION
  2
ENTITIES
  0
LINE
  8
1
  6
CONTINUOUS
 62
     1
 10
 1.10824245900876E+0001
 20
 3.66054472739052E-0001
 11
 8.90078496305796E+0000
 21
 3.66054472739052E-0001
  0
LINE
  8
1
  6
CONTINUOUS
 62
     1
 10
 8.90078496305796E+0000
 20
 3.66054472739052E-0001
 11
 8.90078496305796E+0000
 21
 1.55291635594767E+0000
  0
LINE
  8
1
  6
CONTINUOUS
 62
     1
 10
 8.90078496305796E+0000
 20
 1.55291635594767E+0000
 11
 1.10824245900876E+0001
 21
 1.55291635594767E+0000
  0
LINE
  8
1
  6
CONTINUOUS
 62
     1
 10
 1.10824245900876E+0001
 20
 1.55291635594767E+0000
 11
 1.10824245900876E+0001
 21
 3.66054472739052E-0001
  0
LINE
  8
1
  6
CONTINUOUS
 62
     1
 10
 8.90010336294654E+0000
 20
 1.23953147667635E+0000
 11
 1.10833476808330E+0001
 21
 1.23953147667635E+0000
  0
LINE
  8
1
  6
CONTINUOUS
 62
     1
 10
 8.90774062665878E+0000
 20
 5.23861750931246E-0001
 11
 1.10909849445452E+0001
 21
 5.23861750931246E-0001
  0
TEXT
  8
1
 62
     1
 10
 8.94823287868348E+0000
 20
 1.35143637997317E+0000
 40
 1.18110236219991E-0001
  1
Benennung
  7
STANDARD
 11
 8.94823287868348E+0000
 21
 1.46954661619384E+0000
 50
 0.00000000000000E+0000
 41
 3.16937882393631E-0001
  0
LINE
  8
1
  6
CONTINUOUS
 62
     1
 10
 9.57264299190138E+0000
 20
 1.55147486233909E+0000
 11
 9.57264299190138E+0000
 21
 1.23953147667635E+0000
  0
LINE
  8
1
  6
CONTINUOUS
 62
     1
 10
 8.90010336294654E+0000
 20
 1.07349709398113E+0000
 11
 1.10833476808330E+0001
 21
 1.07349709398113E+0000
  0
LINE
  8
1
  6
CONTINUOUS
 62
     1
 10
 8.90010336294654E+0000
 20
 9.07462711285916E-0001
 11
 1.10833476808330E+0001
 21
 9.07462711285916E-0001
  0
TEXT
  8
1
 62
     1
 10
 8.95298969198484E+0000
 20
 1.08890528919073E+0000
 40
 1.18110236219991E-0001
  1
Werkstoff
  7
STANDARD
 11
 8.95298969198484E+0000
 21
 1.20701552541141E+0000
 50
 0.00000000000000E+0000
 41
 2.56976661400131E-0001
  0
LINE
  8
1
  6
CONTINUOUS
 62
     1
 10
 9.57264299190138E+0000
 20
 1.23953147667635E+0000
 11
 9.57264299190138E+0000
 21
 1.07349709398113E+0000
  0
LINE
  8
1
  6
CONTINUOUS
 62
     1
 10
 1.05011491960613E+0001
 20
 1.23953147667635E+0000
 11
 1.05011491960613E+0001
 21
 1.07349709398113E+0000
  0
TEXT
  8
1
 62
     1
 10
 1.05670323736267E+0001
 20
 1.08890528919073E+0000
 40
 1.18110236219991E-0001
  1
M 1:1
  7
STANDARD
 11
 1.05670323736267E+0001
 21
 1.20701552541141E+0000
 50
 0.00000000000000E+0000
 41
 2.62116194628561E-0001
  0
LINE
  8
1
  6
CONTINUOUS
 62
     1
 10
 8.90078496305796E+0000
 20
 1.55291635594767E+0000
 11
 1.10883666332957E+0001
 21
 1.55291635594767E+0000
  0
LINE
  8
1
  6
CONTINUOUS
 62
     1
 10
 8.90078496305796E+0000
 20
 1.55291635594767E+0000
 11
 1.10824245900876E+0001
 21
 1.55291635594767E+0000
  0
LINE
  8
1
  6
CONTINUOUS
 62
     1
 10
 1.10824245900876E+0001
 20
 1.55291635594767E+0000
 11
 1.10824245900876E+0001
 21
 3.66054472739052E-0001
  0
LINE
  8
1
  6
CONTINUOUS
 62
     1
 10
 1.10824245900876E+0001
 20
 3.66054472739052E-0001
 11
 8.90078496305796E+0000
 21
 3.66054472739052E-0001
  0
LINE
  8
1
  6
CONTINUOUS
 62
     1
 10
 8.90078496305796E+0000
 20
 3.66054472739052E-0001
 11
 8.90078496305796E+0000
 21
 1.55291635594767E+0000
  0
TEXT
  8
1
 62
     1
 10
 8.94643199958955E+0000
 20
 9.29817355409796E-0001
 40
 1.18110236219991E-0001
  1
Bearb.
  7
STANDARD
 11
 8.94643199958955E+0000
 21
 1.04792759162956E+0000
 50
 0.00000000000000E+0000
 41
 2.69825494470297E-0001
  0
LINE
  8
1
  6
CONTINUOUS
 62
     1
 10
 9.57372805119667E+0000
 20
 1.07462383869279E+0000
 11
 9.57372805119667E+0000
 21
 9.08513856978971E-0001
  0
LINE
  8
1
  6
CONTINUOUS
 62
     1
 10
 8.90204784499656E+0000
 20
 7.36471375930705E-0001
 11
 1.10827893074456E+0001
 21
 7.36471375930705E-0001
  0
LINE
  8
1
  6
CONTINUOUS
 62
     1
 10
 9.57372805119667E+0000
 20
 9.08513856978971E-0001
 11
 9.57372805119667E+0000
 21
 7.36471375930705E-0001
  0
TEXT
  8
1
 62
     1
 10
 8.94643199958955E+0000
 20
 7.54808624687030E-0001
 40
 1.18110236219991E-0001
  1
Datum
  7
STANDARD
 11
 8.94643199958955E+0000
 21
 8.72918860906793E-0001
 50
 0.00000000000000E+0000
 41
 3.23790593364265E-0001
  0
LINE
  8
1
  6
CONTINUOUS
 62
     1
 10
 1.04998774104170E+0001
 20
 5.19935149772209E-0001
 11
 1.04998774104170E+0001
 21
 3.68656416430895E-0001
  0
TEXT
  8
1
 62
     1
 10
 9.62994798035652E+0000
 20
 9.20918606393570E-0001
 40
 1.18110236219991E-0001
  1
D.Freind
  7
STANDARD
 11
 9.62994798035652E+0000
 21
 1.03902884261333E+0000
 50
 0.00000000000000E+0000
 41
 2.60188869667672E-0001
  0
TEXT
  8
1
 62
     1
 10
 1.05235489595507E+0001
 20
 3.84027415512719E-0001
 40
 1.18110236219991E-0001
  1
Blatt
  7
STANDARD
 11
 1.05235489595507E+0001
 21
 5.02137651732482E-0001
 50
 0.00000000000000E+0000
 41
 2.31278995260254E-0001
  0
TEXT
  8
1
 62
     1
 10
 9.04969655426976E+0000
 20
 5.46297824291287E-0001
 40
 1.18110236219991E-0001
  1
für Revolver 8-fach 
  7
STANDARD
 11
 9.04969655426976E+0000
 21
 6.64408060511050E-0001
 50
 0.00000000000000E+0000
 41
 2.35133645181349E-0001
  0
TEXT
  8
1
 62
     1
 10
 9.28114032532903E+0000
 20
 3.96379906880611E-0001
 40
 1.18110236219991E-0001
  1
www.cnc-projects.de.vu
  7
STANDARD
 11
 9.28114032532903E+0000
 21
 5.14490143100375E-0001
 50
 0.00000000000000E+0000
 41
 2.66321267269177E-0001
  0
TEXT
  8
1
 62
     1
 10
 9.63489183850470E+0000
 20
 1.09496967037012E+0000
 40
 1.18110236219991E-0001
  1
42CrMo4
  7
STANDARD
 11
 9.63489183850470E+0000
 21
 1.21307990659079E+0000
 50
 0.00000000000000E+0000
 41
 3.08371993680339E-0001
  0
TEXT
  8
1
 62
     1
 10
 9.62901525886264E+0000
 20
 7.56232012588043E-0001
 40
 1.18110236219991E-0001
  1
28.12.2003
  7
STANDARD
 11
 9.62901525886264E+0000
 21
 8.74342248807807E-0001
 50
 0.00000000000000E+0000
 41
 2.77534794312487E-0001
  0
TEXT
  8
1
 62
     1
 10
 1.07925780251098E+0001
 20
 3.88038906302427E-0001
 40
 1.18110236219991E-0001
  1
1
  7
STANDARD
 11
 1.07925780251098E+0001
 21
 5.06149142522190E-0001
 50
 0.00000000000000E+0000
 41
 3.08371993680339E-0001
  0
TEXT
  8
1
 62
     1
 10
 9.84351041527407E+0000
 20
 1.27838300456642E+0000
 40
 1.96850393699833E-0001
  1
Druckstück
  7
STANDARD
 11
 9.84351041527407E+0000
 21
 1.47523339826694E+0000
 50
 0.00000000000000E+0000
 41
 1.61895296682360E-0001
  0
LINE
  8
1
  6
CONTINUOUS
 62
     1
 10
 6.26270150015625E+0000
 20
 4.05746250277298E+0000
 11
 6.26270150015625E+0000
 21
 4.05746250277298E+0000
  0
LINE
  8
1
  6
CONTINUOUS
 62
     1
 10
 6.26270150015625E+0000
 20
 4.05746250277298E+0000
 11
 6.31871745876560E+0000
 21
 4.00130823314248E+0000
  0
LINE
  8
1
  6
CONTINUOUS
 62
     1
 10
 6.26270150015625E+0000
 20
 4.53477379458491E+0000
 11
 6.32105145704554E+0000
 21
 4.59326782543940E+0000
  0
LINE
  8
1
  6
CONTINUOUS
 62
     1
 10
 6.83789546028129E+0000
 20
 4.59380579373828E+0000
 11
 7.23190184644045E+0000
 21
 4.59380579373828E+0000
  0
LINE
  8
1
  6
CONTINUOUS
 62
     1
 10
 7.23190184644045E+0000
 20
 4.59380579373828E+0000
 11
 7.23190184644045E+0000
 21
 5.07015257835155E+0000
  0
LINE
  8
1
  6
CONTINUOUS
 62
     1
 10
 7.23190184644045E+0000
 20
 5.07015257835155E+0000
 11
 7.34653505380993E+0000
 21
 5.07015257835155E+0000
  0
LINE
  8
1
  6
CONTINUOUS
 62
     1
 10
 7.34653505380993E+0000
 20
 5.07015257835155E+0000
 11
 7.34653505380993E+0000
 21
 4.59133486033534E+0000
  0
LINE
  8
1
  6
CONTINUOUS
 62
     1
 10
 6.83789546028129E+0000
 20
 4.00176204334275E+0000
 11
 7.22234907915845E+0000
 21
 4.00176204334275E+0000
  0
LINE
  8
1
  6
CONTINUOUS
 62
     1
 10
 7.22234907915845E+0000
 20
 4.00176204334275E+0000
 11
 7.22234907915845E+0000
 21
 3.52835952633905E+0000
  0
LINE
  8
1
  6
CONTINUOUS
 62
     1
 10
 7.22234907915845E+0000
 20
 3.52835952633905E+0000
 11
 7.34653505380993E+0000
 21
 3.52835952633905E+0000
  0
LINE
  8
1
  6
CONTINUOUS
 62
     1
 10
 7.34653505380993E+0000
 20
 3.52835952633905E+0000
 11
 7.34653505380993E+0000
 21
 3.99760088999756E+0000
  0
LINE
  8
1
  6
CONTINUOUS
 62
     1
 10
 7.34653505380993E+0000
 20
 4.59133486033534E+0000
 11
 7.34653505380993E+0000
 21
 4.45750761206000E+0000
  0
LINE
  8
1
  6
CONTINUOUS
 62
     1
 10
 7.34653505380993E+0000
 20
 4.45750761206000E+0000
 11
 7.73712164721655E+0000
 21
 4.45750761206000E+0000
  0
LINE
  8
1
  6
CONTINUOUS
 62
     1
 10
 7.34653505380993E+0000
 20
 3.99760088999756E+0000
 11
 7.34653505380993E+0000
 21
 4.14793038436619E+0000
  0
LINE
  8
1
  6
CONTINUOUS
 62
     1
 10
 7.34653505380993E+0000
 20
 4.14793038436619E+0000
 11
 7.72501126596035E+0000
 21
 4.14793038436619E+0000
  0
LINE
  8
1
  6
CONTINUOUS
 62
     1
 10
 7.93088774743228E+0000
 20
 4.45750761206000E+0000
 11
 7.97333454887121E+0000
 21
 4.41427305121033E+0000
  0
LINE
  8
1
  6
CONTINUOUS
 62
     1
 10
 7.93088774743228E+0000
 20
 4.14793038436619E+0000
 11
 7.97160370912025E+0000
 21
 4.18870830527158E+0000
  0
LINE
  8
1
  6
CONTINUOUS
 62
     1
 10
 7.97160370912025E+0000
 20
 4.18870830527158E+0000
 11
 7.97160370912025E+0000
 21
 4.41427305121033E+0000
  0
LINE
  8
1
  6
DOT
 62
     1
 10
 7.97160370912025E+0000
 20
 4.41427305121033E+0000
 11
 7.34701730519737E+0000
 21
 4.41427305121033E+0000
  0
LINE
  8
1
  6
DOT
 62
     1
 10
 7.34701730519737E+0000
 20
 4.41427305121033E+0000
 11
 7.34701730519737E+0000
 21
 4.45647278927936E+0000
  0
LINE
  8
1
  6
DOT
 62
     1
 10
 7.97160370912025E+0000
 20
 4.18870830527158E+0000
 11
 7.34701730519737E+0000
 21
 4.18870830527158E+0000
  0
LINE
  8
1
  6
DOT
 62
     1
 10
 7.34701730519737E+0000
 20
 4.18870830527158E+0000
 11
 7.34701730519737E+0000
 21
 4.14678527352226E+0000
  0
LINE
  8
1
  6
CONTINUOUS
 62
     1
 10
 6.83789546028129E+0000
 20
 4.00176204334275E+0000
 11
 6.31775126083812E+0000
 21
 4.00176204334275E+0000
  0
LINE
  8
1
  6
CONTINUOUS
 62
     1
 10
 6.83789546028129E+0000
 20
 4.59380579373828E+0000
 11
 6.31775126083812E+0000
 21
 4.59380579373828E+0000
  0
LINE
  8
1
  6
CONTINUOUS
 62
     1
 10
 7.72501126596035E+0000
 20
 4.14793038436619E+0000
 11
 7.92910408625175E+0000
 21
 4.14793038436619E+0000
  0
LINE
  8
1
  6
CONTINUOUS
 62
     1
 10
 7.73712164721655E+0000
 20
 4.45750761206000E+0000
 11
 7.92527664485533E+0000
 21
 4.45750761206000E+0000
  0
LINE
  8
1
  6
CONTINUOUS
 62
     1
 10
 6.26416708137549E+0000
 20
 4.17481017091632E+0000
 11
 6.40195497142849E+0000
 21
 4.17481017091632E+0000
  0
LINE
  8
1
  6
CONTINUOUS
 62
     1
 10
 6.40195497142849E+0000
 20
 4.17481017091632E+0000
 11
 6.40195497142849E+0000
 21
 4.42679910778679E+0000
  0
LINE
  8
1
  6
CONTINUOUS
 62
     1
 10
 6.40195497142849E+0000
 20
 4.42679910778679E+0000
 11
 6.26416708137549E+0000
 21
 4.42679910778679E+0000
  0
LINE
  8
1
  6
CONTINUOUS
 62
     1
 10
 6.26270150015625E+0000
 20
 4.05746250277298E+0000
 11
 6.26270150015625E+0000
 21
 4.17497223427199E+0000
  0
LINE
  8
1
  6
CONTINUOUS
 62
     1
 10
 6.26270150015625E+0000
 20
 4.53477379458491E+0000
 11
 6.26270150015625E+0000
 21
 4.42722464048711E+0000
  0
LINE
  8
1
  6
CONTINUOUS
 62
     1
 10
 7.97165380269143E+0000
 20
 4.19523654970544E+0000
 11
 7.92434763735946E+0000
 21
 4.14793038436619E+0000
  0
LINE
  8
1
  6
CONTINUOUS
 62
     1
 10
 7.34653505380993E+0000
 20
 3.57011780081666E+0000
 11
 7.30477677933231E+0000
 21
 3.52835952633905E+0000
  0
LINE
  8
1
  6
CONTINUOUS
 62
     1
 10
 7.97229961086123E+0000
 20
 4.27939890682319E+0000
 11
 7.84083108839695E+0000
 21
 4.14793038436619E+0000
  0
LINE
  8
1
  6
CONTINUOUS
 62
     1
 10
 7.34653505380993E+0000
 20
 3.65363434977553E+0000
 11
 7.22234907916572E+0000
 21
 3.52944837512769E+0000
  0
LINE
  8
1
  6
CONTINUOUS
 62
     1
 10
 7.97294541901647E+0000
 20
 4.36356126393366E+0000
 11
 7.75731453944172E+0000
 21
 4.14793038436619E+0000
  0
LINE
  8
1
  6
CONTINUOUS
 62
     1
 10
 7.34653505380993E+0000
 20
 3.73715089873076E+0000
 11
 7.22234907916572E+0000
 21
 3.61296492408292E+0000
  0
LINE
  8
1
  6
CONTINUOUS
 62
     1
 10
 7.95689019637939E+0000
 20
 4.43102259025909E+0000
 11
 7.67379799048649E+0000
 21
 4.14793038436619E+0000
  0
LINE
  8
1
  6
CONTINUOUS
 62
     1
 10
 7.34653505380993E+0000
 20
 3.82066744768599E+0000
 11
 7.22234907916572E+0000
 21
 3.69648147304179E+0000
  0
LINE
  8
1
  6
CONTINUOUS
 62
     1
 10
 7.89985866923234E+0000
 20
 4.45750761206727E+0000
 11
 7.59028144153126E+0000
 21
 4.14793038436619E+0000
  0
LINE
  8
1
  6
CONTINUOUS
 62
     1
 10
 7.34653505380993E+0000
 20
 3.90418399664486E+0000
 11
 7.22234907916572E+0000
 21
 3.77999802199702E+0000
  0
LINE
  8
1
  6
CONTINUOUS
 62
     1
 10
 7.81634212027711E+0000
 20
 4.45750761206727E+0000
 11
 7.50676489257603E+0000
 21
 4.14793038436619E+0000
  0
LINE
  8
1
  6
CONTINUOUS
 62
     1
 10
 7.34653505380993E+0000
 20
 3.98770054560009E+0000
 11
 7.22234907916572E+0000
 21
 3.86351457095225E+0000
  0
LINE
  8
1
  6
CONTINUOUS
 62
     1
 10
 7.73282557132188E+0000
 20
 4.45750761206727E+0000
 11
 7.42324834361352E+0000
 21
 4.14793038436619E+0000
  0
LINE
  8
1
  6
CONTINUOUS
 62
     1
 10
 7.34653505380993E+0000
 20
 4.07121709455532E+0000
 11
 7.22234907916572E+0000
 21
 3.94703111991112E+0000
  0
LINE
  8
1
  6
CONTINUOUS
 62
     1
 10
 7.64930902235938E+0000
 20
 4.45750761206727E+0000
 11
 7.19354899003520E+0000
 21
 4.00174757974310E+0000
  0
LINE
  8
1
  6
CONTINUOUS
 62
     1
 10
 7.56579247340414E+0000
 20
 4.45750761206727E+0000
 11
 7.10999047739460E+0000
 21
 4.00170561605773E+0000
  0
LINE
  8
1
  6
CONTINUOUS
 62
     1
 10
 7.48227592444891E+0000
 20
 4.45750761206727E+0000
 11
 7.02643196476856E+0000
 21
 4.00166365238692E+0000
  0
LINE
  8
1
  6
CONTINUOUS
 62
     1
 10
 7.39875937549368E+0000
 20
 4.45750761206727E+0000
 11
 6.94287345213525E+0000
 21
 4.00162168870884E+0000
  0
LINE
  8
1
  6
CONTINUOUS
 62
     1
 10
 7.34653505380993E+0000
 20
 4.48879983933875E+0000
 11
 6.85931493949465E+0000
 21
 4.00157972503075E+0000
  0
LINE
  8
1
  6
CONTINUOUS
 62
     1
 10
 7.34653505381721E+0000
 20
 4.57231638830854E+0000
 11
 6.77575642686134E+0000
 21
 4.00153776135267E+0000
  0
LINE
  8
1
  6
CONTINUOUS
 62
     1
 10
 7.34653505381721E+0000
 20
 4.65583293726377E+0000
 11
 6.69219791422802E+0000
 21
 4.00149579767458E+0000
  0
LINE
  8
1
  6
CONTINUOUS
 62
     1
 10
 7.34653505381721E+0000
 20
 4.73934948622627E+0000
 11
 7.23190184644773E+0000
 21
 4.62471627885679E+0000
  0
LINE
  8
1
  6
CONTINUOUS
 62
     1
 10
 7.20097309412813E+0000
 20
 4.59378752653720E+0000
 11
 6.60863940159470E+0000
 21
 4.00145383400377E+0000
  0
LINE
  8
1
  6
CONTINUOUS
 62
     1
 10
 7.34653505381721E+0000
 20
 4.82286603518151E+0000
 11
 7.23190184644773E+0000
 21
 4.70823282781203E+0000
  0
LINE
  8
1
  6
CONTINUOUS
 62
     1
 10
 7.11740718931105E+0000
 20
 4.59373817067535E+0000
 11
 6.52508088895411E+0000
 21
 4.00141187031841E+0000
  0
LINE
  8
1
  6
CONTINUOUS
 62
     1
 10
 7.34653505380993E+0000
 20
 4.90638258413674E+0000
 11
 7.23190184644773E+0000
 21
 4.79174937677453E+0000
  0
LINE
  8
1
  6
CONTINUOUS
 62
     1
 10
 7.03384128448670E+0000
 20
 4.59368881481350E+0000
 11
 6.44152237631351E+0000
 21
 4.00136990664032E+0000
  0
LINE
  8
1
  6
CONTINUOUS
 62
     1
 10
 7.34653505380993E+0000
 20
 4.98989913309924E+0000
 11
 7.23190184644045E+0000
 21
 4.87526592572976E+0000
  0
LINE
  8
1
  6
CONTINUOUS
 62
     1
 10
 6.95027537966962E+0000
 20
 4.59363945895166E+0000
 11
 6.35796386368020E+0000
 21
 4.00132794296951E+0000
  0
LINE
  8
1
  6
CONTINUOUS
 62
     1
 10
 7.34327195011429E+0000
 20
 5.07015257835883E+0000
 11
 7.23190184644045E+0000
 21
 4.95878247468499E+0000
  0
LINE
  8
1
  6
CONTINUOUS
 62
     1
 10
 6.86670947483799E+0000
 20
 4.59359010308253E+0000
 11
 6.29659983754391E+0000
 21
 4.02348046578845E+0000
  0
LINE
  8
1
  6
CONTINUOUS
 62
     1
 10
 7.25975540114450E+0000
 20
 5.07015257835155E+0000
 11
 7.23190184644045E+0000
 21
 5.04229902364750E+0000
  0
LINE
  8
1
  6
CONTINUOUS
 62
     1
 10
 6.78314357001364E+0000
 20
 4.59354074722069E+0000
 11
 6.40195497142849E+0000
 21
 4.21235214863555E+0000
  0
LINE
  8
1
  6
CONTINUOUS
 62
     1
 10
 6.36441299371654E+0000
 20
 4.17481017091632E+0000
 11
 6.26289925361925E+0000
 21
 4.07329643082630E+0000
  0
LINE
  8
1
  6
CONTINUOUS
 62
     1
 10
 6.69957766519656E+0000
 20
 4.59349139135884E+0000
 11
 6.40195497142849E+0000
 21
 4.29586869759078E+0000
  0
LINE
  8
1
  6
CONTINUOUS
 62
     1
 10
 6.28089644475403E+0000
 20
 4.17481017091632E+0000
 11
 6.26395550216694E+0000
 21
 4.15786922832922E+0000
  0
LINE
  8
1
  6
CONTINUOUS
 62
     1
 10
 6.61601176037220E+0000
 20
 4.59344203549699E+0000
 11
 6.40195497142849E+0000
 21
 4.37938524655328E+0000
  0
LINE
  8
1
  6
CONTINUOUS
 62
     1
 10
 6.53244585554785E+0000
 20
 4.59339267962787E+0000
 11
 6.36585228370677E+0000
 21
 4.42679910778679E+0000
  0
LINE
  8
1
  6
CONTINUOUS
 62
     1
 10
 6.44887995072349E+0000
 20
 4.59334332376602E+0000
 11
 6.28233573475154E+0000
 21
 4.42679910778679E+0000
  0
LINE
  8
1
  6
CONTINUOUS
 62
     1
 10
 6.36531404589914E+0000
 20
 4.59329396789690E+0000
 11
 6.26329196794541E+0000
 21
 4.49127188994316E+0000
  0
LINE
  8
1
  6
CONTINUOUS
 62
     1
 10
 6.26270150015625E+0000
 20
 4.17497223427199E+0000
 11
 6.26270150015625E+0000
 21
 4.43588892823027E+0000
  0
LINE
  8
1
  6
DASHDOT
 62
     1
 10
 7.13174571979471E+0000
 20
 4.30080463934428E+0000
 11
 2.80489458075317E+0000
 21
 4.30080463934428E+0000
  0
LINE
  8
1
  6
DASHDOT
 62
     1
 10
 3.87367854043987E+0000
 20
 5.21135375155427E+0000
 11
 3.87367854043987E+0000
 21
 3.42276869500711E+0000
  0
CIRCLE
  8
1
  6
CONTINUOUS
 62
     1
 10
 3.87367854043987E+0000
 20
 4.30410046200268E+0000
 40
 7.69005169240700E-0001
  0
CIRCLE
  8
1
  6
CONTINUOUS
 62
     1
 10
 3.87367854043987E+0000
 20
 4.30410046200268E+0000
 40
 1.55529135350662E-0001
  0
CIRCLE
  8
1
  6
CONTINUOUS
 62
     1
 10
 3.87367854043987E+0000
 20
 4.30410046200268E+0000
 40
 1.12326597751235E-0001
  0
CIRCLE
  8
1
  6
DASHDOT
 62
     1
 10
 3.87367854043987E+0000
 20
 4.30410046200268E+0000
 40
 2.93777255661553E-0001
  0
CIRCLE
  8
1
  6
DASHDOT
 62
     1
 10
 3.87367854043987E+0000
 20
 4.30410046200268E+0000
 40
 2.33293703029631E-0001
  0
CIRCLE
  8
1
  6
DASHDOT
 62
     1
 10
 3.87367854043987E+0000
 20
 4.30410046200268E+0000
 40
 1.20967105271120E-0001
  0
LINE
  8
1
  6
CONTINUOUS
 62
     1
 10
 6.31775126083812E+0000
 20
 4.59380579373828E+0000
 11
 5.56015239581029E+0000
 21
 4.59380579373828E+0000
  0
LINE
  8
1
  6
CONTINUOUS
 62
     1
 10
 5.56015239581029E+0000
 20
 4.59380579373828E+0000
 11
 5.56015239581029E+0000
 21
 4.00059992253227E+0000
  0
LINE
  8
1
  6
CONTINUOUS
 62
     1
 10
 5.56015239581029E+0000
 20
 4.00059992253227E+0000
 11
 6.32231212581974E+0000
 21
 4.00059992253227E+0000
  0
LINE
  8
1
  6
CONTINUOUS
 62
     1
 10
 6.26270150015625E+0000
 20
 4.42722464048711E+0000
 11
 5.91140861920576E+0000
 21
 4.42722464048711E+0000
  0
LINE
  8
1
  6
CONTINUOUS
 62
     1
 10
 5.91140861920576E+0000
 20
 4.42722464048711E+0000
 11
 5.91140861920576E+0000
 21
 4.17333976385999E+0000
  0
LINE
  8
1
  6
CONTINUOUS
 62
     1
 10
 5.91140861920576E+0000
 20
 4.17333976385999E+0000
 11
 6.26266484260123E+0000
 21
 4.17333976385999E+0000
  0
LINE
  8
1
  6
CONTINUOUS
 62
     1
 10
 7.93088774743228E+0000
 20
 4.45750761206000E+0000
 11
 8.29729994793888E+0000
 21
 4.45750761206000E+0000
  0
LINE
  8
1
  6
CONTINUOUS
 62
     1
 10
 8.29729994793888E+0000
 20
 4.45750761206000E+0000
 11
 8.29729994793888E+0000
 21
 4.14676440365292E+0000
  0
LINE
  8
1
  6
CONTINUOUS
 62
     1
 10
 8.29729994793888E+0000
 20
 4.14676440365292E+0000
 11
 7.91953382088832E+0000
 21
 4.14676440365292E+0000
  0
LINE
  8
1
  6
CONTINUOUS
 62
     1
 10
 7.34653505380993E+0000
 20
 5.07015257835155E+0000
 11
 8.61541879177094E+0000
 21
 5.07015257835155E+0000
  0
LINE
  8
1
  6
CONTINUOUS
 62
     1
 10
 8.61541879177094E+0000
 20
 5.07015257835155E+0000
 11
 8.61541879177094E+0000
 21
 3.52888727889513E+0000
  0
LINE
  8
1
  6
CONTINUOUS
 62
     1
 10
 8.61541879177094E+0000
 20
 3.52888727889513E+0000
 11
 7.34957089235104E+0000
 21
 3.52888727889513E+0000
  0
LINE
  8
1
  6
CONTINUOUS
 62
     1
 10
 6.40195497142849E+0000
 20
 4.17481017091632E+0000
 11
 6.40195497142849E+0000
 21
 3.72155864037995E+0000
  0
LINE
  8
1
  6
CONTINUOUS
 62
     1
 10
 6.40195497142849E+0000
 20
 3.72155864037995E+0000
 11
 6.26266484260123E+0000
 21
 3.72155864037995E+0000
  0
LINE
  8
1
  6
CONTINUOUS
 62
     1
 10
 6.26266484260123E+0000
 20
 3.72155864037995E+0000
 11
 6.26266484260123E+0000
 21
 4.08032600314618E+0000
  0
LINE
  8
1
  6
CONTINUOUS
 62
     1
 10
 6.26266484260123E+0000
 20
 3.72155864037995E+0000
 11
 6.26266484260123E+0000
 21
 3.39601047787073E+0000
  0
LINE
  8
1
  6
CONTINUOUS
 62
     1
 10
 6.26266484260123E+0000
 20
 3.39601047787073E+0000
 11
 7.22364884999843E+0000
 21
 3.39601047787073E+0000
  0
LINE
  8
1
  6
CONTINUOUS
 62
     1
 10
 7.22364884999843E+0000
 20
 3.39601047787073E+0000
 11
 7.22364884999843E+0000
 21
 3.53553111894507E+0000
  0
LINE
  8
1
  6
CONTINUOUS
 62
     1
 10
 7.34957089235104E+0000
 20
 3.52888727889513E+0000
 11
 7.34957089235104E+0000
 21
 3.15018839597906E+0000
  0
LINE
  8
1
  6
CONTINUOUS
 62
     1
 10
 7.34957089235104E+0000
 20
 3.15018839597906E+0000
 11
 6.26266484260123E+0000
 21
 3.15018839597906E+0000
  0
LINE
  8
1
  6
CONTINUOUS
 62
     1
 10
 6.26266484260123E+0000
 20
 3.15018839597906E+0000
 11
 6.26266484260123E+0000
 21
 3.40265431792432E+0000
  0
LINE
  8
1
  6
CONTINUOUS
 62
     1
 10
 7.97160370912025E+0000
 20
 4.18870830527158E+0000
 11
 7.97160370912025E+0000
 21
 3.15018839597906E+0000
  0
LINE
  8
1
  6
CONTINUOUS
 62
     1
 10
 7.97160370912025E+0000
 20
 3.15018839597906E+0000
 11
 7.34294341643545E+0000
 21
 3.15018839597906E+0000
  0
LINE
  8
1
  6
CONTINUOUS
 62
     1
 10
 8.61356569340569E+0000
 20
 5.07382619461714E+0000
 11
 8.61356569340569E+0000
 21
 5.07382619461714E+0000
  0
LINE
  8
1
  6
CONTINUOUS
 62
     1
 10
 8.61356569340569E+0000
 20
 5.07382619461714E+0000
 11
 8.58638417204202E+0000
 21
 4.91453686798923E+0000
  0
LINE
  8
1
  6
CONTINUOUS
 62
     1
 10
 8.58638417204202E+0000
 20
 4.91453686798923E+0000
 11
 8.64678780951363E+0000
 21
 4.91453686798923E+0000
  0
LINE
  8
1
  6
CONTINUOUS
 62
     1
 10
 8.64678780951363E+0000
 20
 4.91453686798923E+0000
 11
 8.61356569340569E+0000
 21
 5.07382619461714E+0000
  0
LINE
  8
1
  6
CONTINUOUS
 62
     1
 10
 8.58638417204202E+0000
 20
 4.91453686798923E+0000
 11
 8.64678780951363E+0000
 21
 4.91453686798923E+0000
  0
LINE
  8
1
  6
CONTINUOUS
 62
     1
 10
 8.59671127414913E+0000
 20
 4.91453686799650E+0000
 11
 8.58788953522162E+0000
 21
 4.92335860693129E+0000
  0
LINE
  8
1
  6
CONTINUOUS
 62
     1
 10
 8.61736547834880E+0000
 20
 4.91453686798923E+0000
 11
 8.59090026155172E+0000
 21
 4.94100208478631E+0000
  0
LINE
  8
1
  6
CONTINUOUS
 62
     1
 10
 8.63801968253392E+0000
 20
 4.91453686798923E+0000
 11
 8.59391098788183E+0000
 21
 4.95864556263405E+0000
  0
LINE
  8
1
  6
CONTINUOUS
 62
     1
 10
 8.64365550703951E+0000
 20
 4.92955524766876E+0000
 11
 8.59692171421193E+0000
 21
 4.97628904048906E+0000
  0
LINE
  8
1
  6
CONTINUOUS
 62
     1
 10
 8.63821256619121E+0000
 20
 4.95565239270218E+0000
 11
 8.59993244054203E+0000
 21
 4.99393251834408E+0000
  0
LINE
  8
1
  6
CONTINUOUS
 62
     1
 10
 8.63276962534292E+0000
 20
 4.98174953772832E+0000
 11
 8.60294316688669E+0000
 21
 5.01157599619182E+0000
  0
LINE
  8
1
  6
CONTINUOUS
 62
     1
 10
 8.62732668449462E+0000
 20
 5.00784668276901E+0000
 11
 8.60595389321679E+0000
 21
 5.02921947404684E+0000
  0
LINE
  8
1
  6
CONTINUOUS
 62
     1
 10
 8.62188374364632E+0000
 20
 5.03394382779516E+0000
 11
 8.60896461954690E+0000
 21
 5.04686295190186E+0000
  0
LINE
  8
1
  6
CONTINUOUS
 62
     1
 10
 8.61644080279802E+0000
 20
 5.06004097282857E+0000
 11
 8.61197534587700E+0000
 21
 5.06450642975688E+0000
  0
LINE
  8
1
  6
CONTINUOUS
 62
     1
 10
 8.64500563914771E+0000
 20
 4.92308179973043E+0000
 11
 8.63646070740651E+0000
 21
 4.91453686798923E+0000
  0
LINE
  8
1
  6
CONTINUOUS
 62
     1
 10
 8.64144129845954E+0000
 20
 4.94017166322010E+0000
 11
 8.61580650322139E+0000
 21
 4.91453686798923E+0000
  0
LINE
  8
1
  6
CONTINUOUS
 62
     1
 10
 8.63787695777137E+0000
 20
 4.95726152670977E+0000
 11
 8.59515229903627E+0000
 21
 4.91453686798923E+0000
  0
LINE
  8
1
  6
CONTINUOUS
 62
     1
 10
 8.63431261706864E+0000
 20
 4.97435139019944E+0000
 11
 8.58882976304449E+0000
 21
 4.92886853616801E+0000
  0
LINE
  8
1
  6
CONTINUOUS
 62
     1
 10
 8.63074827638047E+0000
 20
 4.99144125369639E+0000
 11
 8.59307941877341E+0000
 21
 4.95377239608933E+0000
  0
LINE
  8
1
  6
CONTINUOUS
 62
     1
 10
 8.62718393567775E+0000
 20
 5.00853111717879E+0000
 11
 8.59732907451689E+0000
 21
 4.97867625601066E+0000
  0
LINE
  8
1
  6
CONTINUOUS
 62
     1
 10
 8.62361959497503E+0000
 20
 5.02562098066846E+0000
 11
 8.60157873024582E+0000
 21
 5.00358011593198E+0000
  0
LINE
  8
1
  6
CONTINUOUS
 62
     1
 10
 8.62005525428685E+0000
 20
 5.04271084415814E+0000
 11
 8.60582838597475E+0000
 21
 5.02848397585331E+0000
  0
LINE
  8
1
  6
CONTINUOUS
 62
     1
 10
 8.61649091359868E+0000
 20
 5.05980070764781E+0000
 11
 8.61007804171823E+0000
 21
 5.05338783577463E+0000
  0
LINE
  8
1
  6
CONTINUOUS
 62
     1
 10
 8.61086441710358E+0000
 20
 3.52377867365794E+0000
 11
 8.61086441710358E+0000
 21
 3.52377867365794E+0000
  0
LINE
  8
1
  6
CONTINUOUS
 62
     1
 10
 8.61086441710358E+0000
 20
 3.52377867365794E+0000
 11
 8.63804593846726E+0000
 21
 3.68306800028586E+0000
  0
LINE
  8
1
  6
CONTINUOUS
 62
     1
 10
 8.63804593846726E+0000
 20
 3.68306800028586E+0000
 11
 8.57764230099565E+0000
 21
 3.68306800028586E+0000
  0
LINE
  8
1
  6
CONTINUOUS
 62
     1
 10
 8.57764230099565E+0000
 20
 3.68306800028586E+0000
 11
 8.61086441710358E+0000
 21
 3.52377867365794E+0000
  0
LINE
  8
1
  6
CONTINUOUS
 62
     1
 10
 8.63804593846726E+0000
 20
 3.68306800028586E+0000
 11
 8.57764230099565E+0000
 21
 3.68306800028586E+0000
  0
LINE
  8
1
  6
CONTINUOUS
 62
     1
 10
 8.61236978026864E+0000
 20
 3.53260041259637E+0000
 11
 8.60814294668671E+0000
 21
 3.53682724618920E+0000
  0
LINE
  8
1
  6
CONTINUOUS
 62
     1
 10
 8.61538050661329E+0000
 20
 3.55024389044775E+0000
 11
 8.60270000583841E+0000
 21
 3.56292439122262E+0000
  0
LINE
  8
1
  6
CONTINUOUS
 62
     1
 10
 8.61839123294340E+0000
 20
 3.56788736830276E+0000
 11
 8.59725706499012E+0000
 21
 3.58902153625604E+0000
  0
LINE
  8
1
  6
CONTINUOUS
 62
     1
 10
 8.62140195927350E+0000
 20
 3.58553084615414E+0000
 11
 8.59181412414182E+0000
 21
 3.61511868128582E+0000
  0
LINE
  8
1
  6
CONTINUOUS
 62
     1
 10
 8.62441268560360E+0000
 20
 3.60317432400916E+0000
 11
 8.58637118329352E+0000
 21
 3.64121582631924E+0000
  0
LINE
  8
1
  6
CONTINUOUS
 62
     1
 10
 8.62742341193371E+0000
 20
 3.62081780186054E+0000
 11
 8.58092824244522E+0000
 21
 3.66731297135266E+0000
  0
LINE
  8
1
  6
CONTINUOUS
 62
     1
 10
 8.63043413826381E+0000
 20
 3.63846127971556E+0000
 11
 8.58582741770078E+0000
 21
 3.68306800028950E+0000
  0
LINE
  8
1
  6
CONTINUOUS
 62
     1
 10
 8.63344486459391E+0000
 20
 3.65610475756694E+0000
 11
 8.60648162188591E+0000
 21
 3.68306800028950E+0000
  0
LINE
  8
1
  6
CONTINUOUS
 62
     1
 10
 8.63645559093857E+0000
 20
 3.67374823542195E+0000
 11
 8.62713582607103E+0000
 21
 3.68306800028586E+0000
  0
LINE
  8
1
  6
CONTINUOUS
 62
     1
 10
 8.61298924496805E+0000
 20
 3.53623060361861E+0000
 11
 8.60908224675222E+0000
 21
 3.53232360540278E+0000
  0
LINE
  8
1
  6
CONTINUOUS
 62
     1
 10
 8.61723890069698E+0000
 20
 3.56113446353993E+0000
 11
 8.60551790606405E+0000
 21
 3.54941346889609E+0000
  0
LINE
  8
1
  6
CONTINUOUS
 62
     1
 10
 8.62148855644045E+0000
 20
 3.58603832346125E+0000
 11
 8.60195356536133E+0000
 21
 3.56650333238576E+0000
  0
LINE
  8
1
  6
CONTINUOUS
 62
     1
 10
 8.62573821216938E+0000
 20
 3.61094218338258E+0000
 11
 8.59838922467316E+0000
 21
 3.58359319587908E+0000
  0
LINE
  8
1
  6
CONTINUOUS
 62
     1
 10
 8.62998786791286E+0000
 20
 3.63584604330390E+0000
 11
 8.59482488397043E+0000
 21
 3.60068305936147E+0000
  0
LINE
  8
1
  6
CONTINUOUS
 62
     1
 10
 8.63423752364179E+0000
 20
 3.66074990322159E+0000
 11
 8.59126054326771E+0000
 21
 3.61777292285115E+0000
  0
LINE
  8
1
  6
CONTINUOUS
 62
     1
 10
 8.63590141652094E+0000
 20
 3.68306800028586E+0000
 11
 8.58769620257954E+0000
 21
 3.63486278634446E+0000
  0
LINE
  8
1
  6
CONTINUOUS
 62
     1
 10
 8.61524721233582E+0000
 20
 3.68306800028586E+0000
 11
 8.58413186189136E+0000
 21
 3.65195264983413E+0000
  0
LINE
  8
1
  6
CONTINUOUS
 62
     1
 10
 8.59459300815070E+0000
 20
 3.68306800028586E+0000
 11
 8.58056752118864E+0000
 21
 3.66904251332744E+0000
  0
LINE
  8
1
  6
CONTINUOUS
 62
     1
 10
 8.29737929008843E+0000
 20
 4.45533262519893E+0000
 11
 8.29737929008843E+0000
 21
 4.45533262519893E+0000
  0
LINE
  8
1
  6
CONTINUOUS
 62
     1
 10
 8.29737929008843E+0000
 20
 4.45533262519893E+0000
 11
 8.32456081145210E+0000
 21
 4.61462195182685E+0000
  0
LINE
  8
1
  6
CONTINUOUS
 62
     1
 10
 8.32456081145210E+0000
 20
 4.61462195182685E+0000
 11
 8.26415717398049E+0000
 21
 4.61462195182685E+0000
  0
LINE
  8
1
  6
CONTINUOUS
 62
     1
 10
 8.26415717398049E+0000
 20
 4.61462195182685E+0000
 11
 8.29737929008843E+0000
 21
 4.45533262519893E+0000
  0
LINE
  8
1
  6
CONTINUOUS
 62
     1
 10
 8.32456081145210E+0000
 20
 4.61462195182685E+0000
 11
 8.26415717398049E+0000
 21
 4.61462195182685E+0000
  0
LINE
  8
1
  6
CONTINUOUS
 62
     1
 10
 8.29888465326803E+0000
 20
 4.46415436414100E+0000
 11
 8.29465781967156E+0000
 21
 4.46838119773747E+0000
  0
LINE
  8
1
  6
CONTINUOUS
 62
     1
 10
 8.30189537959814E+0000
 20
 4.48179784199601E+0000
 11
 8.28921487882326E+0000
 21
 4.49447834276361E+0000
  0
LINE
  8
1
  6
CONTINUOUS
 62
     1
 10
 8.30490610592824E+0000
 20
 4.49944131984375E+0000
 11
 8.28377193797496E+0000
 21
 4.52057548779703E+0000
  0
LINE
  8
1
  6
CONTINUOUS
 62
     1
 10
 8.30791683225834E+0000
 20
 4.51708479769877E+0000
 11
 8.27832899712666E+0000
 21
 4.54667263283045E+0000
  0
LINE
  8
1
  6
CONTINUOUS
 62
     1
 10
 8.31092755858845E+0000
 20
 4.53472827555379E+0000
 11
 8.27288605627837E+0000
 21
 4.57276977786387E+0000
  0
LINE
  8
1
  6
CONTINUOUS
 62
     1
 10
 8.31393828493310E+0000
 20
 4.55237175340153E+0000
 11
 8.26744311543007E+0000
 21
 4.59886692289729E+0000
  0
LINE
  8
1
  6
CONTINUOUS
 62
     1
 10
 8.31694901126320E+0000
 20
 4.57001523125655E+0000
 11
 8.27234229068563E+0000
 21
 4.61462195183412E+0000
  0
LINE
  8
1
  6
CONTINUOUS
 62
     1
 10
 8.31995973759331E+0000
 20
 4.58765870911157E+0000
 11
 8.29299649487075E+0000
 21
 4.61462195183412E+0000
  0
LINE
  8
1
  6
CONTINUOUS
 62
     1
 10
 8.32297046392341E+0000
 20
 4.60530218696658E+0000
 11
 8.31365069905587E+0000
 21
 4.61462195182685E+0000
  0
LINE
  8
1
  6
CONTINUOUS
 62
     1
 10
 8.29950411795289E+0000
 20
 4.46778455514868E+0000
 11
 8.29559711973707E+0000
 21
 4.46387755694013E+0000
  0
LINE
  8
1
  6
CONTINUOUS
 62
     1
 10
 8.30375377368182E+0000
 20
 4.49268841507001E+0000
 11
 8.29203277903434E+0000
 21
 4.48096742042981E+0000
  0
LINE
  8
1
  6
CONTINUOUS
 62
     1
 10
 8.30800342941075E+0000
 20
 4.51759227499133E+0000
 11
 8.28846843834617E+0000
 21
 4.49805728391948E+0000
  0
LINE
  8
1
  6
CONTINUOUS
 62
     1
 10
 8.31225308515423E+0000
 20
 4.54249613491265E+0000
 11
 8.28490409764345E+0000
 21
 4.51514714740915E+0000
  0
LINE
  8
1
  6
CONTINUOUS
 62
     1
 10
 8.31650274088315E+0000
 20
 4.56739999483398E+0000
 11
 8.28133975694072E+0000
 21
 4.53223701089155E+0000
  0
LINE
  8
1
  6
CONTINUOUS
 62
     1
 10
 8.32075239662663E+0000
 20
 4.59230385475530E+0000
 11
 8.27777541625255E+0000
 21
 4.54932687438850E+0000
  0
LINE
  8
1
  6
CONTINUOUS
 62
     1
 10
 8.32241628950578E+0000
 20
 4.61462195182685E+0000
 11
 8.27421107556438E+0000
 21
 4.56641673787817E+0000
  0
LINE
  8
1
  6
CONTINUOUS
 62
     1
 10
 8.30176208532066E+0000
 20
 4.61462195181957E+0000
 11
 8.27064673486166E+0000
 21
 4.58350660136784E+0000
  0
LINE
  8
1
  6
CONTINUOUS
 62
     1
 10
 8.28110788113554E+0000
 20
 4.61462195181957E+0000
 11
 8.26708239417349E+0000
 21
 4.60059646485752E+0000
  0
LINE
  8
1
  6
CONTINUOUS
 62
     1
 10
 8.30008056639053E+0000
 20
 4.14788401388068E+0000
 11
 8.30008056639053E+0000
 21
 4.14788401388068E+0000
  0
LINE
  8
1
  6
CONTINUOUS
 62
     1
 10
 8.30008056639053E+0000
 20
 4.14788401388068E+0000
 11
 8.27289904502686E+0000
 21
 3.98859468725277E+0000
  0
LINE
  8
1
  6
CONTINUOUS
 62
     1
 10
 8.27289904502686E+0000
 20
 3.98859468725277E+0000
 11
 8.33330268249847E+0000
 21
 3.98859468725277E+0000
  0
LINE
  8
1
  6
CONTINUOUS
 62
     1
 10
 8.33330268249847E+0000
 20
 3.98859468725277E+0000
 11
 8.30008056639053E+0000
 21
 4.14788401388068E+0000
  0
LINE
  8
1
  6
CONTINUOUS
 62
     1
 10
 8.27289904502686E+0000
 20
 3.98859468725277E+0000
 11
 8.33330268249847E+0000
 21
 3.98859468725277E+0000
  0
LINE
  8
1
  6
CONTINUOUS
 62
     1
 10
 8.28322614713397E+0000
 20
 3.98859468725277E+0000
 11
 8.27440440819191E+0000
 21
 3.99741642618756E+0000
  0
LINE
  8
1
  6
CONTINUOUS
 62
     1
 10
 8.30388035130454E+0000
 20
 3.98859468725641E+0000
 11
 8.27741513452202E+0000
 21
 4.01505990404257E+0000
  0
LINE
  8
1
  6
CONTINUOUS
 62
     1
 10
 8.32453455548966E+0000
 20
 3.98859468726005E+0000
 11
 8.28042586086667E+0000
 21
 4.03270338189031E+0000
  0
LINE
  8
1
  6
CONTINUOUS
 62
     1
 10
 8.33017038002436E+0000
 20
 4.00361306691048E+0000
 11
 8.28343658719677E+0000
 21
 4.05034685974533E+0000
  0
LINE
  8
1
  6
CONTINUOUS
 62
     1
 10
 8.32472743917606E+0000
 20
 4.02971021194389E+0000
 11
 8.28644731352688E+0000
 21
 4.06799033759307E+0000
  0
LINE
  8
1
  6
CONTINUOUS
 62
     1
 10
 8.31928449834231E+0000
 20
 4.05580735697004E+0000
 11
 8.28945803985698E+0000
 21
 4.08563381544809E+0000
  0
LINE
  8
1
  6
CONTINUOUS
 62
     1
 10
 8.31384155749402E+0000
 20
 4.08190450200345E+0000
 11
 8.29246876618708E+0000
 21
 4.10327729330311E+0000
  0
LINE
  8
1
  6
CONTINUOUS
 62
     1
 10
 8.30839861664572E+0000
 20
 4.10800164703687E+0000
 11
 8.29547949253174E+0000
 21
 4.12092077115085E+0000
  0
LINE
  8
1
  6
CONTINUOUS
 62
     1
 10
 8.30295567579742E+0000
 20
 4.13409879207029E+0000
 11
 8.29849021886184E+0000
 21
 4.13856424900587E+0000
  0
LINE
  8
1
  6
CONTINUOUS
 62
     1
 10
 8.33152051214711E+0000
 20
 3.99713961899033E+0000
 11
 8.32297558040591E+0000
 21
 3.98859468725277E+0000
  0
LINE
  8
1
  6
CONTINUOUS
 62
     1
 10
 8.32795617144438E+0000
 20
 4.01422948248364E+0000
 11
 8.30232137622079E+0000
 21
 3.98859468725277E+0000
  0
LINE
  8
1
  6
CONTINUOUS
 62
     1
 10
 8.32439183075621E+0000
 20
 4.03131934597332E+0000
 11
 8.28166717203567E+0000
 21
 3.98859468725277E+0000
  0
LINE
  8
1
  6
CONTINUOUS
 62
     1
 10
 8.32082749005349E+0000
 20
 4.04840920947026E+0000
 11
 8.27534463602933E+0000
 21
 4.00292635543155E+0000
  0
LINE
  8
1
  6
CONTINUOUS
 62
     1
 10
 8.31726314935077E+0000
 20
 4.06549907294539E+0000
 11
 8.27959429175826E+0000
 21
 4.02783021535288E+0000
  0
LINE
  8
1
  6
CONTINUOUS
 62
     1
 10
 8.31369880866259E+0000
 20
 4.08258893644233E+0000
 11
 8.28384394750174E+0000
 21
 4.05273407527420E+0000
  0
LINE
  8
1
  6
CONTINUOUS
 62
     1
 10
 8.31013446797442E+0000
 20
 4.09967879993201E+0000
 11
 8.28809360323066E+0000
 21
 4.07763793519553E+0000
  0
LINE
  8
1
  6
CONTINUOUS
 62
     1
 10
 8.30657012727170E+0000
 20
 4.11676866342168E+0000
 11
 8.29234325897414E+0000
 21
 4.10254179511685E+0000
  0
LINE
  8
1
  6
CONTINUOUS
 62
     1
 10
 8.30300578658353E+0000
 20
 4.13385852691863E+0000
 11
 8.29659291468852E+0000
 21
 4.12744565503090E+0000
  0
LINE
  8
1
  6
CONTINUOUS
 62
     1
 10
 5.90975647285813E+0000
 20
 4.17033109704789E+0000
 11
 5.90975647285813E+0000
 21
 4.17033109704789E+0000
  0
LINE
  8
1
  6
CONTINUOUS
 62
     1
 10
 5.90975647285813E+0000
 20
 4.17033109704789E+0000
 11
 5.88257495149446E+0000
 21
 4.01104177041998E+0000
  0
LINE
  8
1
  6
CONTINUOUS
 62
     1
 10
 5.88257495149446E+0000
 20
 4.01104177041998E+0000
 11
 5.94297858896607E+0000
 21
 4.01104177041998E+0000
  0
LINE
  8
1
  6
CONTINUOUS
 62
     1
 10
 5.94297858896607E+0000
 20
 4.01104177041998E+0000
 11
 5.90975647285813E+0000
 21
 4.17033109704789E+0000
  0
LINE
  8
1
  6
CONTINUOUS
 62
     1
 10
 5.88257495149446E+0000
 20
 4.01104177041998E+0000
 11
 5.94297858896607E+0000
 21
 4.01104177041998E+0000
  0
LINE
  8
1
  6
CONTINUOUS
 62
     1
 10
 5.89290205358702E+0000
 20
 4.01104177041998E+0000
 11
 5.88408031465951E+0000
 21
 4.01986350934749E+0000
  0
LINE
  8
1
  6
CONTINUOUS
 62
     1
 10
 5.91355625777942E+0000
 20
 4.01104177041998E+0000
 11
 5.88709104099689E+0000
 21
 4.03750698720251E+0000
  0
LINE
  8
1
  6
CONTINUOUS
 62
     1
 10
 5.93421046196454E+0000
 20
 4.01104177041998E+0000
 11
 5.89010176732700E+0000
 21
 4.05515046505025E+0000
  0
LINE
  8
1
  6
CONTINUOUS
 62
     1
 10
 5.93984628648468E+0000
 20
 4.02606015007768E+0000
 11
 5.89311249366438E+0000
 21
 4.07279394290526E+0000
  0
LINE
  8
1
  6
CONTINUOUS
 62
     1
 10
 5.93440334564366E+0000
 20
 4.05215729511110E+0000
 11
 5.89612321999448E+0000
 21
 4.09043742076028E+0000
  0
LINE
  8
1
  6
CONTINUOUS
 62
     1
 10
 5.92896040479536E+0000
 20
 4.07825444014452E+0000
 11
 5.89913394632458E+0000
 21
 4.10808089860802E+0000
  0
LINE
  8
1
  6
CONTINUOUS
 62
     1
 10
 5.92351746394706E+0000
 20
 4.10435158517066E+0000
 11
 5.90214467266196E+0000
 21
 4.12572437646304E+0000
  0
LINE
  8
1
  6
CONTINUOUS
 62
     1
 10
 5.91807452310604E+0000
 20
 4.13044873020408E+0000
 11
 5.90515539899206E+0000
 21
 4.14336785431806E+0000
  0
LINE
  8
1
  6
CONTINUOUS
 62
     1
 10
 5.91263158225775E+0000
 20
 4.15654587523750E+0000
 11
 5.90816612532217E+0000
 21
 4.16101133216580E+0000
  0
LINE
  8
1
  6
CONTINUOUS
 62
     1
 10
 5.94119641861471E+0000
 20
 4.01958670216118E+0000
 11
 5.93265148686623E+0000
 21
 4.01104177041270E+0000
  0
LINE
  8
1
  6
CONTINUOUS
 62
     1
 10
 5.93763207791926E+0000
 20
 4.03667656565085E+0000
 11
 5.91199728268111E+0000
 21
 4.01104177041270E+0000
  0
LINE
  8
1
  6
CONTINUOUS
 62
     1
 10
 5.93406773722381E+0000
 20
 4.05376642914052E+0000
 11
 5.89134307849599E+0000
 21
 4.01104177041270E+0000
  0
LINE
  8
1
  6
CONTINUOUS
 62
     1
 10
 5.93050339652837E+0000
 20
 4.07085629263020E+0000
 11
 5.88502054249693E+0000
 21
 4.02537343859876E+0000
  0
LINE
  8
1
  6
CONTINUOUS
 62
     1
 10
 5.92693905583292E+0000
 20
 4.08794615611987E+0000
 11
 5.88927019823313E+0000
 21
 4.05027729852009E+0000
  0
LINE
  8
1
  6
CONTINUOUS
 62
     1
 10
 5.92337471514475E+0000
 20
 4.10503601961682E+0000
 11
 5.89351985396934E+0000
 21
 4.07518115844141E+0000
  0
LINE
  8
1
  6
CONTINUOUS
 62
     1
 10
 5.91981037444202E+0000
 20
 4.12212588309922E+0000
 11
 5.89776950970554E+0000
 21
 4.10008501836273E+0000
  0
LINE
  8
1
  6
CONTINUOUS
 62
     1
 10
 5.91624603374657E+0000
 20
 4.13921574659616E+0000
 11
 5.90201916544174E+0000
 21
 4.12498887828406E+0000
  0
LINE
  8
1
  6
CONTINUOUS
 62
     1
 10
 5.91268169305840E+0000
 20
 4.15630561008584E+0000
 11
 5.90626882117067E+0000
 21
 4.14989273820538E+0000
  0
LINE
  8
1
  6
CONTINUOUS
 62
     1
 10
 5.90705519655603E+0000
 20
 4.42166200043721E+0000
 11
 5.90705519655603E+0000
 21
 4.42166200043721E+0000
  0
LINE
  8
1
  6
CONTINUOUS
 62
     1
 10
 5.90705519655603E+0000
 20
 4.42166200043721E+0000
 11
 5.93423671791970E+0000
 21
 4.58095132706512E+0000
  0
LINE
  8
1
  6
CONTINUOUS
 62
     1
 10
 5.93423671791970E+0000
 20
 4.58095132706512E+0000
 11
 5.87383308044809E+0000
 21
 4.58095132706512E+0000
  0
LINE
  8
1
  6
CONTINUOUS
 62
     1
 10
 5.87383308044809E+0000
 20
 4.58095132706512E+0000
 11
 5.90705519655603E+0000
 21
 4.42166200043721E+0000
  0
LINE
  8
1
  6
CONTINUOUS
 62
     1
 10
 5.93423671791970E+0000
 20
 4.58095132706512E+0000
 11
 5.87383308044809E+0000
 21
 4.58095132706512E+0000
  0
LINE
  8
1
  6
CONTINUOUS
 62
     1
 10
 5.90856055972108E+0000
 20
 4.43048373936472E+0000
 11
 5.90433372613188E+0000
 21
 4.43471057295392E+0000
  0
LINE
  8
1
  6
CONTINUOUS
 62
     1
 10
 5.91157128605846E+0000
 20
 4.44812721721974E+0000
 11
 5.89889078528358E+0000
 21
 4.46080771798734E+0000
  0
LINE
  8
1
  6
CONTINUOUS
 62
     1
 10
 5.91458201238856E+0000
 20
 4.46577069506748E+0000
 11
 5.89344784443529E+0000
 21
 4.48690486302075E+0000
  0
LINE
  8
1
  6
CONTINUOUS
 62
     1
 10
 5.91759273871867E+0000
 20
 4.48341417292249E+0000
 11
 5.88800490359426E+0000
 21
 4.51300200804690E+0000
  0
LINE
  8
1
  6
CONTINUOUS
 62
     1
 10
 5.92060346505605E+0000
 20
 4.50105765077751E+0000
 11
 5.88256196274597E+0000
 21
 4.53909915308031E+0000
  0
LINE
  8
1
  6
CONTINUOUS
 62
     1
 10
 5.92361419138615E+0000
 20
 4.51870112862525E+0000
 11
 5.87711902189767E+0000
 21
 4.56519629811373E+0000
  0
LINE
  8
1
  6
CONTINUOUS
 62
     1
 10
 5.92662491771625E+0000
 20
 4.53634460648027E+0000
 11
 5.88201819713140E+0000
 21
 4.58095132706512E+0000
  0
LINE
  8
1
  6
CONTINUOUS
 62
     1
 10
 5.92963564405363E+0000
 20
 4.55398808432801E+0000
 11
 5.90267240131652E+0000
 21
 4.58095132706512E+0000
  0
LINE
  8
1
  6
CONTINUOUS
 62
     1
 10
 5.93264637038374E+0000
 20
 4.57163156218303E+0000
 11
 5.92332660550164E+0000
 21
 4.58095132706512E+0000
  0
LINE
  8
1
  6
CONTINUOUS
 62
     1
 10
 5.90918002442049E+0000
 20
 4.43411393039423E+0000
 11
 5.90527302620467E+0000
 21
 4.43020693217841E+0000
  0
LINE
  8
1
  6
CONTINUOUS
 62
     1
 10
 5.91342968015670E+0000
 20
 4.45901779031556E+0000
 11
 5.90170868550922E+0000
 21
 4.44729679567536E+0000
  0
LINE
  8
1
  6
CONTINUOUS
 62
     1
 10
 5.91767933589290E+0000
 20
 4.48392165023688E+0000
 11
 5.89814434481377E+0000
 21
 4.46438665915775E+0000
  0
LINE
  8
1
  6
CONTINUOUS
 62
     1
 10
 5.92192899162183E+0000
 20
 4.50882551015093E+0000
 11
 5.89458000411832E+0000
 21
 4.48147652264743E+0000
  0
LINE
  8
1
  6
CONTINUOUS
 62
     1
 10
 5.92617864735803E+0000
 20
 4.53372937007225E+0000
 11
 5.89101566342288E+0000
 21
 4.49856638614438E+0000
  0
LINE
  8
1
  6
CONTINUOUS
 62
     1
 10
 5.93042830309423E+0000
 20
 4.55863322999357E+0000
 11
 5.88745132273471E+0000
 21
 4.51565624963405E+0000
  0
LINE
  8
1
  6
CONTINUOUS
 62
     1
 10
 5.93209219596611E+0000
 20
 4.58095132705785E+0000
 11
 5.88388698203198E+0000
 21
 4.53274611311645E+0000
  0
LINE
  8
1
  6
CONTINUOUS
 62
     1
 10
 5.91143799178826E+0000
 20
 4.58095132706512E+0000
 11
 5.88032264133653E+0000
 21
 4.54983597661339E+0000
  0
LINE
  8
1
  6
CONTINUOUS
 62
     1
 10
 5.89078378760314E+0000
 20
 4.58095132706512E+0000
 11
 5.87675830064836E+0000
 21
 4.56692584010307E+0000
  0
LINE
  8
1
  6
CONTINUOUS
 62
     1
 10
 5.55998237735184E+0000
 20
 4.00639096181112E+0000
 11
 5.55998237735184E+0000
 21
 4.00639096181112E+0000
  0
LINE
  8
1
  6
CONTINUOUS
 62
     1
 10
 5.55998237735184E+0000
 20
 4.00639096181112E+0000
 11
 5.58716389871552E+0000
 21
 4.16568028843903E+0000
  0
LINE
  8
1
  6
CONTINUOUS
 62
     1
 10
 5.58716389871552E+0000
 20
 4.16568028843903E+0000
 11
 5.52676026124391E+0000
 21
 4.16568028843903E+0000
  0
LINE
  8
1
  6
CONTINUOUS
 62
     1
 10
 5.52676026124391E+0000
 20
 4.16568028843903E+0000
 11
 5.55998237735184E+0000
 21
 4.00639096181112E+0000
  0
LINE
  8
1
  6
CONTINUOUS
 62
     1
 10
 5.58716389871552E+0000
 20
 4.16568028843903E+0000
 11
 5.52676026124391E+0000
 21
 4.16568028843903E+0000
  0
LINE
  8
1
  6
CONTINUOUS
 62
     1
 10
 5.56148774051690E+0000
 20
 4.01521270073863E+0000
 11
 5.55726090692770E+0000
 21
 4.01943953432783E+0000
  0
LINE
  8
1
  6
CONTINUOUS
 62
     1
 10
 5.56449846685427E+0000
 20
 4.03285617859365E+0000
 11
 5.55181796608667E+0000
 21
 4.04553667936125E+0000
  0
LINE
  8
1
  6
CONTINUOUS
 62
     1
 10
 5.56750919318438E+0000
 20
 4.05049965644139E+0000
 11
 5.54637502523838E+0000
 21
 4.07163382439467E+0000
  0
LINE
  8
1
  6
CONTINUOUS
 62
     1
 10
 5.57051991952176E+0000
 20
 4.06814313429641E+0000
 11
 5.54093208439008E+0000
 21
 4.09773096942808E+0000
  0
LINE
  8
1
  6
CONTINUOUS
 62
     1
 10
 5.57353064585186E+0000
 20
 4.08578661215142E+0000
 11
 5.53548914354178E+0000
 21
 4.12382811445423E+0000
  0
LINE
  8
1
  6
CONTINUOUS
 62
     1
 10
 5.57654137218196E+0000
 20
 4.10343008999916E+0000
 11
 5.53004620269348E+0000
 21
 4.14992525948765E+0000
  0
LINE
  8
1
  6
CONTINUOUS
 62
     1
 10
 5.57955209851934E+0000
 20
 4.12107356785418E+0000
 11
 5.53494537792722E+0000
 21
 4.16568028843903E+0000
  0
LINE
  8
1
  6
CONTINUOUS
 62
     1
 10
 5.58256282484945E+0000
 20
 4.13871704570920E+0000
 11
 5.55559958211234E+0000
 21
 4.16568028843903E+0000
  0
LINE
  8
1
  6
CONTINUOUS
 62
     1
 10
 5.58557355117955E+0000
 20
 4.15636052355694E+0000
 11
 5.57625378629746E+0000
 21
 4.16568028843903E+0000
  0
LINE
  8
1
  6
CONTINUOUS
 62
     1
 10
 5.56210720521631E+0000
 20
 4.01884289176814E+0000
 11
 5.55820020700048E+0000
 21
 4.01493589355232E+0000
  0
LINE
  8
1
  6
CONTINUOUS
 62
     1
 10
 5.56635686095251E+0000
 20
 4.04374675168947E+0000
 11
 5.55463586630503E+0000
 21
 4.03202575704927E+0000
  0
LINE
  8
1
  6
CONTINUOUS
 62
     1
 10
 5.57060651668871E+0000
 20
 4.06865061161079E+0000
 11
 5.55107152560959E+0000
 21
 4.04911562053167E+0000
  0
LINE
  8
1
  6
CONTINUOUS
 62
     1
 10
 5.57485617241764E+0000
 20
 4.09355447152484E+0000
 11
 5.54750718491414E+0000
 21
 4.06620548402861E+0000
  0
LINE
  8
1
  6
CONTINUOUS
 62
     1
 10
 5.57910582815384E+0000
 20
 4.11845833144616E+0000
 11
 5.54394284422597E+0000
 21
 4.08329534751829E+0000
  0
LINE
  8
1
  6
CONTINUOUS
 62
     1
 10
 5.58335548389005E+0000
 20
 4.14336219136749E+0000
 11
 5.54037850353052E+0000
 21
 4.10038521100796E+0000
  0
LINE
  8
1
  6
CONTINUOUS
 62
     1
 10
 5.58501937676920E+0000
 20
 4.16568028843903E+0000
 11
 5.53681416282780E+0000
 21
 4.11747507449763E+0000
  0
LINE
  8
1
  6
CONTINUOUS
 62
     1
 10
 5.56436517258408E+0000
 20
 4.16568028843903E+0000
 11
 5.53324982213962E+0000
 21
 4.13456493798731E+0000
  0
LINE
  8
1
  6
CONTINUOUS
 62
     1
 10
 5.54371096839895E+0000
 20
 4.16568028843903E+0000
 11
 5.52968548144418E+0000
 21
 4.15165480147698E+0000
  0
LINE
  8
1
  6
CONTINUOUS
 62
     1
 10
 5.56268365365395E+0000
 20
 4.59682567726850E+0000
 11
 5.56268365365395E+0000
 21
 4.59682567726850E+0000
  0
LINE
  8
1
  6
CONTINUOUS
 62
     1
 10
 5.56268365365395E+0000
 20
 4.59682567726850E+0000
 11
 5.53550213229028E+0000
 21
 4.43753635064058E+0000
  0
LINE
  8
1
  6
CONTINUOUS
 62
     1
 10
 5.53550213229028E+0000
 20
 4.43753635064058E+0000
 11
 5.59590576976188E+0000
 21
 4.43753635064058E+0000
  0
LINE
  8
1
  6
CONTINUOUS
 62
     1
 10
 5.59590576976188E+0000
 20
 4.43753635064058E+0000
 11
 5.56268365365395E+0000
 21
 4.59682567726850E+0000
  0
LINE
  8
1
  6
CONTINUOUS
 62
     1
 10
 5.53550213229028E+0000
 20
 4.43753635064058E+0000
 11
 5.59590576976188E+0000
 21
 4.43753635064058E+0000
  0
LINE
  8
1
  6
CONTINUOUS
 62
     1
 10
 5.54582923438284E+0000
 20
 4.43753635064058E+0000
 11
 5.53700749545533E+0000
 21
 4.44635808956809E+0000
  0
LINE
  8
1
  6
CONTINUOUS
 62
     1
 10
 5.56648343856796E+0000
 20
 4.43753635064058E+0000
 11
 5.54001822179271E+0000
 21
 4.46400156742311E+0000
  0
LINE
  8
1
  6
CONTINUOUS
 62
     1
 10
 5.58713764275308E+0000
 20
 4.43753635064058E+0000
 11
 5.54302894812281E+0000
 21
 4.48164504527085E+0000
  0
LINE
  8
1
  6
CONTINUOUS
 62
     1
 10
 5.59277346728777E+0000
 20
 4.45255473029101E+0000
 11
 5.54603967445291E+0000
 21
 4.49928852312587E+0000
  0
LINE
  8
1
  6
CONTINUOUS
 62
     1
 10
 5.58733052643947E+0000
 20
 4.47865187532443E+0000
 11
 5.54905040079029E+0000
 21
 4.51693200098089E+0000
  0
LINE
  8
1
  6
CONTINUOUS
 62
     1
 10
 5.58188758559118E+0000
 20
 4.50474902035785E+0000
 11
 5.55206112712040E+0000
 21
 4.53457547882863E+0000
  0
LINE
  8
1
  6
CONTINUOUS
 62
     1
 10
 5.57644464475015E+0000
 20
 4.53084616539127E+0000
 11
 5.55507185345050E+0000
 21
 4.55221895668365E+0000
  0
LINE
  8
1
  6
CONTINUOUS
 62
     1
 10
 5.57100170390186E+0000
 20
 4.55694331042469E+0000
 11
 5.55808257978788E+0000
 21
 4.56986243453139E+0000
  0
LINE
  8
1
  6
CONTINUOUS
 62
     1
 10
 5.56555876305356E+0000
 20
 4.58304045545083E+0000
 11
 5.56109330611798E+0000
 21
 4.58750591238640E+0000
  0
LINE
  8
1
  6
CONTINUOUS
 62
     1
 10
 5.59412359941052E+0000
 20
 4.44608128238178E+0000
 11
 5.58557866766205E+0000
 21
 4.43753635063331E+0000
  0
LINE
  8
1
  6
CONTINUOUS
 62
     1
 10
 5.59055925871507E+0000
 20
 4.46317114587146E+0000
 11
 5.56492446347693E+0000
 21
 4.43753635063331E+0000
  0
LINE
  8
1
  6
CONTINUOUS
 62
     1
 10
 5.58699491801963E+0000
 20
 4.48026100936113E+0000
 11
 5.54427025929181E+0000
 21
 4.43753635063331E+0000
  0
LINE
  8
1
  6
CONTINUOUS
 62
     1
 10
 5.58343057732418E+0000
 20
 4.49735087285080E+0000
 11
 5.53794772329275E+0000
 21
 4.45186801882664E+0000
  0
LINE
  8
1
  6
CONTINUOUS
 62
     1
 10
 5.57986623662873E+0000
 20
 4.51444073634048E+0000
 11
 5.54219737902895E+0000
 21
 4.47677187874797E+0000
  0
LINE
  8
1
  6
CONTINUOUS
 62
     1
 10
 5.57630189593328E+0000
 20
 4.53153059983742E+0000
 11
 5.54644703476515E+0000
 21
 4.50167573866202E+0000
  0
LINE
  8
1
  6
CONTINUOUS
 62
     1
 10
 5.57273755523784E+0000
 20
 4.54862046331982E+0000
 11
 5.55069669049408E+0000
 21
 4.52657959858334E+0000
  0
LINE
  8
1
  6
CONTINUOUS
 62
     1
 10
 5.56917321454239E+0000
 20
 4.56571032680949E+0000
 11
 5.55494634623028E+0000
 21
 4.55148345850466E+0000
  0
LINE
  8
1
  6
CONTINUOUS
 62
     1
 10
 5.56560887384694E+0000
 20
 4.58280019030644E+0000
 11
 5.55919600196648E+0000
 21
 4.57638731842599E+0000
  0
LINE
  8
1
  6
CONTINUOUS
 62
     1
 10
 6.25835296418518E+0000
 20
 3.72099946830349E+0000
 11
 6.25835296418518E+0000
 21
 3.72099946830349E+0000
  0
LINE
  8
1
  6
CONTINUOUS
 62
     1
 10
 6.25835296418518E+0000
 20
 3.72099946830349E+0000
 11
 6.09906363754999E+0000
 21
 3.74818098966716E+0000
  0
LINE
  8
1
  6
CONTINUOUS
 62
     1
 10
 6.09906363754999E+0000
 20
 3.74818098966716E+0000
 11
 6.09906363754999E+0000
 21
 3.68777735219555E+0000
  0
LINE
  8
1
  6
CONTINUOUS
 62
     1
 10
 6.09906363754999E+0000
 20
 3.68777735219555E+0000
 11
 6.25835296418518E+0000
 21
 3.72099946830349E+0000
  0
LINE
  8
1
  6
CONTINUOUS
 62
     1
 10
 6.09906363754999E+0000
 20
 3.74818098966716E+0000
 11
 6.09906363754999E+0000
 21
 3.68777735219555E+0000
  0
LINE
  8
1
  6
CONTINUOUS
 62
     1
 10
 6.10760856929846E+0000
 20
 3.68955952254692E+0000
 11
 6.09906363755726E+0000
 21
 3.69810445429175E+0000
  0
LINE
  8
1
  6
CONTINUOUS
 62
     1
 10
 6.12469843278814E+0000
 20
 3.69312386323872E+0000
 11
 6.09906363754999E+0000
 21
 3.71875865847687E+0000
  0
LINE
  8
1
  6
CONTINUOUS
 62
     1
 10
 6.14178829628509E+0000
 20
 3.69668820393417E+0000
 11
 6.09906363754999E+0000
 21
 3.73941286266563E+0000
  0
LINE
  8
1
  6
CONTINUOUS
 62
     1
 10
 6.15887815977476E+0000
 20
 3.70025254462962E+0000
 11
 6.11339530574332E+0000
 21
 3.74573539865742E+0000
  0
LINE
  8
1
  6
CONTINUOUS
 62
     1
 10
 6.17596802326443E+0000
 20
 3.70381688532507E+0000
 11
 6.13829916566465E+0000
 21
 3.74148574292485E+0000
  0
LINE
  8
1
  6
CONTINUOUS
 62
     1
 10
 6.19305788675410E+0000
 20
 3.70738122602052E+0000
 11
 6.16320302558597E+0000
 21
 3.73723608718865E+0000
  0
LINE
  8
1
  6
CONTINUOUS
 62
     1
 10
 6.21014775024378E+0000
 20
 3.71094556671233E+0000
 11
 6.18810688550730E+0000
 21
 3.73298643145245E+0000
  0
LINE
  8
1
  6
CONTINUOUS
 62
     1
 10
 6.22723761373345E+0000
 20
 3.71450990740777E+0000
 11
 6.21301074542862E+0000
 21
 3.72873677571624E+0000
  0
LINE
  8
1
  6
CONTINUOUS
 62
     1
 10
 6.24432747722312E+0000
 20
 3.71807424810322E+0000
 11
 6.23791460534267E+0000
 21
 3.72448711998368E+0000
  0
LINE
  8
1
  6
CONTINUOUS
 62
     1
 10
 6.24953122525767E+0000
 20
 3.72250483146854E+0000
 11
 6.24530439166847E+0000
 21
 3.71827799787934E+0000
  0
LINE
  8
1
  6
CONTINUOUS
 62
     1
 10
 6.23188774740265E+0000
 20
 3.72551555779864E+0000
 11
 6.21920724663505E+0000
 21
 3.71283505703104E+0000
  0
LINE
  8
1
  6
CONTINUOUS
 62
     1
 10
 6.21424426954763E+0000
 20
 3.72852628413239E+0000
 11
 6.19311010160163E+0000
 21
 3.70739211618275E+0000
  0
LINE
  8
1
  6
CONTINUOUS
 62
     1
 10
 6.19660079169989E+0000
 20
 3.73153701046976E+0000
 11
 6.16701295656821E+0000
 21
 3.70194917533809E+0000
  0
LINE
  8
1
  6
CONTINUOUS
 62
     1
 10
 6.17895731384488E+0000
 20
 3.73454773679987E+0000
 11
 6.14091581153480E+0000
 21
 3.69650623448979E+0000
  0
LINE
  8
1
  6
CONTINUOUS
 62
     1
 10
 6.16131383598986E+0000
 20
 3.73755846312997E+0000
 11
 6.11481866650138E+0000
 21
 3.69106329364149E+0000
  0
LINE
  8
1
  6
CONTINUOUS
 62
     1
 10
 6.14367035813484E+0000
 20
 3.74056918946371E+0000
 11
 6.09906363754271E+0000
 21
 3.69596246886795E+0000
  0
LINE
  8
1
  6
CONTINUOUS
 62
     1
 10
 6.12602688028710E+0000
 20
 3.74357991579382E+0000
 11
 6.09906363754271E+0000
 21
 3.71661667305307E+0000
  0
LINE
  8
1
  6
CONTINUOUS
 62
     1
 10
 6.10838340243208E+0000
 20
 3.74659064212756E+0000
 11
 6.09906363754999E+0000
 21
 3.73727087724546E+0000
  0
LINE
  8
1
  6
CONTINUOUS
 62
     1
 10
 6.25835296418518E+0000
 20
 3.72099946830349E+0000
 11
 6.25835296418518E+0000
 21
 3.72099946830349E+0000
  0
LINE
  8
1
  6
CONTINUOUS
 62
     1
 10
 6.25835296418518E+0000
 20
 3.72099946830349E+0000
 11
 6.09906363754999E+0000
 21
 3.74818098966716E+0000
  0
LINE
  8
1
  6
CONTINUOUS
 62
     1
 10
 6.09906363754999E+0000
 20
 3.74818098966716E+0000
 11
 6.09906363754999E+0000
 21
 3.68777735219555E+0000
  0
LINE
  8
1
  6
CONTINUOUS
 62
     1
 10
 6.09906363754999E+0000
 20
 3.68777735219555E+0000
 11
 6.25835296418518E+0000
 21
 3.72099946830349E+0000
  0
LINE
  8
1
  6
CONTINUOUS
 62
     1
 10
 6.09906363754999E+0000
 20
 3.74818098966716E+0000
 11
 6.09906363754999E+0000
 21
 3.68777735219555E+0000
  0
LINE
  8
1
  6
CONTINUOUS
 62
     1
 10
 6.10760856929846E+0000
 20
 3.68955952254692E+0000
 11
 6.09906363755726E+0000
 21
 3.69810445429175E+0000
  0
LINE
  8
1
  6
CONTINUOUS
 62
     1
 10
 6.12469843278814E+0000
 20
 3.69312386323872E+0000
 11
 6.09906363754999E+0000
 21
 3.71875865847687E+0000
  0
LINE
  8
1
  6
CONTINUOUS
 62
     1
 10
 6.14178829628509E+0000
 20
 3.69668820393417E+0000
 11
 6.09906363754999E+0000
 21
 3.73941286266563E+0000
  0
LINE
  8
1
  6
CONTINUOUS
 62
     1
 10
 6.15887815977476E+0000
 20
 3.70025254462962E+0000
 11
 6.11339530574332E+0000
 21
 3.74573539865742E+0000
  0
LINE
  8
1
  6
CONTINUOUS
 62
     1
 10
 6.17596802326443E+0000
 20
 3.70381688532507E+0000
 11
 6.13829916566465E+0000
 21
 3.74148574292485E+0000
  0
LINE
  8
1
  6
CONTINUOUS
 62
     1
 10
 6.19305788675410E+0000
 20
 3.70738122602052E+0000
 11
 6.16320302558597E+0000
 21
 3.73723608718865E+0000
  0
LINE
  8
1
  6
CONTINUOUS
 62
     1
 10
 6.21014775024378E+0000
 20
 3.71094556671233E+0000
 11
 6.18810688550730E+0000
 21
 3.73298643145245E+0000
  0
LINE
  8
1
  6
CONTINUOUS
 62
     1
 10
 6.22723761373345E+0000
 20
 3.71450990740777E+0000
 11
 6.21301074542862E+0000
 21
 3.72873677571624E+0000
  0
LINE
  8
1
  6
CONTINUOUS
 62
     1
 10
 6.24432747722312E+0000
 20
 3.71807424810322E+0000
 11
 6.23791460534267E+0000
 21
 3.72448711998368E+0000
  0
LINE
  8
1
  6
CONTINUOUS
 62
     1
 10
 6.24953122525767E+0000
 20
 3.72250483146854E+0000
 11
 6.24530439166847E+0000
 21
 3.71827799787934E+0000
  0
LINE
  8
1
  6
CONTINUOUS
 62
     1
 10
 6.23188774740265E+0000
 20
 3.72551555779864E+0000
 11
 6.21920724663505E+0000
 21
 3.71283505703104E+0000
  0
LINE
  8
1
  6
CONTINUOUS
 62
     1
 10
 6.21424426954763E+0000
 20
 3.72852628413239E+0000
 11
 6.19311010160163E+0000
 21
 3.70739211618275E+0000
  0
LINE
  8
1
  6
CONTINUOUS
 62
     1
 10
 6.19660079169989E+0000
 20
 3.73153701046976E+0000
 11
 6.16701295656821E+0000
 21
 3.70194917533809E+0000
  0
LINE
  8
1
  6
CONTINUOUS
 62
     1
 10
 6.17895731384488E+0000
 20
 3.73454773679987E+0000
 11
 6.14091581153480E+0000
 21
 3.69650623448979E+0000
  0
LINE
  8
1
  6
CONTINUOUS
 62
     1
 10
 6.16131383598986E+0000
 20
 3.73755846312997E+0000
 11
 6.11481866650138E+0000
 21
 3.69106329364149E+0000
  0
LINE
  8
1
  6
CONTINUOUS
 62
     1
 10
 6.14367035813484E+0000
 20
 3.74056918946371E+0000
 11
 6.09906363754271E+0000
 21
 3.69596246886795E+0000
  0
LINE
  8
1
  6
CONTINUOUS
 62
     1
 10
 6.12602688028710E+0000
 20
 3.74357991579382E+0000
 11
 6.09906363754271E+0000
 21
 3.71661667305307E+0000
  0
LINE
  8
1
  6
CONTINUOUS
 62
     1
 10
 6.10838340243208E+0000
 20
 3.74659064212756E+0000
 11
 6.09906363754999E+0000
 21
 3.73727087724546E+0000
  0
LINE
  8
1
  6
CONTINUOUS
 62
     1
 10
 6.40329909402499E+0000
 20
 3.71997657111569E+0000
 11
 6.40329909402499E+0000
 21
 3.71997657111569E+0000
  0
LINE
  8
1
  6
CONTINUOUS
 62
     1
 10
 6.40329909402499E+0000
 20
 3.71997657111569E+0000
 11
 6.56258842067473E+0000
 21
 3.69279504975202E+0000
  0
LINE
  8
1
  6
CONTINUOUS
 62
     1
 10
 6.56258842067473E+0000
 20
 3.69279504975202E+0000
 11
 6.56258842067473E+0000
 21
 3.75319868722363E+0000
  0
LINE
  8
1
  6
CONTINUOUS
 62
     1
 10
 6.56258842067473E+0000
 20
 3.75319868722363E+0000
 11
 6.40329909402499E+0000
 21
 3.71997657111569E+0000
  0
LINE
  8
1
  6
CONTINUOUS
 62
     1
 10
 6.56258842067473E+0000
 20
 3.69279504975202E+0000
 11
 6.56258842067473E+0000
 21
 3.75319868722363E+0000
  0
LINE
  8
1
  6
CONTINUOUS
 62
     1
 10
 6.41575102398929E+0000
 20
 3.71785174325123E+0000
 11
 6.41184402577346E+0000
 21
 3.72175874146342E+0000
  0
LINE
  8
1
  6
CONTINUOUS
 62
     1
 10
 6.44065488391061E+0000
 20
 3.71360208751503E+0000
 11
 6.42893388926313E+0000
 21
 3.72532308215887E+0000
  0
LINE
  8
1
  6
CONTINUOUS
 62
     1
 10
 6.46555874383193E+0000
 20
 3.70935243177883E+0000
 11
 6.44602375275281E+0000
 21
 3.72888742285431E+0000
  0
LINE
  8
1
  6
CONTINUOUS
 62
     1
 10
 6.49046260375326E+0000
 20
 3.70510277604626E+0000
 11
 6.46311361624248E+0000
 21
 3.73245176354976E+0000
  0
LINE
  8
1
  6
CONTINUOUS
 62
     1
 10
 6.51536646366731E+0000
 20
 3.70085312031006E+0000
 11
 6.48020347973943E+0000
 21
 3.73601610424521E+0000
  0
LINE
  8
1
  6
CONTINUOUS
 62
     1
 10
 6.54027032359591E+0000
 20
 3.69660346457385E+0000
 11
 6.49729334322910E+0000
 21
 3.73958044493702E+0000
  0
LINE
  8
1
  6
CONTINUOUS
 62
     1
 10
 6.56258842067473E+0000
 20
 3.69493957167288E+0000
 11
 6.51438320671878E+0000
 21
 3.74314478563247E+0000
  0
LINE
  8
1
  6
CONTINUOUS
 62
     1
 10
 6.56258842067473E+0000
 20
 3.71559377585800E+0000
 11
 6.53147307020845E+0000
 21
 3.74670912632428E+0000
  0
LINE
  8
1
  6
CONTINUOUS
 62
     1
 10
 6.56258842067473E+0000
 20
 3.73624798004312E+0000
 11
 6.54856293369812E+0000
 21
 3.75027346701972E+0000
  0
LINE
  8
1
  6
CONTINUOUS
 62
     1
 10
 6.56258842066745E+0000
 20
 3.70312215184094E+0000
 11
 6.55376668173994E+0000
 21
 3.69430041291344E+0000
  0
LINE
  8
1
  6
CONTINUOUS
 62
     1
 10
 6.56258842066745E+0000
 20
 3.72377635602606E+0000
 11
 6.53612320389220E+0000
 21
 3.69731113924718E+0000
  0
LINE
  8
1
  6
CONTINUOUS
 62
     1
 10
 6.56258842066745E+0000
 20
 3.74443056021119E+0000
 11
 6.51847972603719E+0000
 21
 3.70032186557728E+0000
  0
LINE
  8
1
  6
CONTINUOUS
 62
     1
 10
 6.54757004100975E+0000
 20
 3.75006638473860E+0000
 11
 6.50083624818217E+0000
 21
 3.70333259191102E+0000
  0
LINE
  8
1
  6
CONTINUOUS
 62
     1
 10
 6.52147289598361E+0000
 20
 3.74462344389394E+0000
 11
 6.48319277032715E+0000
 21
 3.70634331824112E+0000
  0
LINE
  8
1
  6
CONTINUOUS
 62
     1
 10
 6.49537575095019E+0000
 20
 3.73918050304565E+0000
 11
 6.46554929247213E+0000
 21
 3.70935404457487E+0000
  0
LINE
  8
1
  6
CONTINUOUS
 62
     1
 10
 6.46927860591677E+0000
 20
 3.73373756220462E+0000
 11
 6.44790581462439E+0000
 21
 3.71236477090497E+0000
  0
LINE
  8
1
  6
CONTINUOUS
 62
     1
 10
 6.44318146088335E+0000
 20
 3.72829462135633E+0000
 11
 6.43026233676937E+0000
 21
 3.71537549723871E+0000
  0
LINE
  8
1
  6
CONTINUOUS
 62
     1
 10
 6.41708431585721E+0000
 20
 3.72285168051167E+0000
 11
 6.41261885891436E+0000
 21
 3.71838622356881E+0000
  0
LINE
  8
1
  6
CONTINUOUS
 62
     1
 10
 6.40329909402499E+0000
 20
 3.71997657111569E+0000
 11
 6.40329909402499E+0000
 21
 3.71997657111569E+0000
  0
LINE
  8
1
  6
CONTINUOUS
 62
     1
 10
 6.40329909402499E+0000
 20
 3.71997657111569E+0000
 11
 6.56258842067473E+0000
 21
 3.69279504975202E+0000
  0
LINE
  8
1
  6
CONTINUOUS
 62
     1
 10
 6.56258842067473E+0000
 20
 3.69279504975202E+0000
 11
 6.56258842067473E+0000
 21
 3.75319868722363E+0000
  0
LINE
  8
1
  6
CONTINUOUS
 62
     1
 10
 6.56258842067473E+0000
 20
 3.75319868722363E+0000
 11
 6.40329909402499E+0000
 21
 3.71997657111569E+0000
  0
LINE
  8
1
  6
CONTINUOUS
 62
     1
 10
 6.56258842067473E+0000
 20
 3.69279504975202E+0000
 11
 6.56258842067473E+0000
 21
 3.75319868722363E+0000
  0
LINE
  8
1
  6
CONTINUOUS
 62
     1
 10
 6.41575102398929E+0000
 20
 3.71785174325123E+0000
 11
 6.41184402577346E+0000
 21
 3.72175874146342E+0000
  0
LINE
  8
1
  6
CONTINUOUS
 62
     1
 10
 6.44065488391061E+0000
 20
 3.71360208751503E+0000
 11
 6.42893388926313E+0000
 21
 3.72532308215887E+0000
  0
LINE
  8
1
  6
CONTINUOUS
 62
     1
 10
 6.46555874383193E+0000
 20
 3.70935243177883E+0000
 11
 6.44602375275281E+0000
 21
 3.72888742285431E+0000
  0
LINE
  8
1
  6
CONTINUOUS
 62
     1
 10
 6.49046260375326E+0000
 20
 3.70510277604626E+0000
 11
 6.46311361624248E+0000
 21
 3.73245176354976E+0000
  0
LINE
  8
1
  6
CONTINUOUS
 62
     1
 10
 6.51536646366731E+0000
 20
 3.70085312031006E+0000
 11
 6.48020347973943E+0000
 21
 3.73601610424521E+0000
  0
LINE
  8
1
  6
CONTINUOUS
 62
     1
 10
 6.54027032359591E+0000
 20
 3.69660346457385E+0000
 11
 6.49729334322910E+0000
 21
 3.73958044493702E+0000
  0
LINE
  8
1
  6
CONTINUOUS
 62
     1
 10
 6.56258842067473E+0000
 20
 3.69493957167288E+0000
 11
 6.51438320671878E+0000
 21
 3.74314478563247E+0000
  0
LINE
  8
1
  6
CONTINUOUS
 62
     1
 10
 6.56258842067473E+0000
 20
 3.71559377585800E+0000
 11
 6.53147307020845E+0000
 21
 3.74670912632428E+0000
  0
LINE
  8
1
  6
CONTINUOUS
 62
     1
 10
 6.56258842067473E+0000
 20
 3.73624798004312E+0000
 11
 6.54856293369812E+0000
 21
 3.75027346701972E+0000
  0
LINE
  8
1
  6
CONTINUOUS
 62
     1
 10
 6.56258842066745E+0000
 20
 3.70312215184094E+0000
 11
 6.55376668173994E+0000
 21
 3.69430041291344E+0000
  0
LINE
  8
1
  6
CONTINUOUS
 62
     1
 10
 6.56258842066745E+0000
 20
 3.72377635602606E+0000
 11
 6.53612320389220E+0000
 21
 3.69731113924718E+0000
  0
LINE
  8
1
  6
CONTINUOUS
 62
     1
 10
 6.56258842066745E+0000
 20
 3.74443056021119E+0000
 11
 6.51847972603719E+0000
 21
 3.70032186557728E+0000
  0
LINE
  8
1
  6
CONTINUOUS
 62
     1
 10
 6.54757004100975E+0000
 20
 3.75006638473860E+0000
 11
 6.50083624818217E+0000
 21
 3.70333259191102E+0000
  0
LINE
  8
1
  6
CONTINUOUS
 62
     1
 10
 6.52147289598361E+0000
 20
 3.74462344389394E+0000
 11
 6.48319277032715E+0000
 21
 3.70634331824112E+0000
  0
LINE
  8
1
  6
CONTINUOUS
 62
     1
 10
 6.49537575095019E+0000
 20
 3.73918050304565E+0000
 11
 6.46554929247213E+0000
 21
 3.70935404457487E+0000
  0
LINE
  8
1
  6
CONTINUOUS
 62
     1
 10
 6.46927860591677E+0000
 20
 3.73373756220462E+0000
 11
 6.44790581462439E+0000
 21
 3.71236477090497E+0000
  0
LINE
  8
1
  6
CONTINUOUS
 62
     1
 10
 6.44318146088335E+0000
 20
 3.72829462135633E+0000
 11
 6.43026233676937E+0000
 21
 3.71537549723871E+0000
  0
LINE
  8
1
  6
CONTINUOUS
 62
     1
 10
 6.41708431585721E+0000
 20
 3.72285168051167E+0000
 11
 6.41261885891436E+0000
 21
 3.71838622356881E+0000
  0
LINE
  8
1
  6
CONTINUOUS
 62
     1
 10
 6.26335037661192E+0000
 20
 3.39449386516208E+0000
 11
 6.26335037661192E+0000
 21
 3.39449386516208E+0000
  0
LINE
  8
1
  6
CONTINUOUS
 62
     1
 10
 6.26335037661192E+0000
 20
 3.39449386516208E+0000
 11
 6.42263970326167E+0000
 21
 3.36731234379840E+0000
  0
LINE
  8
1
  6
CONTINUOUS
 62
     1
 10
 6.42263970326167E+0000
 20
 3.36731234379840E+0000
 11
 6.42263970326167E+0000
 21
 3.42771598127001E+0000
  0
LINE
  8
1
  6
CONTINUOUS
 62
     1
 10
 6.42263970326167E+0000
 20
 3.42771598127001E+0000
 11
 6.26335037661192E+0000
 21
 3.39449386516208E+0000
  0
LINE
  8
1
  6
CONTINUOUS
 62
     1
 10
 6.42263970326167E+0000
 20
 3.36731234379840E+0000
 11
 6.42263970326167E+0000
 21
 3.42771598127001E+0000
  0
LINE
  8
1
  6
CONTINUOUS
 62
     1
 10
 6.27580230657622E+0000
 20
 3.39236903729397E+0000
 11
 6.27189530836040E+0000
 21
 3.39627603550980E+0000
  0
LINE
  8
1
  6
CONTINUOUS
 62
     1
 10
 6.30070616649755E+0000
 20
 3.38811938156141E+0000
 11
 6.28898517185007E+0000
 21
 3.39984037620525E+0000
  0
LINE
  8
1
  6
CONTINUOUS
 62
     1
 10
 6.32561002641887E+0000
 20
 3.38386972582521E+0000
 11
 6.30607503533975E+0000
 21
 3.40340471690070E+0000
  0
LINE
  8
1
  6
CONTINUOUS
 62
     1
 10
 6.35051388634020E+0000
 20
 3.37962007009264E+0000
 11
 6.32316489883669E+0000
 21
 3.40696905759251E+0000
  0
LINE
  8
1
  6
CONTINUOUS
 62
     1
 10
 6.37541774625424E+0000
 20
 3.37537041435644E+0000
 11
 6.34025476232637E+0000
 21
 3.41053339828795E+0000
  0
LINE
  8
1
  6
CONTINUOUS
 62
     1
 10
 6.40032160617557E+0000
 20
 3.37112075862024E+0000
 11
 6.35734462581604E+0000
 21
 3.41409773898340E+0000
  0
LINE
  8
1
  6
CONTINUOUS
 62
     1
 10
 6.42263970326167E+0000
 20
 3.36945686572290E+0000
 11
 6.37443448930571E+0000
 21
 3.41766207967521E+0000
  0
LINE
  8
1
  6
CONTINUOUS
 62
     1
 10
 6.42263970326167E+0000
 20
 3.39011106990802E+0000
 11
 6.39152435279539E+0000
 21
 3.42122642037430E+0000
  0
LINE
  8
1
  6
CONTINUOUS
 62
     1
 10
 6.42263970326167E+0000
 20
 3.41076527408950E+0000
 11
 6.40861421628506E+0000
 21
 3.42479076106611E+0000
  0
LINE
  8
1
  6
CONTINUOUS
 62
     1
 10
 6.42263970325439E+0000
 20
 3.37763944589096E+0000
 11
 6.41381796432688E+0000
 21
 3.36881770696345E+0000
  0
LINE
  8
1
  6
CONTINUOUS
 62
     1
 10
 6.42263970325439E+0000
 20
 3.39829365007608E+0000
 11
 6.39617448647186E+0000
 21
 3.37182843329356E+0000
  0
LINE
  8
1
  6
CONTINUOUS
 62
     1
 10
 6.42263970325439E+0000
 20
 3.41894785426121E+0000
 11
 6.37853100862412E+0000
 21
 3.37483915962730E+0000
  0
LINE
  8
1
  6
CONTINUOUS
 62
     1
 10
 6.40762132358941E+0000
 20
 3.42458367878135E+0000
 11
 6.36088753076911E+0000
 21
 3.37784988595740E+0000
  0
LINE
  8
1
  6
CONTINUOUS
 62
     1
 10
 6.38152417856327E+0000
 20
 3.41914073793669E+0000
 11
 6.34324405291409E+0000
 21
 3.38086061229114E+0000
  0
LINE
  8
1
  6
CONTINUOUS
 62
     1
 10
 6.35542703353713E+0000
 20
 3.41369779709567E+0000
 11
 6.32560057505907E+0000
 21
 3.38387133862125E+0000
  0
LINE
  8
1
  6
CONTINUOUS
 62
     1
 10
 6.32932988850371E+0000
 20
 3.40825485624737E+0000
 11
 6.30795709720405E+0000
 21
 3.38688206495499E+0000
  0
LINE
  8
1
  6
CONTINUOUS
 62
     1
 10
 6.30323274347029E+0000
 20
 3.40281191540271E+0000
 11
 6.29031361935631E+0000
 21
 3.38989279128509E+0000
  0
LINE
  8
1
  6
CONTINUOUS
 62
     1
 10
 6.27713559843687E+0000
 20
 3.39736897455441E+0000
 11
 6.27267014150129E+0000
 21
 3.39290351761883E+0000
  0
LINE
  8
1
  6
CONTINUOUS
 62
     1
 10
 6.26335037661192E+0000
 20
 3.39449386516208E+0000
 11
 6.26335037661192E+0000
 21
 3.39449386516208E+0000
  0
LINE
  8
1
  6
CONTINUOUS
 62
     1
 10
 6.26335037661192E+0000
 20
 3.39449386516208E+0000
 11
 6.42263970326167E+0000
 21
 3.36731234379840E+0000
  0
LINE
  8
1
  6
CONTINUOUS
 62
     1
 10
 6.42263970326167E+0000
 20
 3.36731234379840E+0000
 11
 6.42263970326167E+0000
 21
 3.42771598127001E+0000
  0
LINE
  8
1
  6
CONTINUOUS
 62
     1
 10
 6.42263970326167E+0000
 20
 3.42771598127001E+0000
 11
 6.26335037661192E+0000
 21
 3.39449386516208E+0000
  0
LINE
  8
1
  6
CONTINUOUS
 62
     1
 10
 6.42263970326167E+0000
 20
 3.36731234379840E+0000
 11
 6.42263970326167E+0000
 21
 3.42771598127001E+0000
  0
LINE
  8
1
  6
CONTINUOUS
 62
     1
 10
 6.27580230657622E+0000
 20
 3.39236903729397E+0000
 11
 6.27189530836040E+0000
 21
 3.39627603550980E+0000
  0
LINE
  8
1
  6
CONTINUOUS
 62
     1
 10
 6.30070616649755E+0000
 20
 3.38811938156141E+0000
 11
 6.28898517185007E+0000
 21
 3.39984037620525E+0000
  0
LINE
  8
1
  6
CONTINUOUS
 62
     1
 10
 6.32561002641887E+0000
 20
 3.38386972582521E+0000
 11
 6.30607503533975E+0000
 21
 3.40340471690070E+0000
  0
LINE
  8
1
  6
CONTINUOUS
 62
     1
 10
 6.35051388634020E+0000
 20
 3.37962007009264E+0000
 11
 6.32316489883669E+0000
 21
 3.40696905759251E+0000
  0
LINE
  8
1
  6
CONTINUOUS
 62
     1
 10
 6.37541774625424E+0000
 20
 3.37537041435644E+0000
 11
 6.34025476232637E+0000
 21
 3.41053339828795E+0000
  0
LINE
  8
1
  6
CONTINUOUS
 62
     1
 10
 6.40032160617557E+0000
 20
 3.37112075862024E+0000
 11
 6.35734462581604E+0000
 21
 3.41409773898340E+0000
  0
LINE
  8
1
  6
CONTINUOUS
 62
     1
 10
 6.42263970326167E+0000
 20
 3.36945686572290E+0000
 11
 6.37443448930571E+0000
 21
 3.41766207967521E+0000
  0
LINE
  8
1
  6
CONTINUOUS
 62
     1
 10
 6.42263970326167E+0000
 20
 3.39011106990802E+0000
 11
 6.39152435279539E+0000
 21
 3.42122642037430E+0000
  0
LINE
  8
1
  6
CONTINUOUS
 62
     1
 10
 6.42263970326167E+0000
 20
 3.41076527408950E+0000
 11
 6.40861421628506E+0000
 21
 3.42479076106611E+0000
  0
LINE
  8
1
  6
CONTINUOUS
 62
     1
 10
 6.42263970325439E+0000
 20
 3.37763944589096E+0000
 11
 6.41381796432688E+0000
 21
 3.36881770696345E+0000
  0
LINE
  8
1
  6
CONTINUOUS
 62
     1
 10
 6.42263970325439E+0000
 20
 3.39829365007608E+0000
 11
 6.39617448647186E+0000
 21
 3.37182843329356E+0000
  0
LINE
  8
1
  6
CONTINUOUS
 62
     1
 10
 6.42263970325439E+0000
 20
 3.41894785426121E+0000
 11
 6.37853100862412E+0000
 21
 3.37483915962730E+0000
  0
LINE
  8
1
  6
CONTINUOUS
 62
     1
 10
 6.40762132358941E+0000
 20
 3.42458367878135E+0000
 11
 6.36088753076911E+0000
 21
 3.37784988595740E+0000
  0
LINE
  8
1
  6
CONTINUOUS
 62
     1
 10
 6.38152417856327E+0000
 20
 3.41914073793669E+0000
 11
 6.34324405291409E+0000
 21
 3.38086061229114E+0000
  0
LINE
  8
1
  6
CONTINUOUS
 62
     1
 10
 6.35542703353713E+0000
 20
 3.41369779709567E+0000
 11
 6.32560057505907E+0000
 21
 3.38387133862125E+0000
  0
LINE
  8
1
  6
CONTINUOUS
 62
     1
 10
 6.32932988850371E+0000
 20
 3.40825485624737E+0000
 11
 6.30795709720405E+0000
 21
 3.38688206495499E+0000
  0
LINE
  8
1
  6
CONTINUOUS
 62
     1
 10
 6.30323274347029E+0000
 20
 3.40281191540271E+0000
 11
 6.29031361935631E+0000
 21
 3.38989279128509E+0000
  0
LINE
  8
1
  6
CONTINUOUS
 62
     1
 10
 6.27713559843687E+0000
 20
 3.39736897455441E+0000
 11
 6.27267014150129E+0000
 21
 3.39290351761883E+0000
  0
LINE
  8
1
  6
CONTINUOUS
 62
     1
 10
 6.26335037661192E+0000
 20
 3.14757595029732E+0000
 11
 6.26335037661192E+0000
 21
 3.14757595029732E+0000
  0
LINE
  8
1
  6
CONTINUOUS
 62
     1
 10
 6.26335037661192E+0000
 20
 3.14757595029732E+0000
 11
 6.42263970326167E+0000
 21
 3.12039442893365E+0000
  0
LINE
  8
1
  6
CONTINUOUS
 62
     1
 10
 6.42263970326167E+0000
 20
 3.12039442893365E+0000
 11
 6.42263970326167E+0000
 21
 3.18079806640526E+0000
  0
LINE
  8
1
  6
CONTINUOUS
 62
     1
 10
 6.42263970326167E+0000
 20
 3.18079806640526E+0000
 11
 6.26335037661192E+0000
 21
 3.14757595029732E+0000
  0
LINE
  8
1
  6
CONTINUOUS
 62
     1
 10
 6.42263970326167E+0000
 20
 3.12039442893365E+0000
 11
 6.42263970326167E+0000
 21
 3.18079806640526E+0000
  0
LINE
  8
1
  6
CONTINUOUS
 62
     1
 10
 6.27580230657622E+0000
 20
 3.14545112242922E+0000
 11
 6.27189530836040E+0000
 21
 3.14935812064505E+0000
  0
LINE
  8
1
  6
CONTINUOUS
 62
     1
 10
 6.30070616649027E+0000
 20
 3.14120146669666E+0000
 11
 6.28898517185007E+0000
 21
 3.15292246133686E+0000
  0
LINE
  8
1
  6
CONTINUOUS
 62
     1
 10
 6.32561002641160E+0000
 20
 3.13695181096409E+0000
 11
 6.30607503533975E+0000
 21
 3.15648680203594E+0000
  0
LINE
  8
1
  6
CONTINUOUS
 62
     1
 10
 6.35051388633292E+0000
 20
 3.13270215522789E+0000
 11
 6.32316489882942E+0000
 21
 3.16005114272775E+0000
  0
LINE
  8
1
  6
CONTINUOUS
 62
     1
 10
 6.37541774624697E+0000
 20
 3.12845249949532E+0000
 11
 6.34025476232637E+0000
 21
 3.16361548342320E+0000
  0
LINE
  8
1
  6
CONTINUOUS
 62
     1
 10
 6.40032160616829E+0000
 20
 3.12420284376276E+0000
 11
 6.35734462581604E+0000
 21
 3.16717982411501E+0000
  0
LINE
  8
1
  6
CONTINUOUS
 62
     1
 10
 6.42263970326167E+0000
 20
 3.12253895085087E+0000
 11
 6.37443448930571E+0000
 21
 3.17074416481046E+0000
  0
LINE
  8
1
  6
CONTINUOUS
 62
     1
 10
 6.42263970326167E+0000
 20
 3.14319315503599E+0000
 11
 6.39152435279539E+0000
 21
 3.17430850550591E+0000
  0
LINE
  8
1
  6
CONTINUOUS
 62
     1
 10
 6.42263970326167E+0000
 20
 3.16384735922111E+0000
 11
 6.40861421628506E+0000
 21
 3.17787284619772E+0000
  0
LINE
  8
1
  6
CONTINUOUS
 62
     1
 10
 6.42263970325439E+0000
 20
 3.13072153102257E+0000
 11
 6.41381796432688E+0000
 21
 3.12189979209506E+0000
  0
LINE
  8
1
  6
CONTINUOUS
 62
     1
 10
 6.42263970325439E+0000
 20
 3.15137573520769E+0000
 11
 6.39617448647186E+0000
 21
 3.12491051842517E+0000
  0
LINE
  8
1
  6
CONTINUOUS
 62
     1
 10
 6.42263970325439E+0000
 20
 3.17202993939281E+0000
 11
 6.37853100862412E+0000
 21
 3.12792124475891E+0000
  0
LINE
  8
1
  6
CONTINUOUS
 62
     1
 10
 6.40762132360396E+0000
 20
 3.17766576392387E+0000
 11
 6.36088753076911E+0000
 21
 3.13093197109629E+0000
  0
LINE
  8
1
  6
CONTINUOUS
 62
     1
 10
 6.38152417857054E+0000
 20
 3.17222282308285E+0000
 11
 6.34324405292136E+0000
 21
 3.13394269742639E+0000
  0
LINE
  8
1
  6
CONTINUOUS
 62
     1
 10
 6.35542703353713E+0000
 20
 3.16677988223455E+0000
 11
 6.32560057506635E+0000
 21
 3.13695342376013E+0000
  0
LINE
  8
1
  6
CONTINUOUS
 62
     1
 10
 6.32932988851098E+0000
 20
 3.16133694138989E+0000
 11
 6.30795709721133E+0000
 21
 3.13996415009024E+0000
  0
LINE
  8
1
  6
CONTINUOUS
 62
     1
 10
 6.30323274348484E+0000
 20
 3.15589400054523E+0000
 11
 6.29031361935631E+0000
 21
 3.14297487642398E+0000
  0
LINE
  8
1
  6
CONTINUOUS
 62
     1
 10
 6.27713559844415E+0000
 20
 3.15045105969693E+0000
 11
 6.27267014150129E+0000
 21
 3.14598560275408E+0000
  0
LINE
  8
1
  6
CONTINUOUS
 62
     1
 10
 6.26335037661192E+0000
 20
 3.14757595029732E+0000
 11
 6.26335037661192E+0000
 21
 3.14757595029732E+0000
  0
LINE
  8
1
  6
CONTINUOUS
 62
     1
 10
 6.26335037661192E+0000
 20
 3.14757595029732E+0000
 11
 6.42263970326167E+0000
 21
 3.12039442893365E+0000
  0
LINE
  8
1
  6
CONTINUOUS
 62
     1
 10
 6.42263970326167E+0000
 20
 3.12039442893365E+0000
 11
 6.42263970326167E+0000
 21
 3.18079806640526E+0000
  0
LINE
  8
1
  6
CONTINUOUS
 62
     1
 10
 6.42263970326167E+0000
 20
 3.18079806640526E+0000
 11
 6.26335037661192E+0000
 21
 3.14757595029732E+0000
  0
LINE
  8
1
  6
CONTINUOUS
 62
     1
 10
 6.42263970326167E+0000
 20
 3.12039442893365E+0000
 11
 6.42263970326167E+0000
 21
 3.18079806640526E+0000
  0
LINE
  8
1
  6
CONTINUOUS
 62
     1
 10
 6.27580230657622E+0000
 20
 3.14545112242922E+0000
 11
 6.27189530836040E+0000
 21
 3.14935812064505E+0000
  0
LINE
  8
1
  6
CONTINUOUS
 62
     1
 10
 6.30070616649027E+0000
 20
 3.14120146669666E+0000
 11
 6.28898517185007E+0000
 21
 3.15292246133686E+0000
  0
LINE
  8
1
  6
CONTINUOUS
 62
     1
 10
 6.32561002641160E+0000
 20
 3.13695181096409E+0000
 11
 6.30607503533975E+0000
 21
 3.15648680203594E+0000
  0
LINE
  8
1
  6
CONTINUOUS
 62
     1
 10
 6.35051388633292E+0000
 20
 3.13270215522789E+0000
 11
 6.32316489882942E+0000
 21
 3.16005114272775E+0000
  0
LINE
  8
1
  6
CONTINUOUS
 62
     1
 10
 6.37541774624697E+0000
 20
 3.12845249949532E+0000
 11
 6.34025476232637E+0000
 21
 3.16361548342320E+0000
  0
LINE
  8
1
  6
CONTINUOUS
 62
     1
 10
 6.40032160616829E+0000
 20
 3.12420284376276E+0000
 11
 6.35734462581604E+0000
 21
 3.16717982411501E+0000
  0
LINE
  8
1
  6
CONTINUOUS
 62
     1
 10
 6.42263970326167E+0000
 20
 3.12253895085087E+0000
 11
 6.37443448930571E+0000
 21
 3.17074416481046E+0000
  0
LINE
  8
1
  6
CONTINUOUS
 62
     1
 10
 6.42263970326167E+0000
 20
 3.14319315503599E+0000
 11
 6.39152435279539E+0000
 21
 3.17430850550591E+0000
  0
LINE
  8
1
  6
CONTINUOUS
 62
     1
 10
 6.42263970326167E+0000
 20
 3.16384735922111E+0000
 11
 6.40861421628506E+0000
 21
 3.17787284619772E+0000
  0
LINE
  8
1
  6
CONTINUOUS
 62
     1
 10
 6.42263970325439E+0000
 20
 3.13072153102257E+0000
 11
 6.41381796432688E+0000
 21
 3.12189979209506E+0000
  0
LINE
  8
1
  6
CONTINUOUS
 62
     1
 10
 6.42263970325439E+0000
 20
 3.15137573520769E+0000
 11
 6.39617448647186E+0000
 21
 3.12491051842517E+0000
  0
LINE
  8
1
  6
CONTINUOUS
 62
     1
 10
 6.42263970325439E+0000
 20
 3.17202993939281E+0000
 11
 6.37853100862412E+0000
 21
 3.12792124475891E+0000
  0
LINE
  8
1
  6
CONTINUOUS
 62
     1
 10
 6.40762132360396E+0000
 20
 3.17766576392387E+0000
 11
 6.36088753076911E+0000
 21
 3.13093197109629E+0000
  0
LINE
  8
1
  6
CONTINUOUS
 62
     1
 10
 6.38152417857054E+0000
 20
 3.17222282308285E+0000
 11
 6.34324405292136E+0000
 21
 3.13394269742639E+0000
  0
LINE
  8
1
  6
CONTINUOUS
 62
     1
 10
 6.35542703353713E+0000
 20
 3.16677988223455E+0000
 11
 6.32560057506635E+0000
 21
 3.13695342376013E+0000
  0
LINE
  8
1
  6
CONTINUOUS
 62
     1
 10
 6.32932988851098E+0000
 20
 3.16133694138989E+0000
 11
 6.30795709721133E+0000
 21
 3.13996415009024E+0000
  0
LINE
  8
1
  6
CONTINUOUS
 62
     1
 10
 6.30323274348484E+0000
 20
 3.15589400054523E+0000
 11
 6.29031361935631E+0000
 21
 3.14297487642398E+0000
  0
LINE
  8
1
  6
CONTINUOUS
 62
     1
 10
 6.27713559844415E+0000
 20
 3.15045105969693E+0000
 11
 6.27267014150129E+0000
 21
 3.14598560275408E+0000
  0
LINE
  8
1
  6
CONTINUOUS
 62
     1
 10
 7.22120014002576E+0000
 20
 3.39551676234987E+0000
 11
 7.22120014002576E+0000
 21
 3.39551676234987E+0000
  0
LINE
  8
1
  6
CONTINUOUS
 62
     1
 10
 7.22120014002576E+0000
 20
 3.39551676234987E+0000
 11
 7.06191081339057E+0000
 21
 3.42269828371354E+0000
  0
LINE
  8
1
  6
CONTINUOUS
 62
     1
 10
 7.06191081339057E+0000
 20
 3.42269828371354E+0000
 11
 7.06191081339057E+0000
 21
 3.36229464624193E+0000
  0
LINE
  8
1
  6
CONTINUOUS
 62
     1
 10
 7.06191081339057E+0000
 20
 3.36229464624193E+0000
 11
 7.22120014002576E+0000
 21
 3.39551676234987E+0000
  0
LINE
  8
1
  6
CONTINUOUS
 62
     1
 10
 7.06191081339057E+0000
 20
 3.42269828371354E+0000
 11
 7.06191081339057E+0000
 21
 3.36229464624193E+0000
  0
LINE
  8
1
  6
CONTINUOUS
 62
     1
 10
 7.07045574513904E+0000
 20
 3.36407681658602E+0000
 11
 7.06191081339057E+0000
 21
 3.37262174833086E+0000
  0
LINE
  8
1
  6
CONTINUOUS
 62
     1
 10
 7.08754560862872E+0000
 20
 3.36764115728147E+0000
 11
 7.06191081339784E+0000
 21
 3.39327595251598E+0000
  0
LINE
  8
1
  6
CONTINUOUS
 62
     1
 10
 7.10463547211839E+0000
 20
 3.37120549797692E+0000
 11
 7.06191081339784E+0000
 21
 3.41393015670110E+0000
  0
LINE
  8
1
  6
CONTINUOUS
 62
     1
 10
 7.12172533560806E+0000
 20
 3.37476983867236E+0000
 11
 7.07624248156935E+0000
 21
 3.42025269270744E+0000
  0
LINE
  8
1
  6
CONTINUOUS
 62
     1
 10
 7.13881519909773E+0000
 20
 3.37833417936781E+0000
 11
 7.10114634149068E+0000
 21
 3.41600303697123E+0000
  0
LINE
  8
1
  6
CONTINUOUS
 62
     1
 10
 7.15590506258741E+0000
 20
 3.38189852006326E+0000
 11
 7.12605020141200E+0000
 21
 3.41175338123503E+0000
  0
LINE
  8
1
  6
CONTINUOUS
 62
     1
 10
 7.17299492607708E+0000
 20
 3.38546286075507E+0000
 11
 7.15095406133332E+0000
 21
 3.40750372550247E+0000
  0
LINE
  8
1
  6
CONTINUOUS
 62
     1
 10
 7.19008478956675E+0000
 20
 3.38902720145416E+0000
 11
 7.17585792125465E+0000
 21
 3.40325406976990E+0000
  0
LINE
  8
1
  6
CONTINUOUS
 62
     1
 10
 7.20717465305643E+0000
 20
 3.39259154214960E+0000
 11
 7.20076178117597E+0000
 21
 3.39900441403370E+0000
  0
LINE
  8
1
  6
CONTINUOUS
 62
     1
 10
 7.21237840109097E+0000
 20
 3.39702212551492E+0000
 11
 7.20815156750905E+0000
 21
 3.39279529192936E+0000
  0
LINE
  8
1
  6
CONTINUOUS
 62
     1
 10
 7.19473492324323E+0000
 20
 3.40003285184866E+0000
 11
 7.18205442246835E+0000
 21
 3.38735235108106E+0000
  0
LINE
  8
1
  6
CONTINUOUS
 62
     1
 10
 7.17709144538821E+0000
 20
 3.40304357817877E+0000
 11
 7.15595727743494E+0000
 21
 3.38190941023277E+0000
  0
LINE
  8
1
  6
CONTINUOUS
 62
     1
 10
 7.15944796753320E+0000
 20
 3.40605430451251E+0000
 11
 7.12986013240152E+0000
 21
 3.37646646938447E+0000
  0
LINE
  8
1
  6
CONTINUOUS
 62
     1
 10
 7.14180448967818E+0000
 20
 3.40906503084261E+0000
 11
 7.10376298737538E+0000
 21
 3.37102352853981E+0000
  0
LINE
  8
1
  6
CONTINUOUS
 62
     1
 10
 7.12416101182316E+0000
 20
 3.41207575717635E+0000
 11
 7.07766584234196E+0000
 21
 3.36558058769151E+0000
  0
LINE
  8
1
  6
CONTINUOUS
 62
     1
 10
 7.10651753397542E+0000
 20
 3.41508648350646E+0000
 11
 7.06191081338329E+0000
 21
 3.37047976291797E+0000
  0
LINE
  8
1
  6
CONTINUOUS
 62
     1
 10
 7.08887405612040E+0000
 20
 3.41809720984020E+0000
 11
 7.06191081338329E+0000
 21
 3.39113396710309E+0000
  0
LINE
  8
1
  6
CONTINUOUS
 62
     1
 10
 7.07123057826539E+0000
 20
 3.42110793617030E+0000
 11
 7.06191081338329E+0000
 21
 3.41178817128821E+0000
  0
LINE
  8
1
  6
CONTINUOUS
 62
     1
 10
 7.22120014002576E+0000
 20
 3.39551676234987E+0000
 11
 7.22120014002576E+0000
 21
 3.39551676234987E+0000
  0
LINE
  8
1
  6
CONTINUOUS
 62
     1
 10
 7.22120014002576E+0000
 20
 3.39551676234987E+0000
 11
 7.06191081339057E+0000
 21
 3.42269828371354E+0000
  0
LINE
  8
1
  6
CONTINUOUS
 62
     1
 10
 7.06191081339057E+0000
 20
 3.42269828371354E+0000
 11
 7.06191081339057E+0000
 21
 3.36229464624193E+0000
  0
LINE
  8
1
  6
CONTINUOUS
 62
     1
 10
 7.06191081339057E+0000
 20
 3.36229464624193E+0000
 11
 7.22120014002576E+0000
 21
 3.39551676234987E+0000
  0
LINE
  8
1
  6
CONTINUOUS
 62
     1
 10
 7.06191081339057E+0000
 20
 3.42269828371354E+0000
 11
 7.06191081339057E+0000
 21
 3.36229464624193E+0000
  0
LINE
  8
1
  6
CONTINUOUS
 62
     1
 10
 7.07045574513904E+0000
 20
 3.36407681658602E+0000
 11
 7.06191081339057E+0000
 21
 3.37262174833086E+0000
  0
LINE
  8
1
  6
CONTINUOUS
 62
     1
 10
 7.08754560862872E+0000
 20
 3.36764115728147E+0000
 11
 7.06191081339784E+0000
 21
 3.39327595251598E+0000
  0
LINE
  8
1
  6
CONTINUOUS
 62
     1
 10
 7.10463547211839E+0000
 20
 3.37120549797692E+0000
 11
 7.06191081339784E+0000
 21
 3.41393015670110E+0000
  0
LINE
  8
1
  6
CONTINUOUS
 62
     1
 10
 7.12172533560806E+0000
 20
 3.37476983867236E+0000
 11
 7.07624248156935E+0000
 21
 3.42025269270744E+0000
  0
LINE
  8
1
  6
CONTINUOUS
 62
     1
 10
 7.13881519909773E+0000
 20
 3.37833417936781E+0000
 11
 7.10114634149068E+0000
 21
 3.41600303697123E+0000
  0
LINE
  8
1
  6
CONTINUOUS
 62
     1
 10
 7.15590506258741E+0000
 20
 3.38189852006326E+0000
 11
 7.12605020141200E+0000
 21
 3.41175338123503E+0000
  0
LINE
  8
1
  6
CONTINUOUS
 62
     1
 10
 7.17299492607708E+0000
 20
 3.38546286075507E+0000
 11
 7.15095406133332E+0000
 21
 3.40750372550247E+0000
  0
LINE
  8
1
  6
CONTINUOUS
 62
     1
 10
 7.19008478956675E+0000
 20
 3.38902720145416E+0000
 11
 7.17585792125465E+0000
 21
 3.40325406976990E+0000
  0
LINE
  8
1
  6
CONTINUOUS
 62
     1
 10
 7.20717465305643E+0000
 20
 3.39259154214960E+0000
 11
 7.20076178117597E+0000
 21
 3.39900441403370E+0000
  0
LINE
  8
1
  6
CONTINUOUS
 62
     1
 10
 7.21237840109097E+0000
 20
 3.39702212551492E+0000
 11
 7.20815156750905E+0000
 21
 3.39279529192936E+0000
  0
LINE
  8
1
  6
CONTINUOUS
 62
     1
 10
 7.19473492324323E+0000
 20
 3.40003285184866E+0000
 11
 7.18205442246835E+0000
 21
 3.38735235108106E+0000
  0
LINE
  8
1
  6
CONTINUOUS
 62
     1
 10
 7.17709144538821E+0000
 20
 3.40304357817877E+0000
 11
 7.15595727743494E+0000
 21
 3.38190941023277E+0000
  0
LINE
  8
1
  6
CONTINUOUS
 62
     1
 10
 7.15944796753320E+0000
 20
 3.40605430451251E+0000
 11
 7.12986013240152E+0000
 21
 3.37646646938447E+0000
  0
LINE
  8
1
  6
CONTINUOUS
 62
     1
 10
 7.14180448967818E+0000
 20
 3.40906503084261E+0000
 11
 7.10376298737538E+0000
 21
 3.37102352853981E+0000
  0
LINE
  8
1
  6
CONTINUOUS
 62
     1
 10
 7.12416101182316E+0000
 20
 3.41207575717635E+0000
 11
 7.07766584234196E+0000
 21
 3.36558058769151E+0000
  0
LINE
  8
1
  6
CONTINUOUS
 62
     1
 10
 7.10651753397542E+0000
 20
 3.41508648350646E+0000
 11
 7.06191081338329E+0000
 21
 3.37047976291797E+0000
  0
LINE
  8
1
  6
CONTINUOUS
 62
     1
 10
 7.08887405612040E+0000
 20
 3.41809720984020E+0000
 11
 7.06191081338329E+0000
 21
 3.39113396710309E+0000
  0
LINE
  8
1
  6
CONTINUOUS
 62
     1
 10
 7.07123057826539E+0000
 20
 3.42110793617030E+0000
 11
 7.06191081338329E+0000
 21
 3.41178817128821E+0000
  0
LINE
  8
1
  6
CONTINUOUS
 62
     1
 10
 7.34995296004490E+0000
 20
 3.14859884748512E+0000
 11
 7.34995296004490E+0000
 21
 3.14859884748512E+0000
  0
LINE
  8
1
  6
CONTINUOUS
 62
     1
 10
 7.34995296004490E+0000
 20
 3.14859884748512E+0000
 11
 7.19066363340971E+0000
 21
 3.17578036884879E+0000
  0
LINE
  8
1
  6
CONTINUOUS
 62
     1
 10
 7.19066363340971E+0000
 20
 3.17578036884879E+0000
 11
 7.19066363340971E+0000
 21
 3.11537673137718E+0000
  0
LINE
  8
1
  6
CONTINUOUS
 62
     1
 10
 7.19066363340971E+0000
 20
 3.11537673137718E+0000
 11
 7.34995296004490E+0000
 21
 3.14859884748512E+0000
  0
LINE
  8
1
  6
CONTINUOUS
 62
     1
 10
 7.19066363340971E+0000
 20
 3.17578036884879E+0000
 11
 7.19066363340971E+0000
 21
 3.11537673137718E+0000
  0
LINE
  8
1
  6
CONTINUOUS
 62
     1
 10
 7.19920856515819E+0000
 20
 3.11715890172491E+0000
 11
 7.19066363340971E+0000
 21
 3.12570383346974E+0000
  0
LINE
  8
1
  6
CONTINUOUS
 62
     1
 10
 7.21629842864786E+0000
 20
 3.12072324242035E+0000
 11
 7.19066363340971E+0000
 21
 3.14635803765123E+0000
  0
LINE
  8
1
  6
CONTINUOUS
 62
     1
 10
 7.23338829213753E+0000
 20
 3.12428758311216E+0000
 11
 7.19066363340971E+0000
 21
 3.16701224183635E+0000
  0
LINE
  8
1
  6
CONTINUOUS
 62
     1
 10
 7.25047815562721E+0000
 20
 3.12785192380761E+0000
 11
 7.20499530158850E+0000
 21
 3.17333477784632E+0000
  0
LINE
  8
1
  6
CONTINUOUS
 62
     1
 10
 7.26756801911688E+0000
 20
 3.13141626450306E+0000
 11
 7.22989916150982E+0000
 21
 3.16908512211012E+0000
  0
LINE
  8
1
  6
CONTINUOUS
 62
     1
 10
 7.28465788260655E+0000
 20
 3.13498060519851E+0000
 11
 7.25480302143114E+0000
 21
 3.16483546637392E+0000
  0
LINE
  8
1
  6
CONTINUOUS
 62
     1
 10
 7.30174774609623E+0000
 20
 3.13854494589395E+0000
 11
 7.27970688135247E+0000
 21
 3.16058581063771E+0000
  0
LINE
  8
1
  6
CONTINUOUS
 62
     1
 10
 7.31883760958590E+0000
 20
 3.14210928658576E+0000
 11
 7.30461074127379E+0000
 21
 3.15633615490151E+0000
  0
LINE
  8
1
  6
CONTINUOUS
 62
     1
 10
 7.33592747307557E+0000
 20
 3.14567362728485E+0000
 11
 7.32951460119511E+0000
 21
 3.15208649916895E+0000
  0
LINE
  8
1
  6
CONTINUOUS
 62
     1
 10
 7.34113122111012E+0000
 20
 3.15010421065017E+0000
 11
 7.33690438752819E+0000
 21
 3.14587737706461E+0000
  0
LINE
  8
1
  6
CONTINUOUS
 62
     1
 10
 7.32348774326238E+0000
 20
 3.15311493698391E+0000
 11
 7.31080724249477E+0000
 21
 3.14043443621631E+0000
  0
LINE
  8
1
  6
CONTINUOUS
 62
     1
 10
 7.30584426540736E+0000
 20
 3.15612566331401E+0000
 11
 7.28471009746136E+0000
 21
 3.13499149536801E+0000
  0
LINE
  8
1
  6
CONTINUOUS
 62
     1
 10
 7.28820078755234E+0000
 20
 3.15913638964776E+0000
 11
 7.25861295242066E+0000
 21
 3.12954855451972E+0000
  0
LINE
  8
1
  6
CONTINUOUS
 62
     1
 10
 7.27055730969732E+0000
 20
 3.16214711597786E+0000
 11
 7.23251580739452E+0000
 21
 3.12410561367506E+0000
  0
LINE
  8
1
  6
CONTINUOUS
 62
     1
 10
 7.25291383184231E+0000
 20
 3.16515784231160E+0000
 11
 7.20641866236110E+0000
 21
 3.11866267282676E+0000
  0
LINE
  8
1
  6
CONTINUOUS
 62
     1
 10
 7.23527035399457E+0000
 20
 3.16816856864170E+0000
 11
 7.19066363340244E+0000
 21
 3.12356184805321E+0000
  0
LINE
  8
1
  6
CONTINUOUS
 62
     1
 10
 7.21762687613955E+0000
 20
 3.17117929497181E+0000
 11
 7.19066363340244E+0000
 21
 3.14421605223833E+0000
  0
LINE
  8
1
  6
CONTINUOUS
 62
     1
 10
 7.19998339828453E+0000
 20
 3.17419002130555E+0000
 11
 7.19066363340244E+0000
 21
 3.16487025642346E+0000
  0
LINE
  8
1
  6
CONTINUOUS
 62
     1
 10
 7.34995296004490E+0000
 20
 3.14859884748512E+0000
 11
 7.34995296004490E+0000
 21
 3.14859884748512E+0000
  0
LINE
  8
1
  6
CONTINUOUS
 62
     1
 10
 7.34995296004490E+0000
 20
 3.14859884748512E+0000
 11
 7.19066363340971E+0000
 21
 3.17578036884879E+0000
  0
LINE
  8
1
  6
CONTINUOUS
 62
     1
 10
 7.19066363340971E+0000
 20
 3.17578036884879E+0000
 11
 7.19066363340971E+0000
 21
 3.11537673137718E+0000
  0
LINE
  8
1
  6
CONTINUOUS
 62
     1
 10
 7.19066363340971E+0000
 20
 3.11537673137718E+0000
 11
 7.34995296004490E+0000
 21
 3.14859884748512E+0000
  0
LINE
  8
1
  6
CONTINUOUS
 62
     1
 10
 7.19066363340971E+0000
 20
 3.17578036884879E+0000
 11
 7.19066363340971E+0000
 21
 3.11537673137718E+0000
  0
LINE
  8
1
  6
CONTINUOUS
 62
     1
 10
 7.19920856515819E+0000
 20
 3.11715890172491E+0000
 11
 7.19066363340971E+0000
 21
 3.12570383346974E+0000
  0
LINE
  8
1
  6
CONTINUOUS
 62
     1
 10
 7.21629842864786E+0000
 20
 3.12072324242035E+0000
 11
 7.19066363340971E+0000
 21
 3.14635803765123E+0000
  0
LINE
  8
1
  6
CONTINUOUS
 62
     1
 10
 7.23338829213753E+0000
 20
 3.12428758311216E+0000
 11
 7.19066363340971E+0000
 21
 3.16701224183635E+0000
  0
LINE
  8
1
  6
CONTINUOUS
 62
     1
 10
 7.25047815562721E+0000
 20
 3.12785192380761E+0000
 11
 7.20499530158850E+0000
 21
 3.17333477784632E+0000
  0
LINE
  8
1
  6
CONTINUOUS
 62
     1
 10
 7.26756801911688E+0000
 20
 3.13141626450306E+0000
 11
 7.22989916150982E+0000
 21
 3.16908512211012E+0000
  0
LINE
  8
1
  6
CONTINUOUS
 62
     1
 10
 7.28465788260655E+0000
 20
 3.13498060519851E+0000
 11
 7.25480302143114E+0000
 21
 3.16483546637392E+0000
  0
LINE
  8
1
  6
CONTINUOUS
 62
     1
 10
 7.30174774609623E+0000
 20
 3.13854494589395E+0000
 11
 7.27970688135247E+0000
 21
 3.16058581063771E+0000
  0
LINE
  8
1
  6
CONTINUOUS
 62
     1
 10
 7.31883760958590E+0000
 20
 3.14210928658576E+0000
 11
 7.30461074127379E+0000
 21
 3.15633615490151E+0000
  0
LINE
  8
1
  6
CONTINUOUS
 62
     1
 10
 7.33592747307557E+0000
 20
 3.14567362728485E+0000
 11
 7.32951460119511E+0000
 21
 3.15208649916895E+0000
  0
LINE
  8
1
  6
CONTINUOUS
 62
     1
 10
 7.34113122111012E+0000
 20
 3.15010421065017E+0000
 11
 7.33690438752819E+0000
 21
 3.14587737706461E+0000
  0
LINE
  8
1
  6
CONTINUOUS
 62
     1
 10
 7.32348774326238E+0000
 20
 3.15311493698391E+0000
 11
 7.31080724249477E+0000
 21
 3.14043443621631E+0000
  0
LINE
  8
1
  6
CONTINUOUS
 62
     1
 10
 7.30584426540736E+0000
 20
 3.15612566331401E+0000
 11
 7.28471009746136E+0000
 21
 3.13499149536801E+0000
  0
LINE
  8
1
  6
CONTINUOUS
 62
     1
 10
 7.28820078755234E+0000
 20
 3.15913638964776E+0000
 11
 7.25861295242066E+0000
 21
 3.12954855451972E+0000
  0
LINE
  8
1
  6
CONTINUOUS
 62
     1
 10
 7.27055730969732E+0000
 20
 3.16214711597786E+0000
 11
 7.23251580739452E+0000
 21
 3.12410561367506E+0000
  0
LINE
  8
1
  6
CONTINUOUS
 62
     1
 10
 7.25291383184231E+0000
 20
 3.16515784231160E+0000
 11
 7.20641866236110E+0000
 21
 3.11866267282676E+0000
  0
LINE
  8
1
  6
CONTINUOUS
 62
     1
 10
 7.23527035399457E+0000
 20
 3.16816856864170E+0000
 11
 7.19066363340244E+0000
 21
 3.12356184805321E+0000
  0
LINE
  8
1
  6
CONTINUOUS
 62
     1
 10
 7.21762687613955E+0000
 20
 3.17117929497181E+0000
 11
 7.19066363340244E+0000
 21
 3.14421605223833E+0000
  0
LINE
  8
1
  6
CONTINUOUS
 62
     1
 10
 7.19998339828453E+0000
 20
 3.17419002130555E+0000
 11
 7.19066363340244E+0000
 21
 3.16487025642346E+0000
  0
LINE
  8
1
  6
CONTINUOUS
 62
     1
 10
 7.35495037250075E+0000
 20
 3.14757595029732E+0000
 11
 7.35495037250075E+0000
 21
 3.14757595029732E+0000
  0
LINE
  8
1
  6
CONTINUOUS
 62
     1
 10
 7.35495037250075E+0000
 20
 3.14757595029732E+0000
 11
 7.51423969915049E+0000
 21
 3.12039442893365E+0000
  0
LINE
  8
1
  6
CONTINUOUS
 62
     1
 10
 7.51423969915049E+0000
 20
 3.12039442893365E+0000
 11
 7.51423969915049E+0000
 21
 3.18079806640526E+0000
  0
LINE
  8
1
  6
CONTINUOUS
 62
     1
 10
 7.51423969915049E+0000
 20
 3.18079806640526E+0000
 11
 7.35495037250075E+0000
 21
 3.14757595029732E+0000
  0
LINE
  8
1
  6
CONTINUOUS
 62
     1
 10
 7.51423969915049E+0000
 20
 3.12039442893365E+0000
 11
 7.51423969915049E+0000
 21
 3.18079806640526E+0000
  0
LINE
  8
1
  6
CONTINUOUS
 62
     1
 10
 7.36740230246505E+0000
 20
 3.14545112242922E+0000
 11
 7.36349530424923E+0000
 21
 3.14935812064141E+0000
  0
LINE
  8
1
  6
CONTINUOUS
 62
     1
 10
 7.39230616237910E+0000
 20
 3.14120146669302E+0000
 11
 7.38058516773890E+0000
 21
 3.15292246133686E+0000
  0
LINE
  8
1
  6
CONTINUOUS
 62
     1
 10
 7.41721002230042E+0000
 20
 3.13695181096045E+0000
 11
 7.39767503122857E+0000
 21
 3.15648680203230E+0000
  0
LINE
  8
1
  6
CONTINUOUS
 62
     1
 10
 7.44211388222175E+0000
 20
 3.13270215522425E+0000
 11
 7.41476489471825E+0000
 21
 3.16005114272411E+0000
  0
LINE
  8
1
  6
CONTINUOUS
 62
     1
 10
 7.46701774213579E+0000
 20
 3.12845249949169E+0000
 11
 7.43185475820792E+0000
 21
 3.16361548342320E+0000
  0
LINE
  8
1
  6
CONTINUOUS
 62
     1
 10
 7.49192160205712E+0000
 20
 3.12420284375912E+0000
 11
 7.44894462170487E+0000
 21
 3.16717982411501E+0000
  0
LINE
  8
1
  6
CONTINUOUS
 62
     1
 10
 7.51423969915049E+0000
 20
 3.12253895085087E+0000
 11
 7.46603448519454E+0000
 21
 3.17074416481046E+0000
  0
LINE
  8
1
  6
CONTINUOUS
 62
     1
 10
 7.51423969915049E+0000
 20
 3.14319315503599E+0000
 11
 7.48312434868421E+0000
 21
 3.17430850550591E+0000
  0
LINE
  8
1
  6
CONTINUOUS
 62
     1
 10
 7.51423969915049E+0000
 20
 3.16384735922111E+0000
 11
 7.50021421217389E+0000
 21
 3.17787284619772E+0000
  0
LINE
  8
1
  6
CONTINUOUS
 62
     1
 10
 7.51423969914322E+0000
 20
 3.13072153102621E+0000
 11
 7.50541796021571E+0000
 21
 3.12189979209870E+0000
  0
LINE
  8
1
  6
CONTINUOUS
 62
     1
 10
 7.51423969914322E+0000
 20
 3.15137573521133E+0000
 11
 7.48777448236797E+0000
 21
 3.12491051843244E+0000
  0
LINE
  8
1
  6
CONTINUOUS
 62
     1
 10
 7.51423969914322E+0000
 20
 3.17202993939645E+0000
 11
 7.47013100451295E+0000
 21
 3.12792124476255E+0000
  0
LINE
  8
1
  6
CONTINUOUS
 62
     1
 10
 7.49922131948551E+0000
 20
 3.17766576392387E+0000
 11
 7.45248752665793E+0000
 21
 3.13093197109629E+0000
  0
LINE
  8
1
  6
CONTINUOUS
 62
     1
 10
 7.47312417445937E+0000
 20
 3.17222282307921E+0000
 11
 7.43484404880292E+0000
 21
 3.13394269742639E+0000
  0
LINE
  8
1
  6
CONTINUOUS
 62
     1
 10
 7.44702702942595E+0000
 20
 3.16677988223091E+0000
 11
 7.41720057094790E+0000
 21
 3.13695342376013E+0000
  0
LINE
  8
1
  6
CONTINUOUS
 62
     1
 10
 7.42092988439981E+0000
 20
 3.16133694138989E+0000
 11
 7.39955709310016E+0000
 21
 3.13996415009024E+0000
  0
LINE
  8
1
  6
CONTINUOUS
 62
     1
 10
 7.39483273935912E+0000
 20
 3.15589400054159E+0000
 11
 7.38191361524514E+0000
 21
 3.14297487642034E+0000
  0
LINE
  8
1
  6
CONTINUOUS
 62
     1
 10
 7.36873559432570E+0000
 20
 3.15045105969330E+0000
 11
 7.36427013739012E+0000
 21
 3.14598560275408E+0000
  0
LINE
  8
1
  6
CONTINUOUS
 62
     1
 10
 7.35495037250075E+0000
 20
 3.14757595029732E+0000
 11
 7.35495037250075E+0000
 21
 3.14757595029732E+0000
  0
LINE
  8
1
  6
CONTINUOUS
 62
     1
 10
 7.35495037250075E+0000
 20
 3.14757595029732E+0000
 11
 7.51423969915049E+0000
 21
 3.12039442893365E+0000
  0
LINE
  8
1
  6
CONTINUOUS
 62
     1
 10
 7.51423969915049E+0000
 20
 3.12039442893365E+0000
 11
 7.51423969915049E+0000
 21
 3.18079806640526E+0000
  0
LINE
  8
1
  6
CONTINUOUS
 62
     1
 10
 7.51423969915049E+0000
 20
 3.18079806640526E+0000
 11
 7.35495037250075E+0000
 21
 3.14757595029732E+0000
  0
LINE
  8
1
  6
CONTINUOUS
 62
     1
 10
 7.51423969915049E+0000
 20
 3.12039442893365E+0000
 11
 7.51423969915049E+0000
 21
 3.18079806640526E+0000
  0
LINE
  8
1
  6
CONTINUOUS
 62
     1
 10
 7.36740230246505E+0000
 20
 3.14545112242922E+0000
 11
 7.36349530424923E+0000
 21
 3.14935812064141E+0000
  0
LINE
  8
1
  6
CONTINUOUS
 62
     1
 10
 7.39230616237910E+0000
 20
 3.14120146669302E+0000
 11
 7.38058516773890E+0000
 21
 3.15292246133686E+0000
  0
LINE
  8
1
  6
CONTINUOUS
 62
     1
 10
 7.41721002230042E+0000
 20
 3.13695181096045E+0000
 11
 7.39767503122857E+0000
 21
 3.15648680203230E+0000
  0
LINE
  8
1
  6
CONTINUOUS
 62
     1
 10
 7.44211388222175E+0000
 20
 3.13270215522425E+0000
 11
 7.41476489471825E+0000
 21
 3.16005114272411E+0000
  0
LINE
  8
1
  6
CONTINUOUS
 62
     1
 10
 7.46701774213579E+0000
 20
 3.12845249949169E+0000
 11
 7.43185475820792E+0000
 21
 3.16361548342320E+0000
  0
LINE
  8
1
  6
CONTINUOUS
 62
     1
 10
 7.49192160205712E+0000
 20
 3.12420284375912E+0000
 11
 7.44894462170487E+0000
 21
 3.16717982411501E+0000
  0
LINE
  8
1
  6
CONTINUOUS
 62
     1
 10
 7.51423969915049E+0000
 20
 3.12253895085087E+0000
 11
 7.46603448519454E+0000
 21
 3.17074416481046E+0000
  0
LINE
  8
1
  6
CONTINUOUS
 62
     1
 10
 7.51423969915049E+0000
 20
 3.14319315503599E+0000
 11
 7.48312434868421E+0000
 21
 3.17430850550591E+0000
  0
LINE
  8
1
  6
CONTINUOUS
 62
     1
 10
 7.51423969915049E+0000
 20
 3.16384735922111E+0000
 11
 7.50021421217389E+0000
 21
 3.17787284619772E+0000
  0
LINE
  8
1
  6
CONTINUOUS
 62
     1
 10
 7.51423969914322E+0000
 20
 3.13072153102621E+0000
 11
 7.50541796021571E+0000
 21
 3.12189979209870E+0000
  0
LINE
  8
1
  6
CONTINUOUS
 62
     1
 10
 7.51423969914322E+0000
 20
 3.15137573521133E+0000
 11
 7.48777448236797E+0000
 21
 3.12491051843244E+0000
  0
LINE
  8
1
  6
CONTINUOUS
 62
     1
 10
 7.51423969914322E+0000
 20
 3.17202993939645E+0000
 11
 7.47013100451295E+0000
 21
 3.12792124476255E+0000
  0
LINE
  8
1
  6
CONTINUOUS
 62
     1
 10
 7.49922131948551E+0000
 20
 3.17766576392387E+0000
 11
 7.45248752665793E+0000
 21
 3.13093197109629E+0000
  0
LINE
  8
1
  6
CONTINUOUS
 62
     1
 10
 7.47312417445937E+0000
 20
 3.17222282307921E+0000
 11
 7.43484404880292E+0000
 21
 3.13394269742639E+0000
  0
LINE
  8
1
  6
CONTINUOUS
 62
     1
 10
 7.44702702942595E+0000
 20
 3.16677988223091E+0000
 11
 7.41720057094790E+0000
 21
 3.13695342376013E+0000
  0
LINE
  8
1
  6
CONTINUOUS
 62
     1
 10
 7.42092988439981E+0000
 20
 3.16133694138989E+0000
 11
 7.39955709310016E+0000
 21
 3.13996415009024E+0000
  0
LINE
  8
1
  6
CONTINUOUS
 62
     1
 10
 7.39483273935912E+0000
 20
 3.15589400054159E+0000
 11
 7.38191361524514E+0000
 21
 3.14297487642034E+0000
  0
LINE
  8
1
  6
CONTINUOUS
 62
     1
 10
 7.36873559432570E+0000
 20
 3.15045105969330E+0000
 11
 7.36427013739012E+0000
 21
 3.14598560275408E+0000
  0
LINE
  8
1
  6
CONTINUOUS
 62
     1
 10
 7.96572731670312E+0000
 20
 3.14859884748512E+0000
 11
 7.96572731670312E+0000
 21
 3.14859884748512E+0000
  0
LINE
  8
1
  6
CONTINUOUS
 62
     1
 10
 7.96572731670312E+0000
 20
 3.14859884748512E+0000
 11
 7.80643799006793E+0000
 21
 3.17578036884879E+0000
  0
LINE
  8
1
  6
CONTINUOUS
 62
     1
 10
 7.80643799006793E+0000
 20
 3.17578036884879E+0000
 11
 7.80643799006793E+0000
 21
 3.11537673137718E+0000
  0
LINE
  8
1
  6
CONTINUOUS
 62
     1
 10
 7.80643799006793E+0000
 20
 3.11537673137718E+0000
 11
 7.96572731670312E+0000
 21
 3.14859884748512E+0000
  0
LINE
  8
1
  6
CONTINUOUS
 62
     1
 10
 7.80643799006793E+0000
 20
 3.17578036884879E+0000
 11
 7.80643799006793E+0000
 21
 3.11537673137718E+0000
  0
LINE
  8
1
  6
CONTINUOUS
 62
     1
 10
 7.81498292181641E+0000
 20
 3.11715890172491E+0000
 11
 7.80643799006793E+0000
 21
 3.12570383347338E+0000
  0
LINE
  8
1
  6
CONTINUOUS
 62
     1
 10
 7.83207278530608E+0000
 20
 3.12072324242035E+0000
 11
 7.80643799006793E+0000
 21
 3.14635803766214E+0000
  0
LINE
  8
1
  6
CONTINUOUS
 62
     1
 10
 7.84916264879575E+0000
 20
 3.12428758311580E+0000
 11
 7.80643799006793E+0000
 21
 3.16701224184726E+0000
  0
LINE
  8
1
  6
CONTINUOUS
 62
     1
 10
 7.86625251229270E+0000
 20
 3.12785192381125E+0000
 11
 7.82076965826127E+0000
 21
 3.17333477783905E+0000
  0
LINE
  8
1
  6
CONTINUOUS
 62
     1
 10
 7.88334237578238E+0000
 20
 3.13141626450306E+0000
 11
 7.84567351818259E+0000
 21
 3.16908512210284E+0000
  0
LINE
  8
1
  6
CONTINUOUS
 62
     1
 10
 7.90043223927205E+0000
 20
 3.13498060519851E+0000
 11
 7.87057737810392E+0000
 21
 3.16483546637028E+0000
  0
LINE
  8
1
  6
CONTINUOUS
 62
     1
 10
 7.91752210276172E+0000
 20
 3.13854494589395E+0000
 11
 7.89548123802524E+0000
 21
 3.16058581063407E+0000
  0
LINE
  8
1
  6
CONTINUOUS
 62
     1
 10
 7.93461196625140E+0000
 20
 3.14210928658576E+0000
 11
 7.92038509794656E+0000
 21
 3.15633615489787E+0000
  0
LINE
  8
1
  6
CONTINUOUS
 62
     1
 10
 7.95170182974834E+0000
 20
 3.14567362728121E+0000
 11
 7.94528895786789E+0000
 21
 3.15208649916167E+0000
  0
LINE
  8
1
  6
CONTINUOUS
 62
     1
 10
 7.95690557776834E+0000
 20
 3.15010421064653E+0000
 11
 7.95267874417914E+0000
 21
 3.14587737706097E+0000
  0
LINE
  8
1
  6
CONTINUOUS
 62
     1
 10
 7.93926209991332E+0000
 20
 3.15311493698027E+0000
 11
 7.92658159914572E+0000
 21
 3.14043443621267E+0000
  0
LINE
  8
1
  6
CONTINUOUS
 62
     1
 10
 7.92161862206558E+0000
 20
 3.15612566331038E+0000
 11
 7.90048445411230E+0000
 21
 3.13499149536437E+0000
  0
LINE
  8
1
  6
CONTINUOUS
 62
     1
 10
 7.90397514421056E+0000
 20
 3.15913638964776E+0000
 11
 7.87438730908616E+0000
 21
 3.12954855451972E+0000
  0
LINE
  8
1
  6
CONTINUOUS
 62
     1
 10
 7.88633166636282E+0000
 20
 3.16214711598150E+0000
 11
 7.84829016405274E+0000
 21
 3.12410561367142E+0000
  0
LINE
  8
1
  6
CONTINUOUS
 62
     1
 10
 7.86868818850780E+0000
 20
 3.16515784231160E+0000
 11
 7.82219301902660E+0000
 21
 3.11866267282676E+0000
  0
LINE
  8
1
  6
CONTINUOUS
 62
     1
 10
 7.85104471065279E+0000
 20
 3.16816856864534E+0000
 11
 7.80643799006066E+0000
 21
 3.12356184804958E+0000
  0
LINE
  8
1
  6
CONTINUOUS
 62
     1
 10
 7.83340123279777E+0000
 20
 3.17117929497545E+0000
 11
 7.80643799006066E+0000
 21
 3.14421605223470E+0000
  0
LINE
  8
1
  6
CONTINUOUS
 62
     1
 10
 7.81575775494275E+0000
 20
 3.17419002130919E+0000
 11
 7.80643799006066E+0000
 21
 3.16487025641982E+0000
  0
LINE
  8
1
  6
CONTINUOUS
 62
     1
 10
 7.96572731670312E+0000
 20
 3.14859884748512E+0000
 11
 7.96572731670312E+0000
 21
 3.14859884748512E+0000
  0
LINE
  8
1
  6
CONTINUOUS
 62
     1
 10
 7.96572731670312E+0000
 20
 3.14859884748512E+0000
 11
 7.80643799006793E+0000
 21
 3.17578036884879E+0000
  0
LINE
  8
1
  6
CONTINUOUS
 62
     1
 10
 7.80643799006793E+0000
 20
 3.17578036884879E+0000
 11
 7.80643799006793E+0000
 21
 3.11537673137718E+0000
  0
LINE
  8
1
  6
CONTINUOUS
 62
     1
 10
 7.80643799006793E+0000
 20
 3.11537673137718E+0000
 11
 7.96572731670312E+0000
 21
 3.14859884748512E+0000
  0
LINE
  8
1
  6
CONTINUOUS
 62
     1
 10
 7.80643799006793E+0000
 20
 3.17578036884879E+0000
 11
 7.80643799006793E+0000
 21
 3.11537673137718E+0000
  0
LINE
  8
1
  6
CONTINUOUS
 62
     1
 10
 7.81498292181641E+0000
 20
 3.11715890172491E+0000
 11
 7.80643799006793E+0000
 21
 3.12570383347338E+0000
  0
LINE
  8
1
  6
CONTINUOUS
 62
     1
 10
 7.83207278530608E+0000
 20
 3.12072324242035E+0000
 11
 7.80643799006793E+0000
 21
 3.14635803766214E+0000
  0
LINE
  8
1
  6
CONTINUOUS
 62
     1
 10
 7.84916264879575E+0000
 20
 3.12428758311580E+0000
 11
 7.80643799006793E+0000
 21
 3.16701224184726E+0000
  0
LINE
  8
1
  6
CONTINUOUS
 62
     1
 10
 7.86625251229270E+0000
 20
 3.12785192381125E+0000
 11
 7.82076965826127E+0000
 21
 3.17333477783905E+0000
  0
LINE
  8
1
  6
CONTINUOUS
 62
     1
 10
 7.88334237578238E+0000
 20
 3.13141626450306E+0000
 11
 7.84567351818259E+0000
 21
 3.16908512210284E+0000
  0
LINE
  8
1
  6
CONTINUOUS
 62
     1
 10
 7.90043223927205E+0000
 20
 3.13498060519851E+0000
 11
 7.87057737810392E+0000
 21
 3.16483546637028E+0000
  0
LINE
  8
1
  6
CONTINUOUS
 62
     1
 10
 7.91752210276172E+0000
 20
 3.13854494589395E+0000
 11
 7.89548123802524E+0000
 21
 3.16058581063407E+0000
  0
LINE
  8
1
  6
CONTINUOUS
 62
     1
 10
 7.93461196625140E+0000
 20
 3.14210928658576E+0000
 11
 7.92038509794656E+0000
 21
 3.15633615489787E+0000
  0
LINE
  8
1
  6
CONTINUOUS
 62
     1
 10
 7.95170182974834E+0000
 20
 3.14567362728121E+0000
 11
 7.94528895786789E+0000
 21
 3.15208649916167E+0000
  0
LINE
  8
1
  6
CONTINUOUS
 62
     1
 10
 7.95690557776834E+0000
 20
 3.15010421064653E+0000
 11
 7.95267874417914E+0000
 21
 3.14587737706097E+0000
  0
LINE
  8
1
  6
CONTINUOUS
 62
     1
 10
 7.93926209991332E+0000
 20
 3.15311493698027E+0000
 11
 7.92658159914572E+0000
 21
 3.14043443621267E+0000
  0
LINE
  8
1
  6
CONTINUOUS
 62
     1
 10
 7.92161862206558E+0000
 20
 3.15612566331038E+0000
 11
 7.90048445411230E+0000
 21
 3.13499149536437E+0000
  0
LINE
  8
1
  6
CONTINUOUS
 62
     1
 10
 7.90397514421056E+0000
 20
 3.15913638964776E+0000
 11
 7.87438730908616E+0000
 21
 3.12954855451972E+0000
  0
LINE
  8
1
  6
CONTINUOUS
 62
     1
 10
 7.88633166636282E+0000
 20
 3.16214711598150E+0000
 11
 7.84829016405274E+0000
 21
 3.12410561367142E+0000
  0
LINE
  8
1
  6
CONTINUOUS
 62
     1
 10
 7.86868818850780E+0000
 20
 3.16515784231160E+0000
 11
 7.82219301902660E+0000
 21
 3.11866267282676E+0000
  0
LINE
  8
1
  6
CONTINUOUS
 62
     1
 10
 7.85104471065279E+0000
 20
 3.16816856864534E+0000
 11
 7.80643799006066E+0000
 21
 3.12356184804958E+0000
  0
LINE
  8
1
  6
CONTINUOUS
 62
     1
 10
 7.83340123279777E+0000
 20
 3.17117929497545E+0000
 11
 7.80643799006066E+0000
 21
 3.14421605223470E+0000
  0
LINE
  8
1
  6
CONTINUOUS
 62
     1
 10
 7.81575775494275E+0000
 20
 3.17419002130919E+0000
 11
 7.80643799006066E+0000
 21
 3.16487025641982E+0000
  0
LINE
  8
1
  6
DASHDOT
 62
     1
 10
 7.13174571979471E+0000
 20
 4.30080463934428E+0000
 11
 8.08399348455714E+0000
 21
 4.30080463934428E+0000
  0
TEXT
  8
1
 62
     1
 10
 6.59117878262623E+0000
 20
 3.74138323224906E+0000
 40
 1.18110236219991E-0001
  1
3.5
  7
STANDARD
 11
 6.59117878262623E+0000
 21
 3.85949346846974E+0000
 50
 0.00000000000000E+0000
 41
 2.56976661400131E-0001
  0
LINE
  8
1
  6
CONTINUOUS
 62
     1
 10
 6.56116263236618E+0000
 20
 3.72107825313651E+0000
 11
 6.75926922402869E+0000
 21
 3.72107825313651E+0000
  0
TEXT
  8
1
 62
     1
 10
 6.60318524271861E+0000
 20
 3.42844448453616E+0000
 40
 1.18110236219991E-0001
  1
15
  7
STANDARD
 11
 6.60318524271861E+0000
 21
 3.54655472075683E+0000
 50
 0.00000000000000E+0000
 41
 3.08371993680339E-0001
  0
TEXT
  8
1
 62
     1
 10
 6.62119493287173E+0000
 20
 3.17568626522916E+0000
 40
 1.18110236219991E-0001
  1
18
  7
STANDARD
 11
 6.62119493287173E+0000
 21
 3.29379650144983E+0000
 50
 0.00000000000000E+0000
 41
 3.08371993680339E-0001
  0
TEXT
  8
1
 62
     1
 10
 7.53368590053287E+0000
 20
 3.16966821238748E+0000
 40
 1.18110236219991E-0001
  1
16
  7
STANDARD
 11
 7.53368590053287E+0000
 21
 3.28777844860815E+0000
 50
 0.00000000000000E+0000
 41
 3.08371993680339E-0001
  0
TEXT
  8
1
 62
     1
 10
 5.38122424790345E+0000
 20
 4.01940786882187E+0000
 40
 1.18110236219991E-0001
  1
17 -0.01
  7
STANDARD
 11
 5.38122424790345E+0000
 21
 4.13751810503891E+0000
 50
 9.00000000000000E+0001
 41
 2.50552244865503E-0001
  0
TEXT
  8
1
 62
     1
 10
 5.76873626572342E+0000
 20
 4.07839419133234E+0000
 40
 1.18110236219991E-0001
  1
6.5
  7
STANDARD
 11
 5.76873626572342E+0000
 21
 4.19650442754937E+0000
 50
 9.00000000000000E+0001
 41
 2.56976661400131E-0001
  0
TEXT
  8
1
 62
     1
 10
 8.15201859571971E+0000
 20
 4.06635808564897E+0000
 40
 1.18110236219991E-0001
  1
M8
  7
STANDARD
 11
 8.15201859571971E+0000
 21
 4.18446832186601E+0000
 50
 9.00000000000000E+0001
 41
 3.46918492890381E-0001
  0
TEXT
  8
1
 62
     1
 10
 8.50620916869957E+0000
 20
 4.06635808564897E+0000
 40
 1.18110236219991E-0001
  1
39
  7
STANDARD
 11
 8.50620916869957E+0000
 21
 4.18446832186601E+0000
 50
 9.00000000000000E+0001
 41
 3.08371993680339E-0001
  0
TEXT
  8
1
 62
     1
 10
 9.14466959168203E+0000
 20
 3.93824609382136E-0001
 40
 1.18110236219991E-0001
  1
(c)
  7
STANDARD
 11
 9.14466959168203E+0000
 21
 5.11934845601900E-0001
 50
 0.00000000000000E+0000
 41
 2.05581329120378E-0001
0
ENDSEC
0
EOF
