0
SECTION
  2
HEADER
  9
$LTSCALE
 40
     10
  9
$LIMMIN
 10
     0.0
 20
     0.0
  9
$LIMMAX
 10
      11.5
 20
       8.0
  9
$EXTMIN
 10
     0.0
 20
     0.0
  9
$EXTMAX
 10
      11.5
 20
       8.0
   9
$CLAYER
   8
1
   9
$CECOLOR
  62
     7
   9
$CELTYPE
   6
CONTINUOUS
  0
ENDSEC
  0
SECTION
  2
TABLES
  0
TABLE
  2
LTYPE
 70
    10
  0
LTYPE
  2
CONTINUOUS
 70
    64
  3
Solid line
 72
    65
 73
     0
 40
0.0
  0
LTYPE
  2
DASHED
 70
     0
  3
__ __ __ __ __ __ __ __ __ __ __ __ __ __ __
 72
    65
 73
     2
 40
0.75
 49
0.5
 49
-0.25
  0
LTYPE
  2
HIDDEN
 70
     0
  3
_ _ _ _ _ _ _ _ _ _ _ _ _ _ _ _ _ _ _ _ _ _
 72
    65
 73
     2
 40
0.375
 49
0.25
 49
-0.125
  0
LTYPE
  2
CENTER
 70
     0
  3
____ _ ____ _ ____ _ ____ _ ____ _ ____ _ __
 72
    65
 73
     4
 40
2.0
 49
1.25
 49
-0.25
 49
0.25
 49
-0.25
  0
LTYPE
  2
PHANTOM
 70
     0
  3
_____ _ _ _____ _ _ _____ _ _ _____ _ _ ____
 72
    65
 73
     6
 40
2.5
 49
1.25
 49
-0.25
 49
0.25
 49
-0.25
 49
0.25
 49
-0.25
  0
LTYPE
  2
DOT
 70
     0
  3
............................................
 72
    65
 73
     2
 40
0.25
 49
0.0
 49
-0.25
  0
LTYPE
  2
DASHDOT
 70
     0
  3
__ . __ . __ . __ . __ . __ . __ . __ . __ .
 72
    65
 73
     4
 40
1.0
 49
0.5
 49
-0.25
 49
0.0
 49
-0.25
  0
LTYPE
  2
BORDER
 70
     0
  3
__ __ . __ __ . __ __ . __ __ . __ __ . __ _
 72
    65
 73
     6
 40
1.75
 49
0.5
 49
-0.25
 49
0.5
 49
-0.25
 49
0.0
 49
-0.25
  0
LTYPE
  2
DIVIDE
 70
     0
  3
__ . . __ . . __ . . __ . . __ . . __ . . __
 72
    65
 73
     6
 40
1.25
 49
0.5
 49
-0.25
 49
0.0
 49
-0.25
 49
0.0
 49
-0.25
  0
LTYPE
  2
DIVIDE2
 70
     0
  3
close
 72
    65
 73
     2
 40
0.1
 49
0.05
 49
-0.05
  0
ENDTAB
0
TABLE
  2
LAYER
 70
   256
  0
LAYER
  2
1
 70
     0
  6
CONTINUOUS
 62
1
  0
ENDTAB
  0
TABLE
  2
STYLE
 70
     8
  0
STYLE
  2
TXT
 70
0
 40
0.0
 41
1.0
 50
0.0
 71
0
 42
1.0
  3
TXT
  4

  0
STYLE
  2
COMPLEX
 70
0
 40
0.0
 41
1.0
 50
0.0
 71
0
 42
1.0
  3
COMPLEX
  4

  0
STYLE
  2
ITALIC
 70
0
 40
0.0
 41
1.0
 50
0.0
 71
0
 42
1.0
  3
ITALIC
  4

  0
STYLE
  2
SIMPLEX
70
0
 40
0.0
 41
1.0
 50
0.0
 71
0
 42
1.0
  3
SIMPLEX
  4

  0
STYLE
  2
MONOTXT
 70
0
 40
0.0
 41
1.0
 50
0.0
 71
0
 42
1.0
  3
MONOTXT
  4

  0
STYLE
  2
SCRIPTC
 70
0
 40
0.0
 41
1.0
 50
0.0
 71
0
 42
1.0
  3
SCRIPTC
  4

  0
STYLE
  2
GOTHICE
 70
0
 40
0.0
 41
1.0
 50
0.0
 71
0
 42
1.0
  3
GOTHICE
  4

  0
ENDTAB
  0
TABLE
  2
VIEW
 70
     0
  0
ENDTAB
  0
ENDSEC
  0
SECTION
  2
ENTITIES
  0
LINE
  8
1
  6
CONTINUOUS
 62
     0
 10
 1.10824245900876E+0001
 20
 3.66054472739052E-0001
 11
 8.90078496305796E+0000
 21
 3.66054472739052E-0001
  0
LINE
  8
1
  6
CONTINUOUS
 62
     0
 10
 8.90078496305796E+0000
 20
 3.66054472739052E-0001
 11
 8.90078496305796E+0000
 21
 1.55291635594767E+0000
  0
LINE
  8
1
  6
CONTINUOUS
 62
     0
 10
 8.90078496305796E+0000
 20
 1.55291635594767E+0000
 11
 1.10824245900876E+0001
 21
 1.55291635594767E+0000
  0
LINE
  8
1
  6
CONTINUOUS
 62
     0
 10
 1.10824245900876E+0001
 20
 1.55291635594767E+0000
 11
 1.10824245900876E+0001
 21
 3.66054472739052E-0001
  0
LINE
  8
1
  6
CONTINUOUS
 62
     0
 10
 8.90010336294654E+0000
 20
 1.23953147667635E+0000
 11
 1.10833476808330E+0001
 21
 1.23953147667635E+0000
  0
LINE
  8
1
  6
CONTINUOUS
 62
     0
 10
 8.90774062665878E+0000
 20
 5.23861750931246E-0001
 11
 1.10909849445452E+0001
 21
 5.23861750931246E-0001
  0
TEXT
  8
1
 62
     0
 10
 8.94823287868348E+0000
 20
 1.35143637997317E+0000
 40
 1.18110236219991E-0001
  1
Benennung
  7
STANDARD
 11
 8.94823287868348E+0000
 21
 1.46954661619384E+0000
 50
 0.00000000000000E+0000
 41
 3.42292912985158E-0001
  0
LINE
  8
1
  6
CONTINUOUS
 62
     0
 10
 9.57264299190138E+0000
 20
 1.55147486233909E+0000
 11
 9.57264299190138E+0000
 21
 1.23953147667635E+0000
  0
LINE
  8
1
  6
CONTINUOUS
 62
     0
 10
 8.90010336294654E+0000
 20
 1.07349709398113E+0000
 11
 1.10833476808330E+0001
 21
 1.07349709398113E+0000
  0
LINE
  8
1
  6
CONTINUOUS
 62
     0
 10
 8.90010336294654E+0000
 20
 9.07462711285916E-0001
 11
 1.10833476808330E+0001
 21
 9.07462711285916E-0001
  0
TEXT
  8
1
 62
     0
 10
 8.95298969198484E+0000
 20
 1.08890528919073E+0000
 40
 1.18110236219991E-0001
  1
Werkstoff
  7
STANDARD
 11
 8.95298969198484E+0000
 21
 1.20701552541141E+0000
 50
 0.00000000000000E+0000
 41
 2.77534794312487E-0001
  0
LINE
  8
1
  6
CONTINUOUS
 62
     0
 10
 9.57264299190138E+0000
 20
 1.23953147667635E+0000
 11
 9.57264299190138E+0000
 21
 1.07349709398113E+0000
  0
LINE
  8
1
  6
CONTINUOUS
 62
     0
 10
 1.05011491960613E+0001
 20
 1.23953147667635E+0000
 11
 1.05011491960613E+0001
 21
 1.07349709398113E+0000
  0
TEXT
  8
1
 62
     0
 10
 1.05670323736267E+0001
 20
 1.08890528919073E+0000
 40
 1.18110236219991E-0001
  1
M 1:1
  7
STANDARD
 11
 1.05670323736267E+0001
 21
 1.20701552541141E+0000
 50
 0.00000000000000E+0000
 41
 2.83085490198573E-0001
  0
LINE
  8
1
  6
CONTINUOUS
 62
     0
 10
 8.90078496305796E+0000
 20
 1.55291635594767E+0000
 11
 1.10883666332957E+0001
 21
 1.55291635594767E+0000
  0
LINE
  8
1
  6
CONTINUOUS
 62
     0
 10
 8.90078496305796E+0000
 20
 1.55291635594767E+0000
 11
 1.10824245900876E+0001
 21
 1.55291635594767E+0000
  0
LINE
  8
1
  6
CONTINUOUS
 62
     0
 10
 1.10824245900876E+0001
 20
 1.55291635594767E+0000
 11
 1.10824245900876E+0001
 21
 3.66054472739052E-0001
  0
LINE
  8
1
  6
CONTINUOUS
 62
     0
 10
 1.10824245900876E+0001
 20
 3.66054472739052E-0001
 11
 8.90078496305796E+0000
 21
 3.66054472739052E-0001
  0
LINE
  8
1
  6
CONTINUOUS
 62
     0
 10
 8.90078496305796E+0000
 20
 3.66054472739052E-0001
 11
 8.90078496305796E+0000
 21
 1.55291635594767E+0000
  0
TEXT
  8
1
 62
     0
 10
 8.94643199958955E+0000
 20
 9.29817355409796E-0001
 40
 1.18110236219991E-0001
  1
Bearb.
  7
STANDARD
 11
 8.94643199958955E+0000
 21
 1.04792759162956E+0000
 50
 0.00000000000000E+0000
 41
 2.91411534028157E-0001
  0
LINE
  8
1
  6
CONTINUOUS
 62
     0
 10
 9.57372805119667E+0000
 20
 1.07462383869279E+0000
 11
 9.57372805119667E+0000
 21
 9.08513856978971E-0001
  0
LINE
  8
1
  6
CONTINUOUS
 62
     0
 10
 8.90204784499656E+0000
 20
 7.36471375930705E-0001
 11
 1.10827893074456E+0001
 21
 7.36471375930705E-0001
  0
LINE
  8
1
  6
CONTINUOUS
 62
     0
 10
 9.57372805119667E+0000
 20
 9.08513856978971E-0001
 11
 9.57372805119667E+0000
 21
 7.36471375930705E-0001
  0
TEXT
  8
1
 62
     0
 10
 8.94643199958955E+0000
 20
 7.54808624687030E-0001
 40
 1.18110236219991E-0001
  1
Datum
  7
STANDARD
 11
 8.94643199958955E+0000
 21
 8.72918860906793E-0001
 50
 0.00000000000000E+0000
 41
 3.49693840833424E-0001
  0
LINE
  8
1
  6
CONTINUOUS
 62
     0
 10
 1.04998774104170E+0001
 20
 5.19935149772209E-0001
 11
 1.04998774104170E+0001
 21
 3.68656416430895E-0001
  0
TEXT
  8
1
 62
     0
 10
 9.62994798035652E+0000
 20
 9.20918606393570E-0001
 40
 1.18110236219991E-0001
  1
D.Freind
  7
STANDARD
 11
 9.62994798035652E+0000
 21
 1.03902884261333E+0000
 50
 0.00000000000000E+0000
 41
 2.81003979241177E-0001
  0
TEXT
  8
1
 62
     0
 10
 1.05235489595507E+0001
 20
 3.84027415512719E-0001
 40
 1.18110236219991E-0001
  1
Blatt
  7
STANDARD
 11
 1.05235489595507E+0001
 21
 5.02137651732482E-0001
 50
 0.00000000000000E+0000
 41
 2.49781314881147E-0001
  0
TEXT
  8
1
 62
     0
 10
 9.04969655426976E+0000
 20
 5.46297824291287E-0001
 40
 1.18110236219991E-0001
  1
für Revolver 8-fach 
  7
STANDARD
 11
 9.04969655426976E+0000
 21
 6.64408060511050E-0001
 50
 0.00000000000000E+0000
 41
 2.53944336795939E-0001
  0
TEXT
  8
1
 62
     0
 10
 9.23597983068612E+0000
 20
 3.93308872470698E-0001
 40
 1.18110236219991E-0001
  1
www.cnc-projects.de.vu
  7
STANDARD
 11
 9.23597983068612E+0000
 21
 5.11419108690461E-0001
 50
 0.00000000000000E+0000
 41
 2.87626968650784E-0001
  0
TEXT
  8
1
 62
     0
 10
 9.63511565663794E+0000
 20
 1.10198660545939E+0000
 40
 1.18110236219991E-0001
  1
Aluminium
  7
STANDARD
 11
 9.63511565663794E+0000
 21
 1.22009684168006E+0000
 50
 0.00000000000000E+0000
 41
 3.23790593364720E-0001
  0
TEXT
  8
1
 62
     0
 10
 9.60332581579860E+0000
 20
 1.28956050988199E+0000
 40
 1.96850393699833E-0001
  1
Federkäfig hinten
  7
STANDARD
 11
 9.60332581579860E+0000
 21
 1.48641090358251E+0000
 50
 0.00000000000000E+0000
 41
 1.61623203746785E-0001
  0
TEXT
  8
1
 62
     0
 10
 9.62551496991364E+0000
 20
 7.60299582060725E-0001
 40
 1.18110236219991E-0001
  1
26.12.2003
  7
STANDARD
 11
 9.62551496991364E+0000
 21
 8.78409818280488E-0001
 50
 0.00000000000000E+0000
 41
 2.99737577857286E-0001
  0
TEXT
  8
1
 62
     0
 10
 1.08015401377488E+0001
 20
 3.85859889283893E-0001
 40
 1.18110236219991E-0001
  1
1
  7
STANDARD
 11
 1.08015401377488E+0001
 21
 5.03970125503656E-0001
 50
 0.00000000000000E+0000
 41
 3.33041753174712E-0001
  0
LINE
  8
1
  6
CONTINUOUS
 62
     0
 10
 8.10283570113825E+0000
 20
 3.38045670847350E+0000
 11
 8.26292436660151E+0000
 21
 3.38045670847350E+0000
  0
LINE
  8
1
  6
CONTINUOUS
 62
     0
 10
 8.26292436660151E+0000
 20
 3.38045670847350E+0000
 11
 8.26292436660151E+0000
 21
 3.67973758095468E+0000
  0
LINE
  8
1
  6
CONTINUOUS
 62
     0
 10
 8.46069424814777E+0000
 20
 3.72156613474363E+0000
 11
 8.46069424814777E+0000
 21
 3.27512828737963E+0000
  0
LINE
  8
1
  6
CONTINUOUS
 62
     0
 10
 8.46069424817688E+0000
 20
 3.27512828737963E+0000
 11
 7.98771431711793E+0000
 21
 3.27512828737963E+0000
  0
LINE
  8
1
  6
CONTINUOUS
 62
     0
 10
 7.98771431708883E+0000
 20
 3.27512828737963E+0000
 11
 7.98771431708883E+0000
 21
 2.76095504246769E+0000
  0
LINE
  8
1
  6
CONTINUOUS
 62
     0
 10
 7.98771431711793E+0000
 20
 2.76095504246769E+0000
 11
 8.46069424817688E+0000
 21
 2.76095504246769E+0000
  0
LINE
  8
1
  6
CONTINUOUS
 62
     0
 10
 8.46069424814777E+0000
 20
 2.76095504246769E+0000
 11
 8.46069424814777E+0000
 21
 2.64087865593319E+0000
  0
LINE
  8
1
  6
CONTINUOUS
 62
     0
 10
 8.46069424814777E+0000
 20
 2.64087865593319E+0000
 11
 7.90786056249635E+0000
 21
 2.64087865593319E+0000
  0
LINE
  8
1
  6
CONTINUOUS
 62
     0
 10
 7.90786056252546E+0000
 20
 2.64087865593319E+0000
 11
 7.87714757998765E+0000
 21
 2.67166747298324E+0000
  0
LINE
  8
1
  6
CONTINUOUS
 62
     0
 10
 7.87714757998765E+0000
 20
 3.34902144831722E+0000
 11
 8.10135235250345E+0000
 21
 3.34902144831722E+0000
  0
LINE
  8
1
  6
CONTINUOUS
 62
     0
 10
 8.10107606762904E+0000
 20
 4.76138711192471E+0000
 11
 8.26116473309230E+0000
 21
 4.76138711192471E+0000
  0
LINE
  8
1
  6
CONTINUOUS
 62
     0
 10
 8.26116473309230E+0000
 20
 4.76138711192471E+0000
 11
 8.26116473309230E+0000
 21
 4.46210623944353E+0000
  0
LINE
  8
1
  6
CONTINUOUS
 62
     0
 10
 8.45893461462401E+0000
 20
 4.42027768564003E+0000
 11
 8.45893461462401E+0000
 21
 4.86671553301858E+0000
  0
LINE
  8
1
  6
CONTINUOUS
 62
     0
 10
 8.45893461462401E+0000
 20
 4.86671553301858E+0000
 11
 7.98595468357962E+0000
 21
 4.86671553301858E+0000
  0
LINE
  8
1
  6
CONTINUOUS
 62
     0
 10
 7.98595468357962E+0000
 20
 4.86671553301858E+0000
 11
 7.98595468357962E+0000
 21
 5.38088877793780E+0000
  0
LINE
  8
1
  6
CONTINUOUS
 62
     0
 10
 7.98595468357962E+0000
 20
 5.38088877793780E+0000
 11
 8.45893461462401E+0000
 21
 5.38088877793052E+0000
  0
LINE
  8
1
  6
CONTINUOUS
 62
     0
 10
 8.45893461462401E+0000
 20
 5.38088877793052E+0000
 11
 8.45893461462401E+0000
 21
 5.50096516446501E+0000
  0
LINE
  8
1
  6
CONTINUOUS
 62
     0
 10
 8.45893461465312E+0000
 20
 5.50096516446501E+0000
 11
 7.90610092901625E+0000
 21
 5.50096516447229E+0000
  0
LINE
  8
1
  6
CONTINUOUS
 62
     0
 10
 7.90610092901625E+0000
 20
 5.50096516447229E+0000
 11
 7.87538794647844E+0000
 21
 5.47017634741496E+0000
  0
LINE
  8
1
  6
CONTINUOUS
 62
     0
 10
 7.87538794644934E+0000
 20
 5.47017634741496E+0000
 11
 7.87538794644934E+0000
 21
 4.79282237207372E+0000
  0
LINE
  8
1
  6
CONTINUOUS
 62
     0
 10
 7.87538794644934E+0000
 20
 4.79282237207372E+0000
 11
 8.09959271895059E+0000
 21
 4.79282237207372E+0000
  0
LINE
  8
1
  6
CONTINUOUS
 62
     0
 10
 8.09959271895059E+0000
 20
 4.79282237207372E+0000
 11
 8.09959271895059E+0000
 21
 4.76203355500911E+0000
  0
LINE
  8
1
  6
CONTINUOUS
 62
     0
 10
 8.46069424814777E+0000
 20
 3.72156613474363E+0000
 11
 8.46069424814777E+0000
 21
 3.77783948266006E+0000
  0
LINE
  8
1
  6
CONTINUOUS
 62
     0
 10
 8.45893461462401E+0000
 20
 4.42027768564003E+0000
 11
 8.45893461460946E+0000
 21
 4.37126972898841E+0000
  0
LINE
  8
1
  6
CONTINUOUS
 62
     0
 10
 7.87538794644934E+0000
 20
 4.79282237207372E+0000
 11
 7.87538794644934E+0000
 21
 4.65434079371335E+0000
  0
LINE
  8
1
  6
CONTINUOUS
 62
     0
 10
 8.09959271895059E+0000
 20
 4.76203355500911E+0000
 11
 8.09959271895059E+0000
 21
 4.37049682289944E+0000
  0
LINE
  8
1
  6
CENTER
 62
     0
 10
 8.06993685885391E+0000
 20
 5.14135245193029E+0000
 11
 7.81247867646744E+0000
 21
 5.14135245193029E+0000
  0
LINE
  8
1
  6
CENTER
 62
     0
 10
 8.07460910240479E+0000
 20
 3.02112457233306E+0000
 11
 7.82859350591025E+0000
 21
 3.02112457233306E+0000
  0
LINE
  8
1
  6
CONTINUOUS
 62
     0
 10
 7.97784214785497E+0000
 20
 5.27125183720636E+0000
 11
 7.87352190465026E+0000
 21
 5.27125183720636E+0000
  0
LINE
  8
1
  6
CONTINUOUS
 62
     0
 10
 7.97784214785497E+0000
 20
 5.01439212447440E+0000
 11
 7.87352190465026E+0000
 21
 5.01439212447440E+0000
  0
LINE
  8
1
  6
CONTINUOUS
 62
     0
 10
 7.98712020262610E+0000
 20
 3.14892739242350E+0000
 11
 7.87845328263938E+0000
 21
 3.14892739242350E+0000
  0
LINE
  8
1
  6
CONTINUOUS
 62
     0
 10
 7.98712020262610E+0000
 20
 2.89642123413796E+0000
 11
 7.87845328263938E+0000
 21
 2.89642123413796E+0000
  0
LINE
  8
1
  6
CONTINUOUS
 62
     0
 10
 8.45893461462401E+0000
 20
 4.39075692374900E+0000
 11
 8.43944741986343E+0000
 21
 4.37126972899569E+0000
  0
LINE
  8
1
  6
CONTINUOUS
 62
     0
 10
 8.45893461462401E+0000
 20
 4.42973131326289E+0000
 11
 8.40047303035681E+0000
 21
 4.37126972899569E+0000
  0
LINE
  8
1
  6
CONTINUOUS
 62
     0
 10
 8.45893461462401E+0000
 20
 4.46870570277679E+0000
 11
 8.36149864083563E+0000
 21
 4.37126972899569E+0000
  0
LINE
  8
1
  6
CONTINUOUS
 62
     0
 10
 8.45893461462401E+0000
 20
 4.50768009229068E+0000
 11
 8.32252425132901E+0000
 21
 4.37126972899569E+0000
  0
LINE
  8
1
  6
CONTINUOUS
 62
     0
 10
 8.45893461462401E+0000
 20
 4.54665448180458E+0000
 11
 8.28354986180784E+0000
 21
 4.37126972899569E+0000
  0
LINE
  8
1
  6
CONTINUOUS
 62
     0
 10
 8.45893461462401E+0000
 20
 4.58562887131848E+0000
 11
 8.26116473309230E+0000
 21
 4.38785898979404E+0000
  0
LINE
  8
1
  6
CONTINUOUS
 62
     0
 10
 8.45893461462401E+0000
 20
 4.62460326083237E+0000
 11
 8.26116473309230E+0000
 21
 4.42683337930794E+0000
  0
LINE
  8
1
  6
CONTINUOUS
 62
     0
 10
 8.45893461462401E+0000
 20
 4.66357765034627E+0000
 11
 8.26116473309230E+0000
 21
 4.46580776882183E+0000
  0
LINE
  8
1
  6
CONTINUOUS
 62
     0
 10
 8.45893461462401E+0000
 20
 4.70255203985289E+0000
 11
 8.26116473309230E+0000
 21
 4.50478215833573E+0000
  0
LINE
  8
1
  6
CONTINUOUS
 62
     0
 10
 8.45893461462401E+0000
 20
 4.74152642936679E+0000
 11
 8.26116473309230E+0000
 21
 4.54375654784963E+0000
  0
LINE
  8
1
  6
CONTINUOUS
 62
     0
 10
 8.45893461462401E+0000
 20
 4.78050081888068E+0000
 11
 8.26116473309230E+0000
 21
 4.58273093736352E+0000
  0
LINE
  8
1
  6
CONTINUOUS
 62
     0
 10
 8.45893461462401E+0000
 20
 4.81947520839458E+0000
 11
 8.26116473309230E+0000
 21
 4.62170532687014E+0000
  0
LINE
  8
1
  6
CONTINUOUS
 62
     0
 10
 8.45893461462401E+0000
 20
 4.85844959790847E+0000
 11
 8.26116473309230E+0000
 21
 4.66067971638404E+0000
  0
LINE
  8
1
  6
CONTINUOUS
 62
     0
 10
 8.43321514190757E+0000
 20
 4.87170451471320E+0000
 11
 8.26116473309230E+0000
 21
 4.69965410589793E+0000
  0
LINE
  8
1
  6
CONTINUOUS
 62
     0
 10
 8.39387811433699E+0000
 20
 4.87134187664196E+0000
 11
 8.26116473309230E+0000
 21
 4.73862849541183E+0000
  0
LINE
  8
1
  6
CONTINUOUS
 62
     0
 10
 8.35454108675185E+0000
 20
 4.87097923858528E+0000
 11
 8.24501358020643E+0000
 21
 4.76145173203258E+0000
  0
LINE
  8
1
  6
CONTINUOUS
 62
     0
 10
 8.31520405918127E+0000
 20
 4.87061660052859E+0000
 11
 8.20619450425147E+0000
 21
 4.76160704559152E+0000
  0
LINE
  8
1
  6
CONTINUOUS
 62
     0
 10
 8.27586703159614E+0000
 20
 4.87025396245735E+0000
 11
 8.16737542828196E+0000
 21
 4.76176235913590E+0000
  0
LINE
  8
1
  6
CONTINUOUS
 62
     0
 10
 8.23653000402555E+0000
 20
 4.86989132439339E+0000
 11
 8.12855635232700E+0000
 21
 4.76191767268756E+0000
  0
LINE
  8
1
  6
CONTINUOUS
 62
     0
 10
 8.19719297645497E+0000
 20
 4.86952868633671E+0000
 11
 8.09959271895059E+0000
 21
 4.77192842883233E+0000
  0
LINE
  8
1
  6
CONTINUOUS
 62
     0
 10
 8.15785594886984E+0000
 20
 4.86916604826547E+0000
 11
 8.08151227267808E+0000
 21
 4.79282237208099E+0000
  0
LINE
  8
1
  6
CONTINUOUS
 62
     0
 10
 8.11851892129926E+0000
 20
 4.86880341020878E+0000
 11
 8.04253788317146E+0000
 21
 4.79282237208099E+0000
  0
LINE
  8
1
  6
CONTINUOUS
 62
     0
 10
 8.07918189371412E+0000
 20
 4.86844077213755E+0000
 11
 8.00356349366484E+0000
 21
 4.79282237208099E+0000
  0
LINE
  8
1
  6
CONTINUOUS
 62
     0
 10
 8.03984486614354E+0000
 20
 4.86807813407358E+0000
 11
 7.96458910414367E+0000
 21
 4.79282237208099E+0000
  0
LINE
  8
1
  6
CONTINUOUS
 62
     0
 10
 8.00050783857296E+0000
 20
 4.86771549601690E+0000
 11
 7.92561471462977E+0000
 21
 4.79282237208099E+0000
  0
LINE
  8
1
  6
CONTINUOUS
 62
     0
 10
 7.97663089833077E+0000
 20
 4.88281294529588E+0000
 11
 7.88664032512315E+0000
 21
 4.79282237208099E+0000
  0
LINE
  8
1
  6
CONTINUOUS
 62
     0
 10
 7.97699300970999E+0000
 20
 4.92214944618172E+0000
 11
 7.87515642387734E+0000
 21
 4.82031286034908E+0000
  0
LINE
  8
1
  6
CONTINUOUS
 62
     0
 10
 7.97735512108920E+0000
 20
 4.96148594707483E+0000
 11
 7.87483092616458E+0000
 21
 4.85896175215021E+0000
  0
LINE
  8
1
  6
CONTINUOUS
 62
     0
 10
 7.97771723246842E+0000
 20
 5.00082244796795E+0000
 11
 7.87450542845181E+0000
 21
 4.89761064395134E+0000
  0
LINE
  8
1
  6
CONTINUOUS
 62
     0
 10
 7.95231251946825E+0000
 20
 5.01439212447440E+0000
 11
 7.87417993073905E+0000
 21
 4.93625953574519E+0000
  0
LINE
  8
1
  6
CONTINUOUS
 62
     0
 10
 7.91333812995435E+0000
 20
 5.01439212447440E+0000
 11
 7.87385443302628E+0000
 21
 4.97490842754632E+0000
  0
LINE
  8
1
  6
CONTINUOUS
 62
     0
 10
 7.87436374044046E+0000
 20
 5.01439212447440E+0000
 11
 7.87352893531352E+0000
 21
 5.01355731934746E+0000
  0
LINE
  8
1
  6
CONTINUOUS
 62
     0
 10
 8.45893461462401E+0000
 20
 5.40037597269111E+0000
 11
 8.43954302460770E+0000
 21
 5.38098438266752E+0000
  0
LINE
  8
1
  6
CONTINUOUS
 62
     0
 10
 8.45893461462401E+0000
 20
 5.43935036220500E+0000
 11
 8.40075984456053E+0000
 21
 5.38117559213424E+0000
  0
LINE
  8
1
  6
CONTINUOUS
 62
     0
 10
 8.45893461462401E+0000
 20
 5.47832475171890E+0000
 11
 8.36197666452790E+0000
 21
 5.38136680161551E+0000
  0
LINE
  8
1
  6
CONTINUOUS
 62
     0
 10
 8.44260063786351E+0000
 20
 5.50096516446501E+0000
 11
 8.32319348449528E+0000
 21
 5.38155801108951E+0000
  0
LINE
  8
1
  6
CONTINUOUS
 62
     0
 10
 8.40362624835689E+0000
 20
 5.50096516446501E+0000
 11
 8.28441030444810E+0000
 21
 5.38174922056351E+0000
  0
LINE
  8
1
  6
CONTINUOUS
 62
     0
 10
 8.36465185883571E+0000
 20
 5.50096516446501E+0000
 11
 8.24562712441548E+0000
 21
 5.38194043003750E+0000
  0
LINE
  8
1
  6
CONTINUOUS
 62
     0
 10
 8.32567746932909E+0000
 20
 5.50096516446501E+0000
 11
 8.20684394436830E+0000
 21
 5.38213163950422E+0000
  0
LINE
  8
1
  6
CONTINUOUS
 62
     0
 10
 8.28670307980792E+0000
 20
 5.50096516446501E+0000
 11
 8.16806076433568E+0000
 21
 5.38232284898550E+0000
  0
LINE
  8
1
  6
CONTINUOUS
 62
     0
 10
 8.24772869030130E+0000
 20
 5.50096516446501E+0000
 11
 8.12927758428850E+0000
 21
 5.38251405846677E+0000
  0
LINE
  8
1
  6
CONTINUOUS
 62
     0
 10
 8.20875430078013E+0000
 20
 5.50096516446501E+0000
 11
 8.09049440425588E+0000
 21
 5.38270526793349E+0000
  0
LINE
  8
1
  6
CONTINUOUS
 62
     0
 10
 8.16977991127351E+0000
 20
 5.50096516446501E+0000
 11
 8.05171122420870E+0000
 21
 5.38289647740748E+0000
  0
LINE
  8
1
  6
CONTINUOUS
 62
     0
 10
 7.97658822430822E+0000
 20
 5.30777347749972E+0000
 11
 7.94006658402213E+0000
 21
 5.27125183721364E+0000
  0
LINE
  8
1
  6
CONTINUOUS
 62
     0
 10
 8.13080552176689E+0000
 20
 5.50096516446501E+0000
 11
 8.01292804417608E+0000
 21
 5.38308768688148E+0000
  0
LINE
  8
1
  6
CONTINUOUS
 62
     0
 10
 7.97529450688307E+0000
 20
 5.34545414958848E+0000
 11
 7.90109219450824E+0000
 21
 5.27125183721364E+0000
  0
LINE
  8
1
  6
CONTINUOUS
 62
     0
 10
 8.09183113224572E+0000
 20
 5.50096516446501E+0000
 11
 7.97414486413618E+0000
 21
 5.38327889635548E+0000
  0
LINE
  8
1
  6
CONTINUOUS
 62
     0
 10
 7.97400078945793E+0000
 20
 5.38313482167723E+0000
 11
 7.87362989558460E+0000
 21
 5.28276392780390E+0000
  0
LINE
  8
1
  6
CONTINUOUS
 62
     0
 10
 8.05285674273910E+0000
 20
 5.50096516446501E+0000
 11
 7.87399896291026E+0000
 21
 5.32210738464346E+0000
  0
LINE
  8
1
  6
CONTINUOUS
 62
     0
 10
 8.01388235321792E+0000
 20
 5.50096516446501E+0000
 11
 7.87436803022865E+0000
 21
 5.36145084147574E+0000
  0
LINE
  8
1
  6
CONTINUOUS
 62
     0
 10
 7.97490796370403E+0000
 20
 5.50096516446501E+0000
 11
 7.87473709753976E+0000
 21
 5.40079429830075E+0000
  0
LINE
  8
1
  6
CONTINUOUS
 62
     0
 10
 7.93593357419741E+0000
 20
 5.50096516446501E+0000
 11
 7.87510616485815E+0000
 21
 5.44013775513304E+0000
  0
LINE
  8
1
  6
CONTINUOUS
 62
     0
 10
 8.46069424817688E+0000
 20
 3.29461548213294E+0000
 11
 8.44127291010227E+0000
 21
 3.27519414405833E+0000
  0
LINE
  8
1
  6
CONTINUOUS
 62
     0
 10
 8.46069424817688E+0000
 20
 3.33358987164320E+0000
 11
 8.40243023392395E+0000
 21
 3.27532585739391E+0000
  0
LINE
  8
1
  6
CONTINUOUS
 62
     0
 10
 8.46069424817688E+0000
 20
 3.37256426115709E+0000
 11
 8.36358755774563E+0000
 21
 3.27545757073312E+0000
  0
LINE
  8
1
  6
CONTINUOUS
 62
     0
 10
 8.46069424817688E+0000
 20
 3.41153865067099E+0000
 11
 8.32474488158186E+0000
 21
 3.27558928407962E+0000
  0
LINE
  8
1
  6
CONTINUOUS
 62
     0
 10
 8.46069424816233E+0000
 20
 3.45051304017397E+0000
 11
 8.28590220540354E+0000
 21
 3.27572099741519E+0000
  0
LINE
  8
1
  6
CONTINUOUS
 62
     0
 10
 8.46069424816233E+0000
 20
 3.48948742968787E+0000
 11
 8.24705952923978E+0000
 21
 3.27585271076168E+0000
  0
LINE
  8
1
  6
CONTINUOUS
 62
     0
 10
 8.46069424816233E+0000
 20
 3.52846181919813E+0000
 11
 8.20821685306146E+0000
 21
 3.27598442409726E+0000
  0
LINE
  8
1
  6
CONTINUOUS
 62
     0
 10
 8.46069424816233E+0000
 20
 3.56743620871202E+0000
 11
 8.16937417688314E+0000
 21
 3.27611613743647E+0000
  0
LINE
  8
1
  6
CONTINUOUS
 62
     0
 10
 8.46069424816233E+0000
 20
 3.60641059822592E+0000
 11
 8.26292436660151E+0000
 21
 3.40864071666147E+0000
  0
LINE
  8
1
  6
CONTINUOUS
 62
     0
 10
 8.23462714235939E+0000
 20
 3.38034349242662E+0000
 11
 8.13053150071937E+0000
 21
 3.27624785078297E+0000
  0
LINE
  8
1
  6
CONTINUOUS
 62
     0
 10
 8.46069424816233E+0000
 20
 3.64538498772890E+0000
 11
 8.26292436660151E+0000
 21
 3.44761510617536E+0000
  0
LINE
  8
1
  6
CONTINUOUS
 62
     0
 10
 8.19549619150348E+0000
 20
 3.38018693107369E+0000
 11
 8.09168882454105E+0000
 21
 3.27637956411854E+0000
  0
LINE
  8
1
  6
CONTINUOUS
 62
     0
 10
 7.98678502016992E+0000
 20
 3.17147575974741E+0000
 11
 7.96423665284965E+0000
 21
 3.14892739242350E+0000
  0
LINE
  8
1
  6
CONTINUOUS
 62
     0
 10
 8.46069424816233E+0000
 20
 3.68435937724280E+0000
 11
 8.26292436660151E+0000
 21
 3.48658949568926E+0000
  0
LINE
  8
1
  6
CONTINUOUS
 62
     0
 10
 8.15636524063302E+0000
 20
 3.38003036972077E+0000
 11
 8.05284614836273E+0000
 21
 3.27651127745412E+0000
  0
LINE
  8
1
  6
CONTINUOUS
 62
     0
 10
 7.98621415018715E+0000
 20
 3.20987927927490E+0000
 11
 7.92526226333575E+0000
 21
 3.14892739242350E+0000
  0
LINE
  8
1
  6
CONTINUOUS
 62
     0
 10
 8.46069424816233E+0000
 20
 3.72333376675670E+0000
 11
 8.26292436660151E+0000
 21
 3.52556388520316E+0000
  0
LINE
  8
1
  6
CONTINUOUS
 62
     0
 10
 8.11723428977712E+0000
 20
 3.37987380837876E+0000
 11
 8.10135235247435E+0000
 21
 3.36399187107600E+0000
  0
LINE
  8
1
  6
CONTINUOUS
 62
     0
 10
 8.08638192970830E+0000
 20
 3.34902144831358E+0000
 11
 8.01400347219897E+0000
 21
 3.27664299080061E+0000
  0
LINE
  8
1
  6
CONTINUOUS
 62
     0
 10
 7.98564328020439E+0000
 20
 3.24828279880603E+0000
 11
 7.88628787382186E+0000
 21
 3.14892739242350E+0000
  0
LINE
  8
1
  6
CONTINUOUS
 62
     0
 10
 8.46069424816233E+0000
 20
 3.76230815626695E+0000
 11
 8.26292436660151E+0000
 21
 3.56453827471705E+0000
  0
LINE
  8
1
  6
CONTINUOUS
 62
     0
 10
 8.04740754020168E+0000
 20
 3.34902144831358E+0000
 11
 7.87825139899360E+0000
 21
 3.17986530710550E+0000
  0
LINE
  8
1
  6
CONTINUOUS
 62
     0
 10
 8.43725118502334E+0000
 20
 3.77783948265278E+0000
 11
 8.26292436660151E+0000
 21
 3.60351266422731E+0000
  0
LINE
  8
1
  6
CONTINUOUS
 62
     0
 10
 8.00843315069505E+0000
 20
 3.34902144831358E+0000
 11
 7.87799872260803E+0000
 21
 3.21858702023383E+0000
  0
LINE
  8
1
  6
CONTINUOUS
 62
     0
 10
 8.39827679551672E+0000
 20
 3.77783948265278E+0000
 11
 8.26292436660151E+0000
 21
 3.64248705374121E+0000
  0
LINE
  8
1
  6
CONTINUOUS
 62
     0
 10
 7.96945876117388E+0000
 20
 3.34902144831358E+0000
 11
 7.87774604622246E+0000
 21
 3.25730873335851E+0000
  0
LINE
  8
1
  6
CONTINUOUS
 62
     0
 10
 8.35930240599555E+0000
 20
 3.77783948265278E+0000
 11
 8.26292436660151E+0000
 21
 3.68146144325510E+0000
  0
LINE
  8
1
  6
CONTINUOUS
 62
     0
 10
 7.93048437166726E+0000
 20
 3.34902144832085E+0000
 11
 7.87749336982961E+0000
 21
 3.29603044647956E+0000
  0
LINE
  8
1
  6
CONTINUOUS
 62
     0
 10
 8.32032801648893E+0000
 20
 3.77783948265278E+0000
 11
 8.26292436660151E+0000
 21
 3.72043583276900E+0000
  0
LINE
  8
1
  6
CONTINUOUS
 62
     0
 10
 7.89150998215337E+0000
 20
 3.34902144832085E+0000
 11
 7.87724069344404E+0000
 21
 3.33475215960789E+0000
  0
LINE
  8
1
  6
CONTINUOUS
 62
     0
 10
 8.28135362698231E+0000
 20
 3.77783948265278E+0000
 11
 8.26292436660151E+0000
 21
 3.75941022227926E+0000
  0
LINE
  8
1
  6
CONTINUOUS
 62
     0
 10
 8.46069424814777E+0000
 20
 2.66036585069378E+0000
 11
 8.44120705338719E+0000
 21
 2.64087865593683E+0000
  0
LINE
  8
1
  6
CONTINUOUS
 62
     0
 10
 8.46069424814777E+0000
 20
 2.69934024020768E+0000
 11
 8.40223266388057E+0000
 21
 2.64087865593683E+0000
  0
LINE
  8
1
  6
CONTINUOUS
 62
     0
 10
 8.46069424814777E+0000
 20
 2.73831462971793E+0000
 11
 8.36325827435940E+0000
 21
 2.64087865593683E+0000
  0
LINE
  8
1
  6
CONTINUOUS
 62
     0
 10
 8.44436027138727E+0000
 20
 2.76095504247132E+0000
 11
 8.32428388485278E+0000
 21
 2.64087865593683E+0000
  0
LINE
  8
1
  6
CONTINUOUS
 62
     0
 10
 8.40538588186610E+0000
 20
 2.76095504247132E+0000
 11
 8.28530949534616E+0000
 21
 2.64087865593683E+0000
  0
LINE
  8
1
  6
CONTINUOUS
 62
     0
 10
 8.36641149235948E+0000
 20
 2.76095504247132E+0000
 11
 8.24633510582498E+0000
 21
 2.64087865593683E+0000
  0
LINE
  8
1
  6
CONTINUOUS
 62
     0
 10
 8.32743710285285E+0000
 20
 2.76095504247132E+0000
 11
 8.20736071631836E+0000
 21
 2.64087865593683E+0000
  0
LINE
  8
1
  6
CONTINUOUS
 62
     0
 10
 8.28846271333168E+0000
 20
 2.76095504247132E+0000
 11
 8.16838632679719E+0000
 21
 2.64087865593683E+0000
  0
LINE
  8
1
  6
CONTINUOUS
 62
     0
 10
 8.24948832382506E+0000
 20
 2.76095504247132E+0000
 11
 8.12941193729057E+0000
 21
 2.64087865593683E+0000
  0
LINE
  8
1
  6
CONTINUOUS
 62
     0
 10
 8.21051393430389E+0000
 20
 2.76095504247132E+0000
 11
 8.09043754776940E+0000
 21
 2.64087865593683E+0000
  0
LINE
  8
1
  6
CONTINUOUS
 62
     0
 10
 8.17153954479727E+0000
 20
 2.76095504247132E+0000
 11
 8.05146315826278E+0000
 21
 2.64087865593683E+0000
  0
LINE
  8
1
  6
CONTINUOUS
 62
     0
 10
 8.13256515527610E+0000
 20
 2.76095504247132E+0000
 11
 8.01248876874160E+0000
 21
 2.64087865593683E+0000
  0
LINE
  8
1
  6
CONTINUOUS
 62
     0
 10
 8.09359076576948E+0000
 20
 2.76095504247132E+0000
 11
 7.97351437923498E+0000
 21
 2.64087865593683E+0000
  0
LINE
  8
1
  6
CONTINUOUS
 62
     0
 10
 8.05461637624830E+0000
 20
 2.76095504247132E+0000
 11
 7.93453998972109E+0000
 21
 2.64087865593683E+0000
  0
LINE
  8
1
  6
CONTINUOUS
 62
     0
 10
 8.01564198674168E+0000
 20
 2.76095504247132E+0000
 11
 7.90172066149535E+0000
 21
 2.64703371722135E+0000
  0
LINE
  8
1
  6
CONTINUOUS
 62
     0
 10
 7.98766608101141E+0000
 20
 2.77195352625495E+0000
 11
 7.88225749533012E+0000
 21
 2.66654494057002E+0000
  0
LINE
  8
1
  6
CONTINUOUS
 62
     0
 10
 7.98749589729414E+0000
 20
 2.81075773205157E+0000
 11
 7.86458833274810E+0000
 21
 2.68785016750189E+0000
  0
LINE
  8
1
  6
CONTINUOUS
 62
     0
 10
 7.98732571357687E+0000
 20
 2.84956193784819E+0000
 11
 7.86147534769407E+0000
 21
 2.72371157196540E+0000
  0
LINE
  8
1
  6
CONTINUOUS
 62
     0
 10
 7.98715552986687E+0000
 20
 2.88836614364482E+0000
 11
 7.86572435116977E+0000
 21
 2.76693496495136E+0000
  0
LINE
  8
1
  6
CONTINUOUS
 62
     0
 10
 7.95623623084248E+0000
 20
 2.89642123413796E+0000
 11
 7.86997335464548E+0000
 21
 2.81015835793733E+0000
  0
LINE
  8
1
  6
CONTINUOUS
 62
     0
 10
 7.91726184132858E+0000
 20
 2.89642123413796E+0000
 11
 7.87422235811391E+0000
 21
 2.85338175091601E+0000
  0
LINE
  8
1
  6
DASHDOT
 62
     0
 10
 2.97727797001062E+0000
 20
 4.07575496241043E+0000
 11
 2.17599641163542E+0000
 21
 4.07575496241043E+0000
  0
LINE
  8
1
  6
DASHDOT
 62
     0
 10
 3.99709086249277E+0000
 20
 5.72166245651169E+0000
 11
 3.99709086249277E+0000
 21
 2.37717978048386E+0000
  0
CIRCLE
  8
1
  6
DASHDOT
 62
     0
 10
 3.99501968950790E+0000
 20
 4.07950782096304E+0000
 40
 7.16275251166735E-0001
  0
CIRCLE
  8
1
  6
CONTINUOUS
 62
     0
 10
 3.99501968950790E+0000
 20
 4.07950782096304E+0000
 40
 2.88257113279542E-0001
  0
CIRCLE
  8
1
  6
CONTINUOUS
 62
     0
 10
 3.99501968950790E+0000
 20
 4.07950782096304E+0000
 40
 1.42381543831470E+0000
  0
CIRCLE
  8
1
  6
DASHDOT
 62
     0
 10
 3.99501968950790E+0000
 20
 4.07950782096304E+0000
 40
 1.39761024619111E+0000
  0
CIRCLE
  8
1
  6
CONTINUOUS
 62
     0
 10
 3.99694270845066E+0000
 20
 5.13225942849385E+0000
 40
 1.25204015792406E-0001
  0
CIRCLE
  8
1
  6
CONTINUOUS
 62
     0
 10
 3.99694270845066E+0000
 20
 5.12530364983832E+0000
 40
 2.64319588895887E-0001
  0
CIRCLE
  8
1
  6
CONTINUOUS
 62
     0
 10
 3.08131279364534E+0000
 20
 4.60362025070208E+0000
 40
 1.25204015792406E-0001
  0
CIRCLE
  8
1
  6
CONTINUOUS
 62
     0
 10
 3.08733667466367E+0000
 20
 4.60014236138522E+0000
 40
 2.64319588895887E-0001
  0
CIRCLE
  8
1
  6
CONTINUOUS
 62
     0
 10
 3.08131279364898E+0000
 20
 3.54634189512944E+0000
 40
 1.25204015792406E-0001
  0
CIRCLE
  8
1
  6
CONTINUOUS
 62
     0
 10
 3.08733667466367E+0000
 20
 3.54981978445721E+0000
 40
 2.64319588895887E-0001
  0
CIRCLE
  8
1
  6
CONTINUOUS
 62
     0
 10
 3.99694270845066E+0000
 20
 3.01770271734131E+0000
 40
 1.25204015792406E-0001
  0
CIRCLE
  8
1
  6
CONTINUOUS
 62
     0
 10
 3.99694270845066E+0000
 20
 3.02465849599685E+0000
 40
 2.64319588895887E-0001
  0
CIRCLE
  8
1
  6
CONTINUOUS
 62
     0
 10
 4.91257262325234E+0000
 20
 3.54634189513672E+0000
 40
 1.25204015792406E-0001
  0
CIRCLE
  8
1
  6
CONTINUOUS
 62
     0
 10
 4.90654874223401E+0000
 20
 3.54981978445721E+0000
 40
 2.64319588895887E-0001
  0
CIRCLE
  8
1
  6
CONTINUOUS
 62
     0
 10
 4.91257262324507E+0000
 20
 4.60362025070935E+0000
 40
 1.25204015792406E-0001
  0
CIRCLE
  8
1
  6
CONTINUOUS
 62
     0
 10
 4.90654874223401E+0000
 20
 4.60014236138522E+0000
 40
 2.64319588895887E-0001
  0
CIRCLE
  8
1
  6
CONTINUOUS
 62
     0
 10
 3.99694270844338E+0000
 20
 5.13225942849385E+0000
 40
 1.25204015792406E-0001
  0
CIRCLE
  8
1
  6
CONTINUOUS
 62
     0
 10
 3.99694270845066E+0000
 20
 5.12530364983832E+0000
 40
 2.64319588895887E-0001
  0
LINE
  8
1
  6
CONTINUOUS
 62
     0
 10
 3.73397513073360E+0000
 20
 5.12734214205557E+0000
 11
 3.73397513073360E+0000
 21
 6.17070894032804E+0000
  0
LINE
  8
1
  6
CONTINUOUS
 62
     0
 10
 3.73397513073360E+0000
 20
 6.17070894032804E+0000
 11
 4.25437359538773E+0000
 21
 6.17070894032804E+0000
  0
LINE
  8
1
  6
CONTINUOUS
 62
     0
 10
 4.25437359538773E+0000
 20
 6.17070894032804E+0000
 11
 4.25437359538773E+0000
 21
 5.12734214205557E+0000
  0
LINE
  8
1
  6
CONTINUOUS
 62
     0
 10
 4.92048363014328E+0000
 20
 4.72390698006348E+0000
 11
 5.79475305075903E+0000
 21
 4.72390698006348E+0000
  0
LINE
  8
1
  6
CONTINUOUS
 62
     0
 10
 5.79475305075903E+0000
 20
 4.72390698006348E+0000
 11
 5.79475305075903E+0000
 21
 4.48045472713420E+0000
  0
LINE
  8
1
  6
CONTINUOUS
 62
     0
 10
 5.79475305075903E+0000
 20
 4.48045472713420E+0000
 11
 4.89966769155581E+0000
 21
 4.48045472713420E+0000
  0
LINE
  8
1
  6
CONTINUOUS
 62
     0
 10
 5.79697548200784E+0000
 20
 4.73773220982548E+0000
 11
 5.79697548200784E+0000
 21
 4.73773220982548E+0000
  0
LINE
  8
1
  6
CONTINUOUS
 62
     0
 10
 5.79697548200784E+0000
 20
 4.73773220982548E+0000
 11
 5.82415700337151E+0000
 21
 4.89702153645339E+0000
  0
LINE
  8
1
  6
CONTINUOUS
 62
     0
 10
 5.82415700337151E+0000
 20
 4.89702153645339E+0000
 11
 5.76375336589990E+0000
 21
 4.89702153645339E+0000
  0
LINE
  8
1
  6
CONTINUOUS
 62
     0
 10
 5.76375336589990E+0000
 20
 4.89702153645339E+0000
 11
 5.79697548200784E+0000
 21
 4.73773220982548E+0000
  0
LINE
  8
1
  6
CONTINUOUS
 62
     0
 10
 5.82415700337151E+0000
 20
 4.89702153645339E+0000
 11
 5.76375336589990E+0000
 21
 4.89702153645339E+0000
  0
LINE
  8
1
  6
CONTINUOUS
 62
     0
 10
 5.79848084518017E+0000
 20
 4.74655394875299E+0000
 11
 5.79425401159097E+0000
 21
 4.75078078234219E+0000
  0
LINE
  8
1
  6
CONTINUOUS
 62
     0
 10
 5.80149157151027E+0000
 20
 4.76419742660801E+0000
 11
 5.78881107074267E+0000
 21
 4.77687792737561E+0000
  0
LINE
  8
1
  6
CONTINUOUS
 62
     0
 10
 5.80450229784037E+0000
 20
 4.78184090446302E+0000
 11
 5.78336812989437E+0000
 21
 4.80297507240903E+0000
  0
LINE
  8
1
  6
CONTINUOUS
 62
     0
 10
 5.80751302417775E+0000
 20
 4.79948438231804E+0000
 11
 5.77792518904607E+0000
 21
 4.82907221744244E+0000
  0
LINE
  8
1
  6
CONTINUOUS
 62
     0
 10
 5.81052375050785E+0000
 20
 4.81712786016578E+0000
 11
 5.77248224819778E+0000
 21
 4.85516936247586E+0000
  0
LINE
  8
1
  6
CONTINUOUS
 62
     0
 10
 5.81353447683796E+0000
 20
 4.83477133802080E+0000
 11
 5.76703930735675E+0000
 21
 4.88126650750928E+0000
  0
LINE
  8
1
  6
CONTINUOUS
 62
     0
 10
 5.81654520317534E+0000
 20
 4.85241481587582E+0000
 11
 5.77193848259049E+0000
 21
 4.89702153645339E+0000
  0
LINE
  8
1
  6
CONTINUOUS
 62
     0
 10
 5.81955592950544E+0000
 20
 4.87005829372356E+0000
 11
 5.79259268677561E+0000
 21
 4.89702153645339E+0000
  0
LINE
  8
1
  6
CONTINUOUS
 62
     0
 10
 5.82256665583554E+0000
 20
 4.88770177157858E+0000
 11
 5.81324689096073E+0000
 21
 4.89702153645339E+0000
  0
LINE
  8
1
  6
CONTINUOUS
 62
     0
 10
 5.79910030987230E+0000
 20
 4.75018413978250E+0000
 11
 5.79519331165648E+0000
 21
 4.74627714156668E+0000
  0
LINE
  8
1
  6
CONTINUOUS
 62
     0
 10
 5.80334996560850E+0000
 20
 4.77508799970383E+0000
 11
 5.79162897096103E+0000
 21
 4.76336700505635E+0000
  0
LINE
  8
1
  6
CONTINUOUS
 62
     0
 10
 5.80759962134471E+0000
 20
 4.79999185962515E+0000
 11
 5.78806463026558E+0000
 21
 4.78045686854603E+0000
  0
LINE
  8
1
  6
CONTINUOUS
 62
     0
 10
 5.81184927707363E+0000
 20
 4.82489571954648E+0000
 11
 5.78450028957013E+0000
 21
 4.79754673203570E+0000
  0
LINE
  8
1
  6
CONTINUOUS
 62
     0
 10
 5.81609893280984E+0000
 20
 4.84979957946780E+0000
 11
 5.78093594887468E+0000
 21
 4.81463659552537E+0000
  0
LINE
  8
1
  6
CONTINUOUS
 62
     0
 10
 5.82034858854604E+0000
 20
 4.87470343938912E+0000
 11
 5.77737160817924E+0000
 21
 4.83172645902232E+0000
  0
LINE
  8
1
  6
CONTINUOUS
 62
     0
 10
 5.82201248142519E+0000
 20
 4.89702153644612E+0000
 11
 5.77380726748379E+0000
 21
 4.84881632250472E+0000
  0
LINE
  8
1
  6
CONTINUOUS
 62
     0
 10
 5.80135827724007E+0000
 20
 4.89702153644612E+0000
 11
 5.77024292678834E+0000
 21
 4.86590618600167E+0000
  0
LINE
  8
1
  6
CONTINUOUS
 62
     0
 10
 5.78070407305495E+0000
 20
 4.89702153644612E+0000
 11
 5.76667858609289E+0000
 21
 4.88299604949134E+0000
  0
LINE
  8
1
  6
CONTINUOUS
 62
     0
 10
 5.79967675830994E+0000
 20
 4.46496992839820E+0000
 11
 5.79967675830994E+0000
 21
 4.46496992839820E+0000
  0
LINE
  8
1
  6
CONTINUOUS
 62
     0
 10
 5.79967675830994E+0000
 20
 4.46496992839820E+0000
 11
 5.77249523694627E+0000
 21
 4.30568060177029E+0000
  0
LINE
  8
1
  6
CONTINUOUS
 62
     0
 10
 5.77249523694627E+0000
 20
 4.30568060177029E+0000
 11
 5.83289887441788E+0000
 21
 4.30568060177029E+0000
  0
LINE
  8
1
  6
CONTINUOUS
 62
     0
 10
 5.83289887441788E+0000
 20
 4.30568060177029E+0000
 11
 5.79967675830994E+0000
 21
 4.46496992839820E+0000
  0
LINE
  8
1
  6
CONTINUOUS
 62
     0
 10
 5.77249523694627E+0000
 20
 4.30568060177029E+0000
 11
 5.83289887441788E+0000
 21
 4.30568060177029E+0000
  0
LINE
  8
1
  6
CONTINUOUS
 62
     0
 10
 5.78282233903883E+0000
 20
 4.30568060177029E+0000
 11
 5.77400060011132E+0000
 21
 4.31450234069780E+0000
  0
LINE
  8
1
  6
CONTINUOUS
 62
     0
 10
 5.80347654322395E+0000
 20
 4.30568060177029E+0000
 11
 5.77701132644870E+0000
 21
 4.33214581855282E+0000
  0
LINE
  8
1
  6
CONTINUOUS
 62
     0
 10
 5.82413074740907E+0000
 20
 4.30568060177757E+0000
 11
 5.78002205277880E+0000
 21
 4.34978929640056E+0000
  0
LINE
  8
1
  6
CONTINUOUS
 62
     0
 10
 5.82976657194376E+0000
 20
 4.32069898142072E+0000
 11
 5.78303277911618E+0000
 21
 4.36743277425558E+0000
  0
LINE
  8
1
  6
CONTINUOUS
 62
     0
 10
 5.82432363109547E+0000
 20
 4.34679612645414E+0000
 11
 5.78604350544629E+0000
 21
 4.38507625211059E+0000
  0
LINE
  8
1
  6
CONTINUOUS
 62
     0
 10
 5.81888069025445E+0000
 20
 4.37289327148756E+0000
 11
 5.78905423177639E+0000
 21
 4.40271972995833E+0000
  0
LINE
  8
1
  6
CONTINUOUS
 62
     0
 10
 5.81343774940615E+0000
 20
 4.39899041652097E+0000
 11
 5.79206495811377E+0000
 21
 4.42036320781335E+0000
  0
LINE
  8
1
  6
CONTINUOUS
 62
     0
 10
 5.80799480855785E+0000
 20
 4.42508756155439E+0000
 11
 5.79507568444387E+0000
 21
 4.43800668566837E+0000
  0
LINE
  8
1
  6
CONTINUOUS
 62
     0
 10
 5.80255186770955E+0000
 20
 4.45118470658053E+0000
 11
 5.79808641077398E+0000
 21
 4.45565016351611E+0000
  0
LINE
  8
1
  6
CONTINUOUS
 62
     0
 10
 5.83111670406652E+0000
 20
 4.31422553351149E+0000
 11
 5.82257177231804E+0000
 21
 4.30568060177029E+0000
  0
LINE
  8
1
  6
CONTINUOUS
 62
     0
 10
 5.82755236337107E+0000
 20
 4.33131539700116E+0000
 11
 5.80191756813292E+0000
 21
 4.30568060177029E+0000
  0
LINE
  8
1
  6
CONTINUOUS
 62
     0
 10
 5.82398802267562E+0000
 20
 4.34840526049084E+0000
 11
 5.78126336394780E+0000
 21
 4.30568060177029E+0000
  0
LINE
  8
1
  6
CONTINUOUS
 62
     0
 10
 5.82042368198017E+0000
 20
 4.36549512398051E+0000
 11
 5.77494082794874E+0000
 21
 4.32001226995635E+0000
  0
LINE
  8
1
  6
CONTINUOUS
 62
     0
 10
 5.81685934128473E+0000
 20
 4.38258498747746E+0000
 11
 5.77919048368494E+0000
 21
 4.34491612987767E+0000
  0
LINE
  8
1
  6
CONTINUOUS
 62
     0
 10
 5.81329500058928E+0000
 20
 4.39967485096713E+0000
 11
 5.78344013942115E+0000
 21
 4.36981998979900E+0000
  0
LINE
  8
1
  6
CONTINUOUS
 62
     0
 10
 5.80973065989383E+0000
 20
 4.41676471444953E+0000
 11
 5.78768979515735E+0000
 21
 4.39472384972032E+0000
  0
LINE
  8
1
  6
CONTINUOUS
 62
     0
 10
 5.80616631919838E+0000
 20
 4.43385457794648E+0000
 11
 5.79193945088628E+0000
 21
 4.41962770963437E+0000
  0
LINE
  8
1
  6
CONTINUOUS
 62
     0
 10
 5.80260197850293E+0000
 20
 4.45094444143615E+0000
 11
 5.79618910662248E+0000
 21
 4.44453156955569E+0000
  0
LINE
  8
1
  6
CONTINUOUS
 62
     0
 10
 4.24816966916114E+0000
 20
 6.16963695723098E+0000
 11
 4.24816966916114E+0000
 21
 6.16963695723098E+0000
  0
LINE
  8
1
  6
CONTINUOUS
 62
     0
 10
 4.24816966916114E+0000
 20
 6.16963695723098E+0000
 11
 4.40745899581088E+0000
 21
 6.14245543586730E+0000
  0
LINE
  8
1
  6
CONTINUOUS
 62
     0
 10
 4.40745899581088E+0000
 20
 6.14245543586730E+0000
 11
 4.40745899581088E+0000
 21
 6.20285907333891E+0000
  0
LINE
  8
1
  6
CONTINUOUS
 62
     0
 10
 4.40745899581088E+0000
 20
 6.20285907333891E+0000
 11
 4.24816966916114E+0000
 21
 6.16963695723098E+0000
  0
LINE
  8
1
  6
CONTINUOUS
 62
     0
 10
 4.40745899581088E+0000
 20
 6.14245543586730E+0000
 11
 4.40745899581088E+0000
 21
 6.20285907333891E+0000
  0
LINE
  8
1
  6
CONTINUOUS
 62
     0
 10
 4.26062159911817E+0000
 20
 6.16751212936651E+0000
 11
 4.25671460090962E+0000
 21
 6.17141912757506E+0000
  0
LINE
  8
1
  6
CONTINUOUS
 62
     0
 10
 4.28552545903949E+0000
 20
 6.16326247363031E+0000
 11
 4.27380446439929E+0000
 21
 6.17498346827051E+0000
  0
LINE
  8
1
  6
CONTINUOUS
 62
     0
 10
 4.31042931896081E+0000
 20
 6.15901281789411E+0000
 11
 4.29089432788896E+0000
 21
 6.17854780896596E+0000
  0
LINE
  8
1
  6
CONTINUOUS
 62
     0
 10
 4.33533317888214E+0000
 20
 6.15476316215791E+0000
 11
 4.30798419137864E+0000
 21
 6.18211214966141E+0000
  0
LINE
  8
1
  6
CONTINUOUS
 62
     0
 10
 4.36023703879619E+0000
 20
 6.15051350642898E+0000
 11
 4.32507405486831E+0000
 21
 6.18567649035685E+0000
  0
LINE
  8
1
  6
CONTINUOUS
 62
     0
 10
 4.38514089871751E+0000
 20
 6.14626385069278E+0000
 11
 4.34216391835798E+0000
 21
 6.18924083105230E+0000
  0
LINE
  8
1
  6
CONTINUOUS
 62
     0
 10
 4.40745899581088E+0000
 20
 6.14459995778452E+0000
 11
 4.35925378185493E+0000
 21
 6.19280517174775E+0000
  0
LINE
  8
1
  6
CONTINUOUS
 62
     0
 10
 4.40745899581088E+0000
 20
 6.16525416196964E+0000
 11
 4.37634364534460E+0000
 21
 6.19636951243592E+0000
  0
LINE
  8
1
  6
CONTINUOUS
 62
     0
 10
 4.40745899581088E+0000
 20
 6.18590836615476E+0000
 11
 4.39343350883428E+0000
 21
 6.19993385313137E+0000
  0
LINE
  8
1
  6
CONTINUOUS
 62
     0
 10
 4.40745899580361E+0000
 20
 6.15278253795259E+0000
 11
 4.39863725687610E+0000
 21
 6.14396079902508E+0000
  0
LINE
  8
1
  6
CONTINUOUS
 62
     0
 10
 4.40745899580361E+0000
 20
 6.17343674213771E+0000
 11
 4.38099377902836E+0000
 21
 6.14697152536246E+0000
  0
LINE
  8
1
  6
CONTINUOUS
 62
     0
 10
 4.40745899581088E+0000
 20
 6.19409094633011E+0000
 11
 4.36335030117334E+0000
 21
 6.14998225169256E+0000
  0
LINE
  8
1
  6
CONTINUOUS
 62
     0
 10
 4.39244061615318E+0000
 20
 6.19972677085752E+0000
 11
 4.34570682331832E+0000
 21
 6.15299297802267E+0000
  0
LINE
  8
1
  6
CONTINUOUS
 62
     0
 10
 4.36634347111976E+0000
 20
 6.19428383000923E+0000
 11
 4.32806334547058E+0000
 21
 6.15600370436005E+0000
  0
LINE
  8
1
  6
CONTINUOUS
 62
     0
 10
 4.34024632608634E+0000
 20
 6.18884088916820E+0000
 11
 4.31041986761556E+0000
 21
 6.15901443069015E+0000
  0
LINE
  8
1
  6
CONTINUOUS
 62
     0
 10
 4.31414918105293E+0000
 20
 6.18339794831991E+0000
 11
 4.29277638976055E+0000
 21
 6.16202515702025E+0000
  0
LINE
  8
1
  6
CONTINUOUS
 62
     0
 10
 4.28805203602678E+0000
 20
 6.17795500747161E+0000
 11
 4.27513291190553E+0000
 21
 6.16503588335763E+0000
  0
LINE
  8
1
  6
CONTINUOUS
 62
     0
 10
 4.26195489099337E+0000
 20
 6.17251206662331E+0000
 11
 4.25748943405779E+0000
 21
 6.16804660968774E+0000
  0
LINE
  8
1
  6
CONTINUOUS
 62
     0
 10
 4.24816966916114E+0000
 20
 6.16963695723098E+0000
 11
 4.24816966916114E+0000
 21
 6.16963695723098E+0000
  0
LINE
  8
1
  6
CONTINUOUS
 62
     0
 10
 4.24816966916114E+0000
 20
 6.16963695723098E+0000
 11
 4.40745899581088E+0000
 21
 6.14245543586730E+0000
  0
LINE
  8
1
  6
CONTINUOUS
 62
     0
 10
 4.40745899581088E+0000
 20
 6.14245543586730E+0000
 11
 4.40745899581088E+0000
 21
 6.20285907333891E+0000
  0
LINE
  8
1
  6
CONTINUOUS
 62
     0
 10
 4.40745899581088E+0000
 20
 6.20285907333891E+0000
 11
 4.24816966916114E+0000
 21
 6.16963695723098E+0000
  0
LINE
  8
1
  6
CONTINUOUS
 62
     0
 10
 4.40745899581088E+0000
 20
 6.14245543586730E+0000
 11
 4.40745899581088E+0000
 21
 6.20285907333891E+0000
  0
LINE
  8
1
  6
CONTINUOUS
 62
     0
 10
 4.26062159911817E+0000
 20
 6.16751212936651E+0000
 11
 4.25671460090962E+0000
 21
 6.17141912757506E+0000
  0
LINE
  8
1
  6
CONTINUOUS
 62
     0
 10
 4.28552545903949E+0000
 20
 6.16326247363031E+0000
 11
 4.27380446439929E+0000
 21
 6.17498346827051E+0000
  0
LINE
  8
1
  6
CONTINUOUS
 62
     0
 10
 4.31042931896081E+0000
 20
 6.15901281789411E+0000
 11
 4.29089432788896E+0000
 21
 6.17854780896596E+0000
  0
LINE
  8
1
  6
CONTINUOUS
 62
     0
 10
 4.33533317888214E+0000
 20
 6.15476316215791E+0000
 11
 4.30798419137864E+0000
 21
 6.18211214966141E+0000
  0
LINE
  8
1
  6
CONTINUOUS
 62
     0
 10
 4.36023703879619E+0000
 20
 6.15051350642898E+0000
 11
 4.32507405486831E+0000
 21
 6.18567649035685E+0000
  0
LINE
  8
1
  6
CONTINUOUS
 62
     0
 10
 4.38514089871751E+0000
 20
 6.14626385069278E+0000
 11
 4.34216391835798E+0000
 21
 6.18924083105230E+0000
  0
LINE
  8
1
  6
CONTINUOUS
 62
     0
 10
 4.40745899581088E+0000
 20
 6.14459995778452E+0000
 11
 4.35925378185493E+0000
 21
 6.19280517174775E+0000
  0
LINE
  8
1
  6
CONTINUOUS
 62
     0
 10
 4.40745899581088E+0000
 20
 6.16525416196964E+0000
 11
 4.37634364534460E+0000
 21
 6.19636951243592E+0000
  0
LINE
  8
1
  6
CONTINUOUS
 62
     0
 10
 4.40745899581088E+0000
 20
 6.18590836615476E+0000
 11
 4.39343350883428E+0000
 21
 6.19993385313137E+0000
  0
LINE
  8
1
  6
CONTINUOUS
 62
     0
 10
 4.40745899580361E+0000
 20
 6.15278253795259E+0000
 11
 4.39863725687610E+0000
 21
 6.14396079902508E+0000
  0
LINE
  8
1
  6
CONTINUOUS
 62
     0
 10
 4.40745899580361E+0000
 20
 6.17343674213771E+0000
 11
 4.38099377902836E+0000
 21
 6.14697152536246E+0000
  0
LINE
  8
1
  6
CONTINUOUS
 62
     0
 10
 4.40745899581088E+0000
 20
 6.19409094633011E+0000
 11
 4.36335030117334E+0000
 21
 6.14998225169256E+0000
  0
LINE
  8
1
  6
CONTINUOUS
 62
     0
 10
 4.39244061615318E+0000
 20
 6.19972677085752E+0000
 11
 4.34570682331832E+0000
 21
 6.15299297802267E+0000
  0
LINE
  8
1
  6
CONTINUOUS
 62
     0
 10
 4.36634347111976E+0000
 20
 6.19428383000923E+0000
 11
 4.32806334547058E+0000
 21
 6.15600370436005E+0000
  0
LINE
  8
1
  6
CONTINUOUS
 62
     0
 10
 4.34024632608634E+0000
 20
 6.18884088916820E+0000
 11
 4.31041986761556E+0000
 21
 6.15901443069015E+0000
  0
LINE
  8
1
  6
CONTINUOUS
 62
     0
 10
 4.31414918105293E+0000
 20
 6.18339794831991E+0000
 11
 4.29277638976055E+0000
 21
 6.16202515702025E+0000
  0
LINE
  8
1
  6
CONTINUOUS
 62
     0
 10
 4.28805203602678E+0000
 20
 6.17795500747161E+0000
 11
 4.27513291190553E+0000
 21
 6.16503588335763E+0000
  0
LINE
  8
1
  6
CONTINUOUS
 62
     0
 10
 4.26195489099337E+0000
 20
 6.17251206662331E+0000
 11
 4.25748943405779E+0000
 21
 6.16804660968774E+0000
  0
LINE
  8
1
  6
CONTINUOUS
 62
     0
 10
 3.72360156137802E+0000
 20
 6.17065985441877E+0000
 11
 3.72360156137802E+0000
 21
 6.17065985441877E+0000
  0
LINE
  8
1
  6
CONTINUOUS
 62
     0
 10
 3.72360156137802E+0000
 20
 6.17065985441877E+0000
 11
 3.56431223474283E+0000
 21
 6.19784137578245E+0000
  0
LINE
  8
1
  6
CONTINUOUS
 62
     0
 10
 3.56431223474283E+0000
 20
 6.19784137578245E+0000
 11
 3.56431223474283E+0000
 21
 6.13743773831084E+0000
  0
LINE
  8
1
  6
CONTINUOUS
 62
     0
 10
 3.56431223474283E+0000
 20
 6.13743773831084E+0000
 11
 3.72360156137802E+0000
 21
 6.17065985441877E+0000
  0
LINE
  8
1
  6
CONTINUOUS
 62
     0
 10
 3.56431223474283E+0000
 20
 6.19784137578245E+0000
 11
 3.56431223474283E+0000
 21
 6.13743773831084E+0000
  0
LINE
  8
1
  6
CONTINUOUS
 62
     0
 10
 3.57285716649130E+0000
 20
 6.13921990866220E+0000
 11
 3.56431223474283E+0000
 21
 6.14776484040340E+0000
  0
LINE
  8
1
  6
CONTINUOUS
 62
     0
 10
 3.58994702998098E+0000
 20
 6.14278424935765E+0000
 11
 3.56431223474283E+0000
 21
 6.16841904458852E+0000
  0
LINE
  8
1
  6
CONTINUOUS
 62
     0
 10
 3.60703689347065E+0000
 20
 6.14634859004582E+0000
 11
 3.56431223474283E+0000
 21
 6.18907324878091E+0000
  0
LINE
  8
1
  6
CONTINUOUS
 62
     0
 10
 3.62412675696032E+0000
 20
 6.14991293074127E+0000
 11
 3.57864390293253E+0000
 21
 6.19539578477270E+0000
  0
LINE
  8
1
  6
CONTINUOUS
 62
     0
 10
 3.64121662045363E+0000
 20
 6.15347727143671E+0000
 11
 3.60354776285385E+0000
 21
 6.19114612903650E+0000
  0
LINE
  8
1
  6
CONTINUOUS
 62
     0
 10
 3.65830648394331E+0000
 20
 6.15704161213216E+0000
 11
 3.62845162277154E+0000
 21
 6.18689647330757E+0000
  0
LINE
  8
1
  6
CONTINUOUS
 62
     0
 10
 3.67539634743298E+0000
 20
 6.16060595282761E+0000
 11
 3.65335548268922E+0000
 21
 6.18264681757137E+0000
  0
LINE
  8
1
  6
CONTINUOUS
 62
     0
 10
 3.69248621092265E+0000
 20
 6.16417029352306E+0000
 11
 3.67825934261054E+0000
 21
 6.17839716183516E+0000
  0
LINE
  8
1
  6
CONTINUOUS
 62
     0
 10
 3.70957607441233E+0000
 20
 6.16773463421850E+0000
 11
 3.70316320252823E+0000
 21
 6.17414750610624E+0000
  0
LINE
  8
1
  6
CONTINUOUS
 62
     0
 10
 3.71477982244687E+0000
 20
 6.17216521758382E+0000
 11
 3.71055298886131E+0000
 21
 6.16793838399462E+0000
  0
LINE
  8
1
  6
CONTINUOUS
 62
     0
 10
 3.69713634459549E+0000
 20
 6.17517594391393E+0000
 11
 3.68445584382789E+0000
 21
 6.16249544314633E+0000
  0
LINE
  8
1
  6
CONTINUOUS
 62
     0
 10
 3.67949286674047E+0000
 20
 6.17818667024403E+0000
 11
 3.65835869879447E+0000
 21
 6.15705250229803E+0000
  0
LINE
  8
1
  6
CONTINUOUS
 62
     0
 10
 3.66184938889273E+0000
 20
 6.18119739658141E+0000
 11
 3.63226155376469E+0000
 21
 6.15160956144973E+0000
  0
LINE
  8
1
  6
CONTINUOUS
 62
     0
 10
 3.64420591104135E+0000
 20
 6.18420812291151E+0000
 11
 3.60616440873127E+0000
 21
 6.14616662060143E+0000
  0
LINE
  8
1
  6
CONTINUOUS
 62
     0
 10
 3.62656243318634E+0000
 20
 6.18721884924162E+0000
 11
 3.58006726369786E+0000
 21
 6.14072367975314E+0000
  0
LINE
  8
1
  6
CONTINUOUS
 62
     0
 10
 3.60891895533132E+0000
 20
 6.19022957557900E+0000
 11
 3.56431223473555E+0000
 21
 6.14562285497959E+0000
  0
LINE
  8
1
  6
CONTINUOUS
 62
     0
 10
 3.59127547747994E+0000
 20
 6.19324030190910E+0000
 11
 3.56431223473555E+0000
 21
 6.16627705916471E+0000
  0
LINE
  8
1
  6
CONTINUOUS
 62
     0
 10
 3.57363199962492E+0000
 20
 6.19625102823920E+0000
 11
 3.56431223474283E+0000
 21
 6.18693126335711E+0000
  0
LINE
  8
1
  6
CONTINUOUS
 62
     0
 10
 3.72360156137802E+0000
 20
 6.17065985441877E+0000
 11
 3.72360156137802E+0000
 21
 6.17065985441877E+0000
  0
LINE
  8
1
  6
CONTINUOUS
 62
     0
 10
 3.72360156137802E+0000
 20
 6.17065985441877E+0000
 11
 3.56431223474283E+0000
 21
 6.19784137578245E+0000
  0
LINE
  8
1
  6
CONTINUOUS
 62
     0
 10
 3.56431223474283E+0000
 20
 6.19784137578245E+0000
 11
 3.56431223474283E+0000
 21
 6.13743773831084E+0000
  0
LINE
  8
1
  6
CONTINUOUS
 62
     0
 10
 3.56431223474283E+0000
 20
 6.13743773831084E+0000
 11
 3.72360156137802E+0000
 21
 6.17065985441877E+0000
  0
LINE
  8
1
  6
CONTINUOUS
 62
     0
 10
 3.56431223474283E+0000
 20
 6.19784137578245E+0000
 11
 3.56431223474283E+0000
 21
 6.13743773831084E+0000
  0
LINE
  8
1
  6
CONTINUOUS
 62
     0
 10
 3.57285716649130E+0000
 20
 6.13921990866220E+0000
 11
 3.56431223474283E+0000
 21
 6.14776484040340E+0000
  0
LINE
  8
1
  6
CONTINUOUS
 62
     0
 10
 3.58994702998098E+0000
 20
 6.14278424935765E+0000
 11
 3.56431223474283E+0000
 21
 6.16841904458852E+0000
  0
LINE
  8
1
  6
CONTINUOUS
 62
     0
 10
 3.60703689347065E+0000
 20
 6.14634859004582E+0000
 11
 3.56431223474283E+0000
 21
 6.18907324878091E+0000
  0
LINE
  8
1
  6
CONTINUOUS
 62
     0
 10
 3.62412675696032E+0000
 20
 6.14991293074127E+0000
 11
 3.57864390293253E+0000
 21
 6.19539578477270E+0000
  0
LINE
  8
1
  6
CONTINUOUS
 62
     0
 10
 3.64121662045363E+0000
 20
 6.15347727143671E+0000
 11
 3.60354776285385E+0000
 21
 6.19114612903650E+0000
  0
LINE
  8
1
  6
CONTINUOUS
 62
     0
 10
 3.65830648394331E+0000
 20
 6.15704161213216E+0000
 11
 3.62845162277154E+0000
 21
 6.18689647330757E+0000
  0
LINE
  8
1
  6
CONTINUOUS
 62
     0
 10
 3.67539634743298E+0000
 20
 6.16060595282761E+0000
 11
 3.65335548268922E+0000
 21
 6.18264681757137E+0000
  0
LINE
  8
1
  6
CONTINUOUS
 62
     0
 10
 3.69248621092265E+0000
 20
 6.16417029352306E+0000
 11
 3.67825934261054E+0000
 21
 6.17839716183516E+0000
  0
LINE
  8
1
  6
CONTINUOUS
 62
     0
 10
 3.70957607441233E+0000
 20
 6.16773463421850E+0000
 11
 3.70316320252823E+0000
 21
 6.17414750610624E+0000
  0
LINE
  8
1
  6
CONTINUOUS
 62
     0
 10
 3.71477982244687E+0000
 20
 6.17216521758382E+0000
 11
 3.71055298886131E+0000
 21
 6.16793838399462E+0000
  0
LINE
  8
1
  6
CONTINUOUS
 62
     0
 10
 3.69713634459549E+0000
 20
 6.17517594391393E+0000
 11
 3.68445584382789E+0000
 21
 6.16249544314633E+0000
  0
LINE
  8
1
  6
CONTINUOUS
 62
     0
 10
 3.67949286674047E+0000
 20
 6.17818667024403E+0000
 11
 3.65835869879447E+0000
 21
 6.15705250229803E+0000
  0
LINE
  8
1
  6
CONTINUOUS
 62
     0
 10
 3.66184938889273E+0000
 20
 6.18119739658141E+0000
 11
 3.63226155376469E+0000
 21
 6.15160956144973E+0000
  0
LINE
  8
1
  6
CONTINUOUS
 62
     0
 10
 3.64420591104135E+0000
 20
 6.18420812291151E+0000
 11
 3.60616440873127E+0000
 21
 6.14616662060143E+0000
  0
LINE
  8
1
  6
CONTINUOUS
 62
     0
 10
 3.62656243318634E+0000
 20
 6.18721884924162E+0000
 11
 3.58006726369786E+0000
 21
 6.14072367975314E+0000
  0
LINE
  8
1
  6
CONTINUOUS
 62
     0
 10
 3.60891895533132E+0000
 20
 6.19022957557900E+0000
 11
 3.56431223473555E+0000
 21
 6.14562285497959E+0000
  0
LINE
  8
1
  6
CONTINUOUS
 62
     0
 10
 3.59127547747994E+0000
 20
 6.19324030190910E+0000
 11
 3.56431223473555E+0000
 21
 6.16627705916471E+0000
  0
LINE
  8
1
  6
CONTINUOUS
 62
     0
 10
 3.57363199962492E+0000
 20
 6.19625102823920E+0000
 11
 3.56431223474283E+0000
 21
 6.18693126335711E+0000
  0
LINE
  8
1
  6
CONTINUOUS
 62
     0
 10
 2.56896079725266E+0000
 20
 4.07263394724578E+0000
 11
 2.56896079725266E+0000
 21
 2.03251403426839E+0000
  0
LINE
  8
1
  6
CONTINUOUS
 62
     0
 10
 2.56896079725266E+0000
 20
 2.03251403426839E+0000
 11
 5.41122426022775E+0000
 21
 2.03251403426839E+0000
  0
LINE
  8
1
  6
CONTINUOUS
 62
     0
 10
 5.41122426022775E+0000
 20
 2.03251403426839E+0000
 11
 5.41122426022775E+0000
 21
 4.07263394724578E+0000
  0
LINE
  8
1
  6
CONTINUOUS
 62
     0
 10
 5.40663370258699E+0000
 20
 2.03016332216794E+0000
 11
 5.40663370258699E+0000
 21
 2.03016332216794E+0000
  0
LINE
  8
1
  6
CONTINUOUS
 62
     0
 10
 5.40663370258699E+0000
 20
 2.03016332216794E+0000
 11
 5.24734437595180E+0000
 21
 2.05734484353161E+0000
  0
LINE
  8
1
  6
CONTINUOUS
 62
     0
 10
 5.24734437595180E+0000
 20
 2.05734484353161E+0000
 11
 5.24734437595180E+0000
 21
 1.99694120606000E+0000
  0
LINE
  8
1
  6
CONTINUOUS
 62
     0
 10
 5.24734437595180E+0000
 20
 1.99694120606000E+0000
 11
 5.40663370258699E+0000
 21
 2.03016332216794E+0000
  0
LINE
  8
1
  6
CONTINUOUS
 62
     0
 10
 5.24734437595180E+0000
 20
 2.05734484353161E+0000
 11
 5.24734437595180E+0000
 21
 1.99694120606000E+0000
  0
LINE
  8
1
  6
CONTINUOUS
 62
     0
 10
 5.25588930770027E+0000
 20
 1.99872337640409E+0000
 11
 5.24734437595180E+0000
 21
 2.00726830814892E+0000
  0
LINE
  8
1
  6
CONTINUOUS
 62
     0
 10
 5.27297917118995E+0000
 20
 2.00228771709953E+0000
 11
 5.24734437595180E+0000
 21
 2.02792251233404E+0000
  0
LINE
  8
1
  6
CONTINUOUS
 62
     0
 10
 5.29006903467962E+0000
 20
 2.00585205779498E+0000
 11
 5.24734437595180E+0000
 21
 2.04857671651916E+0000
  0
LINE
  8
1
  6
CONTINUOUS
 62
     0
 10
 5.30715889816929E+0000
 20
 2.00941639849043E+0000
 11
 5.26167604413058E+0000
 21
 2.05489925252550E+0000
  0
LINE
  8
1
  6
CONTINUOUS
 62
     0
 10
 5.32424876165896E+0000
 20
 2.01298073918588E+0000
 11
 5.28657990405191E+0000
 21
 2.05064959678930E+0000
  0
LINE
  8
1
  6
CONTINUOUS
 62
     0
 10
 5.34133862514864E+0000
 20
 2.01654507988133E+0000
 11
 5.31148376397323E+0000
 21
 2.04639994105310E+0000
  0
LINE
  8
1
  6
CONTINUOUS
 62
     0
 10
 5.35842848863831E+0000
 20
 2.02010942057314E+0000
 11
 5.33638762389455E+0000
 21
 2.04215028532053E+0000
  0
LINE
  8
1
  6
CONTINUOUS
 62
     0
 10
 5.37551835212798E+0000
 20
 2.02367376127222E+0000
 11
 5.36129148381588E+0000
 21
 2.03790062958433E+0000
  0
LINE
  8
1
  6
CONTINUOUS
 62
     0
 10
 5.39260821561766E+0000
 20
 2.02723810196767E+0000
 11
 5.38619534373720E+0000
 21
 2.03365097385176E+0000
  0
LINE
  8
1
  6
CONTINUOUS
 62
     0
 10
 5.39781196365948E+0000
 20
 2.03166868533299E+0000
 11
 5.39358513007028E+0000
 21
 2.02744185174743E+0000
  0
LINE
  8
1
  6
CONTINUOUS
 62
     0
 10
 5.38016848580446E+0000
 20
 2.03467941166673E+0000
 11
 5.36748798503686E+0000
 21
 2.02199891089549E+0000
  0
LINE
  8
1
  6
CONTINUOUS
 62
     0
 10
 5.36252500794944E+0000
 20
 2.03769013799683E+0000
 11
 5.34139084000344E+0000
 21
 2.01655597004719E+0000
  0
LINE
  8
1
  6
CONTINUOUS
 62
     0
 10
 5.34488153010170E+0000
 20
 2.04070086433421E+0000
 11
 5.31529369497002E+0000
 21
 2.01111302920617E+0000
  0
LINE
  8
1
  6
CONTINUOUS
 62
     0
 10
 5.32723805224668E+0000
 20
 2.04371159066432E+0000
 11
 5.28919654993661E+0000
 21
 2.00567008835787E+0000
  0
LINE
  8
1
  6
CONTINUOUS
 62
     0
 10
 5.30959457439167E+0000
 20
 2.04672231699806E+0000
 11
 5.26309940491046E+0000
 21
 2.00022714751321E+0000
  0
LINE
  8
1
  6
CONTINUOUS
 62
     0
 10
 5.29195109654393E+0000
 20
 2.04973304332816E+0000
 11
 5.24734437594452E+0000
 21
 2.00512632273239E+0000
  0
LINE
  8
1
  6
CONTINUOUS
 62
     0
 10
 5.27430761868891E+0000
 20
 2.05274376966190E+0000
 11
 5.24734437594452E+0000
 21
 2.02578052692115E+0000
  0
LINE
  8
1
  6
CONTINUOUS
 62
     0
 10
 5.25666414083389E+0000
 20
 2.05575449599201E+0000
 11
 5.24734437594452E+0000
 21
 2.04643473110627E+0000
  0
LINE
  8
1
  6
CONTINUOUS
 62
     0
 10
 5.40663370258699E+0000
 20
 2.03016332216794E+0000
 11
 5.40663370258699E+0000
 21
 2.03016332216794E+0000
  0
LINE
  8
1
  6
CONTINUOUS
 62
     0
 10
 5.40663370258699E+0000
 20
 2.03016332216794E+0000
 11
 5.24734437595180E+0000
 21
 2.05734484353161E+0000
  0
LINE
  8
1
  6
CONTINUOUS
 62
     0
 10
 5.24734437595180E+0000
 20
 2.05734484353161E+0000
 11
 5.24734437595180E+0000
 21
 1.99694120606000E+0000
  0
LINE
  8
1
  6
CONTINUOUS
 62
     0
 10
 5.24734437595180E+0000
 20
 1.99694120606000E+0000
 11
 5.40663370258699E+0000
 21
 2.03016332216794E+0000
  0
LINE
  8
1
  6
CONTINUOUS
 62
     0
 10
 5.24734437595180E+0000
 20
 2.05734484353161E+0000
 11
 5.24734437595180E+0000
 21
 1.99694120606000E+0000
  0
LINE
  8
1
  6
CONTINUOUS
 62
     0
 10
 5.25588930770027E+0000
 20
 1.99872337640409E+0000
 11
 5.24734437595180E+0000
 21
 2.00726830814892E+0000
  0
LINE
  8
1
  6
CONTINUOUS
 62
     0
 10
 5.27297917118995E+0000
 20
 2.00228771709953E+0000
 11
 5.24734437595180E+0000
 21
 2.02792251233404E+0000
  0
LINE
  8
1
  6
CONTINUOUS
 62
     0
 10
 5.29006903467962E+0000
 20
 2.00585205779498E+0000
 11
 5.24734437595180E+0000
 21
 2.04857671651916E+0000
  0
LINE
  8
1
  6
CONTINUOUS
 62
     0
 10
 5.30715889816929E+0000
 20
 2.00941639849043E+0000
 11
 5.26167604413058E+0000
 21
 2.05489925252550E+0000
  0
LINE
  8
1
  6
CONTINUOUS
 62
     0
 10
 5.32424876165896E+0000
 20
 2.01298073918588E+0000
 11
 5.28657990405191E+0000
 21
 2.05064959678930E+0000
  0
LINE
  8
1
  6
CONTINUOUS
 62
     0
 10
 5.34133862514864E+0000
 20
 2.01654507988133E+0000
 11
 5.31148376397323E+0000
 21
 2.04639994105310E+0000
  0
LINE
  8
1
  6
CONTINUOUS
 62
     0
 10
 5.35842848863831E+0000
 20
 2.02010942057314E+0000
 11
 5.33638762389455E+0000
 21
 2.04215028532053E+0000
  0
LINE
  8
1
  6
CONTINUOUS
 62
     0
 10
 5.37551835212798E+0000
 20
 2.02367376127222E+0000
 11
 5.36129148381588E+0000
 21
 2.03790062958433E+0000
  0
LINE
  8
1
  6
CONTINUOUS
 62
     0
 10
 5.39260821561766E+0000
 20
 2.02723810196767E+0000
 11
 5.38619534373720E+0000
 21
 2.03365097385176E+0000
  0
LINE
  8
1
  6
CONTINUOUS
 62
     0
 10
 5.39781196365948E+0000
 20
 2.03166868533299E+0000
 11
 5.39358513007028E+0000
 21
 2.02744185174743E+0000
  0
LINE
  8
1
  6
CONTINUOUS
 62
     0
 10
 5.38016848580446E+0000
 20
 2.03467941166673E+0000
 11
 5.36748798503686E+0000
 21
 2.02199891089549E+0000
  0
LINE
  8
1
  6
CONTINUOUS
 62
     0
 10
 5.36252500794944E+0000
 20
 2.03769013799683E+0000
 11
 5.34139084000344E+0000
 21
 2.01655597004719E+0000
  0
LINE
  8
1
  6
CONTINUOUS
 62
     0
 10
 5.34488153010170E+0000
 20
 2.04070086433421E+0000
 11
 5.31529369497002E+0000
 21
 2.01111302920617E+0000
  0
LINE
  8
1
  6
CONTINUOUS
 62
     0
 10
 5.32723805224668E+0000
 20
 2.04371159066432E+0000
 11
 5.28919654993661E+0000
 21
 2.00567008835787E+0000
  0
LINE
  8
1
  6
CONTINUOUS
 62
     0
 10
 5.30959457439167E+0000
 20
 2.04672231699806E+0000
 11
 5.26309940491046E+0000
 21
 2.00022714751321E+0000
  0
LINE
  8
1
  6
CONTINUOUS
 62
     0
 10
 5.29195109654393E+0000
 20
 2.04973304332816E+0000
 11
 5.24734437594452E+0000
 21
 2.00512632273239E+0000
  0
LINE
  8
1
  6
CONTINUOUS
 62
     0
 10
 5.27430761868891E+0000
 20
 2.05274376966190E+0000
 11
 5.24734437594452E+0000
 21
 2.02578052692115E+0000
  0
LINE
  8
1
  6
CONTINUOUS
 62
     0
 10
 5.25666414083389E+0000
 20
 2.05575449599201E+0000
 11
 5.24734437594452E+0000
 21
 2.04643473110627E+0000
  0
LINE
  8
1
  6
CONTINUOUS
 62
     0
 10
 2.56513752794126E+0000
 20
 2.02914042498014E+0000
 11
 2.56513752794126E+0000
 21
 2.02914042498014E+0000
  0
LINE
  8
1
  6
CONTINUOUS
 62
     0
 10
 2.56513752794126E+0000
 20
 2.02914042498014E+0000
 11
 2.72442685459100E+0000
 21
 2.00195890361647E+0000
  0
LINE
  8
1
  6
CONTINUOUS
 62
     0
 10
 2.72442685459100E+0000
 20
 2.00195890361647E+0000
 11
 2.72442685459100E+0000
 21
 2.06236254108808E+0000
  0
LINE
  8
1
  6
CONTINUOUS
 62
     0
 10
 2.72442685459100E+0000
 20
 2.06236254108808E+0000
 11
 2.56513752794126E+0000
 21
 2.02914042498014E+0000
  0
LINE
  8
1
  6
CONTINUOUS
 62
     0
 10
 2.72442685459100E+0000
 20
 2.00195890361647E+0000
 11
 2.72442685459100E+0000
 21
 2.06236254108808E+0000
  0
LINE
  8
1
  6
CONTINUOUS
 62
     0
 10
 2.57758945790192E+0000
 20
 2.02701559711204E+0000
 11
 2.57368245968610E+0000
 21
 2.03092259532787E+0000
  0
LINE
  8
1
  6
CONTINUOUS
 62
     0
 10
 2.60249331781961E+0000
 20
 2.02276594137948E+0000
 11
 2.59077232317577E+0000
 21
 2.03448693601968E+0000
  0
LINE
  8
1
  6
CONTINUOUS
 62
     0
 10
 2.62739717774093E+0000
 20
 2.01851628564327E+0000
 11
 2.60786218666908E+0000
 21
 2.03805127671512E+0000
  0
LINE
  8
1
  6
CONTINUOUS
 62
     0
 10
 2.65230103765862E+0000
 20
 2.01426662991071E+0000
 11
 2.62495205015875E+0000
 21
 2.04161561741057E+0000
  0
LINE
  8
1
  6
CONTINUOUS
 62
     0
 10
 2.67720489757994E+0000
 20
 2.01001697417814E+0000
 11
 2.64204191364843E+0000
 21
 2.04517995810602E+0000
  0
LINE
  8
1
  6
CONTINUOUS
 62
     0
 10
 2.70210875749763E+0000
 20
 2.00576731844194E+0000
 11
 2.65913177714174E+0000
 21
 2.04874429879783E+0000
  0
LINE
  8
1
  6
CONTINUOUS
 62
     0
 10
 2.72442685459464E+0000
 20
 2.00410342553369E+0000
 11
 2.67622164063141E+0000
 21
 2.05230863949328E+0000
  0
LINE
  8
1
  6
CONTINUOUS
 62
     0
 10
 2.72442685459100E+0000
 20
 2.02475762971881E+0000
 11
 2.69331150412472E+0000
 21
 2.05587298018872E+0000
  0
LINE
  8
1
  6
CONTINUOUS
 62
     0
 10
 2.72442685459100E+0000
 20
 2.04541183390393E+0000
 11
 2.71040136761439E+0000
 21
 2.05943732088053E+0000
  0
LINE
  8
1
  6
CONTINUOUS
 62
     0
 10
 2.72442685458736E+0000
 20
 2.01228600570539E+0000
 11
 2.71560511565986E+0000
 21
 2.00346426678152E+0000
  0
LINE
  8
1
  6
CONTINUOUS
 62
     0
 10
 2.72442685458736E+0000
 20
 2.03294020989415E+0000
 11
 2.69796163780848E+0000
 21
 2.00647499311162E+0000
  0
LINE
  8
1
  6
CONTINUOUS
 62
     0
 10
 2.72442685458736E+0000
 20
 2.05359441407927E+0000
 11
 2.68031815995346E+0000
 21
 2.00948571944537E+0000
  0
LINE
  8
1
  6
CONTINUOUS
 62
     0
 10
 2.70940847493330E+0000
 20
 2.05923023860669E+0000
 11
 2.66267468210208E+0000
 21
 2.01249644577911E+0000
  0
LINE
  8
1
  6
CONTINUOUS
 62
     0
 10
 2.68331132989988E+0000
 20
 2.05378729776203E+0000
 11
 2.64503120425070E+0000
 21
 2.01550717210921E+0000
  0
LINE
  8
1
  6
CONTINUOUS
 62
     0
 10
 2.65721418487010E+0000
 20
 2.04834435691737E+0000
 11
 2.62738772639568E+0000
 21
 2.01851789844295E+0000
  0
LINE
  8
1
  6
CONTINUOUS
 62
     0
 10
 2.63111703984032E+0000
 20
 2.04290141606907E+0000
 11
 2.60974424854430E+0000
 21
 2.02152862477305E+0000
  0
LINE
  8
1
  6
CONTINUOUS
 62
     0
 10
 2.60501989480690E+0000
 20
 2.03745847522441E+0000
 11
 2.59210077068929E+0000
 21
 2.02453935110680E+0000
  0
LINE
  8
1
  6
CONTINUOUS
 62
     0
 10
 2.57892274978076E+0000
 20
 2.03201553437975E+0000
 11
 2.57445729283791E+0000
 21
 2.02755007744054E+0000
  0
LINE
  8
1
  6
CONTINUOUS
 62
     0
 10
 2.56513752794126E+0000
 20
 2.02914042498014E+0000
 11
 2.56513752794126E+0000
 21
 2.02914042498014E+0000
  0
LINE
  8
1
  6
CONTINUOUS
 62
     0
 10
 2.56513752794126E+0000
 20
 2.02914042498014E+0000
 11
 2.72442685459100E+0000
 21
 2.00195890361647E+0000
  0
LINE
  8
1
  6
CONTINUOUS
 62
     0
 10
 2.72442685459100E+0000
 20
 2.00195890361647E+0000
 11
 2.72442685459100E+0000
 21
 2.06236254108808E+0000
  0
LINE
  8
1
  6
CONTINUOUS
 62
     0
 10
 2.72442685459100E+0000
 20
 2.06236254108808E+0000
 11
 2.56513752794126E+0000
 21
 2.02914042498014E+0000
  0
LINE
  8
1
  6
CONTINUOUS
 62
     0
 10
 2.72442685459100E+0000
 20
 2.00195890361647E+0000
 11
 2.72442685459100E+0000
 21
 2.06236254108808E+0000
  0
LINE
  8
1
  6
CONTINUOUS
 62
     0
 10
 2.57758945790192E+0000
 20
 2.02701559711204E+0000
 11
 2.57368245968610E+0000
 21
 2.03092259532787E+0000
  0
LINE
  8
1
  6
CONTINUOUS
 62
     0
 10
 2.60249331781961E+0000
 20
 2.02276594137948E+0000
 11
 2.59077232317577E+0000
 21
 2.03448693601968E+0000
  0
LINE
  8
1
  6
CONTINUOUS
 62
     0
 10
 2.62739717774093E+0000
 20
 2.01851628564327E+0000
 11
 2.60786218666908E+0000
 21
 2.03805127671512E+0000
  0
LINE
  8
1
  6
CONTINUOUS
 62
     0
 10
 2.65230103765862E+0000
 20
 2.01426662991071E+0000
 11
 2.62495205015875E+0000
 21
 2.04161561741057E+0000
  0
LINE
  8
1
  6
CONTINUOUS
 62
     0
 10
 2.67720489757994E+0000
 20
 2.01001697417814E+0000
 11
 2.64204191364843E+0000
 21
 2.04517995810602E+0000
  0
LINE
  8
1
  6
CONTINUOUS
 62
     0
 10
 2.70210875749763E+0000
 20
 2.00576731844194E+0000
 11
 2.65913177714174E+0000
 21
 2.04874429879783E+0000
  0
LINE
  8
1
  6
CONTINUOUS
 62
     0
 10
 2.72442685459464E+0000
 20
 2.00410342553369E+0000
 11
 2.67622164063141E+0000
 21
 2.05230863949328E+0000
  0
LINE
  8
1
  6
CONTINUOUS
 62
     0
 10
 2.72442685459100E+0000
 20
 2.02475762971881E+0000
 11
 2.69331150412472E+0000
 21
 2.05587298018872E+0000
  0
LINE
  8
1
  6
CONTINUOUS
 62
     0
 10
 2.72442685459100E+0000
 20
 2.04541183390393E+0000
 11
 2.71040136761439E+0000
 21
 2.05943732088053E+0000
  0
LINE
  8
1
  6
CONTINUOUS
 62
     0
 10
 2.72442685458736E+0000
 20
 2.01228600570539E+0000
 11
 2.71560511565986E+0000
 21
 2.00346426678152E+0000
  0
LINE
  8
1
  6
CONTINUOUS
 62
     0
 10
 2.72442685458736E+0000
 20
 2.03294020989415E+0000
 11
 2.69796163780848E+0000
 21
 2.00647499311162E+0000
  0
LINE
  8
1
  6
CONTINUOUS
 62
     0
 10
 2.72442685458736E+0000
 20
 2.05359441407927E+0000
 11
 2.68031815995346E+0000
 21
 2.00948571944537E+0000
  0
LINE
  8
1
  6
CONTINUOUS
 62
     0
 10
 2.70940847493330E+0000
 20
 2.05923023860669E+0000
 11
 2.66267468210208E+0000
 21
 2.01249644577911E+0000
  0
LINE
  8
1
  6
CONTINUOUS
 62
     0
 10
 2.68331132989988E+0000
 20
 2.05378729776203E+0000
 11
 2.64503120425070E+0000
 21
 2.01550717210921E+0000
  0
LINE
  8
1
  6
CONTINUOUS
 62
     0
 10
 2.65721418487010E+0000
 20
 2.04834435691737E+0000
 11
 2.62738772639568E+0000
 21
 2.01851789844295E+0000
  0
LINE
  8
1
  6
CONTINUOUS
 62
     0
 10
 2.63111703984032E+0000
 20
 2.04290141606907E+0000
 11
 2.60974424854430E+0000
 21
 2.02152862477305E+0000
  0
LINE
  8
1
  6
CONTINUOUS
 62
     0
 10
 2.60501989480690E+0000
 20
 2.03745847522441E+0000
 11
 2.59210077068929E+0000
 21
 2.02453935110680E+0000
  0
LINE
  8
1
  6
CONTINUOUS
 62
     0
 10
 2.57892274978076E+0000
 20
 2.03201553437975E+0000
 11
 2.57445729283791E+0000
 21
 2.02755007744054E+0000
  0
TEXT
  8
1
 62
     0
 10
 5.62036844315298E+0000
 20
 4.68235975915013E+0000
 40
 1.18110236219991E-0001
  1
6.8
  7
STANDARD
 11
 5.62036844315298E+0000
 21
 4.80046999536717E+0000
 50
 9.00000000000000E+0001
 41
 2.77534794312487E-0001
  0
TEXT
  8
1
 62
     0
 10
 3.83928354444652E+0000
 20
 6.20655225602968E+0000
 40
 1.18110236219991E-0001
  1
13
  7
STANDARD
 11
 3.83928354444652E+0000
 21
 6.32466249224672E+0000
 50
 0.00000000000000E+0000
 41
 3.33041753174712E-0001
  0
TEXT
  8
1
 62
     0
 10
 3.75240135426793E+0000
 20
 2.08687767875745E+0000
 40
 1.18110236219991E-0001
  1
73
  7
STANDARD
 11
 3.75240135426793E+0000
 21
 2.20498791497812E+0000
 50
 0.00000000000000E+0000
 41
 3.33041753174712E-0001
  0
LINE
  8
1
  6
CONTINUOUS
 62
     0
 10
 8.45893461460946E+0000
 20
 4.37126972898841E+0000
 11
 8.26242304193147E+0000
 21
 4.37126972898841E+0000
  0
LINE
  8
1
  6
CONTINUOUS
 62
     0
 10
 8.26242304193147E+0000
 20
 4.37126972898841E+0000
 11
 8.26242304193147E+0000
 21
 4.48969113285420E+0000
  0
LINE
  8
1
  6
CONTINUOUS
 62
     0
 10
 8.26292436660151E+0000
 20
 3.67973758095468E+0000
 11
 8.26292436660151E+0000
 21
 3.77659859116829E+0000
  0
LINE
  8
1
  6
CONTINUOUS
 62
     0
 10
 8.26292436660151E+0000
 20
 3.77659859116829E+0000
 11
 8.45865727125783E+0000
 21
 3.77659859116829E+0000
  0
LINE
  8
1
  6
CONTINUOUS
 62
     0
 10
 8.45893461460946E+0000
 20
 4.37126972898841E+0000
 11
 8.45893461460946E+0000
 21
 3.77193785560667E+0000
  0
LINE
  8
1
  6
CONTINUOUS
 62
     0
 10
 8.26242304193147E+0000
 20
 4.37126972898841E+0000
 11
 8.26242304191692E+0000
 21
 3.77193785560667E+0000
  0
LINE
  8
1
  6
CONTINUOUS
 62
     0
 10
 8.09959271895059E+0000
 20
 4.37049682289944E+0000
 11
 8.09959271893604E+0000
 21
 3.34781091904733E+0000
  0
LINE
  8
1
  6
CONTINUOUS
 62
     0
 10
 7.87538794644934E+0000
 20
 4.65434079371335E+0000
 11
 7.87538794643478E+0000
 21
 2.66734352633648E+0000
  0
LINE
  8
1
  6
DASHDOT
 62
     0
 10
 8.62685803926433E+0000
 20
 4.07488566743268E+0000
 11
 7.67372035392327E+0000
 21
 4.07488566743268E+0000
  0
LINE
  8
1
  6
DASHDOT
 62
     0
 10
 8.06993685885391E+0000
 20
 5.14135245193029E+0000
 11
 8.54275765526108E+0000
 21
 5.14135245193029E+0000
  0
LINE
  8
1
  6
DASHDOT
 62
     0
 10
 8.07460910240479E+0000
 20
 3.02112457233306E+0000
 11
 8.55210214237741E+0000
 21
 3.02112457233306E+0000
  0
LINE
  8
1
  6
CONTINUOUS
 62
     0
 10
 8.45893461462401E+0000
 20
 5.38088877793052E+0000
 11
 8.45893461462401E+0000
 21
 4.86899510605144E+0000
  0
LINE
  8
1
  6
CONTINUOUS
 62
     0
 10
 8.46069424817688E+0000
 20
 3.27512828737963E+0000
 11
 8.46069424817688E+0000
 21
 2.75938497485186E+0000
  0
LINE
  8
1
  6
DASHDOT
 62
     0
 10
 2.97727797001062E+0000
 20
 4.07575496241043E+0000
 11
 7.65546931383869E+0000
 21
 4.07575496241043E+0000
  0
LINE
  8
1
  6
CONTINUOUS
 62
     0
 10
 8.54275765526108E+0000
 20
 5.14135245193029E+0000
 11
 9.18829841582919E+0000
 21
 5.14135245193029E+0000
  0
LINE
  8
1
  6
CONTINUOUS
 62
     0
 10
 9.18829841582919E+0000
 20
 5.14135245193029E+0000
 11
 9.18829841582919E+0000
 21
 3.02032645883082E+0000
  0
LINE
  8
1
  6
CONTINUOUS
 62
     0
 10
 9.18829841582919E+0000
 20
 3.02032645883082E+0000
 11
 8.50582075254351E+0000
 21
 3.02032645883082E+0000
  0
LINE
  8
1
  6
CONTINUOUS
 62
     0
 10
 8.45893461460946E+0000
 20
 4.37126972898841E+0000
 11
 8.84339034942968E+0000
 21
 4.37126972898841E+0000
  0
LINE
  8
1
  6
CONTINUOUS
 62
     0
 10
 8.84339034942968E+0000
 20
 4.37126972898841E+0000
 11
 8.84339034942968E+0000
 21
 3.77805514389911E+0000
  0
LINE
  8
1
  6
CONTINUOUS
 62
     0
 10
 8.84339034942968E+0000
 20
 3.77805514389911E+0000
 11
 8.46178993555077E+0000
 21
 3.77805514389911E+0000
  0
LINE
  8
1
  6
CONTINUOUS
 62
     0
 10
 8.09959271895059E+0000
 20
 4.76203355500911E+0000
 11
 7.52980430934986E+0000
 21
 4.76203355500911E+0000
  0
LINE
  8
1
  6
CONTINUOUS
 62
     0
 10
 7.52980430934986E+0000
 20
 4.76203355500911E+0000
 11
 7.52980430934986E+0000
 21
 3.38079932842447E+0000
  0
LINE
  8
1
  6
CONTINUOUS
 62
     0
 10
 7.52980430934986E+0000
 20
 3.38079932842447E+0000
 11
 8.10954339966702E+0000
 21
 3.38079932842447E+0000
  0
LINE
  8
1
  6
CONTINUOUS
 62
     0
 10
 7.87538794644934E+0000
 20
 4.79282237207372E+0000
 11
 7.24360399893339E+0000
 21
 4.79282237207372E+0000
  0
LINE
  8
1
  6
CONTINUOUS
 62
     0
 10
 7.24360399893339E+0000
 20
 4.79282237207372E+0000
 11
 7.24360399893339E+0000
 21
 3.35137297172332E+0000
  0
LINE
  8
1
  6
CONTINUOUS
 62
     0
 10
 7.24360399893339E+0000
 20
 3.35137297172332E+0000
 11
 7.87471237574209E+0000
 21
 3.35137297172332E+0000
  0
LINE
  8
1
  6
CONTINUOUS
 62
     0
 10
 8.45893461465312E+0000
 20
 5.50096516446501E+0000
 11
 8.45893461465312E+0000
 21
 6.09538073416479E+0000
  0
LINE
  8
1
  6
CONTINUOUS
 62
     0
 10
 8.45893461465312E+0000
 20
 6.09538073416479E+0000
 11
 7.87471237574209E+0000
 21
 6.09538073416479E+0000
  0
LINE
  8
1
  6
CONTINUOUS
 62
     0
 10
 7.87471237574209E+0000
 20
 6.09538073416479E+0000
 11
 7.87471237574209E+0000
 21
 5.45535747591202E+0000
  0
LINE
  8
1
  6
CONTINUOUS
 62
     0
 10
 8.26365125911252E+0000
 20
 4.32244274288678E+0000
 11
 7.87471237574209E+0000
 21
 4.32244274288678E+0000
  0
LINE
  8
1
  6
CONTINUOUS
 62
     0
 10
 8.10220493016823E+0000
 20
 3.93990010575726E+0000
 11
 7.87471237574209E+0000
 21
 3.93990010575726E+0000
  0
LINE
  8
1
  6
CONTINUOUS
 62
     0
 10
 7.98478941820213E+0000
 20
 2.93204738872373E+0000
 11
 8.46178993555077E+0000
 21
 2.93204738872373E+0000
  0
LINE
  8
1
  6
CONTINUOUS
 62
     0
 10
 9.18658917116409E+0000
 20
 3.01748038114965E+0000
 11
 9.18658917116409E+0000
 21
 3.01748038114965E+0000
  0
LINE
  8
1
  6
CONTINUOUS
 62
     0
 10
 9.18658917116409E+0000
 20
 3.01748038114965E+0000
 11
 9.21377069252776E+0000
 21
 3.17676970777757E+0000
  0
LINE
  8
1
  6
CONTINUOUS
 62
     0
 10
 9.21377069252776E+0000
 20
 3.17676970777757E+0000
 11
 9.15336705505615E+0000
 21
 3.17676970777757E+0000
  0
LINE
  8
1
  6
CONTINUOUS
 62
     0
 10
 9.15336705505615E+0000
 20
 3.17676970777757E+0000
 11
 9.18658917116409E+0000
 21
 3.01748038114965E+0000
  0
LINE
  8
1
  6
CONTINUOUS
 62
     0
 10
 9.21377069252776E+0000
 20
 3.17676970777757E+0000
 11
 9.15336705505615E+0000
 21
 3.17676970777757E+0000
  0
LINE
  8
1
  6
CONTINUOUS
 62
     0
 10
 9.18809453432914E+0000
 20
 3.02630212008808E+0000
 11
 9.18386770074721E+0000
 21
 3.03052895368091E+0000
  0
LINE
  8
1
  6
CONTINUOUS
 62
     0
 10
 9.19110526065924E+0000
 20
 3.04394559793946E+0000
 11
 9.17842475989892E+0000
 21
 3.05662609871433E+0000
  0
LINE
  8
1
  6
CONTINUOUS
 62
     0
 10
 9.19411598700390E+0000
 20
 3.06158907579447E+0000
 11
 9.17298181905062E+0000
 21
 3.08272324374047E+0000
  0
LINE
  8
1
  6
CONTINUOUS
 62
     0
 10
 9.19712671333400E+0000
 20
 3.07923255364585E+0000
 11
 9.16753887820232E+0000
 21
 3.10882038877753E+0000
  0
LINE
  8
1
  6
CONTINUOUS
 62
     0
 10
 9.20013743966410E+0000
 20
 3.09687603150087E+0000
 11
 9.16209593735402E+0000
 21
 3.13491753381095E+0000
  0
LINE
  8
1
  6
CONTINUOUS
 62
     0
 10
 9.20314816599421E+0000
 20
 3.11451950934861E+0000
 11
 9.15665299650573E+0000
 21
 3.16101467883709E+0000
  0
LINE
  8
1
  6
CONTINUOUS
 62
     0
 10
 9.20615889232431E+0000
 20
 3.13216298720363E+0000
 11
 9.16155217176129E+0000
 21
 3.17676970777757E+0000
  0
LINE
  8
1
  6
CONTINUOUS
 62
     0
 10
 9.20916961865441E+0000
 20
 3.14980646505501E+0000
 11
 9.18220637594641E+0000
 21
 3.17676970777757E+0000
  0
LINE
  8
1
  6
CONTINUOUS
 62
     0
 10
 9.21218034499907E+0000
 20
 3.16744994291003E+0000
 11
 9.20286058013153E+0000
 21
 3.17676970777757E+0000
  0
LINE
  8
1
  6
CONTINUOUS
 62
     0
 10
 9.18871399902855E+0000
 20
 3.02993231110668E+0000
 11
 9.18480700081273E+0000
 21
 3.02602531289449E+0000
  0
LINE
  8
1
  6
CONTINUOUS
 62
     0
 10
 9.19296365475748E+0000
 20
 3.05483617102800E+0000
 11
 9.18124266012455E+0000
 21
 3.04311517638416E+0000
  0
LINE
  8
1
  6
CONTINUOUS
 62
     0
 10
 9.19721331050096E+0000
 20
 3.07974003094932E+0000
 11
 9.17767831942183E+0000
 21
 3.06020503987747E+0000
  0
LINE
  8
1
  6
CONTINUOUS
 62
     0
 10
 9.20146296622988E+0000
 20
 3.10464389085973E+0000
 11
 9.17411397873366E+0000
 21
 3.07729490336715E+0000
  0
LINE
  8
1
  6
CONTINUOUS
 62
     0
 10
 9.20571262195881E+0000
 20
 3.12954775078106E+0000
 11
 9.17054963803093E+0000
 21
 3.09438476684954E+0000
  0
LINE
  8
1
  6
CONTINUOUS
 62
     0
 10
 9.20996227768774E+0000
 20
 3.15445161070238E+0000
 11
 9.16698529732821E+0000
 21
 3.11147463034285E+0000
  0
LINE
  8
1
  6
CONTINUOUS
 62
     0
 10
 9.21162617058144E+0000
 20
 3.17676970777393E+0000
 11
 9.16342095664004E+0000
 21
 3.12856449383253E+0000
  0
LINE
  8
1
  6
CONTINUOUS
 62
     0
 10
 9.19097196639632E+0000
 20
 3.17676970777393E+0000
 11
 9.15985661595187E+0000
 21
 3.14565435732584E+0000
  0
LINE
  8
1
  6
CONTINUOUS
 62
     0
 10
 9.17031776221120E+0000
 20
 3.17676970777393E+0000
 11
 9.15629227524914E+0000
 21
 3.16274422081551E+0000
  0
LINE
  8
1
  6
CONTINUOUS
 62
     0
 10
 9.18929044746619E+0000
 20
 5.14710096851923E+0000
 11
 9.18929044746619E+0000
 21
 5.14710096851923E+0000
  0
LINE
  8
1
  6
CONTINUOUS
 62
     0
 10
 9.18929044746619E+0000
 20
 5.14710096851923E+0000
 11
 9.16210892610252E+0000
 21
 4.98781164189131E+0000
  0
LINE
  8
1
  6
CONTINUOUS
 62
     0
 10
 9.16210892610252E+0000
 20
 4.98781164189131E+0000
 11
 9.22251256357413E+0000
 21
 4.98781164189131E+0000
  0
LINE
  8
1
  6
CONTINUOUS
 62
     0
 10
 9.22251256357413E+0000
 20
 4.98781164189131E+0000
 11
 9.18929044746619E+0000
 21
 5.14710096851923E+0000
  0
LINE
  8
1
  6
CONTINUOUS
 62
     0
 10
 9.16210892610252E+0000
 20
 4.98781164189131E+0000
 11
 9.22251256357413E+0000
 21
 4.98781164189131E+0000
  0
LINE
  8
1
  6
CONTINUOUS
 62
     0
 10
 9.17243602820963E+0000
 20
 4.98781164189131E+0000
 11
 9.16361428926757E+0000
 21
 4.99663338082610E+0000
  0
LINE
  8
1
  6
CONTINUOUS
 62
     0
 10
 9.19309023239475E+0000
 20
 4.98781164189131E+0000
 11
 9.16662501561223E+0000
 21
 5.01427685868111E+0000
  0
LINE
  8
1
  6
CONTINUOUS
 62
     0
 10
 9.21374443657987E+0000
 20
 4.98781164189131E+0000
 11
 9.16963574194233E+0000
 21
 5.03192033653613E+0000
  0
LINE
  8
1
  6
CONTINUOUS
 62
     0
 10
 9.21938026108546E+0000
 20
 5.00283002156357E+0000
 11
 9.17264646827243E+0000
 21
 5.04956381438387E+0000
  0
LINE
  8
1
  6
CONTINUOUS
 62
     0
 10
 9.21393732025172E+0000
 20
 5.02892716659699E+0000
 11
 9.17565719460254E+0000
 21
 5.06720729223889E+0000
  0
LINE
  8
1
  6
CONTINUOUS
 62
     0
 10
 9.20849437940342E+0000
 20
 5.05502431163040E+0000
 11
 9.17866792093264E+0000
 21
 5.08485077009391E+0000
  0
LINE
  8
1
  6
CONTINUOUS
 62
     0
 10
 9.20305143855512E+0000
 20
 5.08112145666382E+0000
 11
 9.18167864726274E+0000
 21
 5.10249424794893E+0000
  0
LINE
  8
1
  6
CONTINUOUS
 62
     0
 10
 9.19760849770682E+0000
 20
 5.10721860169724E+0000
 11
 9.18468937359285E+0000
 21
 5.12013772579667E+0000
  0
LINE
  8
1
  6
CONTINUOUS
 62
     0
 10
 9.19216555685853E+0000
 20
 5.13331574673066E+0000
 11
 9.18770009993750E+0000
 21
 5.13778120365168E+0000
  0
LINE
  8
1
  6
CONTINUOUS
 62
     0
 10
 9.22073039322277E+0000
 20
 4.99635657363251E+0000
 11
 9.21218546148157E+0000
 21
 4.98781164189131E+0000
  0
LINE
  8
1
  6
CONTINUOUS
 62
     0
 10
 9.21716605252004E+0000
 20
 5.01344643712946E+0000
 11
 9.19153125729645E+0000
 21
 4.98781164189131E+0000
  0
LINE
  8
1
  6
CONTINUOUS
 62
     0
 10
 9.21360171183187E+0000
 20
 5.03053630061913E+0000
 11
 9.17087705311133E+0000
 21
 4.98781164189131E+0000
  0
LINE
  8
1
  6
CONTINUOUS
 62
     0
 10
 9.21003737114370E+0000
 20
 5.04762616410881E+0000
 11
 9.16455451710499E+0000
 21
 5.00214331007737E+0000
  0
LINE
  8
1
  6
CONTINUOUS
 62
     0
 10
 9.20647303044097E+0000
 20
 5.06471602759848E+0000
 11
 9.16880417283392E+0000
 21
 5.02704716999870E+0000
  0
LINE
  8
1
  6
CONTINUOUS
 62
     0
 10
 9.20290868973825E+0000
 20
 5.08180589108088E+0000
 11
 9.17305382857739E+0000
 21
 5.05195102992002E+0000
  0
LINE
  8
1
  6
CONTINUOUS
 62
     0
 10
 9.19934434905008E+0000
 20
 5.09889575457055E+0000
 11
 9.17730348430632E+0000
 21
 5.07685488984134E+0000
  0
LINE
  8
1
  6
CONTINUOUS
 62
     0
 10
 9.19578000834736E+0000
 20
 5.11598561806750E+0000
 11
 9.18155314004980E+0000
 21
 5.10175874976267E+0000
  0
LINE
  8
1
  6
CONTINUOUS
 62
     0
 10
 9.19221566765918E+0000
 20
 5.13307548155717E+0000
 11
 9.18580279577873E+0000
 21
 5.12666260968399E+0000
  0
LINE
  8
1
  6
CONTINUOUS
 62
     0
 10
 8.45946772389289E+0000
 20
 6.09779597917804E+0000
 11
 8.45946772389289E+0000
 21
 6.09779597917804E+0000
  0
LINE
  8
1
  6
CONTINUOUS
 62
     0
 10
 8.45946772389289E+0000
 20
 6.09779597917804E+0000
 11
 8.61875705054263E+0000
 21
 6.07061445781437E+0000
  0
LINE
  8
1
  6
CONTINUOUS
 62
     0
 10
 8.61875705054263E+0000
 20
 6.07061445781437E+0000
 11
 8.61875705054263E+0000
 21
 6.13101809528598E+0000
  0
LINE
  8
1
  6
CONTINUOUS
 62
     0
 10
 8.61875705054263E+0000
 20
 6.13101809528598E+0000
 11
 8.45946772389289E+0000
 21
 6.09779597917804E+0000
  0
LINE
  8
1
  6
CONTINUOUS
 62
     0
 10
 8.61875705054263E+0000
 20
 6.07061445781437E+0000
 11
 8.61875705054263E+0000
 21
 6.13101809528598E+0000
  0
LINE
  8
1
  6
CONTINUOUS
 62
     0
 10
 8.47191965386446E+0000
 20
 6.09567115130631E+0000
 11
 8.46801265564864E+0000
 21
 6.09957814952941E+0000
  0
LINE
  8
1
  6
CONTINUOUS
 62
     0
 10
 8.49682351377851E+0000
 20
 6.09142149557738E+0000
 11
 8.48510251913103E+0000
 21
 6.10314249022485E+0000
  0
LINE
  8
1
  6
CONTINUOUS
 62
     0
 10
 8.52172737370711E+0000
 20
 6.08717183984118E+0000
 11
 8.50219238262798E+0000
 21
 6.10670683092030E+0000
  0
LINE
  8
1
  6
CONTINUOUS
 62
     0
 10
 8.54663123362116E+0000
 20
 6.08292218411225E+0000
 11
 8.51928224612493E+0000
 21
 6.11027117160847E+0000
  0
LINE
  8
1
  6
CONTINUOUS
 62
     0
 10
 8.57153509353520E+0000
 20
 6.07867252837605E+0000
 11
 8.53637210960733E+0000
 21
 6.11383551230392E+0000
  0
LINE
  8
1
  6
CONTINUOUS
 62
     0
 10
 8.59643895344925E+0000
 20
 6.07442287264712E+0000
 11
 8.55346197310428E+0000
 21
 6.11739985299937E+0000
  0
LINE
  8
1
  6
CONTINUOUS
 62
     0
 10
 8.61875705054263E+0000
 20
 6.07275897973886E+0000
 11
 8.57055183658667E+0000
 21
 6.12096419369482E+0000
  0
LINE
  8
1
  6
CONTINUOUS
 62
     0
 10
 8.61875705054263E+0000
 20
 6.09341318392399E+0000
 11
 8.58764170008362E+0000
 21
 6.12452853439027E+0000
  0
LINE
  8
1
  6
CONTINUOUS
 62
     0
 10
 8.61875705054263E+0000
 20
 6.11406738810911E+0000
 11
 8.60473156356602E+0000
 21
 6.12809287508571E+0000
  0
LINE
  8
1
  6
CONTINUOUS
 62
     0
 10
 8.61875705052807E+0000
 20
 6.08094155989238E+0000
 11
 8.60993531161512E+0000
 21
 6.07211982097942E+0000
  0
LINE
  8
1
  6
CONTINUOUS
 62
     0
 10
 8.61875705052807E+0000
 20
 6.10159576407750E+0000
 11
 8.59229183376010E+0000
 21
 6.07513054730953E+0000
  0
LINE
  8
1
  6
CONTINUOUS
 62
     0
 10
 8.61875705052807E+0000
 20
 6.12224996826262E+0000
 11
 8.57464835590508E+0000
 21
 6.07814127363963E+0000
  0
LINE
  8
1
  6
CONTINUOUS
 62
     0
 10
 8.60373867087765E+0000
 20
 6.12788579280459E+0000
 11
 8.55700487805007E+0000
 21
 6.08115199997701E+0000
  0
LINE
  8
1
  6
CONTINUOUS
 62
     0
 10
 8.57764152584423E+0000
 20
 6.12244285194902E+0000
 11
 8.53936140019505E+0000
 21
 6.08416272630711E+0000
  0
LINE
  8
1
  6
CONTINUOUS
 62
     0
 10
 8.55154438081081E+0000
 20
 6.11699991110800E+0000
 11
 8.52171792234003E+0000
 21
 6.08717345263722E+0000
  0
LINE
  8
1
  6
CONTINUOUS
 62
     0
 10
 8.52544723577739E+0000
 20
 6.11155697025970E+0000
 11
 8.50407444448501E+0000
 21
 6.09018417896732E+0000
  0
LINE
  8
1
  6
CONTINUOUS
 62
     0
 10
 8.49935009075853E+0000
 20
 6.10611402941868E+0000
 11
 8.48643096663000E+0000
 21
 6.09319490529742E+0000
  0
LINE
  8
1
  6
CONTINUOUS
 62
     0
 10
 8.47325294572511E+0000
 20
 6.10067108857766E+0000
 11
 8.46878748878953E+0000
 21
 6.09620563163480E+0000
  0
LINE
  8
1
  6
CONTINUOUS
 62
     0
 10
 8.45946772389289E+0000
 20
 6.09779597917804E+0000
 11
 8.45946772389289E+0000
 21
 6.09779597917804E+0000
  0
LINE
  8
1
  6
CONTINUOUS
 62
     0
 10
 8.45946772389289E+0000
 20
 6.09779597917804E+0000
 11
 8.61875705054263E+0000
 21
 6.07061445781437E+0000
  0
LINE
  8
1
  6
CONTINUOUS
 62
     0
 10
 8.61875705054263E+0000
 20
 6.07061445781437E+0000
 11
 8.61875705054263E+0000
 21
 6.13101809528598E+0000
  0
LINE
  8
1
  6
CONTINUOUS
 62
     0
 10
 8.61875705054263E+0000
 20
 6.13101809528598E+0000
 11
 8.45946772389289E+0000
 21
 6.09779597917804E+0000
  0
LINE
  8
1
  6
CONTINUOUS
 62
     0
 10
 8.61875705054263E+0000
 20
 6.07061445781437E+0000
 11
 8.61875705054263E+0000
 21
 6.13101809528598E+0000
  0
LINE
  8
1
  6
CONTINUOUS
 62
     0
 10
 8.47191965386446E+0000
 20
 6.09567115130631E+0000
 11
 8.46801265564864E+0000
 21
 6.09957814952941E+0000
  0
LINE
  8
1
  6
CONTINUOUS
 62
     0
 10
 8.49682351377851E+0000
 20
 6.09142149557738E+0000
 11
 8.48510251913103E+0000
 21
 6.10314249022485E+0000
  0
LINE
  8
1
  6
CONTINUOUS
 62
     0
 10
 8.52172737370711E+0000
 20
 6.08717183984118E+0000
 11
 8.50219238262798E+0000
 21
 6.10670683092030E+0000
  0
LINE
  8
1
  6
CONTINUOUS
 62
     0
 10
 8.54663123362116E+0000
 20
 6.08292218411225E+0000
 11
 8.51928224612493E+0000
 21
 6.11027117160847E+0000
  0
LINE
  8
1
  6
CONTINUOUS
 62
     0
 10
 8.57153509353520E+0000
 20
 6.07867252837605E+0000
 11
 8.53637210960733E+0000
 21
 6.11383551230392E+0000
  0
LINE
  8
1
  6
CONTINUOUS
 62
     0
 10
 8.59643895344925E+0000
 20
 6.07442287264712E+0000
 11
 8.55346197310428E+0000
 21
 6.11739985299937E+0000
  0
LINE
  8
1
  6
CONTINUOUS
 62
     0
 10
 8.61875705054263E+0000
 20
 6.07275897973886E+0000
 11
 8.57055183658667E+0000
 21
 6.12096419369482E+0000
  0
LINE
  8
1
  6
CONTINUOUS
 62
     0
 10
 8.61875705054263E+0000
 20
 6.09341318392399E+0000
 11
 8.58764170008362E+0000
 21
 6.12452853439027E+0000
  0
LINE
  8
1
  6
CONTINUOUS
 62
     0
 10
 8.61875705054263E+0000
 20
 6.11406738810911E+0000
 11
 8.60473156356602E+0000
 21
 6.12809287508571E+0000
  0
LINE
  8
1
  6
CONTINUOUS
 62
     0
 10
 8.61875705052807E+0000
 20
 6.08094155989238E+0000
 11
 8.60993531161512E+0000
 21
 6.07211982097942E+0000
  0
LINE
  8
1
  6
CONTINUOUS
 62
     0
 10
 8.61875705052807E+0000
 20
 6.10159576407750E+0000
 11
 8.59229183376010E+0000
 21
 6.07513054730953E+0000
  0
LINE
  8
1
  6
CONTINUOUS
 62
     0
 10
 8.61875705052807E+0000
 20
 6.12224996826262E+0000
 11
 8.57464835590508E+0000
 21
 6.07814127363963E+0000
  0
LINE
  8
1
  6
CONTINUOUS
 62
     0
 10
 8.60373867087765E+0000
 20
 6.12788579280459E+0000
 11
 8.55700487805007E+0000
 21
 6.08115199997701E+0000
  0
LINE
  8
1
  6
CONTINUOUS
 62
     0
 10
 8.57764152584423E+0000
 20
 6.12244285194902E+0000
 11
 8.53936140019505E+0000
 21
 6.08416272630711E+0000
  0
LINE
  8
1
  6
CONTINUOUS
 62
     0
 10
 8.55154438081081E+0000
 20
 6.11699991110800E+0000
 11
 8.52171792234003E+0000
 21
 6.08717345263722E+0000
  0
LINE
  8
1
  6
CONTINUOUS
 62
     0
 10
 8.52544723577739E+0000
 20
 6.11155697025970E+0000
 11
 8.50407444448501E+0000
 21
 6.09018417896732E+0000
  0
LINE
  8
1
  6
CONTINUOUS
 62
     0
 10
 8.49935009075853E+0000
 20
 6.10611402941868E+0000
 11
 8.48643096663000E+0000
 21
 6.09319490529742E+0000
  0
LINE
  8
1
  6
CONTINUOUS
 62
     0
 10
 8.47325294572511E+0000
 20
 6.10067108857766E+0000
 11
 8.46878748878953E+0000
 21
 6.09620563163480E+0000
  0
LINE
  8
1
  6
CONTINUOUS
 62
     0
 10
 7.86814139634225E+0000
 20
 6.09881887636584E+0000
 11
 7.86814139634225E+0000
 21
 6.09881887636584E+0000
  0
LINE
  8
1
  6
CONTINUOUS
 62
     0
 10
 7.86814139634225E+0000
 20
 6.09881887636584E+0000
 11
 7.70885206970706E+0000
 21
 6.12600039772951E+0000
  0
LINE
  8
1
  6
CONTINUOUS
 62
     0
 10
 7.70885206970706E+0000
 20
 6.12600039772951E+0000
 11
 7.70885206970706E+0000
 21
 6.06559676025790E+0000
  0
LINE
  8
1
  6
CONTINUOUS
 62
     0
 10
 7.70885206970706E+0000
 20
 6.06559676025790E+0000
 11
 7.86814139634225E+0000
 21
 6.09881887636584E+0000
  0
LINE
  8
1
  6
CONTINUOUS
 62
     0
 10
 7.70885206970706E+0000
 20
 6.12600039772951E+0000
 11
 7.70885206970706E+0000
 21
 6.06559676025790E+0000
  0
LINE
  8
1
  6
CONTINUOUS
 62
     0
 10
 7.71739700146281E+0000
 20
 6.06737893060927E+0000
 11
 7.70885206970706E+0000
 21
 6.07592386236502E+0000
  0
LINE
  8
1
  6
CONTINUOUS
 62
     0
 10
 7.73448686495249E+0000
 20
 6.07094327130471E+0000
 11
 7.70885206970706E+0000
 21
 6.09657806655014E+0000
  0
LINE
  8
1
  6
CONTINUOUS
 62
     0
 10
 7.75157672844216E+0000
 20
 6.07450761200016E+0000
 11
 7.70885206970706E+0000
 21
 6.11723227073526E+0000
  0
LINE
  8
1
  6
CONTINUOUS
 62
     0
 10
 7.76866659193183E+0000
 20
 6.07807195269561E+0000
 11
 7.72318373790768E+0000
 21
 6.12355480671977E+0000
  0
LINE
  8
1
  6
CONTINUOUS
 62
     0
 10
 7.78575645542151E+0000
 20
 6.08163629339106E+0000
 11
 7.74808759782900E+0000
 21
 6.11930515098356E+0000
  0
LINE
  8
1
  6
CONTINUOUS
 62
     0
 10
 7.80284631891845E+0000
 20
 6.08520063407923E+0000
 11
 7.77299145775032E+0000
 21
 6.11505549524736E+0000
  0
LINE
  8
1
  6
CONTINUOUS
 62
     0
 10
 7.81993618240813E+0000
 20
 6.08876497477468E+0000
 11
 7.79789531767165E+0000
 21
 6.11080583951116E+0000
  0
LINE
  8
1
  6
CONTINUOUS
 62
     0
 10
 7.83702604589780E+0000
 20
 6.09232931547012E+0000
 11
 7.82279917758569E+0000
 21
 6.10655618378223E+0000
  0
LINE
  8
1
  6
CONTINUOUS
 62
     0
 10
 7.85411590938747E+0000
 20
 6.09589365616557E+0000
 11
 7.84770303750702E+0000
 21
 6.10230652804603E+0000
  0
LINE
  8
1
  6
CONTINUOUS
 62
     0
 10
 7.85931965740747E+0000
 20
 6.10032423952362E+0000
 11
 7.85509282381099E+0000
 21
 6.09609740592714E+0000
  0
LINE
  8
1
  6
CONTINUOUS
 62
     0
 10
 7.84167617955245E+0000
 20
 6.10333496586100E+0000
 11
 7.82899567878485E+0000
 21
 6.09065446508612E+0000
  0
LINE
  8
1
  6
CONTINUOUS
 62
     0
 10
 7.82403270170471E+0000
 20
 6.10634569219110E+0000
 11
 7.80289853375143E+0000
 21
 6.08521152424510E+0000
  0
LINE
  8
1
  6
CONTINUOUS
 62
     0
 10
 7.80638922384969E+0000
 20
 6.10935641852120E+0000
 11
 7.77680138872529E+0000
 21
 6.07976858339680E+0000
  0
LINE
  8
1
  6
CONTINUOUS
 62
     0
 10
 7.78874574599467E+0000
 20
 6.11236714485131E+0000
 11
 7.75070424369915E+0000
 21
 6.07432564255578E+0000
  0
LINE
  8
1
  6
CONTINUOUS
 62
     0
 10
 7.77110226813966E+0000
 20
 6.11537787118868E+0000
 11
 7.72460709866573E+0000
 21
 6.06888270171476E+0000
  0
LINE
  8
1
  6
CONTINUOUS
 62
     0
 10
 7.75345879028464E+0000
 20
 6.11838859751879E+0000
 11
 7.70885206969979E+0000
 21
 6.07378187693394E+0000
  0
LINE
  8
1
  6
CONTINUOUS
 62
     0
 10
 7.73581531243690E+0000
 20
 6.12139932384889E+0000
 11
 7.70885206969979E+0000
 21
 6.09443608111906E+0000
  0
LINE
  8
1
  6
CONTINUOUS
 62
     0
 10
 7.71817183458916E+0000
 20
 6.12441005019355E+0000
 11
 7.70885206969979E+0000
 21
 6.11509028530418E+0000
  0
LINE
  8
1
  6
CONTINUOUS
 62
     0
 10
 7.86814139634225E+0000
 20
 6.09881887636584E+0000
 11
 7.86814139634225E+0000
 21
 6.09881887636584E+0000
  0
LINE
  8
1
  6
CONTINUOUS
 62
     0
 10
 7.86814139634225E+0000
 20
 6.09881887636584E+0000
 11
 7.70885206970706E+0000
 21
 6.12600039772951E+0000
  0
LINE
  8
1
  6
CONTINUOUS
 62
     0
 10
 7.70885206970706E+0000
 20
 6.12600039772951E+0000
 11
 7.70885206970706E+0000
 21
 6.06559676025790E+0000
  0
LINE
  8
1
  6
CONTINUOUS
 62
     0
 10
 7.70885206970706E+0000
 20
 6.06559676025790E+0000
 11
 7.86814139634225E+0000
 21
 6.09881887636584E+0000
  0
LINE
  8
1
  6
CONTINUOUS
 62
     0
 10
 7.70885206970706E+0000
 20
 6.12600039772951E+0000
 11
 7.70885206970706E+0000
 21
 6.06559676025790E+0000
  0
LINE
  8
1
  6
CONTINUOUS
 62
     0
 10
 7.71739700146281E+0000
 20
 6.06737893060927E+0000
 11
 7.70885206970706E+0000
 21
 6.07592386236502E+0000
  0
LINE
  8
1
  6
CONTINUOUS
 62
     0
 10
 7.73448686495249E+0000
 20
 6.07094327130471E+0000
 11
 7.70885206970706E+0000
 21
 6.09657806655014E+0000
  0
LINE
  8
1
  6
CONTINUOUS
 62
     0
 10
 7.75157672844216E+0000
 20
 6.07450761200016E+0000
 11
 7.70885206970706E+0000
 21
 6.11723227073526E+0000
  0
LINE
  8
1
  6
CONTINUOUS
 62
     0
 10
 7.76866659193183E+0000
 20
 6.07807195269561E+0000
 11
 7.72318373790768E+0000
 21
 6.12355480671977E+0000
  0
LINE
  8
1
  6
CONTINUOUS
 62
     0
 10
 7.78575645542151E+0000
 20
 6.08163629339106E+0000
 11
 7.74808759782900E+0000
 21
 6.11930515098356E+0000
  0
LINE
  8
1
  6
CONTINUOUS
 62
     0
 10
 7.80284631891845E+0000
 20
 6.08520063407923E+0000
 11
 7.77299145775032E+0000
 21
 6.11505549524736E+0000
  0
LINE
  8
1
  6
CONTINUOUS
 62
     0
 10
 7.81993618240813E+0000
 20
 6.08876497477468E+0000
 11
 7.79789531767165E+0000
 21
 6.11080583951116E+0000
  0
LINE
  8
1
  6
CONTINUOUS
 62
     0
 10
 7.83702604589780E+0000
 20
 6.09232931547012E+0000
 11
 7.82279917758569E+0000
 21
 6.10655618378223E+0000
  0
LINE
  8
1
  6
CONTINUOUS
 62
     0
 10
 7.85411590938747E+0000
 20
 6.09589365616557E+0000
 11
 7.84770303750702E+0000
 21
 6.10230652804603E+0000
  0
LINE
  8
1
  6
CONTINUOUS
 62
     0
 10
 7.85931965740747E+0000
 20
 6.10032423952362E+0000
 11
 7.85509282381099E+0000
 21
 6.09609740592714E+0000
  0
LINE
  8
1
  6
CONTINUOUS
 62
     0
 10
 7.84167617955245E+0000
 20
 6.10333496586100E+0000
 11
 7.82899567878485E+0000
 21
 6.09065446508612E+0000
  0
LINE
  8
1
  6
CONTINUOUS
 62
     0
 10
 7.82403270170471E+0000
 20
 6.10634569219110E+0000
 11
 7.80289853375143E+0000
 21
 6.08521152424510E+0000
  0
LINE
  8
1
  6
CONTINUOUS
 62
     0
 10
 7.80638922384969E+0000
 20
 6.10935641852120E+0000
 11
 7.77680138872529E+0000
 21
 6.07976858339680E+0000
  0
LINE
  8
1
  6
CONTINUOUS
 62
     0
 10
 7.78874574599467E+0000
 20
 6.11236714485131E+0000
 11
 7.75070424369915E+0000
 21
 6.07432564255578E+0000
  0
LINE
  8
1
  6
CONTINUOUS
 62
     0
 10
 7.77110226813966E+0000
 20
 6.11537787118868E+0000
 11
 7.72460709866573E+0000
 21
 6.06888270171476E+0000
  0
LINE
  8
1
  6
CONTINUOUS
 62
     0
 10
 7.75345879028464E+0000
 20
 6.11838859751879E+0000
 11
 7.70885206969979E+0000
 21
 6.07378187693394E+0000
  0
LINE
  8
1
  6
CONTINUOUS
 62
     0
 10
 7.73581531243690E+0000
 20
 6.12139932384889E+0000
 11
 7.70885206969979E+0000
 21
 6.09443608111906E+0000
  0
LINE
  8
1
  6
CONTINUOUS
 62
     0
 10
 7.71817183458916E+0000
 20
 6.12441005019355E+0000
 11
 7.70885206969979E+0000
 21
 6.11509028530418E+0000
  0
LINE
  8
1
  6
CONTINUOUS
 62
     0
 10
 7.86814139634225E+0000
 20
 3.94193820504370E+0000
 11
 7.86814139634225E+0000
 21
 3.94193820504370E+0000
  0
LINE
  8
1
  6
CONTINUOUS
 62
     0
 10
 7.86814139634225E+0000
 20
 3.94193820504370E+0000
 11
 7.70885206970706E+0000
 21
 3.96911972640737E+0000
  0
LINE
  8
1
  6
CONTINUOUS
 62
     0
 10
 7.70885206970706E+0000
 20
 3.96911972640737E+0000
 11
 7.70885206970706E+0000
 21
 3.90871608893576E+0000
  0
LINE
  8
1
  6
CONTINUOUS
 62
     0
 10
 7.70885206970706E+0000
 20
 3.90871608893576E+0000
 11
 7.86814139634225E+0000
 21
 3.94193820504370E+0000
  0
LINE
  8
1
  6
CONTINUOUS
 62
     0
 10
 7.70885206970706E+0000
 20
 3.96911972640737E+0000
 11
 7.70885206970706E+0000
 21
 3.90871608893576E+0000
  0
LINE
  8
1
  6
CONTINUOUS
 62
     0
 10
 7.71739700146281E+0000
 20
 3.91049825928712E+0000
 11
 7.70885206970706E+0000
 21
 3.91904319103924E+0000
  0
LINE
  8
1
  6
CONTINUOUS
 62
     0
 10
 7.73448686495249E+0000
 20
 3.91406259998257E+0000
 11
 7.70885206970706E+0000
 21
 3.93969739522800E+0000
  0
LINE
  8
1
  6
CONTINUOUS
 62
     0
 10
 7.75157672844216E+0000
 20
 3.91762694067802E+0000
 11
 7.70885206970706E+0000
 21
 3.96035159941312E+0000
  0
LINE
  8
1
  6
CONTINUOUS
 62
     0
 10
 7.76866659193911E+0000
 20
 3.92119128136983E+0000
 11
 7.72318373790768E+0000
 21
 3.96667413539762E+0000
  0
LINE
  8
1
  6
CONTINUOUS
 62
     0
 10
 7.78575645542151E+0000
 20
 3.92475562206891E+0000
 11
 7.74808759782900E+0000
 21
 3.96242447966142E+0000
  0
LINE
  8
1
  6
CONTINUOUS
 62
     0
 10
 7.80284631891845E+0000
 20
 3.92831996276072E+0000
 11
 7.77299145775032E+0000
 21
 3.95817482392886E+0000
  0
LINE
  8
1
  6
CONTINUOUS
 62
     0
 10
 7.81993618240813E+0000
 20
 3.93188430345617E+0000
 11
 7.79789531767165E+0000
 21
 3.95392516819265E+0000
  0
LINE
  8
1
  6
CONTINUOUS
 62
     0
 10
 7.83702604589780E+0000
 20
 3.93544864415162E+0000
 11
 7.82279917758569E+0000
 21
 3.94967551246009E+0000
  0
LINE
  8
1
  6
CONTINUOUS
 62
     0
 10
 7.85411590938747E+0000
 20
 3.93901298484343E+0000
 11
 7.84770303750702E+0000
 21
 3.94542585672389E+0000
  0
LINE
  8
1
  6
CONTINUOUS
 62
     0
 10
 7.85931965741474E+0000
 20
 3.94344356821603E+0000
 11
 7.85509282381827E+0000
 21
 3.93921673461955E+0000
  0
LINE
  8
1
  6
CONTINUOUS
 62
     0
 10
 7.84167617956700E+0000
 20
 3.94645429454613E+0000
 11
 7.82899567879213E+0000
 21
 3.93377379377489E+0000
  0
LINE
  8
1
  6
CONTINUOUS
 62
     0
 10
 7.82403270171199E+0000
 20
 3.94946502087987E+0000
 11
 7.80289853376598E+0000
 21
 3.92833085293023E+0000
  0
LINE
  8
1
  6
CONTINUOUS
 62
     0
 10
 7.80638922385697E+0000
 20
 3.95247574720997E+0000
 11
 7.77680138872529E+0000
 21
 3.92288791207829E+0000
  0
LINE
  8
1
  6
CONTINUOUS
 62
     0
 10
 7.78874574600195E+0000
 20
 3.95548647354371E+0000
 11
 7.75070424369915E+0000
 21
 3.91744497123364E+0000
  0
LINE
  8
1
  6
CONTINUOUS
 62
     0
 10
 7.77110226815421E+0000
 20
 3.95849719987382E+0000
 11
 7.72460709866573E+0000
 21
 3.91200203039261E+0000
  0
LINE
  8
1
  6
CONTINUOUS
 62
     0
 10
 7.75345879029919E+0000
 20
 3.96150792620756E+0000
 11
 7.70885206969979E+0000
 21
 3.91690120561179E+0000
  0
LINE
  8
1
  6
CONTINUOUS
 62
     0
 10
 7.73581531244417E+0000
 20
 3.96451865253766E+0000
 11
 7.70885206969979E+0000
 21
 3.93755540979691E+0000
  0
LINE
  8
1
  6
CONTINUOUS
 62
     0
 10
 7.71817183458916E+0000
 20
 3.96752937887140E+0000
 11
 7.70885206969979E+0000
 21
 3.95820961398204E+0000
  0
LINE
  8
1
  6
CONTINUOUS
 62
     0
 10
 7.86814139634225E+0000
 20
 3.94193820504370E+0000
 11
 7.86814139634225E+0000
 21
 3.94193820504370E+0000
  0
LINE
  8
1
  6
CONTINUOUS
 62
     0
 10
 7.86814139634225E+0000
 20
 3.94193820504370E+0000
 11
 7.70885206970706E+0000
 21
 3.96911972640737E+0000
  0
LINE
  8
1
  6
CONTINUOUS
 62
     0
 10
 7.70885206970706E+0000
 20
 3.96911972640737E+0000
 11
 7.70885206970706E+0000
 21
 3.90871608893576E+0000
  0
LINE
  8
1
  6
CONTINUOUS
 62
     0
 10
 7.70885206970706E+0000
 20
 3.90871608893576E+0000
 11
 7.86814139634225E+0000
 21
 3.94193820504370E+0000
  0
LINE
  8
1
  6
CONTINUOUS
 62
     0
 10
 7.70885206970706E+0000
 20
 3.96911972640737E+0000
 11
 7.70885206970706E+0000
 21
 3.90871608893576E+0000
  0
LINE
  8
1
  6
CONTINUOUS
 62
     0
 10
 7.71739700146281E+0000
 20
 3.91049825928712E+0000
 11
 7.70885206970706E+0000
 21
 3.91904319103924E+0000
  0
LINE
  8
1
  6
CONTINUOUS
 62
     0
 10
 7.73448686495249E+0000
 20
 3.91406259998257E+0000
 11
 7.70885206970706E+0000
 21
 3.93969739522800E+0000
  0
LINE
  8
1
  6
CONTINUOUS
 62
     0
 10
 7.75157672844216E+0000
 20
 3.91762694067802E+0000
 11
 7.70885206970706E+0000
 21
 3.96035159941312E+0000
  0
LINE
  8
1
  6
CONTINUOUS
 62
     0
 10
 7.76866659193911E+0000
 20
 3.92119128136983E+0000
 11
 7.72318373790768E+0000
 21
 3.96667413539762E+0000
  0
LINE
  8
1
  6
CONTINUOUS
 62
     0
 10
 7.78575645542151E+0000
 20
 3.92475562206891E+0000
 11
 7.74808759782900E+0000
 21
 3.96242447966142E+0000
  0
LINE
  8
1
  6
CONTINUOUS
 62
     0
 10
 7.80284631891845E+0000
 20
 3.92831996276072E+0000
 11
 7.77299145775032E+0000
 21
 3.95817482392886E+0000
  0
LINE
  8
1
  6
CONTINUOUS
 62
     0
 10
 7.81993618240813E+0000
 20
 3.93188430345617E+0000
 11
 7.79789531767165E+0000
 21
 3.95392516819265E+0000
  0
LINE
  8
1
  6
CONTINUOUS
 62
     0
 10
 7.83702604589780E+0000
 20
 3.93544864415162E+0000
 11
 7.82279917758569E+0000
 21
 3.94967551246009E+0000
  0
LINE
  8
1
  6
CONTINUOUS
 62
     0
 10
 7.85411590938747E+0000
 20
 3.93901298484343E+0000
 11
 7.84770303750702E+0000
 21
 3.94542585672389E+0000
  0
LINE
  8
1
  6
CONTINUOUS
 62
     0
 10
 7.85931965741474E+0000
 20
 3.94344356821603E+0000
 11
 7.85509282381827E+0000
 21
 3.93921673461955E+0000
  0
LINE
  8
1
  6
CONTINUOUS
 62
     0
 10
 7.84167617956700E+0000
 20
 3.94645429454613E+0000
 11
 7.82899567879213E+0000
 21
 3.93377379377489E+0000
  0
LINE
  8
1
  6
CONTINUOUS
 62
     0
 10
 7.82403270171199E+0000
 20
 3.94946502087987E+0000
 11
 7.80289853376598E+0000
 21
 3.92833085293023E+0000
  0
LINE
  8
1
  6
CONTINUOUS
 62
     0
 10
 7.80638922385697E+0000
 20
 3.95247574720997E+0000
 11
 7.77680138872529E+0000
 21
 3.92288791207829E+0000
  0
LINE
  8
1
  6
CONTINUOUS
 62
     0
 10
 7.78874574600195E+0000
 20
 3.95548647354371E+0000
 11
 7.75070424369915E+0000
 21
 3.91744497123364E+0000
  0
LINE
  8
1
  6
CONTINUOUS
 62
     0
 10
 7.77110226815421E+0000
 20
 3.95849719987382E+0000
 11
 7.72460709866573E+0000
 21
 3.91200203039261E+0000
  0
LINE
  8
1
  6
CONTINUOUS
 62
     0
 10
 7.75345879029919E+0000
 20
 3.96150792620756E+0000
 11
 7.70885206969979E+0000
 21
 3.91690120561179E+0000
  0
LINE
  8
1
  6
CONTINUOUS
 62
     0
 10
 7.73581531244417E+0000
 20
 3.96451865253766E+0000
 11
 7.70885206969979E+0000
 21
 3.93755540979691E+0000
  0
LINE
  8
1
  6
CONTINUOUS
 62
     0
 10
 7.71817183458916E+0000
 20
 3.96752937887140E+0000
 11
 7.70885206969979E+0000
 21
 3.95820961398204E+0000
  0
LINE
  8
1
  6
CONTINUOUS
 62
     0
 10
 7.86814139634225E+0000
 20
 4.32486267205968E+0000
 11
 7.86814139634225E+0000
 21
 4.32486267205968E+0000
  0
LINE
  8
1
  6
CONTINUOUS
 62
     0
 10
 7.86814139634225E+0000
 20
 4.32486267205968E+0000
 11
 7.70885206970706E+0000
 21
 4.35204419342335E+0000
  0
LINE
  8
1
  6
CONTINUOUS
 62
     0
 10
 7.70885206970706E+0000
 20
 4.35204419342335E+0000
 11
 7.70885206970706E+0000
 21
 4.29164055595174E+0000
  0
LINE
  8
1
  6
CONTINUOUS
 62
     0
 10
 7.70885206970706E+0000
 20
 4.29164055595174E+0000
 11
 7.86814139634225E+0000
 21
 4.32486267205968E+0000
  0
LINE
  8
1
  6
CONTINUOUS
 62
     0
 10
 7.70885206970706E+0000
 20
 4.35204419342335E+0000
 11
 7.70885206970706E+0000
 21
 4.29164055595174E+0000
  0
LINE
  8
1
  6
CONTINUOUS
 62
     0
 10
 7.71739700145554E+0000
 20
 4.29342272629583E+0000
 11
 7.70885206970706E+0000
 21
 4.30196765805158E+0000
  0
LINE
  8
1
  6
CONTINUOUS
 62
     0
 10
 7.73448686495249E+0000
 20
 4.29698706699128E+0000
 11
 7.70885206970706E+0000
 21
 4.32262186222943E+0000
  0
LINE
  8
1
  6
CONTINUOUS
 62
     0
 10
 7.75157672844216E+0000
 20
 4.30055140768673E+0000
 11
 7.70885206971434E+0000
 21
 4.34327606641455E+0000
  0
LINE
  8
1
  6
CONTINUOUS
 62
     0
 10
 7.76866659193183E+0000
 20
 4.30411574838217E+0000
 11
 7.72318373789312E+0000
 21
 4.34959860242088E+0000
  0
LINE
  8
1
  6
CONTINUOUS
 62
     0
 10
 7.78575645542151E+0000
 20
 4.30768008907762E+0000
 11
 7.74808759781445E+0000
 21
 4.34534894668468E+0000
  0
LINE
  8
1
  6
CONTINUOUS
 62
     0
 10
 7.80284631891118E+0000
 20
 4.31124442977307E+0000
 11
 7.77299145773577E+0000
 21
 4.34109929094848E+0000
  0
LINE
  8
1
  6
CONTINUOUS
 62
     0
 10
 7.81993618240085E+0000
 20
 4.31480877046852E+0000
 11
 7.79789531765709E+0000
 21
 4.33684963521227E+0000
  0
LINE
  8
1
  6
CONTINUOUS
 62
     0
 10
 7.83702604589052E+0000
 20
 4.31837311116396E+0000
 11
 7.82279917757842E+0000
 21
 4.33259997947607E+0000
  0
LINE
  8
1
  6
CONTINUOUS
 62
     0
 10
 7.85411590938020E+0000
 20
 4.32193745185214E+0000
 11
 7.84770303749974E+0000
 21
 4.32835032373987E+0000
  0
LINE
  8
1
  6
CONTINUOUS
 62
     0
 10
 7.85931965741474E+0000
 20
 4.32636803522473E+0000
 11
 7.85509282381827E+0000
 21
 4.32214120162826E+0000
  0
LINE
  8
1
  6
CONTINUOUS
 62
     0
 10
 7.84167617955973E+0000
 20
 4.32937876156211E+0000
 11
 7.82899567878485E+0000
 21
 4.31669826078723E+0000
  0
LINE
  8
1
  6
CONTINUOUS
 62
     0
 10
 7.82403270170471E+0000
 20
 4.33238948789221E+0000
 11
 7.80289853375871E+0000
 21
 4.31125531993894E+0000
  0
LINE
  8
1
  6
CONTINUOUS
 62
     0
 10
 7.80638922384969E+0000
 20
 4.33540021422232E+0000
 11
 7.77680138871801E+0000
 21
 4.30581237909064E+0000
  0
LINE
  8
1
  6
CONTINUOUS
 62
     0
 10
 7.78874574600195E+0000
 20
 4.33841094055242E+0000
 11
 7.75070424369187E+0000
 21
 4.30036943824234E+0000
  0
LINE
  8
1
  6
CONTINUOUS
 62
     0
 10
 7.77110226814693E+0000
 20
 4.34142166688252E+0000
 11
 7.72460709865845E+0000
 21
 4.29492649740132E+0000
  0
LINE
  8
1
  6
CONTINUOUS
 62
     0
 10
 7.75345879029192E+0000
 20
 4.34443239321990E+0000
 11
 7.70885206969979E+0000
 21
 4.29982567262050E+0000
  0
LINE
  8
1
  6
CONTINUOUS
 62
     0
 10
 7.73581531243690E+0000
 20
 4.34744311955001E+0000
 11
 7.70885206969979E+0000
 21
 4.32047987680562E+0000
  0
LINE
  8
1
  6
CONTINUOUS
 62
     0
 10
 7.71817183458188E+0000
 20
 4.35045384588011E+0000
 11
 7.70885206969979E+0000
 21
 4.34113408099074E+0000
  0
LINE
  8
1
  6
CONTINUOUS
 62
     0
 10
 7.86814139634225E+0000
 20
 4.32486267205968E+0000
 11
 7.86814139634225E+0000
 21
 4.32486267205968E+0000
  0
LINE
  8
1
  6
CONTINUOUS
 62
     0
 10
 7.86814139634225E+0000
 20
 4.32486267205968E+0000
 11
 7.70885206970706E+0000
 21
 4.35204419342335E+0000
  0
LINE
  8
1
  6
CONTINUOUS
 62
     0
 10
 7.70885206970706E+0000
 20
 4.35204419342335E+0000
 11
 7.70885206970706E+0000
 21
 4.29164055595174E+0000
  0
LINE
  8
1
  6
CONTINUOUS
 62
     0
 10
 7.70885206970706E+0000
 20
 4.29164055595174E+0000
 11
 7.86814139634225E+0000
 21
 4.32486267205968E+0000
  0
LINE
  8
1
  6
CONTINUOUS
 62
     0
 10
 7.70885206970706E+0000
 20
 4.35204419342335E+0000
 11
 7.70885206970706E+0000
 21
 4.29164055595174E+0000
  0
LINE
  8
1
  6
CONTINUOUS
 62
     0
 10
 7.71739700145554E+0000
 20
 4.29342272629583E+0000
 11
 7.70885206970706E+0000
 21
 4.30196765805158E+0000
  0
LINE
  8
1
  6
CONTINUOUS
 62
     0
 10
 7.73448686495249E+0000
 20
 4.29698706699128E+0000
 11
 7.70885206970706E+0000
 21
 4.32262186222943E+0000
  0
LINE
  8
1
  6
CONTINUOUS
 62
     0
 10
 7.75157672844216E+0000
 20
 4.30055140768673E+0000
 11
 7.70885206971434E+0000
 21
 4.34327606641455E+0000
  0
LINE
  8
1
  6
CONTINUOUS
 62
     0
 10
 7.76866659193183E+0000
 20
 4.30411574838217E+0000
 11
 7.72318373789312E+0000
 21
 4.34959860242088E+0000
  0
LINE
  8
1
  6
CONTINUOUS
 62
     0
 10
 7.78575645542151E+0000
 20
 4.30768008907762E+0000
 11
 7.74808759781445E+0000
 21
 4.34534894668468E+0000
  0
LINE
  8
1
  6
CONTINUOUS
 62
     0
 10
 7.80284631891118E+0000
 20
 4.31124442977307E+0000
 11
 7.77299145773577E+0000
 21
 4.34109929094848E+0000
  0
LINE
  8
1
  6
CONTINUOUS
 62
     0
 10
 7.81993618240085E+0000
 20
 4.31480877046852E+0000
 11
 7.79789531765709E+0000
 21
 4.33684963521227E+0000
  0
LINE
  8
1
  6
CONTINUOUS
 62
     0
 10
 7.83702604589052E+0000
 20
 4.31837311116396E+0000
 11
 7.82279917757842E+0000
 21
 4.33259997947607E+0000
  0
LINE
  8
1
  6
CONTINUOUS
 62
     0
 10
 7.85411590938020E+0000
 20
 4.32193745185214E+0000
 11
 7.84770303749974E+0000
 21
 4.32835032373987E+0000
  0
LINE
  8
1
  6
CONTINUOUS
 62
     0
 10
 7.85931965741474E+0000
 20
 4.32636803522473E+0000
 11
 7.85509282381827E+0000
 21
 4.32214120162826E+0000
  0
LINE
  8
1
  6
CONTINUOUS
 62
     0
 10
 7.84167617955973E+0000
 20
 4.32937876156211E+0000
 11
 7.82899567878485E+0000
 21
 4.31669826078723E+0000
  0
LINE
  8
1
  6
CONTINUOUS
 62
     0
 10
 7.82403270170471E+0000
 20
 4.33238948789221E+0000
 11
 7.80289853375871E+0000
 21
 4.31125531993894E+0000
  0
LINE
  8
1
  6
CONTINUOUS
 62
     0
 10
 7.80638922384969E+0000
 20
 4.33540021422232E+0000
 11
 7.77680138871801E+0000
 21
 4.30581237909064E+0000
  0
LINE
  8
1
  6
CONTINUOUS
 62
     0
 10
 7.78874574600195E+0000
 20
 4.33841094055242E+0000
 11
 7.75070424369187E+0000
 21
 4.30036943824234E+0000
  0
LINE
  8
1
  6
CONTINUOUS
 62
     0
 10
 7.77110226814693E+0000
 20
 4.34142166688252E+0000
 11
 7.72460709865845E+0000
 21
 4.29492649740132E+0000
  0
LINE
  8
1
  6
CONTINUOUS
 62
     0
 10
 7.75345879029192E+0000
 20
 4.34443239321990E+0000
 11
 7.70885206969979E+0000
 21
 4.29982567262050E+0000
  0
LINE
  8
1
  6
CONTINUOUS
 62
     0
 10
 7.73581531243690E+0000
 20
 4.34744311955001E+0000
 11
 7.70885206969979E+0000
 21
 4.32047987680562E+0000
  0
LINE
  8
1
  6
CONTINUOUS
 62
     0
 10
 7.71817183458188E+0000
 20
 4.35045384588011E+0000
 11
 7.70885206969979E+0000
 21
 4.34113408099074E+0000
  0
LINE
  8
1
  6
CONTINUOUS
 62
     0
 10
 8.27237484064244E+0000
 20
 4.32383977487189E+0000
 11
 8.27237484064244E+0000
 21
 4.32383977487189E+0000
  0
LINE
  8
1
  6
CONTINUOUS
 62
     0
 10
 8.27237484064244E+0000
 20
 4.32383977487189E+0000
 11
 8.43166416729218E+0000
 21
 4.29665825350821E+0000
  0
LINE
  8
1
  6
CONTINUOUS
 62
     0
 10
 8.43166416729218E+0000
 20
 4.29665825350821E+0000
 11
 8.43166416729218E+0000
 21
 4.35706189097982E+0000
  0
LINE
  8
1
  6
CONTINUOUS
 62
     0
 10
 8.43166416729218E+0000
 20
 4.35706189097982E+0000
 11
 8.27237484064244E+0000
 21
 4.32383977487189E+0000
  0
LINE
  8
1
  6
CONTINUOUS
 62
     0
 10
 8.43166416729218E+0000
 20
 4.29665825350821E+0000
 11
 8.43166416729218E+0000
 21
 4.35706189097982E+0000
  0
LINE
  8
1
  6
CONTINUOUS
 62
     0
 10
 8.28482677061402E+0000
 20
 4.32171494700015E+0000
 11
 8.28091977239819E+0000
 21
 4.32562194522325E+0000
  0
LINE
  8
1
  6
CONTINUOUS
 62
     0
 10
 8.30973063054262E+0000
 20
 4.31746529127122E+0000
 11
 8.29800963589514E+0000
 21
 4.32918628591869E+0000
  0
LINE
  8
1
  6
CONTINUOUS
 62
     0
 10
 8.33463449045666E+0000
 20
 4.31321563553502E+0000
 11
 8.31509949937754E+0000
 21
 4.33275062661414E+0000
  0
LINE
  8
1
  6
CONTINUOUS
 62
     0
 10
 8.35953835038526E+0000
 20
 4.30896597979881E+0000
 11
 8.33218936287449E+0000
 21
 4.33631496730231E+0000
  0
LINE
  8
1
  6
CONTINUOUS
 62
     0
 10
 8.38444221029931E+0000
 20
 4.30471632406261E+0000
 11
 8.34927922635688E+0000
 21
 4.33987930800504E+0000
  0
LINE
  8
1
  6
CONTINUOUS
 62
     0
 10
 8.40934607021336E+0000
 20
 4.30046666832641E+0000
 11
 8.36636908985383E+0000
 21
 4.34344364869321E+0000
  0
LINE
  8
1
  6
CONTINUOUS
 62
     0
 10
 8.43166416729218E+0000
 20
 4.29880277543998E+0000
 11
 8.38345895333623E+0000
 21
 4.34700798938866E+0000
  0
LINE
  8
1
  6
CONTINUOUS
 62
     0
 10
 8.43166416729218E+0000
 20
 4.31945697962510E+0000
 11
 8.40054881683318E+0000
 21
 4.35057233008411E+0000
  0
LINE
  8
1
  6
CONTINUOUS
 62
     0
 10
 8.43166416729218E+0000
 20
 4.34011118381022E+0000
 11
 8.41763868031558E+0000
 21
 4.35413667077955E+0000
  0
LINE
  8
1
  6
CONTINUOUS
 62
     0
 10
 8.43166416727763E+0000
 20
 4.30698535559350E+0000
 11
 8.42284242836467E+0000
 21
 4.29816361667326E+0000
  0
LINE
  8
1
  6
CONTINUOUS
 62
     0
 10
 8.43166416727763E+0000
 20
 4.32763955977862E+0000
 11
 8.40519895050966E+0000
 21
 4.30117434300337E+0000
  0
LINE
  8
1
  6
CONTINUOUS
 62
     0
 10
 8.43166416727763E+0000
 20
 4.34829376396374E+0000
 11
 8.38755547265464E+0000
 21
 4.30418506934075E+0000
  0
LINE
  8
1
  6
CONTINUOUS
 62
     0
 10
 8.41664578762720E+0000
 20
 4.35392958849843E+0000
 11
 8.36991199479962E+0000
 21
 4.30719579567085E+0000
  0
LINE
  8
1
  6
CONTINUOUS
 62
     0
 10
 8.39054864259379E+0000
 20
 4.34848664764286E+0000
 11
 8.35226851694460E+0000
 21
 4.31020652200095E+0000
  0
LINE
  8
1
  6
CONTINUOUS
 62
     0
 10
 8.36445149756037E+0000
 20
 4.34304370680184E+0000
 11
 8.33462503908959E+0000
 21
 4.31321724833106E+0000
  0
LINE
  8
1
  6
CONTINUOUS
 62
     0
 10
 8.33835435252695E+0000
 20
 4.33760076596081E+0000
 11
 8.31698156123457E+0000
 21
 4.31622797466844E+0000
  0
LINE
  8
1
  6
CONTINUOUS
 62
     0
 10
 8.31225720750808E+0000
 20
 4.33215782511252E+0000
 11
 8.29933808337955E+0000
 21
 4.31923870099854E+0000
  0
LINE
  8
1
  6
CONTINUOUS
 62
     0
 10
 8.28616006247466E+0000
 20
 4.32671488427150E+0000
 11
 8.28169460553909E+0000
 21
 4.32224942732864E+0000
  0
LINE
  8
1
  6
CONTINUOUS
 62
     0
 10
 8.27237484064244E+0000
 20
 4.32383977487189E+0000
 11
 8.27237484064244E+0000
 21
 4.32383977487189E+0000
  0
LINE
  8
1
  6
CONTINUOUS
 62
     0
 10
 8.27237484064244E+0000
 20
 4.32383977487189E+0000
 11
 8.43166416729218E+0000
 21
 4.29665825350821E+0000
  0
LINE
  8
1
  6
CONTINUOUS
 62
     0
 10
 8.43166416729218E+0000
 20
 4.29665825350821E+0000
 11
 8.43166416729218E+0000
 21
 4.35706189097982E+0000
  0
LINE
  8
1
  6
CONTINUOUS
 62
     0
 10
 8.43166416729218E+0000
 20
 4.35706189097982E+0000
 11
 8.27237484064244E+0000
 21
 4.32383977487189E+0000
  0
LINE
  8
1
  6
CONTINUOUS
 62
     0
 10
 8.43166416729218E+0000
 20
 4.29665825350821E+0000
 11
 8.43166416729218E+0000
 21
 4.35706189097982E+0000
  0
LINE
  8
1
  6
CONTINUOUS
 62
     0
 10
 8.28482677061402E+0000
 20
 4.32171494700015E+0000
 11
 8.28091977239819E+0000
 21
 4.32562194522325E+0000
  0
LINE
  8
1
  6
CONTINUOUS
 62
     0
 10
 8.30973063054262E+0000
 20
 4.31746529127122E+0000
 11
 8.29800963589514E+0000
 21
 4.32918628591869E+0000
  0
LINE
  8
1
  6
CONTINUOUS
 62
     0
 10
 8.33463449045666E+0000
 20
 4.31321563553502E+0000
 11
 8.31509949937754E+0000
 21
 4.33275062661414E+0000
  0
LINE
  8
1
  6
CONTINUOUS
 62
     0
 10
 8.35953835038526E+0000
 20
 4.30896597979881E+0000
 11
 8.33218936287449E+0000
 21
 4.33631496730231E+0000
  0
LINE
  8
1
  6
CONTINUOUS
 62
     0
 10
 8.38444221029931E+0000
 20
 4.30471632406261E+0000
 11
 8.34927922635688E+0000
 21
 4.33987930800504E+0000
  0
LINE
  8
1
  6
CONTINUOUS
 62
     0
 10
 8.40934607021336E+0000
 20
 4.30046666832641E+0000
 11
 8.36636908985383E+0000
 21
 4.34344364869321E+0000
  0
LINE
  8
1
  6
CONTINUOUS
 62
     0
 10
 8.43166416729218E+0000
 20
 4.29880277543998E+0000
 11
 8.38345895333623E+0000
 21
 4.34700798938866E+0000
  0
LINE
  8
1
  6
CONTINUOUS
 62
     0
 10
 8.43166416729218E+0000
 20
 4.31945697962510E+0000
 11
 8.40054881683318E+0000
 21
 4.35057233008411E+0000
  0
LINE
  8
1
  6
CONTINUOUS
 62
     0
 10
 8.43166416729218E+0000
 20
 4.34011118381022E+0000
 11
 8.41763868031558E+0000
 21
 4.35413667077955E+0000
  0
LINE
  8
1
  6
CONTINUOUS
 62
     0
 10
 8.43166416727763E+0000
 20
 4.30698535559350E+0000
 11
 8.42284242836467E+0000
 21
 4.29816361667326E+0000
  0
LINE
  8
1
  6
CONTINUOUS
 62
     0
 10
 8.43166416727763E+0000
 20
 4.32763955977862E+0000
 11
 8.40519895050966E+0000
 21
 4.30117434300337E+0000
  0
LINE
  8
1
  6
CONTINUOUS
 62
     0
 10
 8.43166416727763E+0000
 20
 4.34829376396374E+0000
 11
 8.38755547265464E+0000
 21
 4.30418506934075E+0000
  0
LINE
  8
1
  6
CONTINUOUS
 62
     0
 10
 8.41664578762720E+0000
 20
 4.35392958849843E+0000
 11
 8.36991199479962E+0000
 21
 4.30719579567085E+0000
  0
LINE
  8
1
  6
CONTINUOUS
 62
     0
 10
 8.39054864259379E+0000
 20
 4.34848664764286E+0000
 11
 8.35226851694460E+0000
 21
 4.31020652200095E+0000
  0
LINE
  8
1
  6
CONTINUOUS
 62
     0
 10
 8.36445149756037E+0000
 20
 4.34304370680184E+0000
 11
 8.33462503908959E+0000
 21
 4.31321724833106E+0000
  0
LINE
  8
1
  6
CONTINUOUS
 62
     0
 10
 8.33835435252695E+0000
 20
 4.33760076596081E+0000
 11
 8.31698156123457E+0000
 21
 4.31622797466844E+0000
  0
LINE
  8
1
  6
CONTINUOUS
 62
     0
 10
 8.31225720750808E+0000
 20
 4.33215782511252E+0000
 11
 8.29933808337955E+0000
 21
 4.31923870099854E+0000
  0
LINE
  8
1
  6
CONTINUOUS
 62
     0
 10
 8.28616006247466E+0000
 20
 4.32671488427150E+0000
 11
 8.28169460553909E+0000
 21
 4.32224942732864E+0000
  0
LINE
  8
1
  6
CONTINUOUS
 62
     0
 10
 8.10866856780194E+0000
 20
 3.94091530785590E+0000
 11
 8.10866856780194E+0000
 21
 3.94091530785590E+0000
  0
LINE
  8
1
  6
CONTINUOUS
 62
     0
 10
 8.10866856780194E+0000
 20
 3.94091530785590E+0000
 11
 8.26795789445168E+0000
 21
 3.91373378649223E+0000
  0
LINE
  8
1
  6
CONTINUOUS
 62
     0
 10
 8.26795789445168E+0000
 20
 3.91373378649223E+0000
 11
 8.26795789445168E+0000
 21
 3.97413742396384E+0000
  0
LINE
  8
1
  6
CONTINUOUS
 62
     0
 10
 8.26795789445168E+0000
 20
 3.97413742396384E+0000
 11
 8.10866856780194E+0000
 21
 3.94091530785590E+0000
  0
LINE
  8
1
  6
CONTINUOUS
 62
     0
 10
 8.26795789445168E+0000
 20
 3.91373378649223E+0000
 11
 8.26795789445168E+0000
 21
 3.97413742396384E+0000
  0
LINE
  8
1
  6
CONTINUOUS
 62
     0
 10
 8.12112049777352E+0000
 20
 3.93879047998416E+0000
 11
 8.11721349955769E+0000
 21
 3.94269747820726E+0000
  0
LINE
  8
1
  6
CONTINUOUS
 62
     0
 10
 8.14602435770212E+0000
 20
 3.93454082425160E+0000
 11
 8.13430336305464E+0000
 21
 3.94626181889907E+0000
  0
LINE
  8
1
  6
CONTINUOUS
 62
     0
 10
 8.17092821761617E+0000
 20
 3.93029116851540E+0000
 11
 8.15139322653704E+0000
 21
 3.94982615959452E+0000
  0
LINE
  8
1
  6
CONTINUOUS
 62
     0
 10
 8.19583207754476E+0000
 20
 3.92604151277919E+0000
 11
 8.16848309003399E+0000
 21
 3.95339050028997E+0000
  0
LINE
  8
1
  6
CONTINUOUS
 62
     0
 10
 8.22073593745881E+0000
 20
 3.92179185704663E+0000
 11
 8.18557295351638E+0000
 21
 3.95695484098178E+0000
  0
LINE
  8
1
  6
CONTINUOUS
 62
     0
 10
 8.24563979737286E+0000
 20
 3.91754220131043E+0000
 11
 8.20266281701333E+0000
 21
 3.96051918167723E+0000
  0
LINE
  8
1
  6
CONTINUOUS
 62
     0
 10
 8.26795789445168E+0000
 20
 3.91587830842400E+0000
 11
 8.21975268049573E+0000
 21
 3.96408352237268E+0000
  0
LINE
  8
1
  6
CONTINUOUS
 62
     0
 10
 8.26795789445168E+0000
 20
 3.93653251260548E+0000
 11
 8.23684254399268E+0000
 21
 3.96764786306812E+0000
  0
LINE
  8
1
  6
CONTINUOUS
 62
     0
 10
 8.26795789445168E+0000
 20
 3.95718671678696E+0000
 11
 8.25393240748963E+0000
 21
 3.97121220376357E+0000
  0
LINE
  8
1
  6
CONTINUOUS
 62
     0
 10
 8.26795789445168E+0000
 20
 3.92406088858479E+0000
 11
 8.25913615552417E+0000
 21
 3.91523914966092E+0000
  0
LINE
  8
1
  6
CONTINUOUS
 62
     0
 10
 8.26795789445168E+0000
 20
 3.94471509276991E+0000
 11
 8.24149267766916E+0000
 21
 3.91824987599102E+0000
  0
LINE
  8
1
  6
CONTINUOUS
 62
     0
 10
 8.26795789445168E+0000
 20
 3.96536929695503E+0000
 11
 8.22384919981414E+0000
 21
 3.92126060232113E+0000
  0
LINE
  8
1
  6
CONTINUOUS
 62
     0
 10
 8.25293951477215E+0000
 20
 3.97100512147153E+0000
 11
 8.20620572195912E+0000
 21
 3.92427132865487E+0000
  0
LINE
  8
1
  6
CONTINUOUS
 62
     0
 10
 8.22684236975329E+0000
 20
 3.96556218063051E+0000
 11
 8.18856224410411E+0000
 21
 3.92728205498497E+0000
  0
LINE
  8
1
  6
CONTINUOUS
 62
     0
 10
 8.20074522471987E+0000
 20
 3.96011923978585E+0000
 11
 8.17091876624909E+0000
 21
 3.93029278131871E+0000
  0
LINE
  8
1
  6
CONTINUOUS
 62
     0
 10
 8.17464807968645E+0000
 20
 3.95467629894483E+0000
 11
 8.15327528839407E+0000
 21
 3.93330350764882E+0000
  0
LINE
  8
1
  6
CONTINUOUS
 62
     0
 10
 8.14855093466758E+0000
 20
 3.94923335810017E+0000
 11
 8.13563181053905E+0000
 21
 3.93631423398256E+0000
  0
LINE
  8
1
  6
CONTINUOUS
 62
     0
 10
 8.12245378963416E+0000
 20
 3.94379041725551E+0000
 11
 8.11798833269859E+0000
 21
 3.93932496031266E+0000
  0
LINE
  8
1
  6
CONTINUOUS
 62
     0
 10
 8.10866856780194E+0000
 20
 3.94091530785590E+0000
 11
 8.10866856780194E+0000
 21
 3.94091530785590E+0000
  0
LINE
  8
1
  6
CONTINUOUS
 62
     0
 10
 8.10866856780194E+0000
 20
 3.94091530785590E+0000
 11
 8.26795789445168E+0000
 21
 3.91373378649223E+0000
  0
LINE
  8
1
  6
CONTINUOUS
 62
     0
 10
 8.26795789445168E+0000
 20
 3.91373378649223E+0000
 11
 8.26795789445168E+0000
 21
 3.97413742396384E+0000
  0
LINE
  8
1
  6
CONTINUOUS
 62
     0
 10
 8.26795789445168E+0000
 20
 3.97413742396384E+0000
 11
 8.10866856780194E+0000
 21
 3.94091530785590E+0000
  0
LINE
  8
1
  6
CONTINUOUS
 62
     0
 10
 8.26795789445168E+0000
 20
 3.91373378649223E+0000
 11
 8.26795789445168E+0000
 21
 3.97413742396384E+0000
  0
LINE
  8
1
  6
CONTINUOUS
 62
     0
 10
 8.12112049777352E+0000
 20
 3.93879047998416E+0000
 11
 8.11721349955769E+0000
 21
 3.94269747820726E+0000
  0
LINE
  8
1
  6
CONTINUOUS
 62
     0
 10
 8.14602435770212E+0000
 20
 3.93454082425160E+0000
 11
 8.13430336305464E+0000
 21
 3.94626181889907E+0000
  0
LINE
  8
1
  6
CONTINUOUS
 62
     0
 10
 8.17092821761617E+0000
 20
 3.93029116851540E+0000
 11
 8.15139322653704E+0000
 21
 3.94982615959452E+0000
  0
LINE
  8
1
  6
CONTINUOUS
 62
     0
 10
 8.19583207754476E+0000
 20
 3.92604151277919E+0000
 11
 8.16848309003399E+0000
 21
 3.95339050028997E+0000
  0
LINE
  8
1
  6
CONTINUOUS
 62
     0
 10
 8.22073593745881E+0000
 20
 3.92179185704663E+0000
 11
 8.18557295351638E+0000
 21
 3.95695484098178E+0000
  0
LINE
  8
1
  6
CONTINUOUS
 62
     0
 10
 8.24563979737286E+0000
 20
 3.91754220131043E+0000
 11
 8.20266281701333E+0000
 21
 3.96051918167723E+0000
  0
LINE
  8
1
  6
CONTINUOUS
 62
     0
 10
 8.26795789445168E+0000
 20
 3.91587830842400E+0000
 11
 8.21975268049573E+0000
 21
 3.96408352237268E+0000
  0
LINE
  8
1
  6
CONTINUOUS
 62
     0
 10
 8.26795789445168E+0000
 20
 3.93653251260548E+0000
 11
 8.23684254399268E+0000
 21
 3.96764786306812E+0000
  0
LINE
  8
1
  6
CONTINUOUS
 62
     0
 10
 8.26795789445168E+0000
 20
 3.95718671678696E+0000
 11
 8.25393240748963E+0000
 21
 3.97121220376357E+0000
  0
LINE
  8
1
  6
CONTINUOUS
 62
     0
 10
 8.26795789445168E+0000
 20
 3.92406088858479E+0000
 11
 8.25913615552417E+0000
 21
 3.91523914966092E+0000
  0
LINE
  8
1
  6
CONTINUOUS
 62
     0
 10
 8.26795789445168E+0000
 20
 3.94471509276991E+0000
 11
 8.24149267766916E+0000
 21
 3.91824987599102E+0000
  0
LINE
  8
1
  6
CONTINUOUS
 62
     0
 10
 8.26795789445168E+0000
 20
 3.96536929695503E+0000
 11
 8.22384919981414E+0000
 21
 3.92126060232113E+0000
  0
LINE
  8
1
  6
CONTINUOUS
 62
     0
 10
 8.25293951477215E+0000
 20
 3.97100512147153E+0000
 11
 8.20620572195912E+0000
 21
 3.92427132865487E+0000
  0
LINE
  8
1
  6
CONTINUOUS
 62
     0
 10
 8.22684236975329E+0000
 20
 3.96556218063051E+0000
 11
 8.18856224410411E+0000
 21
 3.92728205498497E+0000
  0
LINE
  8
1
  6
CONTINUOUS
 62
     0
 10
 8.20074522471987E+0000
 20
 3.96011923978585E+0000
 11
 8.17091876624909E+0000
 21
 3.93029278131871E+0000
  0
LINE
  8
1
  6
CONTINUOUS
 62
     0
 10
 8.17464807968645E+0000
 20
 3.95467629894483E+0000
 11
 8.15327528839407E+0000
 21
 3.93330350764882E+0000
  0
LINE
  8
1
  6
CONTINUOUS
 62
     0
 10
 8.14855093466758E+0000
 20
 3.94923335810017E+0000
 11
 8.13563181053905E+0000
 21
 3.93631423398256E+0000
  0
LINE
  8
1
  6
CONTINUOUS
 62
     0
 10
 8.12245378963416E+0000
 20
 3.94379041725551E+0000
 11
 8.11798833269859E+0000
 21
 3.93932496031266E+0000
  0
LINE
  8
1
  6
CONTINUOUS
 62
     0
 10
 7.99173551577405E+0000
 20
 2.93280803756352E+0000
 11
 7.99173551577405E+0000
 21
 2.93280803756352E+0000
  0
LINE
  8
1
  6
CONTINUOUS
 62
     0
 10
 7.99173551577405E+0000
 20
 2.93280803756352E+0000
 11
 8.15102484243107E+0000
 21
 2.90562651619985E+0000
  0
LINE
  8
1
  6
CONTINUOUS
 62
     0
 10
 8.15102484243107E+0000
 20
 2.90562651619985E+0000
 11
 8.15102484243107E+0000
 21
 2.96603015367145E+0000
  0
LINE
  8
1
  6
CONTINUOUS
 62
     0
 10
 8.15102484243107E+0000
 20
 2.96603015367145E+0000
 11
 7.99173551577405E+0000
 21
 2.93280803756352E+0000
  0
LINE
  8
1
  6
CONTINUOUS
 62
     0
 10
 8.15102484243107E+0000
 20
 2.90562651619985E+0000
 11
 8.15102484243107E+0000
 21
 2.96603015367145E+0000
  0
LINE
  8
1
  6
CONTINUOUS
 62
     0
 10
 8.00418744573835E+0000
 20
 2.93068320969542E+0000
 11
 8.00028044752253E+0000
 21
 2.93459020791124E+0000
  0
LINE
  8
1
  6
CONTINUOUS
 62
     0
 10
 8.02909130565240E+0000
 20
 2.92643355396285E+0000
 11
 8.01737031101948E+0000
 21
 2.93815454860305E+0000
  0
LINE
  8
1
  6
CONTINUOUS
 62
     0
 10
 8.05399516558100E+0000
 20
 2.92218389822665E+0000
 11
 8.03446017450187E+0000
 21
 2.94171888930214E+0000
  0
LINE
  8
1
  6
CONTINUOUS
 62
     0
 10
 8.07889902549505E+0000
 20
 2.91793424249045E+0000
 11
 8.05155003799882E+0000
 21
 2.94528322999395E+0000
  0
LINE
  8
1
  6
CONTINUOUS
 62
     0
 10
 8.10380288540910E+0000
 20
 2.91368458675788E+0000
 11
 8.06863990148122E+0000
 21
 2.94884757068940E+0000
  0
LINE
  8
1
  6
CONTINUOUS
 62
     0
 10
 8.12870674533769E+0000
 20
 2.90943493102168E+0000
 11
 8.08572976497817E+0000
 21
 2.95241191138484E+0000
  0
LINE
  8
1
  6
CONTINUOUS
 62
     0
 10
 8.15102484243107E+0000
 20
 2.90777103811342E+0000
 11
 8.10281962846057E+0000
 21
 2.95597625207665E+0000
  0
LINE
  8
1
  6
CONTINUOUS
 62
     0
 10
 8.15102484243107E+0000
 20
 2.92842524229854E+0000
 11
 8.11990949195751E+0000
 21
 2.95954059277210E+0000
  0
LINE
  8
1
  6
CONTINUOUS
 62
     0
 10
 8.15102484243107E+0000
 20
 2.94907944648003E+0000
 11
 8.13699935545446E+0000
 21
 2.96310493346391E+0000
  0
LINE
  8
1
  6
CONTINUOUS
 62
     0
 10
 8.15102484243107E+0000
 20
 2.91595361828877E+0000
 11
 8.14220310350356E+0000
 21
 2.90713187936126E+0000
  0
LINE
  8
1
  6
CONTINUOUS
 62
     0
 10
 8.15102484243107E+0000
 20
 2.93660782247389E+0000
 11
 8.12455962564854E+0000
 21
 2.91014260569500E+0000
  0
LINE
  8
1
  6
CONTINUOUS
 62
     0
 10
 8.15102484243107E+0000
 20
 2.95726202665901E+0000
 11
 8.10691614779353E+0000
 21
 2.91315333202510E+0000
  0
LINE
  8
1
  6
CONTINUOUS
 62
     0
 10
 8.13600646276609E+0000
 20
 2.96289785118643E+0000
 11
 8.08927266993851E+0000
 21
 2.91616405835885E+0000
  0
LINE
  8
1
  6
CONTINUOUS
 62
     0
 10
 8.10990931773267E+0000
 20
 2.95745491034540E+0000
 11
 8.07162919208349E+0000
 21
 2.91917478468895E+0000
  0
LINE
  8
1
  6
CONTINUOUS
 62
     0
 10
 8.08381217271381E+0000
 20
 2.95201196950075E+0000
 11
 8.05398571422847E+0000
 21
 2.92218551102633E+0000
  0
LINE
  8
1
  6
CONTINUOUS
 62
     0
 10
 8.05771502768039E+0000
 20
 2.94656902865245E+0000
 11
 8.03634223638801E+0000
 21
 2.92519623736007E+0000
  0
LINE
  8
1
  6
CONTINUOUS
 62
     0
 10
 8.03161788264697E+0000
 20
 2.94112608780779E+0000
 11
 8.01869875853299E+0000
 21
 2.92820696369017E+0000
  0
LINE
  8
1
  6
CONTINUOUS
 62
     0
 10
 8.00552073761355E+0000
 20
 2.93568314696677E+0000
 11
 8.00105528067797E+0000
 21
 2.93121769002391E+0000
  0
LINE
  8
1
  6
CONTINUOUS
 62
     0
 10
 7.99173551577405E+0000
 20
 2.93280803756352E+0000
 11
 7.99173551577405E+0000
 21
 2.93280803756352E+0000
  0
LINE
  8
1
  6
CONTINUOUS
 62
     0
 10
 7.99173551577405E+0000
 20
 2.93280803756352E+0000
 11
 8.15102484243107E+0000
 21
 2.90562651619985E+0000
  0
LINE
  8
1
  6
CONTINUOUS
 62
     0
 10
 8.15102484243107E+0000
 20
 2.90562651619985E+0000
 11
 8.15102484243107E+0000
 21
 2.96603015367145E+0000
  0
LINE
  8
1
  6
CONTINUOUS
 62
     0
 10
 8.15102484243107E+0000
 20
 2.96603015367145E+0000
 11
 7.99173551577405E+0000
 21
 2.93280803756352E+0000
  0
LINE
  8
1
  6
CONTINUOUS
 62
     0
 10
 8.15102484243107E+0000
 20
 2.90562651619985E+0000
 11
 8.15102484243107E+0000
 21
 2.96603015367145E+0000
  0
LINE
  8
1
  6
CONTINUOUS
 62
     0
 10
 8.00418744573835E+0000
 20
 2.93068320969542E+0000
 11
 8.00028044752253E+0000
 21
 2.93459020791124E+0000
  0
LINE
  8
1
  6
CONTINUOUS
 62
     0
 10
 8.02909130565240E+0000
 20
 2.92643355396285E+0000
 11
 8.01737031101948E+0000
 21
 2.93815454860305E+0000
  0
LINE
  8
1
  6
CONTINUOUS
 62
     0
 10
 8.05399516558100E+0000
 20
 2.92218389822665E+0000
 11
 8.03446017450187E+0000
 21
 2.94171888930214E+0000
  0
LINE
  8
1
  6
CONTINUOUS
 62
     0
 10
 8.07889902549505E+0000
 20
 2.91793424249045E+0000
 11
 8.05155003799882E+0000
 21
 2.94528322999395E+0000
  0
LINE
  8
1
  6
CONTINUOUS
 62
     0
 10
 8.10380288540910E+0000
 20
 2.91368458675788E+0000
 11
 8.06863990148122E+0000
 21
 2.94884757068940E+0000
  0
LINE
  8
1
  6
CONTINUOUS
 62
     0
 10
 8.12870674533769E+0000
 20
 2.90943493102168E+0000
 11
 8.08572976497817E+0000
 21
 2.95241191138484E+0000
  0
LINE
  8
1
  6
CONTINUOUS
 62
     0
 10
 8.15102484243107E+0000
 20
 2.90777103811342E+0000
 11
 8.10281962846057E+0000
 21
 2.95597625207665E+0000
  0
LINE
  8
1
  6
CONTINUOUS
 62
     0
 10
 8.15102484243107E+0000
 20
 2.92842524229854E+0000
 11
 8.11990949195751E+0000
 21
 2.95954059277210E+0000
  0
LINE
  8
1
  6
CONTINUOUS
 62
     0
 10
 8.15102484243107E+0000
 20
 2.94907944648003E+0000
 11
 8.13699935545446E+0000
 21
 2.96310493346391E+0000
  0
LINE
  8
1
  6
CONTINUOUS
 62
     0
 10
 8.15102484243107E+0000
 20
 2.91595361828877E+0000
 11
 8.14220310350356E+0000
 21
 2.90713187936126E+0000
  0
LINE
  8
1
  6
CONTINUOUS
 62
     0
 10
 8.15102484243107E+0000
 20
 2.93660782247389E+0000
 11
 8.12455962564854E+0000
 21
 2.91014260569500E+0000
  0
LINE
  8
1
  6
CONTINUOUS
 62
     0
 10
 8.15102484243107E+0000
 20
 2.95726202665901E+0000
 11
 8.10691614779353E+0000
 21
 2.91315333202510E+0000
  0
LINE
  8
1
  6
CONTINUOUS
 62
     0
 10
 8.13600646276609E+0000
 20
 2.96289785118643E+0000
 11
 8.08927266993851E+0000
 21
 2.91616405835885E+0000
  0
LINE
  8
1
  6
CONTINUOUS
 62
     0
 10
 8.10990931773267E+0000
 20
 2.95745491034540E+0000
 11
 8.07162919208349E+0000
 21
 2.91917478468895E+0000
  0
LINE
  8
1
  6
CONTINUOUS
 62
     0
 10
 8.08381217271381E+0000
 20
 2.95201196950075E+0000
 11
 8.05398571422847E+0000
 21
 2.92218551102633E+0000
  0
LINE
  8
1
  6
CONTINUOUS
 62
     0
 10
 8.05771502768039E+0000
 20
 2.94656902865245E+0000
 11
 8.03634223638801E+0000
 21
 2.92519623736007E+0000
  0
LINE
  8
1
  6
CONTINUOUS
 62
     0
 10
 8.03161788264697E+0000
 20
 2.94112608780779E+0000
 11
 8.01869875853299E+0000
 21
 2.92820696369017E+0000
  0
LINE
  8
1
  6
CONTINUOUS
 62
     0
 10
 8.00552073761355E+0000
 20
 2.93568314696677E+0000
 11
 8.00105528067797E+0000
 21
 2.93121769002391E+0000
  0
LINE
  8
1
  6
CONTINUOUS
 62
     0
 10
 8.45280665649625E+0000
 20
 2.93383093475131E+0000
 11
 8.45280665649625E+0000
 21
 2.93383093475131E+0000
  0
LINE
  8
1
  6
CONTINUOUS
 62
     0
 10
 8.45280665649625E+0000
 20
 2.93383093475131E+0000
 11
 8.29351732986106E+0000
 21
 2.96101245611499E+0000
  0
LINE
  8
1
  6
CONTINUOUS
 62
     0
 10
 8.29351732986106E+0000
 20
 2.96101245611499E+0000
 11
 8.29351732986106E+0000
 21
 2.90060881864338E+0000
  0
LINE
  8
1
  6
CONTINUOUS
 62
     0
 10
 8.29351732986106E+0000
 20
 2.90060881864338E+0000
 11
 8.45280665649625E+0000
 21
 2.93383093475131E+0000
  0
LINE
  8
1
  6
CONTINUOUS
 62
     0
 10
 8.29351732986106E+0000
 20
 2.96101245611499E+0000
 11
 8.29351732986106E+0000
 21
 2.90060881864338E+0000
  0
LINE
  8
1
  6
CONTINUOUS
 62
     0
 10
 8.30206226160226E+0000
 20
 2.90239098899110E+0000
 11
 8.29351732986106E+0000
 21
 2.91093592073958E+0000
  0
LINE
  8
1
  6
CONTINUOUS
 62
     0
 10
 8.31915212509921E+0000
 20
 2.90595532969019E+0000
 11
 8.29351732986106E+0000
 21
 2.93159012492470E+0000
  0
LINE
  8
1
  6
CONTINUOUS
 62
     0
 10
 8.33624198859616E+0000
 20
 2.90951967038200E+0000
 11
 8.29351732986106E+0000
 21
 2.95224432911346E+0000
  0
LINE
  8
1
  6
CONTINUOUS
 62
     0
 10
 8.35333185207855E+0000
 20
 2.91308401107744E+0000
 11
 8.30784899805440E+0000
 21
 2.95856686510524E+0000
  0
LINE
  8
1
  6
CONTINUOUS
 62
     0
 10
 8.37042171557550E+0000
 20
 2.91664835177289E+0000
 11
 8.33275285796844E+0000
 21
 2.95431720937268E+0000
  0
LINE
  8
1
  6
CONTINUOUS
 62
     0
 10
 8.38751157905790E+0000
 20
 2.92021269246470E+0000
 11
 8.35765671789704E+0000
 21
 2.95006755363647E+0000
  0
LINE
  8
1
  6
CONTINUOUS
 62
     0
 10
 8.40460144255485E+0000
 20
 2.92377703316379E+0000
 11
 8.38256057782564E+0000
 21
 2.94581789790391E+0000
  0
LINE
  8
1
  6
CONTINUOUS
 62
     0
 10
 8.42169130605180E+0000
 20
 2.92734137385924E+0000
 11
 8.40746443773969E+0000
 21
 2.94156824216770E+0000
  0
LINE
  8
1
  6
CONTINUOUS
 62
     0
 10
 8.43878116954875E+0000
 20
 2.93090571455105E+0000
 11
 8.43236829766829E+0000
 21
 2.93731858643514E+0000
  0
LINE
  8
1
  6
CONTINUOUS
 62
     0
 10
 8.44398491756874E+0000
 20
 2.93533629792364E+0000
 11
 8.43975808397227E+0000
 21
 2.93110946432716E+0000
  0
LINE
  8
1
  6
CONTINUOUS
 62
     0
 10
 8.42634143971372E+0000
 20
 2.93834702425738E+0000
 11
 8.41366093893885E+0000
 21
 2.92566652348251E+0000
  0
LINE
  8
1
  6
CONTINUOUS
 62
     0
 10
 8.40869796185871E+0000
 20
 2.94135775058749E+0000
 11
 8.38756379390543E+0000
 21
 2.92022358263421E+0000
  0
LINE
  8
1
  6
CONTINUOUS
 62
     0
 10
 8.39105448400369E+0000
 20
 2.94436847692123E+0000
 11
 8.36146664888656E+0000
 21
 2.91478064178955E+0000
  0
LINE
  8
1
  6
CONTINUOUS
 62
     0
 10
 8.37341100616322E+0000
 20
 2.94737920325133E+0000
 11
 8.33536950385314E+0000
 21
 2.90933770094125E+0000
  0
LINE
  8
1
  6
CONTINUOUS
 62
     0
 10
 8.35576752829365E+0000
 20
 2.95038992957780E+0000
 11
 8.30927235881973E+0000
 21
 2.90389476010023E+0000
  0
LINE
  8
1
  6
CONTINUOUS
 62
     0
 10
 8.33812405043864E+0000
 20
 2.95340065591154E+0000
 11
 8.29351732986106E+0000
 21
 2.90879393531941E+0000
  0
LINE
  8
1
  6
CONTINUOUS
 62
     0
 10
 8.32048057259817E+0000
 20
 2.95641138224164E+0000
 11
 8.29351732986106E+0000
 21
 2.92944813950453E+0000
  0
LINE
  8
1
  6
CONTINUOUS
 62
     0
 10
 8.30283709474315E+0000
 20
 2.95942210857174E+0000
 11
 8.29351732986106E+0000
 21
 2.95010234368965E+0000
  0
LINE
  8
1
  6
CONTINUOUS
 62
     0
 10
 8.45280665649625E+0000
 20
 2.93383093475131E+0000
 11
 8.45280665649625E+0000
 21
 2.93383093475131E+0000
  0
LINE
  8
1
  6
CONTINUOUS
 62
     0
 10
 8.45280665649625E+0000
 20
 2.93383093475131E+0000
 11
 8.29351732986106E+0000
 21
 2.96101245611499E+0000
  0
LINE
  8
1
  6
CONTINUOUS
 62
     0
 10
 8.29351732986106E+0000
 20
 2.96101245611499E+0000
 11
 8.29351732986106E+0000
 21
 2.90060881864338E+0000
  0
LINE
  8
1
  6
CONTINUOUS
 62
     0
 10
 8.29351732986106E+0000
 20
 2.90060881864338E+0000
 11
 8.45280665649625E+0000
 21
 2.93383093475131E+0000
  0
LINE
  8
1
  6
CONTINUOUS
 62
     0
 10
 8.29351732986106E+0000
 20
 2.96101245611499E+0000
 11
 8.29351732986106E+0000
 21
 2.90060881864338E+0000
  0
LINE
  8
1
  6
CONTINUOUS
 62
     0
 10
 8.30206226160226E+0000
 20
 2.90239098899110E+0000
 11
 8.29351732986106E+0000
 21
 2.91093592073958E+0000
  0
LINE
  8
1
  6
CONTINUOUS
 62
     0
 10
 8.31915212509921E+0000
 20
 2.90595532969019E+0000
 11
 8.29351732986106E+0000
 21
 2.93159012492470E+0000
  0
LINE
  8
1
  6
CONTINUOUS
 62
     0
 10
 8.33624198859616E+0000
 20
 2.90951967038200E+0000
 11
 8.29351732986106E+0000
 21
 2.95224432911346E+0000
  0
LINE
  8
1
  6
CONTINUOUS
 62
     0
 10
 8.35333185207855E+0000
 20
 2.91308401107744E+0000
 11
 8.30784899805440E+0000
 21
 2.95856686510524E+0000
  0
LINE
  8
1
  6
CONTINUOUS
 62
     0
 10
 8.37042171557550E+0000
 20
 2.91664835177289E+0000
 11
 8.33275285796844E+0000
 21
 2.95431720937268E+0000
  0
LINE
  8
1
  6
CONTINUOUS
 62
     0
 10
 8.38751157905790E+0000
 20
 2.92021269246470E+0000
 11
 8.35765671789704E+0000
 21
 2.95006755363647E+0000
  0
LINE
  8
1
  6
CONTINUOUS
 62
     0
 10
 8.40460144255485E+0000
 20
 2.92377703316379E+0000
 11
 8.38256057782564E+0000
 21
 2.94581789790391E+0000
  0
LINE
  8
1
  6
CONTINUOUS
 62
     0
 10
 8.42169130605180E+0000
 20
 2.92734137385924E+0000
 11
 8.40746443773969E+0000
 21
 2.94156824216770E+0000
  0
LINE
  8
1
  6
CONTINUOUS
 62
     0
 10
 8.43878116954875E+0000
 20
 2.93090571455105E+0000
 11
 8.43236829766829E+0000
 21
 2.93731858643514E+0000
  0
LINE
  8
1
  6
CONTINUOUS
 62
     0
 10
 8.44398491756874E+0000
 20
 2.93533629792364E+0000
 11
 8.43975808397227E+0000
 21
 2.93110946432716E+0000
  0
LINE
  8
1
  6
CONTINUOUS
 62
     0
 10
 8.42634143971372E+0000
 20
 2.93834702425738E+0000
 11
 8.41366093893885E+0000
 21
 2.92566652348251E+0000
  0
LINE
  8
1
  6
CONTINUOUS
 62
     0
 10
 8.40869796185871E+0000
 20
 2.94135775058749E+0000
 11
 8.38756379390543E+0000
 21
 2.92022358263421E+0000
  0
LINE
  8
1
  6
CONTINUOUS
 62
     0
 10
 8.39105448400369E+0000
 20
 2.94436847692123E+0000
 11
 8.36146664888656E+0000
 21
 2.91478064178955E+0000
  0
LINE
  8
1
  6
CONTINUOUS
 62
     0
 10
 8.37341100616322E+0000
 20
 2.94737920325133E+0000
 11
 8.33536950385314E+0000
 21
 2.90933770094125E+0000
  0
LINE
  8
1
  6
CONTINUOUS
 62
     0
 10
 8.35576752829365E+0000
 20
 2.95038992957780E+0000
 11
 8.30927235881973E+0000
 21
 2.90389476010023E+0000
  0
LINE
  8
1
  6
CONTINUOUS
 62
     0
 10
 8.33812405043864E+0000
 20
 2.95340065591154E+0000
 11
 8.29351732986106E+0000
 21
 2.90879393531941E+0000
  0
LINE
  8
1
  6
CONTINUOUS
 62
     0
 10
 8.32048057259817E+0000
 20
 2.95641138224164E+0000
 11
 8.29351732986106E+0000
 21
 2.92944813950453E+0000
  0
LINE
  8
1
  6
CONTINUOUS
 62
     0
 10
 8.30283709474315E+0000
 20
 2.95942210857174E+0000
 11
 8.29351732986106E+0000
 21
 2.95010234368965E+0000
  0
LINE
  8
1
  6
CONTINUOUS
 62
     0
 10
 8.84358555187646E+0000
 20
 3.78332931516343E+0000
 11
 8.84358555187646E+0000
 21
 3.78332931516343E+0000
  0
LINE
  8
1
  6
CONTINUOUS
 62
     0
 10
 8.84358555187646E+0000
 20
 3.78332931516343E+0000
 11
 8.87076707324013E+0000
 21
 3.94261864179134E+0000
  0
LINE
  8
1
  6
CONTINUOUS
 62
     0
 10
 8.87076707324013E+0000
 20
 3.94261864179134E+0000
 11
 8.81036343576852E+0000
 21
 3.94261864179134E+0000
  0
LINE
  8
1
  6
CONTINUOUS
 62
     0
 10
 8.81036343576852E+0000
 20
 3.94261864179134E+0000
 11
 8.84358555187646E+0000
 21
 3.78332931516343E+0000
  0
LINE
  8
1
  6
CONTINUOUS
 62
     0
 10
 8.87076707324013E+0000
 20
 3.94261864179134E+0000
 11
 8.81036343576852E+0000
 21
 3.94261864179134E+0000
  0
LINE
  8
1
  6
CONTINUOUS
 62
     0
 10
 8.84509091505606E+0000
 20
 3.79215105410185E+0000
 11
 8.84086408145959E+0000
 21
 3.79637788769833E+0000
  0
LINE
  8
1
  6
CONTINUOUS
 62
     0
 10
 8.84810164138617E+0000
 20
 3.80979453195687E+0000
 11
 8.83542114061129E+0000
 21
 3.82247503272811E+0000
  0
LINE
  8
1
  6
CONTINUOUS
 62
     0
 10
 8.85111236771627E+0000
 20
 3.82743800980825E+0000
 11
 8.82997819976299E+0000
 21
 3.84857217776153E+0000
  0
LINE
  8
1
  6
CONTINUOUS
 62
     0
 10
 8.85412309404637E+0000
 20
 3.84508148766326E+0000
 11
 8.82453525891469E+0000
 21
 3.87466932279131E+0000
  0
LINE
  8
1
  6
CONTINUOUS
 62
     0
 10
 8.85713382037648E+0000
 20
 3.86272496551464E+0000
 11
 8.81909231806640E+0000
 21
 3.90076646782472E+0000
  0
LINE
  8
1
  6
CONTINUOUS
 62
     0
 10
 8.86014454670658E+0000
 20
 3.88036844336602E+0000
 11
 8.81364937721810E+0000
 21
 3.92686361285814E+0000
  0
LINE
  8
1
  6
CONTINUOUS
 62
     0
 10
 8.86315527303668E+0000
 20
 3.89801192122104E+0000
 11
 8.81854855247366E+0000
 21
 3.94261864179498E+0000
  0
LINE
  8
1
  6
CONTINUOUS
 62
     0
 10
 8.86616599938134E+0000
 20
 3.91565539907242E+0000
 11
 8.83920275665878E+0000
 21
 3.94261864179498E+0000
  0
LINE
  8
1
  6
CONTINUOUS
 62
     0
 10
 8.86917672571144E+0000
 20
 3.93329887692744E+0000
 11
 8.85985696084390E+0000
 21
 3.94261864179134E+0000
  0
LINE
  8
1
  6
CONTINUOUS
 62
     0
 10
 8.84571037974092E+0000
 20
 3.79578124512409E+0000
 11
 8.84180338152510E+0000
 21
 3.79187424690826E+0000
  0
LINE
  8
1
  6
CONTINUOUS
 62
     0
 10
 8.84996003546985E+0000
 20
 3.82068510504541E+0000
 11
 8.83823904083692E+0000
 21
 3.80896411040158E+0000
  0
LINE
  8
1
  6
CONTINUOUS
 62
     0
 10
 8.85420969121333E+0000
 20
 3.84558896496674E+0000
 11
 8.83467470013420E+0000
 21
 3.82605397389489E+0000
  0
LINE
  8
1
  6
CONTINUOUS
 62
     0
 10
 8.85845934694225E+0000
 20
 3.87049282488806E+0000
 11
 8.83111035944603E+0000
 21
 3.84314383738456E+0000
  0
LINE
  8
1
  6
CONTINUOUS
 62
     0
 10
 8.86270900268573E+0000
 20
 3.89539668480938E+0000
 11
 8.82754601874331E+0000
 21
 3.86023370086696E+0000
  0
LINE
  8
1
  6
CONTINUOUS
 62
     0
 10
 8.86695865841466E+0000
 20
 3.92030054473071E+0000
 11
 8.82398167804058E+0000
 21
 3.87732356435663E+0000
  0
LINE
  8
1
  6
CONTINUOUS
 62
     0
 10
 8.86862255129381E+0000
 20
 3.94261864179134E+0000
 11
 8.82041733735241E+0000
 21
 3.89441342784994E+0000
  0
LINE
  8
1
  6
CONTINUOUS
 62
     0
 10
 8.84796834710869E+0000
 20
 3.94261864179134E+0000
 11
 8.81685299666424E+0000
 21
 3.91150329133961E+0000
  0
LINE
  8
1
  6
CONTINUOUS
 62
     0
 10
 8.82731414292357E+0000
 20
 3.94261864179134E+0000
 11
 8.81328865596151E+0000
 21
 3.92859315483292E+0000
  0
LINE
  8
1
  6
CONTINUOUS
 62
     0
 10
 8.84628682817856E+0000
 20
 4.36562246441463E+0000
 11
 8.84628682817856E+0000
 21
 4.36562246441463E+0000
  0
LINE
  8
1
  6
CONTINUOUS
 62
     0
 10
 8.84628682817856E+0000
 20
 4.36562246441463E+0000
 11
 8.81910530681489E+0000
 21
 4.20633313778671E+0000
  0
LINE
  8
1
  6
CONTINUOUS
 62
     0
 10
 8.81910530681489E+0000
 20
 4.20633313778671E+0000
 11
 8.87950894428650E+0000
 21
 4.20633313778671E+0000
  0
LINE
  8
1
  6
CONTINUOUS
 62
     0
 10
 8.87950894428650E+0000
 20
 4.20633313778671E+0000
 11
 8.84628682817856E+0000
 21
 4.36562246441463E+0000
  0
LINE
  8
1
  6
CONTINUOUS
 62
     0
 10
 8.81910530681489E+0000
 20
 4.20633313778671E+0000
 11
 8.87950894428650E+0000
 21
 4.20633313778671E+0000
  0
LINE
  8
1
  6
CONTINUOUS
 62
     0
 10
 8.82943240892200E+0000
 20
 4.20633313779399E+0000
 11
 8.82061066999449E+0000
 21
 4.21515487672877E+0000
  0
LINE
  8
1
  6
CONTINUOUS
 62
     0
 10
 8.85008661310712E+0000
 20
 4.20633313778671E+0000
 11
 8.82362139632460E+0000
 21
 4.23279835458379E+0000
  0
LINE
  8
1
  6
CONTINUOUS
 62
     0
 10
 8.87074081729224E+0000
 20
 4.20633313778671E+0000
 11
 8.82663212265470E+0000
 21
 4.25044183243153E+0000
  0
LINE
  8
1
  6
CONTINUOUS
 62
     0
 10
 8.87637664181239E+0000
 20
 4.22135151746625E+0000
 11
 8.82964284898480E+0000
 21
 4.26808531028655E+0000
  0
LINE
  8
1
  6
CONTINUOUS
 62
     0
 10
 8.87093370096409E+0000
 20
 4.24744866249966E+0000
 11
 8.83265357531491E+0000
 21
 4.28572878814157E+0000
  0
LINE
  8
1
  6
CONTINUOUS
 62
     0
 10
 8.86549076011579E+0000
 20
 4.27354580752581E+0000
 11
 8.83566430164501E+0000
 21
 4.30337226598931E+0000
  0
LINE
  8
1
  6
CONTINUOUS
 62
     0
 10
 8.86004781926749E+0000
 20
 4.29964295255922E+0000
 11
 8.83867502798967E+0000
 21
 4.32101574384433E+0000
  0
LINE
  8
1
  6
CONTINUOUS
 62
     0
 10
 8.85460487841920E+0000
 20
 4.32574009759264E+0000
 11
 8.84168575431977E+0000
 21
 4.33865922169934E+0000
  0
LINE
  8
1
  6
CONTINUOUS
 62
     0
 10
 8.84916193757090E+0000
 20
 4.35183724262606E+0000
 11
 8.84469648064987E+0000
 21
 4.35630269954709E+0000
  0
LINE
  8
1
  6
CONTINUOUS
 62
     0
 10
 8.87772677393514E+0000
 20
 4.21487806953519E+0000
 11
 8.86918184217939E+0000
 21
 4.20633313777944E+0000
  0
LINE
  8
1
  6
CONTINUOUS
 62
     0
 10
 8.87416243324697E+0000
 20
 4.23196793302486E+0000
 11
 8.84852763799427E+0000
 21
 4.20633313777944E+0000
  0
LINE
  8
1
  6
CONTINUOUS
 62
     0
 10
 8.87059809254424E+0000
 20
 4.24905779651453E+0000
 11
 8.82787343380915E+0000
 21
 4.20633313777944E+0000
  0
LINE
  8
1
  6
CONTINUOUS
 62
     0
 10
 8.86703375185607E+0000
 20
 4.26614766000421E+0000
 11
 8.82155089781736E+0000
 21
 4.22066480596550E+0000
  0
LINE
  8
1
  6
CONTINUOUS
 62
     0
 10
 8.86346941115335E+0000
 20
 4.28323752348660E+0000
 11
 8.82580055354629E+0000
 21
 4.24556866588682E+0000
  0
LINE
  8
1
  6
CONTINUOUS
 62
     0
 10
 8.85990507045062E+0000
 20
 4.30032738698355E+0000
 11
 8.83005020927521E+0000
 21
 4.27047252580815E+0000
  0
LINE
  8
1
  6
CONTINUOUS
 62
     0
 10
 8.85634072976245E+0000
 20
 4.31741725047323E+0000
 11
 8.83429986501869E+0000
 21
 4.29537638572947E+0000
  0
LINE
  8
1
  6
CONTINUOUS
 62
     0
 10
 8.85277638907428E+0000
 20
 4.33450711396290E+0000
 11
 8.83854952074762E+0000
 21
 4.32028024565079E+0000
  0
LINE
  8
1
  6
CONTINUOUS
 62
     0
 10
 8.84921204837156E+0000
 20
 4.35159697745257E+0000
 11
 8.84279917649110E+0000
 21
 4.34518410557212E+0000
  0
LINE
  8
1
  6
CONTINUOUS
 62
     0
 10
 7.52613983232732E+0000
 20
 3.37696049303486E+0000
 11
 7.52613983232732E+0000
 21
 3.37696049303486E+0000
  0
LINE
  8
1
  6
CONTINUOUS
 62
     0
 10
 7.52613983232732E+0000
 20
 3.37696049303486E+0000
 11
 7.55332135369099E+0000
 21
 3.53624981966277E+0000
  0
LINE
  8
1
  6
CONTINUOUS
 62
     0
 10
 7.55332135369099E+0000
 20
 3.53624981966277E+0000
 11
 7.49291771621938E+0000
 21
 3.53624981966277E+0000
  0
LINE
  8
1
  6
CONTINUOUS
 62
     0
 10
 7.49291771621938E+0000
 20
 3.53624981966277E+0000
 11
 7.52613983232732E+0000
 21
 3.37696049303486E+0000
  0
LINE
  8
1
  6
CONTINUOUS
 62
     0
 10
 7.55332135369099E+0000
 20
 3.53624981966277E+0000
 11
 7.49291771621938E+0000
 21
 3.53624981966277E+0000
  0
LINE
  8
1
  6
CONTINUOUS
 62
     0
 10
 7.52764519549237E+0000
 20
 3.38578223196237E+0000
 11
 7.52341836190317E+0000
 21
 3.39000906554793E+0000
  0
LINE
  8
1
  6
CONTINUOUS
 62
     0
 10
 7.53065592182975E+0000
 20
 3.40342570981011E+0000
 11
 7.51797542106215E+0000
 21
 3.41610621058135E+0000
  0
LINE
  8
1
  6
CONTINUOUS
 62
     0
 10
 7.53366664815985E+0000
 20
 3.42106918766513E+0000
 11
 7.51253248021385E+0000
 21
 3.44220335561113E+0000
  0
LINE
  8
1
  6
CONTINUOUS
 62
     0
 10
 7.53667737448995E+0000
 20
 3.43871266552014E+0000
 11
 7.50708953936555E+0000
 21
 3.46830050064091E+0000
  0
LINE
  8
1
  6
CONTINUOUS
 62
     0
 10
 7.53968810082733E+0000
 20
 3.45635614337152E+0000
 11
 7.50164659852453E+0000
 21
 3.49439764567433E+0000
  0
LINE
  8
1
  6
CONTINUOUS
 62
     0
 10
 7.54269882715744E+0000
 20
 3.47399962122290E+0000
 11
 7.49620365767623E+0000
 21
 3.52049479070411E+0000
  0
LINE
  8
1
  6
CONTINUOUS
 62
     0
 10
 7.54570955348754E+0000
 20
 3.49164309907792E+0000
 11
 7.50110283290269E+0000
 21
 3.53624981966641E+0000
  0
LINE
  8
1
  6
CONTINUOUS
 62
     0
 10
 7.54872027982492E+0000
 20
 3.50928657692930E+0000
 11
 7.52175703708781E+0000
 21
 3.53624981966641E+0000
  0
LINE
  8
1
  6
CONTINUOUS
 62
     0
 10
 7.55173100615502E+0000
 20
 3.52693005478068E+0000
 11
 7.54241124127293E+0000
 21
 3.53624981966277E+0000
  0
LINE
  8
1
  6
CONTINUOUS
 62
     0
 10
 7.52826466018450E+0000
 20
 3.38941242299188E+0000
 11
 7.52435766197596E+0000
 21
 3.38550542477969E+0000
  0
LINE
  8
1
  6
CONTINUOUS
 62
     0
 10
 7.53251431592071E+0000
 20
 3.41431628291321E+0000
 11
 7.52079332128051E+0000
 21
 3.40259528826937E+0000
  0
LINE
  8
1
  6
CONTINUOUS
 62
     0
 10
 7.53676397165691E+0000
 20
 3.43922014283453E+0000
 11
 7.51722898057778E+0000
 21
 3.41968515175540E+0000
  0
LINE
  8
1
  6
CONTINUOUS
 62
     0
 10
 7.54101362739311E+0000
 20
 3.46412400275585E+0000
 11
 7.51366463988961E+0000
 21
 3.43677501524871E+0000
  0
LINE
  8
1
  6
CONTINUOUS
 62
     0
 10
 7.54526328312932E+0000
 20
 3.48902786267718E+0000
 11
 7.51010029919416E+0000
 21
 3.45386487873839E+0000
  0
LINE
  8
1
  6
CONTINUOUS
 62
     0
 10
 7.54951293886552E+0000
 20
 3.51393172259850E+0000
 11
 7.50653595849872E+0000
 21
 3.47095474223170E+0000
  0
LINE
  8
1
  6
CONTINUOUS
 62
     0
 10
 7.55117683174467E+0000
 20
 3.53624981965913E+0000
 11
 7.50297161780327E+0000
 21
 3.48804460571773E+0000
  0
LINE
  8
1
  6
CONTINUOUS
 62
     0
 10
 7.53052262755955E+0000
 20
 3.53624981965913E+0000
 11
 7.49940727710782E+0000
 21
 3.50513446921104E+0000
  0
LINE
  8
1
  6
CONTINUOUS
 62
     0
 10
 7.50986842337443E+0000
 20
 3.53624981965913E+0000
 11
 7.49584293641237E+0000
 21
 3.52222433270072E+0000
  0
LINE
  8
1
  6
CONTINUOUS
 62
     0
 10
 7.23770497065561E+0000
 20
 3.36133092294767E+0000
 11
 7.23770497065561E+0000
 21
 3.36133092294767E+0000
  0
LINE
  8
1
  6
CONTINUOUS
 62
     0
 10
 7.23770497065561E+0000
 20
 3.36133092294767E+0000
 11
 7.26488649201929E+0000
 21
 3.52062024957559E+0000
  0
LINE
  8
1
  6
CONTINUOUS
 62
     0
 10
 7.26488649201929E+0000
 20
 3.52062024957559E+0000
 11
 7.20448285454768E+0000
 21
 3.52062024957559E+0000
  0
LINE
  8
1
  6
CONTINUOUS
 62
     0
 10
 7.20448285454768E+0000
 20
 3.52062024957559E+0000
 11
 7.23770497065561E+0000
 21
 3.36133092294767E+0000
  0
LINE
  8
1
  6
CONTINUOUS
 62
     0
 10
 7.26488649201929E+0000
 20
 3.52062024957559E+0000
 11
 7.20448285454768E+0000
 21
 3.52062024957559E+0000
  0
LINE
  8
1
  6
CONTINUOUS
 62
     0
 10
 7.23921033382794E+0000
 20
 3.37015266187882E+0000
 11
 7.23498350023874E+0000
 21
 3.37437949546802E+0000
  0
LINE
  8
1
  6
CONTINUOUS
 62
     0
 10
 7.24222106015804E+0000
 20
 3.38779613973020E+0000
 11
 7.22954055939044E+0000
 21
 3.40047664049780E+0000
  0
LINE
  8
1
  6
CONTINUOUS
 62
     0
 10
 7.24523178649542E+0000
 20
 3.40543961758158E+0000
 11
 7.22409761854215E+0000
 21
 3.42657378553486E+0000
  0
LINE
  8
1
  6
CONTINUOUS
 62
     0
 10
 7.24824251282553E+0000
 20
 3.42308309543660E+0000
 11
 7.21865467769385E+0000
 21
 3.45267093056464E+0000
  0
LINE
  8
1
  6
CONTINUOUS
 62
     0
 10
 7.25125323915563E+0000
 20
 3.44072657328798E+0000
 11
 7.21321173685283E+0000
 21
 3.47876807559442E+0000
  0
LINE
  8
1
  6
CONTINUOUS
 62
     0
 10
 7.25426396548573E+0000
 20
 3.45837005114299E+0000
 11
 7.20776879600453E+0000
 21
 3.50486522062783E+0000
  0
LINE
  8
1
  6
CONTINUOUS
 62
     0
 10
 7.25727469182311E+0000
 20
 3.47601352899801E+0000
 11
 7.21266797123826E+0000
 21
 3.52062024957922E+0000
  0
LINE
  8
1
  6
CONTINUOUS
 62
     0
 10
 7.26028541815322E+0000
 20
 3.49365700684575E+0000
 11
 7.23332217542338E+0000
 21
 3.52062024957922E+0000
  0
LINE
  8
1
  6
CONTINUOUS
 62
     0
 10
 7.26329614448332E+0000
 20
 3.51130048470077E+0000
 11
 7.25397637960850E+0000
 21
 3.52062024957559E+0000
  0
LINE
  8
1
  6
CONTINUOUS
 62
     0
 10
 7.23982979851280E+0000
 20
 3.37378285290470E+0000
 11
 7.23592280029698E+0000
 21
 3.36987585468887E+0000
  0
LINE
  8
1
  6
CONTINUOUS
 62
     0
 10
 7.24407945424900E+0000
 20
 3.39868671282602E+0000
 11
 7.23235845960880E+0000
 21
 3.38696571818218E+0000
  0
LINE
  8
1
  6
CONTINUOUS
 62
     0
 10
 7.24832910998521E+0000
 20
 3.42359057274734E+0000
 11
 7.22879411890608E+0000
 21
 3.40405558166822E+0000
  0
LINE
  8
1
  6
CONTINUOUS
 62
     0
 10
 7.25257876572141E+0000
 20
 3.44849443266867E+0000
 11
 7.22522977821791E+0000
 21
 3.42114544516153E+0000
  0
LINE
  8
1
  6
CONTINUOUS
 62
     0
 10
 7.25682842145761E+0000
 20
 3.47339829258999E+0000
 11
 7.22166543752246E+0000
 21
 3.43823530865120E+0000
  0
LINE
  8
1
  6
CONTINUOUS
 62
     0
 10
 7.26107807719382E+0000
 20
 3.49830215250768E+0000
 11
 7.21810109682701E+0000
 21
 3.45532517214451E+0000
  0
LINE
  8
1
  6
CONTINUOUS
 62
     0
 10
 7.26274197007297E+0000
 20
 3.52062024957195E+0000
 11
 7.21453675613157E+0000
 21
 3.47241503563055E+0000
  0
LINE
  8
1
  6
CONTINUOUS
 62
     0
 10
 7.24208776588785E+0000
 20
 3.52062024957195E+0000
 11
 7.21097241543612E+0000
 21
 3.48950489912022E+0000
  0
LINE
  8
1
  6
CONTINUOUS
 62
     0
 10
 7.22143356170272E+0000
 20
 3.52062024957195E+0000
 11
 7.20740807474067E+0000
 21
 3.50659476261353E+0000
  0
LINE
  8
1
  6
CONTINUOUS
 62
     0
 10
 7.24040624695772E+0000
 20
 4.78762085663038E+0000
 11
 7.24040624695772E+0000
 21
 4.78762085663038E+0000
  0
LINE
  8
1
  6
CONTINUOUS
 62
     0
 10
 7.24040624695772E+0000
 20
 4.78762085663038E+0000
 11
 7.21322472559405E+0000
 21
 4.62833153000247E+0000
  0
LINE
  8
1
  6
CONTINUOUS
 62
     0
 10
 7.21322472559405E+0000
 20
 4.62833153000247E+0000
 11
 7.27362836306565E+0000
 21
 4.62833153000247E+0000
  0
LINE
  8
1
  6
CONTINUOUS
 62
     0
 10
 7.27362836306565E+0000
 20
 4.62833153000247E+0000
 11
 7.24040624695772E+0000
 21
 4.78762085663038E+0000
  0
LINE
  8
1
  6
CONTINUOUS
 62
     0
 10
 7.21322472559405E+0000
 20
 4.62833153000247E+0000
 11
 7.27362836306565E+0000
 21
 4.62833153000247E+0000
  0
LINE
  8
1
  6
CONTINUOUS
 62
     0
 10
 7.22355182770116E+0000
 20
 4.62833153000247E+0000
 11
 7.21473008876637E+0000
 21
 4.63715326893725E+0000
  0
LINE
  8
1
  6
CONTINUOUS
 62
     0
 10
 7.24420603188628E+0000
 20
 4.62833153000247E+0000
 11
 7.21774081509648E+0000
 21
 4.65479674679227E+0000
  0
LINE
  8
1
  6
CONTINUOUS
 62
     0
 10
 7.26486023607140E+0000
 20
 4.62833153000247E+0000
 11
 7.22075154142658E+0000
 21
 4.67244022464729E+0000
  0
LINE
  8
1
  6
CONTINUOUS
 62
     0
 10
 7.27049606058426E+0000
 20
 4.64334990967473E+0000
 11
 7.22376226776396E+0000
 21
 4.69008370249503E+0000
  0
LINE
  8
1
  6
CONTINUOUS
 62
     0
 10
 7.26505311973597E+0000
 20
 4.66944705470814E+0000
 11
 7.22677299409406E+0000
 21
 4.70772718035005E+0000
  0
LINE
  8
1
  6
CONTINUOUS
 62
     0
 10
 7.25961017888767E+0000
 20
 4.69554419974156E+0000
 11
 7.22978372042417E+0000
 21
 4.72537065820507E+0000
  0
LINE
  8
1
  6
CONTINUOUS
 62
     0
 10
 7.25416723803937E+0000
 20
 4.72164134477498E+0000
 11
 7.23279444676155E+0000
 21
 4.74301413606008E+0000
  0
LINE
  8
1
  6
CONTINUOUS
 62
     0
 10
 7.24872429719835E+0000
 20
 4.74773848980840E+0000
 11
 7.23580517309165E+0000
 21
 4.76065761390782E+0000
  0
LINE
  8
1
  6
CONTINUOUS
 62
     0
 10
 7.24328135635005E+0000
 20
 4.77383563484182E+0000
 11
 7.23881589942175E+0000
 21
 4.77830109176284E+0000
  0
LINE
  8
1
  6
CONTINUOUS
 62
     0
 10
 7.27184619271429E+0000
 20
 4.63687646174367E+0000
 11
 7.26330126097309E+0000
 21
 4.62833153000247E+0000
  0
LINE
  8
1
  6
CONTINUOUS
 62
     0
 10
 7.26828185201884E+0000
 20
 4.65396632523334E+0000
 11
 7.24264705678797E+0000
 21
 4.62833153000247E+0000
  0
LINE
  8
1
  6
CONTINUOUS
 62
     0
 10
 7.26471751132340E+0000
 20
 4.67105618873029E+0000
 11
 7.22199285260285E+0000
 21
 4.62833153000247E+0000
  0
LINE
  8
1
  6
CONTINUOUS
 62
     0
 10
 7.26115317063523E+0000
 20
 4.68814605221996E+0000
 11
 7.21567031659652E+0000
 21
 4.64266319818853E+0000
  0
LINE
  8
1
  6
CONTINUOUS
 62
     0
 10
 7.25758882992523E+0000
 20
 4.70523591570236E+0000
 11
 7.21991997233272E+0000
 21
 4.66756705810985E+0000
  0
LINE
  8
1
  6
CONTINUOUS
 62
     0
 10
 7.25402448923705E+0000
 20
 4.72232577919203E+0000
 11
 7.22416962806892E+0000
 21
 4.69247091803118E+0000
  0
LINE
  8
1
  6
CONTINUOUS
 62
     0
 10
 7.25046014854161E+0000
 20
 4.73941564268171E+0000
 11
 7.22841928380512E+0000
 21
 4.71737477795250E+0000
  0
LINE
  8
1
  6
CONTINUOUS
 62
     0
 10
 7.24689580784616E+0000
 20
 4.75650550617866E+0000
 11
 7.23266893954133E+0000
 21
 4.74227863787382E+0000
  0
LINE
  8
1
  6
CONTINUOUS
 62
     0
 10
 7.24333146715071E+0000
 20
 4.77359536966833E+0000
 11
 7.23691859527753E+0000
 21
 4.76718249779515E+0000
  0
LINE
  8
1
  6
CONTINUOUS
 62
     0
 10
 7.52884110862942E+0000
 20
 4.75636171647056E+0000
 11
 7.52884110862942E+0000
 21
 4.75636171647056E+0000
  0
LINE
  8
1
  6
CONTINUOUS
 62
     0
 10
 7.52884110862942E+0000
 20
 4.75636171647056E+0000
 11
 7.50165958726575E+0000
 21
 4.59707238984265E+0000
  0
LINE
  8
1
  6
CONTINUOUS
 62
     0
 10
 7.50165958726575E+0000
 20
 4.59707238984265E+0000
 11
 7.56206322473736E+0000
 21
 4.59707238984265E+0000
  0
LINE
  8
1
  6
CONTINUOUS
 62
     0
 10
 7.56206322473736E+0000
 20
 4.59707238984265E+0000
 11
 7.52884110862942E+0000
 21
 4.75636171647056E+0000
  0
LINE
  8
1
  6
CONTINUOUS
 62
     0
 10
 7.50165958726575E+0000
 20
 4.59707238984265E+0000
 11
 7.56206322473736E+0000
 21
 4.59707238984265E+0000
  0
LINE
  8
1
  6
CONTINUOUS
 62
     0
 10
 7.51198668937286E+0000
 20
 4.59707238984265E+0000
 11
 7.50316495043808E+0000
 21
 4.60589412877744E+0000
  0
LINE
  8
1
  6
CONTINUOUS
 62
     0
 10
 7.53264089355798E+0000
 20
 4.59707238984265E+0000
 11
 7.50617567676818E+0000
 21
 4.62353760663245E+0000
  0
LINE
  8
1
  6
CONTINUOUS
 62
     0
 10
 7.55329509774310E+0000
 20
 4.59707238984265E+0000
 11
 7.50918640309828E+0000
 21
 4.64118108448747E+0000
  0
LINE
  8
1
  6
CONTINUOUS
 62
     0
 10
 7.55893092225597E+0000
 20
 4.61209076952218E+0000
 11
 7.51219712943566E+0000
 21
 4.65882456234249E+0000
  0
LINE
  8
1
  6
CONTINUOUS
 62
     0
 10
 7.55348798140767E+0000
 20
 4.63818791454833E+0000
 11
 7.51520785576577E+0000
 21
 4.67646804019023E+0000
  0
LINE
  8
1
  6
CONTINUOUS
 62
     0
 10
 7.54804504055937E+0000
 20
 4.66428505958174E+0000
 11
 7.51821858209587E+0000
 21
 4.69411151804525E+0000
  0
LINE
  8
1
  6
CONTINUOUS
 62
     0
 10
 7.54260209971108E+0000
 20
 4.69038220461516E+0000
 11
 7.52122930843325E+0000
 21
 4.71175499590026E+0000
  0
LINE
  8
1
  6
CONTINUOUS
 62
     0
 10
 7.53715915887005E+0000
 20
 4.71647934964858E+0000
 11
 7.52424003476335E+0000
 21
 4.72939847374801E+0000
  0
LINE
  8
1
  6
CONTINUOUS
 62
     0
 10
 7.53171621802176E+0000
 20
 4.74257649467472E+0000
 11
 7.52725076109346E+0000
 21
 4.74704195160302E+0000
  0
LINE
  8
1
  6
CONTINUOUS
 62
     0
 10
 7.56028105438600E+0000
 20
 4.60561732158385E+0000
 11
 7.55173612264480E+0000
 21
 4.59707238984265E+0000
  0
LINE
  8
1
  6
CONTINUOUS
 62
     0
 10
 7.55671671369055E+0000
 20
 4.62270718508080E+0000
 11
 7.53108191845968E+0000
 21
 4.59707238984265E+0000
  0
LINE
  8
1
  6
CONTINUOUS
 62
     0
 10
 7.55315237299510E+0000
 20
 4.63979704857047E+0000
 11
 7.51042771427456E+0000
 21
 4.59707238984265E+0000
  0
LINE
  8
1
  6
CONTINUOUS
 62
     0
 10
 7.54958803229965E+0000
 20
 4.65688691206014E+0000
 11
 7.50410517826822E+0000
 21
 4.61140405802871E+0000
  0
LINE
  8
1
  6
CONTINUOUS
 62
     0
 10
 7.54602369159693E+0000
 20
 4.67397677554254E+0000
 11
 7.50835483400442E+0000
 21
 4.63630791795003E+0000
  0
LINE
  8
1
  6
CONTINUOUS
 62
     0
 10
 7.54245935090876E+0000
 20
 4.69106663903221E+0000
 11
 7.51260448974062E+0000
 21
 4.66121177787136E+0000
  0
LINE
  8
1
  6
CONTINUOUS
 62
     0
 10
 7.53889501021331E+0000
 20
 4.70815650252189E+0000
 11
 7.51685414547683E+0000
 21
 4.68611563779268E+0000
  0
LINE
  8
1
  6
CONTINUOUS
 62
     0
 10
 7.53533066951786E+0000
 20
 4.72524636601884E+0000
 11
 7.52110380121303E+0000
 21
 4.71101949771401E+0000
  0
LINE
  8
1
  6
CONTINUOUS
 62
     0
 10
 7.53176632882241E+0000
 20
 4.74233622950851E+0000
 11
 7.52535345694923E+0000
 21
 4.73592335763533E+0000
  0
CIRCLE
  8
1
  6
DASHDOT
 62
     0
 10
 3.99767792766215E+0000
 20
 4.07952873093018E+0000
 40
 1.06281076557207E+0000
  0
CIRCLE
  8
1
  6
DASHDOT
 62
     0
 10
 3.99767792766215E+0000
 20
 4.07952873093018E+0000
 40
 6.79886298574274E-0001
  0
TEXT
  8
1
 62
     0
 10
 7.10193826761679E+0000
 20
 3.85205412900905E+0000
 40
 1.18110236219991E-0001
  1
37
  7
STANDARD
 11
 7.10193826761679E+0000
 21
 3.97016436522972E+0000
 50
 9.00000000000000E+0001
 41
 3.33041753174712E-0001
  0
TEXT
  8
1
 62
     0
 10
 7.39225218375941E+0000
 20
 3.88351691178468E+0000
 40
 1.18110236219991E-0001
  1
35
  7
STANDARD
 11
 7.39225218375941E+0000
 21
 4.00162714800535E+0000
 50
 9.00000000000000E+0001
 41
 3.33041753174712E-0001
  0
TEXT
  8
1
 62
     0
 10
 8.65551003511064E+0000
 20
 3.82845704193096E+0000
 40
 1.18110236219991E-0001
  1
17H7
  7
STANDARD
 11
 8.65551003511064E+0000
 21
 3.94656727815163E+0000
 50
 9.00000000000000E+0001
 41
 3.53856862748216E-0001
  0
TEXT
  8
1
 62
     0
 10
 9.02428717185103E+0000
 20
 3.65541173669044E+0000
 40
 1.18110236219991E-0001
  1
TK 54
  7
STANDARD
 11
 9.02428717185103E+0000
 21
 3.77352197291111E+0000
 50
 9.00000000000000E+0001
 41
 3.33041753174712E-0001
  0
TEXT
  8
1
 62
     0
 10
 8.02780427047401E+0000
 20
 6.13310587992601E+0000
 40
 1.18110236219991E-0001
  1
15
  7
STANDARD
 11
 8.02780427047401E+0000
 21
 6.25121611614304E+0000
 50
 0.00000000000000E+0000
 41
 3.33041753174712E-0001
  0
TEXT
  8
1
 62
     0
 10
 7.93364840577124E+0000
 20
 4.33186156627198E+0000
 40
 1.18110236219991E-0001
  1
10
  7
STANDARD
 11
 7.93364840577124E+0000
 21
 4.44997180248902E+0000
 50
 0.00000000000000E+0000
 41
 3.33041753174712E-0001
  0
TEXT
  8
1
 62
     0
 10
 7.94934104989079E+0000
 20
 3.94644247732140E+0000
 40
 1.18110236219991E-0001
  1
6
  7
STANDARD
 11
 7.94934104989079E+0000
 21
 4.06455271354207E+0000
 50
 0.00000000000000E+0000
 41
 3.33041753174712E-0001
  0
TEXT
  8
1
 62
     0
 10
 8.14549910134519E+0000
 20
 2.99469329849671E+0000
 40
 1.18110236219991E-0001
  1
12
  7
STANDARD
 11
 8.14549910134519E+0000
 21
 3.11280353471739E+0000
 50
 0.00000000000000E+0000
 41
 3.33041753174712E-0001
  0
TEXT
  8
1
 62
     0
 10
 9.10648807724647E+0000
 20
 3.94637805119601E-0001
 40
 1.18110236219991E-0001
  1
(c)
  7
STANDARD
 11
 9.10648807724647E+0000
 21
 5.12748041339364E-0001
 50
 0.00000000000000E+0000
 41
 2.22027835450035E-0001
0
ENDSEC
0
EOF
