0
SECTION
  2
HEADER
  9
$LTSCALE
 40
     10
  9
$LIMMIN
 10
     0.0
 20
     0.0
  9
$LIMMAX
 10
      11.5
 20
       8.0
  9
$EXTMIN
 10
     0.0
 20
     0.0
  9
$EXTMAX
 10
      11.5
 20
       8.0
   9
$CLAYER
   8
1
   9
$CECOLOR
  62
     7
   9
$CELTYPE
   6
CONTINUOUS
  0
ENDSEC
  0
SECTION
  2
TABLES
  0
TABLE
  2
LTYPE
 70
    10
  0
LTYPE
  2
CONTINUOUS
 70
    64
  3
Solid line
 72
    65
 73
     0
 40
0.0
  0
LTYPE
  2
DASHED
 70
     0
  3
__ __ __ __ __ __ __ __ __ __ __ __ __ __ __
 72
    65
 73
     2
 40
0.75
 49
0.5
 49
-0.25
  0
LTYPE
  2
HIDDEN
 70
     0
  3
_ _ _ _ _ _ _ _ _ _ _ _ _ _ _ _ _ _ _ _ _ _
 72
    65
 73
     2
 40
0.375
 49
0.25
 49
-0.125
  0
LTYPE
  2
CENTER
 70
     0
  3
____ _ ____ _ ____ _ ____ _ ____ _ ____ _ __
 72
    65
 73
     4
 40
2.0
 49
1.25
 49
-0.25
 49
0.25
 49
-0.25
  0
LTYPE
  2
PHANTOM
 70
     0
  3
_____ _ _ _____ _ _ _____ _ _ _____ _ _ ____
 72
    65
 73
     6
 40
2.5
 49
1.25
 49
-0.25
 49
0.25
 49
-0.25
 49
0.25
 49
-0.25
  0
LTYPE
  2
DOT
 70
     0
  3
............................................
 72
    65
 73
     2
 40
0.25
 49
0.0
 49
-0.25
  0
LTYPE
  2
DASHDOT
 70
     0
  3
__ . __ . __ . __ . __ . __ . __ . __ . __ .
 72
    65
 73
     4
 40
1.0
 49
0.5
 49
-0.25
 49
0.0
 49
-0.25
  0
LTYPE
  2
BORDER
 70
     0
  3
__ __ . __ __ . __ __ . __ __ . __ __ . __ _
 72
    65
 73
     6
 40
1.75
 49
0.5
 49
-0.25
 49
0.5
 49
-0.25
 49
0.0
 49
-0.25
  0
LTYPE
  2
DIVIDE
 70
     0
  3
__ . . __ . . __ . . __ . . __ . . __ . . __
 72
    65
 73
     6
 40
1.25
 49
0.5
 49
-0.25
 49
0.0
 49
-0.25
 49
0.0
 49
-0.25
  0
LTYPE
  2
DIVIDE2
 70
     0
  3
close
 72
    65
 73
     2
 40
0.1
 49
0.05
 49
-0.05
  0
ENDTAB
0
TABLE
  2
LAYER
 70
   256
  0
LAYER
  2
1
 70
     0
  6
CONTINUOUS
 62
1
  0
ENDTAB
  0
TABLE
  2
STYLE
 70
     8
  0
STYLE
  2
TXT
 70
0
 40
0.0
 41
1.0
 50
0.0
 71
0
 42
1.0
  3
TXT
  4

  0
STYLE
  2
COMPLEX
 70
0
 40
0.0
 41
1.0
 50
0.0
 71
0
 42
1.0
  3
COMPLEX
  4

  0
STYLE
  2
ITALIC
 70
0
 40
0.0
 41
1.0
 50
0.0
 71
0
 42
1.0
  3
ITALIC
  4

  0
STYLE
  2
SIMPLEX
70
0
 40
0.0
 41
1.0
 50
0.0
 71
0
 42
1.0
  3
SIMPLEX
  4

  0
STYLE
  2
MONOTXT
 70
0
 40
0.0
 41
1.0
 50
0.0
 71
0
 42
1.0
  3
MONOTXT
  4

  0
STYLE
  2
SCRIPTC
 70
0
 40
0.0
 41
1.0
 50
0.0
 71
0
 42
1.0
  3
SCRIPTC
  4

  0
STYLE
  2
GOTHICE
 70
0
 40
0.0
 41
1.0
 50
0.0
 71
0
 42
1.0
  3
GOTHICE
  4

  0
ENDTAB
  0
TABLE
  2
VIEW
 70
     0
  0
ENDTAB
  0
ENDSEC
  0
SECTION
  2
ENTITIES
  0
LINE
  8
1
  6
CONTINUOUS
 62
     1
 10
 1.10824245900876E+0001
 20
 3.66054472739052E-0001
 11
 8.90078496305796E+0000
 21
 3.66054472739052E-0001
  0
LINE
  8
1
  6
CONTINUOUS
 62
     1
 10
 8.90078496305796E+0000
 20
 3.66054472739052E-0001
 11
 8.90078496305796E+0000
 21
 1.55291635594767E+0000
  0
LINE
  8
1
  6
CONTINUOUS
 62
     1
 10
 8.90078496305796E+0000
 20
 1.55291635594767E+0000
 11
 1.10824245900876E+0001
 21
 1.55291635594767E+0000
  0
LINE
  8
1
  6
CONTINUOUS
 62
     1
 10
 1.10824245900876E+0001
 20
 1.55291635594767E+0000
 11
 1.10824245900876E+0001
 21
 3.66054472739052E-0001
  0
LINE
  8
1
  6
CONTINUOUS
 62
     1
 10
 8.90010336294654E+0000
 20
 1.23953147667635E+0000
 11
 1.10833476808330E+0001
 21
 1.23953147667635E+0000
  0
LINE
  8
1
  6
CONTINUOUS
 62
     1
 10
 8.90774062665878E+0000
 20
 5.23861750931246E-0001
 11
 1.10909849445452E+0001
 21
 5.23861750931246E-0001
  0
TEXT
  8
1
 62
     1
 10
 8.94823287868348E+0000
 20
 1.35143637997317E+0000
 40
 1.18110236219991E-0001
  1
Benennung
  7
STANDARD
 11
 8.94823287868348E+0000
 21
 1.46954661619384E+0000
 50
 0.00000000000000E+0000
 41
 3.16937882393631E-0001
  0
LINE
  8
1
  6
CONTINUOUS
 62
     1
 10
 9.57264299190138E+0000
 20
 1.55147486233909E+0000
 11
 9.57264299190138E+0000
 21
 1.23953147667635E+0000
  0
LINE
  8
1
  6
CONTINUOUS
 62
     1
 10
 8.90010336294654E+0000
 20
 1.07349709398113E+0000
 11
 1.10833476808330E+0001
 21
 1.07349709398113E+0000
  0
LINE
  8
1
  6
CONTINUOUS
 62
     1
 10
 8.90010336294654E+0000
 20
 9.07462711285916E-0001
 11
 1.10833476808330E+0001
 21
 9.07462711285916E-0001
  0
TEXT
  8
1
 62
     1
 10
 8.95298969198484E+0000
 20
 1.08890528919073E+0000
 40
 1.18110236219991E-0001
  1
Werkstoff
  7
STANDARD
 11
 8.95298969198484E+0000
 21
 1.20701552541141E+0000
 50
 0.00000000000000E+0000
 41
 2.56976661400131E-0001
  0
LINE
  8
1
  6
CONTINUOUS
 62
     1
 10
 9.57264299190138E+0000
 20
 1.23953147667635E+0000
 11
 9.57264299190138E+0000
 21
 1.07349709398113E+0000
  0
LINE
  8
1
  6
CONTINUOUS
 62
     1
 10
 1.05011491960613E+0001
 20
 1.23953147667635E+0000
 11
 1.05011491960613E+0001
 21
 1.07349709398113E+0000
  0
TEXT
  8
1
 62
     1
 10
 1.05670323736267E+0001
 20
 1.08890528919073E+0000
 40
 1.18110236219991E-0001
  1
M 1:1
  7
STANDARD
 11
 1.05670323736267E+0001
 21
 1.20701552541141E+0000
 50
 0.00000000000000E+0000
 41
 2.62116194628561E-0001
  0
LINE
  8
1
  6
CONTINUOUS
 62
     1
 10
 8.90078496305796E+0000
 20
 1.55291635594767E+0000
 11
 1.10883666332957E+0001
 21
 1.55291635594767E+0000
  0
LINE
  8
1
  6
CONTINUOUS
 62
     1
 10
 8.90078496305796E+0000
 20
 1.55291635594767E+0000
 11
 1.10824245900876E+0001
 21
 1.55291635594767E+0000
  0
LINE
  8
1
  6
CONTINUOUS
 62
     1
 10
 1.10824245900876E+0001
 20
 1.55291635594767E+0000
 11
 1.10824245900876E+0001
 21
 3.66054472739052E-0001
  0
LINE
  8
1
  6
CONTINUOUS
 62
     1
 10
 1.10824245900876E+0001
 20
 3.66054472739052E-0001
 11
 8.90078496305796E+0000
 21
 3.66054472739052E-0001
  0
LINE
  8
1
  6
CONTINUOUS
 62
     1
 10
 8.90078496305796E+0000
 20
 3.66054472739052E-0001
 11
 8.90078496305796E+0000
 21
 1.55291635594767E+0000
  0
TEXT
  8
1
 62
     1
 10
 8.94643199958955E+0000
 20
 9.29817355409796E-0001
 40
 1.18110236219991E-0001
  1
Bearb.
  7
STANDARD
 11
 8.94643199958955E+0000
 21
 1.04792759162956E+0000
 50
 0.00000000000000E+0000
 41
 2.69825494470297E-0001
  0
LINE
  8
1
  6
CONTINUOUS
 62
     1
 10
 9.57372805119667E+0000
 20
 1.07462383869279E+0000
 11
 9.57372805119667E+0000
 21
 9.08513856978971E-0001
  0
LINE
  8
1
  6
CONTINUOUS
 62
     1
 10
 8.90204784499656E+0000
 20
 7.36471375930705E-0001
 11
 1.10827893074456E+0001
 21
 7.36471375930705E-0001
  0
LINE
  8
1
  6
CONTINUOUS
 62
     1
 10
 9.57372805119667E+0000
 20
 9.08513856978971E-0001
 11
 9.57372805119667E+0000
 21
 7.36471375930705E-0001
  0
TEXT
  8
1
 62
     1
 10
 8.94643199958955E+0000
 20
 7.54808624687030E-0001
 40
 1.18110236219991E-0001
  1
Datum
  7
STANDARD
 11
 8.94643199958955E+0000
 21
 8.72918860906793E-0001
 50
 0.00000000000000E+0000
 41
 3.23790593364265E-0001
  0
LINE
  8
1
  6
CONTINUOUS
 62
     1
 10
 1.04998774104170E+0001
 20
 5.19935149772209E-0001
 11
 1.04998774104170E+0001
 21
 3.68656416430895E-0001
  0
TEXT
  8
1
 62
     1
 10
 9.62994798035652E+0000
 20
 9.20918606393570E-0001
 40
 1.18110236219991E-0001
  1
D.Freind
  7
STANDARD
 11
 9.62994798035652E+0000
 21
 1.03902884261333E+0000
 50
 0.00000000000000E+0000
 41
 2.60188869667672E-0001
  0
TEXT
  8
1
 62
     1
 10
 1.05235489595507E+0001
 20
 3.84027415512719E-0001
 40
 1.18110236219991E-0001
  1
Blatt
  7
STANDARD
 11
 1.05235489595507E+0001
 21
 5.02137651732482E-0001
 50
 0.00000000000000E+0000
 41
 2.31278995260254E-0001
  0
TEXT
  8
1
 62
     1
 10
 9.04969655426976E+0000
 20
 5.46297824291287E-0001
 40
 1.18110236219991E-0001
  1
für Revolver 8-fach 
  7
STANDARD
 11
 9.04969655426976E+0000
 21
 6.64408060511050E-0001
 50
 0.00000000000000E+0000
 41
 2.35133645181349E-0001
  0
TEXT
  8
1
 62
     1
 10
 9.24335088532825E+0000
 20
 3.93308872470698E-0001
 40
 1.18110236219991E-0001
  1
www.cnc-projects.de.vu
  7
STANDARD
 11
 9.24335088532825E+0000
 21
 5.11419108690461E-0001
 50
 0.00000000000000E+0000
 41
 2.66321267269177E-0001
  0
TEXT
  8
1
 62
     1
 10
 9.63511565663794E+0000
 20
 1.10198660545939E+0000
 40
 1.18110236219991E-0001
  1
Aluminium
  7
STANDARD
 11
 9.63511565663794E+0000
 21
 1.22009684168006E+0000
 50
 0.00000000000000E+0000
 41
 2.99806104967047E-0001
  0
LINE
  8
1
  6
CONTINUOUS
 62
     1
 10
 7.76663067601476E+0000
 20
 4.69051162857795E+0000
 11
 7.76663067601476E+0000
 21
 5.13694947595650E+0000
  0
LINE
  8
1
  6
CONTINUOUS
 62
     1
 10
 7.76663067601476E+0000
 20
 5.13694947595650E+0000
 11
 7.29365074496309E+0000
 21
 5.13694947595650E+0000
  0
LINE
  8
1
  6
CONTINUOUS
 62
     1
 10
 7.29365074496309E+0000
 20
 5.13694947595650E+0000
 11
 7.29365074496309E+0000
 21
 5.65112272087572E+0000
  0
LINE
  8
1
  6
CONTINUOUS
 62
     1
 10
 7.29365074496309E+0000
 20
 5.65112272087572E+0000
 11
 7.76663067601476E+0000
 21
 5.65112272086117E+0000
  0
LINE
  8
1
  6
CONTINUOUS
 62
     1
 10
 7.76663067601476E+0000
 20
 5.65112272086117E+0000
 11
 7.76663067601476E+0000
 21
 5.77119910739566E+0000
  0
LINE
  8
1
  6
CONTINUOUS
 62
     1
 10
 7.76663067601476E+0000
 20
 5.77119910739566E+0000
 11
 7.21379699037061E+0000
 21
 5.77119910741021E+0000
  0
LINE
  8
1
  6
CONTINUOUS
 62
     1
 10
 7.21379699037061E+0000
 20
 5.77119910741021E+0000
 11
 7.18308400783280E+0000
 21
 5.74041029034561E+0000
  0
LINE
  8
1
  6
CONTINUOUS
 62
     1
 10
 7.18308400783280E+0000
 20
 5.74041029034561E+0000
 11
 7.18308400783280E+0000
 21
 5.06305631501164E+0000
  0
LINE
  8
1
  6
CONTINUOUS
 62
     1
 10
 7.76954328605643E+0000
 20
 3.99180007768882E+0000
 11
 7.76954328604916E+0000
 21
 3.54536223031027E+0000
  0
LINE
  8
1
  6
CONTINUOUS
 62
     1
 10
 7.76954328604916E+0000
 20
 3.54536223031027E+0000
 11
 7.29656335500476E+0000
 21
 3.54536223031027E+0000
  0
LINE
  8
1
  6
CONTINUOUS
 62
     1
 10
 7.29656335500476E+0000
 20
 3.54536223031027E+0000
 11
 7.29656335500476E+0000
 21
 3.03118898539833E+0000
  0
LINE
  8
1
  6
CONTINUOUS
 62
     1
 10
 7.29656335500476E+0000
 20
 3.03118898539833E+0000
 11
 7.76954328604916E+0000
 21
 3.03118898539833E+0000
  0
LINE
  8
1
  6
CONTINUOUS
 62
     1
 10
 7.76954328604916E+0000
 20
 3.03118898539833E+0000
 11
 7.76954328604916E+0000
 21
 2.91111259886384E+0000
  0
LINE
  8
1
  6
CONTINUOUS
 62
     1
 10
 7.76954328604916E+0000
 20
 2.91111259886384E+0000
 11
 7.21670960041229E+0000
 21
 2.91111259886384E+0000
  0
LINE
  8
1
  6
CONTINUOUS
 62
     1
 10
 7.21670960041229E+0000
 20
 2.91111259886384E+0000
 11
 7.18599661787448E+0000
 21
 2.94190141592117E+0000
  0
LINE
  8
1
  6
CONTINUOUS
 62
     1
 10
 7.18599661787448E+0000
 20
 2.94190141592117E+0000
 11
 7.18599661787448E+0000
 21
 3.61925539125514E+0000
  0
LINE
  8
1
  6
CONTINUOUS
 62
     1
 10
 7.76954328605643E+0000
 20
 3.99180007768882E+0000
 11
 7.76954328605643E+0000
 21
 4.04445477378613E+0000
  0
LINE
  8
1
  6
CONTINUOUS
 62
     1
 10
 7.76663067601476E+0000
 20
 4.69051162857795E+0000
 11
 7.76663067601476E+0000
 21
 4.63693962954130E+0000
  0
LINE
  8
1
  6
CONTINUOUS
 62
     1
 10
 7.18599661787448E+0000
 20
 3.61925539125514E+0000
 11
 7.09941706651443E+0000
 21
 3.61925539125514E+0000
  0
LINE
  8
1
  6
CONTINUOUS
 62
     1
 10
 7.18308400783280E+0000
 20
 5.06305631501164E+0000
 11
 7.09941706651443E+0000
 21
 5.06305631501164E+0000
  0
LINE
  8
1
  6
CENTER
 62
     1
 10
 7.15060609541251E+0000
 20
 3.27407103578298E+0000
 11
 7.41378557073767E+0000
 21
 3.27407103578298E+0000
  0
LINE
  8
1
  6
CENTER
 62
     1
 10
 7.15060609541251E+0000
 20
 5.39429891538020E+0000
 11
 7.36229393426038E+0000
 21
 5.39429891538020E+0000
  0
LINE
  8
1
  6
CONTINUOUS
 62
     1
 10
 7.18508596014726E+0000
 20
 3.14417165050691E+0000
 11
 7.29809955694509E+0000
 21
 3.14417165050691E+0000
  0
LINE
  8
1
  6
CONTINUOUS
 62
     1
 10
 7.18508596014726E+0000
 20
 3.40103136323887E+0000
 11
 7.29809955694509E+0000
 21
 3.40103136323887E+0000
  0
LINE
  8
1
  6
CONTINUOUS
 62
     1
 10
 7.18482682572358E+0000
 20
 5.26649609528977E+0000
 11
 7.29349374571757E+0000
 21
 5.26649609528977E+0000
  0
LINE
  8
1
  6
CONTINUOUS
 62
     1
 10
 7.18482682572358E+0000
 20
 5.51900225357531E+0000
 11
 7.29349374571757E+0000
 21
 5.51900225357531E+0000
  0
LINE
  8
1
  6
CONTINUOUS
 62
     1
 10
 7.76663067601476E+0000
 20
 4.65642682430189E+0000
 11
 7.74709355497180E+0000
 21
 4.63688970325893E+0000
  0
LINE
  8
1
  6
CONTINUOUS
 62
     1
 10
 7.76663067601476E+0000
 20
 4.69540121381579E+0000
 11
 7.70801931290043E+0000
 21
 4.63678985069419E+0000
  0
LINE
  8
1
  6
CONTINUOUS
 62
     1
 10
 7.76663067601476E+0000
 20
 4.73437560332968E+0000
 11
 7.66894507082179E+0000
 21
 4.63668999813672E+0000
  0
LINE
  8
1
  6
CONTINUOUS
 62
     1
 10
 7.76663067601476E+0000
 20
 4.77334999283630E+0000
 11
 7.62987082873587E+0000
 21
 4.63659014555742E+0000
  0
LINE
  8
1
  6
CONTINUOUS
 62
     1
 10
 7.76663067601476E+0000
 20
 4.81232438235020E+0000
 11
 7.59079658666451E+0000
 21
 4.63649029299995E+0000
  0
LINE
  8
1
  6
CONTINUOUS
 62
     1
 10
 7.76663067601476E+0000
 20
 4.85129877186409E+0000
 11
 7.55172234458587E+0000
 21
 4.63639044043521E+0000
  0
LINE
  8
1
  6
CONTINUOUS
 62
     1
 10
 7.76663067601476E+0000
 20
 4.89027316137799E+0000
 11
 7.51264810251450E+0000
 21
 4.63629058787774E+0000
  0
LINE
  8
1
  6
CONTINUOUS
 62
     1
 10
 7.76663067601476E+0000
 20
 4.92924755089189E+0000
 11
 7.47357386043586E+0000
 21
 4.63619073531299E+0000
  0
LINE
  8
1
  6
CONTINUOUS
 62
     1
 10
 7.76663067601476E+0000
 20
 4.96822194040578E+0000
 11
 7.43449961836450E+0000
 21
 4.63609088274825E+0000
  0
LINE
  8
1
  6
CONTINUOUS
 62
     1
 10
 7.76663067601476E+0000
 20
 5.00719632991968E+0000
 11
 7.39542537627858E+0000
 21
 4.63599103017623E+0000
  0
LINE
  8
1
  6
CONTINUOUS
 62
     1
 10
 7.76663067601476E+0000
 20
 5.04617071943358E+0000
 11
 7.35635113419994E+0000
 21
 4.63589117761876E+0000
  0
LINE
  8
1
  6
CONTINUOUS
 62
     1
 10
 7.76663067601476E+0000
 20
 5.08514510894747E+0000
 11
 7.31727689212858E+0000
 21
 4.63579132505402E+0000
  0
LINE
  8
1
  6
CONTINUOUS
 62
     1
 10
 7.76663067601476E+0000
 20
 5.12411949845409E+0000
 11
 7.27820265004993E+0000
 21
 4.63569147248927E+0000
  0
LINE
  8
1
  6
CONTINUOUS
 62
     1
 10
 7.73995418270351E+0000
 20
 5.13641739465675E+0000
 11
 7.23912840797129E+0000
 21
 4.63559161993180E+0000
  0
LINE
  8
1
  6
CONTINUOUS
 62
     1
 10
 7.70096857088356E+0000
 20
 5.13640617235069E+0000
 11
 7.20005416589993E+0000
 21
 4.63549176736706E+0000
  0
LINE
  8
1
  6
CONTINUOUS
 62
     1
 10
 7.66204609836132E+0000
 20
 5.13645808934234E+0000
 11
 7.16097992381401E+0000
 21
 4.63539191479504E+0000
  0
LINE
  8
1
  6
CONTINUOUS
 62
     1
 10
 7.62312362585362E+0000
 20
 5.13651000634854E+0000
 11
 7.12190568173537E+0000
 21
 4.63529206223029E+0000
  0
LINE
  8
1
  6
CONTINUOUS
 62
     1
 10
 7.58420115334593E+0000
 20
 5.13656192335475E+0000
 11
 7.09794698934274E+0000
 21
 4.65030775935156E+0000
  0
LINE
  8
1
  6
CONTINUOUS
 62
     1
 10
 7.54527868082369E+0000
 20
 5.13661384034640E+0000
 11
 7.09808629972395E+0000
 21
 4.68942145923938E+0000
  0
LINE
  8
1
  6
CONTINUOUS
 62
     1
 10
 7.50635620831599E+0000
 20
 5.13666575735260E+0000
 11
 7.09822561009787E+0000
 21
 4.72853515913448E+0000
  0
LINE
  8
1
  6
CONTINUOUS
 62
     1
 10
 7.46743373580102E+0000
 20
 5.13671767434425E+0000
 11
 7.09836492047907E+0000
 21
 4.76764885902230E+0000
  0
LINE
  8
1
  6
CONTINUOUS
 62
     1
 10
 7.42851126329333E+0000
 20
 5.13676959135046E+0000
 11
 7.09850423085300E+0000
 21
 4.80676255891740E+0000
  0
LINE
  8
1
  6
CONTINUOUS
 62
     1
 10
 7.38958879078564E+0000
 20
 5.13682150835666E+0000
 11
 7.09864354123420E+0000
 21
 4.84587625880522E+0000
  0
LINE
  8
1
  6
CONTINUOUS
 62
     1
 10
 7.35066631826339E+0000
 20
 5.13687342534831E+0000
 11
 7.09878285160812E+0000
 21
 4.88498995870032E+0000
  0
LINE
  8
1
  6
CONTINUOUS
 62
     1
 10
 7.31174384575570E+0000
 20
 5.13692534235452E+0000
 11
 7.09892216198932E+0000
 21
 4.92410365858814E+0000
  0
LINE
  8
1
  6
CONTINUOUS
 62
     1
 10
 7.29362549850339E+0000
 20
 5.15778138461610E+0000
 11
 7.09906147237052E+0000
 21
 4.96321735847596E+0000
  0
LINE
  8
1
  6
CONTINUOUS
 62
     1
 10
 7.29357832210371E+0000
 20
 5.19670859773032E+0000
 11
 7.18328411060793E+0000
 21
 5.08641438622726E+0000
  0
LINE
  8
1
  6
CONTINUOUS
 62
     1
 10
 7.15992603938503E+0000
 20
 5.06305631501164E+0000
 11
 7.09920078274445E+0000
 21
 5.00233105837106E+0000
  0
LINE
  8
1
  6
CONTINUOUS
 62
     1
 10
 7.29353114569676E+0000
 20
 5.23563581082999E+0000
 11
 7.18362087950663E+0000
 21
 5.12572554463986E+0000
  0
LINE
  8
1
  6
CONTINUOUS
 62
     1
 10
 7.12095164987113E+0000
 20
 5.06305631501164E+0000
 11
 7.09934009312565E+0000
 21
 5.04144475825888E+0000
  0
LINE
  8
1
  6
CONTINUOUS
 62
     1
 10
 7.28541704063537E+0000
 20
 5.26649609528249E+0000
 11
 7.18395764840534E+0000
 21
 5.16503670305246E+0000
  0
LINE
  8
1
  6
CONTINUOUS
 62
     1
 10
 7.24644265112875E+0000
 20
 5.26649609529704E+0000
 11
 7.18429441729677E+0000
 21
 5.20434786146507E+0000
  0
LINE
  8
1
  6
CONTINUOUS
 62
     1
 10
 7.20746826162213E+0000
 20
 5.26649609529704E+0000
 11
 7.18463118619547E+0000
 21
 5.24365901987767E+0000
  0
LINE
  8
1
  6
CONTINUOUS
 62
     1
 10
 7.76663067601476E+0000
 20
 5.67060991561448E+0000
 11
 7.74714348126872E+0000
 21
 5.65112272086844E+0000
  0
LINE
  8
1
  6
CONTINUOUS
 62
     1
 10
 7.76663067601476E+0000
 20
 5.70958430512837E+0000
 11
 7.70816909175483E+0000
 21
 5.65112272086844E+0000
  0
LINE
  8
1
  6
CONTINUOUS
 62
     1
 10
 7.76663067601476E+0000
 20
 5.74855869464227E+0000
 11
 7.66919470224093E+0000
 21
 5.65112272086844E+0000
  0
LINE
  8
1
  6
CONTINUOUS
 62
     1
 10
 7.75029669926153E+0000
 20
 5.77119910740294E+0000
 11
 7.63022031272703E+0000
 21
 5.65112272086844E+0000
  0
LINE
  8
1
  6
CONTINUOUS
 62
     1
 10
 7.71132230974763E+0000
 20
 5.77119910740294E+0000
 11
 7.59124592321314E+0000
 21
 5.65112272086844E+0000
  0
LINE
  8
1
  6
CONTINUOUS
 62
     1
 10
 7.67234792023373E+0000
 20
 5.77119910740294E+0000
 11
 7.55227153369924E+0000
 21
 5.65112272086844E+0000
  0
LINE
  8
1
  6
CONTINUOUS
 62
     1
 10
 7.63337353071984E+0000
 20
 5.77119910740294E+0000
 11
 7.51329714418534E+0000
 21
 5.65112272086844E+0000
  0
LINE
  8
1
  6
CONTINUOUS
 62
     1
 10
 7.59439914120594E+0000
 20
 5.77119910740294E+0000
 11
 7.47432275467145E+0000
 21
 5.65112272086844E+0000
  0
LINE
  8
1
  6
CONTINUOUS
 62
     1
 10
 7.55542475169204E+0000
 20
 5.77119910740294E+0000
 11
 7.43534836516483E+0000
 21
 5.65112272086844E+0000
  0
LINE
  8
1
  6
CONTINUOUS
 62
     1
 10
 7.51645036218542E+0000
 20
 5.77119910740294E+0000
 11
 7.39637397565093E+0000
 21
 5.65112272086844E+0000
  0
LINE
  8
1
  6
CONTINUOUS
 62
     1
 10
 7.29352853335149E+0000
 20
 5.54827727856900E+0000
 11
 7.26425350835780E+0000
 21
 5.51900225357531E+0000
  0
LINE
  8
1
  6
CONTINUOUS
 62
     1
 10
 7.47747597267153E+0000
 20
 5.77119910740294E+0000
 11
 7.35739958613703E+0000
 21
 5.65112272086844E+0000
  0
LINE
  8
1
  6
CONTINUOUS
 62
     1
 10
 7.29357490185794E+0000
 20
 5.58729803658935E+0000
 11
 7.22527911884390E+0000
 21
 5.51900225357531E+0000
  0
LINE
  8
1
  6
CONTINUOUS
 62
     1
 10
 7.43850158315763E+0000
 20
 5.77119910740294E+0000
 11
 7.31842519663041E+0000
 21
 5.65112272087572E+0000
  0
LINE
  8
1
  6
CONTINUOUS
 62
     1
 10
 7.29362127036438E+0000
 20
 5.62631879460969E+0000
 11
 7.18630472933000E+0000
 21
 5.51900225357531E+0000
  0
LINE
  8
1
  6
CONTINUOUS
 62
     1
 10
 7.39952719364373E+0000
 20
 5.77119910740294E+0000
 11
 7.18453397653502E+0000
 21
 5.55620589029422E+0000
  0
LINE
  8
1
  6
CONTINUOUS
 62
     1
 10
 7.36055280412984E+0000
 20
 5.77119910740294E+0000
 11
 7.18422958485462E+0000
 21
 5.59487588812772E+0000
  0
LINE
  8
1
  6
CONTINUOUS
 62
     1
 10
 7.32157841461594E+0000
 20
 5.77119910740294E+0000
 11
 7.18392519317422E+0000
 21
 5.63354588596121E+0000
  0
LINE
  8
1
  6
CONTINUOUS
 62
     1
 10
 7.28260402511660E+0000
 20
 5.77119910741021E+0000
 11
 7.18362080150109E+0000
 21
 5.67221588380198E+0000
  0
LINE
  8
1
  6
CONTINUOUS
 62
     1
 10
 7.24362963560270E+0000
 20
 5.77119910741021E+0000
 11
 7.18331640982069E+0000
 21
 5.71088588163548E+0000
  0
LINE
  8
1
  6
CONTINUOUS
 62
     1
 10
 7.76954328605643E+0000
 20
 3.56484942507450E+0000
 11
 7.75005609129585E+0000
 21
 3.54536223031391E+0000
  0
LINE
  8
1
  6
CONTINUOUS
 62
     1
 10
 7.76954328605643E+0000
 20
 3.60382381458840E+0000
 11
 7.71108170178195E+0000
 21
 3.54536223031391E+0000
  0
LINE
  8
1
  6
CONTINUOUS
 62
     1
 10
 7.76954328605643E+0000
 20
 3.64279820410229E+0000
 11
 7.67210731226805E+0000
 21
 3.54536223031391E+0000
  0
LINE
  8
1
  6
CONTINUOUS
 62
     1
 10
 7.76954328605643E+0000
 20
 3.68177259361255E+0000
 11
 7.63313292275416E+0000
 21
 3.54536223031391E+0000
  0
LINE
  8
1
  6
CONTINUOUS
 62
     1
 10
 7.76954328605643E+0000
 20
 3.72074698312645E+0000
 11
 7.59415853324026E+0000
 21
 3.54536223031391E+0000
  0
LINE
  8
1
  6
CONTINUOUS
 62
     1
 10
 7.76954328605643E+0000
 20
 3.75972137264034E+0000
 11
 7.55518414372636E+0000
 21
 3.54536223031391E+0000
  0
LINE
  8
1
  6
CONTINUOUS
 62
     1
 10
 7.76954328605643E+0000
 20
 3.79869576215424E+0000
 11
 7.51620975421974E+0000
 21
 3.54536223031391E+0000
  0
LINE
  8
1
  6
CONTINUOUS
 62
     1
 10
 7.76954328605643E+0000
 20
 3.83767015166450E+0000
 11
 7.47723536470585E+0000
 21
 3.54536223031391E+0000
  0
LINE
  8
1
  6
CONTINUOUS
 62
     1
 10
 7.76954328605643E+0000
 20
 3.87664454117839E+0000
 11
 7.43826097519195E+0000
 21
 3.54536223031391E+0000
  0
LINE
  8
1
  6
CONTINUOUS
 62
     1
 10
 7.29805564631533E+0000
 20
 3.40515690143729E+0000
 11
 7.29393010811327E+0000
 21
 3.40103136323887E+0000
  0
LINE
  8
1
  6
CONTINUOUS
 62
     1
 10
 7.76954328605643E+0000
 20
 3.91561893069229E+0000
 11
 7.39928658567806E+0000
 21
 3.54536223031391E+0000
  0
LINE
  8
1
  6
CONTINUOUS
 62
     1
 10
 7.29764518675802E+0000
 20
 3.44372083139024E+0000
 11
 7.25495571859938E+0000
 21
 3.40103136323887E+0000
  0
LINE
  8
1
  6
CONTINUOUS
 62
     1
 10
 7.76954328605643E+0000
 20
 3.95459332020619E+0000
 11
 7.36031219616416E+0000
 21
 3.54536223031391E+0000
  0
LINE
  8
1
  6
CONTINUOUS
 62
     1
 10
 7.29723472719343E+0000
 20
 3.48228476134318E+0000
 11
 7.21598132909276E+0000
 21
 3.40103136323887E+0000
  0
LINE
  8
1
  6
CONTINUOUS
 62
     1
 10
 7.76954328605643E+0000
 20
 3.99356770972008E+0000
 11
 7.32133780665026E+0000
 21
 3.54536223031391E+0000
  0
LINE
  8
1
  6
CONTINUOUS
 62
     1
 10
 7.29682426763611E+0000
 20
 3.52084869129976E+0000
 11
 7.18511981551273E+0000
 21
 3.40914423917275E+0000
  0
LINE
  8
1
  6
CONTINUOUS
 62
     1
 10
 7.76954328605643E+0000
 20
 4.03254209923034E+0000
 11
 7.18528313877323E+0000
 21
 3.44828195195078E+0000
  0
LINE
  8
1
  6
CONTINUOUS
 62
     1
 10
 7.74246020846476E+0000
 20
 4.04443341115257E+0000
 11
 7.18544646204100E+0000
 21
 3.48741966472517E+0000
  0
LINE
  8
1
  6
CONTINUOUS
 62
     1
 10
 7.70345505241130E+0000
 20
 4.04440264461300E+0000
 11
 7.18560978530149E+0000
 21
 3.52655737749956E+0000
  0
LINE
  8
1
  6
CONTINUOUS
 62
     1
 10
 7.66444989635784E+0000
 20
 4.04437187807343E+0000
 11
 7.18577310856926E+0000
 21
 3.56569509028122E+0000
  0
LINE
  8
1
  6
CONTINUOUS
 62
     1
 10
 7.62544474028982E+0000
 20
 4.04434111151932E+0000
 11
 7.18593643182976E+0000
 21
 3.60483280305561E+0000
  0
LINE
  8
1
  6
CONTINUOUS
 62
     1
 10
 7.58643958423636E+0000
 20
 4.04431034497975E+0000
 11
 7.16138463051902E+0000
 21
 3.61925539125878E+0000
  0
LINE
  8
1
  6
CONTINUOUS
 62
     1
 10
 7.54743442818290E+0000
 20
 4.04427957844018E+0000
 11
 7.12241024100513E+0000
 21
 3.61925539125878E+0000
  0
LINE
  8
1
  6
CONTINUOUS
 62
     1
 10
 7.50842927212216E+0000
 20
 4.04424881188606E+0000
 11
 7.09936181820376E+0000
 21
 3.63518135796767E+0000
  0
LINE
  8
1
  6
CONTINUOUS
 62
     1
 10
 7.46942411606869E+0000
 20
 4.04421804534650E+0000
 11
 7.09922708067461E+0000
 21
 3.67402100995241E+0000
  0
LINE
  8
1
  6
CONTINUOUS
 62
     1
 10
 7.43041896001523E+0000
 20
 4.04418727880693E+0000
 11
 7.09909234313818E+0000
 21
 3.71286066193352E+0000
  0
LINE
  8
1
  6
CONTINUOUS
 62
     1
 10
 7.39141380394722E+0000
 20
 4.04415651225281E+0000
 11
 7.09895760560903E+0000
 21
 3.75170031391463E+0000
  0
LINE
  8
1
  6
CONTINUOUS
 62
     1
 10
 7.35240864789375E+0000
 20
 4.04412574571325E+0000
 11
 7.09882286807988E+0000
 21
 3.79053996589937E+0000
  0
LINE
  8
1
  6
CONTINUOUS
 62
     1
 10
 7.31340349184029E+0000
 20
 4.04409497917368E+0000
 11
 7.09868813055073E+0000
 21
 3.82937961788048E+0000
  0
LINE
  8
1
  6
CONTINUOUS
 62
     1
 10
 7.27439833577955E+0000
 20
 4.04406421261956E+0000
 11
 7.09855339302158E+0000
 21
 3.86821926986886E+0000
  0
LINE
  8
1
  6
CONTINUOUS
 62
     1
 10
 7.23539317971881E+0000
 20
 4.04403344607999E+0000
 11
 7.09841865549242E+0000
 21
 3.90705892184633E+0000
  0
LINE
  8
1
  6
CONTINUOUS
 62
     1
 10
 7.19638802366535E+0000
 20
 4.04400267954043E+0000
 11
 7.09828391795600E+0000
 21
 3.94589857382744E+0000
  0
LINE
  8
1
  6
CONTINUOUS
 62
     1
 10
 7.15738286761189E+0000
 20
 4.04397191299358E+0000
 11
 7.09814918042684E+0000
 21
 3.98473822581582E+0000
  0
LINE
  8
1
  6
CONTINUOUS
 62
     1
 10
 7.11837771155115E+0000
 20
 4.04394114644674E+0000
 11
 7.09801444289769E+0000
 21
 4.02357787779329E+0000
  0
LINE
  8
1
  6
CONTINUOUS
 62
     1
 10
 7.76954328604916E+0000
 20
 2.93059979362442E+0000
 11
 7.75005609129585E+0000
 21
 2.91111259886748E+0000
  0
LINE
  8
1
  6
CONTINUOUS
 62
     1
 10
 7.76954328604916E+0000
 20
 2.96957418313468E+0000
 11
 7.71108170178195E+0000
 21
 2.91111259886748E+0000
  0
LINE
  8
1
  6
CONTINUOUS
 62
     1
 10
 7.76954328604916E+0000
 20
 3.00854857264858E+0000
 11
 7.67210731226805E+0000
 21
 2.91111259886748E+0000
  0
LINE
  8
1
  6
CONTINUOUS
 62
     1
 10
 7.75230113339785E+0000
 20
 3.03028080950753E+0000
 11
 7.63313292275416E+0000
 21
 2.91111259886748E+0000
  0
LINE
  8
1
  6
CONTINUOUS
 62
     1
 10
 7.71295874206407E+0000
 20
 3.02991280768401E+0000
 11
 7.59415853324026E+0000
 21
 2.91111259886748E+0000
  0
LINE
  8
1
  6
CONTINUOUS
 62
     1
 10
 7.67410343714437E+0000
 20
 3.03003189227820E+0000
 11
 7.55518414372636E+0000
 21
 2.91111259886748E+0000
  0
LINE
  8
1
  6
CONTINUOUS
 62
     1
 10
 7.63524813221738E+0000
 20
 3.03015097686512E+0000
 11
 7.51620975421974E+0000
 21
 2.91111259886748E+0000
  0
LINE
  8
1
  6
CONTINUOUS
 62
     1
 10
 7.59639282729768E+0000
 20
 3.03027006145931E+0000
 11
 7.47723536470585E+0000
 21
 2.91111259886748E+0000
  0
LINE
  8
1
  6
CONTINUOUS
 62
     1
 10
 7.55753752237069E+0000
 20
 3.03038914604622E+0000
 11
 7.43826097519195E+0000
 21
 2.91111259886748E+0000
  0
LINE
  8
1
  6
CONTINUOUS
 62
     1
 10
 7.51868221745099E+0000
 20
 3.03050823064041E+0000
 11
 7.39928658567806E+0000
 21
 2.91111259886748E+0000
  0
LINE
  8
1
  6
CONTINUOUS
 62
     1
 10
 7.47982691253128E+0000
 20
 3.03062731523460E+0000
 11
 7.36031219616416E+0000
 21
 2.91111259886748E+0000
  0
LINE
  8
1
  6
CONTINUOUS
 62
     1
 10
 7.44097160760430E+0000
 20
 3.03074639982151E+0000
 11
 7.32133780665026E+0000
 21
 2.91111259886748E+0000
  0
LINE
  8
1
  6
CONTINUOUS
 62
     1
 10
 7.40211630268459E+0000
 20
 3.03086548441206E+0000
 11
 7.28236341713637E+0000
 21
 2.91111259886748E+0000
  0
LINE
  8
1
  6
CONTINUOUS
 62
     1
 10
 7.36326099775761E+0000
 20
 3.03098456900261E+0000
 11
 7.24338902762247E+0000
 21
 2.91111259886748E+0000
  0
LINE
  8
1
  6
CONTINUOUS
 62
     1
 10
 7.32440569283790E+0000
 20
 3.03110365359316E+0000
 11
 7.21056969938945E+0000
 21
 2.91726766014108E+0000
  0
LINE
  8
1
  6
CONTINUOUS
 62
     1
 10
 7.29671562535805E+0000
 20
 3.04238797562721E+0000
 11
 7.19110653322423E+0000
 21
 2.93677888349339E+0000
  0
LINE
  8
1
  6
CONTINUOUS
 62
     1
 10
 7.29725285670429E+0000
 20
 3.08189959648371E+0000
 11
 7.18586779635370E+0000
 21
 2.97051453613676E+0000
  0
LINE
  8
1
  6
CONTINUOUS
 62
     1
 10
 7.29779008804326E+0000
 20
 3.12141121733657E+0000
 11
 7.18569311295869E+0000
 21
 3.00931424225200E+0000
  0
LINE
  8
1
  6
CONTINUOUS
 62
     1
 10
 7.28157613170333E+0000
 20
 3.14417165050691E+0000
 11
 7.18551842955640E+0000
 21
 3.04811394836361E+0000
  0
LINE
  8
1
  6
CONTINUOUS
 62
     1
 10
 7.24260174218944E+0000
 20
 3.14417165050691E+0000
 11
 7.18534374615410E+0000
 21
 3.08691365447521E+0000
  0
LINE
  8
1
  6
CONTINUOUS
 62
     1
 10
 7.20362735267554E+0000
 20
 3.14417165050691E+0000
 11
 7.18516906275909E+0000
 21
 3.12571336059045E+0000
  0
LINE
  8
1
  6
CONTINUOUS
 62
     1
 10
 7.09941706651443E+0000
 20
 5.06305631501164E+0000
 11
 7.09941706651443E+0000
 21
 4.63611004785344E+0000
  0
LINE
  8
1
  6
CONTINUOUS
 62
     1
 10
 7.09941706651443E+0000
 20
 4.63611004785344E+0000
 11
 7.76677756622666E+0000
 21
 4.63611004785344E+0000
  0
LINE
  8
1
  6
CONTINUOUS
 62
     1
 10
 7.76954328605643E+0000
 20
 4.04445477378613E+0000
 11
 7.09830558282556E+0000
 21
 4.04445477378613E+0000
  0
LINE
  8
1
  6
CONTINUOUS
 62
     1
 10
 7.09830558282556E+0000
 20
 4.04445477378613E+0000
 11
 7.09830558282556E+0000
 21
 3.61957082566369E+0000
  0
LINE
  8
1
  6
CONTINUOUS
 62
     1
 10
 7.09830558282556E+0000
 20
 4.04445477378613E+0000
 11
 7.09830558282556E+0000
 21
 4.63534443781828E+0000
  0
LINE
  8
1
  6
CONTINUOUS
 62
     1
 10
 7.76954328605643E+0000
 20
 4.04445477378613E+0000
 11
 7.76954328605643E+0000
 21
 4.63773449337896E+0000
  0
LINE
  8
1
  6
CONTINUOUS
 62
     1
 10
 7.76954328604916E+0000
 20
 3.03118898539833E+0000
 11
 7.76954328604916E+0000
 21
 3.54547910336987E+0000
  0
LINE
  8
1
  6
CONTINUOUS
 62
     1
 10
 7.76663067601476E+0000
 20
 5.13694947595650E+0000
 11
 7.76663067601476E+0000
 21
 5.65161621523293E+0000
  0
LINE
  8
1
  6
DASHDOT
 62
     1
 10
 7.36229393426038E+0000
 20
 5.39429891538020E+0000
 11
 7.84584414491110E+0000
 21
 5.39429891538020E+0000
  0
LINE
  8
1
  6
DASHDOT
 62
     1
 10
 7.03601070264995E+0000
 20
 4.34033549253945E+0000
 11
 7.85063605877076E+0000
 21
 4.34033549253945E+0000
  0
LINE
  8
1
  6
DASHDOT
 62
     1
 10
 7.41378557073767E+0000
 20
 3.27407103578298E+0000
 11
 7.84824010184093E+0000
 21
 3.27407103578298E+0000
  0
LINE
  8
1
  6
DASHDOT
 62
     1
 10
 7.03601070264995E+0000
 20
 4.34033549253945E+0000
 11
 2.67599256696485E+0000
 21
 4.34033549253945E+0000
  0
LINE
  8
1
  6
DASHDOT
 62
     1
 10
 2.67599256696485E+0000
 20
 4.34033549253945E+0000
 11
 1.87471100859329E+0000
 21
 4.34033549253945E+0000
  0
LINE
  8
1
  6
DASHDOT
 62
     1
 10
 3.69580545944700E+0000
 20
 5.98624298664072E+0000
 11
 3.69580545944700E+0000
 21
 2.64176031061288E+0000
  0
CIRCLE
  8
1
  6
DASHDOT
 62
     1
 10
 3.69373428646213E+0000
 20
 4.34408835109207E+0000
 40
 7.16275251166735E-0001
  0
CIRCLE
  8
1
  6
CONTINUOUS
 62
     1
 10
 3.69373428645849E+0000
 20
 4.34408835109207E+0000
 40
 2.88257113279542E-0001
  0
CIRCLE
  8
1
  6
CONTINUOUS
 62
     1
 10
 3.69373428646213E+0000
 20
 4.34408835109207E+0000
 40
 1.42381543831470E+0000
  0
CIRCLE
  8
1
  6
DASHDOT
 62
     1
 10
 3.69373428646213E+0000
 20
 4.34408835109207E+0000
 40
 1.39761024619111E+0000
  0
CIRCLE
  8
1
  6
DASHDOT
 62
     1
 10
 3.69373428646213E+0000
 20
 4.34408835109207E+0000
 40
 1.04820768464742E+0000
  0
CIRCLE
  8
1
  6
CONTINUOUS
 62
     1
 10
 3.69565730540126E+0000
 20
 5.39683995862288E+0000
 40
 1.25204015792406E-0001
  0
CIRCLE
  8
1
  6
CONTINUOUS
 62
     1
 10
 3.69565730540126E+0000
 20
 5.38988417996734E+0000
 40
 2.64319588895887E-0001
  0
CIRCLE
  8
1
  6
CONTINUOUS
 62
     1
 10
 2.78002739059957E+0000
 20
 4.86820078083110E+0000
 40
 1.25204015792406E-0001
  0
CIRCLE
  8
1
  6
CONTINUOUS
 62
     1
 10
 2.78605127161791E+0000
 20
 4.86472289150697E+0000
 40
 2.64319588895887E-0001
  0
CIRCLE
  8
1
  6
CONTINUOUS
 62
     1
 10
 2.78002739060321E+0000
 20
 3.81092242525483E+0000
 40
 1.25204015792406E-0001
  0
CIRCLE
  8
1
  6
CONTINUOUS
 62
     1
 10
 2.78605127161791E+0000
 20
 3.81440031458624E+0000
 40
 2.64319588895887E-0001
  0
CIRCLE
  8
1
  6
CONTINUOUS
 62
     1
 10
 3.69565730540489E+0000
 20
 3.28228324747033E+0000
 40
 1.25204015792406E-0001
  0
CIRCLE
  8
1
  6
CONTINUOUS
 62
     1
 10
 3.69565730540126E+0000
 20
 3.28923902612587E+0000
 40
 2.64319588895887E-0001
  0
CIRCLE
  8
1
  6
CONTINUOUS
 62
     1
 10
 4.61128722020658E+0000
 20
 3.81092242526211E+0000
 40
 1.25204015792406E-0001
  0
CIRCLE
  8
1
  6
CONTINUOUS
 62
     1
 10
 4.60526333918096E+0000
 20
 3.81440031458624E+0000
 40
 2.64319588895887E-0001
  0
CIRCLE
  8
1
  6
CONTINUOUS
 62
     1
 10
 4.61128722019930E+0000
 20
 4.86820078083838E+0000
 40
 1.25204015792406E-0001
  0
CIRCLE
  8
1
  6
CONTINUOUS
 62
     1
 10
 4.60526333918096E+0000
 20
 4.86472289150697E+0000
 40
 2.64319588895887E-0001
  0
CIRCLE
  8
1
  6
CONTINUOUS
 62
     1
 10
 3.69565730539762E+0000
 20
 5.39683995862288E+0000
 40
 1.25204015792406E-0001
  0
CIRCLE
  8
1
  6
CONTINUOUS
 62
     1
 10
 3.69565730540126E+0000
 20
 5.38988417996734E+0000
 40
 2.64319588895887E-0001
  0
LINE
  8
1
  6
CONTINUOUS
 62
     1
 10
 7.09941706651443E+0000
 20
 5.06305631501164E+0000
 11
 6.61682735365321E+0000
 21
 5.06305631501164E+0000
  0
LINE
  8
1
  6
CONTINUOUS
 62
     1
 10
 6.61682735365321E+0000
 20
 5.06305631501164E+0000
 11
 6.61682735365321E+0000
 21
 3.61616062291796E+0000
  0
LINE
  8
1
  6
CONTINUOUS
 62
     1
 10
 6.61682735365321E+0000
 20
 3.61616062291796E+0000
 11
 7.10253258732700E+0000
 21
 3.61616062291796E+0000
  0
LINE
  8
1
  6
CONTINUOUS
 62
     1
 10
 7.84584414491110E+0000
 20
 5.39429891538020E+0000
 11
 8.56728791225760E+0000
 21
 5.39429891538020E+0000
  0
LINE
  8
1
  6
CONTINUOUS
 62
     1
 10
 8.56728791225760E+0000
 20
 5.39429891538020E+0000
 11
 8.56728791225760E+0000
 21
 3.27117497274594E+0000
  0
LINE
  8
1
  6
CONTINUOUS
 62
     1
 10
 8.56728791225760E+0000
 20
 3.27117497274594E+0000
 11
 7.79709818457195E+0000
 21
 3.27117497274594E+0000
  0
LINE
  8
1
  6
CONTINUOUS
 62
     1
 10
 7.76954328605643E+0000
 20
 4.63773449337896E+0000
 11
 8.22035560249060E+0000
 21
 4.63773449337896E+0000
  0
LINE
  8
1
  6
CONTINUOUS
 62
     1
 10
 8.22035560249060E+0000
 20
 4.63773449337896E+0000
 11
 8.22035560249060E+0000
 21
 4.04326640346699E+0000
  0
LINE
  8
1
  6
CONTINUOUS
 62
     1
 10
 8.22035560249060E+0000
 20
 4.04326640346699E+0000
 11
 7.76934359979350E+0000
 21
 4.04326640346699E+0000
  0
LINE
  8
1
  6
CONTINUOUS
 62
     1
 10
 7.76663067601476E+0000
 20
 5.77119910739566E+0000
 11
 7.76663067601476E+0000
 21
 6.43528947045706E+0000
  0
LINE
  8
1
  6
CONTINUOUS
 62
     1
 10
 7.76663067601476E+0000
 20
 6.43528947045706E+0000
 11
 7.09629491883970E+0000
 21
 6.43528947045706E+0000
  0
LINE
  8
1
  6
CONTINUOUS
 62
     1
 10
 7.09629491883970E+0000
 20
 6.43528947045706E+0000
 11
 7.09629491883970E+0000
 21
 5.06500107540342E+0000
  0
LINE
  8
1
  6
CONTINUOUS
 62
     1
 10
 7.18308400783280E+0000
 20
 5.74041029034561E+0000
 11
 7.18308400783280E+0000
 21
 6.11532365230960E+0000
  0
LINE
  8
1
  6
CONTINUOUS
 62
     1
 10
 7.18308400783280E+0000
 20
 6.11532365230960E+0000
 11
 7.76934359979350E+0000
 21
 6.11532365230960E+0000
  0
LINE
  8
1
  6
CONTINUOUS
 62
     1
 10
 3.43268972768783E+0000
 20
 5.39192267218459E+0000
 11
 3.43268972768783E+0000
 21
 6.43528947045706E+0000
  0
LINE
  8
1
  6
CONTINUOUS
 62
     1
 10
 3.43268972768783E+0000
 20
 6.43528947045706E+0000
 11
 3.95308819233833E+0000
 21
 6.43528947045706E+0000
  0
LINE
  8
1
  6
CONTINUOUS
 62
     1
 10
 3.95308819233833E+0000
 20
 6.43528947045706E+0000
 11
 3.95308819233833E+0000
 21
 5.39192267218459E+0000
  0
LINE
  8
1
  6
CONTINUOUS
 62
     1
 10
 4.61919822709751E+0000
 20
 4.98848751019250E+0000
 11
 5.49346764771326E+0000
 21
 4.98848751019250E+0000
  0
LINE
  8
1
  6
CONTINUOUS
 62
     1
 10
 5.49346764771326E+0000
 20
 4.98848751019250E+0000
 11
 5.49346764771326E+0000
 21
 4.74503525726323E+0000
  0
LINE
  8
1
  6
CONTINUOUS
 62
     1
 10
 5.49346764771326E+0000
 20
 4.74503525726323E+0000
 11
 4.59838228851004E+0000
 21
 4.74503525726323E+0000
  0
LINE
  8
1
  6
CONTINUOUS
 62
     1
 10
 7.29751565850893E+0000
 20
 3.21076694116346E+0000
 11
 7.76934359979350E+0000
 21
 3.21076694116346E+0000
  0
LINE
  8
1
  6
CONTINUOUS
 62
     1
 10
 5.49569007896207E+0000
 20
 5.00231273995450E+0000
 11
 5.49569007896207E+0000
 21
 5.00231273995450E+0000
  0
LINE
  8
1
  6
CONTINUOUS
 62
     1
 10
 5.49569007896207E+0000
 20
 5.00231273995450E+0000
 11
 5.52287160032574E+0000
 21
 5.16160206658242E+0000
  0
LINE
  8
1
  6
CONTINUOUS
 62
     1
 10
 5.52287160032574E+0000
 20
 5.16160206658242E+0000
 11
 5.46246796285413E+0000
 21
 5.16160206658242E+0000
  0
LINE
  8
1
  6
CONTINUOUS
 62
     1
 10
 5.46246796285413E+0000
 20
 5.16160206658242E+0000
 11
 5.49569007896207E+0000
 21
 5.00231273995450E+0000
  0
LINE
  8
1
  6
CONTINUOUS
 62
     1
 10
 5.52287160032574E+0000
 20
 5.16160206658242E+0000
 11
 5.46246796285413E+0000
 21
 5.16160206658242E+0000
  0
LINE
  8
1
  6
CONTINUOUS
 62
     1
 10
 5.49719544213440E+0000
 20
 5.01113447888201E+0000
 11
 5.49296860854520E+0000
 21
 5.01536131247121E+0000
  0
LINE
  8
1
  6
CONTINUOUS
 62
     1
 10
 5.50020616846450E+0000
 20
 5.02877795673703E+0000
 11
 5.48752566769690E+0000
 21
 5.04145845750463E+0000
  0
LINE
  8
1
  6
CONTINUOUS
 62
     1
 10
 5.50321689479460E+0000
 20
 5.04642143459205E+0000
 11
 5.48208272684860E+0000
 21
 5.06755560253805E+0000
  0
LINE
  8
1
  6
CONTINUOUS
 62
     1
 10
 5.50622762112471E+0000
 20
 5.06406491243979E+0000
 11
 5.47663978600031E+0000
 21
 5.09365274757147E+0000
  0
LINE
  8
1
  6
CONTINUOUS
 62
     1
 10
 5.50923834746209E+0000
 20
 5.08170839029481E+0000
 11
 5.47119684515201E+0000
 21
 5.11974989260489E+0000
  0
LINE
  8
1
  6
CONTINUOUS
 62
     1
 10
 5.51224907379219E+0000
 20
 5.09935186814982E+0000
 11
 5.46575390431099E+0000
 21
 5.14584703763103E+0000
  0
LINE
  8
1
  6
CONTINUOUS
 62
     1
 10
 5.51525980012229E+0000
 20
 5.11699534600484E+0000
 11
 5.47065307954472E+0000
 21
 5.16160206658242E+0000
  0
LINE
  8
1
  6
CONTINUOUS
 62
     1
 10
 5.51827052645967E+0000
 20
 5.13463882385258E+0000
 11
 5.49130728372984E+0000
 21
 5.16160206658242E+0000
  0
LINE
  8
1
  6
CONTINUOUS
 62
     1
 10
 5.52128125278978E+0000
 20
 5.15228230170760E+0000
 11
 5.51196148791496E+0000
 21
 5.16160206658242E+0000
  0
LINE
  8
1
  6
CONTINUOUS
 62
     1
 10
 5.49781490682653E+0000
 20
 5.01476466991153E+0000
 11
 5.49390790861071E+0000
 21
 5.01085767169570E+0000
  0
LINE
  8
1
  6
CONTINUOUS
 62
     1
 10
 5.50206456256274E+0000
 20
 5.03966852983285E+0000
 11
 5.49034356791526E+0000
 21
 5.02794753518538E+0000
  0
LINE
  8
1
  6
CONTINUOUS
 62
     1
 10
 5.50631421829166E+0000
 20
 5.06457238975418E+0000
 11
 5.48677922721981E+0000
 21
 5.04503739867505E+0000
  0
LINE
  8
1
  6
CONTINUOUS
 62
     1
 10
 5.51056387402787E+0000
 20
 5.08947624967550E+0000
 11
 5.48321488652437E+0000
 21
 5.06212726216472E+0000
  0
LINE
  8
1
  6
CONTINUOUS
 62
     1
 10
 5.51481352976407E+0000
 20
 5.11438010959682E+0000
 11
 5.47965054582892E+0000
 21
 5.07921712565440E+0000
  0
LINE
  8
1
  6
CONTINUOUS
 62
     1
 10
 5.51906318550027E+0000
 20
 5.13928396951087E+0000
 11
 5.47608620513347E+0000
 21
 5.09630698915134E+0000
  0
LINE
  8
1
  6
CONTINUOUS
 62
     1
 10
 5.52072707837942E+0000
 20
 5.16160206657514E+0000
 11
 5.47252186443802E+0000
 21
 5.11339685263374E+0000
  0
LINE
  8
1
  6
CONTINUOUS
 62
     1
 10
 5.50007287419430E+0000
 20
 5.16160206657514E+0000
 11
 5.46895752374257E+0000
 21
 5.13048671612341E+0000
  0
LINE
  8
1
  6
CONTINUOUS
 62
     1
 10
 5.47941867000918E+0000
 20
 5.16160206657514E+0000
 11
 5.46539318304713E+0000
 21
 5.14757657962036E+0000
  0
LINE
  8
1
  6
CONTINUOUS
 62
     1
 10
 5.49839135526418E+0000
 20
 4.72955045852723E+0000
 11
 5.49839135526418E+0000
 21
 4.72955045852723E+0000
  0
LINE
  8
1
  6
CONTINUOUS
 62
     1
 10
 5.49839135526418E+0000
 20
 4.72955045852723E+0000
 11
 5.47120983390050E+0000
 21
 4.57026113189931E+0000
  0
LINE
  8
1
  6
CONTINUOUS
 62
     1
 10
 5.47120983390050E+0000
 20
 4.57026113189931E+0000
 11
 5.53161347137211E+0000
 21
 4.57026113189931E+0000
  0
LINE
  8
1
  6
CONTINUOUS
 62
     1
 10
 5.53161347137211E+0000
 20
 4.57026113189931E+0000
 11
 5.49839135526418E+0000
 21
 4.72955045852723E+0000
  0
LINE
  8
1
  6
CONTINUOUS
 62
     1
 10
 5.47120983390050E+0000
 20
 4.57026113189931E+0000
 11
 5.53161347137211E+0000
 21
 4.57026113189931E+0000
  0
LINE
  8
1
  6
CONTINUOUS
 62
     1
 10
 5.48153693599306E+0000
 20
 4.57026113189931E+0000
 11
 5.47271519706555E+0000
 21
 4.57908287082682E+0000
  0
LINE
  8
1
  6
CONTINUOUS
 62
     1
 10
 5.50219114017818E+0000
 20
 4.57026113189931E+0000
 11
 5.47572592340293E+0000
 21
 4.59672634868184E+0000
  0
LINE
  8
1
  6
CONTINUOUS
 62
     1
 10
 5.52284534436330E+0000
 20
 4.57026113189931E+0000
 11
 5.47873664973304E+0000
 21
 4.61436982652958E+0000
  0
LINE
  8
1
  6
CONTINUOUS
 62
     1
 10
 5.52848116889800E+0000
 20
 4.58527951154974E+0000
 11
 5.48174737606314E+0000
 21
 4.63201330438460E+0000
  0
LINE
  8
1
  6
CONTINUOUS
 62
     1
 10
 5.52303822804970E+0000
 20
 4.61137665658316E+0000
 11
 5.48475810240052E+0000
 21
 4.64965678223234E+0000
  0
LINE
  8
1
  6
CONTINUOUS
 62
     1
 10
 5.51759528720140E+0000
 20
 4.63747380161658E+0000
 11
 5.48776882873062E+0000
 21
 4.66730026008736E+0000
  0
LINE
  8
1
  6
CONTINUOUS
 62
     1
 10
 5.51215234636038E+0000
 20
 4.66357094665000E+0000
 11
 5.49077955506073E+0000
 21
 4.68494373794238E+0000
  0
LINE
  8
1
  6
CONTINUOUS
 62
     1
 10
 5.50670940551208E+0000
 20
 4.68966809168342E+0000
 11
 5.49379028139811E+0000
 21
 4.70258721579012E+0000
  0
LINE
  8
1
  6
CONTINUOUS
 62
     1
 10
 5.50126646466379E+0000
 20
 4.71576523670956E+0000
 11
 5.49680100772821E+0000
 21
 4.72023069364514E+0000
  0
LINE
  8
1
  6
CONTINUOUS
 62
     1
 10
 5.52983130102075E+0000
 20
 4.57880606364051E+0000
 11
 5.52128636927227E+0000
 21
 4.57026113189204E+0000
  0
LINE
  8
1
  6
CONTINUOUS
 62
     1
 10
 5.52626696032530E+0000
 20
 4.59589592713019E+0000
 11
 5.50063216508715E+0000
 21
 4.57026113189204E+0000
  0
LINE
  8
1
  6
CONTINUOUS
 62
     1
 10
 5.52270261962985E+0000
 20
 4.61298579061986E+0000
 11
 5.47997796090203E+0000
 21
 4.57026113189204E+0000
  0
LINE
  8
1
  6
CONTINUOUS
 62
     1
 10
 5.51913827893441E+0000
 20
 4.63007565410953E+0000
 11
 5.47365542490297E+0000
 21
 4.58459280008537E+0000
  0
LINE
  8
1
  6
CONTINUOUS
 62
     1
 10
 5.51557393823896E+0000
 20
 4.64716551759921E+0000
 11
 5.47790508063918E+0000
 21
 4.60949666000670E+0000
  0
LINE
  8
1
  6
CONTINUOUS
 62
     1
 10
 5.51200959754351E+0000
 20
 4.66425538109615E+0000
 11
 5.48215473637538E+0000
 21
 4.63440051992802E+0000
  0
LINE
  8
1
  6
CONTINUOUS
 62
     1
 10
 5.50844525684806E+0000
 20
 4.68134524457855E+0000
 11
 5.48640439210430E+0000
 21
 4.65930437984207E+0000
  0
LINE
  8
1
  6
CONTINUOUS
 62
     1
 10
 5.50488091615262E+0000
 20
 4.69843510806822E+0000
 11
 5.49065404784051E+0000
 21
 4.68420823976339E+0000
  0
LINE
  8
1
  6
CONTINUOUS
 62
     1
 10
 5.50131657545717E+0000
 20
 4.71552497156517E+0000
 11
 5.49490370357671E+0000
 21
 4.70911209968472E+0000
  0
LINE
  8
1
  6
CONTINUOUS
 62
     1
 10
 3.94688426611174E+0000
 20
 6.43421748736000E+0000
 11
 3.94688426611174E+0000
 21
 6.43421748736000E+0000
  0
LINE
  8
1
  6
CONTINUOUS
 62
     1
 10
 3.94688426611174E+0000
 20
 6.43421748736000E+0000
 11
 4.10617359276512E+0000
 21
 6.40703596599633E+0000
  0
LINE
  8
1
  6
CONTINUOUS
 62
     1
 10
 4.10617359276512E+0000
 20
 6.40703596599633E+0000
 11
 4.10617359276512E+0000
 21
 6.46743960346794E+0000
  0
LINE
  8
1
  6
CONTINUOUS
 62
     1
 10
 4.10617359276512E+0000
 20
 6.46743960346794E+0000
 11
 3.94688426611174E+0000
 21
 6.43421748736000E+0000
  0
LINE
  8
1
  6
CONTINUOUS
 62
     1
 10
 4.10617359276512E+0000
 20
 6.40703596599633E+0000
 11
 4.10617359276512E+0000
 21
 6.46743960346794E+0000
  0
LINE
  8
1
  6
CONTINUOUS
 62
     1
 10
 3.95933619607240E+0000
 20
 6.43209265949554E+0000
 11
 3.95542919785657E+0000
 21
 6.43599965771136E+0000
  0
LINE
  8
1
  6
CONTINUOUS
 62
     1
 10
 3.98424005599009E+0000
 20
 6.42784300375934E+0000
 11
 3.97251906134989E+0000
 21
 6.43956399839954E+0000
  0
LINE
  8
1
  6
CONTINUOUS
 62
     1
 10
 4.00914391590777E+0000
 20
 6.42359334802313E+0000
 11
 3.98960892483956E+0000
 21
 6.44312833909498E+0000
  0
LINE
  8
1
  6
CONTINUOUS
 62
     1
 10
 4.03404777582909E+0000
 20
 6.41934369229421E+0000
 11
 4.00669878832559E+0000
 21
 6.44669267979043E+0000
  0
LINE
  8
1
  6
CONTINUOUS
 62
     1
 10
 4.05895163575042E+0000
 20
 6.41509403655800E+0000
 11
 4.02378865182254E+0000
 21
 6.45025702048588E+0000
  0
LINE
  8
1
  6
CONTINUOUS
 62
     1
 10
 4.08385549567174E+0000
 20
 6.41084438082180E+0000
 11
 4.04087851531222E+0000
 21
 6.45382136118133E+0000
  0
LINE
  8
1
  6
CONTINUOUS
 62
     1
 10
 4.10617359276512E+0000
 20
 6.40918048791355E+0000
 11
 4.05796837880189E+0000
 21
 6.45738570187677E+0000
  0
LINE
  8
1
  6
CONTINUOUS
 62
     1
 10
 4.10617359276512E+0000
 20
 6.42983469209867E+0000
 11
 4.07505824229156E+0000
 21
 6.46095004257222E+0000
  0
LINE
  8
1
  6
CONTINUOUS
 62
     1
 10
 4.10617359276512E+0000
 20
 6.45048889628379E+0000
 11
 4.09214810578123E+0000
 21
 6.46451438326767E+0000
  0
LINE
  8
1
  6
CONTINUOUS
 62
     1
 10
 4.10617359275784E+0000
 20
 6.41736306808161E+0000
 11
 4.09735185383033E+0000
 21
 6.40854132915410E+0000
  0
LINE
  8
1
  6
CONTINUOUS
 62
     1
 10
 4.10617359275784E+0000
 20
 6.43801727226673E+0000
 11
 4.07970837597531E+0000
 21
 6.41155205548421E+0000
  0
LINE
  8
1
  6
CONTINUOUS
 62
     1
 10
 4.10617359275784E+0000
 20
 6.45867147645185E+0000
 11
 4.06206489812757E+0000
 21
 6.41456278182159E+0000
  0
LINE
  8
1
  6
CONTINUOUS
 62
     1
 10
 4.09115521310741E+0000
 20
 6.46430730098655E+0000
 11
 4.04442142027256E+0000
 21
 6.41757350815169E+0000
  0
LINE
  8
1
  6
CONTINUOUS
 62
     1
 10
 4.06505806807399E+0000
 20
 6.45886436013825E+0000
 11
 4.02677794241754E+0000
 21
 6.42058423448179E+0000
  0
LINE
  8
1
  6
CONTINUOUS
 62
     1
 10
 4.03896092304058E+0000
 20
 6.45342141928995E+0000
 11
 4.00913446456252E+0000
 21
 6.42359496081190E+0000
  0
LINE
  8
1
  6
CONTINUOUS
 62
     1
 10
 4.01286377800716E+0000
 20
 6.44797847844166E+0000
 11
 3.99149098671114E+0000
 21
 6.42660568714928E+0000
  0
LINE
  8
1
  6
CONTINUOUS
 62
     1
 10
 3.98676663298102E+0000
 20
 6.44253553760063E+0000
 11
 3.97384750885612E+0000
 21
 6.42961641347938E+0000
  0
LINE
  8
1
  6
CONTINUOUS
 62
     1
 10
 3.96066948794760E+0000
 20
 6.43709259675234E+0000
 11
 3.95620403100838E+0000
 21
 6.43262713981676E+0000
  0
LINE
  8
1
  6
CONTINUOUS
 62
     1
 10
 3.94688426611174E+0000
 20
 6.43421748736000E+0000
 11
 3.94688426611174E+0000
 21
 6.43421748736000E+0000
  0
LINE
  8
1
  6
CONTINUOUS
 62
     1
 10
 3.94688426611174E+0000
 20
 6.43421748736000E+0000
 11
 4.10617359276512E+0000
 21
 6.40703596599633E+0000
  0
LINE
  8
1
  6
CONTINUOUS
 62
     1
 10
 4.10617359276512E+0000
 20
 6.40703596599633E+0000
 11
 4.10617359276512E+0000
 21
 6.46743960346794E+0000
  0
LINE
  8
1
  6
CONTINUOUS
 62
     1
 10
 4.10617359276512E+0000
 20
 6.46743960346794E+0000
 11
 3.94688426611174E+0000
 21
 6.43421748736000E+0000
  0
LINE
  8
1
  6
CONTINUOUS
 62
     1
 10
 4.10617359276512E+0000
 20
 6.40703596599633E+0000
 11
 4.10617359276512E+0000
 21
 6.46743960346794E+0000
  0
LINE
  8
1
  6
CONTINUOUS
 62
     1
 10
 3.95933619607240E+0000
 20
 6.43209265949554E+0000
 11
 3.95542919785657E+0000
 21
 6.43599965771136E+0000
  0
LINE
  8
1
  6
CONTINUOUS
 62
     1
 10
 3.98424005599009E+0000
 20
 6.42784300375934E+0000
 11
 3.97251906134989E+0000
 21
 6.43956399839954E+0000
  0
LINE
  8
1
  6
CONTINUOUS
 62
     1
 10
 4.00914391590777E+0000
 20
 6.42359334802313E+0000
 11
 3.98960892483956E+0000
 21
 6.44312833909498E+0000
  0
LINE
  8
1
  6
CONTINUOUS
 62
     1
 10
 4.03404777582909E+0000
 20
 6.41934369229421E+0000
 11
 4.00669878832559E+0000
 21
 6.44669267979043E+0000
  0
LINE
  8
1
  6
CONTINUOUS
 62
     1
 10
 4.05895163575042E+0000
 20
 6.41509403655800E+0000
 11
 4.02378865182254E+0000
 21
 6.45025702048588E+0000
  0
LINE
  8
1
  6
CONTINUOUS
 62
     1
 10
 4.08385549567174E+0000
 20
 6.41084438082180E+0000
 11
 4.04087851531222E+0000
 21
 6.45382136118133E+0000
  0
LINE
  8
1
  6
CONTINUOUS
 62
     1
 10
 4.10617359276512E+0000
 20
 6.40918048791355E+0000
 11
 4.05796837880189E+0000
 21
 6.45738570187677E+0000
  0
LINE
  8
1
  6
CONTINUOUS
 62
     1
 10
 4.10617359276512E+0000
 20
 6.42983469209867E+0000
 11
 4.07505824229156E+0000
 21
 6.46095004257222E+0000
  0
LINE
  8
1
  6
CONTINUOUS
 62
     1
 10
 4.10617359276512E+0000
 20
 6.45048889628379E+0000
 11
 4.09214810578123E+0000
 21
 6.46451438326767E+0000
  0
LINE
  8
1
  6
CONTINUOUS
 62
     1
 10
 4.10617359275784E+0000
 20
 6.41736306808161E+0000
 11
 4.09735185383033E+0000
 21
 6.40854132915410E+0000
  0
LINE
  8
1
  6
CONTINUOUS
 62
     1
 10
 4.10617359275784E+0000
 20
 6.43801727226673E+0000
 11
 4.07970837597531E+0000
 21
 6.41155205548421E+0000
  0
LINE
  8
1
  6
CONTINUOUS
 62
     1
 10
 4.10617359275784E+0000
 20
 6.45867147645185E+0000
 11
 4.06206489812757E+0000
 21
 6.41456278182159E+0000
  0
LINE
  8
1
  6
CONTINUOUS
 62
     1
 10
 4.09115521310741E+0000
 20
 6.46430730098655E+0000
 11
 4.04442142027256E+0000
 21
 6.41757350815169E+0000
  0
LINE
  8
1
  6
CONTINUOUS
 62
     1
 10
 4.06505806807399E+0000
 20
 6.45886436013825E+0000
 11
 4.02677794241754E+0000
 21
 6.42058423448179E+0000
  0
LINE
  8
1
  6
CONTINUOUS
 62
     1
 10
 4.03896092304058E+0000
 20
 6.45342141928995E+0000
 11
 4.00913446456252E+0000
 21
 6.42359496081190E+0000
  0
LINE
  8
1
  6
CONTINUOUS
 62
     1
 10
 4.01286377800716E+0000
 20
 6.44797847844166E+0000
 11
 3.99149098671114E+0000
 21
 6.42660568714928E+0000
  0
LINE
  8
1
  6
CONTINUOUS
 62
     1
 10
 3.98676663298102E+0000
 20
 6.44253553760063E+0000
 11
 3.97384750885612E+0000
 21
 6.42961641347938E+0000
  0
LINE
  8
1
  6
CONTINUOUS
 62
     1
 10
 3.96066948794760E+0000
 20
 6.43709259675234E+0000
 11
 3.95620403100838E+0000
 21
 6.43262713981676E+0000
  0
LINE
  8
1
  6
CONTINUOUS
 62
     1
 10
 3.42231615833225E+0000
 20
 6.43524038454780E+0000
 11
 3.42231615833225E+0000
 21
 6.43524038454780E+0000
  0
LINE
  8
1
  6
CONTINUOUS
 62
     1
 10
 3.42231615833225E+0000
 20
 6.43524038454780E+0000
 11
 3.26302683169706E+0000
 21
 6.46242190591147E+0000
  0
LINE
  8
1
  6
CONTINUOUS
 62
     1
 10
 3.26302683169706E+0000
 20
 6.46242190591147E+0000
 11
 3.26302683169706E+0000
 21
 6.40201826843986E+0000
  0
LINE
  8
1
  6
CONTINUOUS
 62
     1
 10
 3.26302683169706E+0000
 20
 6.40201826843986E+0000
 11
 3.42231615833225E+0000
 21
 6.43524038454780E+0000
  0
LINE
  8
1
  6
CONTINUOUS
 62
     1
 10
 3.26302683169706E+0000
 20
 6.46242190591147E+0000
 11
 3.26302683169706E+0000
 21
 6.40201826843986E+0000
  0
LINE
  8
1
  6
CONTINUOUS
 62
     1
 10
 3.27157176344190E+0000
 20
 6.40380043879122E+0000
 11
 3.26302683169706E+0000
 21
 6.41234537053242E+0000
  0
LINE
  8
1
  6
CONTINUOUS
 62
     1
 10
 3.28866162693157E+0000
 20
 6.40736477948667E+0000
 11
 3.26302683170070E+0000
 21
 6.43299957471754E+0000
  0
LINE
  8
1
  6
CONTINUOUS
 62
     1
 10
 3.30575149042488E+0000
 20
 6.41092912017484E+0000
 11
 3.26302683170070E+0000
 21
 6.45365377890266E+0000
  0
LINE
  8
1
  6
CONTINUOUS
 62
     1
 10
 3.32284135391455E+0000
 20
 6.41449346087029E+0000
 11
 3.27735849987585E+0000
 21
 6.45997631490900E+0000
  0
LINE
  8
1
  6
CONTINUOUS
 62
     1
 10
 3.33993121740423E+0000
 20
 6.41805780156574E+0000
 11
 3.30226235979717E+0000
 21
 6.45572665917280E+0000
  0
LINE
  8
1
  6
CONTINUOUS
 62
     1
 10
 3.35702108089754E+0000
 20
 6.42162214226119E+0000
 11
 3.32716621971849E+0000
 21
 6.45147700343659E+0000
  0
LINE
  8
1
  6
CONTINUOUS
 62
     1
 10
 3.37411094438357E+0000
 20
 6.42518648295663E+0000
 11
 3.35207007963982E+0000
 21
 6.44722734770039E+0000
  0
LINE
  8
1
  6
CONTINUOUS
 62
     1
 10
 3.39120080787688E+0000
 20
 6.42875082365208E+0000
 11
 3.37697393956114E+0000
 21
 6.44297769196419E+0000
  0
LINE
  8
1
  6
CONTINUOUS
 62
     1
 10
 3.40829067136656E+0000
 20
 6.43231516434753E+0000
 11
 3.40187779948246E+0000
 21
 6.43872803623526E+0000
  0
LINE
  8
1
  6
CONTINUOUS
 62
     1
 10
 3.41349441940110E+0000
 20
 6.43674574770557E+0000
 11
 3.40926758581554E+0000
 21
 6.43251891412365E+0000
  0
LINE
  8
1
  6
CONTINUOUS
 62
     1
 10
 3.39585094154972E+0000
 20
 6.43975647404295E+0000
 11
 3.38317044078212E+0000
 21
 6.42707597327535E+0000
  0
LINE
  8
1
  6
CONTINUOUS
 62
     1
 10
 3.37820746369471E+0000
 20
 6.44276720037305E+0000
 11
 3.35707329574871E+0000
 21
 6.42163303242705E+0000
  0
LINE
  8
1
  6
CONTINUOUS
 62
     1
 10
 3.36056398584697E+0000
 20
 6.44577792671043E+0000
 11
 3.33097615071893E+0000
 21
 6.41619009157876E+0000
  0
LINE
  8
1
  6
CONTINUOUS
 62
     1
 10
 3.34292050799195E+0000
 20
 6.44878865304054E+0000
 11
 3.30487900568551E+0000
 21
 6.41074715073046E+0000
  0
LINE
  8
1
  6
CONTINUOUS
 62
     1
 10
 3.32527703014057E+0000
 20
 6.45179937937064E+0000
 11
 3.27878186065573E+0000
 21
 6.40530420988944E+0000
  0
LINE
  8
1
  6
CONTINUOUS
 62
     1
 10
 3.30763355228555E+0000
 20
 6.45481010570074E+0000
 11
 3.26302683168979E+0000
 21
 6.41020338510862E+0000
  0
LINE
  8
1
  6
CONTINUOUS
 62
     1
 10
 3.28999007443417E+0000
 20
 6.45782083203812E+0000
 11
 3.26302683168979E+0000
 21
 6.43085758929374E+0000
  0
LINE
  8
1
  6
CONTINUOUS
 62
     1
 10
 3.27234659657915E+0000
 20
 6.46083155836823E+0000
 11
 3.26302683168979E+0000
 21
 6.45151179347886E+0000
  0
LINE
  8
1
  6
CONTINUOUS
 62
     1
 10
 3.42231615833225E+0000
 20
 6.43524038454780E+0000
 11
 3.42231615833225E+0000
 21
 6.43524038454780E+0000
  0
LINE
  8
1
  6
CONTINUOUS
 62
     1
 10
 3.42231615833225E+0000
 20
 6.43524038454780E+0000
 11
 3.26302683169706E+0000
 21
 6.46242190591147E+0000
  0
LINE
  8
1
  6
CONTINUOUS
 62
     1
 10
 3.26302683169706E+0000
 20
 6.46242190591147E+0000
 11
 3.26302683169706E+0000
 21
 6.40201826843986E+0000
  0
LINE
  8
1
  6
CONTINUOUS
 62
     1
 10
 3.26302683169706E+0000
 20
 6.40201826843986E+0000
 11
 3.42231615833225E+0000
 21
 6.43524038454780E+0000
  0
LINE
  8
1
  6
CONTINUOUS
 62
     1
 10
 3.26302683169706E+0000
 20
 6.46242190591147E+0000
 11
 3.26302683169706E+0000
 21
 6.40201826843986E+0000
  0
LINE
  8
1
  6
CONTINUOUS
 62
     1
 10
 3.27157176344190E+0000
 20
 6.40380043879122E+0000
 11
 3.26302683169706E+0000
 21
 6.41234537053242E+0000
  0
LINE
  8
1
  6
CONTINUOUS
 62
     1
 10
 3.28866162693157E+0000
 20
 6.40736477948667E+0000
 11
 3.26302683170070E+0000
 21
 6.43299957471754E+0000
  0
LINE
  8
1
  6
CONTINUOUS
 62
     1
 10
 3.30575149042488E+0000
 20
 6.41092912017484E+0000
 11
 3.26302683170070E+0000
 21
 6.45365377890266E+0000
  0
LINE
  8
1
  6
CONTINUOUS
 62
     1
 10
 3.32284135391455E+0000
 20
 6.41449346087029E+0000
 11
 3.27735849987585E+0000
 21
 6.45997631490900E+0000
  0
LINE
  8
1
  6
CONTINUOUS
 62
     1
 10
 3.33993121740423E+0000
 20
 6.41805780156574E+0000
 11
 3.30226235979717E+0000
 21
 6.45572665917280E+0000
  0
LINE
  8
1
  6
CONTINUOUS
 62
     1
 10
 3.35702108089754E+0000
 20
 6.42162214226119E+0000
 11
 3.32716621971849E+0000
 21
 6.45147700343659E+0000
  0
LINE
  8
1
  6
CONTINUOUS
 62
     1
 10
 3.37411094438357E+0000
 20
 6.42518648295663E+0000
 11
 3.35207007963982E+0000
 21
 6.44722734770039E+0000
  0
LINE
  8
1
  6
CONTINUOUS
 62
     1
 10
 3.39120080787688E+0000
 20
 6.42875082365208E+0000
 11
 3.37697393956114E+0000
 21
 6.44297769196419E+0000
  0
LINE
  8
1
  6
CONTINUOUS
 62
     1
 10
 3.40829067136656E+0000
 20
 6.43231516434753E+0000
 11
 3.40187779948246E+0000
 21
 6.43872803623526E+0000
  0
LINE
  8
1
  6
CONTINUOUS
 62
     1
 10
 3.41349441940110E+0000
 20
 6.43674574770557E+0000
 11
 3.40926758581554E+0000
 21
 6.43251891412365E+0000
  0
LINE
  8
1
  6
CONTINUOUS
 62
     1
 10
 3.39585094154972E+0000
 20
 6.43975647404295E+0000
 11
 3.38317044078212E+0000
 21
 6.42707597327535E+0000
  0
LINE
  8
1
  6
CONTINUOUS
 62
     1
 10
 3.37820746369471E+0000
 20
 6.44276720037305E+0000
 11
 3.35707329574871E+0000
 21
 6.42163303242705E+0000
  0
LINE
  8
1
  6
CONTINUOUS
 62
     1
 10
 3.36056398584697E+0000
 20
 6.44577792671043E+0000
 11
 3.33097615071893E+0000
 21
 6.41619009157876E+0000
  0
LINE
  8
1
  6
CONTINUOUS
 62
     1
 10
 3.34292050799195E+0000
 20
 6.44878865304054E+0000
 11
 3.30487900568551E+0000
 21
 6.41074715073046E+0000
  0
LINE
  8
1
  6
CONTINUOUS
 62
     1
 10
 3.32527703014057E+0000
 20
 6.45179937937064E+0000
 11
 3.27878186065573E+0000
 21
 6.40530420988944E+0000
  0
LINE
  8
1
  6
CONTINUOUS
 62
     1
 10
 3.30763355228555E+0000
 20
 6.45481010570074E+0000
 11
 3.26302683168979E+0000
 21
 6.41020338510862E+0000
  0
LINE
  8
1
  6
CONTINUOUS
 62
     1
 10
 3.28999007443417E+0000
 20
 6.45782083203812E+0000
 11
 3.26302683168979E+0000
 21
 6.43085758929374E+0000
  0
LINE
  8
1
  6
CONTINUOUS
 62
     1
 10
 3.27234659657915E+0000
 20
 6.46083155836823E+0000
 11
 3.26302683168979E+0000
 21
 6.45151179347886E+0000
  0
LINE
  8
1
  6
CONTINUOUS
 62
     1
 10
 7.18414506835688E+0000
 20
 6.11571775410266E+0000
 11
 7.18414506835688E+0000
 21
 6.11571775410266E+0000
  0
LINE
  8
1
  6
CONTINUOUS
 62
     1
 10
 7.18414506835688E+0000
 20
 6.11571775410266E+0000
 11
 7.34343439500662E+0000
 21
 6.08853623273899E+0000
  0
LINE
  8
1
  6
CONTINUOUS
 62
     1
 10
 7.34343439500662E+0000
 20
 6.08853623273899E+0000
 11
 7.34343439500662E+0000
 21
 6.14893987021060E+0000
  0
LINE
  8
1
  6
CONTINUOUS
 62
     1
 10
 7.34343439500662E+0000
 20
 6.14893987021060E+0000
 11
 7.18414506835688E+0000
 21
 6.11571775410266E+0000
  0
LINE
  8
1
  6
CONTINUOUS
 62
     1
 10
 7.34343439500662E+0000
 20
 6.08853623273899E+0000
 11
 7.34343439500662E+0000
 21
 6.14893987021060E+0000
  0
LINE
  8
1
  6
CONTINUOUS
 62
     1
 10
 7.19659699833574E+0000
 20
 6.11359292623820E+0000
 11
 7.19269000011263E+0000
 21
 6.11749992445402E+0000
  0
LINE
  8
1
  6
CONTINUOUS
 62
     1
 10
 7.22150085825706E+0000
 20
 6.10934327050199E+0000
 11
 7.20977986360231E+0000
 21
 6.12106426514947E+0000
  0
LINE
  8
1
  6
CONTINUOUS
 62
     1
 10
 7.24640471817111E+0000
 20
 6.10509361476579E+0000
 11
 7.22686972709926E+0000
 21
 6.12462860584492E+0000
  0
LINE
  8
1
  6
CONTINUOUS
 62
     1
 10
 7.27130857809243E+0000
 20
 6.10084395902959E+0000
 11
 7.24395959058893E+0000
 21
 6.12819294654037E+0000
  0
LINE
  8
1
  6
CONTINUOUS
 62
     1
 10
 7.29621243801375E+0000
 20
 6.09659430329339E+0000
 11
 7.26104945407860E+0000
 21
 6.13175728722854E+0000
  0
LINE
  8
1
  6
CONTINUOUS
 62
     1
 10
 7.32111629793508E+0000
 20
 6.09234464755718E+0000
 11
 7.27813931756828E+0000
 21
 6.13532162792399E+0000
  0
LINE
  8
1
  6
CONTINUOUS
 62
     1
 10
 7.34343439500662E+0000
 20
 6.09068075467076E+0000
 11
 7.29522918106522E+0000
 21
 6.13888596861943E+0000
  0
LINE
  8
1
  6
CONTINUOUS
 62
     1
 10
 7.34343439500662E+0000
 20
 6.11133495886315E+0000
 11
 7.31231904455490E+0000
 21
 6.14245030931488E+0000
  0
LINE
  8
1
  6
CONTINUOUS
 62
     1
 10
 7.34343439500662E+0000
 20
 6.13198916304827E+0000
 11
 7.32940890804457E+0000
 21
 6.14601465001033E+0000
  0
LINE
  8
1
  6
CONTINUOUS
 62
     1
 10
 7.34343439499935E+0000
 20
 6.09886333482427E+0000
 11
 7.33461265607184E+0000
 21
 6.09004159589676E+0000
  0
LINE
  8
1
  6
CONTINUOUS
 62
     1
 10
 7.34343439499935E+0000
 20
 6.11951753900939E+0000
 11
 7.31696917821682E+0000
 21
 6.09305232222687E+0000
  0
LINE
  8
1
  6
CONTINUOUS
 62
     1
 10
 7.34343439499935E+0000
 20
 6.14017174319451E+0000
 11
 7.29932570036181E+0000
 21
 6.09606304855697E+0000
  0
LINE
  8
1
  6
CONTINUOUS
 62
     1
 10
 7.32841601534892E+0000
 20
 6.14580756772921E+0000
 11
 7.28168222250679E+0000
 21
 6.09907377489435E+0000
  0
LINE
  8
1
  6
CONTINUOUS
 62
     1
 10
 7.30231887030823E+0000
 20
 6.14036462688091E+0000
 11
 7.26403874465905E+0000
 21
 6.10208450122445E+0000
  0
LINE
  8
1
  6
CONTINUOUS
 62
     1
 10
 7.27622172528208E+0000
 20
 6.13492168603261E+0000
 11
 7.24639526680403E+0000
 21
 6.10509522755456E+0000
  0
LINE
  8
1
  6
CONTINUOUS
 62
     1
 10
 7.25012458025594E+0000
 20
 6.12947874519159E+0000
 11
 7.22875178894901E+0000
 21
 6.10810595388466E+0000
  0
LINE
  8
1
  6
CONTINUOUS
 62
     1
 10
 7.22402743521525E+0000
 20
 6.12403580433602E+0000
 11
 7.21110831109399E+0000
 21
 6.11111668022204E+0000
  0
LINE
  8
1
  6
CONTINUOUS
 62
     1
 10
 7.19793029018183E+0000
 20
 6.11859286349500E+0000
 11
 7.19346483323898E+0000
 21
 6.11412740655214E+0000
  0
LINE
  8
1
  6
CONTINUOUS
 62
     1
 10
 7.18414506835688E+0000
 20
 6.11571775410266E+0000
 11
 7.18414506835688E+0000
 21
 6.11571775410266E+0000
  0
LINE
  8
1
  6
CONTINUOUS
 62
     1
 10
 7.18414506835688E+0000
 20
 6.11571775410266E+0000
 11
 7.34343439500662E+0000
 21
 6.08853623273899E+0000
  0
LINE
  8
1
  6
CONTINUOUS
 62
     1
 10
 7.34343439500662E+0000
 20
 6.08853623273899E+0000
 11
 7.34343439500662E+0000
 21
 6.14893987021060E+0000
  0
LINE
  8
1
  6
CONTINUOUS
 62
     1
 10
 7.34343439500662E+0000
 20
 6.14893987021060E+0000
 11
 7.18414506835688E+0000
 21
 6.11571775410266E+0000
  0
LINE
  8
1
  6
CONTINUOUS
 62
     1
 10
 7.34343439500662E+0000
 20
 6.08853623273899E+0000
 11
 7.34343439500662E+0000
 21
 6.14893987021060E+0000
  0
LINE
  8
1
  6
CONTINUOUS
 62
     1
 10
 7.19659699833574E+0000
 20
 6.11359292623820E+0000
 11
 7.19269000011263E+0000
 21
 6.11749992445402E+0000
  0
LINE
  8
1
  6
CONTINUOUS
 62
     1
 10
 7.22150085825706E+0000
 20
 6.10934327050199E+0000
 11
 7.20977986360231E+0000
 21
 6.12106426514947E+0000
  0
LINE
  8
1
  6
CONTINUOUS
 62
     1
 10
 7.24640471817111E+0000
 20
 6.10509361476579E+0000
 11
 7.22686972709926E+0000
 21
 6.12462860584492E+0000
  0
LINE
  8
1
  6
CONTINUOUS
 62
     1
 10
 7.27130857809243E+0000
 20
 6.10084395902959E+0000
 11
 7.24395959058893E+0000
 21
 6.12819294654037E+0000
  0
LINE
  8
1
  6
CONTINUOUS
 62
     1
 10
 7.29621243801375E+0000
 20
 6.09659430329339E+0000
 11
 7.26104945407860E+0000
 21
 6.13175728722854E+0000
  0
LINE
  8
1
  6
CONTINUOUS
 62
     1
 10
 7.32111629793508E+0000
 20
 6.09234464755718E+0000
 11
 7.27813931756828E+0000
 21
 6.13532162792399E+0000
  0
LINE
  8
1
  6
CONTINUOUS
 62
     1
 10
 7.34343439500662E+0000
 20
 6.09068075467076E+0000
 11
 7.29522918106522E+0000
 21
 6.13888596861943E+0000
  0
LINE
  8
1
  6
CONTINUOUS
 62
     1
 10
 7.34343439500662E+0000
 20
 6.11133495886315E+0000
 11
 7.31231904455490E+0000
 21
 6.14245030931488E+0000
  0
LINE
  8
1
  6
CONTINUOUS
 62
     1
 10
 7.34343439500662E+0000
 20
 6.13198916304827E+0000
 11
 7.32940890804457E+0000
 21
 6.14601465001033E+0000
  0
LINE
  8
1
  6
CONTINUOUS
 62
     1
 10
 7.34343439499935E+0000
 20
 6.09886333482427E+0000
 11
 7.33461265607184E+0000
 21
 6.09004159589676E+0000
  0
LINE
  8
1
  6
CONTINUOUS
 62
     1
 10
 7.34343439499935E+0000
 20
 6.11951753900939E+0000
 11
 7.31696917821682E+0000
 21
 6.09305232222687E+0000
  0
LINE
  8
1
  6
CONTINUOUS
 62
     1
 10
 7.34343439499935E+0000
 20
 6.14017174319451E+0000
 11
 7.29932570036181E+0000
 21
 6.09606304855697E+0000
  0
LINE
  8
1
  6
CONTINUOUS
 62
     1
 10
 7.32841601534892E+0000
 20
 6.14580756772921E+0000
 11
 7.28168222250679E+0000
 21
 6.09907377489435E+0000
  0
LINE
  8
1
  6
CONTINUOUS
 62
     1
 10
 7.30231887030823E+0000
 20
 6.14036462688091E+0000
 11
 7.26403874465905E+0000
 21
 6.10208450122445E+0000
  0
LINE
  8
1
  6
CONTINUOUS
 62
     1
 10
 7.27622172528208E+0000
 20
 6.13492168603261E+0000
 11
 7.24639526680403E+0000
 21
 6.10509522755456E+0000
  0
LINE
  8
1
  6
CONTINUOUS
 62
     1
 10
 7.25012458025594E+0000
 20
 6.12947874519159E+0000
 11
 7.22875178894901E+0000
 21
 6.10810595388466E+0000
  0
LINE
  8
1
  6
CONTINUOUS
 62
     1
 10
 7.22402743521525E+0000
 20
 6.12403580433602E+0000
 11
 7.21110831109399E+0000
 21
 6.11111668022204E+0000
  0
LINE
  8
1
  6
CONTINUOUS
 62
     1
 10
 7.19793029018183E+0000
 20
 6.11859286349500E+0000
 11
 7.19346483323898E+0000
 21
 6.11412740655214E+0000
  0
LINE
  8
1
  6
CONTINUOUS
 62
     1
 10
 7.75869999155839E+0000
 20
 6.11674065129046E+0000
 11
 7.75869999155839E+0000
 21
 6.11674065129046E+0000
  0
LINE
  8
1
  6
CONTINUOUS
 62
     1
 10
 7.75869999155839E+0000
 20
 6.11674065129046E+0000
 11
 7.59941066492320E+0000
 21
 6.14392217265413E+0000
  0
LINE
  8
1
  6
CONTINUOUS
 62
     1
 10
 7.59941066492320E+0000
 20
 6.14392217265413E+0000
 11
 7.59941066492320E+0000
 21
 6.08351853518252E+0000
  0
LINE
  8
1
  6
CONTINUOUS
 62
     1
 10
 7.59941066492320E+0000
 20
 6.08351853518252E+0000
 11
 7.75869999155839E+0000
 21
 6.11674065129046E+0000
  0
LINE
  8
1
  6
CONTINUOUS
 62
     1
 10
 7.59941066492320E+0000
 20
 6.14392217265413E+0000
 11
 7.59941066492320E+0000
 21
 6.08351853518252E+0000
  0
LINE
  8
1
  6
CONTINUOUS
 62
     1
 10
 7.60795559667895E+0000
 20
 6.08530070553388E+0000
 11
 7.59941066493047E+0000
 21
 6.09384563728963E+0000
  0
LINE
  8
1
  6
CONTINUOUS
 62
     1
 10
 7.62504546016862E+0000
 20
 6.08886504622933E+0000
 11
 7.59941066492320E+0000
 21
 6.11449984147475E+0000
  0
LINE
  8
1
  6
CONTINUOUS
 62
     1
 10
 7.64213532365829E+0000
 20
 6.09242938692478E+0000
 11
 7.59941066492320E+0000
 21
 6.13515404565987E+0000
  0
LINE
  8
1
  6
CONTINUOUS
 62
     1
 10
 7.65922518715524E+0000
 20
 6.09599372762023E+0000
 11
 7.61374233313109E+0000
 21
 6.14147658164438E+0000
  0
LINE
  8
1
  6
CONTINUOUS
 62
     1
 10
 7.67631505064492E+0000
 20
 6.09955806831567E+0000
 11
 7.63864619304513E+0000
 21
 6.13722692590818E+0000
  0
LINE
  8
1
  6
CONTINUOUS
 62
     1
 10
 7.69340491413459E+0000
 20
 6.10312240901112E+0000
 11
 7.66355005296646E+0000
 21
 6.13297727017925E+0000
  0
LINE
  8
1
  6
CONTINUOUS
 62
     1
 10
 7.71049477762426E+0000
 20
 6.10668674970657E+0000
 11
 7.68845391288778E+0000
 21
 6.12872761444305E+0000
  0
LINE
  8
1
  6
CONTINUOUS
 62
     1
 10
 7.72758464111394E+0000
 20
 6.11025109040202E+0000
 11
 7.71335777280183E+0000
 21
 6.12447795870685E+0000
  0
LINE
  8
1
  6
CONTINUOUS
 62
     1
 10
 7.74467450460361E+0000
 20
 6.11381543109746E+0000
 11
 7.73826163272315E+0000
 21
 6.12022830297792E+0000
  0
LINE
  8
1
  6
CONTINUOUS
 62
     1
 10
 7.74987825262360E+0000
 20
 6.11824601445551E+0000
 11
 7.74565141902713E+0000
 21
 6.11401918085176E+0000
  0
LINE
  8
1
  6
CONTINUOUS
 62
     1
 10
 7.73223477477586E+0000
 20
 6.12125674078561E+0000
 11
 7.71955427400098E+0000
 21
 6.10857624001073E+0000
  0
LINE
  8
1
  6
CONTINUOUS
 62
     1
 10
 7.71459129692084E+0000
 20
 6.12426746711571E+0000
 11
 7.69345712897484E+0000
 21
 6.10313329916971E+0000
  0
LINE
  8
1
  6
CONTINUOUS
 62
     1
 10
 7.69694781906583E+0000
 20
 6.12727819344582E+0000
 11
 7.66735998393415E+0000
 21
 6.09769035831414E+0000
  0
LINE
  8
1
  6
CONTINUOUS
 62
     1
 10
 7.67930434121081E+0000
 20
 6.13028891978320E+0000
 11
 7.64126283890073E+0000
 21
 6.09224741747312E+0000
  0
LINE
  8
1
  6
CONTINUOUS
 62
     1
 10
 7.66166086335579E+0000
 20
 6.13329964611330E+0000
 11
 7.61516569387459E+0000
 21
 6.08680447663210E+0000
  0
LINE
  8
1
  6
CONTINUOUS
 62
     1
 10
 7.64401738550805E+0000
 20
 6.13631037244340E+0000
 11
 7.59941066490865E+0000
 21
 6.09170365185128E+0000
  0
LINE
  8
1
  6
CONTINUOUS
 62
     1
 10
 7.62637390765303E+0000
 20
 6.13932109877351E+0000
 11
 7.59941066490865E+0000
 21
 6.11235785603640E+0000
  0
LINE
  8
1
  6
CONTINUOUS
 62
     1
 10
 7.60873042981257E+0000
 20
 6.14233182511816E+0000
 11
 7.59941066492320E+0000
 21
 6.13301206022879E+0000
  0
LINE
  8
1
  6
CONTINUOUS
 62
     1
 10
 7.75869999155839E+0000
 20
 6.11674065129046E+0000
 11
 7.75869999155839E+0000
 21
 6.11674065129046E+0000
  0
LINE
  8
1
  6
CONTINUOUS
 62
     1
 10
 7.75869999155839E+0000
 20
 6.11674065129046E+0000
 11
 7.59941066492320E+0000
 21
 6.14392217265413E+0000
  0
LINE
  8
1
  6
CONTINUOUS
 62
     1
 10
 7.59941066492320E+0000
 20
 6.14392217265413E+0000
 11
 7.59941066492320E+0000
 21
 6.08351853518252E+0000
  0
LINE
  8
1
  6
CONTINUOUS
 62
     1
 10
 7.59941066492320E+0000
 20
 6.08351853518252E+0000
 11
 7.75869999155839E+0000
 21
 6.11674065129046E+0000
  0
LINE
  8
1
  6
CONTINUOUS
 62
     1
 10
 7.59941066492320E+0000
 20
 6.14392217265413E+0000
 11
 7.59941066492320E+0000
 21
 6.08351853518252E+0000
  0
LINE
  8
1
  6
CONTINUOUS
 62
     1
 10
 7.60795559667895E+0000
 20
 6.08530070553388E+0000
 11
 7.59941066493047E+0000
 21
 6.09384563728963E+0000
  0
LINE
  8
1
  6
CONTINUOUS
 62
     1
 10
 7.62504546016862E+0000
 20
 6.08886504622933E+0000
 11
 7.59941066492320E+0000
 21
 6.11449984147475E+0000
  0
LINE
  8
1
  6
CONTINUOUS
 62
     1
 10
 7.64213532365829E+0000
 20
 6.09242938692478E+0000
 11
 7.59941066492320E+0000
 21
 6.13515404565987E+0000
  0
LINE
  8
1
  6
CONTINUOUS
 62
     1
 10
 7.65922518715524E+0000
 20
 6.09599372762023E+0000
 11
 7.61374233313109E+0000
 21
 6.14147658164438E+0000
  0
LINE
  8
1
  6
CONTINUOUS
 62
     1
 10
 7.67631505064492E+0000
 20
 6.09955806831567E+0000
 11
 7.63864619304513E+0000
 21
 6.13722692590818E+0000
  0
LINE
  8
1
  6
CONTINUOUS
 62
     1
 10
 7.69340491413459E+0000
 20
 6.10312240901112E+0000
 11
 7.66355005296646E+0000
 21
 6.13297727017925E+0000
  0
LINE
  8
1
  6
CONTINUOUS
 62
     1
 10
 7.71049477762426E+0000
 20
 6.10668674970657E+0000
 11
 7.68845391288778E+0000
 21
 6.12872761444305E+0000
  0
LINE
  8
1
  6
CONTINUOUS
 62
     1
 10
 7.72758464111394E+0000
 20
 6.11025109040202E+0000
 11
 7.71335777280183E+0000
 21
 6.12447795870685E+0000
  0
LINE
  8
1
  6
CONTINUOUS
 62
     1
 10
 7.74467450460361E+0000
 20
 6.11381543109746E+0000
 11
 7.73826163272315E+0000
 21
 6.12022830297792E+0000
  0
LINE
  8
1
  6
CONTINUOUS
 62
     1
 10
 7.74987825262360E+0000
 20
 6.11824601445551E+0000
 11
 7.74565141902713E+0000
 21
 6.11401918085176E+0000
  0
LINE
  8
1
  6
CONTINUOUS
 62
     1
 10
 7.73223477477586E+0000
 20
 6.12125674078561E+0000
 11
 7.71955427400098E+0000
 21
 6.10857624001073E+0000
  0
LINE
  8
1
  6
CONTINUOUS
 62
     1
 10
 7.71459129692084E+0000
 20
 6.12426746711571E+0000
 11
 7.69345712897484E+0000
 21
 6.10313329916971E+0000
  0
LINE
  8
1
  6
CONTINUOUS
 62
     1
 10
 7.69694781906583E+0000
 20
 6.12727819344582E+0000
 11
 7.66735998393415E+0000
 21
 6.09769035831414E+0000
  0
LINE
  8
1
  6
CONTINUOUS
 62
     1
 10
 7.67930434121081E+0000
 20
 6.13028891978320E+0000
 11
 7.64126283890073E+0000
 21
 6.09224741747312E+0000
  0
LINE
  8
1
  6
CONTINUOUS
 62
     1
 10
 7.66166086335579E+0000
 20
 6.13329964611330E+0000
 11
 7.61516569387459E+0000
 21
 6.08680447663210E+0000
  0
LINE
  8
1
  6
CONTINUOUS
 62
     1
 10
 7.64401738550805E+0000
 20
 6.13631037244340E+0000
 11
 7.59941066490865E+0000
 21
 6.09170365185128E+0000
  0
LINE
  8
1
  6
CONTINUOUS
 62
     1
 10
 7.62637390765303E+0000
 20
 6.13932109877351E+0000
 11
 7.59941066490865E+0000
 21
 6.11235785603640E+0000
  0
LINE
  8
1
  6
CONTINUOUS
 62
     1
 10
 7.60873042981257E+0000
 20
 6.14233182511816E+0000
 11
 7.59941066492320E+0000
 21
 6.13301206022879E+0000
  0
LINE
  8
1
  6
CONTINUOUS
 62
     1
 10
 7.08968918288156E+0000
 20
 6.43421748736000E+0000
 11
 7.08968918288156E+0000
 21
 6.43421748736000E+0000
  0
LINE
  8
1
  6
CONTINUOUS
 62
     1
 10
 7.08968918288156E+0000
 20
 6.43421748736000E+0000
 11
 7.24897850953130E+0000
 21
 6.40703596599633E+0000
  0
LINE
  8
1
  6
CONTINUOUS
 62
     1
 10
 7.24897850953130E+0000
 20
 6.40703596599633E+0000
 11
 7.24897850953130E+0000
 21
 6.46743960346794E+0000
  0
LINE
  8
1
  6
CONTINUOUS
 62
     1
 10
 7.24897850953130E+0000
 20
 6.46743960346794E+0000
 11
 7.08968918288156E+0000
 21
 6.43421748736000E+0000
  0
LINE
  8
1
  6
CONTINUOUS
 62
     1
 10
 7.24897850953130E+0000
 20
 6.40703596599633E+0000
 11
 7.24897850953130E+0000
 21
 6.46743960346794E+0000
  0
LINE
  8
1
  6
CONTINUOUS
 62
     1
 10
 7.10214111286041E+0000
 20
 6.43209265949554E+0000
 11
 7.09823411464458E+0000
 21
 6.43599965771864E+0000
  0
LINE
  8
1
  6
CONTINUOUS
 62
     1
 10
 7.12704497278173E+0000
 20
 6.42784300375934E+0000
 11
 7.11532397813426E+0000
 21
 6.43956399840681E+0000
  0
LINE
  8
1
  6
CONTINUOUS
 62
     1
 10
 7.15194883270306E+0000
 20
 6.42359334802313E+0000
 11
 7.13241384162393E+0000
 21
 6.44312833910226E+0000
  0
LINE
  8
1
  6
CONTINUOUS
 62
     1
 10
 7.17685269262438E+0000
 20
 6.41934369229421E+0000
 11
 7.14950370511360E+0000
 21
 6.44669267979771E+0000
  0
LINE
  8
1
  6
CONTINUOUS
 62
     1
 10
 7.20175655254570E+0000
 20
 6.41509403655800E+0000
 11
 7.16659356861055E+0000
 21
 6.45025702049315E+0000
  0
LINE
  8
1
  6
CONTINUOUS
 62
     1
 10
 7.22666041246703E+0000
 20
 6.41084438082180E+0000
 11
 7.18368343210022E+0000
 21
 6.45382136118860E+0000
  0
LINE
  8
1
  6
CONTINUOUS
 62
     1
 10
 7.24897850953857E+0000
 20
 6.40918048793537E+0000
 11
 7.20077329558990E+0000
 21
 6.45738570187677E+0000
  0
LINE
  8
1
  6
CONTINUOUS
 62
     1
 10
 7.24897850953130E+0000
 20
 6.42983469212049E+0000
 11
 7.21786315907957E+0000
 21
 6.46095004257222E+0000
  0
LINE
  8
1
  6
CONTINUOUS
 62
     1
 10
 7.24897850953130E+0000
 20
 6.45048889630561E+0000
 11
 7.23495302257652E+0000
 21
 6.46451438326767E+0000
  0
LINE
  8
1
  6
CONTINUOUS
 62
     1
 10
 7.24897850952402E+0000
 20
 6.41736306808161E+0000
 11
 7.24015677059651E+0000
 21
 6.40854132915410E+0000
  0
LINE
  8
1
  6
CONTINUOUS
 62
     1
 10
 7.24897850952402E+0000
 20
 6.43801727226673E+0000
 11
 7.22251329274150E+0000
 21
 6.41155205549148E+0000
  0
LINE
  8
1
  6
CONTINUOUS
 62
     1
 10
 7.24897850952402E+0000
 20
 6.45867147645185E+0000
 11
 7.20486981489375E+0000
 21
 6.41456278182159E+0000
  0
LINE
  8
1
  6
CONTINUOUS
 62
     1
 10
 7.23396012988087E+0000
 20
 6.46430730099382E+0000
 11
 7.18722633703874E+0000
 21
 6.41757350815169E+0000
  0
LINE
  8
1
  6
CONTINUOUS
 62
     1
 10
 7.20786298484018E+0000
 20
 6.45886436013825E+0000
 11
 7.16958285918372E+0000
 21
 6.42058423448179E+0000
  0
LINE
  8
1
  6
CONTINUOUS
 62
     1
 10
 7.18176583980676E+0000
 20
 6.45342141929723E+0000
 11
 7.15193938132870E+0000
 21
 6.42359496081917E+0000
  0
LINE
  8
1
  6
CONTINUOUS
 62
     1
 10
 7.15566869478062E+0000
 20
 6.44797847844893E+0000
 11
 7.13429590348096E+0000
 21
 6.42660568714928E+0000
  0
LINE
  8
1
  6
CONTINUOUS
 62
     1
 10
 7.12957154973992E+0000
 20
 6.44253553760063E+0000
 11
 7.11665242562594E+0000
 21
 6.42961641347938E+0000
  0
LINE
  8
1
  6
CONTINUOUS
 62
     1
 10
 7.10347440471378E+0000
 20
 6.43709259675234E+0000
 11
 7.09900894777093E+0000
 21
 6.43262713980948E+0000
  0
LINE
  8
1
  6
CONTINUOUS
 62
     1
 10
 7.08968918288156E+0000
 20
 6.43421748736000E+0000
 11
 7.08968918288156E+0000
 21
 6.43421748736000E+0000
  0
LINE
  8
1
  6
CONTINUOUS
 62
     1
 10
 7.08968918288156E+0000
 20
 6.43421748736000E+0000
 11
 7.24897850953130E+0000
 21
 6.40703596599633E+0000
  0
LINE
  8
1
  6
CONTINUOUS
 62
     1
 10
 7.24897850953130E+0000
 20
 6.40703596599633E+0000
 11
 7.24897850953130E+0000
 21
 6.46743960346794E+0000
  0
LINE
  8
1
  6
CONTINUOUS
 62
     1
 10
 7.24897850953130E+0000
 20
 6.46743960346794E+0000
 11
 7.08968918288156E+0000
 21
 6.43421748736000E+0000
  0
LINE
  8
1
  6
CONTINUOUS
 62
     1
 10
 7.24897850953130E+0000
 20
 6.40703596599633E+0000
 11
 7.24897850953130E+0000
 21
 6.46743960346794E+0000
  0
LINE
  8
1
  6
CONTINUOUS
 62
     1
 10
 7.10214111286041E+0000
 20
 6.43209265949554E+0000
 11
 7.09823411464458E+0000
 21
 6.43599965771864E+0000
  0
LINE
  8
1
  6
CONTINUOUS
 62
     1
 10
 7.12704497278173E+0000
 20
 6.42784300375934E+0000
 11
 7.11532397813426E+0000
 21
 6.43956399840681E+0000
  0
LINE
  8
1
  6
CONTINUOUS
 62
     1
 10
 7.15194883270306E+0000
 20
 6.42359334802313E+0000
 11
 7.13241384162393E+0000
 21
 6.44312833910226E+0000
  0
LINE
  8
1
  6
CONTINUOUS
 62
     1
 10
 7.17685269262438E+0000
 20
 6.41934369229421E+0000
 11
 7.14950370511360E+0000
 21
 6.44669267979771E+0000
  0
LINE
  8
1
  6
CONTINUOUS
 62
     1
 10
 7.20175655254570E+0000
 20
 6.41509403655800E+0000
 11
 7.16659356861055E+0000
 21
 6.45025702049315E+0000
  0
LINE
  8
1
  6
CONTINUOUS
 62
     1
 10
 7.22666041246703E+0000
 20
 6.41084438082180E+0000
 11
 7.18368343210022E+0000
 21
 6.45382136118860E+0000
  0
LINE
  8
1
  6
CONTINUOUS
 62
     1
 10
 7.24897850953857E+0000
 20
 6.40918048793537E+0000
 11
 7.20077329558990E+0000
 21
 6.45738570187677E+0000
  0
LINE
  8
1
  6
CONTINUOUS
 62
     1
 10
 7.24897850953130E+0000
 20
 6.42983469212049E+0000
 11
 7.21786315907957E+0000
 21
 6.46095004257222E+0000
  0
LINE
  8
1
  6
CONTINUOUS
 62
     1
 10
 7.24897850953130E+0000
 20
 6.45048889630561E+0000
 11
 7.23495302257652E+0000
 21
 6.46451438326767E+0000
  0
LINE
  8
1
  6
CONTINUOUS
 62
     1
 10
 7.24897850952402E+0000
 20
 6.41736306808161E+0000
 11
 7.24015677059651E+0000
 21
 6.40854132915410E+0000
  0
LINE
  8
1
  6
CONTINUOUS
 62
     1
 10
 7.24897850952402E+0000
 20
 6.43801727226673E+0000
 11
 7.22251329274150E+0000
 21
 6.41155205549148E+0000
  0
LINE
  8
1
  6
CONTINUOUS
 62
     1
 10
 7.24897850952402E+0000
 20
 6.45867147645185E+0000
 11
 7.20486981489375E+0000
 21
 6.41456278182159E+0000
  0
LINE
  8
1
  6
CONTINUOUS
 62
     1
 10
 7.23396012988087E+0000
 20
 6.46430730099382E+0000
 11
 7.18722633703874E+0000
 21
 6.41757350815169E+0000
  0
LINE
  8
1
  6
CONTINUOUS
 62
     1
 10
 7.20786298484018E+0000
 20
 6.45886436013825E+0000
 11
 7.16958285918372E+0000
 21
 6.42058423448179E+0000
  0
LINE
  8
1
  6
CONTINUOUS
 62
     1
 10
 7.18176583980676E+0000
 20
 6.45342141929723E+0000
 11
 7.15193938132870E+0000
 21
 6.42359496081917E+0000
  0
LINE
  8
1
  6
CONTINUOUS
 62
     1
 10
 7.15566869478062E+0000
 20
 6.44797847844893E+0000
 11
 7.13429590348096E+0000
 21
 6.42660568714928E+0000
  0
LINE
  8
1
  6
CONTINUOUS
 62
     1
 10
 7.12957154973992E+0000
 20
 6.44253553760063E+0000
 11
 7.11665242562594E+0000
 21
 6.42961641347938E+0000
  0
LINE
  8
1
  6
CONTINUOUS
 62
     1
 10
 7.10347440471378E+0000
 20
 6.43709259675234E+0000
 11
 7.09900894777093E+0000
 21
 6.43262713980948E+0000
  0
LINE
  8
1
  6
CONTINUOUS
 62
     1
 10
 7.75869999155839E+0000
 20
 6.43524038454780E+0000
 11
 7.75869999155839E+0000
 21
 6.43524038454780E+0000
  0
LINE
  8
1
  6
CONTINUOUS
 62
     1
 10
 7.75869999155839E+0000
 20
 6.43524038454780E+0000
 11
 7.59941066492320E+0000
 21
 6.46242190591147E+0000
  0
LINE
  8
1
  6
CONTINUOUS
 62
     1
 10
 7.59941066492320E+0000
 20
 6.46242190591147E+0000
 11
 7.59941066492320E+0000
 21
 6.40201826843986E+0000
  0
LINE
  8
1
  6
CONTINUOUS
 62
     1
 10
 7.59941066492320E+0000
 20
 6.40201826843986E+0000
 11
 7.75869999155839E+0000
 21
 6.43524038454780E+0000
  0
LINE
  8
1
  6
CONTINUOUS
 62
     1
 10
 7.59941066492320E+0000
 20
 6.46242190591147E+0000
 11
 7.59941066492320E+0000
 21
 6.40201826843986E+0000
  0
LINE
  8
1
  6
CONTINUOUS
 62
     1
 10
 7.60795559667895E+0000
 20
 6.40380043879122E+0000
 11
 7.59941066492320E+0000
 21
 6.41234537054697E+0000
  0
LINE
  8
1
  6
CONTINUOUS
 62
     1
 10
 7.62504546016862E+0000
 20
 6.40736477948667E+0000
 11
 7.59941066492320E+0000
 21
 6.43299957473209E+0000
  0
LINE
  8
1
  6
CONTINUOUS
 62
     1
 10
 7.64213532365829E+0000
 20
 6.41092912018212E+0000
 11
 7.59941066492320E+0000
 21
 6.45365377891721E+0000
  0
LINE
  8
1
  6
CONTINUOUS
 62
     1
 10
 7.65922518714797E+0000
 20
 6.41449346087029E+0000
 11
 7.61374233312381E+0000
 21
 6.45997631490172E+0000
  0
LINE
  8
1
  6
CONTINUOUS
 62
     1
 10
 7.67631505063764E+0000
 20
 6.41805780156574E+0000
 11
 7.63864619304513E+0000
 21
 6.45572665916552E+0000
  0
LINE
  8
1
  6
CONTINUOUS
 62
     1
 10
 7.69340491412731E+0000
 20
 6.42162214226119E+0000
 11
 7.66355005296646E+0000
 21
 6.45147700342932E+0000
  0
LINE
  8
1
  6
CONTINUOUS
 62
     1
 10
 7.71049477762426E+0000
 20
 6.42518648295663E+0000
 11
 7.68845391288050E+0000
 21
 6.44722734769312E+0000
  0
LINE
  8
1
  6
CONTINUOUS
 62
     1
 10
 7.72758464111394E+0000
 20
 6.42875082365208E+0000
 11
 7.71335777280183E+0000
 21
 6.44297769196419E+0000
  0
LINE
  8
1
  6
CONTINUOUS
 62
     1
 10
 7.74467450460361E+0000
 20
 6.43231516434753E+0000
 11
 7.73826163272315E+0000
 21
 6.43872803622799E+0000
  0
LINE
  8
1
  6
CONTINUOUS
 62
     1
 10
 7.74987825263088E+0000
 20
 6.43674574772012E+0000
 11
 7.74565141903440E+0000
 21
 6.43251891411637E+0000
  0
LINE
  8
1
  6
CONTINUOUS
 62
     1
 10
 7.73223477478314E+0000
 20
 6.43975647405023E+0000
 11
 7.71955427400826E+0000
 21
 6.42707597327535E+0000
  0
LINE
  8
1
  6
CONTINUOUS
 62
     1
 10
 7.71459129692812E+0000
 20
 6.44276720038033E+0000
 11
 7.69345712898212E+0000
 21
 6.42163303243433E+0000
  0
LINE
  8
1
  6
CONTINUOUS
 62
     1
 10
 7.69694781907310E+0000
 20
 6.44577792671043E+0000
 11
 7.66735998394142E+0000
 21
 6.41619009157876E+0000
  0
LINE
  8
1
  6
CONTINUOUS
 62
     1
 10
 7.67930434121809E+0000
 20
 6.44878865304781E+0000
 11
 7.64126283890801E+0000
 21
 6.41074715073773E+0000
  0
LINE
  8
1
  6
CONTINUOUS
 62
     1
 10
 7.66166086336307E+0000
 20
 6.45179937937792E+0000
 11
 7.61516569388186E+0000
 21
 6.40530420988944E+0000
  0
LINE
  8
1
  6
CONTINUOUS
 62
     1
 10
 7.64401738551533E+0000
 20
 6.45481010570802E+0000
 11
 7.59941066491592E+0000
 21
 6.41020338511589E+0000
  0
LINE
  8
1
  6
CONTINUOUS
 62
     1
 10
 7.62637390766031E+0000
 20
 6.45782083203812E+0000
 11
 7.59941066491592E+0000
 21
 6.43085758930101E+0000
  0
LINE
  8
1
  6
CONTINUOUS
 62
     1
 10
 7.60873042980529E+0000
 20
 6.46083155836823E+0000
 11
 7.59941066491592E+0000
 21
 6.45151179348613E+0000
  0
LINE
  8
1
  6
CONTINUOUS
 62
     1
 10
 7.75869999155839E+0000
 20
 6.43524038454780E+0000
 11
 7.75869999155839E+0000
 21
 6.43524038454780E+0000
  0
LINE
  8
1
  6
CONTINUOUS
 62
     1
 10
 7.75869999155839E+0000
 20
 6.43524038454780E+0000
 11
 7.59941066492320E+0000
 21
 6.46242190591147E+0000
  0
LINE
  8
1
  6
CONTINUOUS
 62
     1
 10
 7.59941066492320E+0000
 20
 6.46242190591147E+0000
 11
 7.59941066492320E+0000
 21
 6.40201826843986E+0000
  0
LINE
  8
1
  6
CONTINUOUS
 62
     1
 10
 7.59941066492320E+0000
 20
 6.40201826843986E+0000
 11
 7.75869999155839E+0000
 21
 6.43524038454780E+0000
  0
LINE
  8
1
  6
CONTINUOUS
 62
     1
 10
 7.59941066492320E+0000
 20
 6.46242190591147E+0000
 11
 7.59941066492320E+0000
 21
 6.40201826843986E+0000
  0
LINE
  8
1
  6
CONTINUOUS
 62
     1
 10
 7.60795559667895E+0000
 20
 6.40380043879122E+0000
 11
 7.59941066492320E+0000
 21
 6.41234537054697E+0000
  0
LINE
  8
1
  6
CONTINUOUS
 62
     1
 10
 7.62504546016862E+0000
 20
 6.40736477948667E+0000
 11
 7.59941066492320E+0000
 21
 6.43299957473209E+0000
  0
LINE
  8
1
  6
CONTINUOUS
 62
     1
 10
 7.64213532365829E+0000
 20
 6.41092912018212E+0000
 11
 7.59941066492320E+0000
 21
 6.45365377891721E+0000
  0
LINE
  8
1
  6
CONTINUOUS
 62
     1
 10
 7.65922518714797E+0000
 20
 6.41449346087029E+0000
 11
 7.61374233312381E+0000
 21
 6.45997631490172E+0000
  0
LINE
  8
1
  6
CONTINUOUS
 62
     1
 10
 7.67631505063764E+0000
 20
 6.41805780156574E+0000
 11
 7.63864619304513E+0000
 21
 6.45572665916552E+0000
  0
LINE
  8
1
  6
CONTINUOUS
 62
     1
 10
 7.69340491412731E+0000
 20
 6.42162214226119E+0000
 11
 7.66355005296646E+0000
 21
 6.45147700342932E+0000
  0
LINE
  8
1
  6
CONTINUOUS
 62
     1
 10
 7.71049477762426E+0000
 20
 6.42518648295663E+0000
 11
 7.68845391288050E+0000
 21
 6.44722734769312E+0000
  0
LINE
  8
1
  6
CONTINUOUS
 62
     1
 10
 7.72758464111394E+0000
 20
 6.42875082365208E+0000
 11
 7.71335777280183E+0000
 21
 6.44297769196419E+0000
  0
LINE
  8
1
  6
CONTINUOUS
 62
     1
 10
 7.74467450460361E+0000
 20
 6.43231516434753E+0000
 11
 7.73826163272315E+0000
 21
 6.43872803622799E+0000
  0
LINE
  8
1
  6
CONTINUOUS
 62
     1
 10
 7.74987825263088E+0000
 20
 6.43674574772012E+0000
 11
 7.74565141903440E+0000
 21
 6.43251891411637E+0000
  0
LINE
  8
1
  6
CONTINUOUS
 62
     1
 10
 7.73223477478314E+0000
 20
 6.43975647405023E+0000
 11
 7.71955427400826E+0000
 21
 6.42707597327535E+0000
  0
LINE
  8
1
  6
CONTINUOUS
 62
     1
 10
 7.71459129692812E+0000
 20
 6.44276720038033E+0000
 11
 7.69345712898212E+0000
 21
 6.42163303243433E+0000
  0
LINE
  8
1
  6
CONTINUOUS
 62
     1
 10
 7.69694781907310E+0000
 20
 6.44577792671043E+0000
 11
 7.66735998394142E+0000
 21
 6.41619009157876E+0000
  0
LINE
  8
1
  6
CONTINUOUS
 62
     1
 10
 7.67930434121809E+0000
 20
 6.44878865304781E+0000
 11
 7.64126283890801E+0000
 21
 6.41074715073773E+0000
  0
LINE
  8
1
  6
CONTINUOUS
 62
     1
 10
 7.66166086336307E+0000
 20
 6.45179937937792E+0000
 11
 7.61516569388186E+0000
 21
 6.40530420988944E+0000
  0
LINE
  8
1
  6
CONTINUOUS
 62
     1
 10
 7.64401738551533E+0000
 20
 6.45481010570802E+0000
 11
 7.59941066491592E+0000
 21
 6.41020338511589E+0000
  0
LINE
  8
1
  6
CONTINUOUS
 62
     1
 10
 7.62637390766031E+0000
 20
 6.45782083203812E+0000
 11
 7.59941066491592E+0000
 21
 6.43085758930101E+0000
  0
LINE
  8
1
  6
CONTINUOUS
 62
     1
 10
 7.60873042980529E+0000
 20
 6.46083155836823E+0000
 11
 7.59941066491592E+0000
 21
 6.45151179348613E+0000
  0
LINE
  8
1
  6
CONTINUOUS
 62
     1
 10
 6.61198690731544E+0000
 20
 3.62501659617556E+0000
 11
 6.61198690731544E+0000
 21
 3.62501659617556E+0000
  0
LINE
  8
1
  6
CONTINUOUS
 62
     1
 10
 6.61198690731544E+0000
 20
 3.62501659617556E+0000
 11
 6.63916842867911E+0000
 21
 3.78430592280347E+0000
  0
LINE
  8
1
  6
CONTINUOUS
 62
     1
 10
 6.63916842867911E+0000
 20
 3.78430592280347E+0000
 11
 6.57876479120750E+0000
 21
 3.78430592280347E+0000
  0
LINE
  8
1
  6
CONTINUOUS
 62
     1
 10
 6.57876479120750E+0000
 20
 3.78430592280347E+0000
 11
 6.61198690731544E+0000
 21
 3.62501659617556E+0000
  0
LINE
  8
1
  6
CONTINUOUS
 62
     1
 10
 6.63916842867911E+0000
 20
 3.78430592280347E+0000
 11
 6.57876479120750E+0000
 21
 3.78430592280347E+0000
  0
LINE
  8
1
  6
CONTINUOUS
 62
     1
 10
 6.61349227048777E+0000
 20
 3.63383833510670E+0000
 11
 6.60926543689129E+0000
 21
 3.63806516869590E+0000
  0
LINE
  8
1
  6
CONTINUOUS
 62
     1
 10
 6.61650299681787E+0000
 20
 3.65148181295808E+0000
 11
 6.60382249605027E+0000
 21
 3.66416231372568E+0000
  0
LINE
  8
1
  6
CONTINUOUS
 62
     1
 10
 6.61951372314797E+0000
 20
 3.66912529080946E+0000
 11
 6.59837955520197E+0000
 21
 3.69025945875910E+0000
  0
LINE
  8
1
  6
CONTINUOUS
 62
     1
 10
 6.62252444948535E+0000
 20
 3.68676876866448E+0000
 11
 6.59293661435368E+0000
 21
 3.71635660379252E+0000
  0
LINE
  8
1
  6
CONTINUOUS
 62
     1
 10
 6.62553517581546E+0000
 20
 3.70441224651586E+0000
 11
 6.58749367350538E+0000
 21
 3.74245374882230E+0000
  0
LINE
  8
1
  6
CONTINUOUS
 62
     1
 10
 6.62854590214556E+0000
 20
 3.72205572437088E+0000
 11
 6.58205073266436E+0000
 21
 3.76855089385572E+0000
  0
LINE
  8
1
  6
CONTINUOUS
 62
     1
 10
 6.63155662847566E+0000
 20
 3.73969920222589E+0000
 11
 6.58694990789809E+0000
 21
 3.78430592280711E+0000
  0
LINE
  8
1
  6
CONTINUOUS
 62
     1
 10
 6.63456735481304E+0000
 20
 3.75734268007727E+0000
 11
 6.60760411208321E+0000
 21
 3.78430592280711E+0000
  0
LINE
  8
1
  6
CONTINUOUS
 62
     1
 10
 6.63757808114315E+0000
 20
 3.77498615792865E+0000
 11
 6.62825831626833E+0000
 21
 3.78430592280347E+0000
  0
LINE
  8
1
  6
CONTINUOUS
 62
     1
 10
 6.61411173517990E+0000
 20
 3.63746852612894E+0000
 11
 6.61020473696408E+0000
 21
 3.63356152791675E+0000
  0
LINE
  8
1
  6
CONTINUOUS
 62
     1
 10
 6.61836139091611E+0000
 20
 3.66237238605027E+0000
 11
 6.60664039626863E+0000
 21
 3.65065139140643E+0000
  0
LINE
  8
1
  6
CONTINUOUS
 62
     1
 10
 6.62261104664503E+0000
 20
 3.68727624597159E+0000
 11
 6.60307605557318E+0000
 21
 3.66774125489246E+0000
  0
LINE
  8
1
  6
CONTINUOUS
 62
     1
 10
 6.62686070238124E+0000
 20
 3.71218010589291E+0000
 11
 6.59951171487774E+0000
 21
 3.68483111838577E+0000
  0
LINE
  8
1
  6
CONTINUOUS
 62
     1
 10
 6.63111035811744E+0000
 20
 3.73708396581424E+0000
 11
 6.59594737418229E+0000
 21
 3.70192098187908E+0000
  0
LINE
  8
1
  6
CONTINUOUS
 62
     1
 10
 6.63536001385364E+0000
 20
 3.76198782573556E+0000
 11
 6.59238303348684E+0000
 21
 3.71901084536876E+0000
  0
LINE
  8
1
  6
CONTINUOUS
 62
     1
 10
 6.63702390673279E+0000
 20
 3.78430592279619E+0000
 11
 6.58881869279139E+0000
 21
 3.73610070885479E+0000
  0
LINE
  8
1
  6
CONTINUOUS
 62
     1
 10
 6.61636970254767E+0000
 20
 3.78430592279619E+0000
 11
 6.58525435209594E+0000
 21
 3.75319057234810E+0000
  0
LINE
  8
1
  6
CONTINUOUS
 62
     1
 10
 6.59571549836255E+0000
 20
 3.78430592279619E+0000
 11
 6.58169001140050E+0000
 21
 3.77028043583778E+0000
  0
LINE
  8
1
  6
CONTINUOUS
 62
     1
 10
 6.61468818361755E+0000
 20
 5.03944209087786E+0000
 11
 6.61468818361755E+0000
 21
 5.03944209087786E+0000
  0
LINE
  8
1
  6
CONTINUOUS
 62
     1
 10
 6.61468818361755E+0000
 20
 5.03944209087786E+0000
 11
 6.58750666225387E+0000
 21
 4.88015276424994E+0000
  0
LINE
  8
1
  6
CONTINUOUS
 62
     1
 10
 6.58750666225387E+0000
 20
 4.88015276424994E+0000
 11
 6.64791029972548E+0000
 21
 4.88015276424994E+0000
  0
LINE
  8
1
  6
CONTINUOUS
 62
     1
 10
 6.64791029972548E+0000
 20
 4.88015276424994E+0000
 11
 6.61468818361755E+0000
 21
 5.03944209087786E+0000
  0
LINE
  8
1
  6
CONTINUOUS
 62
     1
 10
 6.58750666225387E+0000
 20
 4.88015276424994E+0000
 11
 6.64791029972548E+0000
 21
 4.88015276424994E+0000
  0
LINE
  8
1
  6
CONTINUOUS
 62
     1
 10
 6.59783376436098E+0000
 20
 4.88015276425722E+0000
 11
 6.58901202542620E+0000
 21
 4.88897450319200E+0000
  0
LINE
  8
1
  6
CONTINUOUS
 62
     1
 10
 6.61848796854611E+0000
 20
 4.88015276425722E+0000
 11
 6.59202275176358E+0000
 21
 4.90661798103974E+0000
  0
LINE
  8
1
  6
CONTINUOUS
 62
     1
 10
 6.63914217273850E+0000
 20
 4.88015276424994E+0000
 11
 6.59503347809368E+0000
 21
 4.92426145889476E+0000
  0
LINE
  8
1
  6
CONTINUOUS
 62
     1
 10
 6.64477799724409E+0000
 20
 4.89517114392947E+0000
 11
 6.59804420442379E+0000
 21
 4.94190493674978E+0000
  0
LINE
  8
1
  6
CONTINUOUS
 62
     1
 10
 6.63933505639579E+0000
 20
 4.92126828896289E+0000
 11
 6.60105493075389E+0000
 21
 4.95954841460480E+0000
  0
LINE
  8
1
  6
CONTINUOUS
 62
     1
 10
 6.63389211555477E+0000
 20
 4.94736543399631E+0000
 11
 6.60406565709127E+0000
 21
 4.97719189245254E+0000
  0
LINE
  8
1
  6
CONTINUOUS
 62
     1
 10
 6.62844917470647E+0000
 20
 4.97346257902245E+0000
 11
 6.60707638342137E+0000
 21
 4.99483537030756E+0000
  0
LINE
  8
1
  6
CONTINUOUS
 62
     1
 10
 6.62300623385818E+0000
 20
 4.99955972405587E+0000
 11
 6.61008710975148E+0000
 21
 5.01247884816257E+0000
  0
LINE
  8
1
  6
CONTINUOUS
 62
     1
 10
 6.61756329300988E+0000
 20
 5.02565686908929E+0000
 11
 6.61309783608885E+0000
 21
 5.03012232601759E+0000
  0
LINE
  8
1
  6
CONTINUOUS
 62
     1
 10
 6.64612812937412E+0000
 20
 4.88869769599842E+0000
 11
 6.63758319762564E+0000
 21
 4.88015276424267E+0000
  0
LINE
  8
1
  6
CONTINUOUS
 62
     1
 10
 6.64256378868595E+0000
 20
 4.90578755948809E+0000
 11
 6.61692899344052E+0000
 21
 4.88015276424267E+0000
  0
LINE
  8
1
  6
CONTINUOUS
 62
     1
 10
 6.63899944799050E+0000
 20
 4.92287742297776E+0000
 11
 6.59627478925540E+0000
 21
 4.88015276424267E+0000
  0
LINE
  8
1
  6
CONTINUOUS
 62
     1
 10
 6.63543510729505E+0000
 20
 4.93996728647471E+0000
 11
 6.58995225324907E+0000
 21
 4.89448443242873E+0000
  0
LINE
  8
1
  6
CONTINUOUS
 62
     1
 10
 6.63187076659233E+0000
 20
 4.95705714994983E+0000
 11
 6.59420190898527E+0000
 21
 4.91938829235005E+0000
  0
LINE
  8
1
  6
CONTINUOUS
 62
     1
 10
 6.62830642589688E+0000
 20
 4.97414701344678E+0000
 11
 6.59845156472147E+0000
 21
 4.94429215227137E+0000
  0
LINE
  8
1
  6
CONTINUOUS
 62
     1
 10
 6.62474208520143E+0000
 20
 4.99123687693645E+0000
 11
 6.60270122045767E+0000
 21
 4.96919601219270E+0000
  0
LINE
  8
1
  6
CONTINUOUS
 62
     1
 10
 6.62117774451326E+0000
 20
 5.00832674042613E+0000
 11
 6.60695087619388E+0000
 21
 4.99409987211402E+0000
  0
LINE
  8
1
  6
CONTINUOUS
 62
     1
 10
 6.61761340381781E+0000
 20
 5.02541660391580E+0000
 11
 6.61120053193736E+0000
 21
 5.01900373204262E+0000
  0
LINE
  8
1
  6
CONTINUOUS
 62
     1
 10
 7.29577475118276E+0000
 20
 3.20617965036217E+0000
 11
 7.29577475118276E+0000
 21
 3.20617965036217E+0000
  0
LINE
  8
1
  6
CONTINUOUS
 62
     1
 10
 7.29577475118276E+0000
 20
 3.20617965036217E+0000
 11
 7.45506407783250E+0000
 21
 3.17899812899850E+0000
  0
LINE
  8
1
  6
CONTINUOUS
 62
     1
 10
 7.45506407783250E+0000
 20
 3.17899812899850E+0000
 11
 7.45506407783250E+0000
 21
 3.23940176647011E+0000
  0
LINE
  8
1
  6
CONTINUOUS
 62
     1
 10
 7.45506407783250E+0000
 20
 3.23940176647011E+0000
 11
 7.29577475118276E+0000
 21
 3.20617965036217E+0000
  0
LINE
  8
1
  6
CONTINUOUS
 62
     1
 10
 7.45506407783250E+0000
 20
 3.17899812899850E+0000
 11
 7.45506407783250E+0000
 21
 3.23940176647011E+0000
  0
LINE
  8
1
  6
CONTINUOUS
 62
     1
 10
 7.30822668114706E+0000
 20
 3.20405482249407E+0000
 11
 7.30431968293124E+0000
 21
 3.20796182070990E+0000
  0
LINE
  8
1
  6
CONTINUOUS
 62
     1
 10
 7.33313054106111E+0000
 20
 3.19980516676151E+0000
 11
 7.32140954642091E+0000
 21
 3.21152616140535E+0000
  0
LINE
  8
1
  6
CONTINUOUS
 62
     1
 10
 7.35803440098243E+0000
 20
 3.19555551102530E+0000
 11
 7.33849940991058E+0000
 21
 3.21509050210079E+0000
  0
LINE
  8
1
  6
CONTINUOUS
 62
     1
 10
 7.38293826090376E+0000
 20
 3.19130585529274E+0000
 11
 7.35558927340026E+0000
 21
 3.21865484279260E+0000
  0
LINE
  8
1
  6
CONTINUOUS
 62
     1
 10
 7.40784212082508E+0000
 20
 3.18705619955654E+0000
 11
 7.37267913689720E+0000
 21
 3.22221918348805E+0000
  0
LINE
  8
1
  6
CONTINUOUS
 62
     1
 10
 7.43274598073913E+0000
 20
 3.18280654382397E+0000
 11
 7.38976900038688E+0000
 21
 3.22578352417986E+0000
  0
LINE
  8
1
  6
CONTINUOUS
 62
     1
 10
 7.45506407783978E+0000
 20
 3.18114265091572E+0000
 11
 7.40685886387655E+0000
 21
 3.22934786487531E+0000
  0
LINE
  8
1
  6
CONTINUOUS
 62
     1
 10
 7.45506407783978E+0000
 20
 3.20179685510084E+0000
 11
 7.42394872736622E+0000
 21
 3.23291220557076E+0000
  0
LINE
  8
1
  6
CONTINUOUS
 62
     1
 10
 7.45506407783250E+0000
 20
 3.22245105928596E+0000
 11
 7.44103859085590E+0000
 21
 3.23647654626620E+0000
  0
LINE
  8
1
  6
CONTINUOUS
 62
     1
 10
 7.45506407782523E+0000
 20
 3.18932523108742E+0000
 11
 7.44624233889772E+0000
 21
 3.18050349215991E+0000
  0
LINE
  8
1
  6
CONTINUOUS
 62
     1
 10
 7.45506407782523E+0000
 20
 3.20997943527254E+0000
 11
 7.42859886104270E+0000
 21
 3.18351421849002E+0000
  0
LINE
  8
1
  6
CONTINUOUS
 62
     1
 10
 7.45506407782523E+0000
 20
 3.23063363945766E+0000
 11
 7.41095538318768E+0000
 21
 3.18652494482376E+0000
  0
LINE
  8
1
  6
CONTINUOUS
 62
     1
 10
 7.44004569817480E+0000
 20
 3.23626946398872E+0000
 11
 7.39331190533994E+0000
 21
 3.18953567116114E+0000
  0
LINE
  8
1
  6
CONTINUOUS
 62
     1
 10
 7.41394855314138E+0000
 20
 3.23082652314406E+0000
 11
 7.37566842749220E+0000
 21
 3.19254639749124E+0000
  0
LINE
  8
1
  6
CONTINUOUS
 62
     1
 10
 7.38785140810796E+0000
 20
 3.22538358229576E+0000
 11
 7.35802494963718E+0000
 21
 3.19555712382498E+0000
  0
LINE
  8
1
  6
CONTINUOUS
 62
     1
 10
 7.36175426308182E+0000
 20
 3.21994064145474E+0000
 11
 7.34038147178217E+0000
 21
 3.19856785015509E+0000
  0
LINE
  8
1
  6
CONTINUOUS
 62
     1
 10
 7.33565711804840E+0000
 20
 3.21449770061008E+0000
 11
 7.32273799392715E+0000
 21
 3.20157857648883E+0000
  0
LINE
  8
1
  6
CONTINUOUS
 62
     1
 10
 7.30955997301498E+0000
 20
 3.20905475976178E+0000
 11
 7.30509451607213E+0000
 21
 3.20458930281893E+0000
  0
LINE
  8
1
  6
CONTINUOUS
 62
     1
 10
 7.29577475118276E+0000
 20
 3.20617965036217E+0000
 11
 7.29577475118276E+0000
 21
 3.20617965036217E+0000
  0
LINE
  8
1
  6
CONTINUOUS
 62
     1
 10
 7.29577475118276E+0000
 20
 3.20617965036217E+0000
 11
 7.45506407783250E+0000
 21
 3.17899812899850E+0000
  0
LINE
  8
1
  6
CONTINUOUS
 62
     1
 10
 7.45506407783250E+0000
 20
 3.17899812899850E+0000
 11
 7.45506407783250E+0000
 21
 3.23940176647011E+0000
  0
LINE
  8
1
  6
CONTINUOUS
 62
     1
 10
 7.45506407783250E+0000
 20
 3.23940176647011E+0000
 11
 7.29577475118276E+0000
 21
 3.20617965036217E+0000
  0
LINE
  8
1
  6
CONTINUOUS
 62
     1
 10
 7.45506407783250E+0000
 20
 3.17899812899850E+0000
 11
 7.45506407783250E+0000
 21
 3.23940176647011E+0000
  0
LINE
  8
1
  6
CONTINUOUS
 62
     1
 10
 7.30822668114706E+0000
 20
 3.20405482249407E+0000
 11
 7.30431968293124E+0000
 21
 3.20796182070990E+0000
  0
LINE
  8
1
  6
CONTINUOUS
 62
     1
 10
 7.33313054106111E+0000
 20
 3.19980516676151E+0000
 11
 7.32140954642091E+0000
 21
 3.21152616140535E+0000
  0
LINE
  8
1
  6
CONTINUOUS
 62
     1
 10
 7.35803440098243E+0000
 20
 3.19555551102530E+0000
 11
 7.33849940991058E+0000
 21
 3.21509050210079E+0000
  0
LINE
  8
1
  6
CONTINUOUS
 62
     1
 10
 7.38293826090376E+0000
 20
 3.19130585529274E+0000
 11
 7.35558927340026E+0000
 21
 3.21865484279260E+0000
  0
LINE
  8
1
  6
CONTINUOUS
 62
     1
 10
 7.40784212082508E+0000
 20
 3.18705619955654E+0000
 11
 7.37267913689720E+0000
 21
 3.22221918348805E+0000
  0
LINE
  8
1
  6
CONTINUOUS
 62
     1
 10
 7.43274598073913E+0000
 20
 3.18280654382397E+0000
 11
 7.38976900038688E+0000
 21
 3.22578352417986E+0000
  0
LINE
  8
1
  6
CONTINUOUS
 62
     1
 10
 7.45506407783978E+0000
 20
 3.18114265091572E+0000
 11
 7.40685886387655E+0000
 21
 3.22934786487531E+0000
  0
LINE
  8
1
  6
CONTINUOUS
 62
     1
 10
 7.45506407783978E+0000
 20
 3.20179685510084E+0000
 11
 7.42394872736622E+0000
 21
 3.23291220557076E+0000
  0
LINE
  8
1
  6
CONTINUOUS
 62
     1
 10
 7.45506407783250E+0000
 20
 3.22245105928596E+0000
 11
 7.44103859085590E+0000
 21
 3.23647654626620E+0000
  0
LINE
  8
1
  6
CONTINUOUS
 62
     1
 10
 7.45506407782523E+0000
 20
 3.18932523108742E+0000
 11
 7.44624233889772E+0000
 21
 3.18050349215991E+0000
  0
LINE
  8
1
  6
CONTINUOUS
 62
     1
 10
 7.45506407782523E+0000
 20
 3.20997943527254E+0000
 11
 7.42859886104270E+0000
 21
 3.18351421849002E+0000
  0
LINE
  8
1
  6
CONTINUOUS
 62
     1
 10
 7.45506407782523E+0000
 20
 3.23063363945766E+0000
 11
 7.41095538318768E+0000
 21
 3.18652494482376E+0000
  0
LINE
  8
1
  6
CONTINUOUS
 62
     1
 10
 7.44004569817480E+0000
 20
 3.23626946398872E+0000
 11
 7.39331190533994E+0000
 21
 3.18953567116114E+0000
  0
LINE
  8
1
  6
CONTINUOUS
 62
     1
 10
 7.41394855314138E+0000
 20
 3.23082652314406E+0000
 11
 7.37566842749220E+0000
 21
 3.19254639749124E+0000
  0
LINE
  8
1
  6
CONTINUOUS
 62
     1
 10
 7.38785140810796E+0000
 20
 3.22538358229576E+0000
 11
 7.35802494963718E+0000
 21
 3.19555712382498E+0000
  0
LINE
  8
1
  6
CONTINUOUS
 62
     1
 10
 7.36175426308182E+0000
 20
 3.21994064145474E+0000
 11
 7.34038147178217E+0000
 21
 3.19856785015509E+0000
  0
LINE
  8
1
  6
CONTINUOUS
 62
     1
 10
 7.33565711804840E+0000
 20
 3.21449770061008E+0000
 11
 7.32273799392715E+0000
 21
 3.20157857648883E+0000
  0
LINE
  8
1
  6
CONTINUOUS
 62
     1
 10
 7.30955997301498E+0000
 20
 3.20905475976178E+0000
 11
 7.30509451607213E+0000
 21
 3.20458930281893E+0000
  0
LINE
  8
1
  6
CONTINUOUS
 62
     1
 10
 7.75011309288675E+0000
 20
 3.20720254754997E+0000
 11
 7.75011309288675E+0000
 21
 3.20720254754997E+0000
  0
LINE
  8
1
  6
CONTINUOUS
 62
     1
 10
 7.75011309288675E+0000
 20
 3.20720254754997E+0000
 11
 7.59082376625156E+0000
 21
 3.23438406891364E+0000
  0
LINE
  8
1
  6
CONTINUOUS
 62
     1
 10
 7.59082376625156E+0000
 20
 3.23438406891364E+0000
 11
 7.59082376625156E+0000
 21
 3.17398043144203E+0000
  0
LINE
  8
1
  6
CONTINUOUS
 62
     1
 10
 7.59082376625156E+0000
 20
 3.17398043144203E+0000
 11
 7.75011309288675E+0000
 21
 3.20720254754997E+0000
  0
LINE
  8
1
  6
CONTINUOUS
 62
     1
 10
 7.59082376625156E+0000
 20
 3.23438406891364E+0000
 11
 7.59082376625156E+0000
 21
 3.17398043144203E+0000
  0
LINE
  8
1
  6
CONTINUOUS
 62
     1
 10
 7.59936869800003E+0000
 20
 3.17576260178612E+0000
 11
 7.59082376625156E+0000
 21
 3.18430753353095E+0000
  0
LINE
  8
1
  6
CONTINUOUS
 62
     1
 10
 7.61645856148971E+0000
 20
 3.17932694248157E+0000
 11
 7.59082376625884E+0000
 21
 3.20496173771608E+0000
  0
LINE
  8
1
  6
CONTINUOUS
 62
     1
 10
 7.63354842497938E+0000
 20
 3.18289128317701E+0000
 11
 7.59082376625884E+0000
 21
 3.22561594190120E+0000
  0
LINE
  8
1
  6
CONTINUOUS
 62
     1
 10
 7.65063828846905E+0000
 20
 3.18645562387246E+0000
 11
 7.60515543443034E+0000
 21
 3.23193847790753E+0000
  0
LINE
  8
1
  6
CONTINUOUS
 62
     1
 10
 7.66772815195873E+0000
 20
 3.19001996456791E+0000
 11
 7.63005929435167E+0000
 21
 3.22768882217133E+0000
  0
LINE
  8
1
  6
CONTINUOUS
 62
     1
 10
 7.68481801544840E+0000
 20
 3.19358430526336E+0000
 11
 7.65496315427299E+0000
 21
 3.22343916643513E+0000
  0
LINE
  8
1
  6
CONTINUOUS
 62
     1
 10
 7.70190787893807E+0000
 20
 3.19714864595517E+0000
 11
 7.67986701419431E+0000
 21
 3.21918951070256E+0000
  0
LINE
  8
1
  6
CONTINUOUS
 62
     1
 10
 7.71899774242775E+0000
 20
 3.20071298665425E+0000
 11
 7.70477087411564E+0000
 21
 3.21493985497000E+0000
  0
LINE
  8
1
  6
CONTINUOUS
 62
     1
 10
 7.73608760591742E+0000
 20
 3.20427732734970E+0000
 11
 7.72967473403696E+0000
 21
 3.21069019923380E+0000
  0
LINE
  8
1
  6
CONTINUOUS
 62
     1
 10
 7.74129135395196E+0000
 20
 3.20870791071502E+0000
 11
 7.73706452036276E+0000
 21
 3.20448107712946E+0000
  0
LINE
  8
1
  6
CONTINUOUS
 62
     1
 10
 7.72364787609695E+0000
 20
 3.21171863704876E+0000
 11
 7.71096737532935E+0000
 21
 3.19903813628116E+0000
  0
LINE
  8
1
  6
CONTINUOUS
 62
     1
 10
 7.70600439824921E+0000
 20
 3.21472936337886E+0000
 11
 7.68487023029593E+0000
 21
 3.19359519543286E+0000
  0
LINE
  8
1
  6
CONTINUOUS
 62
     1
 10
 7.68836092039419E+0000
 20
 3.21774008971261E+0000
 11
 7.65877308526251E+0000
 21
 3.18815225458457E+0000
  0
LINE
  8
1
  6
CONTINUOUS
 62
     1
 10
 7.67071744253917E+0000
 20
 3.22075081604271E+0000
 11
 7.63267594023637E+0000
 21
 3.18270931373991E+0000
  0
LINE
  8
1
  6
CONTINUOUS
 62
     1
 10
 7.65307396468415E+0000
 20
 3.22376154237645E+0000
 11
 7.60657879520295E+0000
 21
 3.17726637289161E+0000
  0
LINE
  8
1
  6
CONTINUOUS
 62
     1
 10
 7.63543048682914E+0000
 20
 3.22677226870655E+0000
 11
 7.59082376624428E+0000
 21
 3.18216554811806E+0000
  0
LINE
  8
1
  6
CONTINUOUS
 62
     1
 10
 7.61778700898140E+0000
 20
 3.22978299504030E+0000
 11
 7.59082376624428E+0000
 21
 3.20281975230318E+0000
  0
LINE
  8
1
  6
CONTINUOUS
 62
     1
 10
 7.60014353112638E+0000
 20
 3.23279372137040E+0000
 11
 7.59082376624428E+0000
 21
 3.22347395648831E+0000
  0
LINE
  8
1
  6
CONTINUOUS
 62
     1
 10
 7.75011309288675E+0000
 20
 3.20720254754997E+0000
 11
 7.75011309288675E+0000
 21
 3.20720254754997E+0000
  0
LINE
  8
1
  6
CONTINUOUS
 62
     1
 10
 7.75011309288675E+0000
 20
 3.20720254754997E+0000
 11
 7.59082376625156E+0000
 21
 3.23438406891364E+0000
  0
LINE
  8
1
  6
CONTINUOUS
 62
     1
 10
 7.59082376625156E+0000
 20
 3.23438406891364E+0000
 11
 7.59082376625156E+0000
 21
 3.17398043144203E+0000
  0
LINE
  8
1
  6
CONTINUOUS
 62
     1
 10
 7.59082376625156E+0000
 20
 3.17398043144203E+0000
 11
 7.75011309288675E+0000
 21
 3.20720254754997E+0000
  0
LINE
  8
1
  6
CONTINUOUS
 62
     1
 10
 7.59082376625156E+0000
 20
 3.23438406891364E+0000
 11
 7.59082376625156E+0000
 21
 3.17398043144203E+0000
  0
LINE
  8
1
  6
CONTINUOUS
 62
     1
 10
 7.59936869800003E+0000
 20
 3.17576260178612E+0000
 11
 7.59082376625156E+0000
 21
 3.18430753353095E+0000
  0
LINE
  8
1
  6
CONTINUOUS
 62
     1
 10
 7.61645856148971E+0000
 20
 3.17932694248157E+0000
 11
 7.59082376625884E+0000
 21
 3.20496173771608E+0000
  0
LINE
  8
1
  6
CONTINUOUS
 62
     1
 10
 7.63354842497938E+0000
 20
 3.18289128317701E+0000
 11
 7.59082376625884E+0000
 21
 3.22561594190120E+0000
  0
LINE
  8
1
  6
CONTINUOUS
 62
     1
 10
 7.65063828846905E+0000
 20
 3.18645562387246E+0000
 11
 7.60515543443034E+0000
 21
 3.23193847790753E+0000
  0
LINE
  8
1
  6
CONTINUOUS
 62
     1
 10
 7.66772815195873E+0000
 20
 3.19001996456791E+0000
 11
 7.63005929435167E+0000
 21
 3.22768882217133E+0000
  0
LINE
  8
1
  6
CONTINUOUS
 62
     1
 10
 7.68481801544840E+0000
 20
 3.19358430526336E+0000
 11
 7.65496315427299E+0000
 21
 3.22343916643513E+0000
  0
LINE
  8
1
  6
CONTINUOUS
 62
     1
 10
 7.70190787893807E+0000
 20
 3.19714864595517E+0000
 11
 7.67986701419431E+0000
 21
 3.21918951070256E+0000
  0
LINE
  8
1
  6
CONTINUOUS
 62
     1
 10
 7.71899774242775E+0000
 20
 3.20071298665425E+0000
 11
 7.70477087411564E+0000
 21
 3.21493985497000E+0000
  0
LINE
  8
1
  6
CONTINUOUS
 62
     1
 10
 7.73608760591742E+0000
 20
 3.20427732734970E+0000
 11
 7.72967473403696E+0000
 21
 3.21069019923380E+0000
  0
LINE
  8
1
  6
CONTINUOUS
 62
     1
 10
 7.74129135395196E+0000
 20
 3.20870791071502E+0000
 11
 7.73706452036276E+0000
 21
 3.20448107712946E+0000
  0
LINE
  8
1
  6
CONTINUOUS
 62
     1
 10
 7.72364787609695E+0000
 20
 3.21171863704876E+0000
 11
 7.71096737532935E+0000
 21
 3.19903813628116E+0000
  0
LINE
  8
1
  6
CONTINUOUS
 62
     1
 10
 7.70600439824921E+0000
 20
 3.21472936337886E+0000
 11
 7.68487023029593E+0000
 21
 3.19359519543286E+0000
  0
LINE
  8
1
  6
CONTINUOUS
 62
     1
 10
 7.68836092039419E+0000
 20
 3.21774008971261E+0000
 11
 7.65877308526251E+0000
 21
 3.18815225458457E+0000
  0
LINE
  8
1
  6
CONTINUOUS
 62
     1
 10
 7.67071744253917E+0000
 20
 3.22075081604271E+0000
 11
 7.63267594023637E+0000
 21
 3.18270931373991E+0000
  0
LINE
  8
1
  6
CONTINUOUS
 62
     1
 10
 7.65307396468415E+0000
 20
 3.22376154237645E+0000
 11
 7.60657879520295E+0000
 21
 3.17726637289161E+0000
  0
LINE
  8
1
  6
CONTINUOUS
 62
     1
 10
 7.63543048682914E+0000
 20
 3.22677226870655E+0000
 11
 7.59082376624428E+0000
 21
 3.18216554811806E+0000
  0
LINE
  8
1
  6
CONTINUOUS
 62
     1
 10
 7.61778700898140E+0000
 20
 3.22978299504030E+0000
 11
 7.59082376624428E+0000
 21
 3.20281975230318E+0000
  0
LINE
  8
1
  6
CONTINUOUS
 62
     1
 10
 7.60014353112638E+0000
 20
 3.23279372137040E+0000
 11
 7.59082376624428E+0000
 21
 3.22347395648831E+0000
  0
LINE
  8
1
  6
CONTINUOUS
 62
     1
 10
 8.21773696043238E+0000
 20
 4.06402974200319E+0000
 11
 8.21773696043238E+0000
 21
 4.06402974200319E+0000
  0
LINE
  8
1
  6
CONTINUOUS
 62
     1
 10
 8.21773696043238E+0000
 20
 4.06402974200319E+0000
 11
 8.24491848179605E+0000
 21
 4.22331906863110E+0000
  0
LINE
  8
1
  6
CONTINUOUS
 62
     1
 10
 8.24491848179605E+0000
 20
 4.22331906863110E+0000
 11
 8.18451484432444E+0000
 21
 4.22331906863110E+0000
  0
LINE
  8
1
  6
CONTINUOUS
 62
     1
 10
 8.18451484432444E+0000
 20
 4.22331906863110E+0000
 11
 8.21773696043238E+0000
 21
 4.06402974200319E+0000
  0
LINE
  8
1
  6
CONTINUOUS
 62
     1
 10
 8.24491848179605E+0000
 20
 4.22331906863110E+0000
 11
 8.18451484432444E+0000
 21
 4.22331906863110E+0000
  0
LINE
  8
1
  6
CONTINUOUS
 62
     1
 10
 8.21924232359743E+0000
 20
 4.07285148093797E+0000
 11
 8.21501549000095E+0000
 21
 4.07707831453445E+0000
  0
LINE
  8
1
  6
CONTINUOUS
 62
     1
 10
 8.22225304992753E+0000
 20
 4.09049495879299E+0000
 11
 8.20957254915265E+0000
 21
 4.10317545956059E+0000
  0
LINE
  8
1
  6
CONTINUOUS
 62
     1
 10
 8.22526377627219E+0000
 20
 4.10813843664073E+0000
 11
 8.20412960830436E+0000
 21
 4.12927260459401E+0000
  0
LINE
  8
1
  6
CONTINUOUS
 62
     1
 10
 8.22827450260229E+0000
 20
 4.12578191449575E+0000
 11
 8.19868666747061E+0000
 21
 4.15536974962743E+0000
  0
LINE
  8
1
  6
CONTINUOUS
 62
     1
 10
 8.23128522893239E+0000
 20
 4.14342539234349E+0000
 11
 8.19324372662231E+0000
 21
 4.18146689466084E+0000
  0
LINE
  8
1
  6
CONTINUOUS
 62
     1
 10
 8.23429595526250E+0000
 20
 4.16106887019851E+0000
 11
 8.18780078577402E+0000
 21
 4.20756403969426E+0000
  0
LINE
  8
1
  6
CONTINUOUS
 62
     1
 10
 8.23730668159260E+0000
 20
 4.17871234804625E+0000
 11
 8.19269996101502E+0000
 21
 4.22331906863110E+0000
  0
LINE
  8
1
  6
CONTINUOUS
 62
     1
 10
 8.24031740793725E+0000
 20
 4.19635582590126E+0000
 11
 8.21335416520014E+0000
 21
 4.22331906863110E+0000
  0
LINE
  8
1
  6
CONTINUOUS
 62
     1
 10
 8.24332813426736E+0000
 20
 4.21399930375628E+0000
 11
 8.23400836938526E+0000
 21
 4.22331906863838E+0000
  0
LINE
  8
1
  6
CONTINUOUS
 62
     1
 10
 8.21986178829684E+0000
 20
 4.07648167196021E+0000
 11
 8.21595479008101E+0000
 21
 4.07257467374438E+0000
  0
LINE
  8
1
  6
CONTINUOUS
 62
     1
 10
 8.22411144402577E+0000
 20
 4.10138553188153E+0000
 11
 8.21239044937829E+0000
 21
 4.08966453723406E+0000
  0
LINE
  8
1
  6
CONTINUOUS
 62
     1
 10
 8.22836109976924E+0000
 20
 4.12628939180286E+0000
 11
 8.20882610869012E+0000
 21
 4.10675440073101E+0000
  0
LINE
  8
1
  6
CONTINUOUS
 62
     1
 10
 8.23261075549817E+0000
 20
 4.15119325172418E+0000
 11
 8.20526176800195E+0000
 21
 4.12384426422068E+0000
  0
LINE
  8
1
  6
CONTINUOUS
 62
     1
 10
 8.23686041124165E+0000
 20
 4.17609711164550E+0000
 11
 8.20169742729922E+0000
 21
 4.14093412770308E+0000
  0
LINE
  8
1
  6
CONTINUOUS
 62
     1
 10
 8.24111006697058E+0000
 20
 4.20100097156683E+0000
 11
 8.19813308659650E+0000
 21
 4.15802399119275E+0000
  0
LINE
  8
1
  6
CONTINUOUS
 62
     1
 10
 8.24277395984973E+0000
 20
 4.22331906862382E+0000
 11
 8.19456874590833E+0000
 21
 4.17511385468242E+0000
  0
LINE
  8
1
  6
CONTINUOUS
 62
     1
 10
 8.22211975566461E+0000
 20
 4.22331906862382E+0000
 11
 8.19100440520560E+0000
 21
 4.19220371817937E+0000
  0
LINE
  8
1
  6
CONTINUOUS
 62
     1
 10
 8.20146555147949E+0000
 20
 4.22331906862382E+0000
 11
 8.18744006451743E+0000
 21
 4.20929358166904E+0000
  0
LINE
  8
1
  6
CONTINUOUS
 62
     1
 10
 8.56979980629694E+0000
 20
 3.27208445933502E+0000
 11
 8.56979980629694E+0000
 21
 3.27208445933502E+0000
  0
LINE
  8
1
  6
CONTINUOUS
 62
     1
 10
 8.56979980629694E+0000
 20
 3.27208445933502E+0000
 11
 8.59698132766061E+0000
 21
 3.43137378596293E+0000
  0
LINE
  8
1
  6
CONTINUOUS
 62
     1
 10
 8.59698132766061E+0000
 20
 3.43137378596293E+0000
 11
 8.53657769018901E+0000
 21
 3.43137378596293E+0000
  0
LINE
  8
1
  6
CONTINUOUS
 62
     1
 10
 8.53657769018901E+0000
 20
 3.43137378596293E+0000
 11
 8.56979980629694E+0000
 21
 3.27208445933502E+0000
  0
LINE
  8
1
  6
CONTINUOUS
 62
     1
 10
 8.59698132766061E+0000
 20
 3.43137378596293E+0000
 11
 8.53657769018901E+0000
 21
 3.43137378596293E+0000
  0
LINE
  8
1
  6
CONTINUOUS
 62
     1
 10
 8.57130516946199E+0000
 20
 3.28090619826980E+0000
 11
 8.56707833586552E+0000
 21
 3.28513303186264E+0000
  0
LINE
  8
1
  6
CONTINUOUS
 62
     1
 10
 8.57431589579210E+0000
 20
 3.29854967612118E+0000
 11
 8.56163539501722E+0000
 21
 3.31123017689606E+0000
  0
LINE
  8
1
  6
CONTINUOUS
 62
     1
 10
 8.57732662213675E+0000
 20
 3.31619315397256E+0000
 11
 8.55619245416892E+0000
 21
 3.33732732192948E+0000
  0
LINE
  8
1
  6
CONTINUOUS
 62
     1
 10
 8.58033734846686E+0000
 20
 3.33383663182758E+0000
 11
 8.55074951333518E+0000
 21
 3.36342446695926E+0000
  0
LINE
  8
1
  6
CONTINUOUS
 62
     1
 10
 8.58334807479696E+0000
 20
 3.35148010967896E+0000
 11
 8.54530657248688E+0000
 21
 3.38952161199268E+0000
  0
LINE
  8
1
  6
CONTINUOUS
 62
     1
 10
 8.58635880112706E+0000
 20
 3.36912358753034E+0000
 11
 8.53986363163858E+0000
 21
 3.41561875702610E+0000
  0
LINE
  8
1
  6
CONTINUOUS
 62
     1
 10
 8.58936952745717E+0000
 20
 3.38676706538172E+0000
 11
 8.54476280687959E+0000
 21
 3.43137378596293E+0000
  0
LINE
  8
1
  6
CONTINUOUS
 62
     1
 10
 8.59238025380182E+0000
 20
 3.40441054323674E+0000
 11
 8.56541701106471E+0000
 21
 3.43137378596657E+0000
  0
LINE
  8
1
  6
CONTINUOUS
 62
     1
 10
 8.59539098013192E+0000
 20
 3.42205402108812E+0000
 11
 8.58607121524983E+0000
 21
 3.43137378596657E+0000
  0
LINE
  8
1
  6
CONTINUOUS
 62
     1
 10
 8.57192463416141E+0000
 20
 3.28453638929204E+0000
 11
 8.56801763594558E+0000
 21
 3.28062939107622E+0000
  0
LINE
  8
1
  6
CONTINUOUS
 62
     1
 10
 8.57617428989033E+0000
 20
 3.30944024921337E+0000
 11
 8.56445329524286E+0000
 21
 3.29771925456953E+0000
  0
LINE
  8
1
  6
CONTINUOUS
 62
     1
 10
 8.58042394563381E+0000
 20
 3.33434410913469E+0000
 11
 8.56088895455468E+0000
 21
 3.31480911806284E+0000
  0
LINE
  8
1
  6
CONTINUOUS
 62
     1
 10
 8.58467360136274E+0000
 20
 3.35924796905601E+0000
 11
 8.55732461386651E+0000
 21
 3.33189898155251E+0000
  0
LINE
  8
1
  6
CONTINUOUS
 62
     1
 10
 8.58892325709166E+0000
 20
 3.38415182897734E+0000
 11
 8.55376027316379E+0000
 21
 3.34898884503491E+0000
  0
LINE
  8
1
  6
CONTINUOUS
 62
     1
 10
 8.59317291283514E+0000
 20
 3.40905568889866E+0000
 11
 8.55019593246107E+0000
 21
 3.36607870852458E+0000
  0
LINE
  8
1
  6
CONTINUOUS
 62
     1
 10
 8.59483680571429E+0000
 20
 3.43137378595929E+0000
 11
 8.54663159177289E+0000
 21
 3.38316857201789E+0000
  0
LINE
  8
1
  6
CONTINUOUS
 62
     1
 10
 8.57418260152917E+0000
 20
 3.43137378595929E+0000
 11
 8.54306725107017E+0000
 21
 3.40025843550757E+0000
  0
LINE
  8
1
  6
CONTINUOUS
 62
     1
 10
 8.55352839734405E+0000
 20
 3.43137378595929E+0000
 11
 8.53950291038200E+0000
 21
 3.41734829900088E+0000
  0
LINE
  8
1
  6
CONTINUOUS
 62
     1
 10
 8.22043823673448E+0000
 20
 4.63486134864797E+0000
 11
 8.22043823673448E+0000
 21
 4.63486134864797E+0000
  0
LINE
  8
1
  6
CONTINUOUS
 62
     1
 10
 8.22043823673448E+0000
 20
 4.63486134864797E+0000
 11
 8.19325671537081E+0000
 21
 4.47557202202006E+0000
  0
LINE
  8
1
  6
CONTINUOUS
 62
     1
 10
 8.19325671537081E+0000
 20
 4.47557202202006E+0000
 11
 8.25366035284242E+0000
 21
 4.47557202202006E+0000
  0
LINE
  8
1
  6
CONTINUOUS
 62
     1
 10
 8.25366035284242E+0000
 20
 4.47557202202006E+0000
 11
 8.22043823673448E+0000
 21
 4.63486134864797E+0000
  0
LINE
  8
1
  6
CONTINUOUS
 62
     1
 10
 8.19325671537081E+0000
 20
 4.47557202202006E+0000
 11
 8.25366035284242E+0000
 21
 4.47557202202006E+0000
  0
LINE
  8
1
  6
CONTINUOUS
 62
     1
 10
 8.20358381747792E+0000
 20
 4.47557202202006E+0000
 11
 8.19476207853586E+0000
 21
 4.48439376095484E+0000
  0
LINE
  8
1
  6
CONTINUOUS
 62
     1
 10
 8.22423802166304E+0000
 20
 4.47557202202006E+0000
 11
 8.19777280488051E+0000
 21
 4.50203723880986E+0000
  0
LINE
  8
1
  6
CONTINUOUS
 62
     1
 10
 8.24489222584816E+0000
 20
 4.47557202202006E+0000
 11
 8.20078353121062E+0000
 21
 4.51968071665760E+0000
  0
LINE
  8
1
  6
CONTINUOUS
 62
     1
 10
 8.25052805035375E+0000
 20
 4.49059040169232E+0000
 11
 8.20379425754072E+0000
 21
 4.53732419451262E+0000
  0
LINE
  8
1
  6
CONTINUOUS
 62
     1
 10
 8.24508510950545E+0000
 20
 4.51668754672573E+0000
 11
 8.20680498387082E+0000
 21
 4.55496767236764E+0000
  0
LINE
  8
1
  6
CONTINUOUS
 62
     1
 10
 8.23964216865716E+0000
 20
 4.54278469175915E+0000
 11
 8.20981571020093E+0000
 21
 4.57261115021538E+0000
  0
LINE
  8
1
  6
CONTINUOUS
 62
     1
 10
 8.23419922782341E+0000
 20
 4.56888183678529E+0000
 11
 8.21282643653103E+0000
 21
 4.59025462807040E+0000
  0
LINE
  8
1
  6
CONTINUOUS
 62
     1
 10
 8.22875628697511E+0000
 20
 4.59497898181871E+0000
 11
 8.21583716286113E+0000
 21
 4.60789810592541E+0000
  0
LINE
  8
1
  6
CONTINUOUS
 62
     1
 10
 8.22331334612682E+0000
 20
 4.62107612685213E+0000
 11
 8.21884788919124E+0000
 21
 4.62554158378043E+0000
  0
LINE
  8
1
  6
CONTINUOUS
 62
     1
 10
 8.25187818249105E+0000
 20
 4.48411695376126E+0000
 11
 8.24333325074986E+0000
 21
 4.47557202202006E+0000
  0
LINE
  8
1
  6
CONTINUOUS
 62
     1
 10
 8.24831384178833E+0000
 20
 4.50120681725093E+0000
 11
 8.22267904656474E+0000
 21
 4.47557202202006E+0000
  0
LINE
  8
1
  6
CONTINUOUS
 62
     1
 10
 8.24474950110016E+0000
 20
 4.51829668074788E+0000
 11
 8.20202484237961E+0000
 21
 4.47557202202006E+0000
  0
LINE
  8
1
  6
CONTINUOUS
 62
     1
 10
 8.24118516039744E+0000
 20
 4.53538654423755E+0000
 11
 8.19570230637328E+0000
 21
 4.48990369020612E+0000
  0
LINE
  8
1
  6
CONTINUOUS
 62
     1
 10
 8.23762081970926E+0000
 20
 4.55247640772723E+0000
 11
 8.19995196210220E+0000
 21
 4.51480755012744E+0000
  0
LINE
  8
1
  6
CONTINUOUS
 62
     1
 10
 8.23405647900654E+0000
 20
 4.56956627120962E+0000
 11
 8.20420161784568E+0000
 21
 4.53971141004877E+0000
  0
LINE
  8
1
  6
CONTINUOUS
 62
     1
 10
 8.23049213831837E+0000
 20
 4.58665613469930E+0000
 11
 8.20845127357461E+0000
 21
 4.56461526997009E+0000
  0
LINE
  8
1
  6
CONTINUOUS
 62
     1
 10
 8.22692779761564E+0000
 20
 4.60374599819625E+0000
 11
 8.21270092931809E+0000
 21
 4.58951912988414E+0000
  0
LINE
  8
1
  6
CONTINUOUS
 62
     1
 10
 8.22336345692747E+0000
 20
 4.62083586168592E+0000
 11
 8.21695058504702E+0000
 21
 4.61442298980546E+0000
  0
LINE
  8
1
  6
CONTINUOUS
 62
     1
 10
 8.57250108259905E+0000
 20
 5.38376612681895E+0000
 11
 8.57250108259905E+0000
 21
 5.38376612681895E+0000
  0
LINE
  8
1
  6
CONTINUOUS
 62
     1
 10
 8.57250108259905E+0000
 20
 5.38376612681895E+0000
 11
 8.54531956123537E+0000
 21
 5.22447680019104E+0000
  0
LINE
  8
1
  6
CONTINUOUS
 62
     1
 10
 8.54531956123537E+0000
 20
 5.22447680019104E+0000
 11
 8.60572319870698E+0000
 21
 5.22447680019104E+0000
  0
LINE
  8
1
  6
CONTINUOUS
 62
     1
 10
 8.60572319870698E+0000
 20
 5.22447680019104E+0000
 11
 8.57250108259905E+0000
 21
 5.38376612681895E+0000
  0
LINE
  8
1
  6
CONTINUOUS
 62
     1
 10
 8.54531956123537E+0000
 20
 5.22447680019104E+0000
 11
 8.60572319870698E+0000
 21
 5.22447680019104E+0000
  0
LINE
  8
1
  6
CONTINUOUS
 62
     1
 10
 8.55564666334249E+0000
 20
 5.22447680019832E+0000
 11
 8.54682492441498E+0000
 21
 5.23329853913310E+0000
  0
LINE
  8
1
  6
CONTINUOUS
 62
     1
 10
 8.57630086752761E+0000
 20
 5.22447680019104E+0000
 11
 8.54983565074508E+0000
 21
 5.25094201698084E+0000
  0
LINE
  8
1
  6
CONTINUOUS
 62
     1
 10
 8.59695507171273E+0000
 20
 5.22447680019104E+0000
 11
 8.55284637707518E+0000
 21
 5.26858549483586E+0000
  0
LINE
  8
1
  6
CONTINUOUS
 62
     1
 10
 8.60259089623287E+0000
 20
 5.23949517987057E+0000
 11
 8.55585710340529E+0000
 21
 5.28622897269088E+0000
  0
LINE
  8
1
  6
CONTINUOUS
 62
     1
 10
 8.59714795538457E+0000
 20
 5.26559232490399E+0000
 11
 8.55886782973539E+0000
 21
 5.30387245054590E+0000
  0
LINE
  8
1
  6
CONTINUOUS
 62
     1
 10
 8.59170501453627E+0000
 20
 5.29168946993013E+0000
 11
 8.56187855608005E+0000
 21
 5.32151592839364E+0000
  0
LINE
  8
1
  6
CONTINUOUS
 62
     1
 10
 8.58626207368798E+0000
 20
 5.31778661496355E+0000
 11
 8.56488928241015E+0000
 21
 5.33915940624865E+0000
  0
LINE
  8
1
  6
CONTINUOUS
 62
     1
 10
 8.58081913283968E+0000
 20
 5.34388375999697E+0000
 11
 8.56790000874025E+0000
 21
 5.35680288410367E+0000
  0
LINE
  8
1
  6
CONTINUOUS
 62
     1
 10
 8.57537619199138E+0000
 20
 5.36998090503039E+0000
 11
 8.57091073507036E+0000
 21
 5.37444636195869E+0000
  0
LINE
  8
1
  6
CONTINUOUS
 62
     1
 10
 8.60394102835562E+0000
 20
 5.23302173193952E+0000
 11
 8.59539609659987E+0000
 21
 5.22447680018377E+0000
  0
LINE
  8
1
  6
CONTINUOUS
 62
     1
 10
 8.60037668766745E+0000
 20
 5.25011159542919E+0000
 11
 8.57474189241475E+0000
 21
 5.22447680018377E+0000
  0
LINE
  8
1
  6
CONTINUOUS
 62
     1
 10
 8.59681234696473E+0000
 20
 5.26720145891886E+0000
 11
 8.55408768822963E+0000
 21
 5.22447680018377E+0000
  0
LINE
  8
1
  6
CONTINUOUS
 62
     1
 10
 8.59324800627655E+0000
 20
 5.28429132241581E+0000
 11
 8.54776515223784E+0000
 21
 5.23880846836983E+0000
  0
LINE
  8
1
  6
CONTINUOUS
 62
     1
 10
 8.58968366557383E+0000
 20
 5.30138118590548E+0000
 11
 8.55201480796677E+0000
 21
 5.26371232829115E+0000
  0
LINE
  8
1
  6
CONTINUOUS
 62
     1
 10
 8.58611932487111E+0000
 20
 5.31847104938788E+0000
 11
 8.55626446371025E+0000
 21
 5.28861618821247E+0000
  0
LINE
  8
1
  6
CONTINUOUS
 62
     1
 10
 8.58255498418293E+0000
 20
 5.33556091287755E+0000
 11
 8.56051411945373E+0000
 21
 5.31352004814107E+0000
  0
LINE
  8
1
  6
CONTINUOUS
 62
     1
 10
 8.57899064349476E+0000
 20
 5.35265077636723E+0000
 11
 8.56476377518266E+0000
 21
 5.33842390806240E+0000
  0
LINE
  8
1
  6
CONTINUOUS
 62
     1
 10
 8.57542630279204E+0000
 20
 5.36974063986418E+0000
 11
 8.56901343092613E+0000
 21
 5.36332776798372E+0000
  0
LINE
  8
1
  6
CONTINUOUS
 62
     1
 10
 2.26767539420689E+0000
 20
 4.33721447737480E+0000
 11
 2.26767539420689E+0000
 21
 2.29709456439741E+0000
  0
LINE
  8
1
  6
CONTINUOUS
 62
     1
 10
 2.26767539420689E+0000
 20
 2.29709456439741E+0000
 11
 5.10993885718199E+0000
 21
 2.29709456439741E+0000
  0
LINE
  8
1
  6
CONTINUOUS
 62
     1
 10
 5.10993885718199E+0000
 20
 2.29709456439741E+0000
 11
 5.10993885718199E+0000
 21
 4.33721447737480E+0000
  0
LINE
  8
1
  6
CONTINUOUS
 62
     1
 10
 5.10534829954122E+0000
 20
 2.29474385229696E+0000
 11
 5.10534829954122E+0000
 21
 2.29474385229696E+0000
  0
LINE
  8
1
  6
CONTINUOUS
 62
     1
 10
 5.10534829954122E+0000
 20
 2.29474385229696E+0000
 11
 4.94605897290603E+0000
 21
 2.32192537366063E+0000
  0
LINE
  8
1
  6
CONTINUOUS
 62
     1
 10
 4.94605897290603E+0000
 20
 2.32192537366063E+0000
 11
 4.94605897290603E+0000
 21
 2.26152173618902E+0000
  0
LINE
  8
1
  6
CONTINUOUS
 62
     1
 10
 4.94605897290603E+0000
 20
 2.26152173618902E+0000
 11
 5.10534829954122E+0000
 21
 2.29474385229696E+0000
  0
LINE
  8
1
  6
CONTINUOUS
 62
     1
 10
 4.94605897290603E+0000
 20
 2.32192537366063E+0000
 11
 4.94605897290603E+0000
 21
 2.26152173618902E+0000
  0
LINE
  8
1
  6
CONTINUOUS
 62
     1
 10
 4.95460390465450E+0000
 20
 2.26330390653675E+0000
 11
 4.94605897291331E+0000
 21
 2.27184883828522E+0000
  0
LINE
  8
1
  6
CONTINUOUS
 62
     1
 10
 4.97169376814418E+0000
 20
 2.26686824723220E+0000
 11
 4.94605897290603E+0000
 21
 2.29250304247034E+0000
  0
LINE
  8
1
  6
CONTINUOUS
 62
     1
 10
 4.98878363163385E+0000
 20
 2.27043258792764E+0000
 11
 4.94605897290603E+0000
 21
 2.31315724665910E+0000
  0
LINE
  8
1
  6
CONTINUOUS
 62
     1
 10
 5.00587349513080E+0000
 20
 2.27399692862309E+0000
 11
 4.96039064109937E+0000
 21
 2.31947978265089E+0000
  0
LINE
  8
1
  6
CONTINUOUS
 62
     1
 10
 5.02296335862047E+0000
 20
 2.27756126931854E+0000
 11
 4.98529450102069E+0000
 21
 2.31523012691832E+0000
  0
LINE
  8
1
  6
CONTINUOUS
 62
     1
 10
 5.04005322211015E+0000
 20
 2.28112561001035E+0000
 11
 5.01019836094201E+0000
 21
 2.31098047118212E+0000
  0
LINE
  8
1
  6
CONTINUOUS
 62
     1
 10
 5.05714308559982E+0000
 20
 2.28468995070580E+0000
 11
 5.03510222086334E+0000
 21
 2.30673081544592E+0000
  0
LINE
  8
1
  6
CONTINUOUS
 62
     1
 10
 5.07423294908949E+0000
 20
 2.28825429140124E+0000
 11
 5.06000608077738E+0000
 21
 2.30248115970971E+0000
  0
LINE
  8
1
  6
CONTINUOUS
 62
     1
 10
 5.09132281257916E+0000
 20
 2.29181863209669E+0000
 11
 5.08490994069871E+0000
 21
 2.29823150397715E+0000
  0
LINE
  8
1
  6
CONTINUOUS
 62
     1
 10
 5.09652656061371E+0000
 20
 2.29624921546201E+0000
 11
 5.09229972702451E+0000
 21
 2.29202238187281E+0000
  0
LINE
  8
1
  6
CONTINUOUS
 62
     1
 10
 5.07888308275869E+0000
 20
 2.29925994179212E+0000
 11
 5.06620258199109E+0000
 21
 2.28657944102451E+0000
  0
LINE
  8
1
  6
CONTINUOUS
 62
     1
 10
 5.06123960490368E+0000
 20
 2.30227066812586E+0000
 11
 5.04010543695767E+0000
 21
 2.28113650017622E+0000
  0
LINE
  8
1
  6
CONTINUOUS
 62
     1
 10
 5.04359612705593E+0000
 20
 2.30528139446324E+0000
 11
 5.01400829192426E+0000
 21
 2.27569355933156E+0000
  0
LINE
  8
1
  6
CONTINUOUS
 62
     1
 10
 5.02595264920092E+0000
 20
 2.30829212079334E+0000
 11
 4.98791114689084E+0000
 21
 2.27025061848326E+0000
  0
LINE
  8
1
  6
CONTINUOUS
 62
     1
 10
 5.00830917134590E+0000
 20
 2.31130284712344E+0000
 11
 4.96181400186470E+0000
 21
 2.26480767764224E+0000
  0
LINE
  8
1
  6
CONTINUOUS
 62
     1
 10
 4.99066569349816E+0000
 20
 2.31431357345718E+0000
 11
 4.94605897289875E+0000
 21
 2.26970685286142E+0000
  0
LINE
  8
1
  6
CONTINUOUS
 62
     1
 10
 4.97302221564314E+0000
 20
 2.31732429978729E+0000
 11
 4.94605897289875E+0000
 21
 2.29036105704654E+0000
  0
LINE
  8
1
  6
CONTINUOUS
 62
     1
 10
 4.95537873778812E+0000
 20
 2.32033502612103E+0000
 11
 4.94605897289875E+0000
 21
 2.31101526123166E+0000
  0
LINE
  8
1
  6
CONTINUOUS
 62
     1
 10
 5.10534829954122E+0000
 20
 2.29474385229696E+0000
 11
 5.10534829954122E+0000
 21
 2.29474385229696E+0000
  0
LINE
  8
1
  6
CONTINUOUS
 62
     1
 10
 5.10534829954122E+0000
 20
 2.29474385229696E+0000
 11
 4.94605897290603E+0000
 21
 2.32192537366063E+0000
  0
LINE
  8
1
  6
CONTINUOUS
 62
     1
 10
 4.94605897290603E+0000
 20
 2.32192537366063E+0000
 11
 4.94605897290603E+0000
 21
 2.26152173618902E+0000
  0
LINE
  8
1
  6
CONTINUOUS
 62
     1
 10
 4.94605897290603E+0000
 20
 2.26152173618902E+0000
 11
 5.10534829954122E+0000
 21
 2.29474385229696E+0000
  0
LINE
  8
1
  6
CONTINUOUS
 62
     1
 10
 4.94605897290603E+0000
 20
 2.32192537366063E+0000
 11
 4.94605897290603E+0000
 21
 2.26152173618902E+0000
  0
LINE
  8
1
  6
CONTINUOUS
 62
     1
 10
 4.95460390465450E+0000
 20
 2.26330390653675E+0000
 11
 4.94605897291331E+0000
 21
 2.27184883828522E+0000
  0
LINE
  8
1
  6
CONTINUOUS
 62
     1
 10
 4.97169376814418E+0000
 20
 2.26686824723220E+0000
 11
 4.94605897290603E+0000
 21
 2.29250304247034E+0000
  0
LINE
  8
1
  6
CONTINUOUS
 62
     1
 10
 4.98878363163385E+0000
 20
 2.27043258792764E+0000
 11
 4.94605897290603E+0000
 21
 2.31315724665910E+0000
  0
LINE
  8
1
  6
CONTINUOUS
 62
     1
 10
 5.00587349513080E+0000
 20
 2.27399692862309E+0000
 11
 4.96039064109937E+0000
 21
 2.31947978265089E+0000
  0
LINE
  8
1
  6
CONTINUOUS
 62
     1
 10
 5.02296335862047E+0000
 20
 2.27756126931854E+0000
 11
 4.98529450102069E+0000
 21
 2.31523012691832E+0000
  0
LINE
  8
1
  6
CONTINUOUS
 62
     1
 10
 5.04005322211015E+0000
 20
 2.28112561001035E+0000
 11
 5.01019836094201E+0000
 21
 2.31098047118212E+0000
  0
LINE
  8
1
  6
CONTINUOUS
 62
     1
 10
 5.05714308559982E+0000
 20
 2.28468995070580E+0000
 11
 5.03510222086334E+0000
 21
 2.30673081544592E+0000
  0
LINE
  8
1
  6
CONTINUOUS
 62
     1
 10
 5.07423294908949E+0000
 20
 2.28825429140124E+0000
 11
 5.06000608077738E+0000
 21
 2.30248115970971E+0000
  0
LINE
  8
1
  6
CONTINUOUS
 62
     1
 10
 5.09132281257916E+0000
 20
 2.29181863209669E+0000
 11
 5.08490994069871E+0000
 21
 2.29823150397715E+0000
  0
LINE
  8
1
  6
CONTINUOUS
 62
     1
 10
 5.09652656061371E+0000
 20
 2.29624921546201E+0000
 11
 5.09229972702451E+0000
 21
 2.29202238187281E+0000
  0
LINE
  8
1
  6
CONTINUOUS
 62
     1
 10
 5.07888308275869E+0000
 20
 2.29925994179212E+0000
 11
 5.06620258199109E+0000
 21
 2.28657944102451E+0000
  0
LINE
  8
1
  6
CONTINUOUS
 62
     1
 10
 5.06123960490368E+0000
 20
 2.30227066812586E+0000
 11
 5.04010543695767E+0000
 21
 2.28113650017622E+0000
  0
LINE
  8
1
  6
CONTINUOUS
 62
     1
 10
 5.04359612705593E+0000
 20
 2.30528139446324E+0000
 11
 5.01400829192426E+0000
 21
 2.27569355933156E+0000
  0
LINE
  8
1
  6
CONTINUOUS
 62
     1
 10
 5.02595264920092E+0000
 20
 2.30829212079334E+0000
 11
 4.98791114689084E+0000
 21
 2.27025061848326E+0000
  0
LINE
  8
1
  6
CONTINUOUS
 62
     1
 10
 5.00830917134590E+0000
 20
 2.31130284712344E+0000
 11
 4.96181400186470E+0000
 21
 2.26480767764224E+0000
  0
LINE
  8
1
  6
CONTINUOUS
 62
     1
 10
 4.99066569349816E+0000
 20
 2.31431357345718E+0000
 11
 4.94605897289875E+0000
 21
 2.26970685286142E+0000
  0
LINE
  8
1
  6
CONTINUOUS
 62
     1
 10
 4.97302221564314E+0000
 20
 2.31732429978729E+0000
 11
 4.94605897289875E+0000
 21
 2.29036105704654E+0000
  0
LINE
  8
1
  6
CONTINUOUS
 62
     1
 10
 4.95537873778812E+0000
 20
 2.32033502612103E+0000
 11
 4.94605897289875E+0000
 21
 2.31101526123166E+0000
  0
LINE
  8
1
  6
CONTINUOUS
 62
     1
 10
 2.26385212489549E+0000
 20
 2.29372095510917E+0000
 11
 2.26385212489549E+0000
 21
 2.29372095510917E+0000
  0
LINE
  8
1
  6
CONTINUOUS
 62
     1
 10
 2.26385212489549E+0000
 20
 2.29372095510917E+0000
 11
 2.42314145154523E+0000
 21
 2.26653943374549E+0000
  0
LINE
  8
1
  6
CONTINUOUS
 62
     1
 10
 2.42314145154523E+0000
 20
 2.26653943374549E+0000
 11
 2.42314145154523E+0000
 21
 2.32694307121710E+0000
  0
LINE
  8
1
  6
CONTINUOUS
 62
     1
 10
 2.42314145154523E+0000
 20
 2.32694307121710E+0000
 11
 2.26385212489549E+0000
 21
 2.29372095510917E+0000
  0
LINE
  8
1
  6
CONTINUOUS
 62
     1
 10
 2.42314145154523E+0000
 20
 2.26653943374549E+0000
 11
 2.42314145154523E+0000
 21
 2.32694307121710E+0000
  0
LINE
  8
1
  6
CONTINUOUS
 62
     1
 10
 2.27630405485615E+0000
 20
 2.29159612724470E+0000
 11
 2.27239705664033E+0000
 21
 2.29550312545689E+0000
  0
LINE
  8
1
  6
CONTINUOUS
 62
     1
 10
 2.30120791477748E+0000
 20
 2.28734647150850E+0000
 11
 2.28948692013364E+0000
 21
 2.29906746615234E+0000
  0
LINE
  8
1
  6
CONTINUOUS
 62
     1
 10
 2.32611177469516E+0000
 20
 2.28309681577230E+0000
 11
 2.30657678362331E+0000
 21
 2.30263180684778E+0000
  0
LINE
  8
1
  6
CONTINUOUS
 62
     1
 10
 2.35101563461649E+0000
 20
 2.27884716003973E+0000
 11
 2.32366664711662E+0000
 21
 2.30619614753959E+0000
  0
LINE
  8
1
  6
CONTINUOUS
 62
     1
 10
 2.37591949453781E+0000
 20
 2.27459750430353E+0000
 11
 2.34075651060630E+0000
 21
 2.30976048823504E+0000
  0
LINE
  8
1
  6
CONTINUOUS
 62
     1
 10
 2.40082335445550E+0000
 20
 2.27034784857096E+0000
 11
 2.35784637409597E+0000
 21
 2.31332482893049E+0000
  0
LINE
  8
1
  6
CONTINUOUS
 62
     1
 10
 2.42314145154523E+0000
 20
 2.26868395566635E+0000
 11
 2.37493623758928E+0000
 21
 2.31688916962230E+0000
  0
LINE
  8
1
  6
CONTINUOUS
 62
     1
 10
 2.42314145154523E+0000
 20
 2.28933815985147E+0000
 11
 2.39202610107895E+0000
 21
 2.32045351031775E+0000
  0
LINE
  8
1
  6
CONTINUOUS
 62
     1
 10
 2.42314145154523E+0000
 20
 2.30999236403659E+0000
 11
 2.40911596456863E+0000
 21
 2.32401785101320E+0000
  0
LINE
  8
1
  6
CONTINUOUS
 62
     1
 10
 2.42314145154160E+0000
 20
 2.27686653583442E+0000
 11
 2.41431971261409E+0000
 21
 2.26804479690691E+0000
  0
LINE
  8
1
  6
CONTINUOUS
 62
     1
 10
 2.42314145154160E+0000
 20
 2.29752074001954E+0000
 11
 2.39667623476271E+0000
 21
 2.27105552324065E+0000
  0
LINE
  8
1
  6
CONTINUOUS
 62
     1
 10
 2.42314145154160E+0000
 20
 2.31817494420466E+0000
 11
 2.37903275690769E+0000
 21
 2.27406624957075E+0000
  0
LINE
  8
1
  6
CONTINUOUS
 62
     1
 10
 2.40812307188753E+0000
 20
 2.32381076873571E+0000
 11
 2.36138927905631E+0000
 21
 2.27707697590813E+0000
  0
LINE
  8
1
  6
CONTINUOUS
 62
     1
 10
 2.38202592685411E+0000
 20
 2.31836782789105E+0000
 11
 2.34374580120493E+0000
 21
 2.28008770223823E+0000
  0
LINE
  8
1
  6
CONTINUOUS
 62
     1
 10
 2.35592878182433E+0000
 20
 2.31292488704275E+0000
 11
 2.32610232334991E+0000
 21
 2.28309842856834E+0000
  0
LINE
  8
1
  6
CONTINUOUS
 62
     1
 10
 2.32983163679091E+0000
 20
 2.30748194619810E+0000
 11
 2.30845884549490E+0000
 21
 2.28610915490208E+0000
  0
LINE
  8
1
  6
CONTINUOUS
 62
     1
 10
 2.30373449176113E+0000
 20
 2.30203900535344E+0000
 11
 2.29081536764352E+0000
 21
 2.28911988123218E+0000
  0
LINE
  8
1
  6
CONTINUOUS
 62
     1
 10
 2.27763734673135E+0000
 20
 2.29659606450514E+0000
 11
 2.27317188979214E+0000
 21
 2.29213060756956E+0000
  0
LINE
  8
1
  6
CONTINUOUS
 62
     1
 10
 2.26385212489549E+0000
 20
 2.29372095510917E+0000
 11
 2.26385212489549E+0000
 21
 2.29372095510917E+0000
  0
LINE
  8
1
  6
CONTINUOUS
 62
     1
 10
 2.26385212489549E+0000
 20
 2.29372095510917E+0000
 11
 2.42314145154523E+0000
 21
 2.26653943374549E+0000
  0
LINE
  8
1
  6
CONTINUOUS
 62
     1
 10
 2.42314145154523E+0000
 20
 2.26653943374549E+0000
 11
 2.42314145154523E+0000
 21
 2.32694307121710E+0000
  0
LINE
  8
1
  6
CONTINUOUS
 62
     1
 10
 2.42314145154523E+0000
 20
 2.32694307121710E+0000
 11
 2.26385212489549E+0000
 21
 2.29372095510917E+0000
  0
LINE
  8
1
  6
CONTINUOUS
 62
     1
 10
 2.42314145154523E+0000
 20
 2.26653943374549E+0000
 11
 2.42314145154523E+0000
 21
 2.32694307121710E+0000
  0
LINE
  8
1
  6
CONTINUOUS
 62
     1
 10
 2.27630405485615E+0000
 20
 2.29159612724470E+0000
 11
 2.27239705664033E+0000
 21
 2.29550312545689E+0000
  0
LINE
  8
1
  6
CONTINUOUS
 62
     1
 10
 2.30120791477748E+0000
 20
 2.28734647150850E+0000
 11
 2.28948692013364E+0000
 21
 2.29906746615234E+0000
  0
LINE
  8
1
  6
CONTINUOUS
 62
     1
 10
 2.32611177469516E+0000
 20
 2.28309681577230E+0000
 11
 2.30657678362331E+0000
 21
 2.30263180684778E+0000
  0
LINE
  8
1
  6
CONTINUOUS
 62
     1
 10
 2.35101563461649E+0000
 20
 2.27884716003973E+0000
 11
 2.32366664711662E+0000
 21
 2.30619614753959E+0000
  0
LINE
  8
1
  6
CONTINUOUS
 62
     1
 10
 2.37591949453781E+0000
 20
 2.27459750430353E+0000
 11
 2.34075651060630E+0000
 21
 2.30976048823504E+0000
  0
LINE
  8
1
  6
CONTINUOUS
 62
     1
 10
 2.40082335445550E+0000
 20
 2.27034784857096E+0000
 11
 2.35784637409597E+0000
 21
 2.31332482893049E+0000
  0
LINE
  8
1
  6
CONTINUOUS
 62
     1
 10
 2.42314145154523E+0000
 20
 2.26868395566635E+0000
 11
 2.37493623758928E+0000
 21
 2.31688916962230E+0000
  0
LINE
  8
1
  6
CONTINUOUS
 62
     1
 10
 2.42314145154523E+0000
 20
 2.28933815985147E+0000
 11
 2.39202610107895E+0000
 21
 2.32045351031775E+0000
  0
LINE
  8
1
  6
CONTINUOUS
 62
     1
 10
 2.42314145154523E+0000
 20
 2.30999236403659E+0000
 11
 2.40911596456863E+0000
 21
 2.32401785101320E+0000
  0
LINE
  8
1
  6
CONTINUOUS
 62
     1
 10
 2.42314145154160E+0000
 20
 2.27686653583442E+0000
 11
 2.41431971261409E+0000
 21
 2.26804479690691E+0000
  0
LINE
  8
1
  6
CONTINUOUS
 62
     1
 10
 2.42314145154160E+0000
 20
 2.29752074001954E+0000
 11
 2.39667623476271E+0000
 21
 2.27105552324065E+0000
  0
LINE
  8
1
  6
CONTINUOUS
 62
     1
 10
 2.42314145154160E+0000
 20
 2.31817494420466E+0000
 11
 2.37903275690769E+0000
 21
 2.27406624957075E+0000
  0
LINE
  8
1
  6
CONTINUOUS
 62
     1
 10
 2.40812307188753E+0000
 20
 2.32381076873571E+0000
 11
 2.36138927905631E+0000
 21
 2.27707697590813E+0000
  0
LINE
  8
1
  6
CONTINUOUS
 62
     1
 10
 2.38202592685411E+0000
 20
 2.31836782789105E+0000
 11
 2.34374580120493E+0000
 21
 2.28008770223823E+0000
  0
LINE
  8
1
  6
CONTINUOUS
 62
     1
 10
 2.35592878182433E+0000
 20
 2.31292488704275E+0000
 11
 2.32610232334991E+0000
 21
 2.28309842856834E+0000
  0
LINE
  8
1
  6
CONTINUOUS
 62
     1
 10
 2.32983163679091E+0000
 20
 2.30748194619810E+0000
 11
 2.30845884549490E+0000
 21
 2.28610915490208E+0000
  0
LINE
  8
1
  6
CONTINUOUS
 62
     1
 10
 2.30373449176113E+0000
 20
 2.30203900535344E+0000
 11
 2.29081536764352E+0000
 21
 2.28911988123218E+0000
  0
LINE
  8
1
  6
CONTINUOUS
 62
     1
 10
 2.27763734673135E+0000
 20
 2.29659606450514E+0000
 11
 2.27317188979214E+0000
 21
 2.29213060756956E+0000
  0
TEXT
  8
1
 62
     1
 10
 5.31908304010722E+0000
 20
 4.94694028927915E+0000
 40
 1.18110236219991E-0001
  1
6.8
  7
STANDARD
 11
 5.31908304010722E+0000
 21
 5.06505052549619E+0000
 50
 9.00000000000000E+0001
 41
 2.56976661400131E-0001
  0
TEXT
  8
1
 62
     1
 10
 6.46592795049946E+0000
 20
 4.05855380539288E+0000
 40
 1.18110236219991E-0001
  1
37
  7
STANDARD
 11
 6.46592795049946E+0000
 21
 4.17666404160991E+0000
 50
 9.00000000000000E+0001
 41
 3.08371993680339E-0001
  0
TEXT
  8
1
 62
     1
 10
 8.39471257250989E+0000
 20
 4.04984413398051E+0000
 40
 1.18110236219991E-0001
  1
TK 54
  7
STANDARD
 11
 8.39471257250989E+0000
 21
 4.16795437019755E+0000
 50
 9.00000000000000E+0001
 41
 3.08371993680339E-0001
  0
TEXT
  8
1
 62
     1
 10
 7.40425560445146E+0000
 20
 3.29210272124328E+0000
 40
 1.18110236219991E-0001
  1
12
  7
STANDARD
 11
 7.40425560445146E+0000
 21
 3.41021295746395E+0000
 50
 0.00000000000000E+0000
 41
 3.08371993680339E-0001
  0
TEXT
  8
1
 62
     1
 10
 7.29999697622407E+0000
 20
 6.49726180038851E+0000
 40
 1.18110236219991E-0001
  1
17
  7
STANDARD
 11
 7.29999697622407E+0000
 21
 6.61537203660555E+0000
 50
 0.00000000000000E+0000
 41
 3.08371993680339E-0001
  0
TEXT
  8
1
 62
     1
 10
 7.38687916641356E+0000
 20
 6.16629428677697E+0000
 40
 1.18110236219991E-0001
  1
15
  7
STANDARD
 11
 7.38687916641356E+0000
 21
 6.28440452299401E+0000
 50
 0.00000000000000E+0000
 41
 3.08371993680339E-0001
  0
TEXT
  8
1
 62
     1
 10
 3.53799814140075E+0000
 20
 6.47113278615871E+0000
 40
 1.18110236219991E-0001
  1
13
  7
STANDARD
 11
 3.53799814140075E+0000
 21
 6.58924302237574E+0000
 50
 0.00000000000000E+0000
 41
 3.08371993680339E-0001
  0
TEXT
  8
1
 62
     1
 10
 3.45111595122216E+0000
 20
 2.35145820888647E+0000
 40
 1.18110236219991E-0001
  1
73
  7
STANDARD
 11
 3.45111595122216E+0000
 21
 2.46956844510714E+0000
 50
 0.00000000000000E+0000
 41
 3.08371993680339E-0001
  0
TEXT
  8
1
 62
     1
 10
 9.63851444458123E+0000
 20
 7.46369742229945E-0001
 40
 1.18110236219991E-0001
  1
26.12.2003
  7
STANDARD
 11
 9.63851444458123E+0000
 21
 8.64479978449708E-0001
 50
 0.00000000000000E+0000
 41
 2.77534794312487E-0001
  0
TEXT
  8
1
 62
     1
 10
 1.08356142427947E+0001
 20
 3.86353062168382E-0001
 40
 1.18110236219991E-0001
  1
1
  7
STANDARD
 11
 1.08356142427947E+0001
 21
 5.04463298388146E-0001
 50
 0.00000000000000E+0000
 41
 3.08371993680339E-0001
  0
TEXT
  8
1
 62
     1
 10
 9.65963973513863E+0000
 20
 1.29589398720964E+0000
 40
 1.96850393699833E-0001
  1
Federkäfig vorn
  7
STANDARD
 11
 9.65963973513863E+0000
 21
 1.49274438091015E+0000
 50
 0.00000000000000E+0000
 41
 1.48018556966690E-0001
  0
TEXT
  8
1
 62
     1
 10
 8.04739304378745E+0000
 20
 4.11070907609974E+0000
 40
 1.18110236219991E-0001
  1
17H7
  7
STANDARD
 11
 8.04739304378745E+0000
 21
 4.22881931231677E+0000
 50
 9.00000000000000E+0001
 41
 3.27645243285588E-0001
  0
TEXT
  8
1
 62
     1
 10
 9.08097554075357E+0000
 20
 3.93234464366287E-0001
 40
 1.18110236219991E-0001
  1
(c)
  7
STANDARD
 11
 9.08097554075357E+0000
 21
 5.11344700586051E-0001
 50
 0.00000000000000E+0000
 41
 2.05581329120378E-0001
0
ENDSEC
0
EOF
