0
SECTION
  2
HEADER
  9
$LTSCALE
 40
     10
  9
$LIMMIN
 10
     0.0
 20
     0.0
  9
$LIMMAX
 10
      11.5
 20
       8.0
  9
$EXTMIN
 10
     0.0
 20
     0.0
  9
$EXTMAX
 10
      11.5
 20
       8.0
   9
$CLAYER
   8
1
   9
$CECOLOR
  62
     7
   9
$CELTYPE
   6
CONTINUOUS
  0
ENDSEC
  0
SECTION
  2
TABLES
  0
TABLE
  2
LTYPE
 70
    10
  0
LTYPE
  2
CONTINUOUS
 70
    64
  3
Solid line
 72
    65
 73
     0
 40
0.0
  0
LTYPE
  2
DASHED
 70
     0
  3
__ __ __ __ __ __ __ __ __ __ __ __ __ __ __
 72
    65
 73
     2
 40
0.75
 49
0.5
 49
-0.25
  0
LTYPE
  2
HIDDEN
 70
     0
  3
_ _ _ _ _ _ _ _ _ _ _ _ _ _ _ _ _ _ _ _ _ _
 72
    65
 73
     2
 40
0.375
 49
0.25
 49
-0.125
  0
LTYPE
  2
CENTER
 70
     0
  3
____ _ ____ _ ____ _ ____ _ ____ _ ____ _ __
 72
    65
 73
     4
 40
2.0
 49
1.25
 49
-0.25
 49
0.25
 49
-0.25
  0
LTYPE
  2
PHANTOM
 70
     0
  3
_____ _ _ _____ _ _ _____ _ _ _____ _ _ ____
 72
    65
 73
     6
 40
2.5
 49
1.25
 49
-0.25
 49
0.25
 49
-0.25
 49
0.25
 49
-0.25
  0
LTYPE
  2
DOT
 70
     0
  3
............................................
 72
    65
 73
     2
 40
0.25
 49
0.0
 49
-0.25
  0
LTYPE
  2
DASHDOT
 70
     0
  3
__ . __ . __ . __ . __ . __ . __ . __ . __ .
 72
    65
 73
     4
 40
1.0
 49
0.5
 49
-0.25
 49
0.0
 49
-0.25
  0
LTYPE
  2
BORDER
 70
     0
  3
__ __ . __ __ . __ __ . __ __ . __ __ . __ _
 72
    65
 73
     6
 40
1.75
 49
0.5
 49
-0.25
 49
0.5
 49
-0.25
 49
0.0
 49
-0.25
  0
LTYPE
  2
DIVIDE
 70
     0
  3
__ . . __ . . __ . . __ . . __ . . __ . . __
 72
    65
 73
     6
 40
1.25
 49
0.5
 49
-0.25
 49
0.0
 49
-0.25
 49
0.0
 49
-0.25
  0
LTYPE
  2
DIVIDE2
 70
     0
  3
close
 72
    65
 73
     2
 40
0.1
 49
0.05
 49
-0.05
  0
ENDTAB
0
TABLE
  2
LAYER
 70
   256
  0
LAYER
  2
1
 70
     0
  6
CONTINUOUS
 62
1
  0
ENDTAB
  0
TABLE
  2
STYLE
 70
     8
  0
STYLE
  2
TXT
 70
0
 40
0.0
 41
1.0
 50
0.0
 71
0
 42
1.0
  3
TXT
  4

  0
STYLE
  2
COMPLEX
 70
0
 40
0.0
 41
1.0
 50
0.0
 71
0
 42
1.0
  3
COMPLEX
  4

  0
STYLE
  2
ITALIC
 70
0
 40
0.0
 41
1.0
 50
0.0
 71
0
 42
1.0
  3
ITALIC
  4

  0
STYLE
  2
SIMPLEX
70
0
 40
0.0
 41
1.0
 50
0.0
 71
0
 42
1.0
  3
SIMPLEX
  4

  0
STYLE
  2
MONOTXT
 70
0
 40
0.0
 41
1.0
 50
0.0
 71
0
 42
1.0
  3
MONOTXT
  4

  0
STYLE
  2
SCRIPTC
 70
0
 40
0.0
 41
1.0
 50
0.0
 71
0
 42
1.0
  3
SCRIPTC
  4

  0
STYLE
  2
GOTHICE
 70
0
 40
0.0
 41
1.0
 50
0.0
 71
0
 42
1.0
  3
GOTHICE
  4

  0
ENDTAB
  0
TABLE
  2
VIEW
 70
     0
  0
ENDTAB
  0
ENDSEC
  0
SECTION
  2
ENTITIES
  0
LINE
  8
1
  6
CONTINUOUS
 62
     0
 10
 1.11016518104298E+0001
 20
 3.82354629517522E-0001
 11
 8.92001218340010E+0000
 21
 3.82354629517522E-0001
  0
LINE
  8
1
  6
CONTINUOUS
 62
     0
 10
 8.92001218340010E+0000
 20
 3.82354629517522E-0001
 11
 8.92001218340010E+0000
 21
 1.56921651272569E+0000
  0
LINE
  8
1
  6
CONTINUOUS
 62
     0
 10
 8.92001218340010E+0000
 20
 1.56921651272569E+0000
 11
 1.11016518104298E+0001
 21
 1.56921651272569E+0000
  0
LINE
  8
1
  6
CONTINUOUS
 62
     0
 10
 1.11016518104298E+0001
 20
 1.56921651272569E+0000
 11
 1.11016518104298E+0001
 21
 3.82354629517522E-0001
  0
LINE
  8
1
  6
CONTINUOUS
 62
     0
 10
 8.91933058328868E+0000
 20
 1.25583163345436E+0000
 11
 1.11025749011751E+0001
 21
 1.25583163345436E+0000
  0
LINE
  8
1
  6
CONTINUOUS
 62
     0
 10
 8.92696784700092E+0000
 20
 5.40161907710171E-0001
 11
 1.11102121648873E+0001
 21
 5.40161907710171E-0001
  0
TEXT
  8
1
 62
     0
 10
 8.96746009902563E+0000
 20
 1.36773653675118E+0000
 40
 1.18110236219991E-0001
  1
Benennung
  7
STANDARD
 11
 8.96746009902563E+0000
 21
 1.48584677297185E+0000
 50
 0.00000000000000E+0000
 41
 3.16937882393631E-0001
  0
LINE
  8
1
  6
CONTINUOUS
 62
     0
 10
 9.59187021224352E+0000
 20
 1.56777501911711E+0000
 11
 9.59187021224352E+0000
 21
 1.25583163345436E+0000
  0
LINE
  8
1
  6
CONTINUOUS
 62
     0
 10
 8.91933058328868E+0000
 20
 1.08979725075915E+0000
 11
 1.11025749011751E+0001
 21
 1.08979725075915E+0000
  0
LINE
  8
1
  6
CONTINUOUS
 62
     0
 10
 8.91933058328868E+0000
 20
 9.23762868064841E-0001
 11
 1.11025749011751E+0001
 21
 9.23762868064841E-0001
  0
TEXT
  8
1
 62
     0
 10
 8.97221691232699E+0000
 20
 1.10520544596875E+0000
 40
 1.18110236219991E-0001
  1
Werkstoff
  7
STANDARD
 11
 8.97221691232699E+0000
 21
 1.22331568218942E+0000
 50
 0.00000000000000E+0000
 41
 2.56976661400131E-0001
  0
LINE
  8
1
  6
CONTINUOUS
 62
     0
 10
 9.59187021224352E+0000
 20
 1.25583163345436E+0000
 11
 9.59187021224352E+0000
 21
 1.08979725075915E+0000
  0
LINE
  8
1
  6
CONTINUOUS
 62
     0
 10
 1.05203764164035E+0001
 20
 1.25583163345436E+0000
 11
 1.05203764164035E+0001
 21
 1.08979725075915E+0000
  0
TEXT
  8
1
 62
     0
 10
 1.05862595939689E+0001
 20
 1.10520544596875E+0000
 40
 1.18110236219991E-0001
  1
M 1:1
  7
STANDARD
 11
 1.05862595939689E+0001
 21
 1.22331568218942E+0000
 50
 0.00000000000000E+0000
 41
 2.62116194628561E-0001
  0
LINE
  8
1
  6
CONTINUOUS
 62
     0
 10
 8.92001218340010E+0000
 20
 1.56921651272569E+0000
 11
 1.11075938536378E+0001
 21
 1.56921651272569E+0000
  0
LINE
  8
1
  6
CONTINUOUS
 62
     0
 10
 8.92001218340010E+0000
 20
 1.56921651272569E+0000
 11
 1.11016518104298E+0001
 21
 1.56921651272569E+0000
  0
LINE
  8
1
  6
CONTINUOUS
 62
     0
 10
 1.11016518104298E+0001
 20
 1.56921651272569E+0000
 11
 1.11016518104298E+0001
 21
 3.82354629517522E-0001
  0
LINE
  8
1
  6
CONTINUOUS
 62
     0
 10
 1.11016518104298E+0001
 20
 3.82354629517522E-0001
 11
 8.92001218340010E+0000
 21
 3.82354629517522E-0001
  0
LINE
  8
1
  6
CONTINUOUS
 62
     0
 10
 8.92001218340010E+0000
 20
 3.82354629517522E-0001
 11
 8.92001218340010E+0000
 21
 1.56921651272569E+0000
  0
TEXT
  8
1
 62
     0
 10
 8.96565921993169E+0000
 20
 9.46117512187811E-0001
 40
 1.18110236219991E-0001
  1
Bearb.
  7
STANDARD
 11
 8.96565921993169E+0000
 21
 1.06422774840757E+0000
 50
 0.00000000000000E+0000
 41
 2.69825494470297E-0001
  0
LINE
  8
1
  6
CONTINUOUS
 62
     0
 10
 9.59295527153881E+0000
 20
 1.09092399547080E+0000
 11
 9.59295527153881E+0000
 21
 9.24814013757896E-0001
  0
LINE
  8
1
  6
CONTINUOUS
 62
     0
 10
 8.92127506533870E+0000
 20
 7.52771532709630E-0001
 11
 1.11020165277878E+0001
 21
 7.52771532709630E-0001
  0
LINE
  8
1
  6
CONTINUOUS
 62
     0
 10
 9.59295527153881E+0000
 20
 9.24814013757896E-0001
 11
 9.59295527153881E+0000
 21
 7.52771532709630E-0001
  0
TEXT
  8
1
 62
     0
 10
 8.96565921993169E+0000
 20
 7.71108781465955E-0001
 40
 1.18110236219991E-0001
  1
Datum
  7
STANDARD
 11
 8.96565921993169E+0000
 21
 8.89219017685718E-0001
 50
 0.00000000000000E+0000
 41
 3.23790593364265E-0001
  0
LINE
  8
1
  6
CONTINUOUS
 62
     0
 10
 1.05191046307591E+0001
 20
 5.36235306551134E-0001
 11
 1.05191046307591E+0001
 21
 3.84956573209365E-0001
  0
TEXT
  8
1
 62
     0
 10
 9.64917520069866E+0000
 20
 9.37218763171586E-0001
 40
 1.18110236219991E-0001
  1
D.Freind
  7
STANDARD
 11
 9.64917520069866E+0000
 21
 1.05532899939135E+0000
 50
 0.00000000000000E+0000
 41
 2.60188869667672E-0001
  0
TEXT
  8
1
 62
     0
 10
 1.05427761798928E+0001
 20
 4.00327572291644E-0001
 40
 1.18110236219991E-0001
  1
Blatt
  7
STANDARD
 11
 1.05427761798928E+0001
 21
 5.18437808511408E-0001
 50
 0.00000000000000E+0000
 41
 2.31278995260254E-0001
  0
TEXT
  8
1
 62
     0
 10
 9.06892377461190E+0000
 20
 5.62597981070212E-0001
 40
 1.18110236219991E-0001
  1
für Revolver 8-fach 
  7
STANDARD
 11
 9.06892377461190E+0000
 21
 6.80708217289975E-0001
 50
 0.00000000000000E+0000
 41
 2.35133645181349E-0001
  0
TEXT
  8
1
 62
     0
 10
 9.24021817310131E+0000
 20
 4.06252740876880E-0001
 40
 1.18110236219991E-0001
  1
www.cnc-projects.de.vu
  7
STANDARD
 11
 9.24021817310131E+0000
 21
 5.24362977096644E-0001
 50
 0.00000000000000E+0000
 41
 2.66321267269177E-0001
  0
TEXT
  8
1
 62
     0
 10
 9.90247638571600E+0000
 20
 1.30835296497571E+0000
 40
 1.96850393699833E-0001
  1
Gehäuse
  7
STANDARD
 11
 9.90247638571600E+0000
 21
 1.50520335867623E+0000
 50
 0.00000000000000E+0000
 41
 1.91631167501555E-0001
  0
TEXT
  8
1
 62
     0
 10
 9.65434287698008E+0000
 20
 1.11828676223740E+0000
 40
 1.18110236219991E-0001
  1
Aluminium
  7
STANDARD
 11
 9.65434287698008E+0000
 21
 1.23639699845808E+0000
 50
 0.00000000000000E+0000
 41
 2.99806104967047E-0001
  0
TEXT
  8
1
 62
     0
 10
 9.65434287698008E+0000
 20
 7.61215627031561E-0001
 40
 1.18110236219991E-0001
  1
25.12.2003
  7
STANDARD
 11
 9.65434287698008E+0000
 21
 8.79325863251324E-0001
 50
 0.00000000000000E+0000
 41
 2.77534794312487E-0001
  0
TEXT
  8
1
 62
     0
 10
 1.08419432110240E+0001
 20
 3.99698089282538E-0001
 40
 1.18110236219991E-0001
  1
2
  7
STANDARD
 11
 1.08419432110240E+0001
 21
 5.17808325502301E-0001
 50
 0.00000000000000E+0000
 41
 3.08371993680339E-0001
  0
LINE
  8
1
  6
CONTINUOUS
 62
     0
 10
 1.56876714084137E+0000
 20
 2.10138538042520E+0000
 11
 9.01340125592833E+0000
 21
 2.10138538042520E+0000
  0
LINE
  8
1
  6
CONTINUOUS
 62
     0
 10
 9.01340125592833E+0000
 20
 2.10138538042520E+0000
 11
 9.01340125592833E+0000
 21
 2.53952721571477E+0000
  0
LINE
  8
1
  6
CONTINUOUS
 62
     0
 10
 1.56876714084137E+0000
 20
 2.10138538042520E+0000
 11
 1.56876714084137E+0000
 21
 2.53952721571477E+0000
  0
LINE
  8
1
  6
CONTINUOUS
 62
     0
 10
 1.56876714084137E+0000
 20
 2.53952721571477E+0000
 11
 2.00582980904437E+0000
 21
 2.53952721571477E+0000
  0
LINE
  8
1
  6
CONTINUOUS
 62
     0
 10
 9.01340125592833E+0000
 20
 2.53952721571477E+0000
 11
 8.57633858772169E+0000
 21
 2.53952721571477E+0000
  0
LINE
  8
1
  6
CONTINUOUS
 62
     0
 10
 8.57633858772169E+0000
 20
 2.53952721571477E+0000
 11
 8.57633858772169E+0000
 21
 6.64345573955507E+0000
  0
LINE
  8
1
  6
CONTINUOUS
 62
     0
 10
 8.57633858772169E+0000
 20
 6.64345573955507E+0000
 11
 1.99126105343748E+0000
 21
 6.64345573955507E+0000
  0
LINE
  8
1
  6
CONTINUOUS
 62
     0
 10
 1.99126105343748E+0000
 20
 6.64345573955507E+0000
 11
 1.99126105343748E+0000
 21
 2.53952721571477E+0000
  0
LINE
  8
1
  6
CONTINUOUS
 62
     0
 10
 2.42832372165140E+0000
 20
 6.64345573956234E+0000
 11
 2.42832372165140E+0000
 21
 2.53952721571113E+0000
  0
LINE
  8
1
  6
CONTINUOUS
 62
     0
 10
 2.42832372165140E+0000
 20
 2.53952721571113E+0000
 11
 5.85198128924822E+0000
 21
 2.53952721571113E+0000
  0
LINE
  8
1
  6
CONTINUOUS
 62
     0
 10
 5.85198128924822E+0000
 20
 2.53952721571113E+0000
 11
 5.85198128924822E+0000
 21
 6.64345573956234E+0000
  0
LINE
  8
1
  6
CONTINUOUS
 62
     0
 10
 6.17249391259975E+0000
 20
 2.10138538042520E+0000
 11
 6.17249391259975E+0000
 21
 6.64345573956234E+0000
  0
LINE
  8
1
  6
DASHDOT
 62
     0
 10
 2.20504883021567E+0000
 20
 6.41305020282016E+0000
 11
 2.20504883021567E+0000
 21
 6.11871026983135E+0000
  0
LINE
  8
1
  6
DASHDOT
 62
     0
 10
 2.20504883021567E+0000
 20
 5.79588582718861E+0000
 11
 2.20504883021567E+0000
 21
 5.48255622109718E+0000
  0
LINE
  8
1
  6
DASHDOT
 62
     0
 10
 2.20504883021567E+0000
 20
 5.24518530739442E+0000
 11
 2.20504883021567E+0000
 21
 4.92236086475168E+0000
  0
LINE
  8
1
  6
DASHDOT
 62
     0
 10
 2.20504883021567E+0000
 20
 4.15327910434280E+0000
 11
 2.20504883021567E+0000
 21
 3.79247531551300E+0000
  0
LINE
  8
1
  6
DASHDOT
 62
     0
 10
 2.20504883021567E+0000
 20
 3.00440388200514E+0000
 11
 2.20504883021567E+0000
 21
 2.72905362210440E+0000
  0
LINE
  8
1
  6
DASHDOT
 62
     0
 10
 2.05350562619424E+0000
 20
 2.89046584342577E+0000
 11
 2.37553493474115E+0000
 21
 2.89046584342577E+0000
  0
LINE
  8
1
  6
DASHDOT
 62
     0
 10
 2.03456272569383E+0000
 20
 3.99186688302143E+0000
 11
 2.37553493474115E+0000
 21
 3.99186688302143E+0000
  0
LINE
  8
1
  6
DASHDOT
 62
     0
 10
 2.03456272569383E+0000
 20
 5.09326792261709E+0000
 11
 2.37553493474115E+0000
 21
 5.09326792261709E+0000
  0
LINE
  8
1
  6
DASHDOT
 62
     0
 10
 2.05350562619424E+0000
 20
 5.64396844241855E+0000
 11
 2.34712058398509E+0000
 21
 5.64396844241855E+0000
  0
LINE
  8
1
  6
DASHDOT
 62
     0
 10
 2.04403417594222E+0000
 20
 6.24214314495475E+0000
 11
 2.35659203423711E+0000
 21
 6.24214314495475E+0000
  0
LINE
  8
1
  6
DASHDOT
 62
     0
 10
 5.97468603024026E+0000
 20
 6.42254503937147E+0000
 11
 5.97468603024026E+0000
 21
 6.12820510637539E+0000
  0
LINE
  8
1
  6
DASHDOT
 62
     0
 10
 5.97468603024026E+0000
 20
 5.24518530739442E+0000
 11
 5.97468603024026E+0000
 21
 4.94135053784703E+0000
  0
LINE
  8
1
  6
DASHDOT
 62
     0
 10
 5.97468603024026E+0000
 20
 4.15327910434280E+0000
 11
 5.97468603024026E+0000
 21
 3.84944433479905E+0000
  0
LINE
  8
1
  6
DASHDOT
 62
     0
 10
 5.97468603024026E+0000
 20
 3.00440388200514E+0000
 11
 5.97468603024026E+0000
 21
 2.73854845865571E+0000
  0
LINE
  8
1
  6
DASHDOT
 62
     0
 10
 5.86102862722328E+0000
 20
 2.89046584342577E+0000
 11
 6.08834343324997E+0000
 21
 2.89046584342577E+0000
  0
LINE
  8
1
  6
DASHDOT
 62
     0
 10
 5.87997152772732E+0000
 20
 3.99186688302143E+0000
 11
 6.11675778400968E+0000
 21
 3.99186688302143E+0000
  0
LINE
  8
1
  6
DASHDOT
 62
     0
 10
 5.87997152772732E+0000
 20
 5.09326792261709E+0000
 11
 6.12622923426534E+0000
 21
 5.09326792261709E+0000
  0
LINE
  8
1
  6
DASHDOT
 62
     0
 10
 5.87050007747894E+0000
 20
 6.24214314495475E+0000
 11
 6.10728633376129E+0000
 21
 6.24214314495475E+0000
  0
LINE
  8
1
  6
DASHDOT
 62
     0
 10
 5.97468603024026E+0000
 20
 3.55510440180296E+0000
 11
 5.97468603024026E+0000
 21
 3.31773348809656E+0000
  0
LINE
  8
1
  6
DASHDOT
 62
     0
 10
 6.08834343324997E+0000
 20
 3.44116636322724E+0000
 11
 5.88944297798298E+0000
 21
 3.44116636322724E+0000
  0
LINE
  8
1
  6
DASHDOT
 62
     0
 10
 2.57664131681304E+0000
 20
 2.49438465989078E+0000
 11
 2.57664131681304E+0000
 21
 2.13358087105735E+0000
  0
LINE
  8
1
  6
DASHDOT
 62
     0
 10
 4.07313045651972E+0000
 20
 2.51337433298613E+0000
 11
 4.07313045651972E+0000
 21
 2.15257054415633E+0000
  0
LINE
  8
1
  6
DASHDOT
 62
     0
 10
 5.56961959623004E+0000
 20
 2.51337433298613E+0000
 11
 5.56961959623004E+0000
 21
 2.12408603450967E+0000
  0
LINE
  8
1
  6
DASHDOT
 62
     0
 10
 2.37774086153513E+0000
 20
 2.32347760202174E+0000
 11
 2.82289902334742E+0000
 21
 2.32347760202174E+0000
  0
LINE
  8
1
  6
DASHDOT
 62
     0
 10
 3.89317290174949E+0000
 20
 2.32347760202174E+0000
 11
 4.30991671280935E+0000
 21
 2.32347760202174E+0000
  0
LINE
  8
1
  6
DASHDOT
 62
     0
 10
 5.37071914095577E+0000
 20
 2.32347760202174E+0000
 11
 5.78746295201563E+0000
 21
 2.32347760202174E+0000
  0
CIRCLE
  8
1
  6
CONTINUOUS
 62
     0
 10
 2.20448649493483E+0000
 20
 6.23975972161134E+0000
 40
 6.73537589391344E-0002
  0
ARC
  8
1
  6
CONTINUOUS
 62
     0
 10
 2.20343939266968E+0000
 20
 6.24065374706697E+0000
 40
 8.71994275075849E-0002
 50
 2.88704977438902E+0001
 51
 3.04048893765081E+0002
  0
CIRCLE
  8
1
  6
CONTINUOUS
 62
     0
 10
 2.20448649493483E+0000
 20
 5.09196624815377E+0000
 40
 6.73537589391344E-0002
  0
ARC
  8
1
  6
CONTINUOUS
 62
     0
 10
 2.20343939266968E+0000
 20
 5.09286027360940E+0000
 40
 8.71994275075849E-0002
 50
 2.88704977438902E+0001
 51
 3.04048893765081E+0002
  0
CIRCLE
  8
1
  6
CONTINUOUS
 62
     0
 10
 2.20448649493483E+0000
 20
 3.98978046238335E+0000
 40
 6.73537589391344E-0002
  0
ARC
  8
1
  6
CONTINUOUS
 62
     0
 10
 2.20343939266968E+0000
 20
 3.99067448783899E+0000
 40
 8.71994275075849E-0002
 50
 2.88704977438902E+0001
 51
 3.04048893765081E+0002
  0
CIRCLE
  8
1
  6
CONTINUOUS
 62
     0
 10
 2.20448649493483E+0000
 20
 2.89139531724868E+0000
 40
 6.73537589391344E-0002
  0
ARC
  8
1
  6
CONTINUOUS
 62
     0
 10
 2.20343939266968E+0000
 20
 2.89228934270432E+0000
 40
 8.71994275075849E-0002
 50
 2.88704977438902E+0001
 51
 3.04048893765081E+0002
  0
CIRCLE
  8
1
  6
CONTINUOUS
 62
     0
 10
 2.57982316115522E+0000
 20
 2.32129922115564E+0000
 40
 6.73537589391344E-0002
  0
ARC
  8
1
  6
CONTINUOUS
 62
     0
 10
 2.57877605889007E+0000
 20
 2.32219324661128E+0000
 40
 8.71994275075849E-0002
 50
 2.88704977438902E+0001
 51
 3.04048893765081E+0002
  0
CIRCLE
  8
1
  6
CONTINUOUS
 62
     0
 10
 4.06979598766338E+0000
 20
 2.32129922115564E+0000
 40
 6.73537589391344E-0002
  0
ARC
  8
1
  6
CONTINUOUS
 62
     0
 10
 4.06874888540187E+0000
 20
 2.32219324661128E+0000
 40
 8.71994275075849E-0002
 50
 2.88704977438902E+0001
 51
 3.04048893765081E+0002
  0
CIRCLE
  8
1
  6
CONTINUOUS
 62
     0
 10
 5.56735137308715E+0000
 20
 2.32129922115564E+0000
 40
 6.73537589391344E-0002
  0
ARC
  8
1
  6
CONTINUOUS
 62
     0
 10
 5.56630427082564E+0000
 20
 2.32219324661128E+0000
 40
 8.71994275075849E-0002
 50
 2.88704977438902E+0001
 51
 3.04048893765081E+0002
  0
CIRCLE
  8
1
  6
CONTINUOUS
 62
     0
 10
 5.96922699549759E+0000
 20
 2.88759467660566E+0000
 40
 6.73537589391344E-0002
  0
ARC
  8
1
  6
CONTINUOUS
 62
     0
 10
 5.96817989323608E+0000
 20
 2.88848870206130E+0000
 40
 8.71994275075849E-0002
 50
 2.88704977438902E+0001
 51
 3.04048893765081E+0002
  0
CIRCLE
  8
1
  6
CONTINUOUS
 62
     0
 10
 5.96922699549759E+0000
 20
 3.98978046238335E+0000
 40
 6.73537589391344E-0002
  0
ARC
  8
1
  6
CONTINUOUS
 62
     0
 10
 5.96817989323608E+0000
 20
 3.99067448783899E+0000
 40
 8.71994275075849E-0002
 50
 2.88704977438902E+0001
 51
 3.04048893765081E+0002
  0
CIRCLE
  8
1
  6
CONTINUOUS
 62
     0
 10
 5.96922699549759E+0000
 20
 5.09196624816104E+0000
 40
 6.73537589391344E-0002
  0
ARC
  8
1
  6
CONTINUOUS
 62
     0
 10
 5.96817989323608E+0000
 20
 5.09286027361668E+0000
 40
 8.71994275075849E-0002
 50
 2.88704977438902E+0001
 51
 3.04048893765081E+0002
  0
CIRCLE
  8
1
  6
CONTINUOUS
 62
     0
 10
 5.97301827495539E+0000
 20
 6.23975972161861E+0000
 40
 6.73537589391344E-0002
  0
ARC
  8
1
  6
CONTINUOUS
 62
     0
 10
 5.97197117269388E+0000
 20
 6.24065374707425E+0000
 40
 8.71994275075849E-0002
 50
 2.88704977438902E+0001
 51
 3.04048893765081E+0002
  0
CIRCLE
  8
1
  6
CONTINUOUS
 62
     0
 10
 2.20321239044279E+0000
 20
 5.64366919684107E+0000
 40
 6.00789578966214E-0002
  0
CIRCLE
  8
1
  6
CONTINUOUS
 62
     0
 10
 5.97349851900799E+0000
 20
 3.44127571268109E+0000
 40
 6.00789578966214E-0002
  0
LINE
  8
1
  6
DASHDOT
 62
     0
 10
 6.90289165535796E+0000
 20
 4.17128699120804E+0000
 11
 7.70417450332752E+0000
 21
 4.17128699120804E+0000
  0
LINE
  8
1
  6
DASHDOT
 62
     0
 10
 7.30353307933547E+0000
 20
 4.59801956965384E+0000
 11
 7.30353307933547E+0000
 21
 3.76965632913561E+0000
  0
LINE
  8
1
  6
DASHDOT
 62
     0
 10
 4.27368231044966E+0000
 20
 5.10005789723800E+0000
 11
 4.27368231044966E+0000
 21
 4.35955136405391E+0000
  0
LINE
  8
1
  6
DASHDOT
 62
     0
 10
 3.92312106445752E+0000
 20
 4.76118202612270E+0000
 11
 4.66180368993082E+0000
 21
 4.76118202612270E+0000
  0
LINE
  8
1
  6
CONTINUOUS
 62
     0
 10
 1.56876714084137E+0000
 20
 2.10138538042520E+0000
 11
 1.06842426169169E+0000
 21
 2.10138538042520E+0000
  0
LINE
  8
1
  6
CONTINUOUS
 62
     0
 10
 1.06842426169169E+0000
 20
 2.10138538042520E+0000
 11
 1.06842426169169E+0000
 21
 2.88663525155789E+0000
  0
LINE
  8
1
  6
CONTINUOUS
 62
     0
 10
 1.06842426169169E+0000
 20
 2.88663525155789E+0000
 11
 2.05477074376904E+0000
 21
 2.88663525155789E+0000
  0
LINE
  8
1
  6
CONTINUOUS
 62
     0
 10
 1.06842426169169E+0000
 20
 2.88663525155789E+0000
 11
 1.06842426169169E+0000
 21
 3.99407098570737E+0000
  0
LINE
  8
1
  6
CONTINUOUS
 62
     0
 10
 1.06842426169169E+0000
 20
 3.99407098570737E+0000
 11
 2.06463420858927E+0000
 21
 3.99407098570737E+0000
  0
LINE
  8
1
  6
CONTINUOUS
 62
     0
 10
 1.06842426169169E+0000
 20
 3.99407098570737E+0000
 11
 1.06842426169169E+0000
 21
 5.09161890079849E+0000
  0
LINE
  8
1
  6
CONTINUOUS
 62
     0
 10
 1.06842426169169E+0000
 20
 5.09161890079849E+0000
 11
 2.05477074376904E+0000
 21
 5.09161890079849E+0000
  0
LINE
  8
1
  6
CONTINUOUS
 62
     0
 10
 1.06842426169169E+0000
 20
 5.09161890079849E+0000
 11
 1.06842426169169E+0000
 21
 5.64533676786959E+0000
  0
LINE
  8
1
  6
CONTINUOUS
 62
     0
 10
 1.06842426169169E+0000
 20
 5.64533676786959E+0000
 11
 2.09422460304995E+0000
 21
 5.64533676786959E+0000
  0
LINE
  8
1
  6
CONTINUOUS
 62
     0
 10
 1.99126105343748E+0000
 20
 6.64345573955507E+0000
 11
 1.06842426169169E+0000
 21
 6.64345573955507E+0000
  0
LINE
  8
1
  6
CONTINUOUS
 62
     0
 10
 1.06842426169169E+0000
 20
 6.64345573955507E+0000
 11
 1.06842426169169E+0000
 21
 6.23860591116681E+0000
  0
LINE
  8
1
  6
CONTINUOUS
 62
     0
 10
 1.06842426169169E+0000
 20
 6.23860591116681E+0000
 11
 2.06463420858927E+0000
 21
 6.23860591116681E+0000
  0
LINE
  8
1
  6
CONTINUOUS
 62
     0
 10
 1.56876714084137E+0000
 20
 2.53952721571477E+0000
 11
 1.33473781185239E+0000
 21
 2.53952721571477E+0000
  0
LINE
  8
1
  6
CONTINUOUS
 62
     0
 10
 1.33473781185239E+0000
 20
 2.53952721571477E+0000
 11
 1.33473781185239E+0000
 21
 2.10549754622480E+0000
  0
LINE
  8
1
  6
CONTINUOUS
 62
     0
 10
 1.99126105343748E+0000
 20
 6.64345573955507E+0000
 11
 1.99126105343748E+0000
 21
 6.99008015933941E+0000
  0
LINE
  8
1
  6
CONTINUOUS
 62
     0
 10
 1.99126105343748E+0000
 20
 6.99008015933941E+0000
 11
 2.20272271607973E+0000
 21
 6.99008015933941E+0000
  0
LINE
  8
1
  6
CONTINUOUS
 62
     0
 10
 2.20272271607973E+0000
 20
 6.99008015933941E+0000
 11
 2.20272271607973E+0000
 21
 6.38692319699476E+0000
  0
LINE
  8
1
  6
CONTINUOUS
 62
     0
 10
 6.17249391259975E+0000
 20
 6.64345573956234E+0000
 11
 6.17249391259975E+0000
 21
 6.99008015933941E+0000
  0
LINE
  8
1
  6
CONTINUOUS
 62
     0
 10
 6.17249391259975E+0000
 20
 6.99008015933941E+0000
 11
 5.97056627761049E+0000
 21
 6.99008015933941E+0000
  0
LINE
  8
1
  6
CONTINUOUS
 62
     0
 10
 5.97056627761049E+0000
 20
 6.99008015933941E+0000
 11
 5.97056627761049E+0000
 21
 6.39681101604219E+0000
  0
LINE
  8
1
  6
CONTINUOUS
 62
     0
 10
 6.65114535024622E+0000
 20
 2.10549754622480E+0000
 11
 6.65114535024622E+0000
 21
 2.88663525155789E+0000
  0
LINE
  8
1
  6
CONTINUOUS
 62
     0
 10
 6.65114535024622E+0000
 20
 2.88663525155789E+0000
 11
 6.05933746100345E+0000
 21
 2.88663525155789E+0000
  0
LINE
  8
1
  6
CONTINUOUS
 62
     0
 10
 6.65114535024622E+0000
 20
 2.88663525155789E+0000
 11
 6.65114535024622E+0000
 21
 3.99407098570737E+0000
  0
LINE
  8
1
  6
CONTINUOUS
 62
     0
 10
 6.65114535024622E+0000
 20
 3.99407098570737E+0000
 11
 6.04947399617231E+0000
 21
 3.99407098570737E+0000
  0
LINE
  8
1
  6
CONTINUOUS
 62
     0
 10
 6.65114535024622E+0000
 20
 3.99407098570737E+0000
 11
 6.65114535024622E+0000
 21
 5.09161890079849E+0000
  0
LINE
  8
1
  6
CONTINUOUS
 62
     0
 10
 6.65114535024622E+0000
 20
 5.09161890079849E+0000
 11
 6.08892785545322E+0000
 21
 5.09161890079849E+0000
  0
LINE
  8
1
  6
CONTINUOUS
 62
     0
 10
 6.65114535024622E+0000
 20
 6.64400649241725E+0000
 11
 6.65114535024622E+0000
 21
 6.23860591116681E+0000
  0
LINE
  8
1
  6
CONTINUOUS
 62
     0
 10
 6.65114535024622E+0000
 20
 6.23860591116681E+0000
 11
 6.04947399617231E+0000
 21
 6.23860591116681E+0000
  0
LINE
  8
1
  6
CONTINUOUS
 62
     0
 10
 2.00582980904437E+0000
 20
 1.55177967915188E+0000
 11
 2.57753437927022E+0000
 21
 1.55177967915188E+0000
  0
LINE
  8
1
  6
CONTINUOUS
 62
     0
 10
 2.57753437927022E+0000
 20
 1.55177967915188E+0000
 11
 2.57753437927022E+0000
 21
 2.20437573677191E+0000
  0
LINE
  8
1
  6
CONTINUOUS
 62
     0
 10
 2.57753437927022E+0000
 20
 1.55177967915188E+0000
 11
 4.07678103202488E+0000
 21
 1.55177967915188E+0000
  0
LINE
  8
1
  6
CONTINUOUS
 62
     0
 10
 4.07678103202488E+0000
 20
 1.55177967915188E+0000
 11
 4.07678103202488E+0000
 21
 2.19448791771720E+0000
  0
LINE
  8
1
  6
CONTINUOUS
 62
     0
 10
 4.07678103202488E+0000
 20
 1.55177967915188E+0000
 11
 5.56616421996296E+0000
 21
 1.55177967915188E+0000
  0
LINE
  8
1
  6
CONTINUOUS
 62
     0
 10
 5.56616421996296E+0000
 20
 1.55177967915188E+0000
 11
 5.56616421996296E+0000
 21
 2.19448791771720E+0000
  0
LINE
  8
1
  6
CONTINUOUS
 62
     0
 10
 5.88179509422480E+0000
 20
 2.88663525155789E+0000
 11
 5.42807571247249E+0000
 21
 2.88663525155789E+0000
  0
LINE
  8
1
  6
CONTINUOUS
 62
     0
 10
 5.42807571247249E+0000
 20
 2.88663525155789E+0000
 11
 5.42807571247249E+0000
 21
 3.44035311863627E+0000
  0
LINE
  8
1
  6
CONTINUOUS
 62
     0
 10
 5.42807571247249E+0000
 20
 3.44035311863627E+0000
 11
 5.93111241832958E+0000
 21
 3.44035311863627E+0000
  0
LINE
  8
1
  6
CONTINUOUS
 62
     0
 10
 5.91411246513599E+0000
 20
 3.44216146393592E+0000
 11
 5.91411246513599E+0000
 21
 3.69329542852938E+0000
  0
LINE
  8
1
  6
CONTINUOUS
 62
     0
 10
 5.91411246513599E+0000
 20
 3.69329542852938E+0000
 11
 6.02798310514481E+0000
 21
 3.69329542852938E+0000
  0
LINE
  8
1
  6
CONTINUOUS
 62
     0
 10
 6.02798310514481E+0000
 20
 3.69329542852938E+0000
 11
 6.02798310514481E+0000
 21
 3.44216146393592E+0000
  0
LINE
  8
1
  6
CONTINUOUS
 62
     0
 10
 5.91411246513599E+0000
 20
 3.69329542852938E+0000
 11
 5.48425079907611E+0000
 21
 3.69329542852938E+0000
  0
LINE
  8
1
  6
CONTINUOUS
 62
     0
 10
 2.14168810797491E+0000
 20
 5.64359529685316E+0000
 11
 2.14168810797491E+0000
 21
 5.98322169661697E+0000
  0
LINE
  8
1
  6
CONTINUOUS
 62
     0
 10
 2.14168810797491E+0000
 20
 5.98322169661697E+0000
 11
 2.25883974925091E+0000
 21
 5.98322169661697E+0000
  0
LINE
  8
1
  6
CONTINUOUS
 62
     0
 10
 2.25883974925091E+0000
 20
 5.98322169661697E+0000
 11
 2.25883974925091E+0000
 21
 5.64359529685316E+0000
  0
LINE
  8
1
  6
CONTINUOUS
 62
     0
 10
 2.25883974925091E+0000
 20
 5.98322169661697E+0000
 11
 2.74327761724271E+0000
 21
 5.98322169661697E+0000
  0
LINE
  8
1
  6
CONTINUOUS
 62
     0
 10
 2.20501331947526E+0000
 20
 5.18017983550089E+0000
 11
 2.89209186426888E+0000
 21
 5.18017983550089E+0000
  0
LINE
  8
1
  6
CONTINUOUS
 62
     0
 10
 2.89209186426888E+0000
 20
 5.18017983550089E+0000
 11
 2.89209186426888E+0000
 21
 5.00877959637000E+0000
  0
LINE
  8
1
  6
CONTINUOUS
 62
     0
 10
 2.89209186426888E+0000
 20
 5.00877959637000E+0000
 11
 2.20501331947526E+0000
 21
 5.00877959637000E+0000
  0
LINE
  8
1
  6
CONTINUOUS
 62
     0
 10
 2.89209186426888E+0000
 20
 5.00877959637000E+0000
 11
 2.89209186426888E+0000
 21
 4.49140480047208E+0000
  0
LINE
  8
1
  6
CONTINUOUS
 62
     0
 10
 2.78489489091589E+0000
 20
 2.32499604724580E+0000
 11
 3.22928589515504E+0000
 21
 2.32499604724580E+0000
  0
LINE
  8
1
  6
CONTINUOUS
 62
     0
 10
 3.22928589515504E+0000
 20
 2.32499604724580E+0000
 11
 3.22928589515504E+0000
 21
 2.10225191425707E+0000
  0
LINE
  8
1
  6
CONTINUOUS
 62
     0
 10
 3.22928589515504E+0000
 20
 2.32499604724580E+0000
 11
 3.22928589515504E+0000
 21
 3.01394883067042E+0000
  0
LINE
  8
1
  6
CONTINUOUS
 62
     0
 10
 8.57633858772169E+0000
 20
 6.64345573955507E+0000
 11
 9.98950788158982E+0000
 21
 6.64345573955507E+0000
  0
LINE
  8
1
  6
CONTINUOUS
 62
     0
 10
 9.98950788158982E+0000
 20
 6.64345573955507E+0000
 11
 9.98950788158982E+0000
 21
 2.10138538042520E+0000
  0
LINE
  8
1
  6
CONTINUOUS
 62
     0
 10
 9.98950788158982E+0000
 20
 2.10138538042520E+0000
 11
 9.01340125592833E+0000
 21
 2.10138538042520E+0000
  0
LINE
  8
1
  6
CONTINUOUS
 62
     0
 10
 9.01340125592833E+0000
 20
 2.53952721571477E+0000
 11
 9.52330770216940E+0000
 21
 2.53952721571477E+0000
  0
LINE
  8
1
  6
CONTINUOUS
 62
     0
 10
 9.52330770216940E+0000
 20
 2.53952721571477E+0000
 11
 9.52330770216940E+0000
 21
 2.10138538042520E+0000
  0
LINE
  8
1
  6
CONTINUOUS
 62
     0
 10
 9.99286103864142E+0000
 20
 6.63797715902911E+0000
 11
 9.99286103864142E+0000
 21
 6.63797715902911E+0000
  0
LINE
  8
1
  6
CONTINUOUS
 62
     0
 10
 9.99286103864142E+0000
 20
 6.63797715902911E+0000
 11
 9.96567951727775E+0000
 21
 6.47868783240119E+0000
  0
LINE
  8
1
  6
CONTINUOUS
 62
     0
 10
 9.96567951727775E+0000
 20
 6.47868783240119E+0000
 11
 1.00260831547494E+0001
 21
 6.47868783240119E+0000
  0
LINE
  8
1
  6
CONTINUOUS
 62
     0
 10
 1.00260831547494E+0001
 20
 6.47868783240119E+0000
 11
 9.99286103864142E+0000
 21
 6.63797715902911E+0000
  0
LINE
  8
1
  6
CONTINUOUS
 62
     0
 10
 9.96567951727775E+0000
 20
 6.47868783240119E+0000
 11
 1.00260831547494E+0001
 21
 6.47868783240119E+0000
  0
LINE
  8
1
  6
CONTINUOUS
 62
     0
 10
 9.97600661938486E+0000
 20
 6.47868783240119E+0000
 11
 9.96718488044280E+0000
 21
 6.48750957133598E+0000
  0
LINE
  8
1
  6
CONTINUOUS
 62
     0
 10
 9.99666082355543E+0000
 20
 6.47868783240119E+0000
 11
 9.97019560677290E+0000
 21
 6.50515304918372E+0000
  0
LINE
  8
1
  6
CONTINUOUS
 62
     0
 10
 1.00173150277406E+0001
 20
 6.47868783240847E+0000
 11
 9.97320633311756E+0000
 21
 6.52279652703874E+0000
  0
LINE
  8
1
  6
CONTINUOUS
 62
     0
 10
 1.00229508522752E+0001
 20
 6.49370621205890E+0000
 11
 9.97621705944766E+0000
 21
 6.54044000489375E+0000
  0
LINE
  8
1
  6
CONTINUOUS
 62
     0
 10
 1.00175079114269E+0001
 20
 6.51980335709231E+0000
 11
 9.97922778577777E+0000
 21
 6.55808348274149E+0000
  0
LINE
  8
1
  6
CONTINUOUS
 62
     0
 10
 1.00120649705786E+0001
 20
 6.54590050211846E+0000
 11
 9.98223851210787E+0000
 21
 6.57572696059651E+0000
  0
LINE
  8
1
  6
CONTINUOUS
 62
     0
 10
 1.00066220297449E+0001
 20
 6.57199764715187E+0000
 11
 9.98524923845252E+0000
 21
 6.59337043844425E+0000
  0
LINE
  8
1
  6
CONTINUOUS
 62
     0
 10
 1.00011790888966E+0001
 20
 6.59809479218529E+0000
 11
 9.98825996478263E+0000
 21
 6.61101391629927E+0000
  0
LINE
  8
1
  6
CONTINUOUS
 62
     0
 10
 9.99573614804831E+0000
 20
 6.62419193721871E+0000
 11
 9.99127069111273E+0000
 21
 6.62865739415429E+0000
  0
LINE
  8
1
  6
CONTINUOUS
 62
     0
 10
 1.00243009843980E+0001
 20
 6.48723276414239E+0000
 11
 1.00157560526568E+0001
 21
 6.47868783240119E+0000
  0
LINE
  8
1
  6
CONTINUOUS
 62
     0
 10
 1.00207366436953E+0001
 20
 6.50432262763206E+0000
 11
 9.99510184847168E+0000
 21
 6.47868783240119E+0000
  0
LINE
  8
1
  6
CONTINUOUS
 62
     0
 10
 1.00171723030071E+0001
 20
 6.52141249112174E+0000
 11
 9.97444764428656E+0000
 21
 6.47868783240119E+0000
  0
LINE
  8
1
  6
CONTINUOUS
 62
     0
 10
 1.00136079623044E+0001
 20
 6.53850235461141E+0000
 11
 9.96812510828022E+0000
 21
 6.49301950057998E+0000
  0
LINE
  8
1
  6
CONTINUOUS
 62
     0
 10
 1.00100436216017E+0001
 20
 6.55559221809381E+0000
 11
 9.97237476400915E+0000
 21
 6.51792336050130E+0000
  0
LINE
  8
1
  6
CONTINUOUS
 62
     0
 10
 1.00064792809135E+0001
 20
 6.57268208158348E+0000
 11
 9.97662441975262E+0000
 21
 6.54282722042262E+0000
  0
LINE
  8
1
  6
CONTINUOUS
 62
     0
 10
 1.00029149402253E+0001
 20
 6.58977194508043E+0000
 11
 9.98087407548155E+0000
 21
 6.56773108034395E+0000
  0
LINE
  8
1
  6
CONTINUOUS
 62
     0
 10
 9.99935059952259E+0000
 20
 6.60686180857010E+0000
 11
 9.98512373122503E+0000
 21
 6.59263494026527E+0000
  0
LINE
  8
1
  6
CONTINUOUS
 62
     0
 10
 9.99578625883441E+0000
 20
 6.62395167205977E+0000
 11
 9.98937338693941E+0000
 21
 6.61753880017204E+0000
  0
LINE
  8
1
  6
CONTINUOUS
 62
     0
 10
 9.99892646838271E+0000
 20
 2.10883249778999E+0000
 11
 9.99892646838271E+0000
 21
 2.10883249778999E+0000
  0
LINE
  8
1
  6
CONTINUOUS
 62
     0
 10
 9.99892646838271E+0000
 20
 2.10883249778999E+0000
 11
 1.00261079897464E+0001
 21
 2.26812182441790E+0000
  0
LINE
  8
1
  6
CONTINUOUS
 62
     0
 10
 1.00261079897464E+0001
 20
 2.26812182441790E+0000
 11
 9.96570435227477E+0000
 21
 2.26812182441790E+0000
  0
LINE
  8
1
  6
CONTINUOUS
 62
     0
 10
 9.96570435227477E+0000
 20
 2.26812182441790E+0000
 11
 9.99892646838271E+0000
 21
 2.10883249778999E+0000
  0
LINE
  8
1
  6
CONTINUOUS
 62
     0
 10
 1.00261079897464E+0001
 20
 2.26812182441790E+0000
 11
 9.96570435227477E+0000
 21
 2.26812182441790E+0000
  0
LINE
  8
1
  6
CONTINUOUS
 62
     0
 10
 1.00004318315623E+0001
 20
 2.11765423672841E+0000
 11
 9.99620499796583E+0000
 21
 2.12188107032125E+0000
  0
LINE
  8
1
  6
CONTINUOUS
 62
     0
 10
 1.00034425578924E+0001
 20
 2.13529771458343E+0000
 11
 9.99076205711754E+0000
 21
 2.14797821535467E+0000
  0
LINE
  8
1
  6
CONTINUOUS
 62
     0
 10
 1.00064532842225E+0001
 20
 2.15294119243481E+0000
 11
 9.98531911626924E+0000
 21
 2.17407536038445E+0000
  0
LINE
  8
1
  6
CONTINUOUS
 62
     0
 10
 1.00094640105526E+0001
 20
 2.17058467028983E+0000
 11
 9.97987617542094E+0000
 21
 2.20017250541787E+0000
  0
LINE
  8
1
  6
CONTINUOUS
 62
     0
 10
 1.00124747368827E+0001
 20
 2.18822814814121E+0000
 11
 9.97443323457264E+0000
 21
 2.22626965045129E+0000
  0
LINE
  8
1
  6
CONTINUOUS
 62
     0
 10
 1.00154854632128E+0001
 20
 2.20587162598895E+0000
 11
 9.96899029372435E+0000
 21
 2.25236679548107E+0000
  0
LINE
  8
1
  6
CONTINUOUS
 62
     0
 10
 1.00184961895575E+0001
 20
 2.22351510384397E+0000
 11
 9.97388946897991E+0000
 21
 2.26812182441790E+0000
  0
LINE
  8
1
  6
CONTINUOUS
 62
     0
 10
 1.00215069158876E+0001
 20
 2.24115858169898E+0000
 11
 9.99454367316503E+0000
 21
 2.26812182441790E+0000
  0
LINE
  8
1
  6
CONTINUOUS
 62
     0
 10
 1.00245176422177E+0001
 20
 2.25880205955036E+0000
 11
 1.00151978773501E+0001
 21
 2.26812182441790E+0000
  0
LINE
  8
1
  6
CONTINUOUS
 62
     0
 10
 1.00010512962472E+0001
 20
 2.12128442775429E+0000
 11
 9.99714429803134E+0000
 21
 2.11737742953846E+0000
  0
LINE
  8
1
  6
CONTINUOUS
 62
     0
 10
 1.00053009519761E+0001
 20
 2.14618828767561E+0000
 11
 9.99357995732862E+0000
 21
 2.13446729303178E+0000
  0
LINE
  8
1
  6
CONTINUOUS
 62
     0
 10
 1.00095506077196E+0001
 20
 2.17109214759694E+0000
 11
 9.99001561664045E+0000
 21
 2.15155715652145E+0000
  0
LINE
  8
1
  6
CONTINUOUS
 62
     0
 10
 1.00138002634485E+0001
 20
 2.19599600751826E+0000
 11
 9.98645127595228E+0000
 21
 2.16864702001476E+0000
  0
LINE
  8
1
  6
CONTINUOUS
 62
     0
 10
 1.00180499191920E+0001
 20
 2.22089986743958E+0000
 11
 9.98288693524955E+0000
 21
 2.18573688350443E+0000
  0
LINE
  8
1
  6
CONTINUOUS
 62
     0
 10
 1.00222995749209E+0001
 20
 2.24580372735727E+0000
 11
 9.97932259456138E+0000
 21
 2.20282674699774E+0000
  0
LINE
  8
1
  6
CONTINUOUS
 62
     0
 10
 1.00239634678001E+0001
 20
 2.26812182442154E+0000
 11
 9.97575825385866E+0000
 21
 2.21991661048014E+0000
  0
LINE
  8
1
  6
CONTINUOUS
 62
     0
 10
 1.00033092636149E+0001
 20
 2.26812182442154E+0000
 11
 9.97219391315593E+0000
 21
 2.23700647396981E+0000
  0
LINE
  8
1
  6
CONTINUOUS
 62
     0
 10
 9.98265505942982E+0000
 20
 2.26812182442154E+0000
 11
 9.96862957246776E+0000
 21
 2.25409633746312E+0000
  0
LINE
  8
1
  6
CONTINUOUS
 62
     0
 10
 9.52563668307266E+0000
 20
 2.52439649897860E+0000
 11
 9.52563668307266E+0000
 21
 2.52439649897860E+0000
  0
LINE
  8
1
  6
CONTINUOUS
 62
     0
 10
 9.52563668307266E+0000
 20
 2.52439649897860E+0000
 11
 9.49845516170899E+0000
 21
 2.36510717235069E+0000
  0
LINE
  8
1
  6
CONTINUOUS
 62
     0
 10
 9.49845516170899E+0000
 20
 2.36510717235069E+0000
 11
 9.55885879918060E+0000
 21
 2.36510717235069E+0000
  0
LINE
  8
1
  6
CONTINUOUS
 62
     0
 10
 9.55885879918060E+0000
 20
 2.36510717235069E+0000
 11
 9.52563668307266E+0000
 21
 2.52439649897860E+0000
  0
LINE
  8
1
  6
CONTINUOUS
 62
     0
 10
 9.49845516170899E+0000
 20
 2.36510717235069E+0000
 11
 9.55885879918060E+0000
 21
 2.36510717235069E+0000
  0
LINE
  8
1
  6
CONTINUOUS
 62
     0
 10
 9.50878226381610E+0000
 20
 2.36510717235433E+0000
 11
 9.49996052488859E+0000
 21
 2.37392891129275E+0000
  0
LINE
  8
1
  6
CONTINUOUS
 62
     0
 10
 9.52943646800122E+0000
 20
 2.36510717235433E+0000
 11
 9.50297125121870E+0000
 21
 2.39157238914049E+0000
  0
LINE
  8
1
  6
CONTINUOUS
 62
     0
 10
 9.55009067218634E+0000
 20
 2.36510717235433E+0000
 11
 9.50598197754880E+0000
 21
 2.40921586699551E+0000
  0
LINE
  8
1
  6
CONTINUOUS
 62
     0
 10
 9.55572649670648E+0000
 20
 2.38012555203022E+0000
 11
 9.50899270387890E+0000
 21
 2.42685934484689E+0000
  0
LINE
  8
1
  6
CONTINUOUS
 62
     0
 10
 9.55028355585819E+0000
 20
 2.40622269706364E+0000
 11
 9.51200343020901E+0000
 21
 2.44450282270191E+0000
  0
LINE
  8
1
  6
CONTINUOUS
 62
     0
 10
 9.54484061500989E+0000
 20
 2.43231984208978E+0000
 11
 9.51501415653911E+0000
 21
 2.46214630055329E+0000
  0
LINE
  8
1
  6
CONTINUOUS
 62
     0
 10
 9.53939767416159E+0000
 20
 2.45841698712320E+0000
 11
 9.51802488288376E+0000
 21
 2.47978977840830E+0000
  0
LINE
  8
1
  6
CONTINUOUS
 62
     0
 10
 9.53395473331329E+0000
 20
 2.48451413215298E+0000
 11
 9.52103560921387E+0000
 21
 2.49743325626332E+0000
  0
LINE
  8
1
  6
CONTINUOUS
 62
     0
 10
 9.52851179246500E+0000
 20
 2.51061127718640E+0000
 11
 9.52404633554397E+0000
 21
 2.51507673411106E+0000
  0
LINE
  8
1
  6
CONTINUOUS
 62
     0
 10
 9.55707662882924E+0000
 20
 2.37365210409916E+0000
 11
 9.54853169708804E+0000
 21
 2.36510717235797E+0000
  0
LINE
  8
1
  6
CONTINUOUS
 62
     0
 10
 9.55351228812651E+0000
 20
 2.39074196758884E+0000
 11
 9.52787749290292E+0000
 21
 2.36510717235797E+0000
  0
LINE
  8
1
  6
CONTINUOUS
 62
     0
 10
 9.54994794743834E+0000
 20
 2.40783183108215E+0000
 11
 9.50722328871780E+0000
 21
 2.36510717235797E+0000
  0
LINE
  8
1
  6
CONTINUOUS
 62
     0
 10
 9.54638360675017E+0000
 20
 2.42492169457182E+0000
 11
 9.50090075271146E+0000
 21
 2.37943884054039E+0000
  0
LINE
  8
1
  6
CONTINUOUS
 62
     0
 10
 9.54281926604745E+0000
 20
 2.44201155805422E+0000
 11
 9.50515040845494E+0000
 21
 2.40434270046171E+0000
  0
LINE
  8
1
  6
CONTINUOUS
 62
     0
 10
 9.53925492534472E+0000
 20
 2.45910142154753E+0000
 11
 9.50940006418386E+0000
 21
 2.42924656038304E+0000
  0
LINE
  8
1
  6
CONTINUOUS
 62
     0
 10
 9.53569058465655E+0000
 20
 2.47619128503720E+0000
 11
 9.51364971991279E+0000
 21
 2.45415042030436E+0000
  0
LINE
  8
1
  6
CONTINUOUS
 62
     0
 10
 9.53212624395383E+0000
 20
 2.49328114853051E+0000
 11
 9.51789937565627E+0000
 21
 2.47905428022568E+0000
  0
LINE
  8
1
  6
CONTINUOUS
 62
     0
 10
 9.52856190326565E+0000
 20
 2.51037101202019E+0000
 11
 9.52214903138520E+0000
 21
 2.50395814014701E+0000
  0
LINE
  8
1
  6
CONTINUOUS
 62
     0
 10
 9.53170211281395E+0000
 20
 2.11901462813694E+0000
 11
 9.53170211281395E+0000
 21
 2.11901462813694E+0000
  0
LINE
  8
1
  6
CONTINUOUS
 62
     0
 10
 9.53170211281395E+0000
 20
 2.11901462813694E+0000
 11
 9.55888363417762E+0000
 21
 2.27830395476485E+0000
  0
LINE
  8
1
  6
CONTINUOUS
 62
     0
 10
 9.55888363417762E+0000
 20
 2.27830395476485E+0000
 11
 9.49847999670601E+0000
 21
 2.27830395476485E+0000
  0
LINE
  8
1
  6
CONTINUOUS
 62
     0
 10
 9.49847999670601E+0000
 20
 2.27830395476485E+0000
 11
 9.53170211281395E+0000
 21
 2.11901462813694E+0000
  0
LINE
  8
1
  6
CONTINUOUS
 62
     0
 10
 9.55888363417762E+0000
 20
 2.27830395476485E+0000
 11
 9.49847999670601E+0000
 21
 2.27830395476485E+0000
  0
LINE
  8
1
  6
CONTINUOUS
 62
     0
 10
 9.53320747597900E+0000
 20
 2.12783636707900E+0000
 11
 9.52898064239707E+0000
 21
 2.13206320067184E+0000
  0
LINE
  8
1
  6
CONTINUOUS
 62
     0
 10
 9.53621820232365E+0000
 20
 2.14547984492674E+0000
 11
 9.52353770154878E+0000
 21
 2.15816034570526E+0000
  0
LINE
  8
1
  6
CONTINUOUS
 62
     0
 10
 9.53922892865376E+0000
 20
 2.16312332278176E+0000
 11
 9.51809476070048E+0000
 21
 2.18425749073504E+0000
  0
LINE
  8
1
  6
CONTINUOUS
 62
     0
 10
 9.54223965498386E+0000
 20
 2.18076680063677E+0000
 11
 9.51265181985218E+0000
 21
 2.21035463576845E+0000
  0
LINE
  8
1
  6
CONTINUOUS
 62
     0
 10
 9.54525038131396E+0000
 20
 2.19841027848815E+0000
 11
 9.50720887900388E+0000
 21
 2.23645178080187E+0000
  0
LINE
  8
1
  6
CONTINUOUS
 62
     0
 10
 9.54826110764407E+0000
 20
 2.21605375634317E+0000
 11
 9.50176593815559E+0000
 21
 2.26254892583165E+0000
  0
LINE
  8
1
  6
CONTINUOUS
 62
     0
 10
 9.55127183397417E+0000
 20
 2.23369723419455E+0000
 11
 9.50666511341115E+0000
 21
 2.27830395477213E+0000
  0
LINE
  8
1
  6
CONTINUOUS
 62
     0
 10
 9.55428256031882E+0000
 20
 2.25134071204957E+0000
 11
 9.52731931759627E+0000
 21
 2.27830395477213E+0000
  0
LINE
  8
1
  6
CONTINUOUS
 62
     0
 10
 9.55729328664893E+0000
 20
 2.26898418989731E+0000
 11
 9.54797352178139E+0000
 21
 2.27830395476485E+0000
  0
LINE
  8
1
  6
CONTINUOUS
 62
     0
 10
 9.53382694067841E+0000
 20
 2.13146655810124E+0000
 11
 9.52991994246258E+0000
 21
 2.12755955988541E+0000
  0
LINE
  8
1
  6
CONTINUOUS
 62
     0
 10
 9.53807659640734E+0000
 20
 2.15637041802256E+0000
 11
 9.52635560177441E+0000
 21
 2.14464942337872E+0000
  0
LINE
  8
1
  6
CONTINUOUS
 62
     0
 10
 9.54232625215081E+0000
 20
 2.18127427794388E+0000
 11
 9.52279126107169E+0000
 21
 2.16173928686840E+0000
  0
LINE
  8
1
  6
CONTINUOUS
 62
     0
 10
 9.54657590787974E+0000
 20
 2.20617813786521E+0000
 11
 9.51922692038352E+0000
 21
 2.17882915036171E+0000
  0
LINE
  8
1
  6
CONTINUOUS
 62
     0
 10
 9.55082556362322E+0000
 20
 2.23108199778289E+0000
 11
 9.51566257968079E+0000
 21
 2.19591901384410E+0000
  0
LINE
  8
1
  6
CONTINUOUS
 62
     0
 10
 9.55507521935215E+0000
 20
 2.25598585770422E+0000
 11
 9.51209823897807E+0000
 21
 2.21300887733378E+0000
  0
LINE
  8
1
  6
CONTINUOUS
 62
     0
 10
 9.55673911223130E+0000
 20
 2.27830395476849E+0000
 11
 9.50853389828990E+0000
 21
 2.23009874082709E+0000
  0
LINE
  8
1
  6
CONTINUOUS
 62
     0
 10
 9.53608490804618E+0000
 20
 2.27830395476849E+0000
 11
 9.50496955760173E+0000
 21
 2.24718860431676E+0000
  0
LINE
  8
1
  6
CONTINUOUS
 62
     0
 10
 9.51543070386106E+0000
 20
 2.27830395476849E+0000
 11
 9.50140521689900E+0000
 21
 2.26427846781007E+0000
  0
LINE
  8
1
  6
CONTINUOUS
 62
     0
 10
 6.65725662098703E+0000
 20
 6.65006263239047E+0000
 11
 6.65725662098703E+0000
 21
 6.65006263239047E+0000
  0
LINE
  8
1
  6
CONTINUOUS
 62
     0
 10
 6.65725662098703E+0000
 20
 6.65006263239047E+0000
 11
 6.68443814235070E+0000
 21
 6.80935195901839E+0000
  0
LINE
  8
1
  6
CONTINUOUS
 62
     0
 10
 6.68443814235070E+0000
 20
 6.80935195901839E+0000
 11
 6.62403450487909E+0000
 21
 6.80935195901839E+0000
  0
LINE
  8
1
  6
CONTINUOUS
 62
     0
 10
 6.62403450487909E+0000
 20
 6.80935195901839E+0000
 11
 6.65725662098703E+0000
 21
 6.65006263239047E+0000
  0
LINE
  8
1
  6
CONTINUOUS
 62
     0
 10
 6.68443814235070E+0000
 20
 6.80935195901839E+0000
 11
 6.62403450487909E+0000
 21
 6.80935195901839E+0000
  0
LINE
  8
1
  6
CONTINUOUS
 62
     0
 10
 6.65876198415936E+0000
 20
 6.65888437133253E+0000
 11
 6.65453515056288E+0000
 21
 6.66311120492173E+0000
  0
LINE
  8
1
  6
CONTINUOUS
 62
     0
 10
 6.66177271048946E+0000
 20
 6.67652784918755E+0000
 11
 6.64909220972186E+0000
 21
 6.68920834995515E+0000
  0
LINE
  8
1
  6
CONTINUOUS
 62
     0
 10
 6.66478343682684E+0000
 20
 6.69417132703529E+0000
 11
 6.64364926887356E+0000
 21
 6.71530549498857E+0000
  0
LINE
  8
1
  6
CONTINUOUS
 62
     0
 10
 6.66779416315694E+0000
 20
 6.71181480489031E+0000
 11
 6.63820632802526E+0000
 21
 6.74140264002199E+0000
  0
LINE
  8
1
  6
CONTINUOUS
 62
     0
 10
 6.67080488948704E+0000
 20
 6.72945828274533E+0000
 11
 6.63276338717696E+0000
 21
 6.76749978505541E+0000
  0
LINE
  8
1
  6
CONTINUOUS
 62
     0
 10
 6.67381561582442E+0000
 20
 6.74710176059307E+0000
 11
 6.62732044632867E+0000
 21
 6.79359693008882E+0000
  0
LINE
  8
1
  6
CONTINUOUS
 62
     0
 10
 6.67682634215453E+0000
 20
 6.76474523844809E+0000
 11
 6.63221962158423E+0000
 21
 6.80935195902566E+0000
  0
LINE
  8
1
  6
CONTINUOUS
 62
     0
 10
 6.67983706848463E+0000
 20
 6.78238871630310E+0000
 11
 6.65287382576935E+0000
 21
 6.80935195902566E+0000
  0
LINE
  8
1
  6
CONTINUOUS
 62
     0
 10
 6.68284779482201E+0000
 20
 6.80003219415812E+0000
 11
 6.67352802995447E+0000
 21
 6.80935195901839E+0000
  0
LINE
  8
1
  6
CONTINUOUS
 62
     0
 10
 6.65938144884421E+0000
 20
 6.66251456234022E+0000
 11
 6.65547445062839E+0000
 21
 6.65860756412440E+0000
  0
LINE
  8
1
  6
CONTINUOUS
 62
     0
 10
 6.66363110458042E+0000
 20
 6.68741842226154E+0000
 11
 6.65191010994022E+0000
 21
 6.67569742762134E+0000
  0
LINE
  8
1
  6
CONTINUOUS
 62
     0
 10
 6.66788076031662E+0000
 20
 6.71232228218287E+0000
 11
 6.64834576924477E+0000
 21
 6.69278729111102E+0000
  0
LINE
  8
1
  6
CONTINUOUS
 62
     0
 10
 6.67213041605282E+0000
 20
 6.73722614210419E+0000
 11
 6.64478142854932E+0000
 21
 6.70987715460069E+0000
  0
LINE
  8
1
  6
CONTINUOUS
 62
     0
 10
 6.67638007178903E+0000
 20
 6.76213000202551E+0000
 11
 6.64121708784660E+0000
 21
 6.72696701808309E+0000
  0
LINE
  8
1
  6
CONTINUOUS
 62
     0
 10
 6.68062972752523E+0000
 20
 6.78703386194684E+0000
 11
 6.63765274715115E+0000
 21
 6.74405688157276E+0000
  0
LINE
  8
1
  6
CONTINUOUS
 62
     0
 10
 6.68229362041166E+0000
 20
 6.80935195901839E+0000
 11
 6.63408840645570E+0000
 21
 6.76114674506971E+0000
  0
LINE
  8
1
  6
CONTINUOUS
 62
     0
 10
 6.66163941621926E+0000
 20
 6.80935195901111E+0000
 11
 6.63052406576753E+0000
 21
 6.77823660855938E+0000
  0
LINE
  8
1
  6
CONTINUOUS
 62
     0
 10
 6.64098521202686E+0000
 20
 6.80935195901111E+0000
 11
 6.62695972507208E+0000
 21
 6.79532647204906E+0000
  0
LINE
  8
1
  6
CONTINUOUS
 62
     0
 10
 6.65119119124574E+0000
 20
 6.24087407550542E+0000
 11
 6.65119119124574E+0000
 21
 6.24087407550542E+0000
  0
LINE
  8
1
  6
CONTINUOUS
 62
     0
 10
 6.65119119124574E+0000
 20
 6.24087407550542E+0000
 11
 6.62400966988207E+0000
 21
 6.08158474887750E+0000
  0
LINE
  8
1
  6
CONTINUOUS
 62
     0
 10
 6.62400966988207E+0000
 20
 6.08158474887750E+0000
 11
 6.68441330735368E+0000
 21
 6.08158474887750E+0000
  0
LINE
  8
1
  6
CONTINUOUS
 62
     0
 10
 6.68441330735368E+0000
 20
 6.08158474887750E+0000
 11
 6.65119119124574E+0000
 21
 6.24087407550542E+0000
  0
LINE
  8
1
  6
CONTINUOUS
 62
     0
 10
 6.62400966988207E+0000
 20
 6.08158474887750E+0000
 11
 6.68441330735368E+0000
 21
 6.08158474887750E+0000
  0
LINE
  8
1
  6
CONTINUOUS
 62
     0
 10
 6.63433677198191E+0000
 20
 6.08158474887750E+0000
 11
 6.62551503304712E+0000
 21
 6.09040648781229E+0000
  0
LINE
  8
1
  6
CONTINUOUS
 62
     0
 10
 6.65499097616703E+0000
 20
 6.08158474887750E+0000
 11
 6.62852575938450E+0000
 21
 6.10804996566003E+0000
  0
LINE
  8
1
  6
CONTINUOUS
 62
     0
 10
 6.67564518034487E+0000
 20
 6.08158474888478E+0000
 11
 6.63153648571461E+0000
 21
 6.12569344351505E+0000
  0
LINE
  8
1
  6
CONTINUOUS
 62
     0
 10
 6.68128100487957E+0000
 20
 6.09660312853521E+0000
 11
 6.63454721204471E+0000
 21
 6.14333692137006E+0000
  0
LINE
  8
1
  6
CONTINUOUS
 62
     0
 10
 6.67583806403854E+0000
 20
 6.12270027356863E+0000
 11
 6.63755793838209E+0000
 21
 6.16098039921781E+0000
  0
LINE
  8
1
  6
CONTINUOUS
 62
     0
 10
 6.67039512319025E+0000
 20
 6.14879741859477E+0000
 11
 6.64056866471219E+0000
 21
 6.17862387707282E+0000
  0
LINE
  8
1
  6
CONTINUOUS
 62
     0
 10
 6.66495218234195E+0000
 20
 6.17489456362819E+0000
 11
 6.64357939104957E+0000
 21
 6.19626735492056E+0000
  0
LINE
  8
1
  6
CONTINUOUS
 62
     0
 10
 6.65950924149365E+0000
 20
 6.20099170866160E+0000
 11
 6.64659011737967E+0000
 21
 6.21391083277558E+0000
  0
LINE
  8
1
  6
CONTINUOUS
 62
     0
 10
 6.65406630064535E+0000
 20
 6.22708885369502E+0000
 11
 6.64960084371705E+0000
 21
 6.23155431063060E+0000
  0
LINE
  8
1
  6
CONTINUOUS
 62
     0
 10
 6.68263113699504E+0000
 20
 6.09012968061870E+0000
 11
 6.67408620526112E+0000
 21
 6.08158474887750E+0000
  0
LINE
  8
1
  6
CONTINUOUS
 62
     0
 10
 6.67906679630687E+0000
 20
 6.10721954410837E+0000
 11
 6.65343200107600E+0000
 21
 6.08158474887750E+0000
  0
LINE
  8
1
  6
CONTINUOUS
 62
     0
 10
 6.67550245561142E+0000
 20
 6.12430940759805E+0000
 11
 6.63277779688360E+0000
 21
 6.08158474887750E+0000
  0
LINE
  8
1
  6
CONTINUOUS
 62
     0
 10
 6.67193811491597E+0000
 20
 6.14139927108772E+0000
 11
 6.62645526088454E+0000
 21
 6.09591641705629E+0000
  0
LINE
  8
1
  6
CONTINUOUS
 62
     0
 10
 6.66837377421325E+0000
 20
 6.15848913457012E+0000
 11
 6.63070491662074E+0000
 21
 6.12082027697761E+0000
  0
LINE
  8
1
  6
CONTINUOUS
 62
     0
 10
 6.66480943351780E+0000
 20
 6.17557899806707E+0000
 11
 6.63495457235695E+0000
 21
 6.14572413689893E+0000
  0
LINE
  8
1
  6
CONTINUOUS
 62
     0
 10
 6.66124509282963E+0000
 20
 6.19266886155674E+0000
 11
 6.63920422809315E+0000
 21
 6.17062799682026E+0000
  0
LINE
  8
1
  6
CONTINUOUS
 62
     0
 10
 6.65768075213418E+0000
 20
 6.20975872504641E+0000
 11
 6.64345388382935E+0000
 21
 6.19553185674158E+0000
  0
LINE
  8
1
  6
CONTINUOUS
 62
     0
 10
 6.65411641143874E+0000
 20
 6.22684858853609E+0000
 11
 6.64770353956555E+0000
 21
 6.22043571666291E+0000
  0
LINE
  8
1
  6
CONTINUOUS
 62
     0
 10
 6.65119119124574E+0000
 20
 5.09029334633669E+0000
 11
 6.65119119124574E+0000
 21
 5.09029334633669E+0000
  0
LINE
  8
1
  6
CONTINUOUS
 62
     0
 10
 6.65119119124574E+0000
 20
 5.09029334633669E+0000
 11
 6.62400966988207E+0000
 21
 4.93100401970878E+0000
  0
LINE
  8
1
  6
CONTINUOUS
 62
     0
 10
 6.62400966988207E+0000
 20
 4.93100401970878E+0000
 11
 6.68441330735368E+0000
 21
 4.93100401970878E+0000
  0
LINE
  8
1
  6
CONTINUOUS
 62
     0
 10
 6.68441330735368E+0000
 20
 4.93100401970878E+0000
 11
 6.65119119124574E+0000
 21
 5.09029334633669E+0000
  0
LINE
  8
1
  6
CONTINUOUS
 62
     0
 10
 6.62400966988207E+0000
 20
 4.93100401970878E+0000
 11
 6.68441330735368E+0000
 21
 4.93100401970878E+0000
  0
LINE
  8
1
  6
CONTINUOUS
 62
     0
 10
 6.63433677198191E+0000
 20
 4.93100401970878E+0000
 11
 6.62551503304712E+0000
 21
 4.93982575864356E+0000
  0
LINE
  8
1
  6
CONTINUOUS
 62
     0
 10
 6.65499097616703E+0000
 20
 4.93100401970878E+0000
 11
 6.62852575938450E+0000
 21
 4.95746923649131E+0000
  0
LINE
  8
1
  6
CONTINUOUS
 62
     0
 10
 6.67564518034487E+0000
 20
 4.93100401971606E+0000
 11
 6.63153648571461E+0000
 21
 4.97511271434632E+0000
  0
LINE
  8
1
  6
CONTINUOUS
 62
     0
 10
 6.68128100487957E+0000
 20
 4.94602239936648E+0000
 11
 6.63454721204471E+0000
 21
 4.99275619220134E+0000
  0
LINE
  8
1
  6
CONTINUOUS
 62
     0
 10
 6.67583806403854E+0000
 20
 4.97211954439263E+0000
 11
 6.63755793838209E+0000
 21
 5.01039967004908E+0000
  0
LINE
  8
1
  6
CONTINUOUS
 62
     0
 10
 6.67039512319025E+0000
 20
 4.99821668942604E+0000
 11
 6.64056866471219E+0000
 21
 5.02804314790410E+0000
  0
LINE
  8
1
  6
CONTINUOUS
 62
     0
 10
 6.66495218234195E+0000
 20
 5.02431383445946E+0000
 11
 6.64357939104957E+0000
 21
 5.04568662575184E+0000
  0
LINE
  8
1
  6
CONTINUOUS
 62
     0
 10
 6.65950924149365E+0000
 20
 5.05041097949288E+0000
 11
 6.64659011737967E+0000
 21
 5.06333010360686E+0000
  0
LINE
  8
1
  6
CONTINUOUS
 62
     0
 10
 6.65406630064535E+0000
 20
 5.07650812452630E+0000
 11
 6.64960084371705E+0000
 21
 5.08097358146188E+0000
  0
LINE
  8
1
  6
CONTINUOUS
 62
     0
 10
 6.68263113699504E+0000
 20
 4.93954895144270E+0000
 11
 6.67408620525384E+0000
 21
 4.93100401970878E+0000
  0
LINE
  8
1
  6
CONTINUOUS
 62
     0
 10
 6.67906679630687E+0000
 20
 4.95663881493965E+0000
 11
 6.65343200106872E+0000
 21
 4.93100401970878E+0000
  0
LINE
  8
1
  6
CONTINUOUS
 62
     0
 10
 6.67550245561142E+0000
 20
 4.97372867842932E+0000
 11
 6.63277779688360E+0000
 21
 4.93100401970878E+0000
  0
LINE
  8
1
  6
CONTINUOUS
 62
     0
 10
 6.67193811491597E+0000
 20
 4.99081854191900E+0000
 11
 6.62645526088454E+0000
 21
 4.94533568788756E+0000
  0
LINE
  8
1
  6
CONTINUOUS
 62
     0
 10
 6.66837377421325E+0000
 20
 5.00790840540139E+0000
 11
 6.63070491662074E+0000
 21
 4.97023954780889E+0000
  0
LINE
  8
1
  6
CONTINUOUS
 62
     0
 10
 6.66480943351780E+0000
 20
 5.02499826889107E+0000
 11
 6.63495457235695E+0000
 21
 4.99514340773021E+0000
  0
LINE
  8
1
  6
CONTINUOUS
 62
     0
 10
 6.66124509282236E+0000
 20
 5.04208813238802E+0000
 11
 6.63920422809315E+0000
 21
 5.02004726765153E+0000
  0
LINE
  8
1
  6
CONTINUOUS
 62
     0
 10
 6.65768075213418E+0000
 20
 5.05917799587769E+0000
 11
 6.64345388382935E+0000
 21
 5.04495112757286E+0000
  0
LINE
  8
1
  6
CONTINUOUS
 62
     0
 10
 6.65411641143874E+0000
 20
 5.07626785936736E+0000
 11
 6.64770353955100E+0000
 21
 5.06985498747963E+0000
  0
LINE
  8
1
  6
CONTINUOUS
 62
     0
 10
 6.65119119124574E+0000
 20
 3.99062326889543E+0000
 11
 6.65119119124574E+0000
 21
 3.99062326889543E+0000
  0
LINE
  8
1
  6
CONTINUOUS
 62
     0
 10
 6.65119119124574E+0000
 20
 3.99062326889543E+0000
 11
 6.62400966988207E+0000
 21
 3.83133394226752E+0000
  0
LINE
  8
1
  6
CONTINUOUS
 62
     0
 10
 6.62400966988207E+0000
 20
 3.83133394226752E+0000
 11
 6.68441330735368E+0000
 21
 3.83133394226752E+0000
  0
LINE
  8
1
  6
CONTINUOUS
 62
     0
 10
 6.68441330735368E+0000
 20
 3.83133394226752E+0000
 11
 6.65119119124574E+0000
 21
 3.99062326889543E+0000
  0
LINE
  8
1
  6
CONTINUOUS
 62
     0
 10
 6.62400966988207E+0000
 20
 3.83133394226752E+0000
 11
 6.68441330735368E+0000
 21
 3.83133394226752E+0000
  0
LINE
  8
1
  6
CONTINUOUS
 62
     0
 10
 6.63433677197463E+0000
 20
 3.83133394227116E+0000
 11
 6.62551503305440E+0000
 21
 3.84015568119503E+0000
  0
LINE
  8
1
  6
CONTINUOUS
 62
     0
 10
 6.65499097616703E+0000
 20
 3.83133394226752E+0000
 11
 6.62852575938450E+0000
 21
 3.85779915905005E+0000
  0
LINE
  8
1
  6
CONTINUOUS
 62
     0
 10
 6.67564518035215E+0000
 20
 3.83133394226752E+0000
 11
 6.63153648571461E+0000
 21
 3.87544263690143E+0000
  0
LINE
  8
1
  6
CONTINUOUS
 62
     0
 10
 6.68128100487229E+0000
 20
 3.84635232192886E+0000
 11
 6.63454721204471E+0000
 21
 3.89308611475644E+0000
  0
LINE
  8
1
  6
CONTINUOUS
 62
     0
 10
 6.67583806402399E+0000
 20
 3.87244946696228E+0000
 11
 6.63755793838209E+0000
 21
 3.91072959260782E+0000
  0
LINE
  8
1
  6
CONTINUOUS
 62
     0
 10
 6.67039512318297E+0000
 20
 3.89854661199570E+0000
 11
 6.64056866471219E+0000
 21
 3.92837307046284E+0000
  0
LINE
  8
1
  6
CONTINUOUS
 62
     0
 10
 6.66495218233467E+0000
 20
 3.92464375702548E+0000
 11
 6.64357939104957E+0000
 21
 3.94601654831422E+0000
  0
LINE
  8
1
  6
CONTINUOUS
 62
     0
 10
 6.65950924148638E+0000
 20
 3.95074090205890E+0000
 11
 6.64659011737967E+0000
 21
 3.96366002616560E+0000
  0
LINE
  8
1
  6
CONTINUOUS
 62
     0
 10
 6.65406630063808E+0000
 20
 3.97683804709231E+0000
 11
 6.64960084370978E+0000
 21
 3.98130350402062E+0000
  0
LINE
  8
1
  6
CONTINUOUS
 62
     0
 10
 6.68263113700232E+0000
 20
 3.83987887400872E+0000
 11
 6.67408620525384E+0000
 21
 3.83133394226388E+0000
  0
LINE
  8
1
  6
CONTINUOUS
 62
     0
 10
 6.67906679630687E+0000
 20
 3.85696873750203E+0000
 11
 6.65343200106872E+0000
 21
 3.83133394226388E+0000
  0
LINE
  8
1
  6
CONTINUOUS
 62
     0
 10
 6.67550245561142E+0000
 20
 3.87405860098806E+0000
 11
 6.63277779688360E+0000
 21
 3.83133394226388E+0000
  0
LINE
  8
1
  6
CONTINUOUS
 62
     0
 10
 6.67193811491597E+0000
 20
 3.89114846448138E+0000
 11
 6.62645526088454E+0000
 21
 3.84566561044630E+0000
  0
LINE
  8
1
  6
CONTINUOUS
 62
     0
 10
 6.66837377422053E+0000
 20
 3.90823832797105E+0000
 11
 6.63070491662074E+0000
 21
 3.87056947036763E+0000
  0
LINE
  8
1
  6
CONTINUOUS
 62
     0
 10
 6.66480943353235E+0000
 20
 3.92532819146436E+0000
 11
 6.63495457235695E+0000
 21
 3.89547333028895E+0000
  0
LINE
  8
1
  6
CONTINUOUS
 62
     0
 10
 6.66124509282963E+0000
 20
 3.94241805495039E+0000
 11
 6.63920422809315E+0000
 21
 3.92037719021027E+0000
  0
LINE
  8
1
  6
CONTINUOUS
 62
     0
 10
 6.65768075213418E+0000
 20
 3.95950791844007E+0000
 11
 6.64345388382935E+0000
 21
 3.94528105013160E+0000
  0
LINE
  8
1
  6
CONTINUOUS
 62
     0
 10
 6.65411641144601E+0000
 20
 3.97659778193338E+0000
 11
 6.64770353955828E+0000
 21
 3.97018491005292E+0000
  0
LINE
  8
1
  6
CONTINUOUS
 62
     0
 10
 6.65725662098703E+0000
 20
 3.99252661190985E+0000
 11
 6.65725662098703E+0000
 21
 3.99252661190985E+0000
  0
LINE
  8
1
  6
CONTINUOUS
 62
     0
 10
 6.65725662098703E+0000
 20
 3.99252661190985E+0000
 11
 6.68443814235070E+0000
 21
 4.15181593853777E+0000
  0
LINE
  8
1
  6
CONTINUOUS
 62
     0
 10
 6.68443814235070E+0000
 20
 4.15181593853777E+0000
 11
 6.62403450487909E+0000
 21
 4.15181593853777E+0000
  0
LINE
  8
1
  6
CONTINUOUS
 62
     0
 10
 6.62403450487909E+0000
 20
 4.15181593853777E+0000
 11
 6.65725662098703E+0000
 21
 3.99252661190985E+0000
  0
LINE
  8
1
  6
CONTINUOUS
 62
     0
 10
 6.68443814235070E+0000
 20
 4.15181593853777E+0000
 11
 6.62403450487909E+0000
 21
 4.15181593853777E+0000
  0
LINE
  8
1
  6
CONTINUOUS
 62
     0
 10
 6.65876198415208E+0000
 20
 4.00134835083736E+0000
 11
 6.65453515056288E+0000
 21
 4.00557518442656E+0000
  0
LINE
  8
1
  6
CONTINUOUS
 62
     0
 10
 6.66177271048218E+0000
 20
 4.01899182868510E+0000
 11
 6.64909220972186E+0000
 21
 4.03167232945270E+0000
  0
LINE
  8
1
  6
CONTINUOUS
 62
     0
 10
 6.66478343681956E+0000
 20
 4.03663530654012E+0000
 11
 6.64364926887356E+0000
 21
 4.05776947448612E+0000
  0
LINE
  8
1
  6
CONTINUOUS
 62
     0
 10
 6.66779416314967E+0000
 20
 4.05427878439514E+0000
 11
 6.63820632802526E+0000
 21
 4.08386661951954E+0000
  0
LINE
  8
1
  6
CONTINUOUS
 62
     0
 10
 6.67080488948704E+0000
 20
 4.07192226224288E+0000
 11
 6.63276338718424E+0000
 21
 4.10996376454568E+0000
  0
LINE
  8
1
  6
CONTINUOUS
 62
     0
 10
 6.67381561581715E+0000
 20
 4.08956574009790E+0000
 11
 6.62732044633594E+0000
 21
 4.13606090957910E+0000
  0
LINE
  8
1
  6
CONTINUOUS
 62
     0
 10
 6.67682634214725E+0000
 20
 4.10720921795291E+0000
 11
 6.63221962156240E+0000
 21
 4.15181593853777E+0000
  0
LINE
  8
1
  6
CONTINUOUS
 62
     0
 10
 6.67983706848463E+0000
 20
 4.12485269580066E+0000
 11
 6.65287382574752E+0000
 21
 4.15181593853777E+0000
  0
LINE
  8
1
  6
CONTINUOUS
 62
     0
 10
 6.68284779481473E+0000
 20
 4.14249617365567E+0000
 11
 6.67352802993264E+0000
 21
 4.15181593853777E+0000
  0
LINE
  8
1
  6
CONTINUOUS
 62
     0
 10
 6.65938144885149E+0000
 20
 4.00497854186688E+0000
 11
 6.65547445063567E+0000
 21
 4.00107154365105E+0000
  0
LINE
  8
1
  6
CONTINUOUS
 62
     0
 10
 6.66363110458769E+0000
 20
 4.02988240178820E+0000
 11
 6.65191010994022E+0000
 21
 4.01816140714072E+0000
  0
LINE
  8
1
  6
CONTINUOUS
 62
     0
 10
 6.66788076032390E+0000
 20
 4.05478626170952E+0000
 11
 6.64834576924477E+0000
 21
 4.03525127063040E+0000
  0
LINE
  8
1
  6
CONTINUOUS
 62
     0
 10
 6.67213041605282E+0000
 20
 4.07969012162357E+0000
 11
 6.64478142854932E+0000
 21
 4.05234113412007E+0000
  0
LINE
  8
1
  6
CONTINUOUS
 62
     0
 10
 6.67638007178903E+0000
 20
 4.10459398154489E+0000
 11
 6.64121708785387E+0000
 21
 4.06943099761702E+0000
  0
LINE
  8
1
  6
CONTINUOUS
 62
     0
 10
 6.68062972752523E+0000
 20
 4.12949784146622E+0000
 11
 6.63765274715843E+0000
 21
 4.08652086110669E+0000
  0
LINE
  8
1
  6
CONTINUOUS
 62
     0
 10
 6.68229362040438E+0000
 20
 4.15181593853777E+0000
 11
 6.63408840646298E+0000
 21
 4.10361072458909E+0000
  0
LINE
  8
1
  6
CONTINUOUS
 62
     0
 10
 6.66163941621926E+0000
 20
 4.15181593853777E+0000
 11
 6.63052406576753E+0000
 21
 4.12070058808604E+0000
  0
LINE
  8
1
  6
CONTINUOUS
 62
     0
 10
 6.64098521203414E+0000
 20
 4.15181593853777E+0000
 11
 6.62695972507208E+0000
 21
 4.13779045157571E+0000
  0
LINE
  8
1
  6
CONTINUOUS
 62
     0
 10
 6.65725662098703E+0000
 20
 2.89285653448314E+0000
 11
 6.65725662098703E+0000
 21
 2.89285653448314E+0000
  0
LINE
  8
1
  6
CONTINUOUS
 62
     0
 10
 6.65725662098703E+0000
 20
 2.89285653448314E+0000
 11
 6.68443814235070E+0000
 21
 3.05214586111106E+0000
  0
LINE
  8
1
  6
CONTINUOUS
 62
     0
 10
 6.68443814235070E+0000
 20
 3.05214586111106E+0000
 11
 6.62403450487909E+0000
 21
 3.05214586111106E+0000
  0
LINE
  8
1
  6
CONTINUOUS
 62
     0
 10
 6.62403450487909E+0000
 20
 3.05214586111106E+0000
 11
 6.65725662098703E+0000
 21
 2.89285653448314E+0000
  0
LINE
  8
1
  6
CONTINUOUS
 62
     0
 10
 6.68443814235070E+0000
 20
 3.05214586111106E+0000
 11
 6.62403450487909E+0000
 21
 3.05214586111106E+0000
  0
LINE
  8
1
  6
CONTINUOUS
 62
     0
 10
 6.65876198415936E+0000
 20
 2.90167827341065E+0000
 11
 6.65453515056288E+0000
 21
 2.90590510699985E+0000
  0
LINE
  8
1
  6
CONTINUOUS
 62
     0
 10
 6.66177271048946E+0000
 20
 2.91932175126567E+0000
 11
 6.64909220972186E+0000
 21
 2.93200225203327E+0000
  0
LINE
  8
1
  6
CONTINUOUS
 62
     0
 10
 6.66478343681956E+0000
 20
 2.93696522911705E+0000
 11
 6.64364926887356E+0000
 21
 2.95809939706669E+0000
  0
LINE
  8
1
  6
CONTINUOUS
 62
     0
 10
 6.66779416315694E+0000
 20
 2.95460870696843E+0000
 11
 6.63820632802526E+0000
 21
 2.98419654209647E+0000
  0
LINE
  8
1
  6
CONTINUOUS
 62
     0
 10
 6.67080488948704E+0000
 20
 2.97225218482345E+0000
 11
 6.63276338717696E+0000
 21
 3.01029368712989E+0000
  0
LINE
  8
1
  6
CONTINUOUS
 62
     0
 10
 6.67381561581715E+0000
 20
 2.98989566267483E+0000
 11
 6.62732044632867E+0000
 21
 3.03639083216331E+0000
  0
LINE
  8
1
  6
CONTINUOUS
 62
     0
 10
 6.67682634214725E+0000
 20
 3.00753914052984E+0000
 11
 6.63221962156967E+0000
 21
 3.05214586111106E+0000
  0
LINE
  8
1
  6
CONTINUOUS
 62
     0
 10
 6.67983706848463E+0000
 20
 3.02518261838122E+0000
 11
 6.65287382575480E+0000
 21
 3.05214586111106E+0000
  0
LINE
  8
1
  6
CONTINUOUS
 62
     0
 10
 6.68284779481473E+0000
 20
 3.04282609623260E+0000
 11
 6.67352802993992E+0000
 21
 3.05214586111106E+0000
  0
LINE
  8
1
  6
CONTINUOUS
 62
     0
 10
 6.65938144884421E+0000
 20
 2.90530846444017E+0000
 11
 6.65547445062839E+0000
 21
 2.90140146622434E+0000
  0
LINE
  8
1
  6
CONTINUOUS
 62
     0
 10
 6.66363110458042E+0000
 20
 2.93021232435785E+0000
 11
 6.65191010994022E+0000
 21
 2.91849132971402E+0000
  0
LINE
  8
1
  6
CONTINUOUS
 62
     0
 10
 6.66788076031662E+0000
 20
 2.95511618427918E+0000
 11
 6.64834576924477E+0000
 21
 2.93558119320733E+0000
  0
LINE
  8
1
  6
CONTINUOUS
 62
     0
 10
 6.67213041605282E+0000
 20
 2.98002004420050E+0000
 11
 6.64478142854932E+0000
 21
 2.95267105670064E+0000
  0
LINE
  8
1
  6
CONTINUOUS
 62
     0
 10
 6.67638007178903E+0000
 20
 3.00492390412182E+0000
 11
 6.64121708785387E+0000
 21
 2.96976092018667E+0000
  0
LINE
  8
1
  6
CONTINUOUS
 62
     0
 10
 6.68062972752523E+0000
 20
 3.02982776404315E+0000
 11
 6.63765274715843E+0000
 21
 2.98685078367635E+0000
  0
LINE
  8
1
  6
CONTINUOUS
 62
     0
 10
 6.68229362040438E+0000
 20
 3.05214586111106E+0000
 11
 6.63408840646298E+0000
 21
 3.00394064716966E+0000
  0
LINE
  8
1
  6
CONTINUOUS
 62
     0
 10
 6.66163941621926E+0000
 20
 3.05214586111106E+0000
 11
 6.63052406576753E+0000
 21
 3.02103051065933E+0000
  0
LINE
  8
1
  6
CONTINUOUS
 62
     0
 10
 6.64098521203414E+0000
 20
 3.05214586111106E+0000
 11
 6.62695972507936E+0000
 21
 3.03812037415264E+0000
  0
LINE
  8
1
  6
CONTINUOUS
 62
     0
 10
 6.65119119124574E+0000
 20
 2.87058893076755E+0000
 11
 6.65119119124574E+0000
 21
 2.87058893076755E+0000
  0
LINE
  8
1
  6
CONTINUOUS
 62
     0
 10
 6.65119119124574E+0000
 20
 2.87058893076755E+0000
 11
 6.62400966988207E+0000
 21
 2.71129960413964E+0000
  0
LINE
  8
1
  6
CONTINUOUS
 62
     0
 10
 6.62400966988207E+0000
 20
 2.71129960413964E+0000
 11
 6.68441330735368E+0000
 21
 2.71129960413964E+0000
  0
LINE
  8
1
  6
CONTINUOUS
 62
     0
 10
 6.68441330735368E+0000
 20
 2.71129960413964E+0000
 11
 6.65119119124574E+0000
 21
 2.87058893076755E+0000
  0
LINE
  8
1
  6
CONTINUOUS
 62
     0
 10
 6.62400966988207E+0000
 20
 2.71129960413964E+0000
 11
 6.68441330735368E+0000
 21
 2.71129960413964E+0000
  0
LINE
  8
1
  6
CONTINUOUS
 62
     0
 10
 6.63433677197463E+0000
 20
 2.71129960413964E+0000
 11
 6.62551503304712E+0000
 21
 2.72012134306351E+0000
  0
LINE
  8
1
  6
CONTINUOUS
 62
     0
 10
 6.65499097615975E+0000
 20
 2.71129960413964E+0000
 11
 6.62852575938450E+0000
 21
 2.73776482091489E+0000
  0
LINE
  8
1
  6
CONTINUOUS
 62
     0
 10
 6.67564518034487E+0000
 20
 2.71129960413964E+0000
 11
 6.63153648571461E+0000
 21
 2.75540829876991E+0000
  0
LINE
  8
1
  6
CONTINUOUS
 62
     0
 10
 6.68128100487957E+0000
 20
 2.72631798379007E+0000
 11
 6.63454721204471E+0000
 21
 2.77305177662492E+0000
  0
LINE
  8
1
  6
CONTINUOUS
 62
     0
 10
 6.67583806403127E+0000
 20
 2.75241512882349E+0000
 11
 6.63755793838209E+0000
 21
 2.79069525447267E+0000
  0
LINE
  8
1
  6
CONTINUOUS
 62
     0
 10
 6.67039512318297E+0000
 20
 2.77851227385327E+0000
 11
 6.64056866471219E+0000
 21
 2.80833873232768E+0000
  0
LINE
  8
1
  6
CONTINUOUS
 62
     0
 10
 6.66495218233467E+0000
 20
 2.80460941888668E+0000
 11
 6.64357939104229E+0000
 21
 2.82598221018270E+0000
  0
LINE
  8
1
  6
CONTINUOUS
 62
     0
 10
 6.65950924149365E+0000
 20
 2.83070656392010E+0000
 11
 6.64659011737967E+0000
 21
 2.84362568803044E+0000
  0
LINE
  8
1
  6
CONTINUOUS
 62
     0
 10
 6.65406630064535E+0000
 20
 2.85680370895352E+0000
 11
 6.64960084370978E+0000
 21
 2.86126916588546E+0000
  0
LINE
  8
1
  6
CONTINUOUS
 62
     0
 10
 6.68263113700232E+0000
 20
 2.71984453588448E+0000
 11
 6.67408620525384E+0000
 21
 2.71129960413964E+0000
  0
LINE
  8
1
  6
CONTINUOUS
 62
     0
 10
 6.67906679630687E+0000
 20
 2.73693439937779E+0000
 11
 6.65343200106872E+0000
 21
 2.71129960413964E+0000
  0
LINE
  8
1
  6
CONTINUOUS
 62
     0
 10
 6.67550245561142E+0000
 20
 2.75402426286382E+0000
 11
 6.63277779688360E+0000
 21
 2.71129960413964E+0000
  0
LINE
  8
1
  6
CONTINUOUS
 62
     0
 10
 6.67193811491597E+0000
 20
 2.77111412635713E+0000
 11
 6.62645526088454E+0000
 21
 2.72563127232206E+0000
  0
LINE
  8
1
  6
CONTINUOUS
 62
     0
 10
 6.66837377422053E+0000
 20
 2.78820398984681E+0000
 11
 6.63070491662074E+0000
 21
 2.75053513224339E+0000
  0
LINE
  8
1
  6
CONTINUOUS
 62
     0
 10
 6.66480943352508E+0000
 20
 2.80529385334012E+0000
 11
 6.63495457235695E+0000
 21
 2.77543899216471E+0000
  0
LINE
  8
1
  6
CONTINUOUS
 62
     0
 10
 6.66124509283691E+0000
 20
 2.82238371682979E+0000
 11
 6.63920422809315E+0000
 21
 2.80034285208603E+0000
  0
LINE
  8
1
  6
CONTINUOUS
 62
     0
 10
 6.65768075213418E+0000
 20
 2.83947358031583E+0000
 11
 6.64345388382208E+0000
 21
 2.82524671200736E+0000
  0
LINE
  8
1
  6
CONTINUOUS
 62
     0
 10
 6.65411641143874E+0000
 20
 2.85656344380914E+0000
 11
 6.64770353955828E+0000
 21
 2.85015057192868E+0000
  0
LINE
  8
1
  6
CONTINUOUS
 62
     0
 10
 6.65725662098703E+0000
 20
 2.10883249778999E+0000
 11
 6.65725662098703E+0000
 21
 2.10883249778999E+0000
  0
LINE
  8
1
  6
CONTINUOUS
 62
     0
 10
 6.65725662098703E+0000
 20
 2.10883249778999E+0000
 11
 6.68443814235070E+0000
 21
 2.26812182441790E+0000
  0
LINE
  8
1
  6
CONTINUOUS
 62
     0
 10
 6.68443814235070E+0000
 20
 2.26812182441790E+0000
 11
 6.62403450487909E+0000
 21
 2.26812182441790E+0000
  0
LINE
  8
1
  6
CONTINUOUS
 62
     0
 10
 6.62403450487909E+0000
 20
 2.26812182441790E+0000
 11
 6.65725662098703E+0000
 21
 2.10883249778999E+0000
  0
LINE
  8
1
  6
CONTINUOUS
 62
     0
 10
 6.68443814235070E+0000
 20
 2.26812182441790E+0000
 11
 6.62403450487909E+0000
 21
 2.26812182441790E+0000
  0
LINE
  8
1
  6
CONTINUOUS
 62
     0
 10
 6.65876198415208E+0000
 20
 2.11765423671750E+0000
 11
 6.65453515056288E+0000
 21
 2.12188107030670E+0000
  0
LINE
  8
1
  6
CONTINUOUS
 62
     0
 10
 6.66177271048946E+0000
 20
 2.13529771456888E+0000
 11
 6.64909220971458E+0000
 21
 2.14797821534012E+0000
  0
LINE
  8
1
  6
CONTINUOUS
 62
     0
 10
 6.66478343681956E+0000
 20
 2.15294119242390E+0000
 11
 6.64364926887356E+0000
 21
 2.17407536036990E+0000
  0
LINE
  8
1
  6
CONTINUOUS
 62
     0
 10
 6.66779416314967E+0000
 20
 2.17058467027528E+0000
 11
 6.63820632802526E+0000
 21
 2.20017250540332E+0000
  0
LINE
  8
1
  6
CONTINUOUS
 62
     0
 10
 6.67080488948704E+0000
 20
 2.18822814812665E+0000
 11
 6.63276338717696E+0000
 21
 2.22626965043673E+0000
  0
LINE
  8
1
  6
CONTINUOUS
 62
     0
 10
 6.67381561581715E+0000
 20
 2.20587162598167E+0000
 11
 6.62732044632867E+0000
 21
 2.25236679546651E+0000
  0
LINE
  8
1
  6
CONTINUOUS
 62
     0
 10
 6.67682634214725E+0000
 20
 2.22351510383305E+0000
 11
 6.63221962156967E+0000
 21
 2.26812182441790E+0000
  0
LINE
  8
1
  6
CONTINUOUS
 62
     0
 10
 6.67983706848463E+0000
 20
 2.24115858168443E+0000
 11
 6.65287382574752E+0000
 21
 2.26812182441790E+0000
  0
LINE
  8
1
  6
CONTINUOUS
 62
     0
 10
 6.68284779481473E+0000
 20
 2.25880205953945E+0000
 11
 6.67352802993264E+0000
 21
 2.26812182442154E+0000
  0
LINE
  8
1
  6
CONTINUOUS
 62
     0
 10
 6.65938144885149E+0000
 20
 2.12128442774701E+0000
 11
 6.65547445063567E+0000
 21
 2.11737742953483E+0000
  0
LINE
  8
1
  6
CONTINUOUS
 62
     0
 10
 6.66363110458769E+0000
 20
 2.14618828766834E+0000
 11
 6.65191010994022E+0000
 21
 2.13446729302450E+0000
  0
LINE
  8
1
  6
CONTINUOUS
 62
     0
 10
 6.66788076032390E+0000
 20
 2.17109214758966E+0000
 11
 6.64834576924477E+0000
 21
 2.15155715651053E+0000
  0
LINE
  8
1
  6
CONTINUOUS
 62
     0
 10
 6.67213041605282E+0000
 20
 2.19599600750735E+0000
 11
 6.64478142854932E+0000
 21
 2.16864702000385E+0000
  0
LINE
  8
1
  6
CONTINUOUS
 62
     0
 10
 6.67638007178903E+0000
 20
 2.22089986742867E+0000
 11
 6.64121708785387E+0000
 21
 2.18573688349716E+0000
  0
LINE
  8
1
  6
CONTINUOUS
 62
     0
 10
 6.68062972752523E+0000
 20
 2.24580372734636E+0000
 11
 6.63765274716570E+0000
 21
 2.20282674698683E+0000
  0
LINE
  8
1
  6
CONTINUOUS
 62
     0
 10
 6.68229362040438E+0000
 20
 2.26812182441427E+0000
 11
 6.63408840646298E+0000
 21
 2.21991661047286E+0000
  0
LINE
  8
1
  6
CONTINUOUS
 62
     0
 10
 6.66163941621926E+0000
 20
 2.26812182441427E+0000
 11
 6.63052406576753E+0000
 21
 2.23700647396618E+0000
  0
LINE
  8
1
  6
CONTINUOUS
 62
     0
 10
 6.64098521203414E+0000
 20
 2.26812182441427E+0000
 11
 6.62695972507936E+0000
 21
 2.25409633745585E+0000
  0
LINE
  8
1
  6
CONTINUOUS
 62
     0
 10
 5.95187544173677E+0000
 20
 6.98586557752424E+0000
 11
 5.95187544173677E+0000
 21
 6.98586557752424E+0000
  0
LINE
  8
1
  6
CONTINUOUS
 62
     0
 10
 5.95187544173677E+0000
 20
 6.98586557752424E+0000
 11
 5.79258611510159E+0000
 21
 7.01304709888791E+0000
  0
LINE
  8
1
  6
CONTINUOUS
 62
     0
 10
 5.79258611510159E+0000
 20
 7.01304709888791E+0000
 11
 5.79258611510159E+0000
 21
 6.95264346141630E+0000
  0
LINE
  8
1
  6
CONTINUOUS
 62
     0
 10
 5.79258611510159E+0000
 20
 6.95264346141630E+0000
 11
 5.95187544173677E+0000
 21
 6.98586557752424E+0000
  0
LINE
  8
1
  6
CONTINUOUS
 62
     0
 10
 5.79258611510159E+0000
 20
 7.01304709888791E+0000
 11
 5.79258611510159E+0000
 21
 6.95264346141630E+0000
  0
LINE
  8
1
  6
CONTINUOUS
 62
     0
 10
 5.80113104685734E+0000
 20
 6.95442563176766E+0000
 11
 5.79258611510159E+0000
 21
 6.96297056352341E+0000
  0
LINE
  8
1
  6
CONTINUOUS
 62
     0
 10
 5.81822091034701E+0000
 20
 6.95798997246311E+0000
 11
 5.79258611510159E+0000
 21
 6.98362476770853E+0000
  0
LINE
  8
1
  6
CONTINUOUS
 62
     0
 10
 5.83531077383668E+0000
 20
 6.96155431315128E+0000
 11
 5.79258611510159E+0000
 21
 7.00427897189365E+0000
  0
LINE
  8
1
  6
CONTINUOUS
 62
     0
 10
 5.85240063732635E+0000
 20
 6.96511865384673E+0000
 11
 5.80691778330220E+0000
 21
 7.01060150787816E+0000
  0
LINE
  8
1
  6
CONTINUOUS
 62
     0
 10
 5.86949050081603E+0000
 20
 6.96868299454218E+0000
 11
 5.83182164322352E+0000
 21
 7.00635185214196E+0000
  0
LINE
  8
1
  6
CONTINUOUS
 62
     0
 10
 5.88658036430570E+0000
 20
 6.97224733523763E+0000
 11
 5.85672550313757E+0000
 21
 7.00210219640576E+0000
  0
LINE
  8
1
  6
CONTINUOUS
 62
     0
 10
 5.90367022779537E+0000
 20
 6.97581167593307E+0000
 11
 5.88162936305889E+0000
 21
 6.99785254066956E+0000
  0
LINE
  8
1
  6
CONTINUOUS
 62
     0
 10
 5.92076009129232E+0000
 20
 6.97937601662852E+0000
 11
 5.90653322298022E+0000
 21
 6.99360288494063E+0000
  0
LINE
  8
1
  6
CONTINUOUS
 62
     0
 10
 5.93784995478200E+0000
 20
 6.98294035732397E+0000
 11
 5.93143708290154E+0000
 21
 6.98935322920443E+0000
  0
LINE
  8
1
  6
CONTINUOUS
 62
     0
 10
 5.94305370281654E+0000
 20
 6.98737094068929E+0000
 11
 5.93882686921279E+0000
 21
 6.98314410709281E+0000
  0
LINE
  8
1
  6
CONTINUOUS
 62
     0
 10
 5.92541022496152E+0000
 20
 6.99038166702667E+0000
 11
 5.91272972418665E+0000
 21
 6.97770116625179E+0000
  0
LINE
  8
1
  6
CONTINUOUS
 62
     0
 10
 5.90776674710651E+0000
 20
 6.99339239335677E+0000
 11
 5.88663257916050E+0000
 21
 6.97225822541077E+0000
  0
LINE
  8
1
  6
CONTINUOUS
 62
     0
 10
 5.89012326925149E+0000
 20
 6.99640311968687E+0000
 11
 5.86053543411981E+0000
 21
 6.96681528455520E+0000
  0
LINE
  8
1
  6
CONTINUOUS
 62
     0
 10
 5.87247979140375E+0000
 20
 6.99941384601698E+0000
 11
 5.83443828909367E+0000
 21
 6.96137234371417E+0000
  0
LINE
  8
1
  6
CONTINUOUS
 62
     0
 10
 5.85483631354873E+0000
 20
 7.00242457235436E+0000
 11
 5.80834114406025E+0000
 21
 6.95592940286588E+0000
  0
LINE
  8
1
  6
CONTINUOUS
 62
     0
 10
 5.83719283569371E+0000
 20
 7.00543529868446E+0000
 11
 5.79258611509431E+0000
 21
 6.96082857808506E+0000
  0
LINE
  8
1
  6
CONTINUOUS
 62
     0
 10
 5.81954935783870E+0000
 20
 7.00844602501456E+0000
 11
 5.79258611509431E+0000
 21
 6.98148278227745E+0000
  0
LINE
  8
1
  6
CONTINUOUS
 62
     0
 10
 5.80190587998368E+0000
 20
 7.01145675134467E+0000
 11
 5.79258611509431E+0000
 21
 7.00213698646257E+0000
  0
LINE
  8
1
  6
CONTINUOUS
 62
     0
 10
 6.06208222119312E+0000
 20
 6.84161976594623E+0000
 11
 6.06208222119312E+0000
 21
 6.84161976594623E+0000
  0
LINE
  8
1
  6
CONTINUOUS
 62
     0
 10
 6.18812825907662E+0000
 20
 6.98484268033644E+0000
 11
 6.18812825907662E+0000
 21
 6.98484268033644E+0000
  0
LINE
  8
1
  6
CONTINUOUS
 62
     0
 10
 6.18812825907662E+0000
 20
 6.98484268033644E+0000
 11
 6.34741758571181E+0000
 21
 6.95766115897277E+0000
  0
LINE
  8
1
  6
CONTINUOUS
 62
     0
 10
 6.34741758571181E+0000
 20
 6.95766115897277E+0000
 11
 6.34741758571181E+0000
 21
 7.01806479644438E+0000
  0
LINE
  8
1
  6
CONTINUOUS
 62
     0
 10
 6.34741758571181E+0000
 20
 7.01806479644438E+0000
 11
 6.18812825907662E+0000
 21
 6.98484268033644E+0000
  0
LINE
  8
1
  6
CONTINUOUS
 62
     0
 10
 6.34741758571181E+0000
 20
 6.95766115897277E+0000
 11
 6.34741758571181E+0000
 21
 7.01806479644438E+0000
  0
LINE
  8
1
  6
CONTINUOUS
 62
     0
 10
 6.20058018905547E+0000
 20
 6.98271785247198E+0000
 11
 6.19667319083237E+0000
 21
 6.98662485068780E+0000
  0
LINE
  8
1
  6
CONTINUOUS
 62
     0
 10
 6.22548404897680E+0000
 20
 6.97846819673578E+0000
 11
 6.21376305432204E+0000
 21
 6.99018919138325E+0000
  0
LINE
  8
1
  6
CONTINUOUS
 62
     0
 10
 6.25038790889812E+0000
 20
 6.97421854099957E+0000
 11
 6.23085291781899E+0000
 21
 6.99375353207870E+0000
  0
LINE
  8
1
  6
CONTINUOUS
 62
     0
 10
 6.27529176881944E+0000
 20
 6.96996888526337E+0000
 11
 6.24794278130867E+0000
 21
 6.99731787277415E+0000
  0
LINE
  8
1
  6
CONTINUOUS
 62
     0
 10
 6.30019562874077E+0000
 20
 6.96571922952717E+0000
 11
 6.26503264479834E+0000
 21
 7.00088221346959E+0000
  0
LINE
  8
1
  6
CONTINUOUS
 62
     0
 10
 6.32509948866209E+0000
 20
 6.96146957379096E+0000
 11
 6.28212250828801E+0000
 21
 7.00444655416504E+0000
  0
LINE
  8
1
  6
CONTINUOUS
 62
     0
 10
 6.34741758571181E+0000
 20
 6.95980568092637E+0000
 11
 6.29921237177768E+0000
 21
 7.00801089486049E+0000
  0
LINE
  8
1
  6
CONTINUOUS
 62
     0
 10
 6.34741758571181E+0000
 20
 6.98045988511149E+0000
 11
 6.31630223526736E+0000
 21
 7.01157523555594E+0000
  0
LINE
  8
1
  6
CONTINUOUS
 62
     0
 10
 6.34741758571909E+0000
 20
 7.00111408928933E+0000
 11
 6.33339209875703E+0000
 21
 7.01513957625139E+0000
  0
LINE
  8
1
  6
CONTINUOUS
 62
     0
 10
 6.34741758570453E+0000
 20
 6.96798826105078E+0000
 11
 6.33859584678430E+0000
 21
 6.95916652213782E+0000
  0
LINE
  8
1
  6
CONTINUOUS
 62
     0
 10
 6.34741758570453E+0000
 20
 6.98864246524317E+0000
 11
 6.32095236892928E+0000
 21
 6.96217724846792E+0000
  0
LINE
  8
1
  6
CONTINUOUS
 62
     0
 10
 6.34741758570453E+0000
 20
 7.00929666942829E+0000
 11
 6.30330889108154E+0000
 21
 6.96518797479803E+0000
  0
LINE
  8
1
  6
CONTINUOUS
 62
     0
 10
 6.33239920605411E+0000
 20
 7.01493249396299E+0000
 11
 6.28566541322652E+0000
 21
 6.96819870113541E+0000
  0
LINE
  8
1
  6
CONTINUOUS
 62
     0
 10
 6.30630206101341E+0000
 20
 7.00948955310741E+0000
 11
 6.26802193537151E+0000
 21
 6.97120942746551E+0000
  0
LINE
  8
1
  6
CONTINUOUS
 62
     0
 10
 6.28020491598727E+0000
 20
 7.00404661226639E+0000
 11
 6.25037845751649E+0000
 21
 6.97422015379561E+0000
  0
LINE
  8
1
  6
CONTINUOUS
 62
     0
 10
 6.25410777095385E+0000
 20
 6.99860367142537E+0000
 11
 6.23273497966147E+0000
 21
 6.97723088012572E+0000
  0
LINE
  8
1
  6
CONTINUOUS
 62
     0
 10
 6.22801062592043E+0000
 20
 6.99316073056980E+0000
 11
 6.21509150181373E+0000
 21
 6.98024160646310E+0000
  0
LINE
  8
1
  6
CONTINUOUS
 62
     0
 10
 6.20191348088701E+0000
 20
 6.98771778972878E+0000
 11
 6.19744802395871E+0000
 21
 6.98325233279320E+0000
  0
LINE
  8
1
  6
CONTINUOUS
 62
     0
 10
 6.03577249095542E+0000
 20
 3.69601457837780E+0000
 11
 6.03577249095542E+0000
 21
 3.69601457837780E+0000
  0
LINE
  8
1
  6
CONTINUOUS
 62
     0
 10
 6.03577249095542E+0000
 20
 3.69601457837780E+0000
 11
 6.19506181759061E+0000
 21
 3.66883305701413E+0000
  0
LINE
  8
1
  6
CONTINUOUS
 62
     0
 10
 6.19506181759061E+0000
 20
 3.66883305701413E+0000
 11
 6.19506181759061E+0000
 21
 3.72923669448573E+0000
  0
LINE
  8
1
  6
CONTINUOUS
 62
     0
 10
 6.19506181759061E+0000
 20
 3.72923669448573E+0000
 11
 6.03577249095542E+0000
 21
 3.69601457837780E+0000
  0
LINE
  8
1
  6
CONTINUOUS
 62
     0
 10
 6.19506181759061E+0000
 20
 3.66883305701413E+0000
 11
 6.19506181759061E+0000
 21
 3.72923669448573E+0000
  0
LINE
  8
1
  6
CONTINUOUS
 62
     0
 10
 6.04822442091245E+0000
 20
 3.69388975050970E+0000
 11
 6.04431742270390E+0000
 21
 3.69779674872552E+0000
  0
LINE
  8
1
  6
CONTINUOUS
 62
     0
 10
 6.07312828083377E+0000
 20
 3.68964009477713E+0000
 11
 6.06140728619357E+0000
 21
 3.70136108942097E+0000
  0
LINE
  8
1
  6
CONTINUOUS
 62
     0
 10
 6.09803214075509E+0000
 20
 3.68539043904093E+0000
 11
 6.07849714968324E+0000
 21
 3.70492543011278E+0000
  0
LINE
  8
1
  6
CONTINUOUS
 62
     0
 10
 6.12293600067642E+0000
 20
 3.68114078330836E+0000
 11
 6.09558701317292E+0000
 21
 3.70848977080823E+0000
  0
LINE
  8
1
  6
CONTINUOUS
 62
     0
 10
 6.14783986059047E+0000
 20
 3.67689112757216E+0000
 11
 6.11267687666259E+0000
 21
 3.71205411150368E+0000
  0
LINE
  8
1
  6
CONTINUOUS
 62
     0
 10
 6.17274372051179E+0000
 20
 3.67264147183960E+0000
 11
 6.12976674015226E+0000
 21
 3.71561845219912E+0000
  0
LINE
  8
1
  6
CONTINUOUS
 62
     0
 10
 6.19506181759789E+0000
 20
 3.67097757894226E+0000
 11
 6.14685660364194E+0000
 21
 3.71918279289457E+0000
  0
LINE
  8
1
  6
CONTINUOUS
 62
     0
 10
 6.19506181759789E+0000
 20
 3.69163178312738E+0000
 11
 6.16394646713161E+0000
 21
 3.72274713358638E+0000
  0
LINE
  8
1
  6
CONTINUOUS
 62
     0
 10
 6.19506181759789E+0000
 20
 3.71228598731250E+0000
 11
 6.18103633062856E+0000
 21
 3.72631147428183E+0000
  0
LINE
  8
1
  6
CONTINUOUS
 62
     0
 10
 6.19506181758334E+0000
 20
 3.67916015910305E+0000
 11
 6.18624007865583E+0000
 21
 3.67033842017554E+0000
  0
LINE
  8
1
  6
CONTINUOUS
 62
     0
 10
 6.19506181758334E+0000
 20
 3.69981436328817E+0000
 11
 6.16859660080081E+0000
 21
 3.67334914650928E+0000
  0
LINE
  8
1
  6
CONTINUOUS
 62
     0
 10
 6.19506181758334E+0000
 20
 3.72046856747329E+0000
 11
 6.15095312295307E+0000
 21
 3.67635987283938E+0000
  0
LINE
  8
1
  6
CONTINUOUS
 62
     0
 10
 6.18004343792563E+0000
 20
 3.72610439200071E+0000
 11
 6.13330964510533E+0000
 21
 3.67937059917676E+0000
  0
LINE
  8
1
  6
CONTINUOUS
 62
     0
 10
 6.15394629289221E+0000
 20
 3.72066145115241E+0000
 11
 6.11566616725031E+0000
 21
 3.68238132551051E+0000
  0
LINE
  8
1
  6
CONTINUOUS
 62
     0
 10
 6.12784914786607E+0000
 20
 3.71521851030775E+0000
 11
 6.09802268939529E+0000
 21
 3.68539205184061E+0000
  0
LINE
  8
1
  6
CONTINUOUS
 62
     0
 10
 6.10175200283265E+0000
 20
 3.70977556945945E+0000
 11
 6.08037921154028E+0000
 21
 3.68840277817435E+0000
  0
LINE
  8
1
  6
CONTINUOUS
 62
     0
 10
 6.07565485779924E+0000
 20
 3.70433262861843E+0000
 11
 6.06273573368526E+0000
 21
 3.69141350450445E+0000
  0
LINE
  8
1
  6
CONTINUOUS
 62
     0
 10
 6.04955771276582E+0000
 20
 3.69888968777013E+0000
 11
 6.04509225583752E+0000
 21
 3.69442423083819E+0000
  0
LINE
  8
1
  6
CONTINUOUS
 62
     0
 10
 5.90109018569638E+0000
 20
 3.69703747556559E+0000
 11
 5.90109018569638E+0000
 21
 3.69703747556559E+0000
  0
LINE
  8
1
  6
CONTINUOUS
 62
     0
 10
 5.90109018569638E+0000
 20
 3.69703747556559E+0000
 11
 5.74180085906119E+0000
 21
 3.72421899692927E+0000
  0
LINE
  8
1
  6
CONTINUOUS
 62
     0
 10
 5.74180085906119E+0000
 20
 3.72421899692927E+0000
 11
 5.74180085906119E+0000
 21
 3.66381535945766E+0000
  0
LINE
  8
1
  6
CONTINUOUS
 62
     0
 10
 5.74180085906119E+0000
 20
 3.66381535945766E+0000
 11
 5.90109018569638E+0000
 21
 3.69703747556559E+0000
  0
LINE
  8
1
  6
CONTINUOUS
 62
     0
 10
 5.74180085906119E+0000
 20
 3.72421899692927E+0000
 11
 5.74180085906119E+0000
 21
 3.66381535945766E+0000
  0
LINE
  8
1
  6
CONTINUOUS
 62
     0
 10
 5.75034579080966E+0000
 20
 3.66559752980538E+0000
 11
 5.74180085906119E+0000
 21
 3.67414246155022E+0000
  0
LINE
  8
1
  6
CONTINUOUS
 62
     0
 10
 5.76743565429933E+0000
 20
 3.66916187049719E+0000
 11
 5.74180085906119E+0000
 21
 3.69479666573170E+0000
  0
LINE
  8
1
  6
CONTINUOUS
 62
     0
 10
 5.78452551778901E+0000
 20
 3.67272621119264E+0000
 11
 5.74180085906119E+0000
 21
 3.71545086991682E+0000
  0
LINE
  8
1
  6
CONTINUOUS
 62
     0
 10
 5.80161538127868E+0000
 20
 3.67629055188809E+0000
 11
 5.75613252723997E+0000
 21
 3.72177340592316E+0000
  0
LINE
  8
1
  6
CONTINUOUS
 62
     0
 10
 5.81870524476835E+0000
 20
 3.67985489258353E+0000
 11
 5.78103638716129E+0000
 21
 3.71752375019059E+0000
  0
LINE
  8
1
  6
CONTINUOUS
 62
     0
 10
 5.83579510825803E+0000
 20
 3.68341923327898E+0000
 11
 5.80594024708262E+0000
 21
 3.71327409445439E+0000
  0
LINE
  8
1
  6
CONTINUOUS
 62
     0
 10
 5.85288497174770E+0000
 20
 3.68698357397443E+0000
 11
 5.83084410700394E+0000
 21
 3.70902443871819E+0000
  0
LINE
  8
1
  6
CONTINUOUS
 62
     0
 10
 5.86997483523737E+0000
 20
 3.69054791466988E+0000
 11
 5.85574796692526E+0000
 21
 3.70477478298562E+0000
  0
LINE
  8
1
  6
CONTINUOUS
 62
     0
 10
 5.88706469873432E+0000
 20
 3.69411225536169E+0000
 11
 5.88065182684659E+0000
 21
 3.70052512724942E+0000
  0
LINE
  8
1
  6
CONTINUOUS
 62
     0
 10
 5.89226844676159E+0000
 20
 3.69854283872701E+0000
 11
 5.88804161317239E+0000
 21
 3.69431600513781E+0000
  0
LINE
  8
1
  6
CONTINUOUS
 62
     0
 10
 5.87462496890657E+0000
 20
 3.70155356505711E+0000
 11
 5.86194446813897E+0000
 21
 3.68887306428951E+0000
  0
LINE
  8
1
  6
CONTINUOUS
 62
     0
 10
 5.85698149105156E+0000
 20
 3.70456429139085E+0000
 11
 5.83584732311283E+0000
 21
 3.68343012344485E+0000
  0
LINE
  8
1
  6
CONTINUOUS
 62
     0
 10
 5.83933801320381E+0000
 20
 3.70757501772823E+0000
 11
 5.80975017807941E+0000
 21
 3.67798718259655E+0000
  0
LINE
  8
1
  6
CONTINUOUS
 62
     0
 10
 5.82169453534880E+0000
 20
 3.71058574405833E+0000
 11
 5.78365303304599E+0000
 21
 3.67254424175553E+0000
  0
LINE
  8
1
  6
CONTINUOUS
 62
     0
 10
 5.80405105750106E+0000
 20
 3.71359647038844E+0000
 11
 5.75755588801258E+0000
 21
 3.66710130090723E+0000
  0
LINE
  8
1
  6
CONTINUOUS
 62
     0
 10
 5.78640757964604E+0000
 20
 3.71660719672218E+0000
 11
 5.74180085905391E+0000
 21
 3.67200047613369E+0000
  0
LINE
  8
1
  6
CONTINUOUS
 62
     0
 10
 5.76876410179102E+0000
 20
 3.71961792305228E+0000
 11
 5.74180085905391E+0000
 21
 3.69265468031881E+0000
  0
LINE
  8
1
  6
CONTINUOUS
 62
     0
 10
 5.75112062393600E+0000
 20
 3.72262864938602E+0000
 11
 5.74180085905391E+0000
 21
 3.71330888450393E+0000
  0
LINE
  8
1
  6
CONTINUOUS
 62
     0
 10
 5.42825342484139E+0000
 20
 2.89285653448314E+0000
 11
 5.42825342484139E+0000
 21
 2.89285653448314E+0000
  0
LINE
  8
1
  6
CONTINUOUS
 62
     0
 10
 5.42825342484139E+0000
 20
 2.89285653448314E+0000
 11
 5.45543494620506E+0000
 21
 3.05214586111106E+0000
  0
LINE
  8
1
  6
CONTINUOUS
 62
     0
 10
 5.45543494620506E+0000
 20
 3.05214586111106E+0000
 11
 5.39503130873345E+0000
 21
 3.05214586111106E+0000
  0
LINE
  8
1
  6
CONTINUOUS
 62
     0
 10
 5.39503130873345E+0000
 20
 3.05214586111106E+0000
 11
 5.42825342484139E+0000
 21
 2.89285653448314E+0000
  0
LINE
  8
1
  6
CONTINUOUS
 62
     0
 10
 5.45543494620506E+0000
 20
 3.05214586111106E+0000
 11
 5.39503130873345E+0000
 21
 3.05214586111106E+0000
  0
LINE
  8
1
  6
CONTINUOUS
 62
     0
 10
 5.42975878801371E+0000
 20
 2.90167827341429E+0000
 11
 5.42553195442451E+0000
 21
 2.90590510700349E+0000
  0
LINE
  8
1
  6
CONTINUOUS
 62
     0
 10
 5.43276951434382E+0000
 20
 2.91932175126567E+0000
 11
 5.42008901357622E+0000
 21
 2.93200225203327E+0000
  0
LINE
  8
1
  6
CONTINUOUS
 62
     0
 10
 5.43578024067392E+0000
 20
 2.93696522912069E+0000
 11
 5.41464607272792E+0000
 21
 2.95809939706669E+0000
  0
LINE
  8
1
  6
CONTINUOUS
 62
     0
 10
 5.43879096701130E+0000
 20
 2.95460870697207E+0000
 11
 5.40920313187962E+0000
 21
 2.98419654210011E+0000
  0
LINE
  8
1
  6
CONTINUOUS
 62
     0
 10
 5.44180169334140E+0000
 20
 2.97225218482345E+0000
 11
 5.40376019103860E+0000
 21
 3.01029368712989E+0000
  0
LINE
  8
1
  6
CONTINUOUS
 62
     0
 10
 5.44481241967151E+0000
 20
 2.98989566267846E+0000
 11
 5.39831725019030E+0000
 21
 3.03639083216331E+0000
  0
LINE
  8
1
  6
CONTINUOUS
 62
     0
 10
 5.44782314600889E+0000
 20
 3.00753914052984E+0000
 11
 5.40321642542403E+0000
 21
 3.05214586111470E+0000
  0
LINE
  8
1
  6
CONTINUOUS
 62
     0
 10
 5.45083387233899E+0000
 20
 3.02518261838486E+0000
 11
 5.42387062960916E+0000
 21
 3.05214586111470E+0000
  0
LINE
  8
1
  6
CONTINUOUS
 62
     0
 10
 5.45384459866909E+0000
 20
 3.04282609623624E+0000
 11
 5.44452483379428E+0000
 21
 3.05214586111106E+0000
  0
LINE
  8
1
  6
CONTINUOUS
 62
     0
 10
 5.43037825270585E+0000
 20
 2.90530846444017E+0000
 11
 5.42647125449002E+0000
 21
 2.90140146622434E+0000
  0
LINE
  8
1
  6
CONTINUOUS
 62
     0
 10
 5.43462790843478E+0000
 20
 2.93021232436149E+0000
 11
 5.42290691379458E+0000
 21
 2.91849132971765E+0000
  0
LINE
  8
1
  6
CONTINUOUS
 62
     0
 10
 5.43887756417098E+0000
 20
 2.95511618428282E+0000
 11
 5.41934257309913E+0000
 21
 2.93558119320369E+0000
  0
LINE
  8
1
  6
CONTINUOUS
 62
     0
 10
 5.44312721990718E+0000
 20
 2.98002004420414E+0000
 11
 5.41577823240368E+0000
 21
 2.95267105669700E+0000
  0
LINE
  8
1
  6
CONTINUOUS
 62
     0
 10
 5.44737687564339E+0000
 20
 3.00492390412546E+0000
 11
 5.41221389170823E+0000
 21
 2.96976092018667E+0000
  0
LINE
  8
1
  6
CONTINUOUS
 62
     0
 10
 5.45162653137959E+0000
 20
 3.02982776404679E+0000
 11
 5.40864955101279E+0000
 21
 2.98685078367998E+0000
  0
LINE
  8
1
  6
CONTINUOUS
 62
     0
 10
 5.45329042425874E+0000
 20
 3.05214586110742E+0000
 11
 5.40508521031734E+0000
 21
 3.00394064716602E+0000
  0
LINE
  8
1
  6
CONTINUOUS
 62
     0
 10
 5.43263622007362E+0000
 20
 3.05214586110742E+0000
 11
 5.40152086962189E+0000
 21
 3.02103051065569E+0000
  0
LINE
  8
1
  6
CONTINUOUS
 62
     0
 10
 5.41198201588850E+0000
 20
 3.05214586110742E+0000
 11
 5.39795652892644E+0000
 21
 3.03812037414900E+0000
  0
LINE
  8
1
  6
CONTINUOUS
 62
     0
 10
 5.42218799510010E+0000
 20
 3.45097036052539E+0000
 11
 5.42218799510010E+0000
 21
 3.45097036052539E+0000
  0
LINE
  8
1
  6
CONTINUOUS
 62
     0
 10
 5.42218799510010E+0000
 20
 3.45097036052539E+0000
 11
 5.39500647373643E+0000
 21
 3.29168103389748E+0000
  0
LINE
  8
1
  6
CONTINUOUS
 62
     0
 10
 5.39500647373643E+0000
 20
 3.29168103389748E+0000
 11
 5.45541011120804E+0000
 21
 3.29168103389748E+0000
  0
LINE
  8
1
  6
CONTINUOUS
 62
     0
 10
 5.45541011120804E+0000
 20
 3.29168103389748E+0000
 11
 5.42218799510010E+0000
 21
 3.45097036052539E+0000
  0
LINE
  8
1
  6
CONTINUOUS
 62
     0
 10
 5.39500647373643E+0000
 20
 3.29168103389748E+0000
 11
 5.45541011120804E+0000
 21
 3.29168103389748E+0000
  0
LINE
  8
1
  6
CONTINUOUS
 62
     0
 10
 5.40533357582899E+0000
 20
 3.29168103389748E+0000
 11
 5.39651183690148E+0000
 21
 3.30050277282135E+0000
  0
LINE
  8
1
  6
CONTINUOUS
 62
     0
 10
 5.42598778001411E+0000
 20
 3.29168103389748E+0000
 11
 5.39952256323886E+0000
 21
 3.31814625067636E+0000
  0
LINE
  8
1
  6
CONTINUOUS
 62
     0
 10
 5.44664198419923E+0000
 20
 3.29168103389748E+0000
 11
 5.40253328956896E+0000
 21
 3.33578972852774E+0000
  0
LINE
  8
1
  6
CONTINUOUS
 62
     0
 10
 5.45227780873392E+0000
 20
 3.30669941354790E+0000
 11
 5.40554401589907E+0000
 21
 3.35343320637912E+0000
  0
LINE
  8
1
  6
CONTINUOUS
 62
     0
 10
 5.44683486788563E+0000
 20
 3.33279655858132E+0000
 11
 5.40855474223645E+0000
 21
 3.37107668423414E+0000
  0
LINE
  8
1
  6
CONTINUOUS
 62
     0
 10
 5.44139192703733E+0000
 20
 3.35889370361474E+0000
 11
 5.41156546856655E+0000
 21
 3.38872016208552E+0000
  0
LINE
  8
1
  6
CONTINUOUS
 62
     0
 10
 5.43594898619631E+0000
 20
 3.38499084864452E+0000
 11
 5.41457619489665E+0000
 21
 3.40636363993690E+0000
  0
LINE
  8
1
  6
CONTINUOUS
 62
     0
 10
 5.43050604534801E+0000
 20
 3.41108799367794E+0000
 11
 5.41758692123403E+0000
 21
 3.42400711779192E+0000
  0
LINE
  8
1
  6
CONTINUOUS
 62
     0
 10
 5.42506310449971E+0000
 20
 3.43718513871136E+0000
 11
 5.42059764756414E+0000
 21
 3.44165059564330E+0000
  0
LINE
  8
1
  6
CONTINUOUS
 62
     0
 10
 5.45362794085668E+0000
 20
 3.30022596563867E+0000
 11
 5.44508300910820E+0000
 21
 3.29168103389020E+0000
  0
LINE
  8
1
  6
CONTINUOUS
 62
     0
 10
 5.45006360016123E+0000
 20
 3.31731582912835E+0000
 11
 5.42442880492308E+0000
 21
 3.29168103389020E+0000
  0
LINE
  8
1
  6
CONTINUOUS
 62
     0
 10
 5.44649925946578E+0000
 20
 3.33440569262166E+0000
 11
 5.40377460073796E+0000
 21
 3.29168103389020E+0000
  0
LINE
  8
1
  6
CONTINUOUS
 62
     0
 10
 5.44293491877033E+0000
 20
 3.35149555611133E+0000
 11
 5.39745206473890E+0000
 21
 3.30601270207990E+0000
  0
LINE
  8
1
  6
CONTINUOUS
 62
     0
 10
 5.43937057807489E+0000
 20
 3.36858541960100E+0000
 11
 5.40170172047510E+0000
 21
 3.33091656200122E+0000
  0
LINE
  8
1
  6
CONTINUOUS
 62
     0
 10
 5.43580623737944E+0000
 20
 3.38567528309068E+0000
 11
 5.40595137621131E+0000
 21
 3.35582042192254E+0000
  0
LINE
  8
1
  6
CONTINUOUS
 62
     0
 10
 5.43224189668399E+0000
 20
 3.40276514658399E+0000
 11
 5.41020103194751E+0000
 21
 3.38072428184387E+0000
  0
LINE
  8
1
  6
CONTINUOUS
 62
     0
 10
 5.42867755599582E+0000
 20
 3.41985501007366E+0000
 11
 5.41445068768371E+0000
 21
 3.40562814176519E+0000
  0
LINE
  8
1
  6
CONTINUOUS
 62
     0
 10
 5.42511321530037E+0000
 20
 3.43694487356697E+0000
 11
 5.41870034341991E+0000
 21
 3.43053200168652E+0000
  0
LINE
  8
1
  6
CONTINUOUS
 62
     0
 10
 2.21672123681856E+0000
 20
 6.98484268032917E+0000
 11
 2.21672123681856E+0000
 21
 6.98484268032917E+0000
  0
LINE
  8
1
  6
CONTINUOUS
 62
     0
 10
 2.21672123681856E+0000
 20
 6.98484268032917E+0000
 11
 2.37601056345375E+0000
 21
 6.95766115896549E+0000
  0
LINE
  8
1
  6
CONTINUOUS
 62
     0
 10
 2.37601056345375E+0000
 20
 6.95766115896549E+0000
 11
 2.37601056345375E+0000
 21
 7.01806479643710E+0000
  0
LINE
  8
1
  6
CONTINUOUS
 62
     0
 10
 2.37601056345375E+0000
 20
 7.01806479643710E+0000
 11
 2.21672123681856E+0000
 21
 6.98484268032917E+0000
  0
LINE
  8
1
  6
CONTINUOUS
 62
     0
 10
 2.37601056345375E+0000
 20
 6.95766115896549E+0000
 11
 2.37601056345375E+0000
 21
 7.01806479643710E+0000
  0
LINE
  8
1
  6
CONTINUOUS
 62
     0
 10
 2.22917316677922E+0000
 20
 6.98271785246470E+0000
 11
 2.22526616856339E+0000
 21
 6.98662485068053E+0000
  0
LINE
  8
1
  6
CONTINUOUS
 62
     0
 10
 2.25407702670054E+0000
 20
 6.97846819672850E+0000
 11
 2.24235603205307E+0000
 21
 6.99018919137598E+0000
  0
LINE
  8
1
  6
CONTINUOUS
 62
     0
 10
 2.27898088662187E+0000
 20
 6.97421854099230E+0000
 11
 2.25944589554638E+0000
 21
 6.99375353206415E+0000
  0
LINE
  8
1
  6
CONTINUOUS
 62
     0
 10
 2.30388474654319E+0000
 20
 6.96996888525609E+0000
 11
 2.27653575903605E+0000
 21
 6.99731787275960E+0000
  0
LINE
  8
1
  6
CONTINUOUS
 62
     0
 10
 2.32878860646088E+0000
 20
 6.96571922951989E+0000
 11
 2.29362562252572E+0000
 21
 7.00088221345504E+0000
  0
LINE
  8
1
  6
CONTINUOUS
 62
     0
 10
 2.35369246638220E+0000
 20
 6.96146957378369E+0000
 11
 2.31071548601903E+0000
 21
 7.00444655415049E+0000
  0
LINE
  8
1
  6
CONTINUOUS
 62
     0
 10
 2.37601056345375E+0000
 20
 6.95980568089726E+0000
 11
 2.32780534950507E+0000
 21
 7.00801089484594E+0000
  0
LINE
  8
1
  6
CONTINUOUS
 62
     0
 10
 2.37601056345375E+0000
 20
 6.98045988508238E+0000
 11
 2.34489521299838E+0000
 21
 7.01157523554139E+0000
  0
LINE
  8
1
  6
CONTINUOUS
 62
     0
 10
 2.37601056345738E+0000
 20
 7.00111408926750E+0000
 11
 2.36198507648805E+0000
 21
 7.01513957623683E+0000
  0
LINE
  8
1
  6
CONTINUOUS
 62
     0
 10
 2.37601056345011E+0000
 20
 6.96798826105078E+0000
 11
 2.36718882452260E+0000
 21
 6.95916652212327E+0000
  0
LINE
  8
1
  6
CONTINUOUS
 62
     0
 10
 2.37601056345011E+0000
 20
 6.98864246523590E+0000
 11
 2.34954534666758E+0000
 21
 6.96217724845337E+0000
  0
LINE
  8
1
  6
CONTINUOUS
 62
     0
 10
 2.37601056345011E+0000
 20
 7.00929666942102E+0000
 11
 2.33190186881620E+0000
 21
 6.96518797478348E+0000
  0
LINE
  8
1
  6
CONTINUOUS
 62
     0
 10
 2.36099218379604E+0000
 20
 7.01493249394844E+0000
 11
 2.31425839096846E+0000
 21
 6.96819870112085E+0000
  0
LINE
  8
1
  6
CONTINUOUS
 62
     0
 10
 2.33489503876262E+0000
 20
 7.00948955310014E+0000
 11
 2.29661491311344E+0000
 21
 6.97120942745823E+0000
  0
LINE
  8
1
  6
CONTINUOUS
 62
     0
 10
 2.30879789373284E+0000
 20
 7.00404661225912E+0000
 11
 2.27897143525843E+0000
 21
 6.97422015378834E+0000
  0
LINE
  8
1
  6
CONTINUOUS
 62
     0
 10
 2.28270074869943E+0000
 20
 6.99860367141082E+0000
 11
 2.26132795740705E+0000
 21
 6.97723088011844E+0000
  0
LINE
  8
1
  6
CONTINUOUS
 62
     0
 10
 2.25660360366965E+0000
 20
 6.99316073056980E+0000
 11
 2.24368447955203E+0000
 21
 6.98024160644854E+0000
  0
LINE
  8
1
  6
CONTINUOUS
 62
     0
 10
 2.23050645863623E+0000
 20
 6.98771778972150E+0000
 11
 2.22604100170065E+0000
 21
 6.98325233277865E+0000
  0
LINE
  8
1
  6
CONTINUOUS
 62
     0
 10
 1.99062547068570E+0000
 20
 6.98586557751696E+0000
 11
 1.99062547068570E+0000
 21
 6.98586557751696E+0000
  0
LINE
  8
1
  6
CONTINUOUS
 62
     0
 10
 1.99062547068570E+0000
 20
 6.98586557751696E+0000
 11
 1.83133614405051E+0000
 21
 7.01304709888063E+0000
  0
LINE
  8
1
  6
CONTINUOUS
 62
     0
 10
 1.83133614405051E+0000
 20
 7.01304709888063E+0000
 11
 1.83133614405051E+0000
 21
 6.95264346140902E+0000
  0
LINE
  8
1
  6
CONTINUOUS
 62
     0
 10
 1.83133614405051E+0000
 20
 6.95264346140902E+0000
 11
 1.99062547068570E+0000
 21
 6.98586557751696E+0000
  0
LINE
  8
1
  6
CONTINUOUS
 62
     0
 10
 1.83133614405051E+0000
 20
 7.01304709888063E+0000
 11
 1.83133614405051E+0000
 21
 6.95264346140902E+0000
  0
LINE
  8
1
  6
CONTINUOUS
 62
     0
 10
 1.83988107579717E+0000
 20
 6.95442563175311E+0000
 11
 1.83133614405233E+0000
 21
 6.96297056350159E+0000
  0
LINE
  8
1
  6
CONTINUOUS
 62
     0
 10
 1.85697093928684E+0000
 20
 6.95798997245583E+0000
 11
 1.83133614405415E+0000
 21
 6.98362476768671E+0000
  0
LINE
  8
1
  6
CONTINUOUS
 62
     0
 10
 1.87406080277833E+0000
 20
 6.96155431314401E+0000
 11
 1.83133614405415E+0000
 21
 7.00427897187183E+0000
  0
LINE
  8
1
  6
CONTINUOUS
 62
     0
 10
 1.89115066626800E+0000
 20
 6.96511865383945E+0000
 11
 1.84566781223293E+0000
 21
 7.01060150787816E+0000
  0
LINE
  8
1
  6
CONTINUOUS
 62
     0
 10
 1.90824052975950E+0000
 20
 6.96868299453490E+0000
 11
 1.87057167215426E+0000
 21
 7.00635185214196E+0000
  0
LINE
  8
1
  6
CONTINUOUS
 62
     0
 10
 1.92533039324917E+0000
 20
 6.97224733523035E+0000
 11
 1.89547553207376E+0000
 21
 7.00210219640576E+0000
  0
LINE
  8
1
  6
CONTINUOUS
 62
     0
 10
 1.94242025674066E+0000
 20
 6.97581167592580E+0000
 11
 1.92037939199508E+0000
 21
 6.99785254066956E+0000
  0
LINE
  8
1
  6
CONTINUOUS
 62
     0
 10
 1.95951012022852E+0000
 20
 6.97937601662125E+0000
 11
 1.94528325191459E+0000
 21
 6.99360288494063E+0000
  0
LINE
  8
1
  6
CONTINUOUS
 62
     0
 10
 1.97659998371819E+0000
 20
 6.98294035731669E+0000
 11
 1.97018711183409E+0000
 21
 6.98935322920443E+0000
  0
LINE
  8
1
  6
CONTINUOUS
 62
     0
 10
 1.98180373175819E+0000
 20
 6.98737094067474E+0000
 11
 1.97757689817081E+0000
 21
 6.98314410708554E+0000
  0
LINE
  8
1
  6
CONTINUOUS
 62
     0
 10
 1.96416025390499E+0000
 20
 6.99038166701212E+0000
 11
 1.95147975313739E+0000
 21
 6.97770116623724E+0000
  0
LINE
  8
1
  6
CONTINUOUS
 62
     0
 10
 1.94651677605179E+0000
 20
 6.99339239334222E+0000
 11
 1.92538260810397E+0000
 21
 6.97225822538894E+0000
  0
LINE
  8
1
  6
CONTINUOUS
 62
     0
 10
 1.92887329820405E+0000
 20
 6.99640311967960E+0000
 11
 1.89928546307419E+0000
 21
 6.96681528454792E+0000
  0
LINE
  8
1
  6
CONTINUOUS
 62
     0
 10
 1.91122982034904E+0000
 20
 6.99941384600970E+0000
 11
 1.87318831804077E+0000
 21
 6.96137234369962E+0000
  0
LINE
  8
1
  6
CONTINUOUS
 62
     0
 10
 1.89358634249584E+0000
 20
 7.00242457233981E+0000
 11
 1.84709117301281E+0000
 21
 6.95592940285860E+0000
  0
LINE
  8
1
  6
CONTINUOUS
 62
     0
 10
 1.87594286464264E+0000
 20
 7.00543529866991E+0000
 11
 1.83133614404687E+0000
 21
 6.96082857807778E+0000
  0
LINE
  8
1
  6
CONTINUOUS
 62
     0
 10
 1.85829938678944E+0000
 20
 7.00844602500729E+0000
 11
 1.83133614404687E+0000
 21
 6.98148278226290E+0000
  0
LINE
  8
1
  6
CONTINUOUS
 62
     0
 10
 1.84065590893624E+0000
 20
 7.01145675133739E+0000
 11
 1.83133614404687E+0000
 21
 7.00213698644802E+0000
  0
LINE
  8
1
  6
CONTINUOUS
 62
     0
 10
 2.13282418759627E+0000
 20
 5.98801680355245E+0000
 11
 2.13282418759627E+0000
 21
 5.98801680355245E+0000
  0
LINE
  8
1
  6
CONTINUOUS
 62
     0
 10
 2.13282418759627E+0000
 20
 5.98801680355245E+0000
 11
 1.97353486096108E+0000
 21
 6.01519832491613E+0000
  0
LINE
  8
1
  6
CONTINUOUS
 62
     0
 10
 1.97353486096108E+0000
 20
 6.01519832491613E+0000
 11
 1.97353486096108E+0000
 21
 5.95479468744452E+0000
  0
LINE
  8
1
  6
CONTINUOUS
 62
     0
 10
 1.97353486096108E+0000
 20
 5.95479468744452E+0000
 11
 2.13282418759627E+0000
 21
 5.98801680355245E+0000
  0
LINE
  8
1
  6
CONTINUOUS
 62
     0
 10
 1.97353486096108E+0000
 20
 6.01519832491613E+0000
 11
 1.97353486096108E+0000
 21
 5.95479468744452E+0000
  0
LINE
  8
1
  6
CONTINUOUS
 62
     0
 10
 1.98207979271137E+0000
 20
 5.95657685779588E+0000
 11
 1.97353486096472E+0000
 21
 5.96512178953708E+0000
  0
LINE
  8
1
  6
CONTINUOUS
 62
     0
 10
 1.99916965619923E+0000
 20
 5.96014119849133E+0000
 11
 1.97353486096290E+0000
 21
 5.98577599372948E+0000
  0
LINE
  8
1
  6
CONTINUOUS
 62
     0
 10
 2.01625951969254E+0000
 20
 5.96370553918678E+0000
 11
 1.97353486096290E+0000
 21
 6.00643019791460E+0000
  0
LINE
  8
1
  6
CONTINUOUS
 62
     0
 10
 2.03334938318221E+0000
 20
 5.96726987987495E+0000
 11
 1.98786652915260E+0000
 21
 6.01275273390638E+0000
  0
LINE
  8
1
  6
CONTINUOUS
 62
     0
 10
 2.05043924667189E+0000
 20
 5.97083422057767E+0000
 11
 2.01277038907210E+0000
 21
 6.00850307817018E+0000
  0
LINE
  8
1
  6
CONTINUOUS
 62
     0
 10
 2.06752911016520E+0000
 20
 5.97439856126584E+0000
 11
 2.03767424899343E+0000
 21
 6.00425342243398E+0000
  0
LINE
  8
1
  6
CONTINUOUS
 62
     0
 10
 2.08461897365123E+0000
 20
 5.97796290196129E+0000
 11
 2.06257810891475E+0000
 21
 6.00000376670505E+0000
  0
LINE
  8
1
  6
CONTINUOUS
 62
     0
 10
 2.10170883714454E+0000
 20
 5.98152724265674E+0000
 11
 2.08748196883244E+0000
 21
 5.99575411096885E+0000
  0
LINE
  8
1
  6
CONTINUOUS
 62
     0
 10
 2.11879870063785E+0000
 20
 5.98509158335219E+0000
 11
 2.11238582875376E+0000
 21
 5.99150445523264E+0000
  0
LINE
  8
1
  6
CONTINUOUS
 62
     0
 10
 2.12400244866512E+0000
 20
 5.98952216671023E+0000
 11
 2.11977561507956E+0000
 21
 5.98529533312103E+0000
  0
LINE
  8
1
  6
CONTINUOUS
 62
     0
 10
 2.10635897081374E+0000
 20
 5.99253289304033E+0000
 11
 2.09367847004251E+0000
 21
 5.97985239227273E+0000
  0
LINE
  8
1
  6
CONTINUOUS
 62
     0
 10
 2.08871549295873E+0000
 20
 5.99554361937044E+0000
 11
 2.06758132501636E+0000
 21
 5.97440945143171E+0000
  0
LINE
  8
1
  6
CONTINUOUS
 62
     0
 10
 2.07107201511099E+0000
 20
 5.99855434570782E+0000
 11
 2.04148417998294E+0000
 21
 5.96896651058341E+0000
  0
LINE
  8
1
  6
CONTINUOUS
 62
     0
 10
 2.05342853725597E+0000
 20
 6.00156507204520E+0000
 11
 2.01538703495316E+0000
 21
 5.96352356974239E+0000
  0
LINE
  8
1
  6
CONTINUOUS
 62
     0
 10
 2.03578505940459E+0000
 20
 6.00457579837530E+0000
 11
 1.98928988991975E+0000
 21
 5.95808062889409E+0000
  0
LINE
  8
1
  6
CONTINUOUS
 62
     0
 10
 2.01814158154957E+0000
 20
 6.00758652470540E+0000
 11
 1.97353486095926E+0000
 21
 5.96297980411327E+0000
  0
LINE
  8
1
  6
CONTINUOUS
 62
     0
 10
 2.00049810369455E+0000
 20
 6.01059725103551E+0000
 11
 1.97353486095926E+0000
 21
 5.98363400829840E+0000
  0
LINE
  8
1
  6
CONTINUOUS
 62
     0
 10
 1.98285462584317E+0000
 20
 6.01360797737289E+0000
 11
 1.97353486095926E+0000
 21
 6.00428821248352E+0000
  0
LINE
  8
1
  6
CONTINUOUS
 62
     0
 10
 2.27766354406776E+0000
 20
 5.97681177601771E+0000
 11
 2.27766354406776E+0000
 21
 5.97681177601771E+0000
  0
LINE
  8
1
  6
CONTINUOUS
 62
     0
 10
 2.27766354406776E+0000
 20
 5.97681177601771E+0000
 11
 2.43695287070295E+0000
 21
 5.94963025465404E+0000
  0
LINE
  8
1
  6
CONTINUOUS
 62
     0
 10
 2.43695287070295E+0000
 20
 5.94963025465404E+0000
 11
 2.43695287070295E+0000
 21
 6.01003389212565E+0000
  0
LINE
  8
1
  6
CONTINUOUS
 62
     0
 10
 2.43695287070295E+0000
 20
 6.01003389212565E+0000
 11
 2.27766354406776E+0000
 21
 5.97681177601771E+0000
  0
LINE
  8
1
  6
CONTINUOUS
 62
     0
 10
 2.43695287070295E+0000
 20
 5.94963025465404E+0000
 11
 2.43695287070295E+0000
 21
 6.01003389212565E+0000
  0
LINE
  8
1
  6
CONTINUOUS
 62
     0
 10
 2.29011547403206E+0000
 20
 5.97468694815325E+0000
 11
 2.28620847581624E+0000
 21
 5.97859394636907E+0000
  0
LINE
  8
1
  6
CONTINUOUS
 62
     0
 10
 2.31501933395339E+0000
 20
 5.97043729241705E+0000
 11
 2.30329833930591E+0000
 21
 5.98215828706452E+0000
  0
LINE
  8
1
  6
CONTINUOUS
 62
     0
 10
 2.33992319387107E+0000
 20
 5.96618763668084E+0000
 11
 2.32038820279558E+0000
 21
 5.98572262775997E+0000
  0
LINE
  8
1
  6
CONTINUOUS
 62
     0
 10
 2.36482705379240E+0000
 20
 5.96193798094464E+0000
 11
 2.33747806628890E+0000
 21
 5.98928696845542E+0000
  0
LINE
  8
1
  6
CONTINUOUS
 62
     0
 10
 2.38973091371372E+0000
 20
 5.95768832520844E+0000
 11
 2.35456792977857E+0000
 21
 5.99285130914359E+0000
  0
LINE
  8
1
  6
CONTINUOUS
 62
     0
 10
 2.41463477363141E+0000
 20
 5.95343866947951E+0000
 11
 2.37165779326824E+0000
 21
 5.99641564983904E+0000
  0
LINE
  8
1
  6
CONTINUOUS
 62
     0
 10
 2.43695287070659E+0000
 20
 5.95177477659308E+0000
 11
 2.38874765676155E+0000
 21
 5.99997999053448E+0000
  0
LINE
  8
1
  6
CONTINUOUS
 62
     0
 10
 2.43695287070659E+0000
 20
 5.97242898077820E+0000
 11
 2.40583752025123E+0000
 21
 6.00354433122993E+0000
  0
LINE
  8
1
  6
CONTINUOUS
 62
     0
 10
 2.43695287070295E+0000
 20
 5.99308318496333E+0000
 11
 2.42292738374454E+0000
 21
 6.00710867192538E+0000
  0
LINE
  8
1
  6
CONTINUOUS
 62
     0
 10
 2.43695287069932E+0000
 20
 5.95995735673932E+0000
 11
 2.42813113177181E+0000
 21
 5.95113561781181E+0000
  0
LINE
  8
1
  6
CONTINUOUS
 62
     0
 10
 2.43695287069932E+0000
 20
 5.98061156092444E+0000
 11
 2.41048765392043E+0000
 21
 5.95414634414919E+0000
  0
LINE
  8
1
  6
CONTINUOUS
 62
     0
 10
 2.43695287069932E+0000
 20
 6.00126576510957E+0000
 11
 2.39284417606541E+0000
 21
 5.95715707047930E+0000
  0
LINE
  8
1
  6
CONTINUOUS
 62
     0
 10
 2.42193449104161E+0000
 20
 6.00690158963698E+0000
 11
 2.37520069821403E+0000
 21
 5.96016779680940E+0000
  0
LINE
  8
1
  6
CONTINUOUS
 62
     0
 10
 2.39583734600819E+0000
 20
 6.00145864878868E+0000
 11
 2.35755722036629E+0000
 21
 5.96317852314678E+0000
  0
LINE
  8
1
  6
CONTINUOUS
 62
     0
 10
 2.36974020097841E+0000
 20
 5.99601570794766E+0000
 11
 2.33991374251127E+0000
 21
 5.96618924947688E+0000
  0
LINE
  8
1
  6
CONTINUOUS
 62
     0
 10
 2.34364305594499E+0000
 20
 5.99057276709937E+0000
 11
 2.32227026465625E+0000
 21
 5.96919997581426E+0000
  0
LINE
  8
1
  6
CONTINUOUS
 62
     0
 10
 2.31754591091521E+0000
 20
 5.98512982625834E+0000
 11
 2.30462678680487E+0000
 21
 5.97221070214437E+0000
  0
LINE
  8
1
  6
CONTINUOUS
 62
     0
 10
 2.29144876588180E+0000
 20
 5.97968688541005E+0000
 11
 2.28698330894986E+0000
 21
 5.97522142847447E+0000
  0
LINE
  8
1
  6
CONTINUOUS
 62
     0
 10
 1.07087845668866E+0000
 20
 6.65006263238320E+0000
 11
 1.07087845668866E+0000
 21
 6.65006263238320E+0000
  0
LINE
  8
1
  6
CONTINUOUS
 62
     0
 10
 1.07087845668866E+0000
 20
 6.65006263238320E+0000
 11
 1.09805997805233E+0000
 21
 6.80935195901111E+0000
  0
LINE
  8
1
  6
CONTINUOUS
 62
     0
 10
 1.09805997805233E+0000
 20
 6.80935195901111E+0000
 11
 1.03765634058072E+0000
 21
 6.80935195901111E+0000
  0
LINE
  8
1
  6
CONTINUOUS
 62
     0
 10
 1.03765634058072E+0000
 20
 6.80935195901111E+0000
 11
 1.07087845668866E+0000
 21
 6.65006263238320E+0000
  0
LINE
  8
1
  6
CONTINUOUS
 62
     0
 10
 1.09805997805233E+0000
 20
 6.80935195901111E+0000
 11
 1.03765634058072E+0000
 21
 6.80935195901111E+0000
  0
LINE
  8
1
  6
CONTINUOUS
 62
     0
 10
 1.07238381985735E+0000
 20
 6.65888437131071E+0000
 11
 1.06815698626633E+0000
 21
 6.66311120490718E+0000
  0
LINE
  8
1
  6
CONTINUOUS
 62
     0
 10
 1.07539454618927E+0000
 20
 6.67652784916572E+0000
 11
 1.06271404541985E+0000
 21
 6.68920834993332E+0000
  0
LINE
  8
1
  6
CONTINUOUS
 62
     0
 10
 1.07840527252301E+0000
 20
 6.69417132702074E+0000
 11
 1.05727110457519E+0000
 21
 6.71530549496674E+0000
  0
LINE
  8
1
  6
CONTINUOUS
 62
     0
 10
 1.08141599885494E+0000
 20
 6.71181480487576E+0000
 11
 1.05182816372690E+0000
 21
 6.74140264000016E+0000
  0
LINE
  8
1
  6
CONTINUOUS
 62
     0
 10
 1.08442672518686E+0000
 20
 6.72945828272350E+0000
 11
 1.04638522288224E+0000
 21
 6.76749978502630E+0000
  0
LINE
  8
1
  6
CONTINUOUS
 62
     0
 10
 1.08743745151878E+0000
 20
 6.74710176057852E+0000
 11
 1.04094228203394E+0000
 21
 6.79359693005972E+0000
  0
LINE
  8
1
  6
CONTINUOUS
 62
     0
 10
 1.09044817785070E+0000
 20
 6.76474523843353E+0000
 11
 1.04584145726949E+0000
 21
 6.80935195901111E+0000
  0
LINE
  8
1
  6
CONTINUOUS
 62
     0
 10
 1.09345890418263E+0000
 20
 6.78238871628855E+0000
 11
 1.06649566145643E+0000
 21
 6.80935195901111E+0000
  0
LINE
  8
1
  6
CONTINUOUS
 62
     0
 10
 1.09646963051455E+0000
 20
 6.80003219414357E+0000
 11
 1.08714986564155E+0000
 21
 6.80935195901111E+0000
  0
LINE
  8
1
  6
CONTINUOUS
 62
     0
 10
 1.07300328455676E+0000
 20
 6.66251456234022E+0000
 11
 1.06909628634276E+0000
 21
 6.65860756412440E+0000
  0
LINE
  8
1
  6
CONTINUOUS
 62
     0
 10
 1.07725294029296E+0000
 20
 6.68741842226154E+0000
 11
 1.06553194564913E+0000
 21
 6.67569742761407E+0000
  0
LINE
  8
1
  6
CONTINUOUS
 62
     0
 10
 1.08150259602735E+0000
 20
 6.71232228218287E+0000
 11
 1.06196760495004E+0000
 21
 6.69278729110374E+0000
  0
LINE
  8
1
  6
CONTINUOUS
 62
     0
 10
 1.08575225175809E+0000
 20
 6.73722614209692E+0000
 11
 1.05840326425641E+0000
 21
 6.70987715459341E+0000
  0
LINE
  8
1
  6
CONTINUOUS
 62
     0
 10
 1.09000190749612E+0000
 20
 6.76213000202551E+0000
 11
 1.05483892355915E+0000
 21
 6.72696701809036E+0000
  0
LINE
  8
1
  6
CONTINUOUS
 62
     0
 10
 1.09425156323232E+0000
 20
 6.78703386194684E+0000
 11
 1.05127458286552E+0000
 21
 6.74405688158004E+0000
  0
LINE
  8
1
  6
CONTINUOUS
 62
     0
 10
 1.09591545610419E+0000
 20
 6.80935195900383E+0000
 11
 1.04771024217189E+0000
 21
 6.76114674506971E+0000
  0
LINE
  8
1
  6
CONTINUOUS
 62
     0
 10
 1.07526125191907E+0000
 20
 6.80935195900383E+0000
 11
 1.04414590147826E+0000
 21
 6.77823660855938E+0000
  0
LINE
  8
1
  6
CONTINUOUS
 62
     0
 10
 1.05460704773395E+0000
 20
 6.80935195900383E+0000
 11
 1.04058156078463E+0000
 21
 6.79532647205633E+0000
  0
LINE
  8
1
  6
CONTINUOUS
 62
     0
 10
 1.07497007815255E+0000
 20
 6.23069194515119E+0000
 11
 1.07497007815255E+0000
 21
 6.23069194515119E+0000
  0
LINE
  8
1
  6
CONTINUOUS
 62
     0
 10
 1.07497007815255E+0000
 20
 6.23069194515119E+0000
 11
 1.04778855678887E+0000
 21
 6.07140261852328E+0000
  0
LINE
  8
1
  6
CONTINUOUS
 62
     0
 10
 1.04778855678887E+0000
 20
 6.07140261852328E+0000
 11
 1.10819219426048E+0000
 21
 6.07140261852328E+0000
  0
LINE
  8
1
  6
CONTINUOUS
 62
     0
 10
 1.10819219426048E+0000
 20
 6.07140261852328E+0000
 11
 1.07497007815255E+0000
 21
 6.23069194515119E+0000
  0
LINE
  8
1
  6
CONTINUOUS
 62
     0
 10
 1.04778855678887E+0000
 20
 6.07140261852328E+0000
 11
 1.10819219426048E+0000
 21
 6.07140261852328E+0000
  0
LINE
  8
1
  6
CONTINUOUS
 62
     0
 10
 1.05811565888143E+0000
 20
 6.07140261852328E+0000
 11
 1.04929391995393E+0000
 21
 6.08022435745079E+0000
  0
LINE
  8
1
  6
CONTINUOUS
 62
     0
 10
 1.07876986306474E+0000
 20
 6.07140261852328E+0000
 11
 1.05230464628949E+0000
 21
 6.09786783529853E+0000
  0
LINE
  8
1
  6
CONTINUOUS
 62
     0
 10
 1.09942406724986E+0000
 20
 6.07140261852328E+0000
 11
 1.05531537262141E+0000
 21
 6.11551131315355E+0000
  0
LINE
  8
1
  6
CONTINUOUS
 62
     0
 10
 1.10505989178637E+0000
 20
 6.08642099817371E+0000
 11
 1.05832609895333E+0000
 21
 6.13315479100856E+0000
  0
LINE
  8
1
  6
CONTINUOUS
 62
     0
 10
 1.09961695093807E+0000
 20
 6.11251814320713E+0000
 11
 1.06133682528707E+0000
 21
 6.15079826885631E+0000
  0
LINE
  8
1
  6
CONTINUOUS
 62
     0
 10
 1.09417401009159E+0000
 20
 6.13861528824054E+0000
 11
 1.06434755161899E+0000
 21
 6.16844174671132E+0000
  0
LINE
  8
1
  6
CONTINUOUS
 62
     0
 10
 1.08873106924329E+0000
 20
 6.16471243327396E+0000
 11
 1.06735827795092E+0000
 21
 6.18608522456634E+0000
  0
LINE
  8
1
  6
CONTINUOUS
 62
     0
 10
 1.08328812839864E+0000
 20
 6.19080957830738E+0000
 11
 1.07036900428466E+0000
 21
 6.20372870241408E+0000
  0
LINE
  8
1
  6
CONTINUOUS
 62
     0
 10
 1.07784518755034E+0000
 20
 6.21690672334080E+0000
 11
 1.07337973061658E+0000
 21
 6.22137218026910E+0000
  0
LINE
  8
1
  6
CONTINUOUS
 62
     0
 10
 1.10641002391276E+0000
 20
 6.07994755026448E+0000
 11
 1.09786509216610E+0000
 21
 6.07140261851600E+0000
  0
LINE
  8
1
  6
CONTINUOUS
 62
     0
 10
 1.10284568321913E+0000
 20
 6.09703741375415E+0000
 11
 1.07721088798098E+0000
 21
 6.07140261851600E+0000
  0
LINE
  8
1
  6
CONTINUOUS
 62
     0
 10
 1.09928134252004E+0000
 20
 6.11412727724382E+0000
 11
 1.05655668379586E+0000
 21
 6.07140261851600E+0000
  0
LINE
  8
1
  6
CONTINUOUS
 62
     0
 10
 1.09571700182642E+0000
 20
 6.13121714073350E+0000
 11
 1.05023414779316E+0000
 21
 6.08573428670206E+0000
  0
LINE
  8
1
  6
CONTINUOUS
 62
     0
 10
 1.09215266113279E+0000
 20
 6.14830700422317E+0000
 11
 1.05448380352937E+0000
 21
 6.11063814662339E+0000
  0
LINE
  8
1
  6
CONTINUOUS
 62
     0
 10
 1.08858832043916E+0000
 20
 6.16539686772012E+0000
 11
 1.05873345926375E+0000
 21
 6.13554200654471E+0000
  0
LINE
  8
1
  6
CONTINUOUS
 62
     0
 10
 1.08502397974553E+0000
 20
 6.18248673120979E+0000
 11
 1.06298311499995E+0000
 21
 6.16044586646603E+0000
  0
LINE
  8
1
  6
CONTINUOUS
 62
     0
 10
 1.08145963904644E+0000
 20
 6.19957659469947E+0000
 11
 1.06723277073615E+0000
 21
 6.18534972638736E+0000
  0
LINE
  8
1
  6
CONTINUOUS
 62
     0
 10
 1.07789529835281E+0000
 20
 6.21666645818914E+0000
 11
 1.07148242647054E+0000
 21
 6.21025358630868E+0000
  0
LINE
  8
1
  6
CONTINUOUS
 62
     0
 10
 1.07497007815255E+0000
 20
 5.62994625469582E+0000
 11
 1.07497007815255E+0000
 21
 5.62994625469582E+0000
  0
LINE
  8
1
  6
CONTINUOUS
 62
     0
 10
 1.07497007815255E+0000
 20
 5.62994625469582E+0000
 11
 1.04778855678887E+0000
 21
 5.47065692806791E+0000
  0
LINE
  8
1
  6
CONTINUOUS
 62
     0
 10
 1.04778855678887E+0000
 20
 5.47065692806791E+0000
 11
 1.10819219426048E+0000
 21
 5.47065692806791E+0000
  0
LINE
  8
1
  6
CONTINUOUS
 62
     0
 10
 1.10819219426048E+0000
 20
 5.47065692806791E+0000
 11
 1.07497007815255E+0000
 21
 5.62994625469582E+0000
  0
LINE
  8
1
  6
CONTINUOUS
 62
     0
 10
 1.04778855678887E+0000
 20
 5.47065692806791E+0000
 11
 1.10819219426048E+0000
 21
 5.47065692806791E+0000
  0
LINE
  8
1
  6
CONTINUOUS
 62
     0
 10
 1.05811565888325E+0000
 20
 5.47065692807519E+0000
 11
 1.04929391995756E+0000
 21
 5.47947866699542E+0000
  0
LINE
  8
1
  6
CONTINUOUS
 62
     0
 10
 1.07876986307201E+0000
 20
 5.47065692806791E+0000
 11
 1.05230464628949E+0000
 21
 5.49712214485044E+0000
  0
LINE
  8
1
  6
CONTINUOUS
 62
     0
 10
 1.09942406725713E+0000
 20
 5.47065692806791E+0000
 11
 1.05531537262323E+0000
 21
 5.51476562270545E+0000
  0
LINE
  8
1
  6
CONTINUOUS
 62
     0
 10
 1.10505989177909E+0000
 20
 5.48567530773289E+0000
 11
 1.05832609895515E+0000
 21
 5.53240910056047E+0000
  0
LINE
  8
1
  6
CONTINUOUS
 62
     0
 10
 1.09961695093261E+0000
 20
 5.51177245276631E+0000
 11
 1.06133682528707E+0000
 21
 5.55005257840821E+0000
  0
LINE
  8
1
  6
CONTINUOUS
 62
     0
 10
 1.09417401008795E+0000
 20
 5.53786959779245E+0000
 11
 1.06434755161899E+0000
 21
 5.56769605626323E+0000
  0
LINE
  8
1
  6
CONTINUOUS
 62
     0
 10
 1.08873106923966E+0000
 20
 5.56396674282587E+0000
 11
 1.06735827795092E+0000
 21
 5.58533953411825E+0000
  0
LINE
  8
1
  6
CONTINUOUS
 62
     0
 10
 1.08328812839318E+0000
 20
 5.59006388785929E+0000
 11
 1.07036900428466E+0000
 21
 5.60298301196599E+0000
  0
LINE
  8
1
  6
CONTINUOUS
 62
     0
 10
 1.07784518754488E+0000
 20
 5.61616103289271E+0000
 11
 1.07337973061658E+0000
 21
 5.62062648982101E+0000
  0
LINE
  8
1
  6
CONTINUOUS
 62
     0
 10
 1.10641002391094E+0000
 20
 5.47920185980911E+0000
 11
 1.09786509216610E+0000
 21
 5.47065692806063E+0000
  0
LINE
  8
1
  6
CONTINUOUS
 62
     0
 10
 1.10284568321731E+0000
 20
 5.49629172329878E+0000
 11
 1.07721088798098E+0000
 21
 5.47065692806063E+0000
  0
LINE
  8
1
  6
CONTINUOUS
 62
     0
 10
 1.09928134252004E+0000
 20
 5.51338158678118E+0000
 11
 1.05655668379586E+0000
 21
 5.47065692806063E+0000
  0
LINE
  8
1
  6
CONTINUOUS
 62
     0
 10
 1.09571700182642E+0000
 20
 5.53047145027813E+0000
 11
 1.05023414779862E+0000
 21
 5.48498859624669E+0000
  0
LINE
  8
1
  6
CONTINUOUS
 62
     0
 10
 1.09215266113279E+0000
 20
 5.54756131376780E+0000
 11
 1.05448380353300E+0000
 21
 5.50989245616802E+0000
  0
LINE
  8
1
  6
CONTINUOUS
 62
     0
 10
 1.08858832043734E+0000
 20
 5.56465117725747E+0000
 11
 1.05873345926375E+0000
 21
 5.53479631608207E+0000
  0
LINE
  8
1
  6
CONTINUOUS
 62
     0
 10
 1.08502397974007E+0000
 20
 5.58174104074715E+0000
 11
 1.06298311499995E+0000
 21
 5.55970017600339E+0000
  0
LINE
  8
1
  6
CONTINUOUS
 62
     0
 10
 1.08145963904644E+0000
 20
 5.59883090423682E+0000
 11
 1.06723277073615E+0000
 21
 5.58460403592471E+0000
  0
LINE
  8
1
  6
CONTINUOUS
 62
     0
 10
 1.07789529835281E+0000
 20
 5.61592076772649E+0000
 11
 1.07148242647054E+0000
 21
 5.60950789584604E+0000
  0
LINE
  8
1
  6
CONTINUOUS
 62
     0
 10
 1.07087845668866E+0000
 20
 5.10237881969806E+0000
 11
 1.07087845668866E+0000
 21
 5.10237881969806E+0000
  0
LINE
  8
1
  6
CONTINUOUS
 62
     0
 10
 1.07087845668866E+0000
 20
 5.10237881969806E+0000
 11
 1.09805997805233E+0000
 21
 5.26166814632597E+0000
  0
LINE
  8
1
  6
CONTINUOUS
 62
     0
 10
 1.09805997805233E+0000
 20
 5.26166814632597E+0000
 11
 1.03765634058072E+0000
 21
 5.26166814632597E+0000
  0
LINE
  8
1
  6
CONTINUOUS
 62
     0
 10
 1.03765634058072E+0000
 20
 5.26166814632597E+0000
 11
 1.07087845668866E+0000
 21
 5.10237881969806E+0000
  0
LINE
  8
1
  6
CONTINUOUS
 62
     0
 10
 1.09805997805233E+0000
 20
 5.26166814632597E+0000
 11
 1.03765634058072E+0000
 21
 5.26166814632597E+0000
  0
LINE
  8
1
  6
CONTINUOUS
 62
     0
 10
 1.07238381985735E+0000
 20
 5.11120055862557E+0000
 11
 1.06815698626633E+0000
 21
 5.11542739221477E+0000
  0
LINE
  8
1
  6
CONTINUOUS
 62
     0
 10
 1.07539454618927E+0000
 20
 5.12884403648059E+0000
 11
 1.06271404541985E+0000
 21
 5.14152453724819E+0000
  0
LINE
  8
1
  6
CONTINUOUS
 62
     0
 10
 1.07840527252301E+0000
 20
 5.14648751432833E+0000
 11
 1.05727110457156E+0000
 21
 5.16762168228161E+0000
  0
LINE
  8
1
  6
CONTINUOUS
 62
     0
 10
 1.08141599885494E+0000
 20
 5.16413099218335E+0000
 11
 1.05182816372690E+0000
 21
 5.19371882731502E+0000
  0
LINE
  8
1
  6
CONTINUOUS
 62
     0
 10
 1.08442672518686E+0000
 20
 5.18177447003836E+0000
 11
 1.04638522288042E+0000
 21
 5.21981597234117E+0000
  0
LINE
  8
1
  6
CONTINUOUS
 62
     0
 10
 1.08743745151878E+0000
 20
 5.19941794789338E+0000
 11
 1.04094228203212E+0000
 21
 5.24591311737458E+0000
  0
LINE
  8
1
  6
CONTINUOUS
 62
     0
 10
 1.09044817785070E+0000
 20
 5.21706142574840E+0000
 11
 1.04584145726767E+0000
 21
 5.26166814632597E+0000
  0
LINE
  8
1
  6
CONTINUOUS
 62
     0
 10
 1.09345890418444E+0000
 20
 5.23470490359614E+0000
 11
 1.06649566145279E+0000
 21
 5.26166814632597E+0000
  0
LINE
  8
1
  6
CONTINUOUS
 62
     0
 10
 1.09646963051637E+0000
 20
 5.25234838145116E+0000
 11
 1.08714986564155E+0000
 21
 5.26166814632597E+0000
  0
LINE
  8
1
  6
CONTINUOUS
 62
     0
 10
 1.07300328455312E+0000
 20
 5.11483074965508E+0000
 11
 1.06909628633912E+0000
 21
 5.11092375143926E+0000
  0
LINE
  8
1
  6
CONTINUOUS
 62
     0
 10
 1.07725294028933E+0000
 20
 5.13973460957641E+0000
 11
 1.06553194564549E+0000
 21
 5.12801361492893E+0000
  0
LINE
  8
1
  6
CONTINUOUS
 62
     0
 10
 1.08150259602553E+0000
 20
 5.16463846949773E+0000
 11
 1.06196760494640E+0000
 21
 5.14510347841860E+0000
  0
LINE
  8
1
  6
CONTINUOUS
 62
     0
 10
 1.08575225175991E+0000
 20
 5.18954232941906E+0000
 11
 1.05840326425277E+0000
 21
 5.16219334190828E+0000
  0
LINE
  8
1
  6
CONTINUOUS
 62
     0
 10
 1.09000190749612E+0000
 20
 5.21444618934038E+0000
 11
 1.05483892355915E+0000
 21
 5.17928320539795E+0000
  0
LINE
  8
1
  6
CONTINUOUS
 62
     0
 10
 1.09425156323232E+0000
 20
 5.23935004926170E+0000
 11
 1.05127458286552E+0000
 21
 5.19637306889490E+0000
  0
LINE
  8
1
  6
CONTINUOUS
 62
     0
 10
 1.09591545610783E+0000
 20
 5.26166814631870E+0000
 11
 1.04771024217189E+0000
 21
 5.21346293238457E+0000
  0
LINE
  8
1
  6
CONTINUOUS
 62
     0
 10
 1.07526125192271E+0000
 20
 5.26166814631870E+0000
 11
 1.04414590147280E+0000
 21
 5.23055279586697E+0000
  0
LINE
  8
1
  6
CONTINUOUS
 62
     0
 10
 1.05460704773759E+0000
 20
 5.26166814631870E+0000
 11
 1.04058156077917E+0000
 21
 5.24764265936392E+0000
  0
LINE
  8
1
  6
CONTINUOUS
 62
     0
 10
 1.07497007815255E+0000
 20
 5.08011121598247E+0000
 11
 1.07497007815255E+0000
 21
 5.08011121598247E+0000
  0
LINE
  8
1
  6
CONTINUOUS
 62
     0
 10
 1.07497007815255E+0000
 20
 5.08011121598247E+0000
 11
 1.04778855678887E+0000
 21
 4.92082188935456E+0000
  0
LINE
  8
1
  6
CONTINUOUS
 62
     0
 10
 1.04778855678887E+0000
 20
 4.92082188935456E+0000
 11
 1.10819219426048E+0000
 21
 4.92082188935456E+0000
  0
LINE
  8
1
  6
CONTINUOUS
 62
     0
 10
 1.10819219426048E+0000
 20
 4.92082188935456E+0000
 11
 1.07497007815255E+0000
 21
 5.08011121598247E+0000
  0
LINE
  8
1
  6
CONTINUOUS
 62
     0
 10
 1.04778855678887E+0000
 20
 4.92082188935456E+0000
 11
 1.10819219426048E+0000
 21
 4.92082188935456E+0000
  0
LINE
  8
1
  6
CONTINUOUS
 62
     0
 10
 1.05811565888143E+0000
 20
 4.92082188935456E+0000
 11
 1.04929391995393E+0000
 21
 4.92964362828207E+0000
  0
LINE
  8
1
  6
CONTINUOUS
 62
     0
 10
 1.07876986306474E+0000
 20
 4.92082188935456E+0000
 11
 1.05230464628949E+0000
 21
 4.94728710612981E+0000
  0
LINE
  8
1
  6
CONTINUOUS
 62
     0
 10
 1.09942406724986E+0000
 20
 4.92082188935456E+0000
 11
 1.05531537262141E+0000
 21
 4.96493058398482E+0000
  0
LINE
  8
1
  6
CONTINUOUS
 62
     0
 10
 1.10505989178637E+0000
 20
 4.93584026900498E+0000
 11
 1.05832609895333E+0000
 21
 4.98257406183984E+0000
  0
LINE
  8
1
  6
CONTINUOUS
 62
     0
 10
 1.09961695093807E+0000
 20
 4.96193741403840E+0000
 11
 1.06133682528707E+0000
 21
 5.00021753968758E+0000
  0
LINE
  8
1
  6
CONTINUOUS
 62
     0
 10
 1.09417401009159E+0000
 20
 4.98803455907182E+0000
 11
 1.06434755161899E+0000
 21
 5.01786101754260E+0000
  0
LINE
  8
1
  6
CONTINUOUS
 62
     0
 10
 1.08873106924329E+0000
 20
 5.01413170410524E+0000
 11
 1.06735827795092E+0000
 21
 5.03550449539762E+0000
  0
LINE
  8
1
  6
CONTINUOUS
 62
     0
 10
 1.08328812839864E+0000
 20
 5.04022884913138E+0000
 11
 1.07036900428466E+0000
 21
 5.05314797324536E+0000
  0
LINE
  8
1
  6
CONTINUOUS
 62
     0
 10
 1.07784518755034E+0000
 20
 5.06632599416480E+0000
 11
 1.07337973061658E+0000
 21
 5.07079145110038E+0000
  0
LINE
  8
1
  6
CONTINUOUS
 62
     0
 10
 1.10641002391094E+0000
 20
 4.92936682109575E+0000
 11
 1.09786509216610E+0000
 21
 4.92082188934728E+0000
  0
LINE
  8
1
  6
CONTINUOUS
 62
     0
 10
 1.10284568321731E+0000
 20
 4.94645668458543E+0000
 11
 1.07721088798098E+0000
 21
 4.92082188934728E+0000
  0
LINE
  8
1
  6
CONTINUOUS
 62
     0
 10
 1.09928134251822E+0000
 20
 4.96354654807510E+0000
 11
 1.05655668379404E+0000
 21
 4.92082188934728E+0000
  0
LINE
  8
1
  6
CONTINUOUS
 62
     0
 10
 1.09571700182460E+0000
 20
 4.98063641156477E+0000
 11
 1.05023414779680E+0000
 21
 4.93515355754062E+0000
  0
LINE
  8
1
  6
CONTINUOUS
 62
     0
 10
 1.09215266113097E+0000
 20
 4.99772627505445E+0000
 11
 1.05448380353300E+0000
 21
 4.96005741746194E+0000
  0
LINE
  8
1
  6
CONTINUOUS
 62
     0
 10
 1.08858832043734E+0000
 20
 5.01481613855140E+0000
 11
 1.05873345926375E+0000
 21
 4.98496127737599E+0000
  0
LINE
  8
1
  6
CONTINUOUS
 62
     0
 10
 1.08502397973825E+0000
 20
 5.03190600203379E+0000
 11
 1.06298311499995E+0000
 21
 5.00986513729731E+0000
  0
LINE
  8
1
  6
CONTINUOUS
 62
     0
 10
 1.08145963904462E+0000
 20
 5.04899586552347E+0000
 11
 1.06723277073434E+0000
 21
 5.03476899721863E+0000
  0
LINE
  8
1
  6
CONTINUOUS
 62
     0
 10
 1.07789529835100E+0000
 20
 5.06608572902041E+0000
 11
 1.07148242647054E+0000
 21
 5.05967285713996E+0000
  0
LINE
  8
1
  6
CONTINUOUS
 62
     0
 10
 1.07087845668866E+0000
 20
 4.00270874225680E+0000
 11
 1.07087845668866E+0000
 21
 4.00270874225680E+0000
  0
LINE
  8
1
  6
CONTINUOUS
 62
     0
 10
 1.07087845668866E+0000
 20
 4.00270874225680E+0000
 11
 1.09805997805233E+0000
 21
 4.16199806888471E+0000
  0
LINE
  8
1
  6
CONTINUOUS
 62
     0
 10
 1.09805997805233E+0000
 20
 4.16199806888471E+0000
 11
 1.03765634058072E+0000
 21
 4.16199806888471E+0000
  0
LINE
  8
1
  6
CONTINUOUS
 62
     0
 10
 1.03765634058072E+0000
 20
 4.16199806888471E+0000
 11
 1.07087845668866E+0000
 21
 4.00270874225680E+0000
  0
LINE
  8
1
  6
CONTINUOUS
 62
     0
 10
 1.09805997805233E+0000
 20
 4.16199806888471E+0000
 11
 1.03765634058072E+0000
 21
 4.16199806888471E+0000
  0
LINE
  8
1
  6
CONTINUOUS
 62
     0
 10
 1.07238381985735E+0000
 20
 4.01153048118431E+0000
 11
 1.06815698626633E+0000
 21
 4.01575731477351E+0000
  0
LINE
  8
1
  6
CONTINUOUS
 62
     0
 10
 1.07539454618927E+0000
 20
 4.02917395903933E+0000
 11
 1.06271404541985E+0000
 21
 4.04185445980693E+0000
  0
LINE
  8
1
  6
CONTINUOUS
 62
     0
 10
 1.07840527252301E+0000
 20
 4.04681743688707E+0000
 11
 1.05727110457156E+0000
 21
 4.06795160484035E+0000
  0
LINE
  8
1
  6
CONTINUOUS
 62
     0
 10
 1.08141599885494E+0000
 20
 4.06446091474209E+0000
 11
 1.05182816372690E+0000
 21
 4.09404874987376E+0000
  0
LINE
  8
1
  6
CONTINUOUS
 62
     0
 10
 1.08442672518686E+0000
 20
 4.08210439259710E+0000
 11
 1.04638522288042E+0000
 21
 4.12014589489991E+0000
  0
LINE
  8
1
  6
CONTINUOUS
 62
     0
 10
 1.08743745152060E+0000
 20
 4.09974787044484E+0000
 11
 1.04094228203212E+0000
 21
 4.14624303993332E+0000
  0
LINE
  8
1
  6
CONTINUOUS
 62
     0
 10
 1.09044817785252E+0000
 20
 4.11739134829986E+0000
 11
 1.04584145726767E+0000
 21
 4.16199806888471E+0000
  0
LINE
  8
1
  6
CONTINUOUS
 62
     0
 10
 1.09345890418444E+0000
 20
 4.13503482615488E+0000
 11
 1.06649566145279E+0000
 21
 4.16199806888471E+0000
  0
LINE
  8
1
  6
CONTINUOUS
 62
     0
 10
 1.09646963051637E+0000
 20
 4.15267830400990E+0000
 11
 1.08714986563791E+0000
 21
 4.16199806888471E+0000
  0
LINE
  8
1
  6
CONTINUOUS
 62
     0
 10
 1.07300328455494E+0000
 20
 4.01516067221382E+0000
 11
 1.06909628634094E+0000
 21
 4.01125367399800E+0000
  0
LINE
  8
1
  6
CONTINUOUS
 62
     0
 10
 1.07725294029115E+0000
 20
 4.04006453213515E+0000
 11
 1.06553194564367E+0000
 21
 4.02834353748767E+0000
  0
LINE
  8
1
  6
CONTINUOUS
 62
     0
 10
 1.08150259602371E+0000
 20
 4.06496839205647E+0000
 11
 1.06196760495004E+0000
 21
 4.04543340097734E+0000
  0
LINE
  8
1
  6
CONTINUOUS
 62
     0
 10
 1.08575225175991E+0000
 20
 4.08987225197779E+0000
 11
 1.05840326425459E+0000
 21
 4.06252326446702E+0000
  0
LINE
  8
1
  6
CONTINUOUS
 62
     0
 10
 1.09000190749430E+0000
 20
 4.11477611189912E+0000
 11
 1.05483892356096E+0000
 21
 4.07961312796397E+0000
  0
LINE
  8
1
  6
CONTINUOUS
 62
     0
 10
 1.09425156323050E+0000
 20
 4.13967997181317E+0000
 11
 1.05127458286734E+0000
 21
 4.09670299145364E+0000
  0
LINE
  8
1
  6
CONTINUOUS
 62
     0
 10
 1.09591545611147E+0000
 20
 4.16199806888471E+0000
 11
 1.04771024217189E+0000
 21
 4.11379285494331E+0000
  0
LINE
  8
1
  6
CONTINUOUS
 62
     0
 10
 1.07526125192453E+0000
 20
 4.16199806888471E+0000
 11
 1.04414590147826E+0000
 21
 4.13088271843299E+0000
  0
LINE
  8
1
  6
CONTINUOUS
 62
     0
 10
 1.05460704773759E+0000
 20
 4.16199806887744E+0000
 11
 1.04058156078099E+0000
 21
 4.14797258192266E+0000
  0
LINE
  8
1
  6
CONTINUOUS
 62
     0
 10
 1.07497007815255E+0000
 20
 3.99062326888452E+0000
 11
 1.07497007815255E+0000
 21
 3.99062326888452E+0000
  0
LINE
  8
1
  6
CONTINUOUS
 62
     0
 10
 1.07497007815255E+0000
 20
 3.99062326888452E+0000
 11
 1.04778855678887E+0000
 21
 3.83133394225661E+0000
  0
LINE
  8
1
  6
CONTINUOUS
 62
     0
 10
 1.04778855678887E+0000
 20
 3.83133394225661E+0000
 11
 1.10819219426048E+0000
 21
 3.83133394225661E+0000
  0
LINE
  8
1
  6
CONTINUOUS
 62
     0
 10
 1.10819219426048E+0000
 20
 3.83133394225661E+0000
 11
 1.07497007815255E+0000
 21
 3.99062326888452E+0000
  0
LINE
  8
1
  6
CONTINUOUS
 62
     0
 10
 1.04778855678887E+0000
 20
 3.83133394225661E+0000
 11
 1.10819219426048E+0000
 21
 3.83133394225661E+0000
  0
LINE
  8
1
  6
CONTINUOUS
 62
     0
 10
 1.05811565888143E+0000
 20
 3.83133394225661E+0000
 11
 1.04929391995393E+0000
 21
 3.84015568118411E+0000
  0
LINE
  8
1
  6
CONTINUOUS
 62
     0
 10
 1.07876986306655E+0000
 20
 3.83133394225661E+0000
 11
 1.05230464628767E+0000
 21
 3.85779915903549E+0000
  0
LINE
  8
1
  6
CONTINUOUS
 62
     0
 10
 1.09942406725168E+0000
 20
 3.83133394225661E+0000
 11
 1.05531537261959E+0000
 21
 3.87544263689051E+0000
  0
LINE
  8
1
  6
CONTINUOUS
 62
     0
 10
 1.10505989178091E+0000
 20
 3.84635232191431E+0000
 11
 1.05832609895333E+0000
 21
 3.89308611474189E+0000
  0
LINE
  8
1
  6
CONTINUOUS
 62
     0
 10
 1.09961695093443E+0000
 20
 3.87244946694773E+0000
 11
 1.06133682528525E+0000
 21
 3.91072959259691E+0000
  0
LINE
  8
1
  6
CONTINUOUS
 62
     0
 10
 1.09417401008795E+0000
 20
 3.89854661197751E+0000
 11
 1.06434755161899E+0000
 21
 3.92837307044829E+0000
  0
LINE
  8
1
  6
CONTINUOUS
 62
     0
 10
 1.08873106924148E+0000
 20
 3.92464375701093E+0000
 11
 1.06735827795092E+0000
 21
 3.94601654829967E+0000
  0
LINE
  8
1
  6
CONTINUOUS
 62
     0
 10
 1.08328812839318E+0000
 20
 3.95074090204434E+0000
 11
 1.07036900428284E+0000
 21
 3.96366002615468E+0000
  0
LINE
  8
1
  6
CONTINUOUS
 62
     0
 10
 1.07784518754670E+0000
 20
 3.97683804707412E+0000
 11
 1.07337973061476E+0000
 21
 3.98130350400970E+0000
  0
LINE
  8
1
  6
CONTINUOUS
 62
     0
 10
 1.10641002391276E+0000
 20
 3.83987887399780E+0000
 11
 1.09786509216792E+0000
 21
 3.83133394225297E+0000
  0
LINE
  8
1
  6
CONTINUOUS
 62
     0
 10
 1.10284568321731E+0000
 20
 3.85696873748748E+0000
 11
 1.07721088798280E+0000
 21
 3.83133394225297E+0000
  0
LINE
  8
1
  6
CONTINUOUS
 62
     0
 10
 1.09928134252368E+0000
 20
 3.87405860097715E+0000
 11
 1.05655668379586E+0000
 21
 3.83133394225297E+0000
  0
LINE
  8
1
  6
CONTINUOUS
 62
     0
 10
 1.09571700182642E+0000
 20
 3.89114846446682E+0000
 11
 1.05023414779680E+0000
 21
 3.84566561043903E+0000
  0
LINE
  8
1
  6
CONTINUOUS
 62
     0
 10
 1.09215266113279E+0000
 20
 3.90823832796013E+0000
 11
 1.05448380353300E+0000
 21
 3.87056947036035E+0000
  0
LINE
  8
1
  6
CONTINUOUS
 62
     0
 10
 1.08858832043734E+0000
 20
 3.92532819144981E+0000
 11
 1.05873345926557E+0000
 21
 3.89547333027804E+0000
  0
LINE
  8
1
  6
CONTINUOUS
 62
     0
 10
 1.08502397974371E+0000
 20
 3.94241805493948E+0000
 11
 1.06298311500177E+0000
 21
 3.92037719019936E+0000
  0
LINE
  8
1
  6
CONTINUOUS
 62
     0
 10
 1.08145963904644E+0000
 20
 3.95950791842915E+0000
 11
 1.06723277073615E+0000
 21
 3.94528105012068E+0000
  0
LINE
  8
1
  6
CONTINUOUS
 62
     0
 10
 1.07789529835281E+0000
 20
 3.97659778192246E+0000
 11
 1.07148242647236E+0000
 21
 3.97018491003837E+0000
  0
LINE
  8
1
  6
CONTINUOUS
 62
     0
 10
 1.07087845668866E+0000
 20
 2.90303866482282E+0000
 11
 1.07087845668866E+0000
 21
 2.90303866482282E+0000
  0
LINE
  8
1
  6
CONTINUOUS
 62
     0
 10
 1.07087845668866E+0000
 20
 2.90303866482282E+0000
 11
 1.09805997805233E+0000
 21
 3.06232799145073E+0000
  0
LINE
  8
1
  6
CONTINUOUS
 62
     0
 10
 1.09805997805233E+0000
 20
 3.06232799145073E+0000
 11
 1.03765634058072E+0000
 21
 3.06232799145073E+0000
  0
LINE
  8
1
  6
CONTINUOUS
 62
     0
 10
 1.03765634058072E+0000
 20
 3.06232799145073E+0000
 11
 1.07087845668866E+0000
 21
 2.90303866482282E+0000
  0
LINE
  8
1
  6
CONTINUOUS
 62
     0
 10
 1.09805997805233E+0000
 20
 3.06232799145073E+0000
 11
 1.03765634058072E+0000
 21
 3.06232799145073E+0000
  0
LINE
  8
1
  6
CONTINUOUS
 62
     0
 10
 1.07238381985371E+0000
 20
 2.91186040375032E+0000
 11
 1.06815698626451E+0000
 21
 2.91608723733953E+0000
  0
LINE
  8
1
  6
CONTINUOUS
 62
     0
 10
 1.07539454618745E+0000
 20
 2.92950388160170E+0000
 11
 1.06271404541985E+0000
 21
 2.94218438236931E+0000
  0
LINE
  8
1
  6
CONTINUOUS
 62
     0
 10
 1.07840527251938E+0000
 20
 2.94714735945308E+0000
 11
 1.05727110457156E+0000
 21
 2.96828152740272E+0000
  0
LINE
  8
1
  6
CONTINUOUS
 62
     0
 10
 1.08141599885312E+0000
 20
 2.96479083730810E+0000
 11
 1.05182816372690E+0000
 21
 2.99437867243250E+0000
  0
LINE
  8
1
  6
CONTINUOUS
 62
     0
 10
 1.08442672518504E+0000
 20
 2.98243431515948E+0000
 11
 1.04638522288042E+0000
 21
 3.02047581746592E+0000
  0
LINE
  8
1
  6
CONTINUOUS
 62
     0
 10
 1.08743745151878E+0000
 20
 3.00007779301086E+0000
 11
 1.04094228203394E+0000
 21
 3.04657296249570E+0000
  0
LINE
  8
1
  6
CONTINUOUS
 62
     0
 10
 1.09044817785070E+0000
 20
 3.01772127086588E+0000
 11
 1.04584145726221E+0000
 21
 3.06232799145437E+0000
  0
LINE
  8
1
  6
CONTINUOUS
 62
     0
 10
 1.09345890418263E+0000
 20
 3.03536474871726E+0000
 11
 1.06649566144733E+0000
 21
 3.06232799145437E+0000
  0
LINE
  8
1
  6
CONTINUOUS
 62
     0
 10
 1.09646963051637E+0000
 20
 3.05300822656864E+0000
 11
 1.08714986563245E+0000
 21
 3.06232799145437E+0000
  0
LINE
  8
1
  6
CONTINUOUS
 62
     0
 10
 1.07300328455676E+0000
 20
 2.91549059478348E+0000
 11
 1.06909628634094E+0000
 21
 2.91158359656765E+0000
  0
LINE
  8
1
  6
CONTINUOUS
 62
     0
 10
 1.07725294029115E+0000
 20
 2.94039445470480E+0000
 11
 1.06553194564549E+0000
 21
 2.92867346005733E+0000
  0
LINE
  8
1
  6
CONTINUOUS
 62
     0
 10
 1.08150259602735E+0000
 20
 2.96529831462249E+0000
 11
 1.06196760495186E+0000
 21
 2.94576332354700E+0000
  0
LINE
  8
1
  6
CONTINUOUS
 62
     0
 10
 1.08575225176355E+0000
 20
 2.99020217454381E+0000
 11
 1.05840326425459E+0000
 21
 2.96285318703667E+0000
  0
LINE
  8
1
  6
CONTINUOUS
 62
     0
 10
 1.09000190749794E+0000
 20
 3.01510603446513E+0000
 11
 1.05483892356096E+0000
 21
 2.97994305052998E+0000
  0
LINE
  8
1
  6
CONTINUOUS
 62
     0
 10
 1.09425156323414E+0000
 20
 3.04000989438646E+0000
 11
 1.05127458286552E+0000
 21
 2.99703291401966E+0000
  0
LINE
  8
1
  6
CONTINUOUS
 62
     0
 10
 1.09591545611147E+0000
 20
 3.06232799145073E+0000
 11
 1.04771024217189E+0000
 21
 3.01412277750933E+0000
  0
LINE
  8
1
  6
CONTINUOUS
 62
     0
 10
 1.07526125192635E+0000
 20
 3.06232799145073E+0000
 11
 1.04414590147826E+0000
 21
 3.03121264100264E+0000
  0
LINE
  8
1
  6
CONTINUOUS
 62
     0
 10
 1.05460704774123E+0000
 20
 3.06232799145073E+0000
 11
 1.04058156078099E+0000
 21
 3.04830250449231E+0000
  0
LINE
  8
1
  6
CONTINUOUS
 62
     0
 10
 1.07497007815255E+0000
 20
 2.87058893075664E+0000
 11
 1.07497007815255E+0000
 21
 2.87058893075664E+0000
  0
LINE
  8
1
  6
CONTINUOUS
 62
     0
 10
 1.07497007815255E+0000
 20
 2.87058893075664E+0000
 11
 1.04778855678887E+0000
 21
 2.71129960412873E+0000
  0
LINE
  8
1
  6
CONTINUOUS
 62
     0
 10
 1.04778855678887E+0000
 20
 2.71129960412873E+0000
 11
 1.10819219426048E+0000
 21
 2.71129960412873E+0000
  0
LINE
  8
1
  6
CONTINUOUS
 62
     0
 10
 1.10819219426048E+0000
 20
 2.71129960412873E+0000
 11
 1.07497007815255E+0000
 21
 2.87058893075664E+0000
  0
LINE
  8
1
  6
CONTINUOUS
 62
     0
 10
 1.04778855678887E+0000
 20
 2.71129960412873E+0000
 11
 1.10819219426048E+0000
 21
 2.71129960412873E+0000
  0
LINE
  8
1
  6
CONTINUOUS
 62
     0
 10
 1.05811565888143E+0000
 20
 2.71129960412873E+0000
 11
 1.04929391995393E+0000
 21
 2.72012134305623E+0000
  0
LINE
  8
1
  6
CONTINUOUS
 62
     0
 10
 1.07876986306474E+0000
 20
 2.71129960412873E+0000
 11
 1.05230464628767E+0000
 21
 2.73776482090761E+0000
  0
LINE
  8
1
  6
CONTINUOUS
 62
     0
 10
 1.09942406725168E+0000
 20
 2.71129960412873E+0000
 11
 1.05531537262141E+0000
 21
 2.75540829875899E+0000
  0
LINE
  8
1
  6
CONTINUOUS
 62
     0
 10
 1.10505989178091E+0000
 20
 2.72631798378643E+0000
 11
 1.05832609895333E+0000
 21
 2.77305177661037E+0000
  0
LINE
  8
1
  6
CONTINUOUS
 62
     0
 10
 1.09961695093443E+0000
 20
 2.75241512881621E+0000
 11
 1.06133682528525E+0000
 21
 2.79069525446539E+0000
  0
LINE
  8
1
  6
CONTINUOUS
 62
     0
 10
 1.09417401008795E+0000
 20
 2.77851227384599E+0000
 11
 1.06434755161899E+0000
 21
 2.80833873231677E+0000
  0
LINE
  8
1
  6
CONTINUOUS
 62
     0
 10
 1.08873106924329E+0000
 20
 2.80460941887941E+0000
 11
 1.06735827795274E+0000
 21
 2.82598221016815E+0000
  0
LINE
  8
1
  6
CONTINUOUS
 62
     0
 10
 1.08328812839682E+0000
 20
 2.83070656390919E+0000
 11
 1.07036900428284E+0000
 21
 2.84362568802317E+0000
  0
LINE
  8
1
  6
CONTINUOUS
 62
     0
 10
 1.07784518755034E+0000
 20
 2.85680370894261E+0000
 11
 1.07337973061658E+0000
 21
 2.86126916587455E+0000
  0
LINE
  8
1
  6
CONTINUOUS
 62
     0
 10
 1.10641002391458E+0000
 20
 2.71984453587356E+0000
 11
 1.09786509216792E+0000
 21
 2.71129960412509E+0000
  0
LINE
  8
1
  6
CONTINUOUS
 62
     0
 10
 1.10284568321731E+0000
 20
 2.73693439936324E+0000
 11
 1.07721088798280E+0000
 21
 2.71129960412509E+0000
  0
LINE
  8
1
  6
CONTINUOUS
 62
     0
 10
 1.09928134252368E+0000
 20
 2.75402426285291E+0000
 11
 1.05655668379768E+0000
 21
 2.71129960412509E+0000
  0
LINE
  8
1
  6
CONTINUOUS
 62
     0
 10
 1.09571700182823E+0000
 20
 2.77111412634258E+0000
 11
 1.05023414779680E+0000
 21
 2.72563127231115E+0000
  0
LINE
  8
1
  6
CONTINUOUS
 62
     0
 10
 1.09215266113461E+0000
 20
 2.78820398983589E+0000
 11
 1.05448380353300E+0000
 21
 2.75053513223247E+0000
  0
LINE
  8
1
  6
CONTINUOUS
 62
     0
 10
 1.08858832043734E+0000
 20
 2.80529385332193E+0000
 11
 1.05873345926557E+0000
 21
 2.77543899215016E+0000
  0
LINE
  8
1
  6
CONTINUOUS
 62
     0
 10
 1.08502397974371E+0000
 20
 2.82238371681524E+0000
 11
 1.06298311500177E+0000
 21
 2.80034285207148E+0000
  0
LINE
  8
1
  6
CONTINUOUS
 62
     0
 10
 1.08145963904826E+0000
 20
 2.83947358030491E+0000
 11
 1.06723277073797E+0000
 21
 2.82524671199280E+0000
  0
LINE
  8
1
  6
CONTINUOUS
 62
     0
 10
 1.07789529835463E+0000
 20
 2.85656344379458E+0000
 11
 1.07148242647236E+0000
 21
 2.85015057191413E+0000
  0
LINE
  8
1
  6
CONTINUOUS
 62
     0
 10
 1.07087845668866E+0000
 20
 2.10883249778271E+0000
 11
 1.07087845668866E+0000
 21
 2.10883249778271E+0000
  0
LINE
  8
1
  6
CONTINUOUS
 62
     0
 10
 1.07087845668866E+0000
 20
 2.10883249778271E+0000
 11
 1.09805997805233E+0000
 21
 2.26812182441063E+0000
  0
LINE
  8
1
  6
CONTINUOUS
 62
     0
 10
 1.09805997805233E+0000
 20
 2.26812182441063E+0000
 11
 1.03765634058072E+0000
 21
 2.26812182441063E+0000
  0
LINE
  8
1
  6
CONTINUOUS
 62
     0
 10
 1.03765634058072E+0000
 20
 2.26812182441063E+0000
 11
 1.07087845668866E+0000
 21
 2.10883249778271E+0000
  0
LINE
  8
1
  6
CONTINUOUS
 62
     0
 10
 1.09805997805233E+0000
 20
 2.26812182441063E+0000
 11
 1.03765634058072E+0000
 21
 2.26812182441063E+0000
  0
LINE
  8
1
  6
CONTINUOUS
 62
     0
 10
 1.07238381985735E+0000
 20
 2.11765423671022E+0000
 11
 1.06815698626633E+0000
 21
 2.12188107029942E+0000
  0
LINE
  8
1
  6
CONTINUOUS
 62
     0
 10
 1.07539454618927E+0000
 20
 2.13529771456160E+0000
 11
 1.06271404541985E+0000
 21
 2.14797821533284E+0000
  0
LINE
  8
1
  6
CONTINUOUS
 62
     0
 10
 1.07840527252120E+0000
 20
 2.15294119241662E+0000
 11
 1.05727110457337E+0000
 21
 2.17407536036626E+0000
  0
LINE
  8
1
  6
CONTINUOUS
 62
     0
 10
 1.08141599885312E+0000
 20
 2.17058467026800E+0000
 11
 1.05182816372690E+0000
 21
 2.20017250539604E+0000
  0
LINE
  8
1
  6
CONTINUOUS
 62
     0
 10
 1.08442672518686E+0000
 20
 2.18822814812302E+0000
 11
 1.04638522287860E+0000
 21
 2.22626965042946E+0000
  0
LINE
  8
1
  6
CONTINUOUS
 62
     0
 10
 1.08743745151878E+0000
 20
 2.20587162597440E+0000
 11
 1.04094228203212E+0000
 21
 2.25236679545924E+0000
  0
LINE
  8
1
  6
CONTINUOUS
 62
     0
 10
 1.09044817785070E+0000
 20
 2.22351510382578E+0000
 11
 1.04584145726767E+0000
 21
 2.26812182441063E+0000
  0
LINE
  8
1
  6
CONTINUOUS
 62
     0
 10
 1.09345890418444E+0000
 20
 2.24115858168079E+0000
 11
 1.06649566145279E+0000
 21
 2.26812182441063E+0000
  0
LINE
  8
1
  6
CONTINUOUS
 62
     0
 10
 1.09646963051637E+0000
 20
 2.25880205953217E+0000
 11
 1.08714986563791E+0000
 21
 2.26812182441063E+0000
  0
LINE
  8
1
  6
CONTINUOUS
 62
     0
 10
 1.07300328455494E+0000
 20
 2.12128442773974E+0000
 11
 1.06909628634094E+0000
 21
 2.11737742952755E+0000
  0
LINE
  8
1
  6
CONTINUOUS
 62
     0
 10
 1.07725294029115E+0000
 20
 2.14618828766106E+0000
 11
 1.06553194564367E+0000
 21
 2.13446729301359E+0000
  0
LINE
  8
1
  6
CONTINUOUS
 62
     0
 10
 1.08150259602371E+0000
 20
 2.17109214757875E+0000
 11
 1.06196760495004E+0000
 21
 2.15155715650690E+0000
  0
LINE
  8
1
  6
CONTINUOUS
 62
     0
 10
 1.08575225175991E+0000
 20
 2.19599600750007E+0000
 11
 1.05840326425459E+0000
 21
 2.16864701999657E+0000
  0
LINE
  8
1
  6
CONTINUOUS
 62
     0
 10
 1.09000190749612E+0000
 20
 2.22089986742139E+0000
 11
 1.05483892356096E+0000
 21
 2.18573688348624E+0000
  0
LINE
  8
1
  6
CONTINUOUS
 62
     0
 10
 1.09425156323050E+0000
 20
 2.24580372734272E+0000
 11
 1.05127458286552E+0000
 21
 2.20282674697592E+0000
  0
LINE
  8
1
  6
CONTINUOUS
 62
     0
 10
 1.09591545611147E+0000
 20
 2.26812182440699E+0000
 11
 1.04771024217189E+0000
 21
 2.21991661046923E+0000
  0
LINE
  8
1
  6
CONTINUOUS
 62
     0
 10
 1.07526125192453E+0000
 20
 2.26812182440699E+0000
 11
 1.04414590147462E+0000
 21
 2.23700647395890E+0000
  0
LINE
  8
1
  6
CONTINUOUS
 62
     0
 10
 1.05460704773941E+0000
 20
 2.26812182440699E+0000
 11
 1.04058156078099E+0000
 21
 2.25409633744857E+0000
  0
LINE
  8
1
  6
CONTINUOUS
 62
     0
 10
 1.33496178809219E+0000
 20
 2.10883249778271E+0000
 11
 1.33496178809219E+0000
 21
 2.10883249778271E+0000
  0
LINE
  8
1
  6
CONTINUOUS
 62
     0
 10
 1.33496178809219E+0000
 20
 2.10883249778271E+0000
 11
 1.36214330945586E+0000
 21
 2.26812182441063E+0000
  0
LINE
  8
1
  6
CONTINUOUS
 62
     0
 10
 1.36214330945586E+0000
 20
 2.26812182441063E+0000
 11
 1.30173967198425E+0000
 21
 2.26812182441063E+0000
  0
LINE
  8
1
  6
CONTINUOUS
 62
     0
 10
 1.30173967198425E+0000
 20
 2.26812182441063E+0000
 11
 1.33496178809219E+0000
 21
 2.10883249778271E+0000
  0
LINE
  8
1
  6
CONTINUOUS
 62
     0
 10
 1.36214330945586E+0000
 20
 2.26812182441063E+0000
 11
 1.30173967198425E+0000
 21
 2.26812182441063E+0000
  0
LINE
  8
1
  6
CONTINUOUS
 62
     0
 10
 1.33646715125906E+0000
 20
 2.11765423671022E+0000
 11
 1.33224031766804E+0000
 21
 2.12188107029942E+0000
  0
LINE
  8
1
  6
CONTINUOUS
 62
     0
 10
 1.33947787759098E+0000
 20
 2.13529771456160E+0000
 11
 1.32679737682156E+0000
 21
 2.14797821532920E+0000
  0
LINE
  8
1
  6
CONTINUOUS
 62
     0
 10
 1.34248860392472E+0000
 20
 2.15294119241298E+0000
 11
 1.32135443597508E+0000
 21
 2.17407536036262E+0000
  0
LINE
  8
1
  6
CONTINUOUS
 62
     0
 10
 1.34549933025664E+0000
 20
 2.17058467026800E+0000
 11
 1.31591149512860E+0000
 21
 2.20017250539604E+0000
  0
LINE
  8
1
  6
CONTINUOUS
 62
     0
 10
 1.34851005658857E+0000
 20
 2.18822814811938E+0000
 11
 1.31046855428212E+0000
 21
 2.22626965042946E+0000
  0
LINE
  8
1
  6
CONTINUOUS
 62
     0
 10
 1.35152078292049E+0000
 20
 2.20587162597440E+0000
 11
 1.30502561343565E+0000
 21
 2.25236679545924E+0000
  0
LINE
  8
1
  6
CONTINUOUS
 62
     0
 10
 1.35453150925423E+0000
 20
 2.22351510382578E+0000
 11
 1.30992478866938E+0000
 21
 2.26812182441063E+0000
  0
LINE
  8
1
  6
CONTINUOUS
 62
     0
 10
 1.35754223558615E+0000
 20
 2.24115858168079E+0000
 11
 1.33057899285450E+0000
 21
 2.26812182441063E+0000
  0
LINE
  8
1
  6
CONTINUOUS
 62
     0
 10
 1.36055296191989E+0000
 20
 2.25880205953217E+0000
 11
 1.35123319703962E+0000
 21
 2.26812182441063E+0000
  0
LINE
  8
1
  6
CONTINUOUS
 62
     0
 10
 1.33708661596029E+0000
 20
 2.12128442774338E+0000
 11
 1.33317961774446E+0000
 21
 2.11737742952755E+0000
  0
LINE
  8
1
  6
CONTINUOUS
 62
     0
 10
 1.34133627169467E+0000
 20
 2.14618828766470E+0000
 11
 1.32961527704902E+0000
 21
 2.13446729301722E+0000
  0
LINE
  8
1
  6
CONTINUOUS
 62
     0
 10
 1.34558592743088E+0000
 20
 2.17109214758239E+0000
 11
 1.32605093635539E+0000
 21
 2.15155715650690E+0000
  0
LINE
  8
1
  6
CONTINUOUS
 62
     0
 10
 1.34983558316344E+0000
 20
 2.19599600750371E+0000
 11
 1.32248659565812E+0000
 21
 2.16864701999657E+0000
  0
LINE
  8
1
  6
CONTINUOUS
 62
     0
 10
 1.35408523889964E+0000
 20
 2.22089986742503E+0000
 11
 1.31892225496449E+0000
 21
 2.18573688348988E+0000
  0
LINE
  8
1
  6
CONTINUOUS
 62
     0
 10
 1.35833489463403E+0000
 20
 2.24580372734272E+0000
 11
 1.31535791426904E+0000
 21
 2.20282674697955E+0000
  0
LINE
  8
1
  6
CONTINUOUS
 62
     0
 10
 1.35999878751500E+0000
 20
 2.26812182441063E+0000
 11
 1.31179357357541E+0000
 21
 2.21991661046923E+0000
  0
LINE
  8
1
  6
CONTINUOUS
 62
     0
 10
 1.33934458332988E+0000
 20
 2.26812182441063E+0000
 11
 1.30822923287815E+0000
 21
 2.23700647395890E+0000
  0
LINE
  8
1
  6
CONTINUOUS
 62
     0
 10
 1.31869037914475E+0000
 20
 2.26812182441063E+0000
 11
 1.30466489218452E+0000
 21
 2.25409633745221E+0000
  0
LINE
  8
1
  6
CONTINUOUS
 62
     0
 10
 1.33905340955607E+0000
 20
 2.53457862931100E+0000
 11
 1.33905340955607E+0000
 21
 2.53457862931100E+0000
  0
LINE
  8
1
  6
CONTINUOUS
 62
     0
 10
 1.33905340955607E+0000
 20
 2.53457862931100E+0000
 11
 1.31187188819240E+0000
 21
 2.37528930268309E+0000
  0
LINE
  8
1
  6
CONTINUOUS
 62
     0
 10
 1.31187188819240E+0000
 20
 2.37528930268309E+0000
 11
 1.37227552566401E+0000
 21
 2.37528930268309E+0000
  0
LINE
  8
1
  6
CONTINUOUS
 62
     0
 10
 1.37227552566401E+0000
 20
 2.37528930268309E+0000
 11
 1.33905340955607E+0000
 21
 2.53457862931100E+0000
  0
LINE
  8
1
  6
CONTINUOUS
 62
     0
 10
 1.31187188819240E+0000
 20
 2.37528930268309E+0000
 11
 1.37227552566401E+0000
 21
 2.37528930268309E+0000
  0
LINE
  8
1
  6
CONTINUOUS
 62
     0
 10
 1.32219899028678E+0000
 20
 2.37528930268309E+0000
 11
 1.31337725135927E+0000
 21
 2.38411104161059E+0000
  0
LINE
  8
1
  6
CONTINUOUS
 62
     0
 10
 1.34285319447190E+0000
 20
 2.37528930268309E+0000
 11
 1.31638797769301E+0000
 21
 2.40175451946197E+0000
  0
LINE
  8
1
  6
CONTINUOUS
 62
     0
 10
 1.36350739865702E+0000
 20
 2.37528930268309E+0000
 11
 1.31939870402493E+0000
 21
 2.41939799731699E+0000
  0
LINE
  8
1
  6
CONTINUOUS
 62
     0
 10
 1.36914322318626E+0000
 20
 2.39030768234079E+0000
 11
 1.32240943035686E+0000
 21
 2.43704147516837E+0000
  0
LINE
  8
1
  6
CONTINUOUS
 62
     0
 10
 1.36370028233978E+0000
 20
 2.41640482737057E+0000
 11
 1.32542015669060E+0000
 21
 2.45468495302339E+0000
  0
LINE
  8
1
  6
CONTINUOUS
 62
     0
 10
 1.35825734149330E+0000
 20
 2.44250197240399E+0000
 11
 1.32843088302252E+0000
 21
 2.47232843087477E+0000
  0
LINE
  8
1
  6
CONTINUOUS
 62
     0
 10
 1.35281440064682E+0000
 20
 2.46859911743741E+0000
 11
 1.33144160935626E+0000
 21
 2.48997190872615E+0000
  0
LINE
  8
1
  6
CONTINUOUS
 62
     0
 10
 1.34737145979852E+0000
 20
 2.49469626247082E+0000
 11
 1.33445233568818E+0000
 21
 2.50761538658116E+0000
  0
LINE
  8
1
  6
CONTINUOUS
 62
     0
 10
 1.34192851895205E+0000
 20
 2.52079340750061E+0000
 11
 1.33746306202011E+0000
 21
 2.52525886443254E+0000
  0
LINE
  8
1
  6
CONTINUOUS
 62
     0
 10
 1.37049335531628E+0000
 20
 2.38383423442792E+0000
 11
 1.36194842356963E+0000
 21
 2.37528930267945E+0000
  0
LINE
  8
1
  6
CONTINUOUS
 62
     0
 10
 1.36692901461902E+0000
 20
 2.40092409791760E+0000
 11
 1.34129421938451E+0000
 21
 2.37528930267945E+0000
  0
LINE
  8
1
  6
CONTINUOUS
 62
     0
 10
 1.36336467392539E+0000
 20
 2.41801396140727E+0000
 11
 1.32064001519939E+0000
 21
 2.37528930267945E+0000
  0
LINE
  8
1
  6
CONTINUOUS
 62
     0
 10
 1.35980033322994E+0000
 20
 2.43510382489694E+0000
 11
 1.31431747920033E+0000
 21
 2.38962097086551E+0000
  0
LINE
  8
1
  6
CONTINUOUS
 62
     0
 10
 1.35623599253631E+0000
 20
 2.45219368838661E+0000
 11
 1.31856713493471E+0000
 21
 2.41452483078683E+0000
  0
LINE
  8
1
  6
CONTINUOUS
 62
     0
 10
 1.35267165183905E+0000
 20
 2.46928355187629E+0000
 11
 1.32281679067091E+0000
 21
 2.43942869070816E+0000
  0
LINE
  8
1
  6
CONTINUOUS
 62
     0
 10
 1.34910731114542E+0000
 20
 2.48637341536960E+0000
 11
 1.32706644640712E+0000
 21
 2.46433255062948E+0000
  0
LINE
  8
1
  6
CONTINUOUS
 62
     0
 10
 1.34554297044997E+0000
 20
 2.50346327885927E+0000
 11
 1.33131610213968E+0000
 21
 2.48923641054716E+0000
  0
LINE
  8
1
  6
CONTINUOUS
 62
     0
 10
 1.34197862975634E+0000
 20
 2.52055314234894E+0000
 11
 1.33556575787406E+0000
 21
 2.51414027046849E+0000
  0
LINE
  8
1
  6
CONTINUOUS
 62
     0
 10
 2.88899062289056E+0000
 20
 5.19401799281331E+0000
 11
 2.88899062289056E+0000
 21
 5.19401799281331E+0000
  0
LINE
  8
1
  6
CONTINUOUS
 62
     0
 10
 2.88899062289056E+0000
 20
 5.19401799281331E+0000
 11
 2.91617214425423E+0000
 21
 5.35330731944123E+0000
  0
LINE
  8
1
  6
CONTINUOUS
 62
     0
 10
 2.91617214425423E+0000
 20
 5.35330731944123E+0000
 11
 2.85576850678262E+0000
 21
 5.35330731944123E+0000
  0
LINE
  8
1
  6
CONTINUOUS
 62
     0
 10
 2.85576850678262E+0000
 20
 5.35330731944123E+0000
 11
 2.88899062289056E+0000
 21
 5.19401799281331E+0000
  0
LINE
  8
1
  6
CONTINUOUS
 62
     0
 10
 2.91617214425423E+0000
 20
 5.35330731944123E+0000
 11
 2.85576850678262E+0000
 21
 5.35330731944123E+0000
  0
LINE
  8
1
  6
CONTINUOUS
 62
     0
 10
 2.89049598605925E+0000
 20
 5.20283973174082E+0000
 11
 2.88626915247005E+0000
 21
 5.20706656533002E+0000
  0
LINE
  8
1
  6
CONTINUOUS
 62
     0
 10
 2.89350671239299E+0000
 20
 5.22048320959584E+0000
 11
 2.88082621162175E+0000
 21
 5.23316371036344E+0000
  0
LINE
  8
1
  6
CONTINUOUS
 62
     0
 10
 2.89651743872309E+0000
 20
 5.23812668745086E+0000
 11
 2.87538327077709E+0000
 21
 5.25926085539686E+0000
  0
LINE
  8
1
  6
CONTINUOUS
 62
     0
 10
 2.89952816505684E+0000
 20
 5.25577016530588E+0000
 11
 2.86994032992880E+0000
 21
 5.28535800043028E+0000
  0
LINE
  8
1
  6
CONTINUOUS
 62
     0
 10
 2.90253889139058E+0000
 20
 5.27341364315362E+0000
 11
 2.86449738908050E+0000
 21
 5.31145514546370E+0000
  0
LINE
  8
1
  6
CONTINUOUS
 62
     0
 10
 2.90554961772068E+0000
 20
 5.29105712100863E+0000
 11
 2.85905444823584E+0000
 21
 5.33755229049711E+0000
  0
LINE
  8
1
  6
CONTINUOUS
 62
     0
 10
 2.90856034405442E+0000
 20
 5.30870059886365E+0000
 11
 2.86395362346957E+0000
 21
 5.35330731944123E+0000
  0
LINE
  8
1
  6
CONTINUOUS
 62
     0
 10
 2.91157107038453E+0000
 20
 5.32634407671139E+0000
 11
 2.88460782765833E+0000
 21
 5.35330731944123E+0000
  0
LINE
  8
1
  6
CONTINUOUS
 62
     0
 10
 2.91458179671827E+0000
 20
 5.34398755456641E+0000
 11
 2.90526203184345E+0000
 21
 5.35330731944123E+0000
  0
LINE
  8
1
  6
CONTINUOUS
 62
     0
 10
 2.89111545075502E+0000
 20
 5.20646992277034E+0000
 11
 2.88720845253920E+0000
 21
 5.20256292455451E+0000
  0
LINE
  8
1
  6
CONTINUOUS
 62
     0
 10
 2.89536510649123E+0000
 20
 5.23137378269166E+0000
 11
 2.88364411184739E+0000
 21
 5.21965278804419E+0000
  0
LINE
  8
1
  6
CONTINUOUS
 62
     0
 10
 2.89961476222743E+0000
 20
 5.25627764261299E+0000
 11
 2.88007977114830E+0000
 21
 5.23674265153386E+0000
  0
LINE
  8
1
  6
CONTINUOUS
 62
     0
 10
 2.90386441796363E+0000
 20
 5.28118150253431E+0000
 11
 2.87651543045286E+0000
 21
 5.25383251502353E+0000
  0
LINE
  8
1
  6
CONTINUOUS
 62
     0
 10
 2.90811407369620E+0000
 20
 5.30608536245563E+0000
 11
 2.87295108976105E+0000
 21
 5.27092237851321E+0000
  0
LINE
  8
1
  6
CONTINUOUS
 62
     0
 10
 2.91236372943240E+0000
 20
 5.33098922237696E+0000
 11
 2.86938674906560E+0000
 21
 5.28801224201015E+0000
  0
LINE
  8
1
  6
CONTINUOUS
 62
     0
 10
 2.91402762231155E+0000
 20
 5.35330731943395E+0000
 11
 2.86582240836651E+0000
 21
 5.30510210549255E+0000
  0
LINE
  8
1
  6
CONTINUOUS
 62
     0
 10
 2.89337341812643E+0000
 20
 5.35330731943395E+0000
 11
 2.86225806767470E+0000
 21
 5.32219196898950E+0000
  0
LINE
  8
1
  6
CONTINUOUS
 62
     0
 10
 2.87271921394131E+0000
 20
 5.35330731943395E+0000
 11
 2.85869372697925E+0000
 21
 5.33928183247917E+0000
  0
LINE
  8
1
  6
CONTINUOUS
 62
     0
 10
 2.89308224435445E+0000
 20
 4.99865417320689E+0000
 11
 2.89308224435445E+0000
 21
 4.99865417320689E+0000
  0
LINE
  8
1
  6
CONTINUOUS
 62
     0
 10
 2.89308224435445E+0000
 20
 4.99865417320689E+0000
 11
 2.86590072299077E+0000
 21
 4.83936484657897E+0000
  0
LINE
  8
1
  6
CONTINUOUS
 62
     0
 10
 2.86590072299077E+0000
 20
 4.83936484657897E+0000
 11
 2.92630436046238E+0000
 21
 4.83936484657897E+0000
  0
LINE
  8
1
  6
CONTINUOUS
 62
     0
 10
 2.92630436046238E+0000
 20
 4.83936484657897E+0000
 11
 2.89308224435445E+0000
 21
 4.99865417320689E+0000
  0
LINE
  8
1
  6
CONTINUOUS
 62
     0
 10
 2.86590072299077E+0000
 20
 4.83936484657897E+0000
 11
 2.92630436046238E+0000
 21
 4.83936484657897E+0000
  0
LINE
  8
1
  6
CONTINUOUS
 62
     0
 10
 2.87622782508697E+0000
 20
 4.83936484658625E+0000
 11
 2.86740608615946E+0000
 21
 4.84818658550648E+0000
  0
LINE
  8
1
  6
CONTINUOUS
 62
     0
 10
 2.89688202927209E+0000
 20
 4.83936484657897E+0000
 11
 2.87041681249320E+0000
 21
 4.86583006336150E+0000
  0
LINE
  8
1
  6
CONTINUOUS
 62
     0
 10
 2.91753623346085E+0000
 20
 4.83936484657897E+0000
 11
 2.87342753882331E+0000
 21
 4.88347354121652E+0000
  0
LINE
  8
1
  6
CONTINUOUS
 62
     0
 10
 2.92317205798463E+0000
 20
 4.85438322624395E+0000
 11
 2.87643826515705E+0000
 21
 4.90111701907153E+0000
  0
LINE
  8
1
  6
CONTINUOUS
 62
     0
 10
 2.91772911713633E+0000
 20
 4.88048037127737E+0000
 11
 2.87944899149079E+0000
 21
 4.91876049691928E+0000
  0
LINE
  8
1
  6
CONTINUOUS
 62
     0
 10
 2.91228617628803E+0000
 20
 4.90657751631079E+0000
 11
 2.88245971782089E+0000
 21
 4.93640397477429E+0000
  0
LINE
  8
1
  6
CONTINUOUS
 62
     0
 10
 2.90684323544338E+0000
 20
 4.93267466133693E+0000
 11
 2.88547044415463E+0000
 21
 4.95404745262931E+0000
  0
LINE
  8
1
  6
CONTINUOUS
 62
     0
 10
 2.90140029459508E+0000
 20
 4.95877180637035E+0000
 11
 2.88848117048474E+0000
 21
 4.97169093048433E+0000
  0
LINE
  8
1
  6
CONTINUOUS
 62
     0
 10
 2.89595735374678E+0000
 20
 4.98486895140377E+0000
 11
 2.89149189681848E+0000
 21
 4.98933440833207E+0000
  0
LINE
  8
1
  6
CONTINUOUS
 62
     0
 10
 2.92452219011102E+0000
 20
 4.84790977832017E+0000
 11
 2.91597725836618E+0000
 21
 4.83936484657170E+0000
  0
LINE
  8
1
  6
CONTINUOUS
 62
     0
 10
 2.92095784941557E+0000
 20
 4.86499964180985E+0000
 11
 2.89532305417742E+0000
 21
 4.83936484657170E+0000
  0
LINE
  8
1
  6
CONTINUOUS
 62
     0
 10
 2.91739350872376E+0000
 20
 4.88208950529952E+0000
 11
 2.87466884999230E+0000
 21
 4.83936484657170E+0000
  0
LINE
  8
1
  6
CONTINUOUS
 62
     0
 10
 2.91382916802831E+0000
 20
 4.89917936879647E+0000
 11
 2.86834631399688E+0000
 21
 4.85369651475776E+0000
  0
LINE
  8
1
  6
CONTINUOUS
 62
     0
 10
 2.91026482732923E+0000
 20
 4.91626923227886E+0000
 11
 2.87259596973308E+0000
 21
 4.87860037467908E+0000
  0
LINE
  8
1
  6
CONTINUOUS
 62
     0
 10
 2.90670048663742E+0000
 20
 4.93335909576854E+0000
 11
 2.87684562546929E+0000
 21
 4.90350423460040E+0000
  0
LINE
  8
1
  6
CONTINUOUS
 62
     0
 10
 2.90313614594197E+0000
 20
 4.95044895926549E+0000
 11
 2.88109528120185E+0000
 21
 4.92840809452173E+0000
  0
LINE
  8
1
  6
CONTINUOUS
 62
     0
 10
 2.89957180525016E+0000
 20
 4.96753882275516E+0000
 11
 2.88534493693805E+0000
 21
 4.95331195444305E+0000
  0
LINE
  8
1
  6
CONTINUOUS
 62
     0
 10
 2.89600746455471E+0000
 20
 4.98462868624483E+0000
 11
 2.88959459267426E+0000
 21
 4.97821581436438E+0000
  0
LINE
  8
1
  6
CONTINUOUS
 62
     0
 10
 3.22826493421235E+0000
 20
 2.09674702441043E+0000
 11
 3.22826493421235E+0000
 21
 2.09674702441043E+0000
  0
LINE
  8
1
  6
CONTINUOUS
 62
     0
 10
 3.22826493421235E+0000
 20
 2.09674702441043E+0000
 11
 3.20108341284867E+0000
 21
 1.93745769778252E+0000
  0
LINE
  8
1
  6
CONTINUOUS
 62
     0
 10
 3.20108341284867E+0000
 20
 1.93745769778252E+0000
 11
 3.26148705032028E+0000
 21
 1.93745769778252E+0000
  0
LINE
  8
1
  6
CONTINUOUS
 62
     0
 10
 3.26148705032028E+0000
 20
 1.93745769778252E+0000
 11
 3.22826493421235E+0000
 21
 2.09674702441043E+0000
  0
LINE
  8
1
  6
CONTINUOUS
 62
     0
 10
 3.20108341284867E+0000
 20
 1.93745769778252E+0000
 11
 3.26148705032028E+0000
 21
 1.93745769778252E+0000
  0
LINE
  8
1
  6
CONTINUOUS
 62
     0
 10
 3.21141051494124E+0000
 20
 1.93745769778434E+0000
 11
 3.20258877601736E+0000
 21
 1.94627943671003E+0000
  0
LINE
  8
1
  6
CONTINUOUS
 62
     0
 10
 3.23206471912636E+0000
 20
 1.93745769778434E+0000
 11
 3.20559950234747E+0000
 21
 1.96392291456323E+0000
  0
LINE
  8
1
  6
CONTINUOUS
 62
     0
 10
 3.25271892331511E+0000
 20
 1.93745769778434E+0000
 11
 3.20861022868121E+0000
 21
 1.98156639241643E+0000
  0
LINE
  8
1
  6
CONTINUOUS
 62
     0
 10
 3.25835474784253E+0000
 20
 1.95247607744022E+0000
 11
 3.21162095501495E+0000
 21
 1.99920987026962E+0000
  0
LINE
  8
1
  6
CONTINUOUS
 62
     0
 10
 3.25291180699787E+0000
 20
 1.97857322247182E+0000
 11
 3.21463168134869E+0000
 21
 2.01685334812282E+0000
  0
LINE
  8
1
  6
CONTINUOUS
 62
     0
 10
 3.24746886614957E+0000
 20
 2.00467036750342E+0000
 11
 3.21764240767880E+0000
 21
 2.03449682597420E+0000
  0
LINE
  8
1
  6
CONTINUOUS
 62
     0
 10
 3.24202592530128E+0000
 20
 2.03076751253684E+0000
 11
 3.22065313401254E+0000
 21
 2.05214030382558E+0000
  0
LINE
  8
1
  6
CONTINUOUS
 62
     0
 10
 3.23658298445662E+0000
 20
 2.05686465757026E+0000
 11
 3.22366386034264E+0000
 21
 2.06978378168060E+0000
  0
LINE
  8
1
  6
CONTINUOUS
 62
     0
 10
 3.23114004360832E+0000
 20
 2.08296180260004E+0000
 11
 3.22667458667638E+0000
 21
 2.08742725953198E+0000
  0
LINE
  8
1
  6
CONTINUOUS
 62
     0
 10
 3.25970487996892E+0000
 20
 1.94600262952554E+0000
 11
 3.25115994822409E+0000
 21
 1.93745769778070E+0000
  0
LINE
  8
1
  6
CONTINUOUS
 62
     0
 10
 3.25614053927347E+0000
 20
 1.96309249301521E+0000
 11
 3.23050574403896E+0000
 21
 1.93745769778070E+0000
  0
LINE
  8
1
  6
CONTINUOUS
 62
     0
 10
 3.25257619858166E+0000
 20
 1.98018235650670E+0000
 11
 3.20985153985384E+0000
 21
 1.93745769778070E+0000
  0
LINE
  8
1
  6
CONTINUOUS
 62
     0
 10
 3.24901185788258E+0000
 20
 1.99727221999638E+0000
 11
 3.20352900385478E+0000
 21
 1.95178936596494E+0000
  0
LINE
  8
1
  6
CONTINUOUS
 62
     0
 10
 3.24544751719077E+0000
 20
 2.01436208348605E+0000
 11
 3.20777865959099E+0000
 21
 1.97669322588627E+0000
  0
LINE
  8
1
  6
CONTINUOUS
 62
     0
 10
 3.24188317649532E+0000
 20
 2.03145194697572E+0000
 11
 3.21202831532355E+0000
 21
 2.00159708580395E+0000
  0
LINE
  8
1
  6
CONTINUOUS
 62
     0
 10
 3.23831883579987E+0000
 20
 2.04854181046903E+0000
 11
 3.21627797105975E+0000
 21
 2.02650094572527E+0000
  0
LINE
  8
1
  6
CONTINUOUS
 62
     0
 10
 3.23475449510443E+0000
 20
 2.06563167395871E+0000
 11
 3.22052762679232E+0000
 21
 2.05140480564660E+0000
  0
LINE
  8
1
  6
CONTINUOUS
 62
     0
 10
 3.23119015440898E+0000
 20
 2.08272153744838E+0000
 11
 3.22477728252852E+0000
 21
 2.07630866556792E+0000
  0
LINE
  8
1
  6
CONTINUOUS
 62
     0
 10
 3.22417331274846E+0000
 20
 2.34302149575524E+0000
 11
 3.22417331274846E+0000
 21
 2.34302149575524E+0000
  0
LINE
  8
1
  6
CONTINUOUS
 62
     0
 10
 3.22417331274846E+0000
 20
 2.34302149575524E+0000
 11
 3.25135483411214E+0000
 21
 2.50231082238315E+0000
  0
LINE
  8
1
  6
CONTINUOUS
 62
     0
 10
 3.25135483411214E+0000
 20
 2.50231082238315E+0000
 11
 3.19095119664053E+0000
 21
 2.50231082238315E+0000
  0
LINE
  8
1
  6
CONTINUOUS
 62
     0
 10
 3.19095119664053E+0000
 20
 2.50231082238315E+0000
 11
 3.22417331274846E+0000
 21
 2.34302149575524E+0000
  0
LINE
  8
1
  6
CONTINUOUS
 62
     0
 10
 3.25135483411214E+0000
 20
 2.50231082238315E+0000
 11
 3.19095119664053E+0000
 21
 2.50231082238315E+0000
  0
LINE
  8
1
  6
CONTINUOUS
 62
     0
 10
 3.22567867591715E+0000
 20
 2.35184323468275E+0000
 11
 3.22145184232795E+0000
 21
 2.35607006827195E+0000
  0
LINE
  8
1
  6
CONTINUOUS
 62
     0
 10
 3.22868940224726E+0000
 20
 2.36948671253413E+0000
 11
 3.21600890147965E+0000
 21
 2.38216721330173E+0000
  0
LINE
  8
1
  6
CONTINUOUS
 62
     0
 10
 3.23170012858100E+0000
 20
 2.38713019038551E+0000
 11
 3.21056596063499E+0000
 21
 2.40826435833515E+0000
  0
LINE
  8
1
  6
CONTINUOUS
 62
     0
 10
 3.23471085491474E+0000
 20
 2.40477366824052E+0000
 11
 3.20512301978670E+0000
 21
 2.43436150336493E+0000
  0
LINE
  8
1
  6
CONTINUOUS
 62
     0
 10
 3.23772158124484E+0000
 20
 2.42241714609918E+0000
 11
 3.19968007893840E+0000
 21
 2.46045864840562E+0000
  0
LINE
  8
1
  6
CONTINUOUS
 62
     0
 10
 3.24073230757858E+0000
 20
 2.44006062395056E+0000
 11
 3.19423713809374E+0000
 21
 2.48655579343540E+0000
  0
LINE
  8
1
  6
CONTINUOUS
 62
     0
 10
 3.24374303391232E+0000
 20
 2.45770410180194E+0000
 11
 3.19913631333111E+0000
 21
 2.50231082238679E+0000
  0
LINE
  8
1
  6
CONTINUOUS
 62
     0
 10
 3.24675376024607E+0000
 20
 2.47534757965695E+0000
 11
 3.21979051751623E+0000
 21
 2.50231082238315E+0000
  0
LINE
  8
1
  6
CONTINUOUS
 62
     0
 10
 3.24976448657617E+0000
 20
 2.49299105750833E+0000
 11
 3.24044472170135E+0000
 21
 2.50231082238315E+0000
  0
LINE
  8
1
  6
CONTINUOUS
 62
     0
 10
 3.22629814061293E+0000
 20
 2.35547342571590E+0000
 11
 3.22239114240074E+0000
 21
 2.35156642750007E+0000
  0
LINE
  8
1
  6
CONTINUOUS
 62
     0
 10
 3.23054779634913E+0000
 20
 2.38037728563722E+0000
 11
 3.21882680170165E+0000
 21
 2.36865629098975E+0000
  0
LINE
  8
1
  6
CONTINUOUS
 62
     0
 10
 3.23479745208533E+0000
 20
 2.40528114555491E+0000
 11
 3.21526246100984E+0000
 21
 2.38574615447942E+0000
  0
LINE
  8
1
  6
CONTINUOUS
 62
     0
 10
 3.23904710781790E+0000
 20
 2.43018500547623E+0000
 11
 3.21169812031440E+0000
 21
 2.40283601796909E+0000
  0
LINE
  8
1
  6
CONTINUOUS
 62
     0
 10
 3.24329676355410E+0000
 20
 2.45508886539756E+0000
 11
 3.20813377961895E+0000
 21
 2.41992588145877E+0000
  0
LINE
  8
1
  6
CONTINUOUS
 62
     0
 10
 3.24754641929030E+0000
 20
 2.47999272531524E+0000
 11
 3.20456943892350E+0000
 21
 2.43701574495208E+0000
  0
LINE
  8
1
  6
CONTINUOUS
 62
     0
 10
 3.24921031216581E+0000
 20
 2.50231082237951E+0000
 11
 3.20100509822805E+0000
 21
 2.45410560844175E+0000
  0
LINE
  8
1
  6
CONTINUOUS
 62
     0
 10
 3.22855610798069E+0000
 20
 2.50231082237951E+0000
 11
 3.19744075753260E+0000
 21
 2.47119547192779E+0000
  0
LINE
  8
1
  6
CONTINUOUS
 62
     0
 10
 3.20790190379557E+0000
 20
 2.50231082237951E+0000
 11
 3.19387641683716E+0000
 21
 2.48828533542110E+0000
  0
LINE
  8
1
  6
CONTINUOUS
 62
     0
 10
 2.53910623590855E+0000
 20
 1.54860797242145E+0000
 11
 2.53910623590855E+0000
 21
 1.54860797242145E+0000
  0
LINE
  8
1
  6
CONTINUOUS
 62
     0
 10
 2.53910623590855E+0000
 20
 1.54860797242145E+0000
 11
 2.37981690927336E+0000
 21
 1.57578949378512E+0000
  0
LINE
  8
1
  6
CONTINUOUS
 62
     0
 10
 2.37981690927336E+0000
 20
 1.57578949378512E+0000
 11
 2.37981690927336E+0000
 21
 1.51538585631351E+0000
  0
LINE
  8
1
  6
CONTINUOUS
 62
     0
 10
 2.37981690927336E+0000
 20
 1.51538585631351E+0000
 11
 2.53910623590855E+0000
 21
 1.54860797242145E+0000
  0
LINE
  8
1
  6
CONTINUOUS
 62
     0
 10
 2.37981690927336E+0000
 20
 1.57578949378512E+0000
 11
 2.37981690927336E+0000
 21
 1.51538585631351E+0000
  0
LINE
  8
1
  6
CONTINUOUS
 62
     0
 10
 2.38836184101820E+0000
 20
 1.51716802666124E+0000
 11
 2.37981690927336E+0000
 21
 1.52571295840607E+0000
  0
LINE
  8
1
  6
CONTINUOUS
 62
     0
 10
 2.40545170451151E+0000
 20
 1.52073236735487E+0000
 11
 2.37981690927336E+0000
 21
 1.54636716259120E+0000
  0
LINE
  8
1
  6
CONTINUOUS
 62
     0
 10
 2.42254156800118E+0000
 20
 1.52429670805031E+0000
 11
 2.37981690927336E+0000
 21
 1.56702136677632E+0000
  0
LINE
  8
1
  6
CONTINUOUS
 62
     0
 10
 2.43963143149085E+0000
 20
 1.52786104874394E+0000
 11
 2.39414857745942E+0000
 21
 1.57334390277720E+0000
  0
LINE
  8
1
  6
CONTINUOUS
 62
     0
 10
 2.45672129498053E+0000
 20
 1.53142538943939E+0000
 11
 2.41905243738074E+0000
 21
 1.56909424704099E+0000
  0
LINE
  8
1
  6
CONTINUOUS
 62
     0
 10
 2.47381115847384E+0000
 20
 1.53498973013302E+0000
 11
 2.44395629729843E+0000
 21
 1.56484459130661E+0000
  0
LINE
  8
1
  6
CONTINUOUS
 62
     0
 10
 2.49090102196351E+0000
 20
 1.53855407082847E+0000
 11
 2.46886015721975E+0000
 21
 1.56059493557223E+0000
  0
LINE
  8
1
  6
CONTINUOUS
 62
     0
 10
 2.50799088545318E+0000
 20
 1.54211841152210E+0000
 11
 2.49376401714107E+0000
 21
 1.55634527983602E+0000
  0
LINE
  8
1
  6
CONTINUOUS
 62
     0
 10
 2.52508074894286E+0000
 20
 1.54568275221754E+0000
 11
 2.51866787706240E+0000
 21
 1.55209562410164E+0000
  0
LINE
  8
1
  6
CONTINUOUS
 62
     0
 10
 2.53028449698104E+0000
 20
 1.55011333558650E+0000
 11
 2.52605766338820E+0000
 21
 1.54588650199548E+0000
  0
LINE
  8
1
  6
CONTINUOUS
 62
     0
 10
 2.51264101912602E+0000
 20
 1.55312406191842E+0000
 11
 2.49996051835842E+0000
 21
 1.54044356115082E+0000
  0
LINE
  8
1
  6
CONTINUOUS
 62
     0
 10
 2.49499754127464E+0000
 20
 1.55613478825217E+0000
 11
 2.47386337332500E+0000
 21
 1.53500062030434E+0000
  0
LINE
  8
1
  6
CONTINUOUS
 62
     0
 10
 2.47735406341963E+0000
 20
 1.55914551458409E+0000
 11
 2.44776622829522E+0000
 21
 1.52955767945787E+0000
  0
LINE
  8
1
  6
CONTINUOUS
 62
     0
 10
 2.45971058556825E+0000
 20
 1.56215624091601E+0000
 11
 2.42166908326544E+0000
 21
 1.52411473861321E+0000
  0
LINE
  8
1
  6
CONTINUOUS
 62
     0
 10
 2.44206710771687E+0000
 20
 1.56516696724975E+0000
 11
 2.39557193823202E+0000
 21
 1.51867179776673E+0000
  0
LINE
  8
1
  6
CONTINUOUS
 62
     0
 10
 2.42442362986185E+0000
 20
 1.56817769358167E+0000
 11
 2.37981690926972E+0000
 21
 1.52357097298955E+0000
  0
LINE
  8
1
  6
CONTINUOUS
 62
     0
 10
 2.40678015201047E+0000
 20
 1.57118841991360E+0000
 11
 2.37981690926972E+0000
 21
 1.54422517717467E+0000
  0
LINE
  8
1
  6
CONTINUOUS
 62
     0
 10
 2.38913667415545E+0000
 20
 1.57419914624552E+0000
 11
 2.37981690926972E+0000
 21
 1.56487938135979E+0000
  0
LINE
  8
1
  6
CONTINUOUS
 62
     0
 10
 2.01358021266788E+0000
 20
 1.54758507523366E+0000
 11
 2.01358021266788E+0000
 21
 1.54758507523366E+0000
  0
LINE
  8
1
  6
CONTINUOUS
 62
     0
 10
 2.01358021266788E+0000
 20
 1.54758507523366E+0000
 11
 2.17286953930306E+0000
 21
 1.52040355386998E+0000
  0
LINE
  8
1
  6
CONTINUOUS
 62
     0
 10
 2.17286953930306E+0000
 20
 1.52040355386998E+0000
 11
 2.17286953930306E+0000
 21
 1.58080719134159E+0000
  0
LINE
  8
1
  6
CONTINUOUS
 62
     0
 10
 2.17286953930306E+0000
 20
 1.58080719134159E+0000
 11
 2.01358021266788E+0000
 21
 1.54758507523366E+0000
  0
LINE
  8
1
  6
CONTINUOUS
 62
     0
 10
 2.17286953930306E+0000
 20
 1.52040355386998E+0000
 11
 2.17286953930306E+0000
 21
 1.58080719134159E+0000
  0
LINE
  8
1
  6
CONTINUOUS
 62
     0
 10
 2.02603214262854E+0000
 20
 1.54546024736737E+0000
 11
 2.02212514441271E+0000
 21
 1.54936724558138E+0000
  0
LINE
  8
1
  6
CONTINUOUS
 62
     0
 10
 2.05093600254986E+0000
 20
 1.54121059163117E+0000
 11
 2.03921500790602E+0000
 21
 1.55293158627683E+0000
  0
LINE
  8
1
  6
CONTINUOUS
 62
     0
 10
 2.07583986247118E+0000
 20
 1.53696093589679E+0000
 11
 2.05630487139570E+0000
 21
 1.55649592697046E+0000
  0
LINE
  8
1
  6
CONTINUOUS
 62
     0
 10
 2.10074372239251E+0000
 20
 1.53271128016240E+0000
 11
 2.07339473488537E+0000
 21
 1.56006026766590E+0000
  0
LINE
  8
1
  6
CONTINUOUS
 62
     0
 10
 2.12564758231019E+0000
 20
 1.52846162442620E+0000
 11
 2.09048459837868E+0000
 21
 1.56362460836135E+0000
  0
LINE
  8
1
  6
CONTINUOUS
 62
     0
 10
 2.15055144223152E+0000
 20
 1.52421196869182E+0000
 11
 2.10757446186835E+0000
 21
 1.56718894905498E+0000
  0
LINE
  8
1
  6
CONTINUOUS
 62
     0
 10
 2.17286953930306E+0000
 20
 1.52254807580539E+0000
 11
 2.12466432535803E+0000
 21
 1.57075328975043E+0000
  0
LINE
  8
1
  6
CONTINUOUS
 62
     0
 10
 2.17286953930306E+0000
 20
 1.54320227999051E+0000
 11
 2.14175418884770E+0000
 21
 1.57431763044406E+0000
  0
LINE
  8
1
  6
CONTINUOUS
 62
     0
 10
 2.17286953930306E+0000
 20
 1.56385648417563E+0000
 11
 2.15884405234101E+0000
 21
 1.57788197113950E+0000
  0
LINE
  8
1
  6
CONTINUOUS
 62
     0
 10
 2.17286953930306E+0000
 20
 1.53073065596254E+0000
 11
 2.16404780037556E+0000
 21
 1.52190891703503E+0000
  0
LINE
  8
1
  6
CONTINUOUS
 62
     0
 10
 2.17286953930306E+0000
 20
 1.55138486014766E+0000
 11
 2.14640432252054E+0000
 21
 1.52491964336696E+0000
  0
LINE
  8
1
  6
CONTINUOUS
 62
     0
 10
 2.17286953930306E+0000
 20
 1.57203906433278E+0000
 11
 2.12876084466916E+0000
 21
 1.52793036969888E+0000
  0
LINE
  8
1
  6
CONTINUOUS
 62
     0
 10
 2.15785115964536E+0000
 20
 1.57767488886202E+0000
 11
 2.11111736681778E+0000
 21
 1.53094109603262E+0000
  0
LINE
  8
1
  6
CONTINUOUS
 62
     0
 10
 2.13175401461558E+0000
 20
 1.57223194801736E+0000
 11
 2.09347388896276E+0000
 21
 1.53395182236454E+0000
  0
LINE
  8
1
  6
CONTINUOUS
 62
     0
 10
 2.10565686958216E+0000
 20
 1.56678900716724E+0000
 11
 2.07583041111138E+0000
 21
 1.53696254869647E+0000
  0
LINE
  8
1
  6
CONTINUOUS
 62
     0
 10
 2.07955972454874E+0000
 20
 1.56134606632259E+0000
 11
 2.05818693325637E+0000
 21
 1.53997327502839E+0000
  0
LINE
  8
1
  6
CONTINUOUS
 62
     0
 10
 2.05346257951896E+0000
 20
 1.55590312547611E+0000
 11
 2.04054345540135E+0000
 21
 1.54298400136031E+0000
  0
LINE
  8
1
  6
CONTINUOUS
 62
     0
 10
 2.02736543448555E+0000
 20
 1.55046018462781E+0000
 11
 2.02289997754997E+0000
 21
 1.54599472769223E+0000
  0
LINE
  8
1
  6
CONTINUOUS
 62
     0
 10
 2.58237508030288E+0000
 20
 1.54758507523366E+0000
 11
 2.58237508030288E+0000
 21
 1.54758507523366E+0000
  0
LINE
  8
1
  6
CONTINUOUS
 62
     0
 10
 2.58237508030288E+0000
 20
 1.54758507523366E+0000
 11
 2.74166440693807E+0000
 21
 1.52040355386998E+0000
  0
LINE
  8
1
  6
CONTINUOUS
 62
     0
 10
 2.74166440693807E+0000
 20
 1.52040355386998E+0000
 11
 2.74166440693807E+0000
 21
 1.58080719134159E+0000
  0
LINE
  8
1
  6
CONTINUOUS
 62
     0
 10
 2.74166440693807E+0000
 20
 1.58080719134159E+0000
 11
 2.58237508030288E+0000
 21
 1.54758507523366E+0000
  0
LINE
  8
1
  6
CONTINUOUS
 62
     0
 10
 2.74166440693807E+0000
 20
 1.52040355386998E+0000
 11
 2.74166440693807E+0000
 21
 1.58080719134159E+0000
  0
LINE
  8
1
  6
CONTINUOUS
 62
     0
 10
 2.59482701026354E+0000
 20
 1.54546024736737E+0000
 11
 2.59092001204772E+0000
 21
 1.54936724558138E+0000
  0
LINE
  8
1
  6
CONTINUOUS
 62
     0
 10
 2.61973087018487E+0000
 20
 1.54121059163117E+0000
 11
 2.60800987554103E+0000
 21
 1.55293158627683E+0000
  0
LINE
  8
1
  6
CONTINUOUS
 62
     0
 10
 2.64463473010619E+0000
 20
 1.53696093589679E+0000
 11
 2.62509973903070E+0000
 21
 1.55649592697046E+0000
  0
LINE
  8
1
  6
CONTINUOUS
 62
     0
 10
 2.66953859002751E+0000
 20
 1.53271128016058E+0000
 11
 2.64218960252038E+0000
 21
 1.56006026766590E+0000
  0
LINE
  8
1
  6
CONTINUOUS
 62
     0
 10
 2.69444244994520E+0000
 20
 1.52846162442620E+0000
 11
 2.65927946601369E+0000
 21
 1.56362460836135E+0000
  0
LINE
  8
1
  6
CONTINUOUS
 62
     0
 10
 2.71934630986652E+0000
 20
 1.52421196869000E+0000
 11
 2.67636932950336E+0000
 21
 1.56718894905498E+0000
  0
LINE
  8
1
  6
CONTINUOUS
 62
     0
 10
 2.74166440693807E+0000
 20
 1.52254807580539E+0000
 11
 2.69345919299303E+0000
 21
 1.57075328975043E+0000
  0
LINE
  8
1
  6
CONTINUOUS
 62
     0
 10
 2.74166440693807E+0000
 20
 1.54320227999051E+0000
 11
 2.71054905648634E+0000
 21
 1.57431763044406E+0000
  0
LINE
  8
1
  6
CONTINUOUS
 62
     0
 10
 2.74166440693807E+0000
 20
 1.56385648417563E+0000
 11
 2.72763891997602E+0000
 21
 1.57788197113950E+0000
  0
LINE
  8
1
  6
CONTINUOUS
 62
     0
 10
 2.74166440693443E+0000
 20
 1.53073065596254E+0000
 11
 2.73284266801056E+0000
 21
 1.52190891703503E+0000
  0
LINE
  8
1
  6
CONTINUOUS
 62
     0
 10
 2.74166440693443E+0000
 20
 1.55138486014766E+0000
 11
 2.71519919015554E+0000
 21
 1.52491964336696E+0000
  0
LINE
  8
1
  6
CONTINUOUS
 62
     0
 10
 2.74166440693443E+0000
 20
 1.57203906433278E+0000
 11
 2.69755571230417E+0000
 21
 1.52793036969888E+0000
  0
LINE
  8
1
  6
CONTINUOUS
 62
     0
 10
 2.72664602728037E+0000
 20
 1.57767488886202E+0000
 11
 2.67991223445279E+0000
 21
 1.53094109603262E+0000
  0
LINE
  8
1
  6
CONTINUOUS
 62
     0
 10
 2.70054888225059E+0000
 20
 1.57223194801554E+0000
 11
 2.66226875659777E+0000
 21
 1.53395182236454E+0000
  0
LINE
  8
1
  6
CONTINUOUS
 62
     0
 10
 2.67445173721717E+0000
 20
 1.56678900716724E+0000
 11
 2.64462527874275E+0000
 21
 1.53696254869647E+0000
  0
LINE
  8
1
  6
CONTINUOUS
 62
     0
 10
 2.64835459218375E+0000
 20
 1.56134606632259E+0000
 11
 2.62698180089137E+0000
 21
 1.53997327502839E+0000
  0
LINE
  8
1
  6
CONTINUOUS
 62
     0
 10
 2.62225744715397E+0000
 20
 1.55590312547611E+0000
 11
 2.60933832303635E+0000
 21
 1.54298400136031E+0000
  0
LINE
  8
1
  6
CONTINUOUS
 62
     0
 10
 2.59616030212055E+0000
 20
 1.55046018462781E+0000
 11
 2.59169484518497E+0000
 21
 1.54599472769223E+0000
  0
LINE
  8
1
  6
CONTINUOUS
 62
     0
 10
 4.05250686588261E+0000
 20
 1.54860797242145E+0000
 11
 4.05250686588261E+0000
 21
 1.54860797242145E+0000
  0
LINE
  8
1
  6
CONTINUOUS
 62
     0
 10
 4.05250686588261E+0000
 20
 1.54860797242145E+0000
 11
 3.89321753924378E+0000
 21
 1.57578949378512E+0000
  0
LINE
  8
1
  6
CONTINUOUS
 62
     0
 10
 3.89321753924378E+0000
 20
 1.57578949378512E+0000
 11
 3.89321753924378E+0000
 21
 1.51538585631351E+0000
  0
LINE
  8
1
  6
CONTINUOUS
 62
     0
 10
 3.89321753924378E+0000
 20
 1.51538585631351E+0000
 11
 4.05250686588261E+0000
 21
 1.54860797242145E+0000
  0
LINE
  8
1
  6
CONTINUOUS
 62
     0
 10
 3.89321753924378E+0000
 20
 1.57578949378512E+0000
 11
 3.89321753924378E+0000
 21
 1.51538585631351E+0000
  0
LINE
  8
1
  6
CONTINUOUS
 62
     0
 10
 3.90176247099225E+0000
 20
 1.51716802666124E+0000
 11
 3.89321753924742E+0000
 21
 1.52571295840607E+0000
  0
LINE
  8
1
  6
CONTINUOUS
 62
     0
 10
 3.91885233448193E+0000
 20
 1.52073236735487E+0000
 11
 3.89321753924742E+0000
 21
 1.54636716259120E+0000
  0
LINE
  8
1
  6
CONTINUOUS
 62
     0
 10
 3.93594219797160E+0000
 20
 1.52429670805031E+0000
 11
 3.89321753924742E+0000
 21
 1.56702136677814E+0000
  0
LINE
  8
1
  6
CONTINUOUS
 62
     0
 10
 3.95303206146127E+0000
 20
 1.52786104874576E+0000
 11
 3.90754920742984E+0000
 21
 1.57334390277902E+0000
  0
LINE
  8
1
  6
CONTINUOUS
 62
     0
 10
 3.97012192495458E+0000
 20
 1.53142538943939E+0000
 11
 3.93245306735116E+0000
 21
 1.56909424704281E+0000
  0
LINE
  8
1
  6
CONTINUOUS
 62
     0
 10
 3.98721178844426E+0000
 20
 1.53498973013484E+0000
 11
 3.95735692727249E+0000
 21
 1.56484459130843E+0000
  0
LINE
  8
1
  6
CONTINUOUS
 62
     0
 10
 4.00430165193393E+0000
 20
 1.53855407082847E+0000
 11
 3.98226078719017E+0000
 21
 1.56059493557223E+0000
  0
LINE
  8
1
  6
CONTINUOUS
 62
     0
 10
 4.02139151542360E+0000
 20
 1.54211841152392E+0000
 11
 4.00716464711149E+0000
 21
 1.55634527983784E+0000
  0
LINE
  8
1
  6
CONTINUOUS
 62
     0
 10
 4.03848137892055E+0000
 20
 1.54568275221754E+0000
 11
 4.03206850703282E+0000
 21
 1.55209562410346E+0000
  0
LINE
  8
1
  6
CONTINUOUS
 62
     0
 10
 4.04368512695510E+0000
 20
 1.55011333558468E+0000
 11
 4.03945829335862E+0000
 21
 1.54588650199366E+0000
  0
LINE
  8
1
  6
CONTINUOUS
 62
     0
 10
 4.02604164910008E+0000
 20
 1.55312406191661E+0000
 11
 4.01336114833248E+0000
 21
 1.54044356114900E+0000
  0
LINE
  8
1
  6
CONTINUOUS
 62
     0
 10
 4.00839817124506E+0000
 20
 1.55613478825035E+0000
 11
 3.98726400329906E+0000
 21
 1.53500062030253E+0000
  0
LINE
  8
1
  6
CONTINUOUS
 62
     0
 10
 3.99075469339368E+0000
 20
 1.55914551458227E+0000
 11
 3.96116685826928E+0000
 21
 1.52955767945605E+0000
  0
LINE
  8
1
  6
CONTINUOUS
 62
     0
 10
 3.97311121553867E+0000
 20
 1.56215624091419E+0000
 11
 3.93506971323586E+0000
 21
 1.52411473861139E+0000
  0
LINE
  8
1
  6
CONTINUOUS
 62
     0
 10
 3.95546773768729E+0000
 20
 1.56516696724611E+0000
 11
 3.90897256820608E+0000
 21
 1.51867179776491E+0000
  0
LINE
  8
1
  6
CONTINUOUS
 62
     0
 10
 3.93782425983591E+0000
 20
 1.56817769357986E+0000
 11
 3.89321753924014E+0000
 21
 1.52357097298591E+0000
  0
LINE
  8
1
  6
CONTINUOUS
 62
     0
 10
 3.92018078198089E+0000
 20
 1.57118841991178E+0000
 11
 3.89321753924014E+0000
 21
 1.54422517717103E+0000
  0
LINE
  8
1
  6
CONTINUOUS
 62
     0
 10
 3.90253730412951E+0000
 20
 1.57419914624370E+0000
 11
 3.89321753924014E+0000
 21
 1.56487938135615E+0000
  0
LINE
  8
1
  6
CONTINUOUS
 62
     0
 10
 4.08561865906813E+0000
 20
 1.54758507523366E+0000
 11
 4.08561865906813E+0000
 21
 1.54758507523366E+0000
  0
LINE
  8
1
  6
CONTINUOUS
 62
     0
 10
 4.08561865906813E+0000
 20
 1.54758507523366E+0000
 11
 4.24490798570332E+0000
 21
 1.52040355386998E+0000
  0
LINE
  8
1
  6
CONTINUOUS
 62
     0
 10
 4.24490798570332E+0000
 20
 1.52040355386998E+0000
 11
 4.24490798570332E+0000
 21
 1.58080719134159E+0000
  0
LINE
  8
1
  6
CONTINUOUS
 62
     0
 10
 4.24490798570332E+0000
 20
 1.58080719134159E+0000
 11
 4.08561865906813E+0000
 21
 1.54758507523366E+0000
  0
LINE
  8
1
  6
CONTINUOUS
 62
     0
 10
 4.24490798570332E+0000
 20
 1.52040355386998E+0000
 11
 4.24490798570332E+0000
 21
 1.58080719134159E+0000
  0
LINE
  8
1
  6
CONTINUOUS
 62
     0
 10
 4.09807058903243E+0000
 20
 1.54546024736737E+0000
 11
 4.09416359081661E+0000
 21
 1.54936724558138E+0000
  0
LINE
  8
1
  6
CONTINUOUS
 62
     0
 10
 4.12297444895376E+0000
 20
 1.54121059163117E+0000
 11
 4.11125345431356E+0000
 21
 1.55293158627683E+0000
  0
LINE
  8
1
  6
CONTINUOUS
 62
     0
 10
 4.14787830887508E+0000
 20
 1.53696093589679E+0000
 11
 4.12834331780323E+0000
 21
 1.55649592697227E+0000
  0
LINE
  8
1
  6
CONTINUOUS
 62
     0
 10
 4.17278216879640E+0000
 20
 1.53271128016240E+0000
 11
 4.14543318129290E+0000
 21
 1.56006026766772E+0000
  0
LINE
  8
1
  6
CONTINUOUS
 62
     0
 10
 4.19768602871773E+0000
 20
 1.52846162442802E+0000
 11
 4.16252304478257E+0000
 21
 1.56362460836135E+0000
  0
LINE
  8
1
  6
CONTINUOUS
 62
     0
 10
 4.22258988863177E+0000
 20
 1.52421196869363E+0000
 11
 4.17961290827225E+0000
 21
 1.56718894905680E+0000
  0
LINE
  8
1
  6
CONTINUOUS
 62
     0
 10
 4.24490798570332E+0000
 20
 1.52254807580721E+0000
 11
 4.19670277176192E+0000
 21
 1.57075328975043E+0000
  0
LINE
  8
1
  6
CONTINUOUS
 62
     0
 10
 4.24490798570332E+0000
 20
 1.54320227999415E+0000
 11
 4.21379263525159E+0000
 21
 1.57431763044588E+0000
  0
LINE
  8
1
  6
CONTINUOUS
 62
     0
 10
 4.24490798570332E+0000
 20
 1.56385648417927E+0000
 11
 4.23088249874127E+0000
 21
 1.57788197114132E+0000
  0
LINE
  8
1
  6
CONTINUOUS
 62
     0
 10
 4.24490798569605E+0000
 20
 1.53073065595891E+0000
 11
 4.23608624676854E+0000
 21
 1.52190891703322E+0000
  0
LINE
  8
1
  6
CONTINUOUS
 62
     0
 10
 4.24490798569605E+0000
 20
 1.55138486014403E+0000
 11
 4.21844276891352E+0000
 21
 1.52491964336514E+0000
  0
LINE
  8
1
  6
CONTINUOUS
 62
     0
 10
 4.24490798569605E+0000
 20
 1.57203906433097E+0000
 11
 4.20079929106578E+0000
 21
 1.52793036969706E+0000
  0
LINE
  8
1
  6
CONTINUOUS
 62
     0
 10
 4.22988960604562E+0000
 20
 1.57767488886202E+0000
 11
 4.18315581321804E+0000
 21
 1.53094109603262E+0000
  0
LINE
  8
1
  6
CONTINUOUS
 62
     0
 10
 4.20379246101220E+0000
 20
 1.57223194801372E+0000
 11
 4.16551233536302E+0000
 21
 1.53395182236454E+0000
  0
LINE
  8
1
  6
CONTINUOUS
 62
     0
 10
 4.17769531597878E+0000
 20
 1.56678900717088E+0000
 11
 4.14786885750800E+0000
 21
 1.53696254869647E+0000
  0
LINE
  8
1
  6
CONTINUOUS
 62
     0
 10
 4.15159817094536E+0000
 20
 1.56134606632259E+0000
 11
 4.13022537965298E+0000
 21
 1.53997327502839E+0000
  0
LINE
  8
1
  6
CONTINUOUS
 62
     0
 10
 4.12550102591194E+0000
 20
 1.55590312547429E+0000
 11
 4.11258190179797E+0000
 21
 1.54298400136031E+0000
  0
LINE
  8
1
  6
CONTINUOUS
 62
     0
 10
 4.09940388088580E+0000
 20
 1.55046018462781E+0000
 11
 4.09493842395023E+0000
 21
 1.54599472769223E+0000
  0
LINE
  8
1
  6
CONTINUOUS
 62
     0
 10
 5.54559339343541E+0000
 20
 1.54860797242145E+0000
 11
 5.54559339343541E+0000
 21
 1.54860797242145E+0000
  0
LINE
  8
1
  6
CONTINUOUS
 62
     0
 10
 5.54559339343541E+0000
 20
 1.54860797242145E+0000
 11
 5.38630406680022E+0000
 21
 1.57578949378512E+0000
  0
LINE
  8
1
  6
CONTINUOUS
 62
     0
 10
 5.38630406680022E+0000
 20
 1.57578949378512E+0000
 11
 5.38630406680022E+0000
 21
 1.51538585631351E+0000
  0
LINE
  8
1
  6
CONTINUOUS
 62
     0
 10
 5.38630406680022E+0000
 20
 1.51538585631351E+0000
 11
 5.54559339343541E+0000
 21
 1.54860797242145E+0000
  0
LINE
  8
1
  6
CONTINUOUS
 62
     0
 10
 5.38630406680022E+0000
 20
 1.57578949378512E+0000
 11
 5.38630406680022E+0000
 21
 1.51538585631351E+0000
  0
LINE
  8
1
  6
CONTINUOUS
 62
     0
 10
 5.39484899854870E+0000
 20
 1.51716802666306E+0000
 11
 5.38630406680022E+0000
 21
 1.52571295840971E+0000
  0
LINE
  8
1
  6
CONTINUOUS
 62
     0
 10
 5.41193886203837E+0000
 20
 1.52073236735669E+0000
 11
 5.38630406680022E+0000
 21
 1.54636716259483E+0000
  0
LINE
  8
1
  6
CONTINUOUS
 62
     0
 10
 5.42902872552804E+0000
 20
 1.52429670805395E+0000
 11
 5.38630406680022E+0000
 21
 1.56702136677995E+0000
  0
LINE
  8
1
  6
CONTINUOUS
 62
     0
 10
 5.44611858901771E+0000
 20
 1.52786104874758E+0000
 11
 5.40063573499356E+0000
 21
 1.57334390277356E+0000
  0
LINE
  8
1
  6
CONTINUOUS
 62
     0
 10
 5.46320845251466E+0000
 20
 1.53142538944121E+0000
 11
 5.42553959491488E+0000
 21
 1.56909424703917E+0000
  0
LINE
  8
1
  6
CONTINUOUS
 62
     0
 10
 5.48029831600434E+0000
 20
 1.53498973013666E+0000
 11
 5.45044345483620E+0000
 21
 1.56484459130297E+0000
  0
LINE
  8
1
  6
CONTINUOUS
 62
     0
 10
 5.49738817949401E+0000
 20
 1.53855407083029E+0000
 11
 5.47534731475025E+0000
 21
 1.56059493557041E+0000
  0
LINE
  8
1
  6
CONTINUOUS
 62
     0
 10
 5.51447804298368E+0000
 20
 1.54211841152392E+0000
 11
 5.50025117467158E+0000
 21
 1.55634527983420E+0000
  0
LINE
  8
1
  6
CONTINUOUS
 62
     0
 10
 5.53156790647336E+0000
 20
 1.54568275221754E+0000
 11
 5.52515503459290E+0000
 21
 1.55209562409982E+0000
  0
LINE
  8
1
  6
CONTINUOUS
 62
     0
 10
 5.53677165450063E+0000
 20
 1.55011333558468E+0000
 11
 5.53254482091870E+0000
 21
 1.54588650199730E+0000
  0
LINE
  8
1
  6
CONTINUOUS
 62
     0
 10
 5.51912817665288E+0000
 20
 1.55312406191661E+0000
 11
 5.50644767588528E+0000
 21
 1.54044356114900E+0000
  0
LINE
  8
1
  6
CONTINUOUS
 62
     0
 10
 5.50148469879787E+0000
 20
 1.55613478824853E+0000
 11
 5.48035053085187E+0000
 21
 1.53500062030616E+0000
  0
LINE
  8
1
  6
CONTINUOUS
 62
     0
 10
 5.48384122095013E+0000
 20
 1.55914551458591E+0000
 11
 5.45425338581845E+0000
 21
 1.52955767945605E+0000
  0
LINE
  8
1
  6
CONTINUOUS
 62
     0
 10
 5.46619774309511E+0000
 20
 1.56215624091783E+0000
 11
 5.42815624079230E+0000
 21
 1.52411473861321E+0000
  0
LINE
  8
1
  6
CONTINUOUS
 62
     0
 10
 5.44855426524009E+0000
 20
 1.56516696724975E+0000
 11
 5.40205909575889E+0000
 21
 1.51867179776491E+0000
  0
LINE
  8
1
  6
CONTINUOUS
 62
     0
 10
 5.43091078738507E+0000
 20
 1.56817769357986E+0000
 11
 5.38630406680022E+0000
 21
 1.52357097299137E+0000
  0
LINE
  8
1
  6
CONTINUOUS
 62
     0
 10
 5.41326730953006E+0000
 20
 1.57118841991178E+0000
 11
 5.38630406680022E+0000
 21
 1.54422517717649E+0000
  0
LINE
  8
1
  6
CONTINUOUS
 62
     0
 10
 5.39562383168231E+0000
 20
 1.57419914624370E+0000
 11
 5.38630406680022E+0000
 21
 1.56487938136161E+0000
  0
TEXT
  8
1
 62
     0
 10
 2.01234106315314E+0000
 20
 7.06508144021063E+0000
 40
 1.18110236219991E-0001
  1
5,5
  7
STANDARD
 11
 2.01234106315314E+0000
 21
 7.18319167642767E+0000
 50
 0.00000000000000E+0000
 41
 2.56976661400131E-0001
  0
TEXT
  8
1
 62
     0
 10
 6.00023359245824E+0000
 20
 7.03148699333542E+0000
 40
 1.18110236219991E-0001
  1
5
  7
STANDARD
 11
 6.00023359245824E+0000
 21
 7.14959722955246E+0000
 50
 0.00000000000000E+0000
 41
 3.08371993680339E-0001
  0
TEXT
  8
1
 62
     0
 10
 2.15755843816805E+0000
 20
 1.62278104728102E+0000
 40
 1.18110236219991E-0001
  1
15
  7
STANDARD
 11
 2.15755843816805E+0000
 21
 1.74089128350170E+0000
 50
 0.00000000000000E+0000
 41
 3.08371993680339E-0001
  0
TEXT
  8
1
 62
     0
 10
 3.12939779404769E+0000
 20
 1.60038474936482E+0000
 40
 1.18110236219991E-0001
  1
38
  7
STANDARD
 11
 3.12939779404769E+0000
 21
 1.71849498558549E+0000
 50
 0.00000000000000E+0000
 41
 3.08371993680339E-0001
  0
TEXT
  8
1
 62
     0
 10
 4.64859494806296E+0000
 20
 1.60038474936482E+0000
 40
 1.18110236219991E-0001
  1
38
  7
STANDARD
 11
 4.64859494806296E+0000
 21
 1.71849498558549E+0000
 50
 0.00000000000000E+0000
 41
 3.08371993680339E-0001
  0
TEXT
  8
1
 62
     0
 10
 5.36351125584042E+0000
 20
 3.71683490217038E+0000
 40
 1.18110236219991E-0001
  1
3H7
  7
STANDARD
 11
 5.36351125584042E+0000
 21
 3.83494513839105E+0000
 50
 0.00000000000000E+0000
 41
 3.34069659820670E-0001
  0
TEXT
  8
1
 62
     0
 10
 2.51501659205678E+0000
 20
 6.01245543827827E+0000
 40
 1.18110236219991E-0001
  1
3H7
  7
STANDARD
 11
 2.51501659205678E+0000
 21
 6.13056567449530E+0000
 50
 0.00000000000000E+0000
 41
 3.34069659820670E-0001
  0
TEXT
  8
1
 62
     0
 10
 9.06454899566597E-0001
 20
 6.28121101324359E+0000
 40
 1.18110236219991E-0001
  1
10
  7
STANDARD
 11
 9.06454899566597E-0001
 21
 6.39932124946063E+0000
 50
 9.00000000000000E+0001
 41
 3.08371993680339E-0001
  0
TEXT
  8
1
 62
     0
 10
 6.50290912135097E+0000
 20
 6.25881471532921E+0000
 40
 1.18110236219991E-0001
  1
10
  7
STANDARD
 11
 6.50290912135097E+0000
 21
 6.37692495154624E+0000
 50
 9.00000000000000E+0001
 41
 3.08371993680339E-0001
  0
TEXT
  8
1
 62
     0
 10
 8.84113764948779E-0001
 20
 5.16139611758263E+0000
 40
 1.18110236219991E-0001
  1
14
  7
STANDARD
 11
 8.84113764948779E-0001
 21
 5.27950635379966E+0000
 50
 9.00000000000000E+0001
 41
 3.08371993680339E-0001
  0
TEXT
  8
1
 62
     0
 10
 8.95284332257688E-0001
 20
 4.25434605209739E+0000
 40
 1.18110236219991E-0001
  1
28
  7
STANDARD
 11
 8.95284332257688E-0001
 21
 4.37245628831442E+0000
 50
 9.00000000000000E+0001
 41
 3.08371993678065E-0001
  0
TEXT
  8
1
 62
     0
 10
 9.17625466877325E-0001
 20
 3.11213485851113E+0000
 40
 1.18110236219991E-0001
  1
28
  7
STANDARD
 11
 9.17625466877325E-0001
 21
 3.23024509473180E+0000
 50
 9.00000000000000E+0001
 41
 3.08371993678065E-0001
  0
TEXT
  8
1
 62
     0
 10
 9.17625466877325E-0001
 20
 2.23867923989383E+0000
 40
 1.18110236219991E-0001
  1
20
  7
STANDARD
 11
 9.17625466877325E-0001
 21
 2.35678947611450E+0000
 50
 9.00000000000000E+0001
 41
 3.08371993678065E-0001
  0
TEXT
  8
1
 62
     0
 10
 1.17454851498223E+0000
 20
 2.18268849511151E+0000
 40
 1.18110236219991E-0001
  1
11
  7
STANDARD
 11
 1.17454851498223E+0000
 21
 2.30079873133218E+0000
 50
 9.00000000000000E+0001
 41
 3.08371993680339E-0001
  0
TEXT
  8
1
 62
     0
 10
 3.04003325557642E+0000
 20
 2.56342555963420E+0000
 40
 1.18110236219991E-0001
  1
5,5
  7
STANDARD
 11
 3.04003325557642E+0000
 21
 2.68153579585487E+0000
 50
 9.00000000000000E+0001
 41
 2.56976661400131E-0001
  0
TEXT
  8
1
 62
     0
 10
 5.26297615005751E+0000
 20
 2.97775707103210E+0000
 40
 1.18110236219991E-0001
  1
14
  7
STANDARD
 11
 5.26297615005751E+0000
 21
 3.09586730725277E+0000
 50
 9.00000000000000E+0001
 41
 3.08371993680339E-0001
  0
TEXT
  8
1
 62
     0
 10
 6.48056798674224E+0000
 20
 2.21628294197944E+0000
 40
 1.18110236219991E-0001
  1
20
  7
STANDARD
 11
 6.48056798674224E+0000
 21
 2.33439317820012E+0000
 50
 9.00000000000000E+0001
 41
 3.08371993680339E-0001
  0
TEXT
  8
1
 62
     0
 10
 6.50290912135097E+0000
 20
 3.19052190121147E+0000
 40
 1.18110236219991E-0001
  1
28
  7
STANDARD
 11
 6.50290912135097E+0000
 21
 3.30863213743214E+0000
 50
 9.00000000000000E+0001
 41
 3.08371993680339E-0001
  0
TEXT
  8
1
 62
     0
 10
 6.50290912135097E+0000
 20
 4.29913864791888E+0000
 40
 1.18110236219991E-0001
  1
28
  7
STANDARD
 11
 6.50290912135097E+0000
 21
 4.41724888413592E+0000
 50
 9.00000000000000E+0001
 41
 3.08371993680339E-0001
  0
TEXT
  8
1
 62
     0
 10
 2.72725737092696E+0000
 20
 4.32153494583326E+0000
 40
 1.18110236219991E-0001
  1
M4x10
  7
STANDARD
 11
 2.72725737092696E+0000
 21
 4.43964518205030E+0000
 50
 9.00000000000000E+0001
 41
 3.08371993680339E-0001
  0
TEXT
  8
1
 62
     0
 10
 9.32052583748009E+0000
 20
 2.09032643538012E+0000
 40
 1.18110236219991E-0001
  1
11
  7
STANDARD
 11
 9.32052583748009E+0000
 21
 2.20843667160079E+0000
 50
 9.00000000000000E+0001
 41
 3.08371993680339E-0001
  0
TEXT
  8
1
 62
     0
 10
 9.81203079907573E+0000
 20
 4.01640805592615E+0000
 40
 1.18110236219991E-0001
  1
115
  7
STANDARD
 11
 9.81203079907573E+0000
 21
 4.13451829214318E+0000
 50
 9.00000000000000E+0001
 41
 3.08371993680339E-0001
  0
LINE
  8
1
  6
CONTINUOUS
 62
     0
 10
 1.99126105343748E+0000
 20
 2.53952721571477E+0000
 11
 1.99126105343748E+0000
 21
 1.54640572240169E+0000
  0
TEXT
  8
1
 62
     0
 10
 9.09562847889902E+0000
 20
 4.02255881644123E-0001
 40
 1.18110236219991E-0001
  1
(c)
  7
STANDARD
 11
 9.09562847889902E+0000
 21
 5.20366117863887E-0001
 50
 0.00000000000000E+0000
 41
 2.05581329120378E-0001
0
ENDSEC
0
EOF
