0
SECTION
  2
HEADER
  9
$LTSCALE
 40
     10
  9
$LIMMIN
 10
     0.0
 20
     0.0
  9
$LIMMAX
 10
      11.5
 20
       8.0
  9
$EXTMIN
 10
     0.0
 20
     0.0
  9
$EXTMAX
 10
      11.5
 20
       8.0
   9
$CLAYER
   8
1
   9
$CECOLOR
  62
     7
   9
$CELTYPE
   6
CONTINUOUS
  0
ENDSEC
  0
SECTION
  2
TABLES
  0
TABLE
  2
LTYPE
 70
    10
  0
LTYPE
  2
CONTINUOUS
 70
    64
  3
Solid line
 72
    65
 73
     0
 40
0.0
  0
LTYPE
  2
DASHED
 70
     0
  3
__ __ __ __ __ __ __ __ __ __ __ __ __ __ __
 72
    65
 73
     2
 40
0.75
 49
0.5
 49
-0.25
  0
LTYPE
  2
HIDDEN
 70
     0
  3
_ _ _ _ _ _ _ _ _ _ _ _ _ _ _ _ _ _ _ _ _ _
 72
    65
 73
     2
 40
0.375
 49
0.25
 49
-0.125
  0
LTYPE
  2
CENTER
 70
     0
  3
____ _ ____ _ ____ _ ____ _ ____ _ ____ _ __
 72
    65
 73
     4
 40
2.0
 49
1.25
 49
-0.25
 49
0.25
 49
-0.25
  0
LTYPE
  2
PHANTOM
 70
     0
  3
_____ _ _ _____ _ _ _____ _ _ _____ _ _ ____
 72
    65
 73
     6
 40
2.5
 49
1.25
 49
-0.25
 49
0.25
 49
-0.25
 49
0.25
 49
-0.25
  0
LTYPE
  2
DOT
 70
     0
  3
............................................
 72
    65
 73
     2
 40
0.25
 49
0.0
 49
-0.25
  0
LTYPE
  2
DASHDOT
 70
     0
  3
__ . __ . __ . __ . __ . __ . __ . __ . __ .
 72
    65
 73
     4
 40
1.0
 49
0.5
 49
-0.25
 49
0.0
 49
-0.25
  0
LTYPE
  2
BORDER
 70
     0
  3
__ __ . __ __ . __ __ . __ __ . __ __ . __ _
 72
    65
 73
     6
 40
1.75
 49
0.5
 49
-0.25
 49
0.5
 49
-0.25
 49
0.0
 49
-0.25
  0
LTYPE
  2
DIVIDE
 70
     0
  3
__ . . __ . . __ . . __ . . __ . . __ . . __
 72
    65
 73
     6
 40
1.25
 49
0.5
 49
-0.25
 49
0.0
 49
-0.25
 49
0.0
 49
-0.25
  0
LTYPE
  2
DIVIDE2
 70
     0
  3
close
 72
    65
 73
     2
 40
0.1
 49
0.05
 49
-0.05
  0
ENDTAB
0
TABLE
  2
LAYER
 70
   256
  0
LAYER
  2
1
 70
     0
  6
CONTINUOUS
 62
1
  0
ENDTAB
  0
TABLE
  2
STYLE
 70
     8
  0
STYLE
  2
TXT
 70
0
 40
0.0
 41
1.0
 50
0.0
 71
0
 42
1.0
  3
TXT
  4

  0
STYLE
  2
COMPLEX
 70
0
 40
0.0
 41
1.0
 50
0.0
 71
0
 42
1.0
  3
COMPLEX
  4

  0
STYLE
  2
ITALIC
 70
0
 40
0.0
 41
1.0
 50
0.0
 71
0
 42
1.0
  3
ITALIC
  4

  0
STYLE
  2
SIMPLEX
70
0
 40
0.0
 41
1.0
 50
0.0
 71
0
 42
1.0
  3
SIMPLEX
  4

  0
STYLE
  2
MONOTXT
 70
0
 40
0.0
 41
1.0
 50
0.0
 71
0
 42
1.0
  3
MONOTXT
  4

  0
STYLE
  2
SCRIPTC
 70
0
 40
0.0
 41
1.0
 50
0.0
 71
0
 42
1.0
  3
SCRIPTC
  4

  0
STYLE
  2
GOTHICE
 70
0
 40
0.0
 41
1.0
 50
0.0
 71
0
 42
1.0
  3
GOTHICE
  4

  0
ENDTAB
  0
TABLE
  2
VIEW
 70
     0
  0
ENDTAB
  0
ENDSEC
  0
SECTION
  2
ENTITIES
  0
LINE
  8
1
  6
CONTINUOUS
 62
     1
 10
 1.11016518104298E+0001
 20
 3.82354629517522E-0001
 11
 8.92001218340010E+0000
 21
 3.82354629517522E-0001
  0
LINE
  8
1
  6
CONTINUOUS
 62
     1
 10
 8.92001218340010E+0000
 20
 3.82354629517522E-0001
 11
 8.92001218340010E+0000
 21
 1.56921651272569E+0000
  0
LINE
  8
1
  6
CONTINUOUS
 62
     1
 10
 8.92001218340010E+0000
 20
 1.56921651272569E+0000
 11
 1.11016518104298E+0001
 21
 1.56921651272569E+0000
  0
LINE
  8
1
  6
CONTINUOUS
 62
     1
 10
 1.11016518104298E+0001
 20
 1.56921651272569E+0000
 11
 1.11016518104298E+0001
 21
 3.82354629517522E-0001
  0
LINE
  8
1
  6
CONTINUOUS
 62
     1
 10
 8.91933058328868E+0000
 20
 1.25583163345436E+0000
 11
 1.11025749011751E+0001
 21
 1.25583163345436E+0000
  0
LINE
  8
1
  6
CONTINUOUS
 62
     1
 10
 8.92696784700092E+0000
 20
 5.40161907710171E-0001
 11
 1.11102121648873E+0001
 21
 5.40161907710171E-0001
  0
TEXT
  8
1
 62
     1
 10
 8.96746009902563E+0000
 20
 1.36773653675118E+0000
 40
 1.18110236219991E-0001
  1
Benennung
  7
STANDARD
 11
 8.96746009902563E+0000
 21
 1.48584677297185E+0000
 50
 0.00000000000000E+0000
 41
 3.16937882393631E-0001
  0
LINE
  8
1
  6
CONTINUOUS
 62
     1
 10
 9.59187021224352E+0000
 20
 1.56777501911711E+0000
 11
 9.59187021224352E+0000
 21
 1.25583163345436E+0000
  0
LINE
  8
1
  6
CONTINUOUS
 62
     1
 10
 8.91933058328868E+0000
 20
 1.08979725075915E+0000
 11
 1.11025749011751E+0001
 21
 1.08979725075915E+0000
  0
LINE
  8
1
  6
CONTINUOUS
 62
     1
 10
 8.91933058328868E+0000
 20
 9.23762868064841E-0001
 11
 1.11025749011751E+0001
 21
 9.23762868064841E-0001
  0
TEXT
  8
1
 62
     1
 10
 8.97221691232699E+0000
 20
 1.10520544596875E+0000
 40
 1.18110236219991E-0001
  1
Werkstoff
  7
STANDARD
 11
 8.97221691232699E+0000
 21
 1.22331568218942E+0000
 50
 0.00000000000000E+0000
 41
 2.56976661400131E-0001
  0
LINE
  8
1
  6
CONTINUOUS
 62
     1
 10
 9.59187021224352E+0000
 20
 1.25583163345436E+0000
 11
 9.59187021224352E+0000
 21
 1.08979725075915E+0000
  0
LINE
  8
1
  6
CONTINUOUS
 62
     1
 10
 1.05203764164035E+0001
 20
 1.25583163345436E+0000
 11
 1.05203764164035E+0001
 21
 1.08979725075915E+0000
  0
TEXT
  8
1
 62
     1
 10
 1.05862595939689E+0001
 20
 1.10520544596875E+0000
 40
 1.18110236219991E-0001
  1
M 1:1
  7
STANDARD
 11
 1.05862595939689E+0001
 21
 1.22331568218942E+0000
 50
 0.00000000000000E+0000
 41
 2.62116194628561E-0001
  0
LINE
  8
1
  6
CONTINUOUS
 62
     1
 10
 8.92001218340010E+0000
 20
 1.56921651272569E+0000
 11
 1.11075938536378E+0001
 21
 1.56921651272569E+0000
  0
LINE
  8
1
  6
CONTINUOUS
 62
     1
 10
 8.92001218340010E+0000
 20
 1.56921651272569E+0000
 11
 1.11016518104298E+0001
 21
 1.56921651272569E+0000
  0
LINE
  8
1
  6
CONTINUOUS
 62
     1
 10
 1.11016518104298E+0001
 20
 1.56921651272569E+0000
 11
 1.11016518104298E+0001
 21
 3.82354629517522E-0001
  0
LINE
  8
1
  6
CONTINUOUS
 62
     1
 10
 1.11016518104298E+0001
 20
 3.82354629517522E-0001
 11
 8.92001218340010E+0000
 21
 3.82354629517522E-0001
  0
LINE
  8
1
  6
CONTINUOUS
 62
     1
 10
 8.92001218340010E+0000
 20
 3.82354629517522E-0001
 11
 8.92001218340010E+0000
 21
 1.56921651272569E+0000
  0
TEXT
  8
1
 62
     1
 10
 8.96565921993169E+0000
 20
 9.46117512187811E-0001
 40
 1.18110236219991E-0001
  1
Bearb.
  7
STANDARD
 11
 8.96565921993169E+0000
 21
 1.06422774840757E+0000
 50
 0.00000000000000E+0000
 41
 2.69825494470297E-0001
  0
LINE
  8
1
  6
CONTINUOUS
 62
     1
 10
 9.59295527153881E+0000
 20
 1.09092399547080E+0000
 11
 9.59295527153881E+0000
 21
 9.24814013757896E-0001
  0
LINE
  8
1
  6
CONTINUOUS
 62
     1
 10
 8.92127506533870E+0000
 20
 7.52771532709630E-0001
 11
 1.11020165277878E+0001
 21
 7.52771532709630E-0001
  0
LINE
  8
1
  6
CONTINUOUS
 62
     1
 10
 9.59295527153881E+0000
 20
 9.24814013757896E-0001
 11
 9.59295527153881E+0000
 21
 7.52771532709630E-0001
  0
TEXT
  8
1
 62
     1
 10
 8.96565921993169E+0000
 20
 7.71108781465955E-0001
 40
 1.18110236219991E-0001
  1
Datum
  7
STANDARD
 11
 8.96565921993169E+0000
 21
 8.89219017685718E-0001
 50
 0.00000000000000E+0000
 41
 3.23790593364265E-0001
  0
LINE
  8
1
  6
CONTINUOUS
 62
     1
 10
 1.05191046307591E+0001
 20
 5.36235306551134E-0001
 11
 1.05191046307591E+0001
 21
 3.84956573209365E-0001
  0
TEXT
  8
1
 62
     1
 10
 9.64917520069866E+0000
 20
 9.37218763171586E-0001
 40
 1.18110236219991E-0001
  1
D.Freind
  7
STANDARD
 11
 9.64917520069866E+0000
 21
 1.05532899939135E+0000
 50
 0.00000000000000E+0000
 41
 2.60188869667672E-0001
  0
TEXT
  8
1
 62
     1
 10
 1.05427761798928E+0001
 20
 4.00327572291644E-0001
 40
 1.18110236219991E-0001
  1
Blatt
  7
STANDARD
 11
 1.05427761798928E+0001
 21
 5.18437808511408E-0001
 50
 0.00000000000000E+0000
 41
 2.31278995260254E-0001
  0
TEXT
  8
1
 62
     1
 10
 9.06892377461190E+0000
 20
 5.62597981070212E-0001
 40
 1.18110236219991E-0001
  1
für Revolver 8-fach 
  7
STANDARD
 11
 9.06892377461190E+0000
 21
 6.80708217289975E-0001
 50
 0.00000000000000E+0000
 41
 2.35133645181349E-0001
  0
TEXT
  8
1
 62
     1
 10
 9.27288745008991E+0000
 20
 4.09609029249623E-0001
 40
 1.18110236219991E-0001
  1
www.cnc-projects.de.vu
  7
STANDARD
 11
 9.27288745008991E+0000
 21
 5.27719265469386E-0001
 50
 0.00000000000000E+0000
 41
 2.66321267269177E-0001
  0
TEXT
  8
1
 62
     1
 10
 9.90247638571600E+0000
 20
 1.30835296497571E+0000
 40
 1.96850393699833E-0001
  1
Gehäuse
  7
STANDARD
 11
 9.90247638571600E+0000
 21
 1.50520335867623E+0000
 50
 0.00000000000000E+0000
 41
 1.91631167501555E-0001
  0
TEXT
  8
1
 62
     1
 10
 9.65434287698008E+0000
 20
 1.11828676223740E+0000
 40
 1.18110236219991E-0001
  1
Aluminium
  7
STANDARD
 11
 9.65434287698008E+0000
 21
 1.23639699845808E+0000
 50
 0.00000000000000E+0000
 41
 2.99806104967047E-0001
  0
TEXT
  8
1
 62
     1
 10
 9.65434287698008E+0000
 20
 7.61215627031561E-0001
 40
 1.18110236219991E-0001
  1
25.12.2003
  7
STANDARD
 11
 9.65434287698008E+0000
 21
 8.79325863251324E-0001
 50
 0.00000000000000E+0000
 41
 2.77534794312487E-0001
  0
LINE
  8
1
  6
CONTINUOUS
 62
     1
 10
 1.56876714084137E+0000
 20
 2.10138538042520E+0000
 11
 9.01340125592833E+0000
 21
 2.10138538042520E+0000
  0
LINE
  8
1
  6
CONTINUOUS
 62
     1
 10
 9.01340125592833E+0000
 20
 2.10138538042520E+0000
 11
 9.01340125592833E+0000
 21
 2.53952721571477E+0000
  0
LINE
  8
1
  6
CONTINUOUS
 62
     1
 10
 1.56876714084137E+0000
 20
 2.10138538042520E+0000
 11
 1.56876714084137E+0000
 21
 2.53952721571477E+0000
  0
LINE
  8
1
  6
CONTINUOUS
 62
     1
 10
 1.56876714084137E+0000
 20
 2.53952721571477E+0000
 11
 2.00582980904437E+0000
 21
 2.53952721571477E+0000
  0
LINE
  8
1
  6
CONTINUOUS
 62
     1
 10
 9.01340125592833E+0000
 20
 2.53952721571477E+0000
 11
 8.57633858772169E+0000
 21
 2.53952721571477E+0000
  0
LINE
  8
1
  6
CONTINUOUS
 62
     1
 10
 8.57633858772169E+0000
 20
 2.53952721571477E+0000
 11
 8.57633858772169E+0000
 21
 6.64345573955507E+0000
  0
LINE
  8
1
  6
CONTINUOUS
 62
     1
 10
 8.57633858772169E+0000
 20
 6.64345573955507E+0000
 11
 1.99126105343748E+0000
 21
 6.64345573955507E+0000
  0
LINE
  8
1
  6
CONTINUOUS
 62
     1
 10
 1.99126105343748E+0000
 20
 6.64345573955507E+0000
 11
 1.99126105343748E+0000
 21
 2.53952721571477E+0000
  0
TEXT
  8
1
 62
     1
 10
 1.08246347939566E+0001
 20
 4.00602320944927E-0001
 40
 1.18110236219991E-0001
  1
3
  7
STANDARD
 11
 1.08246347939566E+0001
 21
 5.18712557164690E-0001
 50
 0.00000000000000E+0000
 41
 3.08371993680339E-0001
  0
LINE
  8
1
  6
DASHDOT
 62
     1
 10
 5.55513988369057E+0000
 20
 4.76043558972015E+0000
 11
 7.35063666971837E+0000
 21
 4.76043558972015E+0000
  0
LINE
  8
1
  6
DASHDOT
 62
     1
 10
 6.30674318947422E+0000
 20
 5.52784765274555E+0000
 11
 6.30674318947422E+0000
 21
 3.89535290050117E+0000
  0
LINE
  8
1
  6
DASHDOT
 62
     1
 10
 2.70183103765521E+0000
 20
 4.16045888591179E+0000
 11
 3.84315457606863E+0000
 21
 4.16045888591179E+0000
  0
LINE
  8
1
  6
DASHDOT
 62
     1
 10
 3.27249280686738E+0000
 20
 4.73252969652094E+0000
 11
 3.27249280686738E+0000
 21
 3.60234102189861E+0000
  0
CIRCLE
  8
1
  6
DASHDOT
 62
     1
 10
 3.27149333620036E+0000
 20
 4.15983072856034E+0000
 40
 7.48805623064982E-0001
  0
CIRCLE
  8
1
  6
CONTINUOUS
 62
     1
 10
 6.30630427408323E+0000
 20
 4.76125793326355E+0000
 40
 7.88818137261842E-0001
  0
CIRCLE
  8
1
  6
CONTINUOUS
 62
     1
 10
 5.43484933750733E+0000
 20
 5.12106858206971E+0000
 40
 6.68881069723284E-0002
  0
ARC
  8
1
  6
CONTINUOUS
 62
     1
 10
 5.43484933750733E+0000
 20
 5.12106858206971E+0000
 40
 8.23238239609054E-0002
 50
 1.05136898213415E+0002
 51
 3.82429351725616E+0002
  0
CIRCLE
  8
1
  6
CONTINUOUS
 62
     1
 10
 5.94568629682908E+0000
 20
 3.88779906671334E+0000
 40
 6.68881069723284E-0002
  0
ARC
  8
1
  6
CONTINUOUS
 62
     1
 10
 5.94568629682908E+0000
 20
 3.88779906671334E+0000
 40
 8.23238239609054E-0002
 50
 1.95136898213299E+0002
 51
 4.72429351725616E+0002
  0
CIRCLE
  8
1
  6
CONTINUOUS
 62
     1
 10
 7.17895581218181E+0000
 20
 4.39863602603873E+0000
 40
 6.68881069723284E-0002
  0
ARC
  8
1
  6
CONTINUOUS
 62
     1
 10
 7.17895581218181E+0000
 20
 4.39863602603873E+0000
 40
 8.23238239609054E-0002
 50
 2.85136898213532E+0002
 51
 5.62429351725616E+0002
  0
CIRCLE
  8
1
  6
CONTINUOUS
 62
     1
 10
 6.66811885286006E+0000
 20
 5.63190554139874E+0000
 40
 6.68881069723284E-0002
  0
ARC
  8
1
  6
CONTINUOUS
 62
     1
 10
 6.66811885286006E+0000
 20
 5.63190554139874E+0000
 40
 8.23238239609054E-0002
 50
 3.75136898213532E+0002
 51
 6.52429351725616E+0002
  0
CIRCLE
  8
1
  6
CONTINUOUS
 62
     1
 10
 5.52639820566401E+0000
 20
 5.54035667322751E+0000
 40
 8.23238239609054E-0002
  0
ARC
  8
1
  6
CONTINUOUS
 62
     1
 10
 5.52639820566401E+0000
 20
 5.54035667322751E+0000
 40
 1.02904779945675E-0001
 50
 8.19377434176859E+0001
 51
 3.57327088725287E+0002
  0
CIRCLE
  8
1
  6
CONTINUOUS
 62
     1
 10
 5.20310271046765E+0000
 20
 4.75985230405058E+0000
 40
 8.23238239609054E-0002
  0
ARC
  8
1
  6
CONTINUOUS
 62
     1
 10
 5.20310271046765E+0000
 20
 4.75985230405058E+0000
 40
 1.02904779945675E-0001
 50
 1.26937743417686E+0002
 51
 4.02327088725287E+0002
  0
CIRCLE
  8
1
  6
CONTINUOUS
 62
     1
 10
 5.52639820567856E+0000
 20
 3.97934793488821E+0000
 40
 8.23238239609054E-0002
  0
ARC
  8
1
  6
CONTINUOUS
 62
     1
 10
 5.52639820567856E+0000
 20
 3.97934793488821E+0000
 40
 1.02904779945675E-0001
 50
 1.71937743417686E+0002
 51
 4.47327088725287E+0002
  0
CIRCLE
  8
1
  6
CONTINUOUS
 62
     1
 10
 6.30690257484093E+0000
 20
 3.65605243969185E+0000
 40
 8.23238239609054E-0002
  0
ARC
  8
1
  6
CONTINUOUS
 62
     1
 10
 6.30690257484093E+0000
 20
 3.65605243969185E+0000
 40
 1.02904779945675E-0001
 50
 2.16937743417686E+0002
 51
 4.92327088725287E+0002
  0
CIRCLE
  8
1
  6
CONTINUOUS
 62
     1
 10
 7.08740694401058E+0000
 20
 3.97934793489549E+0000
 40
 8.23238239609054E-0002
  0
ARC
  8
1
  6
CONTINUOUS
 62
     1
 10
 7.08740694401058E+0000
 20
 3.97934793489549E+0000
 40
 1.02904779945675E-0001
 50
 2.61937743417453E+0002
 51
 5.37327088725753E+0002
  0
CIRCLE
  8
1
  6
CONTINUOUS
 62
     1
 10
 7.41070243920694E+0000
 20
 4.75985230405058E+0000
 40
 8.23238239609054E-0002
  0
ARC
  8
1
  6
CONTINUOUS
 62
     1
 10
 7.41070243920694E+0000
 20
 4.75985230405786E+0000
 40
 1.02904779945675E-0001
 50
 3.06937743417919E+0002
 51
 5.82327088725753E+0002
  0
CIRCLE
  8
1
  6
CONTINUOUS
 62
     1
 10
 7.08740694401058E+0000
 20
 5.54035667322023E+0000
 40
 8.23238239609054E-0002
  0
ARC
  8
1
  6
CONTINUOUS
 62
     1
 10
 7.08740694399603E+0000
 20
 5.54035667322023E+0000
 40
 1.02904779945675E-0001
 50
 3.51937743417919E+0002
 51
 6.27327088724822E+0002
  0
CIRCLE
  8
1
  6
CONTINUOUS
 62
     1
 10
 6.30690257484093E+0000
 20
 5.86365216842387E+0000
 40
 8.23238239609054E-0002
  0
ARC
  8
1
  6
CONTINUOUS
 62
     1
 10
 6.30690257484093E+0000
 20
 5.86365216841659E+0000
 40
 1.02904779945675E-0001
 50
 3.96937743417919E+0002
 51
 6.72327088724822E+0002
  0
CIRCLE
  8
1
  6
DASHDOT
 62
     1
 10
 6.30690257499373E+0000
 20
 4.75985230410151E+0000
 40
 9.47119282736821E-0001
  0
CIRCLE
  8
1
  6
DASHDOT
 62
     1
 10
 6.30690257484093E+0000
 20
 4.75985230405786E+0000
 40
 1.10781961432076E+0000
  0
CIRCLE
  8
1
  6
CONTINUOUS
 62
     1
 10
 5.31708897689532E+0000
 20
 6.47076376078621E+0000
 40
 6.92279987197253E-0002
  0
ARC
  8
1
  6
CONTINUOUS
 62
     1
 10
 5.31708897689532E+0000
 20
 6.47076376078621E+0000
 40
 8.26592967787292E-0002
 50
 8.21934700590791E+0001
 51
 3.53062256584875E+0002
  0
CIRCLE
  8
1
  6
CONTINUOUS
 62
     1
 10
 4.32963353410014E+0000
 20
 4.76044076365361E+0000
 40
 6.92279987197253E-0002
  0
ARC
  8
1
  6
CONTINUOUS
 62
     1
 10
 4.32963353410014E+0000
 20
 4.76044076365361E+0000
 40
 8.26592967787292E-0002
 50
 1.42193470059196E+0002
 51
 4.13062256584875E+0002
  0
CIRCLE
  8
1
  6
CONTINUOUS
 62
     1
 10
 5.31708897689532E+0000
 20
 3.05011776652100E+0000
 40
 6.92279987197253E-0002
  0
ARC
  8
1
  6
CONTINUOUS
 62
     1
 10
 5.31708897689532E+0000
 20
 3.05011776652100E+0000
 40
 8.26592967787292E-0002
 50
 2.02193470059196E+0002
 51
 4.73062256584410E+0002
  0
CIRCLE
  8
1
  6
CONTINUOUS
 62
     1
 10
 7.29199986248568E+0000
 20
 3.05011776652100E+0000
 40
 6.92279987197253E-0002
  0
ARC
  8
1
  6
CONTINUOUS
 62
     1
 10
 7.29199986248568E+0000
 20
 3.05011776652100E+0000
 40
 8.26592967787292E-0002
 50
 2.62193470059428E+0002
 51
 5.33062256584875E+0002
  0
CIRCLE
  8
1
  6
CONTINUOUS
 62
     1
 10
 8.27945530558645E+0000
 20
 4.76044076364633E+0000
 40
 6.92279987197253E-0002
  0
ARC
  8
1
  6
CONTINUOUS
 62
     1
 10
 8.27945530528086E+0000
 20
 4.76044076364633E+0000
 40
 8.26592967787292E-0002
 50
 3.22193470059428E+0002
 51
 5.93062256584875E+0002
  0
CIRCLE
  8
1
  6
CONTINUOUS
 62
     1
 10
 7.29199986248568E+0000
 20
 6.47076376078621E+0000
 40
 6.92279987197253E-0002
  0
ARC
  8
1
  6
CONTINUOUS
 62
     1
 10
 7.29199986248568E+0000
 20
 6.47076376077894E+0000
 40
 8.26592967787292E-0002
 50
 3.82193470059894E+0002
 51
 6.53062256585807E+0002
  0
LINE
  8
1
  6
DASHDOT
 62
     1
 10
 2.24786740634590E+0000
 20
 5.08500913112948E+0000
 11
 2.44263042683815E+0000
 21
 5.08500913112948E+0000
  0
LINE
  8
1
  6
DASHDOT
 62
     1
 10
 4.09516514620191E+0000
 20
 5.08500913112948E+0000
 11
 4.30763389583444E+0000
 21
 5.08500913112948E+0000
  0
LINE
  8
1
  6
DASHDOT
 62
     1
 10
 2.24196549663247E+0000
 20
 3.23906664461174E+0000
 11
 2.44263042683815E+0000
 21
 3.23906664461174E+0000
  0
LINE
  8
1
  6
DASHDOT
 62
     1
 10
 4.08926323649212E+0000
 20
 3.23906664461174E+0000
 11
 4.28992816669779E+0000
 21
 3.23906664461174E+0000
  0
LINE
  8
1
  6
DASHDOT
 62
     1
 10
 2.35410178116217E+0000
 20
 5.21517174235487E+0000
 11
 2.35410178116217E+0000
 21
 4.92526410824939E+0000
  0
LINE
  8
1
  6
DASHDOT
 62
     1
 10
 2.35410178116217E+0000
 20
 3.35739629117961E+0000
 11
 2.35410178116217E+0000
 21
 3.07340513940289E+0000
  0
LINE
  8
1
  6
DASHDOT
 62
     1
 10
 4.19549761131202E+0000
 20
 5.22700470701238E+0000
 11
 4.19549761131202E+0000
 21
 4.96667948455433E+0000
  0
LINE
  8
1
  6
DASHDOT
 62
     1
 10
 4.19549761131202E+0000
 20
 3.35739629117961E+0000
 11
 4.19549761131202E+0000
 21
 3.09707106872156E+0000
  0
CIRCLE
  8
1
  6
DASHDOT
 62
     1
 10
 2.35410178116217E+0000
 20
 5.08500913112948E+0000
 40
 6.49210068295361E-0002
  0
ARC
  8
1
  6
DASHDOT
 62
     1
 10
 2.35410178116217E+0000
 20
 5.08500913112948E+0000
 40
 8.26267359661870E-0002
 50
 4.50706482746755E+0001
 51
 3.09736096431036E+0002
  0
CIRCLE
  8
1
  6
DASHDOT
 62
     1
 10
 4.19475956464157E+0000
 20
 5.08500913112948E+0000
 40
 6.49210068295361E-0002
  0
ARC
  8
1
  6
DASHDOT
 62
     1
 10
 4.19475956464157E+0000
 20
 5.08500913112948E+0000
 40
 8.26267359661870E-0002
 50
 4.50706482746755E+0001
 51
 3.09736096431036E+0002
  0
CIRCLE
  8
1
  6
DASHDOT
 62
     1
 10
 2.35410178116217E+0000
 20
 3.23980651362217E+0000
 40
 6.49210068295361E-0002
  0
ARC
  8
1
  6
DASHDOT
 62
     1
 10
 2.35410178116217E+0000
 20
 3.23980651362217E+0000
 40
 8.26267359661870E-0002
 50
 4.50706482746755E+0001
 51
 3.09736096431036E+0002
  0
CIRCLE
  8
1
  6
DASHDOT
 62
     1
 10
 4.19475956464157E+0000
 20
 3.23980651362217E+0000
 40
 6.49210068295361E-0002
  0
ARC
  8
1
  6
DASHDOT
 62
     1
 10
 4.19475956464157E+0000
 20
 3.23980651362217E+0000
 40
 8.26267359661870E-0002
 50
 4.50706482746755E+0001
 51
 3.09736096431036E+0002
  0
LINE
  8
1
  6
CONTINUOUS
 62
     1
 10
 6.30481255699851E+0000
 20
 4.76230960228713E+0000
 11
 6.66044816717476E+0000
 21
 5.62389322324452E+0000
  0
LINE
  8
1
  6
CONTINUOUS
 62
     1
 10
 6.66107031502906E+0000
 20
 5.60988057768554E+0000
 11
 6.66107031502906E+0000
 21
 5.60988057768554E+0000
  0
LINE
  8
1
  6
CONTINUOUS
 62
     1
 10
 6.66107031502906E+0000
 20
 5.60988057768554E+0000
 11
 6.57500047753274E+0000
 21
 5.47311834695574E+0000
  0
LINE
  8
1
  6
CONTINUOUS
 62
     1
 10
 6.57500047753274E+0000
 20
 5.47311834695574E+0000
 11
 6.63080616187654E+0000
 21
 5.45000287564471E+0000
  0
LINE
  8
1
  6
CONTINUOUS
 62
     1
 10
 6.63080616187654E+0000
 20
 5.45000287564471E+0000
 11
 6.66107031502906E+0000
 21
 5.60988057768554E+0000
  0
LINE
  8
1
  6
CONTINUOUS
 62
     1
 10
 6.57500047753274E+0000
 20
 5.47311834695574E+0000
 11
 6.63080616187654E+0000
 21
 5.45000287564471E+0000
  0
LINE
  8
1
  6
CONTINUOUS
 62
     1
 10
 6.59262994356686E+0000
 20
 5.46581598302873E+0000
 11
 6.57898936480342E+0000
 21
 5.47945656179218E+0000
  0
LINE
  8
1
  6
CONTINUOUS
 62
     1
 10
 6.62788887559145E+0000
 20
 5.45121125518926E+0000
 11
 6.58696713933023E+0000
 21
 5.49213299145049E+0000
  0
LINE
  8
1
  6
CONTINUOUS
 62
     1
 10
 6.63382161254412E+0000
 20
 5.46593272242899E+0000
 11
 6.59494491385703E+0000
 21
 5.50480942110880E+0000
  0
LINE
  8
1
  6
CONTINUOUS
 62
     1
 10
 6.63710906336928E+0000
 20
 5.48329947578895E+0000
 11
 6.60292268838384E+0000
 21
 5.51748585076712E+0000
  0
LINE
  8
1
  6
CONTINUOUS
 62
     1
 10
 6.64039651419444E+0000
 20
 5.50066622914892E+0000
 11
 6.61090046291065E+0000
 21
 5.53016228042543E+0000
  0
LINE
  8
1
  6
CONTINUOUS
 62
     1
 10
 6.64368396501959E+0000
 20
 5.51803298250888E+0000
 11
 6.61887823744473E+0000
 21
 5.54283871008374E+0000
  0
LINE
  8
1
  6
CONTINUOUS
 62
     1
 10
 6.64697141584475E+0000
 20
 5.53539973586885E+0000
 11
 6.62685601197154E+0000
 21
 5.55551513974206E+0000
  0
LINE
  8
1
  6
CONTINUOUS
 62
     1
 10
 6.65025886666990E+0000
 20
 5.55276648922882E+0000
 11
 6.63483378649835E+0000
 21
 5.56819156939309E+0000
  0
LINE
  8
1
  6
CONTINUOUS
 62
     1
 10
 6.65354631749506E+0000
 20
 5.57013324258878E+0000
 11
 6.64281156102516E+0000
 21
 5.58086799905141E+0000
  0
LINE
  8
1
  6
CONTINUOUS
 62
     1
 10
 6.65683376832021E+0000
 20
 5.58749999594875E+0000
 11
 6.65078933555196E+0000
 21
 5.59354442870972E+0000
  0
LINE
  8
1
  6
CONTINUOUS
 62
     1
 10
 6.66012121914537E+0000
 20
 5.60486674930871E+0000
 11
 6.65876711007877E+0000
 21
 5.60622085836803E+0000
  0
LINE
  8
1
  6
CONTINUOUS
 62
     1
 10
 6.63321749156603E+0000
 20
 5.46274130742677E+0000
 11
 6.62350379795680E+0000
 21
 5.45302761381754E+0000
  0
LINE
  8
1
  6
CONTINUOUS
 62
     1
 10
 6.63804015095229E+0000
 20
 5.48821817099815E+0000
 11
 6.60889907011733E+0000
 21
 5.45907709016319E+0000
  0
LINE
  8
1
  6
CONTINUOUS
 62
     1
 10
 6.64286281034583E+0000
 20
 5.51369503458409E+0000
 11
 6.59429434227786E+0000
 21
 5.46512656650884E+0000
  0
LINE
  8
1
  6
CONTINUOUS
 62
     1
 10
 6.64768546973210E+0000
 20
 5.53917189815547E+0000
 11
 6.57968961443839E+0000
 21
 5.47117604285449E+0000
  0
LINE
  8
1
  6
CONTINUOUS
 62
     1
 10
 6.65250812912564E+0000
 20
 5.56464876172686E+0000
 11
 6.59880951220111E+0000
 21
 5.51095014480234E+0000
  0
LINE
  8
1
  6
CONTINUOUS
 62
     1
 10
 6.65733078851918E+0000
 20
 5.59012562530552E+0000
 11
 6.63387796891038E+0000
 21
 5.56667280570400E+0000
  0
LINE
  8
1
  6
CONTINUOUS
 62
     1
 10
 6.30481255699851E+0000
 20
 4.76230960228713E+0000
 11
 7.07924865910900E+0000
 21
 5.54054825913045E+0000
  0
LINE
  8
1
  6
CONTINUOUS
 62
     1
 10
 7.08417530800943E+0000
 20
 5.53381632141827E+0000
 11
 7.08417530800943E+0000
 21
 5.53381632141827E+0000
  0
LINE
  8
1
  6
CONTINUOUS
 62
     1
 10
 7.08417530800943E+0000
 20
 5.53381632141827E+0000
 11
 6.95232050690538E+0000
 21
 5.44040199646406E+0000
  0
LINE
  8
1
  6
CONTINUOUS
 62
     1
 10
 6.95232050690538E+0000
 20
 5.44040199646406E+0000
 11
 6.99503232856659E+0000
 21
 5.39769017480285E+0000
  0
LINE
  8
1
  6
CONTINUOUS
 62
     1
 10
 6.99503232856659E+0000
 20
 5.39769017480285E+0000
 11
 7.08417530800943E+0000
 21
 5.53381632141827E+0000
  0
LINE
  8
1
  6
CONTINUOUS
 62
     1
 10
 6.95232050690538E+0000
 20
 5.44040199646406E+0000
 11
 6.99503232856659E+0000
 21
 5.39769017480285E+0000
  0
LINE
  8
1
  6
CONTINUOUS
 62
     1
 10
 6.99911894561956E+0000
 20
 5.40393065986427E+0000
 11
 6.95836517897260E+0000
 21
 5.44468442650395E+0000
  0
LINE
  8
1
  6
CONTINUOUS
 62
     1
 10
 7.00729217969638E+0000
 20
 5.41641162996530E+0000
 11
 6.97045452309976E+0000
 21
 5.45324928656919E+0000
  0
LINE
  8
1
  6
CONTINUOUS
 62
     1
 10
 7.01546541378048E+0000
 20
 5.42889260006632E+0000
 11
 6.98254386721965E+0000
 21
 5.46181414663442E+0000
  0
LINE
  8
1
  6
CONTINUOUS
 62
     1
 10
 7.02363864786457E+0000
 20
 5.44137357016734E+0000
 11
 6.99463321133953E+0000
 21
 5.47037900669238E+0000
  0
LINE
  8
1
  6
CONTINUOUS
 62
     1
 10
 7.03181188194867E+0000
 20
 5.45385454026837E+0000
 11
 7.00672255545942E+0000
 21
 5.47894386675762E+0000
  0
LINE
  8
1
  6
CONTINUOUS
 62
     1
 10
 7.03998511603277E+0000
 20
 5.46633551036939E+0000
 11
 7.01881189957930E+0000
 21
 5.48750872682285E+0000
  0
LINE
  8
1
  6
CONTINUOUS
 62
     1
 10
 7.04815835011686E+0000
 20
 5.47881648047041E+0000
 11
 7.03090124370647E+0000
 21
 5.49607358688809E+0000
  0
LINE
  8
1
  6
CONTINUOUS
 62
     1
 10
 7.05633158420096E+0000
 20
 5.49129745057144E+0000
 11
 7.04299058782635E+0000
 21
 5.50463844695332E+0000
  0
LINE
  8
1
  6
CONTINUOUS
 62
     1
 10
 7.06450481828506E+0000
 20
 5.50377842067974E+0000
 11
 7.05507993194624E+0000
 21
 5.51320330701856E+0000
  0
LINE
  8
1
  6
CONTINUOUS
 62
     1
 10
 7.07267805236916E+0000
 20
 5.51625939078076E+0000
 11
 7.06716927606612E+0000
 21
 5.52176816707652E+0000
  0
LINE
  8
1
  6
CONTINUOUS
 62
     1
 10
 7.08085128645325E+0000
 20
 5.52874036088178E+0000
 11
 7.07925862019329E+0000
 21
 5.53033302714175E+0000
  0
LINE
  8
1
  6
CONTINUOUS
 62
     1
 10
 7.01462633860501E+0000
 20
 5.42761128694110E+0000
 11
 6.98986877752031E+0000
 21
 5.40285372584913E+0000
  0
LINE
  8
1
  6
CONTINUOUS
 62
     1
 10
 7.05381435869640E+0000
 20
 5.48745351121033E+0000
 11
 6.97954167542775E+0000
 21
 5.41318082794169E+0000
  0
LINE
  8
1
  6
CONTINUOUS
 62
     1
 10
 7.06821729029616E+0000
 20
 5.52251064699522E+0000
 11
 6.96921457333519E+0000
 21
 5.42350793003425E+0000
  0
LINE
  8
1
  6
CONTINUOUS
 62
     1
 10
 6.99737123796513E+0000
 20
 5.47231879884930E+0000
 11
 6.95888747124263E+0000
 21
 5.43383503212681E+0000
  0
LINE
  8
1
  6
CONTINUOUS
 62
     1
 10
 5.31410193287593E+0000
 20
 3.05012952417019E+0000
 11
 5.31410193287593E+0000
 21
 3.05012952417019E+0000
  0
LINE
  8
1
  6
CONTINUOUS
 62
     1
 10
 5.31410193287593E+0000
 20
 3.05012952417019E+0000
 11
 5.41728648421122E+0000
 21
 3.17448736690130E+0000
  0
LINE
  8
1
  6
CONTINUOUS
 62
     1
 10
 5.41728648421122E+0000
 20
 3.17448736690130E+0000
 11
 5.36497539968695E+0000
 21
 3.20468918563711E+0000
  0
LINE
  8
1
  6
CONTINUOUS
 62
     1
 10
 5.36497539968695E+0000
 20
 3.20468918563711E+0000
 11
 5.31410193287593E+0000
 21
 3.05012952417019E+0000
  0
LINE
  8
1
  6
CONTINUOUS
 62
     1
 10
 5.41728648421122E+0000
 20
 3.17448736690130E+0000
 11
 5.36497539968695E+0000
 21
 3.20468918563711E+0000
  0
LINE
  8
1
  6
CONTINUOUS
 62
     1
 10
 5.31878500479797E+0000
 20
 3.05577355434434E+0000
 11
 5.31665933678596E+0000
 21
 3.05789922235272E+0000
  0
LINE
  8
1
  6
CONTINUOUS
 62
     1
 10
 5.32815114863479E+0000
 20
 3.06706161469265E+0000
 11
 5.32177414460602E+0000
 21
 3.07343861871777E+0000
  0
LINE
  8
1
  6
CONTINUOUS
 62
     1
 10
 5.33751729247160E+0000
 20
 3.07834967504095E+0000
 11
 5.32688895242609E+0000
 21
 3.08897801508283E+0000
  0
LINE
  8
1
  6
CONTINUOUS
 62
     1
 10
 5.34688343630842E+0000
 20
 3.08963773538562E+0000
 11
 5.33200376024615E+0000
 21
 3.10451741144789E+0000
  0
LINE
  8
1
  6
CONTINUOUS
 62
     1
 10
 5.35624958014523E+0000
 20
 3.10092579573393E+0000
 11
 5.33711856806622E+0000
 21
 3.12005680781294E+0000
  0
LINE
  8
1
  6
CONTINUOUS
 62
     1
 10
 5.36561572398932E+0000
 20
 3.11221385608224E+0000
 11
 5.34223337589356E+0000
 21
 3.13559620417800E+0000
  0
LINE
  8
1
  6
CONTINUOUS
 62
     1
 10
 5.37498186782614E+0000
 20
 3.12350191643054E+0000
 11
 5.34734818371362E+0000
 21
 3.15113560054306E+0000
  0
LINE
  8
1
  6
CONTINUOUS
 62
     1
 10
 5.38434801166295E+0000
 20
 3.13478997677521E+0000
 11
 5.35246299153368E+0000
 21
 3.16667499690811E+0000
  0
LINE
  8
1
  6
CONTINUOUS
 62
     1
 10
 5.39371415549977E+0000
 20
 3.14607803712352E+0000
 11
 5.35757779935375E+0000
 21
 3.18221439327317E+0000
  0
LINE
  8
1
  6
CONTINUOUS
 62
     1
 10
 5.40308029933658E+0000
 20
 3.15736609747182E+0000
 11
 5.36269260717381E+0000
 21
 3.19775378963823E+0000
  0
LINE
  8
1
  6
CONTINUOUS
 62
     1
 10
 5.41244644317339E+0000
 20
 3.16865415782013E+0000
 11
 5.39203330328746E+0000
 21
 3.18906729770606E+0000
  0
LINE
  8
1
  6
CONTINUOUS
 62
     1
 10
 5.36442936548701E+0000
 20
 3.11078405887747E+0000
 11
 5.31916890911816E+0000
 21
 3.06552360250862E+0000
  0
LINE
  8
1
  6
CONTINUOUS
 62
     1
 10
 5.41106845193281E+0000
 20
 3.17807734950475E+0000
 11
 5.32930286161718E+0000
 21
 3.09631175918912E+0000
  0
LINE
  8
1
  6
CONTINUOUS
 62
     1
 10
 5.39797421117692E+0000
 20
 3.18563731293762E+0000
 11
 5.33943681410892E+0000
 21
 3.12709991586962E+0000
  0
LINE
  8
1
  6
CONTINUOUS
 62
     1
 10
 5.38487997041375E+0000
 20
 3.19319727636321E+0000
 11
 5.34957076660794E+0000
 21
 3.15788807255012E+0000
  0
LINE
  8
1
  6
CONTINUOUS
 62
     1
 10
 5.37178572965786E+0000
 20
 3.20075723978880E+0000
 11
 5.35970471909968E+0000
 21
 3.18867622923426E+0000
  0
LINE
  8
1
  6
CONTINUOUS
 62
     1
 10
 6.30575263207720E+0000
 20
 4.76304285757215E+0000
 11
 5.38120454413729E+0000
 21
 3.17630831788119E+0000
  0
LINE
  8
1
  6
CONTINUOUS
 62
     1
 10
 6.30907526613009E+0000
 20
 4.75877713652153E+0000
 11
 5.55932089757698E+0000
 21
 5.07041921515338E+0000
  0
LINE
  8
1
  6
CONTINUOUS
 62
     1
 10
 5.55932089757698E+0000
 20
 5.07041921515338E+0000
 11
 7.02141684370145E+0000
 21
 4.46934729407076E+0000
  0
LINE
  8
1
  6
CONTINUOUS
 62
     1
 10
 5.56396277621388E+0000
 20
 5.06097333825164E+0000
 11
 5.56396277621388E+0000
 21
 5.06097333825164E+0000
  0
LINE
  8
1
  6
CONTINUOUS
 62
     1
 10
 5.56396277621388E+0000
 20
 5.06097333825164E+0000
 11
 5.70072500695824E+0000
 21
 4.97490350074077E+0000
  0
LINE
  8
1
  6
CONTINUOUS
 62
     1
 10
 5.70072500695824E+0000
 20
 4.97490350074077E+0000
 11
 5.72384047826927E+0000
 21
 5.03070918509184E+0000
  0
LINE
  8
1
  6
CONTINUOUS
 62
     1
 10
 5.72384047826927E+0000
 20
 5.03070918509184E+0000
 11
 5.56396277621388E+0000
 21
 5.06097333825164E+0000
  0
LINE
  8
1
  6
CONTINUOUS
 62
     1
 10
 5.70072500695824E+0000
 20
 4.97490350074077E+0000
 11
 5.72384047826927E+0000
 21
 5.03070918509184E+0000
  0
LINE
  8
1
  6
CONTINUOUS
 62
     1
 10
 5.59182410666835E+0000
 20
 5.04343910988973E+0000
 11
 5.57670120800321E+0000
 21
 5.05856200855487E+0000
  0
LINE
  8
1
  6
CONTINUOUS
 62
     1
 10
 5.64754676757002E+0000
 20
 5.00837065317319E+0000
 11
 5.60217807158187E+0000
 21
 5.05373934916861E+0000
  0
LINE
  8
1
  6
CONTINUOUS
 62
     1
 10
 5.70100123959855E+0000
 20
 4.97557038532977E+0000
 11
 5.62765493515326E+0000
 21
 5.04891668977507E+0000
  0
LINE
  8
1
  6
CONTINUOUS
 62
     1
 10
 5.70705071594421E+0000
 20
 4.99017511316924E+0000
 11
 5.65313179873192E+0000
 21
 5.04409403038153E+0000
  0
LINE
  8
1
  6
CONTINUOUS
 62
     1
 10
 5.71310019228986E+0000
 20
 5.00477984100871E+0000
 11
 5.67860866231058E+0000
 21
 5.03927137099527E+0000
  0
LINE
  8
1
  6
CONTINUOUS
 62
     1
 10
 5.71914966863551E+0000
 20
 5.01938456884818E+0000
 11
 5.70408552588196E+0000
 21
 5.03444871160173E+0000
  0
LINE
  8
1
  6
CONTINUOUS
 62
     1
 10
 5.70802737087070E+0000
 20
 4.99253296674578E+0000
 11
 5.69438679212180E+0000
 21
 4.97889238799689E+0000
  0
LINE
  8
1
  6
CONTINUOUS
 62
     1
 10
 5.72263209870289E+0000
 20
 5.02779189876310E+0000
 11
 5.68171036247077E+0000
 21
 4.98687016253098E+0000
  0
LINE
  8
1
  6
CONTINUOUS
 62
     1
 10
 5.70791063149954E+0000
 20
 5.03372463575215E+0000
 11
 5.66903393281245E+0000
 21
 4.99484793705778E+0000
  0
LINE
  8
1
  6
CONTINUOUS
 62
     1
 10
 5.69054387813958E+0000
 20
 5.03701208657003E+0000
 11
 5.65635750315414E+0000
 21
 5.00282571158459E+0000
  0
LINE
  8
1
  6
CONTINUOUS
 62
     1
 10
 5.67317712477961E+0000
 20
 5.04029953739519E+0000
 11
 5.64368107349583E+0000
 21
 5.01080348611140E+0000
  0
LINE
  8
1
  6
CONTINUOUS
 62
     1
 10
 5.65581037141965E+0000
 20
 5.04358698822034E+0000
 11
 5.63100464383751E+0000
 21
 5.01878126063821E+0000
  0
LINE
  8
1
  6
CONTINUOUS
 62
     1
 10
 5.63844361805968E+0000
 20
 5.04687443905277E+0000
 11
 5.61832821418648E+0000
 21
 5.02675903517229E+0000
  0
LINE
  8
1
  6
CONTINUOUS
 62
     1
 10
 5.62107686469972E+0000
 20
 5.05016188987793E+0000
 11
 5.60565178452816E+0000
 21
 5.03473680969910E+0000
  0
LINE
  8
1
  6
CONTINUOUS
 62
     1
 10
 5.60371011133975E+0000
 20
 5.05344934070308E+0000
 11
 5.59297535486257E+0000
 21
 5.04271458422591E+0000
  0
LINE
  8
1
  6
CONTINUOUS
 62
     1
 10
 5.58634335798706E+0000
 20
 5.05673679152824E+0000
 11
 5.58029892521154E+0000
 21
 5.05069235875271E+0000
  0
LINE
  8
1
  6
CONTINUOUS
 62
     1
 10
 5.56897660462710E+0000
 20
 5.06002424235339E+0000
 11
 5.56762249555322E+0000
 21
 5.05867013328680E+0000
  0
LINE
  8
1
  6
CONTINUOUS
 62
     1
 10
 7.01373876175785E+0000
 20
 4.46968248475605E+0000
 11
 7.01373876175785E+0000
 21
 4.46968248475605E+0000
  0
LINE
  8
1
  6
CONTINUOUS
 62
     1
 10
 7.01373876175785E+0000
 20
 4.46968248475605E+0000
 11
 6.87697653101350E+0000
 21
 4.55575232225965E+0000
  0
LINE
  8
1
  6
CONTINUOUS
 62
     1
 10
 6.87697653101350E+0000
 20
 4.55575232225965E+0000
 11
 6.85386105970247E+0000
 21
 4.49994663791585E+0000
  0
LINE
  8
1
  6
CONTINUOUS
 62
     1
 10
 6.85386105970247E+0000
 20
 4.49994663791585E+0000
 11
 7.01373876175785E+0000
 21
 4.46968248475605E+0000
  0
LINE
  8
1
  6
CONTINUOUS
 62
     1
 10
 6.87697653101350E+0000
 20
 4.55575232225965E+0000
 11
 6.85386105970247E+0000
 21
 4.49994663791585E+0000
  0
LINE
  8
1
  6
CONTINUOUS
 62
     1
 10
 6.86659949150635E+0000
 20
 4.49753530821908E+0000
 11
 6.85688579788257E+0000
 21
 4.50724900184287E+0000
  0
LINE
  8
1
  6
CONTINUOUS
 62
     1
 10
 6.89207635508501E+0000
 20
 4.49271264883282E+0000
 11
 6.86293527422822E+0000
 21
 4.52185372968233E+0000
  0
LINE
  8
1
  6
CONTINUOUS
 62
     1
 10
 6.91755321866367E+0000
 20
 4.48788998943928E+0000
 11
 6.86898475057387E+0000
 21
 4.53645845752180E+0000
  0
LINE
  8
1
  6
CONTINUOUS
 62
     1
 10
 6.94303008223505E+0000
 20
 4.48306733004574E+0000
 11
 6.87503422691952E+0000
 21
 4.55106318536127E+0000
  0
LINE
  8
1
  6
CONTINUOUS
 62
     1
 10
 6.96850694581371E+0000
 20
 4.47824467065220E+0000
 11
 6.91480832888919E+0000
 21
 4.53194328757672E+0000
  0
LINE
  8
1
  6
CONTINUOUS
 62
     1
 10
 6.99398380939238E+0000
 20
 4.47342201126594E+0000
 11
 6.97053098978358E+0000
 21
 4.49687483086745E+0000
  0
LINE
  8
1
  6
CONTINUOUS
 62
     1
 10
 7.00740054691414E+0000
 20
 4.47367137201218E+0000
 11
 7.00505538506695E+0000
 21
 4.47132621015771E+0000
  0
LINE
  8
1
  6
CONTINUOUS
 62
     1
 10
 6.99472411726310E+0000
 20
 4.48164914654626E+0000
 11
 6.98768863170699E+0000
 21
 4.47461366099014E+0000
  0
LINE
  8
1
  6
CONTINUOUS
 62
     1
 10
 6.98204768760479E+0000
 20
 4.48962692106579E+0000
 11
 6.97032187835430E+0000
 21
 4.47790111181530E+0000
  0
LINE
  8
1
  6
CONTINUOUS
 62
     1
 10
 6.96937125794648E+0000
 20
 4.49760469559260E+0000
 11
 6.95295512498706E+0000
 21
 4.48118856263318E+0000
  0
LINE
  8
1
  6
CONTINUOUS
 62
     1
 10
 6.95669482829544E+0000
 20
 4.50558247012668E+0000
 11
 6.93558837162709E+0000
 21
 4.48447601346561E+0000
  0
LINE
  8
1
  6
CONTINUOUS
 62
     1
 10
 6.94401839862985E+0000
 20
 4.51356024465349E+0000
 11
 6.91822161827440E+0000
 21
 4.48776346429077E+0000
  0
LINE
  8
1
  6
CONTINUOUS
 62
     1
 10
 6.93134196897881E+0000
 20
 4.52153801918757E+0000
 11
 6.90085486490716E+0000
 21
 4.49105091511592E+0000
  0
LINE
  8
1
  6
CONTINUOUS
 62
     1
 10
 6.91866553932050E+0000
 20
 4.52951579370711E+0000
 11
 6.88348811155447E+0000
 21
 4.49433836594108E+0000
  0
LINE
  8
1
  6
CONTINUOUS
 62
     1
 10
 6.90598910966219E+0000
 20
 4.53749356823391E+0000
 11
 6.86612135819450E+0000
 21
 4.49762581677351E+0000
  0
LINE
  8
1
  6
CONTINUOUS
 62
     1
 10
 6.89331268001115E+0000
 20
 4.54547134276800E+0000
 11
 6.85815537896269E+0000
 21
 4.51031404172682E+0000
  0
LINE
  8
1
  6
CONTINUOUS
 62
     1
 10
 6.88063625034556E+0000
 20
 4.55344911729480E+0000
 11
 6.87276010680216E+0000
 21
 4.54557297375140E+0000
  0
LINE
  8
1
  6
CONTINUOUS
 62
     1
 10
 5.30919385858579E+0000
 20
 3.04234274867486E+0000
 11
 4.62282455615787E+0000
 21
 3.04234274867486E+0000
  0
LINE
  8
1
  6
CONTINUOUS
 62
     1
 10
 8.19736740754161E+0000
 20
 4.75956573606527E+0000
 11
 8.19736740754161E+0000
 21
 5.13127621843887E+0000
  0
LINE
  8
1
  6
CONTINUOUS
 62
     1
 10
 8.19736740754161E+0000
 20
 5.13127621843887E+0000
 11
 8.36350280242914E+0000
 21
 5.13127621843887E+0000
  0
LINE
  8
1
  6
CONTINUOUS
 62
     1
 10
 8.36350280242914E+0000
 20
 5.13127621843887E+0000
 11
 8.36350280242914E+0000
 21
 4.75232462277199E+0000
  0
LINE
  8
1
  6
CONTINUOUS
 62
     1
 10
 7.08121864512941E+0000
 20
 4.08197312955599E+0000
 11
 7.90467234153039E+0000
 21
 4.08197312955599E+0000
  0
LINE
  8
1
  6
CONTINUOUS
 62
     1
 10
 7.90467234153039E+0000
 20
 4.08197312955599E+0000
 11
 7.90467234153039E+0000
 21
 3.87680825291318E+0000
  0
LINE
  8
1
  6
CONTINUOUS
 62
     1
 10
 7.90467234153039E+0000
 20
 3.87680825291318E+0000
 11
 7.08844192316610E+0000
 21
 3.87680825291318E+0000
  0
LINE
  8
1
  6
CONTINUOUS
 62
     1
 10
 5.45096751419624E+0000
 20
 5.03740093170200E+0000
 11
 4.55187616129115E+0000
 21
 5.03740093170200E+0000
  0
LINE
  8
1
  6
CONTINUOUS
 62
     1
 10
 4.55187616129115E+0000
 20
 5.03740093170200E+0000
 11
 4.55187616129115E+0000
 21
 5.20603337437205E+0000
  0
LINE
  8
1
  6
CONTINUOUS
 62
     1
 10
 4.55187616129115E+0000
 20
 5.20603337437205E+0000
 11
 5.46256869293575E+0000
 21
 5.20603337437205E+0000
  0
LINE
  8
1
  6
CONTINUOUS
 62
     1
 10
 7.90467234153039E+0000
 20
 3.87680825291318E+0000
 11
 7.90467234153039E+0000
 21
 3.47092463064837E+0000
  0
LINE
  8
1
  6
CONTINUOUS
 62
     1
 10
 8.36350280242914E+0000
 20
 5.13127621843887E+0000
 11
 8.92578092885378E+0000
 21
 5.13127621843887E+0000
  0
LINE
  8
1
  6
CONTINUOUS
 62
     1
 10
 2.24641408927346E+0000
 20
 5.08795070925407E+0000
 11
 1.55021671401664E+0000
 21
 5.08795070925407E+0000
  0
LINE
  8
1
  6
CONTINUOUS
 62
     1
 10
 1.55021671401664E+0000
 20
 5.08795070925407E+0000
 11
 1.55021671401664E+0000
 21
 3.23695508976380E+0000
  0
LINE
  8
1
  6
CONTINUOUS
 62
     1
 10
 1.55021671401664E+0000
 20
 3.23695508976380E+0000
 11
 2.25852186971315E+0000
 21
 3.23695508976380E+0000
  0
LINE
  8
1
  6
CONTINUOUS
 62
     1
 10
 2.35538411322705E+0000
 20
 5.19112095689343E+0000
 11
 2.35538411322705E+0000
 21
 5.75552289989719E+0000
  0
LINE
  8
1
  6
CONTINUOUS
 62
     1
 10
 2.35538411322705E+0000
 20
 5.75552289989719E+0000
 11
 4.19576673999109E+0000
 21
 5.75552289989719E+0000
  0
LINE
  8
1
  6
CONTINUOUS
 62
     1
 10
 4.19576673999109E+0000
 20
 5.75552289989719E+0000
 11
 4.19576673999109E+0000
 21
 5.20932747118059E+0000
  0
LINE
  8
1
  6
CONTINUOUS
 62
     1
 10
 4.19395736319711E+0000
 20
 3.32200283279963E+0000
 11
 3.67601983841087E+0000
 21
 3.32200283279963E+0000
  0
LINE
  8
1
  6
CONTINUOUS
 62
     1
 10
 3.67601983841087E+0000
 20
 3.32200283279963E+0000
 11
 3.67601983841087E+0000
 21
 3.16175086277872E+0000
  0
LINE
  8
1
  6
CONTINUOUS
 62
     1
 10
 3.67601983841087E+0000
 20
 3.16175086277872E+0000
 11
 4.19395736319711E+0000
 21
 3.16175086277872E+0000
  0
LINE
  8
1
  6
CONTINUOUS
 62
     1
 10
 3.67601983841087E+0000
 20
 3.16175086277872E+0000
 11
 3.67601983841087E+0000
 21
 2.82842676513246E+0000
  0
LINE
  8
1
  6
CONTINUOUS
 62
     1
 10
 4.55187616129115E+0000
 20
 5.20603337437205E+0000
 11
 4.55187616129115E+0000
 21
 5.74854371527181E+0000
  0
LINE
  8
1
  6
CONTINUOUS
 62
     1
 10
 3.78369880537866E+0000
 20
 4.16210373007198E+0000
 11
 4.71924015002878E+0000
 21
 4.16210373007198E+0000
  0
LINE
  8
1
  6
CONTINUOUS
 62
     1
 10
 4.71924015002878E+0000
 20
 4.16210373007198E+0000
 11
 4.71924015002878E+0000
 21
 4.75819567283179E+0000
  0
LINE
  8
1
  6
CONTINUOUS
 62
     1
 10
 4.71924015002878E+0000
 20
 4.75819567283179E+0000
 11
 5.62306822874234E+0000
 21
 4.75819567283179E+0000
  0
LINE
  8
1
  6
CONTINUOUS
 62
     1
 10
 7.30658685444359E+0000
 20
 4.76094256027136E+0000
 11
 8.13906008485355E+0000
 21
 4.76094256027136E+0000
  0
LINE
  8
1
  6
CONTINUOUS
 62
     1
 10
 8.13906008485355E+0000
 20
 4.76094256027136E+0000
 11
 8.13906008485355E+0000
 21
 2.09839854927850E+0000
  0
LINE
  8
1
  6
CONTINUOUS
 62
     1
 10
 6.30419244611403E+0000
 20
 5.50889045284566E+0000
 11
 6.30419244611403E+0000
 21
 6.19240921387245E+0000
  0
LINE
  8
1
  6
CONTINUOUS
 62
     1
 10
 6.30419244611403E+0000
 20
 6.19240921387245E+0000
 11
 8.57961927588622E+0000
 21
 6.19240921387245E+0000
  0
LINE
  8
1
  6
CONTINUOUS
 62
     1
 10
 3.27557555072781E+0000
 20
 4.15774871592293E+0000
 11
 2.74437834657510E+0000
 21
 4.69025751812296E+0000
  0
LINE
  8
1
  6
CONTINUOUS
 62
     1
 10
 2.74437834657510E+0000
 20
 4.69025751812296E+0000
 11
 3.79091612193588E+0000
 21
 3.64113569885740E+0000
  0
LINE
  8
1
  6
CONTINUOUS
 62
     1
 10
 2.75686794543799E+0000
 20
 4.67224053373502E+0000
 11
 2.75686794543799E+0000
 21
 4.67224053373502E+0000
  0
LINE
  8
1
  6
CONTINUOUS
 62
     1
 10
 2.75686794543799E+0000
 20
 4.67224053373502E+0000
 11
 2.85028227039948E+0000
 21
 4.54038573261641E+0000
  0
LINE
  8
1
  6
CONTINUOUS
 62
     1
 10
 2.85028227039948E+0000
 20
 4.54038573261641E+0000
 11
 2.89299409206069E+0000
 21
 4.58309755427763E+0000
  0
LINE
  8
1
  6
CONTINUOUS
 62
     1
 10
 2.89299409206069E+0000
 20
 4.58309755427763E+0000
 11
 2.75686794543799E+0000
 21
 4.67224053373502E+0000
  0
LINE
  8
1
  6
CONTINUOUS
 62
     1
 10
 2.85028227039948E+0000
 20
 4.54038573261641E+0000
 11
 2.89299409206069E+0000
 21
 4.58309755427763E+0000
  0
LINE
  8
1
  6
CONTINUOUS
 62
     1
 10
 2.85544582144576E+0000
 20
 4.54554928366269E+0000
 11
 2.82518634633016E+0000
 21
 4.57580875877466E+0000
  0
LINE
  8
1
  6
CONTINUOUS
 62
     1
 10
 2.86577292353832E+0000
 20
 4.55587638575525E+0000
 11
 2.77499449819516E+0000
 21
 4.64665481109841E+0000
  0
LINE
  8
1
  6
CONTINUOUS
 62
     1
 10
 2.87610002563088E+0000
 20
 4.56620348784782E+0000
 11
 2.79509842845437E+0000
 21
 4.64720508502796E+0000
  0
LINE
  8
1
  6
CONTINUOUS
 62
     1
 10
 2.88642712772344E+0000
 20
 4.57653058994038E+0000
 11
 2.85494065273815E+0000
 21
 4.60801706492930E+0000
  0
LINE
  8
1
  6
CONTINUOUS
 62
     1
 10
 2.88675360700654E+0000
 20
 4.58718417131604E+0000
 11
 2.84599984037050E+0000
 21
 4.54643040467636E+0000
  0
LINE
  8
1
  6
CONTINUOUS
 62
     1
 10
 2.87427263690552E+0000
 20
 4.59535740540014E+0000
 11
 2.83743498030526E+0000
 21
 4.55851974879624E+0000
  0
LINE
  8
1
  6
CONTINUOUS
 62
     1
 10
 2.86179166680449E+0000
 20
 4.60353063948423E+0000
 11
 2.82887012024003E+0000
 21
 4.57060909291613E+0000
  0
LINE
  8
1
  6
CONTINUOUS
 62
     1
 10
 2.84931069670347E+0000
 20
 4.61170387356833E+0000
 11
 2.82030526017843E+0000
 21
 4.58269843704329E+0000
  0
LINE
  8
1
  6
CONTINUOUS
 62
     1
 10
 2.83682972660245E+0000
 20
 4.61987710765243E+0000
 11
 2.81174040011319E+0000
 21
 4.59478778116318E+0000
  0
LINE
  8
1
  6
CONTINUOUS
 62
     1
 10
 2.82434875650142E+0000
 20
 4.62805034173653E+0000
 11
 2.80317554004796E+0000
 21
 4.60687712528306E+0000
  0
LINE
  8
1
  6
CONTINUOUS
 62
     1
 10
 2.81186778640040E+0000
 20
 4.63622357582062E+0000
 11
 2.79461067998636E+0000
 21
 4.61896646940295E+0000
  0
LINE
  8
1
  6
CONTINUOUS
 62
     1
 10
 2.79938681629937E+0000
 20
 4.64439680990472E+0000
 11
 2.78604581992113E+0000
 21
 4.63105581352283E+0000
  0
LINE
  8
1
  6
CONTINUOUS
 62
     1
 10
 2.78690584620199E+0000
 20
 4.65257004399609E+0000
 11
 2.77748095985589E+0000
 21
 4.64314515765000E+0000
  0
LINE
  8
1
  6
CONTINUOUS
 62
     1
 10
 2.77442487610097E+0000
 20
 4.66074327808019E+0000
 11
 2.76891609979430E+0000
 21
 4.65523450176988E+0000
  0
LINE
  8
1
  6
CONTINUOUS
 62
     1
 10
 2.76194390599994E+0000
 20
 4.66891651216429E+0000
 11
 2.76035123972906E+0000
 21
 4.66732384588977E+0000
  0
LINE
  8
1
  6
CONTINUOUS
 62
     1
 10
 4.10844489194278E+0000
 20
 3.63202471841214E+0000
 11
 4.10844489194278E+0000
 21
 3.63202471841214E+0000
  0
LINE
  8
1
  6
CONTINUOUS
 62
     1
 10
 3.80727456243403E+0000
 20
 3.31160972685029E+0000
 11
 3.80727456243403E+0000
 21
 3.31160972685029E+0000
  0
LINE
  8
1
  6
CONTINUOUS
 62
     1
 10
 3.77633843900912E+0000
 20
 3.64611280402460E+0000
 11
 3.77633843900912E+0000
 21
 3.64611280402460E+0000
  0
LINE
  8
1
  6
CONTINUOUS
 62
     1
 10
 3.77633843900912E+0000
 20
 3.64611280402460E+0000
 11
 3.68292411404764E+0000
 21
 3.77796760514320E+0000
  0
LINE
  8
1
  6
CONTINUOUS
 62
     1
 10
 3.68292411404764E+0000
 20
 3.77796760514320E+0000
 11
 3.64021229238642E+0000
 21
 3.73525578348199E+0000
  0
LINE
  8
1
  6
CONTINUOUS
 62
     1
 10
 3.64021229238642E+0000
 20
 3.73525578348199E+0000
 11
 3.77633843900912E+0000
 21
 3.64611280402460E+0000
  0
LINE
  8
1
  6
CONTINUOUS
 62
     1
 10
 3.68292411404764E+0000
 20
 3.77796760514320E+0000
 11
 3.64021229238642E+0000
 21
 3.73525578348199E+0000
  0
LINE
  8
1
  6
CONTINUOUS
 62
     1
 10
 3.67013340452831E+0000
 20
 3.71566177343266E+0000
 11
 3.64537584343270E+0000
 21
 3.74041933452827E+0000
  0
LINE
  8
1
  6
CONTINUOUS
 62
     1
 10
 3.72997562881210E+0000
 20
 3.67647375333399E+0000
 11
 3.65570294552526E+0000
 21
 3.75074643662083E+0000
  0
LINE
  8
1
  6
CONTINUOUS
 62
     1
 10
 3.76503276458607E+0000
 20
 3.66207082174515E+0000
 11
 3.66603004761782E+0000
 21
 3.76107353871339E+0000
  0
LINE
  8
1
  6
CONTINUOUS
 62
     1
 10
 3.71484091645107E+0000
 20
 3.73291687406527E+0000
 11
 3.67635714971038E+0000
 21
 3.77140064080595E+0000
  0
LINE
  8
1
  6
CONTINUOUS
 62
     1
 10
 3.77205600897651E+0000
 20
 3.65215747608454E+0000
 11
 3.77009795395497E+0000
 21
 3.65019942106301E+0000
  0
LINE
  8
1
  6
CONTINUOUS
 62
     1
 10
 3.76349114891127E+0000
 20
 3.66424682020443E+0000
 11
 3.75761698385395E+0000
 21
 3.65837265514710E+0000
  0
LINE
  8
1
  6
CONTINUOUS
 62
     1
 10
 3.75492628884604E+0000
 20
 3.67633616432431E+0000
 11
 3.74513601375293E+0000
 21
 3.66654588923120E+0000
  0
LINE
  8
1
  6
CONTINUOUS
 62
     1
 10
 3.74636142878444E+0000
 20
 3.68842550844784E+0000
 11
 3.73265504365190E+0000
 21
 3.67471912331530E+0000
  0
LINE
  8
1
  6
CONTINUOUS
 62
     1
 10
 3.73779656871920E+0000
 20
 3.70051485256772E+0000
 11
 3.72017407355088E+0000
 21
 3.68289235739940E+0000
  0
LINE
  8
1
  6
CONTINUOUS
 62
     1
 10
 3.72923170865397E+0000
 20
 3.71260419669125E+0000
 11
 3.70769310344986E+0000
 21
 3.69106559148349E+0000
  0
LINE
  8
1
  6
CONTINUOUS
 62
     1
 10
 3.72066684859237E+0000
 20
 3.72469354081113E+0000
 11
 3.69521213334519E+0000
 21
 3.69923882556759E+0000
  0
LINE
  8
1
  6
CONTINUOUS
 62
     1
 10
 3.71210198852714E+0000
 20
 3.73678288493102E+0000
 11
 3.68273116324417E+0000
 21
 3.70741205965169E+0000
  0
LINE
  8
1
  6
CONTINUOUS
 62
     1
 10
 3.70353712846190E+0000
 20
 3.74887222905454E+0000
 11
 3.67025019315042E+0000
 21
 3.71558529373942E+0000
  0
LINE
  8
1
  6
CONTINUOUS
 62
     1
 10
 3.69497226839667E+0000
 20
 3.76096157317443E+0000
 11
 3.65776922304940E+0000
 21
 3.72375852782352E+0000
  0
LINE
  8
1
  6
CONTINUOUS
 62
     1
 10
 3.68640740833507E+0000
 20
 3.77305091729431E+0000
 11
 3.64528825294838E+0000
 21
 3.73193176190762E+0000
  0
LINE
  8
1
  6
CONTINUOUS
 62
     1
 10
 4.09675343056733E+0000
 20
 3.34494247451948E+0000
 11
 4.09675343056733E+0000
 21
 3.34494247451948E+0000
  0
LINE
  8
1
  6
CONTINUOUS
 62
     1
 10
 3.77908834114714E+0000
 20
 3.64006136050011E+0000
 11
 4.38956871011032E+0000
 21
 3.64006136050011E+0000
  0
LINE
  8
1
  6
CONTINUOUS
 62
     1
 10
 6.30735523933254E+0000
 20
 3.92082267100704E+0000
 11
 6.30735523933254E+0000
 21
 2.47750569437267E+0000
  0
LINE
  8
1
  6
CONTINUOUS
 62
     1
 10
 6.30735523933254E+0000
 20
 2.47750569437267E+0000
 11
 3.27585634321440E+0000
 21
 2.47750569437267E+0000
  0
LINE
  8
1
  6
CONTINUOUS
 62
     1
 10
 3.27585634321440E+0000
 20
 2.47750569437267E+0000
 11
 3.27585634321440E+0000
 21
 3.64819613097643E+0000
  0
LINE
  8
1
  6
CONTINUOUS
 62
     1
 10
 8.57719869137509E+0000
 20
 6.18585004175839E+0000
 11
 8.57719869137509E+0000
 21
 6.18585004175839E+0000
  0
LINE
  8
1
  6
CONTINUOUS
 62
     1
 10
 8.57719869137509E+0000
 20
 6.18585004175839E+0000
 11
 8.41790936473990E+0000
 21
 6.21303156312206E+0000
  0
LINE
  8
1
  6
CONTINUOUS
 62
     1
 10
 8.41790936473990E+0000
 20
 6.21303156312206E+0000
 11
 8.41790936473990E+0000
 21
 6.15262792565045E+0000
  0
LINE
  8
1
  6
CONTINUOUS
 62
     1
 10
 8.41790936473990E+0000
 20
 6.15262792565045E+0000
 11
 8.57719869137509E+0000
 21
 6.18585004175839E+0000
  0
LINE
  8
1
  6
CONTINUOUS
 62
     1
 10
 8.41790936473990E+0000
 20
 6.21303156312206E+0000
 11
 8.41790936473990E+0000
 21
 6.15262792565045E+0000
  0
LINE
  8
1
  6
CONTINUOUS
 62
     1
 10
 8.42645429649565E+0000
 20
 6.15441009599454E+0000
 11
 8.41790936473990E+0000
 21
 6.16295502775029E+0000
  0
LINE
  8
1
  6
CONTINUOUS
 62
     1
 10
 8.44354415997805E+0000
 20
 6.15797443668998E+0000
 11
 8.41790936473990E+0000
 21
 6.18360923193541E+0000
  0
LINE
  8
1
  6
CONTINUOUS
 62
     1
 10
 8.46063402347500E+0000
 20
 6.16153877738543E+0000
 11
 8.41790936473990E+0000
 21
 6.20426343611325E+0000
  0
LINE
  8
1
  6
CONTINUOUS
 62
     1
 10
 8.47772388695739E+0000
 20
 6.16510311808088E+0000
 11
 8.43224103291868E+0000
 21
 6.21058597211959E+0000
  0
LINE
  8
1
  6
CONTINUOUS
 62
     1
 10
 8.49481375045434E+0000
 20
 6.16866745877633E+0000
 11
 8.45714489284728E+0000
 21
 6.20633631638339E+0000
  0
LINE
  8
1
  6
CONTINUOUS
 62
     1
 10
 8.51190361395129E+0000
 20
 6.17223179947177E+0000
 11
 8.48204875277588E+0000
 21
 6.20208666064718E+0000
  0
LINE
  8
1
  6
CONTINUOUS
 62
     1
 10
 8.52899347743369E+0000
 20
 6.17579614016722E+0000
 11
 8.50695261268993E+0000
 21
 6.19783700491098E+0000
  0
LINE
  8
1
  6
CONTINUOUS
 62
     1
 10
 8.54608334093064E+0000
 20
 6.17936048086267E+0000
 11
 8.53185647261853E+0000
 21
 6.19358734917478E+0000
  0
LINE
  8
1
  6
CONTINUOUS
 62
     1
 10
 8.56317320441303E+0000
 20
 6.18292482155812E+0000
 11
 8.55676033253258E+0000
 21
 6.18933769343857E+0000
  0
LINE
  8
1
  6
CONTINUOUS
 62
     1
 10
 8.56837695244758E+0000
 20
 6.18735540492344E+0000
 11
 8.56415011885110E+0000
 21
 6.18312857132696E+0000
  0
LINE
  8
1
  6
CONTINUOUS
 62
     1
 10
 8.55073347459256E+0000
 20
 6.19036613125354E+0000
 11
 8.53805297381768E+0000
 21
 6.17768563048594E+0000
  0
LINE
  8
1
  6
CONTINUOUS
 62
     1
 10
 8.53308999673754E+0000
 20
 6.19337685759092E+0000
 11
 8.51195582878427E+0000
 21
 6.17224268963764E+0000
  0
LINE
  8
1
  6
CONTINUOUS
 62
     1
 10
 8.51544651888253E+0000
 20
 6.19638758392102E+0000
 11
 8.48585868375085E+0000
 21
 6.16679974878934E+0000
  0
LINE
  8
1
  6
CONTINUOUS
 62
     1
 10
 8.49780304102751E+0000
 20
 6.19939831025113E+0000
 11
 8.45976153871743E+0000
 21
 6.16135680794105E+0000
  0
LINE
  8
1
  6
CONTINUOUS
 62
     1
 10
 8.48015956317249E+0000
 20
 6.20240903658123E+0000
 11
 8.43366439369856E+0000
 21
 6.15591386710003E+0000
  0
LINE
  8
1
  6
CONTINUOUS
 62
     1
 10
 8.46251608533203E+0000
 20
 6.20541976291861E+0000
 11
 8.41790936472535E+0000
 21
 6.16081304231921E+0000
  0
LINE
  8
1
  6
CONTINUOUS
 62
     1
 10
 8.44487260747701E+0000
 20
 6.20843048924871E+0000
 11
 8.41790936472535E+0000
 21
 6.18146724650433E+0000
  0
LINE
  8
1
  6
CONTINUOUS
 62
     1
 10
 8.42722912962199E+0000
 20
 6.21144121557882E+0000
 11
 8.41790936472535E+0000
 21
 6.20212145068945E+0000
  0
LINE
  8
1
  6
CONTINUOUS
 62
     1
 10
 6.32167774401751E+0000
 20
 6.19945807279146E+0000
 11
 6.32167774401751E+0000
 21
 6.19945807279146E+0000
  0
LINE
  8
1
  6
CONTINUOUS
 62
     1
 10
 6.32167774401751E+0000
 20
 6.19945807279146E+0000
 11
 6.48096707065270E+0000
 21
 6.17227655142779E+0000
  0
LINE
  8
1
  6
CONTINUOUS
 62
     1
 10
 6.48096707065270E+0000
 20
 6.17227655142779E+0000
 11
 6.48096707065270E+0000
 21
 6.23268018889939E+0000
  0
LINE
  8
1
  6
CONTINUOUS
 62
     1
 10
 6.48096707065270E+0000
 20
 6.23268018889939E+0000
 11
 6.32167774401751E+0000
 21
 6.19945807279146E+0000
  0
LINE
  8
1
  6
CONTINUOUS
 62
     1
 10
 6.48096707065270E+0000
 20
 6.17227655142779E+0000
 11
 6.48096707065270E+0000
 21
 6.23268018889939E+0000
  0
LINE
  8
1
  6
CONTINUOUS
 62
     1
 10
 6.33412967399636E+0000
 20
 6.19733324492699E+0000
 11
 6.33022267577326E+0000
 21
 6.20124024314282E+0000
  0
LINE
  8
1
  6
CONTINUOUS
 62
     1
 10
 6.35903353391768E+0000
 20
 6.19308358919079E+0000
 11
 6.34731253926293E+0000
 21
 6.20480458383827E+0000
  0
LINE
  8
1
  6
CONTINUOUS
 62
     1
 10
 6.38393739383901E+0000
 20
 6.18883393345459E+0000
 11
 6.36440240275988E+0000
 21
 6.20836892453372E+0000
  0
LINE
  8
1
  6
CONTINUOUS
 62
     1
 10
 6.40884125376033E+0000
 20
 6.18458427771839E+0000
 11
 6.38149226624955E+0000
 21
 6.21193326522916E+0000
  0
LINE
  8
1
  6
CONTINUOUS
 62
     1
 10
 6.43374511368165E+0000
 20
 6.18033462198218E+0000
 11
 6.39858212973922E+0000
 21
 6.21549760592461E+0000
  0
LINE
  8
1
  6
CONTINUOUS
 62
     1
 10
 6.45864897360298E+0000
 20
 6.17608496624598E+0000
 11
 6.41567199322890E+0000
 21
 6.21906194662006E+0000
  0
LINE
  8
1
  6
CONTINUOUS
 62
     1
 10
 6.48096707065270E+0000
 20
 6.17442107338138E+0000
 11
 6.43276185671857E+0000
 21
 6.22262628731551E+0000
  0
LINE
  8
1
  6
CONTINUOUS
 62
     1
 10
 6.48096707065270E+0000
 20
 6.19507527756650E+0000
 11
 6.44985172020824E+0000
 21
 6.22619062801095E+0000
  0
LINE
  8
1
  6
CONTINUOUS
 62
     1
 10
 6.48096707065997E+0000
 20
 6.21572948174435E+0000
 11
 6.46694158369792E+0000
 21
 6.22975496870640E+0000
  0
LINE
  8
1
  6
CONTINUOUS
 62
     1
 10
 6.48096707064542E+0000
 20
 6.18260365351307E+0000
 11
 6.47214533172519E+0000
 21
 6.17378191459284E+0000
  0
LINE
  8
1
  6
CONTINUOUS
 62
     1
 10
 6.48096707064542E+0000
 20
 6.20325785769819E+0000
 11
 6.45450185387017E+0000
 21
 6.17679264092294E+0000
  0
LINE
  8
1
  6
CONTINUOUS
 62
     1
 10
 6.48096707064542E+0000
 20
 6.22391206188331E+0000
 11
 6.43685837601515E+0000
 21
 6.17980336726032E+0000
  0
LINE
  8
1
  6
CONTINUOUS
 62
     1
 10
 6.46594869098044E+0000
 20
 6.22954788641073E+0000
 11
 6.41921489816741E+0000
 21
 6.18281409359042E+0000
  0
LINE
  8
1
  6
CONTINUOUS
 62
     1
 10
 6.43985154595430E+0000
 20
 6.22410494556243E+0000
 11
 6.40157142031239E+0000
 21
 6.18582481992053E+0000
  0
LINE
  8
1
  6
CONTINUOUS
 62
     1
 10
 6.41375440092816E+0000
 20
 6.21866200472141E+0000
 11
 6.38392794245738E+0000
 21
 6.18883554625063E+0000
  0
LINE
  8
1
  6
CONTINUOUS
 62
     1
 10
 6.38765725589474E+0000
 20
 6.21321906388039E+0000
 11
 6.36628446460236E+0000
 21
 6.19184627258073E+0000
  0
LINE
  8
1
  6
CONTINUOUS
 62
     1
 10
 6.36156011086132E+0000
 20
 6.20777612302481E+0000
 11
 6.34864098674734E+0000
 21
 6.19485699891811E+0000
  0
LINE
  8
1
  6
CONTINUOUS
 62
     1
 10
 6.33546296582790E+0000
 20
 6.20233318218379E+0000
 11
 6.33099750889960E+0000
 21
 6.19786772524822E+0000
  0
LINE
  8
1
  6
CONTINUOUS
 62
     1
 10
 8.18755317672912E+0000
 20
 5.13337955767201E+0000
 11
 8.18755317672912E+0000
 21
 5.13337955767201E+0000
  0
LINE
  8
1
  6
CONTINUOUS
 62
     1
 10
 8.18755317672912E+0000
 20
 5.13337955767201E+0000
 11
 8.02826385009394E+0000
 21
 5.16056107903569E+0000
  0
LINE
  8
1
  6
CONTINUOUS
 62
     1
 10
 8.02826385009394E+0000
 20
 5.16056107903569E+0000
 11
 8.02826385009394E+0000
 21
 5.10015744156408E+0000
  0
LINE
  8
1
  6
CONTINUOUS
 62
     1
 10
 8.02826385009394E+0000
 20
 5.10015744156408E+0000
 11
 8.18755317672912E+0000
 21
 5.13337955767201E+0000
  0
LINE
  8
1
  6
CONTINUOUS
 62
     1
 10
 8.02826385009394E+0000
 20
 5.16056107903569E+0000
 11
 8.02826385009394E+0000
 21
 5.10015744156408E+0000
  0
LINE
  8
1
  6
CONTINUOUS
 62
     1
 10
 8.03680878184969E+0000
 20
 5.10193961191544E+0000
 11
 8.02826385009394E+0000
 21
 5.11048454367119E+0000
  0
LINE
  8
1
  6
CONTINUOUS
 62
     1
 10
 8.05389864534664E+0000
 20
 5.10550395261089E+0000
 11
 8.02826385009394E+0000
 21
 5.13113874786359E+0000
  0
LINE
  8
1
  6
CONTINUOUS
 62
     1
 10
 8.07098850884358E+0000
 20
 5.10906829330634E+0000
 11
 8.02826385009394E+0000
 21
 5.15179295204871E+0000
  0
LINE
  8
1
  6
CONTINUOUS
 62
     1
 10
 8.08807837232598E+0000
 20
 5.11263263400178E+0000
 11
 8.04259551830182E+0000
 21
 5.15811548802594E+0000
  0
LINE
  8
1
  6
CONTINUOUS
 62
     1
 10
 8.10516823582293E+0000
 20
 5.11619697468996E+0000
 11
 8.06749937823042E+0000
 21
 5.15386583228974E+0000
  0
LINE
  8
1
  6
CONTINUOUS
 62
     1
 10
 8.12225809930533E+0000
 20
 5.11976131538540E+0000
 11
 8.09240323814447E+0000
 21
 5.14961617655354E+0000
  0
LINE
  8
1
  6
CONTINUOUS
 62
     1
 10
 8.13934796280228E+0000
 20
 5.12332565608085E+0000
 11
 8.11730709807307E+0000
 21
 5.14536652081733E+0000
  0
LINE
  8
1
  6
CONTINUOUS
 62
     1
 10
 8.15643782629922E+0000
 20
 5.12688999677630E+0000
 11
 8.14221095798712E+0000
 21
 5.14111686508113E+0000
  0
LINE
  8
1
  6
CONTINUOUS
 62
     1
 10
 8.17352768978162E+0000
 20
 5.13045433747175E+0000
 11
 8.16711481791572E+0000
 21
 5.13686720934493E+0000
  0
LINE
  8
1
  6
CONTINUOUS
 62
     1
 10
 8.17873143780162E+0000
 20
 5.13488492083707E+0000
 11
 8.17450460420514E+0000
 21
 5.13065808724059E+0000
  0
LINE
  8
1
  6
CONTINUOUS
 62
     1
 10
 8.16108795994660E+0000
 20
 5.13789564716717E+0000
 11
 8.14840745917172E+0000
 21
 5.12521514639229E+0000
  0
LINE
  8
1
  6
CONTINUOUS
 62
     1
 10
 8.14344448209158E+0000
 20
 5.14090637349727E+0000
 11
 8.12231031413830E+0000
 21
 5.11977220555127E+0000
  0
LINE
  8
1
  6
CONTINUOUS
 62
     1
 10
 8.12580100423656E+0000
 20
 5.14391709983465E+0000
 11
 8.09621316910489E+0000
 21
 5.11432926469570E+0000
  0
LINE
  8
1
  6
CONTINUOUS
 62
     1
 10
 8.10815752638155E+0000
 20
 5.14692782616476E+0000
 11
 8.07011602407147E+0000
 21
 5.10888632385468E+0000
  0
LINE
  8
1
  6
CONTINUOUS
 62
     1
 10
 8.09051404852653E+0000
 20
 5.14993855249486E+0000
 11
 8.04401887905260E+0000
 21
 5.10344338301365E+0000
  0
LINE
  8
1
  6
CONTINUOUS
 62
     1
 10
 8.07287057067151E+0000
 20
 5.15294927882496E+0000
 11
 8.02826385007938E+0000
 21
 5.10834255823283E+0000
  0
LINE
  8
1
  6
CONTINUOUS
 62
     1
 10
 8.05522709283105E+0000
 20
 5.15596000516962E+0000
 11
 8.02826385007938E+0000
 21
 5.12899676241796E+0000
  0
LINE
  8
1
  6
CONTINUOUS
 62
     1
 10
 8.03758361497603E+0000
 20
 5.15897073149972E+0000
 11
 8.02826385009394E+0000
 21
 5.14965096661035E+0000
  0
LINE
  8
1
  6
CONTINUOUS
 62
     1
 10
 8.37814018242352E+0000
 20
 5.13613737753622E+0000
 11
 8.37814018242352E+0000
 21
 5.13613737753622E+0000
  0
LINE
  8
1
  6
CONTINUOUS
 62
     1
 10
 8.37814018242352E+0000
 20
 5.13613737753622E+0000
 11
 8.53742950905871E+0000
 21
 5.10895585617254E+0000
  0
LINE
  8
1
  6
CONTINUOUS
 62
     1
 10
 8.53742950905871E+0000
 20
 5.10895585617254E+0000
 11
 8.53742950905871E+0000
 21
 5.16935949364415E+0000
  0
LINE
  8
1
  6
CONTINUOUS
 62
     1
 10
 8.53742950905871E+0000
 20
 5.16935949364415E+0000
 11
 8.37814018242352E+0000
 21
 5.13613737753622E+0000
  0
LINE
  8
1
  6
CONTINUOUS
 62
     1
 10
 8.53742950905871E+0000
 20
 5.10895585617254E+0000
 11
 8.53742950905871E+0000
 21
 5.16935949364415E+0000
  0
LINE
  8
1
  6
CONTINUOUS
 62
     1
 10
 8.39059211240965E+0000
 20
 5.13401254967175E+0000
 11
 8.38668511417927E+0000
 21
 5.13791954788758E+0000
  0
LINE
  8
1
  6
CONTINUOUS
 62
     1
 10
 8.41549597232370E+0000
 20
 5.12976289393555E+0000
 11
 8.40377497767622E+0000
 21
 5.14148388858302E+0000
  0
LINE
  8
1
  6
CONTINUOUS
 62
     1
 10
 8.44039983225230E+0000
 20
 5.12551323819935E+0000
 11
 8.42086484115862E+0000
 21
 5.14504822927847E+0000
  0
LINE
  8
1
  6
CONTINUOUS
 62
     1
 10
 8.46530369216634E+0000
 20
 5.12126358246314E+0000
 11
 8.43795470465557E+0000
 21
 5.14861256997392E+0000
  0
LINE
  8
1
  6
CONTINUOUS
 62
     1
 10
 8.49020755209494E+0000
 20
 5.11701392672694E+0000
 11
 8.45504456815252E+0000
 21
 5.15217691066937E+0000
  0
LINE
  8
1
  6
CONTINUOUS
 62
     1
 10
 8.51511141200899E+0000
 20
 5.11276427099074E+0000
 11
 8.47213443163491E+0000
 21
 5.15574125136482E+0000
  0
LINE
  8
1
  6
CONTINUOUS
 62
     1
 10
 8.53742950905871E+0000
 20
 5.11110037812614E+0000
 11
 8.48922429513186E+0000
 21
 5.15930559206026E+0000
  0
LINE
  8
1
  6
CONTINUOUS
 62
     1
 10
 8.53742950905871E+0000
 20
 5.13175458231126E+0000
 11
 8.50631415861426E+0000
 21
 5.16286993275571E+0000
  0
LINE
  8
1
  6
CONTINUOUS
 62
     1
 10
 8.53742950905871E+0000
 20
 5.15240878648910E+0000
 11
 8.52340402211121E+0000
 21
 5.16643427345116E+0000
  0
LINE
  8
1
  6
CONTINUOUS
 62
     1
 10
 8.53742950904416E+0000
 20
 5.11928295825783E+0000
 11
 8.52860777013120E+0000
 21
 5.11046121933759E+0000
  0
LINE
  8
1
  6
CONTINUOUS
 62
     1
 10
 8.53742950904416E+0000
 20
 5.13993716244295E+0000
 11
 8.51096429227619E+0000
 21
 5.11347194566770E+0000
  0
LINE
  8
1
  6
CONTINUOUS
 62
     1
 10
 8.53742950904416E+0000
 20
 5.16059136662807E+0000
 11
 8.49332081442117E+0000
 21
 5.11648267200508E+0000
  0
LINE
  8
1
  6
CONTINUOUS
 62
     1
 10
 8.52241112939373E+0000
 20
 5.16622719116276E+0000
 11
 8.47567733656615E+0000
 21
 5.11949339833518E+0000
  0
LINE
  8
1
  6
CONTINUOUS
 62
     1
 10
 8.49631398436031E+0000
 20
 5.16078425030719E+0000
 11
 8.45803385871113E+0000
 21
 5.12250412466528E+0000
  0
LINE
  8
1
  6
CONTINUOUS
 62
     1
 10
 8.47021683932689E+0000
 20
 5.15534130946617E+0000
 11
 8.44039038085612E+0000
 21
 5.12551485099539E+0000
  0
LINE
  8
1
  6
CONTINUOUS
 62
     1
 10
 8.44411969430803E+0000
 20
 5.14989836862514E+0000
 11
 8.42274690300110E+0000
 21
 5.12852557733277E+0000
  0
LINE
  8
1
  6
CONTINUOUS
 62
     1
 10
 8.41802254926006E+0000
 20
 5.14445542776957E+0000
 11
 8.40510342516063E+0000
 21
 5.13153630366287E+0000
  0
LINE
  8
1
  6
CONTINUOUS
 62
     1
 10
 8.39192540422664E+0000
 20
 5.13901248692855E+0000
 11
 8.38745994730562E+0000
 21
 5.13454702999297E+0000
  0
LINE
  8
1
  6
CONTINUOUS
 62
     1
 10
 7.90100474380597E+0000
 20
 3.87581630798377E+0000
 11
 7.90100474380597E+0000
 21
 3.87581630798377E+0000
  0
LINE
  8
1
  6
CONTINUOUS
 62
     1
 10
 7.90100474380597E+0000
 20
 3.87581630798377E+0000
 11
 7.87382322244230E+0000
 21
 3.71652698135586E+0000
  0
LINE
  8
1
  6
CONTINUOUS
 62
     1
 10
 7.87382322244230E+0000
 20
 3.71652698135586E+0000
 11
 7.93422685991391E+0000
 21
 3.71652698135586E+0000
  0
LINE
  8
1
  6
CONTINUOUS
 62
     1
 10
 7.93422685991391E+0000
 20
 3.71652698135586E+0000
 11
 7.90100474380597E+0000
 21
 3.87581630798377E+0000
  0
LINE
  8
1
  6
CONTINUOUS
 62
     1
 10
 7.87382322244230E+0000
 20
 3.71652698135586E+0000
 11
 7.93422685991391E+0000
 21
 3.71652698135586E+0000
  0
LINE
  8
1
  6
CONTINUOUS
 62
     1
 10
 7.88415032454213E+0000
 20
 3.71652698135586E+0000
 11
 7.87532858560735E+0000
 21
 3.72534872028700E+0000
  0
LINE
  8
1
  6
CONTINUOUS
 62
     1
 10
 7.90480452872725E+0000
 20
 3.71652698135586E+0000
 11
 7.87833931194473E+0000
 21
 3.74299219813838E+0000
  0
LINE
  8
1
  6
CONTINUOUS
 62
     1
 10
 7.92545873290510E+0000
 20
 3.71652698135949E+0000
 11
 7.88135003827483E+0000
 21
 3.76063567598976E+0000
  0
LINE
  8
1
  6
CONTINUOUS
 62
     1
 10
 7.93109455744707E+0000
 20
 3.73154536100628E+0000
 11
 7.88436076460493E+0000
 21
 3.77827915384478E+0000
  0
LINE
  8
1
  6
CONTINUOUS
 62
     1
 10
 7.92565161659877E+0000
 20
 3.75764250604334E+0000
 11
 7.88737149094231E+0000
 21
 3.79592263169616E+0000
  0
LINE
  8
1
  6
CONTINUOUS
 62
     1
 10
 7.92020867575047E+0000
 20
 3.78373965107312E+0000
 11
 7.89038221727242E+0000
 21
 3.81356610954754E+0000
  0
LINE
  8
1
  6
CONTINUOUS
 62
     1
 10
 7.91476573490218E+0000
 20
 3.80983679610654E+0000
 11
 7.89339294360980E+0000
 21
 3.83120958739892E+0000
  0
LINE
  8
1
  6
CONTINUOUS
 62
     1
 10
 7.90932279405388E+0000
 20
 3.83593394113632E+0000
 11
 7.89640366993990E+0000
 21
 3.84885306525393E+0000
  0
LINE
  8
1
  6
CONTINUOUS
 62
     1
 10
 7.90387985320558E+0000
 20
 3.86203108617337E+0000
 11
 7.89941439627728E+0000
 21
 3.86649654310531E+0000
  0
LINE
  8
1
  6
CONTINUOUS
 62
     1
 10
 7.93244468955527E+0000
 20
 3.72507191309342E+0000
 11
 7.92389975781407E+0000
 21
 3.71652698135222E+0000
  0
LINE
  8
1
  6
CONTINUOUS
 62
     1
 10
 7.92888034885982E+0000
 20
 3.74216177658309E+0000
 11
 7.90324555362895E+0000
 21
 3.71652698135222E+0000
  0
LINE
  8
1
  6
CONTINUOUS
 62
     1
 10
 7.92531600817165E+0000
 20
 3.75925164007640E+0000
 11
 7.88259134944383E+0000
 21
 3.71652698135222E+0000
  0
LINE
  8
1
  6
CONTINUOUS
 62
     1
 10
 7.92175166747620E+0000
 20
 3.77634150356971E+0000
 11
 7.87626881344477E+0000
 21
 3.73085864953464E+0000
  0
LINE
  8
1
  6
CONTINUOUS
 62
     1
 10
 7.91818732677348E+0000
 20
 3.79343136704847E+0000
 11
 7.88051846918097E+0000
 21
 3.75576250945596E+0000
  0
LINE
  8
1
  6
CONTINUOUS
 62
     1
 10
 7.91462298607803E+0000
 20
 3.81052123054178E+0000
 11
 7.88476812491717E+0000
 21
 3.78066636937729E+0000
  0
LINE
  8
1
  6
CONTINUOUS
 62
     1
 10
 7.91105864538258E+0000
 20
 3.82761109403145E+0000
 11
 7.88901778064610E+0000
 21
 3.80557022929861E+0000
  0
LINE
  8
1
  6
CONTINUOUS
 62
     1
 10
 7.90749430468713E+0000
 20
 3.84470095752476E+0000
 11
 7.89326743638230E+0000
 21
 3.83047408921993E+0000
  0
LINE
  8
1
  6
CONTINUOUS
 62
     1
 10
 7.90392996399896E+0000
 20
 3.86179082101444E+0000
 11
 7.89751709211123E+0000
 21
 3.85537794913034E+0000
  0
LINE
  8
1
  6
CONTINUOUS
 62
     1
 10
 7.90773660886043E+0000
 20
 4.08219125668256E+0000
 11
 7.90773660886043E+0000
 21
 4.08219125668256E+0000
  0
LINE
  8
1
  6
CONTINUOUS
 62
     1
 10
 7.90773660886043E+0000
 20
 4.08219125668256E+0000
 11
 7.93491813022410E+0000
 21
 4.24148058331048E+0000
  0
LINE
  8
1
  6
CONTINUOUS
 62
     1
 10
 7.93491813022410E+0000
 20
 4.24148058331048E+0000
 11
 7.87451449275250E+0000
 21
 4.24148058331048E+0000
  0
LINE
  8
1
  6
CONTINUOUS
 62
     1
 10
 7.87451449275250E+0000
 20
 4.24148058331048E+0000
 11
 7.90773660886043E+0000
 21
 4.08219125668256E+0000
  0
LINE
  8
1
  6
CONTINUOUS
 62
     1
 10
 7.93491813022410E+0000
 20
 4.24148058331048E+0000
 11
 7.87451449275250E+0000
 21
 4.24148058331048E+0000
  0
LINE
  8
1
  6
CONTINUOUS
 62
     1
 10
 7.90924197202548E+0000
 20
 4.09101299561735E+0000
 11
 7.90501513843628E+0000
 21
 4.09523982920655E+0000
  0
LINE
  8
1
  6
CONTINUOUS
 62
     1
 10
 7.91225269836286E+0000
 20
 4.10865647346509E+0000
 11
 7.89957219758799E+0000
 21
 4.12133697423997E+0000
  0
LINE
  8
1
  6
CONTINUOUS
 62
     1
 10
 7.91526342469297E+0000
 20
 4.12629995132011E+0000
 11
 7.89412925673969E+0000
 21
 4.14743411927338E+0000
  0
LINE
  8
1
  6
CONTINUOUS
 62
     1
 10
 7.91827415102307E+0000
 20
 4.14394342917512E+0000
 11
 7.88868631589139E+0000
 21
 4.17353126430680E+0000
  0
LINE
  8
1
  6
CONTINUOUS
 62
     1
 10
 7.92128487736045E+0000
 20
 4.16158690702287E+0000
 11
 7.88324337504309E+0000
 21
 4.19962840934022E+0000
  0
LINE
  8
1
  6
CONTINUOUS
 62
     1
 10
 7.92429560369055E+0000
 20
 4.17923038487788E+0000
 11
 7.87780043419480E+0000
 21
 4.22572555437364E+0000
  0
LINE
  8
1
  6
CONTINUOUS
 62
     1
 10
 7.92730633002793E+0000
 20
 4.19687386272562E+0000
 11
 7.88269960945036E+0000
 21
 4.24148058331048E+0000
  0
LINE
  8
1
  6
CONTINUOUS
 62
     1
 10
 7.93031705635804E+0000
 20
 4.21451734058064E+0000
 11
 7.90335381362820E+0000
 21
 4.24148058331048E+0000
  0
LINE
  8
1
  6
CONTINUOUS
 62
     1
 10
 7.93332778269541E+0000
 20
 4.23216081842838E+0000
 11
 7.92400801781332E+0000
 21
 4.24148058331048E+0000
  0
LINE
  8
1
  6
CONTINUOUS
 62
     1
 10
 7.90986143671762E+0000
 20
 4.09464318663959E+0000
 11
 7.90595443850179E+0000
 21
 4.09073618842376E+0000
  0
LINE
  8
1
  6
CONTINUOUS
 62
     1
 10
 7.91411109245382E+0000
 20
 4.11954704656091E+0000
 11
 7.90239009781362E+0000
 21
 4.10782605191343E+0000
  0
LINE
  8
1
  6
CONTINUOUS
 62
     1
 10
 7.91836074819003E+0000
 20
 4.14445090648223E+0000
 11
 7.89882575711817E+0000
 21
 4.12491591540311E+0000
  0
LINE
  8
1
  6
CONTINUOUS
 62
     1
 10
 7.92261040392623E+0000
 20
 4.16935476640356E+0000
 11
 7.89526141642273E+0000
 21
 4.14200577890006E+0000
  0
LINE
  8
1
  6
CONTINUOUS
 62
     1
 10
 7.92686005966243E+0000
 20
 4.19425862631761E+0000
 11
 7.89169707572000E+0000
 21
 4.15909564238245E+0000
  0
LINE
  8
1
  6
CONTINUOUS
 62
     1
 10
 7.93110971539863E+0000
 20
 4.21916248623893E+0000
 11
 7.88813273502456E+0000
 21
 4.17618550587213E+0000
  0
LINE
  8
1
  6
CONTINUOUS
 62
     1
 10
 7.93277360827778E+0000
 20
 4.24148058330320E+0000
 11
 7.88456839433638E+0000
 21
 4.19327536936180E+0000
  0
LINE
  8
1
  6
CONTINUOUS
 62
     1
 10
 7.91211940409266E+0000
 20
 4.24148058330320E+0000
 11
 7.88100405364094E+0000
 21
 4.21036523285147E+0000
  0
LINE
  8
1
  6
CONTINUOUS
 62
     1
 10
 7.89146519990754E+0000
 20
 4.24148058330320E+0000
 11
 7.87743971294549E+0000
 21
 4.22745509634842E+0000
  0
LINE
  8
1
  6
CONTINUOUS
 62
     1
 10
 8.13170292221184E+0000
 20
 4.75420981727802E+0000
 11
 8.13170292221184E+0000
 21
 4.75420981727802E+0000
  0
LINE
  8
1
  6
CONTINUOUS
 62
     1
 10
 8.13170292221184E+0000
 20
 4.75420981727802E+0000
 11
 8.10452140084817E+0000
 21
 4.59492049065011E+0000
  0
LINE
  8
1
  6
CONTINUOUS
 62
     1
 10
 8.10452140084817E+0000
 20
 4.59492049065011E+0000
 11
 8.16492503831978E+0000
 21
 4.59492049065011E+0000
  0
LINE
  8
1
  6
CONTINUOUS
 62
     1
 10
 8.16492503831978E+0000
 20
 4.59492049065011E+0000
 11
 8.13170292221184E+0000
 21
 4.75420981727802E+0000
  0
LINE
  8
1
  6
CONTINUOUS
 62
     1
 10
 8.10452140084817E+0000
 20
 4.59492049065011E+0000
 11
 8.16492503831978E+0000
 21
 4.59492049065011E+0000
  0
LINE
  8
1
  6
CONTINUOUS
 62
     1
 10
 8.11484850294073E+0000
 20
 4.59492049065011E+0000
 11
 8.10602676401322E+0000
 21
 4.60374222958490E+0000
  0
LINE
  8
1
  6
CONTINUOUS
 62
     1
 10
 8.13550270712585E+0000
 20
 4.59492049065011E+0000
 11
 8.10903749034333E+0000
 21
 4.62138570743264E+0000
  0
LINE
  8
1
  6
CONTINUOUS
 62
     1
 10
 8.15615691131097E+0000
 20
 4.59492049065739E+0000
 11
 8.11204821667343E+0000
 21
 4.63902918528765E+0000
  0
LINE
  8
1
  6
CONTINUOUS
 62
     1
 10
 8.16179273584567E+0000
 20
 4.60993887030054E+0000
 11
 8.11505894301808E+0000
 21
 4.65667266314267E+0000
  0
LINE
  8
1
  6
CONTINUOUS
 62
     1
 10
 8.15634979499737E+0000
 20
 4.63603601533396E+0000
 11
 8.11806966934819E+0000
 21
 4.67431614099041E+0000
  0
LINE
  8
1
  6
CONTINUOUS
 62
     1
 10
 8.15090685414907E+0000
 20
 4.66213316036738E+0000
 11
 8.12108039567829E+0000
 21
 4.69195961884543E+0000
  0
LINE
  8
1
  6
CONTINUOUS
 62
     1
 10
 8.14546391330077E+0000
 20
 4.68823030540079E+0000
 11
 8.12409112200839E+0000
 21
 4.70960309669317E+0000
  0
LINE
  8
1
  6
CONTINUOUS
 62
     1
 10
 8.14002097246703E+0000
 20
 4.71432745043421E+0000
 11
 8.12710184833850E+0000
 21
 4.72724657454819E+0000
  0
LINE
  8
1
  6
CONTINUOUS
 62
     1
 10
 8.13457803160418E+0000
 20
 4.74042459546763E+0000
 11
 8.13011257468315E+0000
 21
 4.74489005240321E+0000
  0
LINE
  8
1
  6
CONTINUOUS
 62
     1
 10
 8.16314286795387E+0000
 20
 4.60346542239131E+0000
 11
 8.15459793621267E+0000
 21
 4.59492049065011E+0000
  0
LINE
  8
1
  6
CONTINUOUS
 62
     1
 10
 8.15957852726569E+0000
 20
 4.62055528588098E+0000
 11
 8.13394373202755E+0000
 21
 4.59492049065011E+0000
  0
LINE
  8
1
  6
CONTINUOUS
 62
     1
 10
 8.15601418657752E+0000
 20
 4.63764514937066E+0000
 11
 8.11328952784243E+0000
 21
 4.59492049065011E+0000
  0
LINE
  8
1
  6
CONTINUOUS
 62
     1
 10
 8.15244984587480E+0000
 20
 4.65473501286033E+0000
 11
 8.10696699185064E+0000
 21
 4.60925215882889E+0000
  0
LINE
  8
1
  6
CONTINUOUS
 62
     1
 10
 8.14888550517207E+0000
 20
 4.67182487634273E+0000
 11
 8.11121664757957E+0000
 21
 4.63415601875022E+0000
  0
LINE
  8
1
  6
CONTINUOUS
 62
     1
 10
 8.14532116448390E+0000
 20
 4.68891473983967E+0000
 11
 8.11546630332305E+0000
 21
 4.65905987867154E+0000
  0
LINE
  8
1
  6
CONTINUOUS
 62
     1
 10
 8.14175682378118E+0000
 20
 4.70600460332935E+0000
 11
 8.11971595905197E+0000
 21
 4.68396373859287E+0000
  0
LINE
  8
1
  6
CONTINUOUS
 62
     1
 10
 8.13819248309301E+0000
 20
 4.72309446681902E+0000
 11
 8.12396561479545E+0000
 21
 4.70886759851419E+0000
  0
LINE
  8
1
  6
CONTINUOUS
 62
     1
 10
 8.13462814240484E+0000
 20
 4.74018433030869E+0000
 11
 8.12821527050983E+0000
 21
 4.73377145842824E+0000
  0
LINE
  8
1
  6
CONTINUOUS
 62
     1
 10
 8.13843478726631E+0000
 20
 2.11782943785511E+0000
 11
 8.13843478726631E+0000
 21
 2.11782943785511E+0000
  0
LINE
  8
1
  6
CONTINUOUS
 62
     1
 10
 8.13843478726631E+0000
 20
 2.11782943785511E+0000
 11
 8.16561630862998E+0000
 21
 2.27711876448302E+0000
  0
LINE
  8
1
  6
CONTINUOUS
 62
     1
 10
 8.16561630862998E+0000
 20
 2.27711876448302E+0000
 11
 8.10521267115837E+0000
 21
 2.27711876448302E+0000
  0
LINE
  8
1
  6
CONTINUOUS
 62
     1
 10
 8.10521267115837E+0000
 20
 2.27711876448302E+0000
 11
 8.13843478726631E+0000
 21
 2.11782943785511E+0000
  0
LINE
  8
1
  6
CONTINUOUS
 62
     1
 10
 8.16561630862998E+0000
 20
 2.27711876448302E+0000
 11
 8.10521267115837E+0000
 21
 2.27711876448302E+0000
  0
LINE
  8
1
  6
CONTINUOUS
 62
     1
 10
 8.13994015043136E+0000
 20
 2.12665117678625E+0000
 11
 8.13571331684943E+0000
 21
 2.13087801037182E+0000
  0
LINE
  8
1
  6
CONTINUOUS
 62
     1
 10
 8.14295087676146E+0000
 20
 2.14429465463763E+0000
 11
 8.13027037600114E+0000
 21
 2.15697515540887E+0000
  0
LINE
  8
1
  6
CONTINUOUS
 62
     1
 10
 8.14596160309156E+0000
 20
 2.16193813249265E+0000
 11
 8.12482743515284E+0000
 21
 2.18307230044229E+0000
  0
LINE
  8
1
  6
CONTINUOUS
 62
     1
 10
 8.14897232943622E+0000
 20
 2.17958161034039E+0000
 11
 8.11938449430454E+0000
 21
 2.20916944546843E+0000
  0
LINE
  8
1
  6
CONTINUOUS
 62
     1
 10
 8.15198305576632E+0000
 20
 2.19722508819541E+0000
 11
 8.11394155345624E+0000
 21
 2.23526659050185E+0000
  0
LINE
  8
1
  6
CONTINUOUS
 62
     1
 10
 8.15499378209643E+0000
 20
 2.21486856604679E+0000
 11
 8.10849861260795E+0000
 21
 2.26136373553891E+0000
  0
LINE
  8
1
  6
CONTINUOUS
 62
     1
 10
 8.15800450842653E+0000
 20
 2.23251204390181E+0000
 11
 8.11339778784895E+0000
 21
 2.27711876448666E+0000
  0
LINE
  8
1
  6
CONTINUOUS
 62
     1
 10
 8.16101523475663E+0000
 20
 2.25015552175682E+0000
 11
 8.13405199203407E+0000
 21
 2.27711876448666E+0000
  0
LINE
  8
1
  6
CONTINUOUS
 62
     1
 10
 8.16402596110129E+0000
 20
 2.26779899960820E+0000
 11
 8.15470619621919E+0000
 21
 2.27711876448302E+0000
  0
LINE
  8
1
  6
CONTINUOUS
 62
     1
 10
 8.14055961511622E+0000
 20
 2.13028136781213E+0000
 11
 8.13665261690039E+0000
 21
 2.12637436959994E+0000
  0
LINE
  8
1
  6
CONTINUOUS
 62
     1
 10
 8.14480927085970E+0000
 20
 2.15518522773345E+0000
 11
 8.13308827621222E+0000
 21
 2.14346423308962E+0000
  0
LINE
  8
1
  6
CONTINUOUS
 62
     1
 10
 8.14905892658862E+0000
 20
 2.18008908765478E+0000
 11
 8.12952393552405E+0000
 21
 2.16055409658293E+0000
  0
LINE
  8
1
  6
CONTINUOUS
 62
     1
 10
 8.15330858233210E+0000
 20
 2.20499294757610E+0000
 11
 8.12595959482132E+0000
 21
 2.17764396007260E+0000
  0
LINE
  8
1
  6
CONTINUOUS
 62
     1
 10
 8.15755823806103E+0000
 20
 2.22989680749743E+0000
 11
 8.12239525413315E+0000
 21
 2.19473382355864E+0000
  0
LINE
  8
1
  6
CONTINUOUS
 62
     1
 10
 8.16180789380451E+0000
 20
 2.25480066741875E+0000
 11
 8.11883091343043E+0000
 21
 2.21182368705195E+0000
  0
LINE
  8
1
  6
CONTINUOUS
 62
     1
 10
 8.16347178668366E+0000
 20
 2.27711876447938E+0000
 11
 8.11526657274226E+0000
 21
 2.22891355054162E+0000
  0
LINE
  8
1
  6
CONTINUOUS
 62
     1
 10
 8.14281758249854E+0000
 20
 2.27711876447938E+0000
 11
 8.11170223205409E+0000
 21
 2.24600341403493E+0000
  0
LINE
  8
1
  6
CONTINUOUS
 62
     1
 10
 8.12216337831342E+0000
 20
 2.27711876448666E+0000
 11
 8.10813789135136E+0000
 21
 2.26309327752824E+0000
  0
LINE
  8
1
  6
CONTINUOUS
 62
     1
 10
 4.71821304759942E+0000
 20
 4.17936956129415E+0000
 11
 4.71821304759942E+0000
 21
 4.17936956129415E+0000
  0
LINE
  8
1
  6
CONTINUOUS
 62
     1
 10
 4.71821304759942E+0000
 20
 4.17936956129415E+0000
 11
 4.74539456896309E+0000
 21
 4.33865888792207E+0000
  0
LINE
  8
1
  6
CONTINUOUS
 62
     1
 10
 4.74539456896309E+0000
 20
 4.33865888792207E+0000
 11
 4.68499093149148E+0000
 21
 4.33865888792207E+0000
  0
LINE
  8
1
  6
CONTINUOUS
 62
     1
 10
 4.68499093149148E+0000
 20
 4.33865888792207E+0000
 11
 4.71821304759942E+0000
 21
 4.17936956129415E+0000
  0
LINE
  8
1
  6
CONTINUOUS
 62
     1
 10
 4.74539456896309E+0000
 20
 4.33865888792207E+0000
 11
 4.68499093149148E+0000
 21
 4.33865888792207E+0000
  0
LINE
  8
1
  6
CONTINUOUS
 62
     1
 10
 4.71971841076447E+0000
 20
 4.18819130022166E+0000
 11
 4.71549157717527E+0000
 21
 4.19241813381086E+0000
  0
LINE
  8
1
  6
CONTINUOUS
 62
     1
 10
 4.72272913709457E+0000
 20
 4.20583477806940E+0000
 11
 4.71004863633425E+0000
 21
 4.21851527883700E+0000
  0
LINE
  8
1
  6
CONTINUOUS
 62
     1
 10
 4.72573986343195E+0000
 20
 4.22347825592442E+0000
 11
 4.70460569548595E+0000
 21
 4.24461242387042E+0000
  0
LINE
  8
1
  6
CONTINUOUS
 62
     1
 10
 4.72875058976206E+0000
 20
 4.24112173377944E+0000
 11
 4.69916275463765E+0000
 21
 4.27070956890384E+0000
  0
LINE
  8
1
  6
CONTINUOUS
 62
     1
 10
 4.73176131609944E+0000
 20
 4.25876521162718E+0000
 11
 4.69371981379663E+0000
 21
 4.29680671392998E+0000
  0
LINE
  8
1
  6
CONTINUOUS
 62
     1
 10
 4.73477204242954E+0000
 20
 4.27640868948220E+0000
 11
 4.68827687294834E+0000
 21
 4.32290385896340E+0000
  0
LINE
  8
1
  6
CONTINUOUS
 62
     1
 10
 4.73778276875964E+0000
 20
 4.29405216733721E+0000
 11
 4.69317604817479E+0000
 21
 4.33865888792207E+0000
  0
LINE
  8
1
  6
CONTINUOUS
 62
     1
 10
 4.74079349509702E+0000
 20
 4.31169564518495E+0000
 11
 4.71383025235991E+0000
 21
 4.33865888792207E+0000
  0
LINE
  8
1
  6
CONTINUOUS
 62
     1
 10
 4.74380422142713E+0000
 20
 4.32933912303997E+0000
 11
 4.73448445654503E+0000
 21
 4.33865888792207E+0000
  0
LINE
  8
1
  6
CONTINUOUS
 62
     1
 10
 4.72033787546388E+0000
 20
 4.19182149125118E+0000
 11
 4.71643087724806E+0000
 21
 4.18791449303535E+0000
  0
LINE
  8
1
  6
CONTINUOUS
 62
     1
 10
 4.72458753120009E+0000
 20
 4.21672535117250E+0000
 11
 4.71286653655261E+0000
 21
 4.20500435653230E+0000
  0
LINE
  8
1
  6
CONTINUOUS
 62
     1
 10
 4.72883718693629E+0000
 20
 4.24162921109382E+0000
 11
 4.70930219585716E+0000
 21
 4.22209422001470E+0000
  0
LINE
  8
1
  6
CONTINUOUS
 62
     1
 10
 4.73308684266522E+0000
 20
 4.26653307100787E+0000
 11
 4.70573785516171E+0000
 21
 4.23918408350437E+0000
  0
LINE
  8
1
  6
CONTINUOUS
 62
     1
 10
 4.73733649840142E+0000
 20
 4.29143693092919E+0000
 11
 4.70217351446627E+0000
 21
 4.25627394700132E+0000
  0
LINE
  8
1
  6
CONTINUOUS
 62
     1
 10
 4.74158615413762E+0000
 20
 4.31634079085052E+0000
 11
 4.69860917377810E+0000
 21
 4.27336381049099E+0000
  0
LINE
  8
1
  6
CONTINUOUS
 62
     1
 10
 4.74325004701677E+0000
 20
 4.33865888791479E+0000
 11
 4.69504483307537E+0000
 21
 4.29045367397339E+0000
  0
LINE
  8
1
  6
CONTINUOUS
 62
     1
 10
 4.72259584283165E+0000
 20
 4.33865888792207E+0000
 11
 4.69148049237992E+0000
 21
 4.30754353747034E+0000
  0
LINE
  8
1
  6
CONTINUOUS
 62
     1
 10
 4.70194163864653E+0000
 20
 4.33865888792207E+0000
 11
 4.68791615169175E+0000
 21
 4.32463340096001E+0000
  0
LINE
  8
1
  6
CONTINUOUS
 62
     1
 10
 4.71148118254496E+0000
 20
 4.76506002844690E+0000
 11
 4.71148118254496E+0000
 21
 4.76506002844690E+0000
  0
LINE
  8
1
  6
CONTINUOUS
 62
     1
 10
 4.71148118254496E+0000
 20
 4.76506002844690E+0000
 11
 4.68429966118129E+0000
 21
 4.60577070181898E+0000
  0
LINE
  8
1
  6
CONTINUOUS
 62
     1
 10
 4.68429966118129E+0000
 20
 4.60577070181898E+0000
 11
 4.74470329865289E+0000
 21
 4.60577070181898E+0000
  0
LINE
  8
1
  6
CONTINUOUS
 62
     1
 10
 4.74470329865289E+0000
 20
 4.60577070181898E+0000
 11
 4.71148118254496E+0000
 21
 4.76506002844690E+0000
  0
LINE
  8
1
  6
CONTINUOUS
 62
     1
 10
 4.68429966118129E+0000
 20
 4.60577070181898E+0000
 11
 4.74470329865289E+0000
 21
 4.60577070181898E+0000
  0
LINE
  8
1
  6
CONTINUOUS
 62
     1
 10
 4.69462676327385E+0000
 20
 4.60577070181898E+0000
 11
 4.68580502434634E+0000
 21
 4.61459244074649E+0000
  0
LINE
  8
1
  6
CONTINUOUS
 62
     1
 10
 4.71528096745897E+0000
 20
 4.60577070181898E+0000
 11
 4.68881575068372E+0000
 21
 4.63223591860151E+0000
  0
LINE
  8
1
  6
CONTINUOUS
 62
     1
 10
 4.73593517165136E+0000
 20
 4.60577070181898E+0000
 11
 4.69182647701382E+0000
 21
 4.64987939644925E+0000
  0
LINE
  8
1
  6
CONTINUOUS
 62
     1
 10
 4.74157099617150E+0000
 20
 4.62078908147669E+0000
 11
 4.69483720335120E+0000
 21
 4.66752287430427E+0000
  0
LINE
  8
1
  6
CONTINUOUS
 62
     1
 10
 4.73612805533048E+0000
 20
 4.64688622651011E+0000
 11
 4.69784792968130E+0000
 21
 4.68516635215929E+0000
  0
LINE
  8
1
  6
CONTINUOUS
 62
     1
 10
 4.73068511448218E+0000
 20
 4.67298337154352E+0000
 11
 4.70085865601141E+0000
 21
 4.70280983000703E+0000
  0
LINE
  8
1
  6
CONTINUOUS
 62
     1
 10
 4.72524217363389E+0000
 20
 4.69908051656967E+0000
 11
 4.70386938234878E+0000
 21
 4.72045330786204E+0000
  0
LINE
  8
1
  6
CONTINUOUS
 62
     1
 10
 4.71979923279287E+0000
 20
 4.72517766160308E+0000
 11
 4.70688010867889E+0000
 21
 4.73809678571706E+0000
  0
LINE
  8
1
  6
CONTINUOUS
 62
     1
 10
 4.71435629194457E+0000
 20
 4.75127480663650E+0000
 11
 4.70989083500899E+0000
 21
 4.75574026356480E+0000
  0
LINE
  8
1
  6
CONTINUOUS
 62
     1
 10
 4.74292112830153E+0000
 20
 4.61431563356018E+0000
 11
 4.73437619655306E+0000
 21
 4.60577070181171E+0000
  0
LINE
  8
1
  6
CONTINUOUS
 62
     1
 10
 4.73935678760608E+0000
 20
 4.63140549704985E+0000
 11
 4.71372199236794E+0000
 21
 4.60577070181898E+0000
  0
LINE
  8
1
  6
CONTINUOUS
 62
     1
 10
 4.73579244691064E+0000
 20
 4.64849536053953E+0000
 11
 4.69306778818282E+0000
 21
 4.60577070181898E+0000
  0
LINE
  8
1
  6
CONTINUOUS
 62
     1
 10
 4.73222810621519E+0000
 20
 4.66558522402920E+0000
 11
 4.68674525218375E+0000
 21
 4.62010236999777E+0000
  0
LINE
  8
1
  6
CONTINUOUS
 62
     1
 10
 4.72866376551974E+0000
 20
 4.68267508752615E+0000
 11
 4.69099490791996E+0000
 21
 4.64500622991909E+0000
  0
LINE
  8
1
  6
CONTINUOUS
 62
     1
 10
 4.72509942483157E+0000
 20
 4.69976495101582E+0000
 11
 4.69524456365616E+0000
 21
 4.66991008984041E+0000
  0
LINE
  8
1
  6
CONTINUOUS
 62
     1
 10
 4.72153508412885E+0000
 20
 4.71685481449822E+0000
 11
 4.69949421939236E+0000
 21
 4.69481394976174E+0000
  0
LINE
  8
1
  6
CONTINUOUS
 62
     1
 10
 4.71797074343340E+0000
 20
 4.73394467799517E+0000
 11
 4.70374387512857E+0000
 21
 4.71971780968306E+0000
  0
LINE
  8
1
  6
CONTINUOUS
 62
     1
 10
 4.71440640274523E+0000
 20
 4.75103454148484E+0000
 11
 4.70799353086477E+0000
 21
 4.74462166960438E+0000
  0
LINE
  8
1
  6
CONTINUOUS
 62
     1
 10
 4.55212950305577E+0000
 20
 5.00241214075504E+0000
 11
 4.55212950305577E+0000
 21
 5.00241214075504E+0000
  0
LINE
  8
1
  6
CONTINUOUS
 62
     1
 10
 4.55212950305577E+0000
 20
 5.00241214075504E+0000
 11
 4.52494798169209E+0000
 21
 4.84312281412713E+0000
  0
LINE
  8
1
  6
CONTINUOUS
 62
     1
 10
 4.52494798169209E+0000
 20
 4.84312281412713E+0000
 11
 4.58535161916370E+0000
 21
 4.84312281412713E+0000
  0
LINE
  8
1
  6
CONTINUOUS
 62
     1
 10
 4.58535161916370E+0000
 20
 4.84312281412713E+0000
 11
 4.55212950305577E+0000
 21
 5.00241214075504E+0000
  0
LINE
  8
1
  6
CONTINUOUS
 62
     1
 10
 4.52494798169209E+0000
 20
 4.84312281412713E+0000
 11
 4.58535161916370E+0000
 21
 4.84312281412713E+0000
  0
LINE
  8
1
  6
CONTINUOUS
 62
     1
 10
 4.53527508378465E+0000
 20
 4.84312281412713E+0000
 11
 4.52645334485715E+0000
 21
 4.85194455305464E+0000
  0
LINE
  8
1
  6
CONTINUOUS
 62
     1
 10
 4.55592928796978E+0000
 20
 4.84312281412713E+0000
 11
 4.52946407119452E+0000
 21
 4.86958803090965E+0000
  0
LINE
  8
1
  6
CONTINUOUS
 62
     1
 10
 4.57658349216217E+0000
 20
 4.84312281412713E+0000
 11
 4.53247479752463E+0000
 21
 4.88723150875740E+0000
  0
LINE
  8
1
  6
CONTINUOUS
 62
     1
 10
 4.58221931668231E+0000
 20
 4.85814119378483E+0000
 11
 4.53548552385473E+0000
 21
 4.90487498661241E+0000
  0
LINE
  8
1
  6
CONTINUOUS
 62
     1
 10
 4.57677637583402E+0000
 20
 4.88423833881825E+0000
 11
 4.53849625019211E+0000
 21
 4.92251846446743E+0000
  0
LINE
  8
1
  6
CONTINUOUS
 62
     1
 10
 4.57133343499299E+0000
 20
 4.91033548385167E+0000
 11
 4.54150697652221E+0000
 21
 4.94016194231517E+0000
  0
LINE
  8
1
  6
CONTINUOUS
 62
     1
 10
 4.56589049414470E+0000
 20
 4.93643262887781E+0000
 11
 4.54451770285959E+0000
 21
 4.95780542017019E+0000
  0
LINE
  8
1
  6
CONTINUOUS
 62
     1
 10
 4.56044755330367E+0000
 20
 4.96252977391123E+0000
 11
 4.54752842918970E+0000
 21
 4.97544889802521E+0000
  0
LINE
  8
1
  6
CONTINUOUS
 62
     1
 10
 4.55500461245538E+0000
 20
 4.98862691894465E+0000
 11
 4.55053915551980E+0000
 21
 4.99309237587295E+0000
  0
LINE
  8
1
  6
CONTINUOUS
 62
     1
 10
 4.58356944881234E+0000
 20
 4.85166774586833E+0000
 11
 4.57502451707114E+0000
 21
 4.84312281411985E+0000
  0
LINE
  8
1
  6
CONTINUOUS
 62
     1
 10
 4.58000510811689E+0000
 20
 4.86875760935800E+0000
 11
 4.55437031287875E+0000
 21
 4.84312281411985E+0000
  0
LINE
  8
1
  6
CONTINUOUS
 62
     1
 10
 4.57644076742145E+0000
 20
 4.88584747284767E+0000
 11
 4.53371610869362E+0000
 21
 4.84312281411985E+0000
  0
LINE
  8
1
  6
CONTINUOUS
 62
     1
 10
 4.57287642672600E+0000
 20
 4.90293733633735E+0000
 11
 4.52739357269456E+0000
 21
 4.85745448230591E+0000
  0
LINE
  8
1
  6
CONTINUOUS
 62
     1
 10
 4.56931208603055E+0000
 20
 4.92002719982702E+0000
 11
 4.53164322843077E+0000
 21
 4.88235834222723E+0000
  0
LINE
  8
1
  6
CONTINUOUS
 62
     1
 10
 4.56574774534238E+0000
 20
 4.93711706332397E+0000
 11
 4.53589288416697E+0000
 21
 4.90726220214856E+0000
  0
LINE
  8
1
  6
CONTINUOUS
 62
     1
 10
 4.56218340463965E+0000
 20
 4.95420692680636E+0000
 11
 4.54014253990317E+0000
 21
 4.93216606206988E+0000
  0
LINE
  8
1
  6
CONTINUOUS
 62
     1
 10
 4.55861906394421E+0000
 20
 4.97129679030331E+0000
 11
 4.54439219563938E+0000
 21
 4.95706992199121E+0000
  0
LINE
  8
1
  6
CONTINUOUS
 62
     1
 10
 4.55505472325603E+0000
 20
 4.98838665379299E+0000
 11
 4.54864185137558E+0000
 21
 4.98197378191253E+0000
  0
LINE
  8
1
  6
CONTINUOUS
 62
     1
 10
 4.55886136811023E+0000
 20
 5.23048751180613E+0000
 11
 4.55886136811023E+0000
 21
 5.23048751180613E+0000
  0
LINE
  8
1
  6
CONTINUOUS
 62
     1
 10
 4.55886136811023E+0000
 20
 5.23048751180613E+0000
 11
 4.58604288947390E+0000
 21
 5.38977683843405E+0000
  0
LINE
  8
1
  6
CONTINUOUS
 62
     1
 10
 4.58604288947390E+0000
 20
 5.38977683843405E+0000
 11
 4.52563925200229E+0000
 21
 5.38977683843405E+0000
  0
LINE
  8
1
  6
CONTINUOUS
 62
     1
 10
 4.52563925200229E+0000
 20
 5.38977683843405E+0000
 11
 4.55886136811023E+0000
 21
 5.23048751180613E+0000
  0
LINE
  8
1
  6
CONTINUOUS
 62
     1
 10
 4.58604288947390E+0000
 20
 5.38977683843405E+0000
 11
 4.52563925200229E+0000
 21
 5.38977683843405E+0000
  0
LINE
  8
1
  6
CONTINUOUS
 62
     1
 10
 4.56036673127528E+0000
 20
 5.23930925073364E+0000
 11
 4.55613989768608E+0000
 21
 5.24353608432284E+0000
  0
LINE
  8
1
  6
CONTINUOUS
 62
     1
 10
 4.56337745761266E+0000
 20
 5.25695272858866E+0000
 11
 4.55069695683778E+0000
 21
 5.26963322935626E+0000
  0
LINE
  8
1
  6
CONTINUOUS
 62
     1
 10
 4.56638818394276E+0000
 20
 5.27459620643640E+0000
 11
 4.54525401599676E+0000
 21
 5.29573037438968E+0000
  0
LINE
  8
1
  6
CONTINUOUS
 62
     1
 10
 4.56939891028014E+0000
 20
 5.29223968429142E+0000
 11
 4.53981107514846E+0000
 21
 5.32182751942310E+0000
  0
LINE
  8
1
  6
CONTINUOUS
 62
     1
 10
 4.57240963661025E+0000
 20
 5.30988316214643E+0000
 11
 4.53436813430017E+0000
 21
 5.34792466445651E+0000
  0
LINE
  8
1
  6
CONTINUOUS
 62
     1
 10
 4.57542036294035E+0000
 20
 5.32752663999418E+0000
 11
 4.52892519345187E+0000
 21
 5.37402180948266E+0000
  0
LINE
  8
1
  6
CONTINUOUS
 62
     1
 10
 4.57843108927773E+0000
 20
 5.34517011784919E+0000
 11
 4.53382436868560E+0000
 21
 5.38977683843405E+0000
  0
LINE
  8
1
  6
CONTINUOUS
 62
     1
 10
 4.58144181560783E+0000
 20
 5.36281359570421E+0000
 11
 4.55447857287072E+0000
 21
 5.38977683843405E+0000
  0
LINE
  8
1
  6
CONTINUOUS
 62
     1
 10
 4.58445254193794E+0000
 20
 5.38045707355195E+0000
 11
 4.57513277705584E+0000
 21
 5.38977683843405E+0000
  0
LINE
  8
1
  6
CONTINUOUS
 62
     1
 10
 4.56098619597469E+0000
 20
 5.24293944176316E+0000
 11
 4.55707919775887E+0000
 21
 5.23903244354733E+0000
  0
LINE
  8
1
  6
CONTINUOUS
 62
     1
 10
 4.56523585171090E+0000
 20
 5.26784330167720E+0000
 11
 4.55351485706342E+0000
 21
 5.25612230703700E+0000
  0
LINE
  8
1
  6
CONTINUOUS
 62
     1
 10
 4.56948550743982E+0000
 20
 5.29274716159853E+0000
 11
 4.54995051636797E+0000
 21
 5.27321217052668E+0000
  0
LINE
  8
1
  6
CONTINUOUS
 62
     1
 10
 4.57373516317602E+0000
 20
 5.31765102151985E+0000
 11
 4.54638617567980E+0000
 21
 5.29030203401635E+0000
  0
LINE
  8
1
  6
CONTINUOUS
 62
     1
 10
 4.57798481891223E+0000
 20
 5.34255488144117E+0000
 11
 4.54282183497708E+0000
 21
 5.30739189750602E+0000
  0
LINE
  8
1
  6
CONTINUOUS
 62
     1
 10
 4.58223447464843E+0000
 20
 5.36745874136250E+0000
 11
 4.53925749428163E+0000
 21
 5.32448176099570E+0000
  0
LINE
  8
1
  6
CONTINUOUS
 62
     1
 10
 4.58389836753486E+0000
 20
 5.38977683843405E+0000
 11
 4.53569315359346E+0000
 21
 5.34157162449264E+0000
  0
LINE
  8
1
  6
CONTINUOUS
 62
     1
 10
 4.56324416334974E+0000
 20
 5.38977683843405E+0000
 11
 4.53212881289801E+0000
 21
 5.35866148798232E+0000
  0
LINE
  8
1
  6
CONTINUOUS
 62
     1
 10
 4.54258995916462E+0000
 20
 5.38977683843405E+0000
 11
 4.52856447220256E+0000
 21
 5.37575135147199E+0000
  0
LINE
  8
1
  6
CONTINUOUS
 62
     1
 10
 1.55102311930386E+0000
 20
 5.06886594138632E+0000
 11
 1.55102311930386E+0000
 21
 5.06886594138632E+0000
  0
LINE
  8
1
  6
CONTINUOUS
 62
     1
 10
 1.55102311930386E+0000
 20
 5.06886594138632E+0000
 11
 1.52384159794019E+0000
 21
 4.90957661475841E+0000
  0
LINE
  8
1
  6
CONTINUOUS
 62
     1
 10
 1.52384159794019E+0000
 20
 4.90957661475841E+0000
 11
 1.58424523541180E+0000
 21
 4.90957661475841E+0000
  0
LINE
  8
1
  6
CONTINUOUS
 62
     1
 10
 1.58424523541180E+0000
 20
 4.90957661475841E+0000
 11
 1.55102311930386E+0000
 21
 5.06886594138632E+0000
  0
LINE
  8
1
  6
CONTINUOUS
 62
     1
 10
 1.52384159794019E+0000
 20
 4.90957661475841E+0000
 11
 1.58424523541180E+0000
 21
 4.90957661475841E+0000
  0
LINE
  8
1
  6
CONTINUOUS
 62
     1
 10
 1.53416870003639E+0000
 20
 4.90957661475841E+0000
 11
 1.52534696110888E+0000
 21
 4.91839835368592E+0000
  0
LINE
  8
1
  6
CONTINUOUS
 62
     1
 10
 1.55482290422333E+0000
 20
 4.90957661475841E+0000
 11
 1.52835768744080E+0000
 21
 4.93604183154093E+0000
  0
LINE
  8
1
  6
CONTINUOUS
 62
     1
 10
 1.57547710840845E+0000
 20
 4.90957661475841E+0000
 11
 1.53136841377454E+0000
 21
 4.95368530938867E+0000
  0
LINE
  8
1
  6
CONTINUOUS
 62
     1
 10
 1.58111293293041E+0000
 20
 4.92459499442339E+0000
 11
 1.53437914010647E+0000
 21
 4.97132878724369E+0000
  0
LINE
  8
1
  6
CONTINUOUS
 62
     1
 10
 1.57566999208393E+0000
 20
 4.95069213944953E+0000
 11
 1.53738986643839E+0000
 21
 4.98897226509871E+0000
  0
LINE
  8
1
  6
CONTINUOUS
 62
     1
 10
 1.57022705123927E+0000
 20
 4.97678928448295E+0000
 11
 1.54040059277031E+0000
 21
 5.00661574295373E+0000
  0
LINE
  8
1
  6
CONTINUOUS
 62
     1
 10
 1.56478411039097E+0000
 20
 5.00288642951637E+0000
 11
 1.54341131910223E+0000
 21
 5.02425922080874E+0000
  0
LINE
  8
1
  6
CONTINUOUS
 62
     1
 10
 1.55934116954450E+0000
 20
 5.02898357454978E+0000
 11
 1.54642204543597E+0000
 21
 5.04190269865649E+0000
  0
LINE
  8
1
  6
CONTINUOUS
 62
     1
 10
 1.55389822869620E+0000
 20
 5.05508071958320E+0000
 11
 1.54943277176790E+0000
 21
 5.05954617651150E+0000
  0
LINE
  8
1
  6
CONTINUOUS
 62
     1
 10
 1.58246306506589E+0000
 20
 4.91812154649961E+0000
 11
 1.57391813331924E+0000
 21
 4.90957661475841E+0000
  0
LINE
  8
1
  6
CONTINUOUS
 62
     1
 10
 1.57889872437227E+0000
 20
 4.93521140999655E+0000
 11
 1.55326392913412E+0000
 21
 4.90957661475841E+0000
  0
LINE
  8
1
  6
CONTINUOUS
 62
     1
 10
 1.57533438367318E+0000
 20
 4.95230127347895E+0000
 11
 1.53260972494900E+0000
 21
 4.90957661475841E+0000
  0
LINE
  8
1
  6
CONTINUOUS
 62
     1
 10
 1.57177004297955E+0000
 20
 4.96939113696862E+0000
 11
 1.52628718894630E+0000
 21
 4.92390828293719E+0000
  0
LINE
  8
1
  6
CONTINUOUS
 62
     1
 10
 1.56820570228592E+0000
 20
 4.98648100046557E+0000
 11
 1.53053684468250E+0000
 21
 4.94881214285851E+0000
  0
LINE
  8
1
  6
CONTINUOUS
 62
     1
 10
 1.56464136159229E+0000
 20
 5.00357086395525E+0000
 11
 1.53478650041689E+0000
 21
 4.97371600277984E+0000
  0
LINE
  8
1
  6
CONTINUOUS
 62
     1
 10
 1.56107702089321E+0000
 20
 5.02066072744492E+0000
 11
 1.53903615615309E+0000
 21
 4.99861986270116E+0000
  0
LINE
  8
1
  6
CONTINUOUS
 62
     1
 10
 1.55751268019958E+0000
 20
 5.03775059093459E+0000
 11
 1.54328581188929E+0000
 21
 5.02352372262249E+0000
  0
LINE
  8
1
  6
CONTINUOUS
 62
     1
 10
 1.55394833950595E+0000
 20
 5.05484045442427E+0000
 11
 1.54753546762367E+0000
 21
 5.04842758254381E+0000
  0
LINE
  8
1
  6
CONTINUOUS
 62
     1
 10
 1.55775498435833E+0000
 20
 3.24625140015996E+0000
 11
 1.55775498435833E+0000
 21
 3.24625140015996E+0000
  0
LINE
  8
1
  6
CONTINUOUS
 62
     1
 10
 1.55775498435833E+0000
 20
 3.24625140015996E+0000
 11
 1.58493650572200E+0000
 21
 3.40554072678788E+0000
  0
LINE
  8
1
  6
CONTINUOUS
 62
     1
 10
 1.58493650572200E+0000
 20
 3.40554072678788E+0000
 11
 1.52453286825039E+0000
 21
 3.40554072678788E+0000
  0
LINE
  8
1
  6
CONTINUOUS
 62
     1
 10
 1.52453286825039E+0000
 20
 3.40554072678788E+0000
 11
 1.55775498435833E+0000
 21
 3.24625140015996E+0000
  0
LINE
  8
1
  6
CONTINUOUS
 62
     1
 10
 1.58493650572200E+0000
 20
 3.40554072678788E+0000
 11
 1.52453286825039E+0000
 21
 3.40554072678788E+0000
  0
LINE
  8
1
  6
CONTINUOUS
 62
     1
 10
 1.55926034752520E+0000
 20
 3.25507313908747E+0000
 11
 1.55503351393600E+0000
 21
 3.25929997267667E+0000
  0
LINE
  8
1
  6
CONTINUOUS
 62
     1
 10
 1.56227107385712E+0000
 20
 3.27271661693885E+0000
 11
 1.54959057308770E+0000
 21
 3.28539711771009E+0000
  0
LINE
  8
1
  6
CONTINUOUS
 62
     1
 10
 1.56528180019086E+0000
 20
 3.29036009479387E+0000
 11
 1.54414763224122E+0000
 21
 3.31149426274351E+0000
  0
LINE
  8
1
  6
CONTINUOUS
 62
     1
 10
 1.56829252652278E+0000
 20
 3.30800357264525E+0000
 11
 1.53870469139474E+0000
 21
 3.33759140777329E+0000
  0
LINE
  8
1
  6
CONTINUOUS
 62
     1
 10
 1.57130325285470E+0000
 20
 3.32564705049663E+0000
 11
 1.53326175054826E+0000
 21
 3.36368855280671E+0000
  0
LINE
  8
1
  6
CONTINUOUS
 62
     1
 10
 1.57431397918845E+0000
 20
 3.34329052835164E+0000
 11
 1.52781880970178E+0000
 21
 3.38978569783649E+0000
  0
LINE
  8
1
  6
CONTINUOUS
 62
     1
 10
 1.57732470552037E+0000
 20
 3.36093400620302E+0000
 11
 1.53271798493734E+0000
 21
 3.40554072678788E+0000
  0
LINE
  8
1
  6
CONTINUOUS
 62
     1
 10
 1.58033543185411E+0000
 20
 3.37857748405804E+0000
 11
 1.55337218912246E+0000
 21
 3.40554072678788E+0000
  0
LINE
  8
1
  6
CONTINUOUS
 62
     1
 10
 1.58334615818603E+0000
 20
 3.39622096190942E+0000
 11
 1.57402639330758E+0000
 21
 3.40554072678788E+0000
  0
LINE
  8
1
  6
CONTINUOUS
 62
     1
 10
 1.55987981222279E+0000
 20
 3.25870333011699E+0000
 11
 1.55597281400878E+0000
 21
 3.25479633190116E+0000
  0
LINE
  8
1
  6
CONTINUOUS
 62
     1
 10
 1.56412946795899E+0000
 20
 3.28360719003831E+0000
 11
 1.55240847331333E+0000
 21
 3.27188619539083E+0000
  0
LINE
  8
1
  6
CONTINUOUS
 62
     1
 10
 1.56837912369519E+0000
 20
 3.30851104995963E+0000
 11
 1.54884413261971E+0000
 21
 3.28897605888415E+0000
  0
LINE
  8
1
  6
CONTINUOUS
 62
     1
 10
 1.57262877942958E+0000
 20
 3.33341490988096E+0000
 11
 1.54527979192608E+0000
 21
 3.30606592237382E+0000
  0
LINE
  8
1
  6
CONTINUOUS
 62
     1
 10
 1.57687843516578E+0000
 20
 3.35831876980228E+0000
 11
 1.54171545122881E+0000
 21
 3.32315578586349E+0000
  0
LINE
  8
1
  6
CONTINUOUS
 62
     1
 10
 1.58112809090198E+0000
 20
 3.38322262972360E+0000
 11
 1.53815111053518E+0000
 21
 3.34024564935680E+0000
  0
LINE
  8
1
  6
CONTINUOUS
 62
     1
 10
 1.58279198377932E+0000
 20
 3.40554072678424E+0000
 11
 1.53458676984155E+0000
 21
 3.35733551284648E+0000
  0
LINE
  8
1
  6
CONTINUOUS
 62
     1
 10
 1.56213777959420E+0000
 20
 3.40554072678424E+0000
 11
 1.53102242914611E+0000
 21
 3.37442537633615E+0000
  0
LINE
  8
1
  6
CONTINUOUS
 62
     1
 10
 1.54148357540726E+0000
 20
 3.40554072678424E+0000
 11
 1.52745808845248E+0000
 21
 3.39151523982946E+0000
  0
LINE
  8
1
  6
CONTINUOUS
 62
     1
 10
 3.67242647681996E+0000
 20
 3.14837856322993E+0000
 11
 3.67242647681996E+0000
 21
 3.14837856322993E+0000
  0
LINE
  8
1
  6
CONTINUOUS
 62
     1
 10
 3.67242647681996E+0000
 20
 3.14837856322993E+0000
 11
 3.64524495545629E+0000
 21
 2.98908923660201E+0000
  0
LINE
  8
1
  6
CONTINUOUS
 62
     1
 10
 3.64524495545629E+0000
 20
 2.98908923660201E+0000
 11
 3.70564859292790E+0000
 21
 2.98908923660201E+0000
  0
LINE
  8
1
  6
CONTINUOUS
 62
     1
 10
 3.70564859292790E+0000
 20
 2.98908923660201E+0000
 11
 3.67242647681996E+0000
 21
 3.14837856322993E+0000
  0
LINE
  8
1
  6
CONTINUOUS
 62
     1
 10
 3.64524495545629E+0000
 20
 2.98908923660201E+0000
 11
 3.70564859292790E+0000
 21
 2.98908923660201E+0000
  0
LINE
  8
1
  6
CONTINUOUS
 62
     1
 10
 3.65557205754885E+0000
 20
 2.98908923660201E+0000
 11
 3.64675031862134E+0000
 21
 2.99791097552588E+0000
  0
LINE
  8
1
  6
CONTINUOUS
 62
     1
 10
 3.67622626173397E+0000
 20
 2.98908923660201E+0000
 11
 3.64976104495508E+0000
 21
 3.01555445338090E+0000
  0
LINE
  8
1
  6
CONTINUOUS
 62
     1
 10
 3.69688046591546E+0000
 20
 2.98908923660201E+0000
 11
 3.65277177128883E+0000
 21
 3.03319793123228E+0000
  0
LINE
  8
1
  6
CONTINUOUS
 62
     1
 10
 3.70251629045379E+0000
 20
 3.00410761625244E+0000
 11
 3.65578249761893E+0000
 21
 3.05084140908366E+0000
  0
LINE
  8
1
  6
CONTINUOUS
 62
     1
 10
 3.69707334960549E+0000
 20
 3.03020476128586E+0000
 11
 3.65879322395267E+0000
 21
 3.06848488693868E+0000
  0
LINE
  8
1
  6
CONTINUOUS
 62
     1
 10
 3.69163040875719E+0000
 20
 3.05630190631928E+0000
 11
 3.66180395028641E+0000
 21
 3.08612836479006E+0000
  0
LINE
  8
1
  6
CONTINUOUS
 62
     1
 10
 3.68618746791253E+0000
 20
 3.08239905134906E+0000
 11
 3.66481467662015E+0000
 21
 3.10377184264144E+0000
  0
LINE
  8
1
  6
CONTINUOUS
 62
     1
 10
 3.68074452706423E+0000
 20
 3.10849619638248E+0000
 11
 3.66782540295026E+0000
 21
 3.12141532049645E+0000
  0
LINE
  8
1
  6
CONTINUOUS
 62
     1
 10
 3.67530158621958E+0000
 20
 3.13459334141589E+0000
 11
 3.67083612928400E+0000
 21
 3.13905879834783E+0000
  0
LINE
  8
1
  6
CONTINUOUS
 62
     1
 10
 3.70386642257654E+0000
 20
 2.99763416834321E+0000
 11
 3.69532149082806E+0000
 21
 2.98908923659837E+0000
  0
LINE
  8
1
  6
CONTINUOUS
 62
     1
 10
 3.70030208188109E+0000
 20
 3.01472403183288E+0000
 11
 3.67466728664294E+0000
 21
 2.98908923659837E+0000
  0
LINE
  8
1
  6
CONTINUOUS
 62
     1
 10
 3.69673774118928E+0000
 20
 3.03181389532620E+0000
 11
 3.65401308245782E+0000
 21
 2.98908923659837E+0000
  0
LINE
  8
1
  6
CONTINUOUS
 62
     1
 10
 3.69317340049383E+0000
 20
 3.04890375881951E+0000
 11
 3.64769054646240E+0000
 21
 3.00342090478443E+0000
  0
LINE
  8
1
  6
CONTINUOUS
 62
     1
 10
 3.68960905979475E+0000
 20
 3.06599362230554E+0000
 11
 3.65194020219860E+0000
 21
 3.02832476470576E+0000
  0
LINE
  8
1
  6
CONTINUOUS
 62
     1
 10
 3.68604471910294E+0000
 20
 3.08308348579521E+0000
 11
 3.65618985793117E+0000
 21
 3.05322862462708E+0000
  0
LINE
  8
1
  6
CONTINUOUS
 62
     1
 10
 3.68248037840749E+0000
 20
 3.10017334928853E+0000
 11
 3.66043951366737E+0000
 21
 3.07813248454841E+0000
  0
LINE
  8
1
  6
CONTINUOUS
 62
     1
 10
 3.67891603771568E+0000
 20
 3.11726321277820E+0000
 11
 3.66468916940357E+0000
 21
 3.10303634446973E+0000
  0
LINE
  8
1
  6
CONTINUOUS
 62
     1
 10
 3.67535169702023E+0000
 20
 3.13435307627151E+0000
 11
 3.66893882513978E+0000
 21
 3.12794020439105E+0000
  0
LINE
  8
1
  6
CONTINUOUS
 62
     1
 10
 3.67915834187443E+0000
 20
 3.33305308956187E+0000
 11
 3.67915834187443E+0000
 21
 3.33305308956187E+0000
  0
LINE
  8
1
  6
CONTINUOUS
 62
     1
 10
 3.67915834187443E+0000
 20
 3.33305308956187E+0000
 11
 3.70633986323810E+0000
 21
 3.49234241618979E+0000
  0
LINE
  8
1
  6
CONTINUOUS
 62
     1
 10
 3.70633986323810E+0000
 20
 3.49234241618979E+0000
 11
 3.64593622576649E+0000
 21
 3.49234241618979E+0000
  0
LINE
  8
1
  6
CONTINUOUS
 62
     1
 10
 3.64593622576649E+0000
 20
 3.49234241618979E+0000
 11
 3.67915834187443E+0000
 21
 3.33305308956187E+0000
  0
LINE
  8
1
  6
CONTINUOUS
 62
     1
 10
 3.70633986323810E+0000
 20
 3.49234241618979E+0000
 11
 3.64593622576649E+0000
 21
 3.49234241618979E+0000
  0
LINE
  8
1
  6
CONTINUOUS
 62
     1
 10
 3.68066370504312E+0000
 20
 3.34187482848938E+0000
 11
 3.67643687145392E+0000
 21
 3.34610166207858E+0000
  0
LINE
  8
1
  6
CONTINUOUS
 62
     1
 10
 3.68367443137322E+0000
 20
 3.35951830634440E+0000
 11
 3.67099393060562E+0000
 21
 3.37219880711200E+0000
  0
LINE
  8
1
  6
CONTINUOUS
 62
     1
 10
 3.68668515770696E+0000
 20
 3.37716178419578E+0000
 11
 3.66555098976096E+0000
 21
 3.39829595214542E+0000
  0
LINE
  8
1
  6
CONTINUOUS
 62
     1
 10
 3.68969588404070E+0000
 20
 3.39480526205080E+0000
 11
 3.66010804891266E+0000
 21
 3.42439309717520E+0000
  0
LINE
  8
1
  6
CONTINUOUS
 62
     1
 10
 3.69270661037081E+0000
 20
 3.41244873990217E+0000
 11
 3.65466510806436E+0000
 21
 3.45049024220862E+0000
  0
LINE
  8
1
  6
CONTINUOUS
 62
     1
 10
 3.69571733670455E+0000
 20
 3.43009221775355E+0000
 11
 3.64922216721970E+0000
 21
 3.47658738724203E+0000
  0
LINE
  8
1
  6
CONTINUOUS
 62
     1
 10
 3.69872806303829E+0000
 20
 3.44773569560857E+0000
 11
 3.65412134245344E+0000
 21
 3.49234241618979E+0000
  0
LINE
  8
1
  6
CONTINUOUS
 62
     1
 10
 3.70173878936839E+0000
 20
 3.46537917345995E+0000
 11
 3.67477554664219E+0000
 21
 3.49234241618979E+0000
  0
LINE
  8
1
  6
CONTINUOUS
 62
     1
 10
 3.70474951570213E+0000
 20
 3.48302265131497E+0000
 11
 3.69542975082732E+0000
 21
 3.49234241618979E+0000
  0
LINE
  8
1
  6
CONTINUOUS
 62
     1
 10
 3.68128316973525E+0000
 20
 3.34550501951526E+0000
 11
 3.67737617152306E+0000
 21
 3.34159802130307E+0000
  0
LINE
  8
1
  6
CONTINUOUS
 62
     1
 10
 3.68553282547146E+0000
 20
 3.37040887943658E+0000
 11
 3.67381183082762E+0000
 21
 3.35868788479274E+0000
  0
LINE
  8
1
  6
CONTINUOUS
 62
     1
 10
 3.68978248120766E+0000
 20
 3.39531273935791E+0000
 11
 3.67024749013581E+0000
 21
 3.37577774828605E+0000
  0
LINE
  8
1
  6
CONTINUOUS
 62
     1
 10
 3.69403213694386E+0000
 20
 3.42021659927923E+0000
 11
 3.66668314944036E+0000
 21
 3.39286761177573E+0000
  0
LINE
  8
1
  6
CONTINUOUS
 62
     1
 10
 3.69828179268006E+0000
 20
 3.44512045920055E+0000
 11
 3.66311880874127E+0000
 21
 3.40995747526540E+0000
  0
LINE
  8
1
  6
CONTINUOUS
 62
     1
 10
 3.70253144841627E+0000
 20
 3.47002431912188E+0000
 11
 3.65955446804946E+0000
 21
 3.42704733875507E+0000
  0
LINE
  8
1
  6
CONTINUOUS
 62
     1
 10
 3.70419534129178E+0000
 20
 3.49234241618251E+0000
 11
 3.65599012735402E+0000
 21
 3.44413720224838E+0000
  0
LINE
  8
1
  6
CONTINUOUS
 62
     1
 10
 3.68354113711030E+0000
 20
 3.49234241618979E+0000
 11
 3.65242578666221E+0000
 21
 3.46122706573806E+0000
  0
LINE
  8
1
  6
CONTINUOUS
 62
     1
 10
 3.66288693292518E+0000
 20
 3.49234241618979E+0000
 11
 3.64886144596676E+0000
 21
 3.47831692923137E+0000
  0
LINE
  8
1
  6
CONTINUOUS
 62
     1
 10
 4.18286316508602E+0000
 20
 5.75184159470518E+0000
 11
 4.18286316508602E+0000
 21
 5.75184159470518E+0000
  0
LINE
  8
1
  6
CONTINUOUS
 62
     1
 10
 4.18286316508602E+0000
 20
 5.75184159470518E+0000
 11
 4.02357383845083E+0000
 21
 5.77902311606886E+0000
  0
LINE
  8
1
  6
CONTINUOUS
 62
     1
 10
 4.02357383845083E+0000
 20
 5.77902311606886E+0000
 11
 4.02357383845083E+0000
 21
 5.71861947859725E+0000
  0
LINE
  8
1
  6
CONTINUOUS
 62
     1
 10
 4.02357383845083E+0000
 20
 5.71861947859725E+0000
 11
 4.18286316508602E+0000
 21
 5.75184159470518E+0000
  0
LINE
  8
1
  6
CONTINUOUS
 62
     1
 10
 4.02357383845083E+0000
 20
 5.77902311606886E+0000
 11
 4.02357383845083E+0000
 21
 5.71861947859725E+0000
  0
LINE
  8
1
  6
CONTINUOUS
 62
     1
 10
 4.03211877019930E+0000
 20
 5.72040164894861E+0000
 11
 4.02357383845083E+0000
 21
 5.72894658068981E+0000
  0
LINE
  8
1
  6
CONTINUOUS
 62
     1
 10
 4.04920863368898E+0000
 20
 5.72396598964406E+0000
 11
 4.02357383845083E+0000
 21
 5.74960078488220E+0000
  0
LINE
  8
1
  6
CONTINUOUS
 62
     1
 10
 4.06629849717865E+0000
 20
 5.72753033033950E+0000
 11
 4.02357383845083E+0000
 21
 5.77025498906733E+0000
  0
LINE
  8
1
  6
CONTINUOUS
 62
     1
 10
 4.08338836066832E+0000
 20
 5.73109467102768E+0000
 11
 4.03790550664417E+0000
 21
 5.77657752505911E+0000
  0
LINE
  8
1
  6
CONTINUOUS
 62
     1
 10
 4.10047822416527E+0000
 20
 5.73465901172312E+0000
 11
 4.06280936656549E+0000
 21
 5.77232786932291E+0000
  0
LINE
  8
1
  6
CONTINUOUS
 62
     1
 10
 4.11756808765494E+0000
 20
 5.73822335241857E+0000
 11
 4.08771322647954E+0000
 21
 5.76807821358670E+0000
  0
LINE
  8
1
  6
CONTINUOUS
 62
     1
 10
 4.13465795114462E+0000
 20
 5.74178769311402E+0000
 11
 4.11261708640086E+0000
 21
 5.76382855785778E+0000
  0
LINE
  8
1
  6
CONTINUOUS
 62
     1
 10
 4.15174781463429E+0000
 20
 5.74535203380947E+0000
 11
 4.13752094632218E+0000
 21
 5.75957890212158E+0000
  0
LINE
  8
1
  6
CONTINUOUS
 62
     1
 10
 4.16883767812396E+0000
 20
 5.74891637450492E+0000
 11
 4.16242480624351E+0000
 21
 5.75532924638537E+0000
  0
LINE
  8
1
  6
CONTINUOUS
 62
     1
 10
 4.17404142615851E+0000
 20
 5.75334695787024E+0000
 11
 4.16981459256931E+0000
 21
 5.74912012428103E+0000
  0
LINE
  8
1
  6
CONTINUOUS
 62
     1
 10
 4.15639794830349E+0000
 20
 5.75635768420034E+0000
 11
 4.14371744753589E+0000
 21
 5.74367718343274E+0000
  0
LINE
  8
1
  6
CONTINUOUS
 62
     1
 10
 4.13875447044848E+0000
 20
 5.75936841053044E+0000
 11
 4.11762030250247E+0000
 21
 5.73823424258444E+0000
  0
LINE
  8
1
  6
CONTINUOUS
 62
     1
 10
 4.12111099260073E+0000
 20
 5.76237913686782E+0000
 11
 4.09152315747633E+0000
 21
 5.73279130173614E+0000
  0
LINE
  8
1
  6
CONTINUOUS
 62
     1
 10
 4.10346751474572E+0000
 20
 5.76538986319792E+0000
 11
 4.06542601244291E+0000
 21
 5.72734836088785E+0000
  0
LINE
  8
1
  6
CONTINUOUS
 62
     1
 10
 4.08582403689798E+0000
 20
 5.76840058952803E+0000
 11
 4.03932886740949E+0000
 21
 5.72190542004682E+0000
  0
LINE
  8
1
  6
CONTINUOUS
 62
     1
 10
 4.06818055904296E+0000
 20
 5.77141131586541E+0000
 11
 4.02357383844355E+0000
 21
 5.72680459526600E+0000
  0
LINE
  8
1
  6
CONTINUOUS
 62
     1
 10
 4.05053708118794E+0000
 20
 5.77442204219551E+0000
 11
 4.02357383844355E+0000
 21
 5.74745879945112E+0000
  0
LINE
  8
1
  6
CONTINUOUS
 62
     1
 10
 4.03289360333292E+0000
 20
 5.77743276852561E+0000
 11
 4.02357383844355E+0000
 21
 5.76811300363624E+0000
  0
LINE
  8
1
  6
CONTINUOUS
 62
     1
 10
 2.37110516497341E+0000
 20
 5.75459941456938E+0000
 11
 2.37110516497341E+0000
 21
 5.75459941456938E+0000
  0
LINE
  8
1
  6
CONTINUOUS
 62
     1
 10
 2.37110516497341E+0000
 20
 5.75459941456938E+0000
 11
 2.53039449160860E+0000
 21
 5.72741789320571E+0000
  0
LINE
  8
1
  6
CONTINUOUS
 62
     1
 10
 2.53039449160860E+0000
 20
 5.72741789320571E+0000
 11
 2.53039449160860E+0000
 21
 5.78782153067732E+0000
  0
LINE
  8
1
  6
CONTINUOUS
 62
     1
 10
 2.53039449160860E+0000
 20
 5.78782153067732E+0000
 11
 2.37110516497341E+0000
 21
 5.75459941456938E+0000
  0
LINE
  8
1
  6
CONTINUOUS
 62
     1
 10
 2.53039449160860E+0000
 20
 5.72741789320571E+0000
 11
 2.53039449160860E+0000
 21
 5.78782153067732E+0000
  0
LINE
  8
1
  6
CONTINUOUS
 62
     1
 10
 2.38355709493408E+0000
 20
 5.75247458669764E+0000
 11
 2.37965009671825E+0000
 21
 5.75638158491347E+0000
  0
LINE
  8
1
  6
CONTINUOUS
 62
     1
 10
 2.40846095485176E+0000
 20
 5.74822493096872E+0000
 11
 2.39673996020792E+0000
 21
 5.75994592560892E+0000
  0
LINE
  8
1
  6
CONTINUOUS
 62
     1
 10
 2.43336481476945E+0000
 20
 5.74397527523251E+0000
 11
 2.41382982369760E+0000
 21
 5.76351026630437E+0000
  0
LINE
  8
1
  6
CONTINUOUS
 62
     1
 10
 2.45826867469077E+0000
 20
 5.73972561949631E+0000
 11
 2.43091968719091E+0000
 21
 5.76707460699981E+0000
  0
LINE
  8
1
  6
CONTINUOUS
 62
     1
 10
 2.48317253460846E+0000
 20
 5.73547596376739E+0000
 11
 2.44800955068058E+0000
 21
 5.77063894769526E+0000
  0
LINE
  8
1
  6
CONTINUOUS
 62
     1
 10
 2.50807639452614E+0000
 20
 5.73122630803118E+0000
 11
 2.46509941417025E+0000
 21
 5.77420328839071E+0000
  0
LINE
  8
1
  6
CONTINUOUS
 62
     1
 10
 2.53039449161224E+0000
 20
 5.72956241513748E+0000
 11
 2.48218927765993E+0000
 21
 5.77776762908616E+0000
  0
LINE
  8
1
  6
CONTINUOUS
 62
     1
 10
 2.53039449161224E+0000
 20
 5.75021661932260E+0000
 11
 2.49927914115324E+0000
 21
 5.78133196978160E+0000
  0
LINE
  8
1
  6
CONTINUOUS
 62
     1
 10
 2.53039449161224E+0000
 20
 5.77087082350772E+0000
 11
 2.51636900464291E+0000
 21
 5.78489631047705E+0000
  0
LINE
  8
1
  6
CONTINUOUS
 62
     1
 10
 2.53039449160860E+0000
 20
 5.73774499529100E+0000
 11
 2.52157275268110E+0000
 21
 5.72892325636349E+0000
  0
LINE
  8
1
  6
CONTINUOUS
 62
     1
 10
 2.53039449160860E+0000
 20
 5.75839919947612E+0000
 11
 2.50392927482608E+0000
 21
 5.73193398270087E+0000
  0
LINE
  8
1
  6
CONTINUOUS
 62
     1
 10
 2.53039449160860E+0000
 20
 5.77905340366124E+0000
 11
 2.48628579697470E+0000
 21
 5.73494470903097E+0000
  0
LINE
  8
1
  6
CONTINUOUS
 62
     1
 10
 2.51537611194726E+0000
 20
 5.78468922818865E+0000
 11
 2.46864231912696E+0000
 21
 5.73795543536835E+0000
  0
LINE
  8
1
  6
CONTINUOUS
 62
     1
 10
 2.48927896692112E+0000
 20
 5.77924628734763E+0000
 11
 2.45099884127194E+0000
 21
 5.74096616169845E+0000
  0
LINE
  8
1
  6
CONTINUOUS
 62
     1
 10
 2.46318182188770E+0000
 20
 5.77380334649934E+0000
 11
 2.43335536341692E+0000
 21
 5.74397688802856E+0000
  0
LINE
  8
1
  6
CONTINUOUS
 62
     1
 10
 2.43708467685792E+0000
 20
 5.76836040565831E+0000
 11
 2.41571188556554E+0000
 21
 5.74698761436593E+0000
  0
LINE
  8
1
  6
CONTINUOUS
 62
     1
 10
 2.41098753182450E+0000
 20
 5.76291746481002E+0000
 11
 2.39806840771053E+0000
 21
 5.74999834069604E+0000
  0
LINE
  8
1
  6
CONTINUOUS
 62
     1
 10
 2.38489038679472E+0000
 20
 5.75747452396172E+0000
 11
 2.38042492985915E+0000
 21
 5.75300906702614E+0000
  0
LINE
  8
1
  6
CONTINUOUS
 62
     1
 10
 6.29344303608377E+0000
 20
 2.47507781955210E+0000
 11
 6.29344303608377E+0000
 21
 2.47507781955210E+0000
  0
LINE
  8
1
  6
CONTINUOUS
 62
     1
 10
 6.29344303608377E+0000
 20
 2.47507781955210E+0000
 11
 6.13415370944858E+0000
 21
 2.50225934091577E+0000
  0
LINE
  8
1
  6
CONTINUOUS
 62
     1
 10
 6.13415370944858E+0000
 20
 2.50225934091577E+0000
 11
 6.13415370944858E+0000
 21
 2.44185570344416E+0000
  0
LINE
  8
1
  6
CONTINUOUS
 62
     1
 10
 6.13415370944858E+0000
 20
 2.44185570344416E+0000
 11
 6.29344303608377E+0000
 21
 2.47507781955210E+0000
  0
LINE
  8
1
  6
CONTINUOUS
 62
     1
 10
 6.13415370944858E+0000
 20
 2.50225934091577E+0000
 11
 6.13415370944858E+0000
 21
 2.44185570344416E+0000
  0
LINE
  8
1
  6
CONTINUOUS
 62
     1
 10
 6.14269864119706E+0000
 20
 2.44363787379189E+0000
 11
 6.13415370944858E+0000
 21
 2.45218280553672E+0000
  0
LINE
  8
1
  6
CONTINUOUS
 62
     1
 10
 6.15978850468673E+0000
 20
 2.44720221448733E+0000
 11
 6.13415370944858E+0000
 21
 2.47283700971821E+0000
  0
LINE
  8
1
  6
CONTINUOUS
 62
     1
 10
 6.17687836817640E+0000
 20
 2.45076655517914E+0000
 11
 6.13415370944858E+0000
 21
 2.49349121390333E+0000
  0
LINE
  8
1
  6
CONTINUOUS
 62
     1
 10
 6.19396823166608E+0000
 20
 2.45433089587459E+0000
 11
 6.14848537762737E+0000
 21
 2.49981374991330E+0000
  0
LINE
  8
1
  6
CONTINUOUS
 62
     1
 10
 6.21105809515575E+0000
 20
 2.45789523657004E+0000
 11
 6.17338923754869E+0000
 21
 2.49556409417710E+0000
  0
LINE
  8
1
  6
CONTINUOUS
 62
     1
 10
 6.22814795864542E+0000
 20
 2.46145957726549E+0000
 11
 6.19829309747001E+0000
 21
 2.49131443844090E+0000
  0
LINE
  8
1
  6
CONTINUOUS
 62
     1
 10
 6.24523782213510E+0000
 20
 2.46502391796093E+0000
 11
 6.22319695739134E+0000
 21
 2.48706478270469E+0000
  0
LINE
  8
1
  6
CONTINUOUS
 62
     1
 10
 6.26232768563204E+0000
 20
 2.46858825865274E+0000
 11
 6.24810081731266E+0000
 21
 2.48281512696849E+0000
  0
LINE
  8
1
  6
CONTINUOUS
 62
     1
 10
 6.27941754911444E+0000
 20
 2.47215259935183E+0000
 11
 6.27300467723398E+0000
 21
 2.47856547123229E+0000
  0
LINE
  8
1
  6
CONTINUOUS
 62
     1
 10
 6.28462129715626E+0000
 20
 2.47658318271715E+0000
 11
 6.28039446356706E+0000
 21
 2.47235634913159E+0000
  0
LINE
  8
1
  6
CONTINUOUS
 62
     1
 10
 6.26697781930125E+0000
 20
 2.47959390905089E+0000
 11
 6.25429731853365E+0000
 21
 2.46691340828329E+0000
  0
LINE
  8
1
  6
CONTINUOUS
 62
     1
 10
 6.24933434144623E+0000
 20
 2.48260463538099E+0000
 11
 6.22820017350023E+0000
 21
 2.46147046743499E+0000
  0
LINE
  8
1
  6
CONTINUOUS
 62
     1
 10
 6.23169086359121E+0000
 20
 2.48561536171474E+0000
 11
 6.20210302846681E+0000
 21
 2.45602752658669E+0000
  0
LINE
  8
1
  6
CONTINUOUS
 62
     1
 10
 6.21404738573619E+0000
 20
 2.48862608804484E+0000
 11
 6.17600588343339E+0000
 21
 2.45058458574204E+0000
  0
LINE
  8
1
  6
CONTINUOUS
 62
     1
 10
 6.19640390788845E+0000
 20
 2.49163681437858E+0000
 11
 6.14990873839997E+0000
 21
 2.44514164489374E+0000
  0
LINE
  8
1
  6
CONTINUOUS
 62
     1
 10
 6.17876043003344E+0000
 20
 2.49464754070868E+0000
 11
 6.13415370944131E+0000
 21
 2.45004082012019E+0000
  0
LINE
  8
1
  6
CONTINUOUS
 62
     1
 10
 6.16111695217842E+0000
 20
 2.49765826704243E+0000
 11
 6.13415370944131E+0000
 21
 2.47069502430531E+0000
  0
LINE
  8
1
  6
CONTINUOUS
 62
     1
 10
 6.14347347432340E+0000
 20
 2.50066899337253E+0000
 11
 6.13415370944131E+0000
 21
 2.49134922849044E+0000
  0
LINE
  8
1
  6
CONTINUOUS
 62
     1
 10
 3.29110151899658E+0000
 20
 2.47783563941630E+0000
 11
 3.29110151899658E+0000
 21
 2.47783563941630E+0000
  0
LINE
  8
1
  6
CONTINUOUS
 62
     1
 10
 3.29110151899658E+0000
 20
 2.47783563941630E+0000
 11
 3.45039084563177E+0000
 21
 2.45065411805263E+0000
  0
LINE
  8
1
  6
CONTINUOUS
 62
     1
 10
 3.45039084563177E+0000
 20
 2.45065411805263E+0000
 11
 3.45039084563177E+0000
 21
 2.51105775552423E+0000
  0
LINE
  8
1
  6
CONTINUOUS
 62
     1
 10
 3.45039084563177E+0000
 20
 2.51105775552423E+0000
 11
 3.29110151899658E+0000
 21
 2.47783563941630E+0000
  0
LINE
  8
1
  6
CONTINUOUS
 62
     1
 10
 3.45039084563177E+0000
 20
 2.45065411805263E+0000
 11
 3.45039084563177E+0000
 21
 2.51105775552423E+0000
  0
LINE
  8
1
  6
CONTINUOUS
 62
     1
 10
 3.30355344895725E+0000
 20
 2.47571081155183E+0000
 11
 3.29964645074506E+0000
 21
 2.47961780976402E+0000
  0
LINE
  8
1
  6
CONTINUOUS
 62
     1
 10
 3.32845730887857E+0000
 20
 2.47146115581563E+0000
 11
 3.31673631423473E+0000
 21
 2.48318215045947E+0000
  0
LINE
  8
1
  6
CONTINUOUS
 62
     1
 10
 3.35336116879989E+0000
 20
 2.46721150007943E+0000
 11
 3.33382617772440E+0000
 21
 2.48674649115492E+0000
  0
LINE
  8
1
  6
CONTINUOUS
 62
     1
 10
 3.37826502872122E+0000
 20
 2.46296184434323E+0000
 11
 3.35091604121772E+0000
 21
 2.49031083184673E+0000
  0
LINE
  8
1
  6
CONTINUOUS
 62
     1
 10
 3.40316888863890E+0000
 20
 2.45871218861066E+0000
 11
 3.36800590470739E+0000
 21
 2.49387517254218E+0000
  0
LINE
  8
1
  6
CONTINUOUS
 62
     1
 10
 3.42807274856023E+0000
 20
 2.45446253287446E+0000
 11
 3.38509576819706E+0000
 21
 2.49743951323762E+0000
  0
LINE
  8
1
  6
CONTINUOUS
 62
     1
 10
 3.45039084563177E+0000
 20
 2.45279863998803E+0000
 11
 3.40218563169037E+0000
 21
 2.50100385393307E+0000
  0
LINE
  8
1
  6
CONTINUOUS
 62
     1
 10
 3.45039084563177E+0000
 20
 2.47345284417315E+0000
 11
 3.41927549518005E+0000
 21
 2.50456819462488E+0000
  0
LINE
  8
1
  6
CONTINUOUS
 62
     1
 10
 3.45039084563177E+0000
 20
 2.49410704836191E+0000
 11
 3.43636535866972E+0000
 21
 2.50813253532033E+0000
  0
LINE
  8
1
  6
CONTINUOUS
 62
     1
 10
 3.45039084562814E+0000
 20
 2.46098122014519E+0000
 11
 3.44156910670426E+0000
 21
 2.45215948121768E+0000
  0
LINE
  8
1
  6
CONTINUOUS
 62
     1
 10
 3.45039084562814E+0000
 20
 2.48163542433031E+0000
 11
 3.42392562884925E+0000
 21
 2.45517020755142E+0000
  0
LINE
  8
1
  6
CONTINUOUS
 62
     1
 10
 3.45039084562814E+0000
 20
 2.50228962851543E+0000
 11
 3.40628215099787E+0000
 21
 2.45818093388152E+0000
  0
LINE
  8
1
  6
CONTINUOUS
 62
     1
 10
 3.43537246597043E+0000
 20
 2.50792545304284E+0000
 11
 3.38863867314649E+0000
 21
 2.46119166021890E+0000
  0
LINE
  8
1
  6
CONTINUOUS
 62
     1
 10
 3.40927532093701E+0000
 20
 2.50248251219455E+0000
 11
 3.37099519529511E+0000
 21
 2.46420238654900E+0000
  0
LINE
  8
1
  6
CONTINUOUS
 62
     1
 10
 3.38317817591087E+0000
 20
 2.49703957134989E+0000
 11
 3.35335171744009E+0000
 21
 2.46721311288275E+0000
  0
LINE
  8
1
  6
CONTINUOUS
 62
     1
 10
 3.35708103087381E+0000
 20
 2.49159663050159E+0000
 11
 3.33570823958871E+0000
 21
 2.47022383921285E+0000
  0
LINE
  8
1
  6
CONTINUOUS
 62
     1
 10
 3.33098388584767E+0000
 20
 2.48615368966057E+0000
 11
 3.31806476173369E+0000
 21
 2.47323456554659E+0000
  0
LINE
  8
1
  6
CONTINUOUS
 62
     1
 10
 3.30488674081789E+0000
 20
 2.48071074881591E+0000
 11
 3.30042128387868E+0000
 21
 2.47624529187669E+0000
  0
TEXT
  8
1
 62
     1
 10
 1.36766319030357E+0000
 20
 3.86887440157443E+0000
 40
 1.18110236219991E-0001
  1
47
  7
STANDARD
 11
 1.36766319030357E+0000
 21
 3.98698463779510E+0000
 50
 9.00000000000000E+0001
 41
 3.08371993680339E-0001
  0
TEXT
  8
1
 62
     1
 10
 3.54767109104068E+0000
 20
 2.66432838156470E+0000
 40
 1.18110236219991E-0001
  1
M4
  7
STANDARD
 11
 3.54767109104068E+0000
 21
 2.78243861778537E+0000
 50
 9.00000000000000E+0001
 41
 3.46918492890381E-0001
  0
TEXT
  8
1
 62
     1
 10
 4.37943201445160E+0000
 20
 5.37053498509340E+0000
 40
 1.18110236219991E-0001
  1
M4
  7
STANDARD
 11
 4.37943201445160E+0000
 21
 5.48864522131043E+0000
 50
 9.00000000000000E+0001
 41
 3.46918492890381E-0001
  0
TEXT
  8
1
 62
     1
 10
 4.54326525043871E+0000
 20
 4.28186160843325E+0000
 40
 1.18110236219991E-0001
  1
15
  7
STANDARD
 11
 4.54326525043871E+0000
 21
 4.39997184465028E+0000
 50
 9.00000000000000E+0001
 41
 3.08371993680339E-0001
  0
TEXT
  8
1
 62
     1
 10
 7.72085755217267E+0000
 20
 3.39437815103156E+0000
 40
 1.18110236219991E-0001
  1
M5
  7
STANDARD
 11
 7.72085755217267E+0000
 21
 3.51248838725223E+0000
 50
 9.00000000000000E+0001
 41
 3.46918492890381E-0001
  0
TEXT
  8
1
 62
     1
 10
 7.95071162102249E+0000
 20
 3.18961550976019E+0000
 40
 1.18110236219991E-0001
  1
67.5
  7
STANDARD
 11
 7.95071162102249E+0000
 21
 3.30772574598086E+0000
 50
 9.00000000000000E+0001
 41
 2.69825494460747E-0001
  0
TEXT
  8
1
 62
     1
 10
 8.64591099093377E+0000
 20
 5.17711644277733E+0000
 40
 1.18110236219991E-0001
  1
M4
  7
STANDARD
 11
 8.64591099093377E+0000
 21
 5.29522667899437E+0000
 50
 0.00000000000000E+0000
 41
 3.46918492890381E-0001
  0
TEXT
  8
1
 62
     1
 10
 7.24692954282364E+0000
 20
 6.20098055977724E+0000
 40
 1.18110236219991E-0001
  1
57.5
  7
STANDARD
 11
 7.24692954282364E+0000
 21
 6.31909079599427E+0000
 50
 0.00000000000000E+0000
 41
 2.69825494470297E-0001
  0
TEXT
  8
1
 62
     1
 10
 4.46613206314214E+0000
 20
 2.48409569804062E+0000
 40
 1.18110236219991E-0001
  1
77
  7
STANDARD
 11
 4.46613206314214E+0000
 21
 2.60220593426129E+0000
 50
 0.00000000000000E+0000
 41
 3.08371993680339E-0001
  0
TEXT
  8
1
 62
     1
 10
 3.07101165111453E+0000
 20
 5.76218165249884E+0000
 40
 1.18110236219991E-0001
  1
47
  7
STANDARD
 11
 3.07101165111453E+0000
 21
 5.88029188871587E+0000
 50
 0.00000000000000E+0000
 41
 3.08371993680339E-0001
  0
TEXT
  8
1
 62
     1
 10
 3.97219601953111E+0000
 20
 3.65422611747636E+0000
 40
 1.18110236219991E-0001
  1
38H7
  7
STANDARD
 11
 3.97219601953111E+0000
 21
 3.77233635369703E+0000
 50
 0.00000000000000E+0000
 41
 3.27645243285588E-0001
  0
TEXT
  8
1
 62
     1
 10
 4.48251826220803E+0000
 20
 3.07862973242663E+0000
 40
 1.18110236219991E-0001
  1
6xM4 auf TK 50
  7
STANDARD
 11
 4.48251826220803E+0000
 21
 3.19673996864731E+0000
 50
 0.00000000000000E+0000
 41
 2.75332137214718E-0001
  0
LINE
  8
1
  6
CONTINUOUS
 62
     1
 10
 6.66811885286006E+0000
 20
 5.63190554139874E+0000
 11
 6.78430402190861E+0000
 21
 5.92321429853473E+0000
  0
LINE
  8
1
  6
CONTINUOUS
 62
     1
 10
 6.78430402190861E+0000
 20
 5.92321429853473E+0000
 11
 7.37666324835300E+0000
 21
 5.92321429853473E+0000
  0
LINE
  8
1
  6
CONTINUOUS
 62
     1
 10
 7.08740694401058E+0000
 20
 5.54035667322023E+0000
 11
 7.78802382226422E+0000
 21
 5.54035667322023E+0000
  0
TEXT
  8
1
 62
     1
 10
 6.88303055964207E+0000
 20
 5.92881694601965E+0000
 40
 1.18110236219991E-0001
  1
R24
  7
STANDARD
 11
 6.88303055964207E+0000
 21
 6.04692718223669E+0000
 50
 0.00000000000000E+0000
 41
 3.34069659820670E-0001
  0
TEXT
  8
1
 62
     1
 10
 7.31084555653069E+0000
 20
 5.56592582046869E+0000
 40
 1.18110236219991E-0001
  1
R28
  7
STANDARD
 11
 7.31084555653069E+0000
 21
 5.68403605668573E+0000
 50
 0.00000000000000E+0000
 41
 3.34069659820670E-0001
  0
TEXT
  8
1
 62
     1
 10
 5.96005751299526E+0000
 20
 4.95412135830702E+0000
 40
 1.18110236219991E-0001
  1
40H7
  7
STANDARD
 11
 5.96005751299526E+0000
 21
 5.07223159452406E+0000
 50
-2.25000000000000E+0001
 41
 3.27645243285588E-0001
  0
LINE
  8
1
  6
DASHDOT
 62
     1
 10
 3.09195050974813E+0000
 20
 5.45593746229861E+0000
 11
 3.40862722742895E+0000
 21
 5.45593746229861E+0000
  0
LINE
  8
1
  6
DASHDOT
 62
     1
 10
 3.17528648808366E+0000
 20
 5.60631260542868E+0000
 11
 3.17528648808366E+0000
 21
 5.27214562068548E+0000
  0
CIRCLE
  8
1
  6
CONTINUOUS
 62
     1
 10
 3.17528648808366E+0000
 20
 5.45593746239319E+0000
 40
 1.58338358840410E-0001
  0
LINE
  8
1
  6
DASHDOT
 62
     1
 10
 3.08361691191385E+0000
 20
 6.09085473330197E+0000
 11
 3.30029045558695E+0000
 21
 6.09085473330197E+0000
  0
LINE
  8
1
  6
DASHDOT
 62
     1
 10
 3.17528648808366E+0000
 20
 6.21616735257703E+0000
 11
 3.17528648808366E+0000
 21
 6.00731298711617E+0000
  0
LINE
  8
1
  6
DASHDOT
 62
     1
 10
 3.85030791261306E+0000
 20
 6.09085473330197E+0000
 11
 4.11698304329184E+0000
 21
 6.09085473330197E+0000
  0
LINE
  8
1
  6
DASHDOT
 62
     1
 10
 3.96697828228207E+0000
 20
 6.24122987643204E+0000
 11
 3.96697828228207E+0000
 21
 5.97389628864039E+0000
  0
CIRCLE
  8
1
  6
CONTINUOUS
 62
     1
 10
 3.97349518140982E+0000
 20
 6.08921488312626E+0000
 40
 8.23238239609054E-0002
  0
ARC
  8
1
  6
CONTINUOUS
 62
     1
 10
 3.97349518140982E+0000
 20
 6.08921488311898E+0000
 40
 1.02904779945675E-0001
 50
 3.96937743417919E+0002
 51
 6.72327088724822E+0002
  0
CIRCLE
  8
1
  6
CONTINUOUS
 62
     1
 10
 3.18180338721140E+0000
 20
 6.08921488312626E+0000
 40
 8.23238239609054E-0002
  0
ARC
  8
1
  6
CONTINUOUS
 62
     1
 10
 3.18180338721140E+0000
 20
 6.08921488311898E+0000
 40
 1.02904779945675E-0001
 50
 3.96937743417919E+0002
 51
 6.72327088724822E+0002
  0
LINE
  8
1
  6
CONTINUOUS
 62
     1
 10
 3.09195050974813E+0000
 20
 5.45593746229861E+0000
 11
 1.50023332351338E+0000
 21
 5.45593746229861E+0000
  0
LINE
  8
1
  6
CONTINUOUS
 62
     1
 10
 1.50023332351338E+0000
 20
 5.45593746229861E+0000
 11
 1.50023332351338E+0000
 21
 6.64223025811953E+0000
  0
LINE
  8
1
  6
CONTINUOUS
 62
     1
 10
 1.50023332351338E+0000
 20
 6.64223025811953E+0000
 11
 1.99191559569954E+0000
 21
 6.64223025811953E+0000
  0
LINE
  8
1
  6
CONTINUOUS
 62
     1
 10
 3.08361691191385E+0000
 20
 6.09085473330197E+0000
 11
 2.57526744405550E+0000
 21
 6.09085473330197E+0000
  0
LINE
  8
1
  6
CONTINUOUS
 62
     1
 10
 2.57526744405550E+0000
 20
 6.09085473330197E+0000
 11
 2.57526744405550E+0000
 21
 6.64223025811953E+0000
  0
LINE
  8
1
  6
CONTINUOUS
 62
     1
 10
 3.17528648808366E+0000
 20
 6.21616735257703E+0000
 11
 3.17528648808366E+0000
 21
 6.97639724284818E+0000
  0
LINE
  8
1
  6
CONTINUOUS
 62
     1
 10
 3.17528648808366E+0000
 20
 6.97639724284818E+0000
 11
 1.99191559569954E+0000
 21
 6.97639724284818E+0000
  0
LINE
  8
1
  6
CONTINUOUS
 62
     1
 10
 1.99191559569954E+0000
 20
 6.97639724284818E+0000
 11
 1.99191559569954E+0000
 21
 6.64223025811953E+0000
  0
LINE
  8
1
  6
CONTINUOUS
 62
     1
 10
 3.17528648808366E+0000
 20
 6.97639724284818E+0000
 11
 3.96697828228207E+0000
 21
 6.97639724284818E+0000
  0
LINE
  8
1
  6
CONTINUOUS
 62
     1
 10
 3.96697828228207E+0000
 20
 6.97639724284818E+0000
 11
 3.96697828228207E+0000
 21
 6.22452152719779E+0000
  0
LINE
  8
1
  6
CONTINUOUS
 62
     1
 10
 1.50102153230182E+0000
 20
 6.62274242041167E+0000
 11
 1.50102153230182E+0000
 21
 6.62274242041167E+0000
  0
LINE
  8
1
  6
CONTINUOUS
 62
     1
 10
 1.50102153230182E+0000
 20
 6.62274242041167E+0000
 11
 1.47384001093815E+0000
 21
 6.46345309378376E+0000
  0
LINE
  8
1
  6
CONTINUOUS
 62
     1
 10
 1.47384001093815E+0000
 20
 6.46345309378376E+0000
 11
 1.53424364840976E+0000
 21
 6.46345309378376E+0000
  0
LINE
  8
1
  6
CONTINUOUS
 62
     1
 10
 1.53424364840976E+0000
 20
 6.46345309378376E+0000
 11
 1.50102153230182E+0000
 21
 6.62274242041167E+0000
  0
LINE
  8
1
  6
CONTINUOUS
 62
     1
 10
 1.47384001093815E+0000
 20
 6.46345309378376E+0000
 11
 1.53424364840976E+0000
 21
 6.46345309378376E+0000
  0
LINE
  8
1
  6
CONTINUOUS
 62
     1
 10
 1.48416711303071E+0000
 20
 6.46345309378376E+0000
 11
 1.47534537410320E+0000
 21
 6.47227483271126E+0000
  0
LINE
  8
1
  6
CONTINUOUS
 62
     1
 10
 1.50482131721765E+0000
 20
 6.46345309378376E+0000
 11
 1.47835610043876E+0000
 21
 6.48991831056628E+0000
  0
LINE
  8
1
  6
CONTINUOUS
 62
     1
 10
 1.52547552140277E+0000
 20
 6.46345309378376E+0000
 11
 1.48136682676886E+0000
 21
 6.50756178842130E+0000
  0
LINE
  8
1
  6
CONTINUOUS
 62
     1
 10
 1.53111134592837E+0000
 20
 6.47847147344146E+0000
 11
 1.48437755310079E+0000
 21
 6.52520526626904E+0000
  0
LINE
  8
1
  6
CONTINUOUS
 62
     1
 10
 1.52566840508189E+0000
 20
 6.50456861847488E+0000
 11
 1.48738827943635E+0000
 21
 6.54284874412406E+0000
  0
LINE
  8
1
  6
CONTINUOUS
 62
     1
 10
 1.52022546423541E+0000
 20
 6.53066576350830E+0000
 11
 1.49039900576827E+0000
 21
 6.56049222197908E+0000
  0
LINE
  8
1
  6
CONTINUOUS
 62
     1
 10
 1.51478252339075E+0000
 20
 6.55676290854171E+0000
 11
 1.49340973210019E+0000
 21
 6.57813569982682E+0000
  0
LINE
  8
1
  6
CONTINUOUS
 62
     1
 10
 1.50933958254427E+0000
 20
 6.58286005356786E+0000
 11
 1.49642045843393E+0000
 21
 6.59577917768183E+0000
  0
LINE
  8
1
  6
CONTINUOUS
 62
     1
 10
 1.50389664169779E+0000
 20
 6.60895719860127E+0000
 11
 1.49943118476585E+0000
 21
 6.61342265553685E+0000
  0
LINE
  8
1
  6
CONTINUOUS
 62
     1
 10
 1.53246147806385E+0000
 20
 6.47199802552495E+0000
 11
 1.52391654631720E+0000
 21
 6.46345309377648E+0000
  0
LINE
  8
1
  6
CONTINUOUS
 62
     1
 10
 1.52889713737022E+0000
 20
 6.48908788901463E+0000
 11
 1.50326234213207E+0000
 21
 6.46345309377648E+0000
  0
LINE
  8
1
  6
CONTINUOUS
 62
     1
 10
 1.52533279667114E+0000
 20
 6.50617775250430E+0000
 11
 1.48260813794695E+0000
 21
 6.46345309377648E+0000
  0
LINE
  8
1
  6
CONTINUOUS
 62
     1
 10
 1.52176845597751E+0000
 20
 6.52326761599397E+0000
 11
 1.47628560194426E+0000
 21
 6.47778476196254E+0000
  0
LINE
  8
1
  6
CONTINUOUS
 62
     1
 10
 1.51820411528388E+0000
 20
 6.54035747948365E+0000
 11
 1.48053525768046E+0000
 21
 6.50268862188386E+0000
  0
LINE
  8
1
  6
CONTINUOUS
 62
     1
 10
 1.51463977459025E+0000
 20
 6.55744734298059E+0000
 11
 1.48478491341666E+0000
 21
 6.52759248180519E+0000
  0
LINE
  8
1
  6
CONTINUOUS
 62
     1
 10
 1.51107543389116E+0000
 20
 6.57453720646299E+0000
 11
 1.48903456915104E+0000
 21
 6.55249634172651E+0000
  0
LINE
  8
1
  6
CONTINUOUS
 62
     1
 10
 1.50751109319754E+0000
 20
 6.59162706995266E+0000
 11
 1.49328422488725E+0000
 21
 6.57740020164783E+0000
  0
LINE
  8
1
  6
CONTINUOUS
 62
     1
 10
 1.50394675250391E+0000
 20
 6.60871693344961E+0000
 11
 1.49753388062345E+0000
 21
 6.60230406156916E+0000
  0
LINE
  8
1
  6
CONTINUOUS
 62
     1
 10
 2.57605565284393E+0000
 20
 6.62274242041167E+0000
 11
 2.57605565284393E+0000
 21
 6.62274242041167E+0000
  0
LINE
  8
1
  6
CONTINUOUS
 62
     1
 10
 2.57605565284393E+0000
 20
 6.62274242041167E+0000
 11
 2.54887413148026E+0000
 21
 6.46345309378376E+0000
  0
LINE
  8
1
  6
CONTINUOUS
 62
     1
 10
 2.54887413148026E+0000
 20
 6.46345309378376E+0000
 11
 2.60927776895187E+0000
 21
 6.46345309378376E+0000
  0
LINE
  8
1
  6
CONTINUOUS
 62
     1
 10
 2.60927776895187E+0000
 20
 6.46345309378376E+0000
 11
 2.57605565284393E+0000
 21
 6.62274242041167E+0000
  0
LINE
  8
1
  6
CONTINUOUS
 62
     1
 10
 2.54887413148026E+0000
 20
 6.46345309378376E+0000
 11
 2.60927776895187E+0000
 21
 6.46345309378376E+0000
  0
LINE
  8
1
  6
CONTINUOUS
 62
     1
 10
 2.55920123357646E+0000
 20
 6.46345309379103E+0000
 11
 2.55037949464895E+0000
 21
 6.47227483271854E+0000
  0
LINE
  8
1
  6
CONTINUOUS
 62
     1
 10
 2.57985543776158E+0000
 20
 6.46345309378376E+0000
 11
 2.55339022097905E+0000
 21
 6.48991831056628E+0000
  0
LINE
  8
1
  6
CONTINUOUS
 62
     1
 10
 2.60050964195034E+0000
 20
 6.46345309378376E+0000
 11
 2.55640094731643E+0000
 21
 6.50756178842130E+0000
  0
LINE
  8
1
  6
CONTINUOUS
 62
     1
 10
 2.60614546647048E+0000
 20
 6.47847147344874E+0000
 11
 2.55941167364654E+0000
 21
 6.52520526627632E+0000
  0
LINE
  8
1
  6
CONTINUOUS
 62
     1
 10
 2.60070252562582E+0000
 20
 6.50456861848215E+0000
 11
 2.56242239997664E+0000
 21
 6.54284874412406E+0000
  0
LINE
  8
1
  6
CONTINUOUS
 62
     1
 10
 2.59525958477752E+0000
 20
 6.53066576351557E+0000
 11
 2.56543312631038E+0000
 21
 6.56049222197908E+0000
  0
LINE
  8
1
  6
CONTINUOUS
 62
     1
 10
 2.58981664392923E+0000
 20
 6.55676290854899E+0000
 11
 2.56844385264048E+0000
 21
 6.57813569983409E+0000
  0
LINE
  8
1
  6
CONTINUOUS
 62
     1
 10
 2.58437370308457E+0000
 20
 6.58286005357513E+0000
 11
 2.57145457897786E+0000
 21
 6.59577917768911E+0000
  0
LINE
  8
1
  6
CONTINUOUS
 62
     1
 10
 2.57893076223627E+0000
 20
 6.60895719860855E+0000
 11
 2.57446530530797E+0000
 21
 6.61342265553685E+0000
  0
LINE
  8
1
  6
CONTINUOUS
 62
     1
 10
 2.60749559860415E+0000
 20
 6.47199802552495E+0000
 11
 2.59895066685567E+0000
 21
 6.46345309377648E+0000
  0
LINE
  8
1
  6
CONTINUOUS
 62
     1
 10
 2.60393125790870E+0000
 20
 6.48908788901463E+0000
 11
 2.57829646267055E+0000
 21
 6.46345309377648E+0000
  0
LINE
  8
1
  6
CONTINUOUS
 62
     1
 10
 2.60036691720961E+0000
 20
 6.50617775249702E+0000
 11
 2.55764225848543E+0000
 21
 6.46345309377648E+0000
  0
LINE
  8
1
  6
CONTINUOUS
 62
     1
 10
 2.59680257651780E+0000
 20
 6.52326761599397E+0000
 11
 2.55131972249001E+0000
 21
 6.47778476196254E+0000
  0
LINE
  8
1
  6
CONTINUOUS
 62
     1
 10
 2.59323823582235E+0000
 20
 6.54035747948365E+0000
 11
 2.55556937822621E+0000
 21
 6.50268862188386E+0000
  0
LINE
  8
1
  6
CONTINUOUS
 62
     1
 10
 2.58967389513055E+0000
 20
 6.55744734297332E+0000
 11
 2.55981903395514E+0000
 21
 6.52759248179791E+0000
  0
LINE
  8
1
  6
CONTINUOUS
 62
     1
 10
 2.58610955443146E+0000
 20
 6.57453720646299E+0000
 11
 2.56406868969134E+0000
 21
 6.55249634171923E+0000
  0
LINE
  8
1
  6
CONTINUOUS
 62
     1
 10
 2.58254521373601E+0000
 20
 6.59162706995266E+0000
 11
 2.56831834542754E+0000
 21
 6.57740020164056E+0000
  0
LINE
  8
1
  6
CONTINUOUS
 62
     1
 10
 2.57898087304420E+0000
 20
 6.60871693344234E+0000
 11
 2.57256800116375E+0000
 21
 6.60230406156188E+0000
  0
LINE
  8
1
  6
DASHDOT
 62
     1
 10
 3.17528648808366E+0000
 20
 6.07414638406044E+0000
 11
 3.17528648808366E+0000
 21
 5.53112503386365E+0000
  0
LINE
  8
1
  6
CONTINUOUS
 62
     1
 10
 1.49941979952200E+0000
 20
 5.46010767405096E+0000
 11
 1.49941979952200E+0000
 21
 5.46010767405096E+0000
  0
LINE
  8
1
  6
CONTINUOUS
 62
     1
 10
 1.49941979952200E+0000
 20
 5.46010767405096E+0000
 11
 1.52660132088567E+0000
 21
 5.61939700067887E+0000
  0
LINE
  8
1
  6
CONTINUOUS
 62
     1
 10
 1.52660132088567E+0000
 20
 5.61939700067887E+0000
 11
 1.46619768341407E+0000
 21
 5.61939700067887E+0000
  0
LINE
  8
1
  6
CONTINUOUS
 62
     1
 10
 1.46619768341407E+0000
 20
 5.61939700067887E+0000
 11
 1.49941979952200E+0000
 21
 5.46010767405096E+0000
  0
LINE
  8
1
  6
CONTINUOUS
 62
     1
 10
 1.52660132088567E+0000
 20
 5.61939700067887E+0000
 11
 1.46619768341407E+0000
 21
 5.61939700067887E+0000
  0
LINE
  8
1
  6
CONTINUOUS
 62
     1
 10
 1.50092516268705E+0000
 20
 5.46892941297847E+0000
 11
 1.49669832909785E+0000
 21
 5.47315624656767E+0000
  0
LINE
  8
1
  6
CONTINUOUS
 62
     1
 10
 1.50393588902261E+0000
 20
 5.48657289083349E+0000
 11
 1.49125538825137E+0000
 21
 5.49925339160109E+0000
  0
LINE
  8
1
  6
CONTINUOUS
 62
     1
 10
 1.50694661535454E+0000
 20
 5.50421636868850E+0000
 11
 1.48581244740490E+0000
 21
 5.52535053663451E+0000
  0
LINE
  8
1
  6
CONTINUOUS
 62
     1
 10
 1.50995734168828E+0000
 20
 5.52185984653624E+0000
 11
 1.48036950656024E+0000
 21
 5.55144768166792E+0000
  0
LINE
  8
1
  6
CONTINUOUS
 62
     1
 10
 1.51296806802020E+0000
 20
 5.53950332439126E+0000
 11
 1.47492656571194E+0000
 21
 5.57754482670134E+0000
  0
LINE
  8
1
  6
CONTINUOUS
 62
     1
 10
 1.51597879435394E+0000
 20
 5.55714680223900E+0000
 11
 1.46948362486546E+0000
 21
 5.60364197172748E+0000
  0
LINE
  8
1
  6
CONTINUOUS
 62
     1
 10
 1.51898952068586E+0000
 20
 5.57479028009402E+0000
 11
 1.47438280010101E+0000
 21
 5.61939700067887E+0000
  0
LINE
  8
1
  6
CONTINUOUS
 62
     1
 10
 1.52200024701961E+0000
 20
 5.59243375794904E+0000
 11
 1.49503700428613E+0000
 21
 5.61939700067887E+0000
  0
LINE
  8
1
  6
CONTINUOUS
 62
     1
 10
 1.52501097335153E+0000
 20
 5.61007723579678E+0000
 11
 1.51569120846943E+0000
 21
 5.61939700067887E+0000
  0
LINE
  8
1
  6
CONTINUOUS
 62
     1
 10
 1.50154462738647E+0000
 20
 5.47255960400798E+0000
 11
 1.49763762917246E+0000
 21
 5.46865260579216E+0000
  0
LINE
  8
1
  6
CONTINUOUS
 62
     1
 10
 1.50579428312267E+0000
 20
 5.49746346392931E+0000
 11
 1.49407328847883E+0000
 21
 5.48574246928183E+0000
  0
LINE
  8
1
  6
CONTINUOUS
 62
     1
 10
 1.51004393885887E+0000
 20
 5.52236732385063E+0000
 11
 1.49050894777974E+0000
 21
 5.50283233277150E+0000
  0
LINE
  8
1
  6
CONTINUOUS
 62
     1
 10
 1.51429359459325E+0000
 20
 5.54727118376468E+0000
 11
 1.48694460708612E+0000
 21
 5.51992219626118E+0000
  0
LINE
  8
1
  6
CONTINUOUS
 62
     1
 10
 1.51854325032946E+0000
 20
 5.57217504368600E+0000
 11
 1.48338026639249E+0000
 21
 5.53701205975085E+0000
  0
LINE
  8
1
  6
CONTINUOUS
 62
     1
 10
 1.52279290606566E+0000
 20
 5.59707890360733E+0000
 11
 1.47981592569886E+0000
 21
 5.55410192324052E+0000
  0
LINE
  8
1
  6
CONTINUOUS
 62
     1
 10
 1.52445679894299E+0000
 20
 5.61939700067160E+0000
 11
 1.47625158499977E+0000
 21
 5.57119178673020E+0000
  0
LINE
  8
1
  6
CONTINUOUS
 62
     1
 10
 1.50380259475605E+0000
 20
 5.61939700067160E+0000
 11
 1.47268724430614E+0000
 21
 5.58828165021987E+0000
  0
LINE
  8
1
  6
CONTINUOUS
 62
     1
 10
 1.48314839057093E+0000
 20
 5.61939700067160E+0000
 11
 1.46912290361252E+0000
 21
 5.60537151371682E+0000
  0
LINE
  8
1
  6
CONTINUOUS
 62
     1
 10
 2.58278751790203E+0000
 20
 6.09502494505432E+0000
 11
 2.58278751790203E+0000
 21
 6.09502494505432E+0000
  0
LINE
  8
1
  6
CONTINUOUS
 62
     1
 10
 2.58278751790203E+0000
 20
 6.09502494505432E+0000
 11
 2.60996903926571E+0000
 21
 6.25431427168223E+0000
  0
LINE
  8
1
  6
CONTINUOUS
 62
     1
 10
 2.60996903926571E+0000
 20
 6.25431427168223E+0000
 11
 2.54956540179410E+0000
 21
 6.25431427168223E+0000
  0
LINE
  8
1
  6
CONTINUOUS
 62
     1
 10
 2.54956540179410E+0000
 20
 6.25431427168223E+0000
 11
 2.58278751790203E+0000
 21
 6.09502494505432E+0000
  0
LINE
  8
1
  6
CONTINUOUS
 62
     1
 10
 2.60996903926571E+0000
 20
 6.25431427168223E+0000
 11
 2.54956540179410E+0000
 21
 6.25431427168223E+0000
  0
LINE
  8
1
  6
CONTINUOUS
 62
     1
 10
 2.58429288106709E+0000
 20
 6.10384668398183E+0000
 11
 2.58006604747789E+0000
 21
 6.10807351757103E+0000
  0
LINE
  8
1
  6
CONTINUOUS
 62
     1
 10
 2.58730360740083E+0000
 20
 6.12149016182957E+0000
 11
 2.57462310663323E+0000
 21
 6.13417066259717E+0000
  0
LINE
  8
1
  6
CONTINUOUS
 62
     1
 10
 2.59031433373457E+0000
 20
 6.13913363968459E+0000
 11
 2.56918016578857E+0000
 21
 6.16026780763059E+0000
  0
LINE
  8
1
  6
CONTINUOUS
 62
     1
 10
 2.59332506006467E+0000
 20
 6.15677711753960E+0000
 11
 2.56373722494027E+0000
 21
 6.18636495266401E+0000
  0
LINE
  8
1
  6
CONTINUOUS
 62
     1
 10
 2.59633578639841E+0000
 20
 6.17442059538735E+0000
 11
 2.55829428409561E+0000
 21
 6.21246209769015E+0000
  0
LINE
  8
1
  6
CONTINUOUS
 62
     1
 10
 2.59934651273215E+0000
 20
 6.19206407324236E+0000
 11
 2.55285134325095E+0000
 21
 6.23855924272357E+0000
  0
LINE
  8
1
  6
CONTINUOUS
 62
     1
 10
 2.60235723906226E+0000
 20
 6.20970755109738E+0000
 11
 2.55775051847377E+0000
 21
 6.25431427168951E+0000
  0
LINE
  8
1
  6
CONTINUOUS
 62
     1
 10
 2.60536796539600E+0000
 20
 6.22735102894512E+0000
 11
 2.57840472265889E+0000
 21
 6.25431427168951E+0000
  0
LINE
  8
1
  6
CONTINUOUS
 62
     1
 10
 2.60837869172974E+0000
 20
 6.24499450680014E+0000
 11
 2.59905892684765E+0000
 21
 6.25431427168223E+0000
  0
LINE
  8
1
  6
CONTINUOUS
 62
     1
 10
 2.58491234576650E+0000
 20
 6.10747687501134E+0000
 11
 2.58100534755431E+0000
 21
 6.10356987679552E+0000
  0
LINE
  8
1
  6
CONTINUOUS
 62
     1
 10
 2.58916200150270E+0000
 20
 6.13238073493267E+0000
 11
 2.57744100685886E+0000
 21
 6.12065974028519E+0000
  0
LINE
  8
1
  6
CONTINUOUS
 62
     1
 10
 2.59341165723890E+0000
 20
 6.15728459485399E+0000
 11
 2.57387666615978E+0000
 21
 6.13774960377486E+0000
  0
LINE
  8
1
  6
CONTINUOUS
 62
     1
 10
 2.59766131297147E+0000
 20
 6.18218845476804E+0000
 11
 2.57031232546797E+0000
 21
 6.15483946726454E+0000
  0
LINE
  8
1
  6
CONTINUOUS
 62
     1
 10
 2.60191096870403E+0000
 20
 6.20709231468936E+0000
 11
 2.56674798477252E+0000
 21
 6.17192933076149E+0000
  0
LINE
  8
1
  6
CONTINUOUS
 62
     1
 10
 2.60616062444024E+0000
 20
 6.23199617461069E+0000
 11
 2.56318364408071E+0000
 21
 6.18901919425116E+0000
  0
LINE
  8
1
  6
CONTINUOUS
 62
     1
 10
 2.60782451732302E+0000
 20
 6.25431427168223E+0000
 11
 2.55961930338526E+0000
 21
 6.20610905774083E+0000
  0
LINE
  8
1
  6
CONTINUOUS
 62
     1
 10
 2.58717031313790E+0000
 20
 6.25431427168223E+0000
 11
 2.55605496268618E+0000
 21
 6.22319892123051E+0000
  0
LINE
  8
1
  6
CONTINUOUS
 62
     1
 10
 2.56651610895278E+0000
 20
 6.25431427168223E+0000
 11
 2.55249062199437E+0000
 21
 6.24028878472018E+0000
  0
LINE
  8
1
  6
CONTINUOUS
 62
     1
 10
 1.99609326245627E+0000
 20
 6.97430890885880E+0000
 11
 1.99609326245627E+0000
 21
 6.97430890885880E+0000
  0
LINE
  8
1
  6
CONTINUOUS
 62
     1
 10
 1.99609326245627E+0000
 20
 6.97430890885880E+0000
 11
 2.15538258909146E+0000
 21
 6.94712738749513E+0000
  0
LINE
  8
1
  6
CONTINUOUS
 62
     1
 10
 2.15538258909146E+0000
 20
 6.94712738749513E+0000
 11
 2.15538258909146E+0000
 21
 7.00753102496674E+0000
  0
LINE
  8
1
  6
CONTINUOUS
 62
     1
 10
 2.15538258909146E+0000
 20
 7.00753102496674E+0000
 11
 1.99609326245627E+0000
 21
 6.97430890885880E+0000
  0
LINE
  8
1
  6
CONTINUOUS
 62
     1
 10
 2.15538258909146E+0000
 20
 6.94712738749513E+0000
 11
 2.15538258909146E+0000
 21
 7.00753102496674E+0000
  0
LINE
  8
1
  6
CONTINUOUS
 62
     1
 10
 2.00854519242057E+0000
 20
 6.97218408099434E+0000
 11
 2.00463819420474E+0000
 21
 6.97609107921016E+0000
  0
LINE
  8
1
  6
CONTINUOUS
 62
     1
 10
 2.03344905234189E+0000
 20
 6.96793442525814E+0000
 11
 2.02172805769442E+0000
 21
 6.97965541990561E+0000
  0
LINE
  8
1
  6
CONTINUOUS
 62
     1
 10
 2.05835291225958E+0000
 20
 6.96368476952193E+0000
 11
 2.03881792118409E+0000
 21
 6.98321976060106E+0000
  0
LINE
  8
1
  6
CONTINUOUS
 62
     1
 10
 2.08325677218090E+0000
 20
 6.95943511378573E+0000
 11
 2.05590778467740E+0000
 21
 6.98678410128923E+0000
  0
LINE
  8
1
  6
CONTINUOUS
 62
     1
 10
 2.10816063210223E+0000
 20
 6.95518545805680E+0000
 11
 2.07299764816707E+0000
 21
 6.99034844198468E+0000
  0
LINE
  8
1
  6
CONTINUOUS
 62
     1
 10
 2.13306449201991E+0000
 20
 6.95093580232060E+0000
 11
 2.09008751165675E+0000
 21
 6.99391278268013E+0000
  0
LINE
  8
1
  6
CONTINUOUS
 62
     1
 10
 2.15538258909146E+0000
 20
 6.94927190943417E+0000
 11
 2.10717737514642E+0000
 21
 6.99747712337557E+0000
  0
LINE
  8
1
  6
CONTINUOUS
 62
     1
 10
 2.15538258909146E+0000
 20
 6.96992611361929E+0000
 11
 2.12426723863973E+0000
 21
 7.00104146407102E+0000
  0
LINE
  8
1
  6
CONTINUOUS
 62
     1
 10
 2.15538258908782E+0000
 20
 6.99058031780442E+0000
 11
 2.14135710212940E+0000
 21
 7.00460580476647E+0000
  0
LINE
  8
1
  6
CONTINUOUS
 62
     1
 10
 2.15538258909146E+0000
 20
 6.95745448958041E+0000
 11
 2.14656085016395E+0000
 21
 6.94863275065291E+0000
  0
LINE
  8
1
  6
CONTINUOUS
 62
     1
 10
 2.15538258909146E+0000
 20
 6.97810869376553E+0000
 11
 2.12891737230893E+0000
 21
 6.95164347698301E+0000
  0
LINE
  8
1
  6
CONTINUOUS
 62
     1
 10
 2.15538258909146E+0000
 20
 6.99876289795066E+0000
 11
 2.11127389445755E+0000
 21
 6.95465420332039E+0000
  0
LINE
  8
1
  6
CONTINUOUS
 62
     1
 10
 2.14036420943739E+0000
 20
 7.00439872248535E+0000
 11
 2.09363041660617E+0000
 21
 6.95766492965049E+0000
  0
LINE
  8
1
  6
CONTINUOUS
 62
     1
 10
 2.11426706440398E+0000
 20
 6.99895578163705E+0000
 11
 2.07598693875480E+0000
 21
 6.96067565598787E+0000
  0
LINE
  8
1
  6
CONTINUOUS
 62
     1
 10
 2.08816991937420E+0000
 20
 6.99351284078875E+0000
 11
 2.05834346089978E+0000
 21
 6.96368638231797E+0000
  0
LINE
  8
1
  6
CONTINUOUS
 62
     1
 10
 2.06207277434078E+0000
 20
 6.98806989994046E+0000
 11
 2.04069998304840E+0000
 21
 6.96669710864808E+0000
  0
LINE
  8
1
  6
CONTINUOUS
 62
     1
 10
 2.03597562931100E+0000
 20
 6.98262695909943E+0000
 11
 2.02305650519338E+0000
 21
 6.96970783497818E+0000
  0
LINE
  8
1
  6
CONTINUOUS
 62
     1
 10
 2.00987848427758E+0000
 20
 6.97718401825114E+0000
 11
 2.00541302733836E+0000
 21
 6.97271856131556E+0000
  0
LINE
  8
1
  6
CONTINUOUS
 62
     1
 10
 3.17946415484039E+0000
 20
 6.97430890885880E+0000
 11
 3.17946415484039E+0000
 21
 6.97430890885880E+0000
  0
LINE
  8
1
  6
CONTINUOUS
 62
     1
 10
 3.17946415484039E+0000
 20
 6.97430890885880E+0000
 11
 3.33875348147558E+0000
 21
 6.94712738749513E+0000
  0
LINE
  8
1
  6
CONTINUOUS
 62
     1
 10
 3.33875348147558E+0000
 20
 6.94712738749513E+0000
 11
 3.33875348147558E+0000
 21
 7.00753102496674E+0000
  0
LINE
  8
1
  6
CONTINUOUS
 62
     1
 10
 3.33875348147558E+0000
 20
 7.00753102496674E+0000
 11
 3.17946415484039E+0000
 21
 6.97430890885880E+0000
  0
LINE
  8
1
  6
CONTINUOUS
 62
     1
 10
 3.33875348147558E+0000
 20
 6.94712738749513E+0000
 11
 3.33875348147558E+0000
 21
 7.00753102496674E+0000
  0
LINE
  8
1
  6
CONTINUOUS
 62
     1
 10
 3.19191608480105E+0000
 20
 6.97218408099434E+0000
 11
 3.18800908658523E+0000
 21
 6.97609107920289E+0000
  0
LINE
  8
1
  6
CONTINUOUS
 62
     1
 10
 3.21681994472237E+0000
 20
 6.96793442525814E+0000
 11
 3.20509895007490E+0000
 21
 6.97965541989834E+0000
  0
LINE
  8
1
  6
CONTINUOUS
 62
     1
 10
 3.24172380464006E+0000
 20
 6.96368476952193E+0000
 11
 3.22218881356821E+0000
 21
 6.98321976059378E+0000
  0
LINE
  8
1
  6
CONTINUOUS
 62
     1
 10
 3.26662766456138E+0000
 20
 6.95943511378573E+0000
 11
 3.23927867705788E+0000
 21
 6.98678410128923E+0000
  0
LINE
  8
1
  6
CONTINUOUS
 62
     1
 10
 3.29153152448271E+0000
 20
 6.95518545804953E+0000
 11
 3.25636854054756E+0000
 21
 6.99034844198468E+0000
  0
LINE
  8
1
  6
CONTINUOUS
 62
     1
 10
 3.31643538440403E+0000
 20
 6.95093580231332E+0000
 11
 3.27345840403723E+0000
 21
 6.99391278268013E+0000
  0
LINE
  8
1
  6
CONTINUOUS
 62
     1
 10
 3.33875348147558E+0000
 20
 6.94927190942690E+0000
 11
 3.29054826753054E+0000
 21
 6.99747712337557E+0000
  0
LINE
  8
1
  6
CONTINUOUS
 62
     1
 10
 3.33875348147558E+0000
 20
 6.96992611361929E+0000
 11
 3.30763813101657E+0000
 21
 7.00104146407102E+0000
  0
LINE
  8
1
  6
CONTINUOUS
 62
     1
 10
 3.33875348147558E+0000
 20
 6.99058031779714E+0000
 11
 3.32472799450625E+0000
 21
 7.00460580476647E+0000
  0
LINE
  8
1
  6
CONTINUOUS
 62
     1
 10
 3.33875348147194E+0000
 20
 6.95745448958769E+0000
 11
 3.32993174254807E+0000
 21
 6.94863275066018E+0000
  0
LINE
  8
1
  6
CONTINUOUS
 62
     1
 10
 3.33875348147194E+0000
 20
 6.97810869377281E+0000
 11
 3.31228826469305E+0000
 21
 6.95164347699028E+0000
  0
LINE
  8
1
  6
CONTINUOUS
 62
     1
 10
 3.33875348147194E+0000
 20
 6.99876289795793E+0000
 11
 3.29464478683803E+0000
 21
 6.95465420332039E+0000
  0
LINE
  8
1
  6
CONTINUOUS
 62
     1
 10
 3.32373510181424E+0000
 20
 7.00439872248535E+0000
 11
 3.27700130898666E+0000
 21
 6.95766492965049E+0000
  0
LINE
  8
1
  6
CONTINUOUS
 62
     1
 10
 3.29763795678082E+0000
 20
 6.99895578163705E+0000
 11
 3.25935783113164E+0000
 21
 6.96067565598787E+0000
  0
LINE
  8
1
  6
CONTINUOUS
 62
     1
 10
 3.27154081174740E+0000
 20
 6.99351284078875E+0000
 11
 3.24171435328026E+0000
 21
 6.96368638231797E+0000
  0
LINE
  8
1
  6
CONTINUOUS
 62
     1
 10
 3.24544366671762E+0000
 20
 6.98806989994046E+0000
 11
 3.22407087542524E+0000
 21
 6.96669710864808E+0000
  0
LINE
  8
1
  6
CONTINUOUS
 62
     1
 10
 3.21934652168420E+0000
 20
 6.98262695909216E+0000
 11
 3.20642739757386E+0000
 21
 6.96970783497818E+0000
  0
LINE
  8
1
  6
CONTINUOUS
 62
     1
 10
 3.19324937665078E+0000
 20
 6.97718401824386E+0000
 11
 3.18878391971884E+0000
 21
 6.97271856131556E+0000
  0
LINE
  8
1
  6
CONTINUOUS
 62
     1
 10
 3.95785602357500E+0000
 20
 6.97990526360809E+0000
 11
 3.95785602357500E+0000
 21
 6.97990526360809E+0000
  0
LINE
  8
1
  6
CONTINUOUS
 62
     1
 10
 3.95785602357500E+0000
 20
 6.97990526360809E+0000
 11
 3.79856669693982E+0000
 21
 7.00708678497176E+0000
  0
LINE
  8
1
  6
CONTINUOUS
 62
     1
 10
 3.79856669693982E+0000
 20
 7.00708678497176E+0000
 11
 3.79856669693982E+0000
 21
 6.94668314750015E+0000
  0
LINE
  8
1
  6
CONTINUOUS
 62
     1
 10
 3.79856669693982E+0000
 20
 6.94668314750015E+0000
 11
 3.95785602357500E+0000
 21
 6.97990526360809E+0000
  0
LINE
  8
1
  6
CONTINUOUS
 62
     1
 10
 3.79856669693982E+0000
 20
 7.00708678497176E+0000
 11
 3.79856669693982E+0000
 21
 6.94668314750015E+0000
  0
LINE
  8
1
  6
CONTINUOUS
 62
     1
 10
 3.80711162868465E+0000
 20
 6.94846531785151E+0000
 11
 3.79856669693982E+0000
 21
 6.95701024959999E+0000
  0
LINE
  8
1
  6
CONTINUOUS
 62
     1
 10
 3.82420149217432E+0000
 20
 6.95202965854696E+0000
 11
 3.79856669693982E+0000
 21
 6.97766445378511E+0000
  0
LINE
  8
1
  6
CONTINUOUS
 62
     1
 10
 3.84129135566764E+0000
 20
 6.95559399924241E+0000
 11
 3.79856669693982E+0000
 21
 6.99831865797023E+0000
  0
LINE
  8
1
  6
CONTINUOUS
 62
     1
 10
 3.85838121915731E+0000
 20
 6.95915833993058E+0000
 11
 3.81289836512951E+0000
 21
 7.00464119396202E+0000
  0
LINE
  8
1
  6
CONTINUOUS
 62
     1
 10
 3.87547108264698E+0000
 20
 6.96272268063331E+0000
 11
 3.83780222505084E+0000
 21
 7.00039153822581E+0000
  0
LINE
  8
1
  6
CONTINUOUS
 62
     1
 10
 3.89256094614029E+0000
 20
 6.96628702132148E+0000
 11
 3.86270608496852E+0000
 21
 6.99614188249689E+0000
  0
LINE
  8
1
  6
CONTINUOUS
 62
     1
 10
 3.90965080962633E+0000
 20
 6.96985136201693E+0000
 11
 3.88760994488985E+0000
 21
 6.99189222676068E+0000
  0
LINE
  8
1
  6
CONTINUOUS
 62
     1
 10
 3.92674067311964E+0000
 20
 6.97341570271237E+0000
 11
 3.91251380480753E+0000
 21
 6.98764257102448E+0000
  0
LINE
  8
1
  6
CONTINUOUS
 62
     1
 10
 3.94383053660931E+0000
 20
 6.97698004340782E+0000
 11
 3.93741766472522E+0000
 21
 6.98339291529555E+0000
  0
LINE
  8
1
  6
CONTINUOUS
 62
     1
 10
 3.94903428464386E+0000
 20
 6.98141062676586E+0000
 11
 3.94480745105830E+0000
 21
 6.97718379318394E+0000
  0
LINE
  8
1
  6
CONTINUOUS
 62
     1
 10
 3.93139080679248E+0000
 20
 6.98442135310324E+0000
 11
 3.91871030602488E+0000
 21
 6.97174085233564E+0000
  0
LINE
  8
1
  6
CONTINUOUS
 62
     1
 10
 3.91374732893746E+0000
 20
 6.98743207943335E+0000
 11
 3.89261316099146E+0000
 21
 6.96629791148735E+0000
  0
LINE
  8
1
  6
CONTINUOUS
 62
     1
 10
 3.89610385108608E+0000
 20
 6.99044280576345E+0000
 11
 3.86651601595804E+0000
 21
 6.96085497063905E+0000
  0
LINE
  8
1
  6
CONTINUOUS
 62
     1
 10
 3.87846037323470E+0000
 20
 6.99345353210083E+0000
 11
 3.84041887092826E+0000
 21
 6.95541202979075E+0000
  0
LINE
  8
1
  6
CONTINUOUS
 62
     1
 10
 3.86081689538332E+0000
 20
 6.99646425843093E+0000
 11
 3.81432172589484E+0000
 21
 6.94996908894245E+0000
  0
LINE
  8
1
  6
CONTINUOUS
 62
     1
 10
 3.84317341752831E+0000
 20
 6.99947498476831E+0000
 11
 3.79856669693982E+0000
 21
 6.95486826417618E+0000
  0
LINE
  8
1
  6
CONTINUOUS
 62
     1
 10
 3.82552993967693E+0000
 20
 7.00248571109842E+0000
 11
 3.79856669693982E+0000
 21
 6.97552246836131E+0000
  0
LINE
  8
1
  6
CONTINUOUS
 62
     1
 10
 3.80788646182191E+0000
 20
 7.00549643742852E+0000
 11
 3.79856669693982E+0000
 21
 6.99617667254643E+0000
  0
LINE
  8
1
  6
CONTINUOUS
 62
     1
 10
 3.16616422937659E+0000
 20
 6.97990526360809E+0000
 11
 3.16616422937659E+0000
 21
 6.97990526360809E+0000
  0
LINE
  8
1
  6
CONTINUOUS
 62
     1
 10
 3.16616422937659E+0000
 20
 6.97990526360809E+0000
 11
 3.00687490274140E+0000
 21
 7.00708678497176E+0000
  0
LINE
  8
1
  6
CONTINUOUS
 62
     1
 10
 3.00687490274140E+0000
 20
 7.00708678497176E+0000
 11
 3.00687490274140E+0000
 21
 6.94668314750015E+0000
  0
LINE
  8
1
  6
CONTINUOUS
 62
     1
 10
 3.00687490274140E+0000
 20
 6.94668314750015E+0000
 11
 3.16616422937659E+0000
 21
 6.97990526360809E+0000
  0
LINE
  8
1
  6
CONTINUOUS
 62
     1
 10
 3.00687490274140E+0000
 20
 7.00708678497176E+0000
 11
 3.00687490274140E+0000
 21
 6.94668314750015E+0000
  0
LINE
  8
1
  6
CONTINUOUS
 62
     1
 10
 3.01541983448988E+0000
 20
 6.94846531785151E+0000
 11
 3.00687490274140E+0000
 21
 6.95701024959271E+0000
  0
LINE
  8
1
  6
CONTINUOUS
 62
     1
 10
 3.03250969797591E+0000
 20
 6.95202965854696E+0000
 11
 3.00687490274504E+0000
 21
 6.97766445377783E+0000
  0
LINE
  8
1
  6
CONTINUOUS
 62
     1
 10
 3.04959956146922E+0000
 20
 6.95559399923513E+0000
 11
 3.00687490274504E+0000
 21
 6.99831865796295E+0000
  0
LINE
  8
1
  6
CONTINUOUS
 62
     1
 10
 3.06668942495889E+0000
 20
 6.95915833993058E+0000
 11
 3.02120657092382E+0000
 21
 7.00464119396929E+0000
  0
LINE
  8
1
  6
CONTINUOUS
 62
     1
 10
 3.08377928844857E+0000
 20
 6.96272268062603E+0000
 11
 3.04611043084515E+0000
 21
 7.00039153823309E+0000
  0
LINE
  8
1
  6
CONTINUOUS
 62
     1
 10
 3.10086915193824E+0000
 20
 6.96628702132148E+0000
 11
 3.07101429076647E+0000
 21
 6.99614188249689E+0000
  0
LINE
  8
1
  6
CONTINUOUS
 62
     1
 10
 3.11795901543155E+0000
 20
 6.96985136201693E+0000
 11
 3.09591815068416E+0000
 21
 6.99189222676068E+0000
  0
LINE
  8
1
  6
CONTINUOUS
 62
     1
 10
 3.13504887892122E+0000
 20
 6.97341570271237E+0000
 11
 3.12082201060548E+0000
 21
 6.98764257103176E+0000
  0
LINE
  8
1
  6
CONTINUOUS
 62
     1
 10
 3.15213874240726E+0000
 20
 6.97698004340782E+0000
 11
 3.14572587052317E+0000
 21
 6.98339291529555E+0000
  0
LINE
  8
1
  6
CONTINUOUS
 62
     1
 10
 3.15734249044908E+0000
 20
 6.98141062676586E+0000
 11
 3.15311565685988E+0000
 21
 6.97718379317666E+0000
  0
LINE
  8
1
  6
CONTINUOUS
 62
     1
 10
 3.13969901259406E+0000
 20
 6.98442135309597E+0000
 11
 3.12701851182646E+0000
 21
 6.97174085232837E+0000
  0
LINE
  8
1
  6
CONTINUOUS
 62
     1
 10
 3.12205553474269E+0000
 20
 6.98743207943335E+0000
 11
 3.10092136679305E+0000
 21
 6.96629791148007E+0000
  0
LINE
  8
1
  6
CONTINUOUS
 62
     1
 10
 3.10441205689131E+0000
 20
 6.99044280577073E+0000
 11
 3.07482422176327E+0000
 21
 6.96085497063905E+0000
  0
LINE
  8
1
  6
CONTINUOUS
 62
     1
 10
 3.08676857903993E+0000
 20
 6.99345353210083E+0000
 11
 3.04872707672985E+0000
 21
 6.95541202979075E+0000
  0
LINE
  8
1
  6
CONTINUOUS
 62
     1
 10
 3.06912510118491E+0000
 20
 6.99646425843093E+0000
 11
 3.02262993170370E+0000
 21
 6.94996908894973E+0000
  0
LINE
  8
1
  6
CONTINUOUS
 62
     1
 10
 3.05148162333353E+0000
 20
 6.99947498476104E+0000
 11
 3.00687490273776E+0000
 21
 6.95486826416891E+0000
  0
LINE
  8
1
  6
CONTINUOUS
 62
     1
 10
 3.03383814547851E+0000
 20
 7.00248571109842E+0000
 11
 3.00687490273776E+0000
 21
 6.97552246835403E+0000
  0
LINE
  8
1
  6
CONTINUOUS
 62
     1
 10
 3.01619466762349E+0000
 20
 7.00549643742852E+0000
 11
 3.00687490273776E+0000
 21
 6.99617667253915E+0000
  0
LINE
  8
1
  6
CONTINUOUS
 62
     1
 10
 3.01549355079987E+0000
 20
 5.45749434364552E+0000
 11
 3.01549355079987E+0000
 21
 5.05224536011519E+0000
  0
LINE
  8
1
  6
CONTINUOUS
 62
     1
 10
 3.01549355079987E+0000
 20
 5.05224536011519E+0000
 11
 3.32991086561015E+0000
 21
 5.05224536011519E+0000
  0
LINE
  8
1
  6
CONTINUOUS
 62
     1
 10
 3.32991086561015E+0000
 20
 5.05224536011519E+0000
 11
 3.32991086561015E+0000
 21
 5.45749434364552E+0000
  0
LINE
  8
1
  6
CONTINUOUS
 62
     1
 10
 3.01053574844627E+0000
 20
 5.05391278972820E+0000
 11
 3.01053574844627E+0000
 21
 5.05391278972820E+0000
  0
LINE
  8
1
  6
CONTINUOUS
 62
     1
 10
 3.01053574844627E+0000
 20
 5.05391278972820E+0000
 11
 2.85124642181108E+0000
 21
 5.08109431109187E+0000
  0
LINE
  8
1
  6
CONTINUOUS
 62
     1
 10
 2.85124642181108E+0000
 20
 5.08109431109187E+0000
 11
 2.85124642181108E+0000
 21
 5.02069067362027E+0000
  0
LINE
  8
1
  6
CONTINUOUS
 62
     1
 10
 2.85124642181108E+0000
 20
 5.02069067362027E+0000
 11
 3.01053574844627E+0000
 21
 5.05391278972820E+0000
  0
LINE
  8
1
  6
CONTINUOUS
 62
     1
 10
 2.85124642181108E+0000
 20
 5.08109431109187E+0000
 11
 2.85124642181108E+0000
 21
 5.02069067362027E+0000
  0
LINE
  8
1
  6
CONTINUOUS
 62
     1
 10
 2.85979135355592E+0000
 20
 5.02247284396435E+0000
 11
 2.85124642181108E+0000
 21
 5.03101777571283E+0000
  0
LINE
  8
1
  6
CONTINUOUS
 62
     1
 10
 2.87688121704559E+0000
 20
 5.02603718465980E+0000
 11
 2.85124642181108E+0000
 21
 5.05167197989795E+0000
  0
LINE
  8
1
  6
CONTINUOUS
 62
     1
 10
 2.89397108053527E+0000
 20
 5.02960152535525E+0000
 11
 2.85124642181108E+0000
 21
 5.07232618408307E+0000
  0
LINE
  8
1
  6
CONTINUOUS
 62
     1
 10
 2.91106094402858E+0000
 20
 5.03316586605069E+0000
 11
 2.86557808998987E+0000
 21
 5.07864872008940E+0000
  0
LINE
  8
1
  6
CONTINUOUS
 62
     1
 10
 2.92815080751825E+0000
 20
 5.03673020674614E+0000
 11
 2.89048194991119E+0000
 21
 5.07439906435320E+0000
  0
LINE
  8
1
  6
CONTINUOUS
 62
     1
 10
 2.94524067100792E+0000
 20
 5.04029454744159E+0000
 11
 2.91538580983251E+0000
 21
 5.07014940861700E+0000
  0
LINE
  8
1
  6
CONTINUOUS
 62
     1
 10
 2.96233053449760E+0000
 20
 5.04385888813704E+0000
 11
 2.94028966975384E+0000
 21
 5.06589975288080E+0000
  0
LINE
  8
1
  6
CONTINUOUS
 62
     1
 10
 2.97942039798727E+0000
 20
 5.04742322883249E+0000
 11
 2.96519352967152E+0000
 21
 5.06165009714459E+0000
  0
LINE
  8
1
  6
CONTINUOUS
 62
     1
 10
 2.99651026148058E+0000
 20
 5.05098756952793E+0000
 11
 2.99009738959285E+0000
 21
 5.05740044140839E+0000
  0
LINE
  8
1
  6
CONTINUOUS
 62
     1
 10
 3.00171400951513E+0000
 20
 5.05541815288598E+0000
 11
 2.99748717592593E+0000
 21
 5.05119131929678E+0000
  0
LINE
  8
1
  6
CONTINUOUS
 62
     1
 10
 2.98407053166011E+0000
 20
 5.05842887921608E+0000
 11
 2.97139003089251E+0000
 21
 5.04574837844848E+0000
  0
LINE
  8
1
  6
CONTINUOUS
 62
     1
 10
 2.96642705380873E+0000
 20
 5.06143960555346E+0000
 11
 2.94529288586637E+0000
 21
 5.04030543760746E+0000
  0
LINE
  8
1
  6
CONTINUOUS
 62
     1
 10
 2.94878357596099E+0000
 20
 5.06445033189084E+0000
 11
 2.91919574082931E+0000
 21
 5.03486249675916E+0000
  0
LINE
  8
1
  6
CONTINUOUS
 62
     1
 10
 2.93114009810597E+0000
 20
 5.06746105822094E+0000
 11
 2.89309859580317E+0000
 21
 5.02941955591814E+0000
  0
LINE
  8
1
  6
CONTINUOUS
 62
     1
 10
 2.91349662025095E+0000
 20
 5.07047178455105E+0000
 11
 2.86700145076975E+0000
 21
 5.02397661506984E+0000
  0
LINE
  8
1
  6
CONTINUOUS
 62
     1
 10
 2.89585314239957E+0000
 20
 5.07348251088115E+0000
 11
 2.85124642180745E+0000
 21
 5.02887579029630E+0000
  0
LINE
  8
1
  6
CONTINUOUS
 62
     1
 10
 2.87820966454456E+0000
 20
 5.07649323721125E+0000
 11
 2.85124642180745E+0000
 21
 5.04952999448142E+0000
  0
LINE
  8
1
  6
CONTINUOUS
 62
     1
 10
 2.86056618669318E+0000
 20
 5.07950396354863E+0000
 11
 2.85124642180745E+0000
 21
 5.07018419866654E+0000
  0
LINE
  8
1
  6
CONTINUOUS
 62
     1
 10
 3.32783213717266E+0000
 20
 5.05216784311779E+0000
 11
 3.32783213717266E+0000
 21
 5.05216784311779E+0000
  0
LINE
  8
1
  6
CONTINUOUS
 62
     1
 10
 3.32783213717266E+0000
 20
 5.05216784311779E+0000
 11
 3.48712146380785E+0000
 21
 5.02498632175411E+0000
  0
LINE
  8
1
  6
CONTINUOUS
 62
     1
 10
 3.48712146380785E+0000
 20
 5.02498632175411E+0000
 11
 3.48712146380785E+0000
 21
 5.08538995922572E+0000
  0
LINE
  8
1
  6
CONTINUOUS
 62
     1
 10
 3.48712146380785E+0000
 20
 5.08538995922572E+0000
 11
 3.32783213717266E+0000
 21
 5.05216784311779E+0000
  0
LINE
  8
1
  6
CONTINUOUS
 62
     1
 10
 3.48712146380785E+0000
 20
 5.02498632175411E+0000
 11
 3.48712146380785E+0000
 21
 5.08538995922572E+0000
  0
LINE
  8
1
  6
CONTINUOUS
 62
     1
 10
 3.34028406713333E+0000
 20
 5.05004301525332E+0000
 11
 3.33637706891750E+0000
 21
 5.05395001346187E+0000
  0
LINE
  8
1
  6
CONTINUOUS
 62
     1
 10
 3.36518792705465E+0000
 20
 5.04579335951712E+0000
 11
 3.35346693240717E+0000
 21
 5.05751435415732E+0000
  0
LINE
  8
1
  6
CONTINUOUS
 62
     1
 10
 3.39009178697233E+0000
 20
 5.04154370378092E+0000
 11
 3.37055679589685E+0000
 21
 5.06107869485277E+0000
  0
LINE
  8
1
  6
CONTINUOUS
 62
     1
 10
 3.41499564689366E+0000
 20
 5.03729404804471E+0000
 11
 3.38764665939016E+0000
 21
 5.06464303554822E+0000
  0
LINE
  8
1
  6
CONTINUOUS
 62
     1
 10
 3.43989950681498E+0000
 20
 5.03304439230851E+0000
 11
 3.40473652287983E+0000
 21
 5.06820737624366E+0000
  0
LINE
  8
1
  6
CONTINUOUS
 62
     1
 10
 3.46480336673631E+0000
 20
 5.02879473657231E+0000
 11
 3.42182638636950E+0000
 21
 5.07177171693911E+0000
  0
LINE
  8
1
  6
CONTINUOUS
 62
     1
 10
 3.48712146380785E+0000
 20
 5.02713084368588E+0000
 11
 3.43891624985918E+0000
 21
 5.07533605763456E+0000
  0
LINE
  8
1
  6
CONTINUOUS
 62
     1
 10
 3.48712146380785E+0000
 20
 5.04778504787100E+0000
 11
 3.45600611335249E+0000
 21
 5.07890039833001E+0000
  0
LINE
  8
1
  6
CONTINUOUS
 62
     1
 10
 3.48712146380785E+0000
 20
 5.06843925205612E+0000
 11
 3.47309597684216E+0000
 21
 5.08246473902545E+0000
  0
LINE
  8
1
  6
CONTINUOUS
 62
     1
 10
 3.48712146380421E+0000
 20
 5.03531342384667E+0000
 11
 3.47829972488034E+0000
 21
 5.02649168491916E+0000
  0
LINE
  8
1
  6
CONTINUOUS
 62
     1
 10
 3.48712146380421E+0000
 20
 5.05596762803179E+0000
 11
 3.46065624702533E+0000
 21
 5.02950241124927E+0000
  0
LINE
  8
1
  6
CONTINUOUS
 62
     1
 10
 3.48712146380421E+0000
 20
 5.07662183221692E+0000
 11
 3.44301276917031E+0000
 21
 5.03251313757937E+0000
  0
LINE
  8
1
  6
CONTINUOUS
 62
     1
 10
 3.47210308414651E+0000
 20
 5.08225765674433E+0000
 11
 3.42536929132257E+0000
 21
 5.03552386391675E+0000
  0
LINE
  8
1
  6
CONTINUOUS
 62
     1
 10
 3.44600593912037E+0000
 20
 5.07681471589603E+0000
 11
 3.40772581347119E+0000
 21
 5.03853459024685E+0000
  0
LINE
  8
1
  6
CONTINUOUS
 62
     1
 10
 3.41990879408331E+0000
 20
 5.07137177504774E+0000
 11
 3.39008233561617E+0000
 21
 5.04154531658423E+0000
  0
LINE
  8
1
  6
CONTINUOUS
 62
     1
 10
 3.39381164905717E+0000
 20
 5.06592883420672E+0000
 11
 3.37243885776479E+0000
 21
 5.04455604291434E+0000
  0
LINE
  8
1
  6
CONTINUOUS
 62
     1
 10
 3.36771450402375E+0000
 20
 5.06048589335842E+0000
 11
 3.35479537990977E+0000
 21
 5.04756676924444E+0000
  0
LINE
  8
1
  6
CONTINUOUS
 62
     1
 10
 3.34161735899397E+0000
 20
 5.05504295251740E+0000
 11
 3.33715190205476E+0000
 21
 5.05057749557454E+0000
  0
LINE
  8
1
  6
CONTINUOUS
 62
     1
 10
 3.21312729153578E+0000
 20
 6.13741208268038E+0000
 11
 3.37033594894092E+0000
 21
 6.38506423927174E+0000
  0
LINE
  8
1
  6
CONTINUOUS
 62
     1
 10
 3.37033594894092E+0000
 20
 6.38506423927174E+0000
 11
 3.77907845819209E+0000
 21
 6.38506423927174E+0000
  0
LINE
  8
1
  6
CONTINUOUS
 62
     1
 10
 3.77907845819209E+0000
 20
 6.38506423927174E+0000
 11
 3.94976214336930E+0000
 21
 6.11039548377448E+0000
  0
TEXT
  8
1
 62
     1
 10
 2.39679247594540E+0000
 20
 6.99019372027396E+0000
 40
 1.18110236219991E-0001
  1
30
  7
STANDARD
 11
 2.39679247594540E+0000
 21
 7.10830395649100E+0000
 50
 0.00000000000000E+0000
 41
 3.08371993680339E-0001
  0
TEXT
  8
1
 62
     1
 10
 3.41855742857661E+0000
 20
 7.01487535471097E+0000
 40
 1.18110236219991E-0001
  1
20
  7
STANDARD
 11
 3.41855742857661E+0000
 21
 7.13298559092800E+0000
 50
 0.00000000000000E+0000
 41
 3.08371993680339E-0001
  0
TEXT
  8
1
 62
     1
 10
 3.03693437397305E+0000
 20
 5.07119664295169E+0000
 40
 1.18110236219991E-0001
  1
8H7
  7
STANDARD
 11
 3.03693437397305E+0000
 21
 5.18930687916873E+0000
 50
 0.00000000000000E+0000
 41
 3.34069659820670E-0001
  0
TEXT
  8
1
 62
     1
 10
 3.41240221801490E+0000
 20
 6.39783449383685E+0000
 40
 1.18110236219991E-0001
  1
M5
  7
STANDARD
 11
 3.41240221801490E+0000
 21
 6.51594473005389E+0000
 50
 0.00000000000000E+0000
 41
 3.46918492890381E-0001
  0
TEXT
  8
1
 62
     1
 10
 1.35040668108377E+0000
 20
 5.80547526739247E+0000
 40
 1.18110236219991E-0001
  1
30
  7
STANDARD
 11
 1.35040668108377E+0000
 21
 5.92358550360950E+0000
 50
 9.00000000000000E+0001
 41
 3.08371993680339E-0001
  0
TEXT
  8
1
 62
     1
 10
 2.39063726538734E+0000
 20
 6.20655182696646E+0000
 40
 1.18110236219991E-0001
  1
14
  7
STANDARD
 11
 2.39063726538734E+0000
 21
 6.32466206318350E+0000
 50
 9.00000000000000E+0001
 41
 3.08371993680339E-0001
  0
TEXT
  8
1
 62
     1
 10
 9.14194901131850E+0000
 20
 4.12797905863044E-0001
 40
 1.18110236219991E-0001
  1
(c)
  7
STANDARD
 11
 9.14194901131850E+0000
 21
 5.30908142082808E-0001
 50
 0.00000000000000E+0000
 41
 2.05581329120378E-0001
0
ENDSEC
0
EOF
