0
SECTION
  2
HEADER
  9
$LTSCALE
 40
     10
  9
$LIMMIN
 10
     0.0
 20
     0.0
  9
$LIMMAX
 10
      11.5
 20
       8.0
  9
$EXTMIN
 10
     0.0
 20
     0.0
  9
$EXTMAX
 10
      11.5
 20
       8.0
   9
$CLAYER
   8
1
   9
$CECOLOR
  62
     7
   9
$CELTYPE
   6
CONTINUOUS
  0
ENDSEC
  0
SECTION
  2
TABLES
  0
TABLE
  2
LTYPE
 70
    10
  0
LTYPE
  2
CONTINUOUS
 70
    64
  3
Solid line
 72
    65
 73
     0
 40
0.0
  0
LTYPE
  2
DASHED
 70
     0
  3
__ __ __ __ __ __ __ __ __ __ __ __ __ __ __
 72
    65
 73
     2
 40
0.75
 49
0.5
 49
-0.25
  0
LTYPE
  2
HIDDEN
 70
     0
  3
_ _ _ _ _ _ _ _ _ _ _ _ _ _ _ _ _ _ _ _ _ _
 72
    65
 73
     2
 40
0.375
 49
0.25
 49
-0.125
  0
LTYPE
  2
CENTER
 70
     0
  3
____ _ ____ _ ____ _ ____ _ ____ _ ____ _ __
 72
    65
 73
     4
 40
2.0
 49
1.25
 49
-0.25
 49
0.25
 49
-0.25
  0
LTYPE
  2
PHANTOM
 70
     0
  3
_____ _ _ _____ _ _ _____ _ _ _____ _ _ ____
 72
    65
 73
     6
 40
2.5
 49
1.25
 49
-0.25
 49
0.25
 49
-0.25
 49
0.25
 49
-0.25
  0
LTYPE
  2
DOT
 70
     0
  3
............................................
 72
    65
 73
     2
 40
0.25
 49
0.0
 49
-0.25
  0
LTYPE
  2
DASHDOT
 70
     0
  3
__ . __ . __ . __ . __ . __ . __ . __ . __ .
 72
    65
 73
     4
 40
1.0
 49
0.5
 49
-0.25
 49
0.0
 49
-0.25
  0
LTYPE
  2
BORDER
 70
     0
  3
__ __ . __ __ . __ __ . __ __ . __ __ . __ _
 72
    65
 73
     6
 40
1.75
 49
0.5
 49
-0.25
 49
0.5
 49
-0.25
 49
0.0
 49
-0.25
  0
LTYPE
  2
DIVIDE
 70
     0
  3
__ . . __ . . __ . . __ . . __ . . __ . . __
 72
    65
 73
     6
 40
1.25
 49
0.5
 49
-0.25
 49
0.0
 49
-0.25
 49
0.0
 49
-0.25
  0
LTYPE
  2
DIVIDE2
 70
     0
  3
close
 72
    65
 73
     2
 40
0.1
 49
0.05
 49
-0.05
  0
ENDTAB
0
TABLE
  2
LAYER
 70
   256
  0
LAYER
  2
1
 70
     0
  6
DOT
 62
1
  0
ENDTAB
  0
TABLE
  2
STYLE
 70
     8
  0
STYLE
  2
TXT
 70
0
 40
0.0
 41
1.0
 50
0.0
 71
0
 42
1.0
  3
TXT
  4

  0
STYLE
  2
COMPLEX
 70
0
 40
0.0
 41
1.0
 50
0.0
 71
0
 42
1.0
  3
COMPLEX
  4

  0
STYLE
  2
ITALIC
 70
0
 40
0.0
 41
1.0
 50
0.0
 71
0
 42
1.0
  3
ITALIC
  4

  0
STYLE
  2
SIMPLEX
70
0
 40
0.0
 41
1.0
 50
0.0
 71
0
 42
1.0
  3
SIMPLEX
  4

  0
STYLE
  2
MONOTXT
 70
0
 40
0.0
 41
1.0
 50
0.0
 71
0
 42
1.0
  3
MONOTXT
  4

  0
STYLE
  2
SCRIPTC
 70
0
 40
0.0
 41
1.0
 50
0.0
 71
0
 42
1.0
  3
SCRIPTC
  4

  0
STYLE
  2
GOTHICE
 70
0
 40
0.0
 41
1.0
 50
0.0
 71
0
 42
1.0
  3
GOTHICE
  4

  0
ENDTAB
  0
TABLE
  2
VIEW
 70
     0
  0
ENDTAB
  0
ENDSEC
  0
SECTION
  2
ENTITIES
  0
LINE
  8
1
  6
CONTINUOUS
 62
     1
 10
 1.10824245900876E+0001
 20
 3.66054472739052E-0001
 11
 8.90078496305796E+0000
 21
 3.66054472739052E-0001
  0
LINE
  8
1
  6
CONTINUOUS
 62
     1
 10
 8.90078496305796E+0000
 20
 3.66054472739052E-0001
 11
 8.90078496305796E+0000
 21
 1.55291635594767E+0000
  0
LINE
  8
1
  6
CONTINUOUS
 62
     1
 10
 8.90078496305796E+0000
 20
 1.55291635594767E+0000
 11
 1.10824245900876E+0001
 21
 1.55291635594767E+0000
  0
LINE
  8
1
  6
CONTINUOUS
 62
     1
 10
 1.10824245900876E+0001
 20
 1.55291635594767E+0000
 11
 1.10824245900876E+0001
 21
 3.66054472739052E-0001
  0
LINE
  8
1
  6
CONTINUOUS
 62
     1
 10
 8.90010336294654E+0000
 20
 1.23953147667635E+0000
 11
 1.10833476808330E+0001
 21
 1.23953147667635E+0000
  0
LINE
  8
1
  6
CONTINUOUS
 62
     1
 10
 8.90774062665878E+0000
 20
 5.23861750931246E-0001
 11
 1.10909849445452E+0001
 21
 5.23861750931246E-0001
  0
TEXT
  8
1
 62
     1
 10
 8.94823287868348E+0000
 20
 1.35143637997317E+0000
 40
 1.18110236219991E-0001
  1
Benennung
  7
STANDARD
 11
 8.94823287868348E+0000
 21
 1.46954661619384E+0000
 50
 0.00000000000000E+0000
 41
 3.42292912985158E-0001
  0
LINE
  8
1
  6
CONTINUOUS
 62
     1
 10
 9.57264299190138E+0000
 20
 1.55147486233909E+0000
 11
 9.57264299190138E+0000
 21
 1.23953147667635E+0000
  0
LINE
  8
1
  6
CONTINUOUS
 62
     1
 10
 8.90010336294654E+0000
 20
 1.07349709398113E+0000
 11
 1.10833476808330E+0001
 21
 1.07349709398113E+0000
  0
LINE
  8
1
  6
CONTINUOUS
 62
     1
 10
 8.90010336294654E+0000
 20
 9.07462711285916E-0001
 11
 1.10833476808330E+0001
 21
 9.07462711285916E-0001
  0
TEXT
  8
1
 62
     1
 10
 8.95298969198484E+0000
 20
 1.08890528919073E+0000
 40
 1.18110236219991E-0001
  1
Werkstoff
  7
STANDARD
 11
 8.95298969198484E+0000
 21
 1.20701552541141E+0000
 50
 0.00000000000000E+0000
 41
 2.77534794312487E-0001
  0
LINE
  8
1
  6
CONTINUOUS
 62
     1
 10
 9.57264299190138E+0000
 20
 1.23953147667635E+0000
 11
 9.57264299190138E+0000
 21
 1.07349709398113E+0000
  0
LINE
  8
1
  6
CONTINUOUS
 62
     1
 10
 1.05011491960613E+0001
 20
 1.23953147667635E+0000
 11
 1.05011491960613E+0001
 21
 1.07349709398113E+0000
  0
TEXT
  8
1
 62
     1
 10
 1.05670323736267E+0001
 20
 1.08890528919073E+0000
 40
 1.18110236219991E-0001
  1
M 1:1
  7
STANDARD
 11
 1.05670323736267E+0001
 21
 1.20701552541141E+0000
 50
 0.00000000000000E+0000
 41
 2.83085490198573E-0001
  0
LINE
  8
1
  6
CONTINUOUS
 62
     1
 10
 8.90078496305796E+0000
 20
 1.55291635594767E+0000
 11
 1.10883666332957E+0001
 21
 1.55291635594767E+0000
  0
LINE
  8
1
  6
CONTINUOUS
 62
     1
 10
 8.90078496305796E+0000
 20
 1.55291635594767E+0000
 11
 1.10824245900876E+0001
 21
 1.55291635594767E+0000
  0
LINE
  8
1
  6
CONTINUOUS
 62
     1
 10
 1.10824245900876E+0001
 20
 1.55291635594767E+0000
 11
 1.10824245900876E+0001
 21
 3.66054472739052E-0001
  0
LINE
  8
1
  6
CONTINUOUS
 62
     1
 10
 1.10824245900876E+0001
 20
 3.66054472739052E-0001
 11
 8.90078496305796E+0000
 21
 3.66054472739052E-0001
  0
LINE
  8
1
  6
CONTINUOUS
 62
     1
 10
 8.90078496305796E+0000
 20
 3.66054472739052E-0001
 11
 8.90078496305796E+0000
 21
 1.55291635594767E+0000
  0
TEXT
  8
1
 62
     1
 10
 8.94643199958955E+0000
 20
 9.29817355409796E-0001
 40
 1.18110236219991E-0001
  1
Bearb.
  7
STANDARD
 11
 8.94643199958955E+0000
 21
 1.04792759162956E+0000
 50
 0.00000000000000E+0000
 41
 2.91411534028157E-0001
  0
LINE
  8
1
  6
CONTINUOUS
 62
     1
 10
 9.57372805119667E+0000
 20
 1.07462383869279E+0000
 11
 9.57372805119667E+0000
 21
 9.08513856978971E-0001
  0
LINE
  8
1
  6
CONTINUOUS
 62
     1
 10
 8.90204784499656E+0000
 20
 7.36471375930705E-0001
 11
 1.10827893074456E+0001
 21
 7.36471375930705E-0001
  0
LINE
  8
1
  6
CONTINUOUS
 62
     1
 10
 9.57372805119667E+0000
 20
 9.08513856978971E-0001
 11
 9.57372805119667E+0000
 21
 7.36471375930705E-0001
  0
TEXT
  8
1
 62
     1
 10
 8.94643199958955E+0000
 20
 7.54808624687030E-0001
 40
 1.18110236219991E-0001
  1
Datum
  7
STANDARD
 11
 8.94643199958955E+0000
 21
 8.72918860906793E-0001
 50
 0.00000000000000E+0000
 41
 3.49693840833424E-0001
  0
LINE
  8
1
  6
CONTINUOUS
 62
     1
 10
 1.04998774104170E+0001
 20
 5.19935149772209E-0001
 11
 1.04998774104170E+0001
 21
 3.68656416430895E-0001
  0
TEXT
  8
1
 62
     1
 10
 9.62994798035652E+0000
 20
 9.20918606393570E-0001
 40
 1.18110236219991E-0001
  1
D.Freind
  7
STANDARD
 11
 9.62994798035652E+0000
 21
 1.03902884261333E+0000
 50
 0.00000000000000E+0000
 41
 2.81003979241177E-0001
  0
TEXT
  8
1
 62
     1
 10
 1.05235489595507E+0001
 20
 3.84027415512719E-0001
 40
 1.18110236219991E-0001
  1
Blatt
  7
STANDARD
 11
 1.05235489595507E+0001
 21
 5.02137651732482E-0001
 50
 0.00000000000000E+0000
 41
 2.49781314881147E-0001
  0
TEXT
  8
1
 62
     1
 10
 9.04969655426976E+0000
 20
 5.46297824291287E-0001
 40
 1.18110236219991E-0001
  1
für Revolver 8-fach 
  7
STANDARD
 11
 9.04969655426976E+0000
 21
 6.64408060511050E-0001
 50
 0.00000000000000E+0000
 41
 2.53944336795939E-0001
  0
TEXT
  8
1
 62
     1
 10
 9.28430963211576E+0000
 20
 3.96381380461207E-0001
 40
 1.18110236219991E-0001
  1
www.cnc-projects.de.vu
  7
STANDARD
 11
 9.28430963211576E+0000
 21
 5.14491616680971E-0001
 50
 0.00000000000000E+0000
 41
 2.87626968650784E-0001
  0
TEXT
  8
1
 62
     1
 10
 9.62716260971501E+0000
 20
 7.53804628250691E-0001
 40
 1.18110236219991E-0001
  1
26.12.2003
  7
STANDARD
 11
 9.62716260971501E+0000
 21
 8.71914864470455E-0001
 50
 0.00000000000000E+0000
 41
 2.99737577857286E-0001
  0
TEXT
  8
1
 62
     1
 10
 1.08389031968254E+0001
 20
 3.86322515551910E-0001
 40
 1.18110236219991E-0001
  1
1
  7
STANDARD
 11
 1.08389031968254E+0001
 21
 5.04432751771674E-0001
 50
 0.00000000000000E+0000
 41
 3.33041753174712E-0001
  0
TEXT
  8
1
 62
     1
 10
 9.64752799773123E+0000
 20
 1.28753465860791E+0000
 40
 1.96850393699833E-0001
  1
Gleitlager hinten
  7
STANDARD
 11
 9.64752799773123E+0000
 21
 1.48438505230843E+0000
 50
 0.00000000000000E+0000
 41
 1.55745996337828E-0001
  0
TEXT
  8
1
 62
     1
 10
 9.62640840921085E+0000
 20
 1.09230543949707E+0000
 40
 1.18110236219991E-0001
  1
Messing/Bronze
  7
STANDARD
 11
 9.62640840921085E+0000
 21
 1.21041567571774E+0000
 50
 0.00000000000000E+0000
 41
 3.03305882355744E-0001
  0
LINE
  8
1
  6
DASHDOT
 62
     1
 10
 5.62473278238031E+0000
 20
 4.07674120630691E+0000
 11
 8.61722742578422E+0000
 21
 4.07674120630691E+0000
  0
LINE
  8
1
  6
CONTINUOUS
 62
     1
 10
 6.72952857233759E+0000
 20
 4.07536081138096E+0000
 11
 6.72952857233759E+0000
 21
 4.66323913199449E+0000
  0
LINE
  8
1
  6
CONTINUOUS
 62
     1
 10
 6.72952857233759E+0000
 20
 4.66323913199449E+0000
 11
 7.28301339181780E+0000
 21
 4.66323913199449E+0000
  0
LINE
  8
1
  6
CONTINUOUS
 62
     1
 10
 7.28301339181780E+0000
 20
 4.66323913199449E+0000
 11
 7.28301339181780E+0000
 21
 5.25111745260801E+0000
  0
LINE
  8
1
  6
CONTINUOUS
 62
     1
 10
 7.28301339181780E+0000
 20
 5.25111745260801E+0000
 11
 7.48068654163217E+0000
 21
 5.25111745260801E+0000
  0
LINE
  8
1
  6
CONTINUOUS
 62
     1
 10
 7.48068654163217E+0000
 20
 5.25111745260801E+0000
 11
 7.48068654163217E+0000
 21
 5.05295622094127E+0000
  0
LINE
  8
1
  6
CONTINUOUS
 62
     1
 10
 7.48068654163217E+0000
 20
 5.05295622094127E+0000
 11
 8.07370599108981E+0000
 21
 5.05295622094127E+0000
  0
LINE
  8
1
  6
CONTINUOUS
 62
     1
 10
 8.07370599108981E+0000
 20
 5.05295622094127E+0000
 11
 8.07370599108981E+0000
 21
 4.07536081138096E+0000
  0
LINE
  8
1
  6
DASHDOT
 62
     1
 10
 6.72952857233759E+0000
 20
 4.41223490521952E+0000
 11
 8.07370599108981E+0000
 21
 4.41223490521952E+0000
  0
LINE
  8
1
  6
DASHDOT
 62
     1
 10
 7.22371144687349E+0000
 20
 4.86140036366123E+0000
 11
 8.14618614601204E+0000
 21
 4.86140036366123E+0000
  0
LINE
  8
1
  6
DASHDOT
 62
     1
 10
 8.07370599108981E+0000
 20
 5.01992934899317E+0000
 11
 7.87603284126817E+0000
 21
 5.01992934899317E+0000
  0
LINE
  8
1
  6
DASHDOT
 62
     1
 10
 7.87603284126817E+0000
 20
 5.01992934899317E+0000
 11
 7.87603284126817E+0000
 21
 4.70287137832929E+0000
  0
LINE
  8
1
  6
DASHDOT
 62
     1
 10
 7.87603284126817E+0000
 20
 4.70287137832929E+0000
 11
 8.07370599108981E+0000
 21
 4.70287137832929E+0000
  0
LINE
  8
1
  6
DASHDOT
 62
     1
 10
 7.87603284126817E+0000
 20
 4.76892512221821E+0000
 11
 7.28301339181780E+0000
 21
 4.76892512221821E+0000
  0
LINE
  8
1
  6
DASHDOT
 62
     1
 10
 7.87603284126817E+0000
 20
 4.98690247705235E+0000
 11
 7.28301339181780E+0000
 21
 4.98690247705235E+0000
  0
LINE
  8
1
  6
CONTINUOUS
 62
     1
 10
 7.28301339181780E+0000
 20
 4.66323913199449E+0000
 11
 7.28301339181780E+0000
 21
 4.07536081138096E+0000
  0
LINE
  8
1
  6
CONTINUOUS
 62
     1
 10
 7.48068654163217E+0000
 20
 5.05295622094127E+0000
 11
 7.48068654163217E+0000
 21
 4.07536081138096E+0000
  0
LINE
  8
1
  6
CONTINUOUS
 62
     1
 10
 6.72952857233759E+0000
 20
 4.07536081139551E+0000
 11
 6.72952857233759E+0000
 21
 3.48748249078199E+0000
  0
LINE
  8
1
  6
CONTINUOUS
 62
     1
 10
 6.72952857233759E+0000
 20
 3.48748249078199E+0000
 11
 7.28301339181780E+0000
 21
 3.48748249078199E+0000
  0
LINE
  8
1
  6
CONTINUOUS
 62
     1
 10
 7.28301339181780E+0000
 20
 3.48748249078199E+0000
 11
 7.28301339181780E+0000
 21
 2.89960417016846E+0000
  0
LINE
  8
1
  6
CONTINUOUS
 62
     1
 10
 7.28301339181780E+0000
 20
 2.89960417016846E+0000
 11
 7.48068654163217E+0000
 21
 2.89960417016846E+0000
  0
LINE
  8
1
  6
CONTINUOUS
 62
     1
 10
 7.48068654163217E+0000
 20
 2.89960417015391E+0000
 11
 7.48068654163217E+0000
 21
 3.09776540182065E+0000
  0
LINE
  8
1
  6
CONTINUOUS
 62
     1
 10
 7.48068654163217E+0000
 20
 3.09776540183520E+0000
 11
 8.07370599108981E+0000
 21
 3.09776540183520E+0000
  0
LINE
  8
1
  6
CONTINUOUS
 62
     1
 10
 8.07370599108981E+0000
 20
 3.09776540182065E+0000
 11
 8.07370599108981E+0000
 21
 4.07536081138096E+0000
  0
LINE
  8
1
  6
DASHDOT
 62
     1
 10
 6.72952857233759E+0000
 20
 3.73848671755695E+0000
 11
 8.07370599108981E+0000
 21
 3.73848671755695E+0000
  0
LINE
  8
1
  6
DASHDOT
 62
     1
 10
 7.22371144687349E+0000
 20
 3.28932125911524E+0000
 11
 8.14618614601204E+0000
 21
 3.28932125911524E+0000
  0
LINE
  8
1
  6
DASHDOT
 62
     1
 10
 8.07370599108981E+0000
 20
 3.13079227378330E+0000
 11
 7.87603284126817E+0000
 21
 3.13079227378330E+0000
  0
LINE
  8
1
  6
DASHDOT
 62
     1
 10
 7.87603284126817E+0000
 20
 3.13079227378330E+0000
 11
 7.87603284126817E+0000
 21
 3.44785024444718E+0000
  0
LINE
  8
1
  6
DASHDOT
 62
     1
 10
 7.87603284126817E+0000
 20
 3.44785024444718E+0000
 11
 8.07370599108981E+0000
 21
 3.44785024444718E+0000
  0
LINE
  8
1
  6
DASHDOT
 62
     1
 10
 7.87603284126817E+0000
 20
 3.38179650055827E+0000
 11
 7.28301339181780E+0000
 21
 3.38179650055827E+0000
  0
LINE
  8
1
  6
DASHDOT
 62
     1
 10
 7.87603284126817E+0000
 20
 3.16381914572412E+0000
 11
 7.28301339181780E+0000
 21
 3.16381914572412E+0000
  0
LINE
  8
1
  6
CONTINUOUS
 62
     1
 10
 7.28301339181780E+0000
 20
 3.48748249078199E+0000
 11
 7.28301339181780E+0000
 21
 4.07536081139551E+0000
  0
LINE
  8
1
  6
CONTINUOUS
 62
     1
 10
 7.48068654163217E+0000
 20
 3.09776540182065E+0000
 11
 7.48068654163217E+0000
 21
 4.07536081138096E+0000
  0
LINE
  8
1
  6
DASHDOT
 62
     1
 10
 5.62473278238031E+0000
 20
 4.07674120630691E+0000
 11
 3.01152349844415E+0000
 21
 4.07674120630691E+0000
  0
LINE
  8
1
  6
DASHDOT
 62
     1
 10
 3.01152349844415E+0000
 20
 4.07674120630691E+0000
 11
 2.37980172703101E+0000
 21
 4.07674120630691E+0000
  0
LINE
  8
1
  6
DASHDOT
 62
     1
 10
 3.79000891371834E+0000
 20
 5.41990720270405E+0000
 11
 3.79000891371834E+0000
 21
 2.69487738112002E+0000
  0
CIRCLE
  8
1
  6
CONTINUOUS
 62
     1
 10
 3.79000891371834E+0000
 20
 4.07658264276688E+0000
 40
 1.17700818584854E+0000
  0
CIRCLE
  8
1
  6
CONTINUOUS
 62
     1
 10
 3.79000891372198E+0000
 20
 4.07658264276688E+0000
 40
 9.78707893669707E-0001
  0
CIRCLE
  8
1
  6
CONTINUOUS
 62
     1
 10
 3.79000891372198E+0000
 20
 4.07658264276688E+0000
 40
 3.39029531793130E-0001
  0
CIRCLE
  8
1
  6
DASHDOT
 62
     1
 10
 3.79000891371834E+0000
 20
 4.07658264276688E+0000
 40
 5.88504092927906E-0001
  0
CIRCLE
  8
1
  6
CONTINUOUS
 62
     1
 10
 3.78728538658834E+0000
 20
 4.86276294007985E+0000
 40
 9.63689358250122E-0002
  0
CIRCLE
  8
1
  6
CONTINUOUS
 62
     1
 10
 3.78728538658834E+0000
 20
 4.86276294007985E+0000
 40
 1.58320394570183E-0001
  0
CIRCLE
  8
1
  6
CONTINUOUS
 62
     1
 10
 3.00256690918104E+0000
 20
 4.07804446267255E+0000
 40
 9.63689358250122E-0002
  0
CIRCLE
  8
1
  6
CONTINUOUS
 62
     1
 10
 3.00256690918104E+0000
 20
 4.07804446267255E+0000
 40
 1.58320394570183E-0001
  0
CIRCLE
  8
1
  6
CONTINUOUS
 62
     1
 10
 3.78728538658834E+0000
 20
 3.29332598526526E+0000
 40
 9.63689358250122E-0002
  0
CIRCLE
  8
1
  6
CONTINUOUS
 62
     1
 10
 3.78728538658834E+0000
 20
 3.29332598526526E+0000
 40
 1.58320394570183E-0001
  0
CIRCLE
  8
1
  6
CONTINUOUS
 62
     1
 10
 4.57200386399927E+0000
 20
 4.07804446267255E+0000
 40
 9.63689358250122E-0002
  0
CIRCLE
  8
1
  6
CONTINUOUS
 62
     1
 10
 4.57200386399927E+0000
 20
 4.07804446267255E+0000
 40
 1.58320394570183E-0001
  0
CIRCLE
  8
1
  6
CONTINUOUS
 62
     1
 10
 3.78728538658834E+0000
 20
 4.86276294008712E+0000
 40
 9.63689358250122E-0002
  0
CIRCLE
  8
1
  6
CONTINUOUS
 62
     1
 10
 3.78728538658834E+0000
 20
 4.86276294008712E+0000
 40
 1.58320394570183E-0001
  0
LINE
  8
1
  6
CONTINUOUS
 62
     1
 10
 8.07370599108981E+0000
 20
 3.09776540182065E+0000
 11
 8.07370599108981E+0000
 21
 2.66009141477844E+0000
  0
LINE
  8
1
  6
CONTINUOUS
 62
     1
 10
 8.07370599108981E+0000
 20
 2.66009141477844E+0000
 11
 7.48019095470227E+0000
 21
 2.66009141477844E+0000
  0
LINE
  8
1
  6
CONTINUOUS
 62
     1
 10
 7.48019095470227E+0000
 20
 2.66009141477844E+0000
 11
 7.48019095470227E+0000
 21
 2.90767269277057E+0000
  0
LINE
  8
1
  6
CONTINUOUS
 62
     1
 10
 8.07370599108981E+0000
 20
 2.66009141477844E+0000
 11
 8.07370599108981E+0000
 21
 2.39875562133966E+0000
  0
LINE
  8
1
  6
CONTINUOUS
 62
     1
 10
 8.07370599108981E+0000
 20
 2.39875562133966E+0000
 11
 7.28124171346280E+0000
 21
 2.39875562133966E+0000
  0
LINE
  8
1
  6
CONTINUOUS
 62
     1
 10
 7.28124171346280E+0000
 20
 2.39875562133966E+0000
 11
 7.28124171346280E+0000
 21
 2.90079543504544E+0000
  0
LINE
  8
1
  6
CONTINUOUS
 62
     1
 10
 8.07370599108981E+0000
 20
 2.39875562133966E+0000
 11
 8.07370599108981E+0000
 21
 2.14429708562602E+0000
  0
LINE
  8
1
  6
CONTINUOUS
 62
     1
 10
 8.07370599108981E+0000
 20
 2.14429708562602E+0000
 11
 6.73241622037312E+0000
 21
 2.14429708562602E+0000
  0
LINE
  8
1
  6
CONTINUOUS
 62
     1
 10
 6.73241622037312E+0000
 20
 2.14429708562602E+0000
 11
 6.73241622037312E+0000
 21
 3.48536234141648E+0000
  0
LINE
  8
1
  6
CONTINUOUS
 62
     1
 10
 8.14618614601204E+0000
 20
 4.86140036366123E+0000
 11
 9.00318169801903E+0000
 21
 4.86140036366123E+0000
  0
LINE
  8
1
  6
CONTINUOUS
 62
     1
 10
 9.00318169801903E+0000
 20
 4.86140036366123E+0000
 11
 9.00318169801903E+0000
 21
 3.28592186747846E+0000
  0
LINE
  8
1
  6
CONTINUOUS
 62
     1
 10
 9.00318169801903E+0000
 20
 3.28592186747846E+0000
 11
 8.09761963442725E+0000
 21
 3.28592186747846E+0000
  0
LINE
  8
1
  6
CONTINUOUS
 62
     1
 10
 8.07703867844248E+0000
 20
 4.41379213388427E+0000
 11
 8.66016576484253E+0000
 21
 4.41379213388427E+0000
  0
LINE
  8
1
  6
CONTINUOUS
 62
     1
 10
 8.66016576484253E+0000
 20
 4.41379213388427E+0000
 11
 8.66016576484253E+0000
 21
 3.73982087712648E+0000
  0
LINE
  8
1
  6
CONTINUOUS
 62
     1
 10
 8.66016576484253E+0000
 20
 3.73982087712648E+0000
 11
 8.07703867844248E+0000
 21
 3.73982087712648E+0000
  0
LINE
  8
1
  6
CONTINUOUS
 62
     1
 10
 8.07370599108981E+0000
 20
 5.05295622094127E+0000
 11
 8.07370599108981E+0000
 21
 5.40411724585283E+0000
  0
LINE
  8
1
  6
CONTINUOUS
 62
     1
 10
 8.07370599108981E+0000
 20
 5.40411724585283E+0000
 11
 7.87808943718846E+0000
 21
 5.40411724585283E+0000
  0
LINE
  8
1
  6
CONTINUOUS
 62
     1
 10
 7.87808943718846E+0000
 20
 5.40411724585283E+0000
 11
 7.87808943718846E+0000
 21
 5.01211355569831E+0000
  0
LINE
  8
1
  6
CONTINUOUS
 62
     1
 10
 6.72952857233759E+0000
 20
 4.66323913199449E+0000
 11
 6.15614945263223E+0000
 21
 4.66323913199449E+0000
  0
LINE
  8
1
  6
CONTINUOUS
 62
     1
 10
 6.15614945263223E+0000
 20
 4.66323913199449E+0000
 11
 6.15614945263223E+0000
 21
 3.48536234141648E+0000
  0
LINE
  8
1
  6
CONTINUOUS
 62
     1
 10
 6.15614945263223E+0000
 20
 3.48536234141648E+0000
 11
 6.73927653903957E+0000
 21
 3.48536234141648E+0000
  0
LINE
  8
1
  6
CONTINUOUS
 62
     1
 10
 9.00129635565099E+0000
 20
 3.28347868995479E+0000
 11
 9.00129635565099E+0000
 21
 3.28347868995479E+0000
  0
LINE
  8
1
  6
CONTINUOUS
 62
     1
 10
 9.00129635565099E+0000
 20
 3.28347868995479E+0000
 11
 9.02847787701467E+0000
 21
 3.44276801658270E+0000
  0
LINE
  8
1
  6
CONTINUOUS
 62
     1
 10
 9.02847787701467E+0000
 20
 3.44276801658270E+0000
 11
 8.96807423954306E+0000
 21
 3.44276801658270E+0000
  0
LINE
  8
1
  6
CONTINUOUS
 62
     1
 10
 8.96807423954306E+0000
 20
 3.44276801658270E+0000
 11
 9.00129635565099E+0000
 21
 3.28347868995479E+0000
  0
LINE
  8
1
  6
CONTINUOUS
 62
     1
 10
 9.02847787701467E+0000
 20
 3.44276801658270E+0000
 11
 8.96807423954306E+0000
 21
 3.44276801658270E+0000
  0
LINE
  8
1
  6
CONTINUOUS
 62
     1
 10
 9.00280171883060E+0000
 20
 3.29230042889685E+0000
 11
 8.99857488523412E+0000
 21
 3.29652726248969E+0000
  0
LINE
  8
1
  6
CONTINUOUS
 62
     1
 10
 9.00581244516070E+0000
 20
 3.30994390674823E+0000
 11
 8.99313194438582E+0000
 21
 3.32262440752311E+0000
  0
LINE
  8
1
  6
CONTINUOUS
 62
     1
 10
 9.00882317149080E+0000
 20
 3.32758738459597E+0000
 11
 8.98768900353753E+0000
 21
 3.34872155255289E+0000
  0
LINE
  8
1
  6
CONTINUOUS
 62
     1
 10
 9.01183389782091E+0000
 20
 3.34523086245099E+0000
 11
 8.98224606268923E+0000
 21
 3.37481869758267E+0000
  0
LINE
  8
1
  6
CONTINUOUS
 62
     1
 10
 9.01484462415101E+0000
 20
 3.36287434030601E+0000
 11
 8.97680312184093E+0000
 21
 3.40091584261609E+0000
  0
LINE
  8
1
  6
CONTINUOUS
 62
     1
 10
 9.01785535049567E+0000
 20
 3.38051781815739E+0000
 11
 8.97136018099263E+0000
 21
 3.42701298764950E+0000
  0
LINE
  8
1
  6
CONTINUOUS
 62
     1
 10
 9.02086607682577E+0000
 20
 3.39816129601240E+0000
 11
 8.97625935624819E+0000
 21
 3.44276801658634E+0000
  0
LINE
  8
1
  6
CONTINUOUS
 62
     1
 10
 9.02387680315587E+0000
 20
 3.41580477386378E+0000
 11
 8.99691356043331E+0000
 21
 3.44276801658634E+0000
  0
LINE
  8
1
  6
CONTINUOUS
 62
     1
 10
 9.02688752948598E+0000
 20
 3.43344825171880E+0000
 11
 9.01756776461843E+0000
 21
 3.44276801658270E+0000
  0
LINE
  8
1
  6
CONTINUOUS
 62
     1
 10
 9.00342118350090E+0000
 20
 3.29593061990454E+0000
 11
 8.99951418529963E+0000
 21
 3.29202362169235E+0000
  0
LINE
  8
1
  6
CONTINUOUS
 62
     1
 10
 9.00767083924438E+0000
 20
 3.32083447982586E+0000
 11
 8.99594984459691E+0000
 21
 3.30911348518202E+0000
  0
LINE
  8
1
  6
CONTINUOUS
 62
     1
 10
 9.01192049497331E+0000
 20
 3.34573833974719E+0000
 11
 8.99238550390874E+0000
 21
 3.32620334867534E+0000
  0
LINE
  8
1
  6
CONTINUOUS
 62
     1
 10
 9.01617015071679E+0000
 20
 3.37064219966851E+0000
 11
 8.98882116320601E+0000
 21
 3.34329321216501E+0000
  0
LINE
  8
1
  6
CONTINUOUS
 62
     1
 10
 9.02041980644572E+0000
 20
 3.39554605958983E+0000
 11
 8.98525682251784E+0000
 21
 3.36038307565832E+0000
  0
LINE
  8
1
  6
CONTINUOUS
 62
     1
 10
 9.02466946218919E+0000
 20
 3.42044991951116E+0000
 11
 8.98169248182967E+0000
 21
 3.37747293914799E+0000
  0
LINE
  8
1
  6
CONTINUOUS
 62
     1
 10
 9.02633335506835E+0000
 20
 3.44276801658270E+0000
 11
 8.97812814112694E+0000
 21
 3.39456280264130E+0000
  0
LINE
  8
1
  6
CONTINUOUS
 62
     1
 10
 9.00567915088322E+0000
 20
 3.44276801658270E+0000
 11
 8.97456380043877E+0000
 21
 3.41165266613461E+0000
  0
LINE
  8
1
  6
CONTINUOUS
 62
     1
 10
 8.98502494669810E+0000
 20
 3.44276801658270E+0000
 11
 8.97099945973605E+0000
 21
 3.42874252962429E+0000
  0
LINE
  8
1
  6
CONTINUOUS
 62
     1
 10
 8.66189469842357E+0000
 20
 3.74380297102834E+0000
 11
 8.66189469842357E+0000
 21
 3.74380297102834E+0000
  0
LINE
  8
1
  6
CONTINUOUS
 62
     1
 10
 8.66189469842357E+0000
 20
 3.74380297102834E+0000
 11
 8.68907621978724E+0000
 21
 3.90309229765626E+0000
  0
LINE
  8
1
  6
CONTINUOUS
 62
     1
 10
 8.68907621978724E+0000
 20
 3.90309229765626E+0000
 11
 8.62867258231563E+0000
 21
 3.90309229765626E+0000
  0
LINE
  8
1
  6
CONTINUOUS
 62
     1
 10
 8.62867258231563E+0000
 20
 3.90309229765626E+0000
 11
 8.66189469842357E+0000
 21
 3.74380297102834E+0000
  0
LINE
  8
1
  6
CONTINUOUS
 62
     1
 10
 8.68907621978724E+0000
 20
 3.90309229765626E+0000
 11
 8.62867258231563E+0000
 21
 3.90309229765626E+0000
  0
LINE
  8
1
  6
CONTINUOUS
 62
     1
 10
 8.66340006158862E+0000
 20
 3.75262470996313E+0000
 11
 8.65917322800669E+0000
 21
 3.75685154355961E+0000
  0
LINE
  8
1
  6
CONTINUOUS
 62
     1
 10
 8.66641078793327E+0000
 20
 3.77026818781815E+0000
 11
 8.65373028715840E+0000
 21
 3.78294868858939E+0000
  0
LINE
  8
1
  6
CONTINUOUS
 62
     1
 10
 8.66942151426338E+0000
 20
 3.78791166567316E+0000
 11
 8.64828734631010E+0000
 21
 3.80904583362644E+0000
  0
LINE
  8
1
  6
CONTINUOUS
 62
     1
 10
 8.67243224059348E+0000
 20
 3.80555514352454E+0000
 11
 8.64284440546180E+0000
 21
 3.83514297865622E+0000
  0
LINE
  8
1
  6
CONTINUOUS
 62
     1
 10
 8.67544296692358E+0000
 20
 3.82319862137956E+0000
 11
 8.63740146461350E+0000
 21
 3.86124012368600E+0000
  0
LINE
  8
1
  6
CONTINUOUS
 62
     1
 10
 8.67845369325369E+0000
 20
 3.84084209923094E+0000
 11
 8.63195852376521E+0000
 21
 3.88733726871942E+0000
  0
LINE
  8
1
  6
CONTINUOUS
 62
     1
 10
 8.68146441958379E+0000
 20
 3.85848557708232E+0000
 11
 8.63685769902077E+0000
 21
 3.90309229765626E+0000
  0
LINE
  8
1
  6
CONTINUOUS
 62
     1
 10
 8.68447514591389E+0000
 20
 3.87612905493734E+0000
 11
 8.65751190320589E+0000
 21
 3.90309229765626E+0000
  0
LINE
  8
1
  6
CONTINUOUS
 62
     1
 10
 8.68748587225855E+0000
 20
 3.89377253278872E+0000
 11
 8.67816610739101E+0000
 21
 3.90309229765626E+0000
  0
LINE
  8
1
  6
CONTINUOUS
 62
     1
 10
 8.66401952628803E+0000
 20
 3.75625490098901E+0000
 11
 8.66011252807220E+0000
 21
 3.75234790277318E+0000
  0
LINE
  8
1
  6
CONTINUOUS
 62
     1
 10
 8.66826918201696E+0000
 20
 3.78115876091033E+0000
 11
 8.65654818738403E+0000
 21
 3.76943776626649E+0000
  0
LINE
  8
1
  6
CONTINUOUS
 62
     1
 10
 8.67251883776044E+0000
 20
 3.80606262082802E+0000
 11
 8.65298384668131E+0000
 21
 3.78652762975616E+0000
  0
LINE
  8
1
  6
CONTINUOUS
 62
     1
 10
 8.67676849348936E+0000
 20
 3.83096648074934E+0000
 11
 8.64941950599314E+0000
 21
 3.80361749324948E+0000
  0
LINE
  8
1
  6
CONTINUOUS
 62
     1
 10
 8.68101814923284E+0000
 20
 3.85587034067066E+0000
 11
 8.64585516529041E+0000
 21
 3.82070735672824E+0000
  0
LINE
  8
1
  6
CONTINUOUS
 62
     1
 10
 8.68526780496177E+0000
 20
 3.88077420059199E+0000
 11
 8.64229082458769E+0000
 21
 3.83779722022155E+0000
  0
LINE
  8
1
  6
CONTINUOUS
 62
     1
 10
 8.68693169784092E+0000
 20
 3.90309229765626E+0000
 11
 8.63872648389952E+0000
 21
 3.85488708371122E+0000
  0
LINE
  8
1
  6
CONTINUOUS
 62
     1
 10
 8.66627749365580E+0000
 20
 3.90309229765626E+0000
 11
 8.63516214321135E+0000
 21
 3.87197694720453E+0000
  0
LINE
  8
1
  6
CONTINUOUS
 62
     1
 10
 8.64562328947068E+0000
 20
 3.90309229765626E+0000
 11
 8.63159780250862E+0000
 21
 3.88906681069784E+0000
  0
LINE
  8
1
  6
CONTINUOUS
 62
     1
 10
 8.66459597472567E+0000
 20
 4.40652226233215E+0000
 11
 8.66459597472567E+0000
 21
 4.40652226233215E+0000
  0
LINE
  8
1
  6
CONTINUOUS
 62
     1
 10
 8.66459597472567E+0000
 20
 4.40652226233215E+0000
 11
 8.63741445336200E+0000
 21
 4.24723293570423E+0000
  0
LINE
  8
1
  6
CONTINUOUS
 62
     1
 10
 8.63741445336200E+0000
 20
 4.24723293570423E+0000
 11
 8.69781809083361E+0000
 21
 4.24723293570423E+0000
  0
LINE
  8
1
  6
CONTINUOUS
 62
     1
 10
 8.69781809083361E+0000
 20
 4.24723293570423E+0000
 11
 8.66459597472567E+0000
 21
 4.40652226233215E+0000
  0
LINE
  8
1
  6
CONTINUOUS
 62
     1
 10
 8.63741445336200E+0000
 20
 4.24723293570423E+0000
 11
 8.69781809083361E+0000
 21
 4.24723293570423E+0000
  0
LINE
  8
1
  6
CONTINUOUS
 62
     1
 10
 8.64774155546911E+0000
 20
 4.24723293571151E+0000
 11
 8.63891981652705E+0000
 21
 4.25605467463902E+0000
  0
LINE
  8
1
  6
CONTINUOUS
 62
     1
 10
 8.66839575965423E+0000
 20
 4.24723293570423E+0000
 11
 8.64193054287171E+0000
 21
 4.27369815249403E+0000
  0
LINE
  8
1
  6
CONTINUOUS
 62
     1
 10
 8.68904996383935E+0000
 20
 4.24723293570423E+0000
 11
 8.64494126920181E+0000
 21
 4.29134163034905E+0000
  0
LINE
  8
1
  6
CONTINUOUS
 62
     1
 10
 8.69468578834494E+0000
 20
 4.26225131538376E+0000
 11
 8.64795199553191E+0000
 21
 4.30898510820407E+0000
  0
LINE
  8
1
  6
CONTINUOUS
 62
     1
 10
 8.68924284751120E+0000
 20
 4.28834846040991E+0000
 11
 8.65096272186202E+0000
 21
 4.32662858605909E+0000
  0
LINE
  8
1
  6
CONTINUOUS
 62
     1
 10
 8.68379990666290E+0000
 20
 4.31444560544332E+0000
 11
 8.65397344819212E+0000
 21
 4.34427206390683E+0000
  0
LINE
  8
1
  6
CONTINUOUS
 62
     1
 10
 8.67835696581460E+0000
 20
 4.34054275047674E+0000
 11
 8.65698417452222E+0000
 21
 4.36191554176185E+0000
  0
LINE
  8
1
  6
CONTINUOUS
 62
     1
 10
 8.67291402496630E+0000
 20
 4.36663989551016E+0000
 11
 8.65999490085233E+0000
 21
 4.37955901961686E+0000
  0
LINE
  8
1
  6
CONTINUOUS
 62
     1
 10
 8.66747108411801E+0000
 20
 4.39273704054358E+0000
 11
 8.66300562719698E+0000
 21
 4.39720249746460E+0000
  0
LINE
  8
1
  6
CONTINUOUS
 62
     1
 10
 8.69603592048225E+0000
 20
 4.25577786744543E+0000
 11
 8.68749098874105E+0000
 21
 4.24723293570423E+0000
  0
LINE
  8
1
  6
CONTINUOUS
 62
     1
 10
 8.69247157977952E+0000
 20
 4.27286773094238E+0000
 11
 8.66683678455593E+0000
 21
 4.24723293570423E+0000
  0
LINE
  8
1
  6
CONTINUOUS
 62
     1
 10
 8.68890723909135E+0000
 20
 4.28995759443205E+0000
 11
 8.64618258037081E+0000
 21
 4.24723293570423E+0000
  0
LINE
  8
1
  6
CONTINUOUS
 62
     1
 10
 8.68534289840318E+0000
 20
 4.30704745792173E+0000
 11
 8.63986004436447E+0000
 21
 4.26156460389029E+0000
  0
LINE
  8
1
  6
CONTINUOUS
 62
     1
 10
 8.68177855770045E+0000
 20
 4.32413732140412E+0000
 11
 8.64410970010795E+0000
 21
 4.28646846381162E+0000
  0
LINE
  8
1
  6
CONTINUOUS
 62
     1
 10
 8.67821421699773E+0000
 20
 4.34122718489380E+0000
 11
 8.64835935583687E+0000
 21
 4.31137232373294E+0000
  0
LINE
  8
1
  6
CONTINUOUS
 62
     1
 10
 8.67464987630956E+0000
 20
 4.35831704839075E+0000
 11
 8.65260901158035E+0000
 21
 4.33627618365426E+0000
  0
LINE
  8
1
  6
CONTINUOUS
 62
     1
 10
 8.67108553562139E+0000
 20
 4.37540691188042E+0000
 11
 8.65685866730928E+0000
 21
 4.36118004357559E+0000
  0
LINE
  8
1
  6
CONTINUOUS
 62
     1
 10
 8.66752119491866E+0000
 20
 4.39249677537009E+0000
 11
 8.66110832303821E+0000
 21
 4.38608390348236E+0000
  0
LINE
  8
1
  6
CONTINUOUS
 62
     1
 10
 9.00399763195310E+0000
 20
 4.85350381061289E+0000
 11
 9.00399763195310E+0000
 21
 4.85350381061289E+0000
  0
LINE
  8
1
  6
CONTINUOUS
 62
     1
 10
 9.00399763195310E+0000
 20
 4.85350381061289E+0000
 11
 8.97681611058943E+0000
 21
 4.69421448398498E+0000
  0
LINE
  8
1
  6
CONTINUOUS
 62
     1
 10
 8.97681611058943E+0000
 20
 4.69421448398498E+0000
 11
 9.03721974806103E+0000
 21
 4.69421448398498E+0000
  0
LINE
  8
1
  6
CONTINUOUS
 62
     1
 10
 9.03721974806103E+0000
 20
 4.69421448398498E+0000
 11
 9.00399763195310E+0000
 21
 4.85350381061289E+0000
  0
LINE
  8
1
  6
CONTINUOUS
 62
     1
 10
 8.97681611058943E+0000
 20
 4.69421448398498E+0000
 11
 9.03721974806103E+0000
 21
 4.69421448398498E+0000
  0
LINE
  8
1
  6
CONTINUOUS
 62
     1
 10
 8.98714321269654E+0000
 20
 4.69421448399225E+0000
 11
 8.97832147376903E+0000
 21
 4.70303622292704E+0000
  0
LINE
  8
1
  6
CONTINUOUS
 62
     1
 10
 9.00779741688166E+0000
 20
 4.69421448398498E+0000
 11
 8.98133220009913E+0000
 21
 4.72067970077478E+0000
  0
LINE
  8
1
  6
CONTINUOUS
 62
     1
 10
 9.02845162106678E+0000
 20
 4.69421448398498E+0000
 11
 8.98434292642924E+0000
 21
 4.73832317862980E+0000
  0
LINE
  8
1
  6
CONTINUOUS
 62
     1
 10
 9.03408744558692E+0000
 20
 4.70923286366451E+0000
 11
 8.98735365275934E+0000
 21
 4.75596665648482E+0000
  0
LINE
  8
1
  6
CONTINUOUS
 62
     1
 10
 9.02864450473862E+0000
 20
 4.73533000869065E+0000
 11
 8.99036437908944E+0000
 21
 4.77361013433983E+0000
  0
LINE
  8
1
  6
CONTINUOUS
 62
     1
 10
 9.02320156389032E+0000
 20
 4.76142715372407E+0000
 11
 8.99337510541955E+0000
 21
 4.79125361218757E+0000
  0
LINE
  8
1
  6
CONTINUOUS
 62
     1
 10
 9.01775862304203E+0000
 20
 4.78752429875749E+0000
 11
 8.99638583176420E+0000
 21
 4.80889709004259E+0000
  0
LINE
  8
1
  6
CONTINUOUS
 62
     1
 10
 9.01231568219373E+0000
 20
 4.81362144379091E+0000
 11
 8.99939655809430E+0000
 21
 4.82654056789761E+0000
  0
LINE
  8
1
  6
CONTINUOUS
 62
     1
 10
 9.00687274134543E+0000
 20
 4.83971858882433E+0000
 11
 9.00240728442441E+0000
 21
 4.84418404575263E+0000
  0
LINE
  8
1
  6
CONTINUOUS
 62
     1
 10
 9.03543757770967E+0000
 20
 4.70275941573345E+0000
 11
 9.02689264595392E+0000
 21
 4.69421448397770E+0000
  0
LINE
  8
1
  6
CONTINUOUS
 62
     1
 10
 9.03187323702150E+0000
 20
 4.71984927922313E+0000
 11
 9.00623844176880E+0000
 21
 4.69421448397770E+0000
  0
LINE
  8
1
  6
CONTINUOUS
 62
     1
 10
 9.02830889631878E+0000
 20
 4.73693914271280E+0000
 11
 8.98558423758368E+0000
 21
 4.69421448397770E+0000
  0
LINE
  8
1
  6
CONTINUOUS
 62
     1
 10
 9.02474455563060E+0000
 20
 4.75402900620975E+0000
 11
 8.97926170159189E+0000
 21
 4.70854615216376E+0000
  0
LINE
  8
1
  6
CONTINUOUS
 62
     1
 10
 9.02118021492788E+0000
 20
 4.77111886969942E+0000
 11
 8.98351135732082E+0000
 21
 4.73345001208509E+0000
  0
LINE
  8
1
  6
CONTINUOUS
 62
     1
 10
 9.01761587422516E+0000
 20
 4.78820873318182E+0000
 11
 8.98776101304975E+0000
 21
 4.75835387200641E+0000
  0
LINE
  8
1
  6
CONTINUOUS
 62
     1
 10
 9.01405153353699E+0000
 20
 4.80529859667149E+0000
 11
 8.99201066879323E+0000
 21
 4.78325773192773E+0000
  0
LINE
  8
1
  6
CONTINUOUS
 62
     1
 10
 9.01048719284881E+0000
 20
 4.82238846016116E+0000
 11
 8.99626032453671E+0000
 21
 4.80816159185633E+0000
  0
LINE
  8
1
  6
CONTINUOUS
 62
     1
 10
 9.00692285214609E+0000
 20
 4.83947832365084E+0000
 11
 9.00050998028019E+0000
 21
 4.83306545177766E+0000
  0
LINE
  8
1
  6
CONTINUOUS
 62
     1
 10
 6.15963934322644E+0000
 20
 3.49696241450874E+0000
 11
 6.15963934322644E+0000
 21
 3.49696241450874E+0000
  0
LINE
  8
1
  6
CONTINUOUS
 62
     1
 10
 6.15963934322644E+0000
 20
 3.49696241450874E+0000
 11
 6.18682086459012E+0000
 21
 3.65625174113666E+0000
  0
LINE
  8
1
  6
CONTINUOUS
 62
     1
 10
 6.18682086459012E+0000
 20
 3.65625174113666E+0000
 11
 6.12641722711851E+0000
 21
 3.65625174113666E+0000
  0
LINE
  8
1
  6
CONTINUOUS
 62
     1
 10
 6.12641722711851E+0000
 20
 3.65625174113666E+0000
 11
 6.15963934322644E+0000
 21
 3.49696241450874E+0000
  0
LINE
  8
1
  6
CONTINUOUS
 62
     1
 10
 6.18682086459012E+0000
 20
 3.65625174113666E+0000
 11
 6.12641722711851E+0000
 21
 3.65625174113666E+0000
  0
LINE
  8
1
  6
CONTINUOUS
 62
     1
 10
 6.16114470639150E+0000
 20
 3.50578415343625E+0000
 11
 6.15691787280230E+0000
 21
 3.51001098702545E+0000
  0
LINE
  8
1
  6
CONTINUOUS
 62
     1
 10
 6.16415543272888E+0000
 20
 3.52342763128763E+0000
 11
 6.15147493195400E+0000
 21
 3.53610813205887E+0000
  0
LINE
  8
1
  6
CONTINUOUS
 62
     1
 10
 6.16716615905898E+0000
 20
 3.54107110914265E+0000
 11
 6.14603199111298E+0000
 21
 3.56220527708865E+0000
  0
LINE
  8
1
  6
CONTINUOUS
 62
     1
 10
 6.17017688538908E+0000
 20
 3.55871458699403E+0000
 11
 6.14058905026468E+0000
 21
 3.58830242212207E+0000
  0
LINE
  8
1
  6
CONTINUOUS
 62
     1
 10
 6.17318761172646E+0000
 20
 3.57635806484541E+0000
 11
 6.13514610941638E+0000
 21
 3.61439956715549E+0000
  0
LINE
  8
1
  6
CONTINUOUS
 62
     1
 10
 6.17619833805657E+0000
 20
 3.59400154269679E+0000
 11
 6.12970316856808E+0000
 21
 3.64049671218527E+0000
  0
LINE
  8
1
  6
CONTINUOUS
 62
     1
 10
 6.17920906439394E+0000
 20
 3.61164502055180E+0000
 11
 6.13460234380909E+0000
 21
 3.65625174113666E+0000
  0
LINE
  8
1
  6
CONTINUOUS
 62
     1
 10
 6.18221979072405E+0000
 20
 3.62928849840318E+0000
 11
 6.15525654798694E+0000
 21
 3.65625174113666E+0000
  0
LINE
  8
1
  6
CONTINUOUS
 62
     1
 10
 6.18523051705415E+0000
 20
 3.64693197625456E+0000
 11
 6.17591075217206E+0000
 21
 3.65625174114030E+0000
  0
LINE
  8
1
  6
CONTINUOUS
 62
     1
 10
 6.16176417109091E+0000
 20
 3.50941434446941E+0000
 11
 6.15785717287508E+0000
 21
 3.50550734625358E+0000
  0
LINE
  8
1
  6
CONTINUOUS
 62
     1
 10
 6.16601382682711E+0000
 20
 3.53431820438709E+0000
 11
 6.15429283217964E+0000
 21
 3.52259720974325E+0000
  0
LINE
  8
1
  6
CONTINUOUS
 62
     1
 10
 6.17026348256331E+0000
 20
 3.55922206430841E+0000
 11
 6.15072849148419E+0000
 21
 3.53968707323293E+0000
  0
LINE
  8
1
  6
CONTINUOUS
 62
     1
 10
 6.17451313829952E+0000
 20
 3.58412592422974E+0000
 11
 6.14716415078874E+0000
 21
 3.55677693672260E+0000
  0
LINE
  8
1
  6
CONTINUOUS
 62
     1
 10
 6.17876279402844E+0000
 20
 3.60902978414742E+0000
 11
 6.14359981009329E+0000
 21
 3.57386680021591E+0000
  0
LINE
  8
1
  6
CONTINUOUS
 62
     1
 10
 6.18301244976465E+0000
 20
 3.63393364406875E+0000
 11
 6.14003546940512E+0000
 21
 3.59095666370558E+0000
  0
LINE
  8
1
  6
CONTINUOUS
 62
     1
 10
 6.18467634263652E+0000
 20
 3.65625174112938E+0000
 11
 6.13647112870240E+0000
 21
 3.60804652719162E+0000
  0
LINE
  8
1
  6
CONTINUOUS
 62
     1
 10
 6.16402213845140E+0000
 20
 3.65625174112938E+0000
 11
 6.13290678800695E+0000
 21
 3.62513639068493E+0000
  0
LINE
  8
1
  6
CONTINUOUS
 62
     1
 10
 6.14336793427356E+0000
 20
 3.65625174113666E+0000
 11
 6.12934244731878E+0000
 21
 3.64222625417460E+0000
  0
LINE
  8
1
  6
CONTINUOUS
 62
     1
 10
 6.16234061952855E+0000
 20
 4.67337691802095E+0000
 11
 6.16234061952855E+0000
 21
 4.67337691802095E+0000
  0
LINE
  8
1
  6
CONTINUOUS
 62
     1
 10
 6.16234061952855E+0000
 20
 4.67337691802095E+0000
 11
 6.13515909816488E+0000
 21
 4.51408759139304E+0000
  0
LINE
  8
1
  6
CONTINUOUS
 62
     1
 10
 6.13515909816488E+0000
 20
 4.51408759139304E+0000
 11
 6.19556273563649E+0000
 21
 4.51408759139304E+0000
  0
LINE
  8
1
  6
CONTINUOUS
 62
     1
 10
 6.19556273563649E+0000
 20
 4.51408759139304E+0000
 11
 6.16234061952855E+0000
 21
 4.67337691802095E+0000
  0
LINE
  8
1
  6
CONTINUOUS
 62
     1
 10
 6.13515909816488E+0000
 20
 4.51408759139304E+0000
 11
 6.19556273563649E+0000
 21
 4.51408759139304E+0000
  0
LINE
  8
1
  6
CONTINUOUS
 62
     1
 10
 6.14548620025744E+0000
 20
 4.51408759139304E+0000
 11
 6.13666446132993E+0000
 21
 4.52290933032054E+0000
  0
LINE
  8
1
  6
CONTINUOUS
 62
     1
 10
 6.16614040444983E+0000
 20
 4.51408759139304E+0000
 11
 6.13967518766731E+0000
 21
 4.54055280817556E+0000
  0
LINE
  8
1
  6
CONTINUOUS
 62
     1
 10
 6.18679460863495E+0000
 20
 4.51408759139304E+0000
 11
 6.14268591399741E+0000
 21
 4.55819628602330E+0000
  0
LINE
  8
1
  6
CONTINUOUS
 62
     1
 10
 6.19243043315510E+0000
 20
 4.52910597105074E+0000
 11
 6.14569664033479E+0000
 21
 4.57583976387832E+0000
  0
LINE
  8
1
  6
CONTINUOUS
 62
     1
 10
 6.18698749231407E+0000
 20
 4.55520311608416E+0000
 11
 6.14870736666489E+0000
 21
 4.59348324173334E+0000
  0
LINE
  8
1
  6
CONTINUOUS
 62
     1
 10
 6.18154455146578E+0000
 20
 4.58130026111758E+0000
 11
 6.15171809299500E+0000
 21
 4.61112671958108E+0000
  0
LINE
  8
1
  6
CONTINUOUS
 62
     1
 10
 6.17610161061748E+0000
 20
 4.60739740614372E+0000
 11
 6.15472881933238E+0000
 21
 4.62877019743610E+0000
  0
LINE
  8
1
  6
CONTINUOUS
 62
     1
 10
 6.17065866977646E+0000
 20
 4.63349455117714E+0000
 11
 6.15773954566248E+0000
 21
 4.64641367529111E+0000
  0
LINE
  8
1
  6
CONTINUOUS
 62
     1
 10
 6.16521572892816E+0000
 20
 4.65959169621055E+0000
 11
 6.16075027199258E+0000
 21
 4.66405715313886E+0000
  0
LINE
  8
1
  6
CONTINUOUS
 62
     1
 10
 6.19378056528512E+0000
 20
 4.52263252313423E+0000
 11
 6.18523563353665E+0000
 21
 4.51408759139304E+0000
  0
LINE
  8
1
  6
CONTINUOUS
 62
     1
 10
 6.19021622458968E+0000
 20
 4.53972238662391E+0000
 11
 6.16458142935153E+0000
 21
 4.51408759139304E+0000
  0
LINE
  8
1
  6
CONTINUOUS
 62
     1
 10
 6.18665188389423E+0000
 20
 4.55681225011358E+0000
 11
 6.14392722516641E+0000
 21
 4.51408759139304E+0000
  0
LINE
  8
1
  6
CONTINUOUS
 62
     1
 10
 6.18308754319878E+0000
 20
 4.57390211360325E+0000
 11
 6.13760468916735E+0000
 21
 4.52841925957182E+0000
  0
LINE
  8
1
  6
CONTINUOUS
 62
     1
 10
 6.17952320250333E+0000
 20
 4.59099197710020E+0000
 11
 6.14185434490355E+0000
 21
 4.55332311949314E+0000
  0
LINE
  8
1
  6
CONTINUOUS
 62
     1
 10
 6.17595886180789E+0000
 20
 4.60808184058988E+0000
 11
 6.14610400063975E+0000
 21
 4.57822697941447E+0000
  0
LINE
  8
1
  6
CONTINUOUS
 62
     1
 10
 6.17239452111244E+0000
 20
 4.62517170407227E+0000
 11
 6.15035365637596E+0000
 21
 4.60313083933579E+0000
  0
LINE
  8
1
  6
CONTINUOUS
 62
     1
 10
 6.16883018041699E+0000
 20
 4.64226156756922E+0000
 11
 6.15460331210488E+0000
 21
 4.62803469925711E+0000
  0
LINE
  8
1
  6
CONTINUOUS
 62
     1
 10
 6.16526583972882E+0000
 20
 4.65935143105889E+0000
 11
 6.15885296784109E+0000
 21
 4.65293855917844E+0000
  0
LINE
  8
1
  6
CONTINUOUS
 62
     1
 10
 8.08039299228403E+0000
 20
 5.40491383911285E+0000
 11
 8.08039299228403E+0000
 21
 5.40491383911285E+0000
  0
LINE
  8
1
  6
CONTINUOUS
 62
     1
 10
 8.08039299228403E+0000
 20
 5.40491383911285E+0000
 11
 8.23968231893377E+0000
 21
 5.37773231774918E+0000
  0
LINE
  8
1
  6
CONTINUOUS
 62
     1
 10
 8.23968231893377E+0000
 20
 5.37773231774918E+0000
 11
 8.23968231893377E+0000
 21
 5.43813595522079E+0000
  0
LINE
  8
1
  6
CONTINUOUS
 62
     1
 10
 8.23968231893377E+0000
 20
 5.43813595522079E+0000
 11
 8.08039299228403E+0000
 21
 5.40491383911285E+0000
  0
LINE
  8
1
  6
CONTINUOUS
 62
     1
 10
 8.23968231893377E+0000
 20
 5.37773231774918E+0000
 11
 8.23968231893377E+0000
 21
 5.43813595522079E+0000
  0
LINE
  8
1
  6
CONTINUOUS
 62
     1
 10
 8.09284492225561E+0000
 20
 5.40278901124839E+0000
 11
 8.08893792403978E+0000
 21
 5.40669600946421E+0000
  0
LINE
  8
1
  6
CONTINUOUS
 62
     1
 10
 8.11774878218421E+0000
 20
 5.39853935551218E+0000
 11
 8.10602778753673E+0000
 21
 5.41026035015966E+0000
  0
LINE
  8
1
  6
CONTINUOUS
 62
     1
 10
 8.14265264209826E+0000
 20
 5.39428969977598E+0000
 11
 8.12311765103368E+0000
 21
 5.41382469085511E+0000
  0
LINE
  8
1
  6
CONTINUOUS
 62
     1
 10
 8.16755650202686E+0000
 20
 5.39004004404705E+0000
 11
 8.14020751451608E+0000
 21
 5.41738903155056E+0000
  0
LINE
  8
1
  6
CONTINUOUS
 62
     1
 10
 8.19246036194090E+0000
 20
 5.38579038831085E+0000
 11
 8.15729737801303E+0000
 21
 5.42095337224600E+0000
  0
LINE
  8
1
  6
CONTINUOUS
 62
     1
 10
 8.21736422186950E+0000
 20
 5.38154073257465E+0000
 11
 8.17438724149542E+0000
 21
 5.42451771293418E+0000
  0
LINE
  8
1
  6
CONTINUOUS
 62
     1
 10
 8.23968231893377E+0000
 20
 5.37987683968822E+0000
 11
 8.19147710499237E+0000
 21
 5.42808205362962E+0000
  0
LINE
  8
1
  6
CONTINUOUS
 62
     1
 10
 8.23968231893377E+0000
 20
 5.40053104387334E+0000
 11
 8.20856696848932E+0000
 21
 5.43164639432507E+0000
  0
LINE
  8
1
  6
CONTINUOUS
 62
     1
 10
 8.23968231893377E+0000
 20
 5.42118524805846E+0000
 11
 8.22565683197172E+0000
 21
 5.43521073502052E+0000
  0
LINE
  8
1
  6
CONTINUOUS
 62
     1
 10
 8.23968231891922E+0000
 20
 5.38805941983446E+0000
 11
 8.23086057999171E+0000
 21
 5.37923768090695E+0000
  0
LINE
  8
1
  6
CONTINUOUS
 62
     1
 10
 8.23968231891922E+0000
 20
 5.40871362401958E+0000
 11
 8.21321710215125E+0000
 21
 5.38224840724433E+0000
  0
LINE
  8
1
  6
CONTINUOUS
 62
     1
 10
 8.23968231891922E+0000
 20
 5.42936782820470E+0000
 11
 8.19557362429623E+0000
 21
 5.38525913357444E+0000
  0
LINE
  8
1
  6
CONTINUOUS
 62
     1
 10
 8.22466393926879E+0000
 20
 5.43500365273212E+0000
 11
 8.17793014644121E+0000
 21
 5.38826985990454E+0000
  0
LINE
  8
1
  6
CONTINUOUS
 62
     1
 10
 8.19856679423538E+0000
 20
 5.42956071189110E+0000
 11
 8.16028666858620E+0000
 21
 5.39128058623464E+0000
  0
LINE
  8
1
  6
CONTINUOUS
 62
     1
 10
 8.17246964920196E+0000
 20
 5.42411777105008E+0000
 11
 8.14264319073118E+0000
 21
 5.39429131257202E+0000
  0
LINE
  8
1
  6
CONTINUOUS
 62
     1
 10
 8.14637250416854E+0000
 20
 5.41867483019450E+0000
 11
 8.12499971287616E+0000
 21
 5.39730203890213E+0000
  0
LINE
  8
1
  6
CONTINUOUS
 62
     1
 10
 8.12027535913512E+0000
 20
 5.41323188935348E+0000
 11
 8.10735623502114E+0000
 21
 5.40031276523223E+0000
  0
LINE
  8
1
  6
CONTINUOUS
 62
     1
 10
 8.09417821411625E+0000
 20
 5.40778894850519E+0000
 11
 8.08971275716613E+0000
 21
 5.40332349156233E+0000
  0
LINE
  8
1
  6
CONTINUOUS
 62
     1
 10
 8.08039299228403E+0000
 20
 5.40491383911285E+0000
 11
 8.08039299228403E+0000
 21
 5.40491383911285E+0000
  0
LINE
  8
1
  6
CONTINUOUS
 62
     1
 10
 8.08039299228403E+0000
 20
 5.40491383911285E+0000
 11
 8.23968231893377E+0000
 21
 5.37773231774918E+0000
  0
LINE
  8
1
  6
CONTINUOUS
 62
     1
 10
 8.23968231893377E+0000
 20
 5.37773231774918E+0000
 11
 8.23968231893377E+0000
 21
 5.43813595522079E+0000
  0
LINE
  8
1
  6
CONTINUOUS
 62
     1
 10
 8.23968231893377E+0000
 20
 5.43813595522079E+0000
 11
 8.08039299228403E+0000
 21
 5.40491383911285E+0000
  0
LINE
  8
1
  6
CONTINUOUS
 62
     1
 10
 8.23968231893377E+0000
 20
 5.37773231774918E+0000
 11
 8.23968231893377E+0000
 21
 5.43813595522079E+0000
  0
LINE
  8
1
  6
CONTINUOUS
 62
     1
 10
 8.09284492225561E+0000
 20
 5.40278901124839E+0000
 11
 8.08893792403978E+0000
 21
 5.40669600946421E+0000
  0
LINE
  8
1
  6
CONTINUOUS
 62
     1
 10
 8.11774878218421E+0000
 20
 5.39853935551218E+0000
 11
 8.10602778753673E+0000
 21
 5.41026035015966E+0000
  0
LINE
  8
1
  6
CONTINUOUS
 62
     1
 10
 8.14265264209826E+0000
 20
 5.39428969977598E+0000
 11
 8.12311765103368E+0000
 21
 5.41382469085511E+0000
  0
LINE
  8
1
  6
CONTINUOUS
 62
     1
 10
 8.16755650202686E+0000
 20
 5.39004004404705E+0000
 11
 8.14020751451608E+0000
 21
 5.41738903155056E+0000
  0
LINE
  8
1
  6
CONTINUOUS
 62
     1
 10
 8.19246036194090E+0000
 20
 5.38579038831085E+0000
 11
 8.15729737801303E+0000
 21
 5.42095337224600E+0000
  0
LINE
  8
1
  6
CONTINUOUS
 62
     1
 10
 8.21736422186950E+0000
 20
 5.38154073257465E+0000
 11
 8.17438724149542E+0000
 21
 5.42451771293418E+0000
  0
LINE
  8
1
  6
CONTINUOUS
 62
     1
 10
 8.23968231893377E+0000
 20
 5.37987683968822E+0000
 11
 8.19147710499237E+0000
 21
 5.42808205362962E+0000
  0
LINE
  8
1
  6
CONTINUOUS
 62
     1
 10
 8.23968231893377E+0000
 20
 5.40053104387334E+0000
 11
 8.20856696848932E+0000
 21
 5.43164639432507E+0000
  0
LINE
  8
1
  6
CONTINUOUS
 62
     1
 10
 8.23968231893377E+0000
 20
 5.42118524805846E+0000
 11
 8.22565683197172E+0000
 21
 5.43521073502052E+0000
  0
LINE
  8
1
  6
CONTINUOUS
 62
     1
 10
 8.23968231891922E+0000
 20
 5.38805941983446E+0000
 11
 8.23086057999171E+0000
 21
 5.37923768090695E+0000
  0
LINE
  8
1
  6
CONTINUOUS
 62
     1
 10
 8.23968231891922E+0000
 20
 5.40871362401958E+0000
 11
 8.21321710215125E+0000
 21
 5.38224840724433E+0000
  0
LINE
  8
1
  6
CONTINUOUS
 62
     1
 10
 8.23968231891922E+0000
 20
 5.42936782820470E+0000
 11
 8.19557362429623E+0000
 21
 5.38525913357444E+0000
  0
LINE
  8
1
  6
CONTINUOUS
 62
     1
 10
 8.22466393926879E+0000
 20
 5.43500365273212E+0000
 11
 8.17793014644121E+0000
 21
 5.38826985990454E+0000
  0
LINE
  8
1
  6
CONTINUOUS
 62
     1
 10
 8.19856679423538E+0000
 20
 5.42956071189110E+0000
 11
 8.16028666858620E+0000
 21
 5.39128058623464E+0000
  0
LINE
  8
1
  6
CONTINUOUS
 62
     1
 10
 8.17246964920196E+0000
 20
 5.42411777105008E+0000
 11
 8.14264319073118E+0000
 21
 5.39429131257202E+0000
  0
LINE
  8
1
  6
CONTINUOUS
 62
     1
 10
 8.14637250416854E+0000
 20
 5.41867483019450E+0000
 11
 8.12499971287616E+0000
 21
 5.39730203890213E+0000
  0
LINE
  8
1
  6
CONTINUOUS
 62
     1
 10
 8.12027535913512E+0000
 20
 5.41323188935348E+0000
 11
 8.10735623502114E+0000
 21
 5.40031276523223E+0000
  0
LINE
  8
1
  6
CONTINUOUS
 62
     1
 10
 8.09417821411625E+0000
 20
 5.40778894850519E+0000
 11
 8.08971275716613E+0000
 21
 5.40332349156233E+0000
  0
LINE
  8
1
  6
CONTINUOUS
 62
     1
 10
 7.86838940409507E+0000
 20
 5.40593673630065E+0000
 11
 7.86838940409507E+0000
 21
 5.40593673630065E+0000
  0
LINE
  8
1
  6
CONTINUOUS
 62
     1
 10
 7.86838940409507E+0000
 20
 5.40593673630065E+0000
 11
 7.70910007745988E+0000
 21
 5.43311825766432E+0000
  0
LINE
  8
1
  6
CONTINUOUS
 62
     1
 10
 7.70910007745988E+0000
 20
 5.43311825766432E+0000
 11
 7.70910007745988E+0000
 21
 5.37271462019271E+0000
  0
LINE
  8
1
  6
CONTINUOUS
 62
     1
 10
 7.70910007745988E+0000
 20
 5.37271462019271E+0000
 11
 7.86838940409507E+0000
 21
 5.40593673630065E+0000
  0
LINE
  8
1
  6
CONTINUOUS
 62
     1
 10
 7.70910007745988E+0000
 20
 5.43311825766432E+0000
 11
 7.70910007745988E+0000
 21
 5.37271462019271E+0000
  0
LINE
  8
1
  6
CONTINUOUS
 62
     1
 10
 7.71764500921563E+0000
 20
 5.37449679054407E+0000
 11
 7.70910007745988E+0000
 21
 5.38304172229982E+0000
  0
LINE
  8
1
  6
CONTINUOUS
 62
     1
 10
 7.73473487270530E+0000
 20
 5.37806113123952E+0000
 11
 7.70910007745988E+0000
 21
 5.40369592648494E+0000
  0
LINE
  8
1
  6
CONTINUOUS
 62
     1
 10
 7.75182473619498E+0000
 20
 5.38162547193497E+0000
 11
 7.70910007745988E+0000
 21
 5.42435013067006E+0000
  0
LINE
  8
1
  6
CONTINUOUS
 62
     1
 10
 7.76891459968465E+0000
 20
 5.38518981263041E+0000
 11
 7.72343174566049E+0000
 21
 5.43067266665457E+0000
  0
LINE
  8
1
  6
CONTINUOUS
 62
     1
 10
 7.78600446318160E+0000
 20
 5.38875415332586E+0000
 11
 7.74833560558181E+0000
 21
 5.42642301091837E+0000
  0
LINE
  8
1
  6
CONTINUOUS
 62
     1
 10
 7.80309432667127E+0000
 20
 5.39231849402131E+0000
 11
 7.77323946550314E+0000
 21
 5.42217335518217E+0000
  0
LINE
  8
1
  6
CONTINUOUS
 62
     1
 10
 7.82018419016094E+0000
 20
 5.39588283471676E+0000
 11
 7.79814332542446E+0000
 21
 5.41792369945324E+0000
  0
LINE
  8
1
  6
CONTINUOUS
 62
     1
 10
 7.83727405365062E+0000
 20
 5.39944717541221E+0000
 11
 7.82304718533851E+0000
 21
 5.41367404371704E+0000
  0
LINE
  8
1
  6
CONTINUOUS
 62
     1
 10
 7.85436391714029E+0000
 20
 5.40301151610038E+0000
 11
 7.84795104525983E+0000
 21
 5.40942438798083E+0000
  0
LINE
  8
1
  6
CONTINUOUS
 62
     1
 10
 7.85956766516028E+0000
 20
 5.40744209946570E+0000
 11
 7.85534083156381E+0000
 21
 5.40321526586195E+0000
  0
LINE
  8
1
  6
CONTINUOUS
 62
     1
 10
 7.84192418730527E+0000
 20
 5.41045282579580E+0000
 11
 7.82924368653767E+0000
 21
 5.39777232502092E+0000
  0
LINE
  8
1
  6
CONTINUOUS
 62
     1
 10
 7.82428070945753E+0000
 20
 5.41346355212590E+0000
 11
 7.80314654150425E+0000
 21
 5.39232938417990E+0000
  0
LINE
  8
1
  6
CONTINUOUS
 62
     1
 10
 7.80663723160251E+0000
 20
 5.41647427845601E+0000
 11
 7.77704939647811E+0000
 21
 5.38688644333160E+0000
  0
LINE
  8
1
  6
CONTINUOUS
 62
     1
 10
 7.78899375374749E+0000
 20
 5.41948500479339E+0000
 11
 7.75095225145196E+0000
 21
 5.38144350249058E+0000
  0
LINE
  8
1
  6
CONTINUOUS
 62
     1
 10
 7.77135027589247E+0000
 20
 5.42249573112349E+0000
 11
 7.72485510641854E+0000
 21
 5.37600056164956E+0000
  0
LINE
  8
1
  6
CONTINUOUS
 62
     1
 10
 7.75370679803746E+0000
 20
 5.42550645745359E+0000
 11
 7.70910007745260E+0000
 21
 5.38089973686874E+0000
  0
LINE
  8
1
  6
CONTINUOUS
 62
     1
 10
 7.73606332018971E+0000
 20
 5.42851718378370E+0000
 11
 7.70910007745260E+0000
 21
 5.40155394105386E+0000
  0
LINE
  8
1
  6
CONTINUOUS
 62
     1
 10
 7.71841984234197E+0000
 20
 5.43152791012835E+0000
 11
 7.70910007745260E+0000
 21
 5.42220814523898E+0000
  0
LINE
  8
1
  6
CONTINUOUS
 62
     1
 10
 7.86838940409507E+0000
 20
 5.40593673630065E+0000
 11
 7.86838940409507E+0000
 21
 5.40593673630065E+0000
  0
LINE
  8
1
  6
CONTINUOUS
 62
     1
 10
 7.86838940409507E+0000
 20
 5.40593673630065E+0000
 11
 7.70910007745988E+0000
 21
 5.43311825766432E+0000
  0
LINE
  8
1
  6
CONTINUOUS
 62
     1
 10
 7.70910007745988E+0000
 20
 5.43311825766432E+0000
 11
 7.70910007745988E+0000
 21
 5.37271462019271E+0000
  0
LINE
  8
1
  6
CONTINUOUS
 62
     1
 10
 7.70910007745988E+0000
 20
 5.37271462019271E+0000
 11
 7.86838940409507E+0000
 21
 5.40593673630065E+0000
  0
LINE
  8
1
  6
CONTINUOUS
 62
     1
 10
 7.70910007745988E+0000
 20
 5.43311825766432E+0000
 11
 7.70910007745988E+0000
 21
 5.37271462019271E+0000
  0
LINE
  8
1
  6
CONTINUOUS
 62
     1
 10
 7.71764500921563E+0000
 20
 5.37449679054407E+0000
 11
 7.70910007745988E+0000
 21
 5.38304172229982E+0000
  0
LINE
  8
1
  6
CONTINUOUS
 62
     1
 10
 7.73473487270530E+0000
 20
 5.37806113123952E+0000
 11
 7.70910007745988E+0000
 21
 5.40369592648494E+0000
  0
LINE
  8
1
  6
CONTINUOUS
 62
     1
 10
 7.75182473619498E+0000
 20
 5.38162547193497E+0000
 11
 7.70910007745988E+0000
 21
 5.42435013067006E+0000
  0
LINE
  8
1
  6
CONTINUOUS
 62
     1
 10
 7.76891459968465E+0000
 20
 5.38518981263041E+0000
 11
 7.72343174566049E+0000
 21
 5.43067266665457E+0000
  0
LINE
  8
1
  6
CONTINUOUS
 62
     1
 10
 7.78600446318160E+0000
 20
 5.38875415332586E+0000
 11
 7.74833560558181E+0000
 21
 5.42642301091837E+0000
  0
LINE
  8
1
  6
CONTINUOUS
 62
     1
 10
 7.80309432667127E+0000
 20
 5.39231849402131E+0000
 11
 7.77323946550314E+0000
 21
 5.42217335518217E+0000
  0
LINE
  8
1
  6
CONTINUOUS
 62
     1
 10
 7.82018419016094E+0000
 20
 5.39588283471676E+0000
 11
 7.79814332542446E+0000
 21
 5.41792369945324E+0000
  0
LINE
  8
1
  6
CONTINUOUS
 62
     1
 10
 7.83727405365062E+0000
 20
 5.39944717541221E+0000
 11
 7.82304718533851E+0000
 21
 5.41367404371704E+0000
  0
LINE
  8
1
  6
CONTINUOUS
 62
     1
 10
 7.85436391714029E+0000
 20
 5.40301151610038E+0000
 11
 7.84795104525983E+0000
 21
 5.40942438798083E+0000
  0
LINE
  8
1
  6
CONTINUOUS
 62
     1
 10
 7.85956766516028E+0000
 20
 5.40744209946570E+0000
 11
 7.85534083156381E+0000
 21
 5.40321526586195E+0000
  0
LINE
  8
1
  6
CONTINUOUS
 62
     1
 10
 7.84192418730527E+0000
 20
 5.41045282579580E+0000
 11
 7.82924368653767E+0000
 21
 5.39777232502092E+0000
  0
LINE
  8
1
  6
CONTINUOUS
 62
     1
 10
 7.82428070945753E+0000
 20
 5.41346355212590E+0000
 11
 7.80314654150425E+0000
 21
 5.39232938417990E+0000
  0
LINE
  8
1
  6
CONTINUOUS
 62
     1
 10
 7.80663723160251E+0000
 20
 5.41647427845601E+0000
 11
 7.77704939647811E+0000
 21
 5.38688644333160E+0000
  0
LINE
  8
1
  6
CONTINUOUS
 62
     1
 10
 7.78899375374749E+0000
 20
 5.41948500479339E+0000
 11
 7.75095225145196E+0000
 21
 5.38144350249058E+0000
  0
LINE
  8
1
  6
CONTINUOUS
 62
     1
 10
 7.77135027589247E+0000
 20
 5.42249573112349E+0000
 11
 7.72485510641854E+0000
 21
 5.37600056164956E+0000
  0
LINE
  8
1
  6
CONTINUOUS
 62
     1
 10
 7.75370679803746E+0000
 20
 5.42550645745359E+0000
 11
 7.70910007745260E+0000
 21
 5.38089973686874E+0000
  0
LINE
  8
1
  6
CONTINUOUS
 62
     1
 10
 7.73606332018971E+0000
 20
 5.42851718378370E+0000
 11
 7.70910007745260E+0000
 21
 5.40155394105386E+0000
  0
LINE
  8
1
  6
CONTINUOUS
 62
     1
 10
 7.71841984234197E+0000
 20
 5.43152791012835E+0000
 11
 7.70910007745260E+0000
 21
 5.42220814523898E+0000
  0
LINE
  8
1
  6
CONTINUOUS
 62
     1
 10
 8.06803743775527E+0000
 20
 2.65733378269215E+0000
 11
 8.06803743775527E+0000
 21
 2.65733378269215E+0000
  0
LINE
  8
1
  6
CONTINUOUS
 62
     1
 10
 8.06803743775527E+0000
 20
 2.65733378269215E+0000
 11
 7.90874811112008E+0000
 21
 2.68451530405582E+0000
  0
LINE
  8
1
  6
CONTINUOUS
 62
     1
 10
 7.90874811112008E+0000
 20
 2.68451530405582E+0000
 11
 7.90874811112008E+0000
 21
 2.62411166658421E+0000
  0
LINE
  8
1
  6
CONTINUOUS
 62
     1
 10
 7.90874811112008E+0000
 20
 2.62411166658421E+0000
 11
 8.06803743775527E+0000
 21
 2.65733378269215E+0000
  0
LINE
  8
1
  6
CONTINUOUS
 62
     1
 10
 7.90874811112008E+0000
 20
 2.68451530405582E+0000
 11
 7.90874811112008E+0000
 21
 2.62411166658421E+0000
  0
LINE
  8
1
  6
CONTINUOUS
 62
     1
 10
 7.91729304286855E+0000
 20
 2.62589383693194E+0000
 11
 7.90874811112008E+0000
 21
 2.63443876867677E+0000
  0
LINE
  8
1
  6
CONTINUOUS
 62
     1
 10
 7.93438290635822E+0000
 20
 2.62945817762738E+0000
 11
 7.90874811112735E+0000
 21
 2.65509297285826E+0000
  0
LINE
  8
1
  6
CONTINUOUS
 62
     1
 10
 7.95147276984790E+0000
 20
 2.63302251831919E+0000
 11
 7.90874811112735E+0000
 21
 2.67574717704338E+0000
  0
LINE
  8
1
  6
CONTINUOUS
 62
     1
 10
 7.96856263333757E+0000
 20
 2.63658685901464E+0000
 11
 7.92307977929886E+0000
 21
 2.68206971305335E+0000
  0
LINE
  8
1
  6
CONTINUOUS
 62
     1
 10
 7.98565249682724E+0000
 20
 2.64015119971009E+0000
 11
 7.94798363922018E+0000
 21
 2.67782005731715E+0000
  0
LINE
  8
1
  6
CONTINUOUS
 62
     1
 10
 8.00274236031692E+0000
 20
 2.64371554040554E+0000
 11
 7.97288749914151E+0000
 21
 2.67357040158095E+0000
  0
LINE
  8
1
  6
CONTINUOUS
 62
     1
 10
 8.01983222381386E+0000
 20
 2.64727988110099E+0000
 11
 7.99779135906283E+0000
 21
 2.66932074584474E+0000
  0
LINE
  8
1
  6
CONTINUOUS
 62
     1
 10
 8.03692208729626E+0000
 20
 2.65084422179280E+0000
 11
 8.02269521898415E+0000
 21
 2.66507109010854E+0000
  0
LINE
  8
1
  6
CONTINUOUS
 62
     1
 10
 8.05401195079321E+0000
 20
 2.65440856249188E+0000
 11
 8.04759907891275E+0000
 21
 2.66082143437234E+0000
  0
LINE
  8
1
  6
CONTINUOUS
 62
     1
 10
 8.05921569882776E+0000
 20
 2.65883914585720E+0000
 11
 8.05498886523128E+0000
 21
 2.65461231226800E+0000
  0
LINE
  8
1
  6
CONTINUOUS
 62
     1
 10
 8.04157222097274E+0000
 20
 2.66184987218730E+0000
 11
 8.02889172019786E+0000
 21
 2.64916937141970E+0000
  0
LINE
  8
1
  6
CONTINUOUS
 62
     1
 10
 8.02392874311772E+0000
 20
 2.66486059852105E+0000
 11
 8.00279457516444E+0000
 21
 2.64372643057141E+0000
  0
LINE
  8
1
  6
CONTINUOUS
 62
     1
 10
 8.00628526526270E+0000
 20
 2.66787132485115E+0000
 11
 7.97669743013830E+0000
 21
 2.63828348973038E+0000
  0
LINE
  8
1
  6
CONTINUOUS
 62
     1
 10
 7.98864178740769E+0000
 20
 2.67088205118489E+0000
 11
 7.95060028510488E+0000
 21
 2.63284054888209E+0000
  0
LINE
  8
1
  6
CONTINUOUS
 62
     1
 10
 7.97099830955995E+0000
 20
 2.67389277751499E+0000
 11
 7.92450314007874E+0000
 21
 2.62739760803743E+0000
  0
LINE
  8
1
  6
CONTINUOUS
 62
     1
 10
 7.95335483170493E+0000
 20
 2.67690350384873E+0000
 11
 7.90874811111280E+0000
 21
 2.63229678325661E+0000
  0
LINE
  8
1
  6
CONTINUOUS
 62
     1
 10
 7.93571135384991E+0000
 20
 2.67991423017884E+0000
 11
 7.90874811111280E+0000
 21
 2.65295098744173E+0000
  0
LINE
  8
1
  6
CONTINUOUS
 62
     1
 10
 7.91806787599489E+0000
 20
 2.68292495651258E+0000
 11
 7.90874811111280E+0000
 21
 2.67360519163049E+0000
  0
LINE
  8
1
  6
CONTINUOUS
 62
     1
 10
 8.06803743775527E+0000
 20
 2.65733378269215E+0000
 11
 8.06803743775527E+0000
 21
 2.65733378269215E+0000
  0
LINE
  8
1
  6
CONTINUOUS
 62
     1
 10
 8.06803743775527E+0000
 20
 2.65733378269215E+0000
 11
 7.90874811112008E+0000
 21
 2.68451530405582E+0000
  0
LINE
  8
1
  6
CONTINUOUS
 62
     1
 10
 7.90874811112008E+0000
 20
 2.68451530405582E+0000
 11
 7.90874811112008E+0000
 21
 2.62411166658421E+0000
  0
LINE
  8
1
  6
CONTINUOUS
 62
     1
 10
 7.90874811112008E+0000
 20
 2.62411166658421E+0000
 11
 8.06803743775527E+0000
 21
 2.65733378269215E+0000
  0
LINE
  8
1
  6
CONTINUOUS
 62
     1
 10
 7.90874811112008E+0000
 20
 2.68451530405582E+0000
 11
 7.90874811112008E+0000
 21
 2.62411166658421E+0000
  0
LINE
  8
1
  6
CONTINUOUS
 62
     1
 10
 7.91729304286855E+0000
 20
 2.62589383693194E+0000
 11
 7.90874811112008E+0000
 21
 2.63443876867677E+0000
  0
LINE
  8
1
  6
CONTINUOUS
 62
     1
 10
 7.93438290635822E+0000
 20
 2.62945817762738E+0000
 11
 7.90874811112735E+0000
 21
 2.65509297285826E+0000
  0
LINE
  8
1
  6
CONTINUOUS
 62
     1
 10
 7.95147276984790E+0000
 20
 2.63302251831919E+0000
 11
 7.90874811112735E+0000
 21
 2.67574717704338E+0000
  0
LINE
  8
1
  6
CONTINUOUS
 62
     1
 10
 7.96856263333757E+0000
 20
 2.63658685901464E+0000
 11
 7.92307977929886E+0000
 21
 2.68206971305335E+0000
  0
LINE
  8
1
  6
CONTINUOUS
 62
     1
 10
 7.98565249682724E+0000
 20
 2.64015119971009E+0000
 11
 7.94798363922018E+0000
 21
 2.67782005731715E+0000
  0
LINE
  8
1
  6
CONTINUOUS
 62
     1
 10
 8.00274236031692E+0000
 20
 2.64371554040554E+0000
 11
 7.97288749914151E+0000
 21
 2.67357040158095E+0000
  0
LINE
  8
1
  6
CONTINUOUS
 62
     1
 10
 8.01983222381386E+0000
 20
 2.64727988110099E+0000
 11
 7.99779135906283E+0000
 21
 2.66932074584474E+0000
  0
LINE
  8
1
  6
CONTINUOUS
 62
     1
 10
 8.03692208729626E+0000
 20
 2.65084422179280E+0000
 11
 8.02269521898415E+0000
 21
 2.66507109010854E+0000
  0
LINE
  8
1
  6
CONTINUOUS
 62
     1
 10
 8.05401195079321E+0000
 20
 2.65440856249188E+0000
 11
 8.04759907891275E+0000
 21
 2.66082143437234E+0000
  0
LINE
  8
1
  6
CONTINUOUS
 62
     1
 10
 8.05921569882776E+0000
 20
 2.65883914585720E+0000
 11
 8.05498886523128E+0000
 21
 2.65461231226800E+0000
  0
LINE
  8
1
  6
CONTINUOUS
 62
     1
 10
 8.04157222097274E+0000
 20
 2.66184987218730E+0000
 11
 8.02889172019786E+0000
 21
 2.64916937141970E+0000
  0
LINE
  8
1
  6
CONTINUOUS
 62
     1
 10
 8.02392874311772E+0000
 20
 2.66486059852105E+0000
 11
 8.00279457516444E+0000
 21
 2.64372643057141E+0000
  0
LINE
  8
1
  6
CONTINUOUS
 62
     1
 10
 8.00628526526270E+0000
 20
 2.66787132485115E+0000
 11
 7.97669743013830E+0000
 21
 2.63828348973038E+0000
  0
LINE
  8
1
  6
CONTINUOUS
 62
     1
 10
 7.98864178740769E+0000
 20
 2.67088205118489E+0000
 11
 7.95060028510488E+0000
 21
 2.63284054888209E+0000
  0
LINE
  8
1
  6
CONTINUOUS
 62
     1
 10
 7.97099830955995E+0000
 20
 2.67389277751499E+0000
 11
 7.92450314007874E+0000
 21
 2.62739760803743E+0000
  0
LINE
  8
1
  6
CONTINUOUS
 62
     1
 10
 7.95335483170493E+0000
 20
 2.67690350384873E+0000
 11
 7.90874811111280E+0000
 21
 2.63229678325661E+0000
  0
LINE
  8
1
  6
CONTINUOUS
 62
     1
 10
 7.93571135384991E+0000
 20
 2.67991423017884E+0000
 11
 7.90874811111280E+0000
 21
 2.65295098744173E+0000
  0
LINE
  8
1
  6
CONTINUOUS
 62
     1
 10
 7.91806787599489E+0000
 20
 2.68292495651258E+0000
 11
 7.90874811111280E+0000
 21
 2.67360519163049E+0000
  0
LINE
  8
1
  6
CONTINUOUS
 62
     1
 10
 8.07469237221812E+0000
 20
 2.39715049339429E+0000
 11
 8.07469237221812E+0000
 21
 2.39715049339429E+0000
  0
LINE
  8
1
  6
CONTINUOUS
 62
     1
 10
 8.07469237221812E+0000
 20
 2.39715049339429E+0000
 11
 7.91540304558293E+0000
 21
 2.42433201475797E+0000
  0
LINE
  8
1
  6
CONTINUOUS
 62
     1
 10
 7.91540304558293E+0000
 20
 2.42433201475797E+0000
 11
 7.91540304558293E+0000
 21
 2.36392837728636E+0000
  0
LINE
  8
1
  6
CONTINUOUS
 62
     1
 10
 7.91540304558293E+0000
 20
 2.36392837728636E+0000
 11
 8.07469237221812E+0000
 21
 2.39715049339429E+0000
  0
LINE
  8
1
  6
CONTINUOUS
 62
     1
 10
 7.91540304558293E+0000
 20
 2.42433201475797E+0000
 11
 7.91540304558293E+0000
 21
 2.36392837728636E+0000
  0
LINE
  8
1
  6
CONTINUOUS
 62
     1
 10
 7.92394797733141E+0000
 20
 2.36571054763772E+0000
 11
 7.91540304558293E+0000
 21
 2.37425547938255E+0000
  0
LINE
  8
1
  6
CONTINUOUS
 62
     1
 10
 7.94103784082108E+0000
 20
 2.36927488832953E+0000
 11
 7.91540304558293E+0000
 21
 2.39490968357131E+0000
  0
LINE
  8
1
  6
CONTINUOUS
 62
     1
 10
 7.95812770431075E+0000
 20
 2.37283922902498E+0000
 11
 7.91540304558293E+0000
 21
 2.41556388775643E+0000
  0
LINE
  8
1
  6
CONTINUOUS
 62
     1
 10
 7.97521756780770E+0000
 20
 2.37640356972042E+0000
 11
 7.92973471377627E+0000
 21
 2.42188642374822E+0000
  0
LINE
  8
1
  6
CONTINUOUS
 62
     1
 10
 7.99230743129738E+0000
 20
 2.37996791041223E+0000
 11
 7.95463857369759E+0000
 21
 2.41763676801565E+0000
  0
LINE
  8
1
  6
CONTINUOUS
 62
     1
 10
 8.00939729477977E+0000
 20
 2.38353225111132E+0000
 11
 7.97954243361892E+0000
 21
 2.41338711227945E+0000
  0
LINE
  8
1
  6
CONTINUOUS
 62
     1
 10
 8.02648715827672E+0000
 20
 2.38709659180313E+0000
 11
 8.00444629353296E+0000
 21
 2.40913745654325E+0000
  0
LINE
  8
1
  6
CONTINUOUS
 62
     1
 10
 8.04357702177367E+0000
 20
 2.39066093249858E+0000
 11
 8.02935015346156E+0000
 21
 2.40488780080705E+0000
  0
LINE
  8
1
  6
CONTINUOUS
 62
     1
 10
 8.06066688525607E+0000
 20
 2.39422527319039E+0000
 11
 8.05425401337561E+0000
 21
 2.40063814507084E+0000
  0
LINE
  8
1
  6
CONTINUOUS
 62
     1
 10
 8.06587063329061E+0000
 20
 2.39865585655934E+0000
 11
 8.06164379969414E+0000
 21
 2.39442902297014E+0000
  0
LINE
  8
1
  6
CONTINUOUS
 62
     1
 10
 8.04822715543560E+0000
 20
 2.40166658288945E+0000
 11
 8.03554665466072E+0000
 21
 2.38898608212185E+0000
  0
LINE
  8
1
  6
CONTINUOUS
 62
     1
 10
 8.03058367758058E+0000
 20
 2.40467730922319E+0000
 11
 8.00944950962730E+0000
 21
 2.38354314127355E+0000
  0
LINE
  8
1
  6
CONTINUOUS
 62
     1
 10
 8.01294019972556E+0000
 20
 2.40768803555693E+0000
 11
 7.98335236460116E+0000
 21
 2.37810020042889E+0000
  0
LINE
  8
1
  6
CONTINUOUS
 62
     1
 10
 7.99529672187782E+0000
 20
 2.41069876189067E+0000
 11
 7.95725521956774E+0000
 21
 2.37265725958059E+0000
  0
LINE
  8
1
  6
CONTINUOUS
 62
     1
 10
 7.97765324402280E+0000
 20
 2.41370948822077E+0000
 11
 7.93115807453432E+0000
 21
 2.36721431873957E+0000
  0
LINE
  8
1
  6
CONTINUOUS
 62
     1
 10
 7.96000976616779E+0000
 20
 2.41672021455452E+0000
 11
 7.91540304557566E+0000
 21
 2.37211349395875E+0000
  0
LINE
  8
1
  6
CONTINUOUS
 62
     1
 10
 7.94236628831277E+0000
 20
 2.41973094088462E+0000
 11
 7.91540304557566E+0000
 21
 2.39276769814387E+0000
  0
LINE
  8
1
  6
CONTINUOUS
 62
     1
 10
 7.92472281045775E+0000
 20
 2.42274166721836E+0000
 11
 7.91540304557566E+0000
 21
 2.41342190232899E+0000
  0
LINE
  8
1
  6
CONTINUOUS
 62
     1
 10
 8.07469237221812E+0000
 20
 2.39715049339429E+0000
 11
 8.07469237221812E+0000
 21
 2.39715049339429E+0000
  0
LINE
  8
1
  6
CONTINUOUS
 62
     1
 10
 8.07469237221812E+0000
 20
 2.39715049339429E+0000
 11
 7.91540304558293E+0000
 21
 2.42433201475797E+0000
  0
LINE
  8
1
  6
CONTINUOUS
 62
     1
 10
 7.91540304558293E+0000
 20
 2.42433201475797E+0000
 11
 7.91540304558293E+0000
 21
 2.36392837728636E+0000
  0
LINE
  8
1
  6
CONTINUOUS
 62
     1
 10
 7.91540304558293E+0000
 20
 2.36392837728636E+0000
 11
 8.07469237221812E+0000
 21
 2.39715049339429E+0000
  0
LINE
  8
1
  6
CONTINUOUS
 62
     1
 10
 7.91540304558293E+0000
 20
 2.42433201475797E+0000
 11
 7.91540304558293E+0000
 21
 2.36392837728636E+0000
  0
LINE
  8
1
  6
CONTINUOUS
 62
     1
 10
 7.92394797733141E+0000
 20
 2.36571054763772E+0000
 11
 7.91540304558293E+0000
 21
 2.37425547938255E+0000
  0
LINE
  8
1
  6
CONTINUOUS
 62
     1
 10
 7.94103784082108E+0000
 20
 2.36927488832953E+0000
 11
 7.91540304558293E+0000
 21
 2.39490968357131E+0000
  0
LINE
  8
1
  6
CONTINUOUS
 62
     1
 10
 7.95812770431075E+0000
 20
 2.37283922902498E+0000
 11
 7.91540304558293E+0000
 21
 2.41556388775643E+0000
  0
LINE
  8
1
  6
CONTINUOUS
 62
     1
 10
 7.97521756780770E+0000
 20
 2.37640356972042E+0000
 11
 7.92973471377627E+0000
 21
 2.42188642374822E+0000
  0
LINE
  8
1
  6
CONTINUOUS
 62
     1
 10
 7.99230743129738E+0000
 20
 2.37996791041223E+0000
 11
 7.95463857369759E+0000
 21
 2.41763676801565E+0000
  0
LINE
  8
1
  6
CONTINUOUS
 62
     1
 10
 8.00939729477977E+0000
 20
 2.38353225111132E+0000
 11
 7.97954243361892E+0000
 21
 2.41338711227945E+0000
  0
LINE
  8
1
  6
CONTINUOUS
 62
     1
 10
 8.02648715827672E+0000
 20
 2.38709659180313E+0000
 11
 8.00444629353296E+0000
 21
 2.40913745654325E+0000
  0
LINE
  8
1
  6
CONTINUOUS
 62
     1
 10
 8.04357702177367E+0000
 20
 2.39066093249858E+0000
 11
 8.02935015346156E+0000
 21
 2.40488780080705E+0000
  0
LINE
  8
1
  6
CONTINUOUS
 62
     1
 10
 8.06066688525607E+0000
 20
 2.39422527319039E+0000
 11
 8.05425401337561E+0000
 21
 2.40063814507084E+0000
  0
LINE
  8
1
  6
CONTINUOUS
 62
     1
 10
 8.06587063329061E+0000
 20
 2.39865585655934E+0000
 11
 8.06164379969414E+0000
 21
 2.39442902297014E+0000
  0
LINE
  8
1
  6
CONTINUOUS
 62
     1
 10
 8.04822715543560E+0000
 20
 2.40166658288945E+0000
 11
 8.03554665466072E+0000
 21
 2.38898608212185E+0000
  0
LINE
  8
1
  6
CONTINUOUS
 62
     1
 10
 8.03058367758058E+0000
 20
 2.40467730922319E+0000
 11
 8.00944950962730E+0000
 21
 2.38354314127355E+0000
  0
LINE
  8
1
  6
CONTINUOUS
 62
     1
 10
 8.01294019972556E+0000
 20
 2.40768803555693E+0000
 11
 7.98335236460116E+0000
 21
 2.37810020042889E+0000
  0
LINE
  8
1
  6
CONTINUOUS
 62
     1
 10
 7.99529672187782E+0000
 20
 2.41069876189067E+0000
 11
 7.95725521956774E+0000
 21
 2.37265725958059E+0000
  0
LINE
  8
1
  6
CONTINUOUS
 62
     1
 10
 7.97765324402280E+0000
 20
 2.41370948822077E+0000
 11
 7.93115807453432E+0000
 21
 2.36721431873957E+0000
  0
LINE
  8
1
  6
CONTINUOUS
 62
     1
 10
 7.96000976616779E+0000
 20
 2.41672021455452E+0000
 11
 7.91540304557566E+0000
 21
 2.37211349395875E+0000
  0
LINE
  8
1
  6
CONTINUOUS
 62
     1
 10
 7.94236628831277E+0000
 20
 2.41973094088462E+0000
 11
 7.91540304557566E+0000
 21
 2.39276769814387E+0000
  0
LINE
  8
1
  6
CONTINUOUS
 62
     1
 10
 7.92472281045775E+0000
 20
 2.42274166721836E+0000
 11
 7.91540304557566E+0000
 21
 2.41342190232899E+0000
  0
LINE
  8
1
  6
CONTINUOUS
 62
     1
 10
 8.06803743775527E+0000
 20
 2.14363857049102E+0000
 11
 8.06803743775527E+0000
 21
 2.14363857049102E+0000
  0
LINE
  8
1
  6
CONTINUOUS
 62
     1
 10
 8.06803743775527E+0000
 20
 2.14363857049102E+0000
 11
 7.90874811112008E+0000
 21
 2.17082009185469E+0000
  0
LINE
  8
1
  6
CONTINUOUS
 62
     1
 10
 7.90874811112008E+0000
 20
 2.17082009185469E+0000
 11
 7.90874811112008E+0000
 21
 2.11041645438308E+0000
  0
LINE
  8
1
  6
CONTINUOUS
 62
     1
 10
 7.90874811112008E+0000
 20
 2.11041645438308E+0000
 11
 8.06803743775527E+0000
 21
 2.14363857049102E+0000
  0
LINE
  8
1
  6
CONTINUOUS
 62
     1
 10
 7.90874811112008E+0000
 20
 2.17082009185469E+0000
 11
 7.90874811112008E+0000
 21
 2.11041645438308E+0000
  0
LINE
  8
1
  6
CONTINUOUS
 62
     1
 10
 7.91729304286855E+0000
 20
 2.11219862473081E+0000
 11
 7.90874811112008E+0000
 21
 2.12074355647928E+0000
  0
LINE
  8
1
  6
CONTINUOUS
 62
     1
 10
 7.93438290635822E+0000
 20
 2.11576296542626E+0000
 11
 7.90874811112008E+0000
 21
 2.14139776066440E+0000
  0
LINE
  8
1
  6
CONTINUOUS
 62
     1
 10
 7.95147276984790E+0000
 20
 2.11932730612534E+0000
 11
 7.90874811112008E+0000
 21
 2.16205196484952E+0000
  0
LINE
  8
1
  6
CONTINUOUS
 62
     1
 10
 7.96856263333757E+0000
 20
 2.12289164681715E+0000
 11
 7.92307977930614E+0000
 21
 2.16837450084495E+0000
  0
LINE
  8
1
  6
CONTINUOUS
 62
     1
 10
 7.98565249682724E+0000
 20
 2.12645598751260E+0000
 11
 7.94798363922746E+0000
 21
 2.16412484510874E+0000
  0
LINE
  8
1
  6
CONTINUOUS
 62
     1
 10
 8.00274236031692E+0000
 20
 2.13002032820441E+0000
 11
 7.97288749914878E+0000
 21
 2.15987518937618E+0000
  0
LINE
  8
1
  6
CONTINUOUS
 62
     1
 10
 8.01983222381386E+0000
 20
 2.13358466889986E+0000
 11
 7.99779135907011E+0000
 21
 2.15562553364362E+0000
  0
LINE
  8
1
  6
CONTINUOUS
 62
     1
 10
 8.03692208729626E+0000
 20
 2.13714900959894E+0000
 11
 8.02269521898415E+0000
 21
 2.15137587790741E+0000
  0
LINE
  8
1
  6
CONTINUOUS
 62
     1
 10
 8.05401195079321E+0000
 20
 2.14071335029075E+0000
 11
 8.04759907891275E+0000
 21
 2.14712622217121E+0000
  0
LINE
  8
1
  6
CONTINUOUS
 62
     1
 10
 8.05921569881320E+0000
 20
 2.14514393365243E+0000
 11
 8.05498886523128E+0000
 21
 2.14091710006687E+0000
  0
LINE
  8
1
  6
CONTINUOUS
 62
     1
 10
 8.04157222095819E+0000
 20
 2.14815465998618E+0000
 11
 8.02889172019786E+0000
 21
 2.13547415921857E+0000
  0
LINE
  8
1
  6
CONTINUOUS
 62
     1
 10
 8.02392874311772E+0000
 20
 2.15116538631628E+0000
 11
 8.00279457516444E+0000
 21
 2.13003121837392E+0000
  0
LINE
  8
1
  6
CONTINUOUS
 62
     1
 10
 8.00628526526270E+0000
 20
 2.15417611265002E+0000
 11
 7.97669743013830E+0000
 21
 2.12458827752562E+0000
  0
LINE
  8
1
  6
CONTINUOUS
 62
     1
 10
 7.98864178740769E+0000
 20
 2.15718683898740E+0000
 11
 7.95060028510488E+0000
 21
 2.11914533668460E+0000
  0
LINE
  8
1
  6
CONTINUOUS
 62
     1
 10
 7.97099830955267E+0000
 20
 2.16019756531750E+0000
 11
 7.92450314007147E+0000
 21
 2.11370239583630E+0000
  0
LINE
  8
1
  6
CONTINUOUS
 62
     1
 10
 7.95335483170493E+0000
 20
 2.16320829165124E+0000
 11
 7.90874811111280E+0000
 21
 2.11860157105912E+0000
  0
LINE
  8
1
  6
CONTINUOUS
 62
     1
 10
 7.93571135384991E+0000
 20
 2.16621901798135E+0000
 11
 7.90874811111280E+0000
 21
 2.13925577524424E+0000
  0
LINE
  8
1
  6
CONTINUOUS
 62
     1
 10
 7.91806787599489E+0000
 20
 2.16922974431509E+0000
 11
 7.90874811111280E+0000
 21
 2.15990997942936E+0000
  0
LINE
  8
1
  6
CONTINUOUS
 62
     1
 10
 8.06803743775527E+0000
 20
 2.14363857049102E+0000
 11
 8.06803743775527E+0000
 21
 2.14363857049102E+0000
  0
LINE
  8
1
  6
CONTINUOUS
 62
     1
 10
 8.06803743775527E+0000
 20
 2.14363857049102E+0000
 11
 7.90874811112008E+0000
 21
 2.17082009185469E+0000
  0
LINE
  8
1
  6
CONTINUOUS
 62
     1
 10
 7.90874811112008E+0000
 20
 2.17082009185469E+0000
 11
 7.90874811112008E+0000
 21
 2.11041645438308E+0000
  0
LINE
  8
1
  6
CONTINUOUS
 62
     1
 10
 7.90874811112008E+0000
 20
 2.11041645438308E+0000
 11
 8.06803743775527E+0000
 21
 2.14363857049102E+0000
  0
LINE
  8
1
  6
CONTINUOUS
 62
     1
 10
 7.90874811112008E+0000
 20
 2.17082009185469E+0000
 11
 7.90874811112008E+0000
 21
 2.11041645438308E+0000
  0
LINE
  8
1
  6
CONTINUOUS
 62
     1
 10
 7.91729304286855E+0000
 20
 2.11219862473081E+0000
 11
 7.90874811112008E+0000
 21
 2.12074355647928E+0000
  0
LINE
  8
1
  6
CONTINUOUS
 62
     1
 10
 7.93438290635822E+0000
 20
 2.11576296542626E+0000
 11
 7.90874811112008E+0000
 21
 2.14139776066440E+0000
  0
LINE
  8
1
  6
CONTINUOUS
 62
     1
 10
 7.95147276984790E+0000
 20
 2.11932730612534E+0000
 11
 7.90874811112008E+0000
 21
 2.16205196484952E+0000
  0
LINE
  8
1
  6
CONTINUOUS
 62
     1
 10
 7.96856263333757E+0000
 20
 2.12289164681715E+0000
 11
 7.92307977930614E+0000
 21
 2.16837450084495E+0000
  0
LINE
  8
1
  6
CONTINUOUS
 62
     1
 10
 7.98565249682724E+0000
 20
 2.12645598751260E+0000
 11
 7.94798363922746E+0000
 21
 2.16412484510874E+0000
  0
LINE
  8
1
  6
CONTINUOUS
 62
     1
 10
 8.00274236031692E+0000
 20
 2.13002032820441E+0000
 11
 7.97288749914878E+0000
 21
 2.15987518937618E+0000
  0
LINE
  8
1
  6
CONTINUOUS
 62
     1
 10
 8.01983222381386E+0000
 20
 2.13358466889986E+0000
 11
 7.99779135907011E+0000
 21
 2.15562553364362E+0000
  0
LINE
  8
1
  6
CONTINUOUS
 62
     1
 10
 8.03692208729626E+0000
 20
 2.13714900959894E+0000
 11
 8.02269521898415E+0000
 21
 2.15137587790741E+0000
  0
LINE
  8
1
  6
CONTINUOUS
 62
     1
 10
 8.05401195079321E+0000
 20
 2.14071335029075E+0000
 11
 8.04759907891275E+0000
 21
 2.14712622217121E+0000
  0
LINE
  8
1
  6
CONTINUOUS
 62
     1
 10
 8.05921569881320E+0000
 20
 2.14514393365243E+0000
 11
 8.05498886523128E+0000
 21
 2.14091710006687E+0000
  0
LINE
  8
1
  6
CONTINUOUS
 62
     1
 10
 8.04157222095819E+0000
 20
 2.14815465998618E+0000
 11
 8.02889172019786E+0000
 21
 2.13547415921857E+0000
  0
LINE
  8
1
  6
CONTINUOUS
 62
     1
 10
 8.02392874311772E+0000
 20
 2.15116538631628E+0000
 11
 8.00279457516444E+0000
 21
 2.13003121837392E+0000
  0
LINE
  8
1
  6
CONTINUOUS
 62
     1
 10
 8.00628526526270E+0000
 20
 2.15417611265002E+0000
 11
 7.97669743013830E+0000
 21
 2.12458827752562E+0000
  0
LINE
  8
1
  6
CONTINUOUS
 62
     1
 10
 7.98864178740769E+0000
 20
 2.15718683898740E+0000
 11
 7.95060028510488E+0000
 21
 2.11914533668460E+0000
  0
LINE
  8
1
  6
CONTINUOUS
 62
     1
 10
 7.97099830955267E+0000
 20
 2.16019756531750E+0000
 11
 7.92450314007147E+0000
 21
 2.11370239583630E+0000
  0
LINE
  8
1
  6
CONTINUOUS
 62
     1
 10
 7.95335483170493E+0000
 20
 2.16320829165124E+0000
 11
 7.90874811111280E+0000
 21
 2.11860157105912E+0000
  0
LINE
  8
1
  6
CONTINUOUS
 62
     1
 10
 7.93571135384991E+0000
 20
 2.16621901798135E+0000
 11
 7.90874811111280E+0000
 21
 2.13925577524424E+0000
  0
LINE
  8
1
  6
CONTINUOUS
 62
     1
 10
 7.91806787599489E+0000
 20
 2.16922974431509E+0000
 11
 7.90874811111280E+0000
 21
 2.15990997942936E+0000
  0
LINE
  8
1
  6
CONTINUOUS
 62
     1
 10
 7.48810382575903E+0000
 20
 2.65631088550435E+0000
 11
 7.48810382575903E+0000
 21
 2.65631088550435E+0000
  0
LINE
  8
1
  6
CONTINUOUS
 62
     1
 10
 7.48810382575903E+0000
 20
 2.65631088550435E+0000
 11
 7.64739315240877E+0000
 21
 2.62912936414068E+0000
  0
LINE
  8
1
  6
CONTINUOUS
 62
     1
 10
 7.64739315240877E+0000
 20
 2.62912936414068E+0000
 11
 7.64739315240877E+0000
 21
 2.68953300161229E+0000
  0
LINE
  8
1
  6
CONTINUOUS
 62
     1
 10
 7.64739315240877E+0000
 20
 2.68953300161229E+0000
 11
 7.48810382575903E+0000
 21
 2.65631088550435E+0000
  0
LINE
  8
1
  6
CONTINUOUS
 62
     1
 10
 7.64739315240877E+0000
 20
 2.62912936414068E+0000
 11
 7.64739315240877E+0000
 21
 2.68953300161229E+0000
  0
LINE
  8
1
  6
CONTINUOUS
 62
     1
 10
 7.50055575572333E+0000
 20
 2.65418605763261E+0000
 11
 7.49664875750750E+0000
 21
 2.65809305584844E+0000
  0
LINE
  8
1
  6
CONTINUOUS
 62
     1
 10
 7.52545961563737E+0000
 20
 2.64993640190005E+0000
 11
 7.51373862099717E+0000
 21
 2.66165739654389E+0000
  0
LINE
  8
1
  6
CONTINUOUS
 62
     1
 10
 7.55036347555870E+0000
 20
 2.64568674616748E+0000
 11
 7.53082848448685E+0000
 21
 2.66522173723934E+0000
  0
LINE
  8
1
  6
CONTINUOUS
 62
     1
 10
 7.57526733548002E+0000
 20
 2.64143709043128E+0000
 11
 7.54791834797652E+0000
 21
 2.66878607793114E+0000
  0
LINE
  8
1
  6
CONTINUOUS
 62
     1
 10
 7.60017119539407E+0000
 20
 2.63718743469872E+0000
 11
 7.56500821146619E+0000
 21
 2.67235041863023E+0000
  0
LINE
  8
1
  6
CONTINUOUS
 62
     1
 10
 7.62507505531539E+0000
 20
 2.63293777896615E+0000
 11
 7.58209807496314E+0000
 21
 2.67591475932204E+0000
  0
LINE
  8
1
  6
CONTINUOUS
 62
     1
 10
 7.64739315240877E+0000
 20
 2.63127388605426E+0000
 11
 7.59918793845281E+0000
 21
 2.67947910001749E+0000
  0
LINE
  8
1
  6
CONTINUOUS
 62
     1
 10
 7.64739315240877E+0000
 20
 2.65192809023938E+0000
 11
 7.61627780194249E+0000
 21
 2.68304344071294E+0000
  0
LINE
  8
1
  6
CONTINUOUS
 62
     1
 10
 7.64739315240877E+0000
 20
 2.67258229442814E+0000
 11
 7.63336766543216E+0000
 21
 2.68660778140475E+0000
  0
LINE
  8
1
  6
CONTINUOUS
 62
     1
 10
 7.64739315240149E+0000
 20
 2.63945646623324E+0000
 11
 7.63857141347398E+0000
 21
 2.63063472730573E+0000
  0
LINE
  8
1
  6
CONTINUOUS
 62
     1
 10
 7.64739315240149E+0000
 20
 2.66011067041836E+0000
 11
 7.62092793562624E+0000
 21
 2.63364545363947E+0000
  0
LINE
  8
1
  6
CONTINUOUS
 62
     1
 10
 7.64739315240149E+0000
 20
 2.68076487460348E+0000
 11
 7.60328445777122E+0000
 21
 2.63665617996958E+0000
  0
LINE
  8
1
  6
CONTINUOUS
 62
     1
 10
 7.63237477274379E+0000
 20
 2.68640069913090E+0000
 11
 7.58564097991621E+0000
 21
 2.63966690630332E+0000
  0
LINE
  8
1
  6
CONTINUOUS
 62
     1
 10
 7.60627762771765E+0000
 20
 2.68095775828624E+0000
 11
 7.56799750206119E+0000
 21
 2.64267763263342E+0000
  0
LINE
  8
1
  6
CONTINUOUS
 62
     1
 10
 7.58018048268423E+0000
 20
 2.67551481743794E+0000
 11
 7.55035402420617E+0000
 21
 2.64568835896353E+0000
  0
LINE
  8
1
  6
CONTINUOUS
 62
     1
 10
 7.55408333765081E+0000
 20
 2.67007187659692E+0000
 11
 7.53271054635843E+0000
 21
 2.64869908529727E+0000
  0
LINE
  8
1
  6
CONTINUOUS
 62
     1
 10
 7.52798619261739E+0000
 20
 2.66462893574862E+0000
 11
 7.51506706850341E+0000
 21
 2.65170981162737E+0000
  0
LINE
  8
1
  6
CONTINUOUS
 62
     1
 10
 7.50188904758397E+0000
 20
 2.65918599490033E+0000
 11
 7.49742359064840E+0000
 21
 2.65472053796111E+0000
  0
LINE
  8
1
  6
CONTINUOUS
 62
     1
 10
 7.48810382575903E+0000
 20
 2.65631088550435E+0000
 11
 7.48810382575903E+0000
 21
 2.65631088550435E+0000
  0
LINE
  8
1
  6
CONTINUOUS
 62
     1
 10
 7.48810382575903E+0000
 20
 2.65631088550435E+0000
 11
 7.64739315240877E+0000
 21
 2.62912936414068E+0000
  0
LINE
  8
1
  6
CONTINUOUS
 62
     1
 10
 7.64739315240877E+0000
 20
 2.62912936414068E+0000
 11
 7.64739315240877E+0000
 21
 2.68953300161229E+0000
  0
LINE
  8
1
  6
CONTINUOUS
 62
     1
 10
 7.64739315240877E+0000
 20
 2.68953300161229E+0000
 11
 7.48810382575903E+0000
 21
 2.65631088550435E+0000
  0
LINE
  8
1
  6
CONTINUOUS
 62
     1
 10
 7.64739315240877E+0000
 20
 2.62912936414068E+0000
 11
 7.64739315240877E+0000
 21
 2.68953300161229E+0000
  0
LINE
  8
1
  6
CONTINUOUS
 62
     1
 10
 7.50055575572333E+0000
 20
 2.65418605763261E+0000
 11
 7.49664875750750E+0000
 21
 2.65809305584844E+0000
  0
LINE
  8
1
  6
CONTINUOUS
 62
     1
 10
 7.52545961563737E+0000
 20
 2.64993640190005E+0000
 11
 7.51373862099717E+0000
 21
 2.66165739654389E+0000
  0
LINE
  8
1
  6
CONTINUOUS
 62
     1
 10
 7.55036347555870E+0000
 20
 2.64568674616748E+0000
 11
 7.53082848448685E+0000
 21
 2.66522173723934E+0000
  0
LINE
  8
1
  6
CONTINUOUS
 62
     1
 10
 7.57526733548002E+0000
 20
 2.64143709043128E+0000
 11
 7.54791834797652E+0000
 21
 2.66878607793114E+0000
  0
LINE
  8
1
  6
CONTINUOUS
 62
     1
 10
 7.60017119539407E+0000
 20
 2.63718743469872E+0000
 11
 7.56500821146619E+0000
 21
 2.67235041863023E+0000
  0
LINE
  8
1
  6
CONTINUOUS
 62
     1
 10
 7.62507505531539E+0000
 20
 2.63293777896615E+0000
 11
 7.58209807496314E+0000
 21
 2.67591475932204E+0000
  0
LINE
  8
1
  6
CONTINUOUS
 62
     1
 10
 7.64739315240877E+0000
 20
 2.63127388605426E+0000
 11
 7.59918793845281E+0000
 21
 2.67947910001749E+0000
  0
LINE
  8
1
  6
CONTINUOUS
 62
     1
 10
 7.64739315240877E+0000
 20
 2.65192809023938E+0000
 11
 7.61627780194249E+0000
 21
 2.68304344071294E+0000
  0
LINE
  8
1
  6
CONTINUOUS
 62
     1
 10
 7.64739315240877E+0000
 20
 2.67258229442814E+0000
 11
 7.63336766543216E+0000
 21
 2.68660778140475E+0000
  0
LINE
  8
1
  6
CONTINUOUS
 62
     1
 10
 7.64739315240149E+0000
 20
 2.63945646623324E+0000
 11
 7.63857141347398E+0000
 21
 2.63063472730573E+0000
  0
LINE
  8
1
  6
CONTINUOUS
 62
     1
 10
 7.64739315240149E+0000
 20
 2.66011067041836E+0000
 11
 7.62092793562624E+0000
 21
 2.63364545363947E+0000
  0
LINE
  8
1
  6
CONTINUOUS
 62
     1
 10
 7.64739315240149E+0000
 20
 2.68076487460348E+0000
 11
 7.60328445777122E+0000
 21
 2.63665617996958E+0000
  0
LINE
  8
1
  6
CONTINUOUS
 62
     1
 10
 7.63237477274379E+0000
 20
 2.68640069913090E+0000
 11
 7.58564097991621E+0000
 21
 2.63966690630332E+0000
  0
LINE
  8
1
  6
CONTINUOUS
 62
     1
 10
 7.60627762771765E+0000
 20
 2.68095775828624E+0000
 11
 7.56799750206119E+0000
 21
 2.64267763263342E+0000
  0
LINE
  8
1
  6
CONTINUOUS
 62
     1
 10
 7.58018048268423E+0000
 20
 2.67551481743794E+0000
 11
 7.55035402420617E+0000
 21
 2.64568835896353E+0000
  0
LINE
  8
1
  6
CONTINUOUS
 62
     1
 10
 7.55408333765081E+0000
 20
 2.67007187659692E+0000
 11
 7.53271054635843E+0000
 21
 2.64869908529727E+0000
  0
LINE
  8
1
  6
CONTINUOUS
 62
     1
 10
 7.52798619261739E+0000
 20
 2.66462893574862E+0000
 11
 7.51506706850341E+0000
 21
 2.65170981162737E+0000
  0
LINE
  8
1
  6
CONTINUOUS
 62
     1
 10
 7.50188904758397E+0000
 20
 2.65918599490033E+0000
 11
 7.49742359064840E+0000
 21
 2.65472053796111E+0000
  0
LINE
  8
1
  6
CONTINUOUS
 62
     1
 10
 7.28845579209155E+0000
 20
 2.39612759620650E+0000
 11
 7.28845579209155E+0000
 21
 2.39612759620650E+0000
  0
LINE
  8
1
  6
CONTINUOUS
 62
     1
 10
 7.28845579209155E+0000
 20
 2.39612759620650E+0000
 11
 7.44774511874130E+0000
 21
 2.36894607484282E+0000
  0
LINE
  8
1
  6
CONTINUOUS
 62
     1
 10
 7.44774511874130E+0000
 20
 2.36894607484282E+0000
 11
 7.44774511874130E+0000
 21
 2.42934971231443E+0000
  0
LINE
  8
1
  6
CONTINUOUS
 62
     1
 10
 7.44774511874130E+0000
 20
 2.42934971231443E+0000
 11
 7.28845579209155E+0000
 21
 2.39612759620650E+0000
  0
LINE
  8
1
  6
CONTINUOUS
 62
     1
 10
 7.44774511874130E+0000
 20
 2.36894607484282E+0000
 11
 7.44774511874130E+0000
 21
 2.42934971231443E+0000
  0
LINE
  8
1
  6
CONTINUOUS
 62
     1
 10
 7.30090772205585E+0000
 20
 2.39400276833840E+0000
 11
 7.29700072384003E+0000
 21
 2.39790976655058E+0000
  0
LINE
  8
1
  6
CONTINUOUS
 62
     1
 10
 7.32581158196990E+0000
 20
 2.38975311260583E+0000
 11
 7.31409058732970E+0000
 21
 2.40147410724603E+0000
  0
LINE
  8
1
  6
CONTINUOUS
 62
     1
 10
 7.35071544189123E+0000
 20
 2.38550345686963E+0000
 11
 7.33118045081937E+0000
 21
 2.40503844794148E+0000
  0
LINE
  8
1
  6
CONTINUOUS
 62
     1
 10
 7.37561930181255E+0000
 20
 2.38125380113706E+0000
 11
 7.34827031430905E+0000
 21
 2.40860278863693E+0000
  0
LINE
  8
1
  6
CONTINUOUS
 62
     1
 10
 7.40052316172660E+0000
 20
 2.37700414540086E+0000
 11
 7.36536017779872E+0000
 21
 2.41216712932874E+0000
  0
LINE
  8
1
  6
CONTINUOUS
 62
     1
 10
 7.42542702164792E+0000
 20
 2.37275448966830E+0000
 11
 7.38245004129567E+0000
 21
 2.41573147002418E+0000
  0
LINE
  8
1
  6
CONTINUOUS
 62
     1
 10
 7.44774511874130E+0000
 20
 2.37109059676004E+0000
 11
 7.39953990478534E+0000
 21
 2.41929581071963E+0000
  0
LINE
  8
1
  6
CONTINUOUS
 62
     1
 10
 7.44774511874130E+0000
 20
 2.39174480094516E+0000
 11
 7.41662976827502E+0000
 21
 2.42286015141144E+0000
  0
LINE
  8
1
  6
CONTINUOUS
 62
     1
 10
 7.44774511874130E+0000
 20
 2.41239900513028E+0000
 11
 7.43371963176469E+0000
 21
 2.42642449210689E+0000
  0
LINE
  8
1
  6
CONTINUOUS
 62
     1
 10
 7.44774511873402E+0000
 20
 2.37927317693538E+0000
 11
 7.43892337981379E+0000
 21
 2.37045143800788E+0000
  0
LINE
  8
1
  6
CONTINUOUS
 62
     1
 10
 7.44774511873402E+0000
 20
 2.39992738112051E+0000
 11
 7.42127990195877E+0000
 21
 2.37346216433798E+0000
  0
LINE
  8
1
  6
CONTINUOUS
 62
     1
 10
 7.44774511873402E+0000
 20
 2.42058158530563E+0000
 11
 7.40363642410375E+0000
 21
 2.37647289067172E+0000
  0
LINE
  8
1
  6
CONTINUOUS
 62
     1
 10
 7.43272673907632E+0000
 20
 2.42621740983304E+0000
 11
 7.38599294624873E+0000
 21
 2.37948361700182E+0000
  0
LINE
  8
1
  6
CONTINUOUS
 62
     1
 10
 7.40662959405017E+0000
 20
 2.42077446898838E+0000
 11
 7.36834946839372E+0000
 21
 2.38249434333557E+0000
  0
LINE
  8
1
  6
CONTINUOUS
 62
     1
 10
 7.38053244901675E+0000
 20
 2.41533152814009E+0000
 11
 7.35070599054598E+0000
 21
 2.38550506966567E+0000
  0
LINE
  8
1
  6
CONTINUOUS
 62
     1
 10
 7.35443530399061E+0000
 20
 2.40988858729543E+0000
 11
 7.33306251269096E+0000
 21
 2.38851579599941E+0000
  0
LINE
  8
1
  6
CONTINUOUS
 62
     1
 10
 7.32833815895719E+0000
 20
 2.40444564645441E+0000
 11
 7.31541903483594E+0000
 21
 2.39152652232951E+0000
  0
LINE
  8
1
  6
CONTINUOUS
 62
     1
 10
 7.30224101392378E+0000
 20
 2.39900270560611E+0000
 11
 7.29777555698820E+0000
 21
 2.39453724866689E+0000
  0
LINE
  8
1
  6
CONTINUOUS
 62
     1
 10
 7.28845579209155E+0000
 20
 2.39612759620650E+0000
 11
 7.28845579209155E+0000
 21
 2.39612759620650E+0000
  0
LINE
  8
1
  6
CONTINUOUS
 62
     1
 10
 7.28845579209155E+0000
 20
 2.39612759620650E+0000
 11
 7.44774511874130E+0000
 21
 2.36894607484282E+0000
  0
LINE
  8
1
  6
CONTINUOUS
 62
     1
 10
 7.44774511874130E+0000
 20
 2.36894607484282E+0000
 11
 7.44774511874130E+0000
 21
 2.42934971231443E+0000
  0
LINE
  8
1
  6
CONTINUOUS
 62
     1
 10
 7.44774511874130E+0000
 20
 2.42934971231443E+0000
 11
 7.28845579209155E+0000
 21
 2.39612759620650E+0000
  0
LINE
  8
1
  6
CONTINUOUS
 62
     1
 10
 7.44774511874130E+0000
 20
 2.36894607484282E+0000
 11
 7.44774511874130E+0000
 21
 2.42934971231443E+0000
  0
LINE
  8
1
  6
CONTINUOUS
 62
     1
 10
 7.30090772205585E+0000
 20
 2.39400276833840E+0000
 11
 7.29700072384003E+0000
 21
 2.39790976655058E+0000
  0
LINE
  8
1
  6
CONTINUOUS
 62
     1
 10
 7.32581158196990E+0000
 20
 2.38975311260583E+0000
 11
 7.31409058732970E+0000
 21
 2.40147410724603E+0000
  0
LINE
  8
1
  6
CONTINUOUS
 62
     1
 10
 7.35071544189123E+0000
 20
 2.38550345686963E+0000
 11
 7.33118045081937E+0000
 21
 2.40503844794148E+0000
  0
LINE
  8
1
  6
CONTINUOUS
 62
     1
 10
 7.37561930181255E+0000
 20
 2.38125380113706E+0000
 11
 7.34827031430905E+0000
 21
 2.40860278863693E+0000
  0
LINE
  8
1
  6
CONTINUOUS
 62
     1
 10
 7.40052316172660E+0000
 20
 2.37700414540086E+0000
 11
 7.36536017779872E+0000
 21
 2.41216712932874E+0000
  0
LINE
  8
1
  6
CONTINUOUS
 62
     1
 10
 7.42542702164792E+0000
 20
 2.37275448966830E+0000
 11
 7.38245004129567E+0000
 21
 2.41573147002418E+0000
  0
LINE
  8
1
  6
CONTINUOUS
 62
     1
 10
 7.44774511874130E+0000
 20
 2.37109059676004E+0000
 11
 7.39953990478534E+0000
 21
 2.41929581071963E+0000
  0
LINE
  8
1
  6
CONTINUOUS
 62
     1
 10
 7.44774511874130E+0000
 20
 2.39174480094516E+0000
 11
 7.41662976827502E+0000
 21
 2.42286015141144E+0000
  0
LINE
  8
1
  6
CONTINUOUS
 62
     1
 10
 7.44774511874130E+0000
 20
 2.41239900513028E+0000
 11
 7.43371963176469E+0000
 21
 2.42642449210689E+0000
  0
LINE
  8
1
  6
CONTINUOUS
 62
     1
 10
 7.44774511873402E+0000
 20
 2.37927317693538E+0000
 11
 7.43892337981379E+0000
 21
 2.37045143800788E+0000
  0
LINE
  8
1
  6
CONTINUOUS
 62
     1
 10
 7.44774511873402E+0000
 20
 2.39992738112051E+0000
 11
 7.42127990195877E+0000
 21
 2.37346216433798E+0000
  0
LINE
  8
1
  6
CONTINUOUS
 62
     1
 10
 7.44774511873402E+0000
 20
 2.42058158530563E+0000
 11
 7.40363642410375E+0000
 21
 2.37647289067172E+0000
  0
LINE
  8
1
  6
CONTINUOUS
 62
     1
 10
 7.43272673907632E+0000
 20
 2.42621740983304E+0000
 11
 7.38599294624873E+0000
 21
 2.37948361700182E+0000
  0
LINE
  8
1
  6
CONTINUOUS
 62
     1
 10
 7.40662959405017E+0000
 20
 2.42077446898838E+0000
 11
 7.36834946839372E+0000
 21
 2.38249434333557E+0000
  0
LINE
  8
1
  6
CONTINUOUS
 62
     1
 10
 7.38053244901675E+0000
 20
 2.41533152814009E+0000
 11
 7.35070599054598E+0000
 21
 2.38550506966567E+0000
  0
LINE
  8
1
  6
CONTINUOUS
 62
     1
 10
 7.35443530399061E+0000
 20
 2.40988858729543E+0000
 11
 7.33306251269096E+0000
 21
 2.38851579599941E+0000
  0
LINE
  8
1
  6
CONTINUOUS
 62
     1
 10
 7.32833815895719E+0000
 20
 2.40444564645441E+0000
 11
 7.31541903483594E+0000
 21
 2.39152652232951E+0000
  0
LINE
  8
1
  6
CONTINUOUS
 62
     1
 10
 7.30224101392378E+0000
 20
 2.39900270560611E+0000
 11
 7.29777555698820E+0000
 21
 2.39453724866689E+0000
  0
LINE
  8
1
  6
CONTINUOUS
 62
     1
 10
 6.72944129785901E+0000
 20
 2.13594430691228E+0000
 11
 6.72944129785901E+0000
 21
 2.13594430691228E+0000
  0
LINE
  8
1
  6
CONTINUOUS
 62
     1
 10
 6.72944129785901E+0000
 20
 2.13594430691228E+0000
 11
 6.88873062450875E+0000
 21
 2.10876278554861E+0000
  0
LINE
  8
1
  6
CONTINUOUS
 62
     1
 10
 6.88873062450875E+0000
 20
 2.10876278554861E+0000
 11
 6.88873062450875E+0000
 21
 2.16916642302022E+0000
  0
LINE
  8
1
  6
CONTINUOUS
 62
     1
 10
 6.88873062450875E+0000
 20
 2.16916642302022E+0000
 11
 6.72944129785901E+0000
 21
 2.13594430691228E+0000
  0
LINE
  8
1
  6
CONTINUOUS
 62
     1
 10
 6.88873062450875E+0000
 20
 2.10876278554861E+0000
 11
 6.88873062450875E+0000
 21
 2.16916642302022E+0000
  0
LINE
  8
1
  6
CONTINUOUS
 62
     1
 10
 6.74189322782331E+0000
 20
 2.13381947904782E+0000
 11
 6.73798622960749E+0000
 21
 2.13772647726364E+0000
  0
LINE
  8
1
  6
CONTINUOUS
 62
     1
 10
 6.76679708774464E+0000
 20
 2.12956982331161E+0000
 11
 6.75507609309716E+0000
 21
 2.14129081795545E+0000
  0
LINE
  8
1
  6
CONTINUOUS
 62
     1
 10
 6.79170094766596E+0000
 20
 2.12532016757541E+0000
 11
 6.77216595658683E+0000
 21
 2.14485515865090E+0000
  0
LINE
  8
1
  6
CONTINUOUS
 62
     1
 10
 6.81660480758728E+0000
 20
 2.12107051184285E+0000
 11
 6.78925582008378E+0000
 21
 2.14841949934635E+0000
  0
LINE
  8
1
  6
CONTINUOUS
 62
     1
 10
 6.84150866750861E+0000
 20
 2.11682085610664E+0000
 11
 6.80634568357345E+0000
 21
 2.15198384003816E+0000
  0
LINE
  8
1
  6
CONTINUOUS
 62
     1
 10
 6.86641252742993E+0000
 20
 2.11257120037044E+0000
 11
 6.82343554706313E+0000
 21
 2.15554818073360E+0000
  0
LINE
  8
1
  6
CONTINUOUS
 62
     1
 10
 6.88873062450875E+0000
 20
 2.11090730747310E+0000
 11
 6.84052541055280E+0000
 21
 2.15911252142905E+0000
  0
LINE
  8
1
  6
CONTINUOUS
 62
     1
 10
 6.88873062450875E+0000
 20
 2.13156151165822E+0000
 11
 6.85761527404247E+0000
 21
 2.16267686212450E+0000
  0
LINE
  8
1
  6
CONTINUOUS
 62
     1
 10
 6.88873062451603E+0000
 20
 2.15221571583970E+0000
 11
 6.87470513753942E+0000
 21
 2.16624120281631E+0000
  0
LINE
  8
1
  6
CONTINUOUS
 62
     1
 10
 6.88873062450148E+0000
 20
 2.11908988764117E+0000
 11
 6.87990888557397E+0000
 21
 2.11026814871366E+0000
  0
LINE
  8
1
  6
CONTINUOUS
 62
     1
 10
 6.88873062450148E+0000
 20
 2.13974409182629E+0000
 11
 6.86226540771895E+0000
 21
 2.11327887504376E+0000
  0
LINE
  8
1
  6
CONTINUOUS
 62
     1
 10
 6.88873062450148E+0000
 20
 2.16039829601141E+0000
 11
 6.84462192987121E+0000
 21
 2.11628960137750E+0000
  0
LINE
  8
1
  6
CONTINUOUS
 62
     1
 10
 6.87371224484377E+0000
 20
 2.16603412053882E+0000
 11
 6.82697845201619E+0000
 21
 2.11930032770761E+0000
  0
LINE
  8
1
  6
CONTINUOUS
 62
     1
 10
 6.84761509981763E+0000
 20
 2.16059117969417E+0000
 11
 6.80933497416117E+0000
 21
 2.12231105404135E+0000
  0
LINE
  8
1
  6
CONTINUOUS
 62
     1
 10
 6.82151795478421E+0000
 20
 2.15514823884587E+0000
 11
 6.79169149630616E+0000
 21
 2.12532178037145E+0000
  0
LINE
  8
1
  6
CONTINUOUS
 62
     1
 10
 6.79542080975079E+0000
 20
 2.14970529800121E+0000
 11
 6.77404801845114E+0000
 21
 2.12833250670519E+0000
  0
LINE
  8
1
  6
CONTINUOUS
 62
     1
 10
 6.76932366471738E+0000
 20
 2.14426235715291E+0000
 11
 6.75640454060340E+0000
 21
 2.13134323303530E+0000
  0
LINE
  8
1
  6
CONTINUOUS
 62
     1
 10
 6.74322651968396E+0000
 20
 2.13881941630461E+0000
 11
 6.73876106274838E+0000
 21
 2.13435395936904E+0000
  0
LINE
  8
1
  6
CONTINUOUS
 62
     1
 10
 6.72944129785901E+0000
 20
 2.13594430691228E+0000
 11
 6.72944129785901E+0000
 21
 2.13594430691228E+0000
  0
LINE
  8
1
  6
CONTINUOUS
 62
     1
 10
 6.72944129785901E+0000
 20
 2.13594430691228E+0000
 11
 6.88873062450875E+0000
 21
 2.10876278554861E+0000
  0
LINE
  8
1
  6
CONTINUOUS
 62
     1
 10
 6.88873062450875E+0000
 20
 2.10876278554861E+0000
 11
 6.88873062450875E+0000
 21
 2.16916642302022E+0000
  0
LINE
  8
1
  6
CONTINUOUS
 62
     1
 10
 6.88873062450875E+0000
 20
 2.16916642302022E+0000
 11
 6.72944129785901E+0000
 21
 2.13594430691228E+0000
  0
LINE
  8
1
  6
CONTINUOUS
 62
     1
 10
 6.88873062450875E+0000
 20
 2.10876278554861E+0000
 11
 6.88873062450875E+0000
 21
 2.16916642302022E+0000
  0
LINE
  8
1
  6
CONTINUOUS
 62
     1
 10
 6.74189322782331E+0000
 20
 2.13381947904782E+0000
 11
 6.73798622960749E+0000
 21
 2.13772647726364E+0000
  0
LINE
  8
1
  6
CONTINUOUS
 62
     1
 10
 6.76679708774464E+0000
 20
 2.12956982331161E+0000
 11
 6.75507609309716E+0000
 21
 2.14129081795545E+0000
  0
LINE
  8
1
  6
CONTINUOUS
 62
     1
 10
 6.79170094766596E+0000
 20
 2.12532016757541E+0000
 11
 6.77216595658683E+0000
 21
 2.14485515865090E+0000
  0
LINE
  8
1
  6
CONTINUOUS
 62
     1
 10
 6.81660480758728E+0000
 20
 2.12107051184285E+0000
 11
 6.78925582008378E+0000
 21
 2.14841949934635E+0000
  0
LINE
  8
1
  6
CONTINUOUS
 62
     1
 10
 6.84150866750861E+0000
 20
 2.11682085610664E+0000
 11
 6.80634568357345E+0000
 21
 2.15198384003816E+0000
  0
LINE
  8
1
  6
CONTINUOUS
 62
     1
 10
 6.86641252742993E+0000
 20
 2.11257120037044E+0000
 11
 6.82343554706313E+0000
 21
 2.15554818073360E+0000
  0
LINE
  8
1
  6
CONTINUOUS
 62
     1
 10
 6.88873062450875E+0000
 20
 2.11090730747310E+0000
 11
 6.84052541055280E+0000
 21
 2.15911252142905E+0000
  0
LINE
  8
1
  6
CONTINUOUS
 62
     1
 10
 6.88873062450875E+0000
 20
 2.13156151165822E+0000
 11
 6.85761527404247E+0000
 21
 2.16267686212450E+0000
  0
LINE
  8
1
  6
CONTINUOUS
 62
     1
 10
 6.88873062451603E+0000
 20
 2.15221571583970E+0000
 11
 6.87470513753942E+0000
 21
 2.16624120281631E+0000
  0
LINE
  8
1
  6
CONTINUOUS
 62
     1
 10
 6.88873062450148E+0000
 20
 2.11908988764117E+0000
 11
 6.87990888557397E+0000
 21
 2.11026814871366E+0000
  0
LINE
  8
1
  6
CONTINUOUS
 62
     1
 10
 6.88873062450148E+0000
 20
 2.13974409182629E+0000
 11
 6.86226540771895E+0000
 21
 2.11327887504376E+0000
  0
LINE
  8
1
  6
CONTINUOUS
 62
     1
 10
 6.88873062450148E+0000
 20
 2.16039829601141E+0000
 11
 6.84462192987121E+0000
 21
 2.11628960137750E+0000
  0
LINE
  8
1
  6
CONTINUOUS
 62
     1
 10
 6.87371224484377E+0000
 20
 2.16603412053882E+0000
 11
 6.82697845201619E+0000
 21
 2.11930032770761E+0000
  0
LINE
  8
1
  6
CONTINUOUS
 62
     1
 10
 6.84761509981763E+0000
 20
 2.16059117969417E+0000
 11
 6.80933497416117E+0000
 21
 2.12231105404135E+0000
  0
LINE
  8
1
  6
CONTINUOUS
 62
     1
 10
 6.82151795478421E+0000
 20
 2.15514823884587E+0000
 11
 6.79169149630616E+0000
 21
 2.12532178037145E+0000
  0
LINE
  8
1
  6
CONTINUOUS
 62
     1
 10
 6.79542080975079E+0000
 20
 2.14970529800121E+0000
 11
 6.77404801845114E+0000
 21
 2.12833250670519E+0000
  0
LINE
  8
1
  6
CONTINUOUS
 62
     1
 10
 6.76932366471738E+0000
 20
 2.14426235715291E+0000
 11
 6.75640454060340E+0000
 21
 2.13134323303530E+0000
  0
LINE
  8
1
  6
CONTINUOUS
 62
     1
 10
 6.74322651968396E+0000
 20
 2.13881941630461E+0000
 11
 6.73876106274838E+0000
 21
 2.13435395936904E+0000
  0
LINE
  8
1
  6
CONTINUOUS
 62
     1
 10
 2.61521281506430E+0000
 20
 4.07473076562019E+0000
 11
 2.61521281506430E+0000
 21
 5.71679835546092E+0000
  0
LINE
  8
1
  6
CONTINUOUS
 62
     1
 10
 2.61521281506430E+0000
 20
 5.71679835546092E+0000
 11
 4.95916217166814E+0000
 21
 5.71679835546092E+0000
  0
LINE
  8
1
  6
CONTINUOUS
 62
     1
 10
 4.95916217166814E+0000
 20
 5.71679835546092E+0000
 11
 4.95916217166814E+0000
 21
 4.08160134130594E+0000
  0
LINE
  8
1
  6
CONTINUOUS
 62
     1
 10
 4.47940645540803E+0000
 20
 4.07473076562019E+0000
 11
 4.47940645540803E+0000
 21
 2.62503929508966E+0000
  0
LINE
  8
1
  6
CONTINUOUS
 62
     1
 10
 4.47940645540803E+0000
 20
 2.62503929508966E+0000
 11
 4.66445508882316E+0000
 21
 2.62503929508966E+0000
  0
LINE
  8
1
  6
CONTINUOUS
 62
     1
 10
 4.66445508882316E+0000
 20
 2.62503929508966E+0000
 11
 4.66445508882316E+0000
 21
 4.07473076562019E+0000
  0
LINE
  8
1
  6
CONTINUOUS
 62
     1
 10
 2.80852353505179E+0000
 20
 4.07997995825281E+0000
 11
 2.80852353505179E+0000
 21
 5.42661279343884E+0000
  0
LINE
  8
1
  6
CONTINUOUS
 62
     1
 10
 2.80852353505179E+0000
 20
 5.42661279343884E+0000
 11
 4.76181466555863E+0000
 21
 5.42661279343884E+0000
  0
LINE
  8
1
  6
CONTINUOUS
 62
     1
 10
 4.76181466555863E+0000
 20
 5.42661279343884E+0000
 11
 4.76181466555863E+0000
 21
 4.07997995825281E+0000
  0
LINE
  8
1
  6
CONTINUOUS
 62
     1
 10
 3.63096190579017E+0000
 20
 3.28986375393652E+0000
 11
 3.63096190579017E+0000
 21
 2.52035927668476E+0000
  0
LINE
  8
1
  6
CONTINUOUS
 62
     1
 10
 3.63096190579017E+0000
 20
 2.52035927668476E+0000
 11
 3.93937629481661E+0000
 21
 2.52035927668476E+0000
  0
LINE
  8
1
  6
CONTINUOUS
 62
     1
 10
 3.93937629481661E+0000
 20
 2.52035927668476E+0000
 11
 3.93937629481661E+0000
 21
 3.29673432962591E+0000
  0
LINE
  8
1
  6
CONTINUOUS
 62
     1
 10
 2.81735544303228E+0000
 20
 5.43064114038862E+0000
 11
 2.81735544303228E+0000
 21
 5.43064114038862E+0000
  0
LINE
  8
1
  6
CONTINUOUS
 62
     1
 10
 2.81735544303228E+0000
 20
 5.43064114038862E+0000
 11
 2.97664476968203E+0000
 21
 5.40345961902494E+0000
  0
LINE
  8
1
  6
CONTINUOUS
 62
     1
 10
 2.97664476968203E+0000
 20
 5.40345961902494E+0000
 11
 2.97664476968203E+0000
 21
 5.46386325649655E+0000
  0
LINE
  8
1
  6
CONTINUOUS
 62
     1
 10
 2.97664476968203E+0000
 20
 5.46386325649655E+0000
 11
 2.81735544303228E+0000
 21
 5.43064114038862E+0000
  0
LINE
  8
1
  6
CONTINUOUS
 62
     1
 10
 2.97664476968203E+0000
 20
 5.40345961902494E+0000
 11
 2.97664476968203E+0000
 21
 5.46386325649655E+0000
  0
LINE
  8
1
  6
CONTINUOUS
 62
     1
 10
 2.82980737299295E+0000
 20
 5.42851631252415E+0000
 11
 2.82590037478076E+0000
 21
 5.43242331073998E+0000
  0
LINE
  8
1
  6
CONTINUOUS
 62
     1
 10
 2.85471123291427E+0000
 20
 5.42426665678795E+0000
 11
 2.84299023827043E+0000
 21
 5.43598765143543E+0000
  0
LINE
  8
1
  6
CONTINUOUS
 62
     1
 10
 2.87961509283559E+0000
 20
 5.42001700105175E+0000
 11
 2.86008010176010E+0000
 21
 5.43955199212360E+0000
  0
LINE
  8
1
  6
CONTINUOUS
 62
     1
 10
 2.90451895275692E+0000
 20
 5.41576734531554E+0000
 11
 2.87716996525342E+0000
 21
 5.44311633281905E+0000
  0
LINE
  8
1
  6
CONTINUOUS
 62
     1
 10
 2.92942281267824E+0000
 20
 5.41151768957934E+0000
 11
 2.89425982874309E+0000
 21
 5.44668067351449E+0000
  0
LINE
  8
1
  6
CONTINUOUS
 62
     1
 10
 2.95432667259593E+0000
 20
 5.40726803385041E+0000
 11
 2.91134969223276E+0000
 21
 5.45024501420994E+0000
  0
LINE
  8
1
  6
CONTINUOUS
 62
     1
 10
 2.97664476968203E+0000
 20
 5.40560414094944E+0000
 11
 2.92843955572607E+0000
 21
 5.45380935490539E+0000
  0
LINE
  8
1
  6
CONTINUOUS
 62
     1
 10
 2.97664476968203E+0000
 20
 5.42625834513456E+0000
 11
 2.94552941921575E+0000
 21
 5.45737369560084E+0000
  0
LINE
  8
1
  6
CONTINUOUS
 62
     1
 10
 2.97664476968203E+0000
 20
 5.44691254931968E+0000
 11
 2.96261928270542E+0000
 21
 5.46093803629628E+0000
  0
LINE
  8
1
  6
CONTINUOUS
 62
     1
 10
 2.97664476967839E+0000
 20
 5.41378672111750E+0000
 11
 2.96782303075452E+0000
 21
 5.40496498218999E+0000
  0
LINE
  8
1
  6
CONTINUOUS
 62
     1
 10
 2.97664476967839E+0000
 20
 5.43444092530262E+0000
 11
 2.95017955289950E+0000
 21
 5.40797570852010E+0000
  0
LINE
  8
1
  6
CONTINUOUS
 62
     1
 10
 2.97664476967839E+0000
 20
 5.45509512948775E+0000
 11
 2.93253607504448E+0000
 21
 5.41098643485020E+0000
  0
LINE
  8
1
  6
CONTINUOUS
 62
     1
 10
 2.96162639002068E+0000
 20
 5.46073095401516E+0000
 11
 2.91489259719310E+0000
 21
 5.41399716118030E+0000
  0
LINE
  8
1
  6
CONTINUOUS
 62
     1
 10
 2.93552924498726E+0000
 20
 5.45528801316686E+0000
 11
 2.89724911933808E+0000
 21
 5.41700788751768E+0000
  0
LINE
  8
1
  6
CONTINUOUS
 62
     1
 10
 2.90943209995748E+0000
 20
 5.44984507231857E+0000
 11
 2.87960564148671E+0000
 21
 5.42001861384779E+0000
  0
LINE
  8
1
  6
CONTINUOUS
 62
     1
 10
 2.88333495492407E+0000
 20
 5.44440213147027E+0000
 11
 2.86196216363169E+0000
 21
 5.42302934017789E+0000
  0
LINE
  8
1
  6
CONTINUOUS
 62
     1
 10
 2.85723780989792E+0000
 20
 5.43895919062925E+0000
 11
 2.84431868577667E+0000
 21
 5.42604006650799E+0000
  0
LINE
  8
1
  6
CONTINUOUS
 62
     1
 10
 2.83114066486087E+0000
 20
 5.43351624978095E+0000
 11
 2.82667520792529E+0000
 21
 5.42905079284537E+0000
  0
LINE
  8
1
  6
CONTINUOUS
 62
     1
 10
 2.81735544303228E+0000
 20
 5.43064114038862E+0000
 11
 2.81735544303228E+0000
 21
 5.43064114038862E+0000
  0
LINE
  8
1
  6
CONTINUOUS
 62
     1
 10
 2.81735544303228E+0000
 20
 5.43064114038862E+0000
 11
 2.97664476968203E+0000
 21
 5.40345961902494E+0000
  0
LINE
  8
1
  6
CONTINUOUS
 62
     1
 10
 2.97664476968203E+0000
 20
 5.40345961902494E+0000
 11
 2.97664476968203E+0000
 21
 5.46386325649655E+0000
  0
LINE
  8
1
  6
CONTINUOUS
 62
     1
 10
 2.97664476968203E+0000
 20
 5.46386325649655E+0000
 11
 2.81735544303228E+0000
 21
 5.43064114038862E+0000
  0
LINE
  8
1
  6
CONTINUOUS
 62
     1
 10
 2.97664476968203E+0000
 20
 5.40345961902494E+0000
 11
 2.97664476968203E+0000
 21
 5.46386325649655E+0000
  0
LINE
  8
1
  6
CONTINUOUS
 62
     1
 10
 2.82980737299295E+0000
 20
 5.42851631252415E+0000
 11
 2.82590037478076E+0000
 21
 5.43242331073998E+0000
  0
LINE
  8
1
  6
CONTINUOUS
 62
     1
 10
 2.85471123291427E+0000
 20
 5.42426665678795E+0000
 11
 2.84299023827043E+0000
 21
 5.43598765143543E+0000
  0
LINE
  8
1
  6
CONTINUOUS
 62
     1
 10
 2.87961509283559E+0000
 20
 5.42001700105175E+0000
 11
 2.86008010176010E+0000
 21
 5.43955199212360E+0000
  0
LINE
  8
1
  6
CONTINUOUS
 62
     1
 10
 2.90451895275692E+0000
 20
 5.41576734531554E+0000
 11
 2.87716996525342E+0000
 21
 5.44311633281905E+0000
  0
LINE
  8
1
  6
CONTINUOUS
 62
     1
 10
 2.92942281267824E+0000
 20
 5.41151768957934E+0000
 11
 2.89425982874309E+0000
 21
 5.44668067351449E+0000
  0
LINE
  8
1
  6
CONTINUOUS
 62
     1
 10
 2.95432667259593E+0000
 20
 5.40726803385041E+0000
 11
 2.91134969223276E+0000
 21
 5.45024501420994E+0000
  0
LINE
  8
1
  6
CONTINUOUS
 62
     1
 10
 2.97664476968203E+0000
 20
 5.40560414094944E+0000
 11
 2.92843955572607E+0000
 21
 5.45380935490539E+0000
  0
LINE
  8
1
  6
CONTINUOUS
 62
     1
 10
 2.97664476968203E+0000
 20
 5.42625834513456E+0000
 11
 2.94552941921575E+0000
 21
 5.45737369560084E+0000
  0
LINE
  8
1
  6
CONTINUOUS
 62
     1
 10
 2.97664476968203E+0000
 20
 5.44691254931968E+0000
 11
 2.96261928270542E+0000
 21
 5.46093803629628E+0000
  0
LINE
  8
1
  6
CONTINUOUS
 62
     1
 10
 2.97664476967839E+0000
 20
 5.41378672111750E+0000
 11
 2.96782303075452E+0000
 21
 5.40496498218999E+0000
  0
LINE
  8
1
  6
CONTINUOUS
 62
     1
 10
 2.97664476967839E+0000
 20
 5.43444092530262E+0000
 11
 2.95017955289950E+0000
 21
 5.40797570852010E+0000
  0
LINE
  8
1
  6
CONTINUOUS
 62
     1
 10
 2.97664476967839E+0000
 20
 5.45509512948775E+0000
 11
 2.93253607504448E+0000
 21
 5.41098643485020E+0000
  0
LINE
  8
1
  6
CONTINUOUS
 62
     1
 10
 2.96162639002068E+0000
 20
 5.46073095401516E+0000
 11
 2.91489259719310E+0000
 21
 5.41399716118030E+0000
  0
LINE
  8
1
  6
CONTINUOUS
 62
     1
 10
 2.93552924498726E+0000
 20
 5.45528801316686E+0000
 11
 2.89724911933808E+0000
 21
 5.41700788751768E+0000
  0
LINE
  8
1
  6
CONTINUOUS
 62
     1
 10
 2.90943209995748E+0000
 20
 5.44984507231857E+0000
 11
 2.87960564148671E+0000
 21
 5.42001861384779E+0000
  0
LINE
  8
1
  6
CONTINUOUS
 62
     1
 10
 2.88333495492407E+0000
 20
 5.44440213147027E+0000
 11
 2.86196216363169E+0000
 21
 5.42302934017789E+0000
  0
LINE
  8
1
  6
CONTINUOUS
 62
     1
 10
 2.85723780989792E+0000
 20
 5.43895919062925E+0000
 11
 2.84431868577667E+0000
 21
 5.42604006650799E+0000
  0
LINE
  8
1
  6
CONTINUOUS
 62
     1
 10
 2.83114066486087E+0000
 20
 5.43351624978095E+0000
 11
 2.82667520792529E+0000
 21
 5.42905079284537E+0000
  0
LINE
  8
1
  6
CONTINUOUS
 62
     1
 10
 2.62247790420588E+0000
 20
 5.72006146325293E+0000
 11
 2.62247790420588E+0000
 21
 5.72006146325293E+0000
  0
LINE
  8
1
  6
CONTINUOUS
 62
     1
 10
 2.62247790420588E+0000
 20
 5.72006146325293E+0000
 11
 2.78176723085562E+0000
 21
 5.69287994188926E+0000
  0
LINE
  8
1
  6
CONTINUOUS
 62
     1
 10
 2.78176723085562E+0000
 20
 5.69287994188926E+0000
 11
 2.78176723085562E+0000
 21
 5.75328357936087E+0000
  0
LINE
  8
1
  6
CONTINUOUS
 62
     1
 10
 2.78176723085562E+0000
 20
 5.75328357936087E+0000
 11
 2.62247790420588E+0000
 21
 5.72006146325293E+0000
  0
LINE
  8
1
  6
CONTINUOUS
 62
     1
 10
 2.78176723085562E+0000
 20
 5.69287994188926E+0000
 11
 2.78176723085562E+0000
 21
 5.75328357936087E+0000
  0
LINE
  8
1
  6
CONTINUOUS
 62
     1
 10
 2.63492983416290E+0000
 20
 5.71793663538847E+0000
 11
 2.63102283595072E+0000
 21
 5.72184363359702E+0000
  0
LINE
  8
1
  6
CONTINUOUS
 62
     1
 10
 2.65983369408423E+0000
 20
 5.71368697965227E+0000
 11
 2.64811269944039E+0000
 21
 5.72540797429247E+0000
  0
LINE
  8
1
  6
CONTINUOUS
 62
     1
 10
 2.68473755400555E+0000
 20
 5.70943732391606E+0000
 11
 2.66520256293006E+0000
 21
 5.72897231498791E+0000
  0
LINE
  8
1
  6
CONTINUOUS
 62
     1
 10
 2.70964141392324E+0000
 20
 5.70518766817986E+0000
 11
 2.68229242642337E+0000
 21
 5.73253665568336E+0000
  0
LINE
  8
1
  6
CONTINUOUS
 62
     1
 10
 2.73454527384456E+0000
 20
 5.70093801245093E+0000
 11
 2.69938228991305E+0000
 21
 5.73610099637881E+0000
  0
LINE
  8
1
  6
CONTINUOUS
 62
     1
 10
 2.75944913376225E+0000
 20
 5.69668835671473E+0000
 11
 2.71647215340636E+0000
 21
 5.73966533706698E+0000
  0
LINE
  8
1
  6
CONTINUOUS
 62
     1
 10
 2.78176723085926E+0000
 20
 5.69502446380648E+0000
 11
 2.73356201689603E+0000
 21
 5.74322967776970E+0000
  0
LINE
  8
1
  6
CONTINUOUS
 62
     1
 10
 2.78176723085926E+0000
 20
 5.71567866799160E+0000
 11
 2.75065188038570E+0000
 21
 5.74679401845788E+0000
  0
LINE
  8
1
  6
CONTINUOUS
 62
     1
 10
 2.78176723085562E+0000
 20
 5.73633287217672E+0000
 11
 2.76774174387901E+0000
 21
 5.75035835915332E+0000
  0
LINE
  8
1
  6
CONTINUOUS
 62
     1
 10
 2.78176723085198E+0000
 20
 5.70320704397454E+0000
 11
 2.77294549192447E+0000
 21
 5.69438530504704E+0000
  0
LINE
  8
1
  6
CONTINUOUS
 62
     1
 10
 2.78176723085198E+0000
 20
 5.72386124815966E+0000
 11
 2.75530201407310E+0000
 21
 5.69739603137714E+0000
  0
LINE
  8
1
  6
CONTINUOUS
 62
     1
 10
 2.78176723085198E+0000
 20
 5.74451545234479E+0000
 11
 2.73765853621808E+0000
 21
 5.70040675771452E+0000
  0
LINE
  8
1
  6
CONTINUOUS
 62
     1
 10
 2.76674885119792E+0000
 20
 5.75015127687948E+0000
 11
 2.72001505837034E+0000
 21
 5.70341748405190E+0000
  0
LINE
  8
1
  6
CONTINUOUS
 62
     1
 10
 2.74065170616814E+0000
 20
 5.74470833603118E+0000
 11
 2.70237158051532E+0000
 21
 5.70642821038200E+0000
  0
LINE
  8
1
  6
CONTINUOUS
 62
     1
 10
 2.71455456113472E+0000
 20
 5.73926539518288E+0000
 11
 2.68472810266394E+0000
 21
 5.70943893671210E+0000
  0
LINE
  8
1
  6
CONTINUOUS
 62
     1
 10
 2.68845741610858E+0000
 20
 5.73382245434186E+0000
 11
 2.66708462480892E+0000
 21
 5.71244966304221E+0000
  0
LINE
  8
1
  6
CONTINUOUS
 62
     1
 10
 2.66236027107880E+0000
 20
 5.72837951350084E+0000
 11
 2.64944114695390E+0000
 21
 5.71546038937231E+0000
  0
LINE
  8
1
  6
CONTINUOUS
 62
     1
 10
 2.63626312604538E+0000
 20
 5.72293657265254E+0000
 11
 2.63179766910253E+0000
 21
 5.71847111570969E+0000
  0
LINE
  8
1
  6
CONTINUOUS
 62
     1
 10
 2.62247790420588E+0000
 20
 5.72006146325293E+0000
 11
 2.62247790420588E+0000
 21
 5.72006146325293E+0000
  0
LINE
  8
1
  6
CONTINUOUS
 62
     1
 10
 2.62247790420588E+0000
 20
 5.72006146325293E+0000
 11
 2.78176723085562E+0000
 21
 5.69287994188926E+0000
  0
LINE
  8
1
  6
CONTINUOUS
 62
     1
 10
 2.78176723085562E+0000
 20
 5.69287994188926E+0000
 11
 2.78176723085562E+0000
 21
 5.75328357936087E+0000
  0
LINE
  8
1
  6
CONTINUOUS
 62
     1
 10
 2.78176723085562E+0000
 20
 5.75328357936087E+0000
 11
 2.62247790420588E+0000
 21
 5.72006146325293E+0000
  0
LINE
  8
1
  6
CONTINUOUS
 62
     1
 10
 2.78176723085562E+0000
 20
 5.69287994188926E+0000
 11
 2.78176723085562E+0000
 21
 5.75328357936087E+0000
  0
LINE
  8
1
  6
CONTINUOUS
 62
     1
 10
 2.63492983416290E+0000
 20
 5.71793663538847E+0000
 11
 2.63102283595072E+0000
 21
 5.72184363359702E+0000
  0
LINE
  8
1
  6
CONTINUOUS
 62
     1
 10
 2.65983369408423E+0000
 20
 5.71368697965227E+0000
 11
 2.64811269944039E+0000
 21
 5.72540797429247E+0000
  0
LINE
  8
1
  6
CONTINUOUS
 62
     1
 10
 2.68473755400555E+0000
 20
 5.70943732391606E+0000
 11
 2.66520256293006E+0000
 21
 5.72897231498791E+0000
  0
LINE
  8
1
  6
CONTINUOUS
 62
     1
 10
 2.70964141392324E+0000
 20
 5.70518766817986E+0000
 11
 2.68229242642337E+0000
 21
 5.73253665568336E+0000
  0
LINE
  8
1
  6
CONTINUOUS
 62
     1
 10
 2.73454527384456E+0000
 20
 5.70093801245093E+0000
 11
 2.69938228991305E+0000
 21
 5.73610099637881E+0000
  0
LINE
  8
1
  6
CONTINUOUS
 62
     1
 10
 2.75944913376225E+0000
 20
 5.69668835671473E+0000
 11
 2.71647215340636E+0000
 21
 5.73966533706698E+0000
  0
LINE
  8
1
  6
CONTINUOUS
 62
     1
 10
 2.78176723085926E+0000
 20
 5.69502446380648E+0000
 11
 2.73356201689603E+0000
 21
 5.74322967776970E+0000
  0
LINE
  8
1
  6
CONTINUOUS
 62
     1
 10
 2.78176723085926E+0000
 20
 5.71567866799160E+0000
 11
 2.75065188038570E+0000
 21
 5.74679401845788E+0000
  0
LINE
  8
1
  6
CONTINUOUS
 62
     1
 10
 2.78176723085562E+0000
 20
 5.73633287217672E+0000
 11
 2.76774174387901E+0000
 21
 5.75035835915332E+0000
  0
LINE
  8
1
  6
CONTINUOUS
 62
     1
 10
 2.78176723085198E+0000
 20
 5.70320704397454E+0000
 11
 2.77294549192447E+0000
 21
 5.69438530504704E+0000
  0
LINE
  8
1
  6
CONTINUOUS
 62
     1
 10
 2.78176723085198E+0000
 20
 5.72386124815966E+0000
 11
 2.75530201407310E+0000
 21
 5.69739603137714E+0000
  0
LINE
  8
1
  6
CONTINUOUS
 62
     1
 10
 2.78176723085198E+0000
 20
 5.74451545234479E+0000
 11
 2.73765853621808E+0000
 21
 5.70040675771452E+0000
  0
LINE
  8
1
  6
CONTINUOUS
 62
     1
 10
 2.76674885119792E+0000
 20
 5.75015127687948E+0000
 11
 2.72001505837034E+0000
 21
 5.70341748405190E+0000
  0
LINE
  8
1
  6
CONTINUOUS
 62
     1
 10
 2.74065170616814E+0000
 20
 5.74470833603118E+0000
 11
 2.70237158051532E+0000
 21
 5.70642821038200E+0000
  0
LINE
  8
1
  6
CONTINUOUS
 62
     1
 10
 2.71455456113472E+0000
 20
 5.73926539518288E+0000
 11
 2.68472810266394E+0000
 21
 5.70943893671210E+0000
  0
LINE
  8
1
  6
CONTINUOUS
 62
     1
 10
 2.68845741610858E+0000
 20
 5.73382245434186E+0000
 11
 2.66708462480892E+0000
 21
 5.71244966304221E+0000
  0
LINE
  8
1
  6
CONTINUOUS
 62
     1
 10
 2.66236027107880E+0000
 20
 5.72837951350084E+0000
 11
 2.64944114695390E+0000
 21
 5.71546038937231E+0000
  0
LINE
  8
1
  6
CONTINUOUS
 62
     1
 10
 2.63626312604538E+0000
 20
 5.72293657265254E+0000
 11
 2.63179766910253E+0000
 21
 5.71847111570969E+0000
  0
LINE
  8
1
  6
CONTINUOUS
 62
     1
 10
 4.76522650324478E+0000
 20
 5.43166403757641E+0000
 11
 4.76522650324478E+0000
 21
 5.43166403757641E+0000
  0
LINE
  8
1
  6
CONTINUOUS
 62
     1
 10
 4.76522650324478E+0000
 20
 5.43166403757641E+0000
 11
 4.60593717660959E+0000
 21
 5.45884555894008E+0000
  0
LINE
  8
1
  6
CONTINUOUS
 62
     1
 10
 4.60593717660959E+0000
 20
 5.45884555894008E+0000
 11
 4.60593717660959E+0000
 21
 5.39844192146847E+0000
  0
LINE
  8
1
  6
CONTINUOUS
 62
     1
 10
 4.60593717660959E+0000
 20
 5.39844192146847E+0000
 11
 4.76522650324478E+0000
 21
 5.43166403757641E+0000
  0
LINE
  8
1
  6
CONTINUOUS
 62
     1
 10
 4.60593717660959E+0000
 20
 5.45884555894008E+0000
 11
 4.60593717660959E+0000
 21
 5.39844192146847E+0000
  0
LINE
  8
1
  6
CONTINUOUS
 62
     1
 10
 4.61448210835806E+0000
 20
 5.40022409181984E+0000
 11
 4.60593717660959E+0000
 21
 5.40876902356104E+0000
  0
LINE
  8
1
  6
CONTINUOUS
 62
     1
 10
 4.63157197184773E+0000
 20
 5.40378843251528E+0000
 11
 4.60593717660959E+0000
 21
 5.42942322774616E+0000
  0
LINE
  8
1
  6
CONTINUOUS
 62
     1
 10
 4.64866183533741E+0000
 20
 5.40735277320346E+0000
 11
 4.60593717660959E+0000
 21
 5.45007743193128E+0000
  0
LINE
  8
1
  6
CONTINUOUS
 62
     1
 10
 4.66575169882708E+0000
 20
 5.41091711389890E+0000
 11
 4.62026884478837E+0000
 21
 5.45639996793761E+0000
  0
LINE
  8
1
  6
CONTINUOUS
 62
     1
 10
 4.68284156231675E+0000
 20
 5.41448145459435E+0000
 11
 4.64517270470969E+0000
 21
 5.45215031220141E+0000
  0
LINE
  8
1
  6
CONTINUOUS
 62
     1
 10
 4.69993142580643E+0000
 20
 5.41804579528980E+0000
 11
 4.67007656463102E+0000
 21
 5.44790065646521E+0000
  0
LINE
  8
1
  6
CONTINUOUS
 62
     1
 10
 4.71702128929610E+0000
 20
 5.42161013598525E+0000
 11
 4.69498042455234E+0000
 21
 5.44365100072901E+0000
  0
LINE
  8
1
  6
CONTINUOUS
 62
     1
 10
 4.73411115278577E+0000
 20
 5.42517447668070E+0000
 11
 4.71988428447366E+0000
 21
 5.43940134499280E+0000
  0
LINE
  8
1
  6
CONTINUOUS
 62
     1
 10
 4.75120101628272E+0000
 20
 5.42873881737614E+0000
 11
 4.74478814439499E+0000
 21
 5.43515168926388E+0000
  0
LINE
  8
1
  6
CONTINUOUS
 62
     1
 10
 4.75640476430999E+0000
 20
 5.43316940073419E+0000
 11
 4.75217793072807E+0000
 21
 5.42894256715226E+0000
  0
LINE
  8
1
  6
CONTINUOUS
 62
     1
 10
 4.73876128646225E+0000
 20
 5.43618012707157E+0000
 11
 4.72608078569465E+0000
 21
 5.42349962630396E+0000
  0
LINE
  8
1
  6
CONTINUOUS
 62
     1
 10
 4.72111780860723E+0000
 20
 5.43919085340167E+0000
 11
 4.69998364066123E+0000
 21
 5.41805668545567E+0000
  0
LINE
  8
1
  6
CONTINUOUS
 62
     1
 10
 4.70347433075221E+0000
 20
 5.44220157973177E+0000
 11
 4.67388649562781E+0000
 21
 5.41261374460737E+0000
  0
LINE
  8
1
  6
CONTINUOUS
 62
     1
 10
 4.68583085290447E+0000
 20
 5.44521230606915E+0000
 11
 4.64778935060167E+0000
 21
 5.40717080376635E+0000
  0
LINE
  8
1
  6
CONTINUOUS
 62
     1
 10
 4.66818737504946E+0000
 20
 5.44822303239926E+0000
 11
 4.62169220556825E+0000
 21
 5.40172786291805E+0000
  0
LINE
  8
1
  6
CONTINUOUS
 62
     1
 10
 4.65054389719444E+0000
 20
 5.45123375873663E+0000
 11
 4.60593717660959E+0000
 21
 5.40662703814451E+0000
  0
LINE
  8
1
  6
CONTINUOUS
 62
     1
 10
 4.63290041934670E+0000
 20
 5.45424448506674E+0000
 11
 4.60593717660959E+0000
 21
 5.42728124232963E+0000
  0
LINE
  8
1
  6
CONTINUOUS
 62
     1
 10
 4.61525694149168E+0000
 20
 5.45725521139684E+0000
 11
 4.60593717660959E+0000
 21
 5.44793544651475E+0000
  0
LINE
  8
1
  6
CONTINUOUS
 62
     1
 10
 4.76522650324478E+0000
 20
 5.43166403757641E+0000
 11
 4.76522650324478E+0000
 21
 5.43166403757641E+0000
  0
LINE
  8
1
  6
CONTINUOUS
 62
     1
 10
 4.76522650324478E+0000
 20
 5.43166403757641E+0000
 11
 4.60593717660959E+0000
 21
 5.45884555894008E+0000
  0
LINE
  8
1
  6
CONTINUOUS
 62
     1
 10
 4.60593717660959E+0000
 20
 5.45884555894008E+0000
 11
 4.60593717660959E+0000
 21
 5.39844192146847E+0000
  0
LINE
  8
1
  6
CONTINUOUS
 62
     1
 10
 4.60593717660959E+0000
 20
 5.39844192146847E+0000
 11
 4.76522650324478E+0000
 21
 5.43166403757641E+0000
  0
LINE
  8
1
  6
CONTINUOUS
 62
     1
 10
 4.60593717660959E+0000
 20
 5.45884555894008E+0000
 11
 4.60593717660959E+0000
 21
 5.39844192146847E+0000
  0
LINE
  8
1
  6
CONTINUOUS
 62
     1
 10
 4.61448210835806E+0000
 20
 5.40022409181984E+0000
 11
 4.60593717660959E+0000
 21
 5.40876902356104E+0000
  0
LINE
  8
1
  6
CONTINUOUS
 62
     1
 10
 4.63157197184773E+0000
 20
 5.40378843251528E+0000
 11
 4.60593717660959E+0000
 21
 5.42942322774616E+0000
  0
LINE
  8
1
  6
CONTINUOUS
 62
     1
 10
 4.64866183533741E+0000
 20
 5.40735277320346E+0000
 11
 4.60593717660959E+0000
 21
 5.45007743193128E+0000
  0
LINE
  8
1
  6
CONTINUOUS
 62
     1
 10
 4.66575169882708E+0000
 20
 5.41091711389890E+0000
 11
 4.62026884478837E+0000
 21
 5.45639996793761E+0000
  0
LINE
  8
1
  6
CONTINUOUS
 62
     1
 10
 4.68284156231675E+0000
 20
 5.41448145459435E+0000
 11
 4.64517270470969E+0000
 21
 5.45215031220141E+0000
  0
LINE
  8
1
  6
CONTINUOUS
 62
     1
 10
 4.69993142580643E+0000
 20
 5.41804579528980E+0000
 11
 4.67007656463102E+0000
 21
 5.44790065646521E+0000
  0
LINE
  8
1
  6
CONTINUOUS
 62
     1
 10
 4.71702128929610E+0000
 20
 5.42161013598525E+0000
 11
 4.69498042455234E+0000
 21
 5.44365100072901E+0000
  0
LINE
  8
1
  6
CONTINUOUS
 62
     1
 10
 4.73411115278577E+0000
 20
 5.42517447668070E+0000
 11
 4.71988428447366E+0000
 21
 5.43940134499280E+0000
  0
LINE
  8
1
  6
CONTINUOUS
 62
     1
 10
 4.75120101628272E+0000
 20
 5.42873881737614E+0000
 11
 4.74478814439499E+0000
 21
 5.43515168926388E+0000
  0
LINE
  8
1
  6
CONTINUOUS
 62
     1
 10
 4.75640476430999E+0000
 20
 5.43316940073419E+0000
 11
 4.75217793072807E+0000
 21
 5.42894256715226E+0000
  0
LINE
  8
1
  6
CONTINUOUS
 62
     1
 10
 4.73876128646225E+0000
 20
 5.43618012707157E+0000
 11
 4.72608078569465E+0000
 21
 5.42349962630396E+0000
  0
LINE
  8
1
  6
CONTINUOUS
 62
     1
 10
 4.72111780860723E+0000
 20
 5.43919085340167E+0000
 11
 4.69998364066123E+0000
 21
 5.41805668545567E+0000
  0
LINE
  8
1
  6
CONTINUOUS
 62
     1
 10
 4.70347433075221E+0000
 20
 5.44220157973177E+0000
 11
 4.67388649562781E+0000
 21
 5.41261374460737E+0000
  0
LINE
  8
1
  6
CONTINUOUS
 62
     1
 10
 4.68583085290447E+0000
 20
 5.44521230606915E+0000
 11
 4.64778935060167E+0000
 21
 5.40717080376635E+0000
  0
LINE
  8
1
  6
CONTINUOUS
 62
     1
 10
 4.66818737504946E+0000
 20
 5.44822303239926E+0000
 11
 4.62169220556825E+0000
 21
 5.40172786291805E+0000
  0
LINE
  8
1
  6
CONTINUOUS
 62
     1
 10
 4.65054389719444E+0000
 20
 5.45123375873663E+0000
 11
 4.60593717660959E+0000
 21
 5.40662703814451E+0000
  0
LINE
  8
1
  6
CONTINUOUS
 62
     1
 10
 4.63290041934670E+0000
 20
 5.45424448506674E+0000
 11
 4.60593717660959E+0000
 21
 5.42728124232963E+0000
  0
LINE
  8
1
  6
CONTINUOUS
 62
     1
 10
 4.61525694149168E+0000
 20
 5.45725521139684E+0000
 11
 4.60593717660959E+0000
 21
 5.44793544651475E+0000
  0
LINE
  8
1
  6
CONTINUOUS
 62
     1
 10
 4.96010404206754E+0000
 20
 5.72108436044073E+0000
 11
 4.96010404206754E+0000
 21
 5.72108436044073E+0000
  0
LINE
  8
1
  6
CONTINUOUS
 62
     1
 10
 4.96010404206754E+0000
 20
 5.72108436044073E+0000
 11
 4.80081471543235E+0000
 21
 5.74826588180440E+0000
  0
LINE
  8
1
  6
CONTINUOUS
 62
     1
 10
 4.80081471543235E+0000
 20
 5.74826588180440E+0000
 11
 4.80081471543235E+0000
 21
 5.68786224433279E+0000
  0
LINE
  8
1
  6
CONTINUOUS
 62
     1
 10
 4.80081471543235E+0000
 20
 5.68786224433279E+0000
 11
 4.96010404206754E+0000
 21
 5.72108436044073E+0000
  0
LINE
  8
1
  6
CONTINUOUS
 62
     1
 10
 4.80081471543235E+0000
 20
 5.74826588180440E+0000
 11
 4.80081471543235E+0000
 21
 5.68786224433279E+0000
  0
LINE
  8
1
  6
CONTINUOUS
 62
     1
 10
 4.80935964718083E+0000
 20
 5.68964441468415E+0000
 11
 4.80081471543235E+0000
 21
 5.69818934643263E+0000
  0
LINE
  8
1
  6
CONTINUOUS
 62
     1
 10
 4.82644951067050E+0000
 20
 5.69320875537960E+0000
 11
 4.80081471543235E+0000
 21
 5.71884355061775E+0000
  0
LINE
  8
1
  6
CONTINUOUS
 62
     1
 10
 4.84353937416017E+0000
 20
 5.69677309607505E+0000
 11
 4.80081471543235E+0000
 21
 5.73949775480287E+0000
  0
LINE
  8
1
  6
CONTINUOUS
 62
     1
 10
 4.86062923764985E+0000
 20
 5.70033743676322E+0000
 11
 4.81514638362569E+0000
 21
 5.74582029079465E+0000
  0
LINE
  8
1
  6
CONTINUOUS
 62
     1
 10
 4.87771910114679E+0000
 20
 5.70390177745867E+0000
 11
 4.84005024354701E+0000
 21
 5.74157063505845E+0000
  0
LINE
  8
1
  6
CONTINUOUS
 62
     1
 10
 4.89480896463647E+0000
 20
 5.70746611815412E+0000
 11
 4.86495410346834E+0000
 21
 5.73732097932225E+0000
  0
LINE
  8
1
  6
CONTINUOUS
 62
     1
 10
 4.91189882812614E+0000
 20
 5.71103045884956E+0000
 11
 4.88985796338238E+0000
 21
 5.73307132359332E+0000
  0
LINE
  8
1
  6
CONTINUOUS
 62
     1
 10
 4.92898869161581E+0000
 20
 5.71459479954501E+0000
 11
 4.91476182330371E+0000
 21
 5.72882166785712E+0000
  0
LINE
  8
1
  6
CONTINUOUS
 62
     1
 10
 4.94607855510549E+0000
 20
 5.71815914024046E+0000
 11
 4.93966568322503E+0000
 21
 5.72457201212092E+0000
  0
LINE
  8
1
  6
CONTINUOUS
 62
     1
 10
 4.95128230314003E+0000
 20
 5.72258972360578E+0000
 11
 4.94705546955083E+0000
 21
 5.71836289001658E+0000
  0
LINE
  8
1
  6
CONTINUOUS
 62
     1
 10
 4.93363882528502E+0000
 20
 5.72560044993588E+0000
 11
 4.92095832451741E+0000
 21
 5.71291994916828E+0000
  0
LINE
  8
1
  6
CONTINUOUS
 62
     1
 10
 4.91599534743000E+0000
 20
 5.72861117626599E+0000
 11
 4.89486117948400E+0000
 21
 5.70747700831998E+0000
  0
LINE
  8
1
  6
CONTINUOUS
 62
     1
 10
 4.89835186958226E+0000
 20
 5.73162190260337E+0000
 11
 4.86876403445058E+0000
 21
 5.70203406747169E+0000
  0
LINE
  8
1
  6
CONTINUOUS
 62
     1
 10
 4.88070839172724E+0000
 20
 5.73463262893347E+0000
 11
 4.84266688941716E+0000
 21
 5.69659112662339E+0000
  0
LINE
  8
1
  6
CONTINUOUS
 62
     1
 10
 4.86306491387222E+0000
 20
 5.73764335526357E+0000
 11
 4.81656974438374E+0000
 21
 5.69114818577509E+0000
  0
LINE
  8
1
  6
CONTINUOUS
 62
     1
 10
 4.84542143602448E+0000
 20
 5.74065408160095E+0000
 11
 4.80081471542508E+0000
 21
 5.69604736100155E+0000
  0
LINE
  8
1
  6
CONTINUOUS
 62
     1
 10
 4.82777795816946E+0000
 20
 5.74366480793105E+0000
 11
 4.80081471542508E+0000
 21
 5.71670156518667E+0000
  0
LINE
  8
1
  6
CONTINUOUS
 62
     1
 10
 4.81013448031445E+0000
 20
 5.74667553426116E+0000
 11
 4.80081471543235E+0000
 21
 5.73735576937906E+0000
  0
LINE
  8
1
  6
CONTINUOUS
 62
     1
 10
 4.96010404206754E+0000
 20
 5.72108436044073E+0000
 11
 4.96010404206754E+0000
 21
 5.72108436044073E+0000
  0
LINE
  8
1
  6
CONTINUOUS
 62
     1
 10
 4.96010404206754E+0000
 20
 5.72108436044073E+0000
 11
 4.80081471543235E+0000
 21
 5.74826588180440E+0000
  0
LINE
  8
1
  6
CONTINUOUS
 62
     1
 10
 4.80081471543235E+0000
 20
 5.74826588180440E+0000
 11
 4.80081471543235E+0000
 21
 5.68786224433279E+0000
  0
LINE
  8
1
  6
CONTINUOUS
 62
     1
 10
 4.80081471543235E+0000
 20
 5.68786224433279E+0000
 11
 4.96010404206754E+0000
 21
 5.72108436044073E+0000
  0
LINE
  8
1
  6
CONTINUOUS
 62
     1
 10
 4.80081471543235E+0000
 20
 5.74826588180440E+0000
 11
 4.80081471543235E+0000
 21
 5.68786224433279E+0000
  0
LINE
  8
1
  6
CONTINUOUS
 62
     1
 10
 4.80935964718083E+0000
 20
 5.68964441468415E+0000
 11
 4.80081471543235E+0000
 21
 5.69818934643263E+0000
  0
LINE
  8
1
  6
CONTINUOUS
 62
     1
 10
 4.82644951067050E+0000
 20
 5.69320875537960E+0000
 11
 4.80081471543235E+0000
 21
 5.71884355061775E+0000
  0
LINE
  8
1
  6
CONTINUOUS
 62
     1
 10
 4.84353937416017E+0000
 20
 5.69677309607505E+0000
 11
 4.80081471543235E+0000
 21
 5.73949775480287E+0000
  0
LINE
  8
1
  6
CONTINUOUS
 62
     1
 10
 4.86062923764985E+0000
 20
 5.70033743676322E+0000
 11
 4.81514638362569E+0000
 21
 5.74582029079465E+0000
  0
LINE
  8
1
  6
CONTINUOUS
 62
     1
 10
 4.87771910114679E+0000
 20
 5.70390177745867E+0000
 11
 4.84005024354701E+0000
 21
 5.74157063505845E+0000
  0
LINE
  8
1
  6
CONTINUOUS
 62
     1
 10
 4.89480896463647E+0000
 20
 5.70746611815412E+0000
 11
 4.86495410346834E+0000
 21
 5.73732097932225E+0000
  0
LINE
  8
1
  6
CONTINUOUS
 62
     1
 10
 4.91189882812614E+0000
 20
 5.71103045884956E+0000
 11
 4.88985796338238E+0000
 21
 5.73307132359332E+0000
  0
LINE
  8
1
  6
CONTINUOUS
 62
     1
 10
 4.92898869161581E+0000
 20
 5.71459479954501E+0000
 11
 4.91476182330371E+0000
 21
 5.72882166785712E+0000
  0
LINE
  8
1
  6
CONTINUOUS
 62
     1
 10
 4.94607855510549E+0000
 20
 5.71815914024046E+0000
 11
 4.93966568322503E+0000
 21
 5.72457201212092E+0000
  0
LINE
  8
1
  6
CONTINUOUS
 62
     1
 10
 4.95128230314003E+0000
 20
 5.72258972360578E+0000
 11
 4.94705546955083E+0000
 21
 5.71836289001658E+0000
  0
LINE
  8
1
  6
CONTINUOUS
 62
     1
 10
 4.93363882528502E+0000
 20
 5.72560044993588E+0000
 11
 4.92095832451741E+0000
 21
 5.71291994916828E+0000
  0
LINE
  8
1
  6
CONTINUOUS
 62
     1
 10
 4.91599534743000E+0000
 20
 5.72861117626599E+0000
 11
 4.89486117948400E+0000
 21
 5.70747700831998E+0000
  0
LINE
  8
1
  6
CONTINUOUS
 62
     1
 10
 4.89835186958226E+0000
 20
 5.73162190260337E+0000
 11
 4.86876403445058E+0000
 21
 5.70203406747169E+0000
  0
LINE
  8
1
  6
CONTINUOUS
 62
     1
 10
 4.88070839172724E+0000
 20
 5.73463262893347E+0000
 11
 4.84266688941716E+0000
 21
 5.69659112662339E+0000
  0
LINE
  8
1
  6
CONTINUOUS
 62
     1
 10
 4.86306491387222E+0000
 20
 5.73764335526357E+0000
 11
 4.81656974438374E+0000
 21
 5.69114818577509E+0000
  0
LINE
  8
1
  6
CONTINUOUS
 62
     1
 10
 4.84542143602448E+0000
 20
 5.74065408160095E+0000
 11
 4.80081471542508E+0000
 21
 5.69604736100155E+0000
  0
LINE
  8
1
  6
CONTINUOUS
 62
     1
 10
 4.82777795816946E+0000
 20
 5.74366480793105E+0000
 11
 4.80081471542508E+0000
 21
 5.71670156518667E+0000
  0
LINE
  8
1
  6
CONTINUOUS
 62
     1
 10
 4.81013448031445E+0000
 20
 5.74667553426116E+0000
 11
 4.80081471543235E+0000
 21
 5.73735576937906E+0000
  0
LINE
  8
1
  6
CONTINUOUS
 62
     1
 10
 3.95053224287039E+0000
 20
 2.52196689559423E+0000
 11
 3.95053224287039E+0000
 21
 2.52196689559423E+0000
  0
LINE
  8
1
  6
CONTINUOUS
 62
     1
 10
 3.95053224287039E+0000
 20
 2.52196689559423E+0000
 11
 4.10982156952377E+0000
 21
 2.49478537423056E+0000
  0
LINE
  8
1
  6
CONTINUOUS
 62
     1
 10
 4.10982156952377E+0000
 20
 2.49478537423056E+0000
 11
 4.10982156952377E+0000
 21
 2.55518901170217E+0000
  0
LINE
  8
1
  6
CONTINUOUS
 62
     1
 10
 4.10982156952377E+0000
 20
 2.55518901170217E+0000
 11
 3.95053224287039E+0000
 21
 2.52196689559423E+0000
  0
LINE
  8
1
  6
CONTINUOUS
 62
     1
 10
 4.10982156952377E+0000
 20
 2.49478537423056E+0000
 11
 4.10982156952377E+0000
 21
 2.55518901170217E+0000
  0
LINE
  8
1
  6
CONTINUOUS
 62
     1
 10
 3.96298417283469E+0000
 20
 2.51984206772977E+0000
 11
 3.95907717461887E+0000
 21
 2.52374906594196E+0000
  0
LINE
  8
1
  6
CONTINUOUS
 62
     1
 10
 3.98788803275238E+0000
 20
 2.51559241199720E+0000
 11
 3.97616703810854E+0000
 21
 2.52731340663740E+0000
  0
LINE
  8
1
  6
CONTINUOUS
 62
     1
 10
 4.01279189267370E+0000
 20
 2.51134275626100E+0000
 11
 3.99325690160185E+0000
 21
 2.53087774733285E+0000
  0
LINE
  8
1
  6
CONTINUOUS
 62
     1
 10
 4.03769575259503E+0000
 20
 2.50709310052844E+0000
 11
 4.01034676509153E+0000
 21
 2.53444208802830E+0000
  0
LINE
  8
1
  6
CONTINUOUS
 62
     1
 10
 4.06259961250908E+0000
 20
 2.50284344479223E+0000
 11
 4.02743662858120E+0000
 21
 2.53800642872011E+0000
  0
LINE
  8
1
  6
CONTINUOUS
 62
     1
 10
 4.08750347243040E+0000
 20
 2.49859378905967E+0000
 11
 4.04452649207087E+0000
 21
 2.54157076941556E+0000
  0
LINE
  8
1
  6
CONTINUOUS
 62
     1
 10
 4.10982156952377E+0000
 20
 2.49692989614778E+0000
 11
 4.06161635556782E+0000
 21
 2.54513511010737E+0000
  0
LINE
  8
1
  6
CONTINUOUS
 62
     1
 10
 4.10982156952377E+0000
 20
 2.51758410033290E+0000
 11
 4.07870621905749E+0000
 21
 2.54869945080281E+0000
  0
LINE
  8
1
  6
CONTINUOUS
 62
     1
 10
 4.10982156952377E+0000
 20
 2.53823830451802E+0000
 11
 4.09579608254717E+0000
 21
 2.55226379149826E+0000
  0
LINE
  8
1
  6
CONTINUOUS
 62
     1
 10
 4.10982156951650E+0000
 20
 2.50511247631948E+0000
 11
 4.10099983058899E+0000
 21
 2.49629073739197E+0000
  0
LINE
  8
1
  6
CONTINUOUS
 62
     1
 10
 4.10982156951650E+0000
 20
 2.52576668050460E+0000
 11
 4.08335635274125E+0000
 21
 2.49930146372571E+0000
  0
LINE
  8
1
  6
CONTINUOUS
 62
     1
 10
 4.10982156951650E+0000
 20
 2.54642088468972E+0000
 11
 4.06571287488623E+0000
 21
 2.50231219005582E+0000
  0
LINE
  8
1
  6
CONTINUOUS
 62
     1
 10
 4.09480318986607E+0000
 20
 2.55205670922078E+0000
 11
 4.04806939703121E+0000
 21
 2.50532291638956E+0000
  0
LINE
  8
1
  6
CONTINUOUS
 62
     1
 10
 4.06870604483993E+0000
 20
 2.54661376837976E+0000
 11
 4.03042591917620E+0000
 21
 2.50833364271966E+0000
  0
LINE
  8
1
  6
CONTINUOUS
 62
     1
 10
 4.04260889980651E+0000
 20
 2.54117082753146E+0000
 11
 4.01278244132118E+0000
 21
 2.51134436905340E+0000
  0
LINE
  8
1
  6
CONTINUOUS
 62
     1
 10
 4.01651175476582E+0000
 20
 2.53572788668316E+0000
 11
 3.99513896346980E+0000
 21
 2.51435509538351E+0000
  0
LINE
  8
1
  6
CONTINUOUS
 62
     1
 10
 3.99041460973967E+0000
 20
 2.53028494583850E+0000
 11
 3.97749548561842E+0000
 21
 2.51736582171361E+0000
  0
LINE
  8
1
  6
CONTINUOUS
 62
     1
 10
 3.96431746470626E+0000
 20
 2.52484200499021E+0000
 11
 3.95985200776704E+0000
 21
 2.52037654805099E+0000
  0
LINE
  8
1
  6
CONTINUOUS
 62
     1
 10
 3.95053224287039E+0000
 20
 2.52196689559423E+0000
 11
 3.95053224287039E+0000
 21
 2.52196689559423E+0000
  0
LINE
  8
1
  6
CONTINUOUS
 62
     1
 10
 3.95053224287039E+0000
 20
 2.52196689559423E+0000
 11
 4.10982156952377E+0000
 21
 2.49478537423056E+0000
  0
LINE
  8
1
  6
CONTINUOUS
 62
     1
 10
 4.10982156952377E+0000
 20
 2.49478537423056E+0000
 11
 4.10982156952377E+0000
 21
 2.55518901170217E+0000
  0
LINE
  8
1
  6
CONTINUOUS
 62
     1
 10
 4.10982156952377E+0000
 20
 2.55518901170217E+0000
 11
 3.95053224287039E+0000
 21
 2.52196689559423E+0000
  0
LINE
  8
1
  6
CONTINUOUS
 62
     1
 10
 4.10982156952377E+0000
 20
 2.49478537423056E+0000
 11
 4.10982156952377E+0000
 21
 2.55518901170217E+0000
  0
LINE
  8
1
  6
CONTINUOUS
 62
     1
 10
 3.96298417283469E+0000
 20
 2.51984206772977E+0000
 11
 3.95907717461887E+0000
 21
 2.52374906594196E+0000
  0
LINE
  8
1
  6
CONTINUOUS
 62
     1
 10
 3.98788803275238E+0000
 20
 2.51559241199720E+0000
 11
 3.97616703810854E+0000
 21
 2.52731340663740E+0000
  0
LINE
  8
1
  6
CONTINUOUS
 62
     1
 10
 4.01279189267370E+0000
 20
 2.51134275626100E+0000
 11
 3.99325690160185E+0000
 21
 2.53087774733285E+0000
  0
LINE
  8
1
  6
CONTINUOUS
 62
     1
 10
 4.03769575259503E+0000
 20
 2.50709310052844E+0000
 11
 4.01034676509153E+0000
 21
 2.53444208802830E+0000
  0
LINE
  8
1
  6
CONTINUOUS
 62
     1
 10
 4.06259961250908E+0000
 20
 2.50284344479223E+0000
 11
 4.02743662858120E+0000
 21
 2.53800642872011E+0000
  0
LINE
  8
1
  6
CONTINUOUS
 62
     1
 10
 4.08750347243040E+0000
 20
 2.49859378905967E+0000
 11
 4.04452649207087E+0000
 21
 2.54157076941556E+0000
  0
LINE
  8
1
  6
CONTINUOUS
 62
     1
 10
 4.10982156952377E+0000
 20
 2.49692989614778E+0000
 11
 4.06161635556782E+0000
 21
 2.54513511010737E+0000
  0
LINE
  8
1
  6
CONTINUOUS
 62
     1
 10
 4.10982156952377E+0000
 20
 2.51758410033290E+0000
 11
 4.07870621905749E+0000
 21
 2.54869945080281E+0000
  0
LINE
  8
1
  6
CONTINUOUS
 62
     1
 10
 4.10982156952377E+0000
 20
 2.53823830451802E+0000
 11
 4.09579608254717E+0000
 21
 2.55226379149826E+0000
  0
LINE
  8
1
  6
CONTINUOUS
 62
     1
 10
 4.10982156951650E+0000
 20
 2.50511247631948E+0000
 11
 4.10099983058899E+0000
 21
 2.49629073739197E+0000
  0
LINE
  8
1
  6
CONTINUOUS
 62
     1
 10
 4.10982156951650E+0000
 20
 2.52576668050460E+0000
 11
 4.08335635274125E+0000
 21
 2.49930146372571E+0000
  0
LINE
  8
1
  6
CONTINUOUS
 62
     1
 10
 4.10982156951650E+0000
 20
 2.54642088468972E+0000
 11
 4.06571287488623E+0000
 21
 2.50231219005582E+0000
  0
LINE
  8
1
  6
CONTINUOUS
 62
     1
 10
 4.09480318986607E+0000
 20
 2.55205670922078E+0000
 11
 4.04806939703121E+0000
 21
 2.50532291638956E+0000
  0
LINE
  8
1
  6
CONTINUOUS
 62
     1
 10
 4.06870604483993E+0000
 20
 2.54661376837976E+0000
 11
 4.03042591917620E+0000
 21
 2.50833364271966E+0000
  0
LINE
  8
1
  6
CONTINUOUS
 62
     1
 10
 4.04260889980651E+0000
 20
 2.54117082753146E+0000
 11
 4.01278244132118E+0000
 21
 2.51134436905340E+0000
  0
LINE
  8
1
  6
CONTINUOUS
 62
     1
 10
 4.01651175476582E+0000
 20
 2.53572788668316E+0000
 11
 3.99513896346980E+0000
 21
 2.51435509538351E+0000
  0
LINE
  8
1
  6
CONTINUOUS
 62
     1
 10
 3.99041460973967E+0000
 20
 2.53028494583850E+0000
 11
 3.97749548561842E+0000
 21
 2.51736582171361E+0000
  0
LINE
  8
1
  6
CONTINUOUS
 62
     1
 10
 3.96431746470626E+0000
 20
 2.52484200499021E+0000
 11
 3.95985200776704E+0000
 21
 2.52037654805099E+0000
  0
LINE
  8
1
  6
CONTINUOUS
 62
     1
 10
 3.63926739002636E+0000
 20
 2.52298979278203E+0000
 11
 3.63926739002636E+0000
 21
 2.52298979278203E+0000
  0
LINE
  8
1
  6
CONTINUOUS
 62
     1
 10
 3.63926739002636E+0000
 20
 2.52298979278203E+0000
 11
 3.47997806339117E+0000
 21
 2.55017131414570E+0000
  0
LINE
  8
1
  6
CONTINUOUS
 62
     1
 10
 3.47997806339117E+0000
 20
 2.55017131414570E+0000
 11
 3.47997806339117E+0000
 21
 2.48976767667409E+0000
  0
LINE
  8
1
  6
CONTINUOUS
 62
     1
 10
 3.47997806339117E+0000
 20
 2.48976767667409E+0000
 11
 3.63926739002636E+0000
 21
 2.52298979278203E+0000
  0
LINE
  8
1
  6
CONTINUOUS
 62
     1
 10
 3.47997806339117E+0000
 20
 2.55017131414570E+0000
 11
 3.47997806339117E+0000
 21
 2.48976767667409E+0000
  0
LINE
  8
1
  6
CONTINUOUS
 62
     1
 10
 3.48852299513965E+0000
 20
 2.49154984702182E+0000
 11
 3.47997806339117E+0000
 21
 2.50009477876665E+0000
  0
LINE
  8
1
  6
CONTINUOUS
 62
     1
 10
 3.50561285862932E+0000
 20
 2.49511418771726E+0000
 11
 3.47997806339117E+0000
 21
 2.52074898295541E+0000
  0
LINE
  8
1
  6
CONTINUOUS
 62
     1
 10
 3.52270272211899E+0000
 20
 2.49867852841271E+0000
 11
 3.47997806339117E+0000
 21
 2.54140318714053E+0000
  0
LINE
  8
1
  6
CONTINUOUS
 62
     1
 10
 3.53979258560867E+0000
 20
 2.50224286910816E+0000
 11
 3.49430973158087E+0000
 21
 2.54772572313595E+0000
  0
LINE
  8
1
  6
CONTINUOUS
 62
     1
 10
 3.55688244910198E+0000
 20
 2.50580720979997E+0000
 11
 3.51921359149856E+0000
 21
 2.54347606740339E+0000
  0
LINE
  8
1
  6
CONTINUOUS
 62
     1
 10
 3.57397231259165E+0000
 20
 2.50937155049542E+0000
 11
 3.54411745141988E+0000
 21
 2.53922641166719E+0000
  0
LINE
  8
1
  6
CONTINUOUS
 62
     1
 10
 3.59106217608132E+0000
 20
 2.51293589119086E+0000
 11
 3.56902131133756E+0000
 21
 2.53497675593462E+0000
  0
LINE
  8
1
  6
CONTINUOUS
 62
     1
 10
 3.60815203957100E+0000
 20
 2.51650023188631E+0000
 11
 3.59392517125889E+0000
 21
 2.53072710019842E+0000
  0
LINE
  8
1
  6
CONTINUOUS
 62
     1
 10
 3.62524190306067E+0000
 20
 2.52006457258176E+0000
 11
 3.61882903117657E+0000
 21
 2.52647744446585E+0000
  0
LINE
  8
1
  6
CONTINUOUS
 62
     1
 10
 3.63044565109522E+0000
 20
 2.52449515594344E+0000
 11
 3.62621881750601E+0000
 21
 2.52026832235788E+0000
  0
LINE
  8
1
  6
CONTINUOUS
 62
     1
 10
 3.61280217324020E+0000
 20
 2.52750588227718E+0000
 11
 3.60012167247260E+0000
 21
 2.51482538150958E+0000
  0
LINE
  8
1
  6
CONTINUOUS
 62
     1
 10
 3.59515869538882E+0000
 20
 2.53051660860729E+0000
 11
 3.57402452744645E+0000
 21
 2.50938244066492E+0000
  0
LINE
  8
1
  6
CONTINUOUS
 62
     1
 10
 3.57751521754108E+0000
 20
 2.53352733494467E+0000
 11
 3.54792738240940E+0000
 21
 2.50393949981662E+0000
  0
LINE
  8
1
  6
CONTINUOUS
 62
     1
 10
 3.55987173968606E+0000
 20
 2.53653806127841E+0000
 11
 3.52183023738326E+0000
 21
 2.49849655897196E+0000
  0
LINE
  8
1
  6
CONTINUOUS
 62
     1
 10
 3.54222826183104E+0000
 20
 2.53954878760851E+0000
 11
 3.49573309234984E+0000
 21
 2.49305361812367E+0000
  0
LINE
  8
1
  6
CONTINUOUS
 62
     1
 10
 3.52458478397966E+0000
 20
 2.54255951393861E+0000
 11
 3.47997806338753E+0000
 21
 2.49795279335012E+0000
  0
LINE
  8
1
  6
CONTINUOUS
 62
     1
 10
 3.50694130612465E+0000
 20
 2.54557024027235E+0000
 11
 3.47997806338753E+0000
 21
 2.51860699753524E+0000
  0
LINE
  8
1
  6
CONTINUOUS
 62
     1
 10
 3.48929782827327E+0000
 20
 2.54858096660246E+0000
 11
 3.47997806338753E+0000
 21
 2.53926120172036E+0000
  0
LINE
  8
1
  6
CONTINUOUS
 62
     1
 10
 3.63926739002636E+0000
 20
 2.52298979278203E+0000
 11
 3.63926739002636E+0000
 21
 2.52298979278203E+0000
  0
LINE
  8
1
  6
CONTINUOUS
 62
     1
 10
 3.63926739002636E+0000
 20
 2.52298979278203E+0000
 11
 3.47997806339117E+0000
 21
 2.55017131414570E+0000
  0
LINE
  8
1
  6
CONTINUOUS
 62
     1
 10
 3.47997806339117E+0000
 20
 2.55017131414570E+0000
 11
 3.47997806339117E+0000
 21
 2.48976767667409E+0000
  0
LINE
  8
1
  6
CONTINUOUS
 62
     1
 10
 3.47997806339117E+0000
 20
 2.48976767667409E+0000
 11
 3.63926739002636E+0000
 21
 2.52298979278203E+0000
  0
LINE
  8
1
  6
CONTINUOUS
 62
     1
 10
 3.47997806339117E+0000
 20
 2.55017131414570E+0000
 11
 3.47997806339117E+0000
 21
 2.48976767667409E+0000
  0
LINE
  8
1
  6
CONTINUOUS
 62
     1
 10
 3.48852299513965E+0000
 20
 2.49154984702182E+0000
 11
 3.47997806339117E+0000
 21
 2.50009477876665E+0000
  0
LINE
  8
1
  6
CONTINUOUS
 62
     1
 10
 3.50561285862932E+0000
 20
 2.49511418771726E+0000
 11
 3.47997806339117E+0000
 21
 2.52074898295541E+0000
  0
LINE
  8
1
  6
CONTINUOUS
 62
     1
 10
 3.52270272211899E+0000
 20
 2.49867852841271E+0000
 11
 3.47997806339117E+0000
 21
 2.54140318714053E+0000
  0
LINE
  8
1
  6
CONTINUOUS
 62
     1
 10
 3.53979258560867E+0000
 20
 2.50224286910816E+0000
 11
 3.49430973158087E+0000
 21
 2.54772572313595E+0000
  0
LINE
  8
1
  6
CONTINUOUS
 62
     1
 10
 3.55688244910198E+0000
 20
 2.50580720979997E+0000
 11
 3.51921359149856E+0000
 21
 2.54347606740339E+0000
  0
LINE
  8
1
  6
CONTINUOUS
 62
     1
 10
 3.57397231259165E+0000
 20
 2.50937155049542E+0000
 11
 3.54411745141988E+0000
 21
 2.53922641166719E+0000
  0
LINE
  8
1
  6
CONTINUOUS
 62
     1
 10
 3.59106217608132E+0000
 20
 2.51293589119086E+0000
 11
 3.56902131133756E+0000
 21
 2.53497675593462E+0000
  0
LINE
  8
1
  6
CONTINUOUS
 62
     1
 10
 3.60815203957100E+0000
 20
 2.51650023188631E+0000
 11
 3.59392517125889E+0000
 21
 2.53072710019842E+0000
  0
LINE
  8
1
  6
CONTINUOUS
 62
     1
 10
 3.62524190306067E+0000
 20
 2.52006457258176E+0000
 11
 3.61882903117657E+0000
 21
 2.52647744446585E+0000
  0
LINE
  8
1
  6
CONTINUOUS
 62
     1
 10
 3.63044565109522E+0000
 20
 2.52449515594344E+0000
 11
 3.62621881750601E+0000
 21
 2.52026832235788E+0000
  0
LINE
  8
1
  6
CONTINUOUS
 62
     1
 10
 3.61280217324020E+0000
 20
 2.52750588227718E+0000
 11
 3.60012167247260E+0000
 21
 2.51482538150958E+0000
  0
LINE
  8
1
  6
CONTINUOUS
 62
     1
 10
 3.59515869538882E+0000
 20
 2.53051660860729E+0000
 11
 3.57402452744645E+0000
 21
 2.50938244066492E+0000
  0
LINE
  8
1
  6
CONTINUOUS
 62
     1
 10
 3.57751521754108E+0000
 20
 2.53352733494467E+0000
 11
 3.54792738240940E+0000
 21
 2.50393949981662E+0000
  0
LINE
  8
1
  6
CONTINUOUS
 62
     1
 10
 3.55987173968606E+0000
 20
 2.53653806127841E+0000
 11
 3.52183023738326E+0000
 21
 2.49849655897196E+0000
  0
LINE
  8
1
  6
CONTINUOUS
 62
     1
 10
 3.54222826183104E+0000
 20
 2.53954878760851E+0000
 11
 3.49573309234984E+0000
 21
 2.49305361812367E+0000
  0
LINE
  8
1
  6
CONTINUOUS
 62
     1
 10
 3.52458478397966E+0000
 20
 2.54255951393861E+0000
 11
 3.47997806338753E+0000
 21
 2.49795279335012E+0000
  0
LINE
  8
1
  6
CONTINUOUS
 62
     1
 10
 3.50694130612465E+0000
 20
 2.54557024027235E+0000
 11
 3.47997806338753E+0000
 21
 2.51860699753524E+0000
  0
LINE
  8
1
  6
CONTINUOUS
 62
     1
 10
 3.48929782827327E+0000
 20
 2.54858096660246E+0000
 11
 3.47997806338753E+0000
 21
 2.53926120172036E+0000
  0
LINE
  8
1
  6
CONTINUOUS
 62
     1
 10
 4.67230090519297E+0000
 20
 2.63049951667199E+0000
 11
 4.67230090519297E+0000
 21
 2.63049951667199E+0000
  0
LINE
  8
1
  6
CONTINUOUS
 62
     1
 10
 4.67230090519297E+0000
 20
 2.63049951667199E+0000
 11
 4.83159023184271E+0000
 21
 2.60331799530832E+0000
  0
LINE
  8
1
  6
CONTINUOUS
 62
     1
 10
 4.83159023184271E+0000
 20
 2.60331799530832E+0000
 11
 4.83159023184271E+0000
 21
 2.66372163277993E+0000
  0
LINE
  8
1
  6
CONTINUOUS
 62
     1
 10
 4.83159023184271E+0000
 20
 2.66372163277993E+0000
 11
 4.67230090519297E+0000
 21
 2.63049951667199E+0000
  0
LINE
  8
1
  6
CONTINUOUS
 62
     1
 10
 4.83159023184271E+0000
 20
 2.60331799530832E+0000
 11
 4.83159023184271E+0000
 21
 2.66372163277993E+0000
  0
LINE
  8
1
  6
CONTINUOUS
 62
     1
 10
 4.68475283515727E+0000
 20
 2.62837468880753E+0000
 11
 4.68084583694144E+0000
 21
 2.63228168701971E+0000
  0
LINE
  8
1
  6
CONTINUOUS
 62
     1
 10
 4.70965669507859E+0000
 20
 2.62412503307132E+0000
 11
 4.69793570043112E+0000
 21
 2.63584602771516E+0000
  0
LINE
  8
1
  6
CONTINUOUS
 62
     1
 10
 4.73456055499264E+0000
 20
 2.61987537733512E+0000
 11
 4.71502556392079E+0000
 21
 2.63941036841061E+0000
  0
LINE
  8
1
  6
CONTINUOUS
 62
     1
 10
 4.75946441491396E+0000
 20
 2.61562572159892E+0000
 11
 4.73211542741046E+0000
 21
 2.64297470910606E+0000
  0
LINE
  8
1
  6
CONTINUOUS
 62
     1
 10
 4.78436827483529E+0000
 20
 2.61137606586635E+0000
 11
 4.74920529090014E+0000
 21
 2.64653904979787E+0000
  0
LINE
  8
1
  6
CONTINUOUS
 62
     1
 10
 4.80927213475661E+0000
 20
 2.60712641013015E+0000
 11
 4.76629515439708E+0000
 21
 2.65010339049331E+0000
  0
LINE
  8
1
  6
CONTINUOUS
 62
     1
 10
 4.83159023184271E+0000
 20
 2.60546251723281E+0000
 11
 4.78338501788676E+0000
 21
 2.65366773118876E+0000
  0
LINE
  8
1
  6
CONTINUOUS
 62
     1
 10
 4.83159023184271E+0000
 20
 2.62611672141429E+0000
 11
 4.80047488137643E+0000
 21
 2.65723207188057E+0000
  0
LINE
  8
1
  6
CONTINUOUS
 62
     1
 10
 4.83159023184271E+0000
 20
 2.64677092559941E+0000
 11
 4.81756474486610E+0000
 21
 2.66079641257602E+0000
  0
LINE
  8
1
  6
CONTINUOUS
 62
     1
 10
 4.83159023183543E+0000
 20
 2.61364509739724E+0000
 11
 4.82276849290793E+0000
 21
 2.60482335846973E+0000
  0
LINE
  8
1
  6
CONTINUOUS
 62
     1
 10
 4.83159023183543E+0000
 20
 2.63429930158236E+0000
 11
 4.80512501506018E+0000
 21
 2.60783408480347E+0000
  0
LINE
  8
1
  6
CONTINUOUS
 62
     1
 10
 4.83159023183543E+0000
 20
 2.65495350576748E+0000
 11
 4.78748153720517E+0000
 21
 2.61084481113357E+0000
  0
LINE
  8
1
  6
CONTINUOUS
 62
     1
 10
 4.81657185218501E+0000
 20
 2.66058933030217E+0000
 11
 4.76983805935743E+0000
 21
 2.61385553747095E+0000
  0
LINE
  8
1
  6
CONTINUOUS
 62
     1
 10
 4.79047470715886E+0000
 20
 2.65514638945751E+0000
 11
 4.75219458150241E+0000
 21
 2.61686626380470E+0000
  0
LINE
  8
1
  6
CONTINUOUS
 62
     1
 10
 4.76437756212545E+0000
 20
 2.64970344860922E+0000
 11
 4.73455110364739E+0000
 21
 2.61987699013480E+0000
  0
LINE
  8
1
  6
CONTINUOUS
 62
     1
 10
 4.73828041709203E+0000
 20
 2.64426050776456E+0000
 11
 4.71690762579237E+0000
 21
 2.62288771646854E+0000
  0
LINE
  8
1
  6
CONTINUOUS
 62
     1
 10
 4.71218327205861E+0000
 20
 2.63881756691626E+0000
 11
 4.69926414794463E+0000
 21
 2.62589844279864E+0000
  0
LINE
  8
1
  6
CONTINUOUS
 62
     1
 10
 4.68608612703247E+0000
 20
 2.63337462607524E+0000
 11
 4.68162067008961E+0000
 21
 2.62890916913238E+0000
  0
LINE
  8
1
  6
CONTINUOUS
 62
     1
 10
 4.67230090519297E+0000
 20
 2.63049951667199E+0000
 11
 4.67230090519297E+0000
 21
 2.63049951667199E+0000
  0
LINE
  8
1
  6
CONTINUOUS
 62
     1
 10
 4.67230090519297E+0000
 20
 2.63049951667199E+0000
 11
 4.83159023184271E+0000
 21
 2.60331799530832E+0000
  0
LINE
  8
1
  6
CONTINUOUS
 62
     1
 10
 4.83159023184271E+0000
 20
 2.60331799530832E+0000
 11
 4.83159023184271E+0000
 21
 2.66372163277993E+0000
  0
LINE
  8
1
  6
CONTINUOUS
 62
     1
 10
 4.83159023184271E+0000
 20
 2.66372163277993E+0000
 11
 4.67230090519297E+0000
 21
 2.63049951667199E+0000
  0
LINE
  8
1
  6
CONTINUOUS
 62
     1
 10
 4.83159023184271E+0000
 20
 2.60331799530832E+0000
 11
 4.83159023184271E+0000
 21
 2.66372163277993E+0000
  0
LINE
  8
1
  6
CONTINUOUS
 62
     1
 10
 4.68475283515727E+0000
 20
 2.62837468880753E+0000
 11
 4.68084583694144E+0000
 21
 2.63228168701971E+0000
  0
LINE
  8
1
  6
CONTINUOUS
 62
     1
 10
 4.70965669507859E+0000
 20
 2.62412503307132E+0000
 11
 4.69793570043112E+0000
 21
 2.63584602771516E+0000
  0
LINE
  8
1
  6
CONTINUOUS
 62
     1
 10
 4.73456055499264E+0000
 20
 2.61987537733512E+0000
 11
 4.71502556392079E+0000
 21
 2.63941036841061E+0000
  0
LINE
  8
1
  6
CONTINUOUS
 62
     1
 10
 4.75946441491396E+0000
 20
 2.61562572159892E+0000
 11
 4.73211542741046E+0000
 21
 2.64297470910606E+0000
  0
LINE
  8
1
  6
CONTINUOUS
 62
     1
 10
 4.78436827483529E+0000
 20
 2.61137606586635E+0000
 11
 4.74920529090014E+0000
 21
 2.64653904979787E+0000
  0
LINE
  8
1
  6
CONTINUOUS
 62
     1
 10
 4.80927213475661E+0000
 20
 2.60712641013015E+0000
 11
 4.76629515439708E+0000
 21
 2.65010339049331E+0000
  0
LINE
  8
1
  6
CONTINUOUS
 62
     1
 10
 4.83159023184271E+0000
 20
 2.60546251723281E+0000
 11
 4.78338501788676E+0000
 21
 2.65366773118876E+0000
  0
LINE
  8
1
  6
CONTINUOUS
 62
     1
 10
 4.83159023184271E+0000
 20
 2.62611672141429E+0000
 11
 4.80047488137643E+0000
 21
 2.65723207188057E+0000
  0
LINE
  8
1
  6
CONTINUOUS
 62
     1
 10
 4.83159023184271E+0000
 20
 2.64677092559941E+0000
 11
 4.81756474486610E+0000
 21
 2.66079641257602E+0000
  0
LINE
  8
1
  6
CONTINUOUS
 62
     1
 10
 4.83159023183543E+0000
 20
 2.61364509739724E+0000
 11
 4.82276849290793E+0000
 21
 2.60482335846973E+0000
  0
LINE
  8
1
  6
CONTINUOUS
 62
     1
 10
 4.83159023183543E+0000
 20
 2.63429930158236E+0000
 11
 4.80512501506018E+0000
 21
 2.60783408480347E+0000
  0
LINE
  8
1
  6
CONTINUOUS
 62
     1
 10
 4.83159023183543E+0000
 20
 2.65495350576748E+0000
 11
 4.78748153720517E+0000
 21
 2.61084481113357E+0000
  0
LINE
  8
1
  6
CONTINUOUS
 62
     1
 10
 4.81657185218501E+0000
 20
 2.66058933030217E+0000
 11
 4.76983805935743E+0000
 21
 2.61385553747095E+0000
  0
LINE
  8
1
  6
CONTINUOUS
 62
     1
 10
 4.79047470715886E+0000
 20
 2.65514638945751E+0000
 11
 4.75219458150241E+0000
 21
 2.61686626380470E+0000
  0
LINE
  8
1
  6
CONTINUOUS
 62
     1
 10
 4.76437756212545E+0000
 20
 2.64970344860922E+0000
 11
 4.73455110364739E+0000
 21
 2.61987699013480E+0000
  0
LINE
  8
1
  6
CONTINUOUS
 62
     1
 10
 4.73828041709203E+0000
 20
 2.64426050776456E+0000
 11
 4.71690762579237E+0000
 21
 2.62288771646854E+0000
  0
LINE
  8
1
  6
CONTINUOUS
 62
     1
 10
 4.71218327205861E+0000
 20
 2.63881756691626E+0000
 11
 4.69926414794463E+0000
 21
 2.62589844279864E+0000
  0
LINE
  8
1
  6
CONTINUOUS
 62
     1
 10
 4.68608612703247E+0000
 20
 2.63337462607524E+0000
 11
 4.68162067008961E+0000
 21
 2.62890916913238E+0000
  0
LINE
  8
1
  6
CONTINUOUS
 62
     1
 10
 4.47651903831138E+0000
 20
 2.63152241385978E+0000
 11
 4.47651903831138E+0000
 21
 2.63152241385978E+0000
  0
LINE
  8
1
  6
CONTINUOUS
 62
     1
 10
 4.47651903831138E+0000
 20
 2.63152241385978E+0000
 11
 4.31722971167619E+0000
 21
 2.65870393522346E+0000
  0
LINE
  8
1
  6
CONTINUOUS
 62
     1
 10
 4.31722971167619E+0000
 20
 2.65870393522346E+0000
 11
 4.31722971167619E+0000
 21
 2.59830029775185E+0000
  0
LINE
  8
1
  6
CONTINUOUS
 62
     1
 10
 4.31722971167619E+0000
 20
 2.59830029775185E+0000
 11
 4.47651903831138E+0000
 21
 2.63152241385978E+0000
  0
LINE
  8
1
  6
CONTINUOUS
 62
     1
 10
 4.31722971167619E+0000
 20
 2.65870393522346E+0000
 11
 4.31722971167619E+0000
 21
 2.59830029775185E+0000
  0
LINE
  8
1
  6
CONTINUOUS
 62
     1
 10
 4.32577464342467E+0000
 20
 2.60008246810321E+0000
 11
 4.31722971168347E+0000
 21
 2.60862739984805E+0000
  0
LINE
  8
1
  6
CONTINUOUS
 62
     1
 10
 4.34286450691434E+0000
 20
 2.60364680879502E+0000
 11
 4.31722971167619E+0000
 21
 2.62928160403317E+0000
  0
LINE
  8
1
  6
CONTINUOUS
 62
     1
 10
 4.35995437040401E+0000
 20
 2.60721114949047E+0000
 11
 4.31722971167619E+0000
 21
 2.64993580822193E+0000
  0
LINE
  8
1
  6
CONTINUOUS
 62
     1
 10
 4.37704423390096E+0000
 20
 2.61077549018592E+0000
 11
 4.33156137986953E+0000
 21
 2.65625834421371E+0000
  0
LINE
  8
1
  6
CONTINUOUS
 62
     1
 10
 4.39413409739063E+0000
 20
 2.61433983088136E+0000
 11
 4.35646523979085E+0000
 21
 2.65200868848115E+0000
  0
LINE
  8
1
  6
CONTINUOUS
 62
     1
 10
 4.41122396088031E+0000
 20
 2.61790417157317E+0000
 11
 4.38136909971217E+0000
 21
 2.64775903274494E+0000
  0
LINE
  8
1
  6
CONTINUOUS
 62
     1
 10
 4.42831382436998E+0000
 20
 2.62146851226862E+0000
 11
 4.40627295963350E+0000
 21
 2.64350937700874E+0000
  0
LINE
  8
1
  6
CONTINUOUS
 62
     1
 10
 4.44540368785965E+0000
 20
 2.62503285296407E+0000
 11
 4.43117681955482E+0000
 21
 2.63925972127254E+0000
  0
LINE
  8
1
  6
CONTINUOUS
 62
     1
 10
 4.46249355134933E+0000
 20
 2.62859719365952E+0000
 11
 4.45608067946887E+0000
 21
 2.63501006553997E+0000
  0
LINE
  8
1
  6
CONTINUOUS
 62
     1
 10
 4.46769729938387E+0000
 20
 2.63302777702484E+0000
 11
 4.46347046579467E+0000
 21
 2.62880094343564E+0000
  0
LINE
  8
1
  6
CONTINUOUS
 62
     1
 10
 4.45005382152885E+0000
 20
 2.63603850335494E+0000
 11
 4.43737332076125E+0000
 21
 2.62335800258734E+0000
  0
LINE
  8
1
  6
CONTINUOUS
 62
     1
 10
 4.43241034367384E+0000
 20
 2.63904922968868E+0000
 11
 4.41127617572783E+0000
 21
 2.61791506173904E+0000
  0
LINE
  8
1
  6
CONTINUOUS
 62
     1
 10
 4.41476686582610E+0000
 20
 2.64205995602606E+0000
 11
 4.38517903069442E+0000
 21
 2.61247212089802E+0000
  0
LINE
  8
1
  6
CONTINUOUS
 62
     1
 10
 4.39712338797108E+0000
 20
 2.64507068235616E+0000
 11
 4.35908188566100E+0000
 21
 2.60702918004608E+0000
  0
LINE
  8
1
  6
CONTINUOUS
 62
     1
 10
 4.37947991011606E+0000
 20
 2.64808140868990E+0000
 11
 4.33298474063486E+0000
 21
 2.60158623920506E+0000
  0
LINE
  8
1
  6
CONTINUOUS
 62
     1
 10
 4.36183643226832E+0000
 20
 2.65109213502001E+0000
 11
 4.31722971166892E+0000
 21
 2.60648541442424E+0000
  0
LINE
  8
1
  6
CONTINUOUS
 62
     1
 10
 4.34419295441330E+0000
 20
 2.65410286135011E+0000
 11
 4.31722971166892E+0000
 21
 2.62713961860936E+0000
  0
LINE
  8
1
  6
CONTINUOUS
 62
     1
 10
 4.32654947655828E+0000
 20
 2.65711358768385E+0000
 11
 4.31722971167619E+0000
 21
 2.64779382280176E+0000
  0
LINE
  8
1
  6
CONTINUOUS
 62
     1
 10
 4.47651903831138E+0000
 20
 2.63152241385978E+0000
 11
 4.47651903831138E+0000
 21
 2.63152241385978E+0000
  0
LINE
  8
1
  6
CONTINUOUS
 62
     1
 10
 4.47651903831138E+0000
 20
 2.63152241385978E+0000
 11
 4.31722971167619E+0000
 21
 2.65870393522346E+0000
  0
LINE
  8
1
  6
CONTINUOUS
 62
     1
 10
 4.31722971167619E+0000
 20
 2.65870393522346E+0000
 11
 4.31722971167619E+0000
 21
 2.59830029775185E+0000
  0
LINE
  8
1
  6
CONTINUOUS
 62
     1
 10
 4.31722971167619E+0000
 20
 2.59830029775185E+0000
 11
 4.47651903831138E+0000
 21
 2.63152241385978E+0000
  0
LINE
  8
1
  6
CONTINUOUS
 62
     1
 10
 4.31722971167619E+0000
 20
 2.65870393522346E+0000
 11
 4.31722971167619E+0000
 21
 2.59830029775185E+0000
  0
LINE
  8
1
  6
CONTINUOUS
 62
     1
 10
 4.32577464342467E+0000
 20
 2.60008246810321E+0000
 11
 4.31722971168347E+0000
 21
 2.60862739984805E+0000
  0
LINE
  8
1
  6
CONTINUOUS
 62
     1
 10
 4.34286450691434E+0000
 20
 2.60364680879502E+0000
 11
 4.31722971167619E+0000
 21
 2.62928160403317E+0000
  0
LINE
  8
1
  6
CONTINUOUS
 62
     1
 10
 4.35995437040401E+0000
 20
 2.60721114949047E+0000
 11
 4.31722971167619E+0000
 21
 2.64993580822193E+0000
  0
LINE
  8
1
  6
CONTINUOUS
 62
     1
 10
 4.37704423390096E+0000
 20
 2.61077549018592E+0000
 11
 4.33156137986953E+0000
 21
 2.65625834421371E+0000
  0
LINE
  8
1
  6
CONTINUOUS
 62
     1
 10
 4.39413409739063E+0000
 20
 2.61433983088136E+0000
 11
 4.35646523979085E+0000
 21
 2.65200868848115E+0000
  0
LINE
  8
1
  6
CONTINUOUS
 62
     1
 10
 4.41122396088031E+0000
 20
 2.61790417157317E+0000
 11
 4.38136909971217E+0000
 21
 2.64775903274494E+0000
  0
LINE
  8
1
  6
CONTINUOUS
 62
     1
 10
 4.42831382436998E+0000
 20
 2.62146851226862E+0000
 11
 4.40627295963350E+0000
 21
 2.64350937700874E+0000
  0
LINE
  8
1
  6
CONTINUOUS
 62
     1
 10
 4.44540368785965E+0000
 20
 2.62503285296407E+0000
 11
 4.43117681955482E+0000
 21
 2.63925972127254E+0000
  0
LINE
  8
1
  6
CONTINUOUS
 62
     1
 10
 4.46249355134933E+0000
 20
 2.62859719365952E+0000
 11
 4.45608067946887E+0000
 21
 2.63501006553997E+0000
  0
LINE
  8
1
  6
CONTINUOUS
 62
     1
 10
 4.46769729938387E+0000
 20
 2.63302777702484E+0000
 11
 4.46347046579467E+0000
 21
 2.62880094343564E+0000
  0
LINE
  8
1
  6
CONTINUOUS
 62
     1
 10
 4.45005382152885E+0000
 20
 2.63603850335494E+0000
 11
 4.43737332076125E+0000
 21
 2.62335800258734E+0000
  0
LINE
  8
1
  6
CONTINUOUS
 62
     1
 10
 4.43241034367384E+0000
 20
 2.63904922968868E+0000
 11
 4.41127617572783E+0000
 21
 2.61791506173904E+0000
  0
LINE
  8
1
  6
CONTINUOUS
 62
     1
 10
 4.41476686582610E+0000
 20
 2.64205995602606E+0000
 11
 4.38517903069442E+0000
 21
 2.61247212089802E+0000
  0
LINE
  8
1
  6
CONTINUOUS
 62
     1
 10
 4.39712338797108E+0000
 20
 2.64507068235616E+0000
 11
 4.35908188566100E+0000
 21
 2.60702918004608E+0000
  0
LINE
  8
1
  6
CONTINUOUS
 62
     1
 10
 4.37947991011606E+0000
 20
 2.64808140868990E+0000
 11
 4.33298474063486E+0000
 21
 2.60158623920506E+0000
  0
LINE
  8
1
  6
CONTINUOUS
 62
     1
 10
 4.36183643226832E+0000
 20
 2.65109213502001E+0000
 11
 4.31722971166892E+0000
 21
 2.60648541442424E+0000
  0
LINE
  8
1
  6
CONTINUOUS
 62
     1
 10
 4.34419295441330E+0000
 20
 2.65410286135011E+0000
 11
 4.31722971166892E+0000
 21
 2.62713961860936E+0000
  0
LINE
  8
1
  6
CONTINUOUS
 62
     1
 10
 4.32654947655828E+0000
 20
 2.65711358768385E+0000
 11
 4.31722971167619E+0000
 21
 2.64779382280176E+0000
  0
TEXT
  8
1
 62
     1
 10
 3.56089054288532E+0000
 20
 5.73196251660556E+0000
 40
 1.18110236219991E-0001
  1
60-0.02
  7
STANDARD
 11
 3.56089054288532E+0000
 21
 5.85007275282260E+0000
 50
 0.00000000000000E+0000
 41
 2.85464359861180E-0001
  0
TEXT
  8
1
 62
     1
 10
 3.60826382446612E+0000
 20
 5.45380532251875E+0000
 40
 1.18110236219991E-0001
  1
50
  7
STANDARD
 11
 3.60826382446612E+0000
 21
 5.57191555873578E+0000
 50
 0.00000000000000E+0000
 41
 3.33041753174712E-0001
  0
TEXT
  8
1
 62
     1
 10
 3.73008083424793E+0000
 20
 2.54333126738493E+0000
 40
 1.18110236219991E-0001
  1
8
  7
STANDARD
 11
 3.73008083424793E+0000
 21
 2.66144150360560E+0000
 50
 0.00000000000000E+0000
 41
 3.33041753174712E-0001
  0
TEXT
  8
1
 62
     1
 10
 4.85350436891895E+0000
 20
 2.63831177268003E+0000
 40
 1.18110236219991E-0001
  1
4,5
  7
STANDARD
 11
 4.85350436891895E+0000
 21
 2.75642200890070E+0000
 50
 0.00000000000000E+0000
 41
 2.77534794312487E-0001
  0
LINE
  8
1
  6
CONTINUOUS
 62
     1
 10
 4.83996914560703E+0000
 20
 2.62751989456956E+0000
 11
 5.13097644675872E+0000
 21
 2.62751989456956E+0000
  0
TEXT
  8
1
 62
     1
 10
 7.93205324542942E+0000
 20
 5.43235969742818E+0000
 40
 1.18110236219991E-0001
  1
5
  7
STANDARD
 11
 7.93205324542942E+0000
 21
 5.55046993364522E+0000
 50
 0.00000000000000E+0000
 41
 3.33041753174712E-0001
  0
TEXT
  8
1
 62
     1
 10
 7.67488400256116E+0000
 20
 2.71184665288092E+0000
 40
 1.18110236219991E-0001
  1
15
  7
STANDARD
 11
 7.67488400256116E+0000
 21
 2.82995688910160E+0000
 50
 0.00000000000000E+0000
 41
 3.33041753174712E-0001
  0
TEXT
  8
1
 62
     1
 10
 7.58013743938500E+0000
 20
 2.43368945880502E+0000
 40
 1.18110236219991E-0001
  1
20
  7
STANDARD
 11
 7.58013743938500E+0000
 21
 2.55179969502569E+0000
 50
 0.00000000000000E+0000
 41
 3.33041753174712E-0001
  0
TEXT
  8
1
 62
     1
 10
 7.28236252658826E+0000
 20
 2.16231658652760E+0000
 40
 1.18110236219991E-0001
  1
34
  7
STANDARD
 11
 7.28236252658826E+0000
 21
 2.28042682274827E+0000
 50
 0.00000000000000E+0000
 41
 3.33041753174712E-0001
  0
TEXT
  8
1
 62
     1
 10
 5.99651631221059E+0000
 20
 3.81769110739697E+0000
 40
 1.18110236219991E-0001
  1
30-0.02
  7
STANDARD
 11
 5.99651631221059E+0000
 21
 3.93580134361764E+0000
 50
 9.00000000000000E+0001
 41
 2.85464359864363E-0001
  0
TEXT
  8
1
 62
     1
 10
 8.49376501276856E+0000
 20
 3.84482839462362E+0000
 40
 1.18110236219991E-0001
  1
17H7
  7
STANDARD
 11
 8.49376501276856E+0000
 21
 3.96293863084429E+0000
 50
 9.00000000000000E+0001
 41
 3.53856862748216E-0001
  0
TEXT
  8
1
 62
     1
 10
 8.85921604211035E+0000
 20
 3.82447542920272E+0000
 40
 1.18110236219991E-0001
  1
40
  7
STANDARD
 11
 8.85921604211035E+0000
 21
 3.94258566542339E+0000
 50
 9.00000000000000E+0001
 41
 3.33041753174712E-0001
  0
TEXT
  8
1
 62
     1
 10
 9.15313659083040E+0000
 20
 3.92089421601668E-0001
 40
 1.18110236219991E-0001
  1
(c)
  7
STANDARD
 11
 9.15313659083040E+0000
 21
 5.10199657821431E-0001
 50
 0.00000000000000E+0000
 41
 2.22027835450035E-0001
0
ENDSEC
0
EOF
