0
SECTION
  2
HEADER
  9
$LTSCALE
 40
     10
  9
$LIMMIN
 10
     0.0
 20
     0.0
  9
$LIMMAX
 10
      11.5
 20
       8.0
  9
$EXTMIN
 10
     0.0
 20
     0.0
  9
$EXTMAX
 10
      11.5
 20
       8.0
   9
$CLAYER
   8
1
   9
$CECOLOR
  62
     7
   9
$CELTYPE
   6
CONTINUOUS
  0
ENDSEC
  0
SECTION
  2
TABLES
  0
TABLE
  2
LTYPE
 70
    10
  0
LTYPE
  2
CONTINUOUS
 70
    64
  3
Solid line
 72
    65
 73
     0
 40
0.0
  0
LTYPE
  2
DASHED
 70
     0
  3
__ __ __ __ __ __ __ __ __ __ __ __ __ __ __
 72
    65
 73
     2
 40
0.75
 49
0.5
 49
-0.25
  0
LTYPE
  2
HIDDEN
 70
     0
  3
_ _ _ _ _ _ _ _ _ _ _ _ _ _ _ _ _ _ _ _ _ _
 72
    65
 73
     2
 40
0.375
 49
0.25
 49
-0.125
  0
LTYPE
  2
CENTER
 70
     0
  3
____ _ ____ _ ____ _ ____ _ ____ _ ____ _ __
 72
    65
 73
     4
 40
2.0
 49
1.25
 49
-0.25
 49
0.25
 49
-0.25
  0
LTYPE
  2
PHANTOM
 70
     0
  3
_____ _ _ _____ _ _ _____ _ _ _____ _ _ ____
 72
    65
 73
     6
 40
2.5
 49
1.25
 49
-0.25
 49
0.25
 49
-0.25
 49
0.25
 49
-0.25
  0
LTYPE
  2
DOT
 70
     0
  3
............................................
 72
    65
 73
     2
 40
0.25
 49
0.0
 49
-0.25
  0
LTYPE
  2
DASHDOT
 70
     0
  3
__ . __ . __ . __ . __ . __ . __ . __ . __ .
 72
    65
 73
     4
 40
1.0
 49
0.5
 49
-0.25
 49
0.0
 49
-0.25
  0
LTYPE
  2
BORDER
 70
     0
  3
__ __ . __ __ . __ __ . __ __ . __ __ . __ _
 72
    65
 73
     6
 40
1.75
 49
0.5
 49
-0.25
 49
0.5
 49
-0.25
 49
0.0
 49
-0.25
  0
LTYPE
  2
DIVIDE
 70
     0
  3
__ . . __ . . __ . . __ . . __ . . __ . . __
 72
    65
 73
     6
 40
1.25
 49
0.5
 49
-0.25
 49
0.0
 49
-0.25
 49
0.0
 49
-0.25
  0
LTYPE
  2
DIVIDE2
 70
     0
  3
close
 72
    65
 73
     2
 40
0.1
 49
0.05
 49
-0.05
  0
ENDTAB
0
TABLE
  2
LAYER
 70
   256
  0
LAYER
  2
1
 70
     0
  6
DASHED
 62
1
  0
ENDTAB
  0
TABLE
  2
STYLE
 70
     8
  0
STYLE
  2
TXT
 70
0
 40
0.0
 41
1.0
 50
0.0
 71
0
 42
1.0
  3
TXT
  4

  0
STYLE
  2
COMPLEX
 70
0
 40
0.0
 41
1.0
 50
0.0
 71
0
 42
1.0
  3
COMPLEX
  4

  0
STYLE
  2
ITALIC
 70
0
 40
0.0
 41
1.0
 50
0.0
 71
0
 42
1.0
  3
ITALIC
  4

  0
STYLE
  2
SIMPLEX
70
0
 40
0.0
 41
1.0
 50
0.0
 71
0
 42
1.0
  3
SIMPLEX
  4

  0
STYLE
  2
MONOTXT
 70
0
 40
0.0
 41
1.0
 50
0.0
 71
0
 42
1.0
  3
MONOTXT
  4

  0
STYLE
  2
SCRIPTC
 70
0
 40
0.0
 41
1.0
 50
0.0
 71
0
 42
1.0
  3
SCRIPTC
  4

  0
STYLE
  2
GOTHICE
 70
0
 40
0.0
 41
1.0
 50
0.0
 71
0
 42
1.0
  3
GOTHICE
  4

  0
ENDTAB
  0
TABLE
  2
VIEW
 70
     0
  0
ENDTAB
  0
ENDSEC
  0
SECTION
  2
ENTITIES
  0
LINE
  8
1
  6
CONTINUOUS
 62
     1
 10
 1.10824245900876E+0001
 20
 3.66054472739052E-0001
 11
 8.90078496305796E+0000
 21
 3.66054472739052E-0001
  0
LINE
  8
1
  6
CONTINUOUS
 62
     1
 10
 8.90078496305796E+0000
 20
 3.66054472739052E-0001
 11
 8.90078496305796E+0000
 21
 1.55291635594767E+0000
  0
LINE
  8
1
  6
CONTINUOUS
 62
     1
 10
 8.90078496305796E+0000
 20
 1.55291635594767E+0000
 11
 1.10824245900876E+0001
 21
 1.55291635594767E+0000
  0
LINE
  8
1
  6
CONTINUOUS
 62
     1
 10
 1.10824245900876E+0001
 20
 1.55291635594767E+0000
 11
 1.10824245900876E+0001
 21
 3.66054472739052E-0001
  0
LINE
  8
1
  6
CONTINUOUS
 62
     1
 10
 8.90010336294654E+0000
 20
 1.23953147667635E+0000
 11
 1.10833476808330E+0001
 21
 1.23953147667635E+0000
  0
LINE
  8
1
  6
CONTINUOUS
 62
     1
 10
 8.90774062665878E+0000
 20
 5.23861750931246E-0001
 11
 1.10909849445452E+0001
 21
 5.23861750931246E-0001
  0
TEXT
  8
1
 62
     1
 10
 8.94823287868348E+0000
 20
 1.35143637997317E+0000
 40
 1.18110236219991E-0001
  1
Benennung
  7
STANDARD
 11
 8.94823287868348E+0000
 21
 1.46954661619384E+0000
 50
 0.00000000000000E+0000
 41
 3.16937882393631E-0001
  0
LINE
  8
1
  6
CONTINUOUS
 62
     1
 10
 9.57264299190138E+0000
 20
 1.55147486233909E+0000
 11
 9.57264299190138E+0000
 21
 1.23953147667635E+0000
  0
LINE
  8
1
  6
CONTINUOUS
 62
     1
 10
 8.90010336294654E+0000
 20
 1.07349709398113E+0000
 11
 1.10833476808330E+0001
 21
 1.07349709398113E+0000
  0
LINE
  8
1
  6
CONTINUOUS
 62
     1
 10
 8.90010336294654E+0000
 20
 9.07462711285916E-0001
 11
 1.10833476808330E+0001
 21
 9.07462711285916E-0001
  0
TEXT
  8
1
 62
     1
 10
 8.95298969198484E+0000
 20
 1.08890528919073E+0000
 40
 1.18110236219991E-0001
  1
Werkstoff
  7
STANDARD
 11
 8.95298969198484E+0000
 21
 1.20701552541141E+0000
 50
 0.00000000000000E+0000
 41
 2.56976661400131E-0001
  0
LINE
  8
1
  6
CONTINUOUS
 62
     1
 10
 9.57264299190138E+0000
 20
 1.23953147667635E+0000
 11
 9.57264299190138E+0000
 21
 1.07349709398113E+0000
  0
LINE
  8
1
  6
CONTINUOUS
 62
     1
 10
 1.05011491960613E+0001
 20
 1.23953147667635E+0000
 11
 1.05011491960613E+0001
 21
 1.07349709398113E+0000
  0
TEXT
  8
1
 62
     1
 10
 1.05670323736267E+0001
 20
 1.08890528919073E+0000
 40
 1.18110236219991E-0001
  1
M 1:1
  7
STANDARD
 11
 1.05670323736267E+0001
 21
 1.20701552541141E+0000
 50
 0.00000000000000E+0000
 41
 2.62116194628561E-0001
  0
LINE
  8
1
  6
CONTINUOUS
 62
     1
 10
 8.90078496305796E+0000
 20
 1.55291635594767E+0000
 11
 1.10883666332957E+0001
 21
 1.55291635594767E+0000
  0
LINE
  8
1
  6
CONTINUOUS
 62
     1
 10
 8.90078496305796E+0000
 20
 1.55291635594767E+0000
 11
 1.10824245900876E+0001
 21
 1.55291635594767E+0000
  0
LINE
  8
1
  6
CONTINUOUS
 62
     1
 10
 1.10824245900876E+0001
 20
 1.55291635594767E+0000
 11
 1.10824245900876E+0001
 21
 3.66054472739052E-0001
  0
LINE
  8
1
  6
CONTINUOUS
 62
     1
 10
 1.10824245900876E+0001
 20
 3.66054472739052E-0001
 11
 8.90078496305796E+0000
 21
 3.66054472739052E-0001
  0
LINE
  8
1
  6
CONTINUOUS
 62
     1
 10
 8.90078496305796E+0000
 20
 3.66054472739052E-0001
 11
 8.90078496305796E+0000
 21
 1.55291635594767E+0000
  0
TEXT
  8
1
 62
     1
 10
 8.94643199958955E+0000
 20
 9.29817355409796E-0001
 40
 1.18110236219991E-0001
  1
Bearb.
  7
STANDARD
 11
 8.94643199958955E+0000
 21
 1.04792759162956E+0000
 50
 0.00000000000000E+0000
 41
 2.69825494470297E-0001
  0
LINE
  8
1
  6
CONTINUOUS
 62
     1
 10
 9.57372805119667E+0000
 20
 1.07462383869279E+0000
 11
 9.57372805119667E+0000
 21
 9.08513856978971E-0001
  0
LINE
  8
1
  6
CONTINUOUS
 62
     1
 10
 8.90204784499656E+0000
 20
 7.36471375930705E-0001
 11
 1.10827893074456E+0001
 21
 7.36471375930705E-0001
  0
LINE
  8
1
  6
CONTINUOUS
 62
     1
 10
 9.57372805119667E+0000
 20
 9.08513856978971E-0001
 11
 9.57372805119667E+0000
 21
 7.36471375930705E-0001
  0
TEXT
  8
1
 62
     1
 10
 8.94643199958955E+0000
 20
 7.54808624687030E-0001
 40
 1.18110236219991E-0001
  1
Datum
  7
STANDARD
 11
 8.94643199958955E+0000
 21
 8.72918860906793E-0001
 50
 0.00000000000000E+0000
 41
 3.23790593364265E-0001
  0
LINE
  8
1
  6
CONTINUOUS
 62
     1
 10
 1.04998774104170E+0001
 20
 5.19935149772209E-0001
 11
 1.04998774104170E+0001
 21
 3.68656416430895E-0001
  0
TEXT
  8
1
 62
     1
 10
 9.62994798035652E+0000
 20
 9.20918606393570E-0001
 40
 1.18110236219991E-0001
  1
D.Freind
  7
STANDARD
 11
 9.62994798035652E+0000
 21
 1.03902884261333E+0000
 50
 0.00000000000000E+0000
 41
 2.60188869667672E-0001
  0
TEXT
  8
1
 62
     1
 10
 1.05235489595507E+0001
 20
 3.84027415512719E-0001
 40
 1.18110236219991E-0001
  1
Blatt
  7
STANDARD
 11
 1.05235489595507E+0001
 21
 5.02137651732482E-0001
 50
 0.00000000000000E+0000
 41
 2.31278995260254E-0001
  0
TEXT
  8
1
 62
     1
 10
 9.04969655426976E+0000
 20
 5.46297824291287E-0001
 40
 1.18110236219991E-0001
  1
für Revolver 8-fach 
  7
STANDARD
 11
 9.04969655426976E+0000
 21
 6.64408060511050E-0001
 50
 0.00000000000000E+0000
 41
 2.35133645181349E-0001
  0
TEXT
  8
1
 62
     1
 10
 9.24894883402158E+0000
 20
 3.96305202578333E-0001
 40
 1.18110236219991E-0001
  1
www.cnc-projects.de.vu
  7
STANDARD
 11
 9.24894883402158E+0000
 21
 5.14415438798096E-0001
 50
 0.00000000000000E+0000
 41
 2.66321267269177E-0001
  0
TEXT
  8
1
 62
     1
 10
 9.63511565663794E+0000
 20
 7.44915470252636E-0001
 40
 1.18110236219991E-0001
  1
25.12.2003
  7
STANDARD
 11
 9.63511565663794E+0000
 21
 8.63025706472399E-0001
 50
 0.00000000000000E+0000
 41
 2.77534794312487E-0001
  0
LINE
  8
1
  6
CONTINUOUS
 62
     1
 10
 8.65881338976033E+0000
 20
 4.14985167179839E+0000
 11
 8.65881338976033E+0000
 21
 5.33408766474895E+0000
  0
LINE
  8
1
  6
CONTINUOUS
 62
     1
 10
 8.65881338976033E+0000
 20
 5.33408766474895E+0000
 11
 8.26239756576251E+0000
 21
 5.33408766474895E+0000
  0
LINE
  8
1
  6
CONTINUOUS
 62
     1
 10
 8.26239756576251E+0000
 20
 5.33408766474895E+0000
 11
 8.26239756576251E+0000
 21
 4.93669303624483E+0000
  0
LINE
  8
1
  6
CONTINUOUS
 62
     1
 10
 8.26239756576251E+0000
 20
 4.93669303624483E+0000
 11
 7.70741541215830E+0000
 21
 4.93669303624483E+0000
  0
LINE
  8
1
  6
CONTINUOUS
 62
     1
 10
 7.70741541215830E+0000
 20
 4.93669303624483E+0000
 11
 7.70741541215830E+0000
 21
 4.85721411053964E+0000
  0
LINE
  8
1
  6
CONTINUOUS
 62
     1
 10
 7.70741541215830E+0000
 20
 4.85721411053964E+0000
 11
 7.50920750015212E+0000
 21
 4.85721411053964E+0000
  0
LINE
  8
1
  6
CONTINUOUS
 62
     1
 10
 7.50920750015212E+0000
 20
 4.85721411053964E+0000
 11
 7.47623420689342E+0000
 21
 4.82316727755824E+0000
  0
LINE
  8
1
  6
CONTINUOUS
 62
     1
 10
 7.47623420689342E+0000
 20
 4.82316727755824E+0000
 11
 7.47623420689342E+0000
 21
 4.15420557863399E+0000
  0
LINE
  8
1
  6
DASHDOT
 62
     1
 10
 8.65682652495161E+0000
 20
 4.84120801144309E+0000
 11
 8.49952669958293E+0000
 21
 4.84120801144309E+0000
  0
LINE
  8
1
  6
DASHDOT
 62
     1
 10
 8.49952669958293E+0000
 20
 4.84120801144309E+0000
 11
 8.49952669958293E+0000
 21
 4.15263611744012E+0000
  0
LINE
  8
1
  6
DASHDOT
 62
     1
 10
 8.81936967784713E+0000
 20
 4.15263611744012E+0000
 11
 7.07858494371612E+0000
 21
 4.15263611744012E+0000
  0
LINE
  8
1
  6
CONTINUOUS
 62
     1
 10
 8.26239756576251E+0000
 20
 4.93669303624483E+0000
 11
 8.26239756576251E+0000
 21
 4.15263611744012E+0000
  0
LINE
  8
1
  6
CONTINUOUS
 62
     1
 10
 7.70741541215830E+0000
 20
 4.85721411053964E+0000
 11
 7.70741541215830E+0000
 21
 4.15263611744012E+0000
  0
LINE
  8
1
  6
CONTINUOUS
 62
     1
 10
 7.50920750015212E+0000
 20
 4.85721411053964E+0000
 11
 7.50920750015212E+0000
 21
 4.15263611744012E+0000
  0
LINE
  8
1
  6
CONTINUOUS
 62
     1
 10
 8.65881338976033E+0000
 20
 4.15542056308186E+0000
 11
 8.65881338976033E+0000
 21
 2.97118457013130E+0000
  0
LINE
  8
1
  6
CONTINUOUS
 62
     1
 10
 8.65881338976033E+0000
 20
 2.97118457014585E+0000
 11
 8.26239756576251E+0000
 21
 2.97118457014585E+0000
  0
LINE
  8
1
  6
CONTINUOUS
 62
     1
 10
 8.26239756576251E+0000
 20
 2.97118457013130E+0000
 11
 8.26239756576251E+0000
 21
 3.36857919863542E+0000
  0
LINE
  8
1
  6
CONTINUOUS
 62
     1
 10
 8.26239756576251E+0000
 20
 3.36857919864997E+0000
 11
 7.70741541215830E+0000
 21
 3.36857919864997E+0000
  0
LINE
  8
1
  6
CONTINUOUS
 62
     1
 10
 7.70741541215830E+0000
 20
 3.36857919864997E+0000
 11
 7.70741541215830E+0000
 21
 3.44805812435516E+0000
  0
LINE
  8
1
  6
CONTINUOUS
 62
     1
 10
 7.70741541215830E+0000
 20
 3.44805812435516E+0000
 11
 7.50920750015212E+0000
 21
 3.44805812435516E+0000
  0
LINE
  8
1
  6
CONTINUOUS
 62
     1
 10
 7.50920750015212E+0000
 20
 3.44805812435516E+0000
 11
 7.47623420689342E+0000
 21
 3.48210495733656E+0000
  0
LINE
  8
1
  6
CONTINUOUS
 62
     1
 10
 7.47623420689342E+0000
 20
 3.48210495732201E+0000
 11
 7.47623420689342E+0000
 21
 4.15106665624626E+0000
  0
LINE
  8
1
  6
DASHDOT
 62
     1
 10
 8.65682652495161E+0000
 20
 3.46406422345171E+0000
 11
 8.49952669958293E+0000
 21
 3.46406422345171E+0000
  0
LINE
  8
1
  6
DASHDOT
 62
     1
 10
 8.49952669958293E+0000
 20
 3.46406422345171E+0000
 11
 8.49952669958293E+0000
 21
 4.15263611745468E+0000
  0
LINE
  8
1
  6
CONTINUOUS
 62
     1
 10
 8.26239756576251E+0000
 20
 3.36857919863542E+0000
 11
 8.26239756576251E+0000
 21
 4.15263611744012E+0000
  0
LINE
  8
1
  6
CONTINUOUS
 62
     1
 10
 7.70741541215830E+0000
 20
 3.44805812434060E+0000
 11
 7.70741541215830E+0000
 21
 4.15263611744012E+0000
  0
LINE
  8
1
  6
CONTINUOUS
 62
     1
 10
 7.50920750015212E+0000
 20
 3.44805812434060E+0000
 11
 7.50920750015212E+0000
 21
 4.15263611744012E+0000
  0
LINE
  8
1
  6
DASHDOT
 62
     1
 10
 8.21638701390475E+0000
 20
 5.09876543744758E+0000
 11
 8.73547643763595E+0000
 21
 5.09876543744758E+0000
  0
LINE
  8
1
  6
DASHDOT
 62
     1
 10
 8.21114368639246E+0000
 20
 3.20650679742903E+0000
 11
 8.79839636778343E+0000
 21
 3.20650679742903E+0000
  0
LINE
  8
1
  6
DASHDOT
 62
     1
 10
 8.65682652495161E+0000
 20
 5.25645365745004E+0000
 11
 8.45758007948461E+0000
 21
 5.25645365745004E+0000
  0
LINE
  8
1
  6
DASHDOT
 62
     1
 10
 8.45758007948461E+0000
 20
 5.25645365745004E+0000
 11
 8.45758007948461E+0000
 21
 4.94107721744513E+0000
  0
LINE
  8
1
  6
DASHDOT
 62
     1
 10
 8.45758007948461E+0000
 20
 4.94107721744513E+0000
 11
 8.65682652495161E+0000
 21
 4.94107721744513E+0000
  0
LINE
  8
1
  6
DASHDOT
 62
     1
 10
 8.45758007948461E+0000
 20
 5.18812209545285E+0000
 11
 8.26357696152991E+0000
 21
 5.18812209545285E+0000
  0
LINE
  8
1
  6
DASHDOT
 62
     1
 10
 8.45758007948461E+0000
 20
 5.00415250544756E+0000
 11
 8.26357696152991E+0000
 21
 5.00415250544756E+0000
  0
LINE
  8
1
  6
DASHDOT
 62
     1
 10
 3.87032467054087E+0000
 20
 5.63276009951369E+0000
 11
 3.87032467054087E+0000
 21
 2.83479720328614E+0000
  0
CIRCLE
  8
1
  6
CONTINUOUS
 62
     1
 10
 3.87032467054087E+0000
 20
 4.15099868405377E+0000
 40
 1.18083788392687E+0000
  0
LINE
  8
1
  6
DASHDOT
 62
     1
 10
 4.88601040286449E+0000
 20
 4.15263611744012E+0000
 11
 5.30714838943823E+0000
 21
 4.15263611744012E+0000
  0
CIRCLE
  8
1
  6
DASHDOT
 62
     1
 10
 3.87032467054087E+0000
 20
 4.15099868406105E+0000
 40
 7.86409689761058E-0001
  0
CIRCLE
  8
1
  6
DASHDOT
 62
     1
 10
 3.87032467054087E+0000
 20
 4.15099868406105E+0000
 40
 7.03629722418555E-0001
  0
CIRCLE
  8
1
  6
DASHDOT
 62
     1
 10
 3.87032467054087E+0000
 20
 4.15099868405377E+0000
 40
 6.70517735481553E-0001
  0
CIRCLE
  8
1
  6
CONTINUOUS
 62
     1
 10
 3.87032467054087E+0000
 20
 4.15099868406105E+0000
 40
 6.87073728950054E-0001
  0
LINE
  8
1
  6
DASHDOT
 62
     1
 10
 3.73914112368948E+0000
 20
 5.10389442252927E+0000
 11
 4.00337022476742E+0000
 21
 5.10389442252927E+0000
  0
CIRCLE
  8
1
  6
CONTINUOUS
 62
     1
 10
 3.86818324281921E+0000
 20
 5.10389442252927E+0000
 40
 9.21729422407225E-0002
  0
CIRCLE
  8
1
  6
CONTINUOUS
 62
     1
 10
 3.86818324281921E+0000
 20
 5.10389442252927E+0000
 40
 1.59766433214827E-0001
  0
LINE
  8
1
  6
DASHDOT
 62
     1
 10
 2.91953780407493E+0000
 20
 4.02620686465525E+0000
 11
 2.91953780407493E+0000
 21
 4.29043596573320E+0000
  0
CIRCLE
  8
1
  6
CONTINUOUS
 62
     1
 10
 2.91953780407493E+0000
 20
 4.15524898378499E+0000
 40
 9.21729422407225E-0002
  0
CIRCLE
  8
1
  6
CONTINUOUS
 62
     1
 10
 2.91953780407493E+0000
 20
 4.15524898378499E+0000
 40
 1.59766433214827E-0001
  0
LINE
  8
1
  6
DASHDOT
 62
     1
 10
 3.99722536194895E+0000
 20
 3.20660354504071E+0000
 11
 3.73299626087100E+0000
 21
 3.20660354504071E+0000
  0
CIRCLE
  8
1
  6
CONTINUOUS
 62
     1
 10
 3.86818324281921E+0000
 20
 3.20660354504071E+0000
 40
 9.21729422407225E-0002
  0
CIRCLE
  8
1
  6
CONTINUOUS
 62
     1
 10
 3.86818324281921E+0000
 20
 3.20660354504071E+0000
 40
 1.59766433214827E-0001
  0
LINE
  8
1
  6
DASHDOT
 62
     1
 10
 4.81682868157077E+0000
 20
 4.28429110291472E+0000
 11
 4.81682868157077E+0000
 21
 4.02006200183678E+0000
  0
CIRCLE
  8
1
  6
CONTINUOUS
 62
     1
 10
 4.81682868157077E+0000
 20
 4.15524898378499E+0000
 40
 9.21729422407225E-0002
  0
CIRCLE
  8
1
  6
CONTINUOUS
 62
     1
 10
 4.81682868163625E+0000
 20
 4.15524898378499E+0000
 40
 1.59766433214827E-0001
  0
LINE
  8
1
  6
DASHDOT
 62
     1
 10
 3.73914112368948E+0000
 20
 5.10389442253654E+0000
 11
 4.00337022476742E+0000
 21
 5.10389442253654E+0000
  0
CIRCLE
  8
1
  6
CONTINUOUS
 62
     1
 10
 3.86818324281921E+0000
 20
 5.10389442253654E+0000
 40
 9.21729422407225E-0002
  0
CIRCLE
  8
1
  6
CONTINUOUS
 62
     1
 10
 3.86818324281194E+0000
 20
 5.10389442258020E+0000
 40
 1.59766433214827E-0001
  0
TEXT
  8
1
 62
     1
 10
 9.69127423813916E+0000
 20
 1.29107375961030E+0000
 40
 1.96850393699833E-0001
  1
Gleitlager vorn
  7
STANDARD
 11
 9.69127423813916E+0000
 21
 1.48792415331081E+0000
 50
 0.00000000000000E+0000
 41
 1.41851117092983E-0001
  0
TEXT
  8
1
 62
     1
 10
 9.63615597404714E+0000
 20
 1.08663532941318E+0000
 40
 1.18110236219991E-0001
  1
Messing/Bronze
  7
STANDARD
 11
 9.63615597404714E+0000
 21
 1.20474556563386E+0000
 50
 0.00000000000000E+0000
 41
 2.80838779959140E-0001
  0
TEXT
  8
1
 62
     1
 10
 1.08246435435285E+0001
 20
 3.89049052458176E-0001
 40
 1.18110236219991E-0001
  1
1
  7
STANDARD
 11
 1.08246435435285E+0001
 21
 5.07159288677940E-0001
 50
 0.00000000000000E+0000
 41
 3.08371993680339E-0001
  0
LINE
  8
1
  6
CONTINUOUS
 62
     1
 10
 3.70814190086094E+0000
 20
 5.10443236345600E+0000
 11
 3.70814190086094E+0000
 21
 5.81356223602779E+0000
  0
LINE
  8
1
  6
CONTINUOUS
 62
     1
 10
 3.70814190086094E+0000
 20
 5.81356223602779E+0000
 11
 4.02348142072879E+0000
 21
 5.81356223602779E+0000
  0
LINE
  8
1
  6
CONTINUOUS
 62
     1
 10
 4.02348142072879E+0000
 20
 5.81356223602779E+0000
 11
 4.02348142072879E+0000
 21
 5.10443236345600E+0000
  0
LINE
  8
1
  6
CONTINUOUS
 62
     1
 10
 2.82604351421469E+0000
 20
 4.15180608886294E+0000
 11
 2.82604351421469E+0000
 21
 5.60424076761410E+0000
  0
LINE
  8
1
  6
CONTINUOUS
 62
     1
 10
 2.82604351421469E+0000
 20
 5.60424076761410E+0000
 11
 3.00501999845437E+0000
 21
 5.60424076761410E+0000
  0
LINE
  8
1
  6
CONTINUOUS
 62
     1
 10
 3.00501999845437E+0000
 20
 5.60424076761410E+0000
 11
 3.00501999845437E+0000
 21
 4.15180608886294E+0000
  0
LINE
  8
1
  6
CONTINUOUS
 62
     1
 10
 4.02705739535304E+0000
 20
 5.81304205376364E+0000
 11
 4.02705739535304E+0000
 21
 5.81304205376364E+0000
  0
LINE
  8
1
  6
CONTINUOUS
 62
     1
 10
 4.02705739535304E+0000
 20
 5.81304205376364E+0000
 11
 4.18634672199551E+0000
 21
 5.78586053239997E+0000
  0
LINE
  8
1
  6
CONTINUOUS
 62
     1
 10
 4.18634672199551E+0000
 20
 5.78586053239997E+0000
 11
 4.18634672199551E+0000
 21
 5.84626416987157E+0000
  0
LINE
  8
1
  6
CONTINUOUS
 62
     1
 10
 4.18634672199551E+0000
 20
 5.84626416987157E+0000
 11
 4.02705739535304E+0000
 21
 5.81304205376364E+0000
  0
LINE
  8
1
  6
CONTINUOUS
 62
     1
 10
 4.18634672199551E+0000
 20
 5.78586053239997E+0000
 11
 4.18634672199551E+0000
 21
 5.84626416987157E+0000
  0
LINE
  8
1
  6
CONTINUOUS
 62
     1
 10
 4.03950932531006E+0000
 20
 5.81091722589917E+0000
 11
 4.03560232710151E+0000
 21
 5.81482422411500E+0000
  0
LINE
  8
1
  6
CONTINUOUS
 62
     1
 10
 4.06441318523139E+0000
 20
 5.80666757016297E+0000
 11
 4.05269219059119E+0000
 21
 5.81838856481045E+0000
  0
LINE
  8
1
  6
CONTINUOUS
 62
     1
 10
 4.08931704515271E+0000
 20
 5.80241791442677E+0000
 11
 4.06978205408086E+0000
 21
 5.82195290549862E+0000
  0
LINE
  8
1
  6
CONTINUOUS
 62
     1
 10
 4.11422090507403E+0000
 20
 5.79816825869057E+0000
 11
 4.08687191757053E+0000
 21
 5.82551724619407E+0000
  0
LINE
  8
1
  6
CONTINUOUS
 62
     1
 10
 4.13912476499536E+0000
 20
 5.79391860296164E+0000
 11
 4.10396178106021E+0000
 21
 5.82908158688952E+0000
  0
LINE
  8
1
  6
CONTINUOUS
 62
     1
 10
 4.16402862491668E+0000
 20
 5.78966894722544E+0000
 11
 4.12105164454988E+0000
 21
 5.83264592758496E+0000
  0
LINE
  8
1
  6
CONTINUOUS
 62
     1
 10
 4.18634672199551E+0000
 20
 5.78800505432446E+0000
 11
 4.13814150804683E+0000
 21
 5.83621026828041E+0000
  0
LINE
  8
1
  6
CONTINUOUS
 62
     1
 10
 4.18634672199551E+0000
 20
 5.80865925850958E+0000
 11
 4.15523137153650E+0000
 21
 5.83977460897586E+0000
  0
LINE
  8
1
  6
CONTINUOUS
 62
     1
 10
 4.18634672199551E+0000
 20
 5.82931346269470E+0000
 11
 4.17232123502617E+0000
 21
 5.84333894967131E+0000
  0
LINE
  8
1
  6
CONTINUOUS
 62
     1
 10
 4.18634672198823E+0000
 20
 5.79618763448525E+0000
 11
 4.17752498306072E+0000
 21
 5.78736589555774E+0000
  0
LINE
  8
1
  6
CONTINUOUS
 62
     1
 10
 4.18634672198823E+0000
 20
 5.81684183867037E+0000
 11
 4.15988150520570E+0000
 21
 5.79037662188784E+0000
  0
LINE
  8
1
  6
CONTINUOUS
 62
     1
 10
 4.18634672199551E+0000
 20
 5.83749604286277E+0000
 11
 4.14223802735796E+0000
 21
 5.79338734822522E+0000
  0
LINE
  8
1
  6
CONTINUOUS
 62
     1
 10
 4.17132834233780E+0000
 20
 5.84313186739018E+0000
 11
 4.12459454950294E+0000
 21
 5.79639807455533E+0000
  0
LINE
  8
1
  6
CONTINUOUS
 62
     1
 10
 4.14523119730438E+0000
 20
 5.83768892654189E+0000
 11
 4.10695107164793E+0000
 21
 5.79940880088543E+0000
  0
LINE
  8
1
  6
CONTINUOUS
 62
     1
 10
 4.11913405227097E+0000
 20
 5.83224598569359E+0000
 11
 4.08930759380019E+0000
 21
 5.80241952722281E+0000
  0
LINE
  8
1
  6
CONTINUOUS
 62
     1
 10
 4.09303690723755E+0000
 20
 5.82680304484529E+0000
 11
 4.07166411594517E+0000
 21
 5.80543025355291E+0000
  0
LINE
  8
1
  6
CONTINUOUS
 62
     1
 10
 4.06693976220413E+0000
 20
 5.82136010399699E+0000
 11
 4.05402063809015E+0000
 21
 5.80844097989029E+0000
  0
LINE
  8
1
  6
CONTINUOUS
 62
     1
 10
 4.04084261717799E+0000
 20
 5.81591716315597E+0000
 11
 4.03637716024241E+0000
 21
 5.81145170622040E+0000
  0
LINE
  8
1
  6
CONTINUOUS
 62
     1
 10
 3.70857485588203E+0000
 20
 5.81406495095143E+0000
 11
 3.70857485588203E+0000
 21
 5.81406495095143E+0000
  0
LINE
  8
1
  6
CONTINUOUS
 62
     1
 10
 3.70857485588203E+0000
 20
 5.81406495095143E+0000
 11
 3.54928552924684E+0000
 21
 5.84124647231511E+0000
  0
LINE
  8
1
  6
CONTINUOUS
 62
     1
 10
 3.54928552924684E+0000
 20
 5.84124647231511E+0000
 11
 3.54928552924684E+0000
 21
 5.78084283484350E+0000
  0
LINE
  8
1
  6
CONTINUOUS
 62
     1
 10
 3.54928552924684E+0000
 20
 5.78084283484350E+0000
 11
 3.70857485588203E+0000
 21
 5.81406495095143E+0000
  0
LINE
  8
1
  6
CONTINUOUS
 62
     1
 10
 3.54928552924684E+0000
 20
 5.84124647231511E+0000
 11
 3.54928552924684E+0000
 21
 5.78084283484350E+0000
  0
LINE
  8
1
  6
CONTINUOUS
 62
     1
 10
 3.55783046099532E+0000
 20
 5.78262500519486E+0000
 11
 3.54928552925048E+0000
 21
 5.79116993693606E+0000
  0
LINE
  8
1
  6
CONTINUOUS
 62
     1
 10
 3.57492032448499E+0000
 20
 5.78618934589031E+0000
 11
 3.54928552924684E+0000
 21
 5.81182414112845E+0000
  0
LINE
  8
1
  6
CONTINUOUS
 62
     1
 10
 3.59201018797467E+0000
 20
 5.78975368658575E+0000
 11
 3.54928552924684E+0000
 21
 5.83247834531358E+0000
  0
LINE
  8
1
  6
CONTINUOUS
 62
     1
 10
 3.60910005146798E+0000
 20
 5.79331802727393E+0000
 11
 3.56361719743654E+0000
 21
 5.83880088130536E+0000
  0
LINE
  8
1
  6
CONTINUOUS
 62
     1
 10
 3.62618991495765E+0000
 20
 5.79688236796937E+0000
 11
 3.58852105735787E+0000
 21
 5.83455122556916E+0000
  0
LINE
  8
1
  6
CONTINUOUS
 62
     1
 10
 3.64327977844732E+0000
 20
 5.80044670866482E+0000
 11
 3.61342491727919E+0000
 21
 5.83030156983295E+0000
  0
LINE
  8
1
  6
CONTINUOUS
 62
     1
 10
 3.66036964194063E+0000
 20
 5.80401104936027E+0000
 11
 3.63832877720051E+0000
 21
 5.82605191410403E+0000
  0
LINE
  8
1
  6
CONTINUOUS
 62
     1
 10
 3.67745950543031E+0000
 20
 5.80757539005572E+0000
 11
 3.66323263712184E+0000
 21
 5.82180225836782E+0000
  0
LINE
  8
1
  6
CONTINUOUS
 62
     1
 10
 3.69454936891998E+0000
 20
 5.81113973075117E+0000
 11
 3.68813649703952E+0000
 21
 5.81755260263162E+0000
  0
LINE
  8
1
  6
CONTINUOUS
 62
     1
 10
 3.69975311695453E+0000
 20
 5.81557031411648E+0000
 11
 3.69552628336533E+0000
 21
 5.81134348052728E+0000
  0
LINE
  8
1
  6
CONTINUOUS
 62
     1
 10
 3.68210963909951E+0000
 20
 5.81858104044659E+0000
 11
 3.66942913833191E+0000
 21
 5.80590053967899E+0000
  0
LINE
  8
1
  6
CONTINUOUS
 62
     1
 10
 3.66446616124449E+0000
 20
 5.82159176677669E+0000
 11
 3.64333199329849E+0000
 21
 5.80045759883069E+0000
  0
LINE
  8
1
  6
CONTINUOUS
 62
     1
 10
 3.64682268339675E+0000
 20
 5.82460249311407E+0000
 11
 3.61723484826871E+0000
 21
 5.79501465798239E+0000
  0
LINE
  8
1
  6
CONTINUOUS
 62
     1
 10
 3.62917920554537E+0000
 20
 5.82761321944417E+0000
 11
 3.59113770323529E+0000
 21
 5.78957171713409E+0000
  0
LINE
  8
1
  6
CONTINUOUS
 62
     1
 10
 3.61153572769035E+0000
 20
 5.83062394578155E+0000
 11
 3.56504055820187E+0000
 21
 5.78412877628580E+0000
  0
LINE
  8
1
  6
CONTINUOUS
 62
     1
 10
 3.59389224983897E+0000
 20
 5.83363467211166E+0000
 11
 3.54928552924321E+0000
 21
 5.78902795151225E+0000
  0
LINE
  8
1
  6
CONTINUOUS
 62
     1
 10
 3.57624877198396E+0000
 20
 5.83664539844176E+0000
 11
 3.54928552924321E+0000
 21
 5.80968215569737E+0000
  0
LINE
  8
1
  6
CONTINUOUS
 62
     1
 10
 3.55860529412894E+0000
 20
 5.83965612477186E+0000
 11
 3.54928552924684E+0000
 21
 5.83033635988977E+0000
  0
LINE
  8
1
  6
CONTINUOUS
 62
     1
 10
 2.81369243464724E+0000
 20
 5.60474348253774E+0000
 11
 2.81369243464724E+0000
 21
 5.60474348253774E+0000
  0
LINE
  8
1
  6
CONTINUOUS
 62
     1
 10
 2.81369243464724E+0000
 20
 5.60474348253774E+0000
 11
 2.65440310801205E+0000
 21
 5.63192500390142E+0000
  0
LINE
  8
1
  6
CONTINUOUS
 62
     1
 10
 2.65440310801205E+0000
 20
 5.63192500390142E+0000
 11
 2.65440310801205E+0000
 21
 5.57152136642981E+0000
  0
LINE
  8
1
  6
CONTINUOUS
 62
     1
 10
 2.65440310801205E+0000
 20
 5.57152136642981E+0000
 11
 2.81369243464724E+0000
 21
 5.60474348253774E+0000
  0
LINE
  8
1
  6
CONTINUOUS
 62
     1
 10
 2.65440310801205E+0000
 20
 5.63192500390142E+0000
 11
 2.65440310801205E+0000
 21
 5.57152136642981E+0000
  0
LINE
  8
1
  6
CONTINUOUS
 62
     1
 10
 2.66294803976052E+0000
 20
 5.57330353678117E+0000
 11
 2.65440310801205E+0000
 21
 5.58184846852964E+0000
  0
LINE
  8
1
  6
CONTINUOUS
 62
     1
 10
 2.68003790325020E+0000
 20
 5.57686787747662E+0000
 11
 2.65440310801205E+0000
 21
 5.60250267271476E+0000
  0
LINE
  8
1
  6
CONTINUOUS
 62
     1
 10
 2.69712776673987E+0000
 20
 5.58043221817206E+0000
 11
 2.65440310801205E+0000
 21
 5.62315687689988E+0000
  0
LINE
  8
1
  6
CONTINUOUS
 62
     1
 10
 2.71421763022954E+0000
 20
 5.58399655886751E+0000
 11
 2.66873477620538E+0000
 21
 5.62947941289167E+0000
  0
LINE
  8
1
  6
CONTINUOUS
 62
     1
 10
 2.73130749372285E+0000
 20
 5.58756089955568E+0000
 11
 2.69363863612307E+0000
 21
 5.62522975715547E+0000
  0
LINE
  8
1
  6
CONTINUOUS
 62
     1
 10
 2.74839735721253E+0000
 20
 5.59112524025113E+0000
 11
 2.71854249604439E+0000
 21
 5.62098010141926E+0000
  0
LINE
  8
1
  6
CONTINUOUS
 62
     1
 10
 2.76548722070220E+0000
 20
 5.59468958094658E+0000
 11
 2.74344635596572E+0000
 21
 5.61673044569034E+0000
  0
LINE
  8
1
  6
CONTINUOUS
 62
     1
 10
 2.78257708419551E+0000
 20
 5.59825392164203E+0000
 11
 2.76835021588340E+0000
 21
 5.61248078995413E+0000
  0
LINE
  8
1
  6
CONTINUOUS
 62
     1
 10
 2.79966694768518E+0000
 20
 5.60181826233747E+0000
 11
 2.79325407580473E+0000
 21
 5.60823113421793E+0000
  0
LINE
  8
1
  6
CONTINUOUS
 62
     1
 10
 2.80487069571973E+0000
 20
 5.60624884570279E+0000
 11
 2.80064386213053E+0000
 21
 5.60202201211359E+0000
  0
LINE
  8
1
  6
CONTINUOUS
 62
     1
 10
 2.78722721786471E+0000
 20
 5.60925957203290E+0000
 11
 2.77454671709711E+0000
 21
 5.59657907126530E+0000
  0
LINE
  8
1
  6
CONTINUOUS
 62
     1
 10
 2.76958374000969E+0000
 20
 5.61227029836300E+0000
 11
 2.74844957206369E+0000
 21
 5.59113613041700E+0000
  0
LINE
  8
1
  6
CONTINUOUS
 62
     1
 10
 2.75194026215831E+0000
 20
 5.61528102469310E+0000
 11
 2.72235242703027E+0000
 21
 5.58569318956870E+0000
  0
LINE
  8
1
  6
CONTINUOUS
 62
     1
 10
 2.73429678430330E+0000
 20
 5.61829175103048E+0000
 11
 2.69625528200049E+0000
 21
 5.58025024872768E+0000
  0
LINE
  8
1
  6
CONTINUOUS
 62
     1
 10
 2.71665330645556E+0000
 20
 5.62130247736786E+0000
 11
 2.67015813696707E+0000
 21
 5.57480730787938E+0000
  0
LINE
  8
1
  6
CONTINUOUS
 62
     1
 10
 2.69900982860054E+0000
 20
 5.62431320369797E+0000
 11
 2.65440310801205E+0000
 21
 5.57970648310584E+0000
  0
LINE
  8
1
  6
CONTINUOUS
 62
     1
 10
 2.68136635074916E+0000
 20
 5.62732393002807E+0000
 11
 2.65440310801205E+0000
 21
 5.60036068729096E+0000
  0
LINE
  8
1
  6
CONTINUOUS
 62
     1
 10
 2.66372287289414E+0000
 20
 5.63033465635817E+0000
 11
 2.65440310801205E+0000
 21
 5.62101489147608E+0000
  0
LINE
  8
1
  6
CONTINUOUS
 62
     1
 10
 3.00007328335778E+0000
 20
 5.60372058534995E+0000
 11
 3.00007328335778E+0000
 21
 5.60372058534995E+0000
  0
LINE
  8
1
  6
CONTINUOUS
 62
     1
 10
 3.00007328335778E+0000
 20
 5.60372058534995E+0000
 11
 3.15936261000024E+0000
 21
 5.57653906398627E+0000
  0
LINE
  8
1
  6
CONTINUOUS
 62
     1
 10
 3.15936261000024E+0000
 20
 5.57653906398627E+0000
 11
 3.15936261000024E+0000
 21
 5.63694270145788E+0000
  0
LINE
  8
1
  6
CONTINUOUS
 62
     1
 10
 3.15936261000024E+0000
 20
 5.63694270145788E+0000
 11
 3.00007328335778E+0000
 21
 5.60372058534995E+0000
  0
LINE
  8
1
  6
CONTINUOUS
 62
     1
 10
 3.15936261000024E+0000
 20
 5.57653906398627E+0000
 11
 3.15936261000024E+0000
 21
 5.63694270145788E+0000
  0
LINE
  8
1
  6
CONTINUOUS
 62
     1
 10
 3.01252521332208E+0000
 20
 5.60159575748548E+0000
 11
 3.00861821510625E+0000
 21
 5.60550275570131E+0000
  0
LINE
  8
1
  6
CONTINUOUS
 62
     1
 10
 3.03742907323976E+0000
 20
 5.59734610174928E+0000
 11
 3.02570807859593E+0000
 21
 5.60906709639676E+0000
  0
LINE
  8
1
  6
CONTINUOUS
 62
     1
 10
 3.06233293316109E+0000
 20
 5.59309644602035E+0000
 11
 3.04279794208560E+0000
 21
 5.61263143709220E+0000
  0
LINE
  8
1
  6
CONTINUOUS
 62
     1
 10
 3.08723679307877E+0000
 20
 5.58884679028415E+0000
 11
 3.05988780557891E+0000
 21
 5.61619577778038E+0000
  0
LINE
  8
1
  6
CONTINUOUS
 62
     1
 10
 3.11214065300010E+0000
 20
 5.58459713454795E+0000
 11
 3.07697766906858E+0000
 21
 5.61976011847582E+0000
  0
LINE
  8
1
  6
CONTINUOUS
 62
     1
 10
 3.13704451292142E+0000
 20
 5.58034747881175E+0000
 11
 3.09406753255826E+0000
 21
 5.62332445917127E+0000
  0
LINE
  8
1
  6
CONTINUOUS
 62
     1
 10
 3.15936261000388E+0000
 20
 5.57868358591804E+0000
 11
 3.11115739605157E+0000
 21
 5.62688879986672E+0000
  0
LINE
  8
1
  6
CONTINUOUS
 62
     1
 10
 3.15936261000024E+0000
 20
 5.59933779010316E+0000
 11
 3.12824725954124E+0000
 21
 5.63045314056217E+0000
  0
LINE
  8
1
  6
CONTINUOUS
 62
     1
 10
 3.15936261000024E+0000
 20
 5.61999199428828E+0000
 11
 3.14533712303455E+0000
 21
 5.63401748125762E+0000
  0
LINE
  8
1
  6
CONTINUOUS
 62
     1
 10
 3.15936260999661E+0000
 20
 5.58686616607156E+0000
 11
 3.15054087107274E+0000
 21
 5.57804442714405E+0000
  0
LINE
  8
1
  6
CONTINUOUS
 62
     1
 10
 3.15936260999661E+0000
 20
 5.60752037025668E+0000
 11
 3.13289739321772E+0000
 21
 5.58105515348143E+0000
  0
LINE
  8
1
  6
CONTINUOUS
 62
     1
 10
 3.15936260999661E+0000
 20
 5.62817457444180E+0000
 11
 3.11525391536270E+0000
 21
 5.58406587981153E+0000
  0
LINE
  8
1
  6
CONTINUOUS
 62
     1
 10
 3.14434423033890E+0000
 20
 5.63381039896922E+0000
 11
 3.09761043751132E+0000
 21
 5.58707660614164E+0000
  0
LINE
  8
1
  6
CONTINUOUS
 62
     1
 10
 3.11824708531276E+0000
 20
 5.62836745812820E+0000
 11
 3.07996695965630E+0000
 21
 5.59008733247174E+0000
  0
LINE
  8
1
  6
CONTINUOUS
 62
     1
 10
 3.09214994027570E+0000
 20
 5.62292451727990E+0000
 11
 3.06232348180856E+0000
 21
 5.59309805880912E+0000
  0
LINE
  8
1
  6
CONTINUOUS
 62
     1
 10
 3.06605279524956E+0000
 20
 5.61748157643888E+0000
 11
 3.04468000395718E+0000
 21
 5.59610878514650E+0000
  0
LINE
  8
1
  6
CONTINUOUS
 62
     1
 10
 3.03995565021614E+0000
 20
 5.61203863559058E+0000
 11
 3.02703652610217E+0000
 21
 5.59911951147660E+0000
  0
LINE
  8
1
  6
CONTINUOUS
 62
     1
 10
 3.01385850518636E+0000
 20
 5.60659569474228E+0000
 11
 3.00939304824715E+0000
 21
 5.60213023780670E+0000
  0
LINE
  8
1
  6
CONTINUOUS
 62
     1
 10
 4.00337022476742E+0000
 20
 5.10389442252927E+0000
 11
 5.62107019487303E+0000
 21
 5.10389442252927E+0000
  0
LINE
  8
1
  6
CONTINUOUS
 62
     1
 10
 5.62107019487303E+0000
 20
 5.10389442252927E+0000
 11
 5.62107019487303E+0000
 21
 4.15156003166339E+0000
  0
LINE
  8
1
  6
CONTINUOUS
 62
     1
 10
 5.62107019487303E+0000
 20
 4.15156003166339E+0000
 11
 5.29507324170117E+0000
 21
 4.15156003166339E+0000
  0
LINE
  8
1
  6
CONTINUOUS
 62
     1
 10
 5.62313589628320E+0000
 20
 5.10267083156214E+0000
 11
 5.62313589628320E+0000
 21
 5.10267083156214E+0000
  0
LINE
  8
1
  6
CONTINUOUS
 62
     1
 10
 5.62313589628320E+0000
 20
 5.10267083156214E+0000
 11
 5.59595437491953E+0000
 21
 4.94338150493422E+0000
  0
LINE
  8
1
  6
CONTINUOUS
 62
     1
 10
 5.59595437491953E+0000
 20
 4.94338150493422E+0000
 11
 5.65635801239114E+0000
 21
 4.94338150493422E+0000
  0
LINE
  8
1
  6
CONTINUOUS
 62
     1
 10
 5.65635801239114E+0000
 20
 4.94338150493422E+0000
 11
 5.62313589628320E+0000
 21
 5.10267083156214E+0000
  0
LINE
  8
1
  6
CONTINUOUS
 62
     1
 10
 5.59595437491953E+0000
 20
 4.94338150493422E+0000
 11
 5.65635801239114E+0000
 21
 4.94338150493422E+0000
  0
LINE
  8
1
  6
CONTINUOUS
 62
     1
 10
 5.60628147701209E+0000
 20
 4.94338150493422E+0000
 11
 5.59745973808458E+0000
 21
 4.95220324386173E+0000
  0
LINE
  8
1
  6
CONTINUOUS
 62
     1
 10
 5.62693568119721E+0000
 20
 4.94338150493422E+0000
 11
 5.60047046442196E+0000
 21
 4.96984672171675E+0000
  0
LINE
  8
1
  6
CONTINUOUS
 62
     1
 10
 5.64758988538233E+0000
 20
 4.94338150493422E+0000
 11
 5.60348119075206E+0000
 21
 4.98749019956449E+0000
  0
LINE
  8
1
  6
CONTINUOUS
 62
     1
 10
 5.65322570991702E+0000
 20
 4.95839988458465E+0000
 11
 5.60649191708217E+0000
 21
 5.00513367741951E+0000
  0
LINE
  8
1
  6
CONTINUOUS
 62
     1
 10
 5.64778276906873E+0000
 20
 4.98449702961807E+0000
 11
 5.60950264341955E+0000
 21
 5.02277715527453E+0000
  0
LINE
  8
1
  6
CONTINUOUS
 62
     1
 10
 5.64233982822043E+0000
 20
 5.01059417465149E+0000
 11
 5.61251336974965E+0000
 21
 5.04042063312227E+0000
  0
LINE
  8
1
  6
CONTINUOUS
 62
     1
 10
 5.63689688737941E+0000
 20
 5.03669131968491E+0000
 11
 5.61552409607975E+0000
 21
 5.05806411097728E+0000
  0
LINE
  8
1
  6
CONTINUOUS
 62
     1
 10
 5.63145394653111E+0000
 20
 5.06278846471832E+0000
 11
 5.61853482241713E+0000
 21
 5.07570758883230E+0000
  0
LINE
  8
1
  6
CONTINUOUS
 62
     1
 10
 5.62601100568281E+0000
 20
 5.08888560974447E+0000
 11
 5.62154554874724E+0000
 21
 5.09335106668004E+0000
  0
LINE
  8
1
  6
CONTINUOUS
 62
     1
 10
 5.65457584203978E+0000
 20
 4.95192643667542E+0000
 11
 5.64603091029130E+0000
 21
 4.94338150492695E+0000
  0
LINE
  8
1
  6
CONTINUOUS
 62
     1
 10
 5.65101150134433E+0000
 20
 4.96901630016509E+0000
 11
 5.62537670610618E+0000
 21
 4.94338150492695E+0000
  0
LINE
  8
1
  6
CONTINUOUS
 62
     1
 10
 5.64744716064888E+0000
 20
 4.98610616365477E+0000
 11
 5.60472250192106E+0000
 21
 4.94338150492695E+0000
  0
LINE
  8
1
  6
CONTINUOUS
 62
     1
 10
 5.64388281995343E+0000
 20
 5.00319602714444E+0000
 11
 5.59839996592200E+0000
 21
 4.95771317312028E+0000
  0
LINE
  8
1
  6
CONTINUOUS
 62
     1
 10
 5.64031847925799E+0000
 20
 5.02028589063411E+0000
 11
 5.60264962165820E+0000
 21
 4.98261703304161E+0000
  0
LINE
  8
1
  6
CONTINUOUS
 62
     1
 10
 5.63675413856254E+0000
 20
 5.03737575413106E+0000
 11
 5.60689927739440E+0000
 21
 5.00752089296293E+0000
  0
LINE
  8
1
  6
CONTINUOUS
 62
     1
 10
 5.63318979786709E+0000
 20
 5.05446561761346E+0000
 11
 5.61114893313061E+0000
 21
 5.03242475287698E+0000
  0
LINE
  8
1
  6
CONTINUOUS
 62
     1
 10
 5.62962545717164E+0000
 20
 5.07155548110313E+0000
 11
 5.61539858885953E+0000
 21
 5.05732861279830E+0000
  0
LINE
  8
1
  6
CONTINUOUS
 62
     1
 10
 5.62606111647619E+0000
 20
 5.08864534460008E+0000
 11
 5.61964824459574E+0000
 21
 5.08223247271962E+0000
  0
LINE
  8
1
  6
CONTINUOUS
 62
     1
 10
 5.62043461998110E+0000
 20
 4.15308278538578E+0000
 11
 5.62043461998110E+0000
 21
 4.15308278538578E+0000
  0
LINE
  8
1
  6
CONTINUOUS
 62
     1
 10
 5.62043461998110E+0000
 20
 4.15308278538578E+0000
 11
 5.64761614134477E+0000
 21
 4.31237211201369E+0000
  0
LINE
  8
1
  6
CONTINUOUS
 62
     1
 10
 5.64761614134477E+0000
 20
 4.31237211201369E+0000
 11
 5.58721250387316E+0000
 21
 4.31237211201369E+0000
  0
LINE
  8
1
  6
CONTINUOUS
 62
     1
 10
 5.58721250387316E+0000
 20
 4.31237211201369E+0000
 11
 5.62043461998110E+0000
 21
 4.15308278538578E+0000
  0
LINE
  8
1
  6
CONTINUOUS
 62
     1
 10
 5.64761614134477E+0000
 20
 4.31237211201369E+0000
 11
 5.58721250387316E+0000
 21
 4.31237211201369E+0000
  0
LINE
  8
1
  6
CONTINUOUS
 62
     1
 10
 5.62193998314615E+0000
 20
 4.16190452431329E+0000
 11
 5.61771314955695E+0000
 21
 4.16613135790249E+0000
  0
LINE
  8
1
  6
CONTINUOUS
 62
     1
 10
 5.62495070948353E+0000
 20
 4.17954800216830E+0000
 11
 5.61227020870865E+0000
 21
 4.19222850293590E+0000
  0
LINE
  8
1
  6
CONTINUOUS
 62
     1
 10
 5.62796143581363E+0000
 20
 4.19719148001604E+0000
 11
 5.60682726786763E+0000
 21
 4.21832564796932E+0000
  0
LINE
  8
1
  6
CONTINUOUS
 62
     1
 10
 5.63097216214373E+0000
 20
 4.21483495787106E+0000
 11
 5.60138432701933E+0000
 21
 4.24442279300274E+0000
  0
LINE
  8
1
  6
CONTINUOUS
 62
     1
 10
 5.63398288848111E+0000
 20
 4.23247843572608E+0000
 11
 5.59594138617103E+0000
 21
 4.27051993802888E+0000
  0
LINE
  8
1
  6
CONTINUOUS
 62
     1
 10
 5.63699361481122E+0000
 20
 4.25012191357382E+0000
 11
 5.59049844532274E+0000
 21
 4.29661708306230E+0000
  0
LINE
  8
1
  6
CONTINUOUS
 62
     1
 10
 5.64000434114860E+0000
 20
 4.26776539142884E+0000
 11
 5.59539762055647E+0000
 21
 4.31237211201369E+0000
  0
LINE
  8
1
  6
CONTINUOUS
 62
     1
 10
 5.64301506747870E+0000
 20
 4.28540886928386E+0000
 11
 5.61605182474159E+0000
 21
 4.31237211201369E+0000
  0
LINE
  8
1
  6
CONTINUOUS
 62
     1
 10
 5.64602579380880E+0000
 20
 4.30305234713160E+0000
 11
 5.63670602892671E+0000
 21
 4.31237211201369E+0000
  0
LINE
  8
1
  6
CONTINUOUS
 62
     1
 10
 5.62255944784556E+0000
 20
 4.16553471534280E+0000
 11
 5.61865244962974E+0000
 21
 4.16162771712698E+0000
  0
LINE
  8
1
  6
CONTINUOUS
 62
     1
 10
 5.62680910358176E+0000
 20
 4.19043857526412E+0000
 11
 5.61508810893429E+0000
 21
 4.17871758062392E+0000
  0
LINE
  8
1
  6
CONTINUOUS
 62
     1
 10
 5.63105875931797E+0000
 20
 4.21534243518545E+0000
 11
 5.61152376823884E+0000
 21
 4.19580744410632E+0000
  0
LINE
  8
1
  6
CONTINUOUS
 62
     1
 10
 5.63530841504689E+0000
 20
 4.24024629509950E+0000
 11
 5.60795942754339E+0000
 21
 4.21289730759599E+0000
  0
LINE
  8
1
  6
CONTINUOUS
 62
     1
 10
 5.63955807078310E+0000
 20
 4.26515015502082E+0000
 11
 5.60439508685522E+0000
 21
 4.22998717109294E+0000
  0
LINE
  8
1
  6
CONTINUOUS
 62
     1
 10
 5.64380772651930E+0000
 20
 4.29005401494214E+0000
 11
 5.60083074615977E+0000
 21
 4.24707703458262E+0000
  0
LINE
  8
1
  6
CONTINUOUS
 62
     1
 10
 5.64547161939845E+0000
 20
 4.31237211201369E+0000
 11
 5.59726640545705E+0000
 21
 4.26416689807229E+0000
  0
LINE
  8
1
  6
CONTINUOUS
 62
     1
 10
 5.62481741521333E+0000
 20
 4.31237211201369E+0000
 11
 5.59370206476888E+0000
 21
 4.28125676156196E+0000
  0
LINE
  8
1
  6
CONTINUOUS
 62
     1
 10
 5.60416321102821E+0000
 20
 4.31237211201369E+0000
 11
 5.59013772407343E+0000
 21
 4.29834662505164E+0000
  0
LINE
  8
1
  6
CONTINUOUS
 62
     1
 10
 7.50920750015212E+0000
 20
 4.85721411053964E+0000
 11
 7.17233123993356E+0000
 21
 4.85721411053964E+0000
  0
LINE
  8
1
  6
CONTINUOUS
 62
     1
 10
 7.17233123993356E+0000
 20
 4.85721411053964E+0000
 11
 7.17233123993356E+0000
 21
 3.44594580218472E+0000
  0
LINE
  8
1
  6
CONTINUOUS
 62
     1
 10
 7.17233123993356E+0000
 20
 3.44594580218472E+0000
 11
 7.52021024379792E+0000
 21
 3.44594580218472E+0000
  0
LINE
  8
1
  6
CONTINUOUS
 62
     1
 10
 7.70741541215830E+0000
 20
 4.93669303624483E+0000
 11
 6.95664625753852E+0000
 21
 4.93669303624483E+0000
  0
LINE
  8
1
  6
CONTINUOUS
 62
     1
 10
 6.95664625753852E+0000
 20
 4.93669303624483E+0000
 11
 6.95664625753852E+0000
 21
 3.36922345002313E+0000
  0
LINE
  8
1
  6
CONTINUOUS
 62
     1
 10
 6.95664625753852E+0000
 20
 3.36922345002313E+0000
 11
 7.70806490589894E+0000
 21
 3.36922345002313E+0000
  0
LINE
  8
1
  6
CONTINUOUS
 62
     1
 10
 8.65881338976033E+0000
 20
 5.33408766474895E+0000
 11
 9.09262334130472E+0000
 21
 5.33408766474895E+0000
  0
LINE
  8
1
  6
CONTINUOUS
 62
     1
 10
 9.09262334130472E+0000
 20
 5.33408766474895E+0000
 11
 9.09262334130472E+0000
 21
 2.97166217063932E+0000
  0
LINE
  8
1
  6
CONTINUOUS
 62
     1
 10
 9.09262334130472E+0000
 20
 2.97166217063932E+0000
 11
 8.66125337650010E+0000
 21
 2.97166217063932E+0000
  0
LINE
  8
1
  6
CONTINUOUS
 62
     1
 10
 8.26239756576251E+0000
 20
 2.97118457013130E+0000
 11
 8.26239756576251E+0000
 21
 2.58107565054161E+0000
  0
LINE
  8
1
  6
CONTINUOUS
 62
     1
 10
 8.26239756576251E+0000
 20
 2.58107565054161E+0000
 11
 8.66125337650010E+0000
 21
 2.58107565054161E+0000
  0
LINE
  8
1
  6
CONTINUOUS
 62
     1
 10
 8.66125337650010E+0000
 20
 2.58107565054161E+0000
 11
 8.66125337650010E+0000
 21
 2.97166217063932E+0000
  0
LINE
  8
1
  6
CONTINUOUS
 62
     1
 10
 8.66125337650010E+0000
 20
 2.58107565054161E+0000
 11
 8.66125337650010E+0000
 21
 2.29511051975715E+0000
  0
LINE
  8
1
  6
CONTINUOUS
 62
     1
 10
 8.66125337650010E+0000
 20
 2.29511051975715E+0000
 11
 7.70806490589894E+0000
 21
 2.29511051975715E+0000
  0
LINE
  8
1
  6
CONTINUOUS
 62
     1
 10
 7.70806490589894E+0000
 20
 2.29511051975715E+0000
 11
 7.70806490589894E+0000
 21
 3.37619820930922E+0000
  0
LINE
  8
1
  6
CONTINUOUS
 62
     1
 10
 8.66125337650010E+0000
 20
 2.29511051975715E+0000
 11
 8.66125337650010E+0000
 21
 1.99519587039686E+0000
  0
LINE
  8
1
  6
CONTINUOUS
 62
     1
 10
 8.66125337650010E+0000
 20
 1.99519587039686E+0000
 11
 7.47846476334234E+0000
 21
 1.99519587039686E+0000
  0
LINE
  8
1
  6
CONTINUOUS
 62
     1
 10
 7.47846476334234E+0000
 20
 1.99519587039686E+0000
 11
 7.47846476334234E+0000
 21
 3.47384483933638E+0000
  0
LINE
  8
1
  6
CONTINUOUS
 62
     1
 10
 8.65682652495161E+0000
 20
 4.84120801144309E+0000
 11
 8.88389593898319E+0000
 21
 4.84120801144309E+0000
  0
LINE
  8
1
  6
CONTINUOUS
 62
     1
 10
 8.88389593898319E+0000
 20
 4.84120801144309E+0000
 11
 8.88389593898319E+0000
 21
 3.46687008004665E+0000
  0
LINE
  8
1
  6
CONTINUOUS
 62
     1
 10
 8.88389593898319E+0000
 20
 3.46687008004665E+0000
 11
 8.66125337650010E+0000
 21
 3.46687008004665E+0000
  0
LINE
  8
1
  6
CONTINUOUS
 62
     1
 10
 7.47846476334234E+0000
 20
 4.55451969437854E+0000
 11
 7.34627074187301E+0000
 21
 4.55451969437854E+0000
  0
LINE
  8
1
  6
CONTINUOUS
 62
     1
 10
 7.34627074187301E+0000
 20
 4.49215969530633E+0000
 11
 7.34627074187301E+0000
 21
 3.81560804442051E+0000
  0
LINE
  8
1
  6
CONTINUOUS
 62
     1
 10
 7.34627074187301E+0000
 20
 3.76458622700011E+0000
 11
 7.49933750357741E+0000
 21
 3.76458622700011E+0000
  0
LINE
  8
1
  6
CONTINUOUS
 62
     1
 10
 8.88837183536089E+0000
 20
 3.46175259925076E+0000
 11
 8.88837183536089E+0000
 21
 3.46175259925076E+0000
  0
LINE
  8
1
  6
CONTINUOUS
 62
     1
 10
 8.88837183536089E+0000
 20
 3.46175259925076E+0000
 11
 8.91555335672456E+0000
 21
 3.62104192587867E+0000
  0
LINE
  8
1
  6
CONTINUOUS
 62
     1
 10
 8.91555335672456E+0000
 20
 3.62104192587867E+0000
 11
 8.85514971925295E+0000
 21
 3.62104192587867E+0000
  0
LINE
  8
1
  6
CONTINUOUS
 62
     1
 10
 8.85514971925295E+0000
 20
 3.62104192587867E+0000
 11
 8.88837183536089E+0000
 21
 3.46175259925076E+0000
  0
LINE
  8
1
  6
CONTINUOUS
 62
     1
 10
 8.91555335672456E+0000
 20
 3.62104192587867E+0000
 11
 8.85514971925295E+0000
 21
 3.62104192587867E+0000
  0
LINE
  8
1
  6
CONTINUOUS
 62
     1
 10
 8.88987719852594E+0000
 20
 3.47057433818554E+0000
 11
 8.88565036494401E+0000
 21
 3.47480117178202E+0000
  0
LINE
  8
1
  6
CONTINUOUS
 62
     1
 10
 8.89288792487059E+0000
 20
 3.48821781604056E+0000
 11
 8.88020742409572E+0000
 21
 3.50089831681180E+0000
  0
LINE
  8
1
  6
CONTINUOUS
 62
     1
 10
 8.89589865120070E+0000
 20
 3.50586129389194E+0000
 11
 8.87476448324742E+0000
 21
 3.52699546184522E+0000
  0
LINE
  8
1
  6
CONTINUOUS
 62
     1
 10
 8.89890937753080E+0000
 20
 3.52350477174696E+0000
 11
 8.86932154239912E+0000
 21
 3.55309260687864E+0000
  0
LINE
  8
1
  6
CONTINUOUS
 62
     1
 10
 8.90192010386090E+0000
 20
 3.54114824960197E+0000
 11
 8.86387860155082E+0000
 21
 3.57918975190842E+0000
  0
LINE
  8
1
  6
CONTINUOUS
 62
     1
 10
 8.90493083019101E+0000
 20
 3.55879172744972E+0000
 11
 8.85843566070253E+0000
 21
 3.60528689694183E+0000
  0
LINE
  8
1
  6
CONTINUOUS
 62
     1
 10
 8.90794155652111E+0000
 20
 3.57643520530473E+0000
 11
 8.86333483595809E+0000
 21
 3.62104192587867E+0000
  0
LINE
  8
1
  6
CONTINUOUS
 62
     1
 10
 8.91095228285121E+0000
 20
 3.59407868315975E+0000
 11
 8.88398904014321E+0000
 21
 3.62104192587867E+0000
  0
LINE
  8
1
  6
CONTINUOUS
 62
     1
 10
 8.91396300919587E+0000
 20
 3.61172216101113E+0000
 11
 8.90464324432833E+0000
 21
 3.62104192587503E+0000
  0
LINE
  8
1
  6
CONTINUOUS
 62
     1
 10
 8.89049666322535E+0000
 20
 3.47420452920778E+0000
 11
 8.88658966500952E+0000
 21
 3.47029753099559E+0000
  0
LINE
  8
1
  6
CONTINUOUS
 62
     1
 10
 8.89474631895428E+0000
 20
 3.49910838912911E+0000
 11
 8.88302532432135E+0000
 21
 3.48738739448527E+0000
  0
LINE
  8
1
  6
CONTINUOUS
 62
     1
 10
 8.89899597469775E+0000
 20
 3.52401224905043E+0000
 11
 8.87946098361863E+0000
 21
 3.50447725797858E+0000
  0
LINE
  8
1
  6
CONTINUOUS
 62
     1
 10
 8.90324563042668E+0000
 20
 3.54891610897175E+0000
 11
 8.87589664293046E+0000
 21
 3.52156712146825E+0000
  0
LINE
  8
1
  6
CONTINUOUS
 62
     1
 10
 8.90749528617016E+0000
 20
 3.57381996889308E+0000
 11
 8.87233230222773E+0000
 21
 3.53865698495065E+0000
  0
LINE
  8
1
  6
CONTINUOUS
 62
     1
 10
 8.91174494189909E+0000
 20
 3.59872382881440E+0000
 11
 8.86876796152501E+0000
 21
 3.55574684844396E+0000
  0
LINE
  8
1
  6
CONTINUOUS
 62
     1
 10
 8.91340883477824E+0000
 20
 3.62104192587503E+0000
 11
 8.86520362083684E+0000
 21
 3.57283671193363E+0000
  0
LINE
  8
1
  6
CONTINUOUS
 62
     1
 10
 8.89275463059312E+0000
 20
 3.62104192587503E+0000
 11
 8.86163928014867E+0000
 21
 3.58992657542694E+0000
  0
LINE
  8
1
  6
CONTINUOUS
 62
     1
 10
 8.87210042640800E+0000
 20
 3.62104192587503E+0000
 11
 8.85807493944594E+0000
 21
 3.60701643891662E+0000
  0
LINE
  8
1
  6
CONTINUOUS
 62
     1
 10
 8.88802382697759E+0000
 20
 4.84883700162754E+0000
 11
 8.88802382697759E+0000
 21
 4.84883700162754E+0000
  0
LINE
  8
1
  6
CONTINUOUS
 62
     1
 10
 8.88802382697759E+0000
 20
 4.84883700162754E+0000
 11
 8.86084230561391E+0000
 21
 4.68954767499963E+0000
  0
LINE
  8
1
  6
CONTINUOUS
 62
     1
 10
 8.86084230561391E+0000
 20
 4.68954767499963E+0000
 11
 8.92124594308552E+0000
 21
 4.68954767499963E+0000
  0
LINE
  8
1
  6
CONTINUOUS
 62
     1
 10
 8.92124594308552E+0000
 20
 4.68954767499963E+0000
 11
 8.88802382697759E+0000
 21
 4.84883700162754E+0000
  0
LINE
  8
1
  6
CONTINUOUS
 62
     1
 10
 8.86084230561391E+0000
 20
 4.68954767499963E+0000
 11
 8.92124594308552E+0000
 21
 4.68954767499963E+0000
  0
LINE
  8
1
  6
CONTINUOUS
 62
     1
 10
 8.87116940772103E+0000
 20
 4.68954767499963E+0000
 11
 8.86234766877897E+0000
 21
 4.69836941393442E+0000
  0
LINE
  8
1
  6
CONTINUOUS
 62
     1
 10
 8.89182361190615E+0000
 20
 4.68954767499963E+0000
 11
 8.86535839510907E+0000
 21
 4.71601289178943E+0000
  0
LINE
  8
1
  6
CONTINUOUS
 62
     1
 10
 8.91247781609127E+0000
 20
 4.68954767499963E+0000
 11
 8.86836912145372E+0000
 21
 4.73365636964445E+0000
  0
LINE
  8
1
  6
CONTINUOUS
 62
     1
 10
 8.91811364059686E+0000
 20
 4.70456605467189E+0000
 11
 8.87137984778383E+0000
 21
 4.75129984749219E+0000
  0
LINE
  8
1
  6
CONTINUOUS
 62
     1
 10
 8.91267069974856E+0000
 20
 4.73066319970530E+0000
 11
 8.87439057411393E+0000
 21
 4.76894332534721E+0000
  0
LINE
  8
1
  6
CONTINUOUS
 62
     1
 10
 8.90722775891481E+0000
 20
 4.75676034473872E+0000
 11
 8.87740130044403E+0000
 21
 4.78658680320223E+0000
  0
LINE
  8
1
  6
CONTINUOUS
 62
     1
 10
 8.90178481806652E+0000
 20
 4.78285748977214E+0000
 11
 8.88041202677414E+0000
 21
 4.80423028104997E+0000
  0
LINE
  8
1
  6
CONTINUOUS
 62
     1
 10
 8.89634187721822E+0000
 20
 4.80895463479828E+0000
 11
 8.88342275311879E+0000
 21
 4.82187375890499E+0000
  0
LINE
  8
1
  6
CONTINUOUS
 62
     1
 10
 8.89089893636992E+0000
 20
 4.83505177983170E+0000
 11
 8.88643347944890E+0000
 21
 4.83951723676000E+0000
  0
LINE
  8
1
  6
CONTINUOUS
 62
     1
 10
 8.91946377273416E+0000
 20
 4.69809260674083E+0000
 11
 8.91091884099296E+0000
 21
 4.68954767499963E+0000
  0
LINE
  8
1
  6
CONTINUOUS
 62
     1
 10
 8.91589943203144E+0000
 20
 4.71518247023050E+0000
 11
 8.89026463680784E+0000
 21
 4.68954767499963E+0000
  0
LINE
  8
1
  6
CONTINUOUS
 62
     1
 10
 8.91233509134327E+0000
 20
 4.73227233372745E+0000
 11
 8.86961043262272E+0000
 21
 4.68954767499963E+0000
  0
LINE
  8
1
  6
CONTINUOUS
 62
     1
 10
 8.90877075065509E+0000
 20
 4.74936219721712E+0000
 11
 8.86328789661638E+0000
 21
 4.70387934318569E+0000
  0
LINE
  8
1
  6
CONTINUOUS
 62
     1
 10
 8.90520640995237E+0000
 20
 4.76645206069952E+0000
 11
 8.86753755234531E+0000
 21
 4.72878320310701E+0000
  0
LINE
  8
1
  6
CONTINUOUS
 62
     1
 10
 8.90164206924965E+0000
 20
 4.78354192418919E+0000
 11
 8.87178720808879E+0000
 21
 4.75368706302834E+0000
  0
LINE
  8
1
  6
CONTINUOUS
 62
     1
 10
 8.89807772856147E+0000
 20
 4.80063178767887E+0000
 11
 8.87603686381772E+0000
 21
 4.77859092294966E+0000
  0
LINE
  8
1
  6
CONTINUOUS
 62
     1
 10
 8.89451338785875E+0000
 20
 4.81772165117582E+0000
 11
 8.88028651956120E+0000
 21
 4.80349478287098E+0000
  0
LINE
  8
1
  6
CONTINUOUS
 62
     1
 10
 8.89094904717058E+0000
 20
 4.83481151466549E+0000
 11
 8.88453617529012E+0000
 21
 4.82839864277776E+0000
  0
LINE
  8
1
  6
CONTINUOUS
 62
     1
 10
 9.09109946225362E+0000
 20
 2.95368212691756E+0000
 11
 9.09109946225362E+0000
 21
 2.95368212691756E+0000
  0
LINE
  8
1
  6
CONTINUOUS
 62
     1
 10
 9.09109946225362E+0000
 20
 2.95368212691756E+0000
 11
 9.11828098361730E+0000
 21
 3.11297145354547E+0000
  0
LINE
  8
1
  6
CONTINUOUS
 62
     1
 10
 9.11828098361730E+0000
 20
 3.11297145354547E+0000
 11
 9.05787734614569E+0000
 21
 3.11297145354547E+0000
  0
LINE
  8
1
  6
CONTINUOUS
 62
     1
 10
 9.05787734614569E+0000
 20
 3.11297145354547E+0000
 11
 9.09109946225362E+0000
 21
 2.95368212691756E+0000
  0
LINE
  8
1
  6
CONTINUOUS
 62
     1
 10
 9.11828098361730E+0000
 20
 3.11297145354547E+0000
 11
 9.05787734614569E+0000
 21
 3.11297145354547E+0000
  0
LINE
  8
1
  6
CONTINUOUS
 62
     1
 10
 9.09260482541868E+0000
 20
 2.96250386585962E+0000
 11
 9.08837799183675E+0000
 21
 2.96673069945246E+0000
  0
LINE
  8
1
  6
CONTINUOUS
 62
     1
 10
 9.09561555176333E+0000
 20
 2.98014734370736E+0000
 11
 9.08293505098845E+0000
 21
 2.99282784448587E+0000
  0
LINE
  8
1
  6
CONTINUOUS
 62
     1
 10
 9.09862627809343E+0000
 20
 2.99779082156238E+0000
 11
 9.07749211014016E+0000
 21
 3.01892498951565E+0000
  0
LINE
  8
1
  6
CONTINUOUS
 62
     1
 10
 9.10163700442354E+0000
 20
 3.01543429941739E+0000
 11
 9.07204916929186E+0000
 21
 3.04502213454907E+0000
  0
LINE
  8
1
  6
CONTINUOUS
 62
     1
 10
 9.10464773075364E+0000
 20
 3.03307777726877E+0000
 11
 9.06660622844356E+0000
 21
 3.07111927958249E+0000
  0
LINE
  8
1
  6
CONTINUOUS
 62
     1
 10
 9.10765845708374E+0000
 20
 3.05072125512379E+0000
 11
 9.06116328759526E+0000
 21
 3.09721642461227E+0000
  0
LINE
  8
1
  6
CONTINUOUS
 62
     1
 10
 9.11066918341385E+0000
 20
 3.06836473297517E+0000
 11
 9.06606246285082E+0000
 21
 3.11297145355275E+0000
  0
LINE
  8
1
  6
CONTINUOUS
 62
     1
 10
 9.11367990974395E+0000
 20
 3.08600821083019E+0000
 11
 9.08671666703594E+0000
 21
 3.11297145355275E+0000
  0
LINE
  8
1
  6
CONTINUOUS
 62
     1
 10
 9.11669063608861E+0000
 20
 3.10365168867793E+0000
 11
 9.10737087122106E+0000
 21
 3.11297145354547E+0000
  0
LINE
  8
1
  6
CONTINUOUS
 62
     1
 10
 9.09322429011809E+0000
 20
 2.96613405688186E+0000
 11
 9.08931729190226E+0000
 21
 2.96222705866603E+0000
  0
LINE
  8
1
  6
CONTINUOUS
 62
     1
 10
 9.09747394584701E+0000
 20
 2.99103791680318E+0000
 11
 9.08575295121409E+0000
 21
 2.97931692215934E+0000
  0
LINE
  8
1
  6
CONTINUOUS
 62
     1
 10
 9.10172360159049E+0000
 20
 3.01594177672450E+0000
 11
 9.08218861051137E+0000
 21
 2.99640678564901E+0000
  0
LINE
  8
1
  6
CONTINUOUS
 62
     1
 10
 9.10597325731942E+0000
 20
 3.04084563664219E+0000
 11
 9.07862426982319E+0000
 21
 3.01349664914233E+0000
  0
LINE
  8
1
  6
CONTINUOUS
 62
     1
 10
 9.11022291306290E+0000
 20
 3.06574949656351E+0000
 11
 9.07505992912047E+0000
 21
 3.03058651262108E+0000
  0
LINE
  8
1
  6
CONTINUOUS
 62
     1
 10
 9.11447256879183E+0000
 20
 3.09065335648484E+0000
 11
 9.07149558841775E+0000
 21
 3.04767637611440E+0000
  0
LINE
  8
1
  6
CONTINUOUS
 62
     1
 10
 9.11613646167098E+0000
 20
 3.11297145354911E+0000
 11
 9.06793124772958E+0000
 21
 3.06476623960771E+0000
  0
LINE
  8
1
  6
CONTINUOUS
 62
     1
 10
 9.09548225748586E+0000
 20
 3.11297145354911E+0000
 11
 9.06436690704140E+0000
 21
 3.08185610309738E+0000
  0
LINE
  8
1
  6
CONTINUOUS
 62
     1
 10
 9.07482805330073E+0000
 20
 3.11297145354911E+0000
 11
 9.06080256633868E+0000
 21
 3.09894596659069E+0000
  0
LINE
  8
1
  6
CONTINUOUS
 62
     1
 10
 9.09075145387033E+0000
 20
 5.33345806755096E+0000
 11
 9.09075145387033E+0000
 21
 5.33345806755096E+0000
  0
LINE
  8
1
  6
CONTINUOUS
 62
     1
 10
 9.09075145387033E+0000
 20
 5.33345806755096E+0000
 11
 9.06356993250665E+0000
 21
 5.17416874092305E+0000
  0
LINE
  8
1
  6
CONTINUOUS
 62
     1
 10
 9.06356993250665E+0000
 20
 5.17416874092305E+0000
 11
 9.12397356997826E+0000
 21
 5.17416874092305E+0000
  0
LINE
  8
1
  6
CONTINUOUS
 62
     1
 10
 9.12397356997826E+0000
 20
 5.17416874092305E+0000
 11
 9.09075145387033E+0000
 21
 5.33345806755096E+0000
  0
LINE
  8
1
  6
CONTINUOUS
 62
     1
 10
 9.06356993250665E+0000
 20
 5.17416874092305E+0000
 11
 9.12397356997826E+0000
 21
 5.17416874092305E+0000
  0
LINE
  8
1
  6
CONTINUOUS
 62
     1
 10
 9.07389703461376E+0000
 20
 5.17416874092305E+0000
 11
 9.06507529568626E+0000
 21
 5.18299047985784E+0000
  0
LINE
  8
1
  6
CONTINUOUS
 62
     1
 10
 9.09455123879889E+0000
 20
 5.17416874092305E+0000
 11
 9.06808602201636E+0000
 21
 5.20063395771285E+0000
  0
LINE
  8
1
  6
CONTINUOUS
 62
     1
 10
 9.11520544298401E+0000
 20
 5.17416874092305E+0000
 11
 9.07109674834646E+0000
 21
 5.21827743556787E+0000
  0
LINE
  8
1
  6
CONTINUOUS
 62
     1
 10
 9.12084126750415E+0000
 20
 5.18918712060258E+0000
 11
 9.07410747467657E+0000
 21
 5.23592091342289E+0000
  0
LINE
  8
1
  6
CONTINUOUS
 62
     1
 10
 9.11539832665585E+0000
 20
 5.21528426562872E+0000
 11
 9.07711820100667E+0000
 21
 5.25356439127063E+0000
  0
LINE
  8
1
  6
CONTINUOUS
 62
     1
 10
 9.10995538580755E+0000
 20
 5.24138141066214E+0000
 11
 9.08012892733677E+0000
 21
 5.27120786912565E+0000
  0
LINE
  8
1
  6
CONTINUOUS
 62
     1
 10
 9.10451244495925E+0000
 20
 5.26747855569556E+0000
 11
 9.08313965366688E+0000
 21
 5.28885134698066E+0000
  0
LINE
  8
1
  6
CONTINUOUS
 62
     1
 10
 9.09906950411096E+0000
 20
 5.29357570072898E+0000
 11
 9.08615038001153E+0000
 21
 5.30649482483568E+0000
  0
LINE
  8
1
  6
CONTINUOUS
 62
     1
 10
 9.09362656326266E+0000
 20
 5.31967284576240E+0000
 11
 9.08916110634163E+0000
 21
 5.32413830268342E+0000
  0
LINE
  8
1
  6
CONTINUOUS
 62
     1
 10
 9.12219139962690E+0000
 20
 5.18271367266425E+0000
 11
 9.11364646788570E+0000
 21
 5.17416874092305E+0000
  0
LINE
  8
1
  6
CONTINUOUS
 62
     1
 10
 9.11862705892418E+0000
 20
 5.19980353616120E+0000
 11
 9.09299226370058E+0000
 21
 5.17416874092305E+0000
  0
LINE
  8
1
  6
CONTINUOUS
 62
     1
 10
 9.11506271823600E+0000
 20
 5.21689339965087E+0000
 11
 9.07233805951546E+0000
 21
 5.17416874092305E+0000
  0
LINE
  8
1
  6
CONTINUOUS
 62
     1
 10
 9.11149837754783E+0000
 20
 5.23398326314054E+0000
 11
 9.06601552350912E+0000
 21
 5.18850040910911E+0000
  0
LINE
  8
1
  6
CONTINUOUS
 62
     1
 10
 9.10793403684511E+0000
 20
 5.25107312663749E+0000
 11
 9.07026517925260E+0000
 21
 5.21340426903043E+0000
  0
LINE
  8
1
  6
CONTINUOUS
 62
     1
 10
 9.10436969614238E+0000
 20
 5.26816299011261E+0000
 11
 9.07451483498153E+0000
 21
 5.23830812895176E+0000
  0
LINE
  8
1
  6
CONTINUOUS
 62
     1
 10
 9.10080535545421E+0000
 20
 5.28525285360956E+0000
 11
 9.07876449071045E+0000
 21
 5.26321198887308E+0000
  0
LINE
  8
1
  6
CONTINUOUS
 62
     1
 10
 9.09724101475149E+0000
 20
 5.30234271709924E+0000
 11
 9.08301414645393E+0000
 21
 5.28811584879440E+0000
  0
LINE
  8
1
  6
CONTINUOUS
 62
     1
 10
 9.09367667406332E+0000
 20
 5.31943258058891E+0000
 11
 9.08726380218286E+0000
 21
 5.31301970871573E+0000
  0
LINE
  8
1
  6
CONTINUOUS
 62
     1
 10
 8.64740829034417E+0000
 20
 2.57879524086457E+0000
 11
 8.64740829034417E+0000
 21
 2.57879524086457E+0000
  0
LINE
  8
1
  6
CONTINUOUS
 62
     1
 10
 8.64740829034417E+0000
 20
 2.57879524086457E+0000
 11
 8.48811896370898E+0000
 21
 2.60597676222824E+0000
  0
LINE
  8
1
  6
CONTINUOUS
 62
     1
 10
 8.48811896370898E+0000
 20
 2.60597676222824E+0000
 11
 8.48811896370898E+0000
 21
 2.54557312475663E+0000
  0
LINE
  8
1
  6
CONTINUOUS
 62
     1
 10
 8.48811896370898E+0000
 20
 2.54557312475663E+0000
 11
 8.64740829034417E+0000
 21
 2.57879524086457E+0000
  0
LINE
  8
1
  6
CONTINUOUS
 62
     1
 10
 8.48811896370898E+0000
 20
 2.60597676222824E+0000
 11
 8.48811896370898E+0000
 21
 2.54557312475663E+0000
  0
LINE
  8
1
  6
CONTINUOUS
 62
     1
 10
 8.49666389545018E+0000
 20
 2.54735529510435E+0000
 11
 8.48811896370898E+0000
 21
 2.55590022684919E+0000
  0
LINE
  8
1
  6
CONTINUOUS
 62
     1
 10
 8.51375375894713E+0000
 20
 2.55091963579616E+0000
 11
 8.48811896370898E+0000
 21
 2.57655443103067E+0000
  0
LINE
  8
1
  6
CONTINUOUS
 62
     1
 10
 8.53084362242953E+0000
 20
 2.55448397649525E+0000
 11
 8.48811896370898E+0000
 21
 2.59720863521579E+0000
  0
LINE
  8
1
  6
CONTINUOUS
 62
     1
 10
 8.54793348592648E+0000
 20
 2.55804831719070E+0000
 11
 8.50245063188777E+0000
 21
 2.60353117122213E+0000
  0
LINE
  8
1
  6
CONTINUOUS
 62
     1
 10
 8.56502334942343E+0000
 20
 2.56161265788251E+0000
 11
 8.52735449181637E+0000
 21
 2.59928151548593E+0000
  0
LINE
  8
1
  6
CONTINUOUS
 62
     1
 10
 8.58211321290582E+0000
 20
 2.56517699857795E+0000
 11
 8.55225835173042E+0000
 21
 2.59503185974972E+0000
  0
LINE
  8
1
  6
CONTINUOUS
 62
     1
 10
 8.59920307640277E+0000
 20
 2.56874133926976E+0000
 11
 8.57716221165902E+0000
 21
 2.59078220401352E+0000
  0
LINE
  8
1
  6
CONTINUOUS
 62
     1
 10
 8.61629293988517E+0000
 20
 2.57230567996885E+0000
 11
 8.60206607157306E+0000
 21
 2.58653254828096E+0000
  0
LINE
  8
1
  6
CONTINUOUS
 62
     1
 10
 8.63338280338212E+0000
 20
 2.57587002066430E+0000
 11
 8.62696993148711E+0000
 21
 2.58228289254839E+0000
  0
LINE
  8
1
  6
CONTINUOUS
 62
     1
 10
 8.63858655141667E+0000
 20
 2.58030060402962E+0000
 11
 8.63435971782019E+0000
 21
 2.57607377044042E+0000
  0
LINE
  8
1
  6
CONTINUOUS
 62
     1
 10
 8.62094307356165E+0000
 20
 2.58331133035972E+0000
 11
 8.60826257278677E+0000
 21
 2.57063082959212E+0000
  0
LINE
  8
1
  6
CONTINUOUS
 62
     1
 10
 8.60329959570663E+0000
 20
 2.58632205669346E+0000
 11
 8.58216542775335E+0000
 21
 2.56518788874382E+0000
  0
LINE
  8
1
  6
CONTINUOUS
 62
     1
 10
 8.58565611785161E+0000
 20
 2.58933278302356E+0000
 11
 8.55606828273449E+0000
 21
 2.55974494790280E+0000
  0
LINE
  8
1
  6
CONTINUOUS
 62
     1
 10
 8.56801263999660E+0000
 20
 2.59234350935731E+0000
 11
 8.52997113770107E+0000
 21
 2.55430200705450E+0000
  0
LINE
  8
1
  6
CONTINUOUS
 62
     1
 10
 8.55036916214158E+0000
 20
 2.59535423568741E+0000
 11
 8.50387399266765E+0000
 21
 2.54885906620984E+0000
  0
LINE
  8
1
  6
CONTINUOUS
 62
     1
 10
 8.53272568428656E+0000
 20
 2.59836496202115E+0000
 11
 8.48811896369443E+0000
 21
 2.55375824142902E+0000
  0
LINE
  8
1
  6
CONTINUOUS
 62
     1
 10
 8.51508220643154E+0000
 20
 2.60137568835125E+0000
 11
 8.48811896369443E+0000
 21
 2.57441244561414E+0000
  0
LINE
  8
1
  6
CONTINUOUS
 62
     1
 10
 8.49743872859108E+0000
 20
 2.60438641468500E+0000
 11
 8.48811896369443E+0000
 21
 2.59506664980290E+0000
  0
LINE
  8
1
  6
CONTINUOUS
 62
     1
 10
 8.26957915865933E+0000
 20
 2.56995587487472E+0000
 11
 8.26957915865933E+0000
 21
 2.56995587487472E+0000
  0
LINE
  8
1
  6
CONTINUOUS
 62
     1
 10
 8.26957915865933E+0000
 20
 2.56995587487472E+0000
 11
 8.42886848529452E+0000
 21
 2.54277435351105E+0000
  0
LINE
  8
1
  6
CONTINUOUS
 62
     1
 10
 8.42886848529452E+0000
 20
 2.54277435351105E+0000
 11
 8.42886848529452E+0000
 21
 2.60317799098266E+0000
  0
LINE
  8
1
  6
CONTINUOUS
 62
     1
 10
 8.42886848529452E+0000
 20
 2.60317799098266E+0000
 11
 8.26957915865933E+0000
 21
 2.56995587487472E+0000
  0
LINE
  8
1
  6
CONTINUOUS
 62
     1
 10
 8.42886848529452E+0000
 20
 2.54277435351105E+0000
 11
 8.42886848529452E+0000
 21
 2.60317799098266E+0000
  0
LINE
  8
1
  6
CONTINUOUS
 62
     1
 10
 8.28203108861635E+0000
 20
 2.56783104700662E+0000
 11
 8.27812409040052E+0000
 21
 2.57173804521881E+0000
  0
LINE
  8
1
  6
CONTINUOUS
 62
     1
 10
 8.30693494853040E+0000
 20
 2.56358139127406E+0000
 11
 8.29521395389747E+0000
 21
 2.57530238591426E+0000
  0
LINE
  8
1
  6
CONTINUOUS
 62
     1
 10
 8.33183880845900E+0000
 20
 2.55933173554149E+0000
 11
 8.31230381737987E+0000
 21
 2.57886672661334E+0000
  0
LINE
  8
1
  6
CONTINUOUS
 62
     1
 10
 8.35674266837304E+0000
 20
 2.55508207980529E+0000
 11
 8.32939368087682E+0000
 21
 2.58243106730515E+0000
  0
LINE
  8
1
  6
CONTINUOUS
 62
     1
 10
 8.38164652828709E+0000
 20
 2.55083242407272E+0000
 11
 8.34648354437377E+0000
 21
 2.58599540800060E+0000
  0
LINE
  8
1
  6
CONTINUOUS
 62
     1
 10
 8.40655038821569E+0000
 20
 2.54658276833652E+0000
 11
 8.36357340785617E+0000
 21
 2.58955974869241E+0000
  0
LINE
  8
1
  6
CONTINUOUS
 62
     1
 10
 8.42886848529452E+0000
 20
 2.54491887543918E+0000
 11
 8.38066327135311E+0000
 21
 2.59312408938786E+0000
  0
LINE
  8
1
  6
CONTINUOUS
 62
     1
 10
 8.42886848529452E+0000
 20
 2.56557307962430E+0000
 11
 8.39775313483551E+0000
 21
 2.59668843008694E+0000
  0
LINE
  8
1
  6
CONTINUOUS
 62
     1
 10
 8.42886848529452E+0000
 20
 2.58622728380942E+0000
 11
 8.41484299833246E+0000
 21
 2.60025277077875E+0000
  0
LINE
  8
1
  6
CONTINUOUS
 62
     1
 10
 8.42886848527996E+0000
 20
 2.55310145559997E+0000
 11
 8.42004674635245E+0000
 21
 2.54427971667610E+0000
  0
LINE
  8
1
  6
CONTINUOUS
 62
     1
 10
 8.42886848529452E+0000
 20
 2.57375565979237E+0000
 11
 8.40240326849744E+0000
 21
 2.54729044300620E+0000
  0
LINE
  8
1
  6
CONTINUOUS
 62
     1
 10
 8.42886848529452E+0000
 20
 2.59440986397749E+0000
 11
 8.38475979065697E+0000
 21
 2.55030116933995E+0000
  0
LINE
  8
1
  6
CONTINUOUS
 62
     1
 10
 8.41385010562954E+0000
 20
 2.60004568849763E+0000
 11
 8.36711631280195E+0000
 21
 2.55331189567005E+0000
  0
LINE
  8
1
  6
CONTINUOUS
 62
     1
 10
 8.38775296059612E+0000
 20
 2.59460274765661E+0000
 11
 8.34947283494694E+0000
 21
 2.55632262200743E+0000
  0
LINE
  8
1
  6
CONTINUOUS
 62
     1
 10
 8.36165581556270E+0000
 20
 2.58915980680831E+0000
 11
 8.33182935709192E+0000
 21
 2.55933334833753E+0000
  0
LINE
  8
1
  6
CONTINUOUS
 62
     1
 10
 8.33555867052928E+0000
 20
 2.58371686596001E+0000
 11
 8.31418587923690E+0000
 21
 2.56234407467127E+0000
  0
LINE
  8
1
  6
CONTINUOUS
 62
     1
 10
 8.30946152549586E+0000
 20
 2.57827392511535E+0000
 11
 8.29654240138188E+0000
 21
 2.56535480100138E+0000
  0
LINE
  8
1
  6
CONTINUOUS
 62
     1
 10
 8.28336438046244E+0000
 20
 2.57283098426706E+0000
 11
 8.27889892352687E+0000
 21
 2.56836552733512E+0000
  0
LINE
  8
1
  6
CONTINUOUS
 62
     1
 10
 7.70817957648978E+0000
 20
 2.29637946669391E+0000
 11
 7.70817957648978E+0000
 21
 2.29637946669391E+0000
  0
LINE
  8
1
  6
CONTINUOUS
 62
     1
 10
 7.70817957648978E+0000
 20
 2.29637946669391E+0000
 11
 7.86746890312497E+0000
 21
 2.26919794533023E+0000
  0
LINE
  8
1
  6
CONTINUOUS
 62
     1
 10
 7.86746890312497E+0000
 20
 2.26919794533023E+0000
 11
 7.86746890312497E+0000
 21
 2.32960158280184E+0000
  0
LINE
  8
1
  6
CONTINUOUS
 62
     1
 10
 7.86746890312497E+0000
 20
 2.32960158280184E+0000
 11
 7.70817957648978E+0000
 21
 2.29637946669391E+0000
  0
LINE
  8
1
  6
CONTINUOUS
 62
     1
 10
 7.86746890312497E+0000
 20
 2.26919794533023E+0000
 11
 7.86746890312497E+0000
 21
 2.32960158280184E+0000
  0
LINE
  8
1
  6
CONTINUOUS
 62
     1
 10
 7.72063150645408E+0000
 20
 2.29425463882581E+0000
 11
 7.71672450823826E+0000
 21
 2.29816163704163E+0000
  0
LINE
  8
1
  6
CONTINUOUS
 62
     1
 10
 7.74553536637541E+0000
 20
 2.29000498308960E+0000
 11
 7.73381437172793E+0000
 21
 2.30172597773708E+0000
  0
LINE
  8
1
  6
CONTINUOUS
 62
     1
 10
 7.77043922628945E+0000
 20
 2.28575532735704E+0000
 11
 7.75090423521760E+0000
 21
 2.30529031843253E+0000
  0
LINE
  8
1
  6
CONTINUOUS
 62
     1
 10
 7.79534308621078E+0000
 20
 2.28150567162083E+0000
 11
 7.76799409870728E+0000
 21
 2.30885465912434E+0000
  0
LINE
  8
1
  6
CONTINUOUS
 62
     1
 10
 7.82024694613210E+0000
 20
 2.27725601588463E+0000
 11
 7.78508396219695E+0000
 21
 2.31241899981978E+0000
  0
LINE
  8
1
  6
CONTINUOUS
 62
     1
 10
 7.84515080605343E+0000
 20
 2.27300636015207E+0000
 11
 7.80217382568662E+0000
 21
 2.31598334051523E+0000
  0
LINE
  8
1
  6
CONTINUOUS
 62
     1
 10
 7.86746890312497E+0000
 20
 2.27134246726200E+0000
 11
 7.81926368917630E+0000
 21
 2.31954768121068E+0000
  0
LINE
  8
1
  6
CONTINUOUS
 62
     1
 10
 7.86746890312497E+0000
 20
 2.29199667145076E+0000
 11
 7.83635355267324E+0000
 21
 2.32311202190613E+0000
  0
LINE
  8
1
  6
CONTINUOUS
 62
     1
 10
 7.86746890313225E+0000
 20
 2.31265087563224E+0000
 11
 7.85344341616292E+0000
 21
 2.32667636260157E+0000
  0
LINE
  8
1
  6
CONTINUOUS
 62
     1
 10
 7.86746890311770E+0000
 20
 2.27952504741916E+0000
 11
 7.85864716419019E+0000
 21
 2.27070330849529E+0000
  0
LINE
  8
1
  6
CONTINUOUS
 62
     1
 10
 7.86746890311770E+0000
 20
 2.30017925160428E+0000
 11
 7.84100368633517E+0000
 21
 2.27371403482539E+0000
  0
LINE
  8
1
  6
CONTINUOUS
 62
     1
 10
 7.86746890311770E+0000
 20
 2.32083345578940E+0000
 11
 7.82336020848015E+0000
 21
 2.27672476115549E+0000
  0
LINE
  8
1
  6
CONTINUOUS
 62
     1
 10
 7.85245052346727E+0000
 20
 2.32646928032409E+0000
 11
 7.80571673063241E+0000
 21
 2.27973548749287E+0000
  0
LINE
  8
1
  6
CONTINUOUS
 62
     1
 10
 7.82635337843385E+0000
 20
 2.32102633947579E+0000
 11
 7.78807325278467E+0000
 21
 2.28274621382661E+0000
  0
LINE
  8
1
  6
CONTINUOUS
 62
     1
 10
 7.80025623340043E+0000
 20
 2.31558339863113E+0000
 11
 7.77042977492965E+0000
 21
 2.28575694015672E+0000
  0
LINE
  8
1
  6
CONTINUOUS
 62
     1
 10
 7.77415908836701E+0000
 20
 2.31014045778284E+0000
 11
 7.75278629707464E+0000
 21
 2.28876766649046E+0000
  0
LINE
  8
1
  6
CONTINUOUS
 62
     1
 10
 7.74806194334087E+0000
 20
 2.30469751693818E+0000
 11
 7.73514281921962E+0000
 21
 2.29177839282056E+0000
  0
LINE
  8
1
  6
CONTINUOUS
 62
     1
 10
 7.72196479830745E+0000
 20
 2.29925457608988E+0000
 11
 7.71749934136460E+0000
 21
 2.29478911915430E+0000
  0
LINE
  8
1
  6
CONTINUOUS
 62
     1
 10
 7.48985751675355E+0000
 20
 1.99153718329035E+0000
 11
 7.48985751675355E+0000
 21
 1.99153718329035E+0000
  0
LINE
  8
1
  6
CONTINUOUS
 62
     1
 10
 7.48985751675355E+0000
 20
 1.99153718329035E+0000
 11
 7.64914684338873E+0000
 21
 1.96435566192667E+0000
  0
LINE
  8
1
  6
CONTINUOUS
 62
     1
 10
 7.64914684338873E+0000
 20
 1.96435566192667E+0000
 11
 7.64914684338873E+0000
 21
 2.02475929939828E+0000
  0
LINE
  8
1
  6
CONTINUOUS
 62
     1
 10
 7.64914684338873E+0000
 20
 2.02475929939828E+0000
 11
 7.48985751675355E+0000
 21
 1.99153718329035E+0000
  0
LINE
  8
1
  6
CONTINUOUS
 62
     1
 10
 7.64914684338873E+0000
 20
 1.96435566192667E+0000
 11
 7.64914684338873E+0000
 21
 2.02475929939828E+0000
  0
LINE
  8
1
  6
CONTINUOUS
 62
     1
 10
 7.50230944671785E+0000
 20
 1.98941235542043E+0000
 11
 7.49840244850202E+0000
 21
 1.99331935363625E+0000
  0
LINE
  8
1
  6
CONTINUOUS
 62
     1
 10
 7.52721330663917E+0000
 20
 1.98516269968604E+0000
 11
 7.51549231199169E+0000
 21
 1.99688369433170E+0000
  0
LINE
  8
1
  6
CONTINUOUS
 62
     1
 10
 7.55211716656049E+0000
 20
 1.98091304394984E+0000
 11
 7.53258217548137E+0000
 21
 2.00044803502533E+0000
  0
LINE
  8
1
  6
CONTINUOUS
 62
     1
 10
 7.57702102648182E+0000
 20
 1.97666338821364E+0000
 11
 7.54967203897104E+0000
 21
 2.00401237572078E+0000
  0
LINE
  8
1
  6
CONTINUOUS
 62
     1
 10
 7.60192488640314E+0000
 20
 1.97241373247743E+0000
 11
 7.56676190246071E+0000
 21
 2.00757671641622E+0000
  0
LINE
  8
1
  6
CONTINUOUS
 62
     1
 10
 7.62682874631719E+0000
 20
 1.96816407674487E+0000
 11
 7.58385176595039E+0000
 21
 2.01114105711167E+0000
  0
LINE
  8
1
  6
CONTINUOUS
 62
     1
 10
 7.64914684338873E+0000
 20
 1.96650018385844E+0000
 11
 7.60094162944733E+0000
 21
 2.01470539780348E+0000
  0
LINE
  8
1
  6
CONTINUOUS
 62
     1
 10
 7.64914684338873E+0000
 20
 1.98715438804356E+0000
 11
 7.61803149292973E+0000
 21
 2.01826973850257E+0000
  0
LINE
  8
1
  6
CONTINUOUS
 62
     1
 10
 7.64914684338873E+0000
 20
 2.00780859222868E+0000
 11
 7.63512135641940E+0000
 21
 2.02183407919802E+0000
  0
LINE
  8
1
  6
CONTINUOUS
 62
     1
 10
 7.64914684338146E+0000
 20
 1.97468276401560E+0000
 11
 7.64032510445395E+0000
 21
 1.96586102508809E+0000
  0
LINE
  8
1
  6
CONTINUOUS
 62
     1
 10
 7.64914684338146E+0000
 20
 1.99533696820072E+0000
 11
 7.62268162659893E+0000
 21
 1.96887175142001E+0000
  0
LINE
  8
1
  6
CONTINUOUS
 62
     1
 10
 7.64914684338146E+0000
 20
 2.01599117238584E+0000
 11
 7.60503814875119E+0000
 21
 1.97188247775193E+0000
  0
LINE
  8
1
  6
CONTINUOUS
 62
     1
 10
 7.63412846373103E+0000
 20
 2.02162699692417E+0000
 11
 7.58739467090345E+0000
 21
 1.97489320408931E+0000
  0
LINE
  8
1
  6
CONTINUOUS
 62
     1
 10
 7.60803131869761E+0000
 20
 2.01618405607587E+0000
 11
 7.56975119304843E+0000
 21
 1.97790393042123E+0000
  0
LINE
  8
1
  6
CONTINUOUS
 62
     1
 10
 7.58193417366419E+0000
 20
 2.01074111522757E+0000
 11
 7.55210771519342E+0000
 21
 1.98091465675316E+0000
  0
LINE
  8
1
  6
CONTINUOUS
 62
     1
 10
 7.55583702863805E+0000
 20
 2.00529817438292E+0000
 11
 7.53446423733840E+0000
 21
 1.98392538308508E+0000
  0
LINE
  8
1
  6
CONTINUOUS
 62
     1
 10
 7.52973988360463E+0000
 20
 1.99985523353462E+0000
 11
 7.51682075948338E+0000
 21
 1.98693610941518E+0000
  0
LINE
  8
1
  6
CONTINUOUS
 62
     1
 10
 7.50364273857122E+0000
 20
 1.99441229268632E+0000
 11
 7.49917728163564E+0000
 21
 1.98994683574711E+0000
  0
LINE
  8
1
  6
CONTINUOUS
 62
     1
 10
 8.65520550675865E+0000
 20
 2.29740236388170E+0000
 11
 8.65520550675865E+0000
 21
 2.29740236388170E+0000
  0
LINE
  8
1
  6
CONTINUOUS
 62
     1
 10
 8.65520550675865E+0000
 20
 2.29740236388170E+0000
 11
 8.49591618012346E+0000
 21
 2.32458388524537E+0000
  0
LINE
  8
1
  6
CONTINUOUS
 62
     1
 10
 8.49591618012346E+0000
 20
 2.32458388524537E+0000
 11
 8.49591618012346E+0000
 21
 2.26418024777377E+0000
  0
LINE
  8
1
  6
CONTINUOUS
 62
     1
 10
 8.49591618012346E+0000
 20
 2.26418024777377E+0000
 11
 8.65520550675865E+0000
 21
 2.29740236388170E+0000
  0
LINE
  8
1
  6
CONTINUOUS
 62
     1
 10
 8.49591618012346E+0000
 20
 2.32458388524537E+0000
 11
 8.49591618012346E+0000
 21
 2.26418024777377E+0000
  0
LINE
  8
1
  6
CONTINUOUS
 62
     1
 10
 8.50446111187921E+0000
 20
 2.26596241811785E+0000
 11
 8.49591618012346E+0000
 21
 2.27450734986269E+0000
  0
LINE
  8
1
  6
CONTINUOUS
 62
     1
 10
 8.52155097536161E+0000
 20
 2.26952675881330E+0000
 11
 8.49591618012346E+0000
 21
 2.29516155404781E+0000
  0
LINE
  8
1
  6
CONTINUOUS
 62
     1
 10
 8.53864083885856E+0000
 20
 2.27309109950875E+0000
 11
 8.49591618012346E+0000
 21
 2.31581575823293E+0000
  0
LINE
  8
1
  6
CONTINUOUS
 62
     1
 10
 8.55573070234095E+0000
 20
 2.27665544020419E+0000
 11
 8.51024784830224E+0000
 21
 2.32213829424290E+0000
  0
LINE
  8
1
  6
CONTINUOUS
 62
     1
 10
 8.57282056583790E+0000
 20
 2.28021978089600E+0000
 11
 8.53515170823084E+0000
 21
 2.31788863850670E+0000
  0
LINE
  8
1
  6
CONTINUOUS
 62
     1
 10
 8.58991042932030E+0000
 20
 2.28378412159509E+0000
 11
 8.56005556814489E+0000
 21
 2.31363898277050E+0000
  0
LINE
  8
1
  6
CONTINUOUS
 62
     1
 10
 8.60700029281725E+0000
 20
 2.28734846229054E+0000
 11
 8.58495942807349E+0000
 21
 2.30938932703430E+0000
  0
LINE
  8
1
  6
CONTINUOUS
 62
     1
 10
 8.62409015629964E+0000
 20
 2.29091280298235E+0000
 11
 8.60986328798754E+0000
 21
 2.30513967129809E+0000
  0
LINE
  8
1
  6
CONTINUOUS
 62
     1
 10
 8.64118001979659E+0000
 20
 2.29447714368143E+0000
 11
 8.63476714790158E+0000
 21
 2.30089001556917E+0000
  0
LINE
  8
1
  6
CONTINUOUS
 62
     1
 10
 8.64638376783114E+0000
 20
 2.29890772705039E+0000
 11
 8.64215693423466E+0000
 21
 2.29468089346119E+0000
  0
LINE
  8
1
  6
CONTINUOUS
 62
     1
 10
 8.62874028997612E+0000
 20
 2.30191845338049E+0000
 11
 8.61605978920124E+0000
 21
 2.28923795261289E+0000
  0
LINE
  8
1
  6
CONTINUOUS
 62
     1
 10
 8.61109681212110E+0000
 20
 2.30492917971424E+0000
 11
 8.58996264416783E+0000
 21
 2.28379501176460E+0000
  0
LINE
  8
1
  6
CONTINUOUS
 62
     1
 10
 8.59345333426609E+0000
 20
 2.30793990604434E+0000
 11
 8.56386549913441E+0000
 21
 2.27835207091630E+0000
  0
LINE
  8
1
  6
CONTINUOUS
 62
     1
 10
 8.57580985641107E+0000
 20
 2.31095063237808E+0000
 11
 8.53776835410099E+0000
 21
 2.27290913006800E+0000
  0
LINE
  8
1
  6
CONTINUOUS
 62
     1
 10
 8.55816637855605E+0000
 20
 2.31396135870818E+0000
 11
 8.51167120906757E+0000
 21
 2.26746618921970E+0000
  0
LINE
  8
1
  6
CONTINUOUS
 62
     1
 10
 8.54052290070103E+0000
 20
 2.31697208504193E+0000
 11
 8.49591618012346E+0000
 21
 2.27236536445707E+0000
  0
LINE
  8
1
  6
CONTINUOUS
 62
     1
 10
 8.52287942284602E+0000
 20
 2.31998281137203E+0000
 11
 8.49591618012346E+0000
 21
 2.29301956864219E+0000
  0
LINE
  8
1
  6
CONTINUOUS
 62
     1
 10
 8.50523594499100E+0000
 20
 2.32299353770577E+0000
 11
 8.49591618010891E+0000
 21
 2.31367377282004E+0000
  0
LINE
  8
1
  6
CONTINUOUS
 62
     1
 10
 8.65520550675865E+0000
 20
 1.99256008047814E+0000
 11
 8.65520550675865E+0000
 21
 1.99256008047814E+0000
  0
LINE
  8
1
  6
CONTINUOUS
 62
     1
 10
 8.65520550675865E+0000
 20
 1.99256008047814E+0000
 11
 8.49591618012346E+0000
 21
 2.01974160184182E+0000
  0
LINE
  8
1
  6
CONTINUOUS
 62
     1
 10
 8.49591618012346E+0000
 20
 2.01974160184182E+0000
 11
 8.49591618012346E+0000
 21
 1.95933796437021E+0000
  0
LINE
  8
1
  6
CONTINUOUS
 62
     1
 10
 8.49591618012346E+0000
 20
 1.95933796437021E+0000
 11
 8.65520550675865E+0000
 21
 1.99256008047814E+0000
  0
LINE
  8
1
  6
CONTINUOUS
 62
     1
 10
 8.49591618012346E+0000
 20
 2.01974160184182E+0000
 11
 8.49591618012346E+0000
 21
 1.95933796437021E+0000
  0
LINE
  8
1
  6
CONTINUOUS
 62
     1
 10
 8.50446111187921E+0000
 20
 1.96112013471975E+0000
 11
 8.49591618012346E+0000
 21
 1.96966506646640E+0000
  0
LINE
  8
1
  6
CONTINUOUS
 62
     1
 10
 8.52155097536161E+0000
 20
 1.96468447541338E+0000
 11
 8.49591618012346E+0000
 21
 1.99031927065153E+0000
  0
LINE
  8
1
  6
CONTINUOUS
 62
     1
 10
 8.53864083885856E+0000
 20
 1.96824881610701E+0000
 11
 8.49591618012346E+0000
 21
 2.01097347483665E+0000
  0
LINE
  8
1
  6
CONTINUOUS
 62
     1
 10
 8.55573070234095E+0000
 20
 1.97181315680064E+0000
 11
 8.51024784831679E+0000
 21
 2.01729601082843E+0000
  0
LINE
  8
1
  6
CONTINUOUS
 62
     1
 10
 8.57282056583790E+0000
 20
 1.97537749749972E+0000
 11
 8.53515170823084E+0000
 21
 2.01304635509950E+0000
  0
LINE
  8
1
  6
CONTINUOUS
 62
     1
 10
 8.58991042932030E+0000
 20
 1.97894183819335E+0000
 11
 8.56005556815944E+0000
 21
 2.00879669936330E+0000
  0
LINE
  8
1
  6
CONTINUOUS
 62
     1
 10
 8.60700029281725E+0000
 20
 1.98250617888698E+0000
 11
 8.58495942807349E+0000
 21
 2.00454704362710E+0000
  0
LINE
  8
1
  6
CONTINUOUS
 62
     1
 10
 8.62409015631420E+0000
 20
 1.98607051958061E+0000
 11
 8.60986328800209E+0000
 21
 2.00029738789090E+0000
  0
LINE
  8
1
  6
CONTINUOUS
 62
     1
 10
 8.64118001979659E+0000
 20
 1.98963486027424E+0000
 11
 8.63476714791614E+0000
 21
 1.99604773215469E+0000
  0
LINE
  8
1
  6
CONTINUOUS
 62
     1
 10
 8.64638376783114E+0000
 20
 1.99406544364138E+0000
 11
 8.64215693423466E+0000
 21
 1.98983861005399E+0000
  0
LINE
  8
1
  6
CONTINUOUS
 62
     1
 10
 8.62874028997612E+0000
 20
 1.99707616997330E+0000
 11
 8.61605978920124E+0000
 21
 1.98439566920570E+0000
  0
LINE
  8
1
  6
CONTINUOUS
 62
     1
 10
 8.61109681212110E+0000
 20
 2.00008689630340E+0000
 11
 8.58996264416783E+0000
 21
 1.97895272835740E+0000
  0
LINE
  8
1
  6
CONTINUOUS
 62
     1
 10
 8.59345333426609E+0000
 20
 2.00309762263714E+0000
 11
 8.56386549913441E+0000
 21
 1.97350978751456E+0000
  0
LINE
  8
1
  6
CONTINUOUS
 62
     1
 10
 8.57580985641107E+0000
 20
 2.00610834897452E+0000
 11
 8.53776835410099E+0000
 21
 1.96806684666444E+0000
  0
LINE
  8
1
  6
CONTINUOUS
 62
     1
 10
 8.55816637855605E+0000
 20
 2.00911907530462E+0000
 11
 8.51167120908212E+0000
 21
 1.96262390582160E+0000
  0
LINE
  8
1
  6
CONTINUOUS
 62
     1
 10
 8.54052290070103E+0000
 20
 2.01212980163837E+0000
 11
 8.49591618010891E+0000
 21
 1.96752308104260E+0000
  0
LINE
  8
1
  6
CONTINUOUS
 62
     1
 10
 8.52287942286057E+0000
 20
 2.01514052796847E+0000
 11
 8.49591618010891E+0000
 21
 1.98817728522772E+0000
  0
LINE
  8
1
  6
CONTINUOUS
 62
     1
 10
 8.50523594500555E+0000
 20
 2.01815125430221E+0000
 11
 8.49591618012346E+0000
 21
 2.00883148941648E+0000
  0
LINE
  8
1
  6
CONTINUOUS
 62
     1
 10
 7.34417497601680E+0000
 20
 4.55163943565276E+0000
 11
 7.34417497601680E+0000
 21
 4.55163943565276E+0000
  0
LINE
  8
1
  6
CONTINUOUS
 62
     1
 10
 7.34417497601680E+0000
 20
 4.55163943565276E+0000
 11
 7.31699345465313E+0000
 21
 4.39235010902485E+0000
  0
LINE
  8
1
  6
CONTINUOUS
 62
     1
 10
 7.31699345465313E+0000
 20
 4.39235010902485E+0000
 11
 7.37739709212474E+0000
 21
 4.39235010902485E+0000
  0
LINE
  8
1
  6
CONTINUOUS
 62
     1
 10
 7.37739709212474E+0000
 20
 4.39235010902485E+0000
 11
 7.34417497601680E+0000
 21
 4.55163943565276E+0000
  0
LINE
  8
1
  6
CONTINUOUS
 62
     1
 10
 7.31699345465313E+0000
 20
 4.39235010902485E+0000
 11
 7.37739709212474E+0000
 21
 4.39235010902485E+0000
  0
LINE
  8
1
  6
CONTINUOUS
 62
     1
 10
 7.32732055676024E+0000
 20
 4.39235010903212E+0000
 11
 7.31849881782546E+0000
 21
 4.40117184796691E+0000
  0
LINE
  8
1
  6
CONTINUOUS
 62
     1
 10
 7.34797476095264E+0000
 20
 4.39235010903212E+0000
 11
 7.32150954416284E+0000
 21
 4.41881532582192E+0000
  0
LINE
  8
1
  6
CONTINUOUS
 62
     1
 10
 7.36862896513776E+0000
 20
 4.39235010903212E+0000
 11
 7.32452027049294E+0000
 21
 4.43645880366967E+0000
  0
LINE
  8
1
  6
CONTINUOUS
 62
     1
 10
 7.37426478964335E+0000
 20
 4.40736848870438E+0000
 11
 7.32753099682304E+0000
 21
 4.45410228152468E+0000
  0
LINE
  8
1
  6
CONTINUOUS
 62
     1
 10
 7.36882184879505E+0000
 20
 4.43346563373780E+0000
 11
 7.33054172316042E+0000
 21
 4.47174575937970E+0000
  0
LINE
  8
1
  6
CONTINUOUS
 62
     1
 10
 7.36337890795403E+0000
 20
 4.45956277876394E+0000
 11
 7.33355244949053E+0000
 21
 4.48938923722744E+0000
  0
LINE
  8
1
  6
CONTINUOUS
 62
     1
 10
 7.35793596710573E+0000
 20
 4.48565992380463E+0000
 11
 7.33656317582063E+0000
 21
 4.50703271508246E+0000
  0
LINE
  8
1
  6
CONTINUOUS
 62
     1
 10
 7.35249302625743E+0000
 20
 4.51175706883078E+0000
 11
 7.33957390215073E+0000
 21
 4.52467619293748E+0000
  0
LINE
  8
1
  6
CONTINUOUS
 62
     1
 10
 7.34705008540914E+0000
 20
 4.53785421386419E+0000
 11
 7.34258462848811E+0000
 21
 4.54231967078522E+0000
  0
LINE
  8
1
  6
CONTINUOUS
 62
     1
 10
 7.37561492177338E+0000
 20
 4.40089504077332E+0000
 11
 7.36706999002490E+0000
 21
 4.39235010901757E+0000
  0
LINE
  8
1
  6
CONTINUOUS
 62
     1
 10
 7.37205058107793E+0000
 20
 4.41798490426299E+0000
 11
 7.34641578583978E+0000
 21
 4.39235010901757E+0000
  0
LINE
  8
1
  6
CONTINUOUS
 62
     1
 10
 7.36848624038976E+0000
 20
 4.43507476775267E+0000
 11
 7.32576158165466E+0000
 21
 4.39235010901757E+0000
  0
LINE
  8
1
  6
CONTINUOUS
 62
     1
 10
 7.36492189969431E+0000
 20
 4.45216463124962E+0000
 11
 7.31943904564832E+0000
 21
 4.40668177720363E+0000
  0
LINE
  8
1
  6
CONTINUOUS
 62
     1
 10
 7.36135755899159E+0000
 20
 4.46925449473201E+0000
 11
 7.32368870138453E+0000
 21
 4.43158563712495E+0000
  0
LINE
  8
1
  6
CONTINUOUS
 62
     1
 10
 7.35779321829614E+0000
 20
 4.48634435822169E+0000
 11
 7.32793835712073E+0000
 21
 4.45648949704628E+0000
  0
LINE
  8
1
  6
CONTINUOUS
 62
     1
 10
 7.35422887760069E+0000
 20
 4.50343422171136E+0000
 11
 7.33218801285693E+0000
 21
 4.48139335696760E+0000
  0
LINE
  8
1
  6
CONTINUOUS
 62
     1
 10
 7.35066453690524E+0000
 20
 4.52052408520103E+0000
 11
 7.33643766859313E+0000
 21
 4.50629721688892E+0000
  0
LINE
  8
1
  6
CONTINUOUS
 62
     1
 10
 7.34710019621707E+0000
 20
 4.53761394869798E+0000
 11
 7.34068732432934E+0000
 21
 4.53120107681025E+0000
  0
LINE
  8
1
  6
CONTINUOUS
 62
     1
 10
 7.34452298440010E+0000
 20
 3.77028834687007E+0000
 11
 7.34452298440010E+0000
 21
 3.77028834687007E+0000
  0
LINE
  8
1
  6
CONTINUOUS
 62
     1
 10
 7.34452298440010E+0000
 20
 3.77028834687007E+0000
 11
 7.37170450576377E+0000
 21
 3.92957767349799E+0000
  0
LINE
  8
1
  6
CONTINUOUS
 62
     1
 10
 7.37170450576377E+0000
 20
 3.92957767349799E+0000
 11
 7.31130086829216E+0000
 21
 3.92957767349799E+0000
  0
LINE
  8
1
  6
CONTINUOUS
 62
     1
 10
 7.31130086829216E+0000
 20
 3.92957767349799E+0000
 11
 7.34452298440010E+0000
 21
 3.77028834687007E+0000
  0
LINE
  8
1
  6
CONTINUOUS
 62
     1
 10
 7.37170450576377E+0000
 20
 3.92957767349799E+0000
 11
 7.31130086829216E+0000
 21
 3.92957767349799E+0000
  0
LINE
  8
1
  6
CONTINUOUS
 62
     1
 10
 7.34602834757243E+0000
 20
 3.77911008579758E+0000
 11
 7.34180151398323E+0000
 21
 3.78333691938678E+0000
  0
LINE
  8
1
  6
CONTINUOUS
 62
     1
 10
 7.34903907390253E+0000
 20
 3.79675356365260E+0000
 11
 7.33635857313493E+0000
 21
 3.80943406442020E+0000
  0
LINE
  8
1
  6
CONTINUOUS
 62
     1
 10
 7.35204980023991E+0000
 20
 3.81439704150398E+0000
 11
 7.33091563228663E+0000
 21
 3.83553120945362E+0000
  0
LINE
  8
1
  6
CONTINUOUS
 62
     1
 10
 7.35506052657001E+0000
 20
 3.83204051935536E+0000
 11
 7.32547269143834E+0000
 21
 3.86162835448340E+0000
  0
LINE
  8
1
  6
CONTINUOUS
 62
     1
 10
 7.35807125290012E+0000
 20
 3.84968399721038E+0000
 11
 7.32002975059731E+0000
 21
 3.88772549951682E+0000
  0
LINE
  8
1
  6
CONTINUOUS
 62
     1
 10
 7.36108197923022E+0000
 20
 3.86732747506176E+0000
 11
 7.31458680974902E+0000
 21
 3.91382264455024E+0000
  0
LINE
  8
1
  6
CONTINUOUS
 62
     1
 10
 7.36409270556760E+0000
 20
 3.88497095291677E+0000
 11
 7.31948598498275E+0000
 21
 3.92957767349799E+0000
  0
LINE
  8
1
  6
CONTINUOUS
 62
     1
 10
 7.36710343189770E+0000
 20
 3.90261443076815E+0000
 11
 7.34014018916787E+0000
 21
 3.92957767349799E+0000
  0
LINE
  8
1
  6
CONTINUOUS
 62
     1
 10
 7.37011415822781E+0000
 20
 3.92025790861953E+0000
 11
 7.36079439335299E+0000
 21
 3.92957767349799E+0000
  0
LINE
  8
1
  6
CONTINUOUS
 62
     1
 10
 7.34664781225729E+0000
 20
 3.78274027682346E+0000
 11
 7.34274081404874E+0000
 21
 3.77883327861127E+0000
  0
LINE
  8
1
  6
CONTINUOUS
 62
     1
 10
 7.35089746799349E+0000
 20
 3.80764413674478E+0000
 11
 7.33917647335329E+0000
 21
 3.79592314210095E+0000
  0
LINE
  8
1
  6
CONTINUOUS
 62
     1
 10
 7.35514712372969E+0000
 20
 3.83254799666611E+0000
 11
 7.33561213265057E+0000
 21
 3.81301300558698E+0000
  0
LINE
  8
1
  6
CONTINUOUS
 62
     1
 10
 7.35939677946590E+0000
 20
 3.85745185658743E+0000
 11
 7.33204779196240E+0000
 21
 3.83010286908029E+0000
  0
LINE
  8
1
  6
CONTINUOUS
 62
     1
 10
 7.36364643520210E+0000
 20
 3.88235571650875E+0000
 11
 7.32848345126695E+0000
 21
 3.84719273256997E+0000
  0
LINE
  8
1
  6
CONTINUOUS
 62
     1
 10
 7.36789609093830E+0000
 20
 3.90725957643008E+0000
 11
 7.32491911057150E+0000
 21
 3.86428259606328E+0000
  0
LINE
  8
1
  6
CONTINUOUS
 62
     1
 10
 7.36955998381745E+0000
 20
 3.92957767349071E+0000
 11
 7.32135476987605E+0000
 21
 3.88137245954931E+0000
  0
LINE
  8
1
  6
CONTINUOUS
 62
     1
 10
 7.34890577963233E+0000
 20
 3.92957767349071E+0000
 11
 7.31779042918060E+0000
 21
 3.89846232304262E+0000
  0
LINE
  8
1
  6
CONTINUOUS
 62
     1
 10
 7.32825157544721E+0000
 20
 3.92957767349071E+0000
 11
 7.31422608848516E+0000
 21
 3.91555218653230E+0000
  0
LINE
  8
1
  6
CONTINUOUS
 62
     1
 10
 7.17298422317981E+0000
 20
 3.45393613044871E+0000
 11
 7.17298422317981E+0000
 21
 3.45393613044871E+0000
  0
LINE
  8
1
  6
CONTINUOUS
 62
     1
 10
 7.17298422317981E+0000
 20
 3.45393613044871E+0000
 11
 7.20016574454348E+0000
 21
 3.61322545707662E+0000
  0
LINE
  8
1
  6
CONTINUOUS
 62
     1
 10
 7.20016574454348E+0000
 20
 3.61322545707662E+0000
 11
 7.13976210707187E+0000
 21
 3.61322545707662E+0000
  0
LINE
  8
1
  6
CONTINUOUS
 62
     1
 10
 7.13976210707187E+0000
 20
 3.61322545707662E+0000
 11
 7.17298422317981E+0000
 21
 3.45393613044871E+0000
  0
LINE
  8
1
  6
CONTINUOUS
 62
     1
 10
 7.20016574454348E+0000
 20
 3.61322545707662E+0000
 11
 7.13976210707187E+0000
 21
 3.61322545707662E+0000
  0
LINE
  8
1
  6
CONTINUOUS
 62
     1
 10
 7.17448958635214E+0000
 20
 3.46275786937622E+0000
 11
 7.17026275275566E+0000
 21
 3.46698470296906E+0000
  0
LINE
  8
1
  6
CONTINUOUS
 62
     1
 10
 7.17750031268224E+0000
 20
 3.48040134723124E+0000
 11
 7.16481981191464E+0000
 21
 3.49308184799884E+0000
  0
LINE
  8
1
  6
CONTINUOUS
 62
     1
 10
 7.18051103901234E+0000
 20
 3.49804482508262E+0000
 11
 7.15937687106634E+0000
 21
 3.51917899303226E+0000
  0
LINE
  8
1
  6
CONTINUOUS
 62
     1
 10
 7.18352176534972E+0000
 20
 3.51568830293400E+0000
 11
 7.15393393021805E+0000
 21
 3.54527613806567E+0000
  0
LINE
  8
1
  6
CONTINUOUS
 62
     1
 10
 7.18653249167983E+0000
 20
 3.53333178078901E+0000
 11
 7.14849098936975E+0000
 21
 3.57137328309545E+0000
  0
LINE
  8
1
  6
CONTINUOUS
 62
     1
 10
 7.18954321800993E+0000
 20
 3.55097525864403E+0000
 11
 7.14304804852145E+0000
 21
 3.59747042812887E+0000
  0
LINE
  8
1
  6
CONTINUOUS
 62
     1
 10
 7.19255394434003E+0000
 20
 3.56861873649541E+0000
 11
 7.14794722376246E+0000
 21
 3.61322545708026E+0000
  0
LINE
  8
1
  6
CONTINUOUS
 62
     1
 10
 7.19556467067741E+0000
 20
 3.58626221434679E+0000
 11
 7.16860142794758E+0000
 21
 3.61322545708026E+0000
  0
LINE
  8
1
  6
CONTINUOUS
 62
     1
 10
 7.19857539700752E+0000
 20
 3.60390569220181E+0000
 11
 7.18925563213270E+0000
 21
 3.61322545707662E+0000
  0
LINE
  8
1
  6
CONTINUOUS
 62
     1
 10
 7.17510905103700E+0000
 20
 3.46638806040573E+0000
 11
 7.17120205282117E+0000
 21
 3.46248106218991E+0000
  0
LINE
  8
1
  6
CONTINUOUS
 62
     1
 10
 7.17935870677320E+0000
 20
 3.49129192032706E+0000
 11
 7.16763771213300E+0000
 21
 3.47957092568322E+0000
  0
LINE
  8
1
  6
CONTINUOUS
 62
     1
 10
 7.18360836250940E+0000
 20
 3.51619578024474E+0000
 11
 7.16407337143028E+0000
 21
 3.49666078916925E+0000
  0
LINE
  8
1
  6
CONTINUOUS
 62
     1
 10
 7.18785801824561E+0000
 20
 3.54109964016607E+0000
 11
 7.16050903073483E+0000
 21
 3.51375065265893E+0000
  0
LINE
  8
1
  6
CONTINUOUS
 62
     1
 10
 7.19210767398181E+0000
 20
 3.56600350008739E+0000
 11
 7.15694469004666E+0000
 21
 3.53084051615224E+0000
  0
LINE
  8
1
  6
CONTINUOUS
 62
     1
 10
 7.19635732971801E+0000
 20
 3.59090736000871E+0000
 11
 7.15338034935121E+0000
 21
 3.54793037964191E+0000
  0
LINE
  8
1
  6
CONTINUOUS
 62
     1
 10
 7.19802122259716E+0000
 20
 3.61322545707299E+0000
 11
 7.14981600864849E+0000
 21
 3.56502024312795E+0000
  0
LINE
  8
1
  6
CONTINUOUS
 62
     1
 10
 7.17736701841204E+0000
 20
 3.61322545707299E+0000
 11
 7.14625166796031E+0000
 21
 3.58211010662126E+0000
  0
LINE
  8
1
  6
CONTINUOUS
 62
     1
 10
 7.15671281422692E+0000
 20
 3.61322545707299E+0000
 11
 7.14268732726487E+0000
 21
 3.59919997011457E+0000
  0
LINE
  8
1
  6
CONTINUOUS
 62
     1
 10
 7.17263621479651E+0000
 20
 4.84102053281822E+0000
 11
 7.17263621479651E+0000
 21
 4.84102053281822E+0000
  0
LINE
  8
1
  6
CONTINUOUS
 62
     1
 10
 7.17263621479651E+0000
 20
 4.84102053281822E+0000
 11
 7.14545469343284E+0000
 21
 4.68173120619031E+0000
  0
LINE
  8
1
  6
CONTINUOUS
 62
     1
 10
 7.14545469343284E+0000
 20
 4.68173120619031E+0000
 11
 7.20585833090445E+0000
 21
 4.68173120619031E+0000
  0
LINE
  8
1
  6
CONTINUOUS
 62
     1
 10
 7.20585833090445E+0000
 20
 4.68173120619031E+0000
 11
 7.17263621479651E+0000
 21
 4.84102053281822E+0000
  0
LINE
  8
1
  6
CONTINUOUS
 62
     1
 10
 7.14545469343284E+0000
 20
 4.68173120619031E+0000
 11
 7.20585833090445E+0000
 21
 4.68173120619031E+0000
  0
LINE
  8
1
  6
CONTINUOUS
 62
     1
 10
 7.15578179553995E+0000
 20
 4.68173120619758E+0000
 11
 7.14696005660517E+0000
 21
 4.69055294513237E+0000
  0
LINE
  8
1
  6
CONTINUOUS
 62
     1
 10
 7.17643599973235E+0000
 20
 4.68173120619758E+0000
 11
 7.14997078294255E+0000
 21
 4.70819642298738E+0000
  0
LINE
  8
1
  6
CONTINUOUS
 62
     1
 10
 7.19709020391747E+0000
 20
 4.68173120619758E+0000
 11
 7.15298150927265E+0000
 21
 4.72583990083513E+0000
  0
LINE
  8
1
  6
CONTINUOUS
 62
     1
 10
 7.20272602842306E+0000
 20
 4.69674958586984E+0000
 11
 7.15599223560275E+0000
 21
 4.74348337869014E+0000
  0
LINE
  8
1
  6
CONTINUOUS
 62
     1
 10
 7.19728308758204E+0000
 20
 4.72284673090326E+0000
 11
 7.15900296194013E+0000
 21
 4.76112685654516E+0000
  0
LINE
  8
1
  6
CONTINUOUS
 62
     1
 10
 7.19184014673374E+0000
 20
 4.74894387593667E+0000
 11
 7.16201368827024E+0000
 21
 4.77877033440018E+0000
  0
LINE
  8
1
  6
CONTINUOUS
 62
     1
 10
 7.18639720588544E+0000
 20
 4.77504102096282E+0000
 11
 7.16502441460034E+0000
 21
 4.79641381224792E+0000
  0
LINE
  8
1
  6
CONTINUOUS
 62
     1
 10
 7.18095426503714E+0000
 20
 4.80113816599624E+0000
 11
 7.16803514093772E+0000
 21
 4.81405729010294E+0000
  0
LINE
  8
1
  6
CONTINUOUS
 62
     1
 10
 7.17551132418885E+0000
 20
 4.82723531102965E+0000
 11
 7.17104586726782E+0000
 21
 4.83170076795795E+0000
  0
LINE
  8
1
  6
CONTINUOUS
 62
     1
 10
 7.20407616054581E+0000
 20
 4.69027613792423E+0000
 11
 7.19553122880461E+0000
 21
 4.68173120618303E+0000
  0
LINE
  8
1
  6
CONTINUOUS
 62
     1
 10
 7.20051181985036E+0000
 20
 4.70736600142118E+0000
 11
 7.17487702461949E+0000
 21
 4.68173120618303E+0000
  0
LINE
  8
1
  6
CONTINUOUS
 62
     1
 10
 7.19694747916219E+0000
 20
 4.72445586491085E+0000
 11
 7.15422282043437E+0000
 21
 4.68173120618303E+0000
  0
LINE
  8
1
  6
CONTINUOUS
 62
     1
 10
 7.19338313846674E+0000
 20
 4.74154572840052E+0000
 11
 7.14790028443531E+0000
 21
 4.69606287436909E+0000
  0
LINE
  8
1
  6
CONTINUOUS
 62
     1
 10
 7.18981879777130E+0000
 20
 4.75863559189020E+0000
 11
 7.15214994017151E+0000
 21
 4.72096673429041E+0000
  0
LINE
  8
1
  6
CONTINUOUS
 62
     1
 10
 7.18625445707585E+0000
 20
 4.77572545538715E+0000
 11
 7.15639959590044E+0000
 21
 4.74587059421174E+0000
  0
LINE
  8
1
  6
CONTINUOUS
 62
     1
 10
 7.18269011638768E+0000
 20
 4.79281531887682E+0000
 11
 7.16064925163664E+0000
 21
 4.77077445413306E+0000
  0
LINE
  8
1
  6
CONTINUOUS
 62
     1
 10
 7.17912577569223E+0000
 20
 4.80990518236649E+0000
 11
 7.16489890737284E+0000
 21
 4.79567831405438E+0000
  0
LINE
  8
1
  6
CONTINUOUS
 62
     1
 10
 7.17556143499678E+0000
 20
 4.82699504586344E+0000
 11
 7.16914856310905E+0000
 21
 4.82058217397571E+0000
  0
LINE
  8
1
  6
CONTINUOUS
 62
     1
 10
 6.95431415507483E+0000
 20
 4.92700168966985E+0000
 11
 6.95431415507483E+0000
 21
 4.92700168966985E+0000
  0
LINE
  8
1
  6
CONTINUOUS
 62
     1
 10
 6.95431415507483E+0000
 20
 4.92700168966985E+0000
 11
 6.92713263371115E+0000
 21
 4.76771236304194E+0000
  0
LINE
  8
1
  6
CONTINUOUS
 62
     1
 10
 6.92713263371115E+0000
 20
 4.76771236304194E+0000
 11
 6.98753627118276E+0000
 21
 4.76771236304194E+0000
  0
LINE
  8
1
  6
CONTINUOUS
 62
     1
 10
 6.98753627118276E+0000
 20
 4.76771236304194E+0000
 11
 6.95431415507483E+0000
 21
 4.92700168966985E+0000
  0
LINE
  8
1
  6
CONTINUOUS
 62
     1
 10
 6.92713263371115E+0000
 20
 4.76771236304194E+0000
 11
 6.98753627118276E+0000
 21
 4.76771236304194E+0000
  0
LINE
  8
1
  6
CONTINUOUS
 62
     1
 10
 6.93745973581827E+0000
 20
 4.76771236304921E+0000
 11
 6.92863799688348E+0000
 21
 4.77653410198400E+0000
  0
LINE
  8
1
  6
CONTINUOUS
 62
     1
 10
 6.95811394000339E+0000
 20
 4.76771236304921E+0000
 11
 6.93164872322086E+0000
 21
 4.79417757983902E+0000
  0
LINE
  8
1
  6
CONTINUOUS
 62
     1
 10
 6.97876814419578E+0000
 20
 4.76771236304194E+0000
 11
 6.93465944955096E+0000
 21
 4.81182105768676E+0000
  0
LINE
  8
1
  6
CONTINUOUS
 62
     1
 10
 6.98440396870137E+0000
 20
 4.78273074272147E+0000
 11
 6.93767017588107E+0000
 21
 4.82946453554177E+0000
  0
LINE
  8
1
  6
CONTINUOUS
 62
     1
 10
 6.97896102785307E+0000
 20
 4.80882788775489E+0000
 11
 6.94068090221117E+0000
 21
 4.84710801339679E+0000
  0
LINE
  8
1
  6
CONTINUOUS
 62
     1
 10
 6.97351808701205E+0000
 20
 4.83492503278103E+0000
 11
 6.94369162854855E+0000
 21
 4.86475149124453E+0000
  0
LINE
  8
1
  6
CONTINUOUS
 62
     1
 10
 6.96807514616376E+0000
 20
 4.86102217781445E+0000
 11
 6.94670235487865E+0000
 21
 4.88239496909955E+0000
  0
LINE
  8
1
  6
CONTINUOUS
 62
     1
 10
 6.96263220531546E+0000
 20
 4.88711932284787E+0000
 11
 6.94971308120876E+0000
 21
 4.90003844695457E+0000
  0
LINE
  8
1
  6
CONTINUOUS
 62
     1
 10
 6.95718926446716E+0000
 20
 4.91321646788128E+0000
 11
 6.95272380754614E+0000
 21
 4.91768192480231E+0000
  0
LINE
  8
1
  6
CONTINUOUS
 62
     1
 10
 6.98575410083140E+0000
 20
 4.77625729479041E+0000
 11
 6.97720916908293E+0000
 21
 4.76771236303466E+0000
  0
LINE
  8
1
  6
CONTINUOUS
 62
     1
 10
 6.98218976014323E+0000
 20
 4.79334715828008E+0000
 11
 6.95655496489780E+0000
 21
 4.76771236303466E+0000
  0
LINE
  8
1
  6
CONTINUOUS
 62
     1
 10
 6.97862541944778E+0000
 20
 4.81043702176976E+0000
 11
 6.93590076071268E+0000
 21
 4.76771236303466E+0000
  0
LINE
  8
1
  6
CONTINUOUS
 62
     1
 10
 6.97506107875233E+0000
 20
 4.82752688525943E+0000
 11
 6.92957822471362E+0000
 21
 4.78204403122072E+0000
  0
LINE
  8
1
  6
CONTINUOUS
 62
     1
 10
 6.97149673804961E+0000
 20
 4.84461674874183E+0000
 11
 6.93382788044983E+0000
 21
 4.80694789114204E+0000
  0
LINE
  8
1
  6
CONTINUOUS
 62
     1
 10
 6.96793239735416E+0000
 20
 4.86170661223878E+0000
 11
 6.93807753617875E+0000
 21
 4.83185175106337E+0000
  0
LINE
  8
1
  6
CONTINUOUS
 62
     1
 10
 6.96436805666599E+0000
 20
 4.87879647572845E+0000
 11
 6.94232719191496E+0000
 21
 4.85675561098469E+0000
  0
LINE
  8
1
  6
CONTINUOUS
 62
     1
 10
 6.96080371597054E+0000
 20
 4.89588633921812E+0000
 11
 6.94657684765116E+0000
 21
 4.88165947090602E+0000
  0
LINE
  8
1
  6
CONTINUOUS
 62
     1
 10
 6.95723937527509E+0000
 20
 4.91297620270780E+0000
 11
 6.95082650338736E+0000
 21
 4.90656333082734E+0000
  0
LINE
  8
1
  6
CONTINUOUS
 62
     1
 10
 6.95466216345812E+0000
 20
 3.36795497358980E+0000
 11
 6.95466216345812E+0000
 21
 3.36795497358980E+0000
  0
LINE
  8
1
  6
CONTINUOUS
 62
     1
 10
 6.95466216345812E+0000
 20
 3.36795497358980E+0000
 11
 6.98184368482180E+0000
 21
 3.52724430021772E+0000
  0
LINE
  8
1
  6
CONTINUOUS
 62
     1
 10
 6.98184368482180E+0000
 20
 3.52724430021772E+0000
 11
 6.92144004735019E+0000
 21
 3.52724430021772E+0000
  0
LINE
  8
1
  6
CONTINUOUS
 62
     1
 10
 6.92144004735019E+0000
 20
 3.52724430021772E+0000
 11
 6.95466216345812E+0000
 21
 3.36795497358980E+0000
  0
LINE
  8
1
  6
CONTINUOUS
 62
     1
 10
 6.98184368482180E+0000
 20
 3.52724430021772E+0000
 11
 6.92144004735019E+0000
 21
 3.52724430021772E+0000
  0
LINE
  8
1
  6
CONTINUOUS
 62
     1
 10
 6.95616752663045E+0000
 20
 3.37677671251731E+0000
 11
 6.95194069303398E+0000
 21
 3.38100354610651E+0000
  0
LINE
  8
1
  6
CONTINUOUS
 62
     1
 10
 6.95917825296056E+0000
 20
 3.39442019036869E+0000
 11
 6.94649775219295E+0000
 21
 3.40710069113629E+0000
  0
LINE
  8
1
  6
CONTINUOUS
 62
     1
 10
 6.96218897929066E+0000
 20
 3.41206366822007E+0000
 11
 6.94105481134466E+0000
 21
 3.43319783617335E+0000
  0
LINE
  8
1
  6
CONTINUOUS
 62
     1
 10
 6.96519970562804E+0000
 20
 3.42970714607509E+0000
 11
 6.93561187049636E+0000
 21
 3.45929498120313E+0000
  0
LINE
  8
1
  6
CONTINUOUS
 62
     1
 10
 6.96821043195814E+0000
 20
 3.44735062392647E+0000
 11
 6.93016892964806E+0000
 21
 3.48539212623291E+0000
  0
LINE
  8
1
  6
CONTINUOUS
 62
     1
 10
 6.97122115828824E+0000
 20
 3.46499410177785E+0000
 11
 6.92472598879976E+0000
 21
 3.51148927126633E+0000
  0
LINE
  8
1
  6
CONTINUOUS
 62
     1
 10
 6.97423188462562E+0000
 20
 3.48263757963286E+0000
 11
 6.92962516404077E+0000
 21
 3.52724430021772E+0000
  0
LINE
  8
1
  6
CONTINUOUS
 62
     1
 10
 6.97724261095573E+0000
 20
 3.50028105748424E+0000
 11
 6.95027936822589E+0000
 21
 3.52724430021772E+0000
  0
LINE
  8
1
  6
CONTINUOUS
 62
     1
 10
 6.98025333729311E+0000
 20
 3.51792453533562E+0000
 11
 6.97093357240374E+0000
 21
 3.52724430022135E+0000
  0
LINE
  8
1
  6
CONTINUOUS
 62
     1
 10
 6.95678699132259E+0000
 20
 3.38040690355047E+0000
 11
 6.95287999310676E+0000
 21
 3.37649990533464E+0000
  0
LINE
  8
1
  6
CONTINUOUS
 62
     1
 10
 6.96103664705879E+0000
 20
 3.40531076346815E+0000
 11
 6.94931565241131E+0000
 21
 3.39358976882431E+0000
  0
LINE
  8
1
  6
CONTINUOUS
 62
     1
 10
 6.96528630279499E+0000
 20
 3.43021462338947E+0000
 11
 6.94575131171587E+0000
 21
 3.41067963231399E+0000
  0
LINE
  8
1
  6
CONTINUOUS
 62
     1
 10
 6.96953595852392E+0000
 20
 3.45511848330716E+0000
 11
 6.94218697102042E+0000
 21
 3.42776949580366E+0000
  0
LINE
  8
1
  6
CONTINUOUS
 62
     1
 10
 6.97378561426012E+0000
 20
 3.48002234322848E+0000
 11
 6.93862263032497E+0000
 21
 3.44485935929697E+0000
  0
LINE
  8
1
  6
CONTINUOUS
 62
     1
 10
 6.97803526999633E+0000
 20
 3.50492620314981E+0000
 11
 6.93505828963680E+0000
 21
 3.46194922278664E+0000
  0
LINE
  8
1
  6
CONTINUOUS
 62
     1
 10
 6.97969916287548E+0000
 20
 3.52724430021772E+0000
 11
 6.93149394893408E+0000
 21
 3.47903908627268E+0000
  0
LINE
  8
1
  6
CONTINUOUS
 62
     1
 10
 6.95904495869036E+0000
 20
 3.52724430021772E+0000
 11
 6.92792960823863E+0000
 21
 3.49612894976599E+0000
  0
LINE
  8
1
  6
CONTINUOUS
 62
     1
 10
 6.93839075450524E+0000
 20
 3.52724430021772E+0000
 11
 6.92436526755046E+0000
 21
 3.51321881325566E+0000
  0
LINE
  8
1
  6
CONTINUOUS
 62
     1
 10
 8.48366674555291E+0000
 20
 4.32186778441246E+0000
 11
 8.48366674555291E+0000
 21
 4.32186778441246E+0000
  0
LINE
  8
1
  6
CONTINUOUS
 62
     1
 10
 8.48366674555291E+0000
 20
 4.32186778441246E+0000
 11
 8.32437741891772E+0000
 21
 4.34904930577613E+0000
  0
LINE
  8
1
  6
CONTINUOUS
 62
     1
 10
 8.32437741891772E+0000
 20
 4.34904930577613E+0000
 11
 8.32437741891772E+0000
 21
 4.28864566830453E+0000
  0
LINE
  8
1
  6
CONTINUOUS
 62
     1
 10
 8.32437741891772E+0000
 20
 4.28864566830453E+0000
 11
 8.48366674555291E+0000
 21
 4.32186778441246E+0000
  0
LINE
  8
1
  6
CONTINUOUS
 62
     1
 10
 8.32437741891772E+0000
 20
 4.34904930577613E+0000
 11
 8.32437741891772E+0000
 21
 4.28864566830453E+0000
  0
LINE
  8
1
  6
CONTINUOUS
 62
     1
 10
 8.33292235067347E+0000
 20
 4.29042783865589E+0000
 11
 8.32437741891772E+0000
 21
 4.29897277041164E+0000
  0
LINE
  8
1
  6
CONTINUOUS
 62
     1
 10
 8.35001221417042E+0000
 20
 4.29399217935133E+0000
 11
 8.32437741891772E+0000
 21
 4.31962697459676E+0000
  0
LINE
  8
1
  6
CONTINUOUS
 62
     1
 10
 8.36710207765282E+0000
 20
 4.29755652004678E+0000
 11
 8.32437741891772E+0000
 21
 4.34028117878188E+0000
  0
LINE
  8
1
  6
CONTINUOUS
 62
     1
 10
 8.38419194114977E+0000
 20
 4.30112086074223E+0000
 11
 8.33870908712561E+0000
 21
 4.34660371476639E+0000
  0
LINE
  8
1
  6
CONTINUOUS
 62
     1
 10
 8.40128180463216E+0000
 20
 4.30468520143768E+0000
 11
 8.36361294703966E+0000
 21
 4.34235405903019E+0000
  0
LINE
  8
1
  6
CONTINUOUS
 62
     1
 10
 8.41837166812911E+0000
 20
 4.30824954213313E+0000
 11
 8.38851680696825E+0000
 21
 4.33810440330126E+0000
  0
LINE
  8
1
  6
CONTINUOUS
 62
     1
 10
 8.43546153162606E+0000
 20
 4.31181388282857E+0000
 11
 8.41342066688230E+0000
 21
 4.33385474756506E+0000
  0
LINE
  8
1
  6
CONTINUOUS
 62
     1
 10
 8.45255139510846E+0000
 20
 4.31537822352402E+0000
 11
 8.43832452679635E+0000
 21
 4.32960509182885E+0000
  0
LINE
  8
1
  6
CONTINUOUS
 62
     1
 10
 8.46964125860541E+0000
 20
 4.31894256421947E+0000
 11
 8.46322838672495E+0000
 21
 4.32535543609993E+0000
  0
LINE
  8
1
  6
CONTINUOUS
 62
     1
 10
 8.47484500662540E+0000
 20
 4.32337314757751E+0000
 11
 8.47061817302892E+0000
 21
 4.31914631398104E+0000
  0
LINE
  8
1
  6
CONTINUOUS
 62
     1
 10
 8.45720152877038E+0000
 20
 4.32638387390762E+0000
 11
 8.44452102799551E+0000
 21
 4.31370337313274E+0000
  0
LINE
  8
1
  6
CONTINUOUS
 62
     1
 10
 8.43955805091537E+0000
 20
 4.32939460023772E+0000
 11
 8.41842388296209E+0000
 21
 4.30826043229172E+0000
  0
LINE
  8
1
  6
CONTINUOUS
 62
     1
 10
 8.42191457306035E+0000
 20
 4.33240532657510E+0000
 11
 8.39232673792867E+0000
 21
 4.30281749143614E+0000
  0
LINE
  8
1
  6
CONTINUOUS
 62
     1
 10
 8.40427109520533E+0000
 20
 4.33541605290520E+0000
 11
 8.36622959289525E+0000
 21
 4.29737455059512E+0000
  0
LINE
  8
1
  6
CONTINUOUS
 62
     1
 10
 8.38662761735031E+0000
 20
 4.33842677923531E+0000
 11
 8.34013244786183E+0000
 21
 4.29193160975410E+0000
  0
LINE
  8
1
  6
CONTINUOUS
 62
     1
 10
 8.36898413949530E+0000
 20
 4.34143750556541E+0000
 11
 8.32437741890317E+0000
 21
 4.29683078497328E+0000
  0
LINE
  8
1
  6
CONTINUOUS
 62
     1
 10
 8.35134066164028E+0000
 20
 4.34444823190279E+0000
 11
 8.32437741890317E+0000
 21
 4.31748498915840E+0000
  0
LINE
  8
1
  6
CONTINUOUS
 62
     1
 10
 8.33369718378526E+0000
 20
 4.34745895823289E+0000
 11
 8.32437741891772E+0000
 21
 4.33813919335080E+0000
  0
LINE
  8
1
  6
CONTINUOUS
 62
     1
 10
 8.66723719601578E+0000
 20
 4.32084488722467E+0000
 11
 8.66723719601578E+0000
 21
 4.32084488722467E+0000
  0
LINE
  8
1
  6
CONTINUOUS
 62
     1
 10
 8.66723719601578E+0000
 20
 4.32084488722467E+0000
 11
 8.82652652266552E+0000
 21
 4.29366336586099E+0000
  0
LINE
  8
1
  6
CONTINUOUS
 62
     1
 10
 8.82652652266552E+0000
 20
 4.29366336586099E+0000
 11
 8.82652652266552E+0000
 21
 4.35406700333260E+0000
  0
LINE
  8
1
  6
CONTINUOUS
 62
     1
 10
 8.82652652266552E+0000
 20
 4.35406700333260E+0000
 11
 8.66723719601578E+0000
 21
 4.32084488722467E+0000
  0
LINE
  8
1
  6
CONTINUOUS
 62
     1
 10
 8.82652652266552E+0000
 20
 4.29366336586099E+0000
 11
 8.82652652266552E+0000
 21
 4.35406700333260E+0000
  0
LINE
  8
1
  6
CONTINUOUS
 62
     1
 10
 8.67968912600190E+0000
 20
 4.31872005936020E+0000
 11
 8.67578212777153E+0000
 21
 4.32262705758330E+0000
  0
LINE
  8
1
  6
CONTINUOUS
 62
     1
 10
 8.70459298591595E+0000
 20
 4.31447040362400E+0000
 11
 8.69287199126848E+0000
 21
 4.32619139827148E+0000
  0
LINE
  8
1
  6
CONTINUOUS
 62
     1
 10
 8.72949684584455E+0000
 20
 4.31022074788780E+0000
 11
 8.70996185476542E+0000
 21
 4.32975573896692E+0000
  0
LINE
  8
1
  6
CONTINUOUS
 62
     1
 10
 8.75440070575860E+0000
 20
 4.30597109215159E+0000
 11
 8.72705171824782E+0000
 21
 4.33332007966237E+0000
  0
LINE
  8
1
  6
CONTINUOUS
 62
     1
 10
 8.77930456567265E+0000
 20
 4.30172143642267E+0000
 11
 8.74414158174477E+0000
 21
 4.33688442035782E+0000
  0
LINE
  8
1
  6
CONTINUOUS
 62
     1
 10
 8.80420842560125E+0000
 20
 4.29747178068646E+0000
 11
 8.76123144522717E+0000
 21
 4.34044876104599E+0000
  0
LINE
  8
1
  6
CONTINUOUS
 62
     1
 10
 8.82652652266552E+0000
 20
 4.29580788780004E+0000
 11
 8.77832130872412E+0000
 21
 4.34401310174144E+0000
  0
LINE
  8
1
  6
CONTINUOUS
 62
     1
 10
 8.82652652266552E+0000
 20
 4.31646209198516E+0000
 11
 8.79541117222107E+0000
 21
 4.34757744243689E+0000
  0
LINE
  8
1
  6
CONTINUOUS
 62
     1
 10
 8.82652652266552E+0000
 20
 4.33711629617028E+0000
 11
 8.81250103570346E+0000
 21
 4.35114178313233E+0000
  0
LINE
  8
1
  6
CONTINUOUS
 62
     1
 10
 8.82652652265097E+0000
 20
 4.30399046794628E+0000
 11
 8.81770478372346E+0000
 21
 4.29516872902605E+0000
  0
LINE
  8
1
  6
CONTINUOUS
 62
     1
 10
 8.82652652265097E+0000
 20
 4.32464467213140E+0000
 11
 8.80006130586844E+0000
 21
 4.29817945535615E+0000
  0
LINE
  8
1
  6
CONTINUOUS
 62
     1
 10
 8.82652652265097E+0000
 20
 4.34529887631652E+0000
 11
 8.78241782802797E+0000
 21
 4.30119018168625E+0000
  0
LINE
  8
1
  6
CONTINUOUS
 62
     1
 10
 8.81150814300054E+0000
 20
 4.35093470085849E+0000
 11
 8.76477435017296E+0000
 21
 4.30420090801636E+0000
  0
LINE
  8
1
  6
CONTINUOUS
 62
     1
 10
 8.78541099796712E+0000
 20
 4.34549176000291E+0000
 11
 8.74713087231794E+0000
 21
 4.30721163434646E+0000
  0
LINE
  8
1
  6
CONTINUOUS
 62
     1
 10
 8.75931385293370E+0000
 20
 4.34004881916189E+0000
 11
 8.72948739446292E+0000
 21
 4.31022236068384E+0000
  0
LINE
  8
1
  6
CONTINUOUS
 62
     1
 10
 8.73321670790028E+0000
 20
 4.33460587830632E+0000
 11
 8.71184391660790E+0000
 21
 4.31323308701394E+0000
  0
LINE
  8
1
  6
CONTINUOUS
 62
     1
 10
 8.70711956286686E+0000
 20
 4.32916293746530E+0000
 11
 8.69420043875289E+0000
 21
 4.31624381334404E+0000
  0
LINE
  8
1
  6
CONTINUOUS
 62
     1
 10
 8.68102241784800E+0000
 20
 4.32371999661700E+0000
 11
 8.67655696089787E+0000
 21
 4.31925453967415E+0000
  0
LINE
  8
1
  6
CONTINUOUS
 62
     1
 10
 8.47359412355581E+0000
 20
 4.32322739638039E+0000
 11
 8.71530783253547E+0000
 21
 4.32322739638039E+0000
  0
LINE
  8
1
  6
CONTINUOUS
 62
     1
 10
 8.65881338976033E+0000
 20
 5.33408766474895E+0000
 11
 8.65881338976033E+0000
 21
 5.69110943727719E+0000
  0
LINE
  8
1
  6
CONTINUOUS
 62
     1
 10
 8.65881338976033E+0000
 20
 5.69110943727719E+0000
 11
 8.45799969071231E+0000
 21
 5.69110943727719E+0000
  0
LINE
  8
1
  6
CONTINUOUS
 62
     1
 10
 8.45799969071231E+0000
 20
 5.69110943727719E+0000
 11
 8.45799969071231E+0000
 21
 5.24557071539311E+0000
  0
LINE
  8
1
  6
CONTINUOUS
 62
     1
 10
 8.67503441243025E+0000
 20
 5.68872692812147E+0000
 11
 8.67503441243025E+0000
 21
 5.68872692812147E+0000
  0
LINE
  8
1
  6
CONTINUOUS
 62
     1
 10
 8.67503441243025E+0000
 20
 5.68872692812147E+0000
 11
 8.83432373907999E+0000
 21
 5.66154540675780E+0000
  0
LINE
  8
1
  6
CONTINUOUS
 62
     1
 10
 8.83432373907999E+0000
 20
 5.66154540675780E+0000
 11
 8.83432373907999E+0000
 21
 5.72194904422940E+0000
  0
LINE
  8
1
  6
CONTINUOUS
 62
     1
 10
 8.83432373907999E+0000
 20
 5.72194904422940E+0000
 11
 8.67503441243025E+0000
 21
 5.68872692812147E+0000
  0
LINE
  8
1
  6
CONTINUOUS
 62
     1
 10
 8.83432373907999E+0000
 20
 5.66154540675780E+0000
 11
 8.83432373907999E+0000
 21
 5.72194904422940E+0000
  0
LINE
  8
1
  6
CONTINUOUS
 62
     1
 10
 8.68748634240183E+0000
 20
 5.68660210025701E+0000
 11
 8.68357934418600E+0000
 21
 5.69050909847283E+0000
  0
LINE
  8
1
  6
CONTINUOUS
 62
     1
 10
 8.71239020233043E+0000
 20
 5.68235244452080E+0000
 11
 8.70066920768295E+0000
 21
 5.69407343916828E+0000
  0
LINE
  8
1
  6
CONTINUOUS
 62
     1
 10
 8.73729406224447E+0000
 20
 5.67810278878460E+0000
 11
 8.71775907116535E+0000
 21
 5.69763777986373E+0000
  0
LINE
  8
1
  6
CONTINUOUS
 62
     1
 10
 8.76219792217307E+0000
 20
 5.67385313304840E+0000
 11
 8.73484893466230E+0000
 21
 5.70120212055917E+0000
  0
LINE
  8
1
  6
CONTINUOUS
 62
     1
 10
 8.78710178208712E+0000
 20
 5.66960347731947E+0000
 11
 8.75193879815924E+0000
 21
 5.70476646124735E+0000
  0
LINE
  8
1
  6
CONTINUOUS
 62
     1
 10
 8.81200564201572E+0000
 20
 5.66535382158327E+0000
 11
 8.76902866164164E+0000
 21
 5.70833080194279E+0000
  0
LINE
  8
1
  6
CONTINUOUS
 62
     1
 10
 8.83432373907999E+0000
 20
 5.66368992869684E+0000
 11
 8.78611852513859E+0000
 21
 5.71189514263824E+0000
  0
LINE
  8
1
  6
CONTINUOUS
 62
     1
 10
 8.83432373907999E+0000
 20
 5.68434413288196E+0000
 11
 8.80320838863554E+0000
 21
 5.71545948333369E+0000
  0
LINE
  8
1
  6
CONTINUOUS
 62
     1
 10
 8.83432373907999E+0000
 20
 5.70499833706708E+0000
 11
 8.82029825211794E+0000
 21
 5.71902382402914E+0000
  0
LINE
  8
1
  6
CONTINUOUS
 62
     1
 10
 8.83432373906544E+0000
 20
 5.67187250884308E+0000
 11
 8.82550200013793E+0000
 21
 5.66305076991557E+0000
  0
LINE
  8
1
  6
CONTINUOUS
 62
     1
 10
 8.83432373906544E+0000
 20
 5.69252671302820E+0000
 11
 8.80785852228291E+0000
 21
 5.66606149624567E+0000
  0
LINE
  8
1
  6
CONTINUOUS
 62
     1
 10
 8.83432373906544E+0000
 20
 5.71318091721332E+0000
 11
 8.79021504444245E+0000
 21
 5.66907222257578E+0000
  0
LINE
  8
1
  6
CONTINUOUS
 62
     1
 10
 8.81930535941501E+0000
 20
 5.71881674174801E+0000
 11
 8.77257156658743E+0000
 21
 5.67208294891316E+0000
  0
LINE
  8
1
  6
CONTINUOUS
 62
     1
 10
 8.79320821438159E+0000
 20
 5.71337380089972E+0000
 11
 8.75492808873241E+0000
 21
 5.67509367524326E+0000
  0
LINE
  8
1
  6
CONTINUOUS
 62
     1
 10
 8.76711106934818E+0000
 20
 5.70793086005142E+0000
 11
 8.73728461087740E+0000
 21
 5.67810440157336E+0000
  0
LINE
  8
1
  6
CONTINUOUS
 62
     1
 10
 8.74101392432931E+0000
 20
 5.70248791921040E+0000
 11
 8.71964113302238E+0000
 21
 5.68111512790347E+0000
  0
LINE
  8
1
  6
CONTINUOUS
 62
     1
 10
 8.71491677928134E+0000
 20
 5.69704497835482E+0000
 11
 8.70199765516736E+0000
 21
 5.68412585424085E+0000
  0
LINE
  8
1
  6
CONTINUOUS
 62
     1
 10
 8.68881963426247E+0000
 20
 5.69160203751380E+0000
 11
 8.68435417731234E+0000
 21
 5.68713658057095E+0000
  0
LINE
  8
1
  6
CONTINUOUS
 62
     1
 10
 8.45247787988046E+0000
 20
 5.68974982530926E+0000
 11
 8.45247787988046E+0000
 21
 5.68974982530926E+0000
  0
LINE
  8
1
  6
CONTINUOUS
 62
     1
 10
 8.45247787988046E+0000
 20
 5.68974982530926E+0000
 11
 8.29318855324527E+0000
 21
 5.71693134667294E+0000
  0
LINE
  8
1
  6
CONTINUOUS
 62
     1
 10
 8.29318855324527E+0000
 20
 5.71693134667294E+0000
 11
 8.29318855324527E+0000
 21
 5.65652770920133E+0000
  0
LINE
  8
1
  6
CONTINUOUS
 62
     1
 10
 8.29318855324527E+0000
 20
 5.65652770920133E+0000
 11
 8.45247787988046E+0000
 21
 5.68974982530926E+0000
  0
LINE
  8
1
  6
CONTINUOUS
 62
     1
 10
 8.29318855324527E+0000
 20
 5.71693134667294E+0000
 11
 8.29318855324527E+0000
 21
 5.65652770920133E+0000
  0
LINE
  8
1
  6
CONTINUOUS
 62
     1
 10
 8.30173348500102E+0000
 20
 5.65830987955269E+0000
 11
 8.29318855324527E+0000
 21
 5.66685481130116E+0000
  0
LINE
  8
1
  6
CONTINUOUS
 62
     1
 10
 8.31882334848342E+0000
 20
 5.66187422024086E+0000
 11
 8.29318855324527E+0000
 21
 5.68750901548628E+0000
  0
LINE
  8
1
  6
CONTINUOUS
 62
     1
 10
 8.33591321198037E+0000
 20
 5.66543856093631E+0000
 11
 8.29318855324527E+0000
 21
 5.70816321966413E+0000
  0
LINE
  8
1
  6
CONTINUOUS
 62
     1
 10
 8.35300307547732E+0000
 20
 5.66900290163176E+0000
 11
 8.30752022143861E+0000
 21
 5.71448575567047E+0000
  0
LINE
  8
1
  6
CONTINUOUS
 62
     1
 10
 8.37009293895971E+0000
 20
 5.67256724232720E+0000
 11
 8.33242408135266E+0000
 21
 5.71023609993426E+0000
  0
LINE
  8
1
  6
CONTINUOUS
 62
     1
 10
 8.38718280245666E+0000
 20
 5.67613158302265E+0000
 11
 8.35732794128126E+0000
 21
 5.70598644419806E+0000
  0
LINE
  8
1
  6
CONTINUOUS
 62
     1
 10
 8.40427266593906E+0000
 20
 5.67969592371810E+0000
 11
 8.38223180119530E+0000
 21
 5.70173678846186E+0000
  0
LINE
  8
1
  6
CONTINUOUS
 62
     1
 10
 8.42136252943601E+0000
 20
 5.68326026441355E+0000
 11
 8.40713566112390E+0000
 21
 5.69748713272566E+0000
  0
LINE
  8
1
  6
CONTINUOUS
 62
     1
 10
 8.43845239291841E+0000
 20
 5.68682460510900E+0000
 11
 8.43203952103795E+0000
 21
 5.69323747698945E+0000
  0
LINE
  8
1
  6
CONTINUOUS
 62
     1
 10
 8.44365614095295E+0000
 20
 5.69125518847432E+0000
 11
 8.43942930735648E+0000
 21
 5.68702835487784E+0000
  0
LINE
  8
1
  6
CONTINUOUS
 62
     1
 10
 8.42601266309794E+0000
 20
 5.69426591481169E+0000
 11
 8.41333216232306E+0000
 21
 5.68158541403682E+0000
  0
LINE
  8
1
  6
CONTINUOUS
 62
     1
 10
 8.40836918524292E+0000
 20
 5.69727664114180E+0000
 11
 8.38723501730419E+0000
 21
 5.67614247319580E+0000
  0
LINE
  8
1
  6
CONTINUOUS
 62
     1
 10
 8.39072570738790E+0000
 20
 5.70028736747190E+0000
 11
 8.36113787225622E+0000
 21
 5.67069953234022E+0000
  0
LINE
  8
1
  6
CONTINUOUS
 62
     1
 10
 8.37308222953288E+0000
 20
 5.70329809380200E+0000
 11
 8.33504072723736E+0000
 21
 5.66525659149920E+0000
  0
LINE
  8
1
  6
CONTINUOUS
 62
     1
 10
 8.35543875169242E+0000
 20
 5.70630882013938E+0000
 11
 8.30894358220394E+0000
 21
 5.65981365065090E+0000
  0
LINE
  8
1
  6
CONTINUOUS
 62
     1
 10
 8.33779527383740E+0000
 20
 5.70931954646949E+0000
 11
 8.29318855323072E+0000
 21
 5.66471282587008E+0000
  0
LINE
  8
1
  6
CONTINUOUS
 62
     1
 10
 8.32015179598238E+0000
 20
 5.71233027279959E+0000
 11
 8.29318855323072E+0000
 21
 5.68536703005520E+0000
  0
LINE
  8
1
  6
CONTINUOUS
 62
     1
 10
 8.30250831812737E+0000
 20
 5.71534099912969E+0000
 11
 8.29318855323072E+0000
 21
 5.70602123424032E+0000
  0
TEXT
  8
1
 62
     1
 10
 3.79560799923638E+0000
 20
 5.81345962461637E+0000
 40
 1.18110236219991E-0001
  1
8
  7
STANDARD
 11
 3.79560799923638E+0000
 21
 5.93156986083341E+0000
 50
 0.00000000000000E+0000
 41
 3.08371993680339E-0001
  0
TEXT
  8
1
 62
     1
 10
 2.81353528917680E+0000
 20
 5.63380678137037E+0000
 40
 1.18110236219991E-0001
  1
4,5
  7
STANDARD
 11
 2.81353528917680E+0000
 21
 5.75191701758740E+0000
 50
 0.00000000000000E+0000
 41
 2.56976661400131E-0001
  0
TEXT
  8
1
 62
     1
 10
 8.47713161751744E+0000
 20
 5.72722625985625E+0000
 40
 1.18110236219991E-0001
  1
5
  7
STANDARD
 11
 8.47713161751744E+0000
 21
 5.84533649607329E+0000
 50
 0.00000000000000E+0000
 41
 3.08371993680339E-0001
  0
TEXT
  8
1
 62
     1
 10
 8.35526858050434E+0000
 20
 2.63719735614723E+0000
 40
 1.18110236219991E-0001
  1
10
  7
STANDARD
 11
 8.35526858050434E+0000
 21
 2.75530759236790E+0000
 50
 0.00000000000000E+0000
 41
 3.08371993680339E-0001
  0
TEXT
  8
1
 62
     1
 10
 8.01835312522599E+0000
 20
 2.32100835204619E+0000
 40
 1.18110236219991E-0001
  1
24
  7
STANDARD
 11
 8.01835312522599E+0000
 21
 2.43911858826687E+0000
 50
 0.00000000000000E+0000
 41
 3.08371993680339E-0001
  0
TEXT
  8
1
 62
     1
 10
 7.93950057186157E+0000
 20
 2.01200546167820E+0000
 40
 1.18110236219991E-0001
  1
30
  7
STANDARD
 11
 7.93950057186157E+0000
 21
 2.13011569789887E+0000
 50
 0.00000000000000E+0000
 41
 3.08371993641686E-0001
  0
TEXT
  8
1
 62
     1
 10
 8.51297368723317E+0000
 20
 4.33312019632285E+0000
 40
 1.18110236219991E-0001
  1
4
  7
STANDARD
 11
 8.51297368723317E+0000
 21
 4.45123043253989E+0000
 50
 0.00000000000000E+0000
 41
 3.08371993680339E-0001
  0
TEXT
  8
1
 62
     1
 10
 5.48735368954658E+0000
 20
 4.35467853751470E+0000
 40
 1.18110236219991E-0001
  1
24
  7
STANDARD
 11
 5.48735368954658E+0000
 21
 4.47278877373174E+0000
 50
 9.00000000000000E+0001
 41
 3.08371993680339E-0001
  0
TEXT
  8
1
 62
     1
 10
 8.97175217952463E+0000
 20
 3.83009223525005E+0000
 40
 1.18110236219991E-0001
  1
60
  7
STANDARD
 11
 8.97175217952463E+0000
 21
 3.94820247147072E+0000
 50
 9.00000000000000E+0001
 41
 3.08371993680339E-0001
  0
TEXT
  8
1
 62
     1
 10
 8.75669976125937E+0000
 20
 3.83727834897945E+0000
 40
 1.18110236219991E-0001
  1
35H7
  7
STANDARD
 11
 8.75669976125937E+0000
 21
 3.95538858520013E+0000
 50
 9.00000000000000E+0001
 41
 3.27645243285588E-0001
  0
TEXT
  8
1
 62
     1
 10
 7.24416441948415E+0000
 20
 3.95944228238295E+0000
 40
 1.18110236219991E-0001
  1
20H7
  7
STANDARD
 11
 7.24416441948415E+0000
 21
 4.07755251860362E+0000
 50
 9.00000000000000E+0001
 41
 3.27645243285588E-0001
  0
TEXT
  8
1
 62
     1
 10
 6.79043668351369E+0000
 20
 3.89955286008262E+0000
 40
 1.18110236219991E-0001
  1
40H7
  7
STANDARD
 11
 6.79043668351369E+0000
 21
 4.01766309630329E+0000
 50
 9.00000000000000E+0001
 41
 3.27645243285588E-0001
  0
TEXT
  8
1
 62
     1
 10
 7.01695437367016E+0000
 20
 3.95939601137434E+0000
 40
 1.18110236219991E-0001
  1
36
  7
STANDARD
 11
 7.01695437367016E+0000
 21
 4.07750624759501E+0000
 50
 9.00000000000000E+0001
 41
 3.08371993680339E-0001
  0
LINE
  8
1
  6
DASHDOT
 62
     1
 10
 7.47623420689342E+0000
 20
 4.15106665624626E+0000
 11
 2.52088950106918E+0000
 21
 4.15106665624626E+0000
  0
LINE
  8
1
  6
DASHDOT
 62
     1
 10
 8.49945942845079E+0000
 20
 4.55142897295445E+0000
 11
 7.47588134244143E+0000
 21
 4.55142897295445E+0000
  0
LINE
  8
1
  6
DASHDOT
 62
     1
 10
 8.49945942845079E+0000
 20
 3.76342534829382E+0000
 11
 7.47588134244143E+0000
 21
 3.76342534829382E+0000
  0
CIRCLE
  8
1
  6
CONTINUOUS
 62
     1
 10
 3.86828448902452E+0000
 20
 4.15100002315012E+0000
 40
 3.95858928295638E-0001
  0
TEXT
  8
1
 62
     1
 10
 9.10366970820178E+0000
 20
 3.97276263935055E-0001
 40
 1.18110236219991E-0001
  1
(c)
  7
STANDARD
 11
 9.10366970820178E+0000
 21
 5.15386500154818E-0001
 50
 0.00000000000000E+0000
 41
 2.05581329120378E-0001
0
ENDSEC
0
EOF
