0
SECTION
  2
HEADER
  9
$LTSCALE
 40
     10
  9
$LIMMIN
 10
     0.0
 20
     0.0
  9
$LIMMAX
 10
      11.5
 20
       8.0
  9
$EXTMIN
 10
     0.0
 20
     0.0
  9
$EXTMAX
 10
      11.5
 20
       8.0
   9
$CLAYER
   8
1
   9
$CECOLOR
  62
     7
   9
$CELTYPE
   6
CONTINUOUS
  0
ENDSEC
  0
SECTION
  2
TABLES
  0
TABLE
  2
LTYPE
 70
    10
  0
LTYPE
  2
CONTINUOUS
 70
    64
  3
Solid line
 72
    65
 73
     0
 40
0.0
  0
LTYPE
  2
DASHED
 70
     0
  3
__ __ __ __ __ __ __ __ __ __ __ __ __ __ __
 72
    65
 73
     2
 40
0.75
 49
0.5
 49
-0.25
  0
LTYPE
  2
HIDDEN
 70
     0
  3
_ _ _ _ _ _ _ _ _ _ _ _ _ _ _ _ _ _ _ _ _ _
 72
    65
 73
     2
 40
0.375
 49
0.25
 49
-0.125
  0
LTYPE
  2
CENTER
 70
     0
  3
____ _ ____ _ ____ _ ____ _ ____ _ ____ _ __
 72
    65
 73
     4
 40
2.0
 49
1.25
 49
-0.25
 49
0.25
 49
-0.25
  0
LTYPE
  2
PHANTOM
 70
     0
  3
_____ _ _ _____ _ _ _____ _ _ _____ _ _ ____
 72
    65
 73
     6
 40
2.5
 49
1.25
 49
-0.25
 49
0.25
 49
-0.25
 49
0.25
 49
-0.25
  0
LTYPE
  2
DOT
 70
     0
  3
............................................
 72
    65
 73
     2
 40
0.25
 49
0.0
 49
-0.25
  0
LTYPE
  2
DASHDOT
 70
     0
  3
__ . __ . __ . __ . __ . __ . __ . __ . __ .
 72
    65
 73
     4
 40
1.0
 49
0.5
 49
-0.25
 49
0.0
 49
-0.25
  0
LTYPE
  2
BORDER
 70
     0
  3
__ __ . __ __ . __ __ . __ __ . __ __ . __ _
 72
    65
 73
     6
 40
1.75
 49
0.5
 49
-0.25
 49
0.5
 49
-0.25
 49
0.0
 49
-0.25
  0
LTYPE
  2
DIVIDE
 70
     0
  3
__ . . __ . . __ . . __ . . __ . . __ . . __
 72
    65
 73
     6
 40
1.25
 49
0.5
 49
-0.25
 49
0.0
 49
-0.25
 49
0.0
 49
-0.25
  0
LTYPE
  2
DIVIDE2
 70
     0
  3
close
 72
    65
 73
     2
 40
0.1
 49
0.05
 49
-0.05
  0
ENDTAB
0
TABLE
  2
LAYER
 70
   256
  0
LAYER
  2
1
 70
     0
  6
CONTINUOUS
 62
1
  0
ENDTAB
  0
TABLE
  2
STYLE
 70
     8
  0
STYLE
  2
TXT
 70
0
 40
0.0
 41
1.0
 50
0.0
 71
0
 42
1.0
  3
TXT
  4

  0
STYLE
  2
COMPLEX
 70
0
 40
0.0
 41
1.0
 50
0.0
 71
0
 42
1.0
  3
COMPLEX
  4

  0
STYLE
  2
ITALIC
 70
0
 40
0.0
 41
1.0
 50
0.0
 71
0
 42
1.0
  3
ITALIC
  4

  0
STYLE
  2
SIMPLEX
70
0
 40
0.0
 41
1.0
 50
0.0
 71
0
 42
1.0
  3
SIMPLEX
  4

  0
STYLE
  2
MONOTXT
 70
0
 40
0.0
 41
1.0
 50
0.0
 71
0
 42
1.0
  3
MONOTXT
  4

  0
STYLE
  2
SCRIPTC
 70
0
 40
0.0
 41
1.0
 50
0.0
 71
0
 42
1.0
  3
SCRIPTC
  4

  0
STYLE
  2
GOTHICE
 70
0
 40
0.0
 41
1.0
 50
0.0
 71
0
 42
1.0
  3
GOTHICE
  4

  0
ENDTAB
  0
TABLE
  2
VIEW
 70
     0
  0
ENDTAB
  0
ENDSEC
  0
SECTION
  2
ENTITIES
  0
LINE
  8
1
  6
CONTINUOUS
 62
     1
 10
 1.12129500291339E+0001
 20
 2.68907664729340E-0001
 11
 9.03131040210428E+0000
 21
 2.68907664729340E-0001
  0
LINE
  8
1
  6
CONTINUOUS
 62
     1
 10
 9.03131040210428E+0000
 20
 2.68907664729340E-0001
 11
 9.03131040210428E+0000
 21
 1.45576954793796E+0000
  0
LINE
  8
1
  6
CONTINUOUS
 62
     1
 10
 9.03131040210428E+0000
 20
 1.45576954793796E+0000
 11
 1.12129500291339E+0001
 21
 1.45576954793796E+0000
  0
LINE
  8
1
  6
CONTINUOUS
 62
     1
 10
 1.12129500291339E+0001
 20
 1.45576954793796E+0000
 11
 1.12129500291339E+0001
 21
 2.68907664729340E-0001
  0
LINE
  8
1
  6
CONTINUOUS
 62
     1
 10
 9.03062880199286E+0000
 20
 1.14238466866482E+0000
 11
 1.12138731198793E+0001
 21
 1.14238466866482E+0000
  0
LINE
  8
1
  6
CONTINUOUS
 62
     1
 10
 9.03826606570510E+0000
 20
 4.26714942919716E-0001
 11
 1.12215103835915E+0001
 21
 4.26714942919716E-0001
  0
TEXT
  8
1
 62
     1
 10
 9.07875831772981E+0000
 20
 1.25428957196527E+0000
 40
 1.18110236219991E-0001
  1
Benennung
  7
STANDARD
 11
 9.07875831772981E+0000
 21
 1.37239980818595E+0000
 50
 0.00000000000000E+0000
 41
 3.42292912985158E-0001
  0
LINE
  8
1
  6
CONTINUOUS
 62
     1
 10
 9.70316843094770E+0000
 20
 1.45432805433302E+0000
 11
 9.70316843094770E+0000
 21
 1.14238466866482E+0000
  0
LINE
  8
1
  6
CONTINUOUS
 62
     1
 10
 9.03062880199286E+0000
 20
 9.76350285971421E-0001
 11
 1.12138731198793E+0001
 21
 9.76350285971421E-0001
  0
LINE
  8
1
  6
CONTINUOUS
 62
     1
 10
 9.03062880199286E+0000
 20
 8.10315903278024E-0001
 11
 1.12138731198793E+0001
 21
 8.10315903278024E-0001
  0
TEXT
  8
1
 62
     1
 10
 9.08351513103116E+0000
 20
 9.91758481183751E-0001
 40
 1.18110236219991E-0001
  1
Werkstoff
  7
STANDARD
 11
 9.08351513103116E+0000
 21
 1.10986871740351E+0000
 50
 0.00000000000000E+0000
 41
 2.77534794312487E-0001
  0
LINE
  8
1
  6
CONTINUOUS
 62
     1
 10
 9.70316843094770E+0000
 20
 1.14238466866482E+0000
 11
 9.70316843094770E+0000
 21
 9.76350285971421E-0001
  0
LINE
  8
1
  6
CONTINUOUS
 62
     1
 10
 1.06316746351076E+0001
 20
 1.14238466866482E+0000
 11
 1.06316746351076E+0001
 21
 9.76350285971421E-0001
  0
TEXT
  8
1
 62
     1
 10
 1.06975578126730E+0001
 20
 9.91758481183751E-0001
 40
 1.18110236219991E-0001
  1
M 1:1
  7
STANDARD
 11
 1.06975578126730E+0001
 21
 1.10986871740351E+0000
 50
 0.00000000000000E+0000
 41
 2.83085490198573E-0001
  0
LINE
  8
1
  6
CONTINUOUS
 62
     1
 10
 9.03131040210428E+0000
 20
 1.45576954793796E+0000
 11
 1.12188920723420E+0001
 21
 1.45576954793796E+0000
  0
LINE
  8
1
  6
CONTINUOUS
 62
     1
 10
 9.03131040210428E+0000
 20
 1.45576954793796E+0000
 11
 1.12129500291339E+0001
 21
 1.45576954793796E+0000
  0
LINE
  8
1
  6
CONTINUOUS
 62
     1
 10
 1.12129500291339E+0001
 20
 1.45576954793796E+0000
 11
 1.12129500291339E+0001
 21
 2.68907664729340E-0001
  0
LINE
  8
1
  6
CONTINUOUS
 62
     1
 10
 1.12129500291339E+0001
 20
 2.68907664729340E-0001
 11
 9.03131040210428E+0000
 21
 2.68907664729340E-0001
  0
LINE
  8
1
  6
CONTINUOUS
 62
     1
 10
 9.03131040210428E+0000
 20
 2.68907664729340E-0001
 11
 9.03131040210428E+0000
 21
 1.45576954793796E+0000
  0
TEXT
  8
1
 62
     1
 10
 9.07695743863587E+0000
 20
 8.32670547401904E-0001
 40
 1.18110236219991E-0001
  1
Bearb.
  7
STANDARD
 11
 9.07695743863587E+0000
 21
 9.50780783621667E-0001
 50
 0.00000000000000E+0000
 41
 2.91411534028157E-0001
  0
LINE
  8
1
  6
CONTINUOUS
 62
     1
 10
 9.70425349024299E+0000
 20
 9.77477030681257E-0001
 11
 9.70425349024299E+0000
 21
 8.11367048972897E-0001
  0
LINE
  8
1
  6
CONTINUOUS
 62
     1
 10
 9.03257328404288E+0000
 20
 6.39324567919175E-0001
 11
 1.12133147464920E+0001
 21
 6.39324567919175E-0001
  0
LINE
  8
1
  6
CONTINUOUS
 62
     1
 10
 9.70425349024299E+0000
 20
 8.11367048972897E-0001
 11
 9.70425349024299E+0000
 21
 6.39324567919175E-0001
  0
TEXT
  8
1
 62
     1
 10
 9.07695743863587E+0000
 20
 6.57661816674590E-0001
 40
 1.18110236219991E-0001
  1
Datum
  7
STANDARD
 11
 9.07695743863587E+0000
 21
 7.75772052894354E-0001
 50
 0.00000000000000E+0000
 41
 3.49693840833424E-0001
  0
LINE
  8
1
  6
CONTINUOUS
 62
     1
 10
 1.06304028494633E+0001
 20
 4.22788341766136E-0001
 11
 1.06304028494633E+0001
 21
 2.71509608424822E-0001
  0
TEXT
  8
1
 62
     1
 10
 9.76047341940284E+0000
 20
 8.23771798382040E-0001
 40
 1.18110236219991E-0001
  1
D.Freind
  7
STANDARD
 11
 9.76047341940284E+0000
 21
 9.41882034601804E-0001
 50
 0.00000000000000E+0000
 41
 2.81003979241177E-0001
  0
TEXT
  8
1
 62
     1
 10
 1.06540743985970E+0001
 20
 2.86880607504827E-0001
 40
 1.18110236219991E-0001
  1
Blatt
  7
STANDARD
 11
 1.06540743985970E+0001
 21
 4.04990843724590E-0001
 50
 0.00000000000000E+0000
 41
 2.49781314881147E-0001
  0
TEXT
  8
1
 62
     1
 10
 1.09973118607886E+0001
 20
 2.86880607504827E-0001
 40
 1.18110236219991E-0001
  1
1
  7
STANDARD
 11
 1.09973118607886E+0001
 21
 4.04990843724590E-0001
 50
 0.00000000000000E+0000
 41
 3.33041753174712E-0001
  0
TEXT
  8
1
 62
     1
 10
 9.18022199331608E+0000
 20
 4.49151016281576E-0001
 40
 1.18110236219991E-0001
  1
für Revolver 8-fach 
  7
STANDARD
 11
 9.18022199331608E+0000
 21
 5.67261252501339E-0001
 50
 0.00000000000000E+0000
 41
 2.53944336795939E-0001
  0
LINE
  8
1
  6
DASHDOT
 62
     1
 10
 2.86572369783607E+0000
 20
 5.39654213955509E+0000
 11
 5.52904835389927E+0000
 21
 5.39654213955509E+0000
  0
LINE
  8
1
  6
CONTINUOUS
 62
     1
 10
 5.30303916271077E+0000
 20
 6.08064603241655E+0000
 11
 3.80011891689355E+0000
 21
 6.08064603241655E+0000
  0
LINE
  8
1
  6
CONTINUOUS
 62
     1
 10
 2.94606091743117E+0000
 20
 5.39404935506172E+0000
 11
 2.94606091743117E+0000
 21
 5.94775635293627E+0000
  0
LINE
  8
1
  6
CONTINUOUS
 62
     1
 10
 2.94606091743117E+0000
 20
 5.94775635293627E+0000
 11
 3.80011891689355E+0000
 21
 6.08064603241655E+0000
  0
LINE
  8
1
  6
CONTINUOUS
 62
     1
 10
 5.30303916271077E+0000
 20
 6.08064603241655E+0000
 11
 5.30303916271077E+0000
 21
 5.78164425356954E+0000
  0
LINE
  8
1
  6
CONTINUOUS
 62
     1
 10
 5.30303916271077E+0000
 20
 5.78164425356954E+0000
 11
 4.70963522801321E+0000
 21
 5.78164425356954E+0000
  0
LINE
  8
1
  6
CONTINUOUS
 62
     1
 10
 4.70963522801321E+0000
 20
 5.78164425356954E+0000
 11
 4.70963522801321E+0000
 21
 5.39404935506172E+0000
  0
LINE
  8
1
  6
DASHDOT
 62
     1
 10
 4.63753942285985E+0000
 20
 5.82594081339630E+0000
 11
 4.02195216350810E+0000
 21
 5.82594081339630E+0000
  0
LINE
  8
1
  6
DASHDOT
 62
     1
 10
 3.80566474805892E+0000
 20
 5.82594081339630E+0000
 11
 3.15125667054963E+0000
 21
 5.82594081339630E+0000
  0
LINE
  8
1
  6
DASHDOT
 62
     1
 10
 4.27151456595311E+0000
 20
 6.04742361254466E+0000
 11
 4.27151456595311E+0000
 21
 5.59338387429307E+0000
  0
LINE
  8
1
  6
DASHDOT
 62
     1
 10
 3.48400654046782E+0000
 20
 6.04742361254466E+0000
 11
 3.48400654046782E+0000
 21
 5.60445801424794E+0000
  0
CIRCLE
  8
1
  6
CONTINUOUS
 62
     1
 10
 4.27151456595311E+0000
 20
 5.82594081339630E+0000
 40
 1.60829103791912E-0001
  0
CIRCLE
  8
1
  6
CONTINUOUS
 62
     1
 10
 4.27151456595311E+0000
 20
 5.82594081339630E+0000
 40
 8.87332986458205E-0002
  0
CIRCLE
  8
1
  6
CONTINUOUS
 62
     1
 10
 3.48400654046782E+0000
 20
 5.82594081339630E+0000
 40
 1.60829103791912E-0001
  0
CIRCLE
  8
1
  6
CONTINUOUS
 62
     1
 10
 3.48400654046782E+0000
 20
 5.82594081339630E+0000
 40
 8.87332986458205E-0002
  0
LINE
  8
1
  6
DOT
 62
     1
 10
 4.50998530605284E+0000
 20
 6.08064603241655E+0000
 11
 4.50998530605284E+0000
 21
 5.39404935506172E+0000
  0
LINE
  8
1
  6
DOT
 62
     1
 10
 4.19387292963802E+0000
 20
 5.39404935506172E+0000
 11
 4.19387292963802E+0000
 21
 5.39714406948042E+0000
  0
LINE
  8
1
  6
CONTINUOUS
 62
     1
 10
 5.30303916271077E+0000
 20
 4.70745267772145E+0000
 11
 3.80011891689355E+0000
 21
 4.70745267772145E+0000
  0
LINE
  8
1
  6
CONTINUOUS
 62
     1
 10
 2.94606091743117E+0000
 20
 5.39404935507628E+0000
 11
 2.94606091743117E+0000
 21
 4.84034235720173E+0000
  0
LINE
  8
1
  6
CONTINUOUS
 62
     1
 10
 2.94606091743117E+0000
 20
 4.84034235718718E+0000
 11
 3.80011891689355E+0000
 21
 4.70745267770690E+0000
  0
LINE
  8
1
  6
CONTINUOUS
 62
     1
 10
 5.30303916271077E+0000
 20
 4.70745267770690E+0000
 11
 5.30303916271077E+0000
 21
 5.00645445655391E+0000
  0
LINE
  8
1
  6
CONTINUOUS
 62
     1
 10
 5.30303916271077E+0000
 20
 5.00645445656846E+0000
 11
 4.70963522801321E+0000
 21
 5.00645445656846E+0000
  0
LINE
  8
1
  6
CONTINUOUS
 62
     1
 10
 4.70963522801321E+0000
 20
 5.00645445656846E+0000
 11
 4.70963522801321E+0000
 21
 5.39404935507628E+0000
  0
LINE
  8
1
  6
DASHDOT
 62
     1
 10
 4.63753942285985E+0000
 20
 4.96215789674170E+0000
 11
 4.02195216350810E+0000
 21
 4.96215789674170E+0000
  0
LINE
  8
1
  6
DASHDOT
 62
     1
 10
 3.80566474805892E+0000
 20
 4.96215789674170E+0000
 11
 3.15125667054963E+0000
 21
 4.96215789674170E+0000
  0
LINE
  8
1
  6
DASHDOT
 62
     1
 10
 4.27151456595311E+0000
 20
 4.74067509759334E+0000
 11
 4.27151456595311E+0000
 21
 5.19471483584493E+0000
  0
LINE
  8
1
  6
DASHDOT
 62
     1
 10
 3.48400654046782E+0000
 20
 4.74067509759334E+0000
 11
 3.48400654046782E+0000
 21
 5.18364069589006E+0000
  0
CIRCLE
  8
1
  6
CONTINUOUS
 62
     1
 10
 4.27151456595311E+0000
 20
 4.96215789674170E+0000
 40
 1.60829103791912E-0001
  0
CIRCLE
  8
1
  6
CONTINUOUS
 62
     1
 10
 4.27151456595311E+0000
 20
 4.96215789674170E+0000
 40
 8.87332986458205E-0002
  0
CIRCLE
  8
1
  6
CONTINUOUS
 62
     1
 10
 3.48400654046782E+0000
 20
 4.96215789674170E+0000
 40
 1.60829103791912E-0001
  0
CIRCLE
  8
1
  6
CONTINUOUS
 62
     1
 10
 3.48400654046782E+0000
 20
 4.96215789674170E+0000
 40
 8.87332986458205E-0002
  0
LINE
  8
1
  6
DOT
 62
     1
 10
 4.50998530605284E+0000
 20
 4.70745267770690E+0000
 11
 4.50998530605284E+0000
 21
 5.39404935506172E+0000
  0
LINE
  8
1
  6
DOT
 62
     1
 10
 4.19387292963802E+0000
 20
 5.39714406948042E+0000
 11
 4.19387292963802E+0000
 21
 5.39095464065758E+0000
  0
LINE
  8
1
  6
DOT
 62
     1
 10
 4.03639261467470E+0000
 20
 5.23347432569426E+0000
 11
 2.94606091743117E+0000
 21
 5.23347432569426E+0000
  0
LINE
  8
1
  6
DASHDOT
 62
     1
 10
 5.00416474408121E+0000
 20
 6.19112631564349E+0000
 11
 5.00416474408121E+0000
 21
 5.68083006341476E+0000
  0
LINE
  8
1
  6
DOT
 62
     1
 10
 4.88847536854155E+0000
 20
 6.08043586136773E+0000
 11
 4.88847536854155E+0000
 21
 5.78191525951115E+0000
  0
LINE
  8
1
  6
DOT
 62
     1
 10
 5.12158851177082E+0000
 20
 6.08043586136773E+0000
 11
 5.12158851177082E+0000
 21
 5.78191525951115E+0000
  0
LINE
  8
1
  6
DOT
 62
     1
 10
 4.92394910772418E+0000
 20
 6.08043586136773E+0000
 11
 4.92394910772418E+0000
 21
 5.78191525951115E+0000
  0
LINE
  8
1
  6
DOT
 62
     1
 10
 5.08358093407151E+0000
 20
 6.08043586136773E+0000
 11
 5.08358093407151E+0000
 21
 5.78191525951115E+0000
  0
LINE
  8
1
  6
CONTINUOUS
 62
     1
 10
 5.30357887540595E+0000
 20
 1.82392691183486E+0000
 11
 5.30357887540595E+0000
 21
 2.80988478253857E+0000
  0
LINE
  8
1
  6
CONTINUOUS
 62
     1
 10
 5.30357887540595E+0000
 20
 2.80988478253857E+0000
 11
 4.50698107803328E+0000
 21
 2.80988478253857E+0000
  0
LINE
  8
1
  6
CONTINUOUS
 62
     1
 10
 4.50698107803328E+0000
 20
 2.80988478253857E+0000
 11
 4.50698107803328E+0000
 21
 1.82392691183486E+0000
  0
LINE
  8
1
  6
CONTINUOUS
 62
     1
 10
 4.50698107803328E+0000
 20
 1.82392691183486E+0000
 11
 2.94670274763848E+0000
 21
 1.82392691183486E+0000
  0
LINE
  8
1
  6
CONTINUOUS
 62
     1
 10
 2.94670274763848E+0000
 20
 1.82392691183486E+0000
 11
 2.94670274763848E+0000
 21
 1.42954376354646E+0000
  0
LINE
  8
1
  6
CONTINUOUS
 62
     1
 10
 2.94670274763848E+0000
 20
 1.42954376354646E+0000
 11
 5.30642557575629E+0000
 21
 1.42954376354646E+0000
  0
LINE
  8
1
  6
CONTINUOUS
 62
     1
 10
 5.30642557575629E+0000
 20
 1.42954376354646E+0000
 11
 5.30642557575629E+0000
 21
 1.82667534392749E+0000
  0
LINE
  8
1
  6
DOT
 62
     1
 10
 4.70733136450872E+0000
 20
 2.80740753859573E+0000
 11
 4.70733136450872E+0000
 21
 1.42706651960361E+0000
  0
LINE
  8
1
  6
DASHDOT
 62
     1
 10
 4.27282347503206E+0000
 20
 1.88718019259977E+0000
 11
 4.27282347503206E+0000
 21
 1.38105515230382E+0000
  0
LINE
  8
1
  6
DASHDOT
 62
     1
 10
 3.48280913053168E+0000
 20
 1.88718019259977E+0000
 11
 3.48280913053168E+0000
 21
 1.38105515230382E+0000
  0
LINE
  8
1
  6
DOT
 62
     1
 10
 3.31725713906417E+0000
 20
 1.42938890168989E+0000
 11
 3.31725713906417E+0000
 21
 1.63241919959546E+0000
  0
LINE
  8
1
  6
DOT
 62
     1
 10
 3.31725713906417E+0000
 20
 1.63241919959546E+0000
 11
 3.64346691458195E+0000
 21
 1.63241919959546E+0000
  0
LINE
  8
1
  6
DOT
 62
     1
 10
 3.64346691458195E+0000
 20
 1.63241919959546E+0000
 11
 3.64346691458195E+0000
 21
 1.42938890168989E+0000
  0
LINE
  8
1
  6
DOT
 62
     1
 10
 3.39351396970596E+0000
 20
 1.82276010388159E+0000
 11
 3.39351396970596E+0000
 21
 1.63241919959546E+0000
  0
LINE
  8
1
  6
DOT
 62
     1
 10
 3.57144657453318E+0000
 20
 1.82276010388159E+0000
 11
 3.57144657453318E+0000
 21
 1.63241919959546E+0000
  0
LINE
  8
1
  6
DOT
 62
     1
 10
 4.10948087961151E+0000
 20
 1.42938890168989E+0000
 11
 4.10948087961151E+0000
 21
 1.63241919959546E+0000
  0
LINE
  8
1
  6
DOT
 62
     1
 10
 4.10948087961151E+0000
 20
 1.63241919959546E+0000
 11
 4.43569065513293E+0000
 21
 1.63241919959546E+0000
  0
LINE
  8
1
  6
DOT
 62
     1
 10
 4.43569065513293E+0000
 20
 1.63241919959546E+0000
 11
 4.43569065513293E+0000
 21
 1.42938890168989E+0000
  0
LINE
  8
1
  6
DOT
 62
     1
 10
 4.18573771025694E+0000
 20
 1.82276010388159E+0000
 11
 4.18573771025694E+0000
 21
 1.63241919959546E+0000
  0
LINE
  8
1
  6
DOT
 62
     1
 10
 4.36367031508416E+0000
 20
 1.82276010388159E+0000
 11
 4.36367031508416E+0000
 21
 1.63241919959546E+0000
  0
LINE
  8
1
  6
DASHDOT
 62
     1
 10
 5.00073785494897E+0000
 20
 2.91119050784982E+0000
 11
 5.00073785494897E+0000
 21
 1.33983890812851E+0000
  0
LINE
  8
1
  6
DASHDOT
 62
     1
 10
 4.74666536634322E+0000
 20
 2.55922825571179E+0000
 11
 5.23363763617817E+0000
 21
 2.55922825571179E+0000
  0
LINE
  8
1
  6
DASHDOT
 62
     1
 10
 4.76078050459910E+0000
 20
 1.68140031085568E+0000
 11
 5.21952249792230E+0000
 21
 1.68140031085568E+0000
  0
CIRCLE
  8
1
  6
CONTINUOUS
 62
     1
 10
 5.00073785494897E+0000
 20
 2.55922825571179E+0000
 40
 9.88059677911224E-0002
  0
ARC
  8
1
  6
CONTINUOUS
 62
     1
 10
 5.00126790736249E+0000
 20
 2.55831968255734E+0000
 40
 1.26456230522308E-0001
 50
 3.49556251380593E+0002
 51
 2.56328792012762E+0002
  0
CIRCLE
  8
1
  6
CONTINUOUS
 62
     1
 10
 5.00073785494897E+0000
 20
 1.68077615148650E+0000
 40
 9.88059677911224E-0002
  0
ARC
  8
1
  6
CONTINUOUS
 62
     1
 10
 5.00126790736249E+0000
 20
 1.67986757833205E+0000
 40
 1.26456230522308E-0001
 50
 3.49556251380593E+0002
 51
 2.56328792012762E+0002
  0
LINE
  8
1
  6
CONTINUOUS
 62
     1
 10
 7.33396096355864E+0000
 20
 6.08360975609685E+0000
 11
 8.71792483377794E+0000
 21
 6.08360975609685E+0000
  0
LINE
  8
1
  6
CONTINUOUS
 62
     1
 10
 8.71792483377794E+0000
 20
 6.08360975609685E+0000
 11
 8.71792483377794E+0000
 21
 4.71297560975654E+0000
  0
LINE
  8
1
  6
CONTINUOUS
 62
     1
 10
 8.71792483377794E+0000
 20
 4.71297560975654E+0000
 11
 7.33396096355864E+0000
 21
 4.71297560975654E+0000
  0
LINE
  8
1
  6
CONTINUOUS
 62
     1
 10
 7.33396096355864E+0000
 20
 4.71297560975654E+0000
 11
 7.33396096355864E+0000
 21
 6.08360975609685E+0000
  0
LINE
  8
1
  6
DASHDOT
 62
     1
 10
 6.96564799809858E+0000
 20
 5.39272099939990E+0000
 11
 8.98578880865534E+0000
 21
 5.39272099939990E+0000
  0
LINE
  8
1
  6
DASHDOT
 62
     1
 10
 8.02624234011455E+0000
 20
 6.23958971576212E+0000
 11
 8.02624234011455E+0000
 21
 4.50087113072368E+0000
  0
LINE
  8
1
  6
CONTINUOUS
 62
     1
 10
 8.32236269771238E+0000
 20
 6.08472409280512E+0000
 11
 8.32236269771238E+0000
 21
 5.55677310544706E+0000
  0
LINE
  8
1
  6
CONTINUOUS
 62
     1
 10
 8.32236269771238E+0000
 20
 5.23296316652704E+0000
 11
 8.32236269771238E+0000
 21
 4.71205152566836E+0000
  0
LINE
  8
1
  6
DOT
 62
     1
 10
 8.71718984117615E+0000
 20
 5.78203219337593E+0000
 11
 7.33529483905295E+0000
 21
 5.78203219337593E+0000
  0
LINE
  8
1
  6
DOT
 62
     1
 10
 8.71718984117615E+0000
 20
 5.00770407859090E+0000
 11
 7.33529483905295E+0000
 21
 5.00770407859090E+0000
  0
LINE
  8
1
  6
DASHDOT
 62
     1
 10
 8.46595273407002E+0000
 20
 6.19816566215013E+0000
 11
 8.46595273407002E+0000
 21
 5.68786940992140E+0000
  0
LINE
  8
1
  6
DOT
 62
     1
 10
 8.35026335853036E+0000
 20
 6.08747520787438E+0000
 11
 8.35026335853036E+0000
 21
 5.78895460601780E+0000
  0
LINE
  8
1
  6
DOT
 62
     1
 10
 8.58337650175963E+0000
 20
 6.08747520787438E+0000
 11
 8.58337650175963E+0000
 21
 5.78895460601780E+0000
  0
LINE
  8
1
  6
DOT
 62
     1
 10
 8.38573709770571E+0000
 20
 6.08747520787438E+0000
 11
 8.38573709770571E+0000
 21
 5.78895460601780E+0000
  0
LINE
  8
1
  6
DOT
 62
     1
 10
 8.54536892406759E+0000
 20
 6.08747520787438E+0000
 11
 8.54536892406759E+0000
 21
 5.78895460601780E+0000
  0
LINE
  8
1
  6
DASHDOT
 62
     1
 10
 7.59169263068907E+0000
 20
 6.19816566215013E+0000
 11
 7.59169263068907E+0000
 21
 5.68786940992140E+0000
  0
LINE
  8
1
  6
DOT
 62
     1
 10
 7.47600325514941E+0000
 20
 6.08747520787438E+0000
 11
 7.47600325514941E+0000
 21
 5.78895460601780E+0000
  0
LINE
  8
1
  6
DOT
 62
     1
 10
 7.70911639837868E+0000
 20
 6.08747520787438E+0000
 11
 7.70911639837868E+0000
 21
 5.78895460601780E+0000
  0
LINE
  8
1
  6
DOT
 62
     1
 10
 7.51147699433204E+0000
 20
 6.08747520787438E+0000
 11
 7.51147699433204E+0000
 21
 5.78895460601780E+0000
  0
LINE
  8
1
  6
DOT
 62
     1
 10
 7.67110882067936E+0000
 20
 6.08747520787438E+0000
 11
 7.67110882067936E+0000
 21
 5.78895460601780E+0000
  0
LINE
  8
1
  6
DASHDOT
 62
     1
 10
 8.26465486238885E+0000
 20
 4.95865314004914E+0000
 11
 8.77077990268299E+0000
 21
 4.95865314004914E+0000
  0
LINE
  8
1
  6
DOT
 62
     1
 10
 8.72244615330419E+0000
 20
 4.79531054463587E+0000
 11
 8.51941585539316E+0000
 21
 4.79531054463587E+0000
  0
LINE
  8
1
  6
DOT
 62
     1
 10
 8.51941585539316E+0000
 20
 4.79531054463587E+0000
 11
 8.51941585539316E+0000
 21
 5.12152032015001E+0000
  0
LINE
  8
1
  6
DOT
 62
     1
 10
 8.51941585539316E+0000
 20
 5.12152032015001E+0000
 11
 8.72244615330419E+0000
 21
 5.12152032015001E+0000
  0
LINE
  8
1
  6
DOT
 62
     1
 10
 8.32907495110703E+0000
 20
 4.87156737528130E+0000
 11
 8.51941585539316E+0000
 21
 4.87156737528130E+0000
  0
LINE
  8
1
  6
DOT
 62
     1
 10
 8.32907495110703E+0000
 20
 5.04949998010852E+0000
 11
 8.51941585539316E+0000
 21
 5.04949998010852E+0000
  0
LINE
  8
1
  6
DASHDOT
 62
     1
 10
 8.26465486238885E+0000
 20
 5.82994345927000E+0000
 11
 8.77077990268299E+0000
 21
 5.82994345927000E+0000
  0
LINE
  8
1
  6
DOT
 62
     1
 10
 8.72244615330419E+0000
 20
 5.66660086385673E+0000
 11
 8.51941585539316E+0000
 21
 5.66660086385673E+0000
  0
LINE
  8
1
  6
DOT
 62
     1
 10
 8.51941585539316E+0000
 20
 5.66660086385673E+0000
 11
 8.51941585539316E+0000
 21
 5.99281063937087E+0000
  0
LINE
  8
1
  6
DOT
 62
     1
 10
 8.51941585539316E+0000
 20
 5.99281063937087E+0000
 11
 8.72244615330419E+0000
 21
 5.99281063937087E+0000
  0
LINE
  8
1
  6
DOT
 62
     1
 10
 8.32907495110703E+0000
 20
 5.74285769450216E+0000
 11
 8.51941585539316E+0000
 21
 5.74285769450216E+0000
  0
LINE
  8
1
  6
DOT
 62
     1
 10
 8.32907495110703E+0000
 20
 5.92079029932938E+0000
 11
 8.51941585539316E+0000
 21
 5.92079029932938E+0000
  0
LINE
  8
1
  6
CONTINUOUS
 62
     1
 10
 5.29940594808431E+0000
 20
 5.77784176085697E+0000
 11
 5.78748694267415E+0000
 21
 5.77784176085697E+0000
  0
LINE
  8
1
  6
CONTINUOUS
 62
     1
 10
 5.78748694267415E+0000
 20
 5.77784176085697E+0000
 11
 5.78748694267415E+0000
 21
 5.00550148721231E+0000
  0
LINE
  8
1
  6
CONTINUOUS
 62
     1
 10
 5.78748694267415E+0000
 20
 5.00550148721231E+0000
 11
 5.29940594808431E+0000
 21
 5.00550148721231E+0000
  0
LINE
  8
1
  6
CONTINUOUS
 62
     1
 10
 5.78748694267415E+0000
 20
 5.77784176085697E+0000
 11
 5.78748694267415E+0000
 21
 5.77784176085697E+0000
  0
LINE
  8
1
  6
CONTINUOUS
 62
     1
 10
 5.78748694267415E+0000
 20
 5.77784176085697E+0000
 11
 5.76030542131048E+0000
 21
 5.61855243422906E+0000
  0
LINE
  8
1
  6
CONTINUOUS
 62
     1
 10
 5.76030542131048E+0000
 20
 5.61855243422906E+0000
 11
 5.82070905878209E+0000
 21
 5.61855243422906E+0000
  0
LINE
  8
1
  6
CONTINUOUS
 62
     1
 10
 5.82070905878209E+0000
 20
 5.61855243422906E+0000
 11
 5.78748694267415E+0000
 21
 5.77784176085697E+0000
  0
LINE
  8
1
  6
CONTINUOUS
 62
     1
 10
 5.76030542131048E+0000
 20
 5.61855243422906E+0000
 11
 5.82070905878209E+0000
 21
 5.61855243422906E+0000
  0
LINE
  8
1
  6
CONTINUOUS
 62
     1
 10
 5.77063252341759E+0000
 20
 5.61855243422906E+0000
 11
 5.76181078448280E+0000
 21
 5.62737417316384E+0000
  0
LINE
  8
1
  6
CONTINUOUS
 62
     1
 10
 5.79128672760271E+0000
 20
 5.61855243422906E+0000
 11
 5.76482151081291E+0000
 21
 5.64501765101886E+0000
  0
LINE
  8
1
  6
CONTINUOUS
 62
     1
 10
 5.81194093178783E+0000
 20
 5.61855243422906E+0000
 11
 5.76783223714301E+0000
 21
 5.66266112887388E+0000
  0
LINE
  8
1
  6
CONTINUOUS
 62
     1
 10
 5.81757675630070E+0000
 20
 5.63357081390131E+0000
 11
 5.77084296348039E+0000
 21
 5.68030460672890E+0000
  0
LINE
  8
1
  6
CONTINUOUS
 62
     1
 10
 5.81213381545240E+0000
 20
 5.65966795893473E+0000
 11
 5.77385368981049E+0000
 21
 5.69794808457664E+0000
  0
LINE
  8
1
  6
CONTINUOUS
 62
     1
 10
 5.80669087460410E+0000
 20
 5.68576510396815E+0000
 11
 5.77686441614060E+0000
 21
 5.71559156243165E+0000
  0
LINE
  8
1
  6
CONTINUOUS
 62
     1
 10
 5.80124793375580E+0000
 20
 5.71186224900157E+0000
 11
 5.77987514247798E+0000
 21
 5.73323504028667E+0000
  0
LINE
  8
1
  6
CONTINUOUS
 62
     1
 10
 5.79580499291478E+0000
 20
 5.73795939403499E+0000
 11
 5.78288586880808E+0000
 21
 5.75087851813441E+0000
  0
LINE
  8
1
  6
CONTINUOUS
 62
     1
 10
 5.79036205206648E+0000
 20
 5.76405653906841E+0000
 11
 5.78589659513818E+0000
 21
 5.76852199598943E+0000
  0
LINE
  8
1
  6
CONTINUOUS
 62
     1
 10
 5.81892688843072E+0000
 20
 5.62709736597026E+0000
 11
 5.81038195668953E+0000
 21
 5.61855243422906E+0000
  0
LINE
  8
1
  6
CONTINUOUS
 62
     1
 10
 5.81536254773528E+0000
 20
 5.64418722945993E+0000
 11
 5.78972775250440E+0000
 21
 5.61855243422906E+0000
  0
LINE
  8
1
  6
CONTINUOUS
 62
     1
 10
 5.81179820704710E+0000
 20
 5.66127709295688E+0000
 11
 5.76907354831928E+0000
 21
 5.61855243422906E+0000
  0
LINE
  8
1
  6
CONTINUOUS
 62
     1
 10
 5.80823386635166E+0000
 20
 5.67836695644655E+0000
 11
 5.76275101232022E+0000
 21
 5.63288410241512E+0000
  0
LINE
  8
1
  6
CONTINUOUS
 62
     1
 10
 5.80466952564893E+0000
 20
 5.69545681992895E+0000
 11
 5.76700066805643E+0000
 21
 5.65778796233644E+0000
  0
LINE
  8
1
  6
CONTINUOUS
 62
     1
 10
 5.80110518495349E+0000
 20
 5.71254668341862E+0000
 11
 5.77125032378535E+0000
 21
 5.68269182225777E+0000
  0
LINE
  8
1
  6
CONTINUOUS
 62
     1
 10
 5.79754084425804E+0000
 20
 5.72963654690830E+0000
 11
 5.77549997952156E+0000
 21
 5.70759568217909E+0000
  0
LINE
  8
1
  6
CONTINUOUS
 62
     1
 10
 5.79397650356259E+0000
 20
 5.74672641040524E+0000
 11
 5.77974963525776E+0000
 21
 5.73249954210041E+0000
  0
LINE
  8
1
  6
CONTINUOUS
 62
     1
 10
 5.79041216287442E+0000
 20
 5.76381627389492E+0000
 11
 5.78399929099396E+0000
 21
 5.75740340202174E+0000
  0
LINE
  8
1
  6
CONTINUOUS
 62
     1
 10
 5.78765730562009E+0000
 20
 5.00152945589070E+0000
 11
 5.78765730562009E+0000
 21
 5.00152945589070E+0000
  0
LINE
  8
1
  6
CONTINUOUS
 62
     1
 10
 5.78765730562009E+0000
 20
 5.00152945589070E+0000
 11
 5.81483882698376E+0000
 21
 5.16081878251862E+0000
  0
LINE
  8
1
  6
CONTINUOUS
 62
     1
 10
 5.81483882698376E+0000
 20
 5.16081878251862E+0000
 11
 5.75443518951215E+0000
 21
 5.16081878251862E+0000
  0
LINE
  8
1
  6
CONTINUOUS
 62
     1
 10
 5.75443518951215E+0000
 20
 5.16081878251862E+0000
 11
 5.78765730562009E+0000
 21
 5.00152945589070E+0000
  0
LINE
  8
1
  6
CONTINUOUS
 62
     1
 10
 5.81483882698376E+0000
 20
 5.16081878251862E+0000
 11
 5.75443518951215E+0000
 21
 5.16081878251862E+0000
  0
LINE
  8
1
  6
CONTINUOUS
 62
     1
 10
 5.78916266879241E+0000
 20
 5.01035119481821E+0000
 11
 5.78493583520321E+0000
 21
 5.01457802841469E+0000
  0
LINE
  8
1
  6
CONTINUOUS
 62
     1
 10
 5.79217339512252E+0000
 20
 5.02799467267323E+0000
 11
 5.77949289435492E+0000
 21
 5.04067517344083E+0000
  0
LINE
  8
1
  6
CONTINUOUS
 62
     1
 10
 5.79518412145262E+0000
 20
 5.04563815052825E+0000
 11
 5.77404995350662E+0000
 21
 5.06677231847425E+0000
  0
LINE
  8
1
  6
CONTINUOUS
 62
     1
 10
 5.79819484779000E+0000
 20
 5.06328162838327E+0000
 11
 5.76860701265832E+0000
 21
 5.09286946350767E+0000
  0
LINE
  8
1
  6
CONTINUOUS
 62
     1
 10
 5.80120557412010E+0000
 20
 5.08092510623101E+0000
 11
 5.76316407181002E+0000
 21
 5.11896660854109E+0000
  0
LINE
  8
1
  6
CONTINUOUS
 62
     1
 10
 5.80421630045021E+0000
 20
 5.09856858408602E+0000
 11
 5.75772113096900E+0000
 21
 5.14506375357450E+0000
  0
LINE
  8
1
  6
CONTINUOUS
 62
     1
 10
 5.80722702678759E+0000
 20
 5.11621206194104E+0000
 11
 5.76262030620273E+0000
 21
 5.16081878251862E+0000
  0
LINE
  8
1
  6
CONTINUOUS
 62
     1
 10
 5.81023775311769E+0000
 20
 5.13385553978878E+0000
 11
 5.78327451038786E+0000
 21
 5.16081878251862E+0000
  0
LINE
  8
1
  6
CONTINUOUS
 62
     1
 10
 5.81324847944779E+0000
 20
 5.15149901764380E+0000
 11
 5.80392871457298E+0000
 21
 5.16081878251862E+0000
  0
LINE
  8
1
  6
CONTINUOUS
 62
     1
 10
 5.78978213348455E+0000
 20
 5.01398138584773E+0000
 11
 5.78587513526872E+0000
 21
 5.01007438763190E+0000
  0
LINE
  8
1
  6
CONTINUOUS
 62
     1
 10
 5.79403178922075E+0000
 20
 5.03888524576905E+0000
 11
 5.78231079457328E+0000
 21
 5.02716425112158E+0000
  0
LINE
  8
1
  6
CONTINUOUS
 62
     1
 10
 5.79828144495696E+0000
 20
 5.06378910569038E+0000
 11
 5.77874645387783E+0000
 21
 5.04425411461125E+0000
  0
LINE
  8
1
  6
CONTINUOUS
 62
     1
 10
 5.80253110069316E+0000
 20
 5.08869296561170E+0000
 11
 5.77518211318238E+0000
 21
 5.06134397810092E+0000
  0
LINE
  8
1
  6
CONTINUOUS
 62
     1
 10
 5.80678075642209E+0000
 20
 5.11359682553302E+0000
 11
 5.77161777248693E+0000
 21
 5.07843384159059E+0000
  0
LINE
  8
1
  6
CONTINUOUS
 62
     1
 10
 5.81103041215829E+0000
 20
 5.13850068545435E+0000
 11
 5.76805343179149E+0000
 21
 5.09552370508754E+0000
  0
LINE
  8
1
  6
CONTINUOUS
 62
     1
 10
 5.81269430503744E+0000
 20
 5.16081878251134E+0000
 11
 5.76448909109604E+0000
 21
 5.11261356856994E+0000
  0
LINE
  8
1
  6
CONTINUOUS
 62
     1
 10
 5.79204010085232E+0000
 20
 5.16081878251134E+0000
 11
 5.76092475040059E+0000
 21
 5.12970343206689E+0000
  0
LINE
  8
1
  6
CONTINUOUS
 62
     1
 10
 5.77138589666720E+0000
 20
 5.16081878251134E+0000
 11
 5.75736040971242E+0000
 21
 5.14679329555656E+0000
  0
LINE
  8
1
  6
CONTINUOUS
 62
     1
 10
 5.30357887540595E+0000
 20
 2.80988478253857E+0000
 11
 5.78665945852117E+0000
 21
 2.80988478253857E+0000
  0
LINE
  8
1
  6
CONTINUOUS
 62
     1
 10
 5.92554632890096E+0000
 20
 2.80988478253857E+0000
 11
 5.92554632890096E+0000
 21
 1.43249167933391E+0000
  0
LINE
  8
1
  6
CONTINUOUS
 62
     1
 10
 5.78665945852117E+0000
 20
 1.43249167933391E+0000
 11
 5.30544994525553E+0000
 21
 1.43249167933391E+0000
  0
LINE
  8
1
  6
CONTINUOUS
 62
     1
 10
 5.92554606302292E+0000
 20
 2.81054808489716E+0000
 11
 5.92554606302292E+0000
 21
 2.81054808489716E+0000
  0
LINE
  8
1
  6
CONTINUOUS
 62
     1
 10
 5.92554606302292E+0000
 20
 2.81054808489716E+0000
 11
 5.89836454165925E+0000
 21
 2.65125875826925E+0000
  0
LINE
  8
1
  6
CONTINUOUS
 62
     1
 10
 5.89836454165925E+0000
 20
 2.65125875826925E+0000
 11
 5.95876817913086E+0000
 21
 2.65125875826925E+0000
  0
LINE
  8
1
  6
CONTINUOUS
 62
     1
 10
 5.95876817913086E+0000
 20
 2.65125875826925E+0000
 11
 5.92554606302292E+0000
 21
 2.81054808489716E+0000
  0
LINE
  8
1
  6
CONTINUOUS
 62
     1
 10
 5.89836454165925E+0000
 20
 2.65125875826925E+0000
 11
 5.95876817913086E+0000
 21
 2.65125875826925E+0000
  0
LINE
  8
1
  6
CONTINUOUS
 62
     1
 10
 5.90869164375181E+0000
 20
 2.65125875827289E+0000
 11
 5.89986990482430E+0000
 21
 2.66008049720040E+0000
  0
LINE
  8
1
  6
CONTINUOUS
 62
     1
 10
 5.92934584794421E+0000
 20
 2.65125875826925E+0000
 11
 5.90288063116168E+0000
 21
 2.67772397505178E+0000
  0
LINE
  8
1
  6
CONTINUOUS
 62
     1
 10
 5.95000005212933E+0000
 20
 2.65125875826925E+0000
 11
 5.90589135749178E+0000
 21
 2.69536745290316E+0000
  0
LINE
  8
1
  6
CONTINUOUS
 62
     1
 10
 5.95563587664947E+0000
 20
 2.66627713793059E+0000
 11
 5.90890208382189E+0000
 21
 2.71301093075817E+0000
  0
LINE
  8
1
  6
CONTINUOUS
 62
     1
 10
 5.95019293580117E+0000
 20
 2.69237428296401E+0000
 11
 5.91191281015927E+0000
 21
 2.73065440860955E+0000
  0
LINE
  8
1
  6
CONTINUOUS
 62
     1
 10
 5.94474999496015E+0000
 20
 2.71847142799743E+0000
 11
 5.91492353648937E+0000
 21
 2.74829788646093E+0000
  0
LINE
  8
1
  6
CONTINUOUS
 62
     1
 10
 5.93930705411185E+0000
 20
 2.74456857302721E+0000
 11
 5.91793426281947E+0000
 21
 2.76594136431595E+0000
  0
LINE
  8
1
  6
CONTINUOUS
 62
     1
 10
 5.93386411326355E+0000
 20
 2.77066571805699E+0000
 11
 5.92094498915685E+0000
 21
 2.78358484216733E+0000
  0
LINE
  8
1
  6
CONTINUOUS
 62
     1
 10
 5.92842117241526E+0000
 20
 2.79676286309041E+0000
 11
 5.92395571548695E+0000
 21
 2.80122832001871E+0000
  0
LINE
  8
1
  6
CONTINUOUS
 62
     1
 10
 5.95698600877950E+0000
 20
 2.65980369001409E+0000
 11
 5.94844107703102E+0000
 21
 2.65125875826561E+0000
  0
LINE
  8
1
  6
CONTINUOUS
 62
     1
 10
 5.95342166808405E+0000
 20
 2.67689355350376E+0000
 11
 5.92778687284590E+0000
 21
 2.65125875826561E+0000
  0
LINE
  8
1
  6
CONTINUOUS
 62
     1
 10
 5.94985732738860E+0000
 20
 2.69398341698979E+0000
 11
 5.90713266866078E+0000
 21
 2.65125875826561E+0000
  0
LINE
  8
1
  6
CONTINUOUS
 62
     1
 10
 5.94629298669315E+0000
 20
 2.71107328048311E+0000
 11
 5.90081013266172E+0000
 21
 2.66559042645167E+0000
  0
LINE
  8
1
  6
CONTINUOUS
 62
     1
 10
 5.94272864599770E+0000
 20
 2.72816314397278E+0000
 11
 5.90505978839792E+0000
 21
 2.69049428636936E+0000
  0
LINE
  8
1
  6
CONTINUOUS
 62
     1
 10
 5.93916430530226E+0000
 20
 2.74525300746609E+0000
 11
 5.90930944413412E+0000
 21
 2.71539814629068E+0000
  0
LINE
  8
1
  6
CONTINUOUS
 62
     1
 10
 5.93559996460681E+0000
 20
 2.76234287095212E+0000
 11
 5.91355909987033E+0000
 21
 2.74030200621200E+0000
  0
LINE
  8
1
  6
CONTINUOUS
 62
     1
 10
 5.93203562391136E+0000
 20
 2.77943273444544E+0000
 11
 5.91780875559925E+0000
 21
 2.76520586613333E+0000
  0
LINE
  8
1
  6
CONTINUOUS
 62
     1
 10
 5.92847128321591E+0000
 20
 2.79652259793511E+0000
 11
 5.92205841133546E+0000
 21
 2.79010972605465E+0000
  0
LINE
  8
1
  6
CONTINUOUS
 62
     1
 10
 5.92709687857132E+0000
 20
 1.42934506672282E+0000
 11
 5.92709687857132E+0000
 21
 1.42934506672282E+0000
  0
LINE
  8
1
  6
CONTINUOUS
 62
     1
 10
 5.92709687857132E+0000
 20
 1.42934506672282E+0000
 11
 5.95427839993499E+0000
 21
 1.58863439335073E+0000
  0
LINE
  8
1
  6
CONTINUOUS
 62
     1
 10
 5.95427839993499E+0000
 20
 1.58863439335073E+0000
 11
 5.89387476246338E+0000
 21
 1.58863439335073E+0000
  0
LINE
  8
1
  6
CONTINUOUS
 62
     1
 10
 5.89387476246338E+0000
 20
 1.58863439335073E+0000
 11
 5.92709687857132E+0000
 21
 1.42934506672282E+0000
  0
LINE
  8
1
  6
CONTINUOUS
 62
     1
 10
 5.95427839993499E+0000
 20
 1.58863439335073E+0000
 11
 5.89387476246338E+0000
 21
 1.58863439335073E+0000
  0
LINE
  8
1
  6
CONTINUOUS
 62
     1
 10
 5.92860224173637E+0000
 20
 1.43816680564851E+0000
 11
 5.92437540814717E+0000
 21
 1.44239363923953E+0000
  0
LINE
  8
1
  6
CONTINUOUS
 62
     1
 10
 5.93161296807375E+0000
 20
 1.45581028349989E+0000
 11
 5.91893246730615E+0000
 21
 1.46849078427113E+0000
  0
LINE
  8
1
  6
CONTINUOUS
 62
     1
 10
 5.93462369440385E+0000
 20
 1.47345376135308E+0000
 11
 5.91348952645785E+0000
 21
 1.49458792930454E+0000
  0
LINE
  8
1
  6
CONTINUOUS
 62
     1
 10
 5.93763442074123E+0000
 20
 1.49109723920628E+0000
 11
 5.90804658560955E+0000
 21
 1.52068507433614E+0000
  0
LINE
  8
1
  6
CONTINUOUS
 62
     1
 10
 5.94064514707134E+0000
 20
 1.50874071705766E+0000
 11
 5.90260364476126E+0000
 21
 1.54678221936592E+0000
  0
LINE
  8
1
  6
CONTINUOUS
 62
     1
 10
 5.94365587340144E+0000
 20
 1.52638419491086E+0000
 11
 5.89716070391296E+0000
 21
 1.57287936440116E+0000
  0
LINE
  8
1
  6
CONTINUOUS
 62
     1
 10
 5.94666659973882E+0000
 20
 1.54402767276588E+0000
 11
 5.90205987915397E+0000
 21
 1.58863439335073E+0000
  0
LINE
  8
1
  6
CONTINUOUS
 62
     1
 10
 5.94967732606892E+0000
 20
 1.56167115061544E+0000
 11
 5.92271408333909E+0000
 21
 1.58863439335073E+0000
  0
LINE
  8
1
  6
CONTINUOUS
 62
     1
 10
 5.95268805239903E+0000
 20
 1.57931462847046E+0000
 11
 5.94336828751693E+0000
 21
 1.58863439335255E+0000
  0
LINE
  8
1
  6
CONTINUOUS
 62
     1
 10
 5.92922170643578E+0000
 20
 1.44179699668348E+0000
 11
 5.92531470821996E+0000
 21
 1.43788999846947E+0000
  0
LINE
  8
1
  6
CONTINUOUS
 62
     1
 10
 5.93347136217199E+0000
 20
 1.46670085660480E+0000
 11
 5.92175036752451E+0000
 21
 1.45497986196096E+0000
  0
LINE
  8
1
  6
CONTINUOUS
 62
     1
 10
 5.93772101790819E+0000
 20
 1.49160471652431E+0000
 11
 5.91818602682906E+0000
 21
 1.47206972544700E+0000
  0
LINE
  8
1
  6
CONTINUOUS
 62
     1
 10
 5.94197067363712E+0000
 20
 1.51650857644017E+0000
 11
 5.91462168613361E+0000
 21
 1.48915958893849E+0000
  0
LINE
  8
1
  6
CONTINUOUS
 62
     1
 10
 5.94622032937332E+0000
 20
 1.54141243636150E+0000
 11
 5.91105734543817E+0000
 21
 1.50624945242998E+0000
  0
LINE
  8
1
  6
CONTINUOUS
 62
     1
 10
 5.95046998510952E+0000
 20
 1.56631629628282E+0000
 11
 5.90749300474272E+0000
 21
 1.52333931592148E+0000
  0
LINE
  8
1
  6
CONTINUOUS
 62
     1
 10
 5.95213387798867E+0000
 20
 1.58863439335073E+0000
 11
 5.90392866404727E+0000
 21
 1.54042917940751E+0000
  0
LINE
  8
1
  6
CONTINUOUS
 62
     1
 10
 5.93147967380355E+0000
 20
 1.58863439335073E+0000
 11
 5.90036432335182E+0000
 21
 1.55751904290082E+0000
  0
LINE
  8
1
  6
CONTINUOUS
 62
     1
 10
 5.91082546961843E+0000
 20
 1.58863439335073E+0000
 11
 5.89679998265638E+0000
 21
 1.57460890639231E+0000
  0
LINE
  8
1
  6
CONTINUOUS
 62
     1
 10
 5.30357887540595E+0000
 20
 2.80988478253857E+0000
 11
 5.30357887540595E+0000
 21
 3.57703703550942E+0000
  0
LINE
  8
1
  6
CONTINUOUS
 62
     1
 10
 5.30357887540595E+0000
 20
 3.57703703550942E+0000
 11
 4.50755257828132E+0000
 21
 3.57703703550942E+0000
  0
LINE
  8
1
  6
CONTINUOUS
 62
     1
 10
 4.50755257828132E+0000
 20
 3.57703703550942E+0000
 11
 4.50755257828132E+0000
 21
 2.75881768871841E+0000
  0
LINE
  8
1
  6
CONTINUOUS
 62
     1
 10
 5.30185076062480E+0000
 20
 3.26863128172045E+0000
 11
 4.70927910078171E+0000
 21
 3.26863128172045E+0000
  0
LINE
  8
1
  6
CONTINUOUS
 62
     1
 10
 4.70927910078171E+0000
 20
 3.26863128172045E+0000
 11
 4.70927910078171E+0000
 21
 2.80916964852076E+0000
  0
LINE
  8
1
  6
CONTINUOUS
 62
     1
 10
 4.70233880771411E+0000
 20
 3.27230692475132E+0000
 11
 4.70233880771411E+0000
 21
 3.27230692475132E+0000
  0
LINE
  8
1
  6
CONTINUOUS
 62
     1
 10
 4.70233880771411E+0000
 20
 3.27230692475132E+0000
 11
 4.86162813434930E+0000
 21
 3.24512540338765E+0000
  0
LINE
  8
1
  6
CONTINUOUS
 62
     1
 10
 4.86162813434930E+0000
 20
 3.24512540338765E+0000
 11
 4.86162813434930E+0000
 21
 3.30552904085926E+0000
  0
LINE
  8
1
  6
CONTINUOUS
 62
     1
 10
 4.86162813434930E+0000
 20
 3.30552904085926E+0000
 11
 4.70233880771411E+0000
 21
 3.27230692475132E+0000
  0
LINE
  8
1
  6
CONTINUOUS
 62
     1
 10
 4.86162813434930E+0000
 20
 3.24512540338765E+0000
 11
 4.86162813434930E+0000
 21
 3.30552904085926E+0000
  0
LINE
  8
1
  6
CONTINUOUS
 62
     1
 10
 4.71479073767114E+0000
 20
 3.27018209688322E+0000
 11
 4.71088373946259E+0000
 21
 3.27408909509904E+0000
  0
LINE
  8
1
  6
CONTINUOUS
 62
     1
 10
 4.73969459759246E+0000
 20
 3.26593244115065E+0000
 11
 4.72797360295226E+0000
 21
 3.27765343579449E+0000
  0
LINE
  8
1
  6
CONTINUOUS
 62
     1
 10
 4.76459845751378E+0000
 20
 3.26168278541445E+0000
 11
 4.74506346644193E+0000
 21
 3.28121777648630E+0000
  0
LINE
  8
1
  6
CONTINUOUS
 62
     1
 10
 4.78950231743511E+0000
 20
 3.25743312967825E+0000
 11
 4.76215332993161E+0000
 21
 3.28478211718175E+0000
  0
LINE
  8
1
  6
CONTINUOUS
 62
     1
 10
 4.81440617735643E+0000
 20
 3.25318347394204E+0000
 11
 4.77924319342128E+0000
 21
 3.28834645787720E+0000
  0
LINE
  8
1
  6
CONTINUOUS
 62
     1
 10
 4.83931003727776E+0000
 20
 3.24893381820948E+0000
 11
 4.79633305691095E+0000
 21
 3.29191079857264E+0000
  0
LINE
  8
1
  6
CONTINUOUS
 62
     1
 10
 4.86162813434930E+0000
 20
 3.24726992532305E+0000
 11
 4.81342292040063E+0000
 21
 3.29547513926809E+0000
  0
LINE
  8
1
  6
CONTINUOUS
 62
     1
 10
 4.86162813434930E+0000
 20
 3.26792412950454E+0000
 11
 4.83051278389757E+0000
 21
 3.29903947995990E+0000
  0
LINE
  8
1
  6
CONTINUOUS
 62
     1
 10
 4.86162813434930E+0000
 20
 3.28857833368966E+0000
 11
 4.84760264738725E+0000
 21
 3.30260382065535E+0000
  0
LINE
  8
1
  6
CONTINUOUS
 62
     1
 10
 4.86162813434203E+0000
 20
 3.25545250547657E+0000
 11
 4.85280639541452E+0000
 21
 3.24663076654906E+0000
  0
LINE
  8
1
  6
CONTINUOUS
 62
     1
 10
 4.86162813434203E+0000
 20
 3.27610670966169E+0000
 11
 4.83516291756678E+0000
 21
 3.24964149288280E+0000
  0
LINE
  8
1
  6
CONTINUOUS
 62
     1
 10
 4.86162813434203E+0000
 20
 3.29676091384681E+0000
 11
 4.81751943971176E+0000
 21
 3.25265221921291E+0000
  0
LINE
  8
1
  6
CONTINUOUS
 62
     1
 10
 4.84660975468432E+0000
 20
 3.30239673837423E+0000
 11
 4.79987596186402E+0000
 21
 3.25566294555028E+0000
  0
LINE
  8
1
  6
CONTINUOUS
 62
     1
 10
 4.82051260965818E+0000
 20
 3.29695379753321E+0000
 11
 4.78223248400900E+0000
 21
 3.25867367188403E+0000
  0
LINE
  8
1
  6
CONTINUOUS
 62
     1
 10
 4.79441546462476E+0000
 20
 3.29151085668491E+0000
 11
 4.76458900615398E+0000
 21
 3.26168439821413E+0000
  0
LINE
  8
1
  6
CONTINUOUS
 62
     1
 10
 4.76831831959862E+0000
 20
 3.28606791584025E+0000
 11
 4.74694552829897E+0000
 21
 3.26469512454787E+0000
  0
LINE
  8
1
  6
CONTINUOUS
 62
     1
 10
 4.74222117455793E+0000
 20
 3.28062497499195E+0000
 11
 4.72930205045122E+0000
 21
 3.26770585087797E+0000
  0
LINE
  8
1
  6
CONTINUOUS
 62
     1
 10
 4.71612402953178E+0000
 20
 3.27518203414729E+0000
 11
 4.71165857259621E+0000
 21
 3.27071657721172E+0000
  0
LINE
  8
1
  6
CONTINUOUS
 62
     1
 10
 4.50061228521372E+0000
 20
 3.58071267854393E+0000
 11
 4.50061228521372E+0000
 21
 3.58071267854393E+0000
  0
LINE
  8
1
  6
CONTINUOUS
 62
     1
 10
 4.50061228521372E+0000
 20
 3.58071267854393E+0000
 11
 4.65990161184891E+0000
 21
 3.55353115718026E+0000
  0
LINE
  8
1
  6
CONTINUOUS
 62
     1
 10
 4.65990161184891E+0000
 20
 3.55353115718026E+0000
 11
 4.65990161184891E+0000
 21
 3.61393479465551E+0000
  0
LINE
  8
1
  6
CONTINUOUS
 62
     1
 10
 4.65990161184891E+0000
 20
 3.61393479465551E+0000
 11
 4.50061228521372E+0000
 21
 3.58071267854393E+0000
  0
LINE
  8
1
  6
CONTINUOUS
 62
     1
 10
 4.65990161184891E+0000
 20
 3.55353115718026E+0000
 11
 4.65990161184891E+0000
 21
 3.61393479465551E+0000
  0
LINE
  8
1
  6
CONTINUOUS
 62
     1
 10
 4.51306421517802E+0000
 20
 3.57858785067947E+0000
 11
 4.50915721696219E+0000
 21
 3.58249484889166E+0000
  0
LINE
  8
1
  6
CONTINUOUS
 62
     1
 10
 4.53796807509934E+0000
 20
 3.57433819494327E+0000
 11
 4.52624708045187E+0000
 21
 3.58605918958710E+0000
  0
LINE
  8
1
  6
CONTINUOUS
 62
     1
 10
 4.56287193501339E+0000
 20
 3.57008853920706E+0000
 11
 4.54333694394154E+0000
 21
 3.58962353028255E+0000
  0
LINE
  8
1
  6
CONTINUOUS
 62
     1
 10
 4.58777579493471E+0000
 20
 3.56583888347086E+0000
 11
 4.56042680743121E+0000
 21
 3.59318787097800E+0000
  0
LINE
  8
1
  6
CONTINUOUS
 62
     1
 10
 4.61267965485604E+0000
 20
 3.56158922773830E+0000
 11
 4.57751667092089E+0000
 21
 3.59675221167345E+0000
  0
LINE
  8
1
  6
CONTINUOUS
 62
     1
 10
 4.63758351477736E+0000
 20
 3.55733957200209E+0000
 11
 4.59460653441056E+0000
 21
 3.60031655236889E+0000
  0
LINE
  8
1
  6
CONTINUOUS
 62
     1
 10
 4.65990161184891E+0000
 20
 3.55567567911567E+0000
 11
 4.61169639790023E+0000
 21
 3.60388089306434E+0000
  0
LINE
  8
1
  6
CONTINUOUS
 62
     1
 10
 4.65990161184891E+0000
 20
 3.57632988330079E+0000
 11
 4.62878626138991E+0000
 21
 3.60744523375979E+0000
  0
LINE
  8
1
  6
CONTINUOUS
 62
     1
 10
 4.65990161184891E+0000
 20
 3.59698408748591E+0000
 11
 4.64587612487958E+0000
 21
 3.61100957445160E+0000
  0
LINE
  8
1
  6
CONTINUOUS
 62
     1
 10
 4.65990161184891E+0000
 20
 3.56385825927282E+0000
 11
 4.65107987292140E+0000
 21
 3.55503652034531E+0000
  0
LINE
  8
1
  6
CONTINUOUS
 62
     1
 10
 4.65990161184891E+0000
 20
 3.58451246345794E+0000
 11
 4.63343639506638E+0000
 21
 3.55804724667541E+0000
  0
LINE
  8
1
  6
CONTINUOUS
 62
     1
 10
 4.65990161184163E+0000
 20
 3.60516666763579E+0000
 11
 4.61579291721137E+0000
 21
 3.56105797300916E+0000
  0
LINE
  8
1
  6
CONTINUOUS
 62
     1
 10
 4.64488323219121E+0000
 20
 3.61080249217048E+0000
 11
 4.59814943936362E+0000
 21
 3.56406869934654E+0000
  0
LINE
  8
1
  6
CONTINUOUS
 62
     1
 10
 4.61878608715779E+0000
 20
 3.60535955132582E+0000
 11
 4.58050596150861E+0000
 21
 3.56707942567664E+0000
  0
LINE
  8
1
  6
CONTINUOUS
 62
     1
 10
 4.59268894212437E+0000
 20
 3.59991661047752E+0000
 11
 4.56286248365359E+0000
 21
 3.57009015201038E+0000
  0
LINE
  8
1
  6
CONTINUOUS
 62
     1
 10
 4.56659179709823E+0000
 20
 3.59447366963286E+0000
 11
 4.54521900580585E+0000
 21
 3.57310087834048E+0000
  0
LINE
  8
1
  6
CONTINUOUS
 62
     1
 10
 4.54049465206481E+0000
 20
 3.58903072878456E+0000
 11
 4.52757552795083E+0000
 21
 3.57611160467422E+0000
  0
LINE
  8
1
  6
CONTINUOUS
 62
     1
 10
 4.51439750703139E+0000
 20
 3.58358778794354E+0000
 11
 4.50993205009581E+0000
 21
 3.57912233100433E+0000
  0
LINE
  8
1
  6
CONTINUOUS
 62
     1
 10
 5.29594449375145E+0000
 20
 3.26795219985434E+0000
 11
 5.29594449375145E+0000
 21
 3.26795219985434E+0000
  0
LINE
  8
1
  6
CONTINUOUS
 62
     1
 10
 5.29594449375145E+0000
 20
 3.26795219985434E+0000
 11
 5.13665516712354E+0000
 21
 3.29513372121801E+0000
  0
LINE
  8
1
  6
CONTINUOUS
 62
     1
 10
 5.13665516712354E+0000
 20
 3.29513372121801E+0000
 11
 5.13665516712354E+0000
 21
 3.23473008374640E+0000
  0
LINE
  8
1
  6
CONTINUOUS
 62
     1
 10
 5.13665516712354E+0000
 20
 3.23473008374640E+0000
 11
 5.29594449375145E+0000
 21
 3.26795219985434E+0000
  0
LINE
  8
1
  6
CONTINUOUS
 62
     1
 10
 5.13665516712354E+0000
 20
 3.29513372121801E+0000
 11
 5.13665516712354E+0000
 21
 3.23473008374640E+0000
  0
LINE
  8
1
  6
CONTINUOUS
 62
     1
 10
 5.14520009887201E+0000
 20
 3.23651225409412E+0000
 11
 5.13665516712354E+0000
 21
 3.24505718583896E+0000
  0
LINE
  8
1
  6
CONTINUOUS
 62
     1
 10
 5.16228996236168E+0000
 20
 3.24007659478593E+0000
 11
 5.13665516712354E+0000
 21
 3.26571139002408E+0000
  0
LINE
  8
1
  6
CONTINUOUS
 62
     1
 10
 5.17937982585136E+0000
 20
 3.24364093548138E+0000
 11
 5.13665516712354E+0000
 21
 3.28636559420556E+0000
  0
LINE
  8
1
  6
CONTINUOUS
 62
     1
 10
 5.19646968934103E+0000
 20
 3.24720527617683E+0000
 11
 5.15098683530232E+0000
 21
 3.29268813021190E+0000
  0
LINE
  8
1
  6
CONTINUOUS
 62
     1
 10
 5.21355955283070E+0000
 20
 3.25076961687228E+0000
 11
 5.17589069522364E+0000
 21
 3.28843847447570E+0000
  0
LINE
  8
1
  6
CONTINUOUS
 62
     1
 10
 5.23064941632038E+0000
 20
 3.25433395756772E+0000
 11
 5.20079455514497E+0000
 21
 3.28418881873949E+0000
  0
LINE
  8
1
  6
CONTINUOUS
 62
     1
 10
 5.24773927981005E+0000
 20
 3.25789829826317E+0000
 11
 5.22569841506629E+0000
 21
 3.27993916300329E+0000
  0
LINE
  8
1
  6
CONTINUOUS
 62
     1
 10
 5.26482914329972E+0000
 20
 3.26146263895862E+0000
 11
 5.25060227498761E+0000
 21
 3.27568950726709E+0000
  0
LINE
  8
1
  6
CONTINUOUS
 62
     1
 10
 5.28191900678939E+0000
 20
 3.26502697965043E+0000
 11
 5.27550613490894E+0000
 21
 3.27143985153452E+0000
  0
LINE
  8
1
  6
CONTINUOUS
 62
     1
 10
 5.28712275481666E+0000
 20
 3.26945756301939E+0000
 11
 5.28289592123474E+0000
 21
 3.26523072943019E+0000
  0
LINE
  8
1
  6
CONTINUOUS
 62
     1
 10
 5.26947927696892E+0000
 20
 3.27246828934949E+0000
 11
 5.25679877620132E+0000
 21
 3.25978778858189E+0000
  0
LINE
  8
1
  6
CONTINUOUS
 62
     1
 10
 5.25183579911391E+0000
 20
 3.27547901568323E+0000
 11
 5.23070163116790E+0000
 21
 3.25434484773359E+0000
  0
LINE
  8
1
  6
CONTINUOUS
 62
     1
 10
 5.23419232125889E+0000
 20
 3.27848974201333E+0000
 11
 5.20460448613449E+0000
 21
 3.24890190688893E+0000
  0
LINE
  8
1
  6
CONTINUOUS
 62
     1
 10
 5.21654884340387E+0000
 20
 3.28150046834344E+0000
 11
 5.17850734110107E+0000
 21
 3.24345896604063E+0000
  0
LINE
  8
1
  6
CONTINUOUS
 62
     1
 10
 5.19890536554885E+0000
 20
 3.28451119467718E+0000
 11
 5.15241019606765E+0000
 21
 3.23801602519234E+0000
  0
LINE
  8
1
  6
CONTINUOUS
 62
     1
 10
 5.18126188770111E+0000
 20
 3.28752192101456E+0000
 11
 5.13665516711626E+0000
 21
 3.24291520042971E+0000
  0
LINE
  8
1
  6
CONTINUOUS
 62
     1
 10
 5.16361840985337E+0000
 20
 3.29053264734466E+0000
 11
 5.13665516711626E+0000
 21
 3.26356940461483E+0000
  0
LINE
  8
1
  6
CONTINUOUS
 62
     1
 10
 5.14597493199835E+0000
 20
 3.29354337367840E+0000
 11
 5.13665516711626E+0000
 21
 3.28422360879995E+0000
  0
LINE
  8
1
  6
CONTINUOUS
 62
     1
 10
 5.29594449375145E+0000
 20
 3.57635795363967E+0000
 11
 5.29594449375145E+0000
 21
 3.57635795363967E+0000
  0
LINE
  8
1
  6
CONTINUOUS
 62
     1
 10
 5.29594449375145E+0000
 20
 3.57635795363967E+0000
 11
 5.13665516712354E+0000
 21
 3.60353947500334E+0000
  0
LINE
  8
1
  6
CONTINUOUS
 62
     1
 10
 5.13665516712354E+0000
 20
 3.60353947500334E+0000
 11
 5.13665516712354E+0000
 21
 3.54313583753174E+0000
  0
LINE
  8
1
  6
CONTINUOUS
 62
     1
 10
 5.13665516712354E+0000
 20
 3.54313583753174E+0000
 11
 5.29594449375145E+0000
 21
 3.57635795363967E+0000
  0
LINE
  8
1
  6
CONTINUOUS
 62
     1
 10
 5.13665516712354E+0000
 20
 3.60353947500334E+0000
 11
 5.13665516712354E+0000
 21
 3.54313583753174E+0000
  0
LINE
  8
1
  6
CONTINUOUS
 62
     1
 10
 5.14520009887201E+0000
 20
 3.54491800788310E+0000
 11
 5.13665516713081E+0000
 21
 3.55346293962793E+0000
  0
LINE
  8
1
  6
CONTINUOUS
 62
     1
 10
 5.16228996236168E+0000
 20
 3.54848234857491E+0000
 11
 5.13665516712354E+0000
 21
 3.57411714381306E+0000
  0
LINE
  8
1
  6
CONTINUOUS
 62
     1
 10
 5.17937982585136E+0000
 20
 3.55204668927036E+0000
 11
 5.13665516712354E+0000
 21
 3.59477134800181E+0000
  0
LINE
  8
1
  6
CONTINUOUS
 62
     1
 10
 5.19646968934831E+0000
 20
 3.55561102996580E+0000
 11
 5.15098683531687E+0000
 21
 3.60109388399360E+0000
  0
LINE
  8
1
  6
CONTINUOUS
 62
     1
 10
 5.21355955283798E+0000
 20
 3.55917537066125E+0000
 11
 5.17589069523819E+0000
 21
 3.59684422825740E+0000
  0
LINE
  8
1
  6
CONTINUOUS
 62
     1
 10
 5.23064941632765E+0000
 20
 3.56273971135670E+0000
 11
 5.20079455515952E+0000
 21
 3.59259457252119E+0000
  0
LINE
  8
1
  6
CONTINUOUS
 62
     1
 10
 5.24773927981732E+0000
 20
 3.56630405204851E+0000
 11
 5.22569841508084E+0000
 21
 3.58834491678863E+0000
  0
LINE
  8
1
  6
CONTINUOUS
 62
     1
 10
 5.26482914330700E+0000
 20
 3.56986839274396E+0000
 11
 5.25060227500217E+0000
 21
 3.58409526105243E+0000
  0
LINE
  8
1
  6
CONTINUOUS
 62
     1
 10
 5.28191900679667E+0000
 20
 3.57343273343940E+0000
 11
 5.27550613492349E+0000
 21
 3.57984560531622E+0000
  0
LINE
  8
1
  6
CONTINUOUS
 62
     1
 10
 5.28712275481666E+0000
 20
 3.57786331680109E+0000
 11
 5.28289592123474E+0000
 21
 3.57363648321552E+0000
  0
LINE
  8
1
  6
CONTINUOUS
 62
     1
 10
 5.26947927696892E+0000
 20
 3.58087404313483E+0000
 11
 5.25679877620132E+0000
 21
 3.56819354236723E+0000
  0
LINE
  8
1
  6
CONTINUOUS
 62
     1
 10
 5.25183579912118E+0000
 20
 3.58388476947221E+0000
 11
 5.23070163116790E+0000
 21
 3.56275060151893E+0000
  0
LINE
  8
1
  6
CONTINUOUS
 62
     1
 10
 5.23419232126616E+0000
 20
 3.58689549580231E+0000
 11
 5.20460448613449E+0000
 21
 3.55730766067427E+0000
  0
LINE
  8
1
  6
CONTINUOUS
 62
     1
 10
 5.21654884341115E+0000
 20
 3.58990622213241E+0000
 11
 5.17850734110107E+0000
 21
 3.55186471982597E+0000
  0
LINE
  8
1
  6
CONTINUOUS
 62
     1
 10
 5.19890536555613E+0000
 20
 3.59291694846615E+0000
 11
 5.15241019606765E+0000
 21
 3.54642177897767E+0000
  0
LINE
  8
1
  6
CONTINUOUS
 62
     1
 10
 5.18126188770111E+0000
 20
 3.59592767479626E+0000
 11
 5.13665516711626E+0000
 21
 3.55132095421141E+0000
  0
LINE
  8
1
  6
CONTINUOUS
 62
     1
 10
 5.16361840985337E+0000
 20
 3.59893840113364E+0000
 11
 5.13665516711626E+0000
 21
 3.57197515839653E+0000
  0
LINE
  8
1
  6
CONTINUOUS
 62
     1
 10
 5.14597493200563E+0000
 20
 3.60194912746738E+0000
 11
 5.13665516711626E+0000
 21
 3.59262936258528E+0000
  0
LINE
  8
1
  6
CONTINUOUS
 62
     1
 10
 5.30303916271077E+0000
 20
 6.08064603241655E+0000
 11
 5.30303916271077E+0000
 21
 6.86399524092121E+0000
  0
LINE
  8
1
  6
CONTINUOUS
 62
     1
 10
 5.30303916271077E+0000
 20
 6.86399524092121E+0000
 11
 2.94148225889876E+0000
 21
 6.86399524092121E+0000
  0
LINE
  8
1
  6
CONTINUOUS
 62
     1
 10
 2.94148225889876E+0000
 20
 6.86399524092121E+0000
 11
 2.94148225889876E+0000
 21
 5.94784057109064E+0000
  0
LINE
  8
1
  6
CONTINUOUS
 62
     1
 10
 5.30250900608371E+0000
 20
 6.59635455086391E+0000
 11
 3.77660525681495E+0000
 21
 6.59635455086391E+0000
  0
LINE
  8
1
  6
CONTINUOUS
 62
     1
 10
 3.77660525681495E+0000
 20
 6.59635455086391E+0000
 11
 3.77660525681495E+0000
 21
 6.07136704342702E+0000
  0
LINE
  8
1
  6
CONTINUOUS
 62
     1
 10
 5.30250900608371E+0000
 20
 6.30812611540750E+0000
 11
 5.01382451298559E+0000
 21
 6.30812611540750E+0000
  0
LINE
  8
1
  6
CONTINUOUS
 62
     1
 10
 5.01382451298559E+0000
 20
 6.30812611540750E+0000
 11
 5.00351435251650E+0000
 21
 6.30812611540750E+0000
  0
LINE
  8
1
  6
CONTINUOUS
 62
     1
 10
 5.00351435251650E+0000
 20
 6.30812611540750E+0000
 11
 5.00351435251650E+0000
 21
 6.13313027958793E+0000
  0
LINE
  8
1
  6
CONTINUOUS
 62
     1
 10
 5.27665928954957E+0000
 20
 6.59993188766384E+0000
 11
 5.27665928954957E+0000
 21
 6.59993188766384E+0000
  0
LINE
  8
1
  6
CONTINUOUS
 62
     1
 10
 5.27665928954957E+0000
 20
 6.59993188766384E+0000
 11
 5.11736996292166E+0000
 21
 6.62711340902752E+0000
  0
LINE
  8
1
  6
CONTINUOUS
 62
     1
 10
 5.11736996292166E+0000
 20
 6.62711340902752E+0000
 11
 5.11736996292166E+0000
 21
 6.56670977155591E+0000
  0
LINE
  8
1
  6
CONTINUOUS
 62
     1
 10
 5.11736996292166E+0000
 20
 6.56670977155591E+0000
 11
 5.27665928954957E+0000
 21
 6.59993188766384E+0000
  0
LINE
  8
1
  6
CONTINUOUS
 62
     1
 10
 5.11736996292166E+0000
 20
 6.62711340902752E+0000
 11
 5.11736996292166E+0000
 21
 6.56670977155591E+0000
  0
LINE
  8
1
  6
CONTINUOUS
 62
     1
 10
 5.12591489467741E+0000
 20
 6.56849194190727E+0000
 11
 5.11736996292166E+0000
 21
 6.57703687366302E+0000
  0
LINE
  8
1
  6
CONTINUOUS
 62
     1
 10
 5.14300475816708E+0000
 20
 6.57205628260272E+0000
 11
 5.11736996292166E+0000
 21
 6.59769107784814E+0000
  0
LINE
  8
1
  6
CONTINUOUS
 62
     1
 10
 5.16009462165675E+0000
 20
 6.57562062329816E+0000
 11
 5.11736996292166E+0000
 21
 6.61834528203326E+0000
  0
LINE
  8
1
  6
CONTINUOUS
 62
     1
 10
 5.17718448514643E+0000
 20
 6.57918496399361E+0000
 11
 5.13170163112227E+0000
 21
 6.62466781801777E+0000
  0
LINE
  8
1
  6
CONTINUOUS
 62
     1
 10
 5.19427434864338E+0000
 20
 6.58274930468178E+0000
 11
 5.15660549104359E+0000
 21
 6.62041816228157E+0000
  0
LINE
  8
1
  6
CONTINUOUS
 62
     1
 10
 5.21136421213305E+0000
 20
 6.58631364537723E+0000
 11
 5.18150935096492E+0000
 21
 6.61616850654536E+0000
  0
LINE
  8
1
  6
CONTINUOUS
 62
     1
 10
 5.22845407562272E+0000
 20
 6.58987798607268E+0000
 11
 5.20641321088624E+0000
 21
 6.61191885080916E+0000
  0
LINE
  8
1
  6
CONTINUOUS
 62
     1
 10
 5.24554393911239E+0000
 20
 6.59344232676813E+0000
 11
 5.23131707080756E+0000
 21
 6.60766919507296E+0000
  0
LINE
  8
1
  6
CONTINUOUS
 62
     1
 10
 5.26263380260207E+0000
 20
 6.59700666746357E+0000
 11
 5.25622093072889E+0000
 21
 6.60341953933676E+0000
  0
LINE
  8
1
  6
CONTINUOUS
 62
     1
 10
 5.26783755062206E+0000
 20
 6.60143725082889E+0000
 11
 5.26361071702559E+0000
 21
 6.59721041723242E+0000
  0
LINE
  8
1
  6
CONTINUOUS
 62
     1
 10
 5.25019407276704E+0000
 20
 6.60444797715900E+0000
 11
 5.23751357199944E+0000
 21
 6.59176747638412E+0000
  0
LINE
  8
1
  6
CONTINUOUS
 62
     1
 10
 5.23255059491930E+0000
 20
 6.60745870348910E+0000
 11
 5.21141642696603E+0000
 21
 6.58632453554310E+0000
  0
LINE
  8
1
  6
CONTINUOUS
 62
     1
 10
 5.21490711706429E+0000
 20
 6.61046942982648E+0000
 11
 5.18531928193988E+0000
 21
 6.58088159470208E+0000
  0
LINE
  8
1
  6
CONTINUOUS
 62
     1
 10
 5.19726363920927E+0000
 20
 6.61348015615658E+0000
 11
 5.15922213689919E+0000
 21
 6.57543865384650E+0000
  0
LINE
  8
1
  6
CONTINUOUS
 62
     1
 10
 5.17962016135425E+0000
 20
 6.61649088248669E+0000
 11
 5.13312499187305E+0000
 21
 6.56999571300548E+0000
  0
LINE
  8
1
  6
CONTINUOUS
 62
     1
 10
 5.16197668349923E+0000
 20
 6.61950160881679E+0000
 11
 5.11736996291438E+0000
 21
 6.57489488823194E+0000
  0
LINE
  8
1
  6
CONTINUOUS
 62
     1
 10
 5.14433320564422E+0000
 20
 6.62251233515417E+0000
 11
 5.11736996291438E+0000
 21
 6.59554909241706E+0000
  0
LINE
  8
1
  6
CONTINUOUS
 62
     1
 10
 5.12668972779647E+0000
 20
 6.62552306148427E+0000
 11
 5.11736996291438E+0000
 21
 6.61620329660218E+0000
  0
LINE
  8
1
  6
CONTINUOUS
 62
     1
 10
 5.27665928954957E+0000
 20
 6.86172469326993E+0000
 11
 5.27665928954957E+0000
 21
 6.86172469326993E+0000
  0
LINE
  8
1
  6
CONTINUOUS
 62
     1
 10
 5.27665928954957E+0000
 20
 6.86172469326993E+0000
 11
 5.11736996292166E+0000
 21
 6.88890621463361E+0000
  0
LINE
  8
1
  6
CONTINUOUS
 62
     1
 10
 5.11736996292166E+0000
 20
 6.88890621463361E+0000
 11
 5.11736996292166E+0000
 21
 6.82850257716200E+0000
  0
LINE
  8
1
  6
CONTINUOUS
 62
     1
 10
 5.11736996292166E+0000
 20
 6.82850257716200E+0000
 11
 5.27665928954957E+0000
 21
 6.86172469326993E+0000
  0
LINE
  8
1
  6
CONTINUOUS
 62
     1
 10
 5.11736996292166E+0000
 20
 6.88890621463361E+0000
 11
 5.11736996292166E+0000
 21
 6.82850257716200E+0000
  0
LINE
  8
1
  6
CONTINUOUS
 62
     1
 10
 5.12591489467741E+0000
 20
 6.83028474751336E+0000
 11
 5.11736996292166E+0000
 21
 6.83882967926183E+0000
  0
LINE
  8
1
  6
CONTINUOUS
 62
     1
 10
 5.14300475816708E+0000
 20
 6.83384908820881E+0000
 11
 5.11736996292166E+0000
 21
 6.85948388345423E+0000
  0
LINE
  8
1
  6
CONTINUOUS
 62
     1
 10
 5.16009462165675E+0000
 20
 6.83741342890426E+0000
 11
 5.11736996291438E+0000
 21
 6.88013808763935E+0000
  0
LINE
  8
1
  6
CONTINUOUS
 62
     1
 10
 5.17718448514643E+0000
 20
 6.84097776959970E+0000
 11
 5.13170163112227E+0000
 21
 6.88646062362386E+0000
  0
LINE
  8
1
  6
CONTINUOUS
 62
     1
 10
 5.19427434863610E+0000
 20
 6.84454211029515E+0000
 11
 5.15660549103632E+0000
 21
 6.88221096788766E+0000
  0
LINE
  8
1
  6
CONTINUOUS
 62
     1
 10
 5.21136421212577E+0000
 20
 6.84810645099060E+0000
 11
 5.18150935095764E+0000
 21
 6.87796131215146E+0000
  0
LINE
  8
1
  6
CONTINUOUS
 62
     1
 10
 5.22845407561545E+0000
 20
 6.85167079168605E+0000
 11
 5.20641321087896E+0000
 21
 6.87371165642253E+0000
  0
LINE
  8
1
  6
CONTINUOUS
 62
     1
 10
 5.24554393910512E+0000
 20
 6.85523513237422E+0000
 11
 5.23131707079301E+0000
 21
 6.86946200068633E+0000
  0
LINE
  8
1
  6
CONTINUOUS
 62
     1
 10
 5.26263380259479E+0000
 20
 6.85879947306967E+0000
 11
 5.25622093071433E+0000
 21
 6.86521234495012E+0000
  0
LINE
  8
1
  6
CONTINUOUS
 62
     1
 10
 5.26783755062206E+0000
 20
 6.86323005643499E+0000
 11
 5.26361071702559E+0000
 21
 6.85900322283123E+0000
  0
LINE
  8
1
  6
CONTINUOUS
 62
     1
 10
 5.25019407276704E+0000
 20
 6.86624078276509E+0000
 11
 5.23751357199217E+0000
 21
 6.85356028199021E+0000
  0
LINE
  8
1
  6
CONTINUOUS
 62
     1
 10
 5.23255059491203E+0000
 20
 6.86925150909519E+0000
 11
 5.21141642696603E+0000
 21
 6.84811734114919E+0000
  0
LINE
  8
1
  6
CONTINUOUS
 62
     1
 10
 5.21490711705701E+0000
 20
 6.87226223542530E+0000
 11
 5.18531928193261E+0000
 21
 6.84267440030089E+0000
  0
LINE
  8
1
  6
CONTINUOUS
 62
     1
 10
 5.19726363920927E+0000
 20
 6.87527296176268E+0000
 11
 5.15922213689919E+0000
 21
 6.83723145945260E+0000
  0
LINE
  8
1
  6
CONTINUOUS
 62
     1
 10
 5.17962016135425E+0000
 20
 6.87828368809278E+0000
 11
 5.13312499186577E+0000
 21
 6.83178851860430E+0000
  0
LINE
  8
1
  6
CONTINUOUS
 62
     1
 10
 5.16197668349923E+0000
 20
 6.88129441442288E+0000
 11
 5.11736996291438E+0000
 21
 6.83668769383803E+0000
  0
LINE
  8
1
  6
CONTINUOUS
 62
     1
 10
 5.14433320564422E+0000
 20
 6.88430514075299E+0000
 11
 5.11736996291438E+0000
 21
 6.85734189802315E+0000
  0
LINE
  8
1
  6
CONTINUOUS
 62
     1
 10
 5.12668972778920E+0000
 20
 6.88731586709036E+0000
 11
 5.11736996291438E+0000
 21
 6.87799610220827E+0000
  0
LINE
  8
1
  6
CONTINUOUS
 62
     1
 10
 3.77347619621651E+0000
 20
 6.59513407828490E+0000
 11
 3.77347619621651E+0000
 21
 6.59513407828490E+0000
  0
LINE
  8
1
  6
CONTINUOUS
 62
     1
 10
 3.77347619621651E+0000
 20
 6.59513407828490E+0000
 11
 3.93276552285170E+0000
 21
 6.56795255692123E+0000
  0
LINE
  8
1
  6
CONTINUOUS
 62
     1
 10
 3.93276552285170E+0000
 20
 6.56795255692123E+0000
 11
 3.93276552285170E+0000
 21
 6.62835619439284E+0000
  0
LINE
  8
1
  6
CONTINUOUS
 62
     1
 10
 3.93276552285170E+0000
 20
 6.62835619439284E+0000
 11
 3.77347619621651E+0000
 21
 6.59513407828490E+0000
  0
LINE
  8
1
  6
CONTINUOUS
 62
     1
 10
 3.93276552285170E+0000
 20
 6.56795255692123E+0000
 11
 3.93276552285170E+0000
 21
 6.62835619439284E+0000
  0
LINE
  8
1
  6
CONTINUOUS
 62
     1
 10
 3.78592812617717E+0000
 20
 6.59300925042044E+0000
 11
 3.78202112796498E+0000
 21
 6.59691624863626E+0000
  0
LINE
  8
1
  6
CONTINUOUS
 62
     1
 10
 3.81083198609849E+0000
 20
 6.58875959468423E+0000
 11
 3.79911099145465E+0000
 21
 6.60048058932443E+0000
  0
LINE
  8
1
  6
CONTINUOUS
 62
     1
 10
 3.83573584601982E+0000
 20
 6.58450993894803E+0000
 11
 3.81620085494433E+0000
 21
 6.60404493001988E+0000
  0
LINE
  8
1
  6
CONTINUOUS
 62
     1
 10
 3.86063970594114E+0000
 20
 6.58026028321183E+0000
 11
 3.83329071843400E+0000
 21
 6.60760927071533E+0000
  0
LINE
  8
1
  6
CONTINUOUS
 62
     1
 10
 3.88554356585882E+0000
 20
 6.57601062747563E+0000
 11
 3.85038058192367E+0000
 21
 6.61117361141078E+0000
  0
LINE
  8
1
  6
CONTINUOUS
 62
     1
 10
 3.91044742578015E+0000
 20
 6.57176097173942E+0000
 11
 3.86747044541698E+0000
 21
 6.61473795210622E+0000
  0
LINE
  8
1
  6
CONTINUOUS
 62
     1
 10
 3.93276552285170E+0000
 20
 6.57009707885300E+0000
 11
 3.88456030890666E+0000
 21
 6.61830229280167E+0000
  0
LINE
  8
1
  6
CONTINUOUS
 62
     1
 10
 3.93276552285170E+0000
 20
 6.59075128303812E+0000
 11
 3.90165017239633E+0000
 21
 6.62186663349712E+0000
  0
LINE
  8
1
  6
CONTINUOUS
 62
     1
 10
 3.93276552285170E+0000
 20
 6.61140548722324E+0000
 11
 3.91874003588600E+0000
 21
 6.62543097419257E+0000
  0
LINE
  8
1
  6
CONTINUOUS
 62
     1
 10
 3.93276552284442E+0000
 20
 6.57827965900651E+0000
 11
 3.92394378392055E+0000
 21
 6.56945792007900E+0000
  0
LINE
  8
1
  6
CONTINUOUS
 62
     1
 10
 3.93276552284442E+0000
 20
 6.59893386319163E+0000
 11
 3.90630030606553E+0000
 21
 6.57246864640911E+0000
  0
LINE
  8
1
  6
CONTINUOUS
 62
     1
 10
 3.93276552284442E+0000
 20
 6.61958806737675E+0000
 11
 3.88865682821051E+0000
 21
 6.57547937273921E+0000
  0
LINE
  8
1
  6
CONTINUOUS
 62
     1
 10
 3.91774714319399E+0000
 20
 6.62522389191145E+0000
 11
 3.87101335036277E+0000
 21
 6.57849009907659E+0000
  0
LINE
  8
1
  6
CONTINUOUS
 62
     1
 10
 3.89164999816057E+0000
 20
 6.61978095106315E+0000
 11
 3.85336987251139E+0000
 21
 6.58150082541397E+0000
  0
LINE
  8
1
  6
CONTINUOUS
 62
     1
 10
 3.86555285313079E+0000
 20
 6.61433801021485E+0000
 11
 3.83572639465638E+0000
 21
 6.58451155174407E+0000
  0
LINE
  8
1
  6
CONTINUOUS
 62
     1
 10
 3.83945570809738E+0000
 20
 6.60889506936655E+0000
 11
 3.81808291680136E+0000
 21
 6.58752227807418E+0000
  0
LINE
  8
1
  6
CONTINUOUS
 62
     1
 10
 3.81335856306396E+0000
 20
 6.60345212851826E+0000
 11
 3.80043943894998E+0000
 21
 6.59053300440428E+0000
  0
LINE
  8
1
  6
CONTINUOUS
 62
     1
 10
 3.78726141803418E+0000
 20
 6.59800918767723E+0000
 11
 3.78279596109496E+0000
 21
 6.59354373074166E+0000
  0
LINE
  8
1
  6
CONTINUOUS
 62
     1
 10
 2.93610534334221E+0000
 20
 6.85692688389099E+0000
 11
 2.93610534334221E+0000
 21
 6.85692688389099E+0000
  0
LINE
  8
1
  6
CONTINUOUS
 62
     1
 10
 2.93610534334221E+0000
 20
 6.85692688389099E+0000
 11
 3.09539466997740E+0000
 21
 6.82974536252732E+0000
  0
LINE
  8
1
  6
CONTINUOUS
 62
     1
 10
 3.09539466997740E+0000
 20
 6.82974536252732E+0000
 11
 3.09539466997740E+0000
 21
 6.89014899999893E+0000
  0
LINE
  8
1
  6
CONTINUOUS
 62
     1
 10
 3.09539466997740E+0000
 20
 6.89014899999893E+0000
 11
 2.93610534334221E+0000
 21
 6.85692688389099E+0000
  0
LINE
  8
1
  6
CONTINUOUS
 62
     1
 10
 3.09539466997740E+0000
 20
 6.82974536252732E+0000
 11
 3.09539466997740E+0000
 21
 6.89014899999893E+0000
  0
LINE
  8
1
  6
CONTINUOUS
 62
     1
 10
 2.94855727330651E+0000
 20
 6.85480205602653E+0000
 11
 2.94465027509068E+0000
 21
 6.85870905424235E+0000
  0
LINE
  8
1
  6
CONTINUOUS
 62
     1
 10
 2.97346113322783E+0000
 20
 6.85055240029033E+0000
 11
 2.96174013858399E+0000
 21
 6.86227339493780E+0000
  0
LINE
  8
1
  6
CONTINUOUS
 62
     1
 10
 2.99836499314551E+0000
 20
 6.84630274455412E+0000
 11
 2.97883000207003E+0000
 21
 6.86583773563325E+0000
  0
LINE
  8
1
  6
CONTINUOUS
 62
     1
 10
 3.02326885306684E+0000
 20
 6.84205308881792E+0000
 11
 2.99591986556334E+0000
 21
 6.86940207632870E+0000
  0
LINE
  8
1
  6
CONTINUOUS
 62
     1
 10
 3.04817271298816E+0000
 20
 6.83780343308899E+0000
 11
 3.01300972905301E+0000
 21
 6.87296641701687E+0000
  0
LINE
  8
1
  6
CONTINUOUS
 62
     1
 10
 3.07307657290585E+0000
 20
 6.83355377735279E+0000
 11
 3.03009959254268E+0000
 21
 6.87653075771959E+0000
  0
LINE
  8
1
  6
CONTINUOUS
 62
     1
 10
 3.09539466998103E+0000
 20
 6.83188988446636E+0000
 11
 3.04718945603599E+0000
 21
 6.88009509840776E+0000
  0
LINE
  8
1
  6
CONTINUOUS
 62
     1
 10
 3.09539466998103E+0000
 20
 6.85254408865148E+0000
 11
 3.06427931952567E+0000
 21
 6.88365943910321E+0000
  0
LINE
  8
1
  6
CONTINUOUS
 62
     1
 10
 3.09539466997740E+0000
 20
 6.87319829283661E+0000
 11
 3.08136918301898E+0000
 21
 6.88722377979866E+0000
  0
LINE
  8
1
  6
CONTINUOUS
 62
     1
 10
 3.09539466997376E+0000
 20
 6.84007246461260E+0000
 11
 3.08657293104989E+0000
 21
 6.83125072568509E+0000
  0
LINE
  8
1
  6
CONTINUOUS
 62
     1
 10
 3.09539466997376E+0000
 20
 6.86072666879772E+0000
 11
 3.06892945319487E+0000
 21
 6.83426145202247E+0000
  0
LINE
  8
1
  6
CONTINUOUS
 62
     1
 10
 3.09539466997376E+0000
 20
 6.88138087298285E+0000
 11
 3.05128597533985E+0000
 21
 6.83727217835258E+0000
  0
LINE
  8
1
  6
CONTINUOUS
 62
     1
 10
 3.08037629031605E+0000
 20
 6.88701669751026E+0000
 11
 3.03364249749211E+0000
 21
 6.84028290468996E+0000
  0
LINE
  8
1
  6
CONTINUOUS
 62
     1
 10
 3.05427914528627E+0000
 20
 6.88157375666924E+0000
 11
 3.01599901964073E+0000
 21
 6.84329363102006E+0000
  0
LINE
  8
1
  6
CONTINUOUS
 62
     1
 10
 3.02818200025285E+0000
 20
 6.87613081582094E+0000
 11
 2.99835554178571E+0000
 21
 6.84630435735016E+0000
  0
LINE
  8
1
  6
CONTINUOUS
 62
     1
 10
 3.00208485522671E+0000
 20
 6.87068787497992E+0000
 11
 2.98071206393070E+0000
 21
 6.84931508368027E+0000
  0
LINE
  8
1
  6
CONTINUOUS
 62
     1
 10
 2.97598771019329E+0000
 20
 6.86524493413162E+0000
 11
 2.96306858607932E+0000
 21
 6.85232581001765E+0000
  0
LINE
  8
1
  6
CONTINUOUS
 62
     1
 10
 2.94989056516351E+0000
 20
 6.85980199328333E+0000
 11
 2.94542510822430E+0000
 21
 6.85533653634775E+0000
  0
LINE
  8
1
  6
CONTINUOUS
 62
     1
 10
 5.29596865599160E+0000
 20
 6.30800648502191E+0000
 11
 5.29596865599160E+0000
 21
 6.30800648502191E+0000
  0
LINE
  8
1
  6
CONTINUOUS
 62
     1
 10
 5.29596865599160E+0000
 20
 6.30800648502191E+0000
 11
 5.45525798262679E+0000
 21
 6.28082496365823E+0000
  0
LINE
  8
1
  6
CONTINUOUS
 62
     1
 10
 5.45525798262679E+0000
 20
 6.28082496365823E+0000
 11
 5.45525798262679E+0000
 21
 6.34122860112984E+0000
  0
LINE
  8
1
  6
CONTINUOUS
 62
     1
 10
 5.45525798262679E+0000
 20
 6.34122860112984E+0000
 11
 5.29596865599160E+0000
 21
 6.30800648502191E+0000
  0
LINE
  8
1
  6
CONTINUOUS
 62
     1
 10
 5.45525798262679E+0000
 20
 6.28082496365823E+0000
 11
 5.45525798262679E+0000
 21
 6.34122860112984E+0000
  0
LINE
  8
1
  6
CONTINUOUS
 62
     1
 10
 5.30842058597045E+0000
 20
 6.30588165715744E+0000
 11
 5.30451358775463E+0000
 21
 6.30978865538054E+0000
  0
LINE
  8
1
  6
CONTINUOUS
 62
     1
 10
 5.33332444589178E+0000
 20
 6.30163200142124E+0000
 11
 5.32160345124430E+0000
 21
 6.31335299606872E+0000
  0
LINE
  8
1
  6
CONTINUOUS
 62
     1
 10
 5.35822830581310E+0000
 20
 6.29738234568504E+0000
 11
 5.33869331473397E+0000
 21
 6.31691733676416E+0000
  0
LINE
  8
1
  6
CONTINUOUS
 62
     1
 10
 5.38313216573442E+0000
 20
 6.29313268994883E+0000
 11
 5.35578317822365E+0000
 21
 6.32048167745961E+0000
  0
LINE
  8
1
  6
CONTINUOUS
 62
     1
 10
 5.40803602565575E+0000
 20
 6.28888303421263E+0000
 11
 5.37287304171332E+0000
 21
 6.32404601815506E+0000
  0
LINE
  8
1
  6
CONTINUOUS
 62
     1
 10
 5.43293988557707E+0000
 20
 6.28463337847643E+0000
 11
 5.38996290521027E+0000
 21
 6.32761035885051E+0000
  0
LINE
  8
1
  6
CONTINUOUS
 62
     1
 10
 5.45525798262679E+0000
 20
 6.28296948561183E+0000
 11
 5.40705276869994E+0000
 21
 6.33117469953868E+0000
  0
LINE
  8
1
  6
CONTINUOUS
 62
     1
 10
 5.45525798262679E+0000
 20
 6.30362368980423E+0000
 11
 5.42414263218961E+0000
 21
 6.33473904023413E+0000
  0
LINE
  8
1
  6
CONTINUOUS
 62
     1
 10
 5.45525798262679E+0000
 20
 6.32427789398935E+0000
 11
 5.44123249567929E+0000
 21
 6.33830338092957E+0000
  0
LINE
  8
1
  6
CONTINUOUS
 62
     1
 10
 5.45525798261951E+0000
 20
 6.29115206574352E+0000
 11
 5.44643624369928E+0000
 21
 6.28233032682328E+0000
  0
LINE
  8
1
  6
CONTINUOUS
 62
     1
 10
 5.45525798261951E+0000
 20
 6.31180626992864E+0000
 11
 5.42879276585154E+0000
 21
 6.28534105316066E+0000
  0
LINE
  8
1
  6
CONTINUOUS
 62
     1
 10
 5.45525798261951E+0000
 20
 6.33246047411376E+0000
 11
 5.41114928799652E+0000
 21
 6.28835177949077E+0000
  0
LINE
  8
1
  6
CONTINUOUS
 62
     1
 10
 5.44023960296181E+0000
 20
 6.33809629864118E+0000
 11
 5.39350581014151E+0000
 21
 6.29136250582087E+0000
  0
LINE
  8
1
  6
CONTINUOUS
 62
     1
 10
 5.41414245792839E+0000
 20
 6.33265335780015E+0000
 11
 5.37586233228649E+0000
 21
 6.29437323215097E+0000
  0
LINE
  8
1
  6
CONTINUOUS
 62
     1
 10
 5.38804531290225E+0000
 20
 6.32721041695186E+0000
 11
 5.35821885443147E+0000
 21
 6.29738395848835E+0000
  0
LINE
  8
1
  6
CONTINUOUS
 62
     1
 10
 5.36194816786156E+0000
 20
 6.32176747610356E+0000
 11
 5.34057537658373E+0000
 21
 6.30039468481846E+0000
  0
LINE
  8
1
  6
CONTINUOUS
 62
     1
 10
 5.33585102283541E+0000
 20
 6.31632453525526E+0000
 11
 5.32293189872871E+0000
 21
 6.30340541114856E+0000
  0
LINE
  8
1
  6
CONTINUOUS
 62
     1
 10
 5.30975387780927E+0000
 20
 6.31088159441424E+0000
 11
 5.30528842087369E+0000
 21
 6.30641613747866E+0000
  0
LINE
  8
1
  6
CONTINUOUS
 62
     1
 10
 4.98061908903765E+0000
 20
 6.31280429440085E+0000
 11
 4.98061908903765E+0000
 21
 6.31280429440085E+0000
  0
LINE
  8
1
  6
CONTINUOUS
 62
     1
 10
 4.98061908903765E+0000
 20
 6.31280429440085E+0000
 11
 4.82132976240973E+0000
 21
 6.33998581576452E+0000
  0
LINE
  8
1
  6
CONTINUOUS
 62
     1
 10
 4.82132976240973E+0000
 20
 6.33998581576452E+0000
 11
 4.82132976240973E+0000
 21
 6.27958217829291E+0000
  0
LINE
  8
1
  6
CONTINUOUS
 62
     1
 10
 4.82132976240973E+0000
 20
 6.27958217829291E+0000
 11
 4.98061908903765E+0000
 21
 6.31280429440085E+0000
  0
LINE
  8
1
  6
CONTINUOUS
 62
     1
 10
 4.82132976240973E+0000
 20
 6.33998581576452E+0000
 11
 4.82132976240973E+0000
 21
 6.27958217829291E+0000
  0
LINE
  8
1
  6
CONTINUOUS
 62
     1
 10
 4.82987469415821E+0000
 20
 6.28136434864427E+0000
 11
 4.82132976240973E+0000
 21
 6.28990928039275E+0000
  0
LINE
  8
1
  6
CONTINUOUS
 62
     1
 10
 4.84696455764788E+0000
 20
 6.28492868933972E+0000
 11
 4.82132976240973E+0000
 21
 6.31056348457787E+0000
  0
LINE
  8
1
  6
CONTINUOUS
 62
     1
 10
 4.86405442113755E+0000
 20
 6.28849303003517E+0000
 11
 4.82132976240973E+0000
 21
 6.33121768876299E+0000
  0
LINE
  8
1
  6
CONTINUOUS
 62
     1
 10
 4.88114428463450E+0000
 20
 6.29205737073062E+0000
 11
 4.83566143060307E+0000
 21
 6.33754022475478E+0000
  0
LINE
  8
1
  6
CONTINUOUS
 62
     1
 10
 4.89823414812417E+0000
 20
 6.29562171142607E+0000
 11
 4.86056529052439E+0000
 21
 6.33329056901857E+0000
  0
LINE
  8
1
  6
CONTINUOUS
 62
     1
 10
 4.91532401161385E+0000
 20
 6.29918605211424E+0000
 11
 4.88546915044572E+0000
 21
 6.32904091328237E+0000
  0
LINE
  8
1
  6
CONTINUOUS
 62
     1
 10
 4.93241387510352E+0000
 20
 6.30275039280968E+0000
 11
 4.91037301036704E+0000
 21
 6.32479125754617E+0000
  0
LINE
  8
1
  6
CONTINUOUS
 62
     1
 10
 4.94950373859319E+0000
 20
 6.30631473350513E+0000
 11
 4.93527687028836E+0000
 21
 6.32054160181724E+0000
  0
LINE
  8
1
  6
CONTINUOUS
 62
     1
 10
 4.96659360208287E+0000
 20
 6.30987907420058E+0000
 11
 4.96018073020969E+0000
 21
 6.31629194608104E+0000
  0
LINE
  8
1
  6
CONTINUOUS
 62
     1
 10
 4.97179735011014E+0000
 20
 6.31430965756590E+0000
 11
 4.96757051652094E+0000
 21
 6.31008282397670E+0000
  0
LINE
  8
1
  6
CONTINUOUS
 62
     1
 10
 4.95415387225512E+0000
 20
 6.31732038389600E+0000
 11
 4.94147337148752E+0000
 21
 6.30463988312840E+0000
  0
LINE
  8
1
  6
CONTINUOUS
 62
     1
 10
 4.93651039440010E+0000
 20
 6.32033111022611E+0000
 11
 4.91537622645410E+0000
 21
 6.29919694228010E+0000
  0
LINE
  8
1
  6
CONTINUOUS
 62
     1
 10
 4.91886691654508E+0000
 20
 6.32334183655621E+0000
 11
 4.88927908142068E+0000
 21
 6.29375400143181E+0000
  0
LINE
  8
1
  6
CONTINUOUS
 62
     1
 10
 4.90122343869007E+0000
 20
 6.32635256289359E+0000
 11
 4.86318193638726E+0000
 21
 6.28831106059079E+0000
  0
LINE
  8
1
  6
CONTINUOUS
 62
     1
 10
 4.88357996084233E+0000
 20
 6.32936328922369E+0000
 11
 4.83708479135385E+0000
 21
 6.28286811974249E+0000
  0
LINE
  8
1
  6
CONTINUOUS
 62
     1
 10
 4.86593648299458E+0000
 20
 6.33237401556107E+0000
 11
 4.82132976240973E+0000
 21
 6.28776729497622E+0000
  0
LINE
  8
1
  6
CONTINUOUS
 62
     1
 10
 4.84829300513957E+0000
 20
 6.33538474189118E+0000
 11
 4.82132976240973E+0000
 21
 6.30842149916134E+0000
  0
LINE
  8
1
  6
CONTINUOUS
 62
     1
 10
 4.83064952728455E+0000
 20
 6.33839546822128E+0000
 11
 4.82132976240973E+0000
 21
 6.32907570334646E+0000
  0
LINE
  8
1
  6
CONTINUOUS
 62
     1
 10
 2.94148225889876E+0000
 20
 5.94784057109064E+0000
 11
 2.32258125977387E+0000
 21
 5.94784057109064E+0000
  0
LINE
  8
1
  6
CONTINUOUS
 62
     1
 10
 2.32258125977387E+0000
 20
 5.94784057109064E+0000
 11
 2.32258125977387E+0000
 21
 4.84163576405263E+0000
  0
LINE
  8
1
  6
CONTINUOUS
 62
     1
 10
 2.32258125977387E+0000
 20
 4.84163576405263E+0000
 11
 2.94849482657082E+0000
 21
 4.84163576405263E+0000
  0
LINE
  8
1
  6
CONTINUOUS
 62
     1
 10
 2.31958745096927E+0000
 20
 5.94674034512718E+0000
 11
 2.31958745096927E+0000
 21
 5.94674034512718E+0000
  0
LINE
  8
1
  6
CONTINUOUS
 62
     1
 10
 2.31958745096927E+0000
 20
 5.94674034512718E+0000
 11
 2.29240592960559E+0000
 21
 5.78745101849927E+0000
  0
LINE
  8
1
  6
CONTINUOUS
 62
     1
 10
 2.29240592960559E+0000
 20
 5.78745101849927E+0000
 11
 2.35280956707720E+0000
 21
 5.78745101849927E+0000
  0
LINE
  8
1
  6
CONTINUOUS
 62
     1
 10
 2.35280956707720E+0000
 20
 5.78745101849927E+0000
 11
 2.31958745096927E+0000
 21
 5.94674034512718E+0000
  0
LINE
  8
1
  6
CONTINUOUS
 62
     1
 10
 2.29240592960559E+0000
 20
 5.78745101849927E+0000
 11
 2.35280956707720E+0000
 21
 5.78745101849927E+0000
  0
LINE
  8
1
  6
CONTINUOUS
 62
     1
 10
 2.30273303169815E+0000
 20
 5.78745101849927E+0000
 11
 2.29391129277064E+0000
 21
 5.79627275742678E+0000
  0
LINE
  8
1
  6
CONTINUOUS
 62
     1
 10
 2.32338723587964E+0000
 20
 5.78745101849927E+0000
 11
 2.29692201910439E+0000
 21
 5.81391623527452E+0000
  0
LINE
  8
1
  6
CONTINUOUS
 62
     1
 10
 2.34404144006476E+0000
 20
 5.78745101849927E+0000
 11
 2.29993274543813E+0000
 21
 5.83155971312954E+0000
  0
LINE
  8
1
  6
CONTINUOUS
 62
     1
 10
 2.34967726460309E+0000
 20
 5.80246939814970E+0000
 11
 2.30294347176823E+0000
 21
 5.84920319098455E+0000
  0
LINE
  8
1
  6
CONTINUOUS
 62
     1
 10
 2.34423432375479E+0000
 20
 5.82856654318311E+0000
 11
 2.30595419810561E+0000
 21
 5.86684666883230E+0000
  0
LINE
  8
1
  6
CONTINUOUS
 62
     1
 10
 2.33879138291013E+0000
 20
 5.85466368821653E+0000
 11
 2.30896492443571E+0000
 21
 5.88449014668731E+0000
  0
LINE
  8
1
  6
CONTINUOUS
 62
     1
 10
 2.33334844206183E+0000
 20
 5.88076083324995E+0000
 11
 2.31197565076582E+0000
 21
 5.90213362454233E+0000
  0
LINE
  8
1
  6
CONTINUOUS
 62
     1
 10
 2.32790550121354E+0000
 20
 5.90685797828337E+0000
 11
 2.31498637710320E+0000
 21
 5.91977710239007E+0000
  0
LINE
  8
1
  6
CONTINUOUS
 62
     1
 10
 2.32246256036524E+0000
 20
 5.93295512331679E+0000
 11
 2.31799710343330E+0000
 21
 5.93742058024509E+0000
  0
LINE
  8
1
  6
CONTINUOUS
 62
     1
 10
 2.35102739672948E+0000
 20
 5.79599595024047E+0000
 11
 2.34248246498100E+0000
 21
 5.78745101849199E+0000
  0
LINE
  8
1
  6
CONTINUOUS
 62
     1
 10
 2.34746305603403E+0000
 20
 5.81308581373014E+0000
 11
 2.32182826079588E+0000
 21
 5.78745101849199E+0000
  0
LINE
  8
1
  6
CONTINUOUS
 62
     1
 10
 2.34389871533494E+0000
 20
 5.83017567721981E+0000
 11
 2.30117405661076E+0000
 21
 5.78745101849199E+0000
  0
LINE
  8
1
  6
CONTINUOUS
 62
     1
 10
 2.34033437464313E+0000
 20
 5.84726554070949E+0000
 11
 2.29485152061534E+0000
 21
 5.80178268668533E+0000
  0
LINE
  8
1
  6
CONTINUOUS
 62
     1
 10
 2.33677003394769E+0000
 20
 5.86435540419916E+0000
 11
 2.29910117635154E+0000
 21
 5.82668654660665E+0000
  0
LINE
  8
1
  6
CONTINUOUS
 62
     1
 10
 2.33320569325588E+0000
 20
 5.88144526769611E+0000
 11
 2.30335083208047E+0000
 21
 5.85159040652070E+0000
  0
LINE
  8
1
  6
CONTINUOUS
 62
     1
 10
 2.32964135255679E+0000
 20
 5.89853513117851E+0000
 11
 2.30760048781667E+0000
 21
 5.87649426644202E+0000
  0
LINE
  8
1
  6
CONTINUOUS
 62
     1
 10
 2.32607701186134E+0000
 20
 5.91562499466818E+0000
 11
 2.31185014355287E+0000
 21
 5.90139812636335E+0000
  0
LINE
  8
1
  6
CONTINUOUS
 62
     1
 10
 2.32251267116953E+0000
 20
 5.93271485816513E+0000
 11
 2.31609979928908E+0000
 21
 5.92630198628467E+0000
  0
LINE
  8
1
  6
CONTINUOUS
 62
     1
 10
 2.31975781391520E+0000
 20
 4.84107580083219E+0000
 11
 2.31975781391520E+0000
 21
 4.84107580083219E+0000
  0
LINE
  8
1
  6
CONTINUOUS
 62
     1
 10
 2.31975781391520E+0000
 20
 4.84107580083219E+0000
 11
 2.34693933527888E+0000
 21
 5.00036512746010E+0000
  0
LINE
  8
1
  6
CONTINUOUS
 62
     1
 10
 2.34693933527888E+0000
 20
 5.00036512746010E+0000
 11
 2.28653569780727E+0000
 21
 5.00036512746010E+0000
  0
LINE
  8
1
  6
CONTINUOUS
 62
     1
 10
 2.28653569780727E+0000
 20
 5.00036512746010E+0000
 11
 2.31975781391520E+0000
 21
 4.84107580083219E+0000
  0
LINE
  8
1
  6
CONTINUOUS
 62
     1
 10
 2.34693933527888E+0000
 20
 5.00036512746010E+0000
 11
 2.28653569780727E+0000
 21
 5.00036512746010E+0000
  0
LINE
  8
1
  6
CONTINUOUS
 62
     1
 10
 2.32126317708389E+0000
 20
 4.84989753975970E+0000
 11
 2.31703634349469E+0000
 21
 4.85412437334890E+0000
  0
LINE
  8
1
  6
CONTINUOUS
 62
     1
 10
 2.32427390341763E+0000
 20
 4.86754101761471E+0000
 11
 2.31159340264639E+0000
 21
 4.88022151838231E+0000
  0
LINE
  8
1
  6
CONTINUOUS
 62
     1
 10
 2.32728462974774E+0000
 20
 4.88518449546973E+0000
 11
 2.30615046180174E+0000
 21
 4.90631866341573E+0000
  0
LINE
  8
1
  6
CONTINUOUS
 62
     1
 10
 2.33029535608148E+0000
 20
 4.90282797332475E+0000
 11
 2.30070752095344E+0000
 21
 4.93241580844915E+0000
  0
LINE
  8
1
  6
CONTINUOUS
 62
     1
 10
 2.33330608241522E+0000
 20
 4.92047145117249E+0000
 11
 2.29526458010878E+0000
 21
 4.95851295348257E+0000
  0
LINE
  8
1
  6
CONTINUOUS
 62
     1
 10
 2.33631680874532E+0000
 20
 4.93811492902751E+0000
 11
 2.28982163926048E+0000
 21
 4.98461009851599E+0000
  0
LINE
  8
1
  6
CONTINUOUS
 62
     1
 10
 2.33932753507906E+0000
 20
 4.95575840688252E+0000
 11
 2.29472081449785E+0000
 21
 5.00036512746010E+0000
  0
LINE
  8
1
  6
CONTINUOUS
 62
     1
 10
 2.34233826140917E+0000
 20
 4.97340188473027E+0000
 11
 2.31537501868297E+0000
 21
 5.00036512746010E+0000
  0
LINE
  8
1
  6
CONTINUOUS
 62
     1
 10
 2.34534898774291E+0000
 20
 4.99104536258528E+0000
 11
 2.33602922286809E+0000
 21
 5.00036512746010E+0000
  0
LINE
  8
1
  6
CONTINUOUS
 62
     1
 10
 2.32188264177967E+0000
 20
 4.85352773078921E+0000
 11
 2.31797564356748E+0000
 21
 4.84962073257338E+0000
  0
LINE
  8
1
  6
CONTINUOUS
 62
     1
 10
 2.32613229751587E+0000
 20
 4.87843159071053E+0000
 11
 2.31441130287203E+0000
 21
 4.86671059606306E+0000
  0
LINE
  8
1
  6
CONTINUOUS
 62
     1
 10
 2.33038195325207E+0000
 20
 4.90333545063186E+0000
 11
 2.31084696217295E+0000
 21
 4.88380045955273E+0000
  0
LINE
  8
1
  6
CONTINUOUS
 62
     1
 10
 2.33463160898827E+0000
 20
 4.92823931055318E+0000
 11
 2.30728262148114E+0000
 21
 4.90089032304240E+0000
  0
LINE
  8
1
  6
CONTINUOUS
 62
     1
 10
 2.33888126472448E+0000
 20
 4.95314317047450E+0000
 11
 2.30371828078569E+0000
 21
 4.91798018653208E+0000
  0
LINE
  8
1
  6
CONTINUOUS
 62
     1
 10
 2.34313092046068E+0000
 20
 4.97804703039583E+0000
 11
 2.30015394009388E+0000
 21
 4.93507005002903E+0000
  0
LINE
  8
1
  6
CONTINUOUS
 62
     1
 10
 2.34479481333619E+0000
 20
 5.00036512745282E+0000
 11
 2.29658959939479E+0000
 21
 4.95215991351142E+0000
  0
LINE
  8
1
  6
CONTINUOUS
 62
     1
 10
 2.32414060915107E+0000
 20
 5.00036512745282E+0000
 11
 2.29302525869934E+0000
 21
 4.96924977700837E+0000
  0
LINE
  8
1
  6
CONTINUOUS
 62
     1
 10
 2.30348640496595E+0000
 20
 5.00036512745282E+0000
 11
 2.28946091800753E+0000
 21
 4.98633964049804E+0000
  0
LINE
  8
1
  6
CONTINUOUS
 62
     1
 10
 8.11789864127059E+0000
 20
 5.55677310544706E+0000
 11
 6.72479393475805E+0000
 21
 5.55677310544706E+0000
  0
LINE
  8
1
  6
CONTINUOUS
 62
     1
 10
 6.72479393475805E+0000
 20
 5.55677310544706E+0000
 11
 6.72479393475805E+0000
 21
 5.22926829269272E+0000
  0
LINE
  8
1
  6
CONTINUOUS
 62
     1
 10
 6.72479393475805E+0000
 20
 5.22926829269272E+0000
 11
 8.12944940439775E+0000
 21
 5.22926829269272E+0000
  0
LINE
  8
1
  6
CONTINUOUS
 62
     1
 10
 6.72287845362735E+0000
 20
 5.23411712255620E+0000
 11
 6.72287845362735E+0000
 21
 5.23411712255620E+0000
  0
LINE
  8
1
  6
CONTINUOUS
 62
     1
 10
 6.72287845362735E+0000
 20
 5.23411712255620E+0000
 11
 6.69569693226367E+0000
 21
 5.07482779592829E+0000
  0
LINE
  8
1
  6
CONTINUOUS
 62
     1
 10
 6.69569693226367E+0000
 20
 5.07482779592829E+0000
 11
 6.75610056973528E+0000
 21
 5.07482779592829E+0000
  0
LINE
  8
1
  6
CONTINUOUS
 62
     1
 10
 6.75610056973528E+0000
 20
 5.07482779592829E+0000
 11
 6.72287845362735E+0000
 21
 5.23411712255620E+0000
  0
LINE
  8
1
  6
CONTINUOUS
 62
     1
 10
 6.69569693226367E+0000
 20
 5.07482779592829E+0000
 11
 6.75610056973528E+0000
 21
 5.07482779592829E+0000
  0
LINE
  8
1
  6
CONTINUOUS
 62
     1
 10
 6.70602403437078E+0000
 20
 5.07482779592829E+0000
 11
 6.69720229542872E+0000
 21
 5.08364953486307E+0000
  0
LINE
  8
1
  6
CONTINUOUS
 62
     1
 10
 6.72667823855591E+0000
 20
 5.07482779592829E+0000
 11
 6.70021302176610E+0000
 21
 5.10129301271809E+0000
  0
LINE
  8
1
  6
CONTINUOUS
 62
     1
 10
 6.74733244274103E+0000
 20
 5.07482779592829E+0000
 11
 6.70322374809621E+0000
 21
 5.11893649057311E+0000
  0
LINE
  8
1
  6
CONTINUOUS
 62
     1
 10
 6.75296826725389E+0000
 20
 5.08984617560054E+0000
 11
 6.70623447442631E+0000
 21
 5.13657996842085E+0000
  0
LINE
  8
1
  6
CONTINUOUS
 62
     1
 10
 6.74752532640559E+0000
 20
 5.11594332063396E+0000
 11
 6.70924520076369E+0000
 21
 5.15422344627586E+0000
  0
LINE
  8
1
  6
CONTINUOUS
 62
     1
 10
 6.74208238555730E+0000
 20
 5.14204046566738E+0000
 11
 6.71225592709379E+0000
 21
 5.17186692413088E+0000
  0
LINE
  8
1
  6
CONTINUOUS
 62
     1
 10
 6.73663944470900E+0000
 20
 5.16813761070080E+0000
 11
 6.71526665343117E+0000
 21
 5.18951040197862E+0000
  0
LINE
  8
1
  6
CONTINUOUS
 62
     1
 10
 6.73119650386070E+0000
 20
 5.19423475573421E+0000
 11
 6.71827737976128E+0000
 21
 5.20715387983364E+0000
  0
LINE
  8
1
  6
CONTINUOUS
 62
     1
 10
 6.72575356301968E+0000
 20
 5.22033190076036E+0000
 11
 6.72128810609138E+0000
 21
 5.22479735768866E+0000
  0
LINE
  8
1
  6
CONTINUOUS
 62
     1
 10
 6.75431839938392E+0000
 20
 5.08337272766948E+0000
 11
 6.74577346764272E+0000
 21
 5.07482779592829E+0000
  0
LINE
  8
1
  6
CONTINUOUS
 62
     1
 10
 6.75075405868847E+0000
 20
 5.10046259115916E+0000
 11
 6.72511926345760E+0000
 21
 5.07482779592829E+0000
  0
LINE
  8
1
  6
CONTINUOUS
 62
     1
 10
 6.74718971799302E+0000
 20
 5.11755245464883E+0000
 11
 6.70446505927248E+0000
 21
 5.07482779592829E+0000
  0
LINE
  8
1
  6
CONTINUOUS
 62
     1
 10
 6.74362537730485E+0000
 20
 5.13464231814578E+0000
 11
 6.69814252326614E+0000
 21
 5.08915946411435E+0000
  0
LINE
  8
1
  6
CONTINUOUS
 62
     1
 10
 6.74006103659485E+0000
 20
 5.15173218162818E+0000
 11
 6.70239217900235E+0000
 21
 5.11406332403567E+0000
  0
LINE
  8
1
  6
CONTINUOUS
 62
     1
 10
 6.73649669590668E+0000
 20
 5.16882204511785E+0000
 11
 6.70664183473855E+0000
 21
 5.13896718394972E+0000
  0
LINE
  8
1
  6
CONTINUOUS
 62
     1
 10
 6.73293235521123E+0000
 20
 5.18591190860752E+0000
 11
 6.71089149047475E+0000
 21
 5.16387104387104E+0000
  0
LINE
  8
1
  6
CONTINUOUS
 62
     1
 10
 6.72936801451579E+0000
 20
 5.20300177209720E+0000
 11
 6.71514114621095E+0000
 21
 5.18877490379236E+0000
  0
LINE
  8
1
  6
CONTINUOUS
 62
     1
 10
 6.72580367382034E+0000
 20
 5.22009163559414E+0000
 11
 6.71939080193988E+0000
 21
 5.21367876370641E+0000
  0
LINE
  8
1
  6
CONTINUOUS
 62
     1
 10
 6.72588748964336E+0000
 20
 5.55793275405449E+0000
 11
 6.72588748964336E+0000
 21
 5.55793275405449E+0000
  0
LINE
  8
1
  6
CONTINUOUS
 62
     1
 10
 6.72588748964336E+0000
 20
 5.55793275405449E+0000
 11
 6.75306901100703E+0000
 21
 5.71722208068240E+0000
  0
LINE
  8
1
  6
CONTINUOUS
 62
     1
 10
 6.75306901100703E+0000
 20
 5.71722208068240E+0000
 11
 6.69266537353542E+0000
 21
 5.71722208068240E+0000
  0
LINE
  8
1
  6
CONTINUOUS
 62
     1
 10
 6.69266537353542E+0000
 20
 5.71722208068240E+0000
 11
 6.72588748964336E+0000
 21
 5.55793275405449E+0000
  0
LINE
  8
1
  6
CONTINUOUS
 62
     1
 10
 6.75306901100703E+0000
 20
 5.71722208068240E+0000
 11
 6.69266537353542E+0000
 21
 5.71722208068240E+0000
  0
LINE
  8
1
  6
CONTINUOUS
 62
     1
 10
 6.72739285281568E+0000
 20
 5.56675449299655E+0000
 11
 6.72316601921921E+0000
 21
 5.57098132658575E+0000
  0
LINE
  8
1
  6
CONTINUOUS
 62
     1
 10
 6.73040357914579E+0000
 20
 5.58439797084429E+0000
 11
 6.71772307837819E+0000
 21
 5.59707847161917E+0000
  0
LINE
  8
1
  6
CONTINUOUS
 62
     1
 10
 6.73341430548317E+0000
 20
 5.60204144869931E+0000
 11
 6.71228013752989E+0000
 21
 5.62317561665259E+0000
  0
LINE
  8
1
  6
CONTINUOUS
 62
     1
 10
 6.73642503181327E+0000
 20
 5.61968492655433E+0000
 11
 6.70683719668159E+0000
 21
 5.64927276168601E+0000
  0
LINE
  8
1
  6
CONTINUOUS
 62
     1
 10
 6.73943575814337E+0000
 20
 5.63732840440935E+0000
 11
 6.70139425583329E+0000
 21
 5.67536990671942E+0000
  0
LINE
  8
1
  6
CONTINUOUS
 62
     1
 10
 6.74244648448075E+0000
 20
 5.65497188225709E+0000
 11
 6.69595131498500E+0000
 21
 5.70146705174557E+0000
  0
LINE
  8
1
  6
CONTINUOUS
 62
     1
 10
 6.74545721081086E+0000
 20
 5.67261536011210E+0000
 11
 6.70085049024055E+0000
 21
 5.71722208068240E+0000
  0
LINE
  8
1
  6
CONTINUOUS
 62
     1
 10
 6.74846793714096E+0000
 20
 5.69025883796712E+0000
 11
 6.72150469442568E+0000
 21
 5.71722208068240E+0000
  0
LINE
  8
1
  6
CONTINUOUS
 62
     1
 10
 6.75147866347834E+0000
 20
 5.70790231581486E+0000
 11
 6.74215889861080E+0000
 21
 5.71722208068240E+0000
  0
LINE
  8
1
  6
CONTINUOUS
 62
     1
 10
 6.72801231750054E+0000
 20
 5.57038468400424E+0000
 11
 6.72410531928472E+0000
 21
 5.56647768578841E+0000
  0
LINE
  8
1
  6
CONTINUOUS
 62
     1
 10
 6.73226197323675E+0000
 20
 5.59528854392556E+0000
 11
 6.72054097858927E+0000
 21
 5.58356754928536E+0000
  0
LINE
  8
1
  6
CONTINUOUS
 62
     1
 10
 6.73651162897295E+0000
 20
 5.62019240384689E+0000
 11
 6.71697663790110E+0000
 21
 5.60065741277504E+0000
  0
LINE
  8
1
  6
CONTINUOUS
 62
     1
 10
 6.74076128470915E+0000
 20
 5.64509626376821E+0000
 11
 6.71341229720565E+0000
 21
 5.61774727626471E+0000
  0
LINE
  8
1
  6
CONTINUOUS
 62
     1
 10
 6.74501094044535E+0000
 20
 5.67000012368953E+0000
 11
 6.70984795650293E+0000
 21
 5.63483713974711E+0000
  0
LINE
  8
1
  6
CONTINUOUS
 62
     1
 10
 6.74926059618156E+0000
 20
 5.69490398361086E+0000
 11
 6.70628361580748E+0000
 21
 5.65192700323678E+0000
  0
LINE
  8
1
  6
CONTINUOUS
 62
     1
 10
 6.75092448906798E+0000
 20
 5.71722208068240E+0000
 11
 6.70271927511203E+0000
 21
 5.66901686673373E+0000
  0
LINE
  8
1
  6
CONTINUOUS
 62
     1
 10
 6.73027028486831E+0000
 20
 5.71722208067513E+0000
 11
 6.69915493442386E+0000
 21
 5.68610673022340E+0000
  0
LINE
  8
1
  6
CONTINUOUS
 62
     1
 10
 6.70961608068319E+0000
 20
 5.71722208067513E+0000
 11
 6.69559059372841E+0000
 21
 5.70319659371307E+0000
  0
LINE
  8
1
  6
CONTINUOUS
 62
     1
 10
 3.13869088015781E+0000
 20
 5.82835246479226E+0000
 11
 2.69134837389720E+0000
 21
 5.82835246479226E+0000
  0
LINE
  8
1
  6
CONTINUOUS
 62
     1
 10
 2.69134837389720E+0000
 20
 5.82835246479226E+0000
 11
 2.69134837389720E+0000
 21
 4.96187900495715E+0000
  0
LINE
  8
1
  6
CONTINUOUS
 62
     1
 10
 2.69134837389720E+0000
 20
 4.96187900495715E+0000
 11
 3.14763773028244E+0000
 21
 4.96187900495715E+0000
  0
LINE
  8
1
  6
CONTINUOUS
 62
     1
 10
 2.68784904719359E+0000
 20
 5.84154181605845E+0000
 11
 2.68784904719359E+0000
 21
 5.84154181605845E+0000
  0
LINE
  8
1
  6
CONTINUOUS
 62
     1
 10
 2.68784904719359E+0000
 20
 5.84154181605845E+0000
 11
 2.66066752582992E+0000
 21
 5.68225248943054E+0000
  0
LINE
  8
1
  6
CONTINUOUS
 62
     1
 10
 2.66066752582992E+0000
 20
 5.68225248943054E+0000
 11
 2.72107116330153E+0000
 21
 5.68225248943054E+0000
  0
LINE
  8
1
  6
CONTINUOUS
 62
     1
 10
 2.72107116330153E+0000
 20
 5.68225248943054E+0000
 11
 2.68784904719359E+0000
 21
 5.84154181605845E+0000
  0
LINE
  8
1
  6
CONTINUOUS
 62
     1
 10
 2.66066752582992E+0000
 20
 5.68225248943054E+0000
 11
 2.72107116330153E+0000
 21
 5.68225248943054E+0000
  0
LINE
  8
1
  6
CONTINUOUS
 62
     1
 10
 2.67099462792612E+0000
 20
 5.68225248943054E+0000
 11
 2.66217288899861E+0000
 21
 5.69107422835805E+0000
  0
LINE
  8
1
  6
CONTINUOUS
 62
     1
 10
 2.69164883211488E+0000
 20
 5.68225248943054E+0000
 11
 2.66518361533235E+0000
 21
 5.70871770621306E+0000
  0
LINE
  8
1
  6
CONTINUOUS
 62
     1
 10
 2.71230303630000E+0000
 20
 5.68225248943054E+0000
 11
 2.66819434166609E+0000
 21
 5.72636118406808E+0000
  0
LINE
  8
1
  6
CONTINUOUS
 62
     1
 10
 2.71793886082014E+0000
 20
 5.69727086909552E+0000
 11
 2.67120506799620E+0000
 21
 5.74400466191582E+0000
  0
LINE
  8
1
  6
CONTINUOUS
 62
     1
 10
 2.71249591997548E+0000
 20
 5.72336801412894E+0000
 11
 2.67421579432994E+0000
 21
 5.76164813977084E+0000
  0
LINE
  8
1
  6
CONTINUOUS
 62
     1
 10
 2.70705297913082E+0000
 20
 5.74946515915508E+0000
 11
 2.67722652066004E+0000
 21
 5.77929161762586E+0000
  0
LINE
  8
1
  6
CONTINUOUS
 62
     1
 10
 2.70161003828252E+0000
 20
 5.77556230418850E+0000
 11
 2.68023724699378E+0000
 21
 5.79693509548088E+0000
  0
LINE
  8
1
  6
CONTINUOUS
 62
     1
 10
 2.69616709743423E+0000
 20
 5.80165944922192E+0000
 11
 2.68324797332752E+0000
 21
 5.81457857332862E+0000
  0
LINE
  8
1
  6
CONTINUOUS
 62
     1
 10
 2.69072415658593E+0000
 20
 5.82775659425533E+0000
 11
 2.68625869966127E+0000
 21
 5.83222205118363E+0000
  0
LINE
  8
1
  6
CONTINUOUS
 62
     1
 10
 2.71928899295017E+0000
 20
 5.69079742117174E+0000
 11
 2.71074406120533E+0000
 21
 5.68225248942326E+0000
  0
LINE
  8
1
  6
CONTINUOUS
 62
     1
 10
 2.71572465225836E+0000
 20
 5.70788728466141E+0000
 11
 2.69008985702021E+0000
 21
 5.68225248942326E+0000
  0
LINE
  8
1
  6
CONTINUOUS
 62
     1
 10
 2.71216031155927E+0000
 20
 5.72497714815108E+0000
 11
 2.66943565283509E+0000
 21
 5.68225248942326E+0000
  0
LINE
  8
1
  6
CONTINUOUS
 62
     1
 10
 2.70859597086383E+0000
 20
 5.74206701164076E+0000
 11
 2.66311311683603E+0000
 21
 5.69658415760932E+0000
  0
LINE
  8
1
  6
CONTINUOUS
 62
     1
 10
 2.70503163017202E+0000
 20
 5.75915687513043E+0000
 11
 2.66736277257223E+0000
 21
 5.72148801753065E+0000
  0
LINE
  8
1
  6
CONTINUOUS
 62
     1
 10
 2.70146728947657E+0000
 20
 5.77624673862010E+0000
 11
 2.67161242830480E+0000
 21
 5.74639187745197E+0000
  0
LINE
  8
1
  6
CONTINUOUS
 62
     1
 10
 2.69790294877748E+0000
 20
 5.79333660210978E+0000
 11
 2.67586208403736E+0000
 21
 5.77129573736602E+0000
  0
LINE
  8
1
  6
CONTINUOUS
 62
     1
 10
 2.69433860808567E+0000
 20
 5.81042646559945E+0000
 11
 2.68011173977357E+0000
 21
 5.79619959728734E+0000
  0
LINE
  8
1
  6
CONTINUOUS
 62
     1
 10
 2.69077426739022E+0000
 20
 5.82751632908912E+0000
 11
 2.68436139550977E+0000
 21
 5.82110345720866E+0000
  0
LINE
  8
1
  6
CONTINUOUS
 62
     1
 10
 2.69085808320960E+0000
 20
 4.96837349273119E+0000
 11
 2.69085808320960E+0000
 21
 4.96837349273119E+0000
  0
LINE
  8
1
  6
CONTINUOUS
 62
     1
 10
 2.69085808320960E+0000
 20
 4.96837349273119E+0000
 11
 2.71803960457328E+0000
 21
 5.12766281935910E+0000
  0
LINE
  8
1
  6
CONTINUOUS
 62
     1
 10
 2.71803960457328E+0000
 20
 5.12766281935910E+0000
 11
 2.65763596710167E+0000
 21
 5.12766281935910E+0000
  0
LINE
  8
1
  6
CONTINUOUS
 62
     1
 10
 2.65763596710167E+0000
 20
 5.12766281935910E+0000
 11
 2.69085808320960E+0000
 21
 4.96837349273119E+0000
  0
LINE
  8
1
  6
CONTINUOUS
 62
     1
 10
 2.71803960457328E+0000
 20
 5.12766281935910E+0000
 11
 2.65763596710167E+0000
 21
 5.12766281935910E+0000
  0
LINE
  8
1
  6
CONTINUOUS
 62
     1
 10
 2.69236344637466E+0000
 20
 4.97719523165870E+0000
 11
 2.68813661278546E+0000
 21
 4.98142206524790E+0000
  0
LINE
  8
1
  6
CONTINUOUS
 62
     1
 10
 2.69537417270840E+0000
 20
 4.99483870951372E+0000
 11
 2.68269367194080E+0000
 21
 5.00751921028132E+0000
  0
LINE
  8
1
  6
CONTINUOUS
 62
     1
 10
 2.69838489904214E+0000
 20
 5.01248218736146E+0000
 11
 2.67725073109250E+0000
 21
 5.03361635531473E+0000
  0
LINE
  8
1
  6
CONTINUOUS
 62
     1
 10
 2.70139562537588E+0000
 20
 5.03012566521647E+0000
 11
 2.67180779024784E+0000
 21
 5.05971350034088E+0000
  0
LINE
  8
1
  6
CONTINUOUS
 62
     1
 10
 2.70440635170598E+0000
 20
 5.04776914307149E+0000
 11
 2.66636484939954E+0000
 21
 5.08581064537429E+0000
  0
LINE
  8
1
  6
CONTINUOUS
 62
     1
 10
 2.70741707803973E+0000
 20
 5.06541262091923E+0000
 11
 2.66092190855125E+0000
 21
 5.11190779040771E+0000
  0
LINE
  8
1
  6
CONTINUOUS
 62
     1
 10
 2.71042780437347E+0000
 20
 5.08305609877425E+0000
 11
 2.66582108378861E+0000
 21
 5.12766281935910E+0000
  0
LINE
  8
1
  6
CONTINUOUS
 62
     1
 10
 2.71343853070357E+0000
 20
 5.10069957662927E+0000
 11
 2.68647528797010E+0000
 21
 5.12766281935910E+0000
  0
LINE
  8
1
  6
CONTINUOUS
 62
     1
 10
 2.71644925703731E+0000
 20
 5.11834305447701E+0000
 11
 2.70712949215522E+0000
 21
 5.12766281935910E+0000
  0
LINE
  8
1
  6
CONTINUOUS
 62
     1
 10
 2.69298291107771E+0000
 20
 4.98082542268821E+0000
 11
 2.68907591286188E+0000
 21
 4.97691842447239E+0000
  0
LINE
  8
1
  6
CONTINUOUS
 62
     1
 10
 2.69723256681391E+0000
 20
 5.00572928260954E+0000
 11
 2.68551157217007E+0000
 21
 4.99400828796934E+0000
  0
LINE
  8
1
  6
CONTINUOUS
 62
     1
 10
 2.70148222255011E+0000
 20
 5.03063314253086E+0000
 11
 2.68194723147099E+0000
 21
 5.01109815145173E+0000
  0
LINE
  8
1
  6
CONTINUOUS
 62
     1
 10
 2.70573187827904E+0000
 20
 5.05553700244491E+0000
 11
 2.67838289077554E+0000
 21
 5.02818801494141E+0000
  0
LINE
  8
1
  6
CONTINUOUS
 62
     1
 10
 2.70998153401524E+0000
 20
 5.08044086236623E+0000
 11
 2.67481855008373E+0000
 21
 5.04527787843836E+0000
  0
LINE
  8
1
  6
CONTINUOUS
 62
     1
 10
 2.71423118975144E+0000
 20
 5.10534472228755E+0000
 11
 2.67125420938828E+0000
 21
 5.06236774192803E+0000
  0
LINE
  8
1
  6
CONTINUOUS
 62
     1
 10
 2.71589508263423E+0000
 20
 5.12766281935910E+0000
 11
 2.66768986868919E+0000
 21
 5.07945760541043E+0000
  0
LINE
  8
1
  6
CONTINUOUS
 62
     1
 10
 2.69524087844911E+0000
 20
 5.12766281935910E+0000
 11
 2.66412552799738E+0000
 21
 5.09654746890737E+0000
  0
LINE
  8
1
  6
CONTINUOUS
 62
     1
 10
 2.67458667426035E+0000
 20
 5.12766281935910E+0000
 11
 2.66056118730194E+0000
 21
 5.11363733239705E+0000
  0
LINE
  8
1
  6
CONTINUOUS
 62
     1
 10
 4.19382204057911E+0000
 20
 2.02257303822989E+0000
 11
 4.19382204057911E+0000
 21
 2.47098141175593E+0000
  0
LINE
  8
1
  6
CONTINUOUS
 62
     1
 10
 4.19382204057911E+0000
 20
 2.47098141175593E+0000
 11
 2.94561544601311E+0000
 21
 2.47098141175593E+0000
  0
LINE
  8
1
  6
CONTINUOUS
 62
     1
 10
 2.94561544601311E+0000
 20
 2.47098141175593E+0000
 11
 2.94561544601311E+0000
 21
 2.02664352517604E+0000
  0
LINE
  8
1
  6
CONTINUOUS
 62
     1
 10
 2.94152460293117E+0000
 20
 2.47056682505354E+0000
 11
 2.94152460293117E+0000
 21
 2.47056682505354E+0000
  0
LINE
  8
1
  6
CONTINUOUS
 62
     1
 10
 2.94152460293117E+0000
 20
 2.47056682505354E+0000
 11
 3.10081392956636E+0000
 21
 2.44338530368987E+0000
  0
LINE
  8
1
  6
CONTINUOUS
 62
     1
 10
 3.10081392956636E+0000
 20
 2.44338530368987E+0000
 11
 3.10081392956636E+0000
 21
 2.50378894116147E+0000
  0
LINE
  8
1
  6
CONTINUOUS
 62
     1
 10
 3.10081392956636E+0000
 20
 2.50378894116147E+0000
 11
 2.94152460293117E+0000
 21
 2.47056682505354E+0000
  0
LINE
  8
1
  6
CONTINUOUS
 62
     1
 10
 3.10081392956636E+0000
 20
 2.44338530368987E+0000
 11
 3.10081392956636E+0000
 21
 2.50378894116147E+0000
  0
LINE
  8
1
  6
CONTINUOUS
 62
     1
 10
 2.95397653289183E+0000
 20
 2.46844199718544E+0000
 11
 2.95006953467600E+0000
 21
 2.47234899540126E+0000
  0
LINE
  8
1
  6
CONTINUOUS
 62
     1
 10
 2.97888039280951E+0000
 20
 2.46419234145287E+0000
 11
 2.96715939816568E+0000
 21
 2.47591333609671E+0000
  0
LINE
  8
1
  6
CONTINUOUS
 62
     1
 10
 3.00378425273084E+0000
 20
 2.45994268571667E+0000
 11
 2.98424926165899E+0000
 21
 2.47947767679216E+0000
  0
LINE
  8
1
  6
CONTINUOUS
 62
     1
 10
 3.02868811265216E+0000
 20
 2.45569302998410E+0000
 11
 3.00133912514866E+0000
 21
 2.48304201748397E+0000
  0
LINE
  8
1
  6
CONTINUOUS
 62
     1
 10
 3.05359197256985E+0000
 20
 2.45144337424790E+0000
 11
 3.01842898863833E+0000
 21
 2.48660635817942E+0000
  0
LINE
  8
1
  6
CONTINUOUS
 62
     1
 10
 3.07849583249117E+0000
 20
 2.44719371851170E+0000
 11
 3.03551885212801E+0000
 21
 2.49017069887486E+0000
  0
LINE
  8
1
  6
CONTINUOUS
 62
     1
 10
 3.10081392956999E+0000
 20
 2.44552982562163E+0000
 11
 3.05260871562132E+0000
 21
 2.49373503957031E+0000
  0
LINE
  8
1
  6
CONTINUOUS
 62
     1
 10
 3.10081392956999E+0000
 20
 2.46618402980675E+0000
 11
 3.06969857911099E+0000
 21
 2.49729938026576E+0000
  0
LINE
  8
1
  6
CONTINUOUS
 62
     1
 10
 3.10081392956999E+0000
 20
 2.48683823399188E+0000
 11
 3.08678844260066E+0000
 21
 2.50086372096121E+0000
  0
LINE
  8
1
  6
CONTINUOUS
 62
     1
 10
 3.10081392956272E+0000
 20
 2.45371240577879E+0000
 11
 3.09199219063521E+0000
 21
 2.44489066685492E+0000
  0
LINE
  8
1
  6
CONTINUOUS
 62
     1
 10
 3.10081392956272E+0000
 20
 2.47436660996391E+0000
 11
 3.07434871278383E+0000
 21
 2.44790139318502E+0000
  0
LINE
  8
1
  6
CONTINUOUS
 62
     1
 10
 3.10081392956272E+0000
 20
 2.49502081414903E+0000
 11
 3.05670523493245E+0000
 21
 2.45091211951876E+0000
  0
LINE
  8
1
  6
CONTINUOUS
 62
     1
 10
 3.08579554990865E+0000
 20
 2.50065663868008E+0000
 11
 3.03906175707743E+0000
 21
 2.45392284585250E+0000
  0
LINE
  8
1
  6
CONTINUOUS
 62
     1
 10
 3.05969840487523E+0000
 20
 2.49521369783542E+0000
 11
 3.02141827922605E+0000
 21
 2.45693357218261E+0000
  0
LINE
  8
1
  6
CONTINUOUS
 62
     1
 10
 3.03360125984545E+0000
 20
 2.48977075698713E+0000
 11
 3.00377480137468E+0000
 21
 2.45994429851635E+0000
  0
LINE
  8
1
  6
CONTINUOUS
 62
     1
 10
 3.00750411481567E+0000
 20
 2.48432781614247E+0000
 11
 2.98613132351966E+0000
 21
 2.46295502485009E+0000
  0
LINE
  8
1
  6
CONTINUOUS
 62
     1
 10
 2.98140696977862E+0000
 20
 2.47888487529417E+0000
 11
 2.96848784566828E+0000
 21
 2.46596575118019E+0000
  0
LINE
  8
1
  6
CONTINUOUS
 62
     1
 10
 2.95530982474884E+0000
 20
 2.47344193444951E+0000
 11
 2.95084436781690E+0000
 21
 2.46897647751393E+0000
  0
LINE
  8
1
  6
CONTINUOUS
 62
     1
 10
 4.18334211160982E+0000
 20
 2.46621210015655E+0000
 11
 4.18334211160982E+0000
 21
 2.46621210015655E+0000
  0
LINE
  8
1
  6
CONTINUOUS
 62
     1
 10
 4.18334211160982E+0000
 20
 2.46621210015655E+0000
 11
 4.02405278498190E+0000
 21
 2.49339362152023E+0000
  0
LINE
  8
1
  6
CONTINUOUS
 62
     1
 10
 4.02405278498190E+0000
 20
 2.49339362152023E+0000
 11
 4.02405278498190E+0000
 21
 2.43298998404862E+0000
  0
LINE
  8
1
  6
CONTINUOUS
 62
     1
 10
 4.02405278498190E+0000
 20
 2.43298998404862E+0000
 11
 4.18334211160982E+0000
 21
 2.46621210015655E+0000
  0
LINE
  8
1
  6
CONTINUOUS
 62
     1
 10
 4.02405278498190E+0000
 20
 2.49339362152023E+0000
 11
 4.02405278498190E+0000
 21
 2.43298998404862E+0000
  0
LINE
  8
1
  6
CONTINUOUS
 62
     1
 10
 4.03259771673038E+0000
 20
 2.43477215439270E+0000
 11
 4.02405278498190E+0000
 21
 2.44331708614118E+0000
  0
LINE
  8
1
  6
CONTINUOUS
 62
     1
 10
 4.04968758022005E+0000
 20
 2.43833649508815E+0000
 11
 4.02405278498190E+0000
 21
 2.46397129032266E+0000
  0
LINE
  8
1
  6
CONTINUOUS
 62
     1
 10
 4.06677744370973E+0000
 20
 2.44190083578360E+0000
 11
 4.02405278498190E+0000
 21
 2.48462549450778E+0000
  0
LINE
  8
1
  6
CONTINUOUS
 62
     1
 10
 4.08386730719940E+0000
 20
 2.44546517647905E+0000
 11
 4.03838445316069E+0000
 21
 2.49094803051412E+0000
  0
LINE
  8
1
  6
CONTINUOUS
 62
     1
 10
 4.10095717068907E+0000
 20
 2.44902951717449E+0000
 11
 4.06328831308201E+0000
 21
 2.48669837477792E+0000
  0
LINE
  8
1
  6
CONTINUOUS
 62
     1
 10
 4.11804703417874E+0000
 20
 2.45259385786994E+0000
 11
 4.08819217300334E+0000
 21
 2.48244871904171E+0000
  0
LINE
  8
1
  6
CONTINUOUS
 62
     1
 10
 4.13513689766842E+0000
 20
 2.45615819856539E+0000
 11
 4.11309603292466E+0000
 21
 2.47819906330915E+0000
  0
LINE
  8
1
  6
CONTINUOUS
 62
     1
 10
 4.15222676115809E+0000
 20
 2.45972253926084E+0000
 11
 4.13799989284598E+0000
 21
 2.47394940757295E+0000
  0
LINE
  8
1
  6
CONTINUOUS
 62
     1
 10
 4.16931662464776E+0000
 20
 2.46328687995265E+0000
 11
 4.16290375276731E+0000
 21
 2.46969975183674E+0000
  0
LINE
  8
1
  6
CONTINUOUS
 62
     1
 10
 4.17452037268231E+0000
 20
 2.46771746332161E+0000
 11
 4.17029353909311E+0000
 21
 2.46349062973241E+0000
  0
LINE
  8
1
  6
CONTINUOUS
 62
     1
 10
 4.15687689482729E+0000
 20
 2.47072818965171E+0000
 11
 4.14419639405969E+0000
 21
 2.45804768888411E+0000
  0
LINE
  8
1
  6
CONTINUOUS
 62
     1
 10
 4.13923341697227E+0000
 20
 2.47373891598545E+0000
 11
 4.11809924902627E+0000
 21
 2.45260474803581E+0000
  0
LINE
  8
1
  6
CONTINUOUS
 62
     1
 10
 4.12158993911726E+0000
 20
 2.47674964231555E+0000
 11
 4.09200210399285E+0000
 21
 2.44716180719479E+0000
  0
LINE
  8
1
  6
CONTINUOUS
 62
     1
 10
 4.10394646126224E+0000
 20
 2.47976036864929E+0000
 11
 4.06590495895944E+0000
 21
 2.44171886634649E+0000
  0
LINE
  8
1
  6
CONTINUOUS
 62
     1
 10
 4.08630298341450E+0000
 20
 2.48277109497940E+0000
 11
 4.03980781392602E+0000
 21
 2.43627592549819E+0000
  0
LINE
  8
1
  6
CONTINUOUS
 62
     1
 10
 4.06865950556676E+0000
 20
 2.48578182131678E+0000
 11
 4.02405278498190E+0000
 21
 2.44117510073193E+0000
  0
LINE
  8
1
  6
CONTINUOUS
 62
     1
 10
 4.05101602771174E+0000
 20
 2.48879254765052E+0000
 11
 4.02405278498190E+0000
 21
 2.46182930491705E+0000
  0
LINE
  8
1
  6
CONTINUOUS
 62
     1
 10
 4.03337254985672E+0000
 20
 2.49180327398062E+0000
 11
 4.02405278498190E+0000
 21
 2.48248350910217E+0000
  0
LINE
  8
1
  6
CONTINUOUS
 62
     1
 10
 3.47976272412052E+0000
 20
 4.75580011897546E+0000
 11
 3.47976272412052E+0000
 21
 4.34904223676131E+0000
  0
LINE
  8
1
  6
CONTINUOUS
 62
     1
 10
 3.47976272412052E+0000
 20
 4.34904223676131E+0000
 11
 4.27604744765267E+0000
 21
 4.34904223676131E+0000
  0
LINE
  8
1
  6
CONTINUOUS
 62
     1
 10
 4.27604744765267E+0000
 20
 4.34904223676131E+0000
 11
 4.27604744765267E+0000
 21
 4.70957763236220E+0000
  0
LINE
  8
1
  6
CONTINUOUS
 62
     1
 10
 5.22973729094520E+0000
 20
 2.56210588934846E+0000
 11
 5.60936140333069E+0000
 21
 2.56210588934846E+0000
  0
LINE
  8
1
  6
CONTINUOUS
 62
     1
 10
 5.60936140333069E+0000
 20
 2.56210588934846E+0000
 11
 5.60936140333069E+0000
 21
 1.68387864366014E+0000
  0
LINE
  8
1
  6
CONTINUOUS
 62
     1
 10
 5.60936140333069E+0000
 20
 1.68387864366014E+0000
 11
 5.26677378972818E+0000
 21
 1.68387864366014E+0000
  0
LINE
  8
1
  6
CONTINUOUS
 62
     1
 10
 5.78665945852117E+0000
 20
 2.80988478253857E+0000
 11
 5.92715052110725E+0000
 21
 2.80988478253857E+0000
  0
LINE
  8
1
  6
CONTINUOUS
 62
     1
 10
 5.78665945852117E+0000
 20
 1.43249167933391E+0000
 11
 5.93196836041898E+0000
 21
 1.43249167933391E+0000
  0
LINE
  8
1
  6
CONTINUOUS
 62
     1
 10
 5.60756866827433E+0000
 20
 2.56041621882105E+0000
 11
 5.60756866827433E+0000
 21
 2.56041621882105E+0000
  0
LINE
  8
1
  6
CONTINUOUS
 62
     1
 10
 5.60756866827433E+0000
 20
 2.56041621882105E+0000
 11
 5.58038714691065E+0000
 21
 2.40112689219313E+0000
  0
LINE
  8
1
  6
CONTINUOUS
 62
     1
 10
 5.58038714691065E+0000
 20
 2.40112689219313E+0000
 11
 5.64079078438226E+0000
 21
 2.40112689219313E+0000
  0
LINE
  8
1
  6
CONTINUOUS
 62
     1
 10
 5.64079078438226E+0000
 20
 2.40112689219313E+0000
 11
 5.60756866827433E+0000
 21
 2.56041621882105E+0000
  0
LINE
  8
1
  6
CONTINUOUS
 62
     1
 10
 5.58038714691065E+0000
 20
 2.40112689219313E+0000
 11
 5.64079078438226E+0000
 21
 2.40112689219313E+0000
  0
LINE
  8
1
  6
CONTINUOUS
 62
     1
 10
 5.59071424900321E+0000
 20
 2.40112689219677E+0000
 11
 5.58189251008298E+0000
 21
 2.40994863112428E+0000
  0
LINE
  8
1
  6
CONTINUOUS
 62
     1
 10
 5.61136845319561E+0000
 20
 2.40112689219677E+0000
 11
 5.58490323641308E+0000
 21
 2.42759210897930E+0000
  0
LINE
  8
1
  6
CONTINUOUS
 62
     1
 10
 5.63202265738073E+0000
 20
 2.40112689219677E+0000
 11
 5.58791396274319E+0000
 21
 2.44523558683068E+0000
  0
LINE
  8
1
  6
CONTINUOUS
 62
     1
 10
 5.63765848190087E+0000
 20
 2.41614527185448E+0000
 11
 5.59092468908057E+0000
 21
 2.46287906468206E+0000
  0
LINE
  8
1
  6
CONTINUOUS
 62
     1
 10
 5.63221554105257E+0000
 20
 2.44224241689153E+0000
 11
 5.59393541541067E+0000
 21
 2.48052254253707E+0000
  0
LINE
  8
1
  6
CONTINUOUS
 62
     1
 10
 5.62677260021155E+0000
 20
 2.46833956192131E+0000
 11
 5.59694614174077E+0000
 21
 2.49816602038845E+0000
  0
LINE
  8
1
  6
CONTINUOUS
 62
     1
 10
 5.62132965936325E+0000
 20
 2.49443670695109E+0000
 11
 5.59995686807815E+0000
 21
 2.51580949823983E+0000
  0
LINE
  8
1
  6
CONTINUOUS
 62
     1
 10
 5.61588671851496E+0000
 20
 2.52053385198451E+0000
 11
 5.60296759440826E+0000
 21
 2.53345297609485E+0000
  0
LINE
  8
1
  6
CONTINUOUS
 62
     1
 10
 5.61044377766666E+0000
 20
 2.54663099701793E+0000
 11
 5.60597832073836E+0000
 21
 2.55109645394623E+0000
  0
LINE
  8
1
  6
CONTINUOUS
 62
     1
 10
 5.63900861403090E+0000
 20
 2.40967182393797E+0000
 11
 5.63046368228243E+0000
 21
 2.40112689219313E+0000
  0
LINE
  8
1
  6
CONTINUOUS
 62
     1
 10
 5.63544427333545E+0000
 20
 2.42676168743128E+0000
 11
 5.60980947809730E+0000
 21
 2.40112689219313E+0000
  0
LINE
  8
1
  6
CONTINUOUS
 62
     1
 10
 5.63187993264000E+0000
 20
 2.44385155091732E+0000
 11
 5.58915527391218E+0000
 21
 2.40112689219313E+0000
  0
LINE
  8
1
  6
CONTINUOUS
 62
     1
 10
 5.62831559194456E+0000
 20
 2.46094141440699E+0000
 11
 5.58283273791312E+0000
 21
 2.41545856037555E+0000
  0
LINE
  8
1
  6
CONTINUOUS
 62
     1
 10
 5.62475125124911E+0000
 20
 2.47803127790030E+0000
 11
 5.58708239364933E+0000
 21
 2.44036242029688E+0000
  0
LINE
  8
1
  6
CONTINUOUS
 62
     1
 10
 5.62118691056094E+0000
 20
 2.49512114138997E+0000
 11
 5.59133204938553E+0000
 21
 2.46526628021820E+0000
  0
LINE
  8
1
  6
CONTINUOUS
 62
     1
 10
 5.61762256985821E+0000
 20
 2.51221100487965E+0000
 11
 5.59558170512173E+0000
 21
 2.49017014013953E+0000
  0
LINE
  8
1
  6
CONTINUOUS
 62
     1
 10
 5.61405822916277E+0000
 20
 2.52930086836932E+0000
 11
 5.59983136085793E+0000
 21
 2.51507400006085E+0000
  0
LINE
  8
1
  6
CONTINUOUS
 62
     1
 10
 5.61049388847459E+0000
 20
 2.54639073186263E+0000
 11
 5.60408101659414E+0000
 21
 2.53997785998217E+0000
  0
LINE
  8
1
  6
CONTINUOUS
 62
     1
 10
 5.60430164451100E+0000
 20
 1.68428716099152E+0000
 11
 5.60430164451100E+0000
 21
 1.68428716099152E+0000
  0
LINE
  8
1
  6
CONTINUOUS
 62
     1
 10
 5.60430164451100E+0000
 20
 1.68428716099152E+0000
 11
 5.63148316587467E+0000
 21
 1.84357648761943E+0000
  0
LINE
  8
1
  6
CONTINUOUS
 62
     1
 10
 5.63148316587467E+0000
 20
 1.84357648761943E+0000
 11
 5.57107952840306E+0000
 21
 1.84357648761943E+0000
  0
LINE
  8
1
  6
CONTINUOUS
 62
     1
 10
 5.57107952840306E+0000
 20
 1.84357648761943E+0000
 11
 5.60430164451100E+0000
 21
 1.68428716099152E+0000
  0
LINE
  8
1
  6
CONTINUOUS
 62
     1
 10
 5.63148316587467E+0000
 20
 1.84357648761943E+0000
 11
 5.57107952840306E+0000
 21
 1.84357648761943E+0000
  0
LINE
  8
1
  6
CONTINUOUS
 62
     1
 10
 5.60580700767605E+0000
 20
 1.69310889992084E+0000
 11
 5.60158017408685E+0000
 21
 1.69733573351004E+0000
  0
LINE
  8
1
  6
CONTINUOUS
 62
     1
 10
 5.60881773401343E+0000
 20
 1.71075237777040E+0000
 11
 5.59613723324583E+0000
 21
 1.72343287854164E+0000
  0
LINE
  8
1
  6
CONTINUOUS
 62
     1
 10
 5.61182846034353E+0000
 20
 1.72839585562542E+0000
 11
 5.59069429239753E+0000
 21
 1.74953002357324E+0000
  0
LINE
  8
1
  6
CONTINUOUS
 62
     1
 10
 5.61483918667363E+0000
 20
 1.74603933347862E+0000
 11
 5.58525135154923E+0000
 21
 1.77562716860484E+0000
  0
LINE
  8
1
  6
CONTINUOUS
 62
     1
 10
 5.61784991301101E+0000
 20
 1.76368281132818E+0000
 11
 5.57980841070093E+0000
 21
 1.80172431363826E+0000
  0
LINE
  8
1
  6
CONTINUOUS
 62
     1
 10
 5.62086063934112E+0000
 20
 1.78132628918320E+0000
 11
 5.57436546985991E+0000
 21
 1.82782145866986E+0000
  0
LINE
  8
1
  6
CONTINUOUS
 62
     1
 10
 5.62387136567122E+0000
 20
 1.79896976703640E+0000
 11
 5.57926464509364E+0000
 21
 1.84357648761943E+0000
  0
LINE
  8
1
  6
CONTINUOUS
 62
     1
 10
 5.62688209200860E+0000
 20
 1.81661324488778E+0000
 11
 5.59991884927149E+0000
 21
 1.84357648762125E+0000
  0
LINE
  8
1
  6
CONTINUOUS
 62
     1
 10
 5.62989281833870E+0000
 20
 1.83425672274097E+0000
 11
 5.62057305345661E+0000
 21
 1.84357648762307E+0000
  0
LINE
  8
1
  6
CONTINUOUS
 62
     1
 10
 5.60642647237546E+0000
 20
 1.69673909095218E+0000
 11
 5.60251947415964E+0000
 21
 1.69283209273635E+0000
  0
LINE
  8
1
  6
CONTINUOUS
 62
     1
 10
 5.61067612811166E+0000
 20
 1.72164295087350E+0000
 11
 5.59895513346419E+0000
 21
 1.70992195622784E+0000
  0
LINE
  8
1
  6
CONTINUOUS
 62
     1
 10
 5.61492578384787E+0000
 20
 1.74654681079301E+0000
 11
 5.59539079276874E+0000
 21
 1.72701181971570E+0000
  0
LINE
  8
1
  6
CONTINUOUS
 62
     1
 10
 5.61917543957679E+0000
 20
 1.77145067070887E+0000
 11
 5.59182645207329E+0000
 21
 1.74410168320719E+0000
  0
LINE
  8
1
  6
CONTINUOUS
 62
     1
 10
 5.62342509531300E+0000
 20
 1.79635453063020E+0000
 11
 5.58826211137784E+0000
 21
 1.76119154669868E+0000
  0
LINE
  8
1
  6
CONTINUOUS
 62
     1
 10
 5.62767475104920E+0000
 20
 1.82125839055152E+0000
 11
 5.58469777068967E+0000
 21
 1.77828141019017E+0000
  0
LINE
  8
1
  6
CONTINUOUS
 62
     1
 10
 5.62933864392835E+0000
 20
 1.84357648761943E+0000
 11
 5.58113342998695E+0000
 21
 1.79537127367621E+0000
  0
LINE
  8
1
  6
CONTINUOUS
 62
     1
 10
 5.60868443974323E+0000
 20
 1.84357648761943E+0000
 11
 5.57756908929150E+0000
 21
 1.81246113716770E+0000
  0
LINE
  8
1
  6
CONTINUOUS
 62
     1
 10
 5.58803023555811E+0000
 20
 1.84357648761943E+0000
 11
 5.57400474860333E+0000
 21
 1.82955100066101E+0000
  0
LINE
  8
1
  6
CONTINUOUS
 62
     1
 10
 3.47833728768455E+0000
 20
 4.34753780702158E+0000
 11
 3.47833728768455E+0000
 21
 4.34753780702158E+0000
  0
LINE
  8
1
  6
CONTINUOUS
 62
     1
 10
 3.47833728768455E+0000
 20
 4.34753780702158E+0000
 11
 3.63762661431974E+0000
 21
 4.32035628565791E+0000
  0
LINE
  8
1
  6
CONTINUOUS
 62
     1
 10
 3.63762661431974E+0000
 20
 4.32035628565791E+0000
 11
 3.63762661431974E+0000
 21
 4.38075992312952E+0000
  0
LINE
  8
1
  6
CONTINUOUS
 62
     1
 10
 3.63762661431974E+0000
 20
 4.38075992312952E+0000
 11
 3.47833728768455E+0000
 21
 4.34753780702158E+0000
  0
LINE
  8
1
  6
CONTINUOUS
 62
     1
 10
 3.63762661431974E+0000
 20
 4.32035628565791E+0000
 11
 3.63762661431974E+0000
 21
 4.38075992312952E+0000
  0
LINE
  8
1
  6
CONTINUOUS
 62
     1
 10
 3.49078921764522E+0000
 20
 4.34541297915712E+0000
 11
 3.48688221942939E+0000
 21
 4.34931997737294E+0000
  0
LINE
  8
1
  6
CONTINUOUS
 62
     1
 10
 3.51569307756654E+0000
 20
 4.34116332342091E+0000
 11
 3.50397208292270E+0000
 21
 4.35288431806839E+0000
  0
LINE
  8
1
  6
CONTINUOUS
 62
     1
 10
 3.54059693748786E+0000
 20
 4.33691366768471E+0000
 11
 3.52106194641237E+0000
 21
 4.35644865875656E+0000
  0
LINE
  8
1
  6
CONTINUOUS
 62
     1
 10
 3.56550079740555E+0000
 20
 4.33266401194851E+0000
 11
 3.53815180990205E+0000
 21
 4.36001299945201E+0000
  0
LINE
  8
1
  6
CONTINUOUS
 62
     1
 10
 3.59040465732687E+0000
 20
 4.32841435621231E+0000
 11
 3.55524167339172E+0000
 21
 4.36357734014746E+0000
  0
LINE
  8
1
  6
CONTINUOUS
 62
     1
 10
 3.61530851724820E+0000
 20
 4.32416470047610E+0000
 11
 3.57233153688139E+0000
 21
 4.36714168084291E+0000
  0
LINE
  8
1
  6
CONTINUOUS
 62
     1
 10
 3.63762661431974E+0000
 20
 4.32250080758968E+0000
 11
 3.58942140037470E+0000
 21
 4.37070602153835E+0000
  0
LINE
  8
1
  6
CONTINUOUS
 62
     1
 10
 3.63762661431974E+0000
 20
 4.34315501177480E+0000
 11
 3.60651126386438E+0000
 21
 4.37427036223380E+0000
  0
LINE
  8
1
  6
CONTINUOUS
 62
     1
 10
 3.63762661432338E+0000
 20
 4.36380921595992E+0000
 11
 3.62360112735405E+0000
 21
 4.37783470292925E+0000
  0
LINE
  8
1
  6
CONTINUOUS
 62
     1
 10
 3.63762661431974E+0000
 20
 4.33068338775047E+0000
 11
 3.62880487539223E+0000
 21
 4.32186164882296E+0000
  0
LINE
  8
1
  6
CONTINUOUS
 62
     1
 10
 3.63762661431610E+0000
 20
 4.35133759193559E+0000
 11
 3.61116139753722E+0000
 21
 4.32487237515306E+0000
  0
LINE
  8
1
  6
CONTINUOUS
 62
     1
 10
 3.63762661431610E+0000
 20
 4.37199179612071E+0000
 11
 3.59351791968584E+0000
 21
 4.32788310148317E+0000
  0
LINE
  8
1
  6
CONTINUOUS
 62
     1
 10
 3.62260823465840E+0000
 20
 4.37762762064813E+0000
 11
 3.57587444183082E+0000
 21
 4.33089382782055E+0000
  0
LINE
  8
1
  6
CONTINUOUS
 62
     1
 10
 3.59651108962498E+0000
 20
 4.37218467979983E+0000
 11
 3.55823096398308E+0000
 21
 4.33390455415065E+0000
  0
LINE
  8
1
  6
CONTINUOUS
 62
     1
 10
 3.57041394459884E+0000
 20
 4.36674173895153E+0000
 11
 3.54058748612806E+0000
 21
 4.33691528048803E+0000
  0
LINE
  8
1
  6
CONTINUOUS
 62
     1
 10
 3.54431679956178E+0000
 20
 4.36129879810323E+0000
 11
 3.52294400827668E+0000
 21
 4.33992600681813E+0000
  0
LINE
  8
1
  6
CONTINUOUS
 62
     1
 10
 3.51821965453564E+0000
 20
 4.35585585726221E+0000
 11
 3.50530053042166E+0000
 21
 4.34293673314824E+0000
  0
LINE
  8
1
  6
CONTINUOUS
 62
     1
 10
 3.49212250950586E+0000
 20
 4.35041291642119E+0000
 11
 3.48765705256665E+0000
 21
 4.34594745947834E+0000
  0
LINE
  8
1
  6
CONTINUOUS
 62
     1
 10
 4.27183345580124E+0000
 20
 4.05447679762437E+0000
 11
 4.27183345580124E+0000
 21
 4.05447679762437E+0000
  0
LINE
  8
1
  6
CONTINUOUS
 62
     1
 10
 4.27183345580124E+0000
 20
 4.05447679762437E+0000
 11
 4.11254412917333E+0000
 21
 4.08165831898805E+0000
  0
LINE
  8
1
  6
CONTINUOUS
 62
     1
 10
 4.11254412917333E+0000
 20
 4.08165831898805E+0000
 11
 4.11254412917333E+0000
 21
 4.02125468151644E+0000
  0
LINE
  8
1
  6
CONTINUOUS
 62
     1
 10
 4.11254412917333E+0000
 20
 4.02125468151644E+0000
 11
 4.27183345580124E+0000
 21
 4.05447679762437E+0000
  0
LINE
  8
1
  6
CONTINUOUS
 62
     1
 10
 4.11254412917333E+0000
 20
 4.08165831898805E+0000
 11
 4.11254412917333E+0000
 21
 4.02125468151644E+0000
  0
LINE
  8
1
  6
CONTINUOUS
 62
     1
 10
 4.12108906092180E+0000
 20
 4.02303685186780E+0000
 11
 4.11254412917333E+0000
 21
 4.03158178360900E+0000
  0
LINE
  8
1
  6
CONTINUOUS
 62
     1
 10
 4.13817892441148E+0000
 20
 4.02660119256325E+0000
 11
 4.11254412917333E+0000
 21
 4.05223598780140E+0000
  0
LINE
  8
1
  6
CONTINUOUS
 62
     1
 10
 4.15526878790115E+0000
 20
 4.03016553325870E+0000
 11
 4.11254412917333E+0000
 21
 4.07289019198652E+0000
  0
LINE
  8
1
  6
CONTINUOUS
 62
     1
 10
 4.17235865139082E+0000
 20
 4.03372987395414E+0000
 11
 4.12687579736667E+0000
 21
 4.07921272797830E+0000
  0
LINE
  8
1
  6
CONTINUOUS
 62
     1
 10
 4.18944851488050E+0000
 20
 4.03729421464232E+0000
 11
 4.15177965728799E+0000
 21
 4.07496307224210E+0000
  0
LINE
  8
1
  6
CONTINUOUS
 62
     1
 10
 4.20653837837017E+0000
 20
 4.04085855533776E+0000
 11
 4.17668351720204E+0000
 21
 4.07071341651317E+0000
  0
LINE
  8
1
  6
CONTINUOUS
 62
     1
 10
 4.22362824186712E+0000
 20
 4.04442289603321E+0000
 11
 4.20158737712336E+0000
 21
 4.06646376077697E+0000
  0
LINE
  8
1
  6
CONTINUOUS
 62
     1
 10
 4.24071810535679E+0000
 20
 4.04798723672866E+0000
 11
 4.22649123704468E+0000
 21
 4.06221410504077E+0000
  0
LINE
  8
1
  6
CONTINUOUS
 62
     1
 10
 4.25780796884646E+0000
 20
 4.05155157742411E+0000
 11
 4.25139509696601E+0000
 21
 4.05796444930456E+0000
  0
LINE
  8
1
  6
CONTINUOUS
 62
     1
 10
 4.26301171686646E+0000
 20
 4.05598216078215E+0000
 11
 4.25878488328453E+0000
 21
 4.05175532720023E+0000
  0
LINE
  8
1
  6
CONTINUOUS
 62
     1
 10
 4.24536823901872E+0000
 20
 4.05899288711953E+0000
 11
 4.23268773825112E+0000
 21
 4.04631238635193E+0000
  0
LINE
  8
1
  6
CONTINUOUS
 62
     1
 10
 4.22772476117098E+0000
 20
 4.06200361345691E+0000
 11
 4.20659059321770E+0000
 21
 4.04086944550363E+0000
  0
LINE
  8
1
  6
CONTINUOUS
 62
     1
 10
 4.21008128331596E+0000
 20
 4.06501433978701E+0000
 11
 4.18049344818428E+0000
 21
 4.03542650465533E+0000
  0
LINE
  8
1
  6
CONTINUOUS
 62
     1
 10
 4.19243780546094E+0000
 20
 4.06802506611712E+0000
 11
 4.15439630315086E+0000
 21
 4.02998356380704E+0000
  0
LINE
  8
1
  6
CONTINUOUS
 62
     1
 10
 4.17479432760592E+0000
 20
 4.07103579244722E+0000
 11
 4.12829915811744E+0000
 21
 4.02454062295874E+0000
  0
LINE
  8
1
  6
CONTINUOUS
 62
     1
 10
 4.15715084975091E+0000
 20
 4.07404651878460E+0000
 11
 4.11254412916605E+0000
 21
 4.02943979819975E+0000
  0
LINE
  8
1
  6
CONTINUOUS
 62
     1
 10
 4.13950737190316E+0000
 20
 4.07705724512198E+0000
 11
 4.11254412916605E+0000
 21
 4.05009400238487E+0000
  0
LINE
  8
1
  6
CONTINUOUS
 62
     1
 10
 4.12186389405542E+0000
 20
 4.08006797145208E+0000
 11
 4.11254412916605E+0000
 21
 4.07074820656999E+0000
  0
LINE
  8
1
  6
CONTINUOUS
 62
     1
 10
 7.47319422075088E+0000
 20
 6.08202669196908E+0000
 11
 7.47319422075088E+0000
 21
 6.50321799384983E+0000
  0
LINE
  8
1
  6
CONTINUOUS
 62
     1
 10
 7.47319422075088E+0000
 20
 6.50321799384983E+0000
 11
 7.70616043747577E+0000
 21
 6.50321799384983E+0000
  0
LINE
  8
1
  6
CONTINUOUS
 62
     1
 10
 7.70616043747577E+0000
 20
 6.50321799384983E+0000
 11
 7.70616043747577E+0000
 21
 6.08202669196908E+0000
  0
LINE
  8
1
  6
CONTINUOUS
 62
     1
 10
 7.70118743416242E+0000
 20
 6.50917247994948E+0000
 11
 7.70118743416242E+0000
 21
 6.50917247994948E+0000
  0
LINE
  8
1
  6
CONTINUOUS
 62
     1
 10
 7.70118743416242E+0000
 20
 6.50917247994948E+0000
 11
 7.86047676079761E+0000
 21
 6.48199095858581E+0000
  0
LINE
  8
1
  6
CONTINUOUS
 62
     1
 10
 7.86047676079761E+0000
 20
 6.48199095858581E+0000
 11
 7.86047676079761E+0000
 21
 6.54239459605742E+0000
  0
LINE
  8
1
  6
CONTINUOUS
 62
     1
 10
 7.86047676079761E+0000
 20
 6.54239459605742E+0000
 11
 7.70118743416242E+0000
 21
 6.50917247994948E+0000
  0
LINE
  8
1
  6
CONTINUOUS
 62
     1
 10
 7.86047676079761E+0000
 20
 6.48199095858581E+0000
 11
 7.86047676079761E+0000
 21
 6.54239459605742E+0000
  0
LINE
  8
1
  6
CONTINUOUS
 62
     1
 10
 7.71363936413400E+0000
 20
 6.50704765208502E+0000
 11
 7.70973236591817E+0000
 21
 6.51095465030085E+0000
  0
LINE
  8
1
  6
CONTINUOUS
 62
     1
 10
 7.73854322405532E+0000
 20
 6.50279799634882E+0000
 11
 7.72682222940784E+0000
 21
 6.51451899099629E+0000
  0
LINE
  8
1
  6
CONTINUOUS
 62
     1
 10
 7.76344708397664E+0000
 20
 6.49854834061261E+0000
 11
 7.74391209289752E+0000
 21
 6.51808333169174E+0000
  0
LINE
  8
1
  6
CONTINUOUS
 62
     1
 10
 7.78835094389797E+0000
 20
 6.49429868487641E+0000
 11
 7.76100195638719E+0000
 21
 6.52164767238719E+0000
  0
LINE
  8
1
  6
CONTINUOUS
 62
     1
 10
 7.81325480381201E+0000
 20
 6.49004902914749E+0000
 11
 7.77809181987686E+0000
 21
 6.52521201308264E+0000
  0
LINE
  8
1
  6
CONTINUOUS
 62
     1
 10
 7.83815866373334E+0000
 20
 6.48579937341128E+0000
 11
 7.79518168337381E+0000
 21
 6.52877635377081E+0000
  0
LINE
  8
1
  6
CONTINUOUS
 62
     1
 10
 7.86047676080489E+0000
 20
 6.48413548052486E+0000
 11
 7.81227154686349E+0000
 21
 6.53234069446626E+0000
  0
LINE
  8
1
  6
CONTINUOUS
 62
     1
 10
 7.86047676080489E+0000
 20
 6.50478968470998E+0000
 11
 7.82936141035316E+0000
 21
 6.53590503516170E+0000
  0
LINE
  8
1
  6
CONTINUOUS
 62
     1
 10
 7.86047676080489E+0000
 20
 6.52544388890237E+0000
 11
 7.84645127384283E+0000
 21
 6.53946937585715E+0000
  0
LINE
  8
1
  6
CONTINUOUS
 62
     1
 10
 7.86047676078306E+0000
 20
 6.49231806066382E+0000
 11
 7.85165502186283E+0000
 21
 6.48349632175086E+0000
  0
LINE
  8
1
  6
CONTINUOUS
 62
     1
 10
 7.86047676078306E+0000
 20
 6.51297226484894E+0000
 11
 7.83401154401508E+0000
 21
 6.48650704808097E+0000
  0
LINE
  8
1
  6
CONTINUOUS
 62
     1
 10
 7.86047676078306E+0000
 20
 6.53362646903406E+0000
 11
 7.81636806616007E+0000
 21
 6.48951777441107E+0000
  0
LINE
  8
1
  6
CONTINUOUS
 62
     1
 10
 7.84545838113263E+0000
 20
 6.53926229357603E+0000
 11
 7.79872458830505E+0000
 21
 6.49252850074117E+0000
  0
LINE
  8
1
  6
CONTINUOUS
 62
     1
 10
 7.81936123609194E+0000
 20
 6.53381935272046E+0000
 11
 7.78108111045003E+0000
 21
 6.49553922707855E+0000
  0
LINE
  8
1
  6
CONTINUOUS
 62
     1
 10
 7.79326409106579E+0000
 20
 6.52837641187944E+0000
 11
 7.76343763259501E+0000
 21
 6.49854995340866E+0000
  0
LINE
  8
1
  6
CONTINUOUS
 62
     1
 10
 7.76716694603965E+0000
 20
 6.52293347103114E+0000
 11
 7.74579415474727E+0000
 21
 6.50156067973876E+0000
  0
LINE
  8
1
  6
CONTINUOUS
 62
     1
 10
 7.74106980100623E+0000
 20
 6.51749053019012E+0000
 11
 7.72815067689226E+0000
 21
 6.50457140606886E+0000
  0
LINE
  8
1
  6
CONTINUOUS
 62
     1
 10
 7.71497265598009E+0000
 20
 6.51204758934909E+0000
 11
 7.71050719904451E+0000
 21
 6.50758213241352E+0000
  0
LINE
  8
1
  6
CONTINUOUS
 62
     1
 10
 7.50089628620481E+0000
 20
 6.50300567299564E+0000
 11
 7.49058612573572E+0000
 21
 6.50300567299564E+0000
  0
LINE
  8
1
  6
CONTINUOUS
 62
     1
 10
 7.46769086225686E+0000
 20
 6.50768385198899E+0000
 11
 7.46769086225686E+0000
 21
 6.50768385198899E+0000
  0
LINE
  8
1
  6
CONTINUOUS
 62
     1
 10
 7.46769086225686E+0000
 20
 6.50768385198899E+0000
 11
 7.30840153562895E+0000
 21
 6.53486537335266E+0000
  0
LINE
  8
1
  6
CONTINUOUS
 62
     1
 10
 7.30840153562895E+0000
 20
 6.53486537335266E+0000
 11
 7.30840153562895E+0000
 21
 6.47446173588105E+0000
  0
LINE
  8
1
  6
CONTINUOUS
 62
     1
 10
 7.30840153562895E+0000
 20
 6.47446173588105E+0000
 11
 7.46769086225686E+0000
 21
 6.50768385198899E+0000
  0
LINE
  8
1
  6
CONTINUOUS
 62
     1
 10
 7.30840153562895E+0000
 20
 6.53486537335266E+0000
 11
 7.30840153562895E+0000
 21
 6.47446173588105E+0000
  0
LINE
  8
1
  6
CONTINUOUS
 62
     1
 10
 7.31694646738470E+0000
 20
 6.47624390623241E+0000
 11
 7.30840153562895E+0000
 21
 6.48478883798816E+0000
  0
LINE
  8
1
  6
CONTINUOUS
 62
     1
 10
 7.33403633087437E+0000
 20
 6.47980824692786E+0000
 11
 7.30840153562895E+0000
 21
 6.50544304217328E+0000
  0
LINE
  8
1
  6
CONTINUOUS
 62
     1
 10
 7.35112619436404E+0000
 20
 6.48337258762331E+0000
 11
 7.30840153562895E+0000
 21
 6.52609724635840E+0000
  0
LINE
  8
1
  6
CONTINUOUS
 62
     1
 10
 7.36821605786099E+0000
 20
 6.48693692831876E+0000
 11
 7.32273320383683E+0000
 21
 6.53241978234291E+0000
  0
LINE
  8
1
  6
CONTINUOUS
 62
     1
 10
 7.38530592135066E+0000
 20
 6.49050126901420E+0000
 11
 7.34763706375816E+0000
 21
 6.52817012660671E+0000
  0
LINE
  8
1
  6
CONTINUOUS
 62
     1
 10
 7.40239578484034E+0000
 20
 6.49406560970237E+0000
 11
 7.37254092367220E+0000
 21
 6.52392047087051E+0000
  0
LINE
  8
1
  6
CONTINUOUS
 62
     1
 10
 7.41948564833001E+0000
 20
 6.49762995039782E+0000
 11
 7.39744478359353E+0000
 21
 6.51967081513430E+0000
  0
LINE
  8
1
  6
CONTINUOUS
 62
     1
 10
 7.43657551181968E+0000
 20
 6.50119429109327E+0000
 11
 7.42234864351485E+0000
 21
 6.51542115939810E+0000
  0
LINE
  8
1
  6
CONTINUOUS
 62
     1
 10
 7.45366537530936E+0000
 20
 6.50475863178872E+0000
 11
 7.44725250343618E+0000
 21
 6.51117150366190E+0000
  0
LINE
  8
1
  6
CONTINUOUS
 62
     1
 10
 7.45886912332935E+0000
 20
 6.50918921515404E+0000
 11
 7.45464228973287E+0000
 21
 6.50496238155756E+0000
  0
LINE
  8
1
  6
CONTINUOUS
 62
     1
 10
 7.44122564547433E+0000
 20
 6.51219994148414E+0000
 11
 7.42854514469946E+0000
 21
 6.49951944070926E+0000
  0
LINE
  8
1
  6
CONTINUOUS
 62
     1
 10
 7.42358216761932E+0000
 20
 6.51521066781424E+0000
 11
 7.40244799967331E+0000
 21
 6.49407649986824E+0000
  0
LINE
  8
1
  6
CONTINUOUS
 62
     1
 10
 7.40593868977157E+0000
 20
 6.51822139415162E+0000
 11
 7.37635085464717E+0000
 21
 6.48863355902722E+0000
  0
LINE
  8
1
  6
CONTINUOUS
 62
     1
 10
 7.38829521191656E+0000
 20
 6.52123212048173E+0000
 11
 7.35025370960648E+0000
 21
 6.48319061817165E+0000
  0
LINE
  8
1
  6
CONTINUOUS
 62
     1
 10
 7.37065173406154E+0000
 20
 6.52424284681183E+0000
 11
 7.32415656458033E+0000
 21
 6.47774767733063E+0000
  0
LINE
  8
1
  6
CONTINUOUS
 62
     1
 10
 7.35300825620652E+0000
 20
 6.52725357314193E+0000
 11
 7.30840153562167E+0000
 21
 6.48264685255708E+0000
  0
LINE
  8
1
  6
CONTINUOUS
 62
     1
 10
 7.33536477835150E+0000
 20
 6.53026429947931E+0000
 11
 7.30840153562167E+0000
 21
 6.50330105674220E+0000
  0
LINE
  8
1
  6
CONTINUOUS
 62
     1
 10
 7.31772130050376E+0000
 20
 6.53327502580942E+0000
 11
 7.30840153562167E+0000
 21
 6.52395526092732E+0000
  0
LINE
  8
1
  6
CONTINUOUS
 62
     1
 10
 8.71792483377794E+0000
 20
 6.08360975609685E+0000
 11
 9.36645490536466E+0000
 21
 6.08360975609685E+0000
  0
LINE
  8
1
  6
CONTINUOUS
 62
     1
 10
 9.36645490536466E+0000
 20
 6.08360975609685E+0000
 11
 9.36645490536466E+0000
 21
 4.71140463032498E+0000
  0
LINE
  8
1
  6
CONTINUOUS
 62
     1
 10
 9.36645490536466E+0000
 20
 4.71140463032498E+0000
 11
 8.72032302647131E+0000
 21
 4.71140463032498E+0000
  0
LINE
  8
1
  6
CONTINUOUS
 62
     1
 10
 9.36805780886789E+0000
 20
 4.70560691761784E+0000
 11
 9.36805780886789E+0000
 21
 4.70560691761784E+0000
  0
LINE
  8
1
  6
CONTINUOUS
 62
     1
 10
 9.36805780886789E+0000
 20
 4.70560691761784E+0000
 11
 9.39523933023156E+0000
 21
 4.86489624424576E+0000
  0
LINE
  8
1
  6
CONTINUOUS
 62
     1
 10
 9.39523933023156E+0000
 20
 4.86489624424576E+0000
 11
 9.33483569275995E+0000
 21
 4.86489624424576E+0000
  0
LINE
  8
1
  6
CONTINUOUS
 62
     1
 10
 9.33483569275995E+0000
 20
 4.86489624424576E+0000
 11
 9.36805780886789E+0000
 21
 4.70560691761784E+0000
  0
LINE
  8
1
  6
CONTINUOUS
 62
     1
 10
 9.39523933023156E+0000
 20
 4.86489624424576E+0000
 11
 9.33483569275995E+0000
 21
 4.86489624424576E+0000
  0
LINE
  8
1
  6
CONTINUOUS
 62
     1
 10
 9.36956317203294E+0000
 20
 4.71442865655263E+0000
 11
 9.36533633843646E+0000
 21
 4.71865549014183E+0000
  0
LINE
  8
1
  6
CONTINUOUS
 62
     1
 10
 9.37257389836304E+0000
 20
 4.73207213440037E+0000
 11
 9.35989339760272E+0000
 21
 4.74475263517525E+0000
  0
LINE
  8
1
  6
CONTINUOUS
 62
     1
 10
 9.37558462470770E+0000
 20
 4.74971561225539E+0000
 11
 9.35445045675442E+0000
 21
 4.77084978020139E+0000
  0
LINE
  8
1
  6
CONTINUOUS
 62
     1
 10
 9.37859535103780E+0000
 20
 4.76735909011040E+0000
 11
 9.34900751590612E+0000
 21
 4.79694692522753E+0000
  0
LINE
  8
1
  6
CONTINUOUS
 62
     1
 10
 9.38160607736791E+0000
 20
 4.78500256795814E+0000
 11
 9.34356457505783E+0000
 21
 4.82304407026095E+0000
  0
LINE
  8
1
  6
CONTINUOUS
 62
     1
 10
 9.38461680369801E+0000
 20
 4.80264604581316E+0000
 11
 9.33812163422408E+0000
 21
 4.84914121528709E+0000
  0
LINE
  8
1
  6
CONTINUOUS
 62
     1
 10
 9.38762753002811E+0000
 20
 4.82028952366090E+0000
 11
 9.34302080945054E+0000
 21
 4.86489624425303E+0000
  0
LINE
  8
1
  6
CONTINUOUS
 62
     1
 10
 9.39063825637277E+0000
 20
 4.83793300151592E+0000
 11
 9.36367501363566E+0000
 21
 4.86489624425303E+0000
  0
LINE
  8
1
  6
CONTINUOUS
 62
     1
 10
 9.39364898270287E+0000
 20
 4.85557647936366E+0000
 11
 9.38432921782078E+0000
 21
 4.86489624425303E+0000
  0
LINE
  8
1
  6
CONTINUOUS
 62
     1
 10
 9.37018263673235E+0000
 20
 4.71805884757487E+0000
 11
 9.36627563851653E+0000
 21
 4.71415184935904E+0000
  0
LINE
  8
1
  6
CONTINUOUS
 62
     1
 10
 9.37443229246128E+0000
 20
 4.74296270748891E+0000
 11
 9.36271129781380E+0000
 21
 4.73124171284871E+0000
  0
LINE
  8
1
  6
CONTINUOUS
 62
     1
 10
 9.37868194820476E+0000
 20
 4.76786656741024E+0000
 11
 9.35914695712563E+0000
 21
 4.74833157633839E+0000
  0
LINE
  8
1
  6
CONTINUOUS
 62
     1
 10
 9.38293160393368E+0000
 20
 4.79277042733156E+0000
 11
 9.35558261643746E+0000
 21
 4.76542143983534E+0000
  0
LINE
  8
1
  6
CONTINUOUS
 62
     1
 10
 9.38718125966261E+0000
 20
 4.81767428725288E+0000
 11
 9.35201827572018E+0000
 21
 4.78251130331046E+0000
  0
LINE
  8
1
  6
CONTINUOUS
 62
     1
 10
 9.39143091540609E+0000
 20
 4.84257814717421E+0000
 11
 9.34845393503201E+0000
 21
 4.79960116680741E+0000
  0
LINE
  8
1
  6
CONTINUOUS
 62
     1
 10
 9.39309480828524E+0000
 20
 4.86489624423848E+0000
 11
 9.34488959434384E+0000
 21
 4.81669103029708E+0000
  0
LINE
  8
1
  6
CONTINUOUS
 62
     1
 10
 9.37244060410012E+0000
 20
 4.86489624423848E+0000
 11
 9.34132525364112E+0000
 21
 4.83378089378675E+0000
  0
LINE
  8
1
  6
CONTINUOUS
 62
     1
 10
 9.35178639991500E+0000
 20
 4.86489624423848E+0000
 11
 9.33776091295294E+0000
 21
 4.85087075727643E+0000
  0
LINE
  8
1
  6
CONTINUOUS
 62
     1
 10
 9.36668412324798E+0000
 20
 6.09229248353950E+0000
 11
 9.36668412324798E+0000
 21
 6.09229248353950E+0000
  0
LINE
  8
1
  6
CONTINUOUS
 62
     1
 10
 9.36668412324798E+0000
 20
 6.09229248353950E+0000
 11
 9.33950260188431E+0000
 21
 5.93300315691158E+0000
  0
LINE
  8
1
  6
CONTINUOUS
 62
     1
 10
 9.33950260188431E+0000
 20
 5.93300315691158E+0000
 11
 9.39990623935591E+0000
 21
 5.93300315691158E+0000
  0
LINE
  8
1
  6
CONTINUOUS
 62
     1
 10
 9.39990623935591E+0000
 20
 5.93300315691158E+0000
 11
 9.36668412324798E+0000
 21
 6.09229248353950E+0000
  0
LINE
  8
1
  6
CONTINUOUS
 62
     1
 10
 9.33950260188431E+0000
 20
 5.93300315691158E+0000
 11
 9.39990623935591E+0000
 21
 5.93300315691158E+0000
  0
LINE
  8
1
  6
CONTINUOUS
 62
     1
 10
 9.34982970399142E+0000
 20
 5.93300315691886E+0000
 11
 9.34100796506391E+0000
 21
 5.94182489585364E+0000
  0
LINE
  8
1
  6
CONTINUOUS
 62
     1
 10
 9.37048390817654E+0000
 20
 5.93300315691158E+0000
 11
 9.34401869139401E+0000
 21
 5.95946837370866E+0000
  0
LINE
  8
1
  6
CONTINUOUS
 62
     1
 10
 9.39113811236166E+0000
 20
 5.93300315691158E+0000
 11
 9.34702941772412E+0000
 21
 5.97711185155640E+0000
  0
LINE
  8
1
  6
CONTINUOUS
 62
     1
 10
 9.39677393688180E+0000
 20
 5.94802153659111E+0000
 11
 9.35004014405422E+0000
 21
 5.99475532941142E+0000
  0
LINE
  8
1
  6
CONTINUOUS
 62
     1
 10
 9.39133099603350E+0000
 20
 5.97411868162453E+0000
 11
 9.35305087038432E+0000
 21
 6.01239880726644E+0000
  0
LINE
  8
1
  6
CONTINUOUS
 62
     1
 10
 9.38588805518521E+0000
 20
 6.00021582665067E+0000
 11
 9.35606159671443E+0000
 21
 6.03004228511418E+0000
  0
LINE
  8
1
  6
CONTINUOUS
 62
     1
 10
 9.38044511433691E+0000
 20
 6.02631297168409E+0000
 11
 9.35907232304453E+0000
 21
 6.04768576296919E+0000
  0
LINE
  8
1
  6
CONTINUOUS
 62
     1
 10
 9.37500217348861E+0000
 20
 6.05241011671751E+0000
 11
 9.36208304938918E+0000
 21
 6.06532924082421E+0000
  0
LINE
  8
1
  6
CONTINUOUS
 62
     1
 10
 9.36955923264031E+0000
 20
 6.07850726175093E+0000
 11
 9.36509377571929E+0000
 21
 6.08297271867923E+0000
  0
LINE
  8
1
  6
CONTINUOUS
 62
     1
 10
 9.39812406900455E+0000
 20
 5.94154808865278E+0000
 11
 9.38957913724880E+0000
 21
 5.93300315690431E+0000
  0
LINE
  8
1
  6
CONTINUOUS
 62
     1
 10
 9.39455972831638E+0000
 20
 5.95863795214973E+0000
 11
 9.36892493306368E+0000
 21
 5.93300315690431E+0000
  0
LINE
  8
1
  6
CONTINUOUS
 62
     1
 10
 9.39099538761366E+0000
 20
 5.97572781563940E+0000
 11
 9.34827072887856E+0000
 21
 5.93300315690431E+0000
  0
LINE
  8
1
  6
CONTINUOUS
 62
     1
 10
 9.38743104692549E+0000
 20
 5.99281767912908E+0000
 11
 9.34194819288678E+0000
 21
 5.94733482509037E+0000
  0
LINE
  8
1
  6
CONTINUOUS
 62
     1
 10
 9.38386670622276E+0000
 20
 6.00990754261147E+0000
 11
 9.34619784861570E+0000
 21
 5.97223868501169E+0000
  0
LINE
  8
1
  6
CONTINUOUS
 62
     1
 10
 9.38030236552004E+0000
 20
 6.02699740610115E+0000
 11
 9.35044750435918E+0000
 21
 5.99714254493301E+0000
  0
LINE
  8
1
  6
CONTINUOUS
 62
     1
 10
 9.37673802483187E+0000
 20
 6.04408726959809E+0000
 11
 9.35469716008811E+0000
 21
 6.02204640485434E+0000
  0
LINE
  8
1
  6
CONTINUOUS
 62
     1
 10
 9.37317368414369E+0000
 20
 6.06117713308777E+0000
 11
 9.35894681581703E+0000
 21
 6.04695026476838E+0000
  0
LINE
  8
1
  6
CONTINUOUS
 62
     1
 10
 9.36960934344097E+0000
 20
 6.07826699657744E+0000
 11
 9.36319647156051E+0000
 21
 6.07185412468971E+0000
  0
LINE
  8
1
  6
CONTINUOUS
 62
     1
 10
 3.31826648160131E+0000
 20
 1.42834696707905E+0000
 11
 3.31826648160131E+0000
 21
 8.58741322310379E-0001
  0
LINE
  8
1
  6
CONTINUOUS
 62
     1
 10
 3.31826648160131E+0000
 20
 8.58741322310379E-0001
 11
 3.64206770619785E+0000
 21
 8.58741322310379E-0001
  0
LINE
  8
1
  6
CONTINUOUS
 62
     1
 10
 3.64206770619785E+0000
 20
 8.58741322310379E-0001
 11
 3.64206770619785E+0000
 21
 1.42834696707905E+0000
  0
LINE
  8
1
  6
CONTINUOUS
 62
     1
 10
 4.18854311024916E+0000
 20
 1.62983653149058E+0000
 11
 4.18854311024916E+0000
 21
 1.01404664525398E+0000
  0
LINE
  8
1
  6
CONTINUOUS
 62
     1
 10
 4.18854311024916E+0000
 20
 1.01404664525398E+0000
 11
 4.36586282847566E+0000
 21
 1.01404664525398E+0000
  0
LINE
  8
1
  6
CONTINUOUS
 62
     1
 10
 4.36586282847566E+0000
 20
 1.01404664525398E+0000
 11
 4.36586282847566E+0000
 21
 1.62983653149058E+0000
  0
LINE
  8
1
  6
CONTINUOUS
 62
     1
 10
 3.30445307342598E+0000
 20
 8.57461022362259E-0001
 11
 3.30445307342598E+0000
 21
 8.57461022362259E-0001
  0
LINE
  8
1
  6
CONTINUOUS
 62
     1
 10
 3.30445307342598E+0000
 20
 8.57461022362259E-0001
 11
 3.14516374679806E+0000
 21
 8.84642543725931E-0001
  0
LINE
  8
1
  6
CONTINUOUS
 62
     1
 10
 3.14516374679806E+0000
 20
 8.84642543725931E-0001
 11
 3.14516374679806E+0000
 21
 8.24238906254323E-0001
  0
LINE
  8
1
  6
CONTINUOUS
 62
     1
 10
 3.14516374679806E+0000
 20
 8.24238906254323E-0001
 11
 3.30445307342598E+0000
 21
 8.57461022362259E-0001
  0
LINE
  8
1
  6
CONTINUOUS
 62
     1
 10
 3.14516374679806E+0000
 20
 8.84642543725931E-0001
 11
 3.14516374679806E+0000
 21
 8.24238906254323E-0001
  0
LINE
  8
1
  6
CONTINUOUS
 62
     1
 10
 3.15370867854290E+0000
 20
 8.26021076600227E-0001
 11
 3.14516374679806E+0000
 21
 8.34566008345973E-0001
  0
LINE
  8
1
  6
CONTINUOUS
 62
     1
 10
 3.17079854203621E+0000
 20
 8.29585417294766E-0001
 11
 3.14516374679806E+0000
 21
 8.55220212531094E-0001
  0
LINE
  8
1
  6
CONTINUOUS
 62
     1
 10
 3.18788840552588E+0000
 20
 8.33149757990213E-0001
 11
 3.14516374679806E+0000
 21
 8.75874416717124E-0001
  0
LINE
  8
1
  6
CONTINUOUS
 62
     1
 10
 3.20497826901556E+0000
 20
 8.36714098684752E-0001
 11
 3.15949541498412E+0000
 21
 8.82196952716185E-0001
  0
LINE
  8
1
  6
CONTINUOUS
 62
     1
 10
 3.22206813250523E+0000
 20
 8.40278439380199E-0001
 11
 3.18439927490181E+0000
 21
 8.77947296981802E-0001
  0
LINE
  8
1
  6
CONTINUOUS
 62
     1
 10
 3.23915799599490E+0000
 20
 8.43842780074738E-0001
 11
 3.20930313482313E+0000
 21
 8.73697641246508E-0001
  0
LINE
  8
1
  6
CONTINUOUS
 62
     1
 10
 3.25624785948821E+0000
 20
 8.47407120770185E-0001
 11
 3.23420699474445E+0000
 21
 8.69447985512124E-0001
  0
LINE
  8
1
  6
CONTINUOUS
 62
     1
 10
 3.27333772297789E+0000
 20
 8.50971461464724E-0001
 11
 3.25911085466578E+0000
 21
 8.65198329776831E-0001
  0
LINE
  8
1
  6
CONTINUOUS
 62
     1
 10
 3.29042758646756E+0000
 20
 8.54535802160171E-0001
 11
 3.28401471458710E+0000
 21
 8.60948674040628E-0001
  0
LINE
  8
1
  6
CONTINUOUS
 62
     1
 10
 3.29563133449483E+0000
 20
 8.58966385527310E-0001
 11
 3.29140450090563E+0000
 21
 8.54739551937200E-0001
  0
LINE
  8
1
  6
CONTINUOUS
 62
     1
 10
 3.27798785664345E+0000
 20
 8.61977111859233E-0001
 11
 3.26530735587585E+0000
 21
 8.49296611091631E-0001
  0
LINE
  8
1
  6
CONTINUOUS
 62
     1
 10
 3.26034437879207E+0000
 20
 8.64987838192974E-0001
 11
 3.23921021084243E+0000
 21
 8.43853670245153E-0001
  0
LINE
  8
1
  6
CONTINUOUS
 62
     1
 10
 3.24270090093705E+0000
 20
 8.67998564524896E-0001
 11
 3.21311306580901E+0000
 21
 8.38410729396855E-0001
  0
LINE
  8
1
  6
CONTINUOUS
 62
     1
 10
 3.22505742308567E+0000
 20
 8.71009290856819E-0001
 11
 3.18701592077923E+0000
 21
 8.32967788551287E-0001
  0
LINE
  8
1
  6
CONTINUOUS
 62
     1
 10
 3.20741394523429E+0000
 20
 8.74020017191469E-0001
 11
 3.16091877574581E+0000
 21
 8.27524847704808E-0001
  0
LINE
  8
1
  6
CONTINUOUS
 62
     1
 10
 3.18977046737928E+0000
 20
 8.77030743523392E-0001
 11
 3.14516374679442E+0000
 21
 8.32424022938540E-0001
  0
LINE
  8
1
  6
CONTINUOUS
 62
     1
 10
 3.17212698952790E+0000
 20
 8.80041469855314E-0001
 11
 3.14516374679442E+0000
 21
 8.53078227123660E-0001
  0
LINE
  8
1
  6
CONTINUOUS
 62
     1
 10
 3.15448351167652E+0000
 20
 8.83052196189055E-0001
 11
 3.14516374679442E+0000
 21
 8.73732431308781E-0001
  0
LINE
  8
1
  6
CONTINUOUS
 62
     1
 10
 4.17563255864661E+0000
 20
 1.01140849391959E+0000
 11
 4.17563255864661E+0000
 21
 1.01140849391959E+0000
  0
LINE
  8
1
  6
CONTINUOUS
 62
     1
 10
 4.17563255864661E+0000
 20
 1.01140849391959E+0000
 11
 4.01634323201870E+0000
 21
 1.03859001528326E+0000
  0
LINE
  8
1
  6
CONTINUOUS
 62
     1
 10
 4.01634323201870E+0000
 20
 1.03859001528326E+0000
 11
 4.01634323201870E+0000
 21
 9.78186377811653E-0001
  0
LINE
  8
1
  6
CONTINUOUS
 62
     1
 10
 4.01634323201870E+0000
 20
 9.78186377811653E-0001
 11
 4.17563255864661E+0000
 21
 1.01140849391959E+0000
  0
LINE
  8
1
  6
CONTINUOUS
 62
     1
 10
 4.01634323201870E+0000
 20
 1.03859001528326E+0000
 11
 4.01634323201870E+0000
 21
 9.78186377811653E-0001
  0
LINE
  8
1
  6
CONTINUOUS
 62
     1
 10
 4.02488816376717E+0000
 20
 9.79968548158467E-0001
 11
 4.01634323201870E+0000
 21
 9.88513479905123E-0001
  0
LINE
  8
1
  6
CONTINUOUS
 62
     1
 10
 4.04197802725685E+0000
 20
 9.83532888854825E-0001
 11
 4.01634323201870E+0000
 21
 1.00916768408933E+0000
  0
LINE
  8
1
  6
CONTINUOUS
 62
     1
 10
 4.05906789074652E+0000
 20
 9.87097229548453E-0001
 11
 4.01634323201870E+0000
 21
 1.02982188827627E+0000
  0
LINE
  8
1
  6
CONTINUOUS
 62
     1
 10
 4.07615775423619E+0000
 20
 9.90661570244811E-0001
 11
 4.03067490020476E+0000
 21
 1.03614442427534E+0000
  0
LINE
  8
1
  6
CONTINUOUS
 62
     1
 10
 4.09324761772586E+0000
 20
 9.94225910938439E-0001
 11
 4.05557876012608E+0000
 21
 1.03189476853913E+0000
  0
LINE
  8
1
  6
CONTINUOUS
 62
     1
 10
 4.11033748121554E+0000
 20
 9.97790251634797E-0001
 11
 4.08048262004741E+0000
 21
 1.02764511280657E+0000
  0
LINE
  8
1
  6
CONTINUOUS
 62
     1
 10
 4.12742734470521E+0000
 20
 1.00135459232843E+0000
 11
 4.10538647996873E+0000
 21
 1.02339545707036E+0000
  0
LINE
  8
1
  6
CONTINUOUS
 62
     1
 10
 4.14451720819488E+0000
 20
 1.00491893302569E+0000
 11
 4.13029033989005E+0000
 21
 1.01914580133598E+0000
  0
LINE
  8
1
  6
CONTINUOUS
 62
     1
 10
 4.16160707169183E+0000
 20
 1.00848327371932E+0000
 11
 4.15519419981138E+0000
 21
 1.01489614559978E+0000
  0
LINE
  8
1
  6
CONTINUOUS
 62
     1
 10
 4.16681081971183E+0000
 20
 1.01291385708464E+0000
 11
 4.16258398612263E+0000
 21
 1.00868702349362E+0000
  0
LINE
  8
1
  6
CONTINUOUS
 62
     1
 10
 4.14916734186409E+0000
 20
 1.01592458341838E+0000
 11
 4.13648684108921E+0000
 21
 1.00324408264714E+0000
  0
LINE
  8
1
  6
CONTINUOUS
 62
     1
 10
 4.13152386400907E+0000
 20
 1.01893530975030E+0000
 11
 4.11038969606307E+0000
 21
 9.97801141802483E-0001
  0
LINE
  8
1
  6
CONTINUOUS
 62
     1
 10
 4.11388038615405E+0000
 20
 1.02194603608223E+0000
 11
 4.08429255102965E+0000
 21
 9.92358200956005E-0001
  0
LINE
  8
1
  6
CONTINUOUS
 62
     1
 10
 4.09623690830631E+0000
 20
 1.02495676241597E+0000
 11
 4.05819540599623E+0000
 21
 9.86915260107708E-0001
  0
LINE
  8
1
  6
CONTINUOUS
 62
     1
 10
 4.07859343045129E+0000
 20
 1.02796748874789E+0000
 11
 4.03209826096281E+0000
 21
 9.81472319262139E-0001
  0
LINE
  8
1
  6
CONTINUOUS
 62
     1
 10
 4.06094995260355E+0000
 20
 1.03097821508345E+0000
 11
 4.01634323201870E+0000
 21
 9.86371494497689E-0001
  0
LINE
  8
1
  6
CONTINUOUS
 62
     1
 10
 4.04330647474853E+0000
 20
 1.03398894141355E+0000
 11
 4.01634323201870E+0000
 21
 1.00702569868372E+0000
  0
LINE
  8
1
  6
CONTINUOUS
 62
     1
 10
 4.02566299689352E+0000
 20
 1.03699966774548E+0000
 11
 4.01634323201870E+0000
 21
 1.02767990286884E+0000
  0
LINE
  8
1
  6
CONTINUOUS
 62
     1
 10
 3.63538436992167E+0000
 20
 8.61815747259243E-0001
 11
 3.63538436992167E+0000
 21
 8.61815747259243E-0001
  0
LINE
  8
1
  6
CONTINUOUS
 62
     1
 10
 3.63538436992167E+0000
 20
 8.61815747259243E-0001
 11
 3.79467369655686E+0000
 21
 8.34634225895570E-0001
  0
LINE
  8
1
  6
CONTINUOUS
 62
     1
 10
 3.79467369655686E+0000
 20
 8.34634225895570E-0001
 11
 3.79467369655686E+0000
 21
 8.95037863367179E-0001
  0
LINE
  8
1
  6
CONTINUOUS
 62
     1
 10
 3.79467369655686E+0000
 20
 8.95037863367179E-0001
 11
 3.63538436992167E+0000
 21
 8.61815747259243E-0001
  0
LINE
  8
1
  6
CONTINUOUS
 62
     1
 10
 3.79467369655686E+0000
 20
 8.34634225895570E-0001
 11
 3.79467369655686E+0000
 21
 8.95037863367179E-0001
  0
LINE
  8
1
  6
CONTINUOUS
 62
     1
 10
 3.64783629988233E+0000
 20
 8.59690919392960E-0001
 11
 3.64392930167014E+0000
 21
 8.63597917606967E-0001
  0
LINE
  8
1
  6
CONTINUOUS
 62
     1
 10
 3.67274015980365E+0000
 20
 8.55441263658577E-0001
 11
 3.66101916515981E+0000
 21
 8.67162258302415E-0001
  0
LINE
  8
1
  6
CONTINUOUS
 62
     1
 10
 3.69764401972498E+0000
 20
 8.51191607922374E-0001
 11
 3.67810902864949E+0000
 21
 8.70726598996953E-0001
  0
LINE
  8
1
  6
CONTINUOUS
 62
     1
 10
 3.72254787964630E+0000
 20
 8.46941952187080E-0001
 11
 3.69519889213916E+0000
 21
 8.74290939692401E-0001
  0
LINE
  8
1
  6
CONTINUOUS
 62
     1
 10
 3.74745173956399E+0000
 20
 8.42692296451787E-0001
 11
 3.71228875563247E+0000
 21
 8.77855280386029E-0001
  0
LINE
  8
1
  6
CONTINUOUS
 62
     1
 10
 3.77235559948531E+0000
 20
 8.38442640718313E-0001
 11
 3.72937861912214E+0000
 21
 8.81419621081477E-0001
  0
LINE
  8
1
  6
CONTINUOUS
 62
     1
 10
 3.79467369655686E+0000
 20
 8.36778747830976E-0001
 11
 3.74646848261182E+0000
 21
 8.84983961776015E-0001
  0
LINE
  8
1
  6
CONTINUOUS
 62
     1
 10
 3.79467369655686E+0000
 20
 8.57432952016097E-0001
 11
 3.76355834610149E+0000
 21
 8.88548302471463E-0001
  0
LINE
  8
1
  6
CONTINUOUS
 62
     1
 10
 3.79467369655686E+0000
 20
 8.78087156201218E-0001
 11
 3.78064820959480E+0000
 21
 8.92112643165092E-0001
  0
LINE
  8
1
  6
CONTINUOUS
 62
     1
 10
 3.79467369655322E+0000
 20
 8.44961327988131E-0001
 11
 3.78585195762571E+0000
 21
 8.36139589061531E-0001
  0
LINE
  8
1
  6
CONTINUOUS
 62
     1
 10
 3.79467369655322E+0000
 20
 8.65615532174161E-0001
 11
 3.76820847977069E+0000
 21
 8.39150315393454E-0001
  0
LINE
  8
1
  6
CONTINUOUS
 62
     1
 10
 3.79467369655322E+0000
 20
 8.86269736359282E-0001
 11
 3.75056500192295E+0000
 21
 8.42161041728104E-0001
  0
LINE
  8
1
  6
CONTINUOUS
 62
     1
 10
 3.77965531689551E+0000
 20
 8.91905560888517E-0001
 11
 3.73292152406793E+0000
 21
 8.45171768060027E-0001
  0
LINE
  8
1
  6
CONTINUOUS
 62
     1
 10
 3.75355817186573E+0000
 20
 8.86462620042948E-0001
 11
 3.71527804621292E+0000
 21
 8.48182494391949E-0001
  0
LINE
  8
1
  6
CONTINUOUS
 62
     1
 10
 3.72746102683232E+0000
 20
 8.81019679194651E-0001
 11
 3.69763456836154E+0000
 21
 8.51193220723871E-0001
  0
LINE
  8
1
  6
CONTINUOUS
 62
     1
 10
 3.70136388179890E+0000
 20
 8.75576738348173E-0001
 11
 3.67999109051016E+0000
 21
 8.54203947057613E-0001
  0
LINE
  8
1
  6
CONTINUOUS
 62
     1
 10
 3.67526673676912E+0000
 20
 8.70133797502604E-0001
 11
 3.66234761265514E+0000
 21
 8.57214673389535E-0001
  0
LINE
  8
1
  6
CONTINUOUS
 62
     1
 10
 3.64916959173570E+0000
 20
 8.64690856654306E-0001
 11
 3.64470413480376E+0000
 21
 8.60225399721458E-0001
  0
LINE
  8
1
  6
CONTINUOUS
 62
     1
 10
 4.36008234877954E+0000
 20
 1.01576321881657E+0000
 11
 4.36008234877954E+0000
 21
 1.01576321881657E+0000
  0
LINE
  8
1
  6
CONTINUOUS
 62
     1
 10
 4.36008234877954E+0000
 20
 1.01576321881657E+0000
 11
 4.51937167541473E+0000
 21
 9.88581697452901E-0001
  0
LINE
  8
1
  6
CONTINUOUS
 62
     1
 10
 4.51937167541473E+0000
 20
 9.88581697452901E-0001
 11
 4.51937167541473E+0000
 21
 1.04898533492451E+0000
  0
LINE
  8
1
  6
CONTINUOUS
 62
     1
 10
 4.51937167541473E+0000
 20
 1.04898533492451E+0000
 11
 4.36008234877954E+0000
 21
 1.01576321881657E+0000
  0
LINE
  8
1
  6
CONTINUOUS
 62
     1
 10
 4.51937167541473E+0000
 20
 9.88581697452901E-0001
 11
 4.51937167541473E+0000
 21
 1.04898533492451E+0000
  0
LINE
  8
1
  6
CONTINUOUS
 62
     1
 10
 4.37253427874384E+0000
 20
 1.01363839095029E+0000
 11
 4.36862728052802E+0000
 21
 1.01754538916430E+0000
  0
LINE
  8
1
  6
CONTINUOUS
 62
     1
 10
 4.39743813866517E+0000
 20
 1.00938873521409E+0000
 11
 4.38571714401769E+0000
 21
 1.02110972986156E+0000
  0
LINE
  8
1
  6
CONTINUOUS
 62
     1
 10
 4.42234199857921E+0000
 20
 1.00513907948152E+0000
 11
 4.40280700750736E+0000
 21
 1.02467407055519E+0000
  0
LINE
  8
1
  6
CONTINUOUS
 62
     1
 10
 4.44724585850054E+0000
 20
 1.00088942374532E+0000
 11
 4.41989687100431E+0000
 21
 1.02823841124882E+0000
  0
LINE
  8
1
  6
CONTINUOUS
 62
     1
 10
 4.47214971842186E+0000
 20
 9.96639768010027E-0001
 11
 4.43698673448671E+0000
 21
 1.03180275194427E+0000
  0
LINE
  8
1
  6
CONTINUOUS
 62
     1
 10
 4.49705357834318E+0000
 20
 9.92390112274734E-0001
 11
 4.45407659798366E+0000
 21
 1.03536709263790E+0000
  0
LINE
  8
1
  6
CONTINUOUS
 62
     1
 10
 4.51937167541473E+0000
 20
 9.90726219389217E-0001
 11
 4.47116646147333E+0000
 21
 1.03893143333153E+0000
  0
LINE
  8
1
  6
CONTINUOUS
 62
     1
 10
 4.51937167541473E+0000
 20
 1.01138042357525E+0000
 11
 4.48825632496300E+0000
 21
 1.04249577402879E+0000
  0
LINE
  8
1
  6
CONTINUOUS
 62
     1
 10
 4.51937167541473E+0000
 20
 1.03203462775855E+0000
 11
 4.50534618845268E+0000
 21
 1.04606011472242E+0000
  0
LINE
  8
1
  6
CONTINUOUS
 62
     1
 10
 4.51937167540746E+0000
 20
 9.98908799546371E-0001
 11
 4.51054993648722E+0000
 21
 9.90087060619771E-0001
  0
LINE
  8
1
  6
CONTINUOUS
 62
     1
 10
 4.51937167540746E+0000
 20
 1.01956300372876E+0000
 11
 4.49290645863221E+0000
 21
 9.93097786951694E-0001
  0
LINE
  8
1
  6
CONTINUOUS
 62
     1
 10
 4.51937167540746E+0000
 20
 1.04021720791570E+0000
 11
 4.47526298077719E+0000
 21
 9.96108513283616E-0001
  0
LINE
  8
1
  6
CONTINUOUS
 62
     1
 10
 4.50435329574975E+0000
 20
 1.04585303244494E+0000
 11
 4.45761950292217E+0000
 21
 9.99119239615538E-0001
  0
LINE
  8
1
  6
CONTINUOUS
 62
     1
 10
 4.47825615072361E+0000
 20
 1.04041009159846E+0000
 11
 4.43997602507443E+0000
 21
 1.00212996594928E+0000
  0
LINE
  8
1
  6
CONTINUOUS
 62
     1
 10
 4.45215900569019E+0000
 20
 1.03496715075016E+0000
 11
 4.42233254721941E+0000
 21
 1.00514069228120E+0000
  0
LINE
  8
1
  6
CONTINUOUS
 62
     1
 10
 4.42606186065677E+0000
 20
 1.02952420990368E+0000
 11
 4.40468906936439E+0000
 21
 1.00815141861312E+0000
  0
LINE
  8
1
  6
CONTINUOUS
 62
     1
 10
 4.39996471562336E+0000
 20
 1.02408126905902E+0000
 11
 4.38704559150938E+0000
 21
 1.01116214494505E+0000
  0
LINE
  8
1
  6
CONTINUOUS
 62
     1
 10
 4.37386757058994E+0000
 20
 1.01863832821073E+0000
 11
 4.36940211366164E+0000
 21
 1.01417287127697E+0000
  0
LINE
  8
1
  6
CONTINUOUS
 62
     1
 10
 8.71619160080445E+0000
 20
 4.71088026314101E+0000
 11
 8.71619160080445E+0000
 21
 4.06879513335298E+0000
  0
LINE
  8
1
  6
CONTINUOUS
 62
     1
 10
 8.71619160080445E+0000
 20
 4.06879513335298E+0000
 11
 8.52046518294082E+0000
 21
 4.06879513335298E+0000
  0
LINE
  8
1
  6
CONTINUOUS
 62
     1
 10
 8.52046518294082E+0000
 20
 4.06879513335298E+0000
 11
 8.52046518294082E+0000
 21
 4.80021384641441E+0000
  0
LINE
  8
1
  6
CONTINUOUS
 62
     1
 10
 8.52077861021098E+0000
 20
 4.06840137195832E+0000
 11
 8.52077861021098E+0000
 21
 4.06840137195832E+0000
  0
LINE
  8
1
  6
CONTINUOUS
 62
     1
 10
 8.52077861021098E+0000
 20
 4.06840137195832E+0000
 11
 8.36148928357579E+0000
 21
 4.09558289332199E+0000
  0
LINE
  8
1
  6
CONTINUOUS
 62
     1
 10
 8.36148928357579E+0000
 20
 4.09558289332199E+0000
 11
 8.36148928357579E+0000
 21
 4.03517925585038E+0000
  0
LINE
  8
1
  6
CONTINUOUS
 62
     1
 10
 8.36148928357579E+0000
 20
 4.03517925585038E+0000
 11
 8.52077861021098E+0000
 21
 4.06840137195832E+0000
  0
LINE
  8
1
  6
CONTINUOUS
 62
     1
 10
 8.36148928357579E+0000
 20
 4.09558289332199E+0000
 11
 8.36148928357579E+0000
 21
 4.03517925585038E+0000
  0
LINE
  8
1
  6
CONTINUOUS
 62
     1
 10
 8.37003421533154E+0000
 20
 4.03696142619447E+0000
 11
 8.36148928357579E+0000
 21
 4.04550635795022E+0000
  0
LINE
  8
1
  6
CONTINUOUS
 62
     1
 10
 8.38712407881394E+0000
 20
 4.04052576688991E+0000
 11
 8.36148928357579E+0000
 21
 4.06616056212806E+0000
  0
LINE
  8
1
  6
CONTINUOUS
 62
     1
 10
 8.40421394231089E+0000
 20
 4.04409010758536E+0000
 11
 8.36148928357579E+0000
 21
 4.08681476631318E+0000
  0
LINE
  8
1
  6
CONTINUOUS
 62
     1
 10
 8.42130380579329E+0000
 20
 4.04765444828081E+0000
 11
 8.37582095175458E+0000
 21
 4.09313730231952E+0000
  0
LINE
  8
1
  6
CONTINUOUS
 62
     1
 10
 8.43839366929024E+0000
 20
 4.05121878897626E+0000
 11
 8.40072481168318E+0000
 21
 4.08888764658332E+0000
  0
LINE
  8
1
  6
CONTINUOUS
 62
     1
 10
 8.45548353277263E+0000
 20
 4.05478312967170E+0000
 11
 8.42562867159722E+0000
 21
 4.08463799084711E+0000
  0
LINE
  8
1
  6
CONTINUOUS
 62
     1
 10
 8.47257339626958E+0000
 20
 4.05834747036715E+0000
 11
 8.45053253152582E+0000
 21
 4.08038833511091E+0000
  0
LINE
  8
1
  6
CONTINUOUS
 62
     1
 10
 8.48966325976653E+0000
 20
 4.06191181106260E+0000
 11
 8.47543639145442E+0000
 21
 4.07613867937471E+0000
  0
LINE
  8
1
  6
CONTINUOUS
 62
     1
 10
 8.50675312324893E+0000
 20
 4.06547615175077E+0000
 11
 8.50034025136847E+0000
 21
 4.07188902363851E+0000
  0
LINE
  8
1
  6
CONTINUOUS
 62
     1
 10
 8.51195687128347E+0000
 20
 4.06990673512337E+0000
 11
 8.50773003768700E+0000
 21
 4.06567990152689E+0000
  0
LINE
  8
1
  6
CONTINUOUS
 62
     1
 10
 8.49431339342846E+0000
 20
 4.07291746145347E+0000
 11
 8.48163289265358E+0000
 21
 4.06023696068587E+0000
  0
LINE
  8
1
  6
CONTINUOUS
 62
     1
 10
 8.47666991557344E+0000
 20
 4.07592818779085E+0000
 11
 8.45553574762016E+0000
 21
 4.05479401983757E+0000
  0
LINE
  8
1
  6
CONTINUOUS
 62
     1
 10
 8.45902643771842E+0000
 20
 4.07893891412095E+0000
 11
 8.42943860258674E+0000
 21
 4.04935107898928E+0000
  0
LINE
  8
1
  6
CONTINUOUS
 62
     1
 10
 8.44138295986340E+0000
 20
 4.08194964045106E+0000
 11
 8.40334145755332E+0000
 21
 4.04390813814098E+0000
  0
LINE
  8
1
  6
CONTINUOUS
 62
     1
 10
 8.42373948200839E+0000
 20
 4.08496036678116E+0000
 11
 8.37724431253446E+0000
 21
 4.03846519729996E+0000
  0
LINE
  8
1
  6
CONTINUOUS
 62
     1
 10
 8.40609600415337E+0000
 20
 4.08797109311854E+0000
 11
 8.36148928356124E+0000
 21
 4.04336437251914E+0000
  0
LINE
  8
1
  6
CONTINUOUS
 62
     1
 10
 8.38845252631290E+0000
 20
 4.09098181944864E+0000
 11
 8.36148928356124E+0000
 21
 4.06401857670426E+0000
  0
LINE
  8
1
  6
CONTINUOUS
 62
     1
 10
 8.37080904845789E+0000
 20
 4.09399254577875E+0000
 11
 8.36148928356124E+0000
 21
 4.08467278088938E+0000
  0
LINE
  8
1
  6
CONTINUOUS
 62
     1
 10
 8.71994349351735E+0000
 20
 4.06737847477052E+0000
 11
 8.71994349351735E+0000
 21
 4.06737847477052E+0000
  0
LINE
  8
1
  6
CONTINUOUS
 62
     1
 10
 8.71994349351735E+0000
 20
 4.06737847477052E+0000
 11
 8.87923282015254E+0000
 21
 4.04019695340685E+0000
  0
LINE
  8
1
  6
CONTINUOUS
 62
     1
 10
 8.87923282015254E+0000
 20
 4.04019695340685E+0000
 11
 8.87923282015254E+0000
 21
 4.10060059087846E+0000
  0
LINE
  8
1
  6
CONTINUOUS
 62
     1
 10
 8.87923282015254E+0000
 20
 4.10060059087846E+0000
 11
 8.71994349351735E+0000
 21
 4.06737847477052E+0000
  0
LINE
  8
1
  6
CONTINUOUS
 62
     1
 10
 8.87923282015254E+0000
 20
 4.04019695340685E+0000
 11
 8.87923282015254E+0000
 21
 4.10060059087846E+0000
  0
LINE
  8
1
  6
CONTINUOUS
 62
     1
 10
 8.73239542348892E+0000
 20
 4.06525364690606E+0000
 11
 8.72848842527310E+0000
 21
 4.06916064512188E+0000
  0
LINE
  8
1
  6
CONTINUOUS
 62
     1
 10
 8.75729928341752E+0000
 20
 4.06100399116986E+0000
 11
 8.74557828877005E+0000
 21
 4.07272498581733E+0000
  0
LINE
  8
1
  6
CONTINUOUS
 62
     1
 10
 8.78220314334612E+0000
 20
 4.05675433542638E+0000
 11
 8.76266815225245E+0000
 21
 4.07628932651278E+0000
  0
LINE
  8
1
  6
CONTINUOUS
 62
     1
 10
 8.80710700326017E+0000
 20
 4.05250467969017E+0000
 11
 8.77975801574939E+0000
 21
 4.07985366720823E+0000
  0
LINE
  8
1
  6
CONTINUOUS
 62
     1
 10
 8.83201086318877E+0000
 20
 4.04825502396125E+0000
 11
 8.79684787923179E+0000
 21
 4.08341800790367E+0000
  0
LINE
  8
1
  6
CONTINUOUS
 62
     1
 10
 8.85691472310282E+0000
 20
 4.04400536821777E+0000
 11
 8.81393774272874E+0000
 21
 4.08698234859912E+0000
  0
LINE
  8
1
  6
CONTINUOUS
 62
     1
 10
 8.87923282015254E+0000
 20
 4.04234147536044E+0000
 11
 8.83102760622569E+0000
 21
 4.09054668928729E+0000
  0
LINE
  8
1
  6
CONTINUOUS
 62
     1
 10
 8.87923282015254E+0000
 20
 4.06299567953829E+0000
 11
 8.84811746970809E+0000
 21
 4.09411102998274E+0000
  0
LINE
  8
1
  6
CONTINUOUS
 62
     1
 10
 8.87923282015254E+0000
 20
 4.08364988372341E+0000
 11
 8.86520733320503E+0000
 21
 4.09767537067819E+0000
  0
LINE
  8
1
  6
CONTINUOUS
 62
     1
 10
 8.87923282013799E+0000
 20
 4.05052405549213E+0000
 11
 8.87041108122503E+0000
 21
 4.04170231657190E+0000
  0
LINE
  8
1
  6
CONTINUOUS
 62
     1
 10
 8.87923282013799E+0000
 20
 4.07117825967725E+0000
 11
 8.85276760337001E+0000
 21
 4.04471304290200E+0000
  0
LINE
  8
1
  6
CONTINUOUS
 62
     1
 10
 8.87923282013799E+0000
 20
 4.09183246386237E+0000
 11
 8.83512412551499E+0000
 21
 4.04772376923938E+0000
  0
LINE
  8
1
  6
CONTINUOUS
 62
     1
 10
 8.86421444048756E+0000
 20
 4.09746828839707E+0000
 11
 8.81748064765998E+0000
 21
 4.05073449556949E+0000
  0
LINE
  8
1
  6
CONTINUOUS
 62
     1
 10
 8.83811729545414E+0000
 20
 4.09202534754149E+0000
 11
 8.79983716980496E+0000
 21
 4.05374522189959E+0000
  0
LINE
  8
1
  6
CONTINUOUS
 62
     1
 10
 8.81202015042072E+0000
 20
 4.08658240670047E+0000
 11
 8.78219369194994E+0000
 21
 4.05675594822969E+0000
  0
LINE
  8
1
  6
CONTINUOUS
 62
     1
 10
 8.78592300538730E+0000
 20
 4.08113946585945E+0000
 11
 8.76455021409492E+0000
 21
 4.05976667456707E+0000
  0
LINE
  8
1
  6
CONTINUOUS
 62
     1
 10
 8.75982586036844E+0000
 20
 4.07569652501115E+0000
 11
 8.74690673623991E+0000
 21
 4.06277740089718E+0000
  0
LINE
  8
1
  6
CONTINUOUS
 62
     1
 10
 8.73372871533502E+0000
 20
 4.07025358417013E+0000
 11
 8.72926325838489E+0000
 21
 4.06578812722728E+0000
  0
LINE
  8
1
  6
CONTINUOUS
 62
     1
 10
 4.27313738865632E+0000
 20
 4.34847425312910E+0000
 11
 4.27313738865632E+0000
 21
 4.04939374065725E+0000
  0
LINE
  8
1
  6
CONTINUOUS
 62
     1
 10
 4.27313738865632E+0000
 20
 4.04939374065725E+0000
 11
 4.51155771323101E+0000
 21
 4.04939374065725E+0000
  0
LINE
  8
1
  6
CONTINUOUS
 62
     1
 10
 4.51155771323101E+0000
 20
 4.04939374065725E+0000
 11
 4.51155771323101E+0000
 21
 4.70859160488180E+0000
  0
LINE
  8
1
  6
CONTINUOUS
 62
     1
 10
 4.26572011414828E+0000
 20
 4.35355731009622E+0000
 11
 4.26572011414828E+0000
 21
 4.35355731009622E+0000
  0
LINE
  8
1
  6
CONTINUOUS
 62
     1
 10
 4.26572011414828E+0000
 20
 4.35355731009622E+0000
 11
 4.10643078752037E+0000
 21
 4.38073883145989E+0000
  0
LINE
  8
1
  6
CONTINUOUS
 62
     1
 10
 4.10643078752037E+0000
 20
 4.38073883145989E+0000
 11
 4.10643078752037E+0000
 21
 4.32033519398829E+0000
  0
LINE
  8
1
  6
CONTINUOUS
 62
     1
 10
 4.10643078752037E+0000
 20
 4.32033519398829E+0000
 11
 4.26572011414828E+0000
 21
 4.35355731009622E+0000
  0
LINE
  8
1
  6
CONTINUOUS
 62
     1
 10
 4.10643078752037E+0000
 20
 4.38073883145989E+0000
 11
 4.10643078752037E+0000
 21
 4.32033519398829E+0000
  0
LINE
  8
1
  6
CONTINUOUS
 62
     1
 10
 4.11497571926884E+0000
 20
 4.32211736433965E+0000
 11
 4.10643078752037E+0000
 21
 4.33066229608085E+0000
  0
LINE
  8
1
  6
CONTINUOUS
 62
     1
 10
 4.13206558275851E+0000
 20
 4.32568170503509E+0000
 11
 4.10643078752037E+0000
 21
 4.35131650027324E+0000
  0
LINE
  8
1
  6
CONTINUOUS
 62
     1
 10
 4.14915544624819E+0000
 20
 4.32924604573054E+0000
 11
 4.10643078752037E+0000
 21
 4.37197070445836E+0000
  0
LINE
  8
1
  6
CONTINUOUS
 62
     1
 10
 4.16624530973786E+0000
 20
 4.33281038642599E+0000
 11
 4.12076245571370E+0000
 21
 4.37829324045015E+0000
  0
LINE
  8
1
  6
CONTINUOUS
 62
     1
 10
 4.18333517322753E+0000
 20
 4.33637472711416E+0000
 11
 4.14566631562775E+0000
 21
 4.37404358471395E+0000
  0
LINE
  8
1
  6
CONTINUOUS
 62
     1
 10
 4.20042503671721E+0000
 20
 4.33993906780961E+0000
 11
 4.17057017554907E+0000
 21
 4.36979392897774E+0000
  0
LINE
  8
1
  6
CONTINUOUS
 62
     1
 10
 4.21751490020688E+0000
 20
 4.34350340850506E+0000
 11
 4.19547403547040E+0000
 21
 4.36554427324882E+0000
  0
LINE
  8
1
  6
CONTINUOUS
 62
     1
 10
 4.23460476370383E+0000
 20
 4.34706774920051E+0000
 11
 4.22037789539172E+0000
 21
 4.36129461751261E+0000
  0
LINE
  8
1
  6
CONTINUOUS
 62
     1
 10
 4.25169462719350E+0000
 20
 4.35063208989595E+0000
 11
 4.24528175531304E+0000
 21
 4.35704496177641E+0000
  0
LINE
  8
1
  6
CONTINUOUS
 62
     1
 10
 4.25689837521350E+0000
 20
 4.35506267325400E+0000
 11
 4.25267154163157E+0000
 21
 4.35083583967207E+0000
  0
LINE
  8
1
  6
CONTINUOUS
 62
     1
 10
 4.23925489736575E+0000
 20
 4.35807339959138E+0000
 11
 4.22657439659815E+0000
 21
 4.34539289882377E+0000
  0
LINE
  8
1
  6
CONTINUOUS
 62
     1
 10
 4.22161141951801E+0000
 20
 4.36108412592876E+0000
 11
 4.20047725156473E+0000
 21
 4.33994995797548E+0000
  0
LINE
  8
1
  6
CONTINUOUS
 62
     1
 10
 4.20396794166300E+0000
 20
 4.36409485225886E+0000
 11
 4.17438010653132E+0000
 21
 4.33450701712718E+0000
  0
LINE
  8
1
  6
CONTINUOUS
 62
     1
 10
 4.18632446380798E+0000
 20
 4.36710557858896E+0000
 11
 4.14828296149790E+0000
 21
 4.32906407627888E+0000
  0
LINE
  8
1
  6
CONTINUOUS
 62
     1
 10
 4.16868098595296E+0000
 20
 4.37011630491907E+0000
 11
 4.12218581646448E+0000
 21
 4.32362113543059E+0000
  0
LINE
  8
1
  6
CONTINUOUS
 62
     1
 10
 4.15103750809794E+0000
 20
 4.37312703125644E+0000
 11
 4.10643078751309E+0000
 21
 4.32852031067159E+0000
  0
LINE
  8
1
  6
CONTINUOUS
 62
     1
 10
 4.13339403025020E+0000
 20
 4.37613775758655E+0000
 11
 4.10643078751309E+0000
 21
 4.34917451485671E+0000
  0
LINE
  8
1
  6
CONTINUOUS
 62
     1
 10
 4.11575055239518E+0000
 20
 4.37914848392393E+0000
 11
 4.10643078751309E+0000
 21
 4.36982871904183E+0000
  0
LINE
  8
1
  6
CONTINUOUS
 62
     1
 10
 4.51149202750094E+0000
 20
 4.04845729454973E+0000
 11
 4.51149202750094E+0000
 21
 4.04845729454973E+0000
  0
LINE
  8
1
  6
CONTINUOUS
 62
     1
 10
 4.51149202750094E+0000
 20
 4.04845729454973E+0000
 11
 4.67078135413612E+0000
 21
 4.02127577318606E+0000
  0
LINE
  8
1
  6
CONTINUOUS
 62
     1
 10
 4.67078135413612E+0000
 20
 4.02127577318606E+0000
 11
 4.67078135413612E+0000
 21
 4.08167941065767E+0000
  0
LINE
  8
1
  6
CONTINUOUS
 62
     1
 10
 4.67078135413612E+0000
 20
 4.08167941065767E+0000
 11
 4.51149202750094E+0000
 21
 4.04845729454973E+0000
  0
LINE
  8
1
  6
CONTINUOUS
 62
     1
 10
 4.67078135413612E+0000
 20
 4.02127577318606E+0000
 11
 4.67078135413612E+0000
 21
 4.08167941065767E+0000
  0
LINE
  8
1
  6
CONTINUOUS
 62
     1
 10
 4.52394395746524E+0000
 20
 4.04633246668527E+0000
 11
 4.52003695924941E+0000
 21
 4.05023946490110E+0000
  0
LINE
  8
1
  6
CONTINUOUS
 62
     1
 10
 4.54884781738656E+0000
 20
 4.04208281094907E+0000
 11
 4.53712682273908E+0000
 21
 4.05380380559654E+0000
  0
LINE
  8
1
  6
CONTINUOUS
 62
     1
 10
 4.57375167730061E+0000
 20
 4.03783315521287E+0000
 11
 4.55421668622876E+0000
 21
 4.05736814629199E+0000
  0
LINE
  8
1
  6
CONTINUOUS
 62
     1
 10
 4.59865553722193E+0000
 20
 4.03358349947666E+0000
 11
 4.57130654971843E+0000
 21
 4.06093248698016E+0000
  0
LINE
  8
1
  6
CONTINUOUS
 62
     1
 10
 4.62355939714325E+0000
 20
 4.02933384374046E+0000
 11
 4.58839641320810E+0000
 21
 4.06449682767561E+0000
  0
LINE
  8
1
  6
CONTINUOUS
 62
     1
 10
 4.64846325706458E+0000
 20
 4.02508418801153E+0000
 11
 4.60548627669777E+0000
 21
 4.06806116837106E+0000
  0
LINE
  8
1
  6
CONTINUOUS
 62
     1
 10
 4.67078135413612E+0000
 20
 4.02342029512511E+0000
 11
 4.62257614018745E+0000
 21
 4.07162550906651E+0000
  0
LINE
  8
1
  6
CONTINUOUS
 62
     1
 10
 4.67078135413612E+0000
 20
 4.04407449930295E+0000
 11
 4.63966600368440E+0000
 21
 4.07518984976195E+0000
  0
LINE
  8
1
  6
CONTINUOUS
 62
     1
 10
 4.67078135413612E+0000
 20
 4.06472870348807E+0000
 11
 4.65675586717407E+0000
 21
 4.07875419045740E+0000
  0
LINE
  8
1
  6
CONTINUOUS
 62
     1
 10
 4.67078135413612E+0000
 20
 4.03160287527862E+0000
 11
 4.66195961520862E+0000
 21
 4.02278113635111E+0000
  0
LINE
  8
1
  6
CONTINUOUS
 62
     1
 10
 4.67078135413612E+0000
 20
 4.05225707946374E+0000
 11
 4.64431613735360E+0000
 21
 4.02579186268122E+0000
  0
LINE
  8
1
  6
CONTINUOUS
 62
     1
 10
 4.67078135413612E+0000
 20
 4.07291128364886E+0000
 11
 4.62667265949858E+0000
 21
 4.02880258901132E+0000
  0
LINE
  8
1
  6
CONTINUOUS
 62
     1
 10
 4.65576297447842E+0000
 20
 4.07854710817628E+0000
 11
 4.60902918164356E+0000
 21
 4.03181331534870E+0000
  0
LINE
  8
1
  6
CONTINUOUS
 62
     1
 10
 4.62966582944500E+0000
 20
 4.07310416732798E+0000
 11
 4.59138570379582E+0000
 21
 4.03482404167880E+0000
  0
LINE
  8
1
  6
CONTINUOUS
 62
     1
 10
 4.60356868441158E+0000
 20
 4.06766122647969E+0000
 11
 4.57374222594080E+0000
 21
 4.03783476800891E+0000
  0
LINE
  8
1
  6
CONTINUOUS
 62
     1
 10
 4.57747153937817E+0000
 20
 4.06221828563139E+0000
 11
 4.55609874808579E+0000
 21
 4.04084549433901E+0000
  0
LINE
  8
1
  6
CONTINUOUS
 62
     1
 10
 4.55137439434475E+0000
 20
 4.05677534478309E+0000
 11
 4.53845527023077E+0000
 21
 4.04385622067639E+0000
  0
LINE
  8
1
  6
CONTINUOUS
 62
     1
 10
 4.52527724931861E+0000
 20
 4.05133240394207E+0000
 11
 4.52081179237575E+0000
 21
 4.04686694700649E+0000
  0
LINE
  8
1
  6
CONTINUOUS
 62
     1
 10
 2.94670274763848E+0000
 20
 1.42954376354646E+0000
 11
 1.76942722083368E+0000
 21
 1.42954376354646E+0000
  0
LINE
  8
1
  6
CONTINUOUS
 62
     1
 10
 1.76942722083368E+0000
 20
 1.42954376354646E+0000
 11
 1.76942722083368E+0000
 21
 1.82569422962479E+0000
  0
LINE
  8
1
  6
CONTINUOUS
 62
     1
 10
 1.76942722083368E+0000
 20
 1.82569422962479E+0000
 11
 2.94868936136481E+0000
 21
 1.82569422962479E+0000
  0
LINE
  8
1
  6
CONTINUOUS
 62
     1
 10
 1.77113793836361E+0000
 20
 1.42888974648122E+0000
 11
 1.77113793836361E+0000
 21
 1.42888974648122E+0000
  0
LINE
  8
1
  6
CONTINUOUS
 62
     1
 10
 1.77113793836361E+0000
 20
 1.42888974648122E+0000
 11
 1.74395641699994E+0000
 21
 1.26960041985330E+0000
  0
LINE
  8
1
  6
CONTINUOUS
 62
     1
 10
 1.74395641699994E+0000
 20
 1.26960041985330E+0000
 11
 1.80436005447154E+0000
 21
 1.26960041985330E+0000
  0
LINE
  8
1
  6
CONTINUOUS
 62
     1
 10
 1.80436005447154E+0000
 20
 1.26960041985330E+0000
 11
 1.77113793836361E+0000
 21
 1.42888974648122E+0000
  0
LINE
  8
1
  6
CONTINUOUS
 62
     1
 10
 1.74395641699994E+0000
 20
 1.26960041985330E+0000
 11
 1.80436005447154E+0000
 21
 1.26960041985330E+0000
  0
LINE
  8
1
  6
CONTINUOUS
 62
     1
 10
 1.75428351909432E+0000
 20
 1.26960041985330E+0000
 11
 1.74546178016681E+0000
 21
 1.27842215878081E+0000
  0
LINE
  8
1
  6
CONTINUOUS
 62
     1
 10
 1.77493772327944E+0000
 20
 1.26960041985512E+0000
 11
 1.74847250650055E+0000
 21
 1.29606563663401E+0000
  0
LINE
  8
1
  6
CONTINUOUS
 62
     1
 10
 1.79559192746456E+0000
 20
 1.26960041985512E+0000
 11
 1.75148323283247E+0000
 21
 1.31370911448539E+0000
  0
LINE
  8
1
  6
CONTINUOUS
 62
     1
 10
 1.80122775199379E+0000
 20
 1.28461879951101E+0000
 11
 1.75449395916439E+0000
 21
 1.33135259233859E+0000
  0
LINE
  8
1
  6
CONTINUOUS
 62
     1
 10
 1.79578481114731E+0000
 20
 1.31071594454261E+0000
 11
 1.75750468549813E+0000
 21
 1.34899607019179E+0000
  0
LINE
  8
1
  6
CONTINUOUS
 62
     1
 10
 1.79034187030084E+0000
 20
 1.33681308957421E+0000
 11
 1.76051541183006E+0000
 21
 1.36663954804499E+0000
  0
LINE
  8
1
  6
CONTINUOUS
 62
     1
 10
 1.78489892945254E+0000
 20
 1.36291023460763E+0000
 11
 1.76352613816198E+0000
 21
 1.38428302589818E+0000
  0
LINE
  8
1
  6
CONTINUOUS
 62
     1
 10
 1.77945598860606E+0000
 20
 1.38900737963922E+0000
 11
 1.76653686449572E+0000
 21
 1.40192650374956E+0000
  0
LINE
  8
1
  6
CONTINUOUS
 62
     1
 10
 1.77401304775958E+0000
 20
 1.41510452467082E+0000
 11
 1.76954759082764E+0000
 21
 1.41956998160276E+0000
  0
LINE
  8
1
  6
CONTINUOUS
 62
     1
 10
 1.80257788412200E+0000
 20
 1.27814535159632E+0000
 11
 1.79403295237535E+0000
 21
 1.26960041985149E+0000
  0
LINE
  8
1
  6
CONTINUOUS
 62
     1
 10
 1.79901354342655E+0000
 20
 1.29523521508600E+0000
 11
 1.77337874819023E+0000
 21
 1.26960041985149E+0000
  0
LINE
  8
1
  6
CONTINUOUS
 62
     1
 10
 1.79544920273293E+0000
 20
 1.31232507857749E+0000
 11
 1.75272454400510E+0000
 21
 1.26960041985149E+0000
  0
LINE
  8
1
  6
CONTINUOUS
 62
     1
 10
 1.79188486203930E+0000
 20
 1.32941494206898E+0000
 11
 1.74640200800604E+0000
 21
 1.28393208803755E+0000
  0
LINE
  8
1
  6
CONTINUOUS
 62
     1
 10
 1.78832052134203E+0000
 20
 1.34650480555865E+0000
 11
 1.75065166374225E+0000
 21
 1.30883594795705E+0000
  0
LINE
  8
1
  6
CONTINUOUS
 62
     1
 10
 1.78475618064840E+0000
 20
 1.36359466905014E+0000
 11
 1.75490131947663E+0000
 21
 1.33373980787837E+0000
  0
LINE
  8
1
  6
CONTINUOUS
 62
     1
 10
 1.78119183995477E+0000
 20
 1.38068453254164E+0000
 11
 1.75915097521283E+0000
 21
 1.35864366779970E+0000
  0
LINE
  8
1
  6
CONTINUOUS
 62
     1
 10
 1.77762749925932E+0000
 20
 1.39777439603131E+0000
 11
 1.76340063094904E+0000
 21
 1.38354752772102E+0000
  0
LINE
  8
1
  6
CONTINUOUS
 62
     1
 10
 1.77406315856570E+0000
 20
 1.41486425952280E+0000
 11
 1.76765028668342E+0000
 21
 1.40845138764234E+0000
  0
LINE
  8
1
  6
CONTINUOUS
 62
     1
 10
 1.76787091460028E+0000
 20
 1.82190524546786E+0000
 11
 1.76787091460028E+0000
 21
 1.82190524546786E+0000
  0
LINE
  8
1
  6
CONTINUOUS
 62
     1
 10
 1.76787091460028E+0000
 20
 1.82190524546786E+0000
 11
 1.79505243596395E+0000
 21
 1.98119457209577E+0000
  0
LINE
  8
1
  6
CONTINUOUS
 62
     1
 10
 1.79505243596395E+0000
 20
 1.98119457209577E+0000
 11
 1.73464879849234E+0000
 21
 1.98119457209577E+0000
  0
LINE
  8
1
  6
CONTINUOUS
 62
     1
 10
 1.73464879849234E+0000
 20
 1.98119457209577E+0000
 11
 1.76787091460028E+0000
 21
 1.82190524546786E+0000
  0
LINE
  8
1
  6
CONTINUOUS
 62
     1
 10
 1.79505243596395E+0000
 20
 1.98119457209577E+0000
 11
 1.73464879849234E+0000
 21
 1.98119457209577E+0000
  0
LINE
  8
1
  6
CONTINUOUS
 62
     1
 10
 1.76937627776897E+0000
 20
 1.83072698439537E+0000
 11
 1.76514944417795E+0000
 21
 1.83495381798639E+0000
  0
LINE
  8
1
  6
CONTINUOUS
 62
     1
 10
 1.77238700410089E+0000
 20
 1.84837046224857E+0000
 11
 1.75970650333147E+0000
 21
 1.86105096301799E+0000
  0
LINE
  8
1
  6
CONTINUOUS
 62
     1
 10
 1.77539773043281E+0000
 20
 1.86601394010177E+0000
 11
 1.75426356248499E+0000
 21
 1.88714810804959E+0000
  0
LINE
  8
1
  6
CONTINUOUS
 62
     1
 10
 1.77840845676656E+0000
 20
 1.88365741795496E+0000
 11
 1.74882062163852E+0000
 21
 1.91324525308301E+0000
  0
LINE
  8
1
  6
CONTINUOUS
 62
     1
 10
 1.78141918309848E+0000
 20
 1.90130089580634E+0000
 11
 1.74337768079022E+0000
 21
 1.93934239811460E+0000
  0
LINE
  8
1
  6
CONTINUOUS
 62
     1
 10
 1.78442990943040E+0000
 20
 1.91894437365954E+0000
 11
 1.73793473994374E+0000
 21
 1.96543954314620E+0000
  0
LINE
  8
1
  6
CONTINUOUS
 62
     1
 10
 1.78744063576414E+0000
 20
 1.93658785151274E+0000
 11
 1.74283391517929E+0000
 21
 1.98119457209759E+0000
  0
LINE
  8
1
  6
CONTINUOUS
 62
     1
 10
 1.79045136209606E+0000
 20
 1.95423132936594E+0000
 11
 1.76348811936441E+0000
 21
 1.98119457209759E+0000
  0
LINE
  8
1
  6
CONTINUOUS
 62
     1
 10
 1.79346208842799E+0000
 20
 1.97187480721732E+0000
 11
 1.78414232354953E+0000
 21
 1.98119457209759E+0000
  0
LINE
  8
1
  6
CONTINUOUS
 62
     1
 10
 1.76999574246656E+0000
 20
 1.83435717542670E+0000
 11
 1.76608874425074E+0000
 21
 1.83045017721088E+0000
  0
LINE
  8
1
  6
CONTINUOUS
 62
     1
 10
 1.77424539820095E+0000
 20
 1.85926103534803E+0000
 11
 1.76252440355529E+0000
 21
 1.84754004070055E+0000
  0
LINE
  8
1
  6
CONTINUOUS
 62
     1
 10
 1.77849505393715E+0000
 20
 1.88416489526753E+0000
 11
 1.75896006286166E+0000
 21
 1.86462990419204E+0000
  0
LINE
  8
1
  6
CONTINUOUS
 62
     1
 10
 1.78274470966971E+0000
 20
 1.90906875518704E+0000
 11
 1.75539572216621E+0000
 21
 1.88171976768172E+0000
  0
LINE
  8
1
  6
CONTINUOUS
 62
     1
 10
 1.78699436540592E+0000
 20
 1.93397261510654E+0000
 11
 1.75183138147258E+0000
 21
 1.89880963117321E+0000
  0
LINE
  8
1
  6
CONTINUOUS
 62
     1
 10
 1.79124402114212E+0000
 20
 1.95887647502786E+0000
 11
 1.74826704077532E+0000
 21
 1.91589949466288E+0000
  0
LINE
  8
1
  6
CONTINUOUS
 62
     1
 10
 1.79290791402127E+0000
 20
 1.98119457209395E+0000
 11
 1.74470270008169E+0000
 21
 1.93298935815437E+0000
  0
LINE
  8
1
  6
CONTINUOUS
 62
     1
 10
 1.77225370983615E+0000
 20
 1.98119457209395E+0000
 11
 1.74113835938624E+0000
 21
 1.95007922164405E+0000
  0
LINE
  8
1
  6
CONTINUOUS
 62
     1
 10
 1.75159950565103E+0000
 20
 1.98119457209395E+0000
 11
 1.73757401869261E+0000
 21
 1.96716908513554E+0000
  0
TEXT
  8
1
 62
     1
 10
 3.89026726858356E+0000
 20
 6.92747691428667E+0000
 40
 1.18110236219991E-0001
  1
60
  7
STANDARD
 11
 3.89026726858356E+0000
 21
 7.04558715050371E+0000
 50
 0.00000000000000E+0000
 41
 3.33041753154248E-0001
  0
TEXT
  8
1
 62
     1
 10
 4.25722890233737E+0000
 20
 6.64564467157470E+0000
 40
 1.18110236219991E-0001
  1
39
  7
STANDARD
 11
 4.25722890233737E+0000
 21
 6.76375490779174E+0000
 50
 0.00000000000000E+0000
 41
 3.33041753174712E-0001
  0
TEXT
  8
1
 62
     1
 10
 5.02878926047561E+0000
 20
 6.33562920459372E+0000
 40
 1.18110236219991E-0001
  1
7.5
  7
STANDARD
 11
 5.02878926047561E+0000
 21
 6.45373944081075E+0000
 50
 0.00000000000000E+0000
 41
 2.77534794312487E-0001
  0
TEXT
  8
1
 62
     1
 10
 4.31266522347869E+0000
 20
 3.88623538895990E+0000
 40
 1.18110236219991E-0001
  1
6
  7
STANDARD
 11
 4.31266522347869E+0000
 21
 4.00434562518058E+0000
 50
 0.00000000000000E+0000
 41
 3.33041753174712E-0001
  0
TEXT
  8
1
 62
     1
 10
 3.73904697452963E+0000
 20
 4.17259141844988E+0000
 40
 1.18110236219991E-0001
  1
20
  7
STANDARD
 11
 3.73904697452963E+0000
 21
 4.29070165466692E+0000
 50
 0.00000000000000E+0000
 41
 3.33041753174712E-0001
  0
TEXT
  8
1
 62
     1
 10
 4.78484232996561E+0000
 20
 3.63539979457346E+0000
 40
 1.18110236219991E-0001
  1
20
  7
STANDARD
 11
 4.78484232996561E+0000
 21
 3.75351003079413E+0000
 50
 0.00000000000000E+0000
 41
 3.33041753174712E-0001
  0
TEXT
  8
1
 62
     1
 10
 4.89782774263585E+0000
 20
 3.32301139876654E+0000
 40
 1.18110236219991E-0001
  1
15
  7
STANDARD
 11
 4.89782774263585E+0000
 21
 3.44112163498721E+0000
 50
 0.00000000000000E+0000
 41
 3.33041753174712E-0001
  0
TEXT
  8
1
 62
     1
 10
 3.40294382113643E+0000
 20
 2.50423908160155E+0000
 40
 1.18110236219991E-0001
  1
32
  7
STANDARD
 11
 3.40294382113643E+0000
 21
 2.62234931782223E+0000
 50
 0.00000000000000E+0000
 41
 3.33041753174712E-0001
  0
TEXT
  8
1
 62
     1
 10
 3.42032619231759E+0000
 20
 7.08005805707216E-0001
 40
 1.18110236219991E-0001
  1
8
  7
STANDARD
 11
 3.42032619231759E+0000
 21
 8.26116041926980E-0001
 50
 0.00000000000000E+0000
 41
 3.33041753174712E-0001
  0
TEXT
  8
1
 62
     1
 10
 4.21122408102383E+0000
 20
 8.38167637292827E-0001
 40
 1.18110236219991E-0001
  1
4.5
  7
STANDARD
 11
 4.21122408102383E+0000
 21
 9.56277873512590E-0001
 50
 0.00000000000000E+0000
 41
 2.77534794312487E-0001
  0
TEXT
  8
1
 62
     1
 10
 7.47599493931193E+0000
 20
 6.57258376370737E+0000
 40
 1.18110236219991E-0001
  1
M6
  7
STANDARD
 11
 7.47599493931193E+0000
 21
 6.69069399992441E+0000
 50
 0.00000000000000E+0000
 41
 3.74671972321721E-0001
  0
TEXT
  8
1
 62
     1
 10
 2.18886380827098E+0000
 20
 5.22654031411366E+0000
 40
 1.18110236219991E-0001
  1
28
  7
STANDARD
 11
 2.18886380827098E+0000
 21
 5.34465055033070E+0000
 50
 9.00000000000000E+0001
 41
 3.33041753174712E-0001
  0
TEXT
  8
1
 62
     1
 10
 2.55408901385817E+0000
 20
 5.21878184113302E+0000
 40
 1.18110236219991E-0001
  1
22
  7
STANDARD
 11
 2.55408901385817E+0000
 21
 5.33689207735006E+0000
 50
 9.00000000000000E+0001
 41
 3.33041753174712E-0001
  0
TEXT
  8
1
 62
     1
 10
 5.63959771042573E+0000
 20
 5.18881378760852E+0000
 40
 1.18110236219991E-0001
  1
20
  7
STANDARD
 11
 5.63959771042573E+0000
 21
 5.30692402382556E+0000
 50
 9.00000000000000E+0001
 41
 3.33041753174712E-0001
  0
TEXT
  8
1
 62
     1
 10
 6.59539984419098E+0000
 20
 5.21208920657955E+0000
 40
 1.18110236219991E-0001
  1
8 -0.02
  7
STANDARD
 11
 6.59539984419098E+0000
 21
 5.33019944279658E+0000
 50
 9.00000000000000E+0001
 41
 2.61675663208734E-0001
  0
TEXT
  8
1
 62
     1
 10
 9.24360580113716E+0000
 20
 5.15002142266167E+0000
 40
 1.18110236219991E-0001
  1
35
  7
STANDARD
 11
 9.24360580113716E+0000
 21
 5.26813165887870E+0000
 50
 9.00000000000000E+0001
 41
 3.33041753174712E-0001
  0
TEXT
  8
1
 62
     1
 10
 1.61092101597933E+0000
 20
 1.48536626586065E+0000
 40
 1.18110236219991E-0001
  1
10
  7
STANDARD
 11
 1.61092101597933E+0000
 21
 1.60347650208132E+0000
 50
 9.00000000000000E+0001
 41
 3.33041753174712E-0001
  0
TEXT
  8
1
 62
     1
 10
 5.43864316372492E+0000
 20
 1.93030142350472E+0000
 40
 1.18110236219991E-0001
  1
22
  7
STANDARD
 11
 5.43864316372492E+0000
 21
 2.04841165972539E+0000
 50
 9.00000000000000E+0001
 41
 3.33041753174712E-0001
  0
TEXT
  8
1
 62
     1
 10
 5.77287254044495E+0000
 20
 1.90646561148606E+0000
 40
 1.18110236219991E-0001
  1
35
  7
STANDARD
 11
 5.77287254044495E+0000
 21
 2.02457584770673E+0000
 50
 9.00000000000000E+0001
 41
 3.33041753174712E-0001
  0
LINE
  8
1
  6
DOT
 62
     1
 10
 2.94488561284743E+0000
 20
 1.70326710291192E+0000
 11
 4.19671927123272E+0000
 21
 1.70326710291192E+0000
  0
LINE
  8
1
  6
DOT
 62
     1
 10
 4.19671927123272E+0000
 20
 1.70326710291192E+0000
 11
 4.19671927123272E+0000
 21
 1.82149672813284E+0000
  0
LINE
  8
1
  6
CONTINUOUS
 62
     1
 10
 2.94488561284743E+0000
 20
 1.70326710291192E+0000
 11
 2.31051044812557E+0000
 21
 1.70326710291192E+0000
  0
LINE
  8
1
  6
CONTINUOUS
 62
     1
 10
 2.94561544601311E+0000
 20
 2.02664352517604E+0000
 11
 2.94561544601311E+0000
 21
 1.79616180844278E+0000
  0
LINE
  8
1
  6
CONTINUOUS
 62
     1
 10
 4.19382204057911E+0000
 20
 2.02257303822989E+0000
 11
 4.19382204057911E+0000
 21
 1.82149672813284E+0000
  0
LINE
  8
1
  6
CONTINUOUS
 62
     1
 10
 2.35280212577345E+0000
 20
 2.11707079119151E+0000
 11
 2.35280212577345E+0000
 21
 1.49214277215651E+0000
  0
LINE
  8
1
  6
CONTINUOUS
 62
     1
 10
 2.35149606614505E+0000
 20
 1.82190524546786E+0000
 11
 2.35149606614505E+0000
 21
 1.82190524546786E+0000
  0
LINE
  8
1
  6
CONTINUOUS
 62
     1
 10
 2.35149606614505E+0000
 20
 1.82190524546786E+0000
 11
 2.37867758750872E+0000
 21
 1.98119457209577E+0000
  0
LINE
  8
1
  6
CONTINUOUS
 62
     1
 10
 2.37867758750872E+0000
 20
 1.98119457209577E+0000
 11
 2.31827395003711E+0000
 21
 1.98119457209577E+0000
  0
LINE
  8
1
  6
CONTINUOUS
 62
     1
 10
 2.31827395003711E+0000
 20
 1.98119457209577E+0000
 11
 2.35149606614505E+0000
 21
 1.82190524546786E+0000
  0
LINE
  8
1
  6
CONTINUOUS
 62
     1
 10
 2.37867758750872E+0000
 20
 1.98119457209577E+0000
 11
 2.31827395003711E+0000
 21
 1.98119457209577E+0000
  0
LINE
  8
1
  6
CONTINUOUS
 62
     1
 10
 2.35300142931010E+0000
 20
 1.83072698439537E+0000
 11
 2.34877459572090E+0000
 21
 1.83495381798457E+0000
  0
LINE
  8
1
  6
CONTINUOUS
 62
     1
 10
 2.35601215564384E+0000
 20
 1.84837046224675E+0000
 11
 2.34333165487624E+0000
 21
 1.86105096301617E+0000
  0
LINE
  8
1
  6
CONTINUOUS
 62
     1
 10
 2.35902288197758E+0000
 20
 1.86601394009995E+0000
 11
 2.33788871402794E+0000
 21
 1.88714810804777E+0000
  0
LINE
  8
1
  6
CONTINUOUS
 62
     1
 10
 2.36203360830768E+0000
 20
 1.88365741795315E+0000
 11
 2.33244577318328E+0000
 21
 1.91324525308119E+0000
  0
LINE
  8
1
  6
CONTINUOUS
 62
     1
 10
 2.36504433464142E+0000
 20
 1.90130089580452E+0000
 11
 2.32700283233498E+0000
 21
 1.93934239811279E+0000
  0
LINE
  8
1
  6
CONTINUOUS
 62
     1
 10
 2.36805506097517E+0000
 20
 1.91894437365772E+0000
 11
 2.32155989148669E+0000
 21
 1.96543954314438E+0000
  0
LINE
  8
1
  6
CONTINUOUS
 62
     1
 10
 2.37106578730527E+0000
 20
 1.93658785151092E+0000
 11
 2.32645906672406E+0000
 21
 1.98119457209577E+0000
  0
LINE
  8
1
  6
CONTINUOUS
 62
     1
 10
 2.37407651363901E+0000
 20
 1.95423132936412E+0000
 11
 2.34711327090918E+0000
 21
 1.98119457209577E+0000
  0
LINE
  8
1
  6
CONTINUOUS
 62
     1
 10
 2.37708723997275E+0000
 20
 1.97187480721732E+0000
 11
 2.36776747509430E+0000
 21
 1.98119457209577E+0000
  0
LINE
  8
1
  6
CONTINUOUS
 62
     1
 10
 2.35362089400951E+0000
 20
 1.83435717542670E+0000
 11
 2.34971389579732E+0000
 21
 1.83045017721270E+0000
  0
LINE
  8
1
  6
CONTINUOUS
 62
     1
 10
 2.35787054974571E+0000
 20
 1.85926103534803E+0000
 11
 2.34614955510187E+0000
 21
 1.84754004070237E+0000
  0
LINE
  8
1
  6
CONTINUOUS
 62
     1
 10
 2.36212020548192E+0000
 20
 1.88416489526935E+0000
 11
 2.34258521440643E+0000
 21
 1.86462990419386E+0000
  0
LINE
  8
1
  6
CONTINUOUS
 62
     1
 10
 2.36636986121448E+0000
 20
 1.90906875518704E+0000
 11
 2.33902087371098E+0000
 21
 1.88171976768353E+0000
  0
LINE
  8
1
  6
CONTINUOUS
 62
     1
 10
 2.37061951695068E+0000
 20
 1.93397261510836E+0000
 11
 2.33545653301553E+0000
 21
 1.89880963117503E+0000
  0
LINE
  8
1
  6
CONTINUOUS
 62
     1
 10
 2.37486917268689E+0000
 20
 1.95887647502968E+0000
 11
 2.33189219232008E+0000
 21
 1.91589949466288E+0000
  0
LINE
  8
1
  6
CONTINUOUS
 62
     1
 10
 2.37653306556604E+0000
 20
 1.98119457209395E+0000
 11
 2.32832785162827E+0000
 21
 1.93298935815437E+0000
  0
LINE
  8
1
  6
CONTINUOUS
 62
     1
 10
 2.35587886138092E+0000
 20
 1.98119457209395E+0000
 11
 2.32476351092919E+0000
 21
 1.95007922164405E+0000
  0
LINE
  8
1
  6
CONTINUOUS
 62
     1
 10
 2.33522465719579E+0000
 20
 1.98119457209395E+0000
 11
 2.32119917023738E+0000
 21
 1.96716908513554E+0000
  0
LINE
  8
1
  6
CONTINUOUS
 62
     1
 10
 2.35476308990837E+0000
 20
 1.70757386307923E+0000
 11
 2.35476308990837E+0000
 21
 1.70757386307923E+0000
  0
LINE
  8
1
  6
CONTINUOUS
 62
     1
 10
 2.35476308990837E+0000
 20
 1.70757386307923E+0000
 11
 2.32758156854470E+0000
 21
 1.54828453645132E+0000
  0
LINE
  8
1
  6
CONTINUOUS
 62
     1
 10
 2.32758156854470E+0000
 20
 1.54828453645132E+0000
 11
 2.38798520601631E+0000
 21
 1.54828453645132E+0000
  0
LINE
  8
1
  6
CONTINUOUS
 62
     1
 10
 2.38798520601631E+0000
 20
 1.54828453645132E+0000
 11
 2.35476308990837E+0000
 21
 1.70757386307923E+0000
  0
LINE
  8
1
  6
CONTINUOUS
 62
     1
 10
 2.32758156854470E+0000
 20
 1.54828453645132E+0000
 11
 2.38798520601631E+0000
 21
 1.54828453645132E+0000
  0
LINE
  8
1
  6
CONTINUOUS
 62
     1
 10
 2.33790867063726E+0000
 20
 1.54828453645314E+0000
 11
 2.32908693171339E+0000
 21
 1.55710627537883E+0000
  0
LINE
  8
1
  6
CONTINUOUS
 62
     1
 10
 2.35856287482238E+0000
 20
 1.54828453645314E+0000
 11
 2.33209765804349E+0000
 21
 1.57474975323203E+0000
  0
LINE
  8
1
  6
CONTINUOUS
 62
     1
 10
 2.37921707901114E+0000
 20
 1.54828453645314E+0000
 11
 2.33510838437724E+0000
 21
 1.59239323108523E+0000
  0
LINE
  8
1
  6
CONTINUOUS
 62
     1
 10
 2.38485290353856E+0000
 20
 1.56330291610902E+0000
 11
 2.33811911071098E+0000
 21
 1.61003670893660E+0000
  0
LINE
  8
1
  6
CONTINUOUS
 62
     1
 10
 2.37940996269390E+0000
 20
 1.58940006114062E+0000
 11
 2.34112983704108E+0000
 21
 1.62768018678980E+0000
  0
LINE
  8
1
  6
CONTINUOUS
 62
     1
 10
 2.37396702184560E+0000
 20
 1.61549720617222E+0000
 11
 2.34414056337482E+0000
 21
 1.64532366464300E+0000
  0
LINE
  8
1
  6
CONTINUOUS
 62
     1
 10
 2.36852408099730E+0000
 20
 1.64159435120564E+0000
 11
 2.34715128970856E+0000
 21
 1.66296714249620E+0000
  0
LINE
  8
1
  6
CONTINUOUS
 62
     1
 10
 2.36308114015264E+0000
 20
 1.66769149623724E+0000
 11
 2.35016201603867E+0000
 21
 1.68061062034758E+0000
  0
LINE
  8
1
  6
CONTINUOUS
 62
     1
 10
 2.35763819930435E+0000
 20
 1.69378864126884E+0000
 11
 2.35317274237241E+0000
 21
 1.69825409820078E+0000
  0
LINE
  8
1
  6
CONTINUOUS
 62
     1
 10
 2.38620303566495E+0000
 20
 1.55682946819434E+0000
 11
 2.37765810392011E+0000
 21
 1.54828453644950E+0000
  0
LINE
  8
1
  6
CONTINUOUS
 62
     1
 10
 2.38263869496950E+0000
 20
 1.57391933168401E+0000
 11
 2.35700389973499E+0000
 21
 1.54828453644950E+0000
  0
LINE
  8
1
  6
CONTINUOUS
 62
     1
 10
 2.37907435427769E+0000
 20
 1.59100919517550E+0000
 11
 2.33634969554987E+0000
 21
 1.54828453644950E+0000
  0
LINE
  8
1
  6
CONTINUOUS
 62
     1
 10
 2.37551001358224E+0000
 20
 1.60809905866699E+0000
 11
 2.33002715955081E+0000
 21
 1.56261620463556E+0000
  0
LINE
  8
1
  6
CONTINUOUS
 62
     1
 10
 2.37194567288680E+0000
 20
 1.62518892215667E+0000
 11
 2.33427681528701E+0000
 21
 1.58752006455506E+0000
  0
LINE
  8
1
  6
CONTINUOUS
 62
     1
 10
 2.36838133219135E+0000
 20
 1.64227878564816E+0000
 11
 2.33852647101958E+0000
 21
 1.61242392447639E+0000
  0
LINE
  8
1
  6
CONTINUOUS
 62
     1
 10
 2.36481699149954E+0000
 20
 1.65936864913965E+0000
 11
 2.34277612675578E+0000
 21
 1.63732778439771E+0000
  0
LINE
  8
1
  6
CONTINUOUS
 62
     1
 10
 2.36125265080409E+0000
 20
 1.67645851262932E+0000
 11
 2.34702578249198E+0000
 21
 1.66223164431904E+0000
  0
LINE
  8
1
  6
CONTINUOUS
 62
     1
 10
 2.35768831010864E+0000
 20
 1.69354837612082E+0000
 11
 2.35127543822819E+0000
 21
 1.68713550424036E+0000
  0
LINE
  8
1
  6
CONTINUOUS
 62
     1
 10
 8.32236269771238E+0000
 20
 5.55677310544706E+0000
 11
 8.44330276601249E+0000
 21
 5.55677310544706E+0000
  0
LINE
  8
1
  6
CONTINUOUS
 62
     1
 10
 8.44330276601249E+0000
 20
 5.55677310544706E+0000
 11
 8.44330276601249E+0000
 21
 5.23284324485576E+0000
  0
LINE
  8
1
  6
CONTINUOUS
 62
     1
 10
 8.44330276601249E+0000
 20
 5.23284324485576E+0000
 11
 8.32196620729519E+0000
 21
 5.23284324485576E+0000
  0
LINE
  8
1
  6
CONTINUOUS
 62
     1
 10
 8.32236269771238E+0000
 20
 5.55677310544706E+0000
 11
 8.32236269771238E+0000
 21
 5.22031101653556E+0000
  0
LINE
  8
1
  6
CONTINUOUS
 62
     1
 10
 8.11789864127059E+0000
 20
 5.55677310544706E+0000
 11
 8.32615022655227E+0000
 21
 5.55677310544706E+0000
  0
LINE
  8
1
  6
CONTINUOUS
 62
     1
 10
 8.12944940439775E+0000
 20
 5.22926829269272E+0000
 11
 8.32615022655227E+0000
 21
 5.22926829269272E+0000
  0
LINE
  8
1
  6
CONTINUOUS
 62
     1
 10
 8.32236269771238E+0000
 20
 5.55677310544706E+0000
 11
 8.11789864127059E+0000
 21
 5.55677310544706E+0000
  0
LINE
  8
1
  6
DOT
 62
     1
 10
 4.03639261467470E+0000
 20
 5.55462438444374E+0000
 11
 2.94663733914058E+0000
 21
 5.55462438444374E+0000
  0
ARC
  8
1
  6
DOT
 62
     1
 10
 4.03639261467470E+0000
 20
 5.39714406948042E+0000
 40
 1.57480314961504E-0001
 50
 0.00000000000000E+0000
 51
 9.00000000000000E+0001
  0
ARC
  8
1
  6
DOT
 62
     1
 10
 4.03639261467470E+0000
 20
 5.39095464065758E+0000
 40
 1.57480314961504E-0001
 50
 2.70000000000000E+0002
 51
 0.00000000000000E+0000
  0
TEXT
  8
1
 62
     1
 10
 9.34694500286423E+0000
 20
 2.91785982253259E-0001
 40
 1.18110236219991E-0001
  1
www.cnc-projects.de.vu
  7
STANDARD
 11
 9.34694500286423E+0000
 21
 4.09896218473023E-0001
 50
 0.00000000000000E+0000
 41
 2.87626968650784E-0001
  0
TEXT
  8
1
 62
     1
 10
 9.77077278375509E+0000
 20
 6.65984192507494E-0001
 40
 1.18110236219991E-0001
  1
12.12.2003
  7
STANDARD
 11
 9.77077278375509E+0000
 21
 7.84094428727258E-0001
 50
 0.00000000000000E+0000
 41
 2.99737577857286E-0001
  0
TEXT
  8
1
 62
     1
 10
 2.22636263713503E+0000
 20
 1.90704791587632E+0000
 40
 1.18110236219991E-0001
  1
3,5
  7
STANDARD
 11
 2.22636263713503E+0000
 21
 2.02515815209699E+0000
 50
 9.00000000000000E+0001
 41
 2.77534794312487E-0001
  0
TEXT
  8
1
 62
     1
 10
 9.75994671396620E+0000
 20
 9.78767659506957E-0001
 40
 1.18110236219991E-0001
  1
42CrMo4
  7
STANDARD
 11
 9.75994671396620E+0000
 21
 1.09687789572672E+0000
 50
 0.00000000000000E+0000
 41
 3.33041753174712E-0001
  0
TEXT
  8
1
 62
     1
 10
 1.00359982361406E+0001
 20
 1.19020842127975E+0000
 40
 1.96850393699833E-0001
  1
Kasette 1
  7
STANDARD
 11
 1.00359982361406E+0001
 21
 1.38705881498026E+0000
 50
 0.00000000000000E+0000
 41
 1.72071572473669E-0001
  0
TEXT
  8
1
 62
     1
 10
 8.51609709337936E+0000
 20
 3.88377211202533E+0000
 40
 1.18110236219991E-0001
  1
4,5
  7
STANDARD
 11
 8.51609709337936E+0000
 21
 4.00188234824600E+0000
 50
 0.00000000000000E+0000
 41
 2.77534794312487E-0001
  0
TEXT
  8
1
 62
     1
 10
 9.20919214245805E+0000
 20
 2.97042735226114E-0001
 40
 1.18110236219991E-0001
  1
(c)
  7
STANDARD
 11
 9.20919214245805E+0000
 21
 4.15152971445877E-0001
 50
 0.00000000000000E+0000
 41
 2.22027835450035E-0001
0
ENDSEC
0
EOF
