0
SECTION
  2
HEADER
  9
$LTSCALE
 40
     10
  9
$LIMMIN
 10
     0.0
 20
     0.0
  9
$LIMMAX
 10
      11.5
 20
       8.0
  9
$EXTMIN
 10
     0.0
 20
     0.0
  9
$EXTMAX
 10
      11.5
 20
       8.0
   9
$CLAYER
   8
1
   9
$CECOLOR
  62
     7
   9
$CELTYPE
   6
CONTINUOUS
  0
ENDSEC
  0
SECTION
  2
TABLES
  0
TABLE
  2
LTYPE
 70
    10
  0
LTYPE
  2
CONTINUOUS
 70
    64
  3
Solid line
 72
    65
 73
     0
 40
0.0
  0
LTYPE
  2
DASHED
 70
     0
  3
__ __ __ __ __ __ __ __ __ __ __ __ __ __ __
 72
    65
 73
     2
 40
0.75
 49
0.5
 49
-0.25
  0
LTYPE
  2
HIDDEN
 70
     0
  3
_ _ _ _ _ _ _ _ _ _ _ _ _ _ _ _ _ _ _ _ _ _
 72
    65
 73
     2
 40
0.375
 49
0.25
 49
-0.125
  0
LTYPE
  2
CENTER
 70
     0
  3
____ _ ____ _ ____ _ ____ _ ____ _ ____ _ __
 72
    65
 73
     4
 40
2.0
 49
1.25
 49
-0.25
 49
0.25
 49
-0.25
  0
LTYPE
  2
PHANTOM
 70
     0
  3
_____ _ _ _____ _ _ _____ _ _ _____ _ _ ____
 72
    65
 73
     6
 40
2.5
 49
1.25
 49
-0.25
 49
0.25
 49
-0.25
 49
0.25
 49
-0.25
  0
LTYPE
  2
DOT
 70
     0
  3
............................................
 72
    65
 73
     2
 40
0.25
 49
0.0
 49
-0.25
  0
LTYPE
  2
DASHDOT
 70
     0
  3
__ . __ . __ . __ . __ . __ . __ . __ . __ .
 72
    65
 73
     4
 40
1.0
 49
0.5
 49
-0.25
 49
0.0
 49
-0.25
  0
LTYPE
  2
BORDER
 70
     0
  3
__ __ . __ __ . __ __ . __ __ . __ __ . __ _
 72
    65
 73
     6
 40
1.75
 49
0.5
 49
-0.25
 49
0.5
 49
-0.25
 49
0.0
 49
-0.25
  0
LTYPE
  2
DIVIDE
 70
     0
  3
__ . . __ . . __ . . __ . . __ . . __ . . __
 72
    65
 73
     6
 40
1.25
 49
0.5
 49
-0.25
 49
0.0
 49
-0.25
 49
0.0
 49
-0.25
  0
LTYPE
  2
DIVIDE2
 70
     0
  3
close
 72
    65
 73
     2
 40
0.1
 49
0.05
 49
-0.05
  0
ENDTAB
0
TABLE
  2
LAYER
 70
   256
  0
LAYER
  2
1
 70
     0
  6
CONTINUOUS
 62
1
  0
ENDTAB
  0
TABLE
  2
STYLE
 70
     8
  0
STYLE
  2
TXT
 70
0
 40
0.0
 41
1.0
 50
0.0
 71
0
 42
1.0
  3
TXT
  4

  0
STYLE
  2
COMPLEX
 70
0
 40
0.0
 41
1.0
 50
0.0
 71
0
 42
1.0
  3
COMPLEX
  4

  0
STYLE
  2
ITALIC
 70
0
 40
0.0
 41
1.0
 50
0.0
 71
0
 42
1.0
  3
ITALIC
  4

  0
STYLE
  2
SIMPLEX
70
0
 40
0.0
 41
1.0
 50
0.0
 71
0
 42
1.0
  3
SIMPLEX
  4

  0
STYLE
  2
MONOTXT
 70
0
 40
0.0
 41
1.0
 50
0.0
 71
0
 42
1.0
  3
MONOTXT
  4

  0
STYLE
  2
SCRIPTC
 70
0
 40
0.0
 41
1.0
 50
0.0
 71
0
 42
1.0
  3
SCRIPTC
  4

  0
STYLE
  2
GOTHICE
 70
0
 40
0.0
 41
1.0
 50
0.0
 71
0
 42
1.0
  3
GOTHICE
  4

  0
ENDTAB
  0
TABLE
  2
VIEW
 70
     0
  0
ENDTAB
  0
ENDSEC
  0
SECTION
  2
ENTITIES
  0
LINE
  8
1
  6
CONTINUOUS
 62
     0
 10
 1.12129500291339E+0001
 20
 2.68907664729340E-0001
 11
 9.03131040210428E+0000
 21
 2.68907664729340E-0001
  0
LINE
  8
1
  6
CONTINUOUS
 62
     0
 10
 9.03131040210428E+0000
 20
 2.68907664729340E-0001
 11
 9.03131040210428E+0000
 21
 1.45576954793796E+0000
  0
LINE
  8
1
  6
CONTINUOUS
 62
     0
 10
 9.03131040210428E+0000
 20
 1.45576954793796E+0000
 11
 1.12129500291339E+0001
 21
 1.45576954793796E+0000
  0
LINE
  8
1
  6
CONTINUOUS
 62
     0
 10
 1.12129500291339E+0001
 20
 1.45576954793796E+0000
 11
 1.12129500291339E+0001
 21
 2.68907664729340E-0001
  0
LINE
  8
1
  6
CONTINUOUS
 62
     0
 10
 9.03062880199286E+0000
 20
 1.14238466866482E+0000
 11
 1.12138731198793E+0001
 21
 1.14238466866482E+0000
  0
LINE
  8
1
  6
CONTINUOUS
 62
     0
 10
 9.03826606570510E+0000
 20
 4.26714942919716E-0001
 11
 1.12215103835915E+0001
 21
 4.26714942919716E-0001
  0
TEXT
  8
1
 62
     0
 10
 9.07875831772981E+0000
 20
 1.25428957196527E+0000
 40
 1.18110236219991E-0001
  1
Benennung
  7
STANDARD
 11
 9.07875831772981E+0000
 21
 1.37239980818595E+0000
 50
 0.00000000000000E+0000
 41
 3.42292912985158E-0001
  0
LINE
  8
1
  6
CONTINUOUS
 62
     0
 10
 9.70316843094770E+0000
 20
 1.45432805433302E+0000
 11
 9.70316843094770E+0000
 21
 1.14238466866482E+0000
  0
LINE
  8
1
  6
CONTINUOUS
 62
     0
 10
 9.03062880199286E+0000
 20
 9.76350285971421E-0001
 11
 1.12138731198793E+0001
 21
 9.76350285971421E-0001
  0
LINE
  8
1
  6
CONTINUOUS
 62
     0
 10
 9.03062880199286E+0000
 20
 8.10315903278024E-0001
 11
 1.12138731198793E+0001
 21
 8.10315903278024E-0001
  0
TEXT
  8
1
 62
     0
 10
 9.08351513103116E+0000
 20
 9.91758481183751E-0001
 40
 1.18110236219991E-0001
  1
Werkstoff
  7
STANDARD
 11
 9.08351513103116E+0000
 21
 1.10986871740351E+0000
 50
 0.00000000000000E+0000
 41
 2.77534794312487E-0001
  0
LINE
  8
1
  6
CONTINUOUS
 62
     0
 10
 9.70316843094770E+0000
 20
 1.14238466866482E+0000
 11
 9.70316843094770E+0000
 21
 9.76350285971421E-0001
  0
LINE
  8
1
  6
CONTINUOUS
 62
     0
 10
 1.06316746351076E+0001
 20
 1.14238466866482E+0000
 11
 1.06316746351076E+0001
 21
 9.76350285971421E-0001
  0
TEXT
  8
1
 62
     0
 10
 1.06975578126730E+0001
 20
 9.91758481183751E-0001
 40
 1.18110236219991E-0001
  1
M 1:1
  7
STANDARD
 11
 1.06975578126730E+0001
 21
 1.10986871740351E+0000
 50
 0.00000000000000E+0000
 41
 2.83085490198573E-0001
  0
LINE
  8
1
  6
CONTINUOUS
 62
     0
 10
 9.03131040210428E+0000
 20
 1.45576954793796E+0000
 11
 1.12188920723420E+0001
 21
 1.45576954793796E+0000
  0
LINE
  8
1
  6
CONTINUOUS
 62
     0
 10
 9.03131040210428E+0000
 20
 1.45576954793796E+0000
 11
 1.12129500291339E+0001
 21
 1.45576954793796E+0000
  0
LINE
  8
1
  6
CONTINUOUS
 62
     0
 10
 1.12129500291339E+0001
 20
 1.45576954793796E+0000
 11
 1.12129500291339E+0001
 21
 2.68907664729340E-0001
  0
LINE
  8
1
  6
CONTINUOUS
 62
     0
 10
 1.12129500291339E+0001
 20
 2.68907664729340E-0001
 11
 9.03131040210428E+0000
 21
 2.68907664729340E-0001
  0
LINE
  8
1
  6
CONTINUOUS
 62
     0
 10
 9.03131040210428E+0000
 20
 2.68907664729340E-0001
 11
 9.03131040210428E+0000
 21
 1.45576954793796E+0000
  0
TEXT
  8
1
 62
     0
 10
 9.07695743863587E+0000
 20
 8.32670547401904E-0001
 40
 1.18110236219991E-0001
  1
Bearb.
  7
STANDARD
 11
 9.07695743863587E+0000
 21
 9.50780783621667E-0001
 50
 0.00000000000000E+0000
 41
 2.91411534028157E-0001
  0
LINE
  8
1
  6
CONTINUOUS
 62
     0
 10
 9.70425349024299E+0000
 20
 9.77477030681257E-0001
 11
 9.70425349024299E+0000
 21
 8.11367048972897E-0001
  0
LINE
  8
1
  6
CONTINUOUS
 62
     0
 10
 9.03257328404288E+0000
 20
 6.39324567919175E-0001
 11
 1.12133147464920E+0001
 21
 6.39324567919175E-0001
  0
LINE
  8
1
  6
CONTINUOUS
 62
     0
 10
 9.70425349024299E+0000
 20
 8.11367048972897E-0001
 11
 9.70425349024299E+0000
 21
 6.39324567919175E-0001
  0
TEXT
  8
1
 62
     0
 10
 9.07695743863587E+0000
 20
 6.57661816674590E-0001
 40
 1.18110236219991E-0001
  1
Datum
  7
STANDARD
 11
 9.07695743863587E+0000
 21
 7.75772052894354E-0001
 50
 0.00000000000000E+0000
 41
 3.49693840833424E-0001
  0
LINE
  8
1
  6
CONTINUOUS
 62
     0
 10
 1.06304028494633E+0001
 20
 4.22788341766136E-0001
 11
 1.06304028494633E+0001
 21
 2.71509608424822E-0001
  0
TEXT
  8
1
 62
     0
 10
 9.76047341940284E+0000
 20
 8.23771798382040E-0001
 40
 1.18110236219991E-0001
  1
D.Freind
  7
STANDARD
 11
 9.76047341940284E+0000
 21
 9.41882034601804E-0001
 50
 0.00000000000000E+0000
 41
 2.81003979241177E-0001
  0
TEXT
  8
1
 62
     0
 10
 1.06540743985970E+0001
 20
 2.86880607504827E-0001
 40
 1.18110236219991E-0001
  1
Blatt
  7
STANDARD
 11
 1.06540743985970E+0001
 21
 4.04990843724590E-0001
 50
 0.00000000000000E+0000
 41
 2.49781314881147E-0001
  0
TEXT
  8
1
 62
     0
 10
 1.09973118607886E+0001
 20
 2.86880607504827E-0001
 40
 1.18110236219991E-0001
  1
1
  7
STANDARD
 11
 1.09973118607886E+0001
 21
 4.04990843724590E-0001
 50
 0.00000000000000E+0000
 41
 3.33041753174712E-0001
  0
TEXT
  8
1
 62
     0
 10
 9.18022199331608E+0000
 20
 4.49151016281576E-0001
 40
 1.18110236219991E-0001
  1
für Revolver 8-fach 
  7
STANDARD
 11
 9.18022199331608E+0000
 21
 5.67261252501339E-0001
 50
 0.00000000000000E+0000
 41
 2.53944336795939E-0001
  0
LINE
  8
1
  6
DASHDOT
 62
     0
 10
 2.86572369783607E+0000
 20
 5.39654213955509E+0000
 11
 5.52904835389927E+0000
 21
 5.39654213955509E+0000
  0
LINE
  8
1
  6
CONTINUOUS
 62
     0
 10
 2.94606091743117E+0000
 20
 5.39404935506172E+0000
 11
 2.94606091743117E+0000
 21
 5.94775635293627E+0000
  0
LINE
  8
1
  6
CONTINUOUS
 62
     0
 10
 2.94606091743117E+0000
 20
 5.94775635293627E+0000
 11
 3.80011891689355E+0000
 21
 6.08064603241655E+0000
  0
LINE
  8
1
  6
DOT
 62
     0
 10
 4.50998530605284E+0000
 20
 6.08064603241655E+0000
 11
 4.50998530605284E+0000
 21
 5.39404935506172E+0000
  0
LINE
  8
1
  6
DOT
 62
     0
 10
 4.19387292963802E+0000
 20
 5.39404935506172E+0000
 11
 4.19387292963802E+0000
 21
 5.39714406948042E+0000
  0
LINE
  8
1
  6
CONTINUOUS
 62
     0
 10
 2.94606091743117E+0000
 20
 5.39404935507628E+0000
 11
 2.94606091743117E+0000
 21
 4.84034235720173E+0000
  0
LINE
  8
1
  6
CONTINUOUS
 62
     0
 10
 2.94606091743117E+0000
 20
 4.84034235718718E+0000
 11
 3.80011891689355E+0000
 21
 4.70745267770690E+0000
  0
LINE
  8
1
  6
DOT
 62
     0
 10
 4.50998530605284E+0000
 20
 4.70745267770690E+0000
 11
 4.50998530605284E+0000
 21
 5.39404935506172E+0000
  0
LINE
  8
1
  6
DOT
 62
     0
 10
 4.19387292963802E+0000
 20
 5.39714406948042E+0000
 11
 4.19387292963802E+0000
 21
 5.39095464065758E+0000
  0
LINE
  8
1
  6
DOT
 62
     0
 10
 4.03639261467470E+0000
 20
 5.23347432569426E+0000
 11
 2.94606091743117E+0000
 21
 5.23347432569426E+0000
  0
LINE
  8
1
  6
CONTINUOUS
 62
     0
 10
 4.50698107803328E+0000
 20
 3.49200332446344E+0000
 11
 4.50698107803328E+0000
 21
 2.50604545375973E+0000
  0
LINE
  8
1
  6
CONTINUOUS
 62
     0
 10
 4.50698107803328E+0000
 20
 2.50604545375973E+0000
 11
 2.94670274763848E+0000
 21
 2.50604545375973E+0000
  0
LINE
  8
1
  6
CONTINUOUS
 62
     0
 10
 2.94670274763848E+0000
 20
 2.50604545375973E+0000
 11
 2.94670274763848E+0000
 21
 2.11166230547315E+0000
  0
LINE
  8
1
  6
CONTINUOUS
 62
     0
 10
 8.71792483377794E+0000
 20
 4.71297560975654E+0000
 11
 7.33396096355864E+0000
 21
 4.71297560975654E+0000
  0
LINE
  8
1
  6
CONTINUOUS
 62
     0
 10
 7.33396096355864E+0000
 20
 4.71297560975654E+0000
 11
 7.33396096355864E+0000
 21
 6.08360975609685E+0000
  0
LINE
  8
1
  6
DASHDOT
 62
     0
 10
 6.96564799809858E+0000
 20
 5.39272099939990E+0000
 11
 8.98578880865534E+0000
 21
 5.39272099939990E+0000
  0
LINE
  8
1
  6
CONTINUOUS
 62
     0
 10
 8.32236269771238E+0000
 20
 5.23296316652704E+0000
 11
 8.32236269771238E+0000
 21
 4.71205152566836E+0000
  0
LINE
  8
1
  6
CONTINUOUS
 62
     0
 10
 9.51230561890407E+0000
 20
 5.78881137615826E+0000
 11
 1.00003866134939E+0001
 21
 5.78881137615826E+0000
  0
LINE
  8
1
  6
CONTINUOUS
 62
     0
 10
 1.00003866134939E+0001
 20
 5.78881137615826E+0000
 11
 1.00003866134939E+0001
 21
 5.01647110251361E+0000
  0
LINE
  8
1
  6
CONTINUOUS
 62
     0
 10
 1.00003866134939E+0001
 20
 5.01647110251361E+0000
 11
 9.51230561890407E+0000
 21
 5.01647110251361E+0000
  0
LINE
  8
1
  6
CONTINUOUS
 62
     0
 10
 1.00003866134939E+0001
 20
 5.78881137615826E+0000
 11
 1.00003866134939E+0001
 21
 5.78881137615826E+0000
  0
LINE
  8
1
  6
CONTINUOUS
 62
     0
 10
 1.00003866134939E+0001
 20
 5.78881137615826E+0000
 11
 9.97320509213023E+0000
 21
 5.62952204953035E+0000
  0
LINE
  8
1
  6
CONTINUOUS
 62
     0
 10
 9.97320509213023E+0000
 20
 5.62952204953035E+0000
 11
 1.00336087296018E+0001
 21
 5.62952204953035E+0000
  0
LINE
  8
1
  6
CONTINUOUS
 62
     0
 10
 1.00336087296018E+0001
 20
 5.62952204953035E+0000
 11
 1.00003866134939E+0001
 21
 5.78881137615826E+0000
  0
LINE
  8
1
  6
CONTINUOUS
 62
     0
 10
 9.97320509213023E+0000
 20
 5.62952204953035E+0000
 11
 1.00336087296018E+0001
 21
 5.62952204953035E+0000
  0
LINE
  8
1
  6
CONTINUOUS
 62
     0
 10
 9.98353219423734E+0000
 20
 5.62952204953763E+0000
 11
 9.97471045530983E+0000
 21
 5.63834378847241E+0000
  0
LINE
  8
1
  6
CONTINUOUS
 62
     0
 10
 1.00041863984225E+0001
 20
 5.62952204953763E+0000
 11
 9.97772118163994E+0000
 21
 5.65598726632743E+0000
  0
LINE
  8
1
  6
CONTINUOUS
 62
     0
 10
 1.00248406026076E+0001
 20
 5.62952204953763E+0000
 11
 9.98073190797004E+0000
 21
 5.67363074418245E+0000
  0
LINE
  8
1
  6
CONTINUOUS
 62
     0
 10
 1.00304764271277E+0001
 20
 5.64454042920988E+0000
 11
 9.98374263430014E+0000
 21
 5.69127422203019E+0000
  0
LINE
  8
1
  6
CONTINUOUS
 62
     0
 10
 1.00250334862794E+0001
 20
 5.67063757424330E+0000
 11
 9.98675336063025E+0000
 21
 5.70891769988521E+0000
  0
LINE
  8
1
  6
CONTINUOUS
 62
     0
 10
 1.00195905454311E+0001
 20
 5.69673471927672E+0000
 11
 9.98976408696035E+0000
 21
 5.72656117774022E+0000
  0
LINE
  8
1
  6
CONTINUOUS
 62
     0
 10
 1.00141476045828E+0001
 20
 5.72283186430286E+0000
 11
 9.99277481330500E+0000
 21
 5.74420465558796E+0000
  0
LINE
  8
1
  6
CONTINUOUS
 62
     0
 10
 1.00087046637345E+0001
 20
 5.74892900933628E+0000
 11
 9.99578553963511E+0000
 21
 5.76184813344298E+0000
  0
LINE
  8
1
  6
CONTINUOUS
 62
     0
 10
 1.00032617228862E+0001
 20
 5.77502615436970E+0000
 11
 9.99879626596521E+0000
 21
 5.77949161129800E+0000
  0
LINE
  8
1
  6
CONTINUOUS
 62
     0
 10
 1.00318265592359E+0001
 20
 5.63806698126427E+0000
 11
 1.00232816274947E+0001
 21
 5.62952204952308E+0000
  0
LINE
  8
1
  6
CONTINUOUS
 62
     0
 10
 1.00282622185478E+0001
 20
 5.65515684476122E+0000
 11
 1.00026274233096E+0001
 21
 5.62952204952308E+0000
  0
LINE
  8
1
  6
CONTINUOUS
 62
     0
 10
 1.00246978778596E+0001
 20
 5.67224670825090E+0000
 11
 9.98197321912448E+0000
 21
 5.62952204952308E+0000
  0
LINE
  8
1
  6
CONTINUOUS
 62
     0
 10
 1.00211335371569E+0001
 20
 5.68933657174057E+0000
 11
 9.97565068313270E+0000
 21
 5.64385371770913E+0000
  0
LINE
  8
1
  6
CONTINUOUS
 62
     0
 10
 1.00175691964541E+0001
 20
 5.70642643522297E+0000
 11
 9.97990033886163E+0000
 21
 5.66875757763046E+0000
  0
LINE
  8
1
  6
CONTINUOUS
 62
     0
 10
 1.00140048557660E+0001
 20
 5.72351629871264E+0000
 11
 9.98414999460510E+0000
 21
 5.69366143755178E+0000
  0
LINE
  8
1
  6
CONTINUOUS
 62
     0
 10
 1.00104405150632E+0001
 20
 5.74060616220231E+0000
 11
 9.98839965033403E+0000
 21
 5.71856529747311E+0000
  0
LINE
  8
1
  6
CONTINUOUS
 62
     0
 10
 1.00068761743751E+0001
 20
 5.75769602569926E+0000
 11
 9.99264930607751E+0000
 21
 5.74346915739443E+0000
  0
LINE
  8
1
  6
CONTINUOUS
 62
     0
 10
 1.00033118336869E+0001
 20
 5.77478588918893E+0000
 11
 9.99689896179189E+0000
 21
 5.76837301730120E+0000
  0
LINE
  8
1
  6
CONTINUOUS
 62
     0
 10
 1.00005569764471E+0001
 20
 5.01249907119200E+0000
 11
 1.00005569764471E+0001
 21
 5.01249907119200E+0000
  0
LINE
  8
1
  6
CONTINUOUS
 62
     0
 10
 1.00005569764471E+0001
 20
 5.01249907119200E+0000
 11
 1.00277384978108E+0001
 21
 5.17178839781991E+0000
  0
LINE
  8
1
  6
CONTINUOUS
 62
     0
 10
 1.00277384978108E+0001
 20
 5.17178839781991E+0000
 11
 9.96733486033918E+0000
 21
 5.17178839781991E+0000
  0
LINE
  8
1
  6
CONTINUOUS
 62
     0
 10
 9.96733486033918E+0000
 20
 5.17178839781991E+0000
 11
 1.00005569764471E+0001
 21
 5.01249907119200E+0000
  0
LINE
  8
1
  6
CONTINUOUS
 62
     0
 10
 1.00277384978108E+0001
 20
 5.17178839781991E+0000
 11
 9.96733486033918E+0000
 21
 5.17178839781991E+0000
  0
LINE
  8
1
  6
CONTINUOUS
 62
     0
 10
 1.00020623396267E+0001
 20
 5.02132081013406E+0000
 11
 9.99783550603024E+0000
 21
 5.02554764372326E+0000
  0
LINE
  8
1
  6
CONTINUOUS
 62
     0
 10
 1.00050730659568E+0001
 20
 5.03896428798180E+0000
 11
 9.99239256518194E+0000
 21
 5.05164478875668E+0000
  0
LINE
  8
1
  6
CONTINUOUS
 62
     0
 10
 1.00080837922869E+0001
 20
 5.05660776583682E+0000
 11
 9.98694962433365E+0000
 21
 5.07774193379009E+0000
  0
LINE
  8
1
  6
CONTINUOUS
 62
     0
 10
 1.00110945186170E+0001
 20
 5.07425124369183E+0000
 11
 9.98150668348535E+0000
 21
 5.10383907882351E+0000
  0
LINE
  8
1
  6
CONTINUOUS
 62
     0
 10
 1.00141052449471E+0001
 20
 5.09189472154685E+0000
 11
 9.97606374263705E+0000
 21
 5.12993622385693E+0000
  0
LINE
  8
1
  6
CONTINUOUS
 62
     0
 10
 1.00171159712772E+0001
 20
 5.10953819939459E+0000
 11
 9.97062080178875E+0000
 21
 5.15603336889035E+0000
  0
LINE
  8
1
  6
CONTINUOUS
 62
     0
 10
 1.00201266976219E+0001
 20
 5.12718167724961E+0000
 11
 9.97551997704431E+0000
 21
 5.17178839782719E+0000
  0
LINE
  8
1
  6
CONTINUOUS
 62
     0
 10
 1.00231374239520E+0001
 20
 5.14482515510463E+0000
 11
 9.99617418122943E+0000
 21
 5.17178839782719E+0000
  0
LINE
  8
1
  6
CONTINUOUS
 62
     0
 10
 1.00261481502821E+0001
 20
 5.16246863295964E+0000
 11
 1.00168283854146E+0001
 21
 5.17178839781991E+0000
  0
LINE
  8
1
  6
CONTINUOUS
 62
     0
 10
 1.00026818042970E+0001
 20
 5.02495100114174E+0000
 11
 9.99877480608120E+0000
 21
 5.02104400293319E+0000
  0
LINE
  8
1
  6
CONTINUOUS
 62
     0
 10
 1.00069314600405E+0001
 20
 5.04985486106307E+0000
 11
 9.99521046539303E+0000
 21
 5.03813386642287E+0000
  0
LINE
  8
1
  6
CONTINUOUS
 62
     0
 10
 1.00111811157694E+0001
 20
 5.07475872098439E+0000
 11
 9.99164612470486E+0000
 21
 5.05522372991254E+0000
  0
LINE
  8
1
  6
CONTINUOUS
 62
     0
 10
 1.00154307715129E+0001
 20
 5.09966258090572E+0000
 11
 9.98808178400213E+0000
 21
 5.07231359340221E+0000
  0
LINE
  8
1
  6
CONTINUOUS
 62
     0
 10
 1.00196804272564E+0001
 20
 5.12456644084159E+0000
 11
 9.98451744331396E+0000
 21
 5.08940345689916E+0000
  0
LINE
  8
1
  6
CONTINUOUS
 62
     0
 10
 1.00239300829853E+0001
 20
 5.14947030076291E+0000
 11
 9.98095310261124E+0000
 21
 5.10649332038156E+0000
  0
LINE
  8
1
  6
CONTINUOUS
 62
     0
 10
 1.00255939758499E+0001
 20
 5.17178839781263E+0000
 11
 9.97738876190851E+0000
 21
 5.12358318387123E+0000
  0
LINE
  8
1
  6
CONTINUOUS
 62
     0
 10
 1.00049397716648E+0001
 20
 5.17178839781263E+0000
 11
 9.97382442122034E+0000
 21
 5.14067304736091E+0000
  0
LINE
  8
1
  6
CONTINUOUS
 62
     0
 10
 9.98428556747967E+0000
 20
 5.17178839781263E+0000
 11
 9.97026008053217E+0000
 21
 5.15776291085058E+0000
  0
LINE
  8
1
  6
CONTINUOUS
 62
     0
 10
 2.94148225889876E+0000
 20
 5.94784057109064E+0000
 11
 2.32258125977387E+0000
 21
 5.94784057109064E+0000
  0
LINE
  8
1
  6
CONTINUOUS
 62
     0
 10
 2.32258125977387E+0000
 20
 5.94784057109064E+0000
 11
 2.32258125977387E+0000
 21
 4.84163576405263E+0000
  0
LINE
  8
1
  6
CONTINUOUS
 62
     0
 10
 2.32258125977387E+0000
 20
 4.84163576405263E+0000
 11
 2.94849482657082E+0000
 21
 4.84163576405263E+0000
  0
LINE
  8
1
  6
CONTINUOUS
 62
     0
 10
 2.31958745096927E+0000
 20
 5.94674034512718E+0000
 11
 2.31958745096927E+0000
 21
 5.94674034512718E+0000
  0
LINE
  8
1
  6
CONTINUOUS
 62
     0
 10
 2.31958745096927E+0000
 20
 5.94674034512718E+0000
 11
 2.29240592960559E+0000
 21
 5.78745101849927E+0000
  0
LINE
  8
1
  6
CONTINUOUS
 62
     0
 10
 2.29240592960559E+0000
 20
 5.78745101849927E+0000
 11
 2.35280956707720E+0000
 21
 5.78745101849927E+0000
  0
LINE
  8
1
  6
CONTINUOUS
 62
     0
 10
 2.35280956707720E+0000
 20
 5.78745101849927E+0000
 11
 2.31958745096927E+0000
 21
 5.94674034512718E+0000
  0
LINE
  8
1
  6
CONTINUOUS
 62
     0
 10
 2.29240592960559E+0000
 20
 5.78745101849927E+0000
 11
 2.35280956707720E+0000
 21
 5.78745101849927E+0000
  0
LINE
  8
1
  6
CONTINUOUS
 62
     0
 10
 2.30273303169815E+0000
 20
 5.78745101849927E+0000
 11
 2.29391129277064E+0000
 21
 5.79627275742678E+0000
  0
LINE
  8
1
  6
CONTINUOUS
 62
     0
 10
 2.32338723587964E+0000
 20
 5.78745101849927E+0000
 11
 2.29692201910439E+0000
 21
 5.81391623527452E+0000
  0
LINE
  8
1
  6
CONTINUOUS
 62
     0
 10
 2.34404144006476E+0000
 20
 5.78745101849927E+0000
 11
 2.29993274543813E+0000
 21
 5.83155971312954E+0000
  0
LINE
  8
1
  6
CONTINUOUS
 62
     0
 10
 2.34967726460309E+0000
 20
 5.80246939814970E+0000
 11
 2.30294347176823E+0000
 21
 5.84920319098455E+0000
  0
LINE
  8
1
  6
CONTINUOUS
 62
     0
 10
 2.34423432375479E+0000
 20
 5.82856654318311E+0000
 11
 2.30595419810561E+0000
 21
 5.86684666883230E+0000
  0
LINE
  8
1
  6
CONTINUOUS
 62
     0
 10
 2.33879138291013E+0000
 20
 5.85466368821653E+0000
 11
 2.30896492443571E+0000
 21
 5.88449014668731E+0000
  0
LINE
  8
1
  6
CONTINUOUS
 62
     0
 10
 2.33334844206183E+0000
 20
 5.88076083324995E+0000
 11
 2.31197565076582E+0000
 21
 5.90213362454233E+0000
  0
LINE
  8
1
  6
CONTINUOUS
 62
     0
 10
 2.32790550121354E+0000
 20
 5.90685797828337E+0000
 11
 2.31498637710320E+0000
 21
 5.91977710239007E+0000
  0
LINE
  8
1
  6
CONTINUOUS
 62
     0
 10
 2.32246256036524E+0000
 20
 5.93295512331679E+0000
 11
 2.31799710343330E+0000
 21
 5.93742058024509E+0000
  0
LINE
  8
1
  6
CONTINUOUS
 62
     0
 10
 2.35102739672948E+0000
 20
 5.79599595024047E+0000
 11
 2.34248246498100E+0000
 21
 5.78745101849199E+0000
  0
LINE
  8
1
  6
CONTINUOUS
 62
     0
 10
 2.34746305603403E+0000
 20
 5.81308581373014E+0000
 11
 2.32182826079588E+0000
 21
 5.78745101849199E+0000
  0
LINE
  8
1
  6
CONTINUOUS
 62
     0
 10
 2.34389871533494E+0000
 20
 5.83017567721981E+0000
 11
 2.30117405661076E+0000
 21
 5.78745101849199E+0000
  0
LINE
  8
1
  6
CONTINUOUS
 62
     0
 10
 2.34033437464313E+0000
 20
 5.84726554070949E+0000
 11
 2.29485152061534E+0000
 21
 5.80178268668533E+0000
  0
LINE
  8
1
  6
CONTINUOUS
 62
     0
 10
 2.33677003394769E+0000
 20
 5.86435540419916E+0000
 11
 2.29910117635154E+0000
 21
 5.82668654660665E+0000
  0
LINE
  8
1
  6
CONTINUOUS
 62
     0
 10
 2.33320569325588E+0000
 20
 5.88144526769611E+0000
 11
 2.30335083208047E+0000
 21
 5.85159040652070E+0000
  0
LINE
  8
1
  6
CONTINUOUS
 62
     0
 10
 2.32964135255679E+0000
 20
 5.89853513117851E+0000
 11
 2.30760048781667E+0000
 21
 5.87649426644202E+0000
  0
LINE
  8
1
  6
CONTINUOUS
 62
     0
 10
 2.32607701186134E+0000
 20
 5.91562499466818E+0000
 11
 2.31185014355287E+0000
 21
 5.90139812636335E+0000
  0
LINE
  8
1
  6
CONTINUOUS
 62
     0
 10
 2.32251267116953E+0000
 20
 5.93271485816513E+0000
 11
 2.31609979928908E+0000
 21
 5.92630198628467E+0000
  0
LINE
  8
1
  6
CONTINUOUS
 62
     0
 10
 2.31975781391520E+0000
 20
 4.84107580083219E+0000
 11
 2.31975781391520E+0000
 21
 4.84107580083219E+0000
  0
LINE
  8
1
  6
CONTINUOUS
 62
     0
 10
 2.31975781391520E+0000
 20
 4.84107580083219E+0000
 11
 2.34693933527888E+0000
 21
 5.00036512746010E+0000
  0
LINE
  8
1
  6
CONTINUOUS
 62
     0
 10
 2.34693933527888E+0000
 20
 5.00036512746010E+0000
 11
 2.28653569780727E+0000
 21
 5.00036512746010E+0000
  0
LINE
  8
1
  6
CONTINUOUS
 62
     0
 10
 2.28653569780727E+0000
 20
 5.00036512746010E+0000
 11
 2.31975781391520E+0000
 21
 4.84107580083219E+0000
  0
LINE
  8
1
  6
CONTINUOUS
 62
     0
 10
 2.34693933527888E+0000
 20
 5.00036512746010E+0000
 11
 2.28653569780727E+0000
 21
 5.00036512746010E+0000
  0
LINE
  8
1
  6
CONTINUOUS
 62
     0
 10
 2.32126317708389E+0000
 20
 4.84989753975970E+0000
 11
 2.31703634349469E+0000
 21
 4.85412437334890E+0000
  0
LINE
  8
1
  6
CONTINUOUS
 62
     0
 10
 2.32427390341763E+0000
 20
 4.86754101761471E+0000
 11
 2.31159340264639E+0000
 21
 4.88022151838231E+0000
  0
LINE
  8
1
  6
CONTINUOUS
 62
     0
 10
 2.32728462974774E+0000
 20
 4.88518449546973E+0000
 11
 2.30615046180174E+0000
 21
 4.90631866341573E+0000
  0
LINE
  8
1
  6
CONTINUOUS
 62
     0
 10
 2.33029535608148E+0000
 20
 4.90282797332475E+0000
 11
 2.30070752095344E+0000
 21
 4.93241580844915E+0000
  0
LINE
  8
1
  6
CONTINUOUS
 62
     0
 10
 2.33330608241522E+0000
 20
 4.92047145117249E+0000
 11
 2.29526458010878E+0000
 21
 4.95851295348257E+0000
  0
LINE
  8
1
  6
CONTINUOUS
 62
     0
 10
 2.33631680874532E+0000
 20
 4.93811492902751E+0000
 11
 2.28982163926048E+0000
 21
 4.98461009851599E+0000
  0
LINE
  8
1
  6
CONTINUOUS
 62
     0
 10
 2.33932753507906E+0000
 20
 4.95575840688252E+0000
 11
 2.29472081449785E+0000
 21
 5.00036512746010E+0000
  0
LINE
  8
1
  6
CONTINUOUS
 62
     0
 10
 2.34233826140917E+0000
 20
 4.97340188473027E+0000
 11
 2.31537501868297E+0000
 21
 5.00036512746010E+0000
  0
LINE
  8
1
  6
CONTINUOUS
 62
     0
 10
 2.34534898774291E+0000
 20
 4.99104536258528E+0000
 11
 2.33602922286809E+0000
 21
 5.00036512746010E+0000
  0
LINE
  8
1
  6
CONTINUOUS
 62
     0
 10
 2.32188264177967E+0000
 20
 4.85352773078921E+0000
 11
 2.31797564356748E+0000
 21
 4.84962073257338E+0000
  0
LINE
  8
1
  6
CONTINUOUS
 62
     0
 10
 2.32613229751587E+0000
 20
 4.87843159071053E+0000
 11
 2.31441130287203E+0000
 21
 4.86671059606306E+0000
  0
LINE
  8
1
  6
CONTINUOUS
 62
     0
 10
 2.33038195325207E+0000
 20
 4.90333545063186E+0000
 11
 2.31084696217295E+0000
 21
 4.88380045955273E+0000
  0
LINE
  8
1
  6
CONTINUOUS
 62
     0
 10
 2.33463160898827E+0000
 20
 4.92823931055318E+0000
 11
 2.30728262148114E+0000
 21
 4.90089032304240E+0000
  0
LINE
  8
1
  6
CONTINUOUS
 62
     0
 10
 2.33888126472448E+0000
 20
 4.95314317047450E+0000
 11
 2.30371828078569E+0000
 21
 4.91798018653208E+0000
  0
LINE
  8
1
  6
CONTINUOUS
 62
     0
 10
 2.34313092046068E+0000
 20
 4.97804703039583E+0000
 11
 2.30015394009388E+0000
 21
 4.93507005002903E+0000
  0
LINE
  8
1
  6
CONTINUOUS
 62
     0
 10
 2.34479481333619E+0000
 20
 5.00036512745282E+0000
 11
 2.29658959939479E+0000
 21
 4.95215991351142E+0000
  0
LINE
  8
1
  6
CONTINUOUS
 62
     0
 10
 2.32414060915107E+0000
 20
 5.00036512745282E+0000
 11
 2.29302525869934E+0000
 21
 4.96924977700837E+0000
  0
LINE
  8
1
  6
CONTINUOUS
 62
     0
 10
 2.30348640496595E+0000
 20
 5.00036512745282E+0000
 11
 2.28946091800753E+0000
 21
 4.98633964049804E+0000
  0
LINE
  8
1
  6
CONTINUOUS
 62
     0
 10
 8.11789864127059E+0000
 20
 5.55677310544706E+0000
 11
 6.72479393475805E+0000
 21
 5.55677310544706E+0000
  0
LINE
  8
1
  6
CONTINUOUS
 62
     0
 10
 6.72479393475805E+0000
 20
 5.55677310544706E+0000
 11
 6.72479393475805E+0000
 21
 5.22926829269272E+0000
  0
LINE
  8
1
  6
CONTINUOUS
 62
     0
 10
 6.72479393475805E+0000
 20
 5.22926829269272E+0000
 11
 8.12944940439775E+0000
 21
 5.22926829269272E+0000
  0
LINE
  8
1
  6
CONTINUOUS
 62
     0
 10
 6.72287845362735E+0000
 20
 5.23411712255620E+0000
 11
 6.72287845362735E+0000
 21
 5.23411712255620E+0000
  0
LINE
  8
1
  6
CONTINUOUS
 62
     0
 10
 6.72287845362735E+0000
 20
 5.23411712255620E+0000
 11
 6.69569693226367E+0000
 21
 5.07482779592829E+0000
  0
LINE
  8
1
  6
CONTINUOUS
 62
     0
 10
 6.69569693226367E+0000
 20
 5.07482779592829E+0000
 11
 6.75610056973528E+0000
 21
 5.07482779592829E+0000
  0
LINE
  8
1
  6
CONTINUOUS
 62
     0
 10
 6.75610056973528E+0000
 20
 5.07482779592829E+0000
 11
 6.72287845362735E+0000
 21
 5.23411712255620E+0000
  0
LINE
  8
1
  6
CONTINUOUS
 62
     0
 10
 6.69569693226367E+0000
 20
 5.07482779592829E+0000
 11
 6.75610056973528E+0000
 21
 5.07482779592829E+0000
  0
LINE
  8
1
  6
CONTINUOUS
 62
     0
 10
 6.70602403437078E+0000
 20
 5.07482779592829E+0000
 11
 6.69720229542872E+0000
 21
 5.08364953486307E+0000
  0
LINE
  8
1
  6
CONTINUOUS
 62
     0
 10
 6.72667823855591E+0000
 20
 5.07482779592829E+0000
 11
 6.70021302176610E+0000
 21
 5.10129301271809E+0000
  0
LINE
  8
1
  6
CONTINUOUS
 62
     0
 10
 6.74733244274103E+0000
 20
 5.07482779592829E+0000
 11
 6.70322374809621E+0000
 21
 5.11893649057311E+0000
  0
LINE
  8
1
  6
CONTINUOUS
 62
     0
 10
 6.75296826725389E+0000
 20
 5.08984617560054E+0000
 11
 6.70623447442631E+0000
 21
 5.13657996842085E+0000
  0
LINE
  8
1
  6
CONTINUOUS
 62
     0
 10
 6.74752532640559E+0000
 20
 5.11594332063396E+0000
 11
 6.70924520076369E+0000
 21
 5.15422344627586E+0000
  0
LINE
  8
1
  6
CONTINUOUS
 62
     0
 10
 6.74208238555730E+0000
 20
 5.14204046566738E+0000
 11
 6.71225592709379E+0000
 21
 5.17186692413088E+0000
  0
LINE
  8
1
  6
CONTINUOUS
 62
     0
 10
 6.73663944470900E+0000
 20
 5.16813761070080E+0000
 11
 6.71526665343117E+0000
 21
 5.18951040197862E+0000
  0
LINE
  8
1
  6
CONTINUOUS
 62
     0
 10
 6.73119650386070E+0000
 20
 5.19423475573421E+0000
 11
 6.71827737976128E+0000
 21
 5.20715387983364E+0000
  0
LINE
  8
1
  6
CONTINUOUS
 62
     0
 10
 6.72575356301968E+0000
 20
 5.22033190076036E+0000
 11
 6.72128810609138E+0000
 21
 5.22479735768866E+0000
  0
LINE
  8
1
  6
CONTINUOUS
 62
     0
 10
 6.75431839938392E+0000
 20
 5.08337272766948E+0000
 11
 6.74577346764272E+0000
 21
 5.07482779592829E+0000
  0
LINE
  8
1
  6
CONTINUOUS
 62
     0
 10
 6.75075405868847E+0000
 20
 5.10046259115916E+0000
 11
 6.72511926345760E+0000
 21
 5.07482779592829E+0000
  0
LINE
  8
1
  6
CONTINUOUS
 62
     0
 10
 6.74718971799302E+0000
 20
 5.11755245464883E+0000
 11
 6.70446505927248E+0000
 21
 5.07482779592829E+0000
  0
LINE
  8
1
  6
CONTINUOUS
 62
     0
 10
 6.74362537730485E+0000
 20
 5.13464231814578E+0000
 11
 6.69814252326614E+0000
 21
 5.08915946411435E+0000
  0
LINE
  8
1
  6
CONTINUOUS
 62
     0
 10
 6.74006103659485E+0000
 20
 5.15173218162818E+0000
 11
 6.70239217900235E+0000
 21
 5.11406332403567E+0000
  0
LINE
  8
1
  6
CONTINUOUS
 62
     0
 10
 6.73649669590668E+0000
 20
 5.16882204511785E+0000
 11
 6.70664183473855E+0000
 21
 5.13896718394972E+0000
  0
LINE
  8
1
  6
CONTINUOUS
 62
     0
 10
 6.73293235521123E+0000
 20
 5.18591190860752E+0000
 11
 6.71089149047475E+0000
 21
 5.16387104387104E+0000
  0
LINE
  8
1
  6
CONTINUOUS
 62
     0
 10
 6.72936801451579E+0000
 20
 5.20300177209720E+0000
 11
 6.71514114621095E+0000
 21
 5.18877490379236E+0000
  0
LINE
  8
1
  6
CONTINUOUS
 62
     0
 10
 6.72580367382034E+0000
 20
 5.22009163559414E+0000
 11
 6.71939080193988E+0000
 21
 5.21367876370641E+0000
  0
LINE
  8
1
  6
CONTINUOUS
 62
     0
 10
 6.72588748964336E+0000
 20
 5.55793275405449E+0000
 11
 6.72588748964336E+0000
 21
 5.55793275405449E+0000
  0
LINE
  8
1
  6
CONTINUOUS
 62
     0
 10
 6.72588748964336E+0000
 20
 5.55793275405449E+0000
 11
 6.75306901100703E+0000
 21
 5.71722208068240E+0000
  0
LINE
  8
1
  6
CONTINUOUS
 62
     0
 10
 6.75306901100703E+0000
 20
 5.71722208068240E+0000
 11
 6.69266537353542E+0000
 21
 5.71722208068240E+0000
  0
LINE
  8
1
  6
CONTINUOUS
 62
     0
 10
 6.69266537353542E+0000
 20
 5.71722208068240E+0000
 11
 6.72588748964336E+0000
 21
 5.55793275405449E+0000
  0
LINE
  8
1
  6
CONTINUOUS
 62
     0
 10
 6.75306901100703E+0000
 20
 5.71722208068240E+0000
 11
 6.69266537353542E+0000
 21
 5.71722208068240E+0000
  0
LINE
  8
1
  6
CONTINUOUS
 62
     0
 10
 6.72739285281568E+0000
 20
 5.56675449299655E+0000
 11
 6.72316601921921E+0000
 21
 5.57098132658575E+0000
  0
LINE
  8
1
  6
CONTINUOUS
 62
     0
 10
 6.73040357914579E+0000
 20
 5.58439797084429E+0000
 11
 6.71772307837819E+0000
 21
 5.59707847161917E+0000
  0
LINE
  8
1
  6
CONTINUOUS
 62
     0
 10
 6.73341430548317E+0000
 20
 5.60204144869931E+0000
 11
 6.71228013752989E+0000
 21
 5.62317561665259E+0000
  0
LINE
  8
1
  6
CONTINUOUS
 62
     0
 10
 6.73642503181327E+0000
 20
 5.61968492655433E+0000
 11
 6.70683719668159E+0000
 21
 5.64927276168601E+0000
  0
LINE
  8
1
  6
CONTINUOUS
 62
     0
 10
 6.73943575814337E+0000
 20
 5.63732840440935E+0000
 11
 6.70139425583329E+0000
 21
 5.67536990671942E+0000
  0
LINE
  8
1
  6
CONTINUOUS
 62
     0
 10
 6.74244648448075E+0000
 20
 5.65497188225709E+0000
 11
 6.69595131498500E+0000
 21
 5.70146705174557E+0000
  0
LINE
  8
1
  6
CONTINUOUS
 62
     0
 10
 6.74545721081086E+0000
 20
 5.67261536011210E+0000
 11
 6.70085049024055E+0000
 21
 5.71722208068240E+0000
  0
LINE
  8
1
  6
CONTINUOUS
 62
     0
 10
 6.74846793714096E+0000
 20
 5.69025883796712E+0000
 11
 6.72150469442568E+0000
 21
 5.71722208068240E+0000
  0
LINE
  8
1
  6
CONTINUOUS
 62
     0
 10
 6.75147866347834E+0000
 20
 5.70790231581486E+0000
 11
 6.74215889861080E+0000
 21
 5.71722208068240E+0000
  0
LINE
  8
1
  6
CONTINUOUS
 62
     0
 10
 6.72801231750054E+0000
 20
 5.57038468400424E+0000
 11
 6.72410531928472E+0000
 21
 5.56647768578841E+0000
  0
LINE
  8
1
  6
CONTINUOUS
 62
     0
 10
 6.73226197323675E+0000
 20
 5.59528854392556E+0000
 11
 6.72054097858927E+0000
 21
 5.58356754928536E+0000
  0
LINE
  8
1
  6
CONTINUOUS
 62
     0
 10
 6.73651162897295E+0000
 20
 5.62019240384689E+0000
 11
 6.71697663790110E+0000
 21
 5.60065741277504E+0000
  0
LINE
  8
1
  6
CONTINUOUS
 62
     0
 10
 6.74076128470915E+0000
 20
 5.64509626376821E+0000
 11
 6.71341229720565E+0000
 21
 5.61774727626471E+0000
  0
LINE
  8
1
  6
CONTINUOUS
 62
     0
 10
 6.74501094044535E+0000
 20
 5.67000012368953E+0000
 11
 6.70984795650293E+0000
 21
 5.63483713974711E+0000
  0
LINE
  8
1
  6
CONTINUOUS
 62
     0
 10
 6.74926059618156E+0000
 20
 5.69490398361086E+0000
 11
 6.70628361580748E+0000
 21
 5.65192700323678E+0000
  0
LINE
  8
1
  6
CONTINUOUS
 62
     0
 10
 6.75092448906798E+0000
 20
 5.71722208068240E+0000
 11
 6.70271927511203E+0000
 21
 5.66901686673373E+0000
  0
LINE
  8
1
  6
CONTINUOUS
 62
     0
 10
 6.73027028486831E+0000
 20
 5.71722208067513E+0000
 11
 6.69915493442386E+0000
 21
 5.68610673022340E+0000
  0
LINE
  8
1
  6
CONTINUOUS
 62
     0
 10
 6.70961608068319E+0000
 20
 5.71722208067513E+0000
 11
 6.69559059372841E+0000
 21
 5.70319659371307E+0000
  0
LINE
  8
1
  6
CONTINUOUS
 62
     0
 10
 4.19382204057911E+0000
 20
 2.70469158015476E+0000
 11
 4.19382204057911E+0000
 21
 3.15309995368079E+0000
  0
LINE
  8
1
  6
CONTINUOUS
 62
     0
 10
 4.19382204057911E+0000
 20
 3.15309995368079E+0000
 11
 2.94561544601311E+0000
 21
 3.15309995368079E+0000
  0
LINE
  8
1
  6
CONTINUOUS
 62
     0
 10
 2.94561544601311E+0000
 20
 3.15309995368079E+0000
 11
 2.94561544601311E+0000
 21
 2.70876206710091E+0000
  0
LINE
  8
1
  6
CONTINUOUS
 62
     0
 10
 2.94152460293117E+0000
 20
 3.15268536697840E+0000
 11
 2.94152460293117E+0000
 21
 3.15268536697840E+0000
  0
LINE
  8
1
  6
CONTINUOUS
 62
     0
 10
 2.94152460293117E+0000
 20
 3.15268536697840E+0000
 11
 3.10081392956636E+0000
 21
 3.12550384561473E+0000
  0
LINE
  8
1
  6
CONTINUOUS
 62
     0
 10
 3.10081392956636E+0000
 20
 3.12550384561473E+0000
 11
 3.10081392956636E+0000
 21
 3.18590748308634E+0000
  0
LINE
  8
1
  6
CONTINUOUS
 62
     0
 10
 3.10081392956636E+0000
 20
 3.18590748308634E+0000
 11
 2.94152460293117E+0000
 21
 3.15268536697840E+0000
  0
LINE
  8
1
  6
CONTINUOUS
 62
     0
 10
 3.10081392956636E+0000
 20
 3.12550384561473E+0000
 11
 3.10081392956636E+0000
 21
 3.18590748308634E+0000
  0
LINE
  8
1
  6
CONTINUOUS
 62
     0
 10
 2.95397653288819E+0000
 20
 3.15056053911030E+0000
 11
 2.95006953467600E+0000
 21
 3.15446753732613E+0000
  0
LINE
  8
1
  6
CONTINUOUS
 62
     0
 10
 2.97888039280951E+0000
 20
 3.14631088337774E+0000
 11
 2.96715939816568E+0000
 21
 3.15803187801794E+0000
  0
LINE
  8
1
  6
CONTINUOUS
 62
     0
 10
 3.00378425272720E+0000
 20
 3.14206122764153E+0000
 11
 2.98424926165535E+0000
 21
 3.16159621871338E+0000
  0
LINE
  8
1
  6
CONTINUOUS
 62
     0
 10
 3.02868811264852E+0000
 20
 3.13781157190897E+0000
 11
 3.00133912514502E+0000
 21
 3.16516055940883E+0000
  0
LINE
  8
1
  6
CONTINUOUS
 62
     0
 10
 3.05359197256621E+0000
 20
 3.13356191617277E+0000
 11
 3.01842898863833E+0000
 21
 3.16872490010428E+0000
  0
LINE
  8
1
  6
CONTINUOUS
 62
     0
 10
 3.07849583248753E+0000
 20
 3.12931226044020E+0000
 11
 3.03551885212801E+0000
 21
 3.17228924079973E+0000
  0
LINE
  8
1
  6
CONTINUOUS
 62
     0
 10
 3.10081392956999E+0000
 20
 3.12764836754286E+0000
 11
 3.05260871561768E+0000
 21
 3.17585358149518E+0000
  0
LINE
  8
1
  6
CONTINUOUS
 62
     0
 10
 3.10081392956999E+0000
 20
 3.14830257172798E+0000
 11
 3.06969857910735E+0000
 21
 3.17941792218699E+0000
  0
LINE
  8
1
  6
CONTINUOUS
 62
     0
 10
 3.10081392956636E+0000
 20
 3.16895677591310E+0000
 11
 3.08678844260066E+0000
 21
 3.18298226288243E+0000
  0
LINE
  8
1
  6
CONTINUOUS
 62
     0
 10
 3.10081392956272E+0000
 20
 3.13583094770365E+0000
 11
 3.09199219063521E+0000
 21
 3.12700920877614E+0000
  0
LINE
  8
1
  6
CONTINUOUS
 62
     0
 10
 3.10081392956272E+0000
 20
 3.15648515188877E+0000
 11
 3.07434871278019E+0000
 21
 3.13001993510989E+0000
  0
LINE
  8
1
  6
CONTINUOUS
 62
     0
 10
 3.10081392956272E+0000
 20
 3.17713935607389E+0000
 11
 3.05670523492881E+0000
 21
 3.13303066143999E+0000
  0
LINE
  8
1
  6
CONTINUOUS
 62
     0
 10
 3.08579554990865E+0000
 20
 3.18277518060495E+0000
 11
 3.03906175708107E+0000
 21
 3.13604138777737E+0000
  0
LINE
  8
1
  6
CONTINUOUS
 62
     0
 10
 3.05969840487523E+0000
 20
 3.17733223975665E+0000
 11
 3.02141827922605E+0000
 21
 3.13905211410747E+0000
  0
LINE
  8
1
  6
CONTINUOUS
 62
     0
 10
 3.03360125984545E+0000
 20
 3.17188929891563E+0000
 11
 3.00377480137468E+0000
 21
 3.14206284044121E+0000
  0
LINE
  8
1
  6
CONTINUOUS
 62
     0
 10
 3.00750411481204E+0000
 20
 3.16644635806733E+0000
 11
 2.98613132351966E+0000
 21
 3.14507356677132E+0000
  0
LINE
  8
1
  6
CONTINUOUS
 62
     0
 10
 2.98140696977862E+0000
 20
 3.16100341721904E+0000
 11
 2.96848784566464E+0000
 21
 3.14808429310506E+0000
  0
LINE
  8
1
  6
CONTINUOUS
 62
     0
 10
 2.95530982474884E+0000
 20
 3.15556047637438E+0000
 11
 2.95084436781326E+0000
 21
 3.15109501943516E+0000
  0
LINE
  8
1
  6
CONTINUOUS
 62
     0
 10
 4.18334211160982E+0000
 20
 3.14833064208142E+0000
 11
 4.18334211160982E+0000
 21
 3.14833064208142E+0000
  0
LINE
  8
1
  6
CONTINUOUS
 62
     0
 10
 4.18334211160982E+0000
 20
 3.14833064208142E+0000
 11
 4.02405278498190E+0000
 21
 3.17551216344509E+0000
  0
LINE
  8
1
  6
CONTINUOUS
 62
     0
 10
 4.02405278498190E+0000
 20
 3.17551216344509E+0000
 11
 4.02405278498190E+0000
 21
 3.11510852597348E+0000
  0
LINE
  8
1
  6
CONTINUOUS
 62
     0
 10
 4.02405278498190E+0000
 20
 3.11510852597348E+0000
 11
 4.18334211160982E+0000
 21
 3.14833064208142E+0000
  0
LINE
  8
1
  6
CONTINUOUS
 62
     0
 10
 4.02405278498190E+0000
 20
 3.17551216344509E+0000
 11
 4.02405278498190E+0000
 21
 3.11510852597348E+0000
  0
LINE
  8
1
  6
CONTINUOUS
 62
     0
 10
 4.03259771673038E+0000
 20
 3.11689069632121E+0000
 11
 4.02405278498190E+0000
 21
 3.12543562806604E+0000
  0
LINE
  8
1
  6
CONTINUOUS
 62
     0
 10
 4.04968758022005E+0000
 20
 3.12045503701665E+0000
 11
 4.02405278498190E+0000
 21
 3.14608983225116E+0000
  0
LINE
  8
1
  6
CONTINUOUS
 62
     0
 10
 4.06677744370973E+0000
 20
 3.12401937771210E+0000
 11
 4.02405278498190E+0000
 21
 3.16674403643628E+0000
  0
LINE
  8
1
  6
CONTINUOUS
 62
     0
 10
 4.08386730719940E+0000
 20
 3.12758371840755E+0000
 11
 4.03838445316796E+0000
 21
 3.17306657243898E+0000
  0
LINE
  8
1
  6
CONTINUOUS
 62
     0
 10
 4.10095717068907E+0000
 20
 3.13114805910300E+0000
 11
 4.06328831308929E+0000
 21
 3.16881691670642E+0000
  0
LINE
  8
1
  6
CONTINUOUS
 62
     0
 10
 4.11804703417874E+0000
 20
 3.13471239979481E+0000
 11
 4.08819217300334E+0000
 21
 3.16456726097022E+0000
  0
LINE
  8
1
  6
CONTINUOUS
 62
     0
 10
 4.13513689766842E+0000
 20
 3.13827674049026E+0000
 11
 4.11309603292466E+0000
 21
 3.16031760523401E+0000
  0
LINE
  8
1
  6
CONTINUOUS
 62
     0
 10
 4.15222676115809E+0000
 20
 3.14184108118570E+0000
 11
 4.13799989284598E+0000
 21
 3.15606794949781E+0000
  0
LINE
  8
1
  6
CONTINUOUS
 62
     0
 10
 4.16931662465504E+0000
 20
 3.14540542188115E+0000
 11
 4.16290375276731E+0000
 21
 3.15181829376161E+0000
  0
LINE
  8
1
  6
CONTINUOUS
 62
     0
 10
 4.17452037268231E+0000
 20
 3.14983600524647E+0000
 11
 4.17029353909311E+0000
 21
 3.14560917165727E+0000
  0
LINE
  8
1
  6
CONTINUOUS
 62
     0
 10
 4.15687689482729E+0000
 20
 3.15284673157657E+0000
 11
 4.14419639405969E+0000
 21
 3.14016623080897E+0000
  0
LINE
  8
1
  6
CONTINUOUS
 62
     0
 10
 4.13923341697227E+0000
 20
 3.15585745791032E+0000
 11
 4.11809924902627E+0000
 21
 3.13472328996068E+0000
  0
LINE
  8
1
  6
CONTINUOUS
 62
     0
 10
 4.12158993911726E+0000
 20
 3.15886818424042E+0000
 11
 4.09200210400013E+0000
 21
 3.12928034911965E+0000
  0
LINE
  8
1
  6
CONTINUOUS
 62
     0
 10
 4.10394646126952E+0000
 20
 3.16187891057416E+0000
 11
 4.06590495896671E+0000
 21
 3.12383740827136E+0000
  0
LINE
  8
1
  6
CONTINUOUS
 62
     0
 10
 4.08630298341450E+0000
 20
 3.16488963690426E+0000
 11
 4.03980781392602E+0000
 21
 3.11839446742306E+0000
  0
LINE
  8
1
  6
CONTINUOUS
 62
     0
 10
 4.06865950556676E+0000
 20
 3.16790036324164E+0000
 11
 4.02405278498190E+0000
 21
 3.12329364265679E+0000
  0
LINE
  8
1
  6
CONTINUOUS
 62
     0
 10
 4.05101602771174E+0000
 20
 3.17091108957538E+0000
 11
 4.02405278498190E+0000
 21
 3.14394784684191E+0000
  0
LINE
  8
1
  6
CONTINUOUS
 62
     0
 10
 4.03337254985672E+0000
 20
 3.17392181590549E+0000
 11
 4.02405278498190E+0000
 21
 3.16460205102703E+0000
  0
LINE
  8
1
  6
CONTINUOUS
 62
     0
 10
 1.76942722083368E+0000
 20
 2.50781277154965E+0000
 11
 2.94868936136481E+0000
 21
 2.50781277154965E+0000
  0
TEXT
  8
1
 62
     0
 10
 3.40294382113643E+0000
 20
 3.18635762352642E+0000
 40
 1.18110236219991E-0001
  1
32
  7
STANDARD
 11
 3.40294382113643E+0000
 21
 3.30446785974709E+0000
 50
 0.00000000000000E+0000
 41
 3.33041753174712E-0001
  0
TEXT
  8
1
 62
     0
 10
 2.18886380827098E+0000
 20
 5.22654031411366E+0000
 40
 1.18110236219991E-0001
  1
28
  7
STANDARD
 11
 2.18886380827098E+0000
 21
 5.34465055033070E+0000
 50
 9.00000000000000E+0001
 41
 3.33041753174712E-0001
  0
TEXT
  8
1
 62
     0
 10
 9.85249738124548E+0000
 20
 5.19978340290982E+0000
 40
 1.18110236219991E-0001
  1
20
  7
STANDARD
 11
 9.85249738124548E+0000
 21
 5.31789363912685E+0000
 50
 9.00000000000000E+0001
 41
 3.33041753174712E-0001
  0
TEXT
  8
1
 62
     0
 10
 6.59539984419098E+0000
 20
 5.21208920657955E+0000
 40
 1.18110236219991E-0001
  1
8 -0.02
  7
STANDARD
 11
 6.59539984419098E+0000
 21
 5.33019944279658E+0000
 50
 9.00000000000000E+0001
 41
 2.61675663208734E-0001
  0
LINE
  8
1
  6
DOT
 62
     0
 10
 2.94488561284743E+0000
 20
 2.38538564483679E+0000
 11
 4.19671927123272E+0000
 21
 2.38538564483679E+0000
  0
LINE
  8
1
  6
CONTINUOUS
 62
     0
 10
 2.94488561284743E+0000
 20
 2.38538564483679E+0000
 11
 2.31051044812557E+0000
 21
 2.38538564483679E+0000
  0
LINE
  8
1
  6
CONTINUOUS
 62
     0
 10
 2.94561544601311E+0000
 20
 2.70876206710091E+0000
 11
 2.94561544601311E+0000
 21
 2.47828035036946E+0000
  0
LINE
  8
1
  6
CONTINUOUS
 62
     0
 10
 4.19382204057911E+0000
 20
 2.70469158015476E+0000
 11
 4.19382204057911E+0000
 21
 2.50361527005953E+0000
  0
LINE
  8
1
  6
CONTINUOUS
 62
     0
 10
 2.35280212577345E+0000
 20
 2.79918933311637E+0000
 11
 2.35280212577345E+0000
 21
 2.17426131408138E+0000
  0
LINE
  8
1
  6
CONTINUOUS
 62
     0
 10
 2.35149606614505E+0000
 20
 2.50402378739454E+0000
 11
 2.35149606614505E+0000
 21
 2.50402378739454E+0000
  0
LINE
  8
1
  6
CONTINUOUS
 62
     0
 10
 2.35149606614505E+0000
 20
 2.50402378739454E+0000
 11
 2.37867758750872E+0000
 21
 2.66331311402246E+0000
  0
LINE
  8
1
  6
CONTINUOUS
 62
     0
 10
 2.37867758750872E+0000
 20
 2.66331311402246E+0000
 11
 2.31827395003711E+0000
 21
 2.66331311402246E+0000
  0
LINE
  8
1
  6
CONTINUOUS
 62
     0
 10
 2.31827395003711E+0000
 20
 2.66331311402246E+0000
 11
 2.35149606614505E+0000
 21
 2.50402378739454E+0000
  0
LINE
  8
1
  6
CONTINUOUS
 62
     0
 10
 2.37867758750872E+0000
 20
 2.66331311402246E+0000
 11
 2.31827395003711E+0000
 21
 2.66331311402246E+0000
  0
LINE
  8
1
  6
CONTINUOUS
 62
     0
 10
 2.35300142931010E+0000
 20
 2.51284552632205E+0000
 11
 2.34877459572090E+0000
 21
 2.51707235991125E+0000
  0
LINE
  8
1
  6
CONTINUOUS
 62
     0
 10
 2.35601215564384E+0000
 20
 2.53048900417343E+0000
 11
 2.34333165487624E+0000
 21
 2.54316950494467E+0000
  0
LINE
  8
1
  6
CONTINUOUS
 62
     0
 10
 2.35902288197758E+0000
 20
 2.54813248202845E+0000
 11
 2.33788871402794E+0000
 21
 2.56926664997445E+0000
  0
LINE
  8
1
  6
CONTINUOUS
 62
     0
 10
 2.36203360831132E+0000
 20
 2.56577595987983E+0000
 11
 2.33244577317964E+0000
 21
 2.59536379500787E+0000
  0
LINE
  8
1
  6
CONTINUOUS
 62
     0
 10
 2.36504433464142E+0000
 20
 2.58341943773121E+0000
 11
 2.32700283233498E+0000
 21
 2.62146094004129E+0000
  0
LINE
  8
1
  6
CONTINUOUS
 62
     0
 10
 2.36805506097517E+0000
 20
 2.60106291558623E+0000
 11
 2.32155989148669E+0000
 21
 2.64755808507107E+0000
  0
LINE
  8
1
  6
CONTINUOUS
 62
     0
 10
 2.37106578730891E+0000
 20
 2.61870639343761E+0000
 11
 2.32645906672406E+0000
 21
 2.66331311402246E+0000
  0
LINE
  8
1
  6
CONTINUOUS
 62
     0
 10
 2.37407651363901E+0000
 20
 2.63634987129262E+0000
 11
 2.34711327090918E+0000
 21
 2.66331311402246E+0000
  0
LINE
  8
1
  6
CONTINUOUS
 62
     0
 10
 2.37708723997275E+0000
 20
 2.65399334914400E+0000
 11
 2.36776747509430E+0000
 21
 2.66331311402246E+0000
  0
LINE
  8
1
  6
CONTINUOUS
 62
     0
 10
 2.35362089401315E+0000
 20
 2.51647571735521E+0000
 11
 2.34971389579732E+0000
 21
 2.51256871913938E+0000
  0
LINE
  8
1
  6
CONTINUOUS
 62
     0
 10
 2.35787054974571E+0000
 20
 2.54137957727653E+0000
 11
 2.34614955510187E+0000
 21
 2.52965858262905E+0000
  0
LINE
  8
1
  6
CONTINUOUS
 62
     0
 10
 2.36212020548192E+0000
 20
 2.56628343719422E+0000
 11
 2.34258521440643E+0000
 21
 2.54674844611873E+0000
  0
LINE
  8
1
  6
CONTINUOUS
 62
     0
 10
 2.36636986121448E+0000
 20
 2.59118729711554E+0000
 11
 2.33902087371098E+0000
 21
 2.56383830960840E+0000
  0
LINE
  8
1
  6
CONTINUOUS
 62
     0
 10
 2.37061951695068E+0000
 20
 2.61609115703322E+0000
 11
 2.33545653301917E+0000
 21
 2.58092817310171E+0000
  0
LINE
  8
1
  6
CONTINUOUS
 62
     0
 10
 2.37486917268689E+0000
 20
 2.64099501695455E+0000
 11
 2.33189219232008E+0000
 21
 2.59801803659138E+0000
  0
LINE
  8
1
  6
CONTINUOUS
 62
     0
 10
 2.37653306556604E+0000
 20
 2.66331311402246E+0000
 11
 2.32832785162827E+0000
 21
 2.61510790008106E+0000
  0
LINE
  8
1
  6
CONTINUOUS
 62
     0
 10
 2.35587886138092E+0000
 20
 2.66331311402246E+0000
 11
 2.32476351093283E+0000
 21
 2.63219776357073E+0000
  0
LINE
  8
1
  6
CONTINUOUS
 62
     0
 10
 2.33522465719579E+0000
 20
 2.66331311402246E+0000
 11
 2.32119917023738E+0000
 21
 2.64928762706404E+0000
  0
LINE
  8
1
  6
CONTINUOUS
 62
     0
 10
 2.35476308990837E+0000
 20
 2.38969240500592E+0000
 11
 2.35476308990837E+0000
 21
 2.38969240500592E+0000
  0
LINE
  8
1
  6
CONTINUOUS
 62
     0
 10
 2.35476308990837E+0000
 20
 2.38969240500592E+0000
 11
 2.32758156854470E+0000
 21
 2.23040307837800E+0000
  0
LINE
  8
1
  6
CONTINUOUS
 62
     0
 10
 2.32758156854470E+0000
 20
 2.23040307837800E+0000
 11
 2.38798520601631E+0000
 21
 2.23040307837800E+0000
  0
LINE
  8
1
  6
CONTINUOUS
 62
     0
 10
 2.38798520601631E+0000
 20
 2.23040307837800E+0000
 11
 2.35476308990837E+0000
 21
 2.38969240500592E+0000
  0
LINE
  8
1
  6
CONTINUOUS
 62
     0
 10
 2.32758156854470E+0000
 20
 2.23040307837800E+0000
 11
 2.38798520601631E+0000
 21
 2.23040307837800E+0000
  0
LINE
  8
1
  6
CONTINUOUS
 62
     0
 10
 2.33790867063726E+0000
 20
 2.23040307837800E+0000
 11
 2.32908693171339E+0000
 21
 2.23922481730551E+0000
  0
LINE
  8
1
  6
CONTINUOUS
 62
     0
 10
 2.35856287482238E+0000
 20
 2.23040307837800E+0000
 11
 2.33209765804349E+0000
 21
 2.25686829515689E+0000
  0
LINE
  8
1
  6
CONTINUOUS
 62
     0
 10
 2.37921707900750E+0000
 20
 2.23040307837800E+0000
 11
 2.33510838437724E+0000
 21
 2.27451177301191E+0000
  0
LINE
  8
1
  6
CONTINUOUS
 62
     0
 10
 2.38485290353856E+0000
 20
 2.24542145803571E+0000
 11
 2.33811911071098E+0000
 21
 2.29215525086329E+0000
  0
LINE
  8
1
  6
CONTINUOUS
 62
     0
 10
 2.37940996269026E+0000
 20
 2.27151860306913E+0000
 11
 2.34112983704108E+0000
 21
 2.30979872871831E+0000
  0
LINE
  8
1
  6
CONTINUOUS
 62
     0
 10
 2.37396702184560E+0000
 20
 2.29761574809891E+0000
 11
 2.34414056337482E+0000
 21
 2.32744220656969E+0000
  0
LINE
  8
1
  6
CONTINUOUS
 62
     0
 10
 2.36852408099730E+0000
 20
 2.32371289313232E+0000
 11
 2.34715128970856E+0000
 21
 2.34508568442106E+0000
  0
LINE
  8
1
  6
CONTINUOUS
 62
     0
 10
 2.36308114015264E+0000
 20
 2.34981003816574E+0000
 11
 2.35016201603867E+0000
 21
 2.36272916227608E+0000
  0
LINE
  8
1
  6
CONTINUOUS
 62
     0
 10
 2.35763819930435E+0000
 20
 2.37590718319552E+0000
 11
 2.35317274237241E+0000
 21
 2.38037264012746E+0000
  0
LINE
  8
1
  6
CONTINUOUS
 62
     0
 10
 2.38620303566859E+0000
 20
 2.23894801012284E+0000
 11
 2.37765810392011E+0000
 21
 2.23040307837437E+0000
  0
LINE
  8
1
  6
CONTINUOUS
 62
     0
 10
 2.38263869496950E+0000
 20
 2.25603787360888E+0000
 11
 2.35700389973499E+0000
 21
 2.23040307837437E+0000
  0
LINE
  8
1
  6
CONTINUOUS
 62
     0
 10
 2.37907435427769E+0000
 20
 2.27312773710219E+0000
 11
 2.33634969554987E+0000
 21
 2.23040307837437E+0000
  0
LINE
  8
1
  6
CONTINUOUS
 62
     0
 10
 2.37551001358224E+0000
 20
 2.29021760059186E+0000
 11
 2.33002715955081E+0000
 21
 2.24473474656043E+0000
  0
LINE
  8
1
  6
CONTINUOUS
 62
     0
 10
 2.37194567288680E+0000
 20
 2.30730746408153E+0000
 11
 2.33427681528701E+0000
 21
 2.26963860648175E+0000
  0
LINE
  8
1
  6
CONTINUOUS
 62
     0
 10
 2.36838133219135E+0000
 20
 2.32439732757121E+0000
 11
 2.33852647102321E+0000
 21
 2.29454246640307E+0000
  0
LINE
  8
1
  6
CONTINUOUS
 62
     0
 10
 2.36481699149590E+0000
 20
 2.34148719106452E+0000
 11
 2.34277612675578E+0000
 21
 2.31944632632076E+0000
  0
LINE
  8
1
  6
CONTINUOUS
 62
     0
 10
 2.36125265080045E+0000
 20
 2.35857705455419E+0000
 11
 2.34702578249198E+0000
 21
 2.34435018624208E+0000
  0
LINE
  8
1
  6
CONTINUOUS
 62
     0
 10
 2.35768831010864E+0000
 20
 2.37566691804386E+0000
 11
 2.35127543822455E+0000
 21
 2.36925404616341E+0000
  0
LINE
  8
1
  6
CONTINUOUS
 62
     0
 10
 8.44330276601249E+0000
 20
 5.55677310544706E+0000
 11
 8.44330276601249E+0000
 21
 5.23284324485576E+0000
  0
LINE
  8
1
  6
CONTINUOUS
 62
     0
 10
 8.44330276601249E+0000
 20
 5.23284324485576E+0000
 11
 8.32196620729519E+0000
 21
 5.23284324485576E+0000
  0
LINE
  8
1
  6
CONTINUOUS
 62
     0
 10
 8.32236269771238E+0000
 20
 5.55677310544706E+0000
 11
 8.32236269771238E+0000
 21
 5.22031101653556E+0000
  0
LINE
  8
1
  6
CONTINUOUS
 62
     0
 10
 8.12944940439775E+0000
 20
 5.22926829269272E+0000
 11
 8.32615022655227E+0000
 21
 5.22926829269272E+0000
  0
LINE
  8
1
  6
DOT
 62
     0
 10
 4.03639261467470E+0000
 20
 5.55462438444374E+0000
 11
 2.94663733914058E+0000
 21
 5.55462438444374E+0000
  0
ARC
  8
1
  6
DOT
 62
     0
 10
 4.03639261467470E+0000
 20
 5.39714406948042E+0000
 40
 1.57480314961504E-0001
 50
 0.00000000000000E+0000
 51
 9.00000000000000E+0001
  0
ARC
  8
1
  6
DOT
 62
     0
 10
 4.03639261467470E+0000
 20
 5.39095464065758E+0000
 40
 1.57480314961504E-0001
 50
 2.70000000000000E+0002
 51
 0.00000000000000E+0000
  0
TEXT
  8
1
 62
     0
 10
 9.34682379401056E+0000
 20
 2.96162064459622E-0001
 40
 1.18110236219991E-0001
  1
www.cnc-projects.de.vu
  7
STANDARD
 11
 9.34682379401056E+0000
 21
 4.14272300679386E-0001
 50
 0.00000000000000E+0000
 41
 2.87626968650784E-0001
  0
TEXT
  8
1
 62
     0
 10
 2.22636263713503E+0000
 20
 2.58916645780118E+0000
 40
 1.18110236219991E-0001
  1
3,5
  7
STANDARD
 11
 2.22636263713503E+0000
 21
 2.70727669402186E+0000
 50
 9.00000000000000E+0001
 41
 2.77534794312487E-0001
  0
LINE
  8
1
  6
CONTINUOUS
 62
     0
 10
 7.33396096355864E+0000
 20
 6.08360975609685E+0000
 11
 8.71792483377794E+0000
 21
 6.08360975609685E+0000
  0
LINE
  8
1
  6
CONTINUOUS
 62
     0
 10
 8.11789864127059E+0000
 20
 5.55677310544706E+0000
 11
 8.44133260377566E+0000
 21
 5.55677310544706E+0000
  0
LINE
  8
1
  6
CONTINUOUS
 62
     0
 10
 8.32236269771238E+0000
 20
 5.55677310544706E+0000
 11
 8.32236269771238E+0000
 21
 6.08237270120298E+0000
  0
LINE
  8
1
  6
CONTINUOUS
 62
     0
 10
 8.71792483377794E+0000
 20
 6.08360975609685E+0000
 11
 9.51370706544549E+0000
 21
 6.08360975609685E+0000
  0
LINE
  8
1
  6
CONTINUOUS
 62
     0
 10
 9.51370706544549E+0000
 20
 6.08360975609685E+0000
 11
 9.51370706544549E+0000
 21
 5.78619308798079E+0000
  0
LINE
  8
1
  6
CONTINUOUS
 62
     0
 10
 9.51370706544549E+0000
 20
 5.78619308798079E+0000
 11
 8.72584011401341E+0000
 21
 5.78619308798079E+0000
  0
LINE
  8
1
  6
CONTINUOUS
 62
     0
 10
 8.72584011401341E+0000
 20
 5.78619308798079E+0000
 11
 8.72584011401341E+0000
 21
 5.00735040136351E+0000
  0
LINE
  8
1
  6
CONTINUOUS
 62
     0
 10
 8.72584011401341E+0000
 20
 5.00735040136351E+0000
 11
 9.51370706544549E+0000
 21
 5.00735040136351E+0000
  0
LINE
  8
1
  6
CONTINUOUS
 62
     0
 10
 9.51370706544549E+0000
 20
 5.00735040136351E+0000
 11
 9.51370706544549E+0000
 21
 4.71117078814132E+0000
  0
LINE
  8
1
  6
CONTINUOUS
 62
     0
 10
 9.51370706544549E+0000
 20
 4.71117078814132E+0000
 11
 8.71489751746412E+0000
 21
 4.71117078814132E+0000
  0
LINE
  8
1
  6
DASHDOT
 62
     0
 10
 9.09669585287338E+0000
 20
 6.19112631564349E+0000
 11
 9.09669585287338E+0000
 21
 5.68083006341476E+0000
  0
LINE
  8
1
  6
DOT
 62
     0
 10
 8.98100647733372E+0000
 20
 6.08043586136773E+0000
 11
 8.98100647733372E+0000
 21
 5.78191525951115E+0000
  0
LINE
  8
1
  6
DOT
 62
     0
 10
 9.21411962056300E+0000
 20
 6.08043586136773E+0000
 11
 9.21411962056300E+0000
 21
 5.78191525951115E+0000
  0
LINE
  8
1
  6
DOT
 62
     0
 10
 9.01648021652363E+0000
 20
 6.08043586136773E+0000
 11
 9.01648021652363E+0000
 21
 5.78191525951115E+0000
  0
LINE
  8
1
  6
DOT
 62
     0
 10
 9.17611204287095E+0000
 20
 6.08043586136773E+0000
 11
 9.17611204287095E+0000
 21
 5.78191525951115E+0000
  0
LINE
  8
1
  6
CONTINUOUS
 62
     0
 10
 4.98347209474741E+0000
 20
 3.49554588238971E+0000
 11
 4.98347209474741E+0000
 21
 2.11337435401947E+0000
  0
LINE
  8
1
  6
CONTINUOUS
 62
     0
 10
 2.94670274763848E+0000
 20
 2.11166230547315E+0000
 11
 2.94670274763848E+0000
 21
 1.31755666219397E+0000
  0
LINE
  8
1
  6
CONTINUOUS
 62
     0
 10
 2.94670274763848E+0000
 20
 1.31755666219397E+0000
 11
 4.98347209474741E+0000
 21
 1.31755666219397E+0000
  0
LINE
  8
1
  6
CONTINUOUS
 62
     0
 10
 4.98347209474741E+0000
 20
 1.31755666219397E+0000
 11
 4.98347209474741E+0000
 21
 2.10736896411618E+0000
  0
LINE
  8
1
  6
DOT
 62
     0
 10
 2.94814913689333E+0000
 20
 2.10736896411618E+0000
 11
 4.98347209474741E+0000
 21
 2.10736896411618E+0000
  0
LINE
  8
1
  6
DOT
 62
     0
 10
 4.19560514332261E+0000
 20
 2.50227511507546E+0000
 11
 4.19560514332261E+0000
 21
 2.38160934672487E+0000
  0
LINE
  8
1
  6
CONTINUOUS
 62
     0
 10
 4.51294044320093E+0000
 20
 6.08364616346807E+0000
 11
 4.98347209474741E+0000
 21
 6.08364616346807E+0000
  0
LINE
  8
1
  6
CONTINUOUS
 62
     0
 10
 4.98347209474741E+0000
 20
 6.08364616346807E+0000
 11
 4.98347209474741E+0000
 21
 4.71244425039913E+0000
  0
LINE
  8
1
  6
CONTINUOUS
 62
     0
 10
 4.50998530605284E+0000
 20
 6.08064603241655E+0000
 11
 3.80011891689355E+0000
 21
 6.08064603241655E+0000
  0
LINE
  8
1
  6
CONTINUOUS
 62
     0
 10
 4.50998530605284E+0000
 20
 4.70745267770690E+0000
 11
 3.80011891689355E+0000
 21
 4.70745267770690E+0000
  0
LINE
  8
1
  6
CONTINUOUS
 62
     0
 10
 4.98347209474741E+0000
 20
 5.78746655023861E+0000
 11
 2.94814913689333E+0000
 21
 5.78746655023861E+0000
  0
LINE
  8
1
  6
CONTINUOUS
 62
     0
 10
 4.98347209474741E+0000
 20
 5.00862386362132E+0000
 11
 2.94814913689333E+0000
 21
 5.00862386362132E+0000
  0
LINE
  8
1
  6
DASHDOT
 62
     0
 10
 4.98347209474741E+0000
 20
 3.29045203334681E+0000
 11
 4.43634226737049E+0000
 21
 3.29045203334681E+0000
  0
LINE
  8
1
  6
DASHDOT
 62
     0
 10
 5.02724248093728E+0000
 20
 2.74197126812214E+0000
 11
 4.43634226737049E+0000
 21
 2.74197126812214E+0000
  0
LINE
  8
1
  6
DASHDOT
 62
     0
 10
 5.02724248093728E+0000
 20
 4.92292232067120E+0000
 11
 4.44728486391250E+0000
 21
 4.92292232067120E+0000
  0
LINE
  8
1
  6
DASHDOT
 62
     0
 10
 5.01629988438799E+0000
 20
 5.83340039094037E+0000
 11
 4.40351447772264E+0000
 21
 5.83340039094037E+0000
  0
LINE
  8
1
  6
DASHDOT
 62
     0
 10
 4.74154242694203E+0000
 20
 6.19112631564349E+0000
 11
 4.74154242694203E+0000
 21
 5.68083006341476E+0000
  0
LINE
  8
1
  6
DOT
 62
     0
 10
 4.62585305140237E+0000
 20
 6.08043586136773E+0000
 11
 4.62585305140237E+0000
 21
 5.78191525951115E+0000
  0
LINE
  8
1
  6
DOT
 62
     0
 10
 4.85896619463165E+0000
 20
 6.08043586136773E+0000
 11
 4.85896619463165E+0000
 21
 5.78191525951115E+0000
  0
LINE
  8
1
  6
DOT
 62
     0
 10
 4.66132679059228E+0000
 20
 6.08043586136773E+0000
 11
 4.66132679059228E+0000
 21
 5.78191525951115E+0000
  0
LINE
  8
1
  6
DOT
 62
     0
 10
 4.82095861693961E+0000
 20
 6.08043586136773E+0000
 11
 4.82095861693961E+0000
 21
 5.78191525951115E+0000
  0
LINE
  8
1
  6
DASHDOT
 62
     0
 10
 3.95367547551723E+0000
 20
 6.19112631564349E+0000
 11
 3.95367547551723E+0000
 21
 5.68083006341476E+0000
  0
LINE
  8
1
  6
DOT
 62
     0
 10
 3.83798609997757E+0000
 20
 6.08043586136773E+0000
 11
 3.83798609997757E+0000
 21
 5.78191525951115E+0000
  0
LINE
  8
1
  6
DOT
 62
     0
 10
 4.07109924320685E+0000
 20
 6.08043586136773E+0000
 11
 4.07109924320685E+0000
 21
 5.78191525951115E+0000
  0
LINE
  8
1
  6
DOT
 62
     0
 10
 3.87345983916748E+0000
 20
 6.08043586136773E+0000
 11
 3.87345983916748E+0000
 21
 5.78191525951115E+0000
  0
LINE
  8
1
  6
DOT
 62
     0
 10
 4.03309166551480E+0000
 20
 6.08043586136773E+0000
 11
 4.03309166551480E+0000
 21
 5.78191525951115E+0000
  0
LINE
  8
1
  6
DASHDOT
 62
     0
 10
 7.53309709033056E+0000
 20
 6.13491962572152E+0000
 11
 7.53309709033056E+0000
 21
 5.69613501354615E+0000
  0
LINE
  8
1
  6
DASHDOT
 62
     0
 10
 7.53309709033056E+0000
 20
 5.18056309423264E+0000
 11
 7.53309709033056E+0000
 21
 4.59917348309682E+0000
  0
LINE
  8
1
  6
DASHDOT
 62
     0
 10
 8.08022691770748E+0000
 20
 6.16782847163995E+0000
 11
 8.08022691770748E+0000
 21
 5.71807424414874E+0000
  0
LINE
  8
1
  6
DASHDOT
 62
     0
 10
 8.09116951425676E+0000
 20
 5.19153270954121E+0000
 11
 8.09116951425676E+0000
 21
 4.61014309839811E+0000
  0
LINE
  8
1
  6
DASHDOT
 62
     0
 10
 7.27047477319138E+0000
 20
 4.92826194223017E+0000
 11
 8.27719365556550E+0000
 21
 4.92826194223017E+0000
  0
LINE
  8
1
  6
DASHDOT
 62
     0
 10
 7.27047477319138E+0000
 20
 5.83874001250661E+0000
 11
 8.25530846246693E+0000
 21
 5.83874001250661E+0000
  0
CIRCLE
  8
1
  6
DASHDOT
 62
     0
 10
 7.53309709033056E+0000
 20
 5.83874001250661E+0000
 40
 1.64138948217442E-0001
  0
CIRCLE
  8
1
  6
DASHDOT
 62
     0
 10
 8.08022691770748E+0000
 20
 5.83874001250661E+0000
 40
 1.64138948210166E-0001
  0
CIRCLE
  8
1
  6
DASHDOT
 62
     0
 10
 7.53309709033056E+0000
 20
 4.92826194223017E+0000
 40
 1.64138948217442E-0001
  0
CIRCLE
  8
1
  6
DASHDOT
 62
     0
 10
 8.09116951425676E+0000
 20
 4.92826194223017E+0000
 40
 1.64138948210166E-0001
  0
CIRCLE
  8
1
  6
CONTINUOUS
 62
     0
 10
 7.53309709033056E+0000
 20
 5.83874001250661E+0000
 40
 8.75407723942772E-0002
  0
CIRCLE
  8
1
  6
CONTINUOUS
 62
     0
 10
 8.08022691770748E+0000
 20
 5.83874001250661E+0000
 40
 8.75407723797252E-0002
  0
CIRCLE
  8
1
  6
CONTINUOUS
 62
     0
 10
 7.53309709033056E+0000
 20
 4.92826194223017E+0000
 40
 8.75407723942772E-0002
  0
CIRCLE
  8
1
  6
CONTINUOUS
 62
     0
 10
 8.09116951425676E+0000
 20
 4.92826194223017E+0000
 40
 8.75407723797252E-0002
  0
LINE
  8
1
  6
DASHDOT
 62
     0
 10
 4.98347209474741E+0000
 20
 3.46033588446880E+0000
 11
 4.80839054998796E+0000
 21
 3.46033588446880E+0000
  0
LINE
  8
1
  6
DASHDOT
 62
     0
 10
 4.80839054998796E+0000
 20
 3.46033588446880E+0000
 11
 4.80839054998796E+0000
 21
 3.13124742533546E+0000
  0
LINE
  8
1
  6
DASHDOT
 62
     0
 10
 4.80839054998796E+0000
 20
 3.13124742533546E+0000
 11
 4.98347209474741E+0000
 21
 3.13124742533546E+0000
  0
LINE
  8
1
  6
DASHDOT
 62
     0
 10
 4.98347209474741E+0000
 20
 2.91185511924414E+0000
 11
 4.80839054998796E+0000
 21
 2.91185511924414E+0000
  0
LINE
  8
1
  6
DASHDOT
 62
     0
 10
 4.80839054998796E+0000
 20
 2.91185511924414E+0000
 11
 4.80839054998796E+0000
 21
 2.58276666011079E+0000
  0
LINE
  8
1
  6
DASHDOT
 62
     0
 10
 4.80839054998796E+0000
 20
 2.58276666011079E+0000
 11
 4.98347209474741E+0000
 21
 2.58276666011079E+0000
  0
LINE
  8
1
  6
DASHDOT
 62
     0
 10
 4.80839054998796E+0000
 20
 3.38354857733793E+0000
 11
 4.50199784665165E+0000
 21
 3.38354857733793E+0000
  0
LINE
  8
1
  6
DASHDOT
 62
     0
 10
 4.80839054998796E+0000
 20
 3.20803473246633E+0000
 11
 4.50199784665165E+0000
 21
 3.20803473246633E+0000
  0
LINE
  8
1
  6
DASHDOT
 62
     0
 10
 4.80839054998796E+0000
 20
 2.83506781211327E+0000
 11
 4.50199784665165E+0000
 21
 2.83506781211327E+0000
  0
LINE
  8
1
  6
DASHDOT
 62
     0
 10
 4.80839054998796E+0000
 20
 2.65955396724166E+0000
 11
 4.50199784665165E+0000
 21
 2.65955396724166E+0000
  0
LINE
  8
1
  6
DASHDOT
 62
     0
 10
 5.06007027057058E+0000
 20
 1.71082742949511E+0000
 11
 2.87155096106289E+0000
 21
 1.71082742949511E+0000
  0
LINE
  8
1
  6
DASHDOT
 62
     0
 10
 4.74273497069953E+0000
 20
 1.93021973558643E+0000
 11
 4.74273497069953E+0000
 21
 1.44755666219135E+0000
  0
LINE
  8
1
  6
DASHDOT
 62
     0
 10
 3.95486801927473E+0000
 20
 1.93021973558643E+0000
 11
 3.95486801927473E+0000
 21
 1.48046550810250E+0000
  0
CIRCLE
  8
1
  6
CONTINUOUS
 62
     0
 10
 4.74273497069953E+0000
 20
 1.71082742949511E+0000
 40
 9.84833689290099E-0002
  0
ARC
  8
1
  6
CONTINUOUS
 62
     0
 10
 4.74273497069953E+0000
 20
 1.71082742949511E+0000
 40
 1.20368562027579E-0001
 50
 3.56045339806587E+0001
 51
 3.08298741518054E+0002
  0
CIRCLE
  8
1
  6
CONTINUOUS
 62
     0
 10
 3.95486801927473E+0000
 20
 1.71082742949511E+0000
 40
 9.84833689290099E-0002
  0
ARC
  8
1
  6
CONTINUOUS
 62
     0
 10
 3.95486801927473E+0000
 20
 1.71082742949511E+0000
 40
 1.20368562027579E-0001
 50
 3.56045339806587E+0001
 51
 3.08298741518054E+0002
  0
LINE
  8
1
  6
CONTINUOUS
 62
     0
 10
 2.94148225889876E+0000
 20
 5.94784057109064E+0000
 11
 2.94148225889876E+0000
 21
 7.51973941013421E+0000
  0
LINE
  8
1
  6
CONTINUOUS
 62
     0
 10
 2.94148225889876E+0000
 20
 7.51973941013421E+0000
 11
 4.97785595284222E+0000
 21
 7.51973941013421E+0000
  0
LINE
  8
1
  6
CONTINUOUS
 62
     0
 10
 4.97785595284222E+0000
 20
 7.51973941013421E+0000
 11
 4.97785595284222E+0000
 21
 6.08847608153883E+0000
  0
LINE
  8
1
  6
CONTINUOUS
 62
     0
 10
 3.80011891689355E+0000
 20
 6.08064603241655E+0000
 11
 3.80011891689355E+0000
 21
 6.84792192936584E+0000
  0
LINE
  8
1
  6
CONTINUOUS
 62
     0
 10
 3.80011891689355E+0000
 20
 6.84792192936584E+0000
 11
 4.97785595284222E+0000
 21
 6.84792192936584E+0000
  0
LINE
  8
1
  6
CONTINUOUS
 62
     0
 10
 4.98347209474741E+0000
 20
 6.08364616346807E+0000
 11
 5.82284377803444E+0000
 21
 6.08364616346807E+0000
  0
LINE
  8
1
  6
CONTINUOUS
 62
     0
 10
 5.82284377803444E+0000
 20
 6.08364616346807E+0000
 11
 5.82284377803444E+0000
 21
 4.70102693646186E+0000
  0
LINE
  8
1
  6
CONTINUOUS
 62
     0
 10
 7.33396096355864E+0000
 20
 6.08360975609685E+0000
 11
 7.33396096355864E+0000
 21
 7.15462121406745E+0000
  0
LINE
  8
1
  6
CONTINUOUS
 62
     0
 10
 7.33396096355864E+0000
 20
 7.15462121406745E+0000
 11
 9.50873894656252E+0000
 21
 7.15462121406745E+0000
  0
LINE
  8
1
  6
CONTINUOUS
 62
     0
 10
 9.50873894656252E+0000
 20
 7.15462121406745E+0000
 11
 9.50873894656252E+0000
 21
 6.07387135369208E+0000
  0
LINE
  8
1
  6
CONTINUOUS
 62
     0
 10
 9.09669585287338E+0000
 20
 6.19112631564349E+0000
 11
 9.09669585287338E+0000
 21
 6.64345573956234E+0000
  0
LINE
  8
1
  6
CONTINUOUS
 62
     0
 10
 9.09669585287338E+0000
 20
 6.64345573956234E+0000
 11
 9.50873894656252E+0000
 21
 6.64345573956234E+0000
  0
LINE
  8
1
  6
CONTINUOUS
 62
     0
 10
 7.27047477319138E+0000
 20
 5.83874001250661E+0000
 11
 6.43473151352373E+0000
 21
 5.83874001250661E+0000
  0
LINE
  8
1
  6
CONTINUOUS
 62
     0
 10
 6.43473151352373E+0000
 20
 5.83874001250661E+0000
 11
 6.43473151352373E+0000
 21
 4.93470258194429E+0000
  0
LINE
  8
1
  6
CONTINUOUS
 62
     0
 10
 6.43473151352373E+0000
 20
 4.93470258194429E+0000
 11
 7.30885684993700E+0000
 21
 4.93470258194429E+0000
  0
LINE
  8
1
  6
CONTINUOUS
 62
     0
 10
 8.32236269771238E+0000
 20
 4.71205152566836E+0000
 11
 8.32236269771238E+0000
 21
 3.81013853804325E+0000
  0
LINE
  8
1
  6
CONTINUOUS
 62
     0
 10
 8.32236269771238E+0000
 20
 3.81013853804325E+0000
 11
 7.52738818404032E+0000
 21
 3.81013853804325E+0000
  0
LINE
  8
1
  6
CONTINUOUS
 62
     0
 10
 7.52738818404032E+0000
 20
 3.81013853804325E+0000
 11
 7.52738818404032E+0000
 21
 4.73023639214807E+0000
  0
LINE
  8
1
  6
CONTINUOUS
 62
     0
 10
 8.32866974240460E+0000
 20
 4.26288510117593E+0000
 11
 8.09556965269439E+0000
 21
 4.26288510117593E+0000
  0
LINE
  8
1
  6
CONTINUOUS
 62
     0
 10
 8.09556965269439E+0000
 20
 4.26288510117593E+0000
 11
 8.09556965269439E+0000
 21
 4.75944584783429E+0000
  0
LINE
  8
1
  6
CONTINUOUS
 62
     0
 10
 2.94670274763848E+0000
 20
 1.31755666219397E+0000
 11
 1.77272971933598E+0000
 21
 1.31755666219397E+0000
  0
LINE
  8
1
  6
CONTINUOUS
 62
     0
 10
 1.77272971933598E+0000
 20
 1.31755666219397E+0000
 11
 1.77272971933598E+0000
 21
 2.50601409333831E+0000
  0
LINE
  8
1
  6
CONTINUOUS
 62
     0
 10
 4.97600967658218E+0000
 20
 6.84549960425647E+0000
 11
 4.97600967658218E+0000
 21
 6.84549960425647E+0000
  0
LINE
  8
1
  6
CONTINUOUS
 62
     0
 10
 4.97600967658218E+0000
 20
 6.84549960425647E+0000
 11
 4.81672034995427E+0000
 21
 6.87268112562015E+0000
  0
LINE
  8
1
  6
CONTINUOUS
 62
     0
 10
 4.81672034995427E+0000
 20
 6.87268112562015E+0000
 11
 4.81672034995427E+0000
 21
 6.81227748814854E+0000
  0
LINE
  8
1
  6
CONTINUOUS
 62
     0
 10
 4.81672034995427E+0000
 20
 6.81227748814854E+0000
 11
 4.97600967658218E+0000
 21
 6.84549960425647E+0000
  0
LINE
  8
1
  6
CONTINUOUS
 62
     0
 10
 4.81672034995427E+0000
 20
 6.87268112562015E+0000
 11
 4.81672034995427E+0000
 21
 6.81227748814854E+0000
  0
LINE
  8
1
  6
CONTINUOUS
 62
     0
 10
 4.82526528171002E+0000
 20
 6.81405965849990E+0000
 11
 4.81672034996154E+0000
 21
 6.82260459025565E+0000
  0
LINE
  8
1
  6
CONTINUOUS
 62
     0
 10
 4.84235514520697E+0000
 20
 6.81762399919535E+0000
 11
 4.81672034995427E+0000
 21
 6.84325879444077E+0000
  0
LINE
  8
1
  6
CONTINUOUS
 62
     0
 10
 4.85944500869664E+0000
 20
 6.82118833989080E+0000
 11
 4.81672034995427E+0000
 21
 6.86391299863317E+0000
  0
LINE
  8
1
  6
CONTINUOUS
 62
     0
 10
 4.87653487218631E+0000
 20
 6.82475268058624E+0000
 11
 4.83105201816215E+0000
 21
 6.87023553461040E+0000
  0
LINE
  8
1
  6
CONTINUOUS
 62
     0
 10
 4.89362473567598E+0000
 20
 6.82831702128169E+0000
 11
 4.85595587808348E+0000
 21
 6.86598587887420E+0000
  0
LINE
  8
1
  6
CONTINUOUS
 62
     0
 10
 4.91071459916566E+0000
 20
 6.83188136197714E+0000
 11
 4.88085973800480E+0000
 21
 6.86173622313800E+0000
  0
LINE
  8
1
  6
CONTINUOUS
 62
     0
 10
 4.92780446265533E+0000
 20
 6.83544570267259E+0000
 11
 4.90576359792612E+0000
 21
 6.85748656740179E+0000
  0
LINE
  8
1
  6
CONTINUOUS
 62
     0
 10
 4.94489432615228E+0000
 20
 6.83901004336076E+0000
 11
 4.93066745784745E+0000
 21
 6.85323691166559E+0000
  0
LINE
  8
1
  6
CONTINUOUS
 62
     0
 10
 4.96198418964195E+0000
 20
 6.84257438405621E+0000
 11
 4.95557131776877E+0000
 21
 6.84898725592939E+0000
  0
LINE
  8
1
  6
CONTINUOUS
 62
     0
 10
 4.96718793765467E+0000
 20
 6.84700496742153E+0000
 11
 4.96296110405819E+0000
 21
 6.84277813382505E+0000
  0
LINE
  8
1
  6
CONTINUOUS
 62
     0
 10
 4.94954445980693E+0000
 20
 6.85001569375891E+0000
 11
 4.93686395903205E+0000
 21
 6.83733519298403E+0000
  0
LINE
  8
1
  6
CONTINUOUS
 62
     0
 10
 4.93190098195191E+0000
 20
 6.85302642008901E+0000
 11
 4.91076681399136E+0000
 21
 6.83189225212845E+0000
  0
LINE
  8
1
  6
CONTINUOUS
 62
     0
 10
 4.91425750409689E+0000
 20
 6.85603714641911E+0000
 11
 4.88466966896522E+0000
 21
 6.82644931128743E+0000
  0
LINE
  8
1
  6
CONTINUOUS
 62
     0
 10
 4.89661402624188E+0000
 20
 6.85904787274922E+0000
 11
 4.85857252393180E+0000
 21
 6.82100637044641E+0000
  0
LINE
  8
1
  6
CONTINUOUS
 62
     0
 10
 4.87897054839414E+0000
 20
 6.86205859908659E+0000
 11
 4.83247537889838E+0000
 21
 6.81556342959084E+0000
  0
LINE
  8
1
  6
CONTINUOUS
 62
     0
 10
 4.86132707053912E+0000
 20
 6.86506932541670E+0000
 11
 4.81672034995427E+0000
 21
 6.82046260483185E+0000
  0
LINE
  8
1
  6
CONTINUOUS
 62
     0
 10
 4.84368359268410E+0000
 20
 6.86808005174680E+0000
 11
 4.81672034995427E+0000
 21
 6.84111680901697E+0000
  0
LINE
  8
1
  6
CONTINUOUS
 62
     0
 10
 4.82604011482908E+0000
 20
 6.87109077807690E+0000
 11
 4.81672034995427E+0000
 21
 6.86177101320209E+0000
  0
LINE
  8
1
  6
CONTINUOUS
 62
     0
 10
 3.79826225861689E+0000
 20
 6.84985432914982E+0000
 11
 3.79826225861689E+0000
 21
 6.84985432914982E+0000
  0
LINE
  8
1
  6
CONTINUOUS
 62
     0
 10
 3.79826225861689E+0000
 20
 6.84985432914982E+0000
 11
 3.95755158525208E+0000
 21
 6.82267280778615E+0000
  0
LINE
  8
1
  6
CONTINUOUS
 62
     0
 10
 3.95755158525208E+0000
 20
 6.82267280778615E+0000
 11
 3.95755158525208E+0000
 21
 6.88307644525776E+0000
  0
LINE
  8
1
  6
CONTINUOUS
 62
     0
 10
 3.95755158525208E+0000
 20
 6.88307644525776E+0000
 11
 3.79826225861689E+0000
 21
 6.84985432914982E+0000
  0
LINE
  8
1
  6
CONTINUOUS
 62
     0
 10
 3.95755158525208E+0000
 20
 6.82267280778615E+0000
 11
 3.95755158525208E+0000
 21
 6.88307644525776E+0000
  0
LINE
  8
1
  6
CONTINUOUS
 62
     0
 10
 3.81071418857755E+0000
 20
 6.84772950128536E+0000
 11
 3.80680719036172E+0000
 21
 6.85163649950118E+0000
  0
LINE
  8
1
  6
CONTINUOUS
 62
     0
 10
 3.83561804849523E+0000
 20
 6.84347984554915E+0000
 11
 3.82389705385140E+0000
 21
 6.85520084019663E+0000
  0
LINE
  8
1
  6
CONTINUOUS
 62
     0
 10
 3.86052190841656E+0000
 20
 6.83923018981295E+0000
 11
 3.84098691734107E+0000
 21
 6.85876518088480E+0000
  0
LINE
  8
1
  6
CONTINUOUS
 62
     0
 10
 3.88542576833424E+0000
 20
 6.83498053408402E+0000
 11
 3.85807678083438E+0000
 21
 6.86232952158025E+0000
  0
LINE
  8
1
  6
CONTINUOUS
 62
     0
 10
 3.91032962825557E+0000
 20
 6.83073087834782E+0000
 11
 3.87516664432405E+0000
 21
 6.86589386227570E+0000
  0
LINE
  8
1
  6
CONTINUOUS
 62
     0
 10
 3.93523348817325E+0000
 20
 6.82648122261162E+0000
 11
 3.89225650781373E+0000
 21
 6.86945820297115E+0000
  0
LINE
  8
1
  6
CONTINUOUS
 62
     0
 10
 3.95755158525571E+0000
 20
 6.82481732971792E+0000
 11
 3.90934637130340E+0000
 21
 6.87302254366659E+0000
  0
LINE
  8
1
  6
CONTINUOUS
 62
     0
 10
 3.95755158525571E+0000
 20
 6.84547153390304E+0000
 11
 3.92643623479671E+0000
 21
 6.87658688436204E+0000
  0
LINE
  8
1
  6
CONTINUOUS
 62
     0
 10
 3.95755158525208E+0000
 20
 6.86612573808816E+0000
 11
 3.94352609828275E+0000
 21
 6.88015122505749E+0000
  0
LINE
  8
1
  6
CONTINUOUS
 62
     0
 10
 3.95755158524844E+0000
 20
 6.83299990987143E+0000
 11
 3.94872984632457E+0000
 21
 6.82417817094392E+0000
  0
LINE
  8
1
  6
CONTINUOUS
 62
     0
 10
 3.95755158524844E+0000
 20
 6.85365411405655E+0000
 11
 3.93108636846955E+0000
 21
 6.82718889728130E+0000
  0
LINE
  8
1
  6
CONTINUOUS
 62
     0
 10
 3.95755158524844E+0000
 20
 6.87430831824167E+0000
 11
 3.91344289061817E+0000
 21
 6.83019962361141E+0000
  0
LINE
  8
1
  6
CONTINUOUS
 62
     0
 10
 3.94253320559073E+0000
 20
 6.87994414276909E+0000
 11
 3.89579941276679E+0000
 21
 6.83321034994879E+0000
  0
LINE
  8
1
  6
CONTINUOUS
 62
     0
 10
 3.91643606056459E+0000
 20
 6.87450120192807E+0000
 11
 3.87815593491541E+0000
 21
 6.83622107627889E+0000
  0
LINE
  8
1
  6
CONTINUOUS
 62
     0
 10
 3.89033891553117E+0000
 20
 6.86905826107977E+0000
 11
 3.86051245706039E+0000
 21
 6.83923180260899E+0000
  0
LINE
  8
1
  6
CONTINUOUS
 62
     0
 10
 3.86424177050139E+0000
 20
 6.86361532023875E+0000
 11
 3.84286897920902E+0000
 21
 6.84224252894637E+0000
  0
LINE
  8
1
  6
CONTINUOUS
 62
     0
 10
 3.83814462546798E+0000
 20
 6.85817237939045E+0000
 11
 3.82522550135400E+0000
 21
 6.84525325527648E+0000
  0
LINE
  8
1
  6
CONTINUOUS
 62
     0
 10
 3.81204748043820E+0000
 20
 6.85272943854216E+0000
 11
 3.80758202349898E+0000
 21
 6.84826398160658E+0000
  0
LINE
  8
1
  6
CONTINUOUS
 62
     0
 10
 7.35001632449712E+0000
 20
 7.14435328850232E+0000
 11
 7.35001632449712E+0000
 21
 7.14435328850232E+0000
  0
LINE
  8
1
  6
CONTINUOUS
 62
     0
 10
 7.35001632449712E+0000
 20
 7.14435328850232E+0000
 11
 7.50930565113231E+0000
 21
 7.11717176713864E+0000
  0
LINE
  8
1
  6
CONTINUOUS
 62
     0
 10
 7.50930565113231E+0000
 20
 7.11717176713864E+0000
 11
 7.50930565113231E+0000
 21
 7.17757540461025E+0000
  0
LINE
  8
1
  6
CONTINUOUS
 62
     0
 10
 7.50930565113231E+0000
 20
 7.17757540461025E+0000
 11
 7.35001632449712E+0000
 21
 7.14435328850232E+0000
  0
LINE
  8
1
  6
CONTINUOUS
 62
     0
 10
 7.50930565113231E+0000
 20
 7.11717176713864E+0000
 11
 7.50930565113231E+0000
 21
 7.17757540461025E+0000
  0
LINE
  8
1
  6
CONTINUOUS
 62
     0
 10
 7.36246825446869E+0000
 20
 7.14222846063058E+0000
 11
 7.35856125625287E+0000
 21
 7.14613545884640E+0000
  0
LINE
  8
1
  6
CONTINUOUS
 62
     0
 10
 7.38737211439002E+0000
 20
 7.13797880489437E+0000
 11
 7.37565111974254E+0000
 21
 7.14969979954185E+0000
  0
LINE
  8
1
  6
CONTINUOUS
 62
     0
 10
 7.41227597430407E+0000
 20
 7.13372914916545E+0000
 11
 7.39274098323222E+0000
 21
 7.15326414023730E+0000
  0
LINE
  8
1
  6
CONTINUOUS
 62
     0
 10
 7.43717983422539E+0000
 20
 7.12947949342924E+0000
 11
 7.40983084672189E+0000
 21
 7.15682848093275E+0000
  0
LINE
  8
1
  6
CONTINUOUS
 62
     0
 10
 7.46208369414671E+0000
 20
 7.12522983769304E+0000
 11
 7.42692071021156E+0000
 21
 7.16039282162819E+0000
  0
LINE
  8
1
  6
CONTINUOUS
 62
     0
 10
 7.48698755406804E+0000
 20
 7.12098018196411E+0000
 11
 7.44401057370123E+0000
 21
 7.16395716232364E+0000
  0
LINE
  8
1
  6
CONTINUOUS
 62
     0
 10
 7.50930565113231E+0000
 20
 7.11931628907769E+0000
 11
 7.46110043719091E+0000
 21
 7.16752150301909E+0000
  0
LINE
  8
1
  6
CONTINUOUS
 62
     0
 10
 7.50930565113231E+0000
 20
 7.13997049326281E+0000
 11
 7.47819030068058E+0000
 21
 7.17108584371454E+0000
  0
LINE
  8
1
  6
CONTINUOUS
 62
     0
 10
 7.50930565113231E+0000
 20
 7.16062469744793E+0000
 11
 7.49528016417025E+0000
 21
 7.17465018440998E+0000
  0
LINE
  8
1
  6
CONTINUOUS
 62
     0
 10
 7.50930565112503E+0000
 20
 7.12749886922393E+0000
 11
 7.50048391221208E+0000
 21
 7.11867713031097E+0000
  0
LINE
  8
1
  6
CONTINUOUS
 62
     0
 10
 7.50930565112503E+0000
 20
 7.14815307340905E+0000
 11
 7.48284043435706E+0000
 21
 7.12168785664107E+0000
  0
LINE
  8
1
  6
CONTINUOUS
 62
     0
 10
 7.50930565112503E+0000
 20
 7.16880727759417E+0000
 11
 7.46519695650204E+0000
 21
 7.12469858297118E+0000
  0
LINE
  8
1
  6
CONTINUOUS
 62
     0
 10
 7.49428727146733E+0000
 20
 7.17444310212159E+0000
 11
 7.44755347864702E+0000
 21
 7.12770930930128E+0000
  0
LINE
  8
1
  6
CONTINUOUS
 62
     0
 10
 7.46819012644119E+0000
 20
 7.16900016128056E+0000
 11
 7.42991000079201E+0000
 21
 7.13072003563866E+0000
  0
LINE
  8
1
  6
CONTINUOUS
 62
     0
 10
 7.44209298140777E+0000
 20
 7.16355722043227E+0000
 11
 7.41226652294426E+0000
 21
 7.13373076196876E+0000
  0
LINE
  8
1
  6
CONTINUOUS
 62
     0
 10
 7.41599583636707E+0000
 20
 7.15811427958397E+0000
 11
 7.39462304508925E+0000
 21
 7.13674148829887E+0000
  0
LINE
  8
1
  6
CONTINUOUS
 62
     0
 10
 7.38989869134093E+0000
 20
 7.15267133873567E+0000
 11
 7.37697956723423E+0000
 21
 7.13975221462897E+0000
  0
LINE
  8
1
  6
CONTINUOUS
 62
     0
 10
 7.36380154631479E+0000
 20
 7.14722839789465E+0000
 11
 7.35933608937921E+0000
 21
 7.14276294095907E+0000
  0
LINE
  8
1
  6
CONTINUOUS
 62
     0
 10
 9.49492191339959E+0000
 20
 7.14862979510508E+0000
 11
 9.49492191339959E+0000
 21
 7.14862979510508E+0000
  0
LINE
  8
1
  6
CONTINUOUS
 62
     0
 10
 9.49492191339959E+0000
 20
 7.14862979510508E+0000
 11
 9.33563258676440E+0000
 21
 7.17581131646875E+0000
  0
LINE
  8
1
  6
CONTINUOUS
 62
     0
 10
 9.33563258676440E+0000
 20
 7.17581131646875E+0000
 11
 9.33563258676440E+0000
 21
 7.11540767899714E+0000
  0
LINE
  8
1
  6
CONTINUOUS
 62
     0
 10
 9.33563258676440E+0000
 20
 7.11540767899714E+0000
 11
 9.49492191339959E+0000
 21
 7.14862979510508E+0000
  0
LINE
  8
1
  6
CONTINUOUS
 62
     0
 10
 9.33563258676440E+0000
 20
 7.17581131646875E+0000
 11
 9.33563258676440E+0000
 21
 7.11540767899714E+0000
  0
LINE
  8
1
  6
CONTINUOUS
 62
     0
 10
 9.34417751852015E+0000
 20
 7.11718984934851E+0000
 11
 9.33563258676440E+0000
 21
 7.12573478110426E+0000
  0
LINE
  8
1
  6
CONTINUOUS
 62
     0
 10
 9.36126738201710E+0000
 20
 7.12075419004395E+0000
 11
 9.33563258676440E+0000
 21
 7.14638898528938E+0000
  0
LINE
  8
1
  6
CONTINUOUS
 62
     0
 10
 9.37835724549950E+0000
 20
 7.12431853073940E+0000
 11
 9.33563258676440E+0000
 21
 7.16704318947450E+0000
  0
LINE
  8
1
  6
CONTINUOUS
 62
     0
 10
 9.39544710899645E+0000
 20
 7.12788287143485E+0000
 11
 9.34996425497229E+0000
 21
 7.17336572545901E+0000
  0
LINE
  8
1
  6
CONTINUOUS
 62
     0
 10
 9.41253697247885E+0000
 20
 7.13144721213030E+0000
 11
 9.37486811488634E+0000
 21
 7.16911606972280E+0000
  0
LINE
  8
1
  6
CONTINUOUS
 62
     0
 10
 9.42962683597580E+0000
 20
 7.13501155282574E+0000
 11
 9.39977197480039E+0000
 21
 7.16486641398660E+0000
  0
LINE
  8
1
  6
CONTINUOUS
 62
     0
 10
 9.44671669945819E+0000
 20
 7.13857589352119E+0000
 11
 9.42467583472899E+0000
 21
 7.16061675825767E+0000
  0
LINE
  8
1
  6
CONTINUOUS
 62
     0
 10
 9.46380656295514E+0000
 20
 7.14214023420936E+0000
 11
 9.44957969464303E+0000
 21
 7.15636710252147E+0000
  0
LINE
  8
1
  6
CONTINUOUS
 62
     0
 10
 9.48089642643754E+0000
 20
 7.14570457490481E+0000
 11
 9.47448355457163E+0000
 21
 7.15211744678527E+0000
  0
LINE
  8
1
  6
CONTINUOUS
 62
     0
 10
 9.48610017445753E+0000
 20
 7.15013515826286E+0000
 11
 9.48187334086106E+0000
 21
 7.14590832466638E+0000
  0
LINE
  8
1
  6
CONTINUOUS
 62
     0
 10
 9.46845669661707E+0000
 20
 7.15314588460024E+0000
 11
 9.45577619584219E+0000
 21
 7.14046538382536E+0000
  0
LINE
  8
1
  6
CONTINUOUS
 62
     0
 10
 9.45081321876205E+0000
 20
 7.15615661093034E+0000
 11
 9.42967905080877E+0000
 21
 7.13502244298434E+0000
  0
LINE
  8
1
  6
CONTINUOUS
 62
     0
 10
 9.43316974090703E+0000
 20
 7.15916733726044E+0000
 11
 9.40358190577535E+0000
 21
 7.12957950213604E+0000
  0
LINE
  8
1
  6
CONTINUOUS
 62
     0
 10
 9.41552626305202E+0000
 20
 7.16217806359055E+0000
 11
 9.37748476075649E+0000
 21
 7.12413656129502E+0000
  0
LINE
  8
1
  6
CONTINUOUS
 62
     0
 10
 9.39788278519700E+0000
 20
 7.16518878992792E+0000
 11
 9.35138761572307E+0000
 21
 7.11869362045400E+0000
  0
LINE
  8
1
  6
CONTINUOUS
 62
     0
 10
 9.38023930734198E+0000
 20
 7.16819951625803E+0000
 11
 9.33563258676440E+0000
 21
 7.12359279567318E+0000
  0
LINE
  8
1
  6
CONTINUOUS
 62
     0
 10
 9.36259582948696E+0000
 20
 7.17121024258813E+0000
 11
 9.33563258676440E+0000
 21
 7.14424699985830E+0000
  0
LINE
  8
1
  6
CONTINUOUS
 62
     0
 10
 9.34495235164650E+0000
 20
 7.17422096893279E+0000
 11
 9.33563258676440E+0000
 21
 7.16490120404342E+0000
  0
LINE
  8
1
  6
CONTINUOUS
 62
     0
 10
 9.48631194108748E+0000
 20
 6.63938713639800E+0000
 11
 9.48631194108748E+0000
 21
 6.63938713639800E+0000
  0
LINE
  8
1
  6
CONTINUOUS
 62
     0
 10
 9.48631194108748E+0000
 20
 6.63938713639800E+0000
 11
 9.32702261445229E+0000
 21
 6.66656865776167E+0000
  0
LINE
  8
1
  6
CONTINUOUS
 62
     0
 10
 9.32702261445229E+0000
 20
 6.66656865776167E+0000
 11
 9.32702261445229E+0000
 21
 6.60616502029006E+0000
  0
LINE
  8
1
  6
CONTINUOUS
 62
     0
 10
 9.32702261445229E+0000
 20
 6.60616502029006E+0000
 11
 9.48631194108748E+0000
 21
 6.63938713639800E+0000
  0
LINE
  8
1
  6
CONTINUOUS
 62
     0
 10
 9.32702261445229E+0000
 20
 6.66656865776167E+0000
 11
 9.32702261445229E+0000
 21
 6.60616502029006E+0000
  0
LINE
  8
1
  6
CONTINUOUS
 62
     0
 10
 9.33556754620804E+0000
 20
 6.60794719064143E+0000
 11
 9.32702261445229E+0000
 21
 6.61649212239718E+0000
  0
LINE
  8
1
  6
CONTINUOUS
 62
     0
 10
 9.35265740970499E+0000
 20
 6.61151153133687E+0000
 11
 9.32702261445229E+0000
 21
 6.63714632658230E+0000
  0
LINE
  8
1
  6
CONTINUOUS
 62
     0
 10
 9.36974727318739E+0000
 20
 6.61507587203232E+0000
 11
 9.32702261445229E+0000
 21
 6.65780053076742E+0000
  0
LINE
  8
1
  6
CONTINUOUS
 62
     0
 10
 9.38683713668433E+0000
 20
 6.61864021272777E+0000
 11
 9.34135428266018E+0000
 21
 6.66412306675193E+0000
  0
LINE
  8
1
  6
CONTINUOUS
 62
     0
 10
 9.40392700016673E+0000
 20
 6.62220455342322E+0000
 11
 9.36625814257422E+0000
 21
 6.65987341101572E+0000
  0
LINE
  8
1
  6
CONTINUOUS
 62
     0
 10
 9.42101686366368E+0000
 20
 6.62576889411866E+0000
 11
 9.39116200248827E+0000
 21
 6.65562375528680E+0000
  0
LINE
  8
1
  6
CONTINUOUS
 62
     0
 10
 9.43810672714608E+0000
 20
 6.62933323481411E+0000
 11
 9.41606586241687E+0000
 21
 6.65137409955059E+0000
  0
LINE
  8
1
  6
CONTINUOUS
 62
     0
 10
 9.45519659064303E+0000
 20
 6.63289757550956E+0000
 11
 9.44096972233092E+0000
 21
 6.64712444381439E+0000
  0
LINE
  8
1
  6
CONTINUOUS
 62
     0
 10
 9.47228645413998E+0000
 20
 6.63646191619773E+0000
 11
 9.46587358225952E+0000
 21
 6.64287478808546E+0000
  0
LINE
  8
1
  6
CONTINUOUS
 62
     0
 10
 9.47749020215997E+0000
 20
 6.64089249955578E+0000
 11
 9.47326336856349E+0000
 21
 6.63666566595930E+0000
  0
LINE
  8
1
  6
CONTINUOUS
 62
     0
 10
 9.45984672430495E+0000
 20
 6.64390322589315E+0000
 11
 9.44716622353008E+0000
 21
 6.63122272511828E+0000
  0
LINE
  8
1
  6
CONTINUOUS
 62
     0
 10
 9.44220324644994E+0000
 20
 6.64691395222326E+0000
 11
 9.42106907849666E+0000
 21
 6.62577978427726E+0000
  0
LINE
  8
1
  6
CONTINUOUS
 62
     0
 10
 9.42455976859492E+0000
 20
 6.64992467855336E+0000
 11
 9.39497193346324E+0000
 21
 6.62033684342896E+0000
  0
LINE
  8
1
  6
CONTINUOUS
 62
     0
 10
 9.40691629073990E+0000
 20
 6.65293540488346E+0000
 11
 9.36887478844437E+0000
 21
 6.61489390258794E+0000
  0
LINE
  8
1
  6
CONTINUOUS
 62
     0
 10
 9.38927281288488E+0000
 20
 6.65594613122084E+0000
 11
 9.34277764341095E+0000
 21
 6.60945096174692E+0000
  0
LINE
  8
1
  6
CONTINUOUS
 62
     0
 10
 9.37162933502987E+0000
 20
 6.65895685755095E+0000
 11
 9.32702261445229E+0000
 21
 6.61435013696610E+0000
  0
LINE
  8
1
  6
CONTINUOUS
 62
     0
 10
 9.35398585718940E+0000
 20
 6.66196758389560E+0000
 11
 9.32702261445229E+0000
 21
 6.63500434115122E+0000
  0
LINE
  8
1
  6
CONTINUOUS
 62
     0
 10
 9.33634237933438E+0000
 20
 6.66497831022571E+0000
 11
 9.32702261445229E+0000
 21
 6.65565854533634E+0000
  0
LINE
  8
1
  6
CONTINUOUS
 62
     0
 10
 9.08923073166807E+0000
 20
 6.64374186129135E+0000
 11
 9.08923073166807E+0000
 21
 6.64374186129135E+0000
  0
LINE
  8
1
  6
CONTINUOUS
 62
     0
 10
 9.08923073166807E+0000
 20
 6.64374186129135E+0000
 11
 9.24852005830326E+0000
 21
 6.61656033992767E+0000
  0
LINE
  8
1
  6
CONTINUOUS
 62
     0
 10
 9.24852005830326E+0000
 20
 6.61656033992767E+0000
 11
 9.24852005830326E+0000
 21
 6.67696397739928E+0000
  0
LINE
  8
1
  6
CONTINUOUS
 62
     0
 10
 9.24852005830326E+0000
 20
 6.67696397739928E+0000
 11
 9.08923073166807E+0000
 21
 6.64374186129135E+0000
  0
LINE
  8
1
  6
CONTINUOUS
 62
     0
 10
 9.24852005830326E+0000
 20
 6.61656033992767E+0000
 11
 9.24852005830326E+0000
 21
 6.67696397739928E+0000
  0
LINE
  8
1
  6
CONTINUOUS
 62
     0
 10
 9.10168266163964E+0000
 20
 6.64161703342688E+0000
 11
 9.09777566342382E+0000
 21
 6.64552403164271E+0000
  0
LINE
  8
1
  6
CONTINUOUS
 62
     0
 10
 9.12658652156824E+0000
 20
 6.63736737769068E+0000
 11
 9.11486552692077E+0000
 21
 6.64908837233816E+0000
  0
LINE
  8
1
  6
CONTINUOUS
 62
     0
 10
 9.15149038148229E+0000
 20
 6.63311772195448E+0000
 11
 9.13195539040316E+0000
 21
 6.65265271303360E+0000
  0
LINE
  8
1
  6
CONTINUOUS
 62
     0
 10
 9.17639424139634E+0000
 20
 6.62886806622555E+0000
 11
 9.14904525390011E+0000
 21
 6.65621705372905E+0000
  0
LINE
  8
1
  6
CONTINUOUS
 62
     0
 10
 9.20129810132494E+0000
 20
 6.62461841048935E+0000
 11
 9.16613511738251E+0000
 21
 6.65978139442450E+0000
  0
LINE
  8
1
  6
CONTINUOUS
 62
     0
 10
 9.22620196123898E+0000
 20
 6.62036875475314E+0000
 11
 9.18322498087946E+0000
 21
 6.66334573511995E+0000
  0
LINE
  8
1
  6
CONTINUOUS
 62
     0
 10
 9.24852005831781E+0000
 20
 6.61870486186672E+0000
 11
 9.20031484436186E+0000
 21
 6.66691007581539E+0000
  0
LINE
  8
1
  6
CONTINUOUS
 62
     0
 10
 9.24852005830326E+0000
 20
 6.63935906605911E+0000
 11
 9.21740470785880E+0000
 21
 6.67047441651084E+0000
  0
LINE
  8
1
  6
CONTINUOUS
 62
     0
 10
 9.24852005830326E+0000
 20
 6.66001327024424E+0000
 11
 9.23449457135575E+0000
 21
 6.67403875719901E+0000
  0
LINE
  8
1
  6
CONTINUOUS
 62
     0
 10
 9.24852005828870E+0000
 20
 6.62688744200568E+0000
 11
 9.23969831937575E+0000
 21
 6.61806570309273E+0000
  0
LINE
  8
1
  6
CONTINUOUS
 62
     0
 10
 9.24852005828870E+0000
 20
 6.64754164619080E+0000
 11
 9.22205484152073E+0000
 21
 6.62107642942283E+0000
  0
LINE
  8
1
  6
CONTINUOUS
 62
     0
 10
 9.24852005828870E+0000
 20
 6.66819585037592E+0000
 11
 9.20441136366571E+0000
 21
 6.62408715575293E+0000
  0
LINE
  8
1
  6
CONTINUOUS
 62
     0
 10
 9.23350167862372E+0000
 20
 6.67383167490334E+0000
 11
 9.18676788581070E+0000
 21
 6.62709788209031E+0000
  0
LINE
  8
1
  6
CONTINUOUS
 62
     0
 10
 9.20740453360486E+0000
 20
 6.66838873406232E+0000
 11
 9.16912440795568E+0000
 21
 6.63010860842041E+0000
  0
LINE
  8
1
  6
CONTINUOUS
 62
     0
 10
 9.18130738857144E+0000
 20
 6.66294579322130E+0000
 11
 9.15148093010066E+0000
 21
 6.63311933475052E+0000
  0
LINE
  8
1
  6
CONTINUOUS
 62
     0
 10
 9.15521024353802E+0000
 20
 6.65750285237300E+0000
 11
 9.13383745224564E+0000
 21
 6.63613006108062E+0000
  0
LINE
  8
1
  6
CONTINUOUS
 62
     0
 10
 9.12911309851916E+0000
 20
 6.65205991153198E+0000
 11
 9.11619397439063E+0000
 21
 6.63914078741800E+0000
  0
LINE
  8
1
  6
CONTINUOUS
 62
     0
 10
 9.10301595348574E+0000
 20
 6.64661697069096E+0000
 11
 9.09855049655016E+0000
 21
 6.64215151375538E+0000
  0
LINE
  8
1
  6
CONTINUOUS
 62
     0
 10
 6.43110099416663E+0000
 20
 5.83446172939148E+0000
 11
 6.43110099416663E+0000
 21
 5.83446172939148E+0000
  0
LINE
  8
1
  6
CONTINUOUS
 62
     0
 10
 6.43110099416663E+0000
 20
 5.83446172939148E+0000
 11
 6.40391947280295E+0000
 21
 5.67517240276356E+0000
  0
LINE
  8
1
  6
CONTINUOUS
 62
     0
 10
 6.40391947280295E+0000
 20
 5.67517240276356E+0000
 11
 6.46432311027456E+0000
 21
 5.67517240276356E+0000
  0
LINE
  8
1
  6
CONTINUOUS
 62
     0
 10
 6.46432311027456E+0000
 20
 5.67517240276356E+0000
 11
 6.43110099416663E+0000
 21
 5.83446172939148E+0000
  0
LINE
  8
1
  6
CONTINUOUS
 62
     0
 10
 6.40391947280295E+0000
 20
 5.67517240276356E+0000
 11
 6.46432311027456E+0000
 21
 5.67517240276356E+0000
  0
LINE
  8
1
  6
CONTINUOUS
 62
     0
 10
 6.41424657491007E+0000
 20
 5.67517240277084E+0000
 11
 6.40542483597528E+0000
 21
 5.68399414170563E+0000
  0
LINE
  8
1
  6
CONTINUOUS
 62
     0
 10
 6.43490077909519E+0000
 20
 5.67517240276356E+0000
 11
 6.40843556230539E+0000
 21
 5.70163761955337E+0000
  0
LINE
  8
1
  6
CONTINUOUS
 62
     0
 10
 6.45555498328031E+0000
 20
 5.67517240276356E+0000
 11
 6.41144628864276E+0000
 21
 5.71928109740838E+0000
  0
LINE
  8
1
  6
CONTINUOUS
 62
     0
 10
 6.46119080779317E+0000
 20
 5.69019078244310E+0000
 11
 6.41445701497287E+0000
 21
 5.73692457526340E+0000
  0
LINE
  8
1
  6
CONTINUOUS
 62
     0
 10
 6.45574786694488E+0000
 20
 5.71628792747651E+0000
 11
 6.41746774130297E+0000
 21
 5.75456805311842E+0000
  0
LINE
  8
1
  6
CONTINUOUS
 62
     0
 10
 6.45030492610385E+0000
 20
 5.74238507250266E+0000
 11
 6.42047846764035E+0000
 21
 5.77221153096616E+0000
  0
LINE
  8
1
  6
CONTINUOUS
 62
     0
 10
 6.44486198525556E+0000
 20
 5.76848221753608E+0000
 11
 6.42348919397045E+0000
 21
 5.78985500882118E+0000
  0
LINE
  8
1
  6
CONTINUOUS
 62
     0
 10
 6.43941904440726E+0000
 20
 5.79457936256949E+0000
 11
 6.42649992030056E+0000
 21
 5.80749848667620E+0000
  0
LINE
  8
1
  6
CONTINUOUS
 62
     0
 10
 6.43397610355896E+0000
 20
 5.82067650760291E+0000
 11
 6.42951064663794E+0000
 21
 5.82514196452394E+0000
  0
LINE
  8
1
  6
CONTINUOUS
 62
     0
 10
 6.46254093992320E+0000
 20
 5.68371733450476E+0000
 11
 6.45399600817473E+0000
 21
 5.67517240275629E+0000
  0
LINE
  8
1
  6
CONTINUOUS
 62
     0
 10
 6.45897659923503E+0000
 20
 5.70080719800171E+0000
 11
 6.43334180398961E+0000
 21
 5.67517240275629E+0000
  0
LINE
  8
1
  6
CONTINUOUS
 62
     0
 10
 6.45541225853958E+0000
 20
 5.71789706149139E+0000
 11
 6.41268759980449E+0000
 21
 5.67517240275629E+0000
  0
LINE
  8
1
  6
CONTINUOUS
 62
     0
 10
 6.45184791784413E+0000
 20
 5.73498692498106E+0000
 11
 6.40636506379815E+0000
 21
 5.68950407094235E+0000
  0
LINE
  8
1
  6
CONTINUOUS
 62
     0
 10
 6.44828357714141E+0000
 20
 5.75207678846346E+0000
 11
 6.41061471953435E+0000
 21
 5.71440793086367E+0000
  0
LINE
  8
1
  6
CONTINUOUS
 62
     0
 10
 6.44471923644596E+0000
 20
 5.76916665195313E+0000
 11
 6.41486437527055E+0000
 21
 5.73931179078500E+0000
  0
LINE
  8
1
  6
CONTINUOUS
 62
     0
 10
 6.44115489575051E+0000
 20
 5.78625651545008E+0000
 11
 6.41911403100676E+0000
 21
 5.76421565070632E+0000
  0
LINE
  8
1
  6
CONTINUOUS
 62
     0
 10
 6.43759055506234E+0000
 20
 5.80334637893975E+0000
 11
 6.42336368674296E+0000
 21
 5.78911951062037E+0000
  0
LINE
  8
1
  6
CONTINUOUS
 62
     0
 10
 6.43402621436690E+0000
 20
 5.82043624242942E+0000
 11
 6.42761334247916E+0000
 21
 5.81402337054169E+0000
  0
LINE
  8
1
  6
CONTINUOUS
 62
     0
 10
 6.43795699755719E+0000
 20
 4.92074334327481E+0000
 11
 6.43795699755719E+0000
 21
 4.92074334327481E+0000
  0
LINE
  8
1
  6
CONTINUOUS
 62
     0
 10
 6.43795699755719E+0000
 20
 4.92074334327481E+0000
 11
 6.46513851892087E+0000
 21
 5.08003266990272E+0000
  0
LINE
  8
1
  6
CONTINUOUS
 62
     0
 10
 6.46513851892087E+0000
 20
 5.08003266990272E+0000
 11
 6.40473488144926E+0000
 21
 5.08003266990272E+0000
  0
LINE
  8
1
  6
CONTINUOUS
 62
     0
 10
 6.40473488144926E+0000
 20
 5.08003266990272E+0000
 11
 6.43795699755719E+0000
 21
 4.92074334327481E+0000
  0
LINE
  8
1
  6
CONTINUOUS
 62
     0
 10
 6.46513851892087E+0000
 20
 5.08003266990272E+0000
 11
 6.40473488144926E+0000
 21
 5.08003266990272E+0000
  0
LINE
  8
1
  6
CONTINUOUS
 62
     0
 10
 6.43946236072225E+0000
 20
 4.92956508220959E+0000
 11
 6.43523552713305E+0000
 21
 4.93379191580607E+0000
  0
LINE
  8
1
  6
CONTINUOUS
 62
     0
 10
 6.44247308705962E+0000
 20
 4.94720856006461E+0000
 11
 6.42979258628475E+0000
 21
 4.95988906083949E+0000
  0
LINE
  8
1
  6
CONTINUOUS
 62
     0
 10
 6.44548381338973E+0000
 20
 4.96485203791963E+0000
 11
 6.42434964543645E+0000
 21
 4.98598620587290E+0000
  0
LINE
  8
1
  6
CONTINUOUS
 62
     0
 10
 6.44849453972711E+0000
 20
 4.98249551576737E+0000
 11
 6.41890670459543E+0000
 21
 5.01208335089905E+0000
  0
LINE
  8
1
  6
CONTINUOUS
 62
     0
 10
 6.45150526605721E+0000
 20
 5.00013899362239E+0000
 11
 6.41346376374713E+0000
 21
 5.03818049593247E+0000
  0
LINE
  8
1
  6
CONTINUOUS
 62
     0
 10
 6.45451599238731E+0000
 20
 5.01778247147740E+0000
 11
 6.40802082289883E+0000
 21
 5.06427764096588E+0000
  0
LINE
  8
1
  6
CONTINUOUS
 62
     0
 10
 6.45752671871742E+0000
 20
 5.03542594933242E+0000
 11
 6.41291999814712E+0000
 21
 5.08003266990272E+0000
  0
LINE
  8
1
  6
CONTINUOUS
 62
     0
 10
 6.46053744505480E+0000
 20
 5.05306942718016E+0000
 11
 6.43357420233224E+0000
 21
 5.08003266990272E+0000
  0
LINE
  8
1
  6
CONTINUOUS
 62
     0
 10
 6.46354817138490E+0000
 20
 5.07071290503518E+0000
 11
 6.45422840651736E+0000
 21
 5.08003266990272E+0000
  0
LINE
  8
1
  6
CONTINUOUS
 62
     0
 10
 6.44008182542166E+0000
 20
 4.93319527323183E+0000
 11
 6.43617482720583E+0000
 21
 4.92928827501601E+0000
  0
LINE
  8
1
  6
CONTINUOUS
 62
     0
 10
 6.44433148115786E+0000
 20
 4.95809913315315E+0000
 11
 6.43261048651038E+0000
 21
 4.94637813851296E+0000
  0
LINE
  8
1
  6
CONTINUOUS
 62
     0
 10
 6.44858113689406E+0000
 20
 4.98300299307448E+0000
 11
 6.42904614582221E+0000
 21
 4.96346800200263E+0000
  0
LINE
  8
1
  6
CONTINUOUS
 62
     0
 10
 6.45283079263027E+0000
 20
 5.00790685299580E+0000
 11
 6.42548180512676E+0000
 21
 4.98055786549230E+0000
  0
LINE
  8
1
  6
CONTINUOUS
 62
     0
 10
 6.45708044836647E+0000
 20
 5.03281071291713E+0000
 11
 6.42191746442404E+0000
 21
 4.99764772897470E+0000
  0
LINE
  8
1
  6
CONTINUOUS
 62
     0
 10
 6.46133010410267E+0000
 20
 5.05771457283845E+0000
 11
 6.41835312372859E+0000
 21
 5.01473759246437E+0000
  0
LINE
  8
1
  6
CONTINUOUS
 62
     0
 10
 6.46299399697455E+0000
 20
 5.08003266990272E+0000
 11
 6.41478878303315E+0000
 21
 5.03182745596132E+0000
  0
LINE
  8
1
  6
CONTINUOUS
 62
     0
 10
 6.44233979278943E+0000
 20
 5.08003266990272E+0000
 11
 6.41122444233770E+0000
 21
 5.04891731945099E+0000
  0
LINE
  8
1
  6
CONTINUOUS
 62
     0
 10
 6.42168558860430E+0000
 20
 5.08003266990272E+0000
 11
 6.40766010164953E+0000
 21
 5.06600718294067E+0000
  0
LINE
  8
1
  6
CONTINUOUS
 62
     0
 10
 7.53943571538548E+0000
 20
 3.81269792813691E+0000
 11
 7.53943571538548E+0000
 21
 3.81269792813691E+0000
  0
LINE
  8
1
  6
CONTINUOUS
 62
     0
 10
 7.53943571538548E+0000
 20
 3.81269792813691E+0000
 11
 7.69872504202067E+0000
 21
 3.78551640677324E+0000
  0
LINE
  8
1
  6
CONTINUOUS
 62
     0
 10
 7.69872504202067E+0000
 20
 3.78551640677324E+0000
 11
 7.69872504202067E+0000
 21
 3.84592004424485E+0000
  0
LINE
  8
1
  6
CONTINUOUS
 62
     0
 10
 7.69872504202067E+0000
 20
 3.84592004424485E+0000
 11
 7.53943571538548E+0000
 21
 3.81269792813691E+0000
  0
LINE
  8
1
  6
CONTINUOUS
 62
     0
 10
 7.69872504202067E+0000
 20
 3.78551640677324E+0000
 11
 7.69872504202067E+0000
 21
 3.84592004424485E+0000
  0
LINE
  8
1
  6
CONTINUOUS
 62
     0
 10
 7.55188764536433E+0000
 20
 3.81057310026881E+0000
 11
 7.54798064714123E+0000
 21
 3.81448009848827E+0000
  0
LINE
  8
1
  6
CONTINUOUS
 62
     0
 10
 7.57679150528566E+0000
 20
 3.80632344453261E+0000
 11
 7.56507051063818E+0000
 21
 3.81804443918372E+0000
  0
LINE
  8
1
  6
CONTINUOUS
 62
     0
 10
 7.60169536520698E+0000
 20
 3.80207378879641E+0000
 11
 7.58216037412058E+0000
 21
 3.82160877987917E+0000
  0
LINE
  8
1
  6
CONTINUOUS
 62
     0
 10
 7.62659922512830E+0000
 20
 3.79782413306020E+0000
 11
 7.59925023761753E+0000
 21
 3.82517312057098E+0000
  0
LINE
  8
1
  6
CONTINUOUS
 62
     0
 10
 7.65150308504963E+0000
 20
 3.79357447732400E+0000
 11
 7.61634010110720E+0000
 21
 3.82873746127007E+0000
  0
LINE
  8
1
  6
CONTINUOUS
 62
     0
 10
 7.67640694497095E+0000
 20
 3.78932482158780E+0000
 11
 7.63342996459687E+0000
 21
 3.83230180196188E+0000
  0
LINE
  8
1
  6
CONTINUOUS
 62
     0
 10
 7.69872504202067E+0000
 20
 3.78766092872320E+0000
 11
 7.65051982808654E+0000
 21
 3.83586614265732E+0000
  0
LINE
  8
1
  6
CONTINUOUS
 62
     0
 10
 7.69872504202067E+0000
 20
 3.80831513290832E+0000
 11
 7.66760969157622E+0000
 21
 3.83943048335277E+0000
  0
LINE
  8
1
  6
CONTINUOUS
 62
     0
 10
 7.69872504202795E+0000
 20
 3.82896933708980E+0000
 11
 7.68469955506589E+0000
 21
 3.84299482404458E+0000
  0
LINE
  8
1
  6
CONTINUOUS
 62
     0
 10
 7.69872504200612E+0000
 20
 3.79584350885489E+0000
 11
 7.68990330309316E+0000
 21
 3.78702176993829E+0000
  0
LINE
  8
1
  6
CONTINUOUS
 62
     0
 10
 7.69872504200612E+0000
 20
 3.81649771304001E+0000
 11
 7.67225982523814E+0000
 21
 3.79003249626840E+0000
  0
LINE
  8
1
  6
CONTINUOUS
 62
     0
 10
 7.69872504200612E+0000
 20
 3.83715191722513E+0000
 11
 7.65461634738313E+0000
 21
 3.79304322260214E+0000
  0
LINE
  8
1
  6
CONTINUOUS
 62
     0
 10
 7.68370666235569E+0000
 20
 3.84278774176346E+0000
 11
 7.63697286952811E+0000
 21
 3.79605394893224E+0000
  0
LINE
  8
1
  6
CONTINUOUS
 62
     0
 10
 7.65760951732227E+0000
 20
 3.83734480090789E+0000
 11
 7.61932939167309E+0000
 21
 3.79906467526598E+0000
  0
LINE
  8
1
  6
CONTINUOUS
 62
     0
 10
 7.63151237228885E+0000
 20
 3.83190186006686E+0000
 11
 7.60168591382535E+0000
 21
 3.80207540159608E+0000
  0
LINE
  8
1
  6
CONTINUOUS
 62
     0
 10
 7.60541522726271E+0000
 20
 3.82645891922220E+0000
 11
 7.58404243597033E+0000
 21
 3.80508612792983E+0000
  0
LINE
  8
1
  6
CONTINUOUS
 62
     0
 10
 7.57931808223657E+0000
 20
 3.82101597837755E+0000
 11
 7.56639895812987E+0000
 21
 3.80809685427084E+0000
  0
LINE
  8
1
  6
CONTINUOUS
 62
     0
 10
 7.55322093720315E+0000
 20
 3.81557303753652E+0000
 11
 7.54875548027485E+0000
 21
 3.81110758060458E+0000
  0
LINE
  8
1
  6
CONTINUOUS
 62
     0
 10
 8.30674573425495E+0000
 20
 3.80834320324357E+0000
 11
 8.30674573425495E+0000
 21
 3.80834320324357E+0000
  0
LINE
  8
1
  6
CONTINUOUS
 62
     0
 10
 8.30674573425495E+0000
 20
 3.80834320324357E+0000
 11
 8.14745640761976E+0000
 21
 3.83552472460724E+0000
  0
LINE
  8
1
  6
CONTINUOUS
 62
     0
 10
 8.14745640761976E+0000
 20
 3.83552472460724E+0000
 11
 8.14745640761976E+0000
 21
 3.77512108713563E+0000
  0
LINE
  8
1
  6
CONTINUOUS
 62
     0
 10
 8.14745640761976E+0000
 20
 3.77512108713563E+0000
 11
 8.30674573425495E+0000
 21
 3.80834320324357E+0000
  0
LINE
  8
1
  6
CONTINUOUS
 62
     0
 10
 8.14745640761976E+0000
 20
 3.83552472460724E+0000
 11
 8.14745640761976E+0000
 21
 3.77512108713563E+0000
  0
LINE
  8
1
  6
CONTINUOUS
 62
     0
 10
 8.15600133937551E+0000
 20
 3.77690325748335E+0000
 11
 8.14745640761976E+0000
 21
 3.78544818923547E+0000
  0
LINE
  8
1
  6
CONTINUOUS
 62
     0
 10
 8.17309120285790E+0000
 20
 3.78046759817516E+0000
 11
 8.14745640761976E+0000
 21
 3.80610239341695E+0000
  0
LINE
  8
1
  6
CONTINUOUS
 62
     0
 10
 8.19018106635485E+0000
 20
 3.78403193887425E+0000
 11
 8.14745640761976E+0000
 21
 3.82675659759843E+0000
  0
LINE
  8
1
  6
CONTINUOUS
 62
     0
 10
 8.20727092985180E+0000
 20
 3.78759627956606E+0000
 11
 8.16178807581309E+0000
 21
 3.83307913360477E+0000
  0
LINE
  8
1
  6
CONTINUOUS
 62
     0
 10
 8.22436079333420E+0000
 20
 3.79116062026151E+0000
 11
 8.18669193572714E+0000
 21
 3.82882947786857E+0000
  0
LINE
  8
1
  6
CONTINUOUS
 62
     0
 10
 8.24145065683115E+0000
 20
 3.79472496095696E+0000
 11
 8.21159579565574E+0000
 21
 3.82457982213236E+0000
  0
LINE
  8
1
  6
CONTINUOUS
 62
     0
 10
 8.25854052031355E+0000
 20
 3.79828930164877E+0000
 11
 8.23649965556979E+0000
 21
 3.82033016639616E+0000
  0
LINE
  8
1
  6
CONTINUOUS
 62
     0
 10
 8.27563038381049E+0000
 20
 3.80185364234785E+0000
 11
 8.26140351549839E+0000
 21
 3.81608051065996E+0000
  0
LINE
  8
1
  6
CONTINUOUS
 62
     0
 10
 8.29272024729289E+0000
 20
 3.80541798303966E+0000
 11
 8.28630737541243E+0000
 21
 3.81183085492376E+0000
  0
LINE
  8
1
  6
CONTINUOUS
 62
     0
 10
 8.29792399532744E+0000
 20
 3.80984856641226E+0000
 11
 8.29369716173096E+0000
 21
 3.80562173281214E+0000
  0
LINE
  8
1
  6
CONTINUOUS
 62
     0
 10
 8.28028051747242E+0000
 20
 3.81285929274236E+0000
 11
 8.26760001669754E+0000
 21
 3.80017879197112E+0000
  0
LINE
  8
1
  6
CONTINUOUS
 62
     0
 10
 8.26263703961740E+0000
 20
 3.81587001907610E+0000
 11
 8.24150287167868E+0000
 21
 3.79473585112646E+0000
  0
LINE
  8
1
  6
CONTINUOUS
 62
     0
 10
 8.24499356176239E+0000
 20
 3.81888074540620E+0000
 11
 8.21540572663071E+0000
 21
 3.78929291027453E+0000
  0
LINE
  8
1
  6
CONTINUOUS
 62
     0
 10
 8.22735008390737E+0000
 20
 3.82189147173995E+0000
 11
 8.18930858161184E+0000
 21
 3.78384996942987E+0000
  0
LINE
  8
1
  6
CONTINUOUS
 62
     0
 10
 8.20970660606690E+0000
 20
 3.82490219807005E+0000
 11
 8.16321143657842E+0000
 21
 3.77840702858521E+0000
  0
LINE
  8
1
  6
CONTINUOUS
 62
     0
 10
 8.19206312821188E+0000
 20
 3.82791292440379E+0000
 11
 8.14745640760520E+0000
 21
 3.78330620380802E+0000
  0
LINE
  8
1
  6
CONTINUOUS
 62
     0
 10
 8.17441965035687E+0000
 20
 3.83092365073389E+0000
 11
 8.14745640760520E+0000
 21
 3.80396040799315E+0000
  0
LINE
  8
1
  6
CONTINUOUS
 62
     0
 10
 8.15677617250185E+0000
 20
 3.83393437706764E+0000
 11
 8.14745640760520E+0000
 21
 3.82461461217827E+0000
  0
LINE
  8
1
  6
CONTINUOUS
 62
     0
 10
 8.08288645412540E+0000
 20
 4.25716724142694E+0000
 11
 8.08288645412540E+0000
 21
 4.25716724142694E+0000
  0
LINE
  8
1
  6
CONTINUOUS
 62
     0
 10
 8.08288645412540E+0000
 20
 4.25716724142694E+0000
 11
 7.92359712749021E+0000
 21
 4.28434876279061E+0000
  0
LINE
  8
1
  6
CONTINUOUS
 62
     0
 10
 7.92359712749021E+0000
 20
 4.28434876279061E+0000
 11
 7.92359712749021E+0000
 21
 4.22394512531901E+0000
  0
LINE
  8
1
  6
CONTINUOUS
 62
     0
 10
 7.92359712749021E+0000
 20
 4.22394512531901E+0000
 11
 8.08288645412540E+0000
 21
 4.25716724142694E+0000
  0
LINE
  8
1
  6
CONTINUOUS
 62
     0
 10
 7.92359712749021E+0000
 20
 4.28434876279061E+0000
 11
 7.92359712749021E+0000
 21
 4.22394512531901E+0000
  0
LINE
  8
1
  6
CONTINUOUS
 62
     0
 10
 7.93214205924596E+0000
 20
 4.22572729567037E+0000
 11
 7.92359712749021E+0000
 21
 4.23427222741884E+0000
  0
LINE
  8
1
  6
CONTINUOUS
 62
     0
 10
 7.94923192273563E+0000
 20
 4.22929163635854E+0000
 11
 7.92359712749749E+0000
 21
 4.25492643160396E+0000
  0
LINE
  8
1
  6
CONTINUOUS
 62
     0
 10
 7.96632178622531E+0000
 20
 4.23285597705399E+0000
 11
 7.92359712749749E+0000
 21
 4.27558063578181E+0000
  0
LINE
  8
1
  6
CONTINUOUS
 62
     0
 10
 7.98341164971498E+0000
 20
 4.23642031774943E+0000
 11
 7.93792879567627E+0000
 21
 4.28190317178814E+0000
  0
LINE
  8
1
  6
CONTINUOUS
 62
     0
 10
 8.00050151320465E+0000
 20
 4.23998465844488E+0000
 11
 7.96283265559759E+0000
 21
 4.27765351605194E+0000
  0
LINE
  8
1
  6
CONTINUOUS
 62
     0
 10
 8.01759137670160E+0000
 20
 4.24354899914033E+0000
 11
 7.98773651551892E+0000
 21
 4.27340386031574E+0000
  0
LINE
  8
1
  6
CONTINUOUS
 62
     0
 10
 8.03468124018400E+0000
 20
 4.24711333983578E+0000
 11
 8.01264037544024E+0000
 21
 4.26915420457954E+0000
  0
LINE
  8
1
  6
CONTINUOUS
 62
     0
 10
 8.05177110368095E+0000
 20
 4.25067768053123E+0000
 11
 8.03754423536884E+0000
 21
 4.26490454884333E+0000
  0
LINE
  8
1
  6
CONTINUOUS
 62
     0
 10
 8.06886096716335E+0000
 20
 4.25424202122667E+0000
 11
 8.06244809528289E+0000
 21
 4.26065489310713E+0000
  0
LINE
  8
1
  6
CONTINUOUS
 62
     0
 10
 8.07406471519789E+0000
 20
 4.25867260459927E+0000
 11
 8.06983788160142E+0000
 21
 4.25444577099552E+0000
  0
LINE
  8
1
  6
CONTINUOUS
 62
     0
 10
 8.05642123734287E+0000
 20
 4.26168333092937E+0000
 11
 8.04374073656800E+0000
 21
 4.24900283015450E+0000
  0
LINE
  8
1
  6
CONTINUOUS
 62
     0
 10
 8.03877775948786E+0000
 20
 4.26469405725948E+0000
 11
 8.01764359154913E+0000
 21
 4.24355988931347E+0000
  0
LINE
  8
1
  6
CONTINUOUS
 62
     0
 10
 8.02113428163284E+0000
 20
 4.26770478358958E+0000
 11
 7.99154644650116E+0000
 21
 4.23811694845790E+0000
  0
LINE
  8
1
  6
CONTINUOUS
 62
     0
 10
 8.00349080377782E+0000
 20
 4.27071550991968E+0000
 11
 7.96544930147502E+0000
 21
 4.23267400761688E+0000
  0
LINE
  8
1
  6
CONTINUOUS
 62
     0
 10
 7.98584732593008E+0000
 20
 4.27372623625706E+0000
 11
 7.93935215644888E+0000
 21
 4.22723106676858E+0000
  0
LINE
  8
1
  6
CONTINUOUS
 62
     0
 10
 7.96820384807506E+0000
 20
 4.27673696258717E+0000
 11
 7.92359712748294E+0000
 21
 4.23213024199504E+0000
  0
LINE
  8
1
  6
CONTINUOUS
 62
     0
 10
 7.95056037022005E+0000
 20
 4.27974768891727E+0000
 11
 7.92359712748294E+0000
 21
 4.25278444618016E+0000
  0
LINE
  8
1
  6
CONTINUOUS
 62
     0
 10
 7.93291689237230E+0000
 20
 4.28275841524737E+0000
 11
 7.92359712748294E+0000
 21
 4.27343865036528E+0000
  0
LINE
  8
1
  6
CONTINUOUS
 62
     0
 10
 8.33155316814373E+0000
 20
 4.26152196632029E+0000
 11
 8.33155316814373E+0000
 21
 4.26152196632029E+0000
  0
LINE
  8
1
  6
CONTINUOUS
 62
     0
 10
 8.33155316814373E+0000
 20
 4.26152196632029E+0000
 11
 8.49084249477892E+0000
 21
 4.23434044495662E+0000
  0
LINE
  8
1
  6
CONTINUOUS
 62
     0
 10
 8.49084249477892E+0000
 20
 4.23434044495662E+0000
 11
 8.49084249477892E+0000
 21
 4.29474408242822E+0000
  0
LINE
  8
1
  6
CONTINUOUS
 62
     0
 10
 8.49084249477892E+0000
 20
 4.29474408242822E+0000
 11
 8.33155316814373E+0000
 21
 4.26152196632029E+0000
  0
LINE
  8
1
  6
CONTINUOUS
 62
     0
 10
 8.49084249477892E+0000
 20
 4.23434044495662E+0000
 11
 8.49084249477892E+0000
 21
 4.29474408242822E+0000
  0
LINE
  8
1
  6
CONTINUOUS
 62
     0
 10
 8.34400509812986E+0000
 20
 4.25939713845582E+0000
 11
 8.34009809989948E+0000
 21
 4.26330413667165E+0000
  0
LINE
  8
1
  6
CONTINUOUS
 62
     0
 10
 8.36890895804390E+0000
 20
 4.25514748271962E+0000
 11
 8.35718796339643E+0000
 21
 4.26686847736710E+0000
  0
LINE
  8
1
  6
CONTINUOUS
 62
     0
 10
 8.39381281797250E+0000
 20
 4.25089782698342E+0000
 11
 8.37427782687882E+0000
 21
 4.27043281806255E+0000
  0
LINE
  8
1
  6
CONTINUOUS
 62
     0
 10
 8.41871667788655E+0000
 20
 4.24664817124722E+0000
 11
 8.39136769037577E+0000
 21
 4.27399715875799E+0000
  0
LINE
  8
1
  6
CONTINUOUS
 62
     0
 10
 8.44362053781515E+0000
 20
 4.24239851551101E+0000
 11
 8.40845755385817E+0000
 21
 4.27756149945344E+0000
  0
LINE
  8
1
  6
CONTINUOUS
 62
     0
 10
 8.46852439772920E+0000
 20
 4.23814885976753E+0000
 11
 8.42554741735512E+0000
 21
 4.28112584014889E+0000
  0
LINE
  8
1
  6
CONTINUOUS
 62
     0
 10
 8.49084249477892E+0000
 20
 4.23648496691021E+0000
 11
 8.44263728085207E+0000
 21
 4.28469018083706E+0000
  0
LINE
  8
1
  6
CONTINUOUS
 62
     0
 10
 8.49084249477892E+0000
 20
 4.25713917108806E+0000
 11
 8.45972714433447E+0000
 21
 4.28825452153978E+0000
  0
LINE
  8
1
  6
CONTINUOUS
 62
     0
 10
 8.49084249477892E+0000
 20
 4.27779337527318E+0000
 11
 8.47681700783141E+0000
 21
 4.29181886222796E+0000
  0
LINE
  8
1
  6
CONTINUOUS
 62
     0
 10
 8.49084249477892E+0000
 20
 4.24466754704918E+0000
 11
 8.48202075585141E+0000
 21
 4.23584580812167E+0000
  0
LINE
  8
1
  6
CONTINUOUS
 62
     0
 10
 8.49084249477892E+0000
 20
 4.26532175123430E+0000
 11
 8.46437727799639E+0000
 21
 4.23885653445905E+0000
  0
LINE
  8
1
  6
CONTINUOUS
 62
     0
 10
 8.49084249477892E+0000
 20
 4.28597595541942E+0000
 11
 8.44673380014137E+0000
 21
 4.24186726078915E+0000
  0
LINE
  8
1
  6
CONTINUOUS
 62
     0
 10
 8.47582411509939E+0000
 20
 4.29161177993956E+0000
 11
 8.42909032228636E+0000
 21
 4.24487798711925E+0000
  0
LINE
  8
1
  6
CONTINUOUS
 62
     0
 10
 8.44972697008052E+0000
 20
 4.28616883909854E+0000
 11
 8.41144684443134E+0000
 21
 4.24788871344936E+0000
  0
LINE
  8
1
  6
CONTINUOUS
 62
     0
 10
 8.42362982504710E+0000
 20
 4.28072589825024E+0000
 11
 8.39380336657632E+0000
 21
 4.25089943978674E+0000
  0
LINE
  8
1
  6
CONTINUOUS
 62
     0
 10
 8.39753268001368E+0000
 20
 4.27528295739467E+0000
 11
 8.37615988872130E+0000
 21
 4.25391016611684E+0000
  0
LINE
  8
1
  6
CONTINUOUS
 62
     0
 10
 8.37143553498026E+0000
 20
 4.26984001655364E+0000
 11
 8.35851641086629E+0000
 21
 4.25692089244694E+0000
  0
LINE
  8
1
  6
CONTINUOUS
 62
     0
 10
 8.34533838994685E+0000
 20
 4.26439707571262E+0000
 11
 8.34087293302582E+0000
 21
 4.25993161877705E+0000
  0
LINE
  8
1
  6
CONTINUOUS
 62
     0
 10
 5.81803899104125E+0000
 20
 4.70901325946761E+0000
 11
 5.81803899104125E+0000
 21
 4.70901325946761E+0000
  0
LINE
  8
1
  6
CONTINUOUS
 62
     0
 10
 5.81803899104125E+0000
 20
 4.70901325946761E+0000
 11
 5.84522051240492E+0000
 21
 4.86830258609552E+0000
  0
LINE
  8
1
  6
CONTINUOUS
 62
     0
 10
 5.84522051240492E+0000
 20
 4.86830258609552E+0000
 11
 5.78481687493331E+0000
 21
 4.86830258609552E+0000
  0
LINE
  8
1
  6
CONTINUOUS
 62
     0
 10
 5.78481687493331E+0000
 20
 4.86830258609552E+0000
 11
 5.81803899104125E+0000
 21
 4.70901325946761E+0000
  0
LINE
  8
1
  6
CONTINUOUS
 62
     0
 10
 5.84522051240492E+0000
 20
 4.86830258609552E+0000
 11
 5.78481687493331E+0000
 21
 4.86830258609552E+0000
  0
LINE
  8
1
  6
CONTINUOUS
 62
     0
 10
 5.81954435420630E+0000
 20
 4.71783499839512E+0000
 11
 5.81531752061710E+0000
 21
 4.72206183198432E+0000
  0
LINE
  8
1
  6
CONTINUOUS
 62
     0
 10
 5.82255508054368E+0000
 20
 4.73547847624286E+0000
 11
 5.80987457977608E+0000
 21
 4.74815897701046E+0000
  0
LINE
  8
1
  6
CONTINUOUS
 62
     0
 10
 5.82556580687378E+0000
 20
 4.75312195409788E+0000
 11
 5.80443163892778E+0000
 21
 4.77425612204388E+0000
  0
LINE
  8
1
  6
CONTINUOUS
 62
     0
 10
 5.82857653320389E+0000
 20
 4.77076543195290E+0000
 11
 5.79898869807948E+0000
 21
 4.80035326707730E+0000
  0
LINE
  8
1
  6
CONTINUOUS
 62
     0
 10
 5.83158725954127E+0000
 20
 4.78840890980064E+0000
 11
 5.79354575723846E+0000
 21
 4.82645041210344E+0000
  0
LINE
  8
1
  6
CONTINUOUS
 62
     0
 10
 5.83459798587137E+0000
 20
 4.80605238765565E+0000
 11
 5.78810281639016E+0000
 21
 4.85254755713686E+0000
  0
LINE
  8
1
  6
CONTINUOUS
 62
     0
 10
 5.83760871220147E+0000
 20
 4.82369586551067E+0000
 11
 5.79300199161662E+0000
 21
 4.86830258610280E+0000
  0
LINE
  8
1
  6
CONTINUOUS
 62
     0
 10
 5.84061943853885E+0000
 20
 4.84133934335841E+0000
 11
 5.81365619580174E+0000
 21
 4.86830258609552E+0000
  0
LINE
  8
1
  6
CONTINUOUS
 62
     0
 10
 5.84363016486896E+0000
 20
 4.85898282121343E+0000
 11
 5.83431039998686E+0000
 21
 4.86830258609552E+0000
  0
LINE
  8
1
  6
CONTINUOUS
 62
     0
 10
 5.82016381890571E+0000
 20
 4.72146518942463E+0000
 11
 5.81625682068989E+0000
 21
 4.71755819120881E+0000
  0
LINE
  8
1
  6
CONTINUOUS
 62
     0
 10
 5.82441347464191E+0000
 20
 4.74636904934596E+0000
 11
 5.81269247999444E+0000
 21
 4.73464805469848E+0000
  0
LINE
  8
1
  6
CONTINUOUS
 62
     0
 10
 5.82866313037812E+0000
 20
 4.77127290926728E+0000
 11
 5.80912813929899E+0000
 21
 4.75173791818816E+0000
  0
LINE
  8
1
  6
CONTINUOUS
 62
     0
 10
 5.83291278610704E+0000
 20
 4.79617676918133E+0000
 11
 5.80556379860354E+0000
 21
 4.76882778167783E+0000
  0
LINE
  8
1
  6
CONTINUOUS
 62
     0
 10
 5.83716244184325E+0000
 20
 4.82108062910265E+0000
 11
 5.80199945790810E+0000
 21
 4.78591764517478E+0000
  0
LINE
  8
1
  6
CONTINUOUS
 62
     0
 10
 5.84141209757945E+0000
 20
 4.84598448902398E+0000
 11
 5.79843511721992E+0000
 21
 4.80300750866445E+0000
  0
LINE
  8
1
  6
CONTINUOUS
 62
     0
 10
 5.84307599045860E+0000
 20
 4.86830258608825E+0000
 11
 5.79487077651720E+0000
 21
 4.82009737214685E+0000
  0
LINE
  8
1
  6
CONTINUOUS
 62
     0
 10
 5.82242178627348E+0000
 20
 4.86830258608825E+0000
 11
 5.79130643582175E+0000
 21
 4.83718723564380E+0000
  0
LINE
  8
1
  6
CONTINUOUS
 62
     0
 10
 5.80176758208836E+0000
 20
 4.86830258608825E+0000
 11
 5.78774209513358E+0000
 21
 4.85427709913347E+0000
  0
LINE
  8
1
  6
CONTINUOUS
 62
     0
 10
 5.81979295996280E+0000
 20
 6.07613621147902E+0000
 11
 5.81979295996280E+0000
 21
 6.07613621147902E+0000
  0
LINE
  8
1
  6
CONTINUOUS
 62
     0
 10
 5.81979295996280E+0000
 20
 6.07613621147902E+0000
 11
 5.79261143859912E+0000
 21
 5.91684688485111E+0000
  0
LINE
  8
1
  6
CONTINUOUS
 62
     0
 10
 5.79261143859912E+0000
 20
 5.91684688485111E+0000
 11
 5.85301507607073E+0000
 21
 5.91684688485111E+0000
  0
LINE
  8
1
  6
CONTINUOUS
 62
     0
 10
 5.85301507607073E+0000
 20
 5.91684688485111E+0000
 11
 5.81979295996280E+0000
 21
 6.07613621147902E+0000
  0
LINE
  8
1
  6
CONTINUOUS
 62
     0
 10
 5.79261143859912E+0000
 20
 5.91684688485111E+0000
 11
 5.85301507607073E+0000
 21
 5.91684688485111E+0000
  0
LINE
  8
1
  6
CONTINUOUS
 62
     0
 10
 5.80293854069896E+0000
 20
 5.91684688485111E+0000
 11
 5.79411680176418E+0000
 21
 5.92566862378590E+0000
  0
LINE
  8
1
  6
CONTINUOUS
 62
     0
 10
 5.82359274488408E+0000
 20
 5.91684688485111E+0000
 11
 5.79712752810156E+0000
 21
 5.94331210163364E+0000
  0
LINE
  8
1
  6
CONTINUOUS
 62
     0
 10
 5.84424694906193E+0000
 20
 5.91684688485839E+0000
 11
 5.80013825443166E+0000
 21
 5.96095557948865E+0000
  0
LINE
  8
1
  6
CONTINUOUS
 62
     0
 10
 5.84988277359662E+0000
 20
 5.93186526450882E+0000
 11
 5.80314898076176E+0000
 21
 5.97859905734367E+0000
  0
LINE
  8
1
  6
CONTINUOUS
 62
     0
 10
 5.84443983275560E+0000
 20
 5.95796240954223E+0000
 11
 5.80615970709914E+0000
 21
 5.99624253519141E+0000
  0
LINE
  8
1
  6
CONTINUOUS
 62
     0
 10
 5.83899689190730E+0000
 20
 5.98405955456838E+0000
 11
 5.80917043342924E+0000
 21
 6.01388601304643E+0000
  0
LINE
  8
1
  6
CONTINUOUS
 62
     0
 10
 5.83355395105900E+0000
 20
 6.01015669960179E+0000
 11
 5.81218115976662E+0000
 21
 6.03152949089417E+0000
  0
LINE
  8
1
  6
CONTINUOUS
 62
     0
 10
 5.82811101021070E+0000
 20
 6.03625384463521E+0000
 11
 5.81519188609673E+0000
 21
 6.04917296874919E+0000
  0
LINE
  8
1
  6
CONTINUOUS
 62
     0
 10
 5.82266806936241E+0000
 20
 6.06235098966863E+0000
 11
 5.81820261243411E+0000
 21
 6.06681644660421E+0000
  0
LINE
  8
1
  6
CONTINUOUS
 62
     0
 10
 5.85123290571937E+0000
 20
 5.92539181659231E+0000
 11
 5.84268797397817E+0000
 21
 5.91684688485111E+0000
  0
LINE
  8
1
  6
CONTINUOUS
 62
     0
 10
 5.84766856502392E+0000
 20
 5.94248168008198E+0000
 11
 5.82203376979305E+0000
 21
 5.91684688485111E+0000
  0
LINE
  8
1
  6
CONTINUOUS
 62
     0
 10
 5.84410422432848E+0000
 20
 5.95957154357166E+0000
 11
 5.80137956560793E+0000
 21
 5.91684688485111E+0000
  0
LINE
  8
1
  6
CONTINUOUS
 62
     0
 10
 5.84053988363303E+0000
 20
 5.97666140706133E+0000
 11
 5.79505702960159E+0000
 21
 5.93117855302989E+0000
  0
LINE
  8
1
  6
CONTINUOUS
 62
     0
 10
 5.83697554293030E+0000
 20
 5.99375127054373E+0000
 11
 5.79930668533780E+0000
 21
 5.95608241295122E+0000
  0
LINE
  8
1
  6
CONTINUOUS
 62
     0
 10
 5.83341120223486E+0000
 20
 6.01084113404067E+0000
 11
 5.80355634107400E+0000
 21
 5.98098627287254E+0000
  0
LINE
  8
1
  6
CONTINUOUS
 62
     0
 10
 5.82984686154668E+0000
 20
 6.02793099753035E+0000
 11
 5.80780599681020E+0000
 21
 6.00589013279387E+0000
  0
LINE
  8
1
  6
CONTINUOUS
 62
     0
 10
 5.82628252085124E+0000
 20
 6.04502086102002E+0000
 11
 5.81205565254641E+0000
 21
 6.03079399271519E+0000
  0
LINE
  8
1
  6
CONTINUOUS
 62
     0
 10
 5.82271818015579E+0000
 20
 6.06211072450969E+0000
 11
 5.81630530828261E+0000
 21
 6.05569785263651E+0000
  0
LINE
  8
1
  6
CONTINUOUS
 62
     0
 10
 4.50998530605284E+0000
 20
 4.70745267770690E+0000
 11
 5.81676631536538E+0000
 21
 4.70745267770690E+0000
  0
LINE
  8
1
  6
CONTINUOUS
 62
     0
 10
 4.97600967658218E+0000
 20
 7.51341486236925E+0000
 11
 4.97600967658218E+0000
 21
 7.51341486236925E+0000
  0
LINE
  8
1
  6
CONTINUOUS
 62
     0
 10
 4.97600967658218E+0000
 20
 7.51341486236925E+0000
 11
 4.81672034995427E+0000
 21
 7.54059638373292E+0000
  0
LINE
  8
1
  6
CONTINUOUS
 62
     0
 10
 4.81672034995427E+0000
 20
 7.54059638373292E+0000
 11
 4.81672034995427E+0000
 21
 7.48019274626131E+0000
  0
LINE
  8
1
  6
CONTINUOUS
 62
     0
 10
 4.81672034995427E+0000
 20
 7.48019274626131E+0000
 11
 4.97600967658218E+0000
 21
 7.51341486236925E+0000
  0
LINE
  8
1
  6
CONTINUOUS
 62
     0
 10
 4.81672034995427E+0000
 20
 7.54059638373292E+0000
 11
 4.81672034995427E+0000
 21
 7.48019274626131E+0000
  0
LINE
  8
1
  6
CONTINUOUS
 62
     0
 10
 4.82526528171002E+0000
 20
 7.48197491661267E+0000
 11
 4.81672034995427E+0000
 21
 7.49051984836842E+0000
  0
LINE
  8
1
  6
CONTINUOUS
 62
     0
 10
 4.84235514519969E+0000
 20
 7.48553925730812E+0000
 11
 4.81672034995427E+0000
 21
 7.51117405255354E+0000
  0
LINE
  8
1
  6
CONTINUOUS
 62
     0
 10
 4.85944500868936E+0000
 20
 7.48910359800357E+0000
 11
 4.81672034995427E+0000
 21
 7.53182825673866E+0000
  0
LINE
  8
1
  6
CONTINUOUS
 62
     0
 10
 4.87653487217904E+0000
 20
 7.49266793869901E+0000
 11
 4.83105201815488E+0000
 21
 7.53815079272317E+0000
  0
LINE
  8
1
  6
CONTINUOUS
 62
     0
 10
 4.89362473567598E+0000
 20
 7.49623227938719E+0000
 11
 4.85595587807620E+0000
 21
 7.53390113698697E+0000
  0
LINE
  8
1
  6
CONTINUOUS
 62
     0
 10
 4.91071459916566E+0000
 20
 7.49979662008263E+0000
 11
 4.88085973799753E+0000
 21
 7.52965148125077E+0000
  0
LINE
  8
1
  6
CONTINUOUS
 62
     0
 10
 4.92780446265533E+0000
 20
 7.50336096077808E+0000
 11
 4.90576359791885E+0000
 21
 7.52540182551456E+0000
  0
LINE
  8
1
  6
CONTINUOUS
 62
     0
 10
 4.94489432614500E+0000
 20
 7.50692530147353E+0000
 11
 4.93066745784017E+0000
 21
 7.52115216977836E+0000
  0
LINE
  8
1
  6
CONTINUOUS
 62
     0
 10
 4.96198418963468E+0000
 20
 7.51048964216898E+0000
 11
 4.95557131776150E+0000
 21
 7.51690251404216E+0000
  0
LINE
  8
1
  6
CONTINUOUS
 62
     0
 10
 4.96718793765467E+0000
 20
 7.51492022553430E+0000
 11
 4.96296110405819E+0000
 21
 7.51069339193782E+0000
  0
LINE
  8
1
  6
CONTINUOUS
 62
     0
 10
 4.94954445979965E+0000
 20
 7.51793095186440E+0000
 11
 4.93686395903205E+0000
 21
 7.50525045108952E+0000
  0
LINE
  8
1
  6
CONTINUOUS
 62
     0
 10
 4.93190098195191E+0000
 20
 7.52094167819450E+0000
 11
 4.91076681399863E+0000
 21
 7.49980751024850E+0000
  0
LINE
  8
1
  6
CONTINUOUS
 62
     0
 10
 4.91425750409689E+0000
 20
 7.52395240453188E+0000
 11
 4.88466966897249E+0000
 21
 7.49436456940748E+0000
  0
LINE
  8
1
  6
CONTINUOUS
 62
     0
 10
 4.89661402624188E+0000
 20
 7.52696313086199E+0000
 11
 4.85857252393180E+0000
 21
 7.48892162855191E+0000
  0
LINE
  8
1
  6
CONTINUOUS
 62
     0
 10
 4.87897054838686E+0000
 20
 7.52997385719209E+0000
 11
 4.83247537890566E+0000
 21
 7.48347868771089E+0000
  0
LINE
  8
1
  6
CONTINUOUS
 62
     0
 10
 4.86132707053184E+0000
 20
 7.53298458352219E+0000
 11
 4.81672034994699E+0000
 21
 7.48837786293734E+0000
  0
LINE
  8
1
  6
CONTINUOUS
 62
     0
 10
 4.84368359268410E+0000
 20
 7.53599530985957E+0000
 11
 4.81672034994699E+0000
 21
 7.50903206712246E+0000
  0
LINE
  8
1
  6
CONTINUOUS
 62
     0
 10
 4.82604011482908E+0000
 20
 7.53900603618968E+0000
 11
 4.81672034994699E+0000
 21
 7.52968627130758E+0000
  0
LINE
  8
1
  6
CONTINUOUS
 62
     0
 10
 2.94644852682904E+0000
 20
 7.50931496373960E+0000
 11
 2.94644852682904E+0000
 21
 7.50931496373960E+0000
  0
LINE
  8
1
  6
CONTINUOUS
 62
     0
 10
 2.94644852682904E+0000
 20
 7.50931496373960E+0000
 11
 3.10573785346423E+0000
 21
 7.48213344237593E+0000
  0
LINE
  8
1
  6
CONTINUOUS
 62
     0
 10
 3.10573785346423E+0000
 20
 7.48213344237593E+0000
 11
 3.10573785346423E+0000
 21
 7.54253707984753E+0000
  0
LINE
  8
1
  6
CONTINUOUS
 62
     0
 10
 3.10573785346423E+0000
 20
 7.54253707984753E+0000
 11
 2.94644852682904E+0000
 21
 7.50931496373960E+0000
  0
LINE
  8
1
  6
CONTINUOUS
 62
     0
 10
 3.10573785346423E+0000
 20
 7.48213344237593E+0000
 11
 3.10573785346423E+0000
 21
 7.54253707984753E+0000
  0
LINE
  8
1
  6
CONTINUOUS
 62
     0
 10
 2.95890045679334E+0000
 20
 7.50719013587513E+0000
 11
 2.95499345857752E+0000
 21
 7.51109713409096E+0000
  0
LINE
  8
1
  6
CONTINUOUS
 62
     0
 10
 2.98380431671467E+0000
 20
 7.50294048013893E+0000
 11
 2.97208332206719E+0000
 21
 7.51466147478641E+0000
  0
LINE
  8
1
  6
CONTINUOUS
 62
     0
 10
 3.00870817663235E+0000
 20
 7.49869082440273E+0000
 11
 2.98917318555687E+0000
 21
 7.51822581548186E+0000
  0
LINE
  8
1
  6
CONTINUOUS
 62
     0
 10
 3.03361203655368E+0000
 20
 7.49444116867380E+0000
 11
 3.00626304905018E+0000
 21
 7.52179015617003E+0000
  0
LINE
  8
1
  6
CONTINUOUS
 62
     0
 10
 3.05851589647500E+0000
 20
 7.49019151293760E+0000
 11
 3.02335291253985E+0000
 21
 7.52535449686548E+0000
  0
LINE
  8
1
  6
CONTINUOUS
 62
     0
 10
 3.08341975639632E+0000
 20
 7.48594185720140E+0000
 11
 3.04044277602952E+0000
 21
 7.52891883756092E+0000
  0
LINE
  8
1
  6
CONTINUOUS
 62
     0
 10
 3.10573785346423E+0000
 20
 7.48427796431497E+0000
 11
 3.05753263951920E+0000
 21
 7.53248317825637E+0000
  0
LINE
  8
1
  6
CONTINUOUS
 62
     0
 10
 3.10573785346423E+0000
 20
 7.50493216850009E+0000
 11
 3.07462250301251E+0000
 21
 7.53604751895182E+0000
  0
LINE
  8
1
  6
CONTINUOUS
 62
     0
 10
 3.10573785346060E+0000
 20
 7.52558637268521E+0000
 11
 3.09171236650218E+0000
 21
 7.53961185964727E+0000
  0
LINE
  8
1
  6
CONTINUOUS
 62
     0
 10
 3.10573785346423E+0000
 20
 7.49246054446121E+0000
 11
 3.09691611453673E+0000
 21
 7.48363880553370E+0000
  0
LINE
  8
1
  6
CONTINUOUS
 62
     0
 10
 3.10573785346423E+0000
 20
 7.51311474864633E+0000
 11
 3.07927263668171E+0000
 21
 7.48664953186380E+0000
  0
LINE
  8
1
  6
CONTINUOUS
 62
     0
 10
 3.10573785346423E+0000
 20
 7.53376895283145E+0000
 11
 3.06162915883033E+0000
 21
 7.48966025819391E+0000
  0
LINE
  8
1
  6
CONTINUOUS
 62
     0
 10
 3.09071947380289E+0000
 20
 7.53940477735887E+0000
 11
 3.04398568097895E+0000
 21
 7.49267098453129E+0000
  0
LINE
  8
1
  6
CONTINUOUS
 62
     0
 10
 3.06462232877675E+0000
 20
 7.53396183651785E+0000
 11
 3.02634220312757E+0000
 21
 7.49568171086867E+0000
  0
LINE
  8
1
  6
CONTINUOUS
 62
     0
 10
 3.03852518374333E+0000
 20
 7.52851889566955E+0000
 11
 3.00869872527255E+0000
 21
 7.49869243719877E+0000
  0
LINE
  8
1
  6
CONTINUOUS
 62
     0
 10
 3.01242803871355E+0000
 20
 7.52307595482125E+0000
 11
 2.99105524742117E+0000
 21
 7.50170316352887E+0000
  0
LINE
  8
1
  6
CONTINUOUS
 62
     0
 10
 2.98633089368013E+0000
 20
 7.51763301397295E+0000
 11
 2.97341176956616E+0000
 21
 7.50471388985898E+0000
  0
LINE
  8
1
  6
CONTINUOUS
 62
     0
 10
 2.96023374865035E+0000
 20
 7.51219007313193E+0000
 11
 2.95576829171114E+0000
 21
 7.50772461619636E+0000
  0
LINE
  8
1
  6
CONTINUOUS
 62
     0
 10
 4.98347209474741E+0000
 20
 1.31755666219397E+0000
 11
 4.98347209474741E+0000
 21
 3.07424625985732E-0001
  0
LINE
  8
1
  6
CONTINUOUS
 62
     0
 10
 4.98347209474741E+0000
 20
 3.07424625985732E-0001
 11
 3.95079496954349E+0000
 21
 3.07424625985732E-0001
  0
LINE
  8
1
  6
CONTINUOUS
 62
     0
 10
 3.95079496954349E+0000
 20
 3.07424625985732E-0001
 11
 3.95079496954349E+0000
 21
 1.48837260243818E+0000
  0
LINE
  8
1
  6
CONTINUOUS
 62
     0
 10
 4.98371343149483E+0000
 20
 7.09631545506454E-0001
 11
 4.74469097748806E+0000
 21
 7.09631545506454E-0001
  0
LINE
  8
1
  6
CONTINUOUS
 62
     0
 10
 4.74469097748806E+0000
 20
 7.09631545506454E-0001
 11
 4.74469097748806E+0000
 21
 1.45414222631189E+0000
  0
LINE
  8
1
  6
CONTINUOUS
 62
     0
 10
 4.74469097748806E+0000
 20
 1.82211876969450E+0000
 11
 5.53858698542899E+0000
 21
 1.82211876969450E+0000
  0
LINE
  8
1
  6
CONTINUOUS
 62
     0
 10
 5.53858698542899E+0000
 20
 1.82211876969450E+0000
 11
 5.53858698542899E+0000
 21
 1.59962132485816E+0000
  0
LINE
  8
1
  6
CONTINUOUS
 62
     0
 10
 5.53858698542899E+0000
 20
 1.59962132485816E+0000
 11
 4.74469097748806E+0000
 21
 1.59962132485816E+0000
  0
LINE
  8
1
  6
CONTINUOUS
 62
     0
 10
 5.53371507547854E+0000
 20
 1.60009217337392E+0000
 11
 5.53371507547854E+0000
 21
 1.60009217337392E+0000
  0
LINE
  8
1
  6
CONTINUOUS
 62
     0
 10
 5.53371507547854E+0000
 20
 1.60009217337392E+0000
 11
 5.50653355411487E+0000
 21
 1.44080284674601E+0000
  0
LINE
  8
1
  6
CONTINUOUS
 62
     0
 10
 5.50653355411487E+0000
 20
 1.44080284674601E+0000
 11
 5.56693719158648E+0000
 21
 1.44080284674601E+0000
  0
LINE
  8
1
  6
CONTINUOUS
 62
     0
 10
 5.56693719158648E+0000
 20
 1.44080284674601E+0000
 11
 5.53371507547854E+0000
 21
 1.60009217337392E+0000
  0
LINE
  8
1
  6
CONTINUOUS
 62
     0
 10
 5.50653355411487E+0000
 20
 1.44080284674601E+0000
 11
 5.56693719158648E+0000
 21
 1.44080284674601E+0000
  0
LINE
  8
1
  6
CONTINUOUS
 62
     0
 10
 5.51686065620743E+0000
 20
 1.44080284674419E+0000
 11
 5.50803891727992E+0000
 21
 1.44962458567170E+0000
  0
LINE
  8
1
  6
CONTINUOUS
 62
     0
 10
 5.53751486039255E+0000
 20
 1.44080284674783E+0000
 11
 5.51104964361730E+0000
 21
 1.46726806352308E+0000
  0
LINE
  8
1
  6
CONTINUOUS
 62
     0
 10
 5.55816906457767E+0000
 20
 1.44080284674783E+0000
 11
 5.51406036994740E+0000
 21
 1.48491154137628E+0000
  0
LINE
  8
1
  6
CONTINUOUS
 62
     0
 10
 5.56380488911236E+0000
 20
 1.45582122639462E+0000
 11
 5.51707109627750E+0000
 21
 1.50255501922948E+0000
  0
LINE
  8
1
  6
CONTINUOUS
 62
     0
 10
 5.55836194826406E+0000
 20
 1.48191837142986E+0000
 11
 5.52008182261488E+0000
 21
 1.52019849708086E+0000
  0
LINE
  8
1
  6
CONTINUOUS
 62
     0
 10
 5.55291900741577E+0000
 20
 1.50801551645964E+0000
 11
 5.52309254894499E+0000
 21
 1.53784197493405E+0000
  0
LINE
  8
1
  6
CONTINUOUS
 62
     0
 10
 5.54747606656747E+0000
 20
 1.53411266149487E+0000
 11
 5.52610327527509E+0000
 21
 1.55548545278725E+0000
  0
LINE
  8
1
  6
CONTINUOUS
 62
     0
 10
 5.54203312572645E+0000
 20
 1.56020980652465E+0000
 11
 5.52911400161247E+0000
 21
 1.57312893063863E+0000
  0
LINE
  8
1
  6
CONTINUOUS
 62
     0
 10
 5.53659018487815E+0000
 20
 1.58630695155989E+0000
 11
 5.53212472794257E+0000
 21
 1.59077240849183E+0000
  0
LINE
  8
1
  6
CONTINUOUS
 62
     0
 10
 5.56515502123511E+0000
 20
 1.44934777849085E+0000
 11
 5.55661008949392E+0000
 21
 1.44080284674601E+0000
  0
LINE
  8
1
  6
CONTINUOUS
 62
     0
 10
 5.56159068053967E+0000
 20
 1.46643764198234E+0000
 11
 5.53595588530879E+0000
 21
 1.44080284674601E+0000
  0
LINE
  8
1
  6
CONTINUOUS
 62
     0
 10
 5.55802633984422E+0000
 20
 1.48352750547019E+0000
 11
 5.51530168112367E+0000
 21
 1.44080284674601E+0000
  0
LINE
  8
1
  6
CONTINUOUS
 62
     0
 10
 5.55446199914877E+0000
 20
 1.50061736896168E+0000
 11
 5.50897914511734E+0000
 21
 1.45513451492843E+0000
  0
LINE
  8
1
  6
CONTINUOUS
 62
     0
 10
 5.55089765845332E+0000
 20
 1.51770723245318E+0000
 11
 5.51322880085354E+0000
 21
 1.48003837484976E+0000
  0
LINE
  8
1
  6
CONTINUOUS
 62
     0
 10
 5.54733331776515E+0000
 20
 1.53479709594467E+0000
 11
 5.51747845658974E+0000
 21
 1.50494223477108E+0000
  0
LINE
  8
1
  6
CONTINUOUS
 62
     0
 10
 5.54376897706243E+0000
 20
 1.55188695943070E+0000
 11
 5.52172811232595E+0000
 21
 1.52984609469058E+0000
  0
LINE
  8
1
  6
CONTINUOUS
 62
     0
 10
 5.54020463637426E+0000
 20
 1.56897682292220E+0000
 11
 5.52597776806215E+0000
 21
 1.55474995461191E+0000
  0
LINE
  8
1
  6
CONTINUOUS
 62
     0
 10
 5.53664029567881E+0000
 20
 1.58606668641369E+0000
 11
 5.53022742379835E+0000
 21
 1.57965381453323E+0000
  0
LINE
  8
1
  6
CONTINUOUS
 62
     0
 10
 5.52814169125486E+0000
 20
 1.81643340830306E+0000
 11
 5.52814169125486E+0000
 21
 1.81643340830306E+0000
  0
LINE
  8
1
  6
CONTINUOUS
 62
     0
 10
 5.52814169125486E+0000
 20
 1.81643340830306E+0000
 11
 5.55532321261853E+0000
 21
 1.97572273493097E+0000
  0
LINE
  8
1
  6
CONTINUOUS
 62
     0
 10
 5.55532321261853E+0000
 20
 1.97572273493097E+0000
 11
 5.49491957514692E+0000
 21
 1.97572273493097E+0000
  0
LINE
  8
1
  6
CONTINUOUS
 62
     0
 10
 5.49491957514692E+0000
 20
 1.97572273493097E+0000
 11
 5.52814169125486E+0000
 21
 1.81643340830306E+0000
  0
LINE
  8
1
  6
CONTINUOUS
 62
     0
 10
 5.55532321261853E+0000
 20
 1.97572273493097E+0000
 11
 5.49491957514692E+0000
 21
 1.97572273493097E+0000
  0
LINE
  8
1
  6
CONTINUOUS
 62
     0
 10
 5.52964705441991E+0000
 20
 1.82525514722875E+0000
 11
 5.52542022083071E+0000
 21
 1.82948198081976E+0000
  0
LINE
  8
1
  6
CONTINUOUS
 62
     0
 10
 5.53265778075729E+0000
 20
 1.84289862508012E+0000
 11
 5.51997727998969E+0000
 21
 1.85557912585136E+0000
  0
LINE
  8
1
  6
CONTINUOUS
 62
     0
 10
 5.53566850708739E+0000
 20
 1.86054210293332E+0000
 11
 5.51453433914139E+0000
 21
 1.88167627088478E+0000
  0
LINE
  8
1
  6
CONTINUOUS
 62
     0
 10
 5.53867923341750E+0000
 20
 1.87818558078834E+0000
 11
 5.50909139829309E+0000
 21
 1.90777341591638E+0000
  0
LINE
  8
1
  6
CONTINUOUS
 62
     0
 10
 5.54168995975488E+0000
 20
 1.89582905863790E+0000
 11
 5.50364845744480E+0000
 21
 1.93387056094798E+0000
  0
LINE
  8
1
  6
CONTINUOUS
 62
     0
 10
 5.54470068608498E+0000
 20
 1.91347253649110E+0000
 11
 5.49820551659650E+0000
 21
 1.95996770598140E+0000
  0
LINE
  8
1
  6
CONTINUOUS
 62
     0
 10
 5.54771141241508E+0000
 20
 1.93111601434612E+0000
 11
 5.50310469183023E+0000
 21
 1.97572273493097E+0000
  0
LINE
  8
1
  6
CONTINUOUS
 62
     0
 10
 5.55072213875246E+0000
 20
 1.94875949219568E+0000
 11
 5.52375889601535E+0000
 21
 1.97572273493097E+0000
  0
LINE
  8
1
  6
CONTINUOUS
 62
     0
 10
 5.55373286508257E+0000
 20
 1.96640297005069E+0000
 11
 5.54441310020047E+0000
 21
 1.97572273493279E+0000
  0
LINE
  8
1
  6
CONTINUOUS
 62
     0
 10
 5.53026651911932E+0000
 20
 1.82888533826372E+0000
 11
 5.52635952090350E+0000
 21
 1.82497834004971E+0000
  0
LINE
  8
1
  6
CONTINUOUS
 62
     0
 10
 5.53451617485553E+0000
 20
 1.85378919818504E+0000
 11
 5.52279518020805E+0000
 21
 1.84206820354120E+0000
  0
LINE
  8
1
  6
CONTINUOUS
 62
     0
 10
 5.53876583058445E+0000
 20
 1.87869305810455E+0000
 11
 5.51923083951260E+0000
 21
 1.85915806702724E+0000
  0
LINE
  8
1
  6
CONTINUOUS
 62
     0
 10
 5.54301548632066E+0000
 20
 1.90359691802587E+0000
 11
 5.51566649881715E+0000
 21
 1.87624793051873E+0000
  0
LINE
  8
1
  6
CONTINUOUS
 62
     0
 10
 5.54726514205686E+0000
 20
 1.92850077794719E+0000
 11
 5.51210215812171E+0000
 21
 1.89333779401022E+0000
  0
LINE
  8
1
  6
CONTINUOUS
 62
     0
 10
 5.55151479779306E+0000
 20
 1.95340463786852E+0000
 11
 5.50853781742626E+0000
 21
 1.91042765750171E+0000
  0
LINE
  8
1
  6
CONTINUOUS
 62
     0
 10
 5.55317869066494E+0000
 20
 1.97572273492551E+0000
 11
 5.50497347673809E+0000
 21
 1.92751752099321E+0000
  0
LINE
  8
1
  6
CONTINUOUS
 62
     0
 10
 5.53252448647982E+0000
 20
 1.97572273492551E+0000
 11
 5.50140913603536E+0000
 21
 1.94460738448106E+0000
  0
LINE
  8
1
  6
CONTINUOUS
 62
     0
 10
 5.51187028229469E+0000
 20
 1.97572273492551E+0000
 11
 5.49784479533992E+0000
 21
 1.96169724797255E+0000
  0
LINE
  8
1
  6
CONTINUOUS
 62
     0
 10
 4.73190549417632E+0000
 20
 7.05838328580285E-0001
 11
 4.73190549417632E+0000
 21
 7.05838328580285E-0001
  0
LINE
  8
1
  6
CONTINUOUS
 62
     0
 10
 4.73190549417632E+0000
 20
 7.05838328580285E-0001
 11
 4.57261616754840E+0000
 21
 7.33019849943958E-0001
  0
LINE
  8
1
  6
CONTINUOUS
 62
     0
 10
 4.57261616754840E+0000
 20
 7.33019849943958E-0001
 11
 4.57261616754840E+0000
 21
 6.72616212472349E-0001
  0
LINE
  8
1
  6
CONTINUOUS
 62
     0
 10
 4.57261616754840E+0000
 20
 6.72616212472349E-0001
 11
 4.73190549417632E+0000
 21
 7.05838328580285E-0001
  0
LINE
  8
1
  6
CONTINUOUS
 62
     0
 10
 4.57261616754840E+0000
 20
 7.33019849943958E-0001
 11
 4.57261616754840E+0000
 21
 6.72616212472349E-0001
  0
LINE
  8
1
  6
CONTINUOUS
 62
     0
 10
 4.58116109929688E+0000
 20
 6.74398382819163E-0001
 11
 4.57261616754840E+0000
 21
 6.82943314564909E-0001
  0
LINE
  8
1
  6
CONTINUOUS
 62
     0
 10
 4.59825096277928E+0000
 20
 6.77962723515520E-0001
 11
 4.57261616754840E+0000
 21
 7.03597518750030E-0001
  0
LINE
  8
1
  6
CONTINUOUS
 62
     0
 10
 4.61534082627622E+0000
 20
 6.81527064209149E-0001
 11
 4.57261616754840E+0000
 21
 7.24251722936060E-0001
  0
LINE
  8
1
  6
CONTINUOUS
 62
     0
 10
 4.63243068976590E+0000
 20
 6.85091404902778E-0001
 11
 4.58694783573446E+0000
 21
 7.30574258935121E-0001
  0
LINE
  8
1
  6
CONTINUOUS
 62
     0
 10
 4.64952055325557E+0000
 20
 6.88655745599135E-0001
 11
 4.61185169565579E+0000
 21
 7.26324603199828E-0001
  0
LINE
  8
1
  6
CONTINUOUS
 62
     0
 10
 4.66661041674524E+0000
 20
 6.92220086292764E-0001
 11
 4.63675555557711E+0000
 21
 7.22074947464534E-0001
  0
LINE
  8
1
  6
CONTINUOUS
 62
     0
 10
 4.68370028023492E+0000
 20
 6.95784426989121E-0001
 11
 4.66165941549843E+0000
 21
 7.17825291728332E-0001
  0
LINE
  8
1
  6
CONTINUOUS
 62
     0
 10
 4.70079014372459E+0000
 20
 6.99348767682750E-0001
 11
 4.68656327541976E+0000
 21
 7.13575635993038E-0001
  0
LINE
  8
1
  6
CONTINUOUS
 62
     0
 10
 4.71788000722154E+0000
 20
 7.02913108376379E-0001
 11
 4.71146713534108E+0000
 21
 7.09325980257745E-0001
  0
LINE
  8
1
  6
CONTINUOUS
 62
     0
 10
 4.72308375524153E+0000
 20
 7.07343691747155E-0001
 11
 4.71885692165233E+0000
 21
 7.03116858157045E-0001
  0
LINE
  8
1
  6
CONTINUOUS
 62
     0
 10
 4.70544027739379E+0000
 20
 7.10354418078168E-0001
 11
 4.69275977661891E+0000
 21
 6.97673917310567E-0001
  0
LINE
  8
1
  6
CONTINUOUS
 62
     0
 10
 4.68779679953877E+0000
 20
 7.13365144412819E-0001
 11
 4.66666263158550E+0000
 21
 6.92230976462270E-0001
  0
LINE
  8
1
  6
CONTINUOUS
 62
     0
 10
 4.67015332168376E+0000
 20
 7.16375870744741E-0001
 11
 4.64056548655935E+0000
 21
 6.86788035616701E-0001
  0
LINE
  8
1
  6
CONTINUOUS
 62
     0
 10
 4.65250984382874E+0000
 20
 7.19386597076664E-0001
 11
 4.61446834152594E+0000
 21
 6.81345094770222E-0001
  0
LINE
  8
1
  6
CONTINUOUS
 62
     0
 10
 4.63486636598100E+0000
 20
 7.22397323411315E-0001
 11
 4.58837119649252E+0000
 21
 6.75902153921925E-0001
  0
LINE
  8
1
  6
CONTINUOUS
 62
     0
 10
 4.61722288812598E+0000
 20
 7.25408049743237E-0001
 11
 4.57261616754113E+0000
 21
 6.80801329157475E-0001
  0
LINE
  8
1
  6
CONTINUOUS
 62
     0
 10
 4.59957941027096E+0000
 20
 7.28418776074250E-0001
 11
 4.57261616754113E+0000
 21
 7.01455533343506E-0001
  0
LINE
  8
1
  6
CONTINUOUS
 62
     0
 10
 4.58193593242322E+0000
 20
 7.31429502406172E-0001
 11
 4.57261616754113E+0000
 21
 7.22109737528626E-0001
  0
LINE
  8
1
  6
CONTINUOUS
 62
     0
 10
 4.97904573818960E+0000
 20
 7.10193053477269E-0001
 11
 4.97904573818960E+0000
 21
 7.10193053477269E-0001
  0
LINE
  8
1
  6
CONTINUOUS
 62
     0
 10
 4.97904573818960E+0000
 20
 7.10193053477269E-0001
 11
 5.13833506482479E+0000
 21
 6.83011532113596E-0001
  0
LINE
  8
1
  6
CONTINUOUS
 62
     0
 10
 5.13833506482479E+0000
 20
 6.83011532113596E-0001
 11
 5.13833506482479E+0000
 21
 7.43415169585205E-0001
  0
LINE
  8
1
  6
CONTINUOUS
 62
     0
 10
 5.13833506482479E+0000
 20
 7.43415169585205E-0001
 11
 4.97904573818960E+0000
 21
 7.10193053477269E-0001
  0
LINE
  8
1
  6
CONTINUOUS
 62
     0
 10
 5.13833506482479E+0000
 20
 6.83011532113596E-0001
 11
 5.13833506482479E+0000
 21
 7.43415169585205E-0001
  0
LINE
  8
1
  6
CONTINUOUS
 62
     0
 10
 4.99149766815390E+0000
 20
 7.08068225610077E-0001
 11
 4.98759066993807E+0000
 21
 7.11975223824993E-0001
  0
LINE
  8
1
  6
CONTINUOUS
 62
     0
 10
 5.01640152807522E+0000
 20
 7.03818569874784E-0001
 11
 5.00468053342775E+0000
 21
 7.15539564518622E-0001
  0
LINE
  8
1
  6
CONTINUOUS
 62
     0
 10
 5.04130538799654E+0000
 20
 6.99568914139491E-0001
 11
 5.02177039691742E+0000
 21
 7.19103905214979E-0001
  0
LINE
  8
1
  6
CONTINUOUS
 62
     0
 10
 5.06620924791787E+0000
 20
 6.95319258403288E-0001
 11
 5.03886026040709E+0000
 21
 7.22668245908608E-0001
  0
LINE
  8
1
  6
CONTINUOUS
 62
     0
 10
 5.09111310783919E+0000
 20
 6.91069602667994E-0001
 11
 5.05595012390404E+0000
 21
 7.26232586602237E-0001
  0
LINE
  8
1
  6
CONTINUOUS
 62
     0
 10
 5.11601696775324E+0000
 20
 6.86819946934520E-0001
 11
 5.07303998739371E+0000
 21
 7.29796927298594E-0001
  0
LINE
  8
1
  6
CONTINUOUS
 62
     0
 10
 5.13833506482479E+0000
 20
 6.85156054047184E-0001
 11
 5.09012985088339E+0000
 21
 7.33361267992223E-0001
  0
LINE
  8
1
  6
CONTINUOUS
 62
     0
 10
 5.13833506482479E+0000
 20
 7.05810258232304E-0001
 11
 5.10721971437306E+0000
 21
 7.36925608685851E-0001
  0
LINE
  8
1
  6
CONTINUOUS
 62
     0
 10
 5.13833506482479E+0000
 20
 7.26464462421063E-0001
 11
 5.12430957786273E+0000
 21
 7.40489949379480E-0001
  0
LINE
  8
1
  6
CONTINUOUS
 62
     0
 10
 5.13833506481751E+0000
 20
 6.93338634207066E-0001
 11
 5.12951332589000E+0000
 21
 6.84516895280467E-0001
  0
LINE
  8
1
  6
CONTINUOUS
 62
     0
 10
 5.13833506481751E+0000
 20
 7.13992838392187E-0001
 11
 5.11186984804226E+0000
 21
 6.87527621611480E-0001
  0
LINE
  8
1
  6
CONTINUOUS
 62
     0
 10
 5.13833506481751E+0000
 20
 7.34647042577308E-0001
 11
 5.09422637018724E+0000
 21
 6.90538347943402E-0001
  0
LINE
  8
1
  6
CONTINUOUS
 62
     0
 10
 5.12331668515981E+0000
 20
 7.40282867104725E-0001
 11
 5.07658289233223E+0000
 21
 6.93549074275325E-0001
  0
LINE
  8
1
  6
CONTINUOUS
 62
     0
 10
 5.09721954012639E+0000
 20
 7.34839926256427E-0001
 11
 5.05893941448448E+0000
 21
 6.96559800612704E-0001
  0
LINE
  8
1
  6
CONTINUOUS
 62
     0
 10
 5.07112239510025E+0000
 20
 7.29396985412677E-0001
 11
 5.04129593662947E+0000
 21
 6.99570526944626E-0001
  0
LINE
  8
1
  6
CONTINUOUS
 62
     0
 10
 5.04502525006683E+0000
 20
 7.23954044564380E-0001
 11
 5.02365245877445E+0000
 21
 7.02581253276549E-0001
  0
LINE
  8
1
  6
CONTINUOUS
 62
     0
 10
 5.01892810503341E+0000
 20
 7.18511103720630E-0001
 11
 5.00600898091943E+0000
 21
 7.05591979607561E-0001
  0
LINE
  8
1
  6
CONTINUOUS
 62
     0
 10
 4.99283095999999E+0000
 20
 7.13068162872332E-0001
 11
 4.98836550307169E+0000
 21
 7.08602705939484E-0001
  0
LINE
  8
1
  6
CONTINUOUS
 62
     0
 10
 3.95316097078467E+0000
 20
 3.10252791616222E-0001
 11
 3.95316097078467E+0000
 21
 3.10252791616222E-0001
  0
LINE
  8
1
  6
CONTINUOUS
 62
     0
 10
 3.95316097078467E+0000
 20
 3.10252791616222E-0001
 11
 4.11245029741985E+0000
 21
 2.83071270252549E-0001
  0
LINE
  8
1
  6
CONTINUOUS
 62
     0
 10
 4.11245029741985E+0000
 20
 2.83071270252549E-0001
 11
 4.11245029741985E+0000
 21
 3.43474907724158E-0001
  0
LINE
  8
1
  6
CONTINUOUS
 62
     0
 10
 4.11245029741985E+0000
 20
 3.43474907724158E-0001
 11
 3.95316097078467E+0000
 21
 3.10252791616222E-0001
  0
LINE
  8
1
  6
CONTINUOUS
 62
     0
 10
 4.11245029741985E+0000
 20
 2.83071270252549E-0001
 11
 4.11245029741985E+0000
 21
 3.43474907724158E-0001
  0
LINE
  8
1
  6
CONTINUOUS
 62
     0
 10
 3.96561290074533E+0000
 20
 3.08127963748575E-0001
 11
 3.96170590252950E+0000
 21
 3.12034961963036E-0001
  0
LINE
  8
1
  6
CONTINUOUS
 62
     0
 10
 3.99051676066665E+0000
 20
 3.03878308012827E-0001
 11
 3.97879576601918E+0000
 21
 3.15599302659393E-0001
  0
LINE
  8
1
  6
CONTINUOUS
 62
     0
 10
 4.01542062058434E+0000
 20
 2.99628652277534E-0001
 11
 3.99588562951249E+0000
 21
 3.19163643353022E-0001
  0
LINE
  8
1
  6
CONTINUOUS
 62
     0
 10
 4.04032448050566E+0000
 20
 2.95378996541785E-0001
 11
 4.01297549300216E+0000
 21
 3.22727984046651E-0001
  0
LINE
  8
1
  6
CONTINUOUS
 62
     0
 10
 4.06522834042698E+0000
 20
 2.91129340806037E-0001
 11
 4.03006535649183E+0000
 21
 3.26292324743008E-0001
  0
LINE
  8
1
  6
CONTINUOUS
 62
     0
 10
 4.09013220034831E+0000
 20
 2.86879685073018E-0001
 11
 4.04715521998151E+0000
 21
 3.29856665436637E-0001
  0
LINE
  8
1
  6
CONTINUOUS
 62
     0
 10
 4.11245029741985E+0000
 20
 2.85215792185681E-0001
 11
 4.06424508347845E+0000
 21
 3.33421006130266E-0001
  0
LINE
  8
1
  6
CONTINUOUS
 62
     0
 10
 4.11245029741985E+0000
 20
 3.05869996370802E-0001
 11
 4.08133494696813E+0000
 21
 3.36985346826623E-0001
  0
LINE
  8
1
  6
CONTINUOUS
 62
     0
 10
 4.11245029741985E+0000
 20
 3.26524200556378E-0001
 11
 4.09842481045780E+0000
 21
 3.40549687520252E-0001
  0
LINE
  8
1
  6
CONTINUOUS
 62
     0
 10
 4.11245029741258E+0000
 20
 2.93398372343290E-0001
 11
 4.10362855849235E+0000
 21
 2.84576633416691E-0001
  0
LINE
  8
1
  6
CONTINUOUS
 62
     0
 10
 4.11245029741258E+0000
 20
 3.14052576528866E-0001
 11
 4.08598508063733E+0000
 21
 2.87587359748613E-0001
  0
LINE
  8
1
  6
CONTINUOUS
 62
     0
 10
 4.11245029741258E+0000
 20
 3.34706780713987E-0001
 11
 4.06834160278231E+0000
 21
 2.90598086082809E-0001
  0
LINE
  8
1
  6
CONTINUOUS
 62
     0
 10
 4.09743191776215E+0000
 20
 3.40342605243677E-0001
 11
 4.05069812492729E+0000
 21
 2.93608812414732E-0001
  0
LINE
  8
1
  6
CONTINUOUS
 62
     0
 10
 4.07133477272873E+0000
 20
 3.34899664397653E-0001
 11
 4.03305464707955E+0000
 21
 2.96619538746654E-0001
  0
LINE
  8
1
  6
CONTINUOUS
 62
     0
 10
 4.04523762769531E+0000
 20
 3.29456723552084E-0001
 11
 4.01541116922454E+0000
 21
 2.99630265080850E-0001
  0
LINE
  8
1
  6
CONTINUOUS
 62
     0
 10
 4.01914048266917E+0000
 20
 3.24013782706061E-0001
 11
 3.99776769137316E+0000
 21
 3.02640991412773E-0001
  0
LINE
  8
1
  6
CONTINUOUS
 62
     0
 10
 3.99304333763575E+0000
 20
 3.18570841860037E-0001
 11
 3.98012421351814E+0000
 21
 3.05651717744695E-0001
  0
LINE
  8
1
  6
CONTINUOUS
 62
     0
 10
 3.96694619260234E+0000
 20
 3.13127901014468E-0001
 11
 3.96248073566676E+0000
 21
 3.08662444078891E-0001
  0
LINE
  8
1
  6
CONTINUOUS
 62
     0
 10
 4.96700408670586E+0000
 20
 3.05898066719237E-0001
 11
 4.96700408670586E+0000
 21
 3.05898066719237E-0001
  0
LINE
  8
1
  6
CONTINUOUS
 62
     0
 10
 4.96700408670586E+0000
 20
 3.05898066719237E-0001
 11
 4.80771476007794E+0000
 21
 3.33079588082910E-0001
  0
LINE
  8
1
  6
CONTINUOUS
 62
     0
 10
 4.80771476007794E+0000
 20
 3.33079588082910E-0001
 11
 4.80771476007794E+0000
 21
 2.72675950611301E-0001
  0
LINE
  8
1
  6
CONTINUOUS
 62
     0
 10
 4.80771476007794E+0000
 20
 2.72675950611301E-0001
 11
 4.96700408670586E+0000
 21
 3.05898066719237E-0001
  0
LINE
  8
1
  6
CONTINUOUS
 62
     0
 10
 4.80771476007794E+0000
 20
 3.33079588082910E-0001
 11
 4.80771476007794E+0000
 21
 2.72675950611301E-0001
  0
LINE
  8
1
  6
CONTINUOUS
 62
     0
 10
 4.81625969182642E+0000
 20
 2.74458120957661E-0001
 11
 4.80771476007794E+0000
 21
 2.83003052703407E-0001
  0
LINE
  8
1
  6
CONTINUOUS
 62
     0
 10
 4.83334955531609E+0000
 20
 2.78022461653563E-0001
 11
 4.80771476007794E+0000
 21
 3.03657256888528E-0001
  0
LINE
  8
1
  6
CONTINUOUS
 62
     0
 10
 4.85043941880576E+0000
 20
 2.81586802347192E-0001
 11
 4.80771476007794E+0000
 21
 3.24311461074103E-0001
  0
LINE
  8
1
  6
CONTINUOUS
 62
     0
 10
 4.86752928229544E+0000
 20
 2.85151143043549E-0001
 11
 4.82204642826400E+0000
 21
 3.30633997073619E-0001
  0
LINE
  8
1
  6
CONTINUOUS
 62
     0
 10
 4.88461914578511E+0000
 20
 2.88715483737178E-0001
 11
 4.84695028818533E+0000
 21
 3.26384341338326E-0001
  0
LINE
  8
1
  6
CONTINUOUS
 62
     0
 10
 4.90170900927478E+0000
 20
 2.92279824433535E-0001
 11
 4.87185414810665E+0000
 21
 3.22134685605306E-0001
  0
LINE
  8
1
  6
CONTINUOUS
 62
     0
 10
 4.91879887276446E+0000
 20
 2.95844165127164E-0001
 11
 4.89675800802797E+0000
 21
 3.17885029869558E-0001
  0
LINE
  8
1
  6
CONTINUOUS
 62
     0
 10
 4.93588873625413E+0000
 20
 2.99408505823521E-0001
 11
 4.92166186794930E+0000
 21
 3.13635374133810E-0001
  0
LINE
  8
1
  6
CONTINUOUS
 62
     0
 10
 4.95297859975108E+0000
 20
 3.02972846517150E-0001
 11
 4.94656572787062E+0000
 21
 3.09385718398516E-0001
  0
LINE
  8
1
  6
CONTINUOUS
 62
     0
 10
 4.95818234777835E+0000
 20
 3.07403429885198E-0001
 11
 4.95395551418187E+0000
 21
 3.03176596295089E-0001
  0
LINE
  8
1
  6
CONTINUOUS
 62
     0
 10
 4.94053886992333E+0000
 20
 3.10414156217121E-0001
 11
 4.92785836915573E+0000
 21
 2.97733655449065E-0001
  0
LINE
  8
1
  6
CONTINUOUS
 62
     0
 10
 4.92289539206831E+0000
 20
 3.13424882551317E-0001
 11
 4.90176122412231E+0000
 21
 2.92290714600767E-0001
  0
LINE
  8
1
  6
CONTINUOUS
 62
     0
 10
 4.90525191422057E+0000
 20
 3.16435608883239E-0001
 11
 4.87566407908889E+0000
 21
 2.86847773754744E-0001
  0
LINE
  8
1
  6
CONTINUOUS
 62
     0
 10
 4.88760843636555E+0000
 20
 3.19446335215162E-0001
 11
 4.84956693405547E+0000
 21
 2.81404832908720E-0001
  0
LINE
  8
1
  6
CONTINUOUS
 62
     0
 10
 4.86996495851054E+0000
 20
 3.22457061549358E-0001
 11
 4.82346978902206E+0000
 21
 2.75961892060423E-0001
  0
LINE
  8
1
  6
CONTINUOUS
 62
     0
 10
 4.85232148065552E+0000
 20
 3.25467787881280E-0001
 11
 4.80771476007067E+0000
 21
 2.80861067296428E-0001
  0
LINE
  8
1
  6
CONTINUOUS
 62
     0
 10
 4.83467800280778E+0000
 20
 3.28478514213202E-0001
 11
 4.80771476007067E+0000
 21
 3.01515271481549E-0001
  0
LINE
  8
1
  6
CONTINUOUS
 62
     0
 10
 4.81703452495276E+0000
 20
 3.31489240544670E-0001
 11
 4.80771476007067E+0000
 21
 3.22169475667124E-0001
  0
LINE
  8
1
  6
CONTINUOUS
 62
     0
 10
 1.77368841054704E+0000
 20
 1.30936629058669E+0000
 11
 1.77368841054704E+0000
 21
 1.30936629058669E+0000
  0
LINE
  8
1
  6
CONTINUOUS
 62
     0
 10
 1.77368841054704E+0000
 20
 1.30936629058669E+0000
 11
 1.80086993191071E+0000
 21
 1.46865561721461E+0000
  0
LINE
  8
1
  6
CONTINUOUS
 62
     0
 10
 1.80086993191071E+0000
 20
 1.46865561721461E+0000
 11
 1.74046629443910E+0000
 21
 1.46865561721461E+0000
  0
LINE
  8
1
  6
CONTINUOUS
 62
     0
 10
 1.74046629443910E+0000
 20
 1.46865561721461E+0000
 11
 1.77368841054704E+0000
 21
 1.30936629058669E+0000
  0
LINE
  8
1
  6
CONTINUOUS
 62
     0
 10
 1.80086993191071E+0000
 20
 1.46865561721461E+0000
 11
 1.74046629443910E+0000
 21
 1.46865561721461E+0000
  0
LINE
  8
1
  6
CONTINUOUS
 62
     0
 10
 1.77519377371391E+0000
 20
 1.31818802951238E+0000
 11
 1.77096694012471E+0000
 21
 1.32241486310340E+0000
  0
LINE
  8
1
  6
CONTINUOUS
 62
     0
 10
 1.77820450004583E+0000
 20
 1.33583150736558E+0000
 11
 1.76552399927641E+0000
 21
 1.34851200813500E+0000
  0
LINE
  8
1
  6
CONTINUOUS
 62
     0
 10
 1.78121522637957E+0000
 20
 1.35347498521878E+0000
 11
 1.76008105842993E+0000
 21
 1.37460915316660E+0000
  0
LINE
  8
1
  6
CONTINUOUS
 62
     0
 10
 1.78422595271149E+0000
 20
 1.37111846307198E+0000
 11
 1.75463811758345E+0000
 21
 1.40070629820002E+0000
  0
LINE
  8
1
  6
CONTINUOUS
 62
     0
 10
 1.78723667904342E+0000
 20
 1.38876194092518E+0000
 11
 1.74919517673698E+0000
 21
 1.42680344323162E+0000
  0
LINE
  8
1
  6
CONTINUOUS
 62
     0
 10
 1.79024740537716E+0000
 20
 1.40640541877656E+0000
 11
 1.74375223589050E+0000
 21
 1.45290058826322E+0000
  0
LINE
  8
1
  6
CONTINUOUS
 62
     0
 10
 1.79325813170908E+0000
 20
 1.42404889662976E+0000
 11
 1.74865141112423E+0000
 21
 1.46865561721461E+0000
  0
LINE
  8
1
  6
CONTINUOUS
 62
     0
 10
 1.79626885804100E+0000
 20
 1.44169237448295E+0000
 11
 1.76930561530935E+0000
 21
 1.46865561721461E+0000
  0
LINE
  8
1
  6
CONTINUOUS
 62
     0
 10
 1.79927958437474E+0000
 20
 1.45933585233615E+0000
 11
 1.78995981949629E+0000
 21
 1.46865561721461E+0000
  0
LINE
  8
1
  6
CONTINUOUS
 62
     0
 10
 1.77581323841332E+0000
 20
 1.32181822054736E+0000
 11
 1.77190624019931E+0000
 21
 1.31791122233153E+0000
  0
LINE
  8
1
  6
CONTINUOUS
 62
     0
 10
 1.78006289414952E+0000
 20
 1.34672208046686E+0000
 11
 1.76834189950205E+0000
 21
 1.33500108582120E+0000
  0
LINE
  8
1
  6
CONTINUOUS
 62
     0
 10
 1.78431254988573E+0000
 20
 1.37162594038818E+0000
 11
 1.76477755880842E+0000
 21
 1.35209094931270E+0000
  0
LINE
  8
1
  6
CONTINUOUS
 62
     0
 10
 1.78856220561829E+0000
 20
 1.39652980030587E+0000
 11
 1.76121321811297E+0000
 21
 1.36918081280237E+0000
  0
LINE
  8
1
  6
CONTINUOUS
 62
     0
 10
 1.79281186135449E+0000
 20
 1.42143366022719E+0000
 11
 1.75764887741934E+0000
 21
 1.38627067629386E+0000
  0
LINE
  8
1
  6
CONTINUOUS
 62
     0
 10
 1.79706151708888E+0000
 20
 1.44633752014852E+0000
 11
 1.75408453672389E+0000
 21
 1.40336053978172E+0000
  0
LINE
  8
1
  6
CONTINUOUS
 62
     0
 10
 1.79872540996985E+0000
 20
 1.46865561721461E+0000
 11
 1.75052019603027E+0000
 21
 1.42045040327503E+0000
  0
LINE
  8
1
  6
CONTINUOUS
 62
     0
 10
 1.77807120578291E+0000
 20
 1.46865561721461E+0000
 11
 1.74695585533300E+0000
 21
 1.43754026676288E+0000
  0
LINE
  8
1
  6
CONTINUOUS
 62
     0
 10
 1.75741700159779E+0000
 20
 1.46865561721461E+0000
 11
 1.74339151463937E+0000
 21
 1.45463013025437E+0000
  0
LINE
  8
1
  6
CONTINUOUS
 62
     0
 10
 1.77213759499864E+0000
 20
 2.51424134334229E+0000
 11
 1.77213759499864E+0000
 21
 2.51424134334229E+0000
  0
LINE
  8
1
  6
CONTINUOUS
 62
     0
 10
 1.77213759499864E+0000
 20
 2.51424134334229E+0000
 11
 1.74495607363497E+0000
 21
 2.35495201671438E+0000
  0
LINE
  8
1
  6
CONTINUOUS
 62
     0
 10
 1.74495607363497E+0000
 20
 2.35495201671438E+0000
 11
 1.80535971110658E+0000
 21
 2.35495201671438E+0000
  0
LINE
  8
1
  6
CONTINUOUS
 62
     0
 10
 1.80535971110658E+0000
 20
 2.35495201671438E+0000
 11
 1.77213759499864E+0000
 21
 2.51424134334229E+0000
  0
LINE
  8
1
  6
CONTINUOUS
 62
     0
 10
 1.74495607363497E+0000
 20
 2.35495201671438E+0000
 11
 1.80535971110658E+0000
 21
 2.35495201671438E+0000
  0
LINE
  8
1
  6
CONTINUOUS
 62
     0
 10
 1.75528317572935E+0000
 20
 2.35495201671438E+0000
 11
 1.74646143680184E+0000
 21
 2.36377375564189E+0000
  0
LINE
  8
1
  6
CONTINUOUS
 62
     0
 10
 1.77593737991265E+0000
 20
 2.35495201671438E+0000
 11
 1.74947216313558E+0000
 21
 2.38141723349327E+0000
  0
LINE
  8
1
  6
CONTINUOUS
 62
     0
 10
 1.79659158409959E+0000
 20
 2.35495201671438E+0000
 11
 1.75248288946750E+0000
 21
 2.39906071134828E+0000
  0
LINE
  8
1
  6
CONTINUOUS
 62
     0
 10
 1.80222740862882E+0000
 20
 2.36997039637208E+0000
 11
 1.75549361579942E+0000
 21
 2.41670418919966E+0000
  0
LINE
  8
1
  6
CONTINUOUS
 62
     0
 10
 1.79678446778235E+0000
 20
 2.39606754140186E+0000
 11
 1.75850434213316E+0000
 21
 2.43434766705104E+0000
  0
LINE
  8
1
  6
CONTINUOUS
 62
     0
 10
 1.79134152693405E+0000
 20
 2.42216468643528E+0000
 11
 1.76151506846509E+0000
 21
 2.45199114490606E+0000
  0
LINE
  8
1
  6
CONTINUOUS
 62
     0
 10
 1.78589858608757E+0000
 20
 2.44826183146870E+0000
 11
 1.76452579479701E+0000
 21
 2.46963462275744E+0000
  0
LINE
  8
1
  6
CONTINUOUS
 62
     0
 10
 1.78045564524109E+0000
 20
 2.47435897649848E+0000
 11
 1.76753652113075E+0000
 21
 2.48727810061246E+0000
  0
LINE
  8
1
  6
CONTINUOUS
 62
     0
 10
 1.77501270439461E+0000
 20
 2.50045612153190E+0000
 11
 1.77054724746267E+0000
 21
 2.50492157846384E+0000
  0
LINE
  8
1
  6
CONTINUOUS
 62
     0
 10
 1.80357754075703E+0000
 20
 2.36349694845921E+0000
 11
 1.79503260901220E+0000
 21
 2.35495201671074E+0000
  0
LINE
  8
1
  6
CONTINUOUS
 62
     0
 10
 1.80001320006158E+0000
 20
 2.38058681194525E+0000
 11
 1.77437840482526E+0000
 21
 2.35495201671074E+0000
  0
LINE
  8
1
  6
CONTINUOUS
 62
     0
 10
 1.79644885936796E+0000
 20
 2.39767667543856E+0000
 11
 1.75372420064014E+0000
 21
 2.35495201671074E+0000
  0
LINE
  8
1
  6
CONTINUOUS
 62
     0
 10
 1.79288451867433E+0000
 20
 2.41476653892823E+0000
 11
 1.74740166464107E+0000
 21
 2.36928368489680E+0000
  0
LINE
  8
1
  6
CONTINUOUS
 62
     0
 10
 1.78932017797706E+0000
 20
 2.43185640241791E+0000
 11
 1.75165132037728E+0000
 21
 2.39418754481812E+0000
  0
LINE
  8
1
  6
CONTINUOUS
 62
     0
 10
 1.78575583728343E+0000
 20
 2.44894626591122E+0000
 11
 1.75590097611166E+0000
 21
 2.41909140473945E+0000
  0
LINE
  8
1
  6
CONTINUOUS
 62
     0
 10
 1.78219149658980E+0000
 20
 2.46603612940089E+0000
 11
 1.76015063184786E+0000
 21
 2.44399526466077E+0000
  0
LINE
  8
1
  6
CONTINUOUS
 62
     0
 10
 1.77862715589436E+0000
 20
 2.48312599289056E+0000
 11
 1.76440028758407E+0000
 21
 2.46889912458209E+0000
  0
LINE
  8
1
  6
CONTINUOUS
 62
     0
 10
 1.77506281520073E+0000
 20
 2.50021585638387E+0000
 11
 1.76864994331845E+0000
 21
 2.49380298450342E+0000
  0
TEXT
  8
1
 62
     0
 10
 9.76226733168005E+0000
 20
 6.57361052540182E-0001
 40
 1.18110236219991E-0001
  1
28.12.2003
  7
STANDARD
 11
 9.76226733168005E+0000
 21
 7.75471288759945E-0001
 50
 0.00000000000000E+0000
 41
 2.99737577857286E-0001
  0
TEXT
  8
1
 62
     0
 10
 9.76226733168005E+0000
 20
 9.99247396198371E-0001
 40
 1.18110236219991E-0001
  1
42CrMo4
  7
STANDARD
 11
 9.76226733168005E+0000
 21
 1.11735763241813E+0000
 50
 0.00000000000000E+0000
 41
 3.33041753174712E-0001
  0
LINE
  8
1
  6
CONTINUOUS
 62
     0
 10
 7.36696719947940E+0000
 20
 5.83839487915247E+0000
 11
 7.36696719947940E+0000
 21
 6.38736443679227E+0000
  0
LINE
  8
1
  6
CONTINUOUS
 62
     0
 10
 7.36696719947940E+0000
 20
 6.38736443679227E+0000
 11
 7.68752373559255E+0000
 21
 6.38736443679227E+0000
  0
LINE
  8
1
  6
CONTINUOUS
 62
     0
 10
 7.68752373559255E+0000
 20
 6.38736443679227E+0000
 11
 7.68752373559255E+0000
 21
 5.84508962986001E+0000
  0
LINE
  8
1
  6
CONTINUOUS
 62
     0
 10
 8.00140201054455E+0000
 20
 5.83839487915247E+0000
 11
 8.00140201054455E+0000
 21
 6.54134370295651E+0000
  0
LINE
  8
1
  6
CONTINUOUS
 62
     0
 10
 8.00140201054455E+0000
 20
 6.54134370295651E+0000
 11
 8.16168027860112E+0000
 21
 6.54134370295651E+0000
  0
LINE
  8
1
  6
CONTINUOUS
 62
     0
 10
 8.16168027860112E+0000
 20
 6.54134370295651E+0000
 11
 8.16168027860112E+0000
 21
 5.83839487915247E+0000
  0
LINE
  8
1
  6
CONTINUOUS
 62
     0
 10
 7.98563488916261E+0000
 20
 6.53271273044084E+0000
 11
 7.98563488916261E+0000
 21
 6.53271273044084E+0000
  0
LINE
  8
1
  6
CONTINUOUS
 62
     0
 10
 7.98563488916261E+0000
 20
 6.53271273044084E+0000
 11
 7.82634556252742E+0000
 21
 6.55989425180451E+0000
  0
LINE
  8
1
  6
CONTINUOUS
 62
     0
 10
 7.82634556252742E+0000
 20
 6.55989425180451E+0000
 11
 7.82634556252742E+0000
 21
 6.49949061433290E+0000
  0
LINE
  8
1
  6
CONTINUOUS
 62
     0
 10
 7.82634556252742E+0000
 20
 6.49949061433290E+0000
 11
 7.98563488916261E+0000
 21
 6.53271273044084E+0000
  0
LINE
  8
1
  6
CONTINUOUS
 62
     0
 10
 7.82634556252742E+0000
 20
 6.55989425180451E+0000
 11
 7.82634556252742E+0000
 21
 6.49949061433290E+0000
  0
LINE
  8
1
  6
CONTINUOUS
 62
     0
 10
 7.83489049428317E+0000
 20
 6.50127278468426E+0000
 11
 7.82634556252742E+0000
 21
 6.50981771643274E+0000
  0
LINE
  8
1
  6
CONTINUOUS
 62
     0
 10
 7.85198035777285E+0000
 20
 6.50483712537243E+0000
 11
 7.82634556253470E+0000
 21
 6.53047192061786E+0000
  0
LINE
  8
1
  6
CONTINUOUS
 62
     0
 10
 7.86907022126252E+0000
 20
 6.50840146606788E+0000
 11
 7.82634556253470E+0000
 21
 6.55112612479570E+0000
  0
LINE
  8
1
  6
CONTINUOUS
 62
     0
 10
 7.88616008475219E+0000
 20
 6.51196580676333E+0000
 11
 7.84067723071348E+0000
 21
 6.55744866080204E+0000
  0
LINE
  8
1
  6
CONTINUOUS
 62
     0
 10
 7.90324994824186E+0000
 20
 6.51553014745878E+0000
 11
 7.86558109063481E+0000
 21
 6.55319900506584E+0000
  0
LINE
  8
1
  6
CONTINUOUS
 62
     0
 10
 7.92033981173154E+0000
 20
 6.51909448815422E+0000
 11
 7.89048495055613E+0000
 21
 6.54894934932963E+0000
  0
LINE
  8
1
  6
CONTINUOUS
 62
     0
 10
 7.93742967522121E+0000
 20
 6.52265882884967E+0000
 11
 7.91538881047745E+0000
 21
 6.54469969359343E+0000
  0
LINE
  8
1
  6
CONTINUOUS
 62
     0
 10
 7.95451953871088E+0000
 20
 6.52622316954512E+0000
 11
 7.94029267039878E+0000
 21
 6.54045003785723E+0000
  0
LINE
  8
1
  6
CONTINUOUS
 62
     0
 10
 7.97160940220783E+0000
 20
 6.52978751024057E+0000
 11
 7.96519653032010E+0000
 21
 6.53620038212102E+0000
  0
LINE
  8
1
  6
CONTINUOUS
 62
     0
 10
 7.97681315023510E+0000
 20
 6.53421809360589E+0000
 11
 7.97258631663863E+0000
 21
 6.52999126000941E+0000
  0
LINE
  8
1
  6
CONTINUOUS
 62
     0
 10
 7.95916967238009E+0000
 20
 6.53722881994327E+0000
 11
 7.94648917161248E+0000
 21
 6.52454831916839E+0000
  0
LINE
  8
1
  6
CONTINUOUS
 62
     0
 10
 7.94152619453234E+0000
 20
 6.54023954627337E+0000
 11
 7.92039202657907E+0000
 21
 6.51910537832737E+0000
  0
LINE
  8
1
  6
CONTINUOUS
 62
     0
 10
 7.92388271667733E+0000
 20
 6.54325027260347E+0000
 11
 7.89429488154565E+0000
 21
 6.51366243747179E+0000
  0
LINE
  8
1
  6
CONTINUOUS
 62
     0
 10
 7.90623923882231E+0000
 20
 6.54626099893358E+0000
 11
 7.86819773651223E+0000
 21
 6.50821949662350E+0000
  0
LINE
  8
1
  6
CONTINUOUS
 62
     0
 10
 7.88859576096729E+0000
 20
 6.54927172526368E+0000
 11
 7.84210059148609E+0000
 21
 6.50277655578248E+0000
  0
LINE
  8
1
  6
CONTINUOUS
 62
     0
 10
 7.87095228311955E+0000
 20
 6.55228245160106E+0000
 11
 7.82634556252015E+0000
 21
 6.50767573100165E+0000
  0
LINE
  8
1
  6
CONTINUOUS
 62
     0
 10
 7.85330880526453E+0000
 20
 6.55529317793116E+0000
 11
 7.82634556252015E+0000
 21
 6.52832993518678E+0000
  0
LINE
  8
1
  6
CONTINUOUS
 62
     0
 10
 7.83566532740952E+0000
 20
 6.55830390426127E+0000
 11
 7.82634556252015E+0000
 21
 6.54898413937190E+0000
  0
LINE
  8
1
  6
CONTINUOUS
 62
     0
 10
 7.35120007809746E+0000
 20
 6.37873346427659E+0000
 11
 7.35120007809746E+0000
 21
 6.37873346427659E+0000
  0
LINE
  8
1
  6
CONTINUOUS
 62
     0
 10
 7.35120007809746E+0000
 20
 6.37873346427659E+0000
 11
 7.19191075146227E+0000
 21
 6.40591498564027E+0000
  0
LINE
  8
1
  6
CONTINUOUS
 62
     0
 10
 7.19191075146227E+0000
 20
 6.40591498564027E+0000
 11
 7.19191075146227E+0000
 21
 6.34551134816866E+0000
  0
LINE
  8
1
  6
CONTINUOUS
 62
     0
 10
 7.19191075146227E+0000
 20
 6.34551134816866E+0000
 11
 7.35120007809746E+0000
 21
 6.37873346427659E+0000
  0
LINE
  8
1
  6
CONTINUOUS
 62
     0
 10
 7.19191075146227E+0000
 20
 6.40591498564027E+0000
 11
 7.19191075146227E+0000
 21
 6.34551134816866E+0000
  0
LINE
  8
1
  6
CONTINUOUS
 62
     0
 10
 7.20045568322530E+0000
 20
 6.34729351852729E+0000
 11
 7.19191075146955E+0000
 21
 6.35583845027577E+0000
  0
LINE
  8
1
  6
CONTINUOUS
 62
     0
 10
 7.21754554671497E+0000
 20
 6.35085785921547E+0000
 11
 7.19191075146955E+0000
 21
 6.37649265446817E+0000
  0
LINE
  8
1
  6
CONTINUOUS
 62
     0
 10
 7.23463541020465E+0000
 20
 6.35442219991091E+0000
 11
 7.19191075146955E+0000
 21
 6.39714685865329E+0000
  0
LINE
  8
1
  6
CONTINUOUS
 62
     0
 10
 7.25172527369432E+0000
 20
 6.35798654060636E+0000
 11
 7.20624241967016E+0000
 21
 6.40346939463052E+0000
  0
LINE
  8
1
  6
CONTINUOUS
 62
     0
 10
 7.26881513719127E+0000
 20
 6.36155088130181E+0000
 11
 7.23114627959148E+0000
 21
 6.39921973889432E+0000
  0
LINE
  8
1
  6
CONTINUOUS
 62
     0
 10
 7.28590500068094E+0000
 20
 6.36511522199726E+0000
 11
 7.25605013951281E+0000
 21
 6.39497008315811E+0000
  0
LINE
  8
1
  6
CONTINUOUS
 62
     0
 10
 7.30299486417061E+0000
 20
 6.36867956268543E+0000
 11
 7.28095399943413E+0000
 21
 6.39072042742191E+0000
  0
LINE
  8
1
  6
CONTINUOUS
 62
     0
 10
 7.32008472766029E+0000
 20
 6.37224390338088E+0000
 11
 7.30585785935546E+0000
 21
 6.38647077168571E+0000
  0
LINE
  8
1
  6
CONTINUOUS
 62
     0
 10
 7.33717459114996E+0000
 20
 6.37580824407632E+0000
 11
 7.33076171927678E+0000
 21
 6.38222111594951E+0000
  0
LINE
  8
1
  6
CONTINUOUS
 62
     0
 10
 7.34237833916995E+0000
 20
 6.38023882744164E+0000
 11
 7.33815150557348E+0000
 21
 6.37601199384517E+0000
  0
LINE
  8
1
  6
CONTINUOUS
 62
     0
 10
 7.32473486131494E+0000
 20
 6.38324955377175E+0000
 11
 7.31205436054006E+0000
 21
 6.37056905300415E+0000
  0
LINE
  8
1
  6
CONTINUOUS
 62
     0
 10
 7.30709138345992E+0000
 20
 6.38626028010913E+0000
 11
 7.28595721551392E+0000
 21
 6.36512611215585E+0000
  0
LINE
  8
1
  6
CONTINUOUS
 62
     0
 10
 7.28944790561218E+0000
 20
 6.38927100643923E+0000
 11
 7.25986007047322E+0000
 21
 6.35968317130755E+0000
  0
LINE
  8
1
  6
CONTINUOUS
 62
     0
 10
 7.27180442775716E+0000
 20
 6.39228173276933E+0000
 11
 7.23376292544708E+0000
 21
 6.35424023045925E+0000
  0
LINE
  8
1
  6
CONTINUOUS
 62
     0
 10
 7.25416094990214E+0000
 20
 6.39529245909944E+0000
 11
 7.20766578042094E+0000
 21
 6.34879728961823E+0000
  0
LINE
  8
1
  6
CONTINUOUS
 62
     0
 10
 7.23651747204713E+0000
 20
 6.39830318542954E+0000
 11
 7.19191075145500E+0000
 21
 6.35369646483741E+0000
  0
LINE
  8
1
  6
CONTINUOUS
 62
     0
 10
 7.21887399419211E+0000
 20
 6.40131391176692E+0000
 11
 7.19191075145500E+0000
 21
 6.37435066902253E+0000
  0
LINE
  8
1
  6
CONTINUOUS
 62
     0
 10
 7.20123051634437E+0000
 20
 6.40432463809702E+0000
 11
 7.19191075145500E+0000
 21
 6.39500487320765E+0000
  0
LINE
  8
1
  6
CONTINUOUS
 62
     0
 10
 7.69728590529121E+0000
 20
 6.38784645907435E+0000
 11
 7.69728590529121E+0000
 21
 6.38784645907435E+0000
  0
LINE
  8
1
  6
CONTINUOUS
 62
     0
 10
 7.69728590529121E+0000
 20
 6.38784645907435E+0000
 11
 7.85657523192640E+0000
 21
 6.36066493771068E+0000
  0
LINE
  8
1
  6
CONTINUOUS
 62
     0
 10
 7.85657523192640E+0000
 20
 6.36066493771068E+0000
 11
 7.85657523192640E+0000
 21
 6.42106857518229E+0000
  0
LINE
  8
1
  6
CONTINUOUS
 62
     0
 10
 7.85657523192640E+0000
 20
 6.42106857518229E+0000
 11
 7.69728590529121E+0000
 21
 6.38784645907435E+0000
  0
LINE
  8
1
  6
CONTINUOUS
 62
     0
 10
 7.85657523192640E+0000
 20
 6.36066493771068E+0000
 11
 7.85657523192640E+0000
 21
 6.42106857518229E+0000
  0
LINE
  8
1
  6
CONTINUOUS
 62
     0
 10
 7.70973783526279E+0000
 20
 6.38572163120989E+0000
 11
 7.70583083704696E+0000
 21
 6.38962862942572E+0000
  0
LINE
  8
1
  6
CONTINUOUS
 62
     0
 10
 7.73464169518411E+0000
 20
 6.38147197547369E+0000
 11
 7.72292070053663E+0000
 21
 6.39319297012116E+0000
  0
LINE
  8
1
  6
CONTINUOUS
 62
     0
 10
 7.75954555510543E+0000
 20
 6.37722231973748E+0000
 11
 7.74001056402631E+0000
 21
 6.39675731081661E+0000
  0
LINE
  8
1
  6
CONTINUOUS
 62
     0
 10
 7.78444941502676E+0000
 20
 6.37297266400128E+0000
 11
 7.75710042751598E+0000
 21
 6.40032165151206E+0000
  0
LINE
  8
1
  6
CONTINUOUS
 62
     0
 10
 7.80935327494080E+0000
 20
 6.36872300827235E+0000
 11
 7.77419029101293E+0000
 21
 6.40388599220751E+0000
  0
LINE
  8
1
  6
CONTINUOUS
 62
     0
 10
 7.83425713486213E+0000
 20
 6.36447335253615E+0000
 11
 7.79128015450260E+0000
 21
 6.40745033290295E+0000
  0
LINE
  8
1
  6
CONTINUOUS
 62
     0
 10
 7.85657523193368E+0000
 20
 6.36280945964972E+0000
 11
 7.80837001799227E+0000
 21
 6.41101467359113E+0000
  0
LINE
  8
1
  6
CONTINUOUS
 62
     0
 10
 7.85657523193368E+0000
 20
 6.38346366383485E+0000
 11
 7.82545988148195E+0000
 21
 6.41457901428657E+0000
  0
LINE
  8
1
  6
CONTINUOUS
 62
     0
 10
 7.85657523193368E+0000
 20
 6.40411786801997E+0000
 11
 7.84254974497162E+0000
 21
 6.41814335498202E+0000
  0
LINE
  8
1
  6
CONTINUOUS
 62
     0
 10
 7.85657523191185E+0000
 20
 6.37099203978869E+0000
 11
 7.84775349299161E+0000
 21
 6.36217030087573E+0000
  0
LINE
  8
1
  6
CONTINUOUS
 62
     0
 10
 7.85657523191185E+0000
 20
 6.39164624397381E+0000
 11
 7.83011001514387E+0000
 21
 6.36518102720584E+0000
  0
LINE
  8
1
  6
CONTINUOUS
 62
     0
 10
 7.85657523191185E+0000
 20
 6.41230044815893E+0000
 11
 7.81246653728886E+0000
 21
 6.36819175353594E+0000
  0
LINE
  8
1
  6
CONTINUOUS
 62
     0
 10
 7.84155685226142E+0000
 20
 6.41793627270090E+0000
 11
 7.79482305943384E+0000
 21
 6.37120247986604E+0000
  0
LINE
  8
1
  6
CONTINUOUS
 62
     0
 10
 7.81545970722800E+0000
 20
 6.41249333184533E+0000
 11
 7.77717958157882E+0000
 21
 6.37421320620342E+0000
  0
LINE
  8
1
  6
CONTINUOUS
 62
     0
 10
 7.78936256219458E+0000
 20
 6.40705039100430E+0000
 11
 7.75953610373108E+0000
 21
 6.37722393253352E+0000
  0
LINE
  8
1
  6
CONTINUOUS
 62
     0
 10
 7.76326541716844E+0000
 20
 6.40160745015601E+0000
 11
 7.74189262587606E+0000
 21
 6.38023465886363E+0000
  0
LINE
  8
1
  6
CONTINUOUS
 62
     0
 10
 7.73716827214230E+0000
 20
 6.39616450931499E+0000
 11
 7.72424914802104E+0000
 21
 6.38324538519373E+0000
  0
LINE
  8
1
  6
CONTINUOUS
 62
     0
 10
 7.71107112710888E+0000
 20
 6.39072156847396E+0000
 11
 7.70660567018058E+0000
 21
 6.38625611153839E+0000
  0
LINE
  8
1
  6
CONTINUOUS
 62
     0
 10
 8.17144244830706E+0000
 20
 6.54182572523860E+0000
 11
 8.17144244830706E+0000
 21
 6.54182572523860E+0000
  0
LINE
  8
1
  6
CONTINUOUS
 62
     0
 10
 8.17144244830706E+0000
 20
 6.54182572523860E+0000
 11
 8.33073177494225E+0000
 21
 6.51464420387492E+0000
  0
LINE
  8
1
  6
CONTINUOUS
 62
     0
 10
 8.33073177494225E+0000
 20
 6.51464420387492E+0000
 11
 8.33073177494225E+0000
 21
 6.57504784134653E+0000
  0
LINE
  8
1
  6
CONTINUOUS
 62
     0
 10
 8.33073177494225E+0000
 20
 6.57504784134653E+0000
 11
 8.17144244830706E+0000
 21
 6.54182572523860E+0000
  0
LINE
  8
1
  6
CONTINUOUS
 62
     0
 10
 8.33073177494225E+0000
 20
 6.51464420387492E+0000
 11
 8.33073177494225E+0000
 21
 6.57504784134653E+0000
  0
LINE
  8
1
  6
CONTINUOUS
 62
     0
 10
 8.18389437829319E+0000
 20
 6.53970089737413E+0000
 11
 8.17998738006281E+0000
 21
 6.54360789559723E+0000
  0
LINE
  8
1
  6
CONTINUOUS
 62
     0
 10
 8.20879823820724E+0000
 20
 6.53545124163793E+0000
 11
 8.19707724355976E+0000
 21
 6.54717223628541E+0000
  0
LINE
  8
1
  6
CONTINUOUS
 62
     0
 10
 8.23370209813584E+0000
 20
 6.53120158590173E+0000
 11
 8.21416710705671E+0000
 21
 6.55073657698085E+0000
  0
LINE
  8
1
  6
CONTINUOUS
 62
     0
 10
 8.25860595804988E+0000
 20
 6.52695193016552E+0000
 11
 8.23125697053911E+0000
 21
 6.55430091767630E+0000
  0
LINE
  8
1
  6
CONTINUOUS
 62
     0
 10
 8.28350981797848E+0000
 20
 6.52270227442932E+0000
 11
 8.24834683403606E+0000
 21
 6.55786525837175E+0000
  0
LINE
  8
1
  6
CONTINUOUS
 62
     0
 10
 8.30841367789253E+0000
 20
 6.51845261869312E+0000
 11
 8.26543669751845E+0000
 21
 6.56142959906720E+0000
  0
LINE
  8
1
  6
CONTINUOUS
 62
     0
 10
 8.33073177494225E+0000
 20
 6.51678872582852E+0000
 11
 8.28252656101540E+0000
 21
 6.56499393975537E+0000
  0
LINE
  8
1
  6
CONTINUOUS
 62
     0
 10
 8.33073177494225E+0000
 20
 6.53744293001364E+0000
 11
 8.29961642451235E+0000
 21
 6.56855828045082E+0000
  0
LINE
  8
1
  6
CONTINUOUS
 62
     0
 10
 8.33073177494225E+0000
 20
 6.55809713420604E+0000
 11
 8.31670628799475E+0000
 21
 6.57212262114626E+0000
  0
LINE
  8
1
  6
CONTINUOUS
 62
     0
 10
 8.33073177492770E+0000
 20
 6.52497130596021E+0000
 11
 8.32191003601474E+0000
 21
 6.51614956703997E+0000
  0
LINE
  8
1
  6
CONTINUOUS
 62
     0
 10
 8.33073177492770E+0000
 20
 6.54562551014533E+0000
 11
 8.30426655815972E+0000
 21
 6.51916029337735E+0000
  0
LINE
  8
1
  6
CONTINUOUS
 62
     0
 10
 8.33073177492770E+0000
 20
 6.56627971433045E+0000
 11
 8.28662308030471E+0000
 21
 6.52217101970746E+0000
  0
LINE
  8
1
  6
CONTINUOUS
 62
     0
 10
 8.31571339527727E+0000
 20
 6.57191553885787E+0000
 11
 8.26897960244969E+0000
 21
 6.52518174603756E+0000
  0
LINE
  8
1
  6
CONTINUOUS
 62
     0
 10
 8.28961625024385E+0000
 20
 6.56647259801684E+0000
 11
 8.25133612459467E+0000
 21
 6.52819247236766E+0000
  0
LINE
  8
1
  6
CONTINUOUS
 62
     0
 10
 8.26351910521043E+0000
 20
 6.56102965716855E+0000
 11
 8.23369264675421E+0000
 21
 6.53120319870504E+0000
  0
LINE
  8
1
  6
CONTINUOUS
 62
     0
 10
 8.23742196017702E+0000
 20
 6.55558671632025E+0000
 11
 8.21604916889919E+0000
 21
 6.53421392503515E+0000
  0
LINE
  8
1
  6
CONTINUOUS
 62
     0
 10
 8.21132481514360E+0000
 20
 6.55014377547195E+0000
 11
 8.19840569104417E+0000
 21
 6.53722465136525E+0000
  0
LINE
  8
1
  6
CONTINUOUS
 62
     0
 10
 8.18522767012473E+0000
 20
 6.54470083463093E+0000
 11
 8.18076221318915E+0000
 21
 6.54023537769535E+0000
  0
LINE
  8
1
  6
CONTINUOUS
 62
     0
 10
 4.50698107803328E+0000
 20
 3.49200332446344E+0000
 11
 4.98520805830776E+0000
 21
 3.49200332446344E+0000
  0
TEXT
  8
1
 62
     0
 10
 3.73951172625675E+0000
 20
 7.54767645235552E+0000
 40
 1.18110236219991E-0001
  1
52
  7
STANDARD
 11
 3.73951172625675E+0000
 21
 7.66578668857255E+0000
 50
 0.00000000000000E+0000
 41
 3.33041753174712E-0001
  0
TEXT
  8
1
 62
     0
 10
 4.17657439446339E+0000
 20
 6.90506842727336E+0000
 40
 1.18110236219991E-0001
  1
30
  7
STANDARD
 11
 4.17657439446339E+0000
 21
 7.02317866349040E+0000
 50
 0.00000000000000E+0000
 41
 3.33041753174712E-0001
  0
TEXT
  8
1
 62
     0
 10
 8.24125720877782E+0000
 20
 7.21176771195314E+0000
 40
 1.18110236219991E-0001
  1
55
  7
STANDARD
 11
 8.24125720877782E+0000
 21
 7.32987794817018E+0000
 50
 0.00000000000000E+0000
 41
 3.33041753174712E-0001
  0
TEXT
  8
1
 62
     0
 10
 9.21736383443931E+0000
 20
 6.71520696530206E+0000
 40
 1.18110236219991E-0001
  1
10
  7
STANDARD
 11
 9.21736383443931E+0000
 21
 6.83331720151909E+0000
 50
 0.00000000000000E+0000
 41
 3.33041753174712E-0001
  0
TEXT
  8
1
 62
     0
 10
 7.97901960784657E+0000
 20
 6.58376441471773E+0000
 40
 1.18110236219991E-0001
  1
4.5
  7
STANDARD
 11
 7.97901960784657E+0000
 21
 6.70187465093477E+0000
 50
 0.00000000000000E+0000
 41
 2.77534794298845E-0001
  0
TEXT
  8
1
 62
     0
 10
 7.48368191721238E+0000
 20
 6.39390295276098E+0000
 40
 1.18110236219991E-0001
  1
8
  7
STANDARD
 11
 7.48368191721238E+0000
 21
 6.51201318897802E+0000
 50
 0.00000000000000E+0000
 41
 3.33041753174712E-0001
  0
TEXT
  8
1
 62
     0
 10
 4.78846212994540E+0000
 20
 7.85687461085217E-0001
 40
 1.18110236219991E-0001
  1
6
  7
STANDARD
 11
 4.78846212994540E+0000
 21
 9.03797697304981E-0001
 50
 0.00000000000000E+0000
 41
 3.33041753174712E-0001
  0
TEXT
  8
1
 62
     0
 10
 4.30769319492538E+0000
 20
 3.62150353646030E-0001
 40
 1.18110236219991E-0001
  1
26
  7
STANDARD
 11
 4.30769319492538E+0000
 21
 4.80260589865793E-0001
 50
 0.00000000000000E+0000
 41
 3.33041753174712E-0001
  0
TEXT
  8
1
 62
     0
 10
 8.15384467513650E+0000
 20
 4.30542687122943E+0000
 40
 1.18110236219991E-0001
  1
6
  7
STANDARD
 11
 8.15384467513650E+0000
 21
 4.42353710744646E+0000
 50
 0.00000000000000E+0000
 41
 3.33041753174712E-0001
  0
TEXT
  8
1
 62
     0
 10
 7.80419454056391E+0000
 20
 3.85268030809311E+0000
 40
 1.18110236219991E-0001
  1
20
  7
STANDARD
 11
 7.80419454056391E+0000
 21
 3.97079054431379E+0000
 50
 0.00000000000000E+0000
 41
 3.33041753174712E-0001
  0
TEXT
  8
1
 62
     0
 10
 6.28904395745485E+0000
 20
 5.16710581396183E+0000
 40
 1.18110236219991E-0001
  1
22
  7
STANDARD
 11
 6.28904395745485E+0000
 21
 5.28521605017886E+0000
 50
 9.00000000000000E+0001
 41
 3.33041753174712E-0001
  0
TEXT
  8
1
 62
     0
 10
 1.58333589644280E+0000
 20
 1.66197113166527E+0000
 40
 1.18110236219991E-0001
  1
30
  7
STANDARD
 11
 1.58333589644280E+0000
 21
 1.78008136788594E+0000
 50
 9.00000000000000E+0001
 41
 3.33041753174712E-0001
  0
TEXT
  8
1
 62
     0
 10
 5.34207484301442E+0000
 20
 1.93946096067884E+0000
 40
 1.18110236219991E-0001
  1
M6
  7
STANDARD
 11
 5.34207484301442E+0000
 21
 2.05757119689952E+0000
 50
 9.00000000000000E+0001
 41
 3.74671972321721E-0001
  0
TEXT
  8
1
 62
     0
 10
 5.67715622195828E+0000
 20
 5.18171054180129E+0000
 40
 1.18110236219991E-0001
  1
35
  7
STANDARD
 11
 5.67715622195828E+0000
 21
 5.29982077801833E+0000
 50
 9.00000000000000E+0001
 41
 3.33041753174712E-0001
  0
LINE
  8
1
  6
CONTINUOUS
 62
     0
 10
 4.98347209474741E+0000
 20
 3.49554588238971E+0000
 11
 4.98347209474741E+0000
 21
 4.06577309215209E+0000
  0
LINE
  8
1
  6
CONTINUOUS
 62
     0
 10
 4.98347209474741E+0000
 20
 4.06577309215209E+0000
 11
 4.51010527901235E+0000
 21
 4.06577309215209E+0000
  0
LINE
  8
1
  6
CONTINUOUS
 62
     0
 10
 4.51010527901235E+0000
 20
 4.06577309215209E+0000
 11
 4.51010527901235E+0000
 21
 3.48986828866327E+0000
  0
LINE
  8
1
  6
CONTINUOUS
 62
     0
 10
 4.97668036130926E+0000
 20
 4.06703592383565E+0000
 11
 4.97668036130926E+0000
 21
 4.06703592383565E+0000
  0
LINE
  8
1
  6
CONTINUOUS
 62
     0
 10
 4.97668036130926E+0000
 20
 4.06703592383565E+0000
 11
 4.81739103468135E+0000
 21
 4.09421744519932E+0000
  0
LINE
  8
1
  6
CONTINUOUS
 62
     0
 10
 4.81739103468135E+0000
 20
 4.09421744519932E+0000
 11
 4.81739103468135E+0000
 21
 4.03381380772771E+0000
  0
LINE
  8
1
  6
CONTINUOUS
 62
     0
 10
 4.81739103468135E+0000
 20
 4.03381380772771E+0000
 11
 4.97668036130926E+0000
 21
 4.06703592383565E+0000
  0
LINE
  8
1
  6
CONTINUOUS
 62
     0
 10
 4.81739103468135E+0000
 20
 4.09421744519932E+0000
 11
 4.81739103468135E+0000
 21
 4.03381380772771E+0000
  0
LINE
  8
1
  6
CONTINUOUS
 62
     0
 10
 4.82593596642982E+0000
 20
 4.03559597807180E+0000
 11
 4.81739103468135E+0000
 21
 4.04414090982027E+0000
  0
LINE
  8
1
  6
CONTINUOUS
 62
     0
 10
 4.84302582991950E+0000
 20
 4.03916031876724E+0000
 11
 4.81739103468135E+0000
 21
 4.06479511400539E+0000
  0
LINE
  8
1
  6
CONTINUOUS
 62
     0
 10
 4.86011569340917E+0000
 20
 4.04272465946269E+0000
 11
 4.81739103468135E+0000
 21
 4.08544931819051E+0000
  0
LINE
  8
1
  6
CONTINUOUS
 62
     0
 10
 4.87720555689884E+0000
 20
 4.04628900015814E+0000
 11
 4.83172270286013E+0000
 21
 4.09177185419685E+0000
  0
LINE
  8
1
  6
CONTINUOUS
 62
     0
 10
 4.89429542038852E+0000
 20
 4.04985334085359E+0000
 11
 4.85662656278146E+0000
 21
 4.08752219846065E+0000
  0
LINE
  8
1
  6
CONTINUOUS
 62
     0
 10
 4.91138528387819E+0000
 20
 4.05341768154904E+0000
 11
 4.88153042270278E+0000
 21
 4.08327254272444E+0000
  0
LINE
  8
1
  6
CONTINUOUS
 62
     0
 10
 4.92847514736786E+0000
 20
 4.05698202224448E+0000
 11
 4.90643428262410E+0000
 21
 4.07902288698824E+0000
  0
LINE
  8
1
  6
CONTINUOUS
 62
     0
 10
 4.94556501085754E+0000
 20
 4.06054636293993E+0000
 11
 4.93133814254543E+0000
 21
 4.07477323125204E+0000
  0
LINE
  8
1
  6
CONTINUOUS
 62
     0
 10
 4.96265487434721E+0000
 20
 4.06411070363538E+0000
 11
 4.95624200246675E+0000
 21
 4.07052357551584E+0000
  0
LINE
  8
1
  6
CONTINUOUS
 62
     0
 10
 4.96785862238175E+0000
 20
 4.06854128700070E+0000
 11
 4.96363178879255E+0000
 21
 4.06431445341150E+0000
  0
LINE
  8
1
  6
CONTINUOUS
 62
     0
 10
 4.95021514452674E+0000
 20
 4.07155201333080E+0000
 11
 4.93753464375914E+0000
 21
 4.05887151256320E+0000
  0
LINE
  8
1
  6
CONTINUOUS
 62
     0
 10
 4.93257166667172E+0000
 20
 4.07456273966091E+0000
 11
 4.91143749872572E+0000
 21
 4.05342857171490E+0000
  0
LINE
  8
1
  6
CONTINUOUS
 62
     0
 10
 4.91492818881670E+0000
 20
 4.07757346599101E+0000
 11
 4.88534035369230E+0000
 21
 4.04798563087388E+0000
  0
LINE
  8
1
  6
CONTINUOUS
 62
     0
 10
 4.89728471096896E+0000
 20
 4.08058419232839E+0000
 11
 4.85924320865888E+0000
 21
 4.04254269002558E+0000
  0
LINE
  8
1
  6
CONTINUOUS
 62
     0
 10
 4.87964123311394E+0000
 20
 4.08359491866577E+0000
 11
 4.83314606362546E+0000
 21
 4.03709974917729E+0000
  0
LINE
  8
1
  6
CONTINUOUS
 62
     0
 10
 4.86199775526620E+0000
 20
 4.08660564499587E+0000
 11
 4.81739103468135E+0000
 21
 4.04199892441102E+0000
  0
LINE
  8
1
  6
CONTINUOUS
 62
     0
 10
 4.84435427741118E+0000
 20
 4.08961637132597E+0000
 11
 4.81739103468135E+0000
 21
 4.06265312859614E+0000
  0
LINE
  8
1
  6
CONTINUOUS
 62
     0
 10
 4.82671079955617E+0000
 20
 4.09262709765608E+0000
 11
 4.81739103467407E+0000
 21
 4.08330733277398E+0000
  0
LINE
  8
1
  6
CONTINUOUS
 62
     0
 10
 4.50768373381288E+0000
 20
 4.06453463917569E+0000
 11
 4.50768373381288E+0000
 21
 4.06453463917569E+0000
  0
LINE
  8
1
  6
CONTINUOUS
 62
     0
 10
 4.50768373381288E+0000
 20
 4.06453463917569E+0000
 11
 4.66697306044807E+0000
 21
 4.03735311781202E+0000
  0
LINE
  8
1
  6
CONTINUOUS
 62
     0
 10
 4.66697306044807E+0000
 20
 4.03735311781202E+0000
 11
 4.66697306044807E+0000
 21
 4.09775675528363E+0000
  0
LINE
  8
1
  6
CONTINUOUS
 62
     0
 10
 4.66697306044807E+0000
 20
 4.09775675528363E+0000
 11
 4.50768373381288E+0000
 21
 4.06453463917569E+0000
  0
LINE
  8
1
  6
CONTINUOUS
 62
     0
 10
 4.66697306044807E+0000
 20
 4.03735311781202E+0000
 11
 4.66697306044807E+0000
 21
 4.09775675528363E+0000
  0
LINE
  8
1
  6
CONTINUOUS
 62
     0
 10
 4.52013566377718E+0000
 20
 4.06240981131123E+0000
 11
 4.51622866556136E+0000
 21
 4.06631680952705E+0000
  0
LINE
  8
1
  6
CONTINUOUS
 62
     0
 10
 4.54503952369851E+0000
 20
 4.05816015557502E+0000
 11
 4.53331852905103E+0000
 21
 4.06988115022250E+0000
  0
LINE
  8
1
  6
CONTINUOUS
 62
     0
 10
 4.56994338361983E+0000
 20
 4.05391049983882E+0000
 11
 4.55040839254070E+0000
 21
 4.07344549091795E+0000
  0
LINE
  8
1
  6
CONTINUOUS
 62
     0
 10
 4.59484724354115E+0000
 20
 4.04966084410989E+0000
 11
 4.56749825603765E+0000
 21
 4.07700983161340E+0000
  0
LINE
  8
1
  6
CONTINUOUS
 62
     0
 10
 4.61975110345520E+0000
 20
 4.04541118837369E+0000
 11
 4.58458811952733E+0000
 21
 4.08057417230157E+0000
  0
LINE
  8
1
  6
CONTINUOUS
 62
     0
 10
 4.64465496337652E+0000
 20
 4.04116153263749E+0000
 11
 4.60167798301700E+0000
 21
 4.08413851299701E+0000
  0
LINE
  8
1
  6
CONTINUOUS
 62
     0
 10
 4.66697306044807E+0000
 20
 4.03949763975106E+0000
 11
 4.61876784650667E+0000
 21
 4.08770285369246E+0000
  0
LINE
  8
1
  6
CONTINUOUS
 62
     0
 10
 4.66697306044807E+0000
 20
 4.06015184393618E+0000
 11
 4.63585770999634E+0000
 21
 4.09126719438791E+0000
  0
LINE
  8
1
  6
CONTINUOUS
 62
     0
 10
 4.66697306044807E+0000
 20
 4.08080604812130E+0000
 11
 4.65294757348602E+0000
 21
 4.09483153508336E+0000
  0
LINE
  8
1
  6
CONTINUOUS
 62
     0
 10
 4.66697306044080E+0000
 20
 4.04768021989730E+0000
 11
 4.65815132151329E+0000
 21
 4.03885848096979E+0000
  0
LINE
  8
1
  6
CONTINUOUS
 62
     0
 10
 4.66697306044080E+0000
 20
 4.06833442408242E+0000
 11
 4.64050784366555E+0000
 21
 4.04186920730717E+0000
  0
LINE
  8
1
  6
CONTINUOUS
 62
     0
 10
 4.66697306044080E+0000
 20
 4.08898862826754E+0000
 11
 4.62286436581053E+0000
 21
 4.04487993363728E+0000
  0
LINE
  8
1
  6
CONTINUOUS
 62
     0
 10
 4.65195468079037E+0000
 20
 4.09462445280224E+0000
 11
 4.60522088796279E+0000
 21
 4.04789065997466E+0000
  0
LINE
  8
1
  6
CONTINUOUS
 62
     0
 10
 4.62585753575695E+0000
 20
 4.08918151195394E+0000
 11
 4.58757741010777E+0000
 21
 4.05090138630476E+0000
  0
LINE
  8
1
  6
CONTINUOUS
 62
     0
 10
 4.59976039072353E+0000
 20
 4.08373857111292E+0000
 11
 4.56993393225275E+0000
 21
 4.05391211263486E+0000
  0
LINE
  8
1
  6
CONTINUOUS
 62
     0
 10
 4.57366324569011E+0000
 20
 4.07829563026462E+0000
 11
 4.55229045439773E+0000
 21
 4.05692283897224E+0000
  0
LINE
  8
1
  6
CONTINUOUS
 62
     0
 10
 4.54756610065670E+0000
 20
 4.07285268941632E+0000
 11
 4.53464697654272E+0000
 21
 4.05993356530234E+0000
  0
LINE
  8
1
  6
CONTINUOUS
 62
     0
 10
 4.52146895563055E+0000
 20
 4.06740974856802E+0000
 11
 4.51700349869498E+0000
 21
 4.06294429163245E+0000
  0
TEXT
  8
1
 62
     0
 10
 4.63320949017361E+0000
 20
 4.12591910463379E+0000
 40
 1.18110236219991E-0001
  1
12
  7
STANDARD
 11
 4.63320949017361E+0000
 21
 4.24402934085083E+0000
 50
 0.00000000000000E+0000
 41
 3.33041753174712E-0001
  0
LINE
  8
1
  6
CONTINUOUS
 62
     0
 10
 8.72584011401341E+0000
 20
 5.00735040136351E+0000
 11
 8.72584011401341E+0000
 21
 4.10223309489811E+0000
  0
LINE
  8
1
  6
CONTINUOUS
 62
     0
 10
 8.72584011401341E+0000
 20
 4.10223309489811E+0000
 11
 9.50873894656252E+0000
 21
 4.10223309489811E+0000
  0
LINE
  8
1
  6
CONTINUOUS
 62
     0
 10
 9.50873894656252E+0000
 20
 4.10223309489811E+0000
 11
 9.50873894656252E+0000
 21
 4.74484111998754E+0000
  0
LINE
  8
1
  6
CONTINUOUS
 62
     0
 10
 8.72148449048109E+0000
 20
 4.10243715177785E+0000
 11
 8.72148449048109E+0000
 21
 4.10243715177785E+0000
  0
LINE
  8
1
  6
CONTINUOUS
 62
     0
 10
 8.72148449048109E+0000
 20
 4.10243715177785E+0000
 11
 8.88077381711628E+0000
 21
 4.07525563041418E+0000
  0
LINE
  8
1
  6
CONTINUOUS
 62
     0
 10
 8.88077381711628E+0000
 20
 4.07525563041418E+0000
 11
 8.88077381711628E+0000
 21
 4.13565926788579E+0000
  0
LINE
  8
1
  6
CONTINUOUS
 62
     0
 10
 8.88077381711628E+0000
 20
 4.13565926788579E+0000
 11
 8.72148449048109E+0000
 21
 4.10243715177785E+0000
  0
LINE
  8
1
  6
CONTINUOUS
 62
     0
 10
 8.88077381711628E+0000
 20
 4.07525563041418E+0000
 11
 8.88077381711628E+0000
 21
 4.13565926788579E+0000
  0
LINE
  8
1
  6
CONTINUOUS
 62
     0
 10
 8.73393642045266E+0000
 20
 4.10031232390611E+0000
 11
 8.73002942223684E+0000
 21
 4.10421932212921E+0000
  0
LINE
  8
1
  6
CONTINUOUS
 62
     0
 10
 8.75884028038126E+0000
 20
 4.09606266816991E+0000
 11
 8.74711928573379E+0000
 21
 4.10778366281738E+0000
  0
LINE
  8
1
  6
CONTINUOUS
 62
     0
 10
 8.78374414029531E+0000
 20
 4.09181301244098E+0000
 11
 8.76420914921619E+0000
 21
 4.11134800351283E+0000
  0
LINE
  8
1
  6
CONTINUOUS
 62
     0
 10
 8.80864800020936E+0000
 20
 4.08756335670478E+0000
 11
 8.78129901271313E+0000
 21
 4.11491234420828E+0000
  0
LINE
  8
1
  6
CONTINUOUS
 62
     0
 10
 8.83355186013796E+0000
 20
 4.08331370096857E+0000
 11
 8.79838887619553E+0000
 21
 4.11847668490373E+0000
  0
LINE
  8
1
  6
CONTINUOUS
 62
     0
 10
 8.85845572005201E+0000
 20
 4.07906404523965E+0000
 11
 8.81547873969248E+0000
 21
 4.12204102559917E+0000
  0
LINE
  8
1
  6
CONTINUOUS
 62
     0
 10
 8.88077381711628E+0000
 20
 4.07740015235322E+0000
 11
 8.83256860317488E+0000
 21
 4.12560536629462E+0000
  0
LINE
  8
1
  6
CONTINUOUS
 62
     0
 10
 8.88077381711628E+0000
 20
 4.09805435653834E+0000
 11
 8.84965846667183E+0000
 21
 4.12916970699007E+0000
  0
LINE
  8
1
  6
CONTINUOUS
 62
     0
 10
 8.88077381711628E+0000
 20
 4.11870856072346E+0000
 11
 8.86674833015422E+0000
 21
 4.13273404768552E+0000
  0
LINE
  8
1
  6
CONTINUOUS
 62
     0
 10
 8.88077381710173E+0000
 20
 4.08558273249946E+0000
 11
 8.87195207818877E+0000
 21
 4.07676099358650E+0000
  0
LINE
  8
1
  6
CONTINUOUS
 62
     0
 10
 8.88077381710173E+0000
 20
 4.10623693669186E+0000
 11
 8.85430860033375E+0000
 21
 4.07977171991661E+0000
  0
LINE
  8
1
  6
CONTINUOUS
 62
     0
 10
 8.88077381710173E+0000
 20
 4.12689114087698E+0000
 11
 8.83666512247873E+0000
 21
 4.08278244624671E+0000
  0
LINE
  8
1
  6
CONTINUOUS
 62
     0
 10
 8.86575543746585E+0000
 20
 4.13252696541167E+0000
 11
 8.81902164462372E+0000
 21
 4.08579317258409E+0000
  0
LINE
  8
1
  6
CONTINUOUS
 62
     0
 10
 8.83965829241788E+0000
 20
 4.12708402455610E+0000
 11
 8.80137816678325E+0000
 21
 4.08880389891419E+0000
  0
LINE
  8
1
  6
CONTINUOUS
 62
     0
 10
 8.81356114739901E+0000
 20
 4.12164108371508E+0000
 11
 8.78373468892823E+0000
 21
 4.09181462524430E+0000
  0
LINE
  8
1
  6
CONTINUOUS
 62
     0
 10
 8.78746400236560E+0000
 20
 4.11619814287405E+0000
 11
 8.76609121107322E+0000
 21
 4.09482535157440E+0000
  0
LINE
  8
1
  6
CONTINUOUS
 62
     0
 10
 8.76136685731763E+0000
 20
 4.11075520201848E+0000
 11
 8.74844773321820E+0000
 21
 4.09783607791178E+0000
  0
LINE
  8
1
  6
CONTINUOUS
 62
     0
 10
 8.73526971229876E+0000
 20
 4.10531226117018E+0000
 11
 8.73080425536318E+0000
 21
 4.10084680424188E+0000
  0
LINE
  8
1
  6
CONTINUOUS
 62
     0
 10
 9.51112327435112E+0000
 20
 4.10262770729605E+0000
 11
 9.51112327435112E+0000
 21
 4.10262770729605E+0000
  0
LINE
  8
1
  6
CONTINUOUS
 62
     0
 10
 9.51112327435112E+0000
 20
 4.10262770729605E+0000
 11
 9.35183394771593E+0000
 21
 4.12980922865972E+0000
  0
LINE
  8
1
  6
CONTINUOUS
 62
     0
 10
 9.35183394771593E+0000
 20
 4.12980922865972E+0000
 11
 9.35183394771593E+0000
 21
 4.06940559118812E+0000
  0
LINE
  8
1
  6
CONTINUOUS
 62
     0
 10
 9.35183394771593E+0000
 20
 4.06940559118812E+0000
 11
 9.51112327435112E+0000
 21
 4.10262770729605E+0000
  0
LINE
  8
1
  6
CONTINUOUS
 62
     0
 10
 9.35183394771593E+0000
 20
 4.12980922865972E+0000
 11
 9.35183394771593E+0000
 21
 4.06940559118812E+0000
  0
LINE
  8
1
  6
CONTINUOUS
 62
     0
 10
 9.36037887947168E+0000
 20
 4.07118776153948E+0000
 11
 9.35183394771593E+0000
 21
 4.07973269328795E+0000
  0
LINE
  8
1
  6
CONTINUOUS
 62
     0
 10
 9.37746874295408E+0000
 20
 4.07475210222765E+0000
 11
 9.35183394771593E+0000
 21
 4.10038689747307E+0000
  0
LINE
  8
1
  6
CONTINUOUS
 62
     0
 10
 9.39455860645103E+0000
 20
 4.07831644292310E+0000
 11
 9.35183394771593E+0000
 21
 4.12104110165092E+0000
  0
LINE
  8
1
  6
CONTINUOUS
 62
     0
 10
 9.41164846994798E+0000
 20
 4.08188078361854E+0000
 11
 9.36616561590927E+0000
 21
 4.12736363765725E+0000
  0
LINE
  8
1
  6
CONTINUOUS
 62
     0
 10
 9.42873833343037E+0000
 20
 4.08544512431399E+0000
 11
 9.39106947582331E+0000
 21
 4.12311398192105E+0000
  0
LINE
  8
1
  6
CONTINUOUS
 62
     0
 10
 9.44582819692732E+0000
 20
 4.08900946500944E+0000
 11
 9.41597333575191E+0000
 21
 4.11886432618485E+0000
  0
LINE
  8
1
  6
CONTINUOUS
 62
     0
 10
 9.46291806040972E+0000
 20
 4.09257380570489E+0000
 11
 9.44087719566596E+0000
 21
 4.11461467044865E+0000
  0
LINE
  8
1
  6
CONTINUOUS
 62
     0
 10
 9.48000792390667E+0000
 20
 4.09613814640034E+0000
 11
 9.46578105559456E+0000
 21
 4.11036501471244E+0000
  0
LINE
  8
1
  6
CONTINUOUS
 62
     0
 10
 9.49709778738907E+0000
 20
 4.09970248709578E+0000
 11
 9.49068491550861E+0000
 21
 4.10611535897624E+0000
  0
LINE
  8
1
  6
CONTINUOUS
 62
     0
 10
 9.50230153542361E+0000
 20
 4.10413307046110E+0000
 11
 9.49807470182714E+0000
 21
 4.09990623686463E+0000
  0
LINE
  8
1
  6
CONTINUOUS
 62
     0
 10
 9.48465805756859E+0000
 20
 4.10714379679848E+0000
 11
 9.47197755679372E+0000
 21
 4.09446329602360E+0000
  0
LINE
  8
1
  6
CONTINUOUS
 62
     0
 10
 9.46701457971358E+0000
 20
 4.11015452312859E+0000
 11
 9.44588041177485E+0000
 21
 4.08902035518258E+0000
  0
LINE
  8
1
  6
CONTINUOUS
 62
     0
 10
 9.44937110185856E+0000
 20
 4.11316524945869E+0000
 11
 9.41978326672688E+0000
 21
 4.08357741432701E+0000
  0
LINE
  8
1
  6
CONTINUOUS
 62
     0
 10
 9.43172762400354E+0000
 20
 4.11617597578879E+0000
 11
 9.39368612169346E+0000
 21
 4.07813447348599E+0000
  0
LINE
  8
1
  6
CONTINUOUS
 62
     0
 10
 9.41408414614853E+0000
 20
 4.11918670212617E+0000
 11
 9.36758897667460E+0000
 21
 4.07269153263769E+0000
  0
LINE
  8
1
  6
CONTINUOUS
 62
     0
 10
 9.39644066830806E+0000
 20
 4.12219742845627E+0000
 11
 9.35183394770138E+0000
 21
 4.07759070785687E+0000
  0
LINE
  8
1
  6
CONTINUOUS
 62
     0
 10
 9.37879719045304E+0000
 20
 4.12520815478638E+0000
 11
 9.35183394770138E+0000
 21
 4.09824491204199E+0000
  0
LINE
  8
1
  6
CONTINUOUS
 62
     0
 10
 9.36115371259802E+0000
 20
 4.12821888111648E+0000
 11
 9.35183394770138E+0000
 21
 4.11889911622711E+0000
  0
TEXT
  8
1
 62
     0
 10
 8.98321928964288E+0000
 20
 4.10274887833657E+0000
 40
 1.18110236219991E-0001
  1
20
  7
STANDARD
 11
 8.98321928964288E+0000
 21
 4.22085911455360E+0000
 50
 0.00000000000000E+0000
 41
 3.33041753174712E-0001
  0
LINE
  8
1
  6
CONTINUOUS
 62
     0
 10
 4.80839054998796E+0000
 20
 3.46033588446880E+0000
 11
 4.80839054998796E+0000
 21
 3.75738596028168E+0000
  0
LINE
  8
1
  6
CONTINUOUS
 62
     0
 10
 4.80839054998796E+0000
 20
 3.75738596028168E+0000
 11
 4.98499644589901E+0000
 21
 3.75738596028168E+0000
  0
LINE
  8
1
  6
CONTINUOUS
 62
     0
 10
 4.80497541063960E+0000
 20
 3.75556455653350E+0000
 11
 4.80497541063960E+0000
 21
 3.75556455653350E+0000
  0
LINE
  8
1
  6
CONTINUOUS
 62
     0
 10
 4.80497541063960E+0000
 20
 3.75556455653350E+0000
 11
 4.64568608401169E+0000
 21
 3.78274607789717E+0000
  0
LINE
  8
1
  6
CONTINUOUS
 62
     0
 10
 4.64568608401169E+0000
 20
 3.78274607789717E+0000
 11
 4.64568608401169E+0000
 21
 3.72234244042556E+0000
  0
LINE
  8
1
  6
CONTINUOUS
 62
     0
 10
 4.64568608401169E+0000
 20
 3.72234244042556E+0000
 11
 4.80497541063960E+0000
 21
 3.75556455653350E+0000
  0
LINE
  8
1
  6
CONTINUOUS
 62
     0
 10
 4.64568608401169E+0000
 20
 3.78274607789717E+0000
 11
 4.64568608401169E+0000
 21
 3.72234244042556E+0000
  0
LINE
  8
1
  6
CONTINUOUS
 62
     0
 10
 4.65423101576016E+0000
 20
 3.72412461077329E+0000
 11
 4.64568608401169E+0000
 21
 3.73266954251812E+0000
  0
LINE
  8
1
  6
CONTINUOUS
 62
     0
 10
 4.67132087924983E+0000
 20
 3.72768895146874E+0000
 11
 4.64568608401169E+0000
 21
 3.75332374670324E+0000
  0
LINE
  8
1
  6
CONTINUOUS
 62
     0
 10
 4.68841074273951E+0000
 20
 3.73125329216418E+0000
 11
 4.64568608401169E+0000
 21
 3.77397795088837E+0000
  0
LINE
  8
1
  6
CONTINUOUS
 62
     0
 10
 4.70550060622918E+0000
 20
 3.73481763285963E+0000
 11
 4.66001775219775E+0000
 21
 3.78030048689470E+0000
  0
LINE
  8
1
  6
CONTINUOUS
 62
     0
 10
 4.72259046971885E+0000
 20
 3.73838197355508E+0000
 11
 4.68492161211907E+0000
 21
 3.77605083115850E+0000
  0
LINE
  8
1
  6
CONTINUOUS
 62
     0
 10
 4.73968033320853E+0000
 20
 3.74194631424689E+0000
 11
 4.70982547203312E+0000
 21
 3.77180117542230E+0000
  0
LINE
  8
1
  6
CONTINUOUS
 62
     0
 10
 4.75677019669820E+0000
 20
 3.74551065494234E+0000
 11
 4.73472933196172E+0000
 21
 3.76755151968609E+0000
  0
LINE
  8
1
  6
CONTINUOUS
 62
     0
 10
 4.77386006019515E+0000
 20
 3.74907499563778E+0000
 11
 4.75963319187576E+0000
 21
 3.76330186394989E+0000
  0
LINE
  8
1
  6
CONTINUOUS
 62
     0
 10
 4.79094992368482E+0000
 20
 3.75263933633323E+0000
 11
 4.78453705179709E+0000
 21
 3.75905220821369E+0000
  0
LINE
  8
1
  6
CONTINUOUS
 62
     0
 10
 4.79615367171209E+0000
 20
 3.75706991969855E+0000
 11
 4.79192683812289E+0000
 21
 3.75284308610935E+0000
  0
LINE
  8
1
  6
CONTINUOUS
 62
     0
 10
 4.77851019385707E+0000
 20
 3.76008064602865E+0000
 11
 4.76582969308947E+0000
 21
 3.74740014526105E+0000
  0
LINE
  8
1
  6
CONTINUOUS
 62
     0
 10
 4.76086671600206E+0000
 20
 3.76309137236240E+0000
 11
 4.73973254805605E+0000
 21
 3.74195720441276E+0000
  0
LINE
  8
1
  6
CONTINUOUS
 62
     0
 10
 4.74322323814704E+0000
 20
 3.76610209869250E+0000
 11
 4.71363540302991E+0000
 21
 3.73651426357173E+0000
  0
LINE
  8
1
  6
CONTINUOUS
 62
     0
 10
 4.72557976029930E+0000
 20
 3.76911282502624E+0000
 11
 4.68753825799649E+0000
 21
 3.73107132272344E+0000
  0
LINE
  8
1
  6
CONTINUOUS
 62
     0
 10
 4.70793628245156E+0000
 20
 3.77212355136362E+0000
 11
 4.66144111295580E+0000
 21
 3.72562838187514E+0000
  0
LINE
  8
1
  6
CONTINUOUS
 62
     0
 10
 4.69029280459654E+0000
 20
 3.77513427769372E+0000
 11
 4.64568608401169E+0000
 21
 3.73052755710887E+0000
  0
LINE
  8
1
  6
CONTINUOUS
 62
     0
 10
 4.67264932674152E+0000
 20
 3.77814500402746E+0000
 11
 4.64568608401169E+0000
 21
 3.75118176129399E+0000
  0
LINE
  8
1
  6
CONTINUOUS
 62
     0
 10
 4.65500584888650E+0000
 20
 3.78115573035757E+0000
 11
 4.64568608400441E+0000
 21
 3.77183596547547E+0000
  0
LINE
  8
1
  6
CONTINUOUS
 62
     0
 10
 4.98600466781500E+0000
 20
 3.75716157933857E+0000
 11
 4.98600466781500E+0000
 21
 3.75716157933857E+0000
  0
LINE
  8
1
  6
CONTINUOUS
 62
     0
 10
 4.98600466781500E+0000
 20
 3.75716157933857E+0000
 11
 5.14529399445018E+0000
 21
 3.72998005797490E+0000
  0
LINE
  8
1
  6
CONTINUOUS
 62
     0
 10
 5.14529399445018E+0000
 20
 3.72998005797490E+0000
 11
 5.14529399445018E+0000
 21
 3.79038369544651E+0000
  0
LINE
  8
1
  6
CONTINUOUS
 62
     0
 10
 5.14529399445018E+0000
 20
 3.79038369544651E+0000
 11
 4.98600466781500E+0000
 21
 3.75716157933857E+0000
  0
LINE
  8
1
  6
CONTINUOUS
 62
     0
 10
 5.14529399445018E+0000
 20
 3.72998005797490E+0000
 11
 5.14529399445018E+0000
 21
 3.79038369544651E+0000
  0
LINE
  8
1
  6
CONTINUOUS
 62
     0
 10
 4.99845659777202E+0000
 20
 3.75503675147047E+0000
 11
 4.99454959955619E+0000
 21
 3.75894374968630E+0000
  0
LINE
  8
1
  6
CONTINUOUS
 62
     0
 10
 5.02336045769334E+0000
 20
 3.75078709573791E+0000
 11
 5.01163946305314E+0000
 21
 3.76250809038174E+0000
  0
LINE
  8
1
  6
CONTINUOUS
 62
     0
 10
 5.04826431761467E+0000
 20
 3.74653744000170E+0000
 11
 5.02872932654282E+0000
 21
 3.76607243107355E+0000
  0
LINE
  8
1
  6
CONTINUOUS
 62
     0
 10
 5.07316817752871E+0000
 20
 3.74228778426914E+0000
 11
 5.04581919003249E+0000
 21
 3.76963677176900E+0000
  0
LINE
  8
1
  6
CONTINUOUS
 62
     0
 10
 5.09807203745004E+0000
 20
 3.73803812853293E+0000
 11
 5.06290905352216E+0000
 21
 3.77320111246445E+0000
  0
LINE
  8
1
  6
CONTINUOUS
 62
     0
 10
 5.12297589737136E+0000
 20
 3.73378847280037E+0000
 11
 5.07999891701184E+0000
 21
 3.77676545315990E+0000
  0
LINE
  8
1
  6
CONTINUOUS
 62
     0
 10
 5.14529399445746E+0000
 20
 3.73212457990303E+0000
 11
 5.09708878050151E+0000
 21
 3.78032979385534E+0000
  0
LINE
  8
1
  6
CONTINUOUS
 62
     0
 10
 5.14529399445018E+0000
 20
 3.75277878408815E+0000
 11
 5.11417864399118E+0000
 21
 3.78389413455079E+0000
  0
LINE
  8
1
  6
CONTINUOUS
 62
     0
 10
 5.14529399445018E+0000
 20
 3.77343298827327E+0000
 11
 5.13126850748085E+0000
 21
 3.78745847524260E+0000
  0
LINE
  8
1
  6
CONTINUOUS
 62
     0
 10
 5.14529399444291E+0000
 20
 3.74030716006382E+0000
 11
 5.13647225551540E+0000
 21
 3.73148542113631E+0000
  0
LINE
  8
1
  6
CONTINUOUS
 62
     0
 10
 5.14529399444291E+0000
 20
 3.76096136424894E+0000
 11
 5.11882877766766E+0000
 21
 3.73449614747005E+0000
  0
LINE
  8
1
  6
CONTINUOUS
 62
     0
 10
 5.14529399444291E+0000
 20
 3.78161556843406E+0000
 11
 5.10118529981264E+0000
 21
 3.73750687380016E+0000
  0
LINE
  8
1
  6
CONTINUOUS
 62
     0
 10
 5.13027561479248E+0000
 20
 3.78725139296512E+0000
 11
 5.08354182196490E+0000
 21
 3.74051760013754E+0000
  0
LINE
  8
1
  6
CONTINUOUS
 62
     0
 10
 5.10417846975906E+0000
 20
 3.78180845211682E+0000
 11
 5.06589834410988E+0000
 21
 3.74352832646764E+0000
  0
LINE
  8
1
  6
CONTINUOUS
 62
     0
 10
 5.07808132472564E+0000
 20
 3.77636551127580E+0000
 11
 5.04825486625487E+0000
 21
 3.74653905280138E+0000
  0
LINE
  8
1
  6
CONTINUOUS
 62
     0
 10
 5.05198417969223E+0000
 20
 3.77092257042750E+0000
 11
 5.03061138839985E+0000
 21
 3.74954977913148E+0000
  0
LINE
  8
1
  6
CONTINUOUS
 62
     0
 10
 5.02588703465881E+0000
 20
 3.76547962957920E+0000
 11
 5.01296791054483E+0000
 21
 3.75256050546523E+0000
  0
LINE
  8
1
  6
CONTINUOUS
 62
     0
 10
 4.99978988963267E+0000
 20
 3.76003668873454E+0000
 11
 4.99532443269709E+0000
 21
 3.75557123179533E+0000
  0
TEXT
  8
1
 62
     0
 10
 4.79693864278670E+0000
 20
 3.75812664053228E+0000
 40
 1.18110236219991E-0001
  1
4,5
  7
STANDARD
 11
 4.79693864278670E+0000
 21
 3.87623687675296E+0000
 50
 0.00000000000000E+0000
 41
 2.77534794312487E-0001
  0
TEXT
  8
1
 62
     0
 10
 1.00178938081663E+0001
 20
 1.17489851967730E+0000
 40
 1.96850393699833E-0001
  1
Kasette 2
  7
STANDARD
 11
 1.00178938081663E+0001
 21
 1.37174891337781E+0000
 50
 0.00000000000000E+0000
 41
 1.72071572473669E-0001
  0
TEXT
  8
1
 62
     0
 10
 9.20025173253089E+0000
 20
 2.96562354981688E-0001
 40
 1.18110236219991E-0001
  1
(c)
  7
STANDARD
 11
 9.20025173253089E+0000
 21
 4.14672591201452E-0001
 50
 0.00000000000000E+0000
 41
 2.22027835450035E-0001
0
ENDSEC
0
EOF
