0
SECTION
  2
HEADER
  9
$LTSCALE
 40
     10
  9
$LIMMIN
 10
     0.0
 20
     0.0
  9
$LIMMAX
 10
      11.5
 20
       8.0
  9
$EXTMIN
 10
     0.0
 20
     0.0
  9
$EXTMAX
 10
      11.5
 20
       8.0
   9
$CLAYER
   8
1
   9
$CECOLOR
  62
     7
   9
$CELTYPE
   6
CONTINUOUS
  0
ENDSEC
  0
SECTION
  2
TABLES
  0
TABLE
  2
LTYPE
 70
    10
  0
LTYPE
  2
CONTINUOUS
 70
    64
  3
Solid line
 72
    65
 73
     0
 40
0.0
  0
LTYPE
  2
DASHED
 70
     0
  3
__ __ __ __ __ __ __ __ __ __ __ __ __ __ __
 72
    65
 73
     2
 40
0.75
 49
0.5
 49
-0.25
  0
LTYPE
  2
HIDDEN
 70
     0
  3
_ _ _ _ _ _ _ _ _ _ _ _ _ _ _ _ _ _ _ _ _ _
 72
    65
 73
     2
 40
0.375
 49
0.25
 49
-0.125
  0
LTYPE
  2
CENTER
 70
     0
  3
____ _ ____ _ ____ _ ____ _ ____ _ ____ _ __
 72
    65
 73
     4
 40
2.0
 49
1.25
 49
-0.25
 49
0.25
 49
-0.25
  0
LTYPE
  2
PHANTOM
 70
     0
  3
_____ _ _ _____ _ _ _____ _ _ _____ _ _ ____
 72
    65
 73
     6
 40
2.5
 49
1.25
 49
-0.25
 49
0.25
 49
-0.25
 49
0.25
 49
-0.25
  0
LTYPE
  2
DOT
 70
     0
  3
............................................
 72
    65
 73
     2
 40
0.25
 49
0.0
 49
-0.25
  0
LTYPE
  2
DASHDOT
 70
     0
  3
__ . __ . __ . __ . __ . __ . __ . __ . __ .
 72
    65
 73
     4
 40
1.0
 49
0.5
 49
-0.25
 49
0.0
 49
-0.25
  0
LTYPE
  2
BORDER
 70
     0
  3
__ __ . __ __ . __ __ . __ __ . __ __ . __ _
 72
    65
 73
     6
 40
1.75
 49
0.5
 49
-0.25
 49
0.5
 49
-0.25
 49
0.0
 49
-0.25
  0
LTYPE
  2
DIVIDE
 70
     0
  3
__ . . __ . . __ . . __ . . __ . . __ . . __
 72
    65
 73
     6
 40
1.25
 49
0.5
 49
-0.25
 49
0.0
 49
-0.25
 49
0.0
 49
-0.25
  0
LTYPE
  2
DIVIDE2
 70
     0
  3
close
 72
    65
 73
     2
 40
0.1
 49
0.05
 49
-0.05
  0
ENDTAB
0
TABLE
  2
LAYER
 70
   256
  0
LAYER
  2
1
 70
     0
  6
CONTINUOUS
 62
1
  0
ENDTAB
  0
TABLE
  2
STYLE
 70
     8
  0
STYLE
  2
TXT
 70
0
 40
0.0
 41
1.0
 50
0.0
 71
0
 42
1.0
  3
TXT
  4

  0
STYLE
  2
COMPLEX
 70
0
 40
0.0
 41
1.0
 50
0.0
 71
0
 42
1.0
  3
COMPLEX
  4

  0
STYLE
  2
ITALIC
 70
0
 40
0.0
 41
1.0
 50
0.0
 71
0
 42
1.0
  3
ITALIC
  4

  0
STYLE
  2
SIMPLEX
70
0
 40
0.0
 41
1.0
 50
0.0
 71
0
 42
1.0
  3
SIMPLEX
  4

  0
STYLE
  2
MONOTXT
 70
0
 40
0.0
 41
1.0
 50
0.0
 71
0
 42
1.0
  3
MONOTXT
  4

  0
STYLE
  2
SCRIPTC
 70
0
 40
0.0
 41
1.0
 50
0.0
 71
0
 42
1.0
  3
SCRIPTC
  4

  0
STYLE
  2
GOTHICE
 70
0
 40
0.0
 41
1.0
 50
0.0
 71
0
 42
1.0
  3
GOTHICE
  4

  0
ENDTAB
  0
TABLE
  2
VIEW
 70
     0
  0
ENDTAB
  0
ENDSEC
  0
SECTION
  2
ENTITIES
  0
LINE
  8
1
  6
CONTINUOUS
 62
     0
 10
 2.69248687867730E+0000
 20
 6.17170731706574E+0000
 11
 2.69248687867730E+0000
 21
 5.90536585365771E+0000
  0
LINE
  8
1
  6
CONTINUOUS
 62
     0
 10
 2.56936554493223E+0000
 20
 6.04878048779938E+0000
 11
 2.85664865700892E+0000
 21
 6.04878048779938E+0000
  0
CIRCLE
  8
1
  6
CONTINUOUS
 62
     0
 10
 2.69298737191275E+0000
 20
 6.04493277810252E+0000
 40
 1.57480314959685E+0000
  0
CIRCLE
  8
1
  6
CONTINUOUS
 62
     0
 10
 2.69298737190911E+0000
 20
 6.04493277810252E+0000
 40
 1.67322834648076E-0001
  0
LINE
  8
1
  6
CENTER
 62
     0
 10
 9.89984094376268E-0001
 20
 6.04744109517924E+0000
 11
 4.40243259909039E+0000
 21
 6.04744109517924E+0000
  0
LINE
  8
1
  6
CENTER
 62
     0
 10
 2.69114536675261E+0000
 20
 7.73580494580528E+0000
 11
 2.69114536675261E+0000
 21
 4.35907724455319E+0000
  0
LINE
  8
1
  6
CENTER
 62
     0
 10
 9.89984094376268E-0001
 20
 2.50305085126456E+0000
 11
 4.40243259909039E+0000
 21
 2.50305085126456E+0000
  0
LINE
  8
1
  6
CENTER
 62
     0
 10
 2.69114536675261E+0000
 20
 4.19141470189061E+0000
 11
 2.69114536675261E+0000
 21
 8.14687000638514E-0001
  0
LINE
  8
1
  6
CENTER
 62
     0
 10
 7.98737989555957E+0000
 20
 6.04744109517924E+0000
 11
 1.13998284002882E+0001
 21
 6.04744109517924E+0000
  0
LINE
  8
1
  6
CENTER
 62
     0
 10
 9.68854116795410E+0000
 20
 7.73580494580528E+0000
 11
 9.68854116795410E+0000
 21
 4.35907724455319E+0000
  0
LINE
  8
1
  6
CENTER
 62
     0
 10
 7.98737989555957E+0000
 20
 2.50305085126456E+0000
 11
 1.13998284002882E+0001
 21
 2.50305085126456E+0000
  0
LINE
  8
1
  6
CENTER
 62
     0
 10
 9.68854116795410E+0000
 20
 4.19141470189061E+0000
 11
 9.68854116795410E+0000
 21
 8.14687000638514E-0001
  0
LINE
  8
1
  6
CENTER
 62
     0
 10
 4.49894210611819E+0000
 20
 6.04744109517924E+0000
 11
 7.91139061083231E+0000
 21
 6.04744109517924E+0000
  0
LINE
  8
1
  6
CENTER
 62
     0
 10
 6.20010337849089E+0000
 20
 7.73580494580528E+0000
 11
 6.20010337849089E+0000
 21
 4.35907724455319E+0000
  0
LINE
  8
1
  6
CENTER
 62
     0
 10
 4.49894210611819E+0000
 20
 2.50305085126456E+0000
 11
 7.91139061083231E+0000
 21
 2.50305085126456E+0000
  0
LINE
  8
1
  6
CENTER
 62
     0
 10
 6.20010337849089E+0000
 20
 4.19141470189061E+0000
 11
 6.20010337849089E+0000
 21
 8.14687000638514E-0001
  0
TEXT
  8
1
 62
     0
 10
 2.50580426051329E-0001
 20
 1.80337238334505E+0000
 40
 3.93700787399666E-0001
  1
Schablonen für Membrane
  7
STANDARD
 11
 2.50580426051329E-0001
 21
 2.19707317074426E+0000
 50
 9.00000000000000E+0001
 41
 2.88352207096523E-0001
  0
CIRCLE
  8
1
  6
DASHDOT
 62
     0
 10
 2.69402163867926E+0000
 20
 6.04683967751043E+0000
 40
 1.37648097381498E+0000
  0
CIRCLE
  8
1
  6
CONTINUOUS
 62
     0
 10
 2.69402163867562E+0000
 20
 7.42332065140363E+0000
 40
 8.76440825486497E-0002
  0
CIRCLE
  8
1
  6
CONTINUOUS
 62
     0
 10
 1.50195414747031E+0000
 20
 6.73508016447886E+0000
 40
 8.76440825486497E-0002
  0
CIRCLE
  8
1
  6
CONTINUOUS
 62
     0
 10
 1.50195414746486E+0000
 20
 5.35859919060022E+0000
 40
 8.76440825486497E-0002
  0
CIRCLE
  8
1
  6
CONTINUOUS
 62
     0
 10
 2.69402163866835E+0000
 20
 4.67035870369000E+0000
 40
 8.76440825486497E-0002
  0
CIRCLE
  8
1
  6
CONTINUOUS
 62
     0
 10
 3.88608912986456E+0000
 20
 5.35859919060022E+0000
 40
 8.76440825486497E-0002
  0
CIRCLE
  8
1
  6
CONTINUOUS
 62
     0
 10
 3.88608912986820E+0000
 20
 6.73508016447158E+0000
 40
 8.76440825486497E-0002
  0
CIRCLE
  8
1
  6
CONTINUOUS
 62
     0
 10
 2.69402163866835E+0000
 20
 7.42332065142546E+0000
 40
 8.76440825486497E-0002
  0
LINE
  8
1
  6
CONTINUOUS
 62
     0
 10
 6.19825018061965E+0000
 20
 6.17170731706574E+0000
 11
 6.19825018061965E+0000
 21
 5.90536585365771E+0000
  0
LINE
  8
1
  6
CONTINUOUS
 62
     0
 10
 6.07512884687458E+0000
 20
 6.04878048779938E+0000
 11
 6.36241195895127E+0000
 21
 6.04878048779938E+0000
  0
CIRCLE
  8
1
  6
CONTINUOUS
 62
     0
 10
 6.19875067385874E+0000
 20
 6.04493277810252E+0000
 40
 1.57480314959685E+0000
  0
CIRCLE
  8
1
  6
CONTINUOUS
 62
     0
 10
 6.19875067385146E+0000
 20
 6.04493277810252E+0000
 40
 1.67322834648076E-0001
  0
CIRCLE
  8
1
  6
DASHDOT
 62
     0
 10
 6.19978494062525E+0000
 20
 6.04683967751043E+0000
 40
 1.37648097381498E+0000
  0
CIRCLE
  8
1
  6
CONTINUOUS
 62
     0
 10
 6.19978494066891E+0000
 20
 7.42332065143273E+0000
 40
 8.76440825486497E-0002
  0
CIRCLE
  8
1
  6
CONTINUOUS
 62
     0
 10
 5.00771744943631E+0000
 20
 6.73508016449341E+0000
 40
 8.76440825486497E-0002
  0
CIRCLE
  8
1
  6
CONTINUOUS
 62
     0
 10
 5.00771744942904E+0000
 20
 5.35859919061477E+0000
 40
 8.76440825486497E-0002
  0
CIRCLE
  8
1
  6
CONTINUOUS
 62
     0
 10
 6.19978494066163E+0000
 20
 4.67035870371910E+0000
 40
 8.76440825486497E-0002
  0
CIRCLE
  8
1
  6
CONTINUOUS
 62
     0
 10
 7.39185243182874E+0000
 20
 5.35859919061477E+0000
 40
 8.76440825486497E-0002
  0
CIRCLE
  8
1
  6
CONTINUOUS
 62
     0
 10
 7.39185243183601E+0000
 20
 6.73508016448613E+0000
 40
 8.76440825486497E-0002
  0
CIRCLE
  8
1
  6
CONTINUOUS
 62
     0
 10
 6.19978494066163E+0000
 20
 7.42332065145456E+0000
 40
 8.76440825486497E-0002
  0
LINE
  8
1
  6
CONTINUOUS
 62
     0
 10
 9.68940613548330E+0000
 20
 6.17170731706574E+0000
 11
 9.68940613548330E+0000
 21
 5.90536585365771E+0000
  0
LINE
  8
1
  6
CONTINUOUS
 62
     0
 10
 9.56628480173822E+0000
 20
 6.04878048779938E+0000
 11
 9.85356791381491E+0000
 21
 6.04878048779938E+0000
  0
CIRCLE
  8
1
  6
CONTINUOUS
 62
     0
 10
 9.68990662881697E+0000
 20
 6.04493277810252E+0000
 40
 1.57480314959685E+0000
  0
CIRCLE
  8
1
  6
CONTINUOUS
 62
     0
 10
 9.68990662871511E+0000
 20
 6.04493277810252E+0000
 40
 1.67322834648076E-0001
  0
CIRCLE
  8
1
  6
DASHDOT
 62
     0
 10
 9.69094089549617E+0000
 20
 6.04683967751043E+0000
 40
 1.37648097381498E+0000
  0
CIRCLE
  8
1
  6
CONTINUOUS
 62
     0
 10
 9.69094089551072E+0000
 20
 7.42332065146184E+0000
 40
 8.76440825486497E-0002
  0
CIRCLE
  8
1
  6
CONTINUOUS
 62
     0
 10
 8.49887340428540E+0000
 20
 6.73508016450796E+0000
 40
 8.76440825486497E-0002
  0
CIRCLE
  8
1
  6
CONTINUOUS
 62
     0
 10
 8.49887340428540E+0000
 20
 5.35859919062932E+0000
 40
 8.76440825486497E-0002
  0
CIRCLE
  8
1
  6
CONTINUOUS
 62
     0
 10
 9.69094089551072E+0000
 20
 4.67035870374821E+0000
 40
 8.76440825486497E-0002
  0
CIRCLE
  8
1
  6
CONTINUOUS
 62
     0
 10
 1.08830083866778E+0001
 20
 5.35859919062932E+0000
 40
 8.76440825486497E-0002
  0
CIRCLE
  8
1
  6
CONTINUOUS
 62
     0
 10
 1.08830083866924E+0001
 20
 6.73508016450069E+0000
 40
 8.76440825486497E-0002
  0
CIRCLE
  8
1
  6
CONTINUOUS
 62
     0
 10
 9.69094089551072E+0000
 20
 7.42332065148366E+0000
 40
 8.76440825486497E-0002
  0
LINE
  8
1
  6
CONTINUOUS
 62
     0
 10
 2.69248687867730E+0000
 20
 2.62800098020671E+0000
 11
 2.69248687867730E+0000
 21
 2.36165951679868E+0000
  0
LINE
  8
1
  6
CONTINUOUS
 62
     0
 10
 2.56936554493223E+0000
 20
 2.50507415094035E+0000
 11
 2.85664865700892E+0000
 21
 2.50507415094035E+0000
  0
CIRCLE
  8
1
  6
CONTINUOUS
 62
     0
 10
 2.69298737191275E+0000
 20
 2.50122644124349E+0000
 40
 1.57480314959685E+0000
  0
CIRCLE
  8
1
  6
CONTINUOUS
 62
     0
 10
 2.69298737190911E+0000
 20
 2.50122644124349E+0000
 40
 1.67322834648076E-0001
  0
LINE
  8
1
  6
CENTER
 62
     0
 10
 4.49894210611819E+0000
 20
 2.50373475832021E+0000
 11
 7.91139061083231E+0000
 21
 2.50373475832021E+0000
  0
CIRCLE
  8
1
  6
DASHDOT
 62
     0
 10
 2.69402163867926E+0000
 20
 2.50313334065140E+0000
 40
 1.37648097381498E+0000
  0
CIRCLE
  8
1
  6
CONTINUOUS
 62
     0
 10
 2.69402163867562E+0000
 20
 3.87961431452641E+0000
 40
 8.76440825486497E-0002
  0
CIRCLE
  8
1
  6
CONTINUOUS
 62
     0
 10
 1.50195414747031E+0000
 20
 3.19137382761255E+0000
 40
 8.76440825486497E-0002
  0
CIRCLE
  8
1
  6
CONTINUOUS
 62
     0
 10
 1.50195414746486E+0000
 20
 1.81489285373391E+0000
 40
 8.76440825486497E-0002
  0
CIRCLE
  8
1
  6
CONTINUOUS
 62
     0
 10
 2.69402163866835E+0000
 20
 1.12665236681278E+0000
 40
 8.76440825486497E-0002
  0
CIRCLE
  8
1
  6
CONTINUOUS
 62
     0
 10
 3.88608912986456E+0000
 20
 1.81489285373391E+0000
 40
 8.76440825486497E-0002
  0
CIRCLE
  8
1
  6
CONTINUOUS
 62
     0
 10
 3.88608912986820E+0000
 20
 3.19137382760528E+0000
 40
 8.76440825486497E-0002
  0
CIRCLE
  8
1
  6
CONTINUOUS
 62
     0
 10
 2.69402163866835E+0000
 20
 3.87961431454823E+0000
 40
 8.76440825486497E-0002
  0
LINE
  8
1
  6
CONTINUOUS
 62
     0
 10
 6.19825018061965E+0000
 20
 2.62800098020671E+0000
 11
 6.19825018061965E+0000
 21
 2.36165951679868E+0000
  0
LINE
  8
1
  6
CONTINUOUS
 62
     0
 10
 6.07512884687458E+0000
 20
 2.50507415094035E+0000
 11
 6.36241195895127E+0000
 21
 2.50507415094035E+0000
  0
CIRCLE
  8
1
  6
CONTINUOUS
 62
     0
 10
 6.19875067385874E+0000
 20
 2.50122644124349E+0000
 40
 1.57480314959685E+0000
  0
CIRCLE
  8
1
  6
CONTINUOUS
 62
     0
 10
 6.19875067385146E+0000
 20
 2.50122644124349E+0000
 40
 1.67322834648076E-0001
  0
CIRCLE
  8
1
  6
DASHDOT
 62
     0
 10
 6.19978494062525E+0000
 20
 2.50313334065140E+0000
 40
 1.37648097381498E+0000
  0
CIRCLE
  8
1
  6
CONTINUOUS
 62
     0
 10
 6.19978494069801E+0000
 20
 3.87961431455551E+0000
 40
 8.76440825486497E-0002
  0
CIRCLE
  8
1
  6
CONTINUOUS
 62
     0
 10
 5.00771744945087E+0000
 20
 3.19137382762710E+0000
 40
 8.76440825486497E-0002
  0
CIRCLE
  8
1
  6
CONTINUOUS
 62
     0
 10
 5.00771744944359E+0000
 20
 1.81489285374846E+0000
 40
 8.76440825486497E-0002
  0
CIRCLE
  8
1
  6
CONTINUOUS
 62
     0
 10
 6.19978494069073E+0000
 20
 1.12665236684188E+0000
 40
 8.76440825486497E-0002
  0
CIRCLE
  8
1
  6
CONTINUOUS
 62
     0
 10
 7.39185243184329E+0000
 20
 1.81489285374846E+0000
 40
 8.76440825486497E-0002
  0
CIRCLE
  8
1
  6
CONTINUOUS
 62
     0
 10
 7.39185243185057E+0000
 20
 3.19137382761983E+0000
 40
 8.76440825486497E-0002
  0
CIRCLE
  8
1
  6
CONTINUOUS
 62
     0
 10
 6.19978494069073E+0000
 20
 3.87961431457734E+0000
 40
 8.76440825486497E-0002
  0
LINE
  8
1
  6
CONTINUOUS
 62
     0
 10
 9.68940613548330E+0000
 20
 2.62800098020671E+0000
 11
 9.68940613548330E+0000
 21
 2.36165951679868E+0000
  0
LINE
  8
1
  6
CONTINUOUS
 62
     0
 10
 9.56628480173822E+0000
 20
 2.50507415094035E+0000
 11
 9.85356791381491E+0000
 21
 2.50507415094035E+0000
  0
CIRCLE
  8
1
  6
CONTINUOUS
 62
     0
 10
 9.68990662887518E+0000
 20
 2.50122644124349E+0000
 40
 1.57480314959685E+0000
  0
CIRCLE
  8
1
  6
CONTINUOUS
 62
     0
 10
 9.68990662871511E+0000
 20
 2.50122644124349E+0000
 40
 1.67322834648076E-0001
  0
CIRCLE
  8
1
  6
DASHDOT
 62
     0
 10
 9.69094089549617E+0000
 20
 2.50313334065140E+0000
 40
 1.37648097381498E+0000
  0
CIRCLE
  8
1
  6
CONTINUOUS
 62
     0
 10
 9.69094089551072E+0000
 20
 3.87961431458461E+0000
 40
 8.76440825486497E-0002
  0
CIRCLE
  8
1
  6
CONTINUOUS
 62
     0
 10
 8.49887340428540E+0000
 20
 3.19137382764166E+0000
 40
 8.76440825486497E-0002
  0
CIRCLE
  8
1
  6
CONTINUOUS
 62
     0
 10
 8.49887340428540E+0000
 20
 1.81489285376301E+0000
 40
 8.76440825486497E-0002
  0
CIRCLE
  8
1
  6
CONTINUOUS
 62
     0
 10
 9.69094089551072E+0000
 20
 1.12665236687099E+0000
 40
 8.76440825486497E-0002
  0
CIRCLE
  8
1
  6
CONTINUOUS
 62
     0
 10
 1.08830083866778E+0001
 20
 1.81489285376301E+0000
 40
 8.76440825486497E-0002
  0
CIRCLE
  8
1
  6
CONTINUOUS
 62
     0
 10
 1.08830083866924E+0001
 20
 3.19137382763438E+0000
 40
 8.76440825486497E-0002
  0
CIRCLE
  8
1
  6
CONTINUOUS
 62
     0
 10
 9.69094089551072E+0000
 20
 3.87961431460644E+0000
 40
 8.76440825486497E-0002
0
ENDSEC
0
EOF
