0
SECTION
  2
HEADER
  9
$LTSCALE
 40
     10
  9
$LIMMIN
 10
     0.0
 20
     0.0
  9
$LIMMAX
 10
      11.5
 20
       8.0
  9
$EXTMIN
 10
     0.0
 20
     0.0
  9
$EXTMAX
 10
      11.5
 20
       8.0
   9
$CLAYER
   8
1
   9
$CECOLOR
  62
     7
   9
$CELTYPE
   6
CONTINUOUS
  0
ENDSEC
  0
SECTION
  2
TABLES
  0
TABLE
  2
LTYPE
 70
    10
  0
LTYPE
  2
CONTINUOUS
 70
    64
  3
Solid line
 72
    65
 73
     0
 40
0.0
  0
LTYPE
  2
DASHED
 70
     0
  3
__ __ __ __ __ __ __ __ __ __ __ __ __ __ __
 72
    65
 73
     2
 40
0.75
 49
0.5
 49
-0.25
  0
LTYPE
  2
HIDDEN
 70
     0
  3
_ _ _ _ _ _ _ _ _ _ _ _ _ _ _ _ _ _ _ _ _ _
 72
    65
 73
     2
 40
0.375
 49
0.25
 49
-0.125
  0
LTYPE
  2
CENTER
 70
     0
  3
____ _ ____ _ ____ _ ____ _ ____ _ ____ _ __
 72
    65
 73
     4
 40
2.0
 49
1.25
 49
-0.25
 49
0.25
 49
-0.25
  0
LTYPE
  2
PHANTOM
 70
     0
  3
_____ _ _ _____ _ _ _____ _ _ _____ _ _ ____
 72
    65
 73
     6
 40
2.5
 49
1.25
 49
-0.25
 49
0.25
 49
-0.25
 49
0.25
 49
-0.25
  0
LTYPE
  2
DOT
 70
     0
  3
............................................
 72
    65
 73
     2
 40
0.25
 49
0.0
 49
-0.25
  0
LTYPE
  2
DASHDOT
 70
     0
  3
__ . __ . __ . __ . __ . __ . __ . __ . __ .
 72
    65
 73
     4
 40
1.0
 49
0.5
 49
-0.25
 49
0.0
 49
-0.25
  0
LTYPE
  2
BORDER
 70
     0
  3
__ __ . __ __ . __ __ . __ __ . __ __ . __ _
 72
    65
 73
     6
 40
1.75
 49
0.5
 49
-0.25
 49
0.5
 49
-0.25
 49
0.0
 49
-0.25
  0
LTYPE
  2
DIVIDE
 70
     0
  3
__ . . __ . . __ . . __ . . __ . . __ . . __
 72
    65
 73
     6
 40
1.25
 49
0.5
 49
-0.25
 49
0.0
 49
-0.25
 49
0.0
 49
-0.25
  0
LTYPE
  2
DIVIDE2
 70
     0
  3
close
 72
    65
 73
     2
 40
0.1
 49
0.05
 49
-0.05
  0
ENDTAB
0
TABLE
  2
LAYER
 70
   256
  0
LAYER
  2
1
 70
     0
  6
CONTINUOUS
 62
1
  0
ENDTAB
  0
TABLE
  2
STYLE
 70
     8
  0
STYLE
  2
TXT
 70
0
 40
0.0
 41
1.0
 50
0.0
 71
0
 42
1.0
  3
TXT
  4

  0
STYLE
  2
COMPLEX
 70
0
 40
0.0
 41
1.0
 50
0.0
 71
0
 42
1.0
  3
COMPLEX
  4

  0
STYLE
  2
ITALIC
 70
0
 40
0.0
 41
1.0
 50
0.0
 71
0
 42
1.0
  3
ITALIC
  4

  0
STYLE
  2
SIMPLEX
70
0
 40
0.0
 41
1.0
 50
0.0
 71
0
 42
1.0
  3
SIMPLEX
  4

  0
STYLE
  2
MONOTXT
 70
0
 40
0.0
 41
1.0
 50
0.0
 71
0
 42
1.0
  3
MONOTXT
  4

  0
STYLE
  2
SCRIPTC
 70
0
 40
0.0
 41
1.0
 50
0.0
 71
0
 42
1.0
  3
SCRIPTC
  4

  0
STYLE
  2
GOTHICE
 70
0
 40
0.0
 41
1.0
 50
0.0
 71
0
 42
1.0
  3
GOTHICE
  4

  0
ENDTAB
  0
TABLE
  2
VIEW
 70
     0
  0
ENDTAB
  0
ENDSEC
  0
SECTION
  2
ENTITIES
  0
LINE
  8
1
  6
CONTINUOUS
 62
     1
 10
 1.10824245900876E+0001
 20
 3.66054472739052E-0001
 11
 8.90078496305796E+0000
 21
 3.66054472739052E-0001
  0
LINE
  8
1
  6
CONTINUOUS
 62
     1
 10
 8.90078496305796E+0000
 20
 3.66054472739052E-0001
 11
 8.90078496305796E+0000
 21
 1.55291635594767E+0000
  0
LINE
  8
1
  6
CONTINUOUS
 62
     1
 10
 8.90078496305796E+0000
 20
 1.55291635594767E+0000
 11
 1.10824245900876E+0001
 21
 1.55291635594767E+0000
  0
LINE
  8
1
  6
CONTINUOUS
 62
     1
 10
 1.10824245900876E+0001
 20
 1.55291635594767E+0000
 11
 1.10824245900876E+0001
 21
 3.66054472739052E-0001
  0
LINE
  8
1
  6
CONTINUOUS
 62
     1
 10
 8.90010336294654E+0000
 20
 1.23953147667635E+0000
 11
 1.10833476808330E+0001
 21
 1.23953147667635E+0000
  0
LINE
  8
1
  6
CONTINUOUS
 62
     1
 10
 8.90774062665878E+0000
 20
 5.23861750931246E-0001
 11
 1.10909849445452E+0001
 21
 5.23861750931246E-0001
  0
TEXT
  8
1
 62
     1
 10
 8.94823287868348E+0000
 20
 1.35143637997317E+0000
 40
 1.18110236219991E-0001
  1
Benennung
  7
STANDARD
 11
 8.94823287868348E+0000
 21
 1.46954661619384E+0000
 50
 0.00000000000000E+0000
 41
 3.16937882393631E-0001
  0
LINE
  8
1
  6
CONTINUOUS
 62
     1
 10
 9.57264299190138E+0000
 20
 1.55147486233909E+0000
 11
 9.57264299190138E+0000
 21
 1.23953147667635E+0000
  0
LINE
  8
1
  6
CONTINUOUS
 62
     1
 10
 8.90010336294654E+0000
 20
 1.07349709398113E+0000
 11
 1.10833476808330E+0001
 21
 1.07349709398113E+0000
  0
LINE
  8
1
  6
CONTINUOUS
 62
     1
 10
 8.90010336294654E+0000
 20
 9.07462711285916E-0001
 11
 1.10833476808330E+0001
 21
 9.07462711285916E-0001
  0
TEXT
  8
1
 62
     1
 10
 8.95298969198484E+0000
 20
 1.08890528919073E+0000
 40
 1.18110236219991E-0001
  1
Werkstoff
  7
STANDARD
 11
 8.95298969198484E+0000
 21
 1.20701552541141E+0000
 50
 0.00000000000000E+0000
 41
 2.56976661400131E-0001
  0
LINE
  8
1
  6
CONTINUOUS
 62
     1
 10
 9.57264299190138E+0000
 20
 1.23953147667635E+0000
 11
 9.57264299190138E+0000
 21
 1.07349709398113E+0000
  0
LINE
  8
1
  6
CONTINUOUS
 62
     1
 10
 1.05011491960613E+0001
 20
 1.23953147667635E+0000
 11
 1.05011491960613E+0001
 21
 1.07349709398113E+0000
  0
TEXT
  8
1
 62
     1
 10
 1.05670323736267E+0001
 20
 1.08890528919073E+0000
 40
 1.18110236219991E-0001
  1
M 1:1
  7
STANDARD
 11
 1.05670323736267E+0001
 21
 1.20701552541141E+0000
 50
 0.00000000000000E+0000
 41
 2.62116194628561E-0001
  0
LINE
  8
1
  6
CONTINUOUS
 62
     1
 10
 8.90078496305796E+0000
 20
 1.55291635594767E+0000
 11
 1.10883666332957E+0001
 21
 1.55291635594767E+0000
  0
LINE
  8
1
  6
CONTINUOUS
 62
     1
 10
 8.90078496305796E+0000
 20
 1.55291635594767E+0000
 11
 1.10824245900876E+0001
 21
 1.55291635594767E+0000
  0
LINE
  8
1
  6
CONTINUOUS
 62
     1
 10
 1.10824245900876E+0001
 20
 1.55291635594767E+0000
 11
 1.10824245900876E+0001
 21
 3.66054472739052E-0001
  0
LINE
  8
1
  6
CONTINUOUS
 62
     1
 10
 1.10824245900876E+0001
 20
 3.66054472739052E-0001
 11
 8.90078496305796E+0000
 21
 3.66054472739052E-0001
  0
LINE
  8
1
  6
CONTINUOUS
 62
     1
 10
 8.90078496305796E+0000
 20
 3.66054472739052E-0001
 11
 8.90078496305796E+0000
 21
 1.55291635594767E+0000
  0
TEXT
  8
1
 62
     1
 10
 8.94643199958955E+0000
 20
 9.29817355409796E-0001
 40
 1.18110236219991E-0001
  1
Bearb.
  7
STANDARD
 11
 8.94643199958955E+0000
 21
 1.04792759162956E+0000
 50
 0.00000000000000E+0000
 41
 2.69825494470297E-0001
  0
LINE
  8
1
  6
CONTINUOUS
 62
     1
 10
 9.57372805119667E+0000
 20
 1.07462383869279E+0000
 11
 9.57372805119667E+0000
 21
 9.08513856978971E-0001
  0
LINE
  8
1
  6
CONTINUOUS
 62
     1
 10
 8.90204784499656E+0000
 20
 7.36471375930705E-0001
 11
 1.10827893074456E+0001
 21
 7.36471375930705E-0001
  0
LINE
  8
1
  6
CONTINUOUS
 62
     1
 10
 9.57372805119667E+0000
 20
 9.08513856978971E-0001
 11
 9.57372805119667E+0000
 21
 7.36471375930705E-0001
  0
TEXT
  8
1
 62
     1
 10
 8.94643199958955E+0000
 20
 7.54808624687030E-0001
 40
 1.18110236219991E-0001
  1
Datum
  7
STANDARD
 11
 8.94643199958955E+0000
 21
 8.72918860906793E-0001
 50
 0.00000000000000E+0000
 41
 3.23790593364265E-0001
  0
LINE
  8
1
  6
CONTINUOUS
 62
     1
 10
 1.04998774104170E+0001
 20
 5.19935149772209E-0001
 11
 1.04998774104170E+0001
 21
 3.68656416430895E-0001
  0
TEXT
  8
1
 62
     1
 10
 9.62994798035652E+0000
 20
 9.20918606393570E-0001
 40
 1.18110236219991E-0001
  1
D.Freind
  7
STANDARD
 11
 9.62994798035652E+0000
 21
 1.03902884261333E+0000
 50
 0.00000000000000E+0000
 41
 2.60188869667672E-0001
  0
TEXT
  8
1
 62
     1
 10
 1.05235489595507E+0001
 20
 3.84027415512719E-0001
 40
 1.18110236219991E-0001
  1
Blatt
  7
STANDARD
 11
 1.05235489595507E+0001
 21
 5.02137651732482E-0001
 50
 0.00000000000000E+0000
 41
 2.31278995260254E-0001
  0
TEXT
  8
1
 62
     1
 10
 9.04969655426976E+0000
 20
 5.46297824291287E-0001
 40
 1.18110236219991E-0001
  1
für Revolver 8-fach 
  7
STANDARD
 11
 9.04969655426976E+0000
 21
 6.64408060511050E-0001
 50
 0.00000000000000E+0000
 41
 2.35133645181349E-0001
  0
TEXT
  8
1
 62
     1
 10
 9.21214422107732E+0000
 20
 3.93308872470698E-0001
 40
 1.18110236219991E-0001
  1
www.cnc-projects.de.vu
  7
STANDARD
 11
 9.21214422107732E+0000
 21
 5.11419108690461E-0001
 50
 0.00000000000000E+0000
 41
 2.66321267269177E-0001
  0
TEXT
  8
1
 62
     1
 10
 9.62865584621613E+0000
 20
 1.10299630925692E+0000
 40
 1.18110236219991E-0001
  1
CK 45
  7
STANDARD
 11
 9.62865584621613E+0000
 21
 1.22110654547760E+0000
 50
 0.00000000000000E+0000
 41
 3.08371993680339E-0001
  0
TEXT
  8
1
 62
     1
 10
 9.62865584620158E+0000
 20
 7.65536749800049E-0001
 40
 1.18110236219991E-0001
  1
28.12.2003
  7
STANDARD
 11
 9.62865584620158E+0000
 21
 8.83646986019812E-0001
 50
 0.00000000000000E+0000
 41
 2.77534794312487E-0001
  0
TEXT
  8
1
 62
     1
 10
 1.08218534642510E+0001
 20
 3.87982985258532E-0001
 40
 1.18110236219991E-0001
  1
1
  7
STANDARD
 11
 1.08218534642510E+0001
 21
 5.06093221478295E-0001
 50
 0.00000000000000E+0000
 41
 3.08371993680339E-0001
  0
TEXT
  8
1
 62
     1
 10
 9.89862513967091E+0000
 20
 1.29489203609410E+0000
 40
 1.96850393699833E-0001
  1
Scheibe
  7
STANDARD
 11
 9.89862513967091E+0000
 21
 1.49174242979461E+0000
 50
 0.00000000000000E+0000
 41
 1.78415224915170E-0001
  0
LINE
  8
1
  6
DASHDOT
 62
     1
 10
 7.42540689477755E+0000
 20
 4.20446618980350E+0000
 11
 2.98193643469858E+0000
 21
 4.20446618980350E+0000
  0
LINE
  8
1
  6
DASHDOT
 62
     1
 10
 3.98718057156657E+0000
 20
 5.19758768312022E+0000
 11
 3.98718057156657E+0000
 21
 3.29897306354906E+0000
  0
CIRCLE
  8
1
  6
CONTINUOUS
 62
     1
 10
 3.98740455770530E+0000
 20
 4.20597112880205E+0000
 40
 7.69405600211030E-0001
  0
CIRCLE
  8
1
  6
CONTINUOUS
 62
     1
 10
 3.98740455770530E+0000
 20
 4.20597112891119E+0000
 40
 1.65304132107849E-0001
  0
LINE
  8
1
  6
CONTINUOUS
 62
     1
 10
 5.94562273802876E+0000
 20
 4.97717063438904E+0000
 11
 5.94562273802876E+0000
 21
 3.44114517285198E+0000
  0
LINE
  8
1
  6
CONTINUOUS
 62
     1
 10
 5.94562273802876E+0000
 20
 3.44114517285198E+0000
 11
 6.06642191149149E+0000
 21
 3.44114517285198E+0000
  0
LINE
  8
1
  6
CONTINUOUS
 62
     1
 10
 6.06642191149149E+0000
 20
 3.44114517285198E+0000
 11
 6.06642191149149E+0000
 21
 4.97717063438904E+0000
  0
LINE
  8
1
  6
CONTINUOUS
 62
     1
 10
 6.06642191149149E+0000
 20
 4.97717063438904E+0000
 11
 5.94562273802876E+0000
 21
 4.97717063438904E+0000
  0
LINE
  8
1
  6
CONTINUOUS
 62
     1
 10
 5.94562273802876E+0000
 20
 4.37168341926008E+0000
 11
 6.06642191149149E+0000
 21
 4.37168341926008E+0000
  0
LINE
  8
1
  6
CONTINUOUS
 62
     1
 10
 5.94562273802876E+0000
 20
 4.04663238798094E+0000
 11
 6.06642191149149E+0000
 21
 4.04663238798094E+0000
  0
LINE
  8
1
  6
CONTINUOUS
 62
     1
 10
 6.06642191149876E+0000
 20
 4.38560284409323E+0000
 11
 6.05250248666562E+0000
 21
 4.37168341926736E+0000
  0
LINE
  8
1
  6
CONTINUOUS
 62
     1
 10
 6.06642191149876E+0000
 20
 4.41344169374497E+0000
 11
 6.02466363701387E+0000
 21
 4.37168341926736E+0000
  0
LINE
  8
1
  6
CONTINUOUS
 62
     1
 10
 6.06642191149876E+0000
 20
 4.44128054339672E+0000
 11
 5.99682478736213E+0000
 21
 4.37168341926736E+0000
  0
LINE
  8
1
  6
CONTINUOUS
 62
     1
 10
 6.06642191149876E+0000
 20
 4.46911939304846E+0000
 11
 5.96898593771039E+0000
 21
 4.37168341926736E+0000
  0
LINE
  8
1
  6
CONTINUOUS
 62
     1
 10
 6.06642191149876E+0000
 20
 4.49695824270020E+0000
 11
 5.94562273802876E+0000
 21
 4.37615906923747E+0000
  0
LINE
  8
1
  6
CONTINUOUS
 62
     1
 10
 6.06642191149876E+0000
 20
 4.52479709235195E+0000
 11
 5.94562273802876E+0000
 21
 4.40399791888922E+0000
  0
LINE
  8
1
  6
CONTINUOUS
 62
     1
 10
 6.06642191149876E+0000
 20
 4.55263594200369E+0000
 11
 5.94562273802876E+0000
 21
 4.43183676854096E+0000
  0
LINE
  8
1
  6
CONTINUOUS
 62
     1
 10
 6.06642191149876E+0000
 20
 4.58047479165543E+0000
 11
 5.94562273802876E+0000
 21
 4.45967561819270E+0000
  0
LINE
  8
1
  6
CONTINUOUS
 62
     1
 10
 6.06642191149876E+0000
 20
 4.60831364130718E+0000
 11
 5.94562273802876E+0000
 21
 4.48751446784445E+0000
  0
LINE
  8
1
  6
CONTINUOUS
 62
     1
 10
 6.06642191149876E+0000
 20
 4.63615249095892E+0000
 11
 5.94562273802876E+0000
 21
 4.51535331749619E+0000
  0
LINE
  8
1
  6
CONTINUOUS
 62
     1
 10
 6.06642191149149E+0000
 20
 4.66399134061066E+0000
 11
 5.94562273802876E+0000
 21
 4.54319216714794E+0000
  0
LINE
  8
1
  6
CONTINUOUS
 62
     1
 10
 6.06642191149149E+0000
 20
 4.69183019026241E+0000
 11
 5.94562273802876E+0000
 21
 4.57103101679968E+0000
  0
LINE
  8
1
  6
CONTINUOUS
 62
     1
 10
 6.06642191149149E+0000
 20
 4.71966903992143E+0000
 11
 5.94562273802876E+0000
 21
 4.59886986645870E+0000
  0
LINE
  8
1
  6
CONTINUOUS
 62
     1
 10
 6.06642191149149E+0000
 20
 4.74750788957317E+0000
 11
 5.94562273802876E+0000
 21
 4.62670871611044E+0000
  0
LINE
  8
1
  6
CONTINUOUS
 62
     1
 10
 6.06642191149149E+0000
 20
 4.77534673922491E+0000
 11
 5.94562273802876E+0000
 21
 4.65454756576219E+0000
  0
LINE
  8
1
  6
CONTINUOUS
 62
     1
 10
 6.06642191149149E+0000
 20
 4.80318558887666E+0000
 11
 5.94562273803604E+0000
 21
 4.68238641542121E+0000
  0
LINE
  8
1
  6
CONTINUOUS
 62
     1
 10
 6.06642191149876E+0000
 20
 4.83102443853568E+0000
 11
 5.94562273803604E+0000
 21
 4.71022526507295E+0000
  0
LINE
  8
1
  6
CONTINUOUS
 62
     1
 10
 6.06642191149876E+0000
 20
 4.85886328818742E+0000
 11
 5.94562273802876E+0000
 21
 4.73806411472469E+0000
  0
LINE
  8
1
  6
CONTINUOUS
 62
     1
 10
 6.06642191149149E+0000
 20
 4.88670213783917E+0000
 11
 5.94562273802876E+0000
 21
 4.76590296437644E+0000
  0
LINE
  8
1
  6
CONTINUOUS
 62
     1
 10
 6.06642191149149E+0000
 20
 4.91454098749091E+0000
 11
 5.94562273802876E+0000
 21
 4.79374181402818E+0000
  0
LINE
  8
1
  6
CONTINUOUS
 62
     1
 10
 6.06642191149149E+0000
 20
 4.94237983714993E+0000
 11
 5.94562273802876E+0000
 21
 4.82158066367992E+0000
  0
LINE
  8
1
  6
CONTINUOUS
 62
     1
 10
 6.06642191149149E+0000
 20
 4.97021868680167E+0000
 11
 5.94562273802876E+0000
 21
 4.84941951333894E+0000
  0
LINE
  8
1
  6
CONTINUOUS
 62
     1
 10
 6.04553500943439E+0000
 20
 4.97717063438904E+0000
 11
 5.94562273803604E+0000
 21
 4.87725836299796E+0000
  0
LINE
  8
1
  6
CONTINUOUS
 62
     1
 10
 6.01769615977537E+0000
 20
 4.97717063438904E+0000
 11
 5.94562273803604E+0000
 21
 4.90509721264971E+0000
  0
LINE
  8
1
  6
CONTINUOUS
 62
     1
 10
 5.98985731012363E+0000
 20
 4.97717063439632E+0000
 11
 5.94562273803604E+0000
 21
 4.93293606230145E+0000
  0
LINE
  8
1
  6
CONTINUOUS
 62
     1
 10
 5.96201846047188E+0000
 20
 4.97717063439632E+0000
 11
 5.94562273802876E+0000
 21
 4.96077491195319E+0000
  0
LINE
  8
1
  6
CONTINUOUS
 62
     1
 10
 6.06642191149876E+0000
 20
 3.45506459768148E+0000
 11
 6.05250248666562E+0000
 21
 3.44114517285198E+0000
  0
LINE
  8
1
  6
CONTINUOUS
 62
     1
 10
 6.06642191149876E+0000
 20
 3.48290344733323E+0000
 11
 6.02466363701387E+0000
 21
 3.44114517285198E+0000
  0
LINE
  8
1
  6
CONTINUOUS
 62
     1
 10
 6.06642191149876E+0000
 20
 3.51074229698497E+0000
 11
 5.99682478736213E+0000
 21
 3.44114517285198E+0000
  0
LINE
  8
1
  6
CONTINUOUS
 62
     1
 10
 6.06642191149876E+0000
 20
 3.53858114663672E+0000
 11
 5.96898593771039E+0000
 21
 3.44114517285198E+0000
  0
LINE
  8
1
  6
CONTINUOUS
 62
     1
 10
 6.06642191149876E+0000
 20
 3.56641999628846E+0000
 11
 5.94562273802876E+0000
 21
 3.44562082282573E+0000
  0
LINE
  8
1
  6
CONTINUOUS
 62
     1
 10
 6.06642191149876E+0000
 20
 3.59425884594020E+0000
 11
 5.94562273802876E+0000
 21
 3.47345967247747E+0000
  0
LINE
  8
1
  6
CONTINUOUS
 62
     1
 10
 6.06642191149876E+0000
 20
 3.62209769559195E+0000
 11
 5.94562273802876E+0000
 21
 3.50129852212922E+0000
  0
LINE
  8
1
  6
CONTINUOUS
 62
     1
 10
 6.06642191149876E+0000
 20
 3.64993654524369E+0000
 11
 5.94562273802876E+0000
 21
 3.52913737178096E+0000
  0
LINE
  8
1
  6
CONTINUOUS
 62
     1
 10
 6.06642191149876E+0000
 20
 3.67777539489907E+0000
 11
 5.94562273802876E+0000
 21
 3.55697622143634E+0000
  0
LINE
  8
1
  6
CONTINUOUS
 62
     1
 10
 6.06642191149876E+0000
 20
 3.70561424455082E+0000
 11
 5.94562273802876E+0000
 21
 3.58481507108809E+0000
  0
LINE
  8
1
  6
CONTINUOUS
 62
     1
 10
 6.06642191149876E+0000
 20
 3.73345309420256E+0000
 11
 5.94562273802876E+0000
 21
 3.61265392073983E+0000
  0
LINE
  8
1
  6
CONTINUOUS
 62
     1
 10
 6.06642191149876E+0000
 20
 3.76129194385430E+0000
 11
 5.94562273802876E+0000
 21
 3.64049277039157E+0000
  0
LINE
  8
1
  6
CONTINUOUS
 62
     1
 10
 6.06642191149876E+0000
 20
 3.78913079350605E+0000
 11
 5.94562273802876E+0000
 21
 3.66833162004332E+0000
  0
LINE
  8
1
  6
CONTINUOUS
 62
     1
 10
 6.06642191149876E+0000
 20
 3.81696964315779E+0000
 11
 5.94562273802876E+0000
 21
 3.69617046969506E+0000
  0
LINE
  8
1
  6
CONTINUOUS
 62
     1
 10
 6.06642191149876E+0000
 20
 3.84480849280953E+0000
 11
 5.94562273802876E+0000
 21
 3.72400931934681E+0000
  0
LINE
  8
1
  6
CONTINUOUS
 62
     1
 10
 6.06642191149876E+0000
 20
 3.87264734246128E+0000
 11
 5.94562273802876E+0000
 21
 3.75184816899855E+0000
  0
LINE
  8
1
  6
CONTINUOUS
 62
     1
 10
 6.06642191149876E+0000
 20
 3.90048619211666E+0000
 11
 5.94562273802876E+0000
 21
 3.77968701865393E+0000
  0
LINE
  8
1
  6
CONTINUOUS
 62
     1
 10
 6.06642191149876E+0000
 20
 3.92832504176840E+0000
 11
 5.94562273802876E+0000
 21
 3.80752586830567E+0000
  0
LINE
  8
1
  6
CONTINUOUS
 62
     1
 10
 6.06642191149876E+0000
 20
 3.95616389142015E+0000
 11
 5.94562273802876E+0000
 21
 3.83536471795742E+0000
  0
LINE
  8
1
  6
CONTINUOUS
 62
     1
 10
 6.06642191149876E+0000
 20
 3.98400274107189E+0000
 11
 5.94562273802876E+0000
 21
 3.86320356760916E+0000
  0
LINE
  8
1
  6
CONTINUOUS
 62
     1
 10
 6.06642191149876E+0000
 20
 4.01184159072727E+0000
 11
 5.94562273802876E+0000
 21
 3.89104241726091E+0000
  0
LINE
  8
1
  6
CONTINUOUS
 62
     1
 10
 6.06642191149876E+0000
 20
 4.03968044037902E+0000
 11
 5.94562273802876E+0000
 21
 3.91888126691265E+0000
  0
LINE
  8
1
  6
CONTINUOUS
 62
     1
 10
 6.04553500944894E+0000
 20
 4.04663238798094E+0000
 11
 5.94562273802876E+0000
 21
 3.94672011656439E+0000
  0
LINE
  8
1
  6
CONTINUOUS
 62
     1
 10
 6.01769615979720E+0000
 20
 4.04663238798094E+0000
 11
 5.94562273802876E+0000
 21
 3.97455896621614E+0000
  0
LINE
  8
1
  6
CONTINUOUS
 62
     1
 10
 5.98985731014545E+0000
 20
 4.04663238798094E+0000
 11
 5.94562273802876E+0000
 21
 4.00239781587152E+0000
  0
LINE
  8
1
  6
CONTINUOUS
 62
     1
 10
 5.96201846049371E+0000
 20
 4.04663238798094E+0000
 11
 5.94562273802876E+0000
 21
 4.03023666552326E+0000
  0
LINE
  8
1
  6
CONTINUOUS
 62
     1
 10
 5.94562273802876E+0000
 20
 4.37168341926008E+0000
 11
 5.55779381270986E+0000
 21
 4.37168341926008E+0000
  0
LINE
  8
1
  6
CONTINUOUS
 62
     1
 10
 5.55779381270986E+0000
 20
 4.37168341926008E+0000
 11
 5.55779381270986E+0000
 21
 4.04663238798094E+0000
  0
LINE
  8
1
  6
CONTINUOUS
 62
     1
 10
 5.55779381270986E+0000
 20
 4.04663238798094E+0000
 11
 5.94562273802876E+0000
 21
 4.04663238798094E+0000
  0
LINE
  8
1
  6
CONTINUOUS
 62
     1
 10
 6.06642191149149E+0000
 20
 4.97717063438904E+0000
 11
 6.37795662198914E+0000
 21
 4.97717063438904E+0000
  0
LINE
  8
1
  6
CONTINUOUS
 62
     1
 10
 6.37795662198914E+0000
 20
 4.97717063438904E+0000
 11
 6.37795662198914E+0000
 21
 3.44114517285198E+0000
  0
LINE
  8
1
  6
CONTINUOUS
 62
     1
 10
 6.37795662198914E+0000
 20
 3.44114517285198E+0000
 11
 6.06642191149149E+0000
 21
 3.44114517285198E+0000
  0
LINE
  8
1
  6
CONTINUOUS
 62
     1
 10
 5.94562273802876E+0000
 20
 4.97717063438904E+0000
 11
 5.94562273802876E+0000
 21
 5.32771586419403E+0000
  0
LINE
  8
1
  6
CONTINUOUS
 62
     1
 10
 5.94562273802876E+0000
 20
 5.32771586419403E+0000
 11
 6.06642191149149E+0000
 21
 5.32771586419403E+0000
  0
LINE
  8
1
  6
CONTINUOUS
 62
     1
 10
 6.06642191149149E+0000
 20
 5.32771586419403E+0000
 11
 6.06642191149149E+0000
 21
 4.97717063438904E+0000
  0
LINE
  8
1
  6
CONTINUOUS
 62
     1
 10
 6.37915133855859E+0000
 20
 4.97387975852325E+0000
 11
 6.37915133855859E+0000
 21
 4.97387975852325E+0000
  0
LINE
  8
1
  6
CONTINUOUS
 62
     1
 10
 6.37915133855859E+0000
 20
 4.97387975852325E+0000
 11
 6.35196981719491E+0000
 21
 4.81459043189534E+0000
  0
LINE
  8
1
  6
CONTINUOUS
 62
     1
 10
 6.35196981719491E+0000
 20
 4.81459043189534E+0000
 11
 6.41237345466652E+0000
 21
 4.81459043189534E+0000
  0
LINE
  8
1
  6
CONTINUOUS
 62
     1
 10
 6.41237345466652E+0000
 20
 4.81459043189534E+0000
 11
 6.37915133855859E+0000
 21
 4.97387975852325E+0000
  0
LINE
  8
1
  6
CONTINUOUS
 62
     1
 10
 6.35196981719491E+0000
 20
 4.81459043189534E+0000
 11
 6.41237345466652E+0000
 21
 4.81459043189534E+0000
  0
LINE
  8
1
  6
CONTINUOUS
 62
     1
 10
 6.36229691928747E+0000
 20
 4.81459043189534E+0000
 11
 6.35347518035996E+0000
 21
 4.82341217082285E+0000
  0
LINE
  8
1
  6
CONTINUOUS
 62
     1
 10
 6.38295112347259E+0000
 20
 4.81459043189534E+0000
 11
 6.35648590669734E+0000
 21
 4.84105564867787E+0000
  0
LINE
  8
1
  6
CONTINUOUS
 62
     1
 10
 6.40360532765771E+0000
 20
 4.81459043190262E+0000
 11
 6.35949663302745E+0000
 21
 4.85869912652561E+0000
  0
LINE
  8
1
  6
CONTINUOUS
 62
     1
 10
 6.40924115219241E+0000
 20
 4.82960881154577E+0000
 11
 6.36250735935755E+0000
 21
 4.87634260438062E+0000
  0
LINE
  8
1
  6
CONTINUOUS
 62
     1
 10
 6.40379821134411E+0000
 20
 4.85570595657919E+0000
 11
 6.36551808568765E+0000
 21
 4.89398608223564E+0000
  0
LINE
  8
1
  6
CONTINUOUS
 62
     1
 10
 6.39835527049581E+0000
 20
 4.88180310161260E+0000
 11
 6.36852881202503E+0000
 21
 4.91162956009066E+0000
  0
LINE
  8
1
  6
CONTINUOUS
 62
     1
 10
 6.39291232964752E+0000
 20
 4.90790024664602E+0000
 11
 6.37153953835514E+0000
 21
 4.92927303793840E+0000
  0
LINE
  8
1
  6
CONTINUOUS
 62
     1
 10
 6.38746938879922E+0000
 20
 4.93399739169399E+0000
 11
 6.37455026469252E+0000
 21
 4.94691651580069E+0000
  0
LINE
  8
1
  6
CONTINUOUS
 62
     1
 10
 6.38202644795092E+0000
 20
 4.96009453672741E+0000
 11
 6.37756099102262E+0000
 21
 4.96455999365571E+0000
  0
LINE
  8
1
  6
CONTINUOUS
 62
     1
 10
 6.41059128431516E+0000
 20
 4.82313536363654E+0000
 11
 6.40204635256669E+0000
 21
 4.81459043188806E+0000
  0
LINE
  8
1
  6
CONTINUOUS
 62
     1
 10
 6.40702694361971E+0000
 20
 4.84022522712621E+0000
 11
 6.38139214838156E+0000
 21
 4.81459043188806E+0000
  0
LINE
  8
1
  6
CONTINUOUS
 62
     1
 10
 6.40346260292426E+0000
 20
 4.85731509061588E+0000
 11
 6.36073794419644E+0000
 21
 4.81459043188806E+0000
  0
LINE
  8
1
  6
CONTINUOUS
 62
     1
 10
 6.39989826222882E+0000
 20
 4.87440495410556E+0000
 11
 6.35441540819738E+0000
 21
 4.82892210008140E+0000
  0
LINE
  8
1
  6
CONTINUOUS
 62
     1
 10
 6.39633392153337E+0000
 20
 4.89149481759523E+0000
 11
 6.35866506393359E+0000
 21
 4.85382596000272E+0000
  0
LINE
  8
1
  6
CONTINUOUS
 62
     1
 10
 6.39276958083792E+0000
 20
 4.90858468109218E+0000
 11
 6.36291471966979E+0000
 21
 4.87872981992405E+0000
  0
LINE
  8
1
  6
CONTINUOUS
 62
     1
 10
 6.38920524014247E+0000
 20
 4.92567454457458E+0000
 11
 6.36716437539872E+0000
 21
 4.90363367983809E+0000
  0
LINE
  8
1
  6
CONTINUOUS
 62
     1
 10
 6.38564089944703E+0000
 20
 4.94276440807153E+0000
 11
 6.37141403113492E+0000
 21
 4.92853753975942E+0000
  0
LINE
  8
1
  6
CONTINUOUS
 62
     1
 10
 6.38207655875158E+0000
 20
 4.95985427156120E+0000
 11
 6.37566368687840E+0000
 21
 4.95344139968074E+0000
  0
LINE
  8
1
  6
CONTINUOUS
 62
     1
 10
 6.38106742213859E+0000
 20
 3.44569661603964E+0000
 11
 6.38106742213859E+0000
 21
 3.44569661603964E+0000
  0
LINE
  8
1
  6
CONTINUOUS
 62
     1
 10
 6.38106742213859E+0000
 20
 3.44569661603964E+0000
 11
 6.40824894350226E+0000
 21
 3.60498594266755E+0000
  0
LINE
  8
1
  6
CONTINUOUS
 62
     1
 10
 6.40824894350226E+0000
 20
 3.60498594266755E+0000
 11
 6.34784530603065E+0000
 21
 3.60498594266755E+0000
  0
LINE
  8
1
  6
CONTINUOUS
 62
     1
 10
 6.34784530603065E+0000
 20
 3.60498594266755E+0000
 11
 6.38106742213859E+0000
 21
 3.44569661603964E+0000
  0
LINE
  8
1
  6
CONTINUOUS
 62
     1
 10
 6.40824894350226E+0000
 20
 3.60498594266755E+0000
 11
 6.34784530603065E+0000
 21
 3.60498594266755E+0000
  0
LINE
  8
1
  6
CONTINUOUS
 62
     1
 10
 6.38257278530364E+0000
 20
 3.45451835496715E+0000
 11
 6.37834595171444E+0000
 21
 3.45874518855635E+0000
  0
LINE
  8
1
  6
CONTINUOUS
 62
     1
 10
 6.38558351164102E+0000
 20
 3.47216183281853E+0000
 11
 6.37290301086614E+0000
 21
 3.48484233358977E+0000
  0
LINE
  8
1
  6
CONTINUOUS
 62
     1
 10
 6.38859423797112E+0000
 20
 3.48980531067355E+0000
 11
 6.36746007002512E+0000
 21
 3.51093947861955E+0000
  0
LINE
  8
1
  6
CONTINUOUS
 62
     1
 10
 6.39160496430122E+0000
 20
 3.50744878852493E+0000
 11
 6.36201712917682E+0000
 21
 3.53703662365297E+0000
  0
LINE
  8
1
  6
CONTINUOUS
 62
     1
 10
 6.39461569063860E+0000
 20
 3.52509226637630E+0000
 11
 6.35657418832852E+0000
 21
 3.56313376868638E+0000
  0
LINE
  8
1
  6
CONTINUOUS
 62
     1
 10
 6.39762641696871E+0000
 20
 3.54273574423132E+0000
 11
 6.35113124748023E+0000
 21
 3.58923091371616E+0000
  0
LINE
  8
1
  6
CONTINUOUS
 62
     1
 10
 6.40063714330608E+0000
 20
 3.56037922208270E+0000
 11
 6.35603042271396E+0000
 21
 3.60498594266755E+0000
  0
LINE
  8
1
  6
CONTINUOUS
 62
     1
 10
 6.40364786963619E+0000
 20
 3.57802269993408E+0000
 11
 6.37668462689908E+0000
 21
 3.60498594266755E+0000
  0
LINE
  8
1
  6
CONTINUOUS
 62
     1
 10
 6.40665859596629E+0000
 20
 3.59566617778546E+0000
 11
 6.39733883108420E+0000
 21
 3.60498594267119E+0000
  0
LINE
  8
1
  6
CONTINUOUS
 62
     1
 10
 6.38319225000305E+0000
 20
 3.45814854599666E+0000
 11
 6.37928525178722E+0000
 21
 3.45424154778448E+0000
  0
LINE
  8
1
  6
CONTINUOUS
 62
     1
 10
 6.38744190573925E+0000
 20
 3.48305240591799E+0000
 11
 6.37572091109178E+0000
 21
 3.47133141127415E+0000
  0
LINE
  8
1
  6
CONTINUOUS
 62
     1
 10
 6.39169156147545E+0000
 20
 3.50795626583931E+0000
 11
 6.37215657039633E+0000
 21
 3.48842127476019E+0000
  0
LINE
  8
1
  6
CONTINUOUS
 62
     1
 10
 6.39594121720438E+0000
 20
 3.53286012575336E+0000
 11
 6.36859222970088E+0000
 21
 3.50551113825350E+0000
  0
LINE
  8
1
  6
CONTINUOUS
 62
     1
 10
 6.40019087294058E+0000
 20
 3.55776398567468E+0000
 11
 6.36502788900543E+0000
 21
 3.52260100174317E+0000
  0
LINE
  8
1
  6
CONTINUOUS
 62
     1
 10
 6.40444052867679E+0000
 20
 3.58266784559601E+0000
 11
 6.36146354831726E+0000
 21
 3.53969086523648E+0000
  0
LINE
  8
1
  6
CONTINUOUS
 62
     1
 10
 6.40610442155594E+0000
 20
 3.60498594266392E+0000
 11
 6.35789920761454E+0000
 21
 3.55678072872252E+0000
  0
LINE
  8
1
  6
CONTINUOUS
 62
     1
 10
 6.38545021737082E+0000
 20
 3.60498594266392E+0000
 11
 6.35433486691909E+0000
 21
 3.57387059221583E+0000
  0
LINE
  8
1
  6
CONTINUOUS
 62
     1
 10
 6.36479601318570E+0000
 20
 3.60498594266392E+0000
 11
 6.35077052623092E+0000
 21
 3.59096045570550E+0000
  0
LINE
  8
1
  6
CONTINUOUS
 62
     1
 10
 5.55917736316042E+0000
 20
 4.37144877013634E+0000
 11
 5.55917736316042E+0000
 21
 4.37144877013634E+0000
  0
LINE
  8
1
  6
CONTINUOUS
 62
     1
 10
 5.55917736316042E+0000
 20
 4.37144877013634E+0000
 11
 5.58635888452409E+0000
 21
 4.53073809676425E+0000
  0
LINE
  8
1
  6
CONTINUOUS
 62
     1
 10
 5.58635888452409E+0000
 20
 4.53073809676425E+0000
 11
 5.52595524705248E+0000
 21
 4.53073809676425E+0000
  0
LINE
  8
1
  6
CONTINUOUS
 62
     1
 10
 5.52595524705248E+0000
 20
 4.53073809676425E+0000
 11
 5.55917736316042E+0000
 21
 4.37144877013634E+0000
  0
LINE
  8
1
  6
CONTINUOUS
 62
     1
 10
 5.58635888452409E+0000
 20
 4.53073809676425E+0000
 11
 5.52595524705248E+0000
 21
 4.53073809676425E+0000
  0
LINE
  8
1
  6
CONTINUOUS
 62
     1
 10
 5.56068272632547E+0000
 20
 4.38027050906385E+0000
 11
 5.55645589273627E+0000
 21
 4.38449734265305E+0000
  0
LINE
  8
1
  6
CONTINUOUS
 62
     1
 10
 5.56369345266285E+0000
 20
 4.39791398691887E+0000
 11
 5.55101295189525E+0000
 21
 4.41059448768647E+0000
  0
LINE
  8
1
  6
CONTINUOUS
 62
     1
 10
 5.56670417899295E+0000
 20
 4.41555746477388E+0000
 11
 5.54557001104695E+0000
 21
 4.43669163271989E+0000
  0
LINE
  8
1
  6
CONTINUOUS
 62
     1
 10
 5.56971490532305E+0000
 20
 4.43320094262162E+0000
 11
 5.54012707019865E+0000
 21
 4.46278877775330E+0000
  0
LINE
  8
1
  6
CONTINUOUS
 62
     1
 10
 5.57272563166043E+0000
 20
 4.45084442047664E+0000
 11
 5.53468412935035E+0000
 21
 4.48888592278672E+0000
  0
LINE
  8
1
  6
CONTINUOUS
 62
     1
 10
 5.57573635799054E+0000
 20
 4.46848789833166E+0000
 11
 5.52924118850206E+0000
 21
 4.51498306781286E+0000
  0
LINE
  8
1
  6
CONTINUOUS
 62
     1
 10
 5.57874708432064E+0000
 20
 4.48613137617940E+0000
 11
 5.53414036374306E+0000
 21
 4.53073809676425E+0000
  0
LINE
  8
1
  6
CONTINUOUS
 62
     1
 10
 5.58175781065802E+0000
 20
 4.50377485403442E+0000
 11
 5.55479456792818E+0000
 21
 4.53073809676425E+0000
  0
LINE
  8
1
  6
CONTINUOUS
 62
     1
 10
 5.58476853698812E+0000
 20
 4.52141833188944E+0000
 11
 5.57544877211330E+0000
 21
 4.53073809676425E+0000
  0
LINE
  8
1
  6
CONTINUOUS
 62
     1
 10
 5.56130219101760E+0000
 20
 4.38390070009336E+0000
 11
 5.55739519280905E+0000
 21
 4.37999370187754E+0000
  0
LINE
  8
1
  6
CONTINUOUS
 62
     1
 10
 5.56555184675381E+0000
 20
 4.40880456001469E+0000
 11
 5.55383085211361E+0000
 21
 4.39708356536721E+0000
  0
LINE
  8
1
  6
CONTINUOUS
 62
     1
 10
 5.56980150249001E+0000
 20
 4.43370841993601E+0000
 11
 5.55026651141088E+0000
 21
 4.41417342885688E+0000
  0
LINE
  8
1
  6
CONTINUOUS
 62
     1
 10
 5.57405115822621E+0000
 20
 4.45861227985733E+0000
 11
 5.54670217072271E+0000
 21
 4.43126329234656E+0000
  0
LINE
  8
1
  6
CONTINUOUS
 62
     1
 10
 5.57830081396241E+0000
 20
 4.48351613977138E+0000
 11
 5.54313783002726E+0000
 21
 4.44835315583623E+0000
  0
LINE
  8
1
  6
CONTINUOUS
 62
     1
 10
 5.58255046969862E+0000
 20
 4.50841999969271E+0000
 11
 5.53957348933181E+0000
 21
 4.46544301933318E+0000
  0
LINE
  8
1
  6
CONTINUOUS
 62
     1
 10
 5.58421436257777E+0000
 20
 4.53073809675698E+0000
 11
 5.53600914863637E+0000
 21
 4.48253288281558E+0000
  0
LINE
  8
1
  6
CONTINUOUS
 62
     1
 10
 5.56356015839265E+0000
 20
 4.53073809675698E+0000
 11
 5.53244480794092E+0000
 21
 4.49962274630525E+0000
  0
LINE
  8
1
  6
CONTINUOUS
 62
     1
 10
 5.54290595420753E+0000
 20
 4.53073809675698E+0000
 11
 5.52888046724547E+0000
 21
 4.51671260980220E+0000
  0
LINE
  8
1
  6
CONTINUOUS
 62
     1
 10
 5.55726127958042E+0000
 20
 4.04349884365365E+0000
 11
 5.55726127958042E+0000
 21
 4.04349884365365E+0000
  0
LINE
  8
1
  6
CONTINUOUS
 62
     1
 10
 5.55726127958042E+0000
 20
 4.04349884365365E+0000
 11
 5.53007975821674E+0000
 21
 3.88420951702574E+0000
  0
LINE
  8
1
  6
CONTINUOUS
 62
     1
 10
 5.53007975821674E+0000
 20
 3.88420951702574E+0000
 11
 5.59048339568835E+0000
 21
 3.88420951702574E+0000
  0
LINE
  8
1
  6
CONTINUOUS
 62
     1
 10
 5.59048339568835E+0000
 20
 3.88420951702574E+0000
 11
 5.55726127958042E+0000
 21
 4.04349884365365E+0000
  0
LINE
  8
1
  6
CONTINUOUS
 62
     1
 10
 5.53007975821674E+0000
 20
 3.88420951702574E+0000
 11
 5.59048339568835E+0000
 21
 3.88420951702574E+0000
  0
LINE
  8
1
  6
CONTINUOUS
 62
     1
 10
 5.54040686030930E+0000
 20
 3.88420951702938E+0000
 11
 5.53158512138180E+0000
 21
 3.89303125595688E+0000
  0
LINE
  8
1
  6
CONTINUOUS
 62
     1
 10
 5.56106106450170E+0000
 20
 3.88420951702938E+0000
 11
 5.53459584771917E+0000
 21
 3.91067473380826E+0000
  0
LINE
  8
1
  6
CONTINUOUS
 62
     1
 10
 5.58171526868682E+0000
 20
 3.88420951702574E+0000
 11
 5.53760657404928E+0000
 21
 3.92831821166328E+0000
  0
LINE
  8
1
  6
CONTINUOUS
 62
     1
 10
 5.58735109320696E+0000
 20
 3.89922789668708E+0000
 11
 5.54061730038666E+0000
 21
 3.94596168951466E+0000
  0
LINE
  8
1
  6
CONTINUOUS
 62
     1
 10
 5.58190815235866E+0000
 20
 3.92532504172050E+0000
 11
 5.54362802671676E+0000
 21
 3.96360516736604E+0000
  0
LINE
  8
1
  6
CONTINUOUS
 62
     1
 10
 5.57646521151764E+0000
 20
 3.95142218675392E+0000
 11
 5.54663875304686E+0000
 21
 3.98124864522106E+0000
  0
LINE
  8
1
  6
CONTINUOUS
 62
     1
 10
 5.57102227066935E+0000
 20
 3.97751933178370E+0000
 11
 5.54964947937697E+0000
 21
 3.99889212307244E+0000
  0
LINE
  8
1
  6
CONTINUOUS
 62
     1
 10
 5.56557932982105E+0000
 20
 4.00361647681711E+0000
 11
 5.55266020571435E+0000
 21
 4.01653560092382E+0000
  0
LINE
  8
1
  6
CONTINUOUS
 62
     1
 10
 5.56013638897275E+0000
 20
 4.02971362185053E+0000
 11
 5.55567093204445E+0000
 21
 4.03417907877883E+0000
  0
LINE
  8
1
  6
CONTINUOUS
 62
     1
 10
 5.58870122533699E+0000
 20
 3.89275444877057E+0000
 11
 5.58015629358852E+0000
 21
 3.88420951702574E+0000
  0
LINE
  8
1
  6
CONTINUOUS
 62
     1
 10
 5.58513688464154E+0000
 20
 3.90984431226025E+0000
 11
 5.55950208940340E+0000
 21
 3.88420951702574E+0000
  0
LINE
  8
1
  6
CONTINUOUS
 62
     1
 10
 5.58157254394609E+0000
 20
 3.92693417574992E+0000
 11
 5.53884788521827E+0000
 21
 3.88420951701846E+0000
  0
LINE
  8
1
  6
CONTINUOUS
 62
     1
 10
 5.57800820325065E+0000
 20
 3.94402403923959E+0000
 11
 5.53252534921921E+0000
 21
 3.89854118520816E+0000
  0
LINE
  8
1
  6
CONTINUOUS
 62
     1
 10
 5.57444386255520E+0000
 20
 3.96111390273290E+0000
 11
 5.53677500495542E+0000
 21
 3.92344504512948E+0000
  0
LINE
  8
1
  6
CONTINUOUS
 62
     1
 10
 5.57087952186703E+0000
 20
 3.97820376622258E+0000
 11
 5.54102466069162E+0000
 21
 3.94834890505081E+0000
  0
LINE
  8
1
  6
CONTINUOUS
 62
     1
 10
 5.56731518116430E+0000
 20
 3.99529362970861E+0000
 11
 5.54527431642782E+0000
 21
 3.97325276496849E+0000
  0
LINE
  8
1
  6
CONTINUOUS
 62
     1
 10
 5.56375084046886E+0000
 20
 4.01238349320192E+0000
 11
 5.54952397216402E+0000
 21
 3.99815662488982E+0000
  0
LINE
  8
1
  6
CONTINUOUS
 62
     1
 10
 5.56018649978068E+0000
 20
 4.02947335669160E+0000
 11
 5.55377362789295E+0000
 21
 4.02306048481114E+0000
  0
LINE
  8
1
  6
CONTINUOUS
 62
     1
 10
 6.06417073652847E+0000
 20
 5.32794659664069E+0000
 11
 6.06417073652847E+0000
 21
 5.32794659664069E+0000
  0
LINE
  8
1
  6
CONTINUOUS
 62
     1
 10
 6.06417073652847E+0000
 20
 5.32794659664069E+0000
 11
 6.22346006317821E+0000
 21
 5.30076507527701E+0000
  0
LINE
  8
1
  6
CONTINUOUS
 62
     1
 10
 6.22346006317821E+0000
 20
 5.30076507527701E+0000
 11
 6.22346006317821E+0000
 21
 5.36116871274862E+0000
  0
LINE
  8
1
  6
CONTINUOUS
 62
     1
 10
 6.22346006317821E+0000
 20
 5.36116871274862E+0000
 11
 6.06417073652847E+0000
 21
 5.32794659664069E+0000
  0
LINE
  8
1
  6
CONTINUOUS
 62
     1
 10
 6.22346006317821E+0000
 20
 5.30076507527701E+0000
 11
 6.22346006317821E+0000
 21
 5.36116871274862E+0000
  0
LINE
  8
1
  6
CONTINUOUS
 62
     1
 10
 6.07662266650004E+0000
 20
 5.32582176877622E+0000
 11
 6.07271566828422E+0000
 21
 5.32972876699205E+0000
  0
LINE
  8
1
  6
CONTINUOUS
 62
     1
 10
 6.10152652642137E+0000
 20
 5.32157211304002E+0000
 11
 6.08980553177389E+0000
 21
 5.33329310768750E+0000
  0
LINE
  8
1
  6
CONTINUOUS
 62
     1
 10
 6.12643038634269E+0000
 20
 5.31732245730382E+0000
 11
 6.10689539526356E+0000
 21
 5.33685744838294E+0000
  0
LINE
  8
1
  6
CONTINUOUS
 62
     1
 10
 6.15133424626401E+0000
 20
 5.31307280156761E+0000
 11
 6.12398525875324E+0000
 21
 5.34042178907839E+0000
  0
LINE
  8
1
  6
CONTINUOUS
 62
     1
 10
 6.17623810618534E+0000
 20
 5.30882314583141E+0000
 11
 6.14107512224291E+0000
 21
 5.34398612977384E+0000
  0
LINE
  8
1
  6
CONTINUOUS
 62
     1
 10
 6.20114196610666E+0000
 20
 5.30457349009521E+0000
 11
 6.15816498573986E+0000
 21
 5.34755047046201E+0000
  0
LINE
  8
1
  6
CONTINUOUS
 62
     1
 10
 6.22346006317821E+0000
 20
 5.30290959720878E+0000
 11
 6.17525484922953E+0000
 21
 5.35111481115746E+0000
  0
LINE
  8
1
  6
CONTINUOUS
 62
     1
 10
 6.22346006317821E+0000
 20
 5.32356380139390E+0000
 11
 6.19234471271920E+0000
 21
 5.35467915185291E+0000
  0
LINE
  8
1
  6
CONTINUOUS
 62
     1
 10
 6.22346006318548E+0000
 20
 5.34421800557175E+0000
 11
 6.20943457620888E+0000
 21
 5.35824349254835E+0000
  0
LINE
  8
1
  6
CONTINUOUS
 62
     1
 10
 6.22346006317093E+0000
 20
 5.31109217736230E+0000
 11
 6.21463832425070E+0000
 21
 5.30227043844206E+0000
  0
LINE
  8
1
  6
CONTINUOUS
 62
     1
 10
 6.22346006317093E+0000
 20
 5.33174638154742E+0000
 11
 6.19699484639568E+0000
 21
 5.30528116477217E+0000
  0
LINE
  8
1
  6
CONTINUOUS
 62
     1
 10
 6.22346006317093E+0000
 20
 5.35240058573254E+0000
 11
 6.17935136854067E+0000
 21
 5.30829189110955E+0000
  0
LINE
  8
1
  6
CONTINUOUS
 62
     1
 10
 6.20844168352050E+0000
 20
 5.35803641026723E+0000
 11
 6.16170789069292E+0000
 21
 5.31130261743965E+0000
  0
LINE
  8
1
  6
CONTINUOUS
 62
     1
 10
 6.18234453847981E+0000
 20
 5.35259346941166E+0000
 11
 6.14406441283791E+0000
 21
 5.31431334376975E+0000
  0
LINE
  8
1
  6
CONTINUOUS
 62
     1
 10
 6.15624739345367E+0000
 20
 5.34715052857064E+0000
 11
 6.12642093498289E+0000
 21
 5.31732407009986E+0000
  0
LINE
  8
1
  6
CONTINUOUS
 62
     1
 10
 6.13015024842025E+0000
 20
 5.34170758772962E+0000
 11
 6.10877745712787E+0000
 21
 5.32033479643724E+0000
  0
LINE
  8
1
  6
CONTINUOUS
 62
     1
 10
 6.10405310339411E+0000
 20
 5.33626464688132E+0000
 11
 6.09113397928013E+0000
 21
 5.32334552276734E+0000
  0
LINE
  8
1
  6
CONTINUOUS
 62
     1
 10
 6.07795595836797E+0000
 20
 5.33082170604030E+0000
 11
 6.07349050142511E+0000
 21
 5.32635624909744E+0000
  0
LINE
  8
1
  6
CONTINUOUS
 62
     1
 10
 6.06417073652847E+0000
 20
 5.32794659664069E+0000
 11
 6.06417073652847E+0000
 21
 5.32794659664069E+0000
  0
LINE
  8
1
  6
CONTINUOUS
 62
     1
 10
 6.06417073652847E+0000
 20
 5.32794659664069E+0000
 11
 6.22346006317821E+0000
 21
 5.30076507527701E+0000
  0
LINE
  8
1
  6
CONTINUOUS
 62
     1
 10
 6.22346006317821E+0000
 20
 5.30076507527701E+0000
 11
 6.22346006317821E+0000
 21
 5.36116871274862E+0000
  0
LINE
  8
1
  6
CONTINUOUS
 62
     1
 10
 6.22346006317821E+0000
 20
 5.36116871274862E+0000
 11
 6.06417073652847E+0000
 21
 5.32794659664069E+0000
  0
LINE
  8
1
  6
CONTINUOUS
 62
     1
 10
 6.22346006317821E+0000
 20
 5.30076507527701E+0000
 11
 6.22346006317821E+0000
 21
 5.36116871274862E+0000
  0
LINE
  8
1
  6
CONTINUOUS
 62
     1
 10
 6.07662266650004E+0000
 20
 5.32582176877622E+0000
 11
 6.07271566828422E+0000
 21
 5.32972876699205E+0000
  0
LINE
  8
1
  6
CONTINUOUS
 62
     1
 10
 6.10152652642137E+0000
 20
 5.32157211304002E+0000
 11
 6.08980553177389E+0000
 21
 5.33329310768750E+0000
  0
LINE
  8
1
  6
CONTINUOUS
 62
     1
 10
 6.12643038634269E+0000
 20
 5.31732245730382E+0000
 11
 6.10689539526356E+0000
 21
 5.33685744838294E+0000
  0
LINE
  8
1
  6
CONTINUOUS
 62
     1
 10
 6.15133424626401E+0000
 20
 5.31307280156761E+0000
 11
 6.12398525875324E+0000
 21
 5.34042178907839E+0000
  0
LINE
  8
1
  6
CONTINUOUS
 62
     1
 10
 6.17623810618534E+0000
 20
 5.30882314583141E+0000
 11
 6.14107512224291E+0000
 21
 5.34398612977384E+0000
  0
LINE
  8
1
  6
CONTINUOUS
 62
     1
 10
 6.20114196610666E+0000
 20
 5.30457349009521E+0000
 11
 6.15816498573986E+0000
 21
 5.34755047046201E+0000
  0
LINE
  8
1
  6
CONTINUOUS
 62
     1
 10
 6.22346006317821E+0000
 20
 5.30290959720878E+0000
 11
 6.17525484922953E+0000
 21
 5.35111481115746E+0000
  0
LINE
  8
1
  6
CONTINUOUS
 62
     1
 10
 6.22346006317821E+0000
 20
 5.32356380139390E+0000
 11
 6.19234471271920E+0000
 21
 5.35467915185291E+0000
  0
LINE
  8
1
  6
CONTINUOUS
 62
     1
 10
 6.22346006318548E+0000
 20
 5.34421800557175E+0000
 11
 6.20943457620888E+0000
 21
 5.35824349254835E+0000
  0
LINE
  8
1
  6
CONTINUOUS
 62
     1
 10
 6.22346006317093E+0000
 20
 5.31109217736230E+0000
 11
 6.21463832425070E+0000
 21
 5.30227043844206E+0000
  0
LINE
  8
1
  6
CONTINUOUS
 62
     1
 10
 6.22346006317093E+0000
 20
 5.33174638154742E+0000
 11
 6.19699484639568E+0000
 21
 5.30528116477217E+0000
  0
LINE
  8
1
  6
CONTINUOUS
 62
     1
 10
 6.22346006317093E+0000
 20
 5.35240058573254E+0000
 11
 6.17935136854067E+0000
 21
 5.30829189110955E+0000
  0
LINE
  8
1
  6
CONTINUOUS
 62
     1
 10
 6.20844168352050E+0000
 20
 5.35803641026723E+0000
 11
 6.16170789069292E+0000
 21
 5.31130261743965E+0000
  0
LINE
  8
1
  6
CONTINUOUS
 62
     1
 10
 6.18234453847981E+0000
 20
 5.35259346941166E+0000
 11
 6.14406441283791E+0000
 21
 5.31431334376975E+0000
  0
LINE
  8
1
  6
CONTINUOUS
 62
     1
 10
 6.15624739345367E+0000
 20
 5.34715052857064E+0000
 11
 6.12642093498289E+0000
 21
 5.31732407009986E+0000
  0
LINE
  8
1
  6
CONTINUOUS
 62
     1
 10
 6.13015024842025E+0000
 20
 5.34170758772962E+0000
 11
 6.10877745712787E+0000
 21
 5.32033479643724E+0000
  0
LINE
  8
1
  6
CONTINUOUS
 62
     1
 10
 6.10405310339411E+0000
 20
 5.33626464688132E+0000
 11
 6.09113397928013E+0000
 21
 5.32334552276734E+0000
  0
LINE
  8
1
  6
CONTINUOUS
 62
     1
 10
 6.07795595836797E+0000
 20
 5.33082170604030E+0000
 11
 6.07349050142511E+0000
 21
 5.32635624909744E+0000
  0
LINE
  8
1
  6
CONTINUOUS
 62
     1
 10
 5.93961731212039E+0000
 20
 5.32896949382848E+0000
 11
 5.93961731212039E+0000
 21
 5.32896949382848E+0000
  0
LINE
  8
1
  6
CONTINUOUS
 62
     1
 10
 5.93961731212039E+0000
 20
 5.32896949382848E+0000
 11
 5.78032798548520E+0000
 21
 5.35615101519215E+0000
  0
LINE
  8
1
  6
CONTINUOUS
 62
     1
 10
 5.78032798548520E+0000
 20
 5.35615101519215E+0000
 11
 5.78032798548520E+0000
 21
 5.29574737772055E+0000
  0
LINE
  8
1
  6
CONTINUOUS
 62
     1
 10
 5.78032798548520E+0000
 20
 5.29574737772055E+0000
 11
 5.93961731212039E+0000
 21
 5.32896949382848E+0000
  0
LINE
  8
1
  6
CONTINUOUS
 62
     1
 10
 5.78032798548520E+0000
 20
 5.35615101519215E+0000
 11
 5.78032798548520E+0000
 21
 5.29574737772055E+0000
  0
LINE
  8
1
  6
CONTINUOUS
 62
     1
 10
 5.78887291723368E+0000
 20
 5.29752954807191E+0000
 11
 5.78032798548520E+0000
 21
 5.30607447982038E+0000
  0
LINE
  8
1
  6
CONTINUOUS
 62
     1
 10
 5.80596278072335E+0000
 20
 5.30109388876735E+0000
 11
 5.78032798548520E+0000
 21
 5.32672868400550E+0000
  0
LINE
  8
1
  6
CONTINUOUS
 62
     1
 10
 5.82305264421302E+0000
 20
 5.30465822946280E+0000
 11
 5.78032798548520E+0000
 21
 5.34738288819062E+0000
  0
LINE
  8
1
  6
CONTINUOUS
 62
     1
 10
 5.84014250770997E+0000
 20
 5.30822257015825E+0000
 11
 5.79465965367854E+0000
 21
 5.35370542418241E+0000
  0
LINE
  8
1
  6
CONTINUOUS
 62
     1
 10
 5.85723237119964E+0000
 20
 5.31178691084642E+0000
 11
 5.81956351359986E+0000
 21
 5.34945576844621E+0000
  0
LINE
  8
1
  6
CONTINUOUS
 62
     1
 10
 5.87432223468932E+0000
 20
 5.31535125154187E+0000
 11
 5.84446737352118E+0000
 21
 5.34520611271000E+0000
  0
LINE
  8
1
  6
CONTINUOUS
 62
     1
 10
 5.89141209817899E+0000
 20
 5.31891559223732E+0000
 11
 5.86937123344251E+0000
 21
 5.34095645698108E+0000
  0
LINE
  8
1
  6
CONTINUOUS
 62
     1
 10
 5.90850196166866E+0000
 20
 5.32247993293277E+0000
 11
 5.89427509335655E+0000
 21
 5.33670680124487E+0000
  0
LINE
  8
1
  6
CONTINUOUS
 62
     1
 10
 5.92559182515834E+0000
 20
 5.32604427362821E+0000
 11
 5.91917895327788E+0000
 21
 5.33245714550867E+0000
  0
LINE
  8
1
  6
CONTINUOUS
 62
     1
 10
 5.93079557319288E+0000
 20
 5.33047485699353E+0000
 11
 5.92656873960368E+0000
 21
 5.32624802340433E+0000
  0
LINE
  8
1
  6
CONTINUOUS
 62
     1
 10
 5.91315209533786E+0000
 20
 5.33348558332364E+0000
 11
 5.90047159457026E+0000
 21
 5.32080508255603E+0000
  0
LINE
  8
1
  6
CONTINUOUS
 62
     1
 10
 5.89550861748285E+0000
 20
 5.33649630965374E+0000
 11
 5.87437444953684E+0000
 21
 5.31536214170774E+0000
  0
LINE
  8
1
  6
CONTINUOUS
 62
     1
 10
 5.87786513962783E+0000
 20
 5.33950703598384E+0000
 11
 5.84827730450343E+0000
 21
 5.30991920086672E+0000
  0
LINE
  8
1
  6
CONTINUOUS
 62
     1
 10
 5.86022166177281E+0000
 20
 5.34251776232122E+0000
 11
 5.82218015947001E+0000
 21
 5.30447626001842E+0000
  0
LINE
  8
1
  6
CONTINUOUS
 62
     1
 10
 5.84257818392507E+0000
 20
 5.34552848865133E+0000
 11
 5.79608301443659E+0000
 21
 5.29903331917012E+0000
  0
LINE
  8
1
  6
CONTINUOUS
 62
     1
 10
 5.82493470607005E+0000
 20
 5.34853921498143E+0000
 11
 5.78032798547792E+0000
 21
 5.30393249438930E+0000
  0
LINE
  8
1
  6
CONTINUOUS
 62
     1
 10
 5.80729122821504E+0000
 20
 5.35154994131153E+0000
 11
 5.78032798547792E+0000
 21
 5.32458669857442E+0000
  0
LINE
  8
1
  6
CONTINUOUS
 62
     1
 10
 5.78964775036002E+0000
 20
 5.35456066764891E+0000
 11
 5.78032798547792E+0000
 21
 5.34524090275954E+0000
  0
LINE
  8
1
  6
CONTINUOUS
 62
     1
 10
 5.93961731212039E+0000
 20
 5.32896949382848E+0000
 11
 5.93961731212039E+0000
 21
 5.32896949382848E+0000
  0
LINE
  8
1
  6
CONTINUOUS
 62
     1
 10
 5.93961731212039E+0000
 20
 5.32896949382848E+0000
 11
 5.78032798548520E+0000
 21
 5.35615101519215E+0000
  0
LINE
  8
1
  6
CONTINUOUS
 62
     1
 10
 5.78032798548520E+0000
 20
 5.35615101519215E+0000
 11
 5.78032798548520E+0000
 21
 5.29574737772055E+0000
  0
LINE
  8
1
  6
CONTINUOUS
 62
     1
 10
 5.78032798548520E+0000
 20
 5.29574737772055E+0000
 11
 5.93961731212039E+0000
 21
 5.32896949382848E+0000
  0
LINE
  8
1
  6
CONTINUOUS
 62
     1
 10
 5.78032798548520E+0000
 20
 5.35615101519215E+0000
 11
 5.78032798548520E+0000
 21
 5.29574737772055E+0000
  0
LINE
  8
1
  6
CONTINUOUS
 62
     1
 10
 5.78887291723368E+0000
 20
 5.29752954807191E+0000
 11
 5.78032798548520E+0000
 21
 5.30607447982038E+0000
  0
LINE
  8
1
  6
CONTINUOUS
 62
     1
 10
 5.80596278072335E+0000
 20
 5.30109388876735E+0000
 11
 5.78032798548520E+0000
 21
 5.32672868400550E+0000
  0
LINE
  8
1
  6
CONTINUOUS
 62
     1
 10
 5.82305264421302E+0000
 20
 5.30465822946280E+0000
 11
 5.78032798548520E+0000
 21
 5.34738288819062E+0000
  0
LINE
  8
1
  6
CONTINUOUS
 62
     1
 10
 5.84014250770997E+0000
 20
 5.30822257015825E+0000
 11
 5.79465965367854E+0000
 21
 5.35370542418241E+0000
  0
LINE
  8
1
  6
CONTINUOUS
 62
     1
 10
 5.85723237119964E+0000
 20
 5.31178691084642E+0000
 11
 5.81956351359986E+0000
 21
 5.34945576844621E+0000
  0
LINE
  8
1
  6
CONTINUOUS
 62
     1
 10
 5.87432223468932E+0000
 20
 5.31535125154187E+0000
 11
 5.84446737352118E+0000
 21
 5.34520611271000E+0000
  0
LINE
  8
1
  6
CONTINUOUS
 62
     1
 10
 5.89141209817899E+0000
 20
 5.31891559223732E+0000
 11
 5.86937123344251E+0000
 21
 5.34095645698108E+0000
  0
LINE
  8
1
  6
CONTINUOUS
 62
     1
 10
 5.90850196166866E+0000
 20
 5.32247993293277E+0000
 11
 5.89427509335655E+0000
 21
 5.33670680124487E+0000
  0
LINE
  8
1
  6
CONTINUOUS
 62
     1
 10
 5.92559182515834E+0000
 20
 5.32604427362821E+0000
 11
 5.91917895327788E+0000
 21
 5.33245714550867E+0000
  0
LINE
  8
1
  6
CONTINUOUS
 62
     1
 10
 5.93079557319288E+0000
 20
 5.33047485699353E+0000
 11
 5.92656873960368E+0000
 21
 5.32624802340433E+0000
  0
LINE
  8
1
  6
CONTINUOUS
 62
     1
 10
 5.91315209533786E+0000
 20
 5.33348558332364E+0000
 11
 5.90047159457026E+0000
 21
 5.32080508255603E+0000
  0
LINE
  8
1
  6
CONTINUOUS
 62
     1
 10
 5.89550861748285E+0000
 20
 5.33649630965374E+0000
 11
 5.87437444953684E+0000
 21
 5.31536214170774E+0000
  0
LINE
  8
1
  6
CONTINUOUS
 62
     1
 10
 5.87786513962783E+0000
 20
 5.33950703598384E+0000
 11
 5.84827730450343E+0000
 21
 5.30991920086672E+0000
  0
LINE
  8
1
  6
CONTINUOUS
 62
     1
 10
 5.86022166177281E+0000
 20
 5.34251776232122E+0000
 11
 5.82218015947001E+0000
 21
 5.30447626001842E+0000
  0
LINE
  8
1
  6
CONTINUOUS
 62
     1
 10
 5.84257818392507E+0000
 20
 5.34552848865133E+0000
 11
 5.79608301443659E+0000
 21
 5.29903331917012E+0000
  0
LINE
  8
1
  6
CONTINUOUS
 62
     1
 10
 5.82493470607005E+0000
 20
 5.34853921498143E+0000
 11
 5.78032798547792E+0000
 21
 5.30393249438930E+0000
  0
LINE
  8
1
  6
CONTINUOUS
 62
     1
 10
 5.80729122821504E+0000
 20
 5.35154994131153E+0000
 11
 5.78032798547792E+0000
 21
 5.32458669857442E+0000
  0
LINE
  8
1
  6
CONTINUOUS
 62
     1
 10
 5.78964775036002E+0000
 20
 5.35456066764891E+0000
 11
 5.78032798547792E+0000
 21
 5.34524090275954E+0000
  0
TEXT
  8
1
 62
     1
 10
 5.94030922590173E+0000
 20
 5.36395702017035E+0000
 40
 1.18110236219991E-0001
  1
3
  7
STANDARD
 11
 5.94030922590173E+0000
 21
 5.48206725638738E+0000
 50
 0.00000000000000E+0000
 41
 3.08371993680339E-0001
  0
TEXT
  8
1
 62
     1
 10
 5.40931283948157E+0000
 20
 3.99384383210054E+0000
 40
 1.18110236219991E-0001
  1
8.5
  7
STANDARD
 11
 5.40931283948157E+0000
 21
 4.11195406832121E+0000
 50
 9.00000000000000E+0001
 41
 2.56976661400131E-0001
  0
TEXT
  8
1
 62
     1
 10
 6.24505497811333E+0000
 20
 3.97532878901620E+0000
 40
 1.18110236219991E-0001
  1
39
  7
STANDARD
 11
 6.24505497811333E+0000
 21
 4.09343902523688E+0000
 50
 9.00000000000000E+0001
 41
 3.08371993680339E-0001
  0
TEXT
  8
1
 62
     1
 10
 9.05075793412107E+0000
 20
 4.02108391735055E-0001
 40
 1.18110236219991E-0001
  1
(c)
  7
STANDARD
 11
 9.05075793412107E+0000
 21
 5.20218627954819E-0001
 50
 0.00000000000000E+0000
 41
 2.05581329120378E-0001
0
ENDSEC
0
EOF
