0
SECTION
  2
HEADER
  9
$LTSCALE
 40
     10
  9
$LIMMIN
 10
     0.0
 20
     0.0
  9
$LIMMAX
 10
      11.5
 20
       8.0
  9
$EXTMIN
 10
     0.0
 20
     0.0
  9
$EXTMAX
 10
      11.5
 20
       8.0
   9
$CLAYER
   8
1
   9
$CECOLOR
  62
     7
   9
$CELTYPE
   6
CONTINUOUS
  0
ENDSEC
  0
SECTION
  2
TABLES
  0
TABLE
  2
LTYPE
 70
    10
  0
LTYPE
  2
CONTINUOUS
 70
    64
  3
Solid line
 72
    65
 73
     0
 40
0.0
  0
LTYPE
  2
DASHED
 70
     0
  3
__ __ __ __ __ __ __ __ __ __ __ __ __ __ __
 72
    65
 73
     2
 40
0.75
 49
0.5
 49
-0.25
  0
LTYPE
  2
HIDDEN
 70
     0
  3
_ _ _ _ _ _ _ _ _ _ _ _ _ _ _ _ _ _ _ _ _ _
 72
    65
 73
     2
 40
0.375
 49
0.25
 49
-0.125
  0
LTYPE
  2
CENTER
 70
     0
  3
____ _ ____ _ ____ _ ____ _ ____ _ ____ _ __
 72
    65
 73
     4
 40
2.0
 49
1.25
 49
-0.25
 49
0.25
 49
-0.25
  0
LTYPE
  2
PHANTOM
 70
     0
  3
_____ _ _ _____ _ _ _____ _ _ _____ _ _ ____
 72
    65
 73
     6
 40
2.5
 49
1.25
 49
-0.25
 49
0.25
 49
-0.25
 49
0.25
 49
-0.25
  0
LTYPE
  2
DOT
 70
     0
  3
............................................
 72
    65
 73
     2
 40
0.25
 49
0.0
 49
-0.25
  0
LTYPE
  2
DASHDOT
 70
     0
  3
__ . __ . __ . __ . __ . __ . __ . __ . __ .
 72
    65
 73
     4
 40
1.0
 49
0.5
 49
-0.25
 49
0.0
 49
-0.25
  0
LTYPE
  2
BORDER
 70
     0
  3
__ __ . __ __ . __ __ . __ __ . __ __ . __ _
 72
    65
 73
     6
 40
1.75
 49
0.5
 49
-0.25
 49
0.5
 49
-0.25
 49
0.0
 49
-0.25
  0
LTYPE
  2
DIVIDE
 70
     0
  3
__ . . __ . . __ . . __ . . __ . . __ . . __
 72
    65
 73
     6
 40
1.25
 49
0.5
 49
-0.25
 49
0.0
 49
-0.25
 49
0.0
 49
-0.25
  0
LTYPE
  2
DIVIDE2
 70
     0
  3
close
 72
    65
 73
     2
 40
0.1
 49
0.05
 49
-0.05
  0
ENDTAB
0
TABLE
  2
LAYER
 70
   256
  0
LAYER
  2
1
 70
     0
  6
CONTINUOUS
 62
1
  0
ENDTAB
  0
TABLE
  2
STYLE
 70
     8
  0
STYLE
  2
TXT
 70
0
 40
0.0
 41
1.0
 50
0.0
 71
0
 42
1.0
  3
TXT
  4

  0
STYLE
  2
COMPLEX
 70
0
 40
0.0
 41
1.0
 50
0.0
 71
0
 42
1.0
  3
COMPLEX
  4

  0
STYLE
  2
ITALIC
 70
0
 40
0.0
 41
1.0
 50
0.0
 71
0
 42
1.0
  3
ITALIC
  4

  0
STYLE
  2
SIMPLEX
70
0
 40
0.0
 41
1.0
 50
0.0
 71
0
 42
1.0
  3
SIMPLEX
  4

  0
STYLE
  2
MONOTXT
 70
0
 40
0.0
 41
1.0
 50
0.0
 71
0
 42
1.0
  3
MONOTXT
  4

  0
STYLE
  2
SCRIPTC
 70
0
 40
0.0
 41
1.0
 50
0.0
 71
0
 42
1.0
  3
SCRIPTC
  4

  0
STYLE
  2
GOTHICE
 70
0
 40
0.0
 41
1.0
 50
0.0
 71
0
 42
1.0
  3
GOTHICE
  4

  0
ENDTAB
  0
TABLE
  2
VIEW
 70
     0
  0
ENDTAB
  0
ENDSEC
  0
SECTION
  2
ENTITIES
  0
LINE
  8
1
  6
CONTINUOUS
 62
     1
 10
 1.10824245900876E+0001
 20
 3.66054472739052E-0001
 11
 8.90078496305796E+0000
 21
 3.66054472739052E-0001
  0
LINE
  8
1
  6
CONTINUOUS
 62
     1
 10
 8.90078496305796E+0000
 20
 3.66054472739052E-0001
 11
 8.90078496305796E+0000
 21
 1.55291635594767E+0000
  0
LINE
  8
1
  6
CONTINUOUS
 62
     1
 10
 8.90078496305796E+0000
 20
 1.55291635594767E+0000
 11
 1.10824245900876E+0001
 21
 1.55291635594767E+0000
  0
LINE
  8
1
  6
CONTINUOUS
 62
     1
 10
 1.10824245900876E+0001
 20
 1.55291635594767E+0000
 11
 1.10824245900876E+0001
 21
 3.66054472739052E-0001
  0
LINE
  8
1
  6
CONTINUOUS
 62
     1
 10
 8.90010336294654E+0000
 20
 1.23953147667635E+0000
 11
 1.10833476808330E+0001
 21
 1.23953147667635E+0000
  0
LINE
  8
1
  6
CONTINUOUS
 62
     1
 10
 8.90774062665878E+0000
 20
 5.23861750931246E-0001
 11
 1.10909849445452E+0001
 21
 5.23861750931246E-0001
  0
TEXT
  8
1
 62
     1
 10
 8.94823287868348E+0000
 20
 1.35143637997317E+0000
 40
 1.18110236219991E-0001
  1
Benennung
  7
STANDARD
 11
 8.94823287868348E+0000
 21
 1.46954661619384E+0000
 50
 0.00000000000000E+0000
 41
 3.16937882393631E-0001
  0
LINE
  8
1
  6
CONTINUOUS
 62
     1
 10
 9.57264299190138E+0000
 20
 1.55147486233909E+0000
 11
 9.57264299190138E+0000
 21
 1.23953147667635E+0000
  0
LINE
  8
1
  6
CONTINUOUS
 62
     1
 10
 8.90010336294654E+0000
 20
 1.07349709398113E+0000
 11
 1.10833476808330E+0001
 21
 1.07349709398113E+0000
  0
LINE
  8
1
  6
CONTINUOUS
 62
     1
 10
 8.90010336294654E+0000
 20
 9.07462711285916E-0001
 11
 1.10833476808330E+0001
 21
 9.07462711285916E-0001
  0
TEXT
  8
1
 62
     1
 10
 8.95298969198484E+0000
 20
 1.08890528919073E+0000
 40
 1.18110236219991E-0001
  1
Werkstoff
  7
STANDARD
 11
 8.95298969198484E+0000
 21
 1.20701552541141E+0000
 50
 0.00000000000000E+0000
 41
 2.56976661400131E-0001
  0
LINE
  8
1
  6
CONTINUOUS
 62
     1
 10
 9.57264299190138E+0000
 20
 1.23953147667635E+0000
 11
 9.57264299190138E+0000
 21
 1.07349709398113E+0000
  0
LINE
  8
1
  6
CONTINUOUS
 62
     1
 10
 1.05011491960613E+0001
 20
 1.23953147667635E+0000
 11
 1.05011491960613E+0001
 21
 1.07349709398113E+0000
  0
TEXT
  8
1
 62
     1
 10
 1.05670323736267E+0001
 20
 1.08890528919073E+0000
 40
 1.18110236219991E-0001
  1
M 1:1
  7
STANDARD
 11
 1.05670323736267E+0001
 21
 1.20701552541141E+0000
 50
 0.00000000000000E+0000
 41
 2.62116194628561E-0001
  0
LINE
  8
1
  6
CONTINUOUS
 62
     1
 10
 8.90078496305796E+0000
 20
 1.55291635594767E+0000
 11
 1.10883666332957E+0001
 21
 1.55291635594767E+0000
  0
LINE
  8
1
  6
CONTINUOUS
 62
     1
 10
 8.90078496305796E+0000
 20
 1.55291635594767E+0000
 11
 1.10824245900876E+0001
 21
 1.55291635594767E+0000
  0
LINE
  8
1
  6
CONTINUOUS
 62
     1
 10
 1.10824245900876E+0001
 20
 1.55291635594767E+0000
 11
 1.10824245900876E+0001
 21
 3.66054472739052E-0001
  0
LINE
  8
1
  6
CONTINUOUS
 62
     1
 10
 1.10824245900876E+0001
 20
 3.66054472739052E-0001
 11
 8.90078496305796E+0000
 21
 3.66054472739052E-0001
  0
LINE
  8
1
  6
CONTINUOUS
 62
     1
 10
 8.90078496305796E+0000
 20
 3.66054472739052E-0001
 11
 8.90078496305796E+0000
 21
 1.55291635594767E+0000
  0
TEXT
  8
1
 62
     1
 10
 8.94643199958955E+0000
 20
 9.29817355409796E-0001
 40
 1.18110236219991E-0001
  1
Bearb.
  7
STANDARD
 11
 8.94643199958955E+0000
 21
 1.04792759162956E+0000
 50
 0.00000000000000E+0000
 41
 2.69825494470297E-0001
  0
LINE
  8
1
  6
CONTINUOUS
 62
     1
 10
 9.57372805119667E+0000
 20
 1.07462383869279E+0000
 11
 9.57372805119667E+0000
 21
 9.08513856978971E-0001
  0
LINE
  8
1
  6
CONTINUOUS
 62
     1
 10
 8.90204784499656E+0000
 20
 7.36471375930705E-0001
 11
 1.10827893074456E+0001
 21
 7.36471375930705E-0001
  0
LINE
  8
1
  6
CONTINUOUS
 62
     1
 10
 9.57372805119667E+0000
 20
 9.08513856978971E-0001
 11
 9.57372805119667E+0000
 21
 7.36471375930705E-0001
  0
TEXT
  8
1
 62
     1
 10
 8.94643199958955E+0000
 20
 7.54808624687030E-0001
 40
 1.18110236219991E-0001
  1
Datum
  7
STANDARD
 11
 8.94643199958955E+0000
 21
 8.72918860906793E-0001
 50
 0.00000000000000E+0000
 41
 3.23790593364265E-0001
  0
LINE
  8
1
  6
CONTINUOUS
 62
     1
 10
 1.04998774104170E+0001
 20
 5.19935149772209E-0001
 11
 1.04998774104170E+0001
 21
 3.68656416430895E-0001
  0
TEXT
  8
1
 62
     1
 10
 9.62994798035652E+0000
 20
 9.20918606393570E-0001
 40
 1.18110236219991E-0001
  1
D.Freind
  7
STANDARD
 11
 9.62994798035652E+0000
 21
 1.03902884261333E+0000
 50
 0.00000000000000E+0000
 41
 2.60188869667672E-0001
  0
TEXT
  8
1
 62
     1
 10
 1.05235489595507E+0001
 20
 3.84027415512719E-0001
 40
 1.18110236219991E-0001
  1
Blatt
  7
STANDARD
 11
 1.05235489595507E+0001
 21
 5.02137651732482E-0001
 50
 0.00000000000000E+0000
 41
 2.31278995260254E-0001
  0
TEXT
  8
1
 62
     1
 10
 9.04969655426976E+0000
 20
 5.46297824291287E-0001
 40
 1.18110236219991E-0001
  1
für Revolver 8-fach 
  7
STANDARD
 11
 9.04969655426976E+0000
 21
 6.64408060511050E-0001
 50
 0.00000000000000E+0000
 41
 2.35133645181349E-0001
  0
TEXT
  8
1
 62
     1
 10
 9.21082705671142E+0000
 20
 3.93308872470698E-0001
 40
 1.18110236219991E-0001
  1
www.cnc-projects.de.vu
  7
STANDARD
 11
 9.21082705671142E+0000
 21
 5.11419108690461E-0001
 50
 0.00000000000000E+0000
 41
 2.66321267269177E-0001
  0
LINE
  8
1
  6
DASHDOT
 62
     1
 10
 2.63228630013691E+0000
 20
 3.56185816472134E+0000
 11
 8.48892605409492E+0000
 21
 3.56185816472134E+0000
  0
LINE
  8
1
  6
DASHDOT
 62
     1
 10
 6.59953811817104E+0000
 20
 4.59879384156375E+0000
 11
 6.59953811817104E+0000
 21
 2.56873667139735E+0000
  0
CIRCLE
  8
1
  6
CONTINUOUS
 62
     1
 10
 6.60022591260349E+0000
 20
 3.55848989220976E+0000
 40
 4.89340885142155E-0001
  0
CIRCLE
  8
1
  6
CONTINUOUS
 62
     1
 10
 6.60022591259622E+0000
 20
 3.55848989220976E+0000
 40
 3.21129955875222E-0001
  0
CIRCLE
  8
1
  6
CONTINUOUS
 62
     1
 10
 6.60022591263260E+0000
 20
 3.55848989220976E+0000
 40
 1.14689269954397E-0001
  0
LINE
  8
1
  6
CONTINUOUS
 62
     1
 10
 4.22116253013519E+0000
 20
 4.04903902645310E+0000
 11
 4.22116253013519E+0000
 21
 3.07560558818295E+0000
  0
LINE
  8
1
  6
CONTINUOUS
 62
     1
 10
 4.22116253013519E+0000
 20
 3.07560558818295E+0000
 11
 5.00869551716460E+0000
 21
 3.07560558818295E+0000
  0
LINE
  8
1
  6
CONTINUOUS
 62
     1
 10
 5.00869551716460E+0000
 20
 3.07560558818295E+0000
 11
 5.00869551716460E+0000
 21
 4.04903902645310E+0000
  0
LINE
  8
1
  6
CONTINUOUS
 62
     1
 10
 5.00869551716460E+0000
 20
 4.04903902645310E+0000
 11
 4.22116253013519E+0000
 21
 4.04903902645310E+0000
  0
LINE
  8
1
  6
DASHDOT
 62
     1
 10
 4.22091351077688E+0000
 20
 3.87922360047378E+0000
 11
 4.34045041651552E+0000
 21
 3.87922360047378E+0000
  0
LINE
  8
1
  6
DASHDOT
 62
     1
 10
 4.34045041651552E+0000
 20
 3.87922360047378E+0000
 11
 4.34045041651552E+0000
 21
 3.24261578919686E+0000
  0
LINE
  8
1
  6
DASHDOT
 62
     1
 10
 4.34045041651552E+0000
 20
 3.24261578919686E+0000
 11
 4.22091351077688E+0000
 21
 3.24261578919686E+0000
  0
LINE
  8
1
  6
DASHDOT
 62
     1
 10
 4.34045041651552E+0000
 20
 3.44857713990496E+0000
 11
 5.00910998300242E+0000
 21
 3.44857713990496E+0000
  0
LINE
  8
1
  6
DASHDOT
 62
     1
 10
 4.34045041651552E+0000
 20
 3.67326224976568E+0000
 11
 5.00910998300242E+0000
 21
 3.67326224976568E+0000
  0
LINE
  8
1
  6
CONTINUOUS
 62
     1
 10
 4.22116253013519E+0000
 20
 4.04903902645310E+0000
 11
 4.22116253013519E+0000
 21
 4.49710765261261E+0000
  0
LINE
  8
1
  6
CONTINUOUS
 62
     1
 10
 4.22116253013519E+0000
 20
 4.49710765261261E+0000
 11
 5.00537445469672E+0000
 21
 4.49710765261261E+0000
  0
LINE
  8
1
  6
CONTINUOUS
 62
     1
 10
 5.00537445469672E+0000
 20
 4.49710765261261E+0000
 11
 5.00537445469672E+0000
 21
 4.04773743287660E+0000
  0
LINE
  8
1
  6
CONTINUOUS
 62
     1
 10
 6.48547282884829E+0000
 20
 3.56300966833805E+0000
 11
 6.48547282884829E+0000
 21
 4.21594304931932E+0000
  0
LINE
  8
1
  6
CONTINUOUS
 62
     1
 10
 6.48547282884829E+0000
 20
 4.21594304931932E+0000
 11
 6.70969952695305E+0000
 21
 4.21594304931932E+0000
  0
LINE
  8
1
  6
CONTINUOUS
 62
     1
 10
 6.70969952695305E+0000
 20
 4.21594304931932E+0000
 11
 6.70969952695305E+0000
 21
 3.56300966833805E+0000
  0
LINE
  8
1
  6
CONTINUOUS
 62
     1
 10
 6.27904190043046E+0000
 20
 3.56300966833805E+0000
 11
 6.27904190043046E+0000
 21
 4.39077220597392E+0000
  0
LINE
  8
1
  6
CONTINUOUS
 62
     1
 10
 6.27904190043046E+0000
 20
 4.39077220597392E+0000
 11
 6.91613045537088E+0000
 21
 4.39077220597392E+0000
  0
LINE
  8
1
  6
CONTINUOUS
 62
     1
 10
 6.91613045537088E+0000
 20
 4.39077220597392E+0000
 11
 6.91613045537088E+0000
 21
 3.56300966833805E+0000
  0
LINE
  8
1
  6
CONTINUOUS
 62
     1
 10
 6.11176166534278E+0000
 20
 3.56300966833805E+0000
 11
 6.11176166534278E+0000
 21
 4.56560136262851E+0000
  0
LINE
  8
1
  6
CONTINUOUS
 62
     1
 10
 6.11176166534278E+0000
 20
 4.56560136262851E+0000
 11
 7.08696984440030E+0000
 21
 4.56560136262851E+0000
  0
LINE
  8
1
  6
CONTINUOUS
 62
     1
 10
 7.08696984440030E+0000
 20
 4.56560136262851E+0000
 11
 7.08696984440030E+0000
 21
 3.56300966833805E+0000
  0
LINE
  8
1
  6
CONTINUOUS
 62
     1
 10
 4.34150424673135E+0000
 20
 3.24189489080163E+0000
 11
 4.34150424673135E+0000
 21
 2.74238301463629E+0000
  0
LINE
  8
1
  6
CONTINUOUS
 62
     1
 10
 4.34150424673135E+0000
 20
 2.74238301463629E+0000
 11
 4.22049301284278E+0000
 21
 2.74238301463629E+0000
  0
LINE
  8
1
  6
CONTINUOUS
 62
     1
 10
 4.22049301284278E+0000
 20
 2.74238301463629E+0000
 11
 4.22049301284278E+0000
 21
 3.07420161808841E+0000
  0
LINE
  8
1
  6
CONTINUOUS
 62
     1
 10
 4.22084441519837E+0000
 20
 4.49841981365898E+0000
 11
 4.22084441519837E+0000
 21
 4.49841981365898E+0000
  0
LINE
  8
1
  6
CONTINUOUS
 62
     1
 10
 4.22084441519837E+0000
 20
 4.49841981365898E+0000
 11
 4.38013374184811E+0000
 21
 4.47123829229531E+0000
  0
LINE
  8
1
  6
CONTINUOUS
 62
     1
 10
 4.38013374184811E+0000
 20
 4.47123829229531E+0000
 11
 4.38013374184811E+0000
 21
 4.53164192976692E+0000
  0
LINE
  8
1
  6
CONTINUOUS
 62
     1
 10
 4.38013374184811E+0000
 20
 4.53164192976692E+0000
 11
 4.22084441519837E+0000
 21
 4.49841981365898E+0000
  0
LINE
  8
1
  6
CONTINUOUS
 62
     1
 10
 4.38013374184811E+0000
 20
 4.47123829229531E+0000
 11
 4.38013374184811E+0000
 21
 4.53164192976692E+0000
  0
LINE
  8
1
  6
CONTINUOUS
 62
     1
 10
 4.23329634516267E+0000
 20
 4.49629498579452E+0000
 11
 4.22938934694685E+0000
 21
 4.50020198401035E+0000
  0
LINE
  8
1
  6
CONTINUOUS
 62
     1
 10
 4.25820020507672E+0000
 20
 4.49204533005832E+0000
 11
 4.24647921043652E+0000
 21
 4.50376632470579E+0000
  0
LINE
  8
1
  6
CONTINUOUS
 62
     1
 10
 4.28310406499804E+0000
 20
 4.48779567432211E+0000
 11
 4.26356907392619E+0000
 21
 4.50733066539397E+0000
  0
LINE
  8
1
  6
CONTINUOUS
 62
     1
 10
 4.30800792491937E+0000
 20
 4.48354601859319E+0000
 11
 4.28065893741586E+0000
 21
 4.51089500608941E+0000
  0
LINE
  8
1
  6
CONTINUOUS
 62
     1
 10
 4.33291178484069E+0000
 20
 4.47929636285699E+0000
 11
 4.29774880090554E+0000
 21
 4.51445934678486E+0000
  0
LINE
  8
1
  6
CONTINUOUS
 62
     1
 10
 4.35781564475474E+0000
 20
 4.47504670712078E+0000
 11
 4.31483866440249E+0000
 21
 4.51802368748031E+0000
  0
LINE
  8
1
  6
CONTINUOUS
 62
     1
 10
 4.38013374185539E+0000
 20
 4.47338281421253E+0000
 11
 4.33192852789216E+0000
 21
 4.52158802817576E+0000
  0
LINE
  8
1
  6
CONTINUOUS
 62
     1
 10
 4.38013374184811E+0000
 20
 4.49403701839765E+0000
 11
 4.34901839138183E+0000
 21
 4.52515236887120E+0000
  0
LINE
  8
1
  6
CONTINUOUS
 62
     1
 10
 4.38013374184811E+0000
 20
 4.51469122258277E+0000
 11
 4.36610825487151E+0000
 21
 4.52871670956665E+0000
  0
LINE
  8
1
  6
CONTINUOUS
 62
     1
 10
 4.38013374184084E+0000
 20
 4.48156539438060E+0000
 11
 4.37131200292060E+0000
 21
 4.47274365546036E+0000
  0
LINE
  8
1
  6
CONTINUOUS
 62
     1
 10
 4.38013374184084E+0000
 20
 4.50221959856572E+0000
 11
 4.35366852506559E+0000
 21
 4.47575438179047E+0000
  0
LINE
  8
1
  6
CONTINUOUS
 62
     1
 10
 4.38013374184084E+0000
 20
 4.52287380275811E+0000
 11
 4.33602504721057E+0000
 21
 4.47876510812057E+0000
  0
LINE
  8
1
  6
CONTINUOUS
 62
     1
 10
 4.36511536218313E+0000
 20
 4.52850962727825E+0000
 11
 4.31838156935555E+0000
 21
 4.48177583445067E+0000
  0
LINE
  8
1
  6
CONTINUOUS
 62
     1
 10
 4.33901821715699E+0000
 20
 4.52306668643723E+0000
 11
 4.30073809150053E+0000
 21
 4.48478656078805E+0000
  0
LINE
  8
1
  6
CONTINUOUS
 62
     1
 10
 4.31292107212357E+0000
 20
 4.51762374558893E+0000
 11
 4.28309461365279E+0000
 21
 4.48779728711816E+0000
  0
LINE
  8
1
  6
CONTINUOUS
 62
     1
 10
 4.28682392709743E+0000
 20
 4.51218080474791E+0000
 11
 4.26545113579778E+0000
 21
 4.49080801344826E+0000
  0
LINE
  8
1
  6
CONTINUOUS
 62
     1
 10
 4.26072678206401E+0000
 20
 4.50673786389962E+0000
 11
 4.24780765794276E+0000
 21
 4.49381873977836E+0000
  0
LINE
  8
1
  6
CONTINUOUS
 62
     1
 10
 4.23462963703059E+0000
 20
 4.50129492305132E+0000
 11
 4.23016418008774E+0000
 21
 4.49682946610847E+0000
  0
LINE
  8
1
  6
CONTINUOUS
 62
     1
 10
 4.22084441519837E+0000
 20
 4.49841981365898E+0000
 11
 4.22084441519837E+0000
 21
 4.49841981365898E+0000
  0
LINE
  8
1
  6
CONTINUOUS
 62
     1
 10
 4.22084441519837E+0000
 20
 4.49841981365898E+0000
 11
 4.38013374184811E+0000
 21
 4.47123829229531E+0000
  0
LINE
  8
1
  6
CONTINUOUS
 62
     1
 10
 4.38013374184811E+0000
 20
 4.47123829229531E+0000
 11
 4.38013374184811E+0000
 21
 4.53164192976692E+0000
  0
LINE
  8
1
  6
CONTINUOUS
 62
     1
 10
 4.38013374184811E+0000
 20
 4.53164192976692E+0000
 11
 4.22084441519837E+0000
 21
 4.49841981365898E+0000
  0
LINE
  8
1
  6
CONTINUOUS
 62
     1
 10
 4.38013374184811E+0000
 20
 4.47123829229531E+0000
 11
 4.38013374184811E+0000
 21
 4.53164192976692E+0000
  0
LINE
  8
1
  6
CONTINUOUS
 62
     1
 10
 4.23329634516267E+0000
 20
 4.49629498579452E+0000
 11
 4.22938934694685E+0000
 21
 4.50020198401035E+0000
  0
LINE
  8
1
  6
CONTINUOUS
 62
     1
 10
 4.25820020507672E+0000
 20
 4.49204533005832E+0000
 11
 4.24647921043652E+0000
 21
 4.50376632470579E+0000
  0
LINE
  8
1
  6
CONTINUOUS
 62
     1
 10
 4.28310406499804E+0000
 20
 4.48779567432211E+0000
 11
 4.26356907392619E+0000
 21
 4.50733066539397E+0000
  0
LINE
  8
1
  6
CONTINUOUS
 62
     1
 10
 4.30800792491937E+0000
 20
 4.48354601859319E+0000
 11
 4.28065893741586E+0000
 21
 4.51089500608941E+0000
  0
LINE
  8
1
  6
CONTINUOUS
 62
     1
 10
 4.33291178484069E+0000
 20
 4.47929636285699E+0000
 11
 4.29774880090554E+0000
 21
 4.51445934678486E+0000
  0
LINE
  8
1
  6
CONTINUOUS
 62
     1
 10
 4.35781564475474E+0000
 20
 4.47504670712078E+0000
 11
 4.31483866440249E+0000
 21
 4.51802368748031E+0000
  0
LINE
  8
1
  6
CONTINUOUS
 62
     1
 10
 4.38013374185539E+0000
 20
 4.47338281421253E+0000
 11
 4.33192852789216E+0000
 21
 4.52158802817576E+0000
  0
LINE
  8
1
  6
CONTINUOUS
 62
     1
 10
 4.38013374184811E+0000
 20
 4.49403701839765E+0000
 11
 4.34901839138183E+0000
 21
 4.52515236887120E+0000
  0
LINE
  8
1
  6
CONTINUOUS
 62
     1
 10
 4.38013374184811E+0000
 20
 4.51469122258277E+0000
 11
 4.36610825487151E+0000
 21
 4.52871670956665E+0000
  0
LINE
  8
1
  6
CONTINUOUS
 62
     1
 10
 4.38013374184084E+0000
 20
 4.48156539438060E+0000
 11
 4.37131200292060E+0000
 21
 4.47274365546036E+0000
  0
LINE
  8
1
  6
CONTINUOUS
 62
     1
 10
 4.38013374184084E+0000
 20
 4.50221959856572E+0000
 11
 4.35366852506559E+0000
 21
 4.47575438179047E+0000
  0
LINE
  8
1
  6
CONTINUOUS
 62
     1
 10
 4.38013374184084E+0000
 20
 4.52287380275811E+0000
 11
 4.33602504721057E+0000
 21
 4.47876510812057E+0000
  0
LINE
  8
1
  6
CONTINUOUS
 62
     1
 10
 4.36511536218313E+0000
 20
 4.52850962727825E+0000
 11
 4.31838156935555E+0000
 21
 4.48177583445067E+0000
  0
LINE
  8
1
  6
CONTINUOUS
 62
     1
 10
 4.33901821715699E+0000
 20
 4.52306668643723E+0000
 11
 4.30073809150053E+0000
 21
 4.48478656078805E+0000
  0
LINE
  8
1
  6
CONTINUOUS
 62
     1
 10
 4.31292107212357E+0000
 20
 4.51762374558893E+0000
 11
 4.28309461365279E+0000
 21
 4.48779728711816E+0000
  0
LINE
  8
1
  6
CONTINUOUS
 62
     1
 10
 4.28682392709743E+0000
 20
 4.51218080474791E+0000
 11
 4.26545113579778E+0000
 21
 4.49080801344826E+0000
  0
LINE
  8
1
  6
CONTINUOUS
 62
     1
 10
 4.26072678206401E+0000
 20
 4.50673786389962E+0000
 11
 4.24780765794276E+0000
 21
 4.49381873977836E+0000
  0
LINE
  8
1
  6
CONTINUOUS
 62
     1
 10
 4.23462963703059E+0000
 20
 4.50129492305132E+0000
 11
 4.23016418008774E+0000
 21
 4.49682946610847E+0000
  0
LINE
  8
1
  6
CONTINUOUS
 62
     1
 10
 4.99880474209203E+0000
 20
 4.49944271084678E+0000
 11
 4.99880474209203E+0000
 21
 4.49944271084678E+0000
  0
LINE
  8
1
  6
CONTINUOUS
 62
     1
 10
 4.99880474209203E+0000
 20
 4.49944271084678E+0000
 11
 4.83951541545684E+0000
 21
 4.52662423221045E+0000
  0
LINE
  8
1
  6
CONTINUOUS
 62
     1
 10
 4.83951541545684E+0000
 20
 4.52662423221045E+0000
 11
 4.83951541545684E+0000
 21
 4.46622059473884E+0000
  0
LINE
  8
1
  6
CONTINUOUS
 62
     1
 10
 4.83951541545684E+0000
 20
 4.46622059473884E+0000
 11
 4.99880474209203E+0000
 21
 4.49944271084678E+0000
  0
LINE
  8
1
  6
CONTINUOUS
 62
     1
 10
 4.83951541545684E+0000
 20
 4.52662423221045E+0000
 11
 4.83951541545684E+0000
 21
 4.46622059473884E+0000
  0
LINE
  8
1
  6
CONTINUOUS
 62
     1
 10
 4.84806034720532E+0000
 20
 4.46800276509020E+0000
 11
 4.83951541545684E+0000
 21
 4.47654769683140E+0000
  0
LINE
  8
1
  6
CONTINUOUS
 62
     1
 10
 4.86515021069499E+0000
 20
 4.47156710578565E+0000
 11
 4.83951541545684E+0000
 21
 4.49720190102380E+0000
  0
LINE
  8
1
  6
CONTINUOUS
 62
     1
 10
 4.88224007418466E+0000
 20
 4.47513144648110E+0000
 11
 4.83951541545684E+0000
 21
 4.51785610520892E+0000
  0
LINE
  8
1
  6
CONTINUOUS
 62
     1
 10
 4.89932993768161E+0000
 20
 4.47869578716927E+0000
 11
 4.85384708365018E+0000
 21
 4.52417864120071E+0000
  0
LINE
  8
1
  6
CONTINUOUS
 62
     1
 10
 4.91641980117129E+0000
 20
 4.48226012786472E+0000
 11
 4.87875094357150E+0000
 21
 4.51992898546450E+0000
  0
LINE
  8
1
  6
CONTINUOUS
 62
     1
 10
 4.93350966466096E+0000
 20
 4.48582446856017E+0000
 11
 4.90365480349283E+0000
 21
 4.51567932972830E+0000
  0
LINE
  8
1
  6
CONTINUOUS
 62
     1
 10
 4.95059952815063E+0000
 20
 4.48938880925562E+0000
 11
 4.92855866341415E+0000
 21
 4.51142967399937E+0000
  0
LINE
  8
1
  6
CONTINUOUS
 62
     1
 10
 4.96768939164031E+0000
 20
 4.49295314995106E+0000
 11
 4.95346252332820E+0000
 21
 4.50718001826317E+0000
  0
LINE
  8
1
  6
CONTINUOUS
 62
     1
 10
 4.98477925512998E+0000
 20
 4.49651749064651E+0000
 11
 4.97836638324952E+0000
 21
 4.50293036252697E+0000
  0
LINE
  8
1
  6
CONTINUOUS
 62
     1
 10
 4.98998300316453E+0000
 20
 4.50094807401183E+0000
 11
 4.98575616957532E+0000
 21
 4.49672124042263E+0000
  0
LINE
  8
1
  6
CONTINUOUS
 62
     1
 10
 4.97233952530951E+0000
 20
 4.50395880034193E+0000
 11
 4.95965902454191E+0000
 21
 4.49127829957433E+0000
  0
LINE
  8
1
  6
CONTINUOUS
 62
     1
 10
 4.95469604745449E+0000
 20
 4.50696952667204E+0000
 11
 4.93356187950849E+0000
 21
 4.48583535872604E+0000
  0
LINE
  8
1
  6
CONTINUOUS
 62
     1
 10
 4.93705256960675E+0000
 20
 4.50998025300942E+0000
 11
 4.90746473447507E+0000
 21
 4.48039241788501E+0000
  0
LINE
  8
1
  6
CONTINUOUS
 62
     1
 10
 4.91940909175173E+0000
 20
 4.51299097933952E+0000
 11
 4.88136758944165E+0000
 21
 4.47494947703672E+0000
  0
LINE
  8
1
  6
CONTINUOUS
 62
     1
 10
 4.90176561389671E+0000
 20
 4.51600170567690E+0000
 11
 4.85527044440823E+0000
 21
 4.46950653618842E+0000
  0
LINE
  8
1
  6
CONTINUOUS
 62
     1
 10
 4.88412213604897E+0000
 20
 4.51901243200700E+0000
 11
 4.83951541544957E+0000
 21
 4.47440571140760E+0000
  0
LINE
  8
1
  6
CONTINUOUS
 62
     1
 10
 4.86647865819396E+0000
 20
 4.52202315833711E+0000
 11
 4.83951541544957E+0000
 21
 4.49505991560000E+0000
  0
LINE
  8
1
  6
CONTINUOUS
 62
     1
 10
 4.84883518033894E+0000
 20
 4.52503388466721E+0000
 11
 4.83951541545684E+0000
 21
 4.51571411978512E+0000
  0
LINE
  8
1
  6
CONTINUOUS
 62
     1
 10
 4.99880474209203E+0000
 20
 4.49944271084678E+0000
 11
 4.99880474209203E+0000
 21
 4.49944271084678E+0000
  0
LINE
  8
1
  6
CONTINUOUS
 62
     1
 10
 4.99880474209203E+0000
 20
 4.49944271084678E+0000
 11
 4.83951541545684E+0000
 21
 4.52662423221045E+0000
  0
LINE
  8
1
  6
CONTINUOUS
 62
     1
 10
 4.83951541545684E+0000
 20
 4.52662423221045E+0000
 11
 4.83951541545684E+0000
 21
 4.46622059473884E+0000
  0
LINE
  8
1
  6
CONTINUOUS
 62
     1
 10
 4.83951541545684E+0000
 20
 4.46622059473884E+0000
 11
 4.99880474209203E+0000
 21
 4.49944271084678E+0000
  0
LINE
  8
1
  6
CONTINUOUS
 62
     1
 10
 4.83951541545684E+0000
 20
 4.52662423221045E+0000
 11
 4.83951541545684E+0000
 21
 4.46622059473884E+0000
  0
LINE
  8
1
  6
CONTINUOUS
 62
     1
 10
 4.84806034720532E+0000
 20
 4.46800276509020E+0000
 11
 4.83951541545684E+0000
 21
 4.47654769683140E+0000
  0
LINE
  8
1
  6
CONTINUOUS
 62
     1
 10
 4.86515021069499E+0000
 20
 4.47156710578565E+0000
 11
 4.83951541545684E+0000
 21
 4.49720190102380E+0000
  0
LINE
  8
1
  6
CONTINUOUS
 62
     1
 10
 4.88224007418466E+0000
 20
 4.47513144648110E+0000
 11
 4.83951541545684E+0000
 21
 4.51785610520892E+0000
  0
LINE
  8
1
  6
CONTINUOUS
 62
     1
 10
 4.89932993768161E+0000
 20
 4.47869578716927E+0000
 11
 4.85384708365018E+0000
 21
 4.52417864120071E+0000
  0
LINE
  8
1
  6
CONTINUOUS
 62
     1
 10
 4.91641980117129E+0000
 20
 4.48226012786472E+0000
 11
 4.87875094357150E+0000
 21
 4.51992898546450E+0000
  0
LINE
  8
1
  6
CONTINUOUS
 62
     1
 10
 4.93350966466096E+0000
 20
 4.48582446856017E+0000
 11
 4.90365480349283E+0000
 21
 4.51567932972830E+0000
  0
LINE
  8
1
  6
CONTINUOUS
 62
     1
 10
 4.95059952815063E+0000
 20
 4.48938880925562E+0000
 11
 4.92855866341415E+0000
 21
 4.51142967399937E+0000
  0
LINE
  8
1
  6
CONTINUOUS
 62
     1
 10
 4.96768939164031E+0000
 20
 4.49295314995106E+0000
 11
 4.95346252332820E+0000
 21
 4.50718001826317E+0000
  0
LINE
  8
1
  6
CONTINUOUS
 62
     1
 10
 4.98477925512998E+0000
 20
 4.49651749064651E+0000
 11
 4.97836638324952E+0000
 21
 4.50293036252697E+0000
  0
LINE
  8
1
  6
CONTINUOUS
 62
     1
 10
 4.98998300316453E+0000
 20
 4.50094807401183E+0000
 11
 4.98575616957532E+0000
 21
 4.49672124042263E+0000
  0
LINE
  8
1
  6
CONTINUOUS
 62
     1
 10
 4.97233952530951E+0000
 20
 4.50395880034193E+0000
 11
 4.95965902454191E+0000
 21
 4.49127829957433E+0000
  0
LINE
  8
1
  6
CONTINUOUS
 62
     1
 10
 4.95469604745449E+0000
 20
 4.50696952667204E+0000
 11
 4.93356187950849E+0000
 21
 4.48583535872604E+0000
  0
LINE
  8
1
  6
CONTINUOUS
 62
     1
 10
 4.93705256960675E+0000
 20
 4.50998025300942E+0000
 11
 4.90746473447507E+0000
 21
 4.48039241788501E+0000
  0
LINE
  8
1
  6
CONTINUOUS
 62
     1
 10
 4.91940909175173E+0000
 20
 4.51299097933952E+0000
 11
 4.88136758944165E+0000
 21
 4.47494947703672E+0000
  0
LINE
  8
1
  6
CONTINUOUS
 62
     1
 10
 4.90176561389671E+0000
 20
 4.51600170567690E+0000
 11
 4.85527044440823E+0000
 21
 4.46950653618842E+0000
  0
LINE
  8
1
  6
CONTINUOUS
 62
     1
 10
 4.88412213604897E+0000
 20
 4.51901243200700E+0000
 11
 4.83951541544957E+0000
 21
 4.47440571140760E+0000
  0
LINE
  8
1
  6
CONTINUOUS
 62
     1
 10
 4.86647865819396E+0000
 20
 4.52202315833711E+0000
 11
 4.83951541544957E+0000
 21
 4.49505991560000E+0000
  0
LINE
  8
1
  6
CONTINUOUS
 62
     1
 10
 4.84883518033894E+0000
 20
 4.52503388466721E+0000
 11
 4.83951541545684E+0000
 21
 4.51571411978512E+0000
  0
LINE
  8
1
  6
CONTINUOUS
 62
     1
 10
 7.08419607614633E+0000
 20
 4.56409860099666E+0000
 11
 7.08419607614633E+0000
 21
 4.56409860099666E+0000
  0
LINE
  8
1
  6
CONTINUOUS
 62
     1
 10
 7.08419607614633E+0000
 20
 4.56409860099666E+0000
 11
 6.92490674951114E+0000
 21
 4.59128012236033E+0000
  0
LINE
  8
1
  6
CONTINUOUS
 62
     1
 10
 6.92490674951114E+0000
 20
 4.59128012236033E+0000
 11
 6.92490674951114E+0000
 21
 4.53087648488872E+0000
  0
LINE
  8
1
  6
CONTINUOUS
 62
     1
 10
 6.92490674951114E+0000
 20
 4.53087648488872E+0000
 11
 7.08419607614633E+0000
 21
 4.56409860099666E+0000
  0
LINE
  8
1
  6
CONTINUOUS
 62
     1
 10
 6.92490674951114E+0000
 20
 4.59128012236033E+0000
 11
 6.92490674951114E+0000
 21
 4.53087648488872E+0000
  0
LINE
  8
1
  6
CONTINUOUS
 62
     1
 10
 6.93345168126689E+0000
 20
 4.53265865524008E+0000
 11
 6.92490674951114E+0000
 21
 4.54120358699583E+0000
  0
LINE
  8
1
  6
CONTINUOUS
 62
     1
 10
 6.95054154475656E+0000
 20
 4.53622299593553E+0000
 11
 6.92490674951114E+0000
 21
 4.56185779118096E+0000
  0
LINE
  8
1
  6
CONTINUOUS
 62
     1
 10
 6.96763140824623E+0000
 20
 4.53978733663098E+0000
 11
 6.92490674951114E+0000
 21
 4.58251199536608E+0000
  0
LINE
  8
1
  6
CONTINUOUS
 62
     1
 10
 6.98472127173591E+0000
 20
 4.54335167732643E+0000
 11
 6.93923841771175E+0000
 21
 4.58883453135059E+0000
  0
LINE
  8
1
  6
CONTINUOUS
 62
     1
 10
 7.00181113523286E+0000
 20
 4.54691601802188E+0000
 11
 6.96414227763307E+0000
 21
 4.58458487561438E+0000
  0
LINE
  8
1
  6
CONTINUOUS
 62
     1
 10
 7.01890099872253E+0000
 20
 4.55048035871732E+0000
 11
 6.98904613755440E+0000
 21
 4.58033521987818E+0000
  0
LINE
  8
1
  6
CONTINUOUS
 62
     1
 10
 7.03599086221220E+0000
 20
 4.55404469941277E+0000
 11
 7.01394999747572E+0000
 21
 4.57608556414925E+0000
  0
LINE
  8
1
  6
CONTINUOUS
 62
     1
 10
 7.05308072570188E+0000
 20
 4.55760904010822E+0000
 11
 7.03885385738977E+0000
 21
 4.57183590841305E+0000
  0
LINE
  8
1
  6
CONTINUOUS
 62
     1
 10
 7.07017058919155E+0000
 20
 4.56117338080367E+0000
 11
 7.06375771731109E+0000
 21
 4.56758625267685E+0000
  0
LINE
  8
1
  6
CONTINUOUS
 62
     1
 10
 7.07537433721154E+0000
 20
 4.56560396416171E+0000
 11
 7.07114750361507E+0000
 21
 4.56137713055796E+0000
  0
LINE
  8
1
  6
CONTINUOUS
 62
     1
 10
 7.05773085935652E+0000
 20
 4.56861469049181E+0000
 11
 7.04505035858892E+0000
 21
 4.55593418971694E+0000
  0
LINE
  8
1
  6
CONTINUOUS
 62
     1
 10
 7.04008738150878E+0000
 20
 4.57162541682192E+0000
 11
 7.01895321355551E+0000
 21
 4.55049124887591E+0000
  0
LINE
  8
1
  6
CONTINUOUS
 62
     1
 10
 7.02244390365377E+0000
 20
 4.57463614315202E+0000
 11
 6.99285606852936E+0000
 21
 4.54504830802762E+0000
  0
LINE
  8
1
  6
CONTINUOUS
 62
     1
 10
 7.00480042579875E+0000
 20
 4.57764686948940E+0000
 11
 6.96675892350322E+0000
 21
 4.53960536718660E+0000
  0
LINE
  8
1
  6
CONTINUOUS
 62
     1
 10
 6.98715694794373E+0000
 20
 4.58065759581950E+0000
 11
 6.94066177846980E+0000
 21
 4.53416242634557E+0000
  0
LINE
  8
1
  6
CONTINUOUS
 62
     1
 10
 6.96951347009599E+0000
 20
 4.58366832214961E+0000
 11
 6.92490674951114E+0000
 21
 4.53906160156475E+0000
  0
LINE
  8
1
  6
CONTINUOUS
 62
     1
 10
 6.95186999224097E+0000
 20
 4.58667904847971E+0000
 11
 6.92490674951114E+0000
 21
 4.55971580574987E+0000
  0
LINE
  8
1
  6
CONTINUOUS
 62
     1
 10
 6.93422651439323E+0000
 20
 4.58968977482436E+0000
 11
 6.92490674951114E+0000
 21
 4.58037000993500E+0000
  0
LINE
  8
1
  6
CONTINUOUS
 62
     1
 10
 7.08419607614633E+0000
 20
 4.56409860099666E+0000
 11
 7.08419607614633E+0000
 21
 4.56409860099666E+0000
  0
LINE
  8
1
  6
CONTINUOUS
 62
     1
 10
 7.08419607614633E+0000
 20
 4.56409860099666E+0000
 11
 6.92490674951114E+0000
 21
 4.59128012236033E+0000
  0
LINE
  8
1
  6
CONTINUOUS
 62
     1
 10
 6.92490674951114E+0000
 20
 4.59128012236033E+0000
 11
 6.92490674951114E+0000
 21
 4.53087648488872E+0000
  0
LINE
  8
1
  6
CONTINUOUS
 62
     1
 10
 6.92490674951114E+0000
 20
 4.53087648488872E+0000
 11
 7.08419607614633E+0000
 21
 4.56409860099666E+0000
  0
LINE
  8
1
  6
CONTINUOUS
 62
     1
 10
 6.92490674951114E+0000
 20
 4.59128012236033E+0000
 11
 6.92490674951114E+0000
 21
 4.53087648488872E+0000
  0
LINE
  8
1
  6
CONTINUOUS
 62
     1
 10
 6.93345168126689E+0000
 20
 4.53265865524008E+0000
 11
 6.92490674951114E+0000
 21
 4.54120358699583E+0000
  0
LINE
  8
1
  6
CONTINUOUS
 62
     1
 10
 6.95054154475656E+0000
 20
 4.53622299593553E+0000
 11
 6.92490674951114E+0000
 21
 4.56185779118096E+0000
  0
LINE
  8
1
  6
CONTINUOUS
 62
     1
 10
 6.96763140824623E+0000
 20
 4.53978733663098E+0000
 11
 6.92490674951114E+0000
 21
 4.58251199536608E+0000
  0
LINE
  8
1
  6
CONTINUOUS
 62
     1
 10
 6.98472127173591E+0000
 20
 4.54335167732643E+0000
 11
 6.93923841771175E+0000
 21
 4.58883453135059E+0000
  0
LINE
  8
1
  6
CONTINUOUS
 62
     1
 10
 7.00181113523286E+0000
 20
 4.54691601802188E+0000
 11
 6.96414227763307E+0000
 21
 4.58458487561438E+0000
  0
LINE
  8
1
  6
CONTINUOUS
 62
     1
 10
 7.01890099872253E+0000
 20
 4.55048035871732E+0000
 11
 6.98904613755440E+0000
 21
 4.58033521987818E+0000
  0
LINE
  8
1
  6
CONTINUOUS
 62
     1
 10
 7.03599086221220E+0000
 20
 4.55404469941277E+0000
 11
 7.01394999747572E+0000
 21
 4.57608556414925E+0000
  0
LINE
  8
1
  6
CONTINUOUS
 62
     1
 10
 7.05308072570188E+0000
 20
 4.55760904010822E+0000
 11
 7.03885385738977E+0000
 21
 4.57183590841305E+0000
  0
LINE
  8
1
  6
CONTINUOUS
 62
     1
 10
 7.07017058919155E+0000
 20
 4.56117338080367E+0000
 11
 7.06375771731109E+0000
 21
 4.56758625267685E+0000
  0
LINE
  8
1
  6
CONTINUOUS
 62
     1
 10
 7.07537433721154E+0000
 20
 4.56560396416171E+0000
 11
 7.07114750361507E+0000
 21
 4.56137713055796E+0000
  0
LINE
  8
1
  6
CONTINUOUS
 62
     1
 10
 7.05773085935652E+0000
 20
 4.56861469049181E+0000
 11
 7.04505035858892E+0000
 21
 4.55593418971694E+0000
  0
LINE
  8
1
  6
CONTINUOUS
 62
     1
 10
 7.04008738150878E+0000
 20
 4.57162541682192E+0000
 11
 7.01895321355551E+0000
 21
 4.55049124887591E+0000
  0
LINE
  8
1
  6
CONTINUOUS
 62
     1
 10
 7.02244390365377E+0000
 20
 4.57463614315202E+0000
 11
 6.99285606852936E+0000
 21
 4.54504830802762E+0000
  0
LINE
  8
1
  6
CONTINUOUS
 62
     1
 10
 7.00480042579875E+0000
 20
 4.57764686948940E+0000
 11
 6.96675892350322E+0000
 21
 4.53960536718660E+0000
  0
LINE
  8
1
  6
CONTINUOUS
 62
     1
 10
 6.98715694794373E+0000
 20
 4.58065759581950E+0000
 11
 6.94066177846980E+0000
 21
 4.53416242634557E+0000
  0
LINE
  8
1
  6
CONTINUOUS
 62
     1
 10
 6.96951347009599E+0000
 20
 4.58366832214961E+0000
 11
 6.92490674951114E+0000
 21
 4.53906160156475E+0000
  0
LINE
  8
1
  6
CONTINUOUS
 62
     1
 10
 6.95186999224097E+0000
 20
 4.58667904847971E+0000
 11
 6.92490674951114E+0000
 21
 4.55971580574987E+0000
  0
LINE
  8
1
  6
CONTINUOUS
 62
     1
 10
 6.93422651439323E+0000
 20
 4.58968977482436E+0000
 11
 6.92490674951114E+0000
 21
 4.58037000993500E+0000
  0
LINE
  8
1
  6
CONTINUOUS
 62
     1
 10
 6.91220503830118E+0000
 20
 4.39168289391819E+0000
 11
 6.91220503830118E+0000
 21
 4.39168289391819E+0000
  0
LINE
  8
1
  6
CONTINUOUS
 62
     1
 10
 6.91220503830118E+0000
 20
 4.39168289391819E+0000
 11
 6.75291571166599E+0000
 21
 4.41886441528186E+0000
  0
LINE
  8
1
  6
CONTINUOUS
 62
     1
 10
 6.75291571166599E+0000
 20
 4.41886441528186E+0000
 11
 6.75291571166599E+0000
 21
 4.35846077781025E+0000
  0
LINE
  8
1
  6
CONTINUOUS
 62
     1
 10
 6.75291571166599E+0000
 20
 4.35846077781025E+0000
 11
 6.91220503830118E+0000
 21
 4.39168289391819E+0000
  0
LINE
  8
1
  6
CONTINUOUS
 62
     1
 10
 6.75291571166599E+0000
 20
 4.41886441528186E+0000
 11
 6.75291571166599E+0000
 21
 4.35846077781025E+0000
  0
LINE
  8
1
  6
CONTINUOUS
 62
     1
 10
 6.76146064341447E+0000
 20
 4.36024294816161E+0000
 11
 6.75291571166599E+0000
 21
 4.36878787990281E+0000
  0
LINE
  8
1
  6
CONTINUOUS
 62
     1
 10
 6.77855050690414E+0000
 20
 4.36380728885706E+0000
 11
 6.75291571166599E+0000
 21
 4.38944208409521E+0000
  0
LINE
  8
1
  6
CONTINUOUS
 62
     1
 10
 6.79564037039381E+0000
 20
 4.36737162955251E+0000
 11
 6.75291571166599E+0000
 21
 4.41009628828033E+0000
  0
LINE
  8
1
  6
CONTINUOUS
 62
     1
 10
 6.81273023388349E+0000
 20
 4.37093597024068E+0000
 11
 6.76724737985933E+0000
 21
 4.41641882427211E+0000
  0
LINE
  8
1
  6
CONTINUOUS
 62
     1
 10
 6.82982009737316E+0000
 20
 4.37450031093613E+0000
 11
 6.79215123977337E+0000
 21
 4.41216916853591E+0000
  0
LINE
  8
1
  6
CONTINUOUS
 62
     1
 10
 6.84690996086283E+0000
 20
 4.37806465163158E+0000
 11
 6.81705509969470E+0000
 21
 4.40791951280698E+0000
  0
LINE
  8
1
  6
CONTINUOUS
 62
     1
 10
 6.86399982435978E+0000
 20
 4.38162899232702E+0000
 11
 6.84195895961602E+0000
 21
 4.40366985707078E+0000
  0
LINE
  8
1
  6
CONTINUOUS
 62
     1
 10
 6.88108968784945E+0000
 20
 4.38519333302247E+0000
 11
 6.86686281953735E+0000
 21
 4.39942020133458E+0000
  0
LINE
  8
1
  6
CONTINUOUS
 62
     1
 10
 6.89817955133913E+0000
 20
 4.38875767371792E+0000
 11
 6.89176667945139E+0000
 21
 4.39517054560565E+0000
  0
LINE
  8
1
  6
CONTINUOUS
 62
     1
 10
 6.90338329936640E+0000
 20
 4.39318825708324E+0000
 11
 6.89915646577720E+0000
 21
 4.38896142349404E+0000
  0
LINE
  8
1
  6
CONTINUOUS
 62
     1
 10
 6.88573982151138E+0000
 20
 4.39619898341334E+0000
 11
 6.87305932074378E+0000
 21
 4.38351848264574E+0000
  0
LINE
  8
1
  6
CONTINUOUS
 62
     1
 10
 6.86809634366364E+0000
 20
 4.39920970974345E+0000
 11
 6.84696217571036E+0000
 21
 4.37807554179744E+0000
  0
LINE
  8
1
  6
CONTINUOUS
 62
     1
 10
 6.85045286580862E+0000
 20
 4.40222043608082E+0000
 11
 6.82086503068422E+0000
 21
 4.37263260094915E+0000
  0
LINE
  8
1
  6
CONTINUOUS
 62
     1
 10
 6.83280938796088E+0000
 20
 4.40523116241093E+0000
 11
 6.79476788565080E+0000
 21
 4.36718966010085E+0000
  0
LINE
  8
1
  6
CONTINUOUS
 62
     1
 10
 6.81516591010586E+0000
 20
 4.40824188874103E+0000
 11
 6.76867074061738E+0000
 21
 4.36174671925255E+0000
  0
LINE
  8
1
  6
CONTINUOUS
 62
     1
 10
 6.79752243225084E+0000
 20
 4.41125261507841E+0000
 11
 6.75291571165872E+0000
 21
 4.36664589447901E+0000
  0
LINE
  8
1
  6
CONTINUOUS
 62
     1
 10
 6.77987895439583E+0000
 20
 4.41426334140851E+0000
 11
 6.75291571165872E+0000
 21
 4.38730009866413E+0000
  0
LINE
  8
1
  6
CONTINUOUS
 62
     1
 10
 6.76223547654808E+0000
 20
 4.41727406773862E+0000
 11
 6.75291571165872E+0000
 21
 4.40795430285652E+0000
  0
LINE
  8
1
  6
CONTINUOUS
 62
     1
 10
 6.91220503830118E+0000
 20
 4.39168289391819E+0000
 11
 6.91220503830118E+0000
 21
 4.39168289391819E+0000
  0
LINE
  8
1
  6
CONTINUOUS
 62
     1
 10
 6.91220503830118E+0000
 20
 4.39168289391819E+0000
 11
 6.75291571166599E+0000
 21
 4.41886441528186E+0000
  0
LINE
  8
1
  6
CONTINUOUS
 62
     1
 10
 6.75291571166599E+0000
 20
 4.41886441528186E+0000
 11
 6.75291571166599E+0000
 21
 4.35846077781025E+0000
  0
LINE
  8
1
  6
CONTINUOUS
 62
     1
 10
 6.75291571166599E+0000
 20
 4.35846077781025E+0000
 11
 6.91220503830118E+0000
 21
 4.39168289391819E+0000
  0
LINE
  8
1
  6
CONTINUOUS
 62
     1
 10
 6.75291571166599E+0000
 20
 4.41886441528186E+0000
 11
 6.75291571166599E+0000
 21
 4.35846077781025E+0000
  0
LINE
  8
1
  6
CONTINUOUS
 62
     1
 10
 6.76146064341447E+0000
 20
 4.36024294816161E+0000
 11
 6.75291571166599E+0000
 21
 4.36878787990281E+0000
  0
LINE
  8
1
  6
CONTINUOUS
 62
     1
 10
 6.77855050690414E+0000
 20
 4.36380728885706E+0000
 11
 6.75291571166599E+0000
 21
 4.38944208409521E+0000
  0
LINE
  8
1
  6
CONTINUOUS
 62
     1
 10
 6.79564037039381E+0000
 20
 4.36737162955251E+0000
 11
 6.75291571166599E+0000
 21
 4.41009628828033E+0000
  0
LINE
  8
1
  6
CONTINUOUS
 62
     1
 10
 6.81273023388349E+0000
 20
 4.37093597024068E+0000
 11
 6.76724737985933E+0000
 21
 4.41641882427211E+0000
  0
LINE
  8
1
  6
CONTINUOUS
 62
     1
 10
 6.82982009737316E+0000
 20
 4.37450031093613E+0000
 11
 6.79215123977337E+0000
 21
 4.41216916853591E+0000
  0
LINE
  8
1
  6
CONTINUOUS
 62
     1
 10
 6.84690996086283E+0000
 20
 4.37806465163158E+0000
 11
 6.81705509969470E+0000
 21
 4.40791951280698E+0000
  0
LINE
  8
1
  6
CONTINUOUS
 62
     1
 10
 6.86399982435978E+0000
 20
 4.38162899232702E+0000
 11
 6.84195895961602E+0000
 21
 4.40366985707078E+0000
  0
LINE
  8
1
  6
CONTINUOUS
 62
     1
 10
 6.88108968784945E+0000
 20
 4.38519333302247E+0000
 11
 6.86686281953735E+0000
 21
 4.39942020133458E+0000
  0
LINE
  8
1
  6
CONTINUOUS
 62
     1
 10
 6.89817955133913E+0000
 20
 4.38875767371792E+0000
 11
 6.89176667945139E+0000
 21
 4.39517054560565E+0000
  0
LINE
  8
1
  6
CONTINUOUS
 62
     1
 10
 6.90338329936640E+0000
 20
 4.39318825708324E+0000
 11
 6.89915646577720E+0000
 21
 4.38896142349404E+0000
  0
LINE
  8
1
  6
CONTINUOUS
 62
     1
 10
 6.88573982151138E+0000
 20
 4.39619898341334E+0000
 11
 6.87305932074378E+0000
 21
 4.38351848264574E+0000
  0
LINE
  8
1
  6
CONTINUOUS
 62
     1
 10
 6.86809634366364E+0000
 20
 4.39920970974345E+0000
 11
 6.84696217571036E+0000
 21
 4.37807554179744E+0000
  0
LINE
  8
1
  6
CONTINUOUS
 62
     1
 10
 6.85045286580862E+0000
 20
 4.40222043608082E+0000
 11
 6.82086503068422E+0000
 21
 4.37263260094915E+0000
  0
LINE
  8
1
  6
CONTINUOUS
 62
     1
 10
 6.83280938796088E+0000
 20
 4.40523116241093E+0000
 11
 6.79476788565080E+0000
 21
 4.36718966010085E+0000
  0
LINE
  8
1
  6
CONTINUOUS
 62
     1
 10
 6.81516591010586E+0000
 20
 4.40824188874103E+0000
 11
 6.76867074061738E+0000
 21
 4.36174671925255E+0000
  0
LINE
  8
1
  6
CONTINUOUS
 62
     1
 10
 6.79752243225084E+0000
 20
 4.41125261507841E+0000
 11
 6.75291571165872E+0000
 21
 4.36664589447901E+0000
  0
LINE
  8
1
  6
CONTINUOUS
 62
     1
 10
 6.77987895439583E+0000
 20
 4.41426334140851E+0000
 11
 6.75291571165872E+0000
 21
 4.38730009866413E+0000
  0
LINE
  8
1
  6
CONTINUOUS
 62
     1
 10
 6.76223547654808E+0000
 20
 4.41727406773862E+0000
 11
 6.75291571165872E+0000
 21
 4.40795430285652E+0000
  0
LINE
  8
1
  6
CONTINUOUS
 62
     1
 10
 6.48760216357186E+0000
 20
 4.21387919598055E+0000
 11
 6.48760216357186E+0000
 21
 4.21387919598055E+0000
  0
LINE
  8
1
  6
CONTINUOUS
 62
     1
 10
 6.48760216357186E+0000
 20
 4.21387919598055E+0000
 11
 6.32831283693668E+0000
 21
 4.24106071734423E+0000
  0
LINE
  8
1
  6
CONTINUOUS
 62
     1
 10
 6.32831283693668E+0000
 20
 4.24106071734423E+0000
 11
 6.32831283693668E+0000
 21
 4.18065707987262E+0000
  0
LINE
  8
1
  6
CONTINUOUS
 62
     1
 10
 6.32831283693668E+0000
 20
 4.18065707987262E+0000
 11
 6.48760216357186E+0000
 21
 4.21387919598055E+0000
  0
LINE
  8
1
  6
CONTINUOUS
 62
     1
 10
 6.32831283693668E+0000
 20
 4.24106071734423E+0000
 11
 6.32831283693668E+0000
 21
 4.18065707987262E+0000
  0
LINE
  8
1
  6
CONTINUOUS
 62
     1
 10
 6.33685776868515E+0000
 20
 4.18243925022398E+0000
 11
 6.32831283693668E+0000
 21
 4.19098418196518E+0000
  0
LINE
  8
1
  6
CONTINUOUS
 62
     1
 10
 6.35394763217482E+0000
 20
 4.18600359091943E+0000
 11
 6.32831283693668E+0000
 21
 4.21163838615030E+0000
  0
LINE
  8
1
  6
CONTINUOUS
 62
     1
 10
 6.37103749566450E+0000
 20
 4.18956793160760E+0000
 11
 6.32831283693668E+0000
 21
 4.23229259034269E+0000
  0
LINE
  8
1
  6
CONTINUOUS
 62
     1
 10
 6.38812735916144E+0000
 20
 4.19313227230305E+0000
 11
 6.34264450513001E+0000
 21
 4.23861512633448E+0000
  0
LINE
  8
1
  6
CONTINUOUS
 62
     1
 10
 6.40521722265112E+0000
 20
 4.19669661299849E+0000
 11
 6.36754836505133E+0000
 21
 4.23436547059828E+0000
  0
LINE
  8
1
  6
CONTINUOUS
 62
     1
 10
 6.42230708614079E+0000
 20
 4.20026095369394E+0000
 11
 6.39245222497266E+0000
 21
 4.23011581486207E+0000
  0
LINE
  8
1
  6
CONTINUOUS
 62
     1
 10
 6.43939694963046E+0000
 20
 4.20382529438939E+0000
 11
 6.41735608488671E+0000
 21
 4.22586615912587E+0000
  0
LINE
  8
1
  6
CONTINUOUS
 62
     1
 10
 6.45648681312014E+0000
 20
 4.20738963508484E+0000
 11
 6.44225994480803E+0000
 21
 4.22161650339694E+0000
  0
LINE
  8
1
  6
CONTINUOUS
 62
     1
 10
 6.47357667660981E+0000
 20
 4.21095397578028E+0000
 11
 6.46716380472935E+0000
 21
 4.21736684766074E+0000
  0
LINE
  8
1
  6
CONTINUOUS
 62
     1
 10
 6.47878042463708E+0000
 20
 4.21538455914560E+0000
 11
 6.47455359105516E+0000
 21
 4.21115772555640E+0000
  0
LINE
  8
1
  6
CONTINUOUS
 62
     1
 10
 6.46113694678934E+0000
 20
 4.21839528547571E+0000
 11
 6.44845644602174E+0000
 21
 4.20571478470811E+0000
  0
LINE
  8
1
  6
CONTINUOUS
 62
     1
 10
 6.44349346893432E+0000
 20
 4.22140601180581E+0000
 11
 6.42235930098104E+0000
 21
 4.20027184385981E+0000
  0
LINE
  8
1
  6
CONTINUOUS
 62
     1
 10
 6.42584999108658E+0000
 20
 4.22441673814319E+0000
 11
 6.39626215595490E+0000
 21
 4.19482890301151E+0000
  0
LINE
  8
1
  6
CONTINUOUS
 62
     1
 10
 6.40820651323156E+0000
 20
 4.22742746447329E+0000
 11
 6.37016501092148E+0000
 21
 4.18938596216321E+0000
  0
LINE
  8
1
  6
CONTINUOUS
 62
     1
 10
 6.39056303537654E+0000
 20
 4.23043819080340E+0000
 11
 6.34406786589534E+0000
 21
 4.18394302132219E+0000
  0
LINE
  8
1
  6
CONTINUOUS
 62
     1
 10
 6.37291955752153E+0000
 20
 4.23344891714078E+0000
 11
 6.32831283692940E+0000
 21
 4.18884219654137E+0000
  0
LINE
  8
1
  6
CONTINUOUS
 62
     1
 10
 6.35527607967379E+0000
 20
 4.23645964347088E+0000
 11
 6.32831283692940E+0000
 21
 4.20949640072649E+0000
  0
LINE
  8
1
  6
CONTINUOUS
 62
     1
 10
 6.33763260181877E+0000
 20
 4.23947036980098E+0000
 11
 6.32831283693668E+0000
 21
 4.23015060491889E+0000
  0
LINE
  8
1
  6
CONTINUOUS
 62
     1
 10
 6.48760216357186E+0000
 20
 4.21387919598055E+0000
 11
 6.48760216357186E+0000
 21
 4.21387919598055E+0000
  0
LINE
  8
1
  6
CONTINUOUS
 62
     1
 10
 6.48760216357186E+0000
 20
 4.21387919598055E+0000
 11
 6.32831283693668E+0000
 21
 4.24106071734423E+0000
  0
LINE
  8
1
  6
CONTINUOUS
 62
     1
 10
 6.32831283693668E+0000
 20
 4.24106071734423E+0000
 11
 6.32831283693668E+0000
 21
 4.18065707987262E+0000
  0
LINE
  8
1
  6
CONTINUOUS
 62
     1
 10
 6.32831283693668E+0000
 20
 4.18065707987262E+0000
 11
 6.48760216357186E+0000
 21
 4.21387919598055E+0000
  0
LINE
  8
1
  6
CONTINUOUS
 62
     1
 10
 6.32831283693668E+0000
 20
 4.24106071734423E+0000
 11
 6.32831283693668E+0000
 21
 4.18065707987262E+0000
  0
LINE
  8
1
  6
CONTINUOUS
 62
     1
 10
 6.33685776868515E+0000
 20
 4.18243925022398E+0000
 11
 6.32831283693668E+0000
 21
 4.19098418196518E+0000
  0
LINE
  8
1
  6
CONTINUOUS
 62
     1
 10
 6.35394763217482E+0000
 20
 4.18600359091943E+0000
 11
 6.32831283693668E+0000
 21
 4.21163838615030E+0000
  0
LINE
  8
1
  6
CONTINUOUS
 62
     1
 10
 6.37103749566450E+0000
 20
 4.18956793160760E+0000
 11
 6.32831283693668E+0000
 21
 4.23229259034269E+0000
  0
LINE
  8
1
  6
CONTINUOUS
 62
     1
 10
 6.38812735916144E+0000
 20
 4.19313227230305E+0000
 11
 6.34264450513001E+0000
 21
 4.23861512633448E+0000
  0
LINE
  8
1
  6
CONTINUOUS
 62
     1
 10
 6.40521722265112E+0000
 20
 4.19669661299849E+0000
 11
 6.36754836505133E+0000
 21
 4.23436547059828E+0000
  0
LINE
  8
1
  6
CONTINUOUS
 62
     1
 10
 6.42230708614079E+0000
 20
 4.20026095369394E+0000
 11
 6.39245222497266E+0000
 21
 4.23011581486207E+0000
  0
LINE
  8
1
  6
CONTINUOUS
 62
     1
 10
 6.43939694963046E+0000
 20
 4.20382529438939E+0000
 11
 6.41735608488671E+0000
 21
 4.22586615912587E+0000
  0
LINE
  8
1
  6
CONTINUOUS
 62
     1
 10
 6.45648681312014E+0000
 20
 4.20738963508484E+0000
 11
 6.44225994480803E+0000
 21
 4.22161650339694E+0000
  0
LINE
  8
1
  6
CONTINUOUS
 62
     1
 10
 6.47357667660981E+0000
 20
 4.21095397578028E+0000
 11
 6.46716380472935E+0000
 21
 4.21736684766074E+0000
  0
LINE
  8
1
  6
CONTINUOUS
 62
     1
 10
 6.47878042463708E+0000
 20
 4.21538455914560E+0000
 11
 6.47455359105516E+0000
 21
 4.21115772555640E+0000
  0
LINE
  8
1
  6
CONTINUOUS
 62
     1
 10
 6.46113694678934E+0000
 20
 4.21839528547571E+0000
 11
 6.44845644602174E+0000
 21
 4.20571478470811E+0000
  0
LINE
  8
1
  6
CONTINUOUS
 62
     1
 10
 6.44349346893432E+0000
 20
 4.22140601180581E+0000
 11
 6.42235930098104E+0000
 21
 4.20027184385981E+0000
  0
LINE
  8
1
  6
CONTINUOUS
 62
     1
 10
 6.42584999108658E+0000
 20
 4.22441673814319E+0000
 11
 6.39626215595490E+0000
 21
 4.19482890301151E+0000
  0
LINE
  8
1
  6
CONTINUOUS
 62
     1
 10
 6.40820651323156E+0000
 20
 4.22742746447329E+0000
 11
 6.37016501092148E+0000
 21
 4.18938596216321E+0000
  0
LINE
  8
1
  6
CONTINUOUS
 62
     1
 10
 6.39056303537654E+0000
 20
 4.23043819080340E+0000
 11
 6.34406786589534E+0000
 21
 4.18394302132219E+0000
  0
LINE
  8
1
  6
CONTINUOUS
 62
     1
 10
 6.37291955752153E+0000
 20
 4.23344891714078E+0000
 11
 6.32831283692940E+0000
 21
 4.18884219654137E+0000
  0
LINE
  8
1
  6
CONTINUOUS
 62
     1
 10
 6.35527607967379E+0000
 20
 4.23645964347088E+0000
 11
 6.32831283692940E+0000
 21
 4.20949640072649E+0000
  0
LINE
  8
1
  6
CONTINUOUS
 62
     1
 10
 6.33763260181877E+0000
 20
 4.23947036980098E+0000
 11
 6.32831283693668E+0000
 21
 4.23015060491889E+0000
  0
LINE
  8
1
  6
CONTINUOUS
 62
     1
 10
 6.71471446417854E+0000
 20
 4.21285629879276E+0000
 11
 6.71471446417854E+0000
 21
 4.21285629879276E+0000
  0
LINE
  8
1
  6
CONTINUOUS
 62
     1
 10
 6.71471446417854E+0000
 20
 4.21285629879276E+0000
 11
 6.87400379082828E+0000
 21
 4.18567477742909E+0000
  0
LINE
  8
1
  6
CONTINUOUS
 62
     1
 10
 6.87400379082828E+0000
 20
 4.18567477742909E+0000
 11
 6.87400379082828E+0000
 21
 4.24607841490069E+0000
  0
LINE
  8
1
  6
CONTINUOUS
 62
     1
 10
 6.87400379082828E+0000
 20
 4.24607841490069E+0000
 11
 6.71471446417854E+0000
 21
 4.21285629879276E+0000
  0
LINE
  8
1
  6
CONTINUOUS
 62
     1
 10
 6.87400379082828E+0000
 20
 4.18567477742909E+0000
 11
 6.87400379082828E+0000
 21
 4.24607841490069E+0000
  0
LINE
  8
1
  6
CONTINUOUS
 62
     1
 10
 6.72716639414284E+0000
 20
 4.21073147092829E+0000
 11
 6.72325939592702E+0000
 21
 4.21463846914412E+0000
  0
LINE
  8
1
  6
CONTINUOUS
 62
     1
 10
 6.75207025406417E+0000
 20
 4.20648181519209E+0000
 11
 6.74034925941669E+0000
 21
 4.21820280983957E+0000
  0
LINE
  8
1
  6
CONTINUOUS
 62
     1
 10
 6.77697411398549E+0000
 20
 4.20223215945589E+0000
 11
 6.75743912291364E+0000
 21
 4.22176715053502E+0000
  0
LINE
  8
1
  6
CONTINUOUS
 62
     1
 10
 6.80187797390681E+0000
 20
 4.19798250371969E+0000
 11
 6.77452898640331E+0000
 21
 4.22533149122319E+0000
  0
LINE
  8
1
  6
CONTINUOUS
 62
     1
 10
 6.82678183382814E+0000
 20
 4.19373284799076E+0000
 11
 6.79161884989298E+0000
 21
 4.22889583191863E+0000
  0
LINE
  8
1
  6
CONTINUOUS
 62
     1
 10
 6.85168569374946E+0000
 20
 4.18948319225456E+0000
 11
 6.80870871338266E+0000
 21
 4.23246017261408E+0000
  0
LINE
  8
1
  6
CONTINUOUS
 62
     1
 10
 6.87400379082828E+0000
 20
 4.18781929935358E+0000
 11
 6.82579857687233E+0000
 21
 4.23602451330953E+0000
  0
LINE
  8
1
  6
CONTINUOUS
 62
     1
 10
 6.87400379082828E+0000
 20
 4.20847350353870E+0000
 11
 6.84288844036928E+0000
 21
 4.23958885400498E+0000
  0
LINE
  8
1
  6
CONTINUOUS
 62
     1
 10
 6.87400379082828E+0000
 20
 4.22912770772382E+0000
 11
 6.85997830385895E+0000
 21
 4.24315319470043E+0000
  0
LINE
  8
1
  6
CONTINUOUS
 62
     1
 10
 6.87400379082101E+0000
 20
 4.19600187952165E+0000
 11
 6.86518205189350E+0000
 21
 4.18718014059414E+0000
  0
LINE
  8
1
  6
CONTINUOUS
 62
     1
 10
 6.87400379082101E+0000
 20
 4.21665608370677E+0000
 11
 6.84753857404576E+0000
 21
 4.19019086692424E+0000
  0
LINE
  8
1
  6
CONTINUOUS
 62
     1
 10
 6.87400379082101E+0000
 20
 4.23731028789189E+0000
 11
 6.82989509619074E+0000
 21
 4.19320159325434E+0000
  0
LINE
  8
1
  6
CONTINUOUS
 62
     1
 10
 6.85898541116330E+0000
 20
 4.24294611241930E+0000
 11
 6.81225161833572E+0000
 21
 4.19621231959172E+0000
  0
LINE
  8
1
  6
CONTINUOUS
 62
     1
 10
 6.83288826613716E+0000
 20
 4.23750317157828E+0000
 11
 6.79460814048070E+0000
 21
 4.19922304592183E+0000
  0
LINE
  8
1
  6
CONTINUOUS
 62
     1
 10
 6.80679112110374E+0000
 20
 4.23206023072999E+0000
 11
 6.77696466262569E+0000
 21
 4.20223377225193E+0000
  0
LINE
  8
1
  6
CONTINUOUS
 62
     1
 10
 6.78069397607760E+0000
 20
 4.22661728988169E+0000
 11
 6.75932118477795E+0000
 21
 4.20524449858203E+0000
  0
LINE
  8
1
  6
CONTINUOUS
 62
     1
 10
 6.75459683103691E+0000
 20
 4.22117434903339E+0000
 11
 6.74167770692293E+0000
 21
 4.20825522491941E+0000
  0
LINE
  8
1
  6
CONTINUOUS
 62
     1
 10
 6.72849968601076E+0000
 20
 4.21573140819237E+0000
 11
 6.72403422906791E+0000
 21
 4.21126595124952E+0000
  0
LINE
  8
1
  6
CONTINUOUS
 62
     1
 10
 6.71471446417854E+0000
 20
 4.21285629879276E+0000
 11
 6.71471446417854E+0000
 21
 4.21285629879276E+0000
  0
LINE
  8
1
  6
CONTINUOUS
 62
     1
 10
 6.71471446417854E+0000
 20
 4.21285629879276E+0000
 11
 6.87400379082828E+0000
 21
 4.18567477742909E+0000
  0
LINE
  8
1
  6
CONTINUOUS
 62
     1
 10
 6.87400379082828E+0000
 20
 4.18567477742909E+0000
 11
 6.87400379082828E+0000
 21
 4.24607841490069E+0000
  0
LINE
  8
1
  6
CONTINUOUS
 62
     1
 10
 6.87400379082828E+0000
 20
 4.24607841490069E+0000
 11
 6.71471446417854E+0000
 21
 4.21285629879276E+0000
  0
LINE
  8
1
  6
CONTINUOUS
 62
     1
 10
 6.87400379082828E+0000
 20
 4.18567477742909E+0000
 11
 6.87400379082828E+0000
 21
 4.24607841490069E+0000
  0
LINE
  8
1
  6
CONTINUOUS
 62
     1
 10
 6.72716639414284E+0000
 20
 4.21073147092829E+0000
 11
 6.72325939592702E+0000
 21
 4.21463846914412E+0000
  0
LINE
  8
1
  6
CONTINUOUS
 62
     1
 10
 6.75207025406417E+0000
 20
 4.20648181519209E+0000
 11
 6.74034925941669E+0000
 21
 4.21820280983957E+0000
  0
LINE
  8
1
  6
CONTINUOUS
 62
     1
 10
 6.77697411398549E+0000
 20
 4.20223215945589E+0000
 11
 6.75743912291364E+0000
 21
 4.22176715053502E+0000
  0
LINE
  8
1
  6
CONTINUOUS
 62
     1
 10
 6.80187797390681E+0000
 20
 4.19798250371969E+0000
 11
 6.77452898640331E+0000
 21
 4.22533149122319E+0000
  0
LINE
  8
1
  6
CONTINUOUS
 62
     1
 10
 6.82678183382814E+0000
 20
 4.19373284799076E+0000
 11
 6.79161884989298E+0000
 21
 4.22889583191863E+0000
  0
LINE
  8
1
  6
CONTINUOUS
 62
     1
 10
 6.85168569374946E+0000
 20
 4.18948319225456E+0000
 11
 6.80870871338266E+0000
 21
 4.23246017261408E+0000
  0
LINE
  8
1
  6
CONTINUOUS
 62
     1
 10
 6.87400379082828E+0000
 20
 4.18781929935358E+0000
 11
 6.82579857687233E+0000
 21
 4.23602451330953E+0000
  0
LINE
  8
1
  6
CONTINUOUS
 62
     1
 10
 6.87400379082828E+0000
 20
 4.20847350353870E+0000
 11
 6.84288844036928E+0000
 21
 4.23958885400498E+0000
  0
LINE
  8
1
  6
CONTINUOUS
 62
     1
 10
 6.87400379082828E+0000
 20
 4.22912770772382E+0000
 11
 6.85997830385895E+0000
 21
 4.24315319470043E+0000
  0
LINE
  8
1
  6
CONTINUOUS
 62
     1
 10
 6.87400379082101E+0000
 20
 4.19600187952165E+0000
 11
 6.86518205189350E+0000
 21
 4.18718014059414E+0000
  0
LINE
  8
1
  6
CONTINUOUS
 62
     1
 10
 6.87400379082101E+0000
 20
 4.21665608370677E+0000
 11
 6.84753857404576E+0000
 21
 4.19019086692424E+0000
  0
LINE
  8
1
  6
CONTINUOUS
 62
     1
 10
 6.87400379082101E+0000
 20
 4.23731028789189E+0000
 11
 6.82989509619074E+0000
 21
 4.19320159325434E+0000
  0
LINE
  8
1
  6
CONTINUOUS
 62
     1
 10
 6.85898541116330E+0000
 20
 4.24294611241930E+0000
 11
 6.81225161833572E+0000
 21
 4.19621231959172E+0000
  0
LINE
  8
1
  6
CONTINUOUS
 62
     1
 10
 6.83288826613716E+0000
 20
 4.23750317157828E+0000
 11
 6.79460814048070E+0000
 21
 4.19922304592183E+0000
  0
LINE
  8
1
  6
CONTINUOUS
 62
     1
 10
 6.80679112110374E+0000
 20
 4.23206023072999E+0000
 11
 6.77696466262569E+0000
 21
 4.20223377225193E+0000
  0
LINE
  8
1
  6
CONTINUOUS
 62
     1
 10
 6.78069397607760E+0000
 20
 4.22661728988169E+0000
 11
 6.75932118477795E+0000
 21
 4.20524449858203E+0000
  0
LINE
  8
1
  6
CONTINUOUS
 62
     1
 10
 6.75459683103691E+0000
 20
 4.22117434903339E+0000
 11
 6.74167770692293E+0000
 21
 4.20825522491941E+0000
  0
LINE
  8
1
  6
CONTINUOUS
 62
     1
 10
 6.72849968601076E+0000
 20
 4.21573140819237E+0000
 11
 6.72403422906791E+0000
 21
 4.21126595124952E+0000
  0
LINE
  8
1
  6
CONTINUOUS
 62
     1
 10
 7.10169429937378E+0000
 20
 3.89496483884432E+0000
 11
 7.10169429937378E+0000
 21
 3.89496483884432E+0000
  0
LINE
  8
1
  6
CONTINUOUS
 62
     1
 10
 7.10169429937378E+0000
 20
 3.89496483884432E+0000
 11
 7.10169429937378E+0000
 21
 3.89496483884432E+0000
  0
LINE
  8
1
  6
CONTINUOUS
 62
     1
 10
 6.27936214958027E+0000
 20
 4.39065999673039E+0000
 11
 6.27936214958027E+0000
 21
 4.39065999673039E+0000
  0
LINE
  8
1
  6
CONTINUOUS
 62
     1
 10
 6.27936214958027E+0000
 20
 4.39065999673039E+0000
 11
 6.43865147623001E+0000
 21
 4.36347847536672E+0000
  0
LINE
  8
1
  6
CONTINUOUS
 62
     1
 10
 6.43865147623001E+0000
 20
 4.36347847536672E+0000
 11
 6.43865147623001E+0000
 21
 4.42388211283833E+0000
  0
LINE
  8
1
  6
CONTINUOUS
 62
     1
 10
 6.43865147623001E+0000
 20
 4.42388211283833E+0000
 11
 6.27936214958027E+0000
 21
 4.39065999673039E+0000
  0
LINE
  8
1
  6
CONTINUOUS
 62
     1
 10
 6.43865147623001E+0000
 20
 4.36347847536672E+0000
 11
 6.43865147623001E+0000
 21
 4.42388211283833E+0000
  0
LINE
  8
1
  6
CONTINUOUS
 62
     1
 10
 6.29181407953729E+0000
 20
 4.38853516886593E+0000
 11
 6.28790708132874E+0000
 21
 4.39244216707448E+0000
  0
LINE
  8
1
  6
CONTINUOUS
 62
     1
 10
 6.31671793945861E+0000
 20
 4.38428551312973E+0000
 11
 6.30499694481841E+0000
 21
 4.39600650776993E+0000
  0
LINE
  8
1
  6
CONTINUOUS
 62
     1
 10
 6.34162179937994E+0000
 20
 4.38003585739352E+0000
 11
 6.32208680830809E+0000
 21
 4.39957084846537E+0000
  0
LINE
  8
1
  6
CONTINUOUS
 62
     1
 10
 6.36652565930126E+0000
 20
 4.37578620166460E+0000
 11
 6.33917667179776E+0000
 21
 4.40313518916082E+0000
  0
LINE
  8
1
  6
CONTINUOUS
 62
     1
 10
 6.39142951921531E+0000
 20
 4.37153654592839E+0000
 11
 6.35626653528743E+0000
 21
 4.40669952985627E+0000
  0
LINE
  8
1
  6
CONTINUOUS
 62
     1
 10
 6.41633337913663E+0000
 20
 4.36728689019219E+0000
 11
 6.37335639878438E+0000
 21
 4.41026387055172E+0000
  0
LINE
  8
1
  6
CONTINUOUS
 62
     1
 10
 6.43865147623001E+0000
 20
 4.36562299728394E+0000
 11
 6.39044626227405E+0000
 21
 4.41382821123989E+0000
  0
LINE
  8
1
  6
CONTINUOUS
 62
     1
 10
 6.43865147623001E+0000
 20
 4.38627720146906E+0000
 11
 6.40753612576373E+0000
 21
 4.41739255193534E+0000
  0
LINE
  8
1
  6
CONTINUOUS
 62
     1
 10
 6.43865147623001E+0000
 20
 4.40693140565418E+0000
 11
 6.42462598925340E+0000
 21
 4.42095689263078E+0000
  0
LINE
  8
1
  6
CONTINUOUS
 62
     1
 10
 6.43865147622273E+0000
 20
 4.37380557745200E+0000
 11
 6.42982973729522E+0000
 21
 4.36498383852449E+0000
  0
LINE
  8
1
  6
CONTINUOUS
 62
     1
 10
 6.43865147622273E+0000
 20
 4.39445978163712E+0000
 11
 6.41218625944020E+0000
 21
 4.36799456486187E+0000
  0
LINE
  8
1
  6
CONTINUOUS
 62
     1
 10
 6.43865147622273E+0000
 20
 4.41511398582225E+0000
 11
 6.39454278158519E+0000
 21
 4.37100529119198E+0000
  0
LINE
  8
1
  6
CONTINUOUS
 62
     1
 10
 6.42363309656503E+0000
 20
 4.42074981035694E+0000
 11
 6.37689930373745E+0000
 21
 4.37401601752936E+0000
  0
LINE
  8
1
  6
CONTINUOUS
 62
     1
 10
 6.39753595153888E+0000
 20
 4.41530686951592E+0000
 11
 6.35925582588243E+0000
 21
 4.37702674385946E+0000
  0
LINE
  8
1
  6
CONTINUOUS
 62
     1
 10
 6.37143880650547E+0000
 20
 4.40986392866762E+0000
 11
 6.34161234803469E+0000
 21
 4.38003747018956E+0000
  0
LINE
  8
1
  6
CONTINUOUS
 62
     1
 10
 6.34534166147932E+0000
 20
 4.40442098781932E+0000
 11
 6.32396887017967E+0000
 21
 4.38304819651967E+0000
  0
LINE
  8
1
  6
CONTINUOUS
 62
     1
 10
 6.31924451644591E+0000
 20
 4.39897804697102E+0000
 11
 6.30632539232465E+0000
 21
 4.38605892285705E+0000
  0
LINE
  8
1
  6
CONTINUOUS
 62
     1
 10
 6.29314737141249E+0000
 20
 4.39353510613000E+0000
 11
 6.28868191446963E+0000
 21
 4.38906964918715E+0000
  0
LINE
  8
1
  6
CONTINUOUS
 62
     1
 10
 6.27936214958027E+0000
 20
 4.39065999673039E+0000
 11
 6.27936214958027E+0000
 21
 4.39065999673039E+0000
  0
LINE
  8
1
  6
CONTINUOUS
 62
     1
 10
 6.27936214958027E+0000
 20
 4.39065999673039E+0000
 11
 6.43865147623001E+0000
 21
 4.36347847536672E+0000
  0
LINE
  8
1
  6
CONTINUOUS
 62
     1
 10
 6.43865147623001E+0000
 20
 4.36347847536672E+0000
 11
 6.43865147623001E+0000
 21
 4.42388211283833E+0000
  0
LINE
  8
1
  6
CONTINUOUS
 62
     1
 10
 6.43865147623001E+0000
 20
 4.42388211283833E+0000
 11
 6.27936214958027E+0000
 21
 4.39065999673039E+0000
  0
LINE
  8
1
  6
CONTINUOUS
 62
     1
 10
 6.43865147623001E+0000
 20
 4.36347847536672E+0000
 11
 6.43865147623001E+0000
 21
 4.42388211283833E+0000
  0
LINE
  8
1
  6
CONTINUOUS
 62
     1
 10
 6.29181407953729E+0000
 20
 4.38853516886593E+0000
 11
 6.28790708132874E+0000
 21
 4.39244216707448E+0000
  0
LINE
  8
1
  6
CONTINUOUS
 62
     1
 10
 6.31671793945861E+0000
 20
 4.38428551312973E+0000
 11
 6.30499694481841E+0000
 21
 4.39600650776993E+0000
  0
LINE
  8
1
  6
CONTINUOUS
 62
     1
 10
 6.34162179937994E+0000
 20
 4.38003585739352E+0000
 11
 6.32208680830809E+0000
 21
 4.39957084846537E+0000
  0
LINE
  8
1
  6
CONTINUOUS
 62
     1
 10
 6.36652565930126E+0000
 20
 4.37578620166460E+0000
 11
 6.33917667179776E+0000
 21
 4.40313518916082E+0000
  0
LINE
  8
1
  6
CONTINUOUS
 62
     1
 10
 6.39142951921531E+0000
 20
 4.37153654592839E+0000
 11
 6.35626653528743E+0000
 21
 4.40669952985627E+0000
  0
LINE
  8
1
  6
CONTINUOUS
 62
     1
 10
 6.41633337913663E+0000
 20
 4.36728689019219E+0000
 11
 6.37335639878438E+0000
 21
 4.41026387055172E+0000
  0
LINE
  8
1
  6
CONTINUOUS
 62
     1
 10
 6.43865147623001E+0000
 20
 4.36562299728394E+0000
 11
 6.39044626227405E+0000
 21
 4.41382821123989E+0000
  0
LINE
  8
1
  6
CONTINUOUS
 62
     1
 10
 6.43865147623001E+0000
 20
 4.38627720146906E+0000
 11
 6.40753612576373E+0000
 21
 4.41739255193534E+0000
  0
LINE
  8
1
  6
CONTINUOUS
 62
     1
 10
 6.43865147623001E+0000
 20
 4.40693140565418E+0000
 11
 6.42462598925340E+0000
 21
 4.42095689263078E+0000
  0
LINE
  8
1
  6
CONTINUOUS
 62
     1
 10
 6.43865147622273E+0000
 20
 4.37380557745200E+0000
 11
 6.42982973729522E+0000
 21
 4.36498383852449E+0000
  0
LINE
  8
1
  6
CONTINUOUS
 62
     1
 10
 6.43865147622273E+0000
 20
 4.39445978163712E+0000
 11
 6.41218625944020E+0000
 21
 4.36799456486187E+0000
  0
LINE
  8
1
  6
CONTINUOUS
 62
     1
 10
 6.43865147622273E+0000
 20
 4.41511398582225E+0000
 11
 6.39454278158519E+0000
 21
 4.37100529119198E+0000
  0
LINE
  8
1
  6
CONTINUOUS
 62
     1
 10
 6.42363309656503E+0000
 20
 4.42074981035694E+0000
 11
 6.37689930373745E+0000
 21
 4.37401601752936E+0000
  0
LINE
  8
1
  6
CONTINUOUS
 62
     1
 10
 6.39753595153888E+0000
 20
 4.41530686951592E+0000
 11
 6.35925582588243E+0000
 21
 4.37702674385946E+0000
  0
LINE
  8
1
  6
CONTINUOUS
 62
     1
 10
 6.37143880650547E+0000
 20
 4.40986392866762E+0000
 11
 6.34161234803469E+0000
 21
 4.38003747018956E+0000
  0
LINE
  8
1
  6
CONTINUOUS
 62
     1
 10
 6.34534166147932E+0000
 20
 4.40442098781932E+0000
 11
 6.32396887017967E+0000
 21
 4.38304819651967E+0000
  0
LINE
  8
1
  6
CONTINUOUS
 62
     1
 10
 6.31924451644591E+0000
 20
 4.39897804697102E+0000
 11
 6.30632539232465E+0000
 21
 4.38605892285705E+0000
  0
LINE
  8
1
  6
CONTINUOUS
 62
     1
 10
 6.29314737141249E+0000
 20
 4.39353510613000E+0000
 11
 6.28868191446963E+0000
 21
 4.38906964918715E+0000
  0
LINE
  8
1
  6
CONTINUOUS
 62
     1
 10
 6.11812055158953E+0000
 20
 4.56307570380886E+0000
 11
 6.11812055158953E+0000
 21
 4.56307570380886E+0000
  0
LINE
  8
1
  6
CONTINUOUS
 62
     1
 10
 6.11812055158953E+0000
 20
 4.56307570380886E+0000
 11
 6.27740987823927E+0000
 21
 4.53589418244519E+0000
  0
LINE
  8
1
  6
CONTINUOUS
 62
     1
 10
 6.27740987823927E+0000
 20
 4.53589418244519E+0000
 11
 6.27740987823927E+0000
 21
 4.59629781991680E+0000
  0
LINE
  8
1
  6
CONTINUOUS
 62
     1
 10
 6.27740987823927E+0000
 20
 4.59629781991680E+0000
 11
 6.11812055158953E+0000
 21
 4.56307570380886E+0000
  0
LINE
  8
1
  6
CONTINUOUS
 62
     1
 10
 6.27740987823927E+0000
 20
 4.53589418244519E+0000
 11
 6.27740987823927E+0000
 21
 4.59629781991680E+0000
  0
LINE
  8
1
  6
CONTINUOUS
 62
     1
 10
 6.13057248155383E+0000
 20
 4.56095087594440E+0000
 11
 6.12666548333800E+0000
 21
 4.56485787416023E+0000
  0
LINE
  8
1
  6
CONTINUOUS
 62
     1
 10
 6.15547634147515E+0000
 20
 4.55670122020820E+0000
 11
 6.14375534682767E+0000
 21
 4.56842221485567E+0000
  0
LINE
  8
1
  6
CONTINUOUS
 62
     1
 10
 6.18038020139647E+0000
 20
 4.55245156447199E+0000
 11
 6.16084521031735E+0000
 21
 4.57198655554384E+0000
  0
LINE
  8
1
  6
CONTINUOUS
 62
     1
 10
 6.20528406131780E+0000
 20
 4.54820190873579E+0000
 11
 6.17793507381430E+0000
 21
 4.57555089623929E+0000
  0
LINE
  8
1
  6
CONTINUOUS
 62
     1
 10
 6.23018792123912E+0000
 20
 4.54395225299959E+0000
 11
 6.19502493730397E+0000
 21
 4.57911523693474E+0000
  0
LINE
  8
1
  6
CONTINUOUS
 62
     1
 10
 6.25509178115317E+0000
 20
 4.53970259727066E+0000
 11
 6.21211480079364E+0000
 21
 4.58267957763019E+0000
  0
LINE
  8
1
  6
CONTINUOUS
 62
     1
 10
 6.27740987823927E+0000
 20
 4.53803870436968E+0000
 11
 6.22920466428332E+0000
 21
 4.58624391832564E+0000
  0
LINE
  8
1
  6
CONTINUOUS
 62
     1
 10
 6.27740987823927E+0000
 20
 4.55869290855480E+0000
 11
 6.24629452777299E+0000
 21
 4.58980825902108E+0000
  0
LINE
  8
1
  6
CONTINUOUS
 62
     1
 10
 6.27740987823927E+0000
 20
 4.57934711273992E+0000
 11
 6.26338439126266E+0000
 21
 4.59337259971653E+0000
  0
LINE
  8
1
  6
CONTINUOUS
 62
     1
 10
 6.27740987823199E+0000
 20
 4.54622128453775E+0000
 11
 6.26858813930448E+0000
 21
 4.53739954561024E+0000
  0
LINE
  8
1
  6
CONTINUOUS
 62
     1
 10
 6.27740987823199E+0000
 20
 4.56687548872287E+0000
 11
 6.25094466145674E+0000
 21
 4.54041027194035E+0000
  0
LINE
  8
1
  6
CONTINUOUS
 62
     1
 10
 6.27740987823199E+0000
 20
 4.58752969290799E+0000
 11
 6.23330118360172E+0000
 21
 4.54342099827045E+0000
  0
LINE
  8
1
  6
CONTINUOUS
 62
     1
 10
 6.26239149857429E+0000
 20
 4.59316551743541E+0000
 11
 6.21565770574671E+0000
 21
 4.54643172460055E+0000
  0
LINE
  8
1
  6
CONTINUOUS
 62
     1
 10
 6.23629435354815E+0000
 20
 4.58772257658711E+0000
 11
 6.19801422789169E+0000
 21
 4.54944245093793E+0000
  0
LINE
  8
1
  6
CONTINUOUS
 62
     1
 10
 6.21019720851473E+0000
 20
 4.58227963573881E+0000
 11
 6.18037075004395E+0000
 21
 4.55245317726803E+0000
  0
LINE
  8
1
  6
CONTINUOUS
 62
     1
 10
 6.18410006348859E+0000
 20
 4.57683669489779E+0000
 11
 6.16272727218893E+0000
 21
 4.55546390359814E+0000
  0
LINE
  8
1
  6
CONTINUOUS
 62
     1
 10
 6.15800291845517E+0000
 20
 4.57139375404950E+0000
 11
 6.14508379433391E+0000
 21
 4.55847462992824E+0000
  0
LINE
  8
1
  6
CONTINUOUS
 62
     1
 10
 6.13190577342175E+0000
 20
 4.56595081320847E+0000
 11
 6.12744031647890E+0000
 21
 4.56148535626562E+0000
  0
LINE
  8
1
  6
CONTINUOUS
 62
     1
 10
 6.11812055158953E+0000
 20
 4.56307570380886E+0000
 11
 6.11812055158953E+0000
 21
 4.56307570380886E+0000
  0
LINE
  8
1
  6
CONTINUOUS
 62
     1
 10
 6.11812055158953E+0000
 20
 4.56307570380886E+0000
 11
 6.27740987823927E+0000
 21
 4.53589418244519E+0000
  0
LINE
  8
1
  6
CONTINUOUS
 62
     1
 10
 6.27740987823927E+0000
 20
 4.53589418244519E+0000
 11
 6.27740987823927E+0000
 21
 4.59629781991680E+0000
  0
LINE
  8
1
  6
CONTINUOUS
 62
     1
 10
 6.27740987823927E+0000
 20
 4.59629781991680E+0000
 11
 6.11812055158953E+0000
 21
 4.56307570380886E+0000
  0
LINE
  8
1
  6
CONTINUOUS
 62
     1
 10
 6.27740987823927E+0000
 20
 4.53589418244519E+0000
 11
 6.27740987823927E+0000
 21
 4.59629781991680E+0000
  0
LINE
  8
1
  6
CONTINUOUS
 62
     1
 10
 6.13057248155383E+0000
 20
 4.56095087594440E+0000
 11
 6.12666548333800E+0000
 21
 4.56485787416023E+0000
  0
LINE
  8
1
  6
CONTINUOUS
 62
     1
 10
 6.15547634147515E+0000
 20
 4.55670122020820E+0000
 11
 6.14375534682767E+0000
 21
 4.56842221485567E+0000
  0
LINE
  8
1
  6
CONTINUOUS
 62
     1
 10
 6.18038020139647E+0000
 20
 4.55245156447199E+0000
 11
 6.16084521031735E+0000
 21
 4.57198655554384E+0000
  0
LINE
  8
1
  6
CONTINUOUS
 62
     1
 10
 6.20528406131780E+0000
 20
 4.54820190873579E+0000
 11
 6.17793507381430E+0000
 21
 4.57555089623929E+0000
  0
LINE
  8
1
  6
CONTINUOUS
 62
     1
 10
 6.23018792123912E+0000
 20
 4.54395225299959E+0000
 11
 6.19502493730397E+0000
 21
 4.57911523693474E+0000
  0
LINE
  8
1
  6
CONTINUOUS
 62
     1
 10
 6.25509178115317E+0000
 20
 4.53970259727066E+0000
 11
 6.21211480079364E+0000
 21
 4.58267957763019E+0000
  0
LINE
  8
1
  6
CONTINUOUS
 62
     1
 10
 6.27740987823927E+0000
 20
 4.53803870436968E+0000
 11
 6.22920466428332E+0000
 21
 4.58624391832564E+0000
  0
LINE
  8
1
  6
CONTINUOUS
 62
     1
 10
 6.27740987823927E+0000
 20
 4.55869290855480E+0000
 11
 6.24629452777299E+0000
 21
 4.58980825902108E+0000
  0
LINE
  8
1
  6
CONTINUOUS
 62
     1
 10
 6.27740987823927E+0000
 20
 4.57934711273992E+0000
 11
 6.26338439126266E+0000
 21
 4.59337259971653E+0000
  0
LINE
  8
1
  6
CONTINUOUS
 62
     1
 10
 6.27740987823199E+0000
 20
 4.54622128453775E+0000
 11
 6.26858813930448E+0000
 21
 4.53739954561024E+0000
  0
LINE
  8
1
  6
CONTINUOUS
 62
     1
 10
 6.27740987823199E+0000
 20
 4.56687548872287E+0000
 11
 6.25094466145674E+0000
 21
 4.54041027194035E+0000
  0
LINE
  8
1
  6
CONTINUOUS
 62
     1
 10
 6.27740987823199E+0000
 20
 4.58752969290799E+0000
 11
 6.23330118360172E+0000
 21
 4.54342099827045E+0000
  0
LINE
  8
1
  6
CONTINUOUS
 62
     1
 10
 6.26239149857429E+0000
 20
 4.59316551743541E+0000
 11
 6.21565770574671E+0000
 21
 4.54643172460055E+0000
  0
LINE
  8
1
  6
CONTINUOUS
 62
     1
 10
 6.23629435354815E+0000
 20
 4.58772257658711E+0000
 11
 6.19801422789169E+0000
 21
 4.54944245093793E+0000
  0
LINE
  8
1
  6
CONTINUOUS
 62
     1
 10
 6.21019720851473E+0000
 20
 4.58227963573881E+0000
 11
 6.18037075004395E+0000
 21
 4.55245317726803E+0000
  0
LINE
  8
1
  6
CONTINUOUS
 62
     1
 10
 6.18410006348859E+0000
 20
 4.57683669489779E+0000
 11
 6.16272727218893E+0000
 21
 4.55546390359814E+0000
  0
LINE
  8
1
  6
CONTINUOUS
 62
     1
 10
 6.15800291845517E+0000
 20
 4.57139375404950E+0000
 11
 6.14508379433391E+0000
 21
 4.55847462992824E+0000
  0
LINE
  8
1
  6
CONTINUOUS
 62
     1
 10
 6.13190577342175E+0000
 20
 4.56595081320847E+0000
 11
 6.12744031647890E+0000
 21
 4.56148535626562E+0000
  0
LINE
  8
1
  6
CONTINUOUS
 62
     1
 10
 4.21409563186171E+0000
 20
 2.74295769485980E+0000
 11
 4.21409563186171E+0000
 21
 2.74295769485980E+0000
  0
LINE
  8
1
  6
CONTINUOUS
 62
     1
 10
 4.21409563186171E+0000
 20
 2.74295769485980E+0000
 11
 4.05480630522652E+0000
 21
 2.77013921622347E+0000
  0
LINE
  8
1
  6
CONTINUOUS
 62
     1
 10
 4.05480630522652E+0000
 20
 2.77013921622347E+0000
 11
 4.05480630522652E+0000
 21
 2.70973557875186E+0000
  0
LINE
  8
1
  6
CONTINUOUS
 62
     1
 10
 4.05480630522652E+0000
 20
 2.70973557875186E+0000
 11
 4.21409563186171E+0000
 21
 2.74295769485980E+0000
  0
LINE
  8
1
  6
CONTINUOUS
 62
     1
 10
 4.05480630522652E+0000
 20
 2.77013921622347E+0000
 11
 4.05480630522652E+0000
 21
 2.70973557875186E+0000
  0
LINE
  8
1
  6
CONTINUOUS
 62
     1
 10
 4.06335123697500E+0000
 20
 2.71151774909958E+0000
 11
 4.05480630522652E+0000
 21
 2.72006268084442E+0000
  0
LINE
  8
1
  6
CONTINUOUS
 62
     1
 10
 4.08044110046467E+0000
 20
 2.71508208979503E+0000
 11
 4.05480630522652E+0000
 21
 2.74071688502954E+0000
  0
LINE
  8
1
  6
CONTINUOUS
 62
     1
 10
 4.09753096395434E+0000
 20
 2.71864643049048E+0000
 11
 4.05480630522652E+0000
 21
 2.76137108921466E+0000
  0
LINE
  8
1
  6
CONTINUOUS
 62
     1
 10
 4.11462082744401E+0000
 20
 2.72221077118229E+0000
 11
 4.06913797340530E+0000
 21
 2.76769362522100E+0000
  0
LINE
  8
1
  6
CONTINUOUS
 62
     1
 10
 4.13171069093369E+0000
 20
 2.72577511187774E+0000
 11
 4.09404183332663E+0000
 21
 2.76344396948480E+0000
  0
LINE
  8
1
  6
CONTINUOUS
 62
     1
 10
 4.14880055442336E+0000
 20
 2.72933945257319E+0000
 11
 4.11894569324795E+0000
 21
 2.75919431374859E+0000
  0
LINE
  8
1
  6
CONTINUOUS
 62
     1
 10
 4.16589041791303E+0000
 20
 2.73290379326863E+0000
 11
 4.14384955316928E+0000
 21
 2.75494465801239E+0000
  0
LINE
  8
1
  6
CONTINUOUS
 62
     1
 10
 4.18298028140998E+0000
 20
 2.73646813396408E+0000
 11
 4.16875341309060E+0000
 21
 2.75069500227983E+0000
  0
LINE
  8
1
  6
CONTINUOUS
 62
     1
 10
 4.20007014489966E+0000
 20
 2.74003247465589E+0000
 11
 4.19365727301192E+0000
 21
 2.74644534654362E+0000
  0
LINE
  8
1
  6
CONTINUOUS
 62
     1
 10
 4.20527389292693E+0000
 20
 2.74446305802121E+0000
 11
 4.20104705934500E+0000
 21
 2.74023622443201E+0000
  0
LINE
  8
1
  6
CONTINUOUS
 62
     1
 10
 4.18763041507918E+0000
 20
 2.74747378435131E+0000
 11
 4.17494991431158E+0000
 21
 2.73479328358371E+0000
  0
LINE
  8
1
  6
CONTINUOUS
 62
     1
 10
 4.16998693722417E+0000
 20
 2.75048451068506E+0000
 11
 4.14885276927816E+0000
 21
 2.72935034274269E+0000
  0
LINE
  8
1
  6
CONTINUOUS
 62
     1
 10
 4.15234345937643E+0000
 20
 2.75349523702243E+0000
 11
 4.12275562424475E+0000
 21
 2.72390740189439E+0000
  0
LINE
  8
1
  6
CONTINUOUS
 62
     1
 10
 4.13469998152141E+0000
 20
 2.75650596335254E+0000
 11
 4.09665847921860E+0000
 21
 2.71846446104973E+0000
  0
LINE
  8
1
  6
CONTINUOUS
 62
     1
 10
 4.11705650366639E+0000
 20
 2.75951668968628E+0000
 11
 4.07056133418519E+0000
 21
 2.71302152020144E+0000
  0
LINE
  8
1
  6
CONTINUOUS
 62
     1
 10
 4.09941302581137E+0000
 20
 2.76252741601638E+0000
 11
 4.05480630522652E+0000
 21
 2.71792069542789E+0000
  0
LINE
  8
1
  6
CONTINUOUS
 62
     1
 10
 4.08176954795636E+0000
 20
 2.76553814235012E+0000
 11
 4.05480630522652E+0000
 21
 2.73857489961301E+0000
  0
LINE
  8
1
  6
CONTINUOUS
 62
     1
 10
 4.06412607010861E+0000
 20
 2.76854886868023E+0000
 11
 4.05480630522652E+0000
 21
 2.75922910379813E+0000
  0
LINE
  8
1
  6
CONTINUOUS
 62
     1
 10
 4.21409563186171E+0000
 20
 2.74295769485980E+0000
 11
 4.21409563186171E+0000
 21
 2.74295769485980E+0000
  0
LINE
  8
1
  6
CONTINUOUS
 62
     1
 10
 4.21409563186171E+0000
 20
 2.74295769485980E+0000
 11
 4.05480630522652E+0000
 21
 2.77013921622347E+0000
  0
LINE
  8
1
  6
CONTINUOUS
 62
     1
 10
 4.05480630522652E+0000
 20
 2.77013921622347E+0000
 11
 4.05480630522652E+0000
 21
 2.70973557875186E+0000
  0
LINE
  8
1
  6
CONTINUOUS
 62
     1
 10
 4.05480630522652E+0000
 20
 2.70973557875186E+0000
 11
 4.21409563186171E+0000
 21
 2.74295769485980E+0000
  0
LINE
  8
1
  6
CONTINUOUS
 62
     1
 10
 4.05480630522652E+0000
 20
 2.77013921622347E+0000
 11
 4.05480630522652E+0000
 21
 2.70973557875186E+0000
  0
LINE
  8
1
  6
CONTINUOUS
 62
     1
 10
 4.06335123697500E+0000
 20
 2.71151774909958E+0000
 11
 4.05480630522652E+0000
 21
 2.72006268084442E+0000
  0
LINE
  8
1
  6
CONTINUOUS
 62
     1
 10
 4.08044110046467E+0000
 20
 2.71508208979503E+0000
 11
 4.05480630522652E+0000
 21
 2.74071688502954E+0000
  0
LINE
  8
1
  6
CONTINUOUS
 62
     1
 10
 4.09753096395434E+0000
 20
 2.71864643049048E+0000
 11
 4.05480630522652E+0000
 21
 2.76137108921466E+0000
  0
LINE
  8
1
  6
CONTINUOUS
 62
     1
 10
 4.11462082744401E+0000
 20
 2.72221077118229E+0000
 11
 4.06913797340530E+0000
 21
 2.76769362522100E+0000
  0
LINE
  8
1
  6
CONTINUOUS
 62
     1
 10
 4.13171069093369E+0000
 20
 2.72577511187774E+0000
 11
 4.09404183332663E+0000
 21
 2.76344396948480E+0000
  0
LINE
  8
1
  6
CONTINUOUS
 62
     1
 10
 4.14880055442336E+0000
 20
 2.72933945257319E+0000
 11
 4.11894569324795E+0000
 21
 2.75919431374859E+0000
  0
LINE
  8
1
  6
CONTINUOUS
 62
     1
 10
 4.16589041791303E+0000
 20
 2.73290379326863E+0000
 11
 4.14384955316928E+0000
 21
 2.75494465801239E+0000
  0
LINE
  8
1
  6
CONTINUOUS
 62
     1
 10
 4.18298028140998E+0000
 20
 2.73646813396408E+0000
 11
 4.16875341309060E+0000
 21
 2.75069500227983E+0000
  0
LINE
  8
1
  6
CONTINUOUS
 62
     1
 10
 4.20007014489966E+0000
 20
 2.74003247465589E+0000
 11
 4.19365727301192E+0000
 21
 2.74644534654362E+0000
  0
LINE
  8
1
  6
CONTINUOUS
 62
     1
 10
 4.20527389292693E+0000
 20
 2.74446305802121E+0000
 11
 4.20104705934500E+0000
 21
 2.74023622443201E+0000
  0
LINE
  8
1
  6
CONTINUOUS
 62
     1
 10
 4.18763041507918E+0000
 20
 2.74747378435131E+0000
 11
 4.17494991431158E+0000
 21
 2.73479328358371E+0000
  0
LINE
  8
1
  6
CONTINUOUS
 62
     1
 10
 4.16998693722417E+0000
 20
 2.75048451068506E+0000
 11
 4.14885276927816E+0000
 21
 2.72935034274269E+0000
  0
LINE
  8
1
  6
CONTINUOUS
 62
     1
 10
 4.15234345937643E+0000
 20
 2.75349523702243E+0000
 11
 4.12275562424475E+0000
 21
 2.72390740189439E+0000
  0
LINE
  8
1
  6
CONTINUOUS
 62
     1
 10
 4.13469998152141E+0000
 20
 2.75650596335254E+0000
 11
 4.09665847921860E+0000
 21
 2.71846446104973E+0000
  0
LINE
  8
1
  6
CONTINUOUS
 62
     1
 10
 4.11705650366639E+0000
 20
 2.75951668968628E+0000
 11
 4.07056133418519E+0000
 21
 2.71302152020144E+0000
  0
LINE
  8
1
  6
CONTINUOUS
 62
     1
 10
 4.09941302581137E+0000
 20
 2.76252741601638E+0000
 11
 4.05480630522652E+0000
 21
 2.71792069542789E+0000
  0
LINE
  8
1
  6
CONTINUOUS
 62
     1
 10
 4.08176954795636E+0000
 20
 2.76553814235012E+0000
 11
 4.05480630522652E+0000
 21
 2.73857489961301E+0000
  0
LINE
  8
1
  6
CONTINUOUS
 62
     1
 10
 4.06412607010861E+0000
 20
 2.76854886868023E+0000
 11
 4.05480630522652E+0000
 21
 2.75922910379813E+0000
  0
LINE
  8
1
  6
CONTINUOUS
 62
     1
 10
 4.34446297364775E+0000
 20
 2.74193479767200E+0000
 11
 4.34446297364775E+0000
 21
 2.74193479767200E+0000
  0
LINE
  8
1
  6
CONTINUOUS
 62
     1
 10
 4.34446297364775E+0000
 20
 2.74193479767200E+0000
 11
 4.50375230029749E+0000
 21
 2.71475327630833E+0000
  0
LINE
  8
1
  6
CONTINUOUS
 62
     1
 10
 4.50375230029749E+0000
 20
 2.71475327630833E+0000
 11
 4.50375230029749E+0000
 21
 2.77515691377994E+0000
  0
LINE
  8
1
  6
CONTINUOUS
 62
     1
 10
 4.50375230029749E+0000
 20
 2.77515691377994E+0000
 11
 4.34446297364775E+0000
 21
 2.74193479767200E+0000
  0
LINE
  8
1
  6
CONTINUOUS
 62
     1
 10
 4.50375230029749E+0000
 20
 2.71475327630833E+0000
 11
 4.50375230029749E+0000
 21
 2.77515691377994E+0000
  0
LINE
  8
1
  6
CONTINUOUS
 62
     1
 10
 4.35691490360477E+0000
 20
 2.73980996980754E+0000
 11
 4.35300790539623E+0000
 21
 2.74371696801973E+0000
  0
LINE
  8
1
  6
CONTINUOUS
 62
     1
 10
 4.38181876352610E+0000
 20
 2.73556031407134E+0000
 11
 4.37009776888590E+0000
 21
 2.74728130871517E+0000
  0
LINE
  8
1
  6
CONTINUOUS
 62
     1
 10
 4.40672262344742E+0000
 20
 2.73131065833877E+0000
 11
 4.38718763237557E+0000
 21
 2.75084564940698E+0000
  0
LINE
  8
1
  6
CONTINUOUS
 62
     1
 10
 4.43162648336875E+0000
 20
 2.72706100260257E+0000
 11
 4.40427749586524E+0000
 21
 2.75440999010243E+0000
  0
LINE
  8
1
  6
CONTINUOUS
 62
     1
 10
 4.45653034329007E+0000
 20
 2.72281134687000E+0000
 11
 4.42136735935492E+0000
 21
 2.75797433079788E+0000
  0
LINE
  8
1
  6
CONTINUOUS
 62
     1
 10
 4.48143420320412E+0000
 20
 2.71856169113744E+0000
 11
 4.43845722285187E+0000
 21
 2.76153867149333E+0000
  0
LINE
  8
1
  6
CONTINUOUS
 62
     1
 10
 4.50375230030477E+0000
 20
 2.71689779822555E+0000
 11
 4.45554708634154E+0000
 21
 2.76510301218877E+0000
  0
LINE
  8
1
  6
CONTINUOUS
 62
     1
 10
 4.50375230029749E+0000
 20
 2.73755200241067E+0000
 11
 4.47263694983121E+0000
 21
 2.76866735288058E+0000
  0
LINE
  8
1
  6
CONTINUOUS
 62
     1
 10
 4.50375230029749E+0000
 20
 2.75820620659943E+0000
 11
 4.48972681332089E+0000
 21
 2.77223169357603E+0000
  0
LINE
  8
1
  6
CONTINUOUS
 62
     1
 10
 4.50375230029022E+0000
 20
 2.72508037839725E+0000
 11
 4.49493056136271E+0000
 21
 2.71625863946974E+0000
  0
LINE
  8
1
  6
CONTINUOUS
 62
     1
 10
 4.50375230029022E+0000
 20
 2.74573458258237E+0000
 11
 4.47728708351497E+0000
 21
 2.71926936580348E+0000
  0
LINE
  8
1
  6
CONTINUOUS
 62
     1
 10
 4.50375230029022E+0000
 20
 2.76638878676749E+0000
 11
 4.45964360565995E+0000
 21
 2.72228009213359E+0000
  0
LINE
  8
1
  6
CONTINUOUS
 62
     1
 10
 4.48873392063979E+0000
 20
 2.77202461129855E+0000
 11
 4.44200012781221E+0000
 21
 2.72529081847097E+0000
  0
LINE
  8
1
  6
CONTINUOUS
 62
     1
 10
 4.46263677561365E+0000
 20
 2.76658167045753E+0000
 11
 4.42435664995719E+0000
 21
 2.72830154480107E+0000
  0
LINE
  8
1
  6
CONTINUOUS
 62
     1
 10
 4.43653963058023E+0000
 20
 2.76113872960923E+0000
 11
 4.40671317210217E+0000
 21
 2.73131227113481E+0000
  0
LINE
  8
1
  6
CONTINUOUS
 62
     1
 10
 4.41044248554681E+0000
 20
 2.75569578876457E+0000
 11
 4.38906969424715E+0000
 21
 2.73432299746491E+0000
  0
LINE
  8
1
  6
CONTINUOUS
 62
     1
 10
 4.38434534051339E+0000
 20
 2.75025284791627E+0000
 11
 4.37142621639941E+0000
 21
 2.73733372379866E+0000
  0
LINE
  8
1
  6
CONTINUOUS
 62
     1
 10
 4.35824819548725E+0000
 20
 2.74480990707161E+0000
 11
 4.35378273854440E+0000
 21
 2.74034445012876E+0000
  0
LINE
  8
1
  6
CONTINUOUS
 62
     1
 10
 4.34446297364775E+0000
 20
 2.74193479767200E+0000
 11
 4.34446297364775E+0000
 21
 2.74193479767200E+0000
  0
LINE
  8
1
  6
CONTINUOUS
 62
     1
 10
 4.34446297364775E+0000
 20
 2.74193479767200E+0000
 11
 4.50375230029749E+0000
 21
 2.71475327630833E+0000
  0
LINE
  8
1
  6
CONTINUOUS
 62
     1
 10
 4.50375230029749E+0000
 20
 2.71475327630833E+0000
 11
 4.50375230029749E+0000
 21
 2.77515691377994E+0000
  0
LINE
  8
1
  6
CONTINUOUS
 62
     1
 10
 4.50375230029749E+0000
 20
 2.77515691377994E+0000
 11
 4.34446297364775E+0000
 21
 2.74193479767200E+0000
  0
LINE
  8
1
  6
CONTINUOUS
 62
     1
 10
 4.50375230029749E+0000
 20
 2.71475327630833E+0000
 11
 4.50375230029749E+0000
 21
 2.77515691377994E+0000
  0
LINE
  8
1
  6
CONTINUOUS
 62
     1
 10
 4.35691490360477E+0000
 20
 2.73980996980754E+0000
 11
 4.35300790539623E+0000
 21
 2.74371696801973E+0000
  0
LINE
  8
1
  6
CONTINUOUS
 62
     1
 10
 4.38181876352610E+0000
 20
 2.73556031407134E+0000
 11
 4.37009776888590E+0000
 21
 2.74728130871517E+0000
  0
LINE
  8
1
  6
CONTINUOUS
 62
     1
 10
 4.40672262344742E+0000
 20
 2.73131065833877E+0000
 11
 4.38718763237557E+0000
 21
 2.75084564940698E+0000
  0
LINE
  8
1
  6
CONTINUOUS
 62
     1
 10
 4.43162648336875E+0000
 20
 2.72706100260257E+0000
 11
 4.40427749586524E+0000
 21
 2.75440999010243E+0000
  0
LINE
  8
1
  6
CONTINUOUS
 62
     1
 10
 4.45653034329007E+0000
 20
 2.72281134687000E+0000
 11
 4.42136735935492E+0000
 21
 2.75797433079788E+0000
  0
LINE
  8
1
  6
CONTINUOUS
 62
     1
 10
 4.48143420320412E+0000
 20
 2.71856169113744E+0000
 11
 4.43845722285187E+0000
 21
 2.76153867149333E+0000
  0
LINE
  8
1
  6
CONTINUOUS
 62
     1
 10
 4.50375230030477E+0000
 20
 2.71689779822555E+0000
 11
 4.45554708634154E+0000
 21
 2.76510301218877E+0000
  0
LINE
  8
1
  6
CONTINUOUS
 62
     1
 10
 4.50375230029749E+0000
 20
 2.73755200241067E+0000
 11
 4.47263694983121E+0000
 21
 2.76866735288058E+0000
  0
LINE
  8
1
  6
CONTINUOUS
 62
     1
 10
 4.50375230029749E+0000
 20
 2.75820620659943E+0000
 11
 4.48972681332089E+0000
 21
 2.77223169357603E+0000
  0
LINE
  8
1
  6
CONTINUOUS
 62
     1
 10
 4.50375230029022E+0000
 20
 2.72508037839725E+0000
 11
 4.49493056136271E+0000
 21
 2.71625863946974E+0000
  0
LINE
  8
1
  6
CONTINUOUS
 62
     1
 10
 4.50375230029022E+0000
 20
 2.74573458258237E+0000
 11
 4.47728708351497E+0000
 21
 2.71926936580348E+0000
  0
LINE
  8
1
  6
CONTINUOUS
 62
     1
 10
 4.50375230029022E+0000
 20
 2.76638878676749E+0000
 11
 4.45964360565995E+0000
 21
 2.72228009213359E+0000
  0
LINE
  8
1
  6
CONTINUOUS
 62
     1
 10
 4.48873392063979E+0000
 20
 2.77202461129855E+0000
 11
 4.44200012781221E+0000
 21
 2.72529081847097E+0000
  0
LINE
  8
1
  6
CONTINUOUS
 62
     1
 10
 4.46263677561365E+0000
 20
 2.76658167045753E+0000
 11
 4.42435664995719E+0000
 21
 2.72830154480107E+0000
  0
LINE
  8
1
  6
CONTINUOUS
 62
     1
 10
 4.43653963058023E+0000
 20
 2.76113872960923E+0000
 11
 4.40671317210217E+0000
 21
 2.73131227113481E+0000
  0
LINE
  8
1
  6
CONTINUOUS
 62
     1
 10
 4.41044248554681E+0000
 20
 2.75569578876457E+0000
 11
 4.38906969424715E+0000
 21
 2.73432299746491E+0000
  0
LINE
  8
1
  6
CONTINUOUS
 62
     1
 10
 4.38434534051339E+0000
 20
 2.75025284791627E+0000
 11
 4.37142621639941E+0000
 21
 2.73733372379866E+0000
  0
LINE
  8
1
  6
CONTINUOUS
 62
     1
 10
 4.35824819548725E+0000
 20
 2.74480990707161E+0000
 11
 4.35378273854440E+0000
 21
 2.74034445012876E+0000
  0
TEXT
  8
1
 62
     1
 10
 4.45978740083228E+0000
 20
 4.54779421851708E+0000
 40
 1.18110236219991E-0001
  1
20
  7
STANDARD
 11
 4.45978740083228E+0000
 21
 4.66590445473412E+0000
 50
 0.00000000000000E+0000
 41
 3.08371993680339E-0001
  0
TEXT
  8
1
 62
     1
 10
 6.47543421718728E+0000
 20
 4.60511687729741E+0000
 40
 1.18110236219991E-0001
  1
25
  7
STANDARD
 11
 6.47543421718728E+0000
 21
 4.72322711351444E+0000
 50
 0.00000000000000E+0000
 41
 3.08371993680339E-0001
  0
TEXT
  8
1
 62
     1
 10
 6.49925982967397E+0000
 20
 4.39971068333398E+0000
 40
 1.18110236219991E-0001
  1
16
  7
STANDARD
 11
 6.49925982967397E+0000
 21
 4.51782091955101E+0000
 50
 0.00000000000000E+0000
 41
 3.08371993680339E-0001
  0
TEXT
  8
1
 62
     1
 10
 6.48972958467493E+0000
 20
 4.21341204228520E+0000
 40
 1.18110236219991E-0001
  1
6H7
  7
STANDARD
 11
 6.48972958467493E+0000
 21
 4.33152227850223E+0000
 50
 0.00000000000000E+0000
 41
 3.34069659820670E-0001
  0
TEXT
  8
1
 62
     1
 10
 4.25965225594700E+0000
 20
 2.73735357863552E+0000
 40
 1.18110236219991E-0001
  1
3
  7
STANDARD
 11
 4.25965225594700E+0000
 21
 2.85546381485619E+0000
 50
 0.00000000000000E+0000
 41
 3.08371993680339E-0001
  0
TEXT
  8
1
 62
     1
 10
 9.63258251045772E+0000
 20
 1.08660354708263E+0000
 40
 1.18110236219991E-0001
  1
Messing
  7
STANDARD
 11
 9.63258251045772E+0000
 21
 1.20471378330330E+0000
 50
 0.00000000000000E+0000
 41
 2.97358708191950E-0001
  0
TEXT
  8
1
 62
     1
 10
 9.62627690403315E+0000
 20
 7.67384168227181E-0001
 40
 1.18110236219991E-0001
  1
04.01.2004
  7
STANDARD
 11
 9.62627690403315E+0000
 21
 8.85494404446945E-0001
 50
 0.00000000000000E+0000
 41
 2.77534794312487E-0001
  0
TEXT
  8
1
 62
     1
 10
 1.08180365174776E+0001
 20
 3.88113619093019E-0001
 40
 1.18110236219991E-0001
  1
1
  7
STANDARD
 11
 1.08180365174776E+0001
 21
 5.06223855312783E-0001
 50
 0.00000000000000E+0000
 41
 3.08371993680339E-0001
  0
TEXT
  8
1
 62
     1
 10
 9.82805342265056E+0000
 20
 1.28278691033302E+0000
 40
 1.96850393699833E-0001
  1
Spannrolle
  7
STANDARD
 11
 9.82805342265056E+0000
 21
 1.47963730403353E+0000
 50
 0.00000000000000E+0000
 41
 1.61895296682360E-0001
  0
TEXT
  8
1
 62
     1
 10
 9.07905955253227E+0000
 20
 3.93762150576549E-0001
 40
 1.18110236219991E-0001
  1
(c)
  7
STANDARD
 11
 9.07905955253227E+0000
 21
 5.11872386796313E-0001
 50
 0.00000000000000E+0000
 41
 2.05581329120378E-0001
0
ENDSEC
0
EOF
