0
SECTION
  2
HEADER
  9
$LTSCALE
 40
     10
  9
$LIMMIN
 10
     0.0
 20
     0.0
  9
$LIMMAX
 10
      11.5
 20
       8.0
  9
$EXTMIN
 10
     0.0
 20
     0.0
  9
$EXTMAX
 10
      11.5
 20
       8.0
   9
$CLAYER
   8
1
   9
$CECOLOR
  62
     7
   9
$CELTYPE
   6
CONTINUOUS
  0
ENDSEC
  0
SECTION
  2
TABLES
  0
TABLE
  2
LTYPE
 70
    10
  0
LTYPE
  2
CONTINUOUS
 70
    64
  3
Solid line
 72
    65
 73
     0
 40
0.0
  0
LTYPE
  2
DASHED
 70
     0
  3
__ __ __ __ __ __ __ __ __ __ __ __ __ __ __
 72
    65
 73
     2
 40
0.75
 49
0.5
 49
-0.25
  0
LTYPE
  2
HIDDEN
 70
     0
  3
_ _ _ _ _ _ _ _ _ _ _ _ _ _ _ _ _ _ _ _ _ _
 72
    65
 73
     2
 40
0.375
 49
0.25
 49
-0.125
  0
LTYPE
  2
CENTER
 70
     0
  3
____ _ ____ _ ____ _ ____ _ ____ _ ____ _ __
 72
    65
 73
     4
 40
2.0
 49
1.25
 49
-0.25
 49
0.25
 49
-0.25
  0
LTYPE
  2
PHANTOM
 70
     0
  3
_____ _ _ _____ _ _ _____ _ _ _____ _ _ ____
 72
    65
 73
     6
 40
2.5
 49
1.25
 49
-0.25
 49
0.25
 49
-0.25
 49
0.25
 49
-0.25
  0
LTYPE
  2
DOT
 70
     0
  3
............................................
 72
    65
 73
     2
 40
0.25
 49
0.0
 49
-0.25
  0
LTYPE
  2
DASHDOT
 70
     0
  3
__ . __ . __ . __ . __ . __ . __ . __ . __ .
 72
    65
 73
     4
 40
1.0
 49
0.5
 49
-0.25
 49
0.0
 49
-0.25
  0
LTYPE
  2
BORDER
 70
     0
  3
__ __ . __ __ . __ __ . __ __ . __ __ . __ _
 72
    65
 73
     6
 40
1.75
 49
0.5
 49
-0.25
 49
0.5
 49
-0.25
 49
0.0
 49
-0.25
  0
LTYPE
  2
DIVIDE
 70
     0
  3
__ . . __ . . __ . . __ . . __ . . __ . . __
 72
    65
 73
     6
 40
1.25
 49
0.5
 49
-0.25
 49
0.0
 49
-0.25
 49
0.0
 49
-0.25
  0
LTYPE
  2
DIVIDE2
 70
     0
  3
close
 72
    65
 73
     2
 40
0.1
 49
0.05
 49
-0.05
  0
ENDTAB
0
TABLE
  2
LAYER
 70
   256
  0
LAYER
  2
1
 70
     0
  6
CONTINUOUS
 62
1
  0
ENDTAB
  0
TABLE
  2
STYLE
 70
     8
  0
STYLE
  2
TXT
 70
0
 40
0.0
 41
1.0
 50
0.0
 71
0
 42
1.0
  3
TXT
  4

  0
STYLE
  2
COMPLEX
 70
0
 40
0.0
 41
1.0
 50
0.0
 71
0
 42
1.0
  3
COMPLEX
  4

  0
STYLE
  2
ITALIC
 70
0
 40
0.0
 41
1.0
 50
0.0
 71
0
 42
1.0
  3
ITALIC
  4

  0
STYLE
  2
SIMPLEX
70
0
 40
0.0
 41
1.0
 50
0.0
 71
0
 42
1.0
  3
SIMPLEX
  4

  0
STYLE
  2
MONOTXT
 70
0
 40
0.0
 41
1.0
 50
0.0
 71
0
 42
1.0
  3
MONOTXT
  4

  0
STYLE
  2
SCRIPTC
 70
0
 40
0.0
 41
1.0
 50
0.0
 71
0
 42
1.0
  3
SCRIPTC
  4

  0
STYLE
  2
GOTHICE
 70
0
 40
0.0
 41
1.0
 50
0.0
 71
0
 42
1.0
  3
GOTHICE
  4

  0
ENDTAB
  0
TABLE
  2
VIEW
 70
     0
  0
ENDTAB
  0
ENDSEC
  0
SECTION
  2
ENTITIES
  0
LINE
  8
1
  6
CONTINUOUS
 62
     0
 10
 1.10824245900876E+0001
 20
 3.66054472739052E-0001
 11
 8.90078496305796E+0000
 21
 3.66054472739052E-0001
  0
LINE
  8
1
  6
CONTINUOUS
 62
     0
 10
 8.90078496305796E+0000
 20
 3.66054472739052E-0001
 11
 8.90078496305796E+0000
 21
 1.55291635594767E+0000
  0
LINE
  8
1
  6
CONTINUOUS
 62
     0
 10
 8.90078496305796E+0000
 20
 1.55291635594767E+0000
 11
 1.10824245900876E+0001
 21
 1.55291635594767E+0000
  0
LINE
  8
1
  6
CONTINUOUS
 62
     0
 10
 1.10824245900876E+0001
 20
 1.55291635594767E+0000
 11
 1.10824245900876E+0001
 21
 3.66054472739052E-0001
  0
LINE
  8
1
  6
CONTINUOUS
 62
     0
 10
 8.90010336294654E+0000
 20
 1.23953147667635E+0000
 11
 1.10833476808330E+0001
 21
 1.23953147667635E+0000
  0
LINE
  8
1
  6
CONTINUOUS
 62
     0
 10
 8.90774062665878E+0000
 20
 5.23861750931246E-0001
 11
 1.10909849445452E+0001
 21
 5.23861750931246E-0001
  0
TEXT
  8
1
 62
     0
 10
 8.94823287868348E+0000
 20
 1.35143637997317E+0000
 40
 1.18110236219991E-0001
  1
Benennung
  7
STANDARD
 11
 8.94823287868348E+0000
 21
 1.46954661619384E+0000
 50
 0.00000000000000E+0000
 41
 3.16937882393631E-0001
  0
LINE
  8
1
  6
CONTINUOUS
 62
     0
 10
 9.57264299190138E+0000
 20
 1.55147486233909E+0000
 11
 9.57264299190138E+0000
 21
 1.23953147667635E+0000
  0
LINE
  8
1
  6
CONTINUOUS
 62
     0
 10
 8.90010336294654E+0000
 20
 1.07349709398113E+0000
 11
 1.10833476808330E+0001
 21
 1.07349709398113E+0000
  0
LINE
  8
1
  6
CONTINUOUS
 62
     0
 10
 8.90010336294654E+0000
 20
 9.07462711285916E-0001
 11
 1.10833476808330E+0001
 21
 9.07462711285916E-0001
  0
TEXT
  8
1
 62
     0
 10
 8.95298969198484E+0000
 20
 1.08890528919073E+0000
 40
 1.18110236219991E-0001
  1
Werkstoff
  7
STANDARD
 11
 8.95298969198484E+0000
 21
 1.20701552541141E+0000
 50
 0.00000000000000E+0000
 41
 2.56976661400131E-0001
  0
LINE
  8
1
  6
CONTINUOUS
 62
     0
 10
 9.57264299190138E+0000
 20
 1.23953147667635E+0000
 11
 9.57264299190138E+0000
 21
 1.07349709398113E+0000
  0
LINE
  8
1
  6
CONTINUOUS
 62
     0
 10
 1.05011491960613E+0001
 20
 1.23953147667635E+0000
 11
 1.05011491960613E+0001
 21
 1.07349709398113E+0000
  0
TEXT
  8
1
 62
     0
 10
 1.05670323736267E+0001
 20
 1.08890528919073E+0000
 40
 1.18110236219991E-0001
  1
M 1:1
  7
STANDARD
 11
 1.05670323736267E+0001
 21
 1.20701552541141E+0000
 50
 0.00000000000000E+0000
 41
 2.62116194628561E-0001
  0
LINE
  8
1
  6
CONTINUOUS
 62
     0
 10
 8.90078496305796E+0000
 20
 1.55291635594767E+0000
 11
 1.10883666332957E+0001
 21
 1.55291635594767E+0000
  0
LINE
  8
1
  6
CONTINUOUS
 62
     0
 10
 8.90078496305796E+0000
 20
 1.55291635594767E+0000
 11
 1.10824245900876E+0001
 21
 1.55291635594767E+0000
  0
LINE
  8
1
  6
CONTINUOUS
 62
     0
 10
 1.10824245900876E+0001
 20
 1.55291635594767E+0000
 11
 1.10824245900876E+0001
 21
 3.66054472739052E-0001
  0
LINE
  8
1
  6
CONTINUOUS
 62
     0
 10
 1.10824245900876E+0001
 20
 3.66054472739052E-0001
 11
 8.90078496305796E+0000
 21
 3.66054472739052E-0001
  0
LINE
  8
1
  6
CONTINUOUS
 62
     0
 10
 8.90078496305796E+0000
 20
 3.66054472739052E-0001
 11
 8.90078496305796E+0000
 21
 1.55291635594767E+0000
  0
TEXT
  8
1
 62
     0
 10
 8.94643199958955E+0000
 20
 9.29817355409796E-0001
 40
 1.18110236219991E-0001
  1
Bearb.
  7
STANDARD
 11
 8.94643199958955E+0000
 21
 1.04792759162956E+0000
 50
 0.00000000000000E+0000
 41
 2.69825494470297E-0001
  0
LINE
  8
1
  6
CONTINUOUS
 62
     0
 10
 9.57372805119667E+0000
 20
 1.07462383869279E+0000
 11
 9.57372805119667E+0000
 21
 9.08513856978971E-0001
  0
LINE
  8
1
  6
CONTINUOUS
 62
     0
 10
 8.90204784499656E+0000
 20
 7.36471375930705E-0001
 11
 1.10827893074456E+0001
 21
 7.36471375930705E-0001
  0
LINE
  8
1
  6
CONTINUOUS
 62
     0
 10
 9.57372805119667E+0000
 20
 9.08513856978971E-0001
 11
 9.57372805119667E+0000
 21
 7.36471375930705E-0001
  0
TEXT
  8
1
 62
     0
 10
 8.94643199958955E+0000
 20
 7.54808624687030E-0001
 40
 1.18110236219991E-0001
  1
Datum
  7
STANDARD
 11
 8.94643199958955E+0000
 21
 8.72918860906793E-0001
 50
 0.00000000000000E+0000
 41
 3.23790593364265E-0001
  0
LINE
  8
1
  6
CONTINUOUS
 62
     0
 10
 1.04998774104170E+0001
 20
 5.19935149772209E-0001
 11
 1.04998774104170E+0001
 21
 3.68656416430895E-0001
  0
TEXT
  8
1
 62
     0
 10
 9.62994798035652E+0000
 20
 9.20918606393570E-0001
 40
 1.18110236219991E-0001
  1
D.Freind
  7
STANDARD
 11
 9.62994798035652E+0000
 21
 1.03902884261333E+0000
 50
 0.00000000000000E+0000
 41
 2.60188869667672E-0001
  0
TEXT
  8
1
 62
     0
 10
 1.05235489595507E+0001
 20
 3.84027415512719E-0001
 40
 1.18110236219991E-0001
  1
Blatt
  7
STANDARD
 11
 1.05235489595507E+0001
 21
 5.02137651732482E-0001
 50
 0.00000000000000E+0000
 41
 2.31278995260254E-0001
  0
TEXT
  8
1
 62
     0
 10
 9.04969655426976E+0000
 20
 5.46297824291287E-0001
 40
 1.18110236219991E-0001
  1
für Revolver 8-fach 
  7
STANDARD
 11
 9.04969655426976E+0000
 21
 6.64408060511050E-0001
 50
 0.00000000000000E+0000
 41
 2.35133645181349E-0001
  0
TEXT
  8
1
 62
     0
 10
 9.21804613078712E+0000
 20
 3.93308872470698E-0001
 40
 1.18110236219991E-0001
  1
www.cnc-projects.de.vu
  7
STANDARD
 11
 9.21804613078712E+0000
 21
 5.11419108690461E-0001
 50
 0.00000000000000E+0000
 41
 2.66321267269177E-0001
  0
TEXT
  8
1
 62
     0
 10
 9.63511565663794E+0000
 20
 1.10198660545939E+0000
 40
 1.18110236219991E-0001
  1
Aluminium
  7
STANDARD
 11
 9.63511565663794E+0000
 21
 1.22009684168006E+0000
 50
 0.00000000000000E+0000
 41
 2.99806104967047E-0001
  0
LINE
  8
1
  6
CONTINUOUS
 62
     0
 10
 5.15998572367971E+0000
 20
 3.21252334207384E+0000
 11
 5.15998572367971E+0000
 21
 3.21252334207384E+0000
  0
LINE
  8
1
  6
CONTINUOUS
 62
     0
 10
 5.15998572367971E+0000
 20
 3.21252334207384E+0000
 11
 5.13280420231604E+0000
 21
 3.05323401544592E+0000
  0
LINE
  8
1
  6
CONTINUOUS
 62
     0
 10
 5.13280420231604E+0000
 20
 3.05323401544592E+0000
 11
 5.19320783978765E+0000
 21
 3.05323401544592E+0000
  0
LINE
  8
1
  6
CONTINUOUS
 62
     0
 10
 5.19320783978765E+0000
 20
 3.05323401544592E+0000
 11
 5.15998572367971E+0000
 21
 3.21252334207384E+0000
  0
LINE
  8
1
  6
CONTINUOUS
 62
     0
 10
 5.13280420231604E+0000
 20
 3.05323401544592E+0000
 11
 5.19320783978765E+0000
 21
 3.05323401544592E+0000
  0
LINE
  8
1
  6
CONTINUOUS
 62
     0
 10
 5.14313130440860E+0000
 20
 3.05323401544592E+0000
 11
 5.13430956548109E+0000
 21
 3.06205575437343E+0000
  0
LINE
  8
1
  6
CONTINUOUS
 62
     0
 10
 5.16378550859372E+0000
 20
 3.05323401544592E+0000
 11
 5.13732029181119E+0000
 21
 3.07969923222481E+0000
  0
LINE
  8
1
  6
CONTINUOUS
 62
     0
 10
 5.18443971277884E+0000
 20
 3.05323401544592E+0000
 11
 5.14033101814857E+0000
 21
 3.09734271007619E+0000
  0
LINE
  8
1
  6
CONTINUOUS
 62
     0
 10
 5.19007553731353E+0000
 20
 3.06825239509635E+0000
 11
 5.14334174447868E+0000
 21
 3.11498618792757E+0000
  0
LINE
  8
1
  6
CONTINUOUS
 62
     0
 10
 5.18463259646524E+0000
 20
 3.09434954012977E+0000
 11
 5.14635247081605E+0000
 21
 3.13262966578259E+0000
  0
LINE
  8
1
  6
CONTINUOUS
 62
     0
 10
 5.17918965561694E+0000
 20
 3.12044668515955E+0000
 11
 5.14936319714616E+0000
 21
 3.15027314363397E+0000
  0
LINE
  8
1
  6
CONTINUOUS
 62
     0
 10
 5.17374671476864E+0000
 20
 3.14654383019297E+0000
 11
 5.15237392347626E+0000
 21
 3.16791662148535E+0000
  0
LINE
  8
1
  6
CONTINUOUS
 62
     0
 10
 5.16830377392762E+0000
 20
 3.17264097522639E+0000
 11
 5.15538464981364E+0000
 21
 3.18556009934036E+0000
  0
LINE
  8
1
  6
CONTINUOUS
 62
     0
 10
 5.16286083307932E+0000
 20
 3.19873812025617E+0000
 11
 5.15839537614374E+0000
 21
 3.20320357719174E+0000
  0
LINE
  8
1
  6
CONTINUOUS
 62
     0
 10
 5.19142566943628E+0000
 20
 3.06177894719076E+0000
 11
 5.18288073769509E+0000
 21
 3.05323401544592E+0000
  0
LINE
  8
1
  6
CONTINUOUS
 62
     0
 10
 5.18786132874811E+0000
 20
 3.07886881068407E+0000
 11
 5.16222653350997E+0000
 21
 3.05323401544592E+0000
  0
LINE
  8
1
  6
CONTINUOUS
 62
     0
 10
 5.18429698804539E+0000
 20
 3.09595867417011E+0000
 11
 5.14157232932484E+0000
 21
 3.05323401544592E+0000
  0
LINE
  8
1
  6
CONTINUOUS
 62
     0
 10
 5.18073264734994E+0000
 20
 3.11304853765978E+0000
 11
 5.13524979331851E+0000
 21
 3.06756568362835E+0000
  0
LINE
  8
1
  6
CONTINUOUS
 62
     0
 10
 5.17716830666177E+0000
 20
 3.13013840115309E+0000
 11
 5.13949944905471E+0000
 21
 3.09246954354967E+0000
  0
LINE
  8
1
  6
CONTINUOUS
 62
     0
 10
 5.17360396596632E+0000
 20
 3.14722826464276E+0000
 11
 5.14374910479091E+0000
 21
 3.11737340347099E+0000
  0
LINE
  8
1
  6
CONTINUOUS
 62
     0
 10
 5.17003962526360E+0000
 20
 3.16431812812880E+0000
 11
 5.14799876052712E+0000
 21
 3.14227726339232E+0000
  0
LINE
  8
1
  6
CONTINUOUS
 62
     0
 10
 5.16647528457543E+0000
 20
 3.18140799162211E+0000
 11
 5.15224841626332E+0000
 21
 3.16718112331364E+0000
  0
LINE
  8
1
  6
CONTINUOUS
 62
     0
 10
 5.16291094387998E+0000
 20
 3.19849785511542E+0000
 11
 5.15649807199952E+0000
 21
 3.19208498323133E+0000
  0
TEXT
  8
1
 62
     0
 10
 9.63560188884730E+0000
 20
 7.61074853330683E-0001
 40
 1.18110236219991E-0001
  1
05.01.2004
  7
STANDARD
 11
 9.63560188884730E+0000
 21
 8.79185089550447E-0001
 50
 0.00000000000000E+0000
 41
 2.77534794312487E-0001
  0
TEXT
  8
1
 62
     0
 10
 1.08190234414215E+0001
 20
 3.87295368881496E-0001
 40
 1.18110236219991E-0001
  1
1
  7
STANDARD
 11
 1.08190234414215E+0001
 21
 5.05405605101259E-0001
 50
 0.00000000000000E+0000
 41
 3.08371993680339E-0001
  0
TEXT
  8
1
 62
     0
 10
 9.80419893196085E+0000
 20
 1.29013264012610E+0000
 40
 1.96850393699833E-0001
  1
Spannhebel
  7
STANDARD
 11
 9.80419893196085E+0000
 21
 1.48698303382662E+0000
 50
 0.00000000000000E+0000
 41
 1.80397616303253E-0001
  0
LINE
  8
1
  6
CONTINUOUS
 62
     0
 10
 5.76105811706657E+0000
 20
 5.96110768165818E+0000
 11
 6.40208336376963E+0000
 21
 5.96110768165818E+0000
  0
LINE
  8
1
  6
CONTINUOUS
 62
     0
 10
 6.40208336376963E+0000
 20
 5.96110768165818E+0000
 11
 6.40208336376963E+0000
 21
 5.91852427220147E+0000
  0
LINE
  8
1
  6
CONTINUOUS
 62
     0
 10
 6.40208336376963E+0000
 20
 5.91852427220147E+0000
 11
 7.54406016063876E+0000
 21
 5.91852427220147E+0000
  0
LINE
  8
1
  6
CONTINUOUS
 62
     0
 10
 7.54406016063876E+0000
 20
 5.91852427220147E+0000
 11
 7.54406016063876E+0000
 21
 5.48750980419572E+0000
  0
LINE
  8
1
  6
CONTINUOUS
 62
     0
 10
 7.54406016063876E+0000
 20
 5.48750980419572E+0000
 11
 6.40375041207153E+0000
 21
 5.48750980419572E+0000
  0
LINE
  8
1
  6
CONTINUOUS
 62
     0
 10
 6.40375041207153E+0000
 20
 5.48750980419572E+0000
 11
 6.40375041207153E+0000
 21
 4.58175476273755E+0000
  0
LINE
  8
1
  6
CONTINUOUS
 62
     0
 10
 6.40375041207153E+0000
 20
 4.58175476273755E+0000
 11
 5.76193672845693E+0000
 21
 4.58175476273755E+0000
  0
LINE
  8
1
  6
CONTINUOUS
 62
     0
 10
 5.76193672845693E+0000
 20
 4.58175476273755E+0000
 11
 5.76193672845693E+0000
 21
 5.96225037764816E+0000
  0
LINE
  8
1
  6
DASHDOT
 62
     0
 10
 6.07349676905142E+0000
 20
 6.03720941556821E+0000
 11
 6.07349676905142E+0000
 21
 4.50679572482477E+0000
  0
LINE
  8
1
  6
DASHDOT
 62
     0
 10
 7.29481212816609E+0000
 20
 6.01222306959244E+0000
 11
 7.29481212816609E+0000
 21
 5.41255076628295E+0000
  0
LINE
  8
1
  6
CONTINUOUS
 62
     0
 10
 5.91891927924007E+0000
 20
 5.96239804204379E+0000
 11
 5.91891927924007E+0000
 21
 4.58300504344516E+0000
  0
LINE
  8
1
  6
CONTINUOUS
 62
     0
 10
 6.23561665136367E+0000
 20
 5.96239804204379E+0000
 11
 6.23561665136367E+0000
 21
 4.58300504344516E+0000
  0
LINE
  8
1
  6
CONTINUOUS
 62
     0
 10
 7.17478816870425E+0000
 20
 5.91860778810951E+0000
 11
 7.17478816870425E+0000
 21
 5.48800362453767E+0000
  0
LINE
  8
1
  6
CONTINUOUS
 62
     0
 10
 7.41140114789596E+0000
 20
 5.91860778810951E+0000
 11
 7.41140114789596E+0000
 21
 5.48800362453767E+0000
  0
LINE
  8
1
  6
CONTINUOUS
 62
     0
 10
 4.59427094707644E+0000
 20
 5.96259488399664E+0000
 11
 4.59427094707644E+0000
 21
 4.58341582391586E+0000
  0
LINE
  8
1
  6
CONTINUOUS
 62
     0
 10
 4.59427094707644E+0000
 20
 4.58341582391586E+0000
 11
 3.95884474657214E+0000
 21
 4.58341582391586E+0000
  0
LINE
  8
1
  6
CONTINUOUS
 62
     0
 10
 3.95884474657214E+0000
 20
 4.58341582391586E+0000
 11
 3.95884474657214E+0000
 21
 5.96259488399664E+0000
  0
LINE
  8
1
  6
CONTINUOUS
 62
     0
 10
 3.95884474657214E+0000
 20
 5.96259488399664E+0000
 11
 4.59427094707644E+0000
 21
 5.96259488399664E+0000
  0
LINE
  8
1
  6
CONTINUOUS
 62
     0
 10
 3.96025979962360E+0000
 20
 5.91931332975219E+0000
 11
 4.59366449576919E+0000
 21
 5.91931332975219E+0000
  0
LINE
  8
1
  6
CONTINUOUS
 62
     0
 10
 3.96025979962360E+0000
 20
 5.48927857111266E+0000
 11
 4.59366449576919E+0000
 21
 5.48927857111266E+0000
  0
LINE
  8
1
  6
DASHDOT
 62
     0
 10
 4.27696214769821E+0000
 20
 6.02682201941207E+0000
 11
 4.27696214769821E+0000
 21
 4.50905228305055E+0000
  0
LINE
  8
1
  6
CONTINUOUS
 62
     0
 10
 4.07702916944982E+0000
 20
 5.96509365928796E+0000
 11
 4.07702916944982E+0000
 21
 4.58390064821288E+0000
  0
LINE
  8
1
  6
CONTINUOUS
 62
     0
 10
 4.47323950022837E+0000
 20
 5.96509365928796E+0000
 11
 4.47323950022837E+0000
 21
 4.58390064821288E+0000
  0
LINE
  8
1
  6
CONTINUOUS
 62
     0
 10
 4.47256562179246E+0000
 20
 3.53632533427299E+0000
 11
 4.07438979949802E+0000
 21
 3.53632533427299E+0000
  0
LINE
  8
1
  6
CONTINUOUS
 62
     0
 10
 3.95799994375557E+0000
 20
 3.42011934875700E+0000
 11
 3.95799994375557E+0000
 21
 3.02257255620134E+0000
  0
LINE
  8
1
  6
CONTINUOUS
 62
     0
 10
 4.07438979949802E+0000
 20
 2.90636657068535E+0000
 11
 4.47256562179246E+0000
 21
 2.90636657068535E+0000
  0
LINE
  8
1
  6
CONTINUOUS
 62
     0
 10
 4.59508125941647E+0000
 20
 3.01034034719851E+0000
 11
 4.59508125941647E+0000
 21
 3.40788713975780E+0000
  0
LINE
  8
1
  6
CONTINUOUS
 62
     0
 10
 3.95799994375557E+0000
 20
 3.42011934875700E+0000
 11
 4.07438979949802E+0000
 21
 3.53632533427299E+0000
  0
LINE
  8
1
  6
CONTINUOUS
 62
     0
 10
 4.47256562179246E+0000
 20
 3.53632533427299E+0000
 11
 4.59508125941647E+0000
 21
 3.40788713975780E+0000
  0
LINE
  8
1
  6
CONTINUOUS
 62
     0
 10
 4.59508125941647E+0000
 20
 3.01034034719851E+0000
 11
 4.47256562179246E+0000
 21
 2.90636657068535E+0000
  0
LINE
  8
1
  6
CONTINUOUS
 62
     0
 10
 4.07438979949802E+0000
 20
 2.90636657068535E+0000
 11
 3.95799994375557E+0000
 21
 3.02257255620134E+0000
  0
LINE
  8
1
  6
CONTINUOUS
 62
     0
 10
 3.95799994375557E+0000
 20
 3.02257255620134E+0000
 11
 3.95799994375557E+0000
 21
 1.88083098868447E+0000
  0
LINE
  8
1
  6
CONTINUOUS
 62
     0
 10
 4.08051558137959E+0000
 20
 1.76462500316848E+0000
 11
 4.47256562179246E+0000
 21
 1.76462500316848E+0000
  0
LINE
  8
1
  6
CONTINUOUS
 62
     0
 10
 4.59508125941647E+0000
 20
 1.88083098868447E+0000
 11
 4.59508125941647E+0000
 21
 3.00619421684678E+0000
  0
LINE
  8
1
  6
CONTINUOUS
 62
     0
 10
 4.08051558137959E+0000
 20
 1.76462500316848E+0000
 11
 3.95799994375557E+0000
 21
 1.88083098868447E+0000
  0
LINE
  8
1
  6
CONTINUOUS
 62
     0
 10
 4.47256562179246E+0000
 20
 1.76462500316848E+0000
 11
 4.59508125941647E+0000
 21
 1.88083098868447E+0000
  0
LINE
  8
1
  6
DASHDOT
 62
     0
 10
 4.27670507145376E+0000
 20
 3.58490808326678E+0000
 11
 4.27670507145376E+0000
 21
 1.65497336423869E+0000
  0
LINE
  8
1
  6
DASHDOT
 62
     0
 10
 4.06382088497776E+0000
 20
 3.21932573560844E+0000
 11
 4.49810462538881E+0000
 21
 3.21932573560844E+0000
  0
LINE
  8
1
  6
DASHDOT
 62
     0
 10
 4.12342845719104E+0000
 20
 2.00355188177127E+0000
 11
 4.43849705317552E+0000
 21
 2.00355188177127E+0000
  0
CIRCLE
  8
1
  6
CONTINUOUS
 62
     0
 10
 4.27492197143874E+0000
 20
 3.22190017997855E+0000
 40
 1.57002507810830E-0001
  0
CIRCLE
  8
1
  6
CONTINUOUS
 62
     0
 10
 4.27492197143874E+0000
 20
 2.00269867996758E+0000
 40
 1.16298153930984E-0001
  0
LINE
  8
1
  6
DASHDOT
 62
     0
 10
 4.59489898687752E+0000
 20
 3.13822198749040E+0000
 11
 4.40892717859970E+0000
 21
 3.13822198749040E+0000
  0
LINE
  8
1
  6
DASHDOT
 62
     0
 10
 4.59489898687752E+0000
 20
 3.29737457088049E+0000
 11
 4.41187911206362E+0000
 21
 3.29737457088049E+0000
  0
LINE
  8
1
  6
DASHDOT
 62
     0
 10
 4.42073491245537E+0000
 20
 3.28263822056761E+0000
 11
 4.59194705341361E+0000
 21
 3.28263822056761E+0000
  0
LINE
  8
1
  6
DASHDOT
 62
     0
 10
 4.59489898687752E+0000
 20
 3.15590560786950E+0000
 11
 4.41778297899145E+0000
 21
 3.15590560786950E+0000
  0
LINE
  8
1
  6
DASHDOT
 62
     0
 10
 4.35874357369903E+0000
 20
 2.08412414794293E+0000
 11
 4.59489825088531E+0000
 21
 2.08412414794293E+0000
  0
LINE
  8
1
  6
DASHDOT
 62
     0
 10
 4.59489825088531E+0000
 20
 1.92497156454738E+0000
 11
 4.35874357369903E+0000
 21
 1.92497156454738E+0000
  0
LINE
  8
1
  6
DASHDOT
 62
     0
 10
 4.37350324102590E+0000
 20
 1.94560245498906E+0000
 11
 4.59489825088531E+0000
 21
 1.94560245498906E+0000
  0
LINE
  8
1
  6
DASHDOT
 62
     0
 10
 4.37350324102590E+0000
 20
 2.06349325750125E+0000
 11
 4.59489825088531E+0000
 21
 2.06349325750125E+0000
  0
LINE
  8
1
  6
DASHDOT
 62
     0
 10
 4.43849705317552E+0000
 20
 2.00355188177127E+0000
 11
 4.64803305325040E+0000
 21
 2.00355188177127E+0000
  0
LINE
  8
1
  6
DASHDOT
 62
     0
 10
 4.49810462538881E+0000
 20
 3.21932573560844E+0000
 11
 4.62736951899569E+0000
 21
 3.21932573560844E+0000
  0
LINE
  8
1
  6
DASHDOT
 62
     0
 10
 5.95867383415316E+0000
 20
 5.68358477097354E+0000
 11
 6.18990170484176E+0000
 21
 5.68358477097354E+0000
  0
LINE
  8
1
  6
DASHDOT
 62
     0
 10
 7.21501193159202E+0000
 20
 5.68358477097354E+0000
 11
 7.39999422813707E+0000
 21
 5.68358477097354E+0000
  0
LINE
  8
1
  6
DASHDOT
 62
     0
 10
 4.62255711640319E+0000
 20
 5.68358477097354E+0000
 11
 4.37591405433341E+0000
 21
 5.68358477097354E+0000
  0
CIRCLE
  8
1
  6
CONTINUOUS
 62
     0
 10
 7.29428737310809E+0000
 20
 5.68296538355935E+0000
 40
 6.35594659106573E-0002
  0
ARC
  8
1
  6
CONTINUOUS
 62
     0
 10
 7.29428737310809E+0000
 20
 5.68296538355935E+0000
 40
 7.86926720902557E-0002
 50
 2.97058752090961E+0001
 51
 3.03352218491025E+0002
  0
CIRCLE
  8
1
  6
CONTINUOUS
 62
     0
 10
 6.07455095569458E+0000
 20
 5.68296538355935E+0000
 40
 6.35594659106573E-0002
  0
ARC
  8
1
  6
CONTINUOUS
 62
     0
 10
 6.07455095569458E+0000
 20
 5.68296538355935E+0000
 40
 7.86926720902557E-0002
 50
 2.97058752090961E+0001
 51
 3.03352218491025E+0002
  0
LINE
  8
1
  6
CONTINUOUS
 62
     0
 10
 6.40208336376963E+0000
 20
 5.96110768165818E+0000
 11
 6.82619326090207E+0000
 21
 5.96110768165818E+0000
  0
LINE
  8
1
  6
CONTINUOUS
 62
     0
 10
 6.82619326090207E+0000
 20
 5.96110768165818E+0000
 11
 6.82619326090207E+0000
 21
 5.92101068370539E+0000
  0
LINE
  8
1
  6
CONTINUOUS
 62
     0
 10
 7.54406016063876E+0000
 20
 5.91852427220147E+0000
 11
 8.04904288340185E+0000
 21
 5.91852427220147E+0000
  0
LINE
  8
1
  6
CONTINUOUS
 62
     0
 10
 8.04904288340185E+0000
 20
 5.91852427220147E+0000
 11
 8.04904288340185E+0000
 21
 5.48966847028350E+0000
  0
LINE
  8
1
  6
CONTINUOUS
 62
     0
 10
 8.04904288340185E+0000
 20
 5.48966847028350E+0000
 11
 7.54379363818589E+0000
 21
 5.48966847028350E+0000
  0
LINE
  8
1
  6
CONTINUOUS
 62
     0
 10
 4.08654943387228E+0000
 20
 3.53496318351245E+0000
 11
 3.34698169810144E+0000
 21
 3.53496318351245E+0000
  0
LINE
  8
1
  6
CONTINUOUS
 62
     0
 10
 3.34698169810144E+0000
 20
 3.53496318351245E+0000
 11
 3.34698169810144E+0000
 21
 1.76572901995678E+0000
  0
LINE
  8
1
  6
CONTINUOUS
 62
     0
 10
 3.34698169810144E+0000
 20
 1.76572901995678E+0000
 11
 4.08654943387228E+0000
 21
 1.76572901995678E+0000
  0
LINE
  8
1
  6
CONTINUOUS
 62
     0
 10
 4.11583924519073E+0000
 20
 3.22059512966007E+0000
 11
 4.11583924519073E+0000
 21
 4.01017070678063E+0000
  0
LINE
  8
1
  6
CONTINUOUS
 62
     0
 10
 4.11583924519073E+0000
 20
 4.01017070678063E+0000
 11
 4.42338226402353E+0000
 21
 4.01017070678063E+0000
  0
LINE
  8
1
  6
CONTINUOUS
 62
     0
 10
 4.42338226402353E+0000
 20
 4.01017070678063E+0000
 11
 4.42338226402353E+0000
 21
 3.22790601462839E+0000
  0
LINE
  8
1
  6
CONTINUOUS
 62
     0
 10
 4.15977396216476E+0000
 20
 2.00278150067243E+0000
 11
 4.15977396216476E+0000
 21
 1.17665149868117E+0000
  0
LINE
  8
1
  6
CONTINUOUS
 62
     0
 10
 4.15977396216476E+0000
 20
 1.17665149868117E+0000
 11
 4.38676999987365E+0000
 21
 1.17665149868117E+0000
  0
LINE
  8
1
  6
CONTINUOUS
 62
     0
 10
 4.38676999987365E+0000
 20
 1.17665149868117E+0000
 11
 4.38676999987365E+0000
 21
 2.00278150067243E+0000
  0
LINE
  8
1
  6
CONTINUOUS
 62
     0
 10
 4.46731698099757E+0000
 20
 3.53395300731427E+0000
 11
 5.16294999978709E+0000
 21
 3.53395300731427E+0000
  0
LINE
  8
1
  6
CONTINUOUS
 62
     0
 10
 5.16294999978709E+0000
 20
 3.21958495345461E+0000
 11
 4.58447622627136E+0000
 21
 3.21958495345461E+0000
  0
LINE
  8
1
  6
CONTINUOUS
 62
     0
 10
 5.16294999978709E+0000
 20
 3.21958495345461E+0000
 11
 5.16294999978709E+0000
 21
 2.00597804787685E+0000
  0
LINE
  8
1
  6
CONTINUOUS
 62
     0
 10
 5.16294999978709E+0000
 20
 2.00597804787685E+0000
 11
 4.62108849041397E+0000
 21
 2.00597804787685E+0000
  0
LINE
  8
1
  6
CONTINUOUS
 62
     0
 10
 3.95884474657214E+0000
 20
 5.96259488399664E+0000
 11
 3.28147860453828E+0000
 21
 5.96259488399664E+0000
  0
LINE
  8
1
  6
CONTINUOUS
 62
     0
 10
 3.28147860453828E+0000
 20
 5.96259488399664E+0000
 11
 3.28147860453828E+0000
 21
 4.58122395141982E+0000
  0
LINE
  8
1
  6
CONTINUOUS
 62
     0
 10
 3.28147860453828E+0000
 20
 4.58122395141982E+0000
 11
 3.96057359571932E+0000
 21
 4.58122395141982E+0000
  0
LINE
  8
1
  6
CONTINUOUS
 62
     0
 10
 3.95884474657214E+0000
 20
 5.96259488399664E+0000
 11
 3.95884474657214E+0000
 21
 6.41465125132527E+0000
  0
LINE
  8
1
  6
CONTINUOUS
 62
     0
 10
 3.95884474657214E+0000
 20
 6.41465125132527E+0000
 11
 4.59116180181445E+0000
 21
 6.41465125132527E+0000
  0
LINE
  8
1
  6
CONTINUOUS
 62
     0
 10
 4.59116180181445E+0000
 20
 6.41465125132527E+0000
 11
 4.59116180181445E+0000
 21
 5.96494266833179E+0000
  0
LINE
  8
1
  6
CONTINUOUS
 62
     0
 10
 5.76193672845693E+0000
 20
 4.58175476273755E+0000
 11
 5.76193672845693E+0000
 21
 4.02081787107454E+0000
  0
LINE
  8
1
  6
CONTINUOUS
 62
     0
 10
 5.76193672845693E+0000
 20
 4.02081787107454E+0000
 11
 6.40670147210767E+0000
 21
 4.02081787107454E+0000
  0
LINE
  8
1
  6
CONTINUOUS
 62
     0
 10
 6.40670147210767E+0000
 20
 4.02081787107454E+0000
 11
 6.40670147210767E+0000
 21
 4.58814254500612E+0000
  0
LINE
  8
1
  6
CONTINUOUS
 62
     0
 10
 3.95799994375557E+0000
 20
 1.88083098868447E+0000
 11
 3.62215304709389E+0000
 21
 1.88083098868447E+0000
  0
LINE
  8
1
  6
CONTINUOUS
 62
     0
 10
 3.62215304709389E+0000
 20
 1.88083098868447E+0000
 11
 3.62215304709389E+0000
 21
 1.76622962522561E+0000
  0
LINE
  8
1
  6
CONTINUOUS
 62
     0
 10
 6.08321701233945E+0000
 20
 5.71628057631460E+0000
 11
 6.41063626317919E+0000
 21
 6.33137249894935E+0000
  0
LINE
  8
1
  6
CONTINUOUS
 62
     0
 10
 6.41063626317919E+0000
 20
 6.33137249894935E+0000
 11
 6.97069550804736E+0000
 21
 6.33137249894935E+0000
  0
LINE
  8
1
  6
CONTINUOUS
 62
     0
 10
 6.97069550804736E+0000
 20
 6.33137249894935E+0000
 11
 7.26364957459009E+0000
 21
 5.71628057631460E+0000
  0
LINE
  8
1
  6
CONTINUOUS
 62
     0
 10
 8.05083460056630E+0000
 20
 5.49116700654849E+0000
 11
 8.05083460056630E+0000
 21
 5.49116700654849E+0000
  0
LINE
  8
1
  6
CONTINUOUS
 62
     0
 10
 8.05083460056630E+0000
 20
 5.49116700654849E+0000
 11
 8.02365307920263E+0000
 21
 5.33187767992058E+0000
  0
LINE
  8
1
  6
CONTINUOUS
 62
     0
 10
 8.02365307920263E+0000
 20
 5.33187767992058E+0000
 11
 8.08405671667424E+0000
 21
 5.33187767992058E+0000
  0
LINE
  8
1
  6
CONTINUOUS
 62
     0
 10
 8.08405671667424E+0000
 20
 5.33187767992058E+0000
 11
 8.05083460056630E+0000
 21
 5.49116700654849E+0000
  0
LINE
  8
1
  6
CONTINUOUS
 62
     0
 10
 8.02365307920263E+0000
 20
 5.33187767992058E+0000
 11
 8.08405671667424E+0000
 21
 5.33187767992058E+0000
  0
LINE
  8
1
  6
CONTINUOUS
 62
     0
 10
 8.03398018130974E+0000
 20
 5.33187767992786E+0000
 11
 8.02515844238224E+0000
 21
 5.34069941886264E+0000
  0
LINE
  8
1
  6
CONTINUOUS
 62
     0
 10
 8.05463438549486E+0000
 20
 5.33187767992786E+0000
 11
 8.02816916871234E+0000
 21
 5.35834289671766E+0000
  0
LINE
  8
1
  6
CONTINUOUS
 62
     0
 10
 8.07528858967999E+0000
 20
 5.33187767992786E+0000
 11
 8.03117989504244E+0000
 21
 5.37598637456540E+0000
  0
LINE
  8
1
  6
CONTINUOUS
 62
     0
 10
 8.08092441420013E+0000
 20
 5.34689605960011E+0000
 11
 8.03419062137255E+0000
 21
 5.39362985242042E+0000
  0
LINE
  8
1
  6
CONTINUOUS
 62
     0
 10
 8.07548147335183E+0000
 20
 5.37299320463353E+0000
 11
 8.03720134770265E+0000
 21
 5.41127333027544E+0000
  0
LINE
  8
1
  6
CONTINUOUS
 62
     0
 10
 8.07003853250353E+0000
 20
 5.39909034966695E+0000
 11
 8.04021207403275E+0000
 21
 5.42891680813045E+0000
  0
LINE
  8
1
  6
CONTINUOUS
 62
     0
 10
 8.06459559165523E+0000
 20
 5.42518749470037E+0000
 11
 8.04322280037741E+0000
 21
 5.44656028597819E+0000
  0
LINE
  8
1
  6
CONTINUOUS
 62
     0
 10
 8.05915265080694E+0000
 20
 5.45128463972651E+0000
 11
 8.04623352670751E+0000
 21
 5.46420376383321E+0000
  0
LINE
  8
1
  6
CONTINUOUS
 62
     0
 10
 8.05370970995864E+0000
 20
 5.47738178475993E+0000
 11
 8.04924425303761E+0000
 21
 5.48184724168823E+0000
  0
LINE
  8
1
  6
CONTINUOUS
 62
     0
 10
 8.08227454632288E+0000
 20
 5.34042261165450E+0000
 11
 8.07372961458168E+0000
 21
 5.33187767991330E+0000
  0
LINE
  8
1
  6
CONTINUOUS
 62
     0
 10
 8.07871020562015E+0000
 20
 5.35751247515145E+0000
 11
 8.05307541039656E+0000
 21
 5.33187767991330E+0000
  0
LINE
  8
1
  6
CONTINUOUS
 62
     0
 10
 8.07514586493198E+0000
 20
 5.37460233864113E+0000
 11
 8.03242120621144E+0000
 21
 5.33187767991330E+0000
  0
LINE
  8
1
  6
CONTINUOUS
 62
     0
 10
 8.07158152422926E+0000
 20
 5.39169220213080E+0000
 11
 8.02609867020510E+0000
 21
 5.34620934809936E+0000
  0
LINE
  8
1
  6
CONTINUOUS
 62
     0
 10
 8.06801718354109E+0000
 20
 5.40878206562047E+0000
 11
 8.03034832593403E+0000
 21
 5.37111320802069E+0000
  0
LINE
  8
1
  6
CONTINUOUS
 62
     0
 10
 8.06445284285292E+0000
 20
 5.42587192911742E+0000
 11
 8.03459798167751E+0000
 21
 5.39601706794201E+0000
  0
LINE
  8
1
  6
CONTINUOUS
 62
     0
 10
 8.06088850215019E+0000
 20
 5.44296179260709E+0000
 11
 8.03884763740643E+0000
 21
 5.42092092786334E+0000
  0
LINE
  8
1
  6
CONTINUOUS
 62
     0
 10
 8.05732416146202E+0000
 20
 5.46005165609677E+0000
 11
 8.04309729314991E+0000
 21
 5.44582478778466E+0000
  0
LINE
  8
1
  6
CONTINUOUS
 62
     0
 10
 8.05375982075930E+0000
 20
 5.47714151958644E+0000
 11
 8.04734694887884E+0000
 21
 5.47072864770598E+0000
  0
LINE
  8
1
  6
CONTINUOUS
 62
     0
 10
 8.04813332426420E+0000
 20
 5.90876515906712E+0000
 11
 8.04813332426420E+0000
 21
 5.90876515906712E+0000
  0
LINE
  8
1
  6
CONTINUOUS
 62
     0
 10
 8.04813332426420E+0000
 20
 5.90876515906712E+0000
 11
 8.07531484562787E+0000
 21
 6.06805448569503E+0000
  0
LINE
  8
1
  6
CONTINUOUS
 62
     0
 10
 8.07531484562787E+0000
 20
 6.06805448569503E+0000
 11
 8.01491120815626E+0000
 21
 6.06805448569503E+0000
  0
LINE
  8
1
  6
CONTINUOUS
 62
     0
 10
 8.01491120815626E+0000
 20
 6.06805448569503E+0000
 11
 8.04813332426420E+0000
 21
 5.90876515906712E+0000
  0
LINE
  8
1
  6
CONTINUOUS
 62
     0
 10
 8.07531484562787E+0000
 20
 6.06805448569503E+0000
 11
 8.01491120815626E+0000
 21
 6.06805448569503E+0000
  0
LINE
  8
1
  6
CONTINUOUS
 62
     0
 10
 8.04963868742925E+0000
 20
 5.91758689800190E+0000
 11
 8.04541185384733E+0000
 21
 5.92181373159838E+0000
  0
LINE
  8
1
  6
CONTINUOUS
 62
     0
 10
 8.05264941377391E+0000
 20
 5.93523037585692E+0000
 11
 8.03996891299903E+0000
 21
 5.94791087663179E+0000
  0
LINE
  8
1
  6
CONTINUOUS
 62
     0
 10
 8.05566014010401E+0000
 20
 5.95287385371194E+0000
 11
 8.03452597215073E+0000
 21
 5.97400802166521E+0000
  0
LINE
  8
1
  6
CONTINUOUS
 62
     0
 10
 8.05867086643411E+0000
 20
 5.97051733155968E+0000
 11
 8.02908303130243E+0000
 21
 6.00010516669136E+0000
  0
LINE
  8
1
  6
CONTINUOUS
 62
     0
 10
 8.06168159276422E+0000
 20
 5.98816080941469E+0000
 11
 8.02364009045414E+0000
 21
 6.02620231172477E+0000
  0
LINE
  8
1
  6
CONTINUOUS
 62
     0
 10
 8.06469231909432E+0000
 20
 6.00580428726971E+0000
 11
 8.01819714960584E+0000
 21
 6.05229945675819E+0000
  0
LINE
  8
1
  6
CONTINUOUS
 62
     0
 10
 8.06770304542442E+0000
 20
 6.02344776512473E+0000
 11
 8.02309632486140E+0000
 21
 6.06805448569503E+0000
  0
LINE
  8
1
  6
CONTINUOUS
 62
     0
 10
 8.07071377175453E+0000
 20
 6.04109124297975E+0000
 11
 8.04375052904652E+0000
 21
 6.06805448569503E+0000
  0
LINE
  8
1
  6
CONTINUOUS
 62
     0
 10
 8.07372449809918E+0000
 20
 6.05873472082749E+0000
 11
 8.06440473323164E+0000
 21
 6.06805448569503E+0000
  0
LINE
  8
1
  6
CONTINUOUS
 62
     0
 10
 8.05025815212866E+0000
 20
 5.92121708902414E+0000
 11
 8.04635115391284E+0000
 21
 5.91731009080831E+0000
  0
LINE
  8
1
  6
CONTINUOUS
 62
     0
 10
 8.05450780785759E+0000
 20
 5.94612094894546E+0000
 11
 8.04278681322467E+0000
 21
 5.93439995430526E+0000
  0
LINE
  8
1
  6
CONTINUOUS
 62
     0
 10
 8.05875746360107E+0000
 20
 5.97102480886679E+0000
 11
 8.03922247252194E+0000
 21
 5.95148981779494E+0000
  0
LINE
  8
1
  6
CONTINUOUS
 62
     0
 10
 8.06300711933000E+0000
 20
 5.99592866878811E+0000
 11
 8.03565813183377E+0000
 21
 5.96857968128461E+0000
  0
LINE
  8
1
  6
CONTINUOUS
 62
     0
 10
 8.06725677507347E+0000
 20
 6.02083252870943E+0000
 11
 8.03209379113105E+0000
 21
 5.98566954476701E+0000
  0
LINE
  8
1
  6
CONTINUOUS
 62
     0
 10
 8.07150643080240E+0000
 20
 6.04573638863076E+0000
 11
 8.02852945042832E+0000
 21
 6.00275940825668E+0000
  0
LINE
  8
1
  6
CONTINUOUS
 62
     0
 10
 8.07317032368155E+0000
 20
 6.06805448569503E+0000
 11
 8.02496510974015E+0000
 21
 6.01984927175363E+0000
  0
LINE
  8
1
  6
CONTINUOUS
 62
     0
 10
 8.05251611949643E+0000
 20
 6.06805448569503E+0000
 11
 8.02140076905198E+0000
 21
 6.03693913524330E+0000
  0
LINE
  8
1
  6
CONTINUOUS
 62
     0
 10
 8.03186191531131E+0000
 20
 6.06805448569503E+0000
 11
 8.01783642834926E+0000
 21
 6.05402899873297E+0000
  0
LINE
  8
1
  6
CONTINUOUS
 62
     0
 10
 6.82602757641143E+0000
 20
 5.90891834504146E+0000
 11
 6.82602757641143E+0000
 21
 5.90891834504146E+0000
  0
LINE
  8
1
  6
CONTINUOUS
 62
     0
 10
 6.82602757641143E+0000
 20
 5.90891834504146E+0000
 11
 6.79884605504776E+0000
 21
 5.74962901841354E+0000
  0
LINE
  8
1
  6
CONTINUOUS
 62
     0
 10
 6.79884605504776E+0000
 20
 5.74962901841354E+0000
 11
 6.85924969251937E+0000
 21
 5.74962901841354E+0000
  0
LINE
  8
1
  6
CONTINUOUS
 62
     0
 10
 6.85924969251937E+0000
 20
 5.74962901841354E+0000
 11
 6.82602757641143E+0000
 21
 5.90891834504146E+0000
  0
LINE
  8
1
  6
CONTINUOUS
 62
     0
 10
 6.79884605504776E+0000
 20
 5.74962901841354E+0000
 11
 6.85924969251937E+0000
 21
 5.74962901841354E+0000
  0
LINE
  8
1
  6
CONTINUOUS
 62
     0
 10
 6.80917315715487E+0000
 20
 5.74962901842082E+0000
 11
 6.80035141822009E+0000
 21
 5.75845075735560E+0000
  0
LINE
  8
1
  6
CONTINUOUS
 62
     0
 10
 6.82982736133999E+0000
 20
 5.74962901841354E+0000
 11
 6.80336214455019E+0000
 21
 5.77609423520335E+0000
  0
LINE
  8
1
  6
CONTINUOUS
 62
     0
 10
 6.85048156552512E+0000
 20
 5.74962901841354E+0000
 11
 6.80637287088757E+0000
 21
 5.79373771305836E+0000
  0
LINE
  8
1
  6
CONTINUOUS
 62
     0
 10
 6.85611739003798E+0000
 20
 5.76464739809308E+0000
 11
 6.80938359721767E+0000
 21
 5.81138119091338E+0000
  0
LINE
  8
1
  6
CONTINUOUS
 62
     0
 10
 6.85067444918968E+0000
 20
 5.79074454312649E+0000
 11
 6.81239432354778E+0000
 21
 5.82902466876840E+0000
  0
LINE
  8
1
  6
CONTINUOUS
 62
     0
 10
 6.84523150834866E+0000
 20
 5.81684168815264E+0000
 11
 6.81540504988516E+0000
 21
 5.84666814661614E+0000
  0
LINE
  8
1
  6
CONTINUOUS
 62
     0
 10
 6.83978856750036E+0000
 20
 5.84293883318605E+0000
 11
 6.81841577621526E+0000
 21
 5.86431162447116E+0000
  0
LINE
  8
1
  6
CONTINUOUS
 62
     0
 10
 6.83434562665207E+0000
 20
 5.86903597821947E+0000
 11
 6.82142650254536E+0000
 21
 5.88195510232617E+0000
  0
LINE
  8
1
  6
CONTINUOUS
 62
     0
 10
 6.82890268580377E+0000
 20
 5.89513312325289E+0000
 11
 6.82443722888274E+0000
 21
 5.89959858018119E+0000
  0
LINE
  8
1
  6
CONTINUOUS
 62
     0
 10
 6.85746752216801E+0000
 20
 5.75817395015474E+0000
 11
 6.84892259041953E+0000
 21
 5.74962901840627E+0000
  0
LINE
  8
1
  6
CONTINUOUS
 62
     0
 10
 6.85390318147984E+0000
 20
 5.77526381365169E+0000
 11
 6.82826838623441E+0000
 21
 5.74962901840627E+0000
  0
LINE
  8
1
  6
CONTINUOUS
 62
     0
 10
 6.85033884078439E+0000
 20
 5.79235367714136E+0000
 11
 6.80761418204929E+0000
 21
 5.74962901840627E+0000
  0
LINE
  8
1
  6
CONTINUOUS
 62
     0
 10
 6.84677450008894E+0000
 20
 5.80944354063104E+0000
 11
 6.80129164604296E+0000
 21
 5.76396068659233E+0000
  0
LINE
  8
1
  6
CONTINUOUS
 62
     0
 10
 6.84321015938622E+0000
 20
 5.82653340411343E+0000
 11
 6.80554130177916E+0000
 21
 5.78886454651365E+0000
  0
LINE
  8
1
  6
CONTINUOUS
 62
     0
 10
 6.83964581869077E+0000
 20
 5.84362326760311E+0000
 11
 6.80979095751536E+0000
 21
 5.81376840643497E+0000
  0
LINE
  8
1
  6
CONTINUOUS
 62
     0
 10
 6.83608147799532E+0000
 20
 5.86071313110006E+0000
 11
 6.81404061325156E+0000
 21
 5.83867226635630E+0000
  0
LINE
  8
1
  6
CONTINUOUS
 62
     0
 10
 6.83251713730715E+0000
 20
 5.87780299458973E+0000
 11
 6.81829026898777E+0000
 21
 5.86357612627762E+0000
  0
LINE
  8
1
  6
CONTINUOUS
 62
     0
 10
 6.82895279661170E+0000
 20
 5.89489285807940E+0000
 11
 6.82253992472397E+0000
 21
 5.88847998619167E+0000
  0
LINE
  8
1
  6
CONTINUOUS
 62
     0
 10
 6.82332630010933E+0000
 20
 5.96193351123657E+0000
 11
 6.82332630010933E+0000
 21
 5.96193351123657E+0000
  0
LINE
  8
1
  6
CONTINUOUS
 62
     0
 10
 6.82332630010933E+0000
 20
 5.96193351123657E+0000
 11
 6.85050782147300E+0000
 21
 6.12122283786448E+0000
  0
LINE
  8
1
  6
CONTINUOUS
 62
     0
 10
 6.85050782147300E+0000
 20
 6.12122283786448E+0000
 11
 6.79010418400139E+0000
 21
 6.12122283786448E+0000
  0
LINE
  8
1
  6
CONTINUOUS
 62
     0
 10
 6.79010418400139E+0000
 20
 6.12122283786448E+0000
 11
 6.82332630010933E+0000
 21
 5.96193351123657E+0000
  0
LINE
  8
1
  6
CONTINUOUS
 62
     0
 10
 6.85050782147300E+0000
 20
 6.12122283786448E+0000
 11
 6.79010418400139E+0000
 21
 6.12122283786448E+0000
  0
LINE
  8
1
  6
CONTINUOUS
 62
     0
 10
 6.82483166327438E+0000
 20
 5.97075525017135E+0000
 11
 6.82060482968518E+0000
 21
 5.97498208376783E+0000
  0
LINE
  8
1
  6
CONTINUOUS
 62
     0
 10
 6.82784238961176E+0000
 20
 5.98839872802637E+0000
 11
 6.81516188883688E+0000
 21
 6.00107922880125E+0000
  0
LINE
  8
1
  6
CONTINUOUS
 62
     0
 10
 6.83085311594186E+0000
 20
 6.00604220587411E+0000
 11
 6.80971894798859E+0000
 21
 6.02717637382739E+0000
  0
LINE
  8
1
  6
CONTINUOUS
 62
     0
 10
 6.83386384227924E+0000
 20
 6.02368568372913E+0000
 11
 6.80427600714029E+0000
 21
 6.05327351886081E+0000
  0
LINE
  8
1
  6
CONTINUOUS
 62
     0
 10
 6.83687456860935E+0000
 20
 6.04132916157687E+0000
 11
 6.79883306629927E+0000
 21
 6.07937066389422E+0000
  0
LINE
  8
1
  6
CONTINUOUS
 62
     0
 10
 6.83988529494673E+0000
 20
 6.05897263943189E+0000
 11
 6.79339012545097E+0000
 21
 6.10546780892764E+0000
  0
LINE
  8
1
  6
CONTINUOUS
 62
     0
 10
 6.84289602127683E+0000
 20
 6.07661611728690E+0000
 11
 6.79828930069925E+0000
 21
 6.12122283786448E+0000
  0
LINE
  8
1
  6
CONTINUOUS
 62
     0
 10
 6.84590674760693E+0000
 20
 6.09425959513464E+0000
 11
 6.81894350487710E+0000
 21
 6.12122283786448E+0000
  0
LINE
  8
1
  6
CONTINUOUS
 62
     0
 10
 6.84891747394431E+0000
 20
 6.11190307298966E+0000
 11
 6.83959770906222E+0000
 21
 6.12122283787176E+0000
  0
LINE
  8
1
  6
CONTINUOUS
 62
     0
 10
 6.82545112797379E+0000
 20
 5.97438544119359E+0000
 11
 6.82154412975797E+0000
 21
 5.97047844297776E+0000
  0
LINE
  8
1
  6
CONTINUOUS
 62
     0
 10
 6.82970078371000E+0000
 20
 5.99928930111491E+0000
 11
 6.81797978906252E+0000
 21
 5.98756830646744E+0000
  0
LINE
  8
1
  6
CONTINUOUS
 62
     0
 10
 6.83395043944620E+0000
 20
 6.02419316103624E+0000
 11
 6.81441544836707E+0000
 21
 6.00465816996439E+0000
  0
LINE
  8
1
  6
CONTINUOUS
 62
     0
 10
 6.83820009518240E+0000
 20
 6.04909702095756E+0000
 11
 6.81085110767890E+0000
 21
 6.02174803345406E+0000
  0
LINE
  8
1
  6
CONTINUOUS
 62
     0
 10
 6.84244975091860E+0000
 20
 6.07400088087888E+0000
 11
 6.80728676697618E+0000
 21
 6.03883789693646E+0000
  0
LINE
  8
1
  6
CONTINUOUS
 62
     0
 10
 6.84669940664753E+0000
 20
 6.09890474080021E+0000
 11
 6.80372242628073E+0000
 21
 6.05592776042613E+0000
  0
LINE
  8
1
  6
CONTINUOUS
 62
     0
 10
 6.84836329952668E+0000
 20
 6.12122283785720E+0000
 11
 6.80015808558528E+0000
 21
 6.07301762391580E+0000
  0
LINE
  8
1
  6
CONTINUOUS
 62
     0
 10
 6.82770909534156E+0000
 20
 6.12122283785720E+0000
 11
 6.79659374488983E+0000
 21
 6.09010748741275E+0000
  0
LINE
  8
1
  6
CONTINUOUS
 62
     0
 10
 6.80705489115644E+0000
 20
 6.12122283785720E+0000
 11
 6.79302940420166E+0000
 21
 6.10719735090242E+0000
  0
LINE
  8
1
  6
CONTINUOUS
 62
     0
 10
 6.41574218586175E+0000
 20
 4.01842943688098E+0000
 11
 6.41574218586175E+0000
 21
 4.01842943688098E+0000
  0
LINE
  8
1
  6
CONTINUOUS
 62
     0
 10
 6.41574218586175E+0000
 20
 4.01842943688098E+0000
 11
 6.25645285922656E+0000
 21
 4.04561095824465E+0000
  0
LINE
  8
1
  6
CONTINUOUS
 62
     0
 10
 6.25645285922656E+0000
 20
 4.04561095824465E+0000
 11
 6.25645285922656E+0000
 21
 3.98520732077304E+0000
  0
LINE
  8
1
  6
CONTINUOUS
 62
     0
 10
 6.25645285922656E+0000
 20
 3.98520732077304E+0000
 11
 6.41574218586175E+0000
 21
 4.01842943688098E+0000
  0
LINE
  8
1
  6
CONTINUOUS
 62
     0
 10
 6.25645285922656E+0000
 20
 4.04561095824465E+0000
 11
 6.25645285922656E+0000
 21
 3.98520732077304E+0000
  0
LINE
  8
1
  6
CONTINUOUS
 62
     0
 10
 6.26499779097503E+0000
 20
 3.98698949112077E+0000
 11
 6.25645285922656E+0000
 21
 3.99553442286924E+0000
  0
LINE
  8
1
  6
CONTINUOUS
 62
     0
 10
 6.28208765446470E+0000
 20
 3.99055383181621E+0000
 11
 6.25645285922656E+0000
 21
 4.01618862705072E+0000
  0
LINE
  8
1
  6
CONTINUOUS
 62
     0
 10
 6.29917751795438E+0000
 20
 3.99411817251166E+0000
 11
 6.25645285922656E+0000
 21
 4.03684283124312E+0000
  0
LINE
  8
1
  6
CONTINUOUS
 62
     0
 10
 6.31626738144405E+0000
 20
 3.99768251320711E+0000
 11
 6.27078452741989E+0000
 21
 4.04316536723491E+0000
  0
LINE
  8
1
  6
CONTINUOUS
 62
     0
 10
 6.33335724493372E+0000
 20
 4.00124685389892E+0000
 11
 6.29568838733394E+0000
 21
 4.03891571149870E+0000
  0
LINE
  8
1
  6
CONTINUOUS
 62
     0
 10
 6.35044710842340E+0000
 20
 4.00481119459437E+0000
 11
 6.32059224725526E+0000
 21
 4.03466605576978E+0000
  0
LINE
  8
1
  6
CONTINUOUS
 62
     0
 10
 6.36753697192034E+0000
 20
 4.00837553528982E+0000
 11
 6.34549610717659E+0000
 21
 4.03041640003357E+0000
  0
LINE
  8
1
  6
CONTINUOUS
 62
     0
 10
 6.38462683541002E+0000
 20
 4.01193987598526E+0000
 11
 6.37039996709791E+0000
 21
 4.02616674429737E+0000
  0
LINE
  8
1
  6
CONTINUOUS
 62
     0
 10
 6.40171669889969E+0000
 20
 4.01550421668071E+0000
 11
 6.39530382701196E+0000
 21
 4.02191708856844E+0000
  0
LINE
  8
1
  6
CONTINUOUS
 62
     0
 10
 6.40692044692696E+0000
 20
 4.01993480004603E+0000
 11
 6.40269361333776E+0000
 21
 4.01570796645683E+0000
  0
LINE
  8
1
  6
CONTINUOUS
 62
     0
 10
 6.38927696907194E+0000
 20
 4.02294552637613E+0000
 11
 6.37659646830434E+0000
 21
 4.01026502560853E+0000
  0
LINE
  8
1
  6
CONTINUOUS
 62
     0
 10
 6.37163349122420E+0000
 20
 4.02595625270624E+0000
 11
 6.35049932327092E+0000
 21
 4.00482208476024E+0000
  0
LINE
  8
1
  6
CONTINUOUS
 62
     0
 10
 6.35399001336918E+0000
 20
 4.02896697904362E+0000
 11
 6.32440217824478E+0000
 21
 3.99937914391558E+0000
  0
LINE
  8
1
  6
CONTINUOUS
 62
     0
 10
 6.33634653552144E+0000
 20
 4.03197770537372E+0000
 11
 6.29830503321136E+0000
 21
 3.99393620306728E+0000
  0
LINE
  8
1
  6
CONTINUOUS
 62
     0
 10
 6.31870305766643E+0000
 20
 4.03498843171110E+0000
 11
 6.27220788817795E+0000
 21
 3.98849326221898E+0000
  0
LINE
  8
1
  6
CONTINUOUS
 62
     0
 10
 6.30105957981141E+0000
 20
 4.03799915804120E+0000
 11
 6.25645285921928E+0000
 21
 3.99339243744544E+0000
  0
LINE
  8
1
  6
CONTINUOUS
 62
     0
 10
 6.28341610195639E+0000
 20
 4.04100988437131E+0000
 11
 6.25645285921928E+0000
 21
 4.01404664162692E+0000
  0
LINE
  8
1
  6
CONTINUOUS
 62
     0
 10
 6.26577262410865E+0000
 20
 4.04402061070141E+0000
 11
 6.25645285921928E+0000
 21
 4.03470084581932E+0000
  0
LINE
  8
1
  6
CONTINUOUS
 62
     0
 10
 6.41574218586175E+0000
 20
 4.01842943688098E+0000
 11
 6.41574218586175E+0000
 21
 4.01842943688098E+0000
  0
LINE
  8
1
  6
CONTINUOUS
 62
     0
 10
 6.41574218586175E+0000
 20
 4.01842943688098E+0000
 11
 6.25645285922656E+0000
 21
 4.04561095824465E+0000
  0
LINE
  8
1
  6
CONTINUOUS
 62
     0
 10
 6.25645285922656E+0000
 20
 4.04561095824465E+0000
 11
 6.25645285922656E+0000
 21
 3.98520732077304E+0000
  0
LINE
  8
1
  6
CONTINUOUS
 62
     0
 10
 6.25645285922656E+0000
 20
 3.98520732077304E+0000
 11
 6.41574218586175E+0000
 21
 4.01842943688098E+0000
  0
LINE
  8
1
  6
CONTINUOUS
 62
     0
 10
 6.25645285922656E+0000
 20
 4.04561095824465E+0000
 11
 6.25645285922656E+0000
 21
 3.98520732077304E+0000
  0
LINE
  8
1
  6
CONTINUOUS
 62
     0
 10
 6.26499779097503E+0000
 20
 3.98698949112077E+0000
 11
 6.25645285922656E+0000
 21
 3.99553442286924E+0000
  0
LINE
  8
1
  6
CONTINUOUS
 62
     0
 10
 6.28208765446470E+0000
 20
 3.99055383181621E+0000
 11
 6.25645285922656E+0000
 21
 4.01618862705072E+0000
  0
LINE
  8
1
  6
CONTINUOUS
 62
     0
 10
 6.29917751795438E+0000
 20
 3.99411817251166E+0000
 11
 6.25645285922656E+0000
 21
 4.03684283124312E+0000
  0
LINE
  8
1
  6
CONTINUOUS
 62
     0
 10
 6.31626738144405E+0000
 20
 3.99768251320711E+0000
 11
 6.27078452741989E+0000
 21
 4.04316536723491E+0000
  0
LINE
  8
1
  6
CONTINUOUS
 62
     0
 10
 6.33335724493372E+0000
 20
 4.00124685389892E+0000
 11
 6.29568838733394E+0000
 21
 4.03891571149870E+0000
  0
LINE
  8
1
  6
CONTINUOUS
 62
     0
 10
 6.35044710842340E+0000
 20
 4.00481119459437E+0000
 11
 6.32059224725526E+0000
 21
 4.03466605576978E+0000
  0
LINE
  8
1
  6
CONTINUOUS
 62
     0
 10
 6.36753697192034E+0000
 20
 4.00837553528982E+0000
 11
 6.34549610717659E+0000
 21
 4.03041640003357E+0000
  0
LINE
  8
1
  6
CONTINUOUS
 62
     0
 10
 6.38462683541002E+0000
 20
 4.01193987598526E+0000
 11
 6.37039996709791E+0000
 21
 4.02616674429737E+0000
  0
LINE
  8
1
  6
CONTINUOUS
 62
     0
 10
 6.40171669889969E+0000
 20
 4.01550421668071E+0000
 11
 6.39530382701196E+0000
 21
 4.02191708856844E+0000
  0
LINE
  8
1
  6
CONTINUOUS
 62
     0
 10
 6.40692044692696E+0000
 20
 4.01993480004603E+0000
 11
 6.40269361333776E+0000
 21
 4.01570796645683E+0000
  0
LINE
  8
1
  6
CONTINUOUS
 62
     0
 10
 6.38927696907194E+0000
 20
 4.02294552637613E+0000
 11
 6.37659646830434E+0000
 21
 4.01026502560853E+0000
  0
LINE
  8
1
  6
CONTINUOUS
 62
     0
 10
 6.37163349122420E+0000
 20
 4.02595625270624E+0000
 11
 6.35049932327092E+0000
 21
 4.00482208476024E+0000
  0
LINE
  8
1
  6
CONTINUOUS
 62
     0
 10
 6.35399001336918E+0000
 20
 4.02896697904362E+0000
 11
 6.32440217824478E+0000
 21
 3.99937914391558E+0000
  0
LINE
  8
1
  6
CONTINUOUS
 62
     0
 10
 6.33634653552144E+0000
 20
 4.03197770537372E+0000
 11
 6.29830503321136E+0000
 21
 3.99393620306728E+0000
  0
LINE
  8
1
  6
CONTINUOUS
 62
     0
 10
 6.31870305766643E+0000
 20
 4.03498843171110E+0000
 11
 6.27220788817795E+0000
 21
 3.98849326221898E+0000
  0
LINE
  8
1
  6
CONTINUOUS
 62
     0
 10
 6.30105957981141E+0000
 20
 4.03799915804120E+0000
 11
 6.25645285921928E+0000
 21
 3.99339243744544E+0000
  0
LINE
  8
1
  6
CONTINUOUS
 62
     0
 10
 6.28341610195639E+0000
 20
 4.04100988437131E+0000
 11
 6.25645285921928E+0000
 21
 4.01404664162692E+0000
  0
LINE
  8
1
  6
CONTINUOUS
 62
     0
 10
 6.26577262410865E+0000
 20
 4.04402061070141E+0000
 11
 6.25645285921928E+0000
 21
 4.03470084581932E+0000
  0
LINE
  8
1
  6
CONTINUOUS
 62
     0
 10
 5.75285760659608E+0000
 20
 4.01740653969318E+0000
 11
 5.75285760659608E+0000
 21
 4.01740653969318E+0000
  0
LINE
  8
1
  6
CONTINUOUS
 62
     0
 10
 5.75285760659608E+0000
 20
 4.01740653969318E+0000
 11
 5.91214693324582E+0000
 21
 3.99022501832951E+0000
  0
LINE
  8
1
  6
CONTINUOUS
 62
     0
 10
 5.91214693324582E+0000
 20
 3.99022501832951E+0000
 11
 5.91214693324582E+0000
 21
 4.05062865580112E+0000
  0
LINE
  8
1
  6
CONTINUOUS
 62
     0
 10
 5.91214693324582E+0000
 20
 4.05062865580112E+0000
 11
 5.75285760659608E+0000
 21
 4.01740653969318E+0000
  0
LINE
  8
1
  6
CONTINUOUS
 62
     0
 10
 5.91214693324582E+0000
 20
 3.99022501832951E+0000
 11
 5.91214693324582E+0000
 21
 4.05062865580112E+0000
  0
LINE
  8
1
  6
CONTINUOUS
 62
     0
 10
 5.76530953656038E+0000
 20
 4.01528171182872E+0000
 11
 5.76140253834456E+0000
 21
 4.01918871004455E+0000
  0
LINE
  8
1
  6
CONTINUOUS
 62
     0
 10
 5.79021339648170E+0000
 20
 4.01103205609252E+0000
 11
 5.77849240183423E+0000
 21
 4.02275305073999E+0000
  0
LINE
  8
1
  6
CONTINUOUS
 62
     0
 10
 5.81511725640303E+0000
 20
 4.00678240035631E+0000
 11
 5.79558226532390E+0000
 21
 4.02631739142817E+0000
  0
LINE
  8
1
  6
CONTINUOUS
 62
     0
 10
 5.84002111631708E+0000
 20
 4.00253274462011E+0000
 11
 5.81267212881357E+0000
 21
 4.02988173212361E+0000
  0
LINE
  8
1
  6
CONTINUOUS
 62
     0
 10
 5.86492497623840E+0000
 20
 3.99828308888755E+0000
 11
 5.82976199231052E+0000
 21
 4.03344607281906E+0000
  0
LINE
  8
1
  6
CONTINUOUS
 62
     0
 10
 5.88982883615972E+0000
 20
 3.99403343315134E+0000
 11
 5.84685185580020E+0000
 21
 4.03701041351451E+0000
  0
LINE
  8
1
  6
CONTINUOUS
 62
     0
 10
 5.91214693324582E+0000
 20
 3.99236954025400E+0000
 11
 5.86394171928987E+0000
 21
 4.04057475420996E+0000
  0
LINE
  8
1
  6
CONTINUOUS
 62
     0
 10
 5.91214693324582E+0000
 20
 4.01302374443912E+0000
 11
 5.88103158277954E+0000
 21
 4.04413909490540E+0000
  0
LINE
  8
1
  6
CONTINUOUS
 62
     0
 10
 5.91214693324582E+0000
 20
 4.03367794862424E+0000
 11
 5.89812144626922E+0000
 21
 4.04770343560085E+0000
  0
LINE
  8
1
  6
CONTINUOUS
 62
     0
 10
 5.91214693323855E+0000
 20
 4.00055212042207E+0000
 11
 5.90332519431104E+0000
 21
 3.99173038149092E+0000
  0
LINE
  8
1
  6
CONTINUOUS
 62
     0
 10
 5.91214693323855E+0000
 20
 4.02120632460719E+0000
 11
 5.88568171646330E+0000
 21
 3.99474110782467E+0000
  0
LINE
  8
1
  6
CONTINUOUS
 62
     0
 10
 5.91214693323855E+0000
 20
 4.04186052879231E+0000
 11
 5.86803823860828E+0000
 21
 3.99775183415477E+0000
  0
LINE
  8
1
  6
CONTINUOUS
 62
     0
 10
 5.89712855358084E+0000
 20
 4.04749635331973E+0000
 11
 5.85039476075326E+0000
 21
 4.00076256048487E+0000
  0
LINE
  8
1
  6
CONTINUOUS
 62
     0
 10
 5.87103140855470E+0000
 20
 4.04205341247143E+0000
 11
 5.83275128289824E+0000
 21
 4.00377328682225E+0000
  0
LINE
  8
1
  6
CONTINUOUS
 62
     0
 10
 5.84493426352128E+0000
 20
 4.03661047162313E+0000
 11
 5.81510780504323E+0000
 21
 4.00678401315236E+0000
  0
LINE
  8
1
  6
CONTINUOUS
 62
     0
 10
 5.81883711848786E+0000
 20
 4.03116753078211E+0000
 11
 5.79746432719548E+0000
 21
 4.00979473948246E+0000
  0
LINE
  8
1
  6
CONTINUOUS
 62
     0
 10
 5.79273997345445E+0000
 20
 4.02572458993382E+0000
 11
 5.77982084934047E+0000
 21
 4.01280546581256E+0000
  0
LINE
  8
1
  6
CONTINUOUS
 62
     0
 10
 5.76664282842830E+0000
 20
 4.02028164909279E+0000
 11
 5.76217737148545E+0000
 21
 4.01581619214994E+0000
  0
LINE
  8
1
  6
CONTINUOUS
 62
     0
 10
 5.75285760659608E+0000
 20
 4.01740653969318E+0000
 11
 5.75285760659608E+0000
 21
 4.01740653969318E+0000
  0
LINE
  8
1
  6
CONTINUOUS
 62
     0
 10
 5.75285760659608E+0000
 20
 4.01740653969318E+0000
 11
 5.91214693324582E+0000
 21
 3.99022501832951E+0000
  0
LINE
  8
1
  6
CONTINUOUS
 62
     0
 10
 5.91214693324582E+0000
 20
 3.99022501832951E+0000
 11
 5.91214693324582E+0000
 21
 4.05062865580112E+0000
  0
LINE
  8
1
  6
CONTINUOUS
 62
     0
 10
 5.91214693324582E+0000
 20
 4.05062865580112E+0000
 11
 5.75285760659608E+0000
 21
 4.01740653969318E+0000
  0
LINE
  8
1
  6
CONTINUOUS
 62
     0
 10
 5.91214693324582E+0000
 20
 3.99022501832951E+0000
 11
 5.91214693324582E+0000
 21
 4.05062865580112E+0000
  0
LINE
  8
1
  6
CONTINUOUS
 62
     0
 10
 5.76530953656038E+0000
 20
 4.01528171182872E+0000
 11
 5.76140253834456E+0000
 21
 4.01918871004455E+0000
  0
LINE
  8
1
  6
CONTINUOUS
 62
     0
 10
 5.79021339648170E+0000
 20
 4.01103205609252E+0000
 11
 5.77849240183423E+0000
 21
 4.02275305073999E+0000
  0
LINE
  8
1
  6
CONTINUOUS
 62
     0
 10
 5.81511725640303E+0000
 20
 4.00678240035631E+0000
 11
 5.79558226532390E+0000
 21
 4.02631739142817E+0000
  0
LINE
  8
1
  6
CONTINUOUS
 62
     0
 10
 5.84002111631708E+0000
 20
 4.00253274462011E+0000
 11
 5.81267212881357E+0000
 21
 4.02988173212361E+0000
  0
LINE
  8
1
  6
CONTINUOUS
 62
     0
 10
 5.86492497623840E+0000
 20
 3.99828308888755E+0000
 11
 5.82976199231052E+0000
 21
 4.03344607281906E+0000
  0
LINE
  8
1
  6
CONTINUOUS
 62
     0
 10
 5.88982883615972E+0000
 20
 3.99403343315134E+0000
 11
 5.84685185580020E+0000
 21
 4.03701041351451E+0000
  0
LINE
  8
1
  6
CONTINUOUS
 62
     0
 10
 5.91214693324582E+0000
 20
 3.99236954025400E+0000
 11
 5.86394171928987E+0000
 21
 4.04057475420996E+0000
  0
LINE
  8
1
  6
CONTINUOUS
 62
     0
 10
 5.91214693324582E+0000
 20
 4.01302374443912E+0000
 11
 5.88103158277954E+0000
 21
 4.04413909490540E+0000
  0
LINE
  8
1
  6
CONTINUOUS
 62
     0
 10
 5.91214693324582E+0000
 20
 4.03367794862424E+0000
 11
 5.89812144626922E+0000
 21
 4.04770343560085E+0000
  0
LINE
  8
1
  6
CONTINUOUS
 62
     0
 10
 5.91214693323855E+0000
 20
 4.00055212042207E+0000
 11
 5.90332519431104E+0000
 21
 3.99173038149092E+0000
  0
LINE
  8
1
  6
CONTINUOUS
 62
     0
 10
 5.91214693323855E+0000
 20
 4.02120632460719E+0000
 11
 5.88568171646330E+0000
 21
 3.99474110782467E+0000
  0
LINE
  8
1
  6
CONTINUOUS
 62
     0
 10
 5.91214693323855E+0000
 20
 4.04186052879231E+0000
 11
 5.86803823860828E+0000
 21
 3.99775183415477E+0000
  0
LINE
  8
1
  6
CONTINUOUS
 62
     0
 10
 5.89712855358084E+0000
 20
 4.04749635331973E+0000
 11
 5.85039476075326E+0000
 21
 4.00076256048487E+0000
  0
LINE
  8
1
  6
CONTINUOUS
 62
     0
 10
 5.87103140855470E+0000
 20
 4.04205341247143E+0000
 11
 5.83275128289824E+0000
 21
 4.00377328682225E+0000
  0
LINE
  8
1
  6
CONTINUOUS
 62
     0
 10
 5.84493426352128E+0000
 20
 4.03661047162313E+0000
 11
 5.81510780504323E+0000
 21
 4.00678401315236E+0000
  0
LINE
  8
1
  6
CONTINUOUS
 62
     0
 10
 5.81883711848786E+0000
 20
 4.03116753078211E+0000
 11
 5.79746432719548E+0000
 21
 4.00979473948246E+0000
  0
LINE
  8
1
  6
CONTINUOUS
 62
     0
 10
 5.79273997345445E+0000
 20
 4.02572458993382E+0000
 11
 5.77982084934047E+0000
 21
 4.01280546581256E+0000
  0
LINE
  8
1
  6
CONTINUOUS
 62
     0
 10
 5.76664282842830E+0000
 20
 4.02028164909279E+0000
 11
 5.76217737148545E+0000
 21
 4.01581619214994E+0000
  0
LINE
  8
1
  6
CONTINUOUS
 62
     0
 10
 4.58233539814682E+0000
 20
 6.41100528458628E+0000
 11
 4.58233539814682E+0000
 21
 6.41100528458628E+0000
  0
LINE
  8
1
  6
CONTINUOUS
 62
     0
 10
 4.58233539814682E+0000
 20
 6.41100528458628E+0000
 11
 4.42304607151164E+0000
 21
 6.43818680594995E+0000
  0
LINE
  8
1
  6
CONTINUOUS
 62
     0
 10
 4.42304607151164E+0000
 20
 6.43818680594995E+0000
 11
 4.42304607151164E+0000
 21
 6.37778316847835E+0000
  0
LINE
  8
1
  6
CONTINUOUS
 62
     0
 10
 4.42304607151164E+0000
 20
 6.37778316847835E+0000
 11
 4.58233539814682E+0000
 21
 6.41100528458628E+0000
  0
LINE
  8
1
  6
CONTINUOUS
 62
     0
 10
 4.42304607151164E+0000
 20
 6.43818680594995E+0000
 11
 4.42304607151164E+0000
 21
 6.37778316847835E+0000
  0
LINE
  8
1
  6
CONTINUOUS
 62
     0
 10
 4.43159100326011E+0000
 20
 6.37956533882243E+0000
 11
 4.42304607151164E+0000
 21
 6.38811027057091E+0000
  0
LINE
  8
1
  6
CONTINUOUS
 62
     0
 10
 4.44868086674978E+0000
 20
 6.38312967951788E+0000
 11
 4.42304607151164E+0000
 21
 6.40876447475603E+0000
  0
LINE
  8
1
  6
CONTINUOUS
 62
     0
 10
 4.46577073023946E+0000
 20
 6.38669402021333E+0000
 11
 4.42304607151164E+0000
 21
 6.42941867894115E+0000
  0
LINE
  8
1
  6
CONTINUOUS
 62
     0
 10
 4.48286059372913E+0000
 20
 6.39025836090877E+0000
 11
 4.43737773969042E+0000
 21
 6.43574121494748E+0000
  0
LINE
  8
1
  6
CONTINUOUS
 62
     0
 10
 4.49995045721880E+0000
 20
 6.39382270160422E+0000
 11
 4.46228159961174E+0000
 21
 6.43149155921128E+0000
  0
LINE
  8
1
  6
CONTINUOUS
 62
     0
 10
 4.51704032070847E+0000
 20
 6.39738704229967E+0000
 11
 4.48718545953307E+0000
 21
 6.42724190347508E+0000
  0
LINE
  8
1
  6
CONTINUOUS
 62
     0
 10
 4.53413018419815E+0000
 20
 6.40095138299512E+0000
 11
 4.51208931945439E+0000
 21
 6.42299224773888E+0000
  0
LINE
  8
1
  6
CONTINUOUS
 62
     0
 10
 4.55122004768782E+0000
 20
 6.40451572369057E+0000
 11
 4.53699317937571E+0000
 21
 6.41874259200267E+0000
  0
LINE
  8
1
  6
CONTINUOUS
 62
     0
 10
 4.56830991118477E+0000
 20
 6.40808006438601E+0000
 11
 4.56189703929704E+0000
 21
 6.41449293626647E+0000
  0
LINE
  8
1
  6
CONTINUOUS
 62
     0
 10
 4.57351365921204E+0000
 20
 6.41251064774406E+0000
 11
 4.56928682563012E+0000
 21
 6.40828381415486E+0000
  0
LINE
  8
1
  6
CONTINUOUS
 62
     0
 10
 4.55587018136430E+0000
 20
 6.41552137407416E+0000
 11
 4.54318968059670E+0000
 21
 6.40284087330656E+0000
  0
LINE
  8
1
  6
CONTINUOUS
 62
     0
 10
 4.53822670350928E+0000
 20
 6.41853210041154E+0000
 11
 4.51709253556328E+0000
 21
 6.39739793246554E+0000
  0
LINE
  8
1
  6
CONTINUOUS
 62
     0
 10
 4.52058322566154E+0000
 20
 6.42154282674892E+0000
 11
 4.49099539052986E+0000
 21
 6.39195499161724E+0000
  0
LINE
  8
1
  6
CONTINUOUS
 62
     0
 10
 4.50293974780652E+0000
 20
 6.42455355307902E+0000
 11
 4.46489824550372E+0000
 21
 6.38651205077622E+0000
  0
LINE
  8
1
  6
CONTINUOUS
 62
     0
 10
 4.48529626995150E+0000
 20
 6.42756427940913E+0000
 11
 4.43880110047030E+0000
 21
 6.38106910992792E+0000
  0
LINE
  8
1
  6
CONTINUOUS
 62
     0
 10
 4.46765279209649E+0000
 20
 6.43057500573923E+0000
 11
 4.42304607151164E+0000
 21
 6.38596828515438E+0000
  0
LINE
  8
1
  6
CONTINUOUS
 62
     0
 10
 4.45000931424147E+0000
 20
 6.43358573207661E+0000
 11
 4.42304607151164E+0000
 21
 6.40662248933950E+0000
  0
LINE
  8
1
  6
CONTINUOUS
 62
     0
 10
 4.43236583639373E+0000
 20
 6.43659645840671E+0000
 11
 4.42304607151164E+0000
 21
 6.42727669352462E+0000
  0
LINE
  8
1
  6
CONTINUOUS
 62
     0
 10
 4.58233539814682E+0000
 20
 6.41100528458628E+0000
 11
 4.58233539814682E+0000
 21
 6.41100528458628E+0000
  0
LINE
  8
1
  6
CONTINUOUS
 62
     0
 10
 4.58233539814682E+0000
 20
 6.41100528458628E+0000
 11
 4.42304607151164E+0000
 21
 6.43818680594995E+0000
  0
LINE
  8
1
  6
CONTINUOUS
 62
     0
 10
 4.42304607151164E+0000
 20
 6.43818680594995E+0000
 11
 4.42304607151164E+0000
 21
 6.37778316847835E+0000
  0
LINE
  8
1
  6
CONTINUOUS
 62
     0
 10
 4.42304607151164E+0000
 20
 6.37778316847835E+0000
 11
 4.58233539814682E+0000
 21
 6.41100528458628E+0000
  0
LINE
  8
1
  6
CONTINUOUS
 62
     0
 10
 4.42304607151164E+0000
 20
 6.43818680594995E+0000
 11
 4.42304607151164E+0000
 21
 6.37778316847835E+0000
  0
LINE
  8
1
  6
CONTINUOUS
 62
     0
 10
 4.43159100326011E+0000
 20
 6.37956533882243E+0000
 11
 4.42304607151164E+0000
 21
 6.38811027057091E+0000
  0
LINE
  8
1
  6
CONTINUOUS
 62
     0
 10
 4.44868086674978E+0000
 20
 6.38312967951788E+0000
 11
 4.42304607151164E+0000
 21
 6.40876447475603E+0000
  0
LINE
  8
1
  6
CONTINUOUS
 62
     0
 10
 4.46577073023946E+0000
 20
 6.38669402021333E+0000
 11
 4.42304607151164E+0000
 21
 6.42941867894115E+0000
  0
LINE
  8
1
  6
CONTINUOUS
 62
     0
 10
 4.48286059372913E+0000
 20
 6.39025836090877E+0000
 11
 4.43737773969042E+0000
 21
 6.43574121494748E+0000
  0
LINE
  8
1
  6
CONTINUOUS
 62
     0
 10
 4.49995045721880E+0000
 20
 6.39382270160422E+0000
 11
 4.46228159961174E+0000
 21
 6.43149155921128E+0000
  0
LINE
  8
1
  6
CONTINUOUS
 62
     0
 10
 4.51704032070847E+0000
 20
 6.39738704229967E+0000
 11
 4.48718545953307E+0000
 21
 6.42724190347508E+0000
  0
LINE
  8
1
  6
CONTINUOUS
 62
     0
 10
 4.53413018419815E+0000
 20
 6.40095138299512E+0000
 11
 4.51208931945439E+0000
 21
 6.42299224773888E+0000
  0
LINE
  8
1
  6
CONTINUOUS
 62
     0
 10
 4.55122004768782E+0000
 20
 6.40451572369057E+0000
 11
 4.53699317937571E+0000
 21
 6.41874259200267E+0000
  0
LINE
  8
1
  6
CONTINUOUS
 62
     0
 10
 4.56830991118477E+0000
 20
 6.40808006438601E+0000
 11
 4.56189703929704E+0000
 21
 6.41449293626647E+0000
  0
LINE
  8
1
  6
CONTINUOUS
 62
     0
 10
 4.57351365921204E+0000
 20
 6.41251064774406E+0000
 11
 4.56928682563012E+0000
 21
 6.40828381415486E+0000
  0
LINE
  8
1
  6
CONTINUOUS
 62
     0
 10
 4.55587018136430E+0000
 20
 6.41552137407416E+0000
 11
 4.54318968059670E+0000
 21
 6.40284087330656E+0000
  0
LINE
  8
1
  6
CONTINUOUS
 62
     0
 10
 4.53822670350928E+0000
 20
 6.41853210041154E+0000
 11
 4.51709253556328E+0000
 21
 6.39739793246554E+0000
  0
LINE
  8
1
  6
CONTINUOUS
 62
     0
 10
 4.52058322566154E+0000
 20
 6.42154282674892E+0000
 11
 4.49099539052986E+0000
 21
 6.39195499161724E+0000
  0
LINE
  8
1
  6
CONTINUOUS
 62
     0
 10
 4.50293974780652E+0000
 20
 6.42455355307902E+0000
 11
 4.46489824550372E+0000
 21
 6.38651205077622E+0000
  0
LINE
  8
1
  6
CONTINUOUS
 62
     0
 10
 4.48529626995150E+0000
 20
 6.42756427940913E+0000
 11
 4.43880110047030E+0000
 21
 6.38106910992792E+0000
  0
LINE
  8
1
  6
CONTINUOUS
 62
     0
 10
 4.46765279209649E+0000
 20
 6.43057500573923E+0000
 11
 4.42304607151164E+0000
 21
 6.38596828515438E+0000
  0
LINE
  8
1
  6
CONTINUOUS
 62
     0
 10
 4.45000931424147E+0000
 20
 6.43358573207661E+0000
 11
 4.42304607151164E+0000
 21
 6.40662248933950E+0000
  0
LINE
  8
1
  6
CONTINUOUS
 62
     0
 10
 4.43236583639373E+0000
 20
 6.43659645840671E+0000
 11
 4.42304607151164E+0000
 21
 6.42727669352462E+0000
  0
LINE
  8
1
  6
CONTINUOUS
 62
     0
 10
 3.96509580116617E+0000
 20
 6.40998238739849E+0000
 11
 3.96509580116617E+0000
 21
 6.40998238739849E+0000
  0
LINE
  8
1
  6
CONTINUOUS
 62
     0
 10
 3.96509580116617E+0000
 20
 6.40998238739849E+0000
 11
 4.12438512781955E+0000
 21
 6.38280086603481E+0000
  0
LINE
  8
1
  6
CONTINUOUS
 62
     0
 10
 4.12438512781955E+0000
 20
 6.38280086603481E+0000
 11
 4.12438512781955E+0000
 21
 6.44320450350642E+0000
  0
LINE
  8
1
  6
CONTINUOUS
 62
     0
 10
 4.12438512781955E+0000
 20
 6.44320450350642E+0000
 11
 3.96509580116617E+0000
 21
 6.40998238739849E+0000
  0
LINE
  8
1
  6
CONTINUOUS
 62
     0
 10
 4.12438512781955E+0000
 20
 6.38280086603481E+0000
 11
 4.12438512781955E+0000
 21
 6.44320450350642E+0000
  0
LINE
  8
1
  6
CONTINUOUS
 62
     0
 10
 3.97754773112683E+0000
 20
 6.40785755953402E+0000
 11
 3.97364073291465E+0000
 21
 6.41176455774985E+0000
  0
LINE
  8
1
  6
CONTINUOUS
 62
     0
 10
 4.00245159104816E+0000
 20
 6.40360790379782E+0000
 11
 3.99073059640432E+0000
 21
 6.41532889844530E+0000
  0
LINE
  8
1
  6
CONTINUOUS
 62
     0
 10
 4.02735545096948E+0000
 20
 6.39935824806889E+0000
 11
 4.00782045989763E+0000
 21
 6.41889323913347E+0000
  0
LINE
  8
1
  6
CONTINUOUS
 62
     0
 10
 4.05225931088353E+0000
 20
 6.39510859233269E+0000
 11
 4.02491032338730E+0000
 21
 6.42245757982892E+0000
  0
LINE
  8
1
  6
CONTINUOUS
 62
     0
 10
 4.07716317080485E+0000
 20
 6.39085893659649E+0000
 11
 4.04200018687698E+0000
 21
 6.42602192052436E+0000
  0
LINE
  8
1
  6
CONTINUOUS
 62
     0
 10
 4.10206703072618E+0000
 20
 6.38660928086028E+0000
 11
 4.05909005036665E+0000
 21
 6.42958626121981E+0000
  0
LINE
  8
1
  6
CONTINUOUS
 62
     0
 10
 4.12438512781955E+0000
 20
 6.38494538795203E+0000
 11
 4.07617991386360E+0000
 21
 6.43315060191526E+0000
  0
LINE
  8
1
  6
CONTINUOUS
 62
     0
 10
 4.12438512781955E+0000
 20
 6.40559959213715E+0000
 11
 4.09326977735327E+0000
 21
 6.43671494261071E+0000
  0
LINE
  8
1
  6
CONTINUOUS
 62
     0
 10
 4.12438512781955E+0000
 20
 6.42625379632227E+0000
 11
 4.11035964084294E+0000
 21
 6.44027928329888E+0000
  0
LINE
  8
1
  6
CONTINUOUS
 62
     0
 10
 4.12438512781227E+0000
 20
 6.39312796812010E+0000
 11
 4.11556338888477E+0000
 21
 6.38430622919259E+0000
  0
LINE
  8
1
  6
CONTINUOUS
 62
     0
 10
 4.12438512781227E+0000
 20
 6.41378217230522E+0000
 11
 4.09791991103702E+0000
 21
 6.38731695552997E+0000
  0
LINE
  8
1
  6
CONTINUOUS
 62
     0
 10
 4.12438512781227E+0000
 20
 6.43443637649034E+0000
 11
 4.08027643318201E+0000
 21
 6.39032768186007E+0000
  0
LINE
  8
1
  6
CONTINUOUS
 62
     0
 10
 4.10936674815457E+0000
 20
 6.44007220101776E+0000
 11
 4.06263295532699E+0000
 21
 6.39333840819017E+0000
  0
LINE
  8
1
  6
CONTINUOUS
 62
     0
 10
 4.08326960312843E+0000
 20
 6.43462926017673E+0000
 11
 4.04498947747197E+0000
 21
 6.39634913452028E+0000
  0
LINE
  8
1
  6
CONTINUOUS
 62
     0
 10
 4.05717245809501E+0000
 20
 6.42918631932844E+0000
 11
 4.02734599962423E+0000
 21
 6.39935986085038E+0000
  0
LINE
  8
1
  6
CONTINUOUS
 62
     0
 10
 4.03107531306887E+0000
 20
 6.42374337848742E+0000
 11
 4.00970252176921E+0000
 21
 6.40237058718776E+0000
  0
LINE
  8
1
  6
CONTINUOUS
 62
     0
 10
 4.00497816803545E+0000
 20
 6.41830043763912E+0000
 11
 3.99205904391420E+0000
 21
 6.40538131351786E+0000
  0
LINE
  8
1
  6
CONTINUOUS
 62
     0
 10
 3.97888102300203E+0000
 20
 6.41285749679082E+0000
 11
 3.97441556606645E+0000
 21
 6.40839203985524E+0000
  0
LINE
  8
1
  6
CONTINUOUS
 62
     0
 10
 3.96509580116617E+0000
 20
 6.40998238739849E+0000
 11
 3.96509580116617E+0000
 21
 6.40998238739849E+0000
  0
LINE
  8
1
  6
CONTINUOUS
 62
     0
 10
 3.96509580116617E+0000
 20
 6.40998238739849E+0000
 11
 4.12438512781955E+0000
 21
 6.38280086603481E+0000
  0
LINE
  8
1
  6
CONTINUOUS
 62
     0
 10
 4.12438512781955E+0000
 20
 6.38280086603481E+0000
 11
 4.12438512781955E+0000
 21
 6.44320450350642E+0000
  0
LINE
  8
1
  6
CONTINUOUS
 62
     0
 10
 4.12438512781955E+0000
 20
 6.44320450350642E+0000
 11
 3.96509580116617E+0000
 21
 6.40998238739849E+0000
  0
LINE
  8
1
  6
CONTINUOUS
 62
     0
 10
 4.12438512781955E+0000
 20
 6.38280086603481E+0000
 11
 4.12438512781955E+0000
 21
 6.44320450350642E+0000
  0
LINE
  8
1
  6
CONTINUOUS
 62
     0
 10
 3.97754773112683E+0000
 20
 6.40785755953402E+0000
 11
 3.97364073291465E+0000
 21
 6.41176455774985E+0000
  0
LINE
  8
1
  6
CONTINUOUS
 62
     0
 10
 4.00245159104816E+0000
 20
 6.40360790379782E+0000
 11
 3.99073059640432E+0000
 21
 6.41532889844530E+0000
  0
LINE
  8
1
  6
CONTINUOUS
 62
     0
 10
 4.02735545096948E+0000
 20
 6.39935824806889E+0000
 11
 4.00782045989763E+0000
 21
 6.41889323913347E+0000
  0
LINE
  8
1
  6
CONTINUOUS
 62
     0
 10
 4.05225931088353E+0000
 20
 6.39510859233269E+0000
 11
 4.02491032338730E+0000
 21
 6.42245757982892E+0000
  0
LINE
  8
1
  6
CONTINUOUS
 62
     0
 10
 4.07716317080485E+0000
 20
 6.39085893659649E+0000
 11
 4.04200018687698E+0000
 21
 6.42602192052436E+0000
  0
LINE
  8
1
  6
CONTINUOUS
 62
     0
 10
 4.10206703072618E+0000
 20
 6.38660928086028E+0000
 11
 4.05909005036665E+0000
 21
 6.42958626121981E+0000
  0
LINE
  8
1
  6
CONTINUOUS
 62
     0
 10
 4.12438512781955E+0000
 20
 6.38494538795203E+0000
 11
 4.07617991386360E+0000
 21
 6.43315060191526E+0000
  0
LINE
  8
1
  6
CONTINUOUS
 62
     0
 10
 4.12438512781955E+0000
 20
 6.40559959213715E+0000
 11
 4.09326977735327E+0000
 21
 6.43671494261071E+0000
  0
LINE
  8
1
  6
CONTINUOUS
 62
     0
 10
 4.12438512781955E+0000
 20
 6.42625379632227E+0000
 11
 4.11035964084294E+0000
 21
 6.44027928329888E+0000
  0
LINE
  8
1
  6
CONTINUOUS
 62
     0
 10
 4.12438512781227E+0000
 20
 6.39312796812010E+0000
 11
 4.11556338888477E+0000
 21
 6.38430622919259E+0000
  0
LINE
  8
1
  6
CONTINUOUS
 62
     0
 10
 4.12438512781227E+0000
 20
 6.41378217230522E+0000
 11
 4.09791991103702E+0000
 21
 6.38731695552997E+0000
  0
LINE
  8
1
  6
CONTINUOUS
 62
     0
 10
 4.12438512781227E+0000
 20
 6.43443637649034E+0000
 11
 4.08027643318201E+0000
 21
 6.39032768186007E+0000
  0
LINE
  8
1
  6
CONTINUOUS
 62
     0
 10
 4.10936674815457E+0000
 20
 6.44007220101776E+0000
 11
 4.06263295532699E+0000
 21
 6.39333840819017E+0000
  0
LINE
  8
1
  6
CONTINUOUS
 62
     0
 10
 4.08326960312843E+0000
 20
 6.43462926017673E+0000
 11
 4.04498947747197E+0000
 21
 6.39634913452028E+0000
  0
LINE
  8
1
  6
CONTINUOUS
 62
     0
 10
 4.05717245809501E+0000
 20
 6.42918631932844E+0000
 11
 4.02734599962423E+0000
 21
 6.39935986085038E+0000
  0
LINE
  8
1
  6
CONTINUOUS
 62
     0
 10
 4.03107531306887E+0000
 20
 6.42374337848742E+0000
 11
 4.00970252176921E+0000
 21
 6.40237058718776E+0000
  0
LINE
  8
1
  6
CONTINUOUS
 62
     0
 10
 4.00497816803545E+0000
 20
 6.41830043763912E+0000
 11
 3.99205904391420E+0000
 21
 6.40538131351786E+0000
  0
LINE
  8
1
  6
CONTINUOUS
 62
     0
 10
 3.97888102300203E+0000
 20
 6.41285749679082E+0000
 11
 3.97441556606645E+0000
 21
 6.40839203985524E+0000
  0
LINE
  8
1
  6
CONTINUOUS
 62
     0
 10
 3.28093395372343E+0000
 20
 5.94689573945652E+0000
 11
 3.28093395372343E+0000
 21
 5.94689573945652E+0000
  0
LINE
  8
1
  6
CONTINUOUS
 62
     0
 10
 3.28093395372343E+0000
 20
 5.94689573945652E+0000
 11
 3.25375243235976E+0000
 21
 5.78760641282861E+0000
  0
LINE
  8
1
  6
CONTINUOUS
 62
     0
 10
 3.25375243235976E+0000
 20
 5.78760641282861E+0000
 11
 3.31415606983137E+0000
 21
 5.78760641282861E+0000
  0
LINE
  8
1
  6
CONTINUOUS
 62
     0
 10
 3.31415606983137E+0000
 20
 5.78760641282861E+0000
 11
 3.28093395372343E+0000
 21
 5.94689573945652E+0000
  0
LINE
  8
1
  6
CONTINUOUS
 62
     0
 10
 3.25375243235976E+0000
 20
 5.78760641282861E+0000
 11
 3.31415606983137E+0000
 21
 5.78760641282861E+0000
  0
LINE
  8
1
  6
CONTINUOUS
 62
     0
 10
 3.26407953445596E+0000
 20
 5.78760641283588E+0000
 11
 3.25525779552845E+0000
 21
 5.79642815175612E+0000
  0
LINE
  8
1
  6
CONTINUOUS
 62
     0
 10
 3.28473373864108E+0000
 20
 5.78760641282861E+0000
 11
 3.25826852186219E+0000
 21
 5.81407162961114E+0000
  0
LINE
  8
1
  6
CONTINUOUS
 62
     0
 10
 3.30538794282620E+0000
 20
 5.78760641282861E+0000
 11
 3.26127924819230E+0000
 21
 5.83171510746615E+0000
  0
LINE
  8
1
  6
CONTINUOUS
 62
     0
 10
 3.31102376734998E+0000
 20
 5.80262479249359E+0000
 11
 3.26428997452604E+0000
 21
 5.84935858531389E+0000
  0
LINE
  8
1
  6
CONTINUOUS
 62
     0
 10
 3.30558082650532E+0000
 20
 5.82872193752701E+0000
 11
 3.26730070085614E+0000
 21
 5.86700206316891E+0000
  0
LINE
  8
1
  6
CONTINUOUS
 62
     0
 10
 3.30013788565702E+0000
 20
 5.85481908255315E+0000
 11
 3.27031142718988E+0000
 21
 5.88464554102393E+0000
  0
LINE
  8
1
  6
CONTINUOUS
 62
     0
 10
 3.29469494480873E+0000
 20
 5.88091622758657E+0000
 11
 3.27332215352362E+0000
 21
 5.90228901887895E+0000
  0
LINE
  8
1
  6
CONTINUOUS
 62
     0
 10
 3.28925200396407E+0000
 20
 5.90701337261999E+0000
 11
 3.27633287985373E+0000
 21
 5.91993249672669E+0000
  0
LINE
  8
1
  6
CONTINUOUS
 62
     0
 10
 3.28380906311577E+0000
 20
 5.93311051765340E+0000
 11
 3.27934360618747E+0000
 21
 5.93757597458170E+0000
  0
LINE
  8
1
  6
CONTINUOUS
 62
     0
 10
 3.31237389948001E+0000
 20
 5.79615134456253E+0000
 11
 3.30382896773517E+0000
 21
 5.78760641282133E+0000
  0
LINE
  8
1
  6
CONTINUOUS
 62
     0
 10
 3.30880955878456E+0000
 20
 5.81324120805948E+0000
 11
 3.28317476355005E+0000
 21
 5.78760641282133E+0000
  0
LINE
  8
1
  6
CONTINUOUS
 62
     0
 10
 3.30524521809275E+0000
 20
 5.83033107154915E+0000
 11
 3.26252055936129E+0000
 21
 5.78760641282133E+0000
  0
LINE
  8
1
  6
CONTINUOUS
 62
     0
 10
 3.30168087739730E+0000
 20
 5.84742093503883E+0000
 11
 3.25619802336587E+0000
 21
 5.80193808100739E+0000
  0
LINE
  8
1
  6
CONTINUOUS
 62
     0
 10
 3.29811653669822E+0000
 20
 5.86451079852850E+0000
 11
 3.26044767910207E+0000
 21
 5.82684194092872E+0000
  0
LINE
  8
1
  6
CONTINUOUS
 62
     0
 10
 3.29455219600641E+0000
 20
 5.88160066201817E+0000
 11
 3.26469733483827E+0000
 21
 5.85174580085004E+0000
  0
LINE
  8
1
  6
CONTINUOUS
 62
     0
 10
 3.29098785531096E+0000
 20
 5.89869052550785E+0000
 11
 3.26894699057448E+0000
 21
 5.87664966077136E+0000
  0
LINE
  8
1
  6
CONTINUOUS
 62
     0
 10
 3.28742351461915E+0000
 20
 5.91578038900479E+0000
 11
 3.27319664630704E+0000
 21
 5.90155352069269E+0000
  0
LINE
  8
1
  6
CONTINUOUS
 62
     0
 10
 3.28385917392370E+0000
 20
 5.93287025249447E+0000
 11
 3.27744630204324E+0000
 21
 5.92645738061401E+0000
  0
LINE
  8
1
  6
CONTINUOUS
 62
     0
 10
 3.27823267742860E+0000
 20
 4.57955635478720E+0000
 11
 3.27823267742860E+0000
 21
 4.57955635478720E+0000
  0
LINE
  8
1
  6
CONTINUOUS
 62
     0
 10
 3.27823267742860E+0000
 20
 4.57955635478720E+0000
 11
 3.30541419879228E+0000
 21
 4.73884568141511E+0000
  0
LINE
  8
1
  6
CONTINUOUS
 62
     0
 10
 3.30541419879228E+0000
 20
 4.73884568141511E+0000
 11
 3.24501056132067E+0000
 21
 4.73884568141511E+0000
  0
LINE
  8
1
  6
CONTINUOUS
 62
     0
 10
 3.24501056132067E+0000
 20
 4.73884568141511E+0000
 11
 3.27823267742860E+0000
 21
 4.57955635478720E+0000
  0
LINE
  8
1
  6
CONTINUOUS
 62
     0
 10
 3.30541419879228E+0000
 20
 4.73884568141511E+0000
 11
 3.24501056132067E+0000
 21
 4.73884568141511E+0000
  0
LINE
  8
1
  6
CONTINUOUS
 62
     0
 10
 3.27973804059729E+0000
 20
 4.58837809371471E+0000
 11
 3.27551120700809E+0000
 21
 4.59260492730391E+0000
  0
LINE
  8
1
  6
CONTINUOUS
 62
     0
 10
 3.28274876693104E+0000
 20
 4.60602157156973E+0000
 11
 3.27006826616343E+0000
 21
 4.61870207233733E+0000
  0
LINE
  8
1
  6
CONTINUOUS
 62
     0
 10
 3.28575949326114E+0000
 20
 4.62366504942474E+0000
 11
 3.26462532531514E+0000
 21
 4.64479921737075E+0000
  0
LINE
  8
1
  6
CONTINUOUS
 62
     0
 10
 3.28877021959488E+0000
 20
 4.64130852727976E+0000
 11
 3.25918238446684E+0000
 21
 4.67089636240416E+0000
  0
LINE
  8
1
  6
CONTINUOUS
 62
     0
 10
 3.29178094592862E+0000
 20
 4.65895200512750E+0000
 11
 3.25373944362218E+0000
 21
 4.69699350743758E+0000
  0
LINE
  8
1
  6
CONTINUOUS
 62
     0
 10
 3.29479167225873E+0000
 20
 4.67659548298252E+0000
 11
 3.24829650277388E+0000
 21
 4.72309065247100E+0000
  0
LINE
  8
1
  6
CONTINUOUS
 62
     0
 10
 3.29780239859247E+0000
 20
 4.69423896083754E+0000
 11
 3.25319567800761E+0000
 21
 4.73884568141511E+0000
  0
LINE
  8
1
  6
CONTINUOUS
 62
     0
 10
 3.30081312492621E+0000
 20
 4.71188243868528E+0000
 11
 3.27384988219637E+0000
 21
 4.73884568141511E+0000
  0
LINE
  8
1
  6
CONTINUOUS
 62
     0
 10
 3.30382385125631E+0000
 20
 4.72952591654030E+0000
 11
 3.29450408638149E+0000
 21
 4.73884568141511E+0000
  0
LINE
  8
1
  6
CONTINUOUS
 62
     0
 10
 3.28035750529307E+0000
 20
 4.59200828474422E+0000
 11
 3.27645050707724E+0000
 21
 4.58810128652840E+0000
  0
LINE
  8
1
  6
CONTINUOUS
 62
     0
 10
 3.28460716102927E+0000
 20
 4.61691214466555E+0000
 11
 3.27288616638543E+0000
 21
 4.60519115001807E+0000
  0
LINE
  8
1
  6
CONTINUOUS
 62
     0
 10
 3.28885681676547E+0000
 20
 4.64181600458687E+0000
 11
 3.26932182568635E+0000
 21
 4.62228101350775E+0000
  0
LINE
  8
1
  6
CONTINUOUS
 62
     0
 10
 3.29310647250168E+0000
 20
 4.66671986450820E+0000
 11
 3.26575748499090E+0000
 21
 4.63937087699742E+0000
  0
LINE
  8
1
  6
CONTINUOUS
 62
     0
 10
 3.29735612823424E+0000
 20
 4.69162372442952E+0000
 11
 3.26219314429909E+0000
 21
 4.65646074048709E+0000
  0
LINE
  8
1
  6
CONTINUOUS
 62
     0
 10
 3.30160578397044E+0000
 20
 4.71652758435084E+0000
 11
 3.25862880360364E+0000
 21
 4.67355060398404E+0000
  0
LINE
  8
1
  6
CONTINUOUS
 62
     0
 10
 3.30326967684960E+0000
 20
 4.73884568140784E+0000
 11
 3.25506446290819E+0000
 21
 4.69064046746644E+0000
  0
LINE
  8
1
  6
CONTINUOUS
 62
     0
 10
 3.28261547266447E+0000
 20
 4.73884568140784E+0000
 11
 3.25150012221275E+0000
 21
 4.70773033096339E+0000
  0
LINE
  8
1
  6
CONTINUOUS
 62
     0
 10
 3.26196126847935E+0000
 20
 4.73884568140784E+0000
 11
 3.24793578152094E+0000
 21
 4.72482019445306E+0000
  0
LINE
  8
1
  6
CONTINUOUS
 62
     0
 10
 4.42915312088007E+0000
 20
 4.00981106080872E+0000
 11
 4.42915312088007E+0000
 21
 4.00981106080872E+0000
  0
LINE
  8
1
  6
CONTINUOUS
 62
     0
 10
 4.42915312088007E+0000
 20
 4.00981106080872E+0000
 11
 4.58844244752981E+0000
 21
 3.98262953944504E+0000
  0
LINE
  8
1
  6
CONTINUOUS
 62
     0
 10
 4.58844244752981E+0000
 20
 3.98262953944504E+0000
 11
 4.58844244752981E+0000
 21
 4.04303317691665E+0000
  0
LINE
  8
1
  6
CONTINUOUS
 62
     0
 10
 4.58844244752981E+0000
 20
 4.04303317691665E+0000
 11
 4.42915312088007E+0000
 21
 4.00981106080872E+0000
  0
LINE
  8
1
  6
CONTINUOUS
 62
     0
 10
 4.58844244752981E+0000
 20
 3.98262953944504E+0000
 11
 4.58844244752981E+0000
 21
 4.04303317691665E+0000
  0
LINE
  8
1
  6
CONTINUOUS
 62
     0
 10
 4.44160505083710E+0000
 20
 4.00768623294425E+0000
 11
 4.43769805262855E+0000
 21
 4.01159323115280E+0000
  0
LINE
  8
1
  6
CONTINUOUS
 62
     0
 10
 4.46650891075842E+0000
 20
 4.00343657720805E+0000
 11
 4.45478791611822E+0000
 21
 4.01515757184825E+0000
  0
LINE
  8
1
  6
CONTINUOUS
 62
     0
 10
 4.49141277067974E+0000
 20
 3.99918692147185E+0000
 11
 4.47187777960789E+0000
 21
 4.01872191254370E+0000
  0
LINE
  8
1
  6
CONTINUOUS
 62
     0
 10
 4.51631663060107E+0000
 20
 3.99493726573928E+0000
 11
 4.48896764309757E+0000
 21
 4.02228625323914E+0000
  0
LINE
  8
1
  6
CONTINUOUS
 62
     0
 10
 4.54122049051512E+0000
 20
 3.99068761000672E+0000
 11
 4.50605750658724E+0000
 21
 4.02585059393459E+0000
  0
LINE
  8
1
  6
CONTINUOUS
 62
     0
 10
 4.56612435043644E+0000
 20
 3.98643795427051E+0000
 11
 4.52314737007691E+0000
 21
 4.02941493463004E+0000
  0
LINE
  8
1
  6
CONTINUOUS
 62
     0
 10
 4.58844244752981E+0000
 20
 3.98477406136226E+0000
 11
 4.54023723357386E+0000
 21
 4.03297927532549E+0000
  0
LINE
  8
1
  6
CONTINUOUS
 62
     0
 10
 4.58844244752981E+0000
 20
 4.00542826554738E+0000
 11
 4.55732709706353E+0000
 21
 4.03654361601366E+0000
  0
LINE
  8
1
  6
CONTINUOUS
 62
     0
 10
 4.58844244752981E+0000
 20
 4.02608246973250E+0000
 11
 4.57441696055321E+0000
 21
 4.04010795670911E+0000
  0
LINE
  8
1
  6
CONTINUOUS
 62
     0
 10
 4.58844244752254E+0000
 20
 3.99295664153033E+0000
 11
 4.57962070859503E+0000
 21
 3.98413490260646E+0000
  0
LINE
  8
1
  6
CONTINUOUS
 62
     0
 10
 4.58844244752254E+0000
 20
 4.01361084571545E+0000
 11
 4.56197723074001E+0000
 21
 3.98714562893656E+0000
  0
LINE
  8
1
  6
CONTINUOUS
 62
     0
 10
 4.58844244752254E+0000
 20
 4.03426504990057E+0000
 11
 4.54433375289227E+0000
 21
 3.99015635527030E+0000
  0
LINE
  8
1
  6
CONTINUOUS
 62
     0
 10
 4.57342406787211E+0000
 20
 4.03990087443526E+0000
 11
 4.52669027504453E+0000
 21
 3.99316708160404E+0000
  0
LINE
  8
1
  6
CONTINUOUS
 62
     0
 10
 4.54732692283869E+0000
 20
 4.03445793359424E+0000
 11
 4.50904679718951E+0000
 21
 3.99617780793778E+0000
  0
LINE
  8
1
  6
CONTINUOUS
 62
     0
 10
 4.52122977780527E+0000
 20
 4.02901499274594E+0000
 11
 4.49140331933449E+0000
 21
 3.99918853426789E+0000
  0
LINE
  8
1
  6
CONTINUOUS
 62
     0
 10
 4.49513263277913E+0000
 20
 4.02357205189765E+0000
 11
 4.47375984147948E+0000
 21
 4.00219926059799E+0000
  0
LINE
  8
1
  6
CONTINUOUS
 62
     0
 10
 4.46903548774571E+0000
 20
 4.01812911104935E+0000
 11
 4.45611636362446E+0000
 21
 4.00520998693537E+0000
  0
LINE
  8
1
  6
CONTINUOUS
 62
     0
 10
 4.44293834271957E+0000
 20
 4.01268617020833E+0000
 11
 4.43847288577672E+0000
 21
 4.00822071326547E+0000
  0
LINE
  8
1
  6
CONTINUOUS
 62
     0
 10
 4.42915312088007E+0000
 20
 4.00981106080872E+0000
 11
 4.42915312088007E+0000
 21
 4.00981106080872E+0000
  0
LINE
  8
1
  6
CONTINUOUS
 62
     0
 10
 4.42915312088007E+0000
 20
 4.00981106080872E+0000
 11
 4.58844244752981E+0000
 21
 3.98262953944504E+0000
  0
LINE
  8
1
  6
CONTINUOUS
 62
     0
 10
 4.58844244752981E+0000
 20
 3.98262953944504E+0000
 11
 4.58844244752981E+0000
 21
 4.04303317691665E+0000
  0
LINE
  8
1
  6
CONTINUOUS
 62
     0
 10
 4.58844244752981E+0000
 20
 4.04303317691665E+0000
 11
 4.42915312088007E+0000
 21
 4.00981106080872E+0000
  0
LINE
  8
1
  6
CONTINUOUS
 62
     0
 10
 4.58844244752981E+0000
 20
 3.98262953944504E+0000
 11
 4.58844244752981E+0000
 21
 4.04303317691665E+0000
  0
LINE
  8
1
  6
CONTINUOUS
 62
     0
 10
 4.44160505083710E+0000
 20
 4.00768623294425E+0000
 11
 4.43769805262855E+0000
 21
 4.01159323115280E+0000
  0
LINE
  8
1
  6
CONTINUOUS
 62
     0
 10
 4.46650891075842E+0000
 20
 4.00343657720805E+0000
 11
 4.45478791611822E+0000
 21
 4.01515757184825E+0000
  0
LINE
  8
1
  6
CONTINUOUS
 62
     0
 10
 4.49141277067974E+0000
 20
 3.99918692147185E+0000
 11
 4.47187777960789E+0000
 21
 4.01872191254370E+0000
  0
LINE
  8
1
  6
CONTINUOUS
 62
     0
 10
 4.51631663060107E+0000
 20
 3.99493726573928E+0000
 11
 4.48896764309757E+0000
 21
 4.02228625323914E+0000
  0
LINE
  8
1
  6
CONTINUOUS
 62
     0
 10
 4.54122049051512E+0000
 20
 3.99068761000672E+0000
 11
 4.50605750658724E+0000
 21
 4.02585059393459E+0000
  0
LINE
  8
1
  6
CONTINUOUS
 62
     0
 10
 4.56612435043644E+0000
 20
 3.98643795427051E+0000
 11
 4.52314737007691E+0000
 21
 4.02941493463004E+0000
  0
LINE
  8
1
  6
CONTINUOUS
 62
     0
 10
 4.58844244752981E+0000
 20
 3.98477406136226E+0000
 11
 4.54023723357386E+0000
 21
 4.03297927532549E+0000
  0
LINE
  8
1
  6
CONTINUOUS
 62
     0
 10
 4.58844244752981E+0000
 20
 4.00542826554738E+0000
 11
 4.55732709706353E+0000
 21
 4.03654361601366E+0000
  0
LINE
  8
1
  6
CONTINUOUS
 62
     0
 10
 4.58844244752981E+0000
 20
 4.02608246973250E+0000
 11
 4.57441696055321E+0000
 21
 4.04010795670911E+0000
  0
LINE
  8
1
  6
CONTINUOUS
 62
     0
 10
 4.58844244752254E+0000
 20
 3.99295664153033E+0000
 11
 4.57962070859503E+0000
 21
 3.98413490260646E+0000
  0
LINE
  8
1
  6
CONTINUOUS
 62
     0
 10
 4.58844244752254E+0000
 20
 4.01361084571545E+0000
 11
 4.56197723074001E+0000
 21
 3.98714562893656E+0000
  0
LINE
  8
1
  6
CONTINUOUS
 62
     0
 10
 4.58844244752254E+0000
 20
 4.03426504990057E+0000
 11
 4.54433375289227E+0000
 21
 3.99015635527030E+0000
  0
LINE
  8
1
  6
CONTINUOUS
 62
     0
 10
 4.57342406787211E+0000
 20
 4.03990087443526E+0000
 11
 4.52669027504453E+0000
 21
 3.99316708160404E+0000
  0
LINE
  8
1
  6
CONTINUOUS
 62
     0
 10
 4.54732692283869E+0000
 20
 4.03445793359424E+0000
 11
 4.50904679718951E+0000
 21
 3.99617780793778E+0000
  0
LINE
  8
1
  6
CONTINUOUS
 62
     0
 10
 4.52122977780527E+0000
 20
 4.02901499274594E+0000
 11
 4.49140331933449E+0000
 21
 3.99918853426789E+0000
  0
LINE
  8
1
  6
CONTINUOUS
 62
     0
 10
 4.49513263277913E+0000
 20
 4.02357205189765E+0000
 11
 4.47375984147948E+0000
 21
 4.00219926059799E+0000
  0
LINE
  8
1
  6
CONTINUOUS
 62
     0
 10
 4.46903548774571E+0000
 20
 4.01812911104935E+0000
 11
 4.45611636362446E+0000
 21
 4.00520998693537E+0000
  0
LINE
  8
1
  6
CONTINUOUS
 62
     0
 10
 4.44293834271957E+0000
 20
 4.01268617020833E+0000
 11
 4.43847288577672E+0000
 21
 4.00822071326547E+0000
  0
LINE
  8
1
  6
CONTINUOUS
 62
     0
 10
 4.11067058140179E+0000
 20
 4.01083395799651E+0000
 11
 4.11067058140179E+0000
 21
 4.01083395799651E+0000
  0
LINE
  8
1
  6
CONTINUOUS
 62
     0
 10
 4.11067058140179E+0000
 20
 4.01083395799651E+0000
 11
 3.95138125476660E+0000
 21
 4.03801547936018E+0000
  0
LINE
  8
1
  6
CONTINUOUS
 62
     0
 10
 3.95138125476660E+0000
 20
 4.03801547936018E+0000
 11
 3.95138125476660E+0000
 21
 3.97761184188857E+0000
  0
LINE
  8
1
  6
CONTINUOUS
 62
     0
 10
 3.95138125476660E+0000
 20
 3.97761184188857E+0000
 11
 4.11067058140179E+0000
 21
 4.01083395799651E+0000
  0
LINE
  8
1
  6
CONTINUOUS
 62
     0
 10
 3.95138125476660E+0000
 20
 4.03801547936018E+0000
 11
 3.95138125476660E+0000
 21
 3.97761184188857E+0000
  0
LINE
  8
1
  6
CONTINUOUS
 62
     0
 10
 3.95992618651144E+0000
 20
 3.97939401223630E+0000
 11
 3.95138125476660E+0000
 21
 3.98793894398113E+0000
  0
LINE
  8
1
  6
CONTINUOUS
 62
     0
 10
 3.97701605000111E+0000
 20
 3.98295835293175E+0000
 11
 3.95138125476660E+0000
 21
 4.00859314816626E+0000
  0
LINE
  8
1
  6
CONTINUOUS
 62
     0
 10
 3.99410591349442E+0000
 20
 3.98652269362719E+0000
 11
 3.95138125477024E+0000
 21
 4.02924735235138E+0000
  0
LINE
  8
1
  6
CONTINUOUS
 62
     0
 10
 4.01119577698410E+0000
 20
 3.99008703431900E+0000
 11
 3.96571292294902E+0000
 21
 4.03556988835771E+0000
  0
LINE
  8
1
  6
CONTINUOUS
 62
     0
 10
 4.02828564047377E+0000
 20
 3.99365137501445E+0000
 11
 3.99061678287035E+0000
 21
 4.03132023262151E+0000
  0
LINE
  8
1
  6
CONTINUOUS
 62
     0
 10
 4.04537550396344E+0000
 20
 3.99721571570990E+0000
 11
 4.01552064278803E+0000
 21
 4.02707057688531E+0000
  0
LINE
  8
1
  6
CONTINUOUS
 62
     0
 10
 4.06246536745311E+0000
 20
 4.00078005640535E+0000
 11
 4.04042450270936E+0000
 21
 4.02282092114910E+0000
  0
LINE
  8
1
  6
CONTINUOUS
 62
     0
 10
 4.07955523094279E+0000
 20
 4.00434439710079E+0000
 11
 4.06532836263068E+0000
 21
 4.01857126541290E+0000
  0
LINE
  8
1
  6
CONTINUOUS
 62
     0
 10
 4.09664509443246E+0000
 20
 4.00790873779624E+0000
 11
 4.09023222255200E+0000
 21
 4.01432160967670E+0000
  0
LINE
  8
1
  6
CONTINUOUS
 62
     0
 10
 4.10184884246701E+0000
 20
 4.01233932115429E+0000
 11
 4.09762200888508E+0000
 21
 4.00811248757236E+0000
  0
LINE
  8
1
  6
CONTINUOUS
 62
     0
 10
 4.08420536461927E+0000
 20
 4.01535004749167E+0000
 11
 4.07152486384439E+0000
 21
 4.00266954672406E+0000
  0
LINE
  8
1
  6
CONTINUOUS
 62
     0
 10
 4.06656188676425E+0000
 20
 4.01836077382177E+0000
 11
 4.04542771881825E+0000
 21
 3.99722660587577E+0000
  0
LINE
  8
1
  6
CONTINUOUS
 62
     0
 10
 4.04891840891651E+0000
 20
 4.02137150015915E+0000
 11
 4.01933057378483E+0000
 21
 3.99178366502747E+0000
  0
LINE
  8
1
  6
CONTINUOUS
 62
     0
 10
 4.03127493106149E+0000
 20
 4.02438222648925E+0000
 11
 3.99323342875505E+0000
 21
 3.98634072418645E+0000
  0
LINE
  8
1
  6
CONTINUOUS
 62
     0
 10
 4.01363145320647E+0000
 20
 4.02739295281935E+0000
 11
 3.96713628372163E+0000
 21
 3.98089778333815E+0000
  0
LINE
  8
1
  6
CONTINUOUS
 62
     0
 10
 3.99598797535145E+0000
 20
 4.03040367914946E+0000
 11
 3.95138125476296E+0000
 21
 3.98579695856461E+0000
  0
LINE
  8
1
  6
CONTINUOUS
 62
     0
 10
 3.97834449750007E+0000
 20
 4.03341440548684E+0000
 11
 3.95138125476296E+0000
 21
 4.00645116274973E+0000
  0
LINE
  8
1
  6
CONTINUOUS
 62
     0
 10
 3.96070101964506E+0000
 20
 4.03642513181694E+0000
 11
 3.95138125476296E+0000
 21
 4.02710536693485E+0000
  0
LINE
  8
1
  6
CONTINUOUS
 62
     0
 10
 4.11067058140179E+0000
 20
 4.01083395799651E+0000
 11
 4.11067058140179E+0000
 21
 4.01083395799651E+0000
  0
LINE
  8
1
  6
CONTINUOUS
 62
     0
 10
 4.11067058140179E+0000
 20
 4.01083395799651E+0000
 11
 3.95138125476660E+0000
 21
 4.03801547936018E+0000
  0
LINE
  8
1
  6
CONTINUOUS
 62
     0
 10
 3.95138125476660E+0000
 20
 4.03801547936018E+0000
 11
 3.95138125476660E+0000
 21
 3.97761184188857E+0000
  0
LINE
  8
1
  6
CONTINUOUS
 62
     0
 10
 3.95138125476660E+0000
 20
 3.97761184188857E+0000
 11
 4.11067058140179E+0000
 21
 4.01083395799651E+0000
  0
LINE
  8
1
  6
CONTINUOUS
 62
     0
 10
 3.95138125476660E+0000
 20
 4.03801547936018E+0000
 11
 3.95138125476660E+0000
 21
 3.97761184188857E+0000
  0
LINE
  8
1
  6
CONTINUOUS
 62
     0
 10
 3.95992618651144E+0000
 20
 3.97939401223630E+0000
 11
 3.95138125476660E+0000
 21
 3.98793894398113E+0000
  0
LINE
  8
1
  6
CONTINUOUS
 62
     0
 10
 3.97701605000111E+0000
 20
 3.98295835293175E+0000
 11
 3.95138125476660E+0000
 21
 4.00859314816626E+0000
  0
LINE
  8
1
  6
CONTINUOUS
 62
     0
 10
 3.99410591349442E+0000
 20
 3.98652269362719E+0000
 11
 3.95138125477024E+0000
 21
 4.02924735235138E+0000
  0
LINE
  8
1
  6
CONTINUOUS
 62
     0
 10
 4.01119577698410E+0000
 20
 3.99008703431900E+0000
 11
 3.96571292294902E+0000
 21
 4.03556988835771E+0000
  0
LINE
  8
1
  6
CONTINUOUS
 62
     0
 10
 4.02828564047377E+0000
 20
 3.99365137501445E+0000
 11
 3.99061678287035E+0000
 21
 4.03132023262151E+0000
  0
LINE
  8
1
  6
CONTINUOUS
 62
     0
 10
 4.04537550396344E+0000
 20
 3.99721571570990E+0000
 11
 4.01552064278803E+0000
 21
 4.02707057688531E+0000
  0
LINE
  8
1
  6
CONTINUOUS
 62
     0
 10
 4.06246536745311E+0000
 20
 4.00078005640535E+0000
 11
 4.04042450270936E+0000
 21
 4.02282092114910E+0000
  0
LINE
  8
1
  6
CONTINUOUS
 62
     0
 10
 4.07955523094279E+0000
 20
 4.00434439710079E+0000
 11
 4.06532836263068E+0000
 21
 4.01857126541290E+0000
  0
LINE
  8
1
  6
CONTINUOUS
 62
     0
 10
 4.09664509443246E+0000
 20
 4.00790873779624E+0000
 11
 4.09023222255200E+0000
 21
 4.01432160967670E+0000
  0
LINE
  8
1
  6
CONTINUOUS
 62
     0
 10
 4.10184884246701E+0000
 20
 4.01233932115429E+0000
 11
 4.09762200888508E+0000
 21
 4.00811248757236E+0000
  0
LINE
  8
1
  6
CONTINUOUS
 62
     0
 10
 4.08420536461927E+0000
 20
 4.01535004749167E+0000
 11
 4.07152486384439E+0000
 21
 4.00266954672406E+0000
  0
LINE
  8
1
  6
CONTINUOUS
 62
     0
 10
 4.06656188676425E+0000
 20
 4.01836077382177E+0000
 11
 4.04542771881825E+0000
 21
 3.99722660587577E+0000
  0
LINE
  8
1
  6
CONTINUOUS
 62
     0
 10
 4.04891840891651E+0000
 20
 4.02137150015915E+0000
 11
 4.01933057378483E+0000
 21
 3.99178366502747E+0000
  0
LINE
  8
1
  6
CONTINUOUS
 62
     0
 10
 4.03127493106149E+0000
 20
 4.02438222648925E+0000
 11
 3.99323342875505E+0000
 21
 3.98634072418645E+0000
  0
LINE
  8
1
  6
CONTINUOUS
 62
     0
 10
 4.01363145320647E+0000
 20
 4.02739295281935E+0000
 11
 3.96713628372163E+0000
 21
 3.98089778333815E+0000
  0
LINE
  8
1
  6
CONTINUOUS
 62
     0
 10
 3.99598797535145E+0000
 20
 4.03040367914946E+0000
 11
 3.95138125476296E+0000
 21
 3.98579695856461E+0000
  0
LINE
  8
1
  6
CONTINUOUS
 62
     0
 10
 3.97834449750007E+0000
 20
 4.03341440548684E+0000
 11
 3.95138125476296E+0000
 21
 4.00645116274973E+0000
  0
LINE
  8
1
  6
CONTINUOUS
 62
     0
 10
 3.96070101964506E+0000
 20
 4.03642513181694E+0000
 11
 3.95138125476296E+0000
 21
 4.02710536693485E+0000
  0
LINE
  8
1
  6
CONTINUOUS
 62
     0
 10
 5.15728444737761E+0000
 20
 1.99709353504659E+0000
 11
 5.15728444737761E+0000
 21
 1.99709353504659E+0000
  0
LINE
  8
1
  6
CONTINUOUS
 62
     0
 10
 5.15728444737761E+0000
 20
 1.99709353504659E+0000
 11
 5.18446596874128E+0000
 21
 2.15638286167450E+0000
  0
LINE
  8
1
  6
CONTINUOUS
 62
     0
 10
 5.18446596874128E+0000
 20
 2.15638286167450E+0000
 11
 5.12406233126967E+0000
 21
 2.15638286167450E+0000
  0
LINE
  8
1
  6
CONTINUOUS
 62
     0
 10
 5.12406233126967E+0000
 20
 2.15638286167450E+0000
 11
 5.15728444737761E+0000
 21
 1.99709353504659E+0000
  0
LINE
  8
1
  6
CONTINUOUS
 62
     0
 10
 5.18446596874128E+0000
 20
 2.15638286167450E+0000
 11
 5.12406233126967E+0000
 21
 2.15638286167450E+0000
  0
LINE
  8
1
  6
CONTINUOUS
 62
     0
 10
 5.15878981054993E+0000
 20
 2.00591527397773E+0000
 11
 5.15456297695346E+0000
 21
 2.01014210756694E+0000
  0
LINE
  8
1
  6
CONTINUOUS
 62
     0
 10
 5.16180053688004E+0000
 20
 2.02355875182911E+0000
 11
 5.14912003611244E+0000
 21
 2.03623925259672E+0000
  0
LINE
  8
1
  6
CONTINUOUS
 62
     0
 10
 5.16481126321014E+0000
 20
 2.04120222968049E+0000
 11
 5.14367709526414E+0000
 21
 2.06233639763013E+0000
  0
LINE
  8
1
  6
CONTINUOUS
 62
     0
 10
 5.16782198954752E+0000
 20
 2.05884570753551E+0000
 11
 5.13823415441584E+0000
 21
 2.08843354265991E+0000
  0
LINE
  8
1
  6
CONTINUOUS
 62
     0
 10
 5.17083271587762E+0000
 20
 2.07648918538689E+0000
 11
 5.13279121356754E+0000
 21
 2.11453068769333E+0000
  0
LINE
  8
1
  6
CONTINUOUS
 62
     0
 10
 5.17384344220773E+0000
 20
 2.09413266324191E+0000
 11
 5.12734827272652E+0000
 21
 2.14062783272675E+0000
  0
LINE
  8
1
  6
CONTINUOUS
 62
     0
 10
 5.17685416853783E+0000
 20
 2.11177614109693E+0000
 11
 5.13224744796025E+0000
 21
 2.15638286167450E+0000
  0
LINE
  8
1
  6
CONTINUOUS
 62
     0
 10
 5.17986489487521E+0000
 20
 2.12941961894830E+0000
 11
 5.15290165214537E+0000
 21
 2.15638286167450E+0000
  0
LINE
  8
1
  6
CONTINUOUS
 62
     0
 10
 5.18287562120531E+0000
 20
 2.14706309679968E+0000
 11
 5.17355585633049E+0000
 21
 2.15638286167450E+0000
  0
LINE
  8
1
  6
CONTINUOUS
 62
     0
 10
 5.15940927524207E+0000
 20
 2.00954546500361E+0000
 11
 5.15550227702624E+0000
 21
 2.00563846678779E+0000
  0
LINE
  8
1
  6
CONTINUOUS
 62
     0
 10
 5.16365893097100E+0000
 20
 2.03444932492494E+0000
 11
 5.15193793633080E+0000
 21
 2.02272833028110E+0000
  0
LINE
  8
1
  6
CONTINUOUS
 62
     0
 10
 5.16790858670720E+0000
 20
 2.05935318484626E+0000
 11
 5.14837359562807E+0000
 21
 2.03981819376713E+0000
  0
LINE
  8
1
  6
CONTINUOUS
 62
     0
 10
 5.17215824244340E+0000
 20
 2.08425704476758E+0000
 11
 5.14480925493990E+0000
 21
 2.05690805726044E+0000
  0
LINE
  8
1
  6
CONTINUOUS
 62
     0
 10
 5.17640789817960E+0000
 20
 2.10916090468891E+0000
 11
 5.14124491424445E+0000
 21
 2.07399792075012E+0000
  0
LINE
  8
1
  6
CONTINUOUS
 62
     0
 10
 5.18065755391581E+0000
 20
 2.13406476460659E+0000
 11
 5.13768057354901E+0000
 21
 2.09108778424343E+0000
  0
LINE
  8
1
  6
CONTINUOUS
 62
     0
 10
 5.18232144679496E+0000
 20
 2.15638286167086E+0000
 11
 5.13411623285356E+0000
 21
 2.10817764772946E+0000
  0
LINE
  8
1
  6
CONTINUOUS
 62
     0
 10
 5.16166724260984E+0000
 20
 2.15638286167086E+0000
 11
 5.13055189215811E+0000
 21
 2.12526751121914E+0000
  0
LINE
  8
1
  6
CONTINUOUS
 62
     0
 10
 5.14101303842472E+0000
 20
 2.15638286167086E+0000
 11
 5.12698755146266E+0000
 21
 2.14235737471245E+0000
  0
LINE
  8
1
  6
CONTINUOUS
 62
     0
 10
 5.16294999978709E+0000
 20
 3.53395300731427E+0000
 11
 5.45635879412293E+0000
 21
 3.53395300731427E+0000
  0
LINE
  8
1
  6
CONTINUOUS
 62
     0
 10
 5.45635879412293E+0000
 20
 3.53395300731427E+0000
 11
 5.45635879412293E+0000
 21
 3.22007019631201E+0000
  0
LINE
  8
1
  6
CONTINUOUS
 62
     0
 10
 5.45635879412293E+0000
 20
 3.22007019631201E+0000
 11
 5.14445141528995E+0000
 21
 3.22007019631201E+0000
  0
LINE
  8
1
  6
CONTINUOUS
 62
     0
 10
 5.34308510259871E+0000
 20
 2.95506239345195E+0000
 11
 5.34308510259871E+0000
 21
 2.95506239345195E+0000
  0
LINE
  8
1
  6
CONTINUOUS
 62
     0
 10
 5.34308510259871E+0000
 20
 2.95506239345195E+0000
 11
 5.34308510259871E+0000
 21
 2.95506239345195E+0000
  0
LINE
  8
1
  6
CONTINUOUS
 62
     0
 10
 5.45667810841405E+0000
 20
 3.21252334207384E+0000
 11
 5.45667810841405E+0000
 21
 3.21252334207384E+0000
  0
LINE
  8
1
  6
CONTINUOUS
 62
     0
 10
 5.45667810841405E+0000
 20
 3.21252334207384E+0000
 11
 5.42949658705038E+0000
 21
 3.05323401544592E+0000
  0
LINE
  8
1
  6
CONTINUOUS
 62
     0
 10
 5.42949658705038E+0000
 20
 3.05323401544592E+0000
 11
 5.48990022452199E+0000
 21
 3.05323401544592E+0000
  0
LINE
  8
1
  6
CONTINUOUS
 62
     0
 10
 5.48990022452199E+0000
 20
 3.05323401544592E+0000
 11
 5.45667810841405E+0000
 21
 3.21252334207384E+0000
  0
LINE
  8
1
  6
CONTINUOUS
 62
     0
 10
 5.42949658705038E+0000
 20
 3.05323401544592E+0000
 11
 5.48990022452199E+0000
 21
 3.05323401544592E+0000
  0
LINE
  8
1
  6
CONTINUOUS
 62
     0
 10
 5.43982368914294E+0000
 20
 3.05323401544592E+0000
 11
 5.43100195021543E+0000
 21
 3.06205575437343E+0000
  0
LINE
  8
1
  6
CONTINUOUS
 62
     0
 10
 5.46047789332806E+0000
 20
 3.05323401544592E+0000
 11
 5.43401267655281E+0000
 21
 3.07969923222481E+0000
  0
LINE
  8
1
  6
CONTINUOUS
 62
     0
 10
 5.48113209751318E+0000
 20
 3.05323401544592E+0000
 11
 5.43702340288291E+0000
 21
 3.09734271007619E+0000
  0
LINE
  8
1
  6
CONTINUOUS
 62
     0
 10
 5.48676792204787E+0000
 20
 3.06825239509635E+0000
 11
 5.44003412921302E+0000
 21
 3.11498618792757E+0000
  0
LINE
  8
1
  6
CONTINUOUS
 62
     0
 10
 5.48132498119958E+0000
 20
 3.09434954012977E+0000
 11
 5.44304485555040E+0000
 21
 3.13262966578259E+0000
  0
LINE
  8
1
  6
CONTINUOUS
 62
     0
 10
 5.47588204035128E+0000
 20
 3.12044668516319E+0000
 11
 5.44605558188050E+0000
 21
 3.15027314363397E+0000
  0
LINE
  8
1
  6
CONTINUOUS
 62
     0
 10
 5.47043909951026E+0000
 20
 3.14654383019297E+0000
 11
 5.44906630821060E+0000
 21
 3.16791662148535E+0000
  0
LINE
  8
1
  6
CONTINUOUS
 62
     0
 10
 5.46499615866196E+0000
 20
 3.17264097522639E+0000
 11
 5.45207703454798E+0000
 21
 3.18556009934036E+0000
  0
LINE
  8
1
  6
CONTINUOUS
 62
     0
 10
 5.45955321781366E+0000
 20
 3.19873812025980E+0000
 11
 5.45508776087809E+0000
 21
 3.20320357719174E+0000
  0
LINE
  8
1
  6
CONTINUOUS
 62
     0
 10
 5.48811805417063E+0000
 20
 3.06177894718712E+0000
 11
 5.47957312242215E+0000
 21
 3.05323401544229E+0000
  0
LINE
  8
1
  6
CONTINUOUS
 62
     0
 10
 5.48455371347518E+0000
 20
 3.07886881067679E+0000
 11
 5.45891891823703E+0000
 21
 3.05323401544229E+0000
  0
LINE
  8
1
  6
CONTINUOUS
 62
     0
 10
 5.48098937277973E+0000
 20
 3.09595867417011E+0000
 11
 5.43826471405191E+0000
 21
 3.05323401544229E+0000
  0
LINE
  8
1
  6
CONTINUOUS
 62
     0
 10
 5.47742503208428E+0000
 20
 3.11304853766342E+0000
 11
 5.43194217805285E+0000
 21
 3.06756568362835E+0000
  0
LINE
  8
1
  6
CONTINUOUS
 62
     0
 10
 5.47386069138884E+0000
 20
 3.13013840114945E+0000
 11
 5.43619183378905E+0000
 21
 3.09246954354967E+0000
  0
LINE
  8
1
  6
CONTINUOUS
 62
     0
 10
 5.47029635069339E+0000
 20
 3.14722826463912E+0000
 11
 5.44044148952526E+0000
 21
 3.11737340347099E+0000
  0
LINE
  8
1
  6
CONTINUOUS
 62
     0
 10
 5.46673200999794E+0000
 20
 3.16431812813244E+0000
 11
 5.44469114526146E+0000
 21
 3.14227726339232E+0000
  0
LINE
  8
1
  6
CONTINUOUS
 62
     0
 10
 5.46316766930977E+0000
 20
 3.18140799162211E+0000
 11
 5.44894080099766E+0000
 21
 3.16718112331364E+0000
  0
LINE
  8
1
  6
CONTINUOUS
 62
     0
 10
 5.45960332861432E+0000
 20
 3.19849785511542E+0000
 11
 5.45319045673386E+0000
 21
 3.19208498323496E+0000
  0
LINE
  8
1
  6
CONTINUOUS
 62
     0
 10
 5.45397683211195E+0000
 20
 3.53138026912711E+0000
 11
 5.45397683211195E+0000
 21
 3.53138026912711E+0000
  0
LINE
  8
1
  6
CONTINUOUS
 62
     0
 10
 5.45397683211195E+0000
 20
 3.53138026912711E+0000
 11
 5.48115835347562E+0000
 21
 3.69066959575503E+0000
  0
LINE
  8
1
  6
CONTINUOUS
 62
     0
 10
 5.48115835347562E+0000
 20
 3.69066959575503E+0000
 11
 5.42075471600401E+0000
 21
 3.69066959575503E+0000
  0
LINE
  8
1
  6
CONTINUOUS
 62
     0
 10
 5.42075471600401E+0000
 20
 3.69066959575503E+0000
 11
 5.45397683211195E+0000
 21
 3.53138026912711E+0000
  0
LINE
  8
1
  6
CONTINUOUS
 62
     0
 10
 5.48115835347562E+0000
 20
 3.69066959575503E+0000
 11
 5.42075471600401E+0000
 21
 3.69066959575503E+0000
  0
LINE
  8
1
  6
CONTINUOUS
 62
     0
 10
 5.45548219528428E+0000
 20
 3.54020200805462E+0000
 11
 5.45125536169508E+0000
 21
 3.54442884164382E+0000
  0
LINE
  8
1
  6
CONTINUOUS
 62
     0
 10
 5.45849292161438E+0000
 20
 3.55784548590964E+0000
 11
 5.44581242084678E+0000
 21
 3.57052598667724E+0000
  0
LINE
  8
1
  6
CONTINUOUS
 62
     0
 10
 5.46150364794448E+0000
 20
 3.57548896376102E+0000
 11
 5.44036947999848E+0000
 21
 3.59662313171066E+0000
  0
LINE
  8
1
  6
CONTINUOUS
 62
     0
 10
 5.46451437427459E+0000
 20
 3.59313244161604E+0000
 11
 5.43492653915018E+0000
 21
 3.62272027674408E+0000
  0
LINE
  8
1
  6
CONTINUOUS
 62
     0
 10
 5.46752510061197E+0000
 20
 3.61077591946741E+0000
 11
 5.42948359830189E+0000
 21
 3.64881742177386E+0000
  0
LINE
  8
1
  6
CONTINUOUS
 62
     0
 10
 5.47053582694207E+0000
 20
 3.62841939732243E+0000
 11
 5.42404065745359E+0000
 21
 3.67491456680727E+0000
  0
LINE
  8
1
  6
CONTINUOUS
 62
     0
 10
 5.47354655327217E+0000
 20
 3.64606287517381E+0000
 11
 5.42893983269460E+0000
 21
 3.69066959575866E+0000
  0
LINE
  8
1
  6
CONTINUOUS
 62
     0
 10
 5.47655727960955E+0000
 20
 3.66370635302519E+0000
 11
 5.44959403687972E+0000
 21
 3.69066959575503E+0000
  0
LINE
  8
1
  6
CONTINUOUS
 62
     0
 10
 5.47956800593965E+0000
 20
 3.68134983088021E+0000
 11
 5.47024824106484E+0000
 21
 3.69066959575503E+0000
  0
LINE
  8
1
  6
CONTINUOUS
 62
     0
 10
 5.45610165996914E+0000
 20
 3.54383219908414E+0000
 11
 5.45219466176059E+0000
 21
 3.53992520086831E+0000
  0
LINE
  8
1
  6
CONTINUOUS
 62
     0
 10
 5.46035131570534E+0000
 20
 3.56873605900182E+0000
 11
 5.44863032106514E+0000
 21
 3.55701506435798E+0000
  0
LINE
  8
1
  6
CONTINUOUS
 62
     0
 10
 5.46460097144154E+0000
 20
 3.59363991892315E+0000
 11
 5.44506598036241E+0000
 21
 3.57410492784766E+0000
  0
LINE
  8
1
  6
CONTINUOUS
 62
     0
 10
 5.46885062717774E+0000
 20
 3.61854377884447E+0000
 11
 5.44150163967424E+0000
 21
 3.59119479133733E+0000
  0
LINE
  8
1
  6
CONTINUOUS
 62
     0
 10
 5.47310028291395E+0000
 20
 3.64344763876579E+0000
 11
 5.43793729897880E+0000
 21
 3.60828465483064E+0000
  0
LINE
  8
1
  6
CONTINUOUS
 62
     0
 10
 5.47734993865015E+0000
 20
 3.66835149868712E+0000
 11
 5.43437295828335E+0000
 21
 3.62537451832031E+0000
  0
LINE
  8
1
  6
CONTINUOUS
 62
     0
 10
 5.47901383152930E+0000
 20
 3.69066959575139E+0000
 11
 5.43080861758790E+0000
 21
 3.64246438180635E+0000
  0
LINE
  8
1
  6
CONTINUOUS
 62
     0
 10
 5.45835962734418E+0000
 20
 3.69066959575139E+0000
 11
 5.42724427689245E+0000
 21
 3.65955424529966E+0000
  0
LINE
  8
1
  6
CONTINUOUS
 62
     0
 10
 5.43770542315906E+0000
 20
 3.69066959575139E+0000
 11
 5.42367993619700E+0000
 21
 3.67664410878933E+0000
  0
LINE
  8
1
  6
CONTINUOUS
 62
     0
 10
 3.34670015080701E+0000
 20
 1.77682464747704E+0000
 11
 3.34670015080701E+0000
 21
 1.77682464747704E+0000
  0
LINE
  8
1
  6
CONTINUOUS
 62
     0
 10
 3.34670015080701E+0000
 20
 1.77682464747704E+0000
 11
 3.37388167217068E+0000
 21
 1.93611397410496E+0000
  0
LINE
  8
1
  6
CONTINUOUS
 62
     0
 10
 3.37388167217068E+0000
 20
 1.93611397410496E+0000
 11
 3.31347803469907E+0000
 21
 1.93611397410496E+0000
  0
LINE
  8
1
  6
CONTINUOUS
 62
     0
 10
 3.31347803469907E+0000
 20
 1.93611397410496E+0000
 11
 3.34670015080701E+0000
 21
 1.77682464747704E+0000
  0
LINE
  8
1
  6
CONTINUOUS
 62
     0
 10
 3.37388167217068E+0000
 20
 1.93611397410496E+0000
 11
 3.31347803469907E+0000
 21
 1.93611397410496E+0000
  0
LINE
  8
1
  6
CONTINUOUS
 62
     0
 10
 3.34820551397570E+0000
 20
 1.78564638640455E+0000
 11
 3.34397868038650E+0000
 21
 1.78987321999375E+0000
  0
LINE
  8
1
  6
CONTINUOUS
 62
     0
 10
 3.35121624030580E+0000
 20
 1.80328986425593E+0000
 11
 3.33853573953820E+0000
 21
 1.81597036502535E+0000
  0
LINE
  8
1
  6
CONTINUOUS
 62
     0
 10
 3.35422696663954E+0000
 20
 1.82093334210913E+0000
 11
 3.33309279868990E+0000
 21
 1.84206751005877E+0000
  0
LINE
  8
1
  6
CONTINUOUS
 62
     0
 10
 3.35723769297329E+0000
 20
 1.83857681996233E+0000
 11
 3.32764985784524E+0000
 21
 1.86816465509037E+0000
  0
LINE
  8
1
  6
CONTINUOUS
 62
     0
 10
 3.36024841930703E+0000
 20
 1.85622029781371E+0000
 11
 3.32220691699695E+0000
 21
 1.89426180012197E+0000
  0
LINE
  8
1
  6
CONTINUOUS
 62
     0
 10
 3.36325914563713E+0000
 20
 1.87386377566872E+0000
 11
 3.31676397615229E+0000
 21
 1.92035894515357E+0000
  0
LINE
  8
1
  6
CONTINUOUS
 62
     0
 10
 3.36626987197087E+0000
 20
 1.89150725352010E+0000
 11
 3.32166315138602E+0000
 21
 1.93611397410496E+0000
  0
LINE
  8
1
  6
CONTINUOUS
 62
     0
 10
 3.36928059830097E+0000
 20
 1.90915073137330E+0000
 11
 3.34231735557114E+0000
 21
 1.93611397410496E+0000
  0
LINE
  8
1
  6
CONTINUOUS
 62
     0
 10
 3.37229132463472E+0000
 20
 1.92679420922650E+0000
 11
 3.36297155975626E+0000
 21
 1.93611397410496E+0000
  0
LINE
  8
1
  6
CONTINUOUS
 62
     0
 10
 3.34882497867147E+0000
 20
 1.78927657743770E+0000
 11
 3.34491798045929E+0000
 21
 1.78536957922188E+0000
  0
LINE
  8
1
  6
CONTINUOUS
 62
     0
 10
 3.35307463440768E+0000
 20
 1.81418043735721E+0000
 11
 3.34135363976020E+0000
 21
 1.80245944271155E+0000
  0
LINE
  8
1
  6
CONTINUOUS
 62
     0
 10
 3.35732429014024E+0000
 20
 1.83908429727671E+0000
 11
 3.33778929906839E+0000
 21
 1.81954930620304E+0000
  0
LINE
  8
1
  6
CONTINUOUS
 62
     0
 10
 3.36157394587644E+0000
 20
 1.86398815719804E+0000
 11
 3.33422495837294E+0000
 21
 1.83663916969272E+0000
  0
LINE
  8
1
  6
CONTINUOUS
 62
     0
 10
 3.36582360161265E+0000
 20
 1.88889201711754E+0000
 11
 3.33066061767749E+0000
 21
 1.85372903318421E+0000
  0
LINE
  8
1
  6
CONTINUOUS
 62
     0
 10
 3.37007325734885E+0000
 20
 1.91379587703887E+0000
 11
 3.32709627698205E+0000
 21
 1.87081889667388E+0000
  0
LINE
  8
1
  6
CONTINUOUS
 62
     0
 10
 3.37173715022800E+0000
 20
 1.93611397410496E+0000
 11
 3.32353193628660E+0000
 21
 1.88790876016537E+0000
  0
LINE
  8
1
  6
CONTINUOUS
 62
     0
 10
 3.35108294604288E+0000
 20
 1.93611397410496E+0000
 11
 3.31996759559115E+0000
 21
 1.90499862365323E+0000
  0
LINE
  8
1
  6
CONTINUOUS
 62
     0
 10
 3.33042874185776E+0000
 20
 1.93611397410496E+0000
 11
 3.31640325489934E+0000
 21
 1.92208848714654E+0000
  0
LINE
  8
1
  6
CONTINUOUS
 62
     0
 10
 3.23580842129377E+0000
 20
 3.27407250647957E+0000
 11
 3.23580842129377E+0000
 21
 3.27407250647957E+0000
  0
LINE
  8
1
  6
CONTINUOUS
 62
     0
 10
 3.23580842129377E+0000
 20
 3.27407250647957E+0000
 11
 3.23580842129377E+0000
 21
 3.27407250647957E+0000
  0
LINE
  8
1
  6
CONTINUOUS
 62
     0
 10
 3.34940142710911E+0000
 20
 3.53153345510145E+0000
 11
 3.34940142710911E+0000
 21
 3.53153345510145E+0000
  0
LINE
  8
1
  6
CONTINUOUS
 62
     0
 10
 3.34940142710911E+0000
 20
 3.53153345510145E+0000
 11
 3.32221990574544E+0000
 21
 3.37224412847354E+0000
  0
LINE
  8
1
  6
CONTINUOUS
 62
     0
 10
 3.32221990574544E+0000
 20
 3.37224412847354E+0000
 11
 3.38262354321705E+0000
 21
 3.37224412847354E+0000
  0
LINE
  8
1
  6
CONTINUOUS
 62
     0
 10
 3.38262354321705E+0000
 20
 3.37224412847354E+0000
 11
 3.34940142710911E+0000
 21
 3.53153345510145E+0000
  0
LINE
  8
1
  6
CONTINUOUS
 62
     0
 10
 3.32221990574544E+0000
 20
 3.37224412847354E+0000
 11
 3.38262354321705E+0000
 21
 3.37224412847354E+0000
  0
LINE
  8
1
  6
CONTINUOUS
 62
     0
 10
 3.33254700784164E+0000
 20
 3.37224412847354E+0000
 11
 3.32372526891413E+0000
 21
 3.38106586740105E+0000
  0
LINE
  8
1
  6
CONTINUOUS
 62
     0
 10
 3.35320121202676E+0000
 20
 3.37224412847354E+0000
 11
 3.32673599524423E+0000
 21
 3.39870934525243E+0000
  0
LINE
  8
1
  6
CONTINUOUS
 62
     0
 10
 3.37385541621188E+0000
 20
 3.37224412847354E+0000
 11
 3.32974672157798E+0000
 21
 3.41635282310745E+0000
  0
LINE
  8
1
  6
CONTINUOUS
 62
     0
 10
 3.37949124073566E+0000
 20
 3.38726250813488E+0000
 11
 3.33275744791172E+0000
 21
 3.43399630095882E+0000
  0
LINE
  8
1
  6
CONTINUOUS
 62
     0
 10
 3.37404829989100E+0000
 20
 3.41335965316466E+0000
 11
 3.33576817424546E+0000
 21
 3.45163977881020E+0000
  0
LINE
  8
1
  6
CONTINUOUS
 62
     0
 10
 3.36860535904634E+0000
 20
 3.43945679819444E+0000
 11
 3.33877890057556E+0000
 21
 3.46928325666522E+0000
  0
LINE
  8
1
  6
CONTINUOUS
 62
     0
 10
 3.36316241819804E+0000
 20
 3.46555394322786E+0000
 11
 3.34178962690930E+0000
 21
 3.48692673451660E+0000
  0
LINE
  8
1
  6
CONTINUOUS
 62
     0
 10
 3.35771947735338E+0000
 20
 3.49165108825764E+0000
 11
 3.34480035324304E+0000
 21
 3.50457021236798E+0000
  0
LINE
  8
1
  6
CONTINUOUS
 62
     0
 10
 3.35227653650873E+0000
 20
 3.51774823328742E+0000
 11
 3.34781107957679E+0000
 21
 3.52221369022300E+0000
  0
LINE
  8
1
  6
CONTINUOUS
 62
     0
 10
 3.38084137286569E+0000
 20
 3.38078906021474E+0000
 11
 3.37229644112085E+0000
 21
 3.37224412846990E+0000
  0
LINE
  8
1
  6
CONTINUOUS
 62
     0
 10
 3.37727703217388E+0000
 20
 3.39787892370805E+0000
 11
 3.35164223693573E+0000
 21
 3.37224412846990E+0000
  0
LINE
  8
1
  6
CONTINUOUS
 62
     0
 10
 3.37371269147479E+0000
 20
 3.41496878719408E+0000
 11
 3.33098803275061E+0000
 21
 3.37224412846990E+0000
  0
LINE
  8
1
  6
CONTINUOUS
 62
     0
 10
 3.37014835077935E+0000
 20
 3.43205865068740E+0000
 11
 3.32466549675519E+0000
 21
 3.38657579665960E+0000
  0
LINE
  8
1
  6
CONTINUOUS
 62
     0
 10
 3.36658401008754E+0000
 20
 3.44914851417707E+0000
 11
 3.32891515248775E+0000
 21
 3.41147965658092E+0000
  0
LINE
  8
1
  6
CONTINUOUS
 62
     0
 10
 3.36301966939209E+0000
 20
 3.46623837767038E+0000
 11
 3.33316480822396E+0000
 21
 3.43638351650225E+0000
  0
LINE
  8
1
  6
CONTINUOUS
 62
     0
 10
 3.35945532869664E+0000
 20
 3.48332824115641E+0000
 11
 3.33741446395652E+0000
 21
 3.46128737641629E+0000
  0
LINE
  8
1
  6
CONTINUOUS
 62
     0
 10
 3.35589098800119E+0000
 20
 3.50041810464609E+0000
 11
 3.34166411968909E+0000
 21
 3.48619123633762E+0000
  0
LINE
  8
1
  6
CONTINUOUS
 62
     0
 10
 3.35232664730938E+0000
 20
 3.51750796813940E+0000
 11
 3.34591377542529E+0000
 21
 3.51109509625894E+0000
  0
LINE
  8
1
  6
CONTINUOUS
 62
     0
 10
 3.62057004440794E+0000
 20
 1.89075683070041E+0000
 11
 3.62057004440794E+0000
 21
 1.89075683070041E+0000
  0
LINE
  8
1
  6
CONTINUOUS
 62
     0
 10
 3.62057004440794E+0000
 20
 1.89075683070041E+0000
 11
 3.64775156577161E+0000
 21
 2.05004615732832E+0000
  0
LINE
  8
1
  6
CONTINUOUS
 62
     0
 10
 3.64775156577161E+0000
 20
 2.05004615732832E+0000
 11
 3.58734792830001E+0000
 21
 2.05004615732832E+0000
  0
LINE
  8
1
  6
CONTINUOUS
 62
     0
 10
 3.58734792830001E+0000
 20
 2.05004615732832E+0000
 11
 3.62057004440794E+0000
 21
 1.89075683070041E+0000
  0
LINE
  8
1
  6
CONTINUOUS
 62
     0
 10
 3.64775156577161E+0000
 20
 2.05004615732832E+0000
 11
 3.58734792830001E+0000
 21
 2.05004615732832E+0000
  0
LINE
  8
1
  6
CONTINUOUS
 62
     0
 10
 3.62207540757663E+0000
 20
 1.89957856962610E+0000
 11
 3.61784857398743E+0000
 21
 1.90380540321530E+0000
  0
LINE
  8
1
  6
CONTINUOUS
 62
     0
 10
 3.62508613390673E+0000
 20
 1.91722204747930E+0000
 11
 3.61240563313913E+0000
 21
 1.92990254824690E+0000
  0
LINE
  8
1
  6
CONTINUOUS
 62
     0
 10
 3.62809686024048E+0000
 20
 1.93486552533250E+0000
 11
 3.60696269229447E+0000
 21
 1.95599969327850E+0000
  0
LINE
  8
1
  6
CONTINUOUS
 62
     0
 10
 3.63110758657422E+0000
 20
 1.95250900318388E+0000
 11
 3.60151975144618E+0000
 21
 1.98209683831010E+0000
  0
LINE
  8
1
  6
CONTINUOUS
 62
     0
 10
 3.63411831290432E+0000
 20
 1.97015248103708E+0000
 11
 3.59607681060152E+0000
 21
 2.00819398334352E+0000
  0
LINE
  8
1
  6
CONTINUOUS
 62
     0
 10
 3.63712903923806E+0000
 20
 1.98779595889027E+0000
 11
 3.59063386975322E+0000
 21
 2.03429112837330E+0000
  0
LINE
  8
1
  6
CONTINUOUS
 62
     0
 10
 3.64013976557180E+0000
 20
 2.00543943674347E+0000
 11
 3.59553304498331E+0000
 21
 2.05004615733196E+0000
  0
LINE
  8
1
  6
CONTINUOUS
 62
     0
 10
 3.64315049190554E+0000
 20
 2.02308291459849E+0000
 11
 3.61618724917571E+0000
 21
 2.05004615732832E+0000
  0
LINE
  8
1
  6
CONTINUOUS
 62
     0
 10
 3.64616121823565E+0000
 20
 2.04072639245351E+0000
 11
 3.63684145336083E+0000
 21
 2.05004615732832E+0000
  0
LINE
  8
1
  6
CONTINUOUS
 62
     0
 10
 3.62269487227240E+0000
 20
 1.90320876065925E+0000
 11
 3.61878787406022E+0000
 21
 1.89930176244525E+0000
  0
LINE
  8
1
  6
CONTINUOUS
 62
     0
 10
 3.62694452800861E+0000
 20
 1.92811262058058E+0000
 11
 3.61522353336113E+0000
 21
 1.91639162593310E+0000
  0
LINE
  8
1
  6
CONTINUOUS
 62
     0
 10
 3.63119418374117E+0000
 20
 1.95301648049826E+0000
 11
 3.61165919266932E+0000
 21
 1.93348148942641E+0000
  0
LINE
  8
1
  6
CONTINUOUS
 62
     0
 10
 3.63544383947738E+0000
 20
 1.97792034041959E+0000
 11
 3.60809485197387E+0000
 21
 1.95057135291427E+0000
  0
LINE
  8
1
  6
CONTINUOUS
 62
     0
 10
 3.63969349521358E+0000
 20
 2.00282420033909E+0000
 11
 3.60453051127843E+0000
 21
 1.96766121640576E+0000
  0
LINE
  8
1
  6
CONTINUOUS
 62
     0
 10
 3.64394315094978E+0000
 20
 2.02772806026042E+0000
 11
 3.60096617058298E+0000
 21
 1.98475107989543E+0000
  0
LINE
  8
1
  6
CONTINUOUS
 62
     0
 10
 3.64560704383257E+0000
 20
 2.05004615732832E+0000
 11
 3.59740182988753E+0000
 21
 2.00184094338692E+0000
  0
LINE
  8
1
  6
CONTINUOUS
 62
     0
 10
 3.62495283964381E+0000
 20
 2.05004615732832E+0000
 11
 3.59383748919208E+0000
 21
 2.01893080687660E+0000
  0
LINE
  8
1
  6
CONTINUOUS
 62
     0
 10
 3.60429863545869E+0000
 20
 2.05004615732832E+0000
 11
 3.59027314850027E+0000
 21
 2.03602067036627E+0000
  0
LINE
  8
1
  6
CONTINUOUS
 62
     0
 10
 3.50967831489470E+0000
 20
 1.51951688483314E+0000
 11
 3.50967831489470E+0000
 21
 1.51951688483314E+0000
  0
LINE
  8
1
  6
CONTINUOUS
 62
     0
 10
 3.50967831489470E+0000
 20
 1.51951688483314E+0000
 11
 3.50967831489470E+0000
 21
 1.51951688483314E+0000
  0
LINE
  8
1
  6
CONTINUOUS
 62
     0
 10
 3.62327132071005E+0000
 20
 1.77697783345502E+0000
 11
 3.62327132071005E+0000
 21
 1.77697783345502E+0000
  0
LINE
  8
1
  6
CONTINUOUS
 62
     0
 10
 3.62327132071005E+0000
 20
 1.77697783345502E+0000
 11
 3.59608979934637E+0000
 21
 1.61768850682711E+0000
  0
LINE
  8
1
  6
CONTINUOUS
 62
     0
 10
 3.59608979934637E+0000
 20
 1.61768850682711E+0000
 11
 3.65649343681798E+0000
 21
 1.61768850682711E+0000
  0
LINE
  8
1
  6
CONTINUOUS
 62
     0
 10
 3.65649343681798E+0000
 20
 1.61768850682711E+0000
 11
 3.62327132071005E+0000
 21
 1.77697783345502E+0000
  0
LINE
  8
1
  6
CONTINUOUS
 62
     0
 10
 3.59608979934637E+0000
 20
 1.61768850682711E+0000
 11
 3.65649343681798E+0000
 21
 1.61768850682711E+0000
  0
LINE
  8
1
  6
CONTINUOUS
 62
     0
 10
 3.60641690143893E+0000
 20
 1.61768850682529E+0000
 11
 3.59759516251142E+0000
 21
 1.62651024575280E+0000
  0
LINE
  8
1
  6
CONTINUOUS
 62
     0
 10
 3.62707110562405E+0000
 20
 1.61768850682711E+0000
 11
 3.60060588884517E+0000
 21
 1.64415372360418E+0000
  0
LINE
  8
1
  6
CONTINUOUS
 62
     0
 10
 3.64772530980918E+0000
 20
 1.61768850682711E+0000
 11
 3.60361661517891E+0000
 21
 1.66179720145738E+0000
  0
LINE
  8
1
  6
CONTINUOUS
 62
     0
 10
 3.65336113434023E+0000
 20
 1.63270688648299E+0000
 11
 3.60662734151265E+0000
 21
 1.67944067930875E+0000
  0
LINE
  8
1
  6
CONTINUOUS
 62
     0
 10
 3.64791819349193E+0000
 20
 1.65880403151459E+0000
 11
 3.60963806784275E+0000
 21
 1.69708415716377E+0000
  0
LINE
  8
1
  6
CONTINUOUS
 62
     0
 10
 3.64247525264727E+0000
 20
 1.68490117654619E+0000
 11
 3.61264879417649E+0000
 21
 1.71472763501515E+0000
  0
LINE
  8
1
  6
CONTINUOUS
 62
     0
 10
 3.63703231180261E+0000
 20
 1.71099832157597E+0000
 11
 3.61565952051023E+0000
 21
 1.73237111286835E+0000
  0
LINE
  8
1
  6
CONTINUOUS
 62
     0
 10
 3.63158937095432E+0000
 20
 1.73709546660757E+0000
 11
 3.61867024684398E+0000
 21
 1.75001459072155E+0000
  0
LINE
  8
1
  6
CONTINUOUS
 62
     0
 10
 3.62614643010966E+0000
 20
 1.76319261163917E+0000
 11
 3.62168097317408E+0000
 21
 1.76765806857293E+0000
  0
LINE
  8
1
  6
CONTINUOUS
 62
     0
 10
 3.65471126647026E+0000
 20
 1.62623343857013E+0000
 11
 3.64616633472178E+0000
 21
 1.61768850682529E+0000
  0
LINE
  8
1
  6
CONTINUOUS
 62
     0
 10
 3.65114692577117E+0000
 20
 1.64332330205980E+0000
 11
 3.62551213053666E+0000
 21
 1.61768850682529E+0000
  0
LINE
  8
1
  6
CONTINUOUS
 62
     0
 10
 3.64758258507936E+0000
 20
 1.66041316555129E+0000
 11
 3.60485792635154E+0000
 21
 1.61768850682529E+0000
  0
LINE
  8
1
  6
CONTINUOUS
 62
     0
 10
 3.64401824438391E+0000
 20
 1.67750302904096E+0000
 11
 3.59853539035248E+0000
 21
 1.63202017501135E+0000
  0
LINE
  8
1
  6
CONTINUOUS
 62
     0
 10
 3.64045390368847E+0000
 20
 1.69459289253246E+0000
 11
 3.60278504608868E+0000
 21
 1.65692403493267E+0000
  0
LINE
  8
1
  6
CONTINUOUS
 62
     0
 10
 3.63688956299302E+0000
 20
 1.71168275602213E+0000
 11
 3.60703470182125E+0000
 21
 1.68182789485036E+0000
  0
LINE
  8
1
  6
CONTINUOUS
 62
     0
 10
 3.63332522229757E+0000
 20
 1.72877261951362E+0000
 11
 3.61128435755745E+0000
 21
 1.70673175477168E+0000
  0
LINE
  8
1
  6
CONTINUOUS
 62
     0
 10
 3.62976088160212E+0000
 20
 1.74586248300329E+0000
 11
 3.61553401329365E+0000
 21
 1.73163561469119E+0000
  0
LINE
  8
1
  6
CONTINUOUS
 62
     0
 10
 3.62619654091031E+0000
 20
 1.76295234649479E+0000
 11
 3.61978366902622E+0000
 21
 1.75653947461251E+0000
  0
LINE
  8
1
  6
CONTINUOUS
 62
     0
 10
 4.38350813860598E+0000
 20
 1.17669743797887E+0000
 11
 4.38350813860598E+0000
 21
 1.17669743797887E+0000
  0
LINE
  8
1
  6
CONTINUOUS
 62
     0
 10
 4.38350813860598E+0000
 20
 1.17669743797887E+0000
 11
 4.54279746525572E+0000
 21
 1.14951591661520E+0000
  0
LINE
  8
1
  6
CONTINUOUS
 62
     0
 10
 4.54279746525572E+0000
 20
 1.14951591661520E+0000
 11
 4.54279746525572E+0000
 21
 1.20991955408681E+0000
  0
LINE
  8
1
  6
CONTINUOUS
 62
     0
 10
 4.54279746525572E+0000
 20
 1.20991955408681E+0000
 11
 4.38350813860598E+0000
 21
 1.17669743797887E+0000
  0
LINE
  8
1
  6
CONTINUOUS
 62
     0
 10
 4.54279746525572E+0000
 20
 1.14951591661520E+0000
 11
 4.54279746525572E+0000
 21
 1.20991955408681E+0000
  0
LINE
  8
1
  6
CONTINUOUS
 62
     0
 10
 4.39596006857028E+0000
 20
 1.17457261011077E+0000
 11
 4.39205307035445E+0000
 21
 1.17847960832478E+0000
  0
LINE
  8
1
  6
CONTINUOUS
 62
     0
 10
 4.42086392849160E+0000
 20
 1.17032295437457E+0000
 11
 4.40914293384412E+0000
 21
 1.18204394902205E+0000
  0
LINE
  8
1
  6
CONTINUOUS
 62
     0
 10
 4.44576778840565E+0000
 20
 1.16607329864200E+0000
 11
 4.42623279733380E+0000
 21
 1.18560828971567E+0000
  0
LINE
  8
1
  6
CONTINUOUS
 62
     0
 10
 4.47067164832697E+0000
 20
 1.16182364290580E+0000
 11
 4.44332266082347E+0000
 21
 1.18917263040930E+0000
  0
LINE
  8
1
  6
CONTINUOUS
 62
     0
 10
 4.49557550824829E+0000
 20
 1.15757398717142E+0000
 11
 4.46041252431314E+0000
 21
 1.19273697110475E+0000
  0
LINE
  8
1
  6
CONTINUOUS
 62
     0
 10
 4.52047936816962E+0000
 20
 1.15332433143521E+0000
 11
 4.47750238781009E+0000
 21
 1.19630131179838E+0000
  0
LINE
  8
1
  6
CONTINUOUS
 62
     0
 10
 4.54279746525572E+0000
 20
 1.15166043853787E+0000
 11
 4.49459225129976E+0000
 21
 1.19986565249201E+0000
  0
LINE
  8
1
  6
CONTINUOUS
 62
     0
 10
 4.54279746525572E+0000
 20
 1.17231464272299E+0000
 11
 4.51168211478944E+0000
 21
 1.20342999318927E+0000
  0
LINE
  8
1
  6
CONTINUOUS
 62
     0
 10
 4.54279746525572E+0000
 20
 1.19296884690630E+0000
 11
 4.52877197827911E+0000
 21
 1.20699433388290E+0000
  0
LINE
  8
1
  6
CONTINUOUS
 62
     0
 10
 4.54279746524844E+0000
 20
 1.15984301870412E+0000
 11
 4.53397572632093E+0000
 21
 1.15102127977843E+0000
  0
LINE
  8
1
  6
CONTINUOUS
 62
     0
 10
 4.54279746524844E+0000
 20
 1.18049722289106E+0000
 11
 4.51633224846591E+0000
 21
 1.15403200611036E+0000
  0
LINE
  8
1
  6
CONTINUOUS
 62
     0
 10
 4.54279746524844E+0000
 20
 1.20115142707618E+0000
 11
 4.49868877061817E+0000
 21
 1.15704273244410E+0000
  0
LINE
  8
1
  6
CONTINUOUS
 62
     0
 10
 4.52777908559801E+0000
 20
 1.20678725160724E+0000
 11
 4.48104529276316E+0000
 21
 1.16005345877602E+0000
  0
LINE
  8
1
  6
CONTINUOUS
 62
     0
 10
 4.50168194056459E+0000
 20
 1.20134431076440E+0000
 11
 4.46340181490814E+0000
 21
 1.16306418510794E+0000
  0
LINE
  8
1
  6
CONTINUOUS
 62
     0
 10
 4.47558479553118E+0000
 20
 1.19590136991610E+0000
 11
 4.44575833706040E+0000
 21
 1.16607491143986E+0000
  0
LINE
  8
1
  6
CONTINUOUS
 62
     0
 10
 4.44948765050503E+0000
 20
 1.19045842906962E+0000
 11
 4.42811485920538E+0000
 21
 1.16908563777361E+0000
  0
LINE
  8
1
  6
CONTINUOUS
 62
     0
 10
 4.42339050547162E+0000
 20
 1.18501548822496E+0000
 11
 4.41047138135036E+0000
 21
 1.17209636410553E+0000
  0
LINE
  8
1
  6
CONTINUOUS
 62
     0
 10
 4.39729336043820E+0000
 20
 1.17957254737848E+0000
 11
 4.39282790350262E+0000
 21
 1.17510709043745E+0000
  0
LINE
  8
1
  6
CONTINUOUS
 62
     0
 10
 4.38350813860598E+0000
 20
 1.17669743797887E+0000
 11
 4.38350813860598E+0000
 21
 1.17669743797887E+0000
  0
LINE
  8
1
  6
CONTINUOUS
 62
     0
 10
 4.38350813860598E+0000
 20
 1.17669743797887E+0000
 11
 4.54279746525572E+0000
 21
 1.14951591661520E+0000
  0
LINE
  8
1
  6
CONTINUOUS
 62
     0
 10
 4.54279746525572E+0000
 20
 1.14951591661520E+0000
 11
 4.54279746525572E+0000
 21
 1.20991955408681E+0000
  0
LINE
  8
1
  6
CONTINUOUS
 62
     0
 10
 4.54279746525572E+0000
 20
 1.20991955408681E+0000
 11
 4.38350813860598E+0000
 21
 1.17669743797887E+0000
  0
LINE
  8
1
  6
CONTINUOUS
 62
     0
 10
 4.54279746525572E+0000
 20
 1.14951591661520E+0000
 11
 4.54279746525572E+0000
 21
 1.20991955408681E+0000
  0
LINE
  8
1
  6
CONTINUOUS
 62
     0
 10
 4.39596006857028E+0000
 20
 1.17457261011077E+0000
 11
 4.39205307035445E+0000
 21
 1.17847960832478E+0000
  0
LINE
  8
1
  6
CONTINUOUS
 62
     0
 10
 4.42086392849160E+0000
 20
 1.17032295437457E+0000
 11
 4.40914293384412E+0000
 21
 1.18204394902205E+0000
  0
LINE
  8
1
  6
CONTINUOUS
 62
     0
 10
 4.44576778840565E+0000
 20
 1.16607329864200E+0000
 11
 4.42623279733380E+0000
 21
 1.18560828971567E+0000
  0
LINE
  8
1
  6
CONTINUOUS
 62
     0
 10
 4.47067164832697E+0000
 20
 1.16182364290580E+0000
 11
 4.44332266082347E+0000
 21
 1.18917263040930E+0000
  0
LINE
  8
1
  6
CONTINUOUS
 62
     0
 10
 4.49557550824829E+0000
 20
 1.15757398717142E+0000
 11
 4.46041252431314E+0000
 21
 1.19273697110475E+0000
  0
LINE
  8
1
  6
CONTINUOUS
 62
     0
 10
 4.52047936816962E+0000
 20
 1.15332433143521E+0000
 11
 4.47750238781009E+0000
 21
 1.19630131179838E+0000
  0
LINE
  8
1
  6
CONTINUOUS
 62
     0
 10
 4.54279746525572E+0000
 20
 1.15166043853787E+0000
 11
 4.49459225129976E+0000
 21
 1.19986565249201E+0000
  0
LINE
  8
1
  6
CONTINUOUS
 62
     0
 10
 4.54279746525572E+0000
 20
 1.17231464272299E+0000
 11
 4.51168211478944E+0000
 21
 1.20342999318927E+0000
  0
LINE
  8
1
  6
CONTINUOUS
 62
     0
 10
 4.54279746525572E+0000
 20
 1.19296884690630E+0000
 11
 4.52877197827911E+0000
 21
 1.20699433388290E+0000
  0
LINE
  8
1
  6
CONTINUOUS
 62
     0
 10
 4.54279746524844E+0000
 20
 1.15984301870412E+0000
 11
 4.53397572632093E+0000
 21
 1.15102127977843E+0000
  0
LINE
  8
1
  6
CONTINUOUS
 62
     0
 10
 4.54279746524844E+0000
 20
 1.18049722289106E+0000
 11
 4.51633224846591E+0000
 21
 1.15403200611036E+0000
  0
LINE
  8
1
  6
CONTINUOUS
 62
     0
 10
 4.54279746524844E+0000
 20
 1.20115142707618E+0000
 11
 4.49868877061817E+0000
 21
 1.15704273244410E+0000
  0
LINE
  8
1
  6
CONTINUOUS
 62
     0
 10
 4.52777908559801E+0000
 20
 1.20678725160724E+0000
 11
 4.48104529276316E+0000
 21
 1.16005345877602E+0000
  0
LINE
  8
1
  6
CONTINUOUS
 62
     0
 10
 4.50168194056459E+0000
 20
 1.20134431076440E+0000
 11
 4.46340181490814E+0000
 21
 1.16306418510794E+0000
  0
LINE
  8
1
  6
CONTINUOUS
 62
     0
 10
 4.47558479553118E+0000
 20
 1.19590136991610E+0000
 11
 4.44575833706040E+0000
 21
 1.16607491143986E+0000
  0
LINE
  8
1
  6
CONTINUOUS
 62
     0
 10
 4.44948765050503E+0000
 20
 1.19045842906962E+0000
 11
 4.42811485920538E+0000
 21
 1.16908563777361E+0000
  0
LINE
  8
1
  6
CONTINUOUS
 62
     0
 10
 4.42339050547162E+0000
 20
 1.18501548822496E+0000
 11
 4.41047138135036E+0000
 21
 1.17209636410553E+0000
  0
LINE
  8
1
  6
CONTINUOUS
 62
     0
 10
 4.39729336043820E+0000
 20
 1.17957254737848E+0000
 11
 4.39282790350262E+0000
 21
 1.17510709043745E+0000
  0
LINE
  8
1
  6
CONTINUOUS
 62
     0
 10
 4.16392306070338E+0000
 20
 1.17772033516667E+0000
 11
 4.16392306070338E+0000
 21
 1.17772033516667E+0000
  0
LINE
  8
1
  6
CONTINUOUS
 62
     0
 10
 4.16392306070338E+0000
 20
 1.17772033516667E+0000
 11
 4.00463373406819E+0000
 21
 1.20490185653034E+0000
  0
LINE
  8
1
  6
CONTINUOUS
 62
     0
 10
 4.00463373406819E+0000
 20
 1.20490185653034E+0000
 11
 4.00463373406819E+0000
 21
 1.14449821905873E+0000
  0
LINE
  8
1
  6
CONTINUOUS
 62
     0
 10
 4.00463373406819E+0000
 20
 1.14449821905873E+0000
 11
 4.16392306070338E+0000
 21
 1.17772033516667E+0000
  0
LINE
  8
1
  6
CONTINUOUS
 62
     0
 10
 4.00463373406819E+0000
 20
 1.20490185653034E+0000
 11
 4.00463373406819E+0000
 21
 1.14449821905873E+0000
  0
LINE
  8
1
  6
CONTINUOUS
 62
     0
 10
 4.01317866581667E+0000
 20
 1.14628038940646E+0000
 11
 4.00463373406819E+0000
 21
 1.15482532115311E+0000
  0
LINE
  8
1
  6
CONTINUOUS
 62
     0
 10
 4.03026852930634E+0000
 20
 1.14984473010372E+0000
 11
 4.00463373406819E+0000
 21
 1.17547952533823E+0000
  0
LINE
  8
1
  6
CONTINUOUS
 62
     0
 10
 4.04735839279601E+0000
 20
 1.15340907079735E+0000
 11
 4.00463373406819E+0000
 21
 1.19613372952335E+0000
  0
LINE
  8
1
  6
CONTINUOUS
 62
     0
 10
 4.06444825628569E+0000
 20
 1.15697341149098E+0000
 11
 4.01896540225425E+0000
 21
 1.20245626552241E+0000
  0
LINE
  8
1
  6
CONTINUOUS
 62
     0
 10
 4.08153811977536E+0000
 20
 1.16053775218643E+0000
 11
 4.04386926217558E+0000
 21
 1.19820660978803E+0000
  0
LINE
  8
1
  6
CONTINUOUS
 62
     0
 10
 4.09862798326503E+0000
 20
 1.16410209288006E+0000
 11
 4.06877312209690E+0000
 21
 1.19395695405183E+0000
  0
LINE
  8
1
  6
CONTINUOUS
 62
     0
 10
 4.11571784676198E+0000
 20
 1.16766643357369E+0000
 11
 4.09367698201822E+0000
 21
 1.18970729831744E+0000
  0
LINE
  8
1
  6
CONTINUOUS
 62
     0
 10
 4.13280771025165E+0000
 20
 1.17123077427095E+0000
 11
 4.11858084193955E+0000
 21
 1.18545764258124E+0000
  0
LINE
  8
1
  6
CONTINUOUS
 62
     0
 10
 4.14989757374133E+0000
 20
 1.17479511496458E+0000
 11
 4.14348470185359E+0000
 21
 1.18120798684868E+0000
  0
LINE
  8
1
  6
CONTINUOUS
 62
     0
 10
 4.15510132177587E+0000
 20
 1.17922569833172E+0000
 11
 4.15087448817940E+0000
 21
 1.17499886474252E+0000
  0
LINE
  8
1
  6
CONTINUOUS
 62
     0
 10
 4.13745784392086E+0000
 20
 1.18223642466364E+0000
 11
 4.12477734315326E+0000
 21
 1.16955592389604E+0000
  0
LINE
  8
1
  6
CONTINUOUS
 62
     0
 10
 4.11981436606584E+0000
 20
 1.18524715099556E+0000
 11
 4.09868019811984E+0000
 21
 1.16411298304956E+0000
  0
LINE
  8
1
  6
CONTINUOUS
 62
     0
 10
 4.10217088821810E+0000
 20
 1.18825787733113E+0000
 11
 4.07258305308642E+0000
 21
 1.15867004220490E+0000
  0
LINE
  8
1
  6
CONTINUOUS
 62
     0
 10
 4.08452741036308E+0000
 20
 1.19126860366305E+0000
 11
 4.04648590806028E+0000
 21
 1.15322710135842E+0000
  0
LINE
  8
1
  6
CONTINUOUS
 62
     0
 10
 4.06688393250806E+0000
 20
 1.19427932999315E+0000
 11
 4.02038876302686E+0000
 21
 1.14778416051195E+0000
  0
LINE
  8
1
  6
CONTINUOUS
 62
     0
 10
 4.04924045465305E+0000
 20
 1.19729005632507E+0000
 11
 4.00463373406092E+0000
 21
 1.15268333573658E+0000
  0
LINE
  8
1
  6
CONTINUOUS
 62
     0
 10
 4.03159697679803E+0000
 20
 1.20030078265700E+0000
 11
 4.00463373406092E+0000
 21
 1.17333753992170E+0000
  0
LINE
  8
1
  6
CONTINUOUS
 62
     0
 10
 4.01395349895029E+0000
 20
 1.20331150898892E+0000
 11
 4.00463373406092E+0000
 21
 1.19399174410682E+0000
  0
LINE
  8
1
  6
CONTINUOUS
 62
     0
 10
 4.16392306070338E+0000
 20
 1.17772033516667E+0000
 11
 4.16392306070338E+0000
 21
 1.17772033516667E+0000
  0
LINE
  8
1
  6
CONTINUOUS
 62
     0
 10
 4.16392306070338E+0000
 20
 1.17772033516667E+0000
 11
 4.00463373406819E+0000
 21
 1.20490185653034E+0000
  0
LINE
  8
1
  6
CONTINUOUS
 62
     0
 10
 4.00463373406819E+0000
 20
 1.20490185653034E+0000
 11
 4.00463373406819E+0000
 21
 1.14449821905873E+0000
  0
LINE
  8
1
  6
CONTINUOUS
 62
     0
 10
 4.00463373406819E+0000
 20
 1.14449821905873E+0000
 11
 4.16392306070338E+0000
 21
 1.17772033516667E+0000
  0
LINE
  8
1
  6
CONTINUOUS
 62
     0
 10
 4.00463373406819E+0000
 20
 1.20490185653034E+0000
 11
 4.00463373406819E+0000
 21
 1.14449821905873E+0000
  0
LINE
  8
1
  6
CONTINUOUS
 62
     0
 10
 4.01317866581667E+0000
 20
 1.14628038940646E+0000
 11
 4.00463373406819E+0000
 21
 1.15482532115311E+0000
  0
LINE
  8
1
  6
CONTINUOUS
 62
     0
 10
 4.03026852930634E+0000
 20
 1.14984473010372E+0000
 11
 4.00463373406819E+0000
 21
 1.17547952533823E+0000
  0
LINE
  8
1
  6
CONTINUOUS
 62
     0
 10
 4.04735839279601E+0000
 20
 1.15340907079735E+0000
 11
 4.00463373406819E+0000
 21
 1.19613372952335E+0000
  0
LINE
  8
1
  6
CONTINUOUS
 62
     0
 10
 4.06444825628569E+0000
 20
 1.15697341149098E+0000
 11
 4.01896540225425E+0000
 21
 1.20245626552241E+0000
  0
LINE
  8
1
  6
CONTINUOUS
 62
     0
 10
 4.08153811977536E+0000
 20
 1.16053775218643E+0000
 11
 4.04386926217558E+0000
 21
 1.19820660978803E+0000
  0
LINE
  8
1
  6
CONTINUOUS
 62
     0
 10
 4.09862798326503E+0000
 20
 1.16410209288006E+0000
 11
 4.06877312209690E+0000
 21
 1.19395695405183E+0000
  0
LINE
  8
1
  6
CONTINUOUS
 62
     0
 10
 4.11571784676198E+0000
 20
 1.16766643357369E+0000
 11
 4.09367698201822E+0000
 21
 1.18970729831744E+0000
  0
LINE
  8
1
  6
CONTINUOUS
 62
     0
 10
 4.13280771025165E+0000
 20
 1.17123077427095E+0000
 11
 4.11858084193955E+0000
 21
 1.18545764258124E+0000
  0
LINE
  8
1
  6
CONTINUOUS
 62
     0
 10
 4.14989757374133E+0000
 20
 1.17479511496458E+0000
 11
 4.14348470185359E+0000
 21
 1.18120798684868E+0000
  0
LINE
  8
1
  6
CONTINUOUS
 62
     0
 10
 4.15510132177587E+0000
 20
 1.17922569833172E+0000
 11
 4.15087448817940E+0000
 21
 1.17499886474252E+0000
  0
LINE
  8
1
  6
CONTINUOUS
 62
     0
 10
 4.13745784392086E+0000
 20
 1.18223642466364E+0000
 11
 4.12477734315326E+0000
 21
 1.16955592389604E+0000
  0
LINE
  8
1
  6
CONTINUOUS
 62
     0
 10
 4.11981436606584E+0000
 20
 1.18524715099556E+0000
 11
 4.09868019811984E+0000
 21
 1.16411298304956E+0000
  0
LINE
  8
1
  6
CONTINUOUS
 62
     0
 10
 4.10217088821810E+0000
 20
 1.18825787733113E+0000
 11
 4.07258305308642E+0000
 21
 1.15867004220490E+0000
  0
LINE
  8
1
  6
CONTINUOUS
 62
     0
 10
 4.08452741036308E+0000
 20
 1.19126860366305E+0000
 11
 4.04648590806028E+0000
 21
 1.15322710135842E+0000
  0
LINE
  8
1
  6
CONTINUOUS
 62
     0
 10
 4.06688393250806E+0000
 20
 1.19427932999315E+0000
 11
 4.02038876302686E+0000
 21
 1.14778416051195E+0000
  0
LINE
  8
1
  6
CONTINUOUS
 62
     0
 10
 4.04924045465305E+0000
 20
 1.19729005632507E+0000
 11
 4.00463373406092E+0000
 21
 1.15268333573658E+0000
  0
LINE
  8
1
  6
CONTINUOUS
 62
     0
 10
 4.03159697679803E+0000
 20
 1.20030078265700E+0000
 11
 4.00463373406092E+0000
 21
 1.17333753992170E+0000
  0
LINE
  8
1
  6
CONTINUOUS
 62
     0
 10
 4.01395349895029E+0000
 20
 1.20331150898892E+0000
 11
 4.00463373406092E+0000
 21
 1.19399174410682E+0000
  0
LINE
  8
1
  6
CONTINUOUS
 62
     0
 10
 7.39999422813707E+0000
 20
 5.68358477097354E+0000
 11
 7.80407425131853E+0000
 21
 5.68358477097354E+0000
  0
LINE
  8
1
  6
CONTINUOUS
 62
     0
 10
 7.80407425131853E+0000
 20
 5.68358477097354E+0000
 11
 7.80407425131853E+0000
 21
 5.91940749553760E+0000
  0
LINE
  8
1
  6
CONTINUOUS
 62
     0
 10
 7.80414148917043E+0000
 20
 5.68185350267595E+0000
 11
 7.80414148917043E+0000
 21
 5.68185350267595E+0000
  0
LINE
  8
1
  6
CONTINUOUS
 62
     0
 10
 7.80414148917043E+0000
 20
 5.68185350267595E+0000
 11
 7.77695996780676E+0000
 21
 5.52256417604804E+0000
  0
LINE
  8
1
  6
CONTINUOUS
 62
     0
 10
 7.77695996780676E+0000
 20
 5.52256417604804E+0000
 11
 7.83736360527837E+0000
 21
 5.52256417604804E+0000
  0
LINE
  8
1
  6
CONTINUOUS
 62
     0
 10
 7.83736360527837E+0000
 20
 5.52256417604804E+0000
 11
 7.80414148917043E+0000
 21
 5.68185350267595E+0000
  0
LINE
  8
1
  6
CONTINUOUS
 62
     0
 10
 7.77695996780676E+0000
 20
 5.52256417604804E+0000
 11
 7.83736360527837E+0000
 21
 5.52256417604804E+0000
  0
LINE
  8
1
  6
CONTINUOUS
 62
     0
 10
 7.78728706990660E+0000
 20
 5.52256417604804E+0000
 11
 7.77846533097181E+0000
 21
 5.53138591498282E+0000
  0
LINE
  8
1
  6
CONTINUOUS
 62
     0
 10
 7.80794127409172E+0000
 20
 5.52256417604804E+0000
 11
 7.78147605730919E+0000
 21
 5.54902939283056E+0000
  0
LINE
  8
1
  6
CONTINUOUS
 62
     0
 10
 7.82859547826956E+0000
 20
 5.52256417605531E+0000
 11
 7.78448678363930E+0000
 21
 5.56667287068558E+0000
  0
LINE
  8
1
  6
CONTINUOUS
 62
     0
 10
 7.83423130280426E+0000
 20
 5.53758255570574E+0000
 11
 7.78749750997667E+0000
 21
 5.58431634853332E+0000
  0
LINE
  8
1
  6
CONTINUOUS
 62
     0
 10
 7.82878836196323E+0000
 20
 5.56367970073188E+0000
 11
 7.79050823630678E+0000
 21
 5.60195982638834E+0000
  0
LINE
  8
1
  6
CONTINUOUS
 62
     0
 10
 7.82334542111494E+0000
 20
 5.58977684576530E+0000
 11
 7.79351896263688E+0000
 21
 5.61960330424336E+0000
  0
LINE
  8
1
  6
CONTINUOUS
 62
     0
 10
 7.81790248026664E+0000
 20
 5.61587399079872E+0000
 11
 7.79652968897426E+0000
 21
 5.63724678209110E+0000
  0
LINE
  8
1
  6
CONTINUOUS
 62
     0
 10
 7.81245953941834E+0000
 20
 5.64197113583214E+0000
 11
 7.79954041530436E+0000
 21
 5.65489025994611E+0000
  0
LINE
  8
1
  6
CONTINUOUS
 62
     0
 10
 7.80701659857004E+0000
 20
 5.66806828086555E+0000
 11
 7.80255114164174E+0000
 21
 5.67253373780113E+0000
  0
LINE
  8
1
  6
CONTINUOUS
 62
     0
 10
 7.83558143491973E+0000
 20
 5.53110910778196E+0000
 11
 7.82703650317853E+0000
 21
 5.52256417604804E+0000
  0
LINE
  8
1
  6
CONTINUOUS
 62
     0
 10
 7.83201709423156E+0000
 20
 5.54819897127891E+0000
 11
 7.80638229899341E+0000
 21
 5.52256417604804E+0000
  0
LINE
  8
1
  6
CONTINUOUS
 62
     0
 10
 7.82845275353611E+0000
 20
 5.56528883476858E+0000
 11
 7.78572809480829E+0000
 21
 5.52256417604804E+0000
  0
LINE
  8
1
  6
CONTINUOUS
 62
     0
 10
 7.82488841284066E+0000
 20
 5.58237869825825E+0000
 11
 7.77940555880923E+0000
 21
 5.53689584422682E+0000
  0
LINE
  8
1
  6
CONTINUOUS
 62
     0
 10
 7.82132407213794E+0000
 20
 5.59946856174065E+0000
 11
 7.78365521454543E+0000
 21
 5.56179970414814E+0000
  0
LINE
  8
1
  6
CONTINUOUS
 62
     0
 10
 7.81775973144249E+0000
 20
 5.61655842523032E+0000
 11
 7.78790487028164E+0000
 21
 5.58670356406947E+0000
  0
LINE
  8
1
  6
CONTINUOUS
 62
     0
 10
 7.81419539074705E+0000
 20
 5.63364828872727E+0000
 11
 7.79215452601784E+0000
 21
 5.61160742399079E+0000
  0
LINE
  8
1
  6
CONTINUOUS
 62
     0
 10
 7.81063105005887E+0000
 20
 5.65073815221695E+0000
 11
 7.79640418175404E+0000
 21
 5.63651128391211E+0000
  0
LINE
  8
1
  6
CONTINUOUS
 62
     0
 10
 7.80706670936343E+0000
 20
 5.66782801570662E+0000
 11
 7.80065383747569E+0000
 21
 5.66141514381889E+0000
  0
LINE
  8
1
  6
CONTINUOUS
 62
     0
 10
 7.80144021286833E+0000
 20
 5.90876515906712E+0000
 11
 7.80144021286833E+0000
 21
 5.90876515906712E+0000
  0
LINE
  8
1
  6
CONTINUOUS
 62
     0
 10
 7.80144021286833E+0000
 20
 5.90876515906712E+0000
 11
 7.82862173423200E+0000
 21
 6.06805448569503E+0000
  0
LINE
  8
1
  6
CONTINUOUS
 62
     0
 10
 7.82862173423200E+0000
 20
 6.06805448569503E+0000
 11
 7.76821809676039E+0000
 21
 6.06805448569503E+0000
  0
LINE
  8
1
  6
CONTINUOUS
 62
     0
 10
 7.76821809676039E+0000
 20
 6.06805448569503E+0000
 11
 7.80144021286833E+0000
 21
 5.90876515906712E+0000
  0
LINE
  8
1
  6
CONTINUOUS
 62
     0
 10
 7.82862173423200E+0000
 20
 6.06805448569503E+0000
 11
 7.76821809676039E+0000
 21
 6.06805448569503E+0000
  0
LINE
  8
1
  6
CONTINUOUS
 62
     0
 10
 7.80294557604066E+0000
 20
 5.91758689800918E+0000
 11
 7.79871874245146E+0000
 21
 5.92181373160565E+0000
  0
LINE
  8
1
  6
CONTINUOUS
 62
     0
 10
 7.80595630237804E+0000
 20
 5.93523037586419E+0000
 11
 7.79327580160316E+0000
 21
 5.94791087663179E+0000
  0
LINE
  8
1
  6
CONTINUOUS
 62
     0
 10
 7.80896702870814E+0000
 20
 5.95287385371194E+0000
 11
 7.78783286075486E+0000
 21
 5.97400802166521E+0000
  0
LINE
  8
1
  6
CONTINUOUS
 62
     0
 10
 7.81197775503824E+0000
 20
 5.97051733156695E+0000
 11
 7.78238991990656E+0000
 21
 6.00010516669863E+0000
  0
LINE
  8
1
  6
CONTINUOUS
 62
     0
 10
 7.81498848137562E+0000
 20
 5.98816080942197E+0000
 11
 7.77694697905827E+0000
 21
 6.02620231173205E+0000
  0
LINE
  8
1
  6
CONTINUOUS
 62
     0
 10
 7.81799920770572E+0000
 20
 6.00580428727699E+0000
 11
 7.77150403821724E+0000
 21
 6.05229945676547E+0000
  0
LINE
  8
1
  6
CONTINUOUS
 62
     0
 10
 7.82100993403583E+0000
 20
 6.02344776512473E+0000
 11
 7.77640321346553E+0000
 21
 6.06805448570231E+0000
  0
LINE
  8
1
  6
CONTINUOUS
 62
     0
 10
 7.82402066036593E+0000
 20
 6.04109124297975E+0000
 11
 7.79705741765065E+0000
 21
 6.06805448570231E+0000
  0
LINE
  8
1
  6
CONTINUOUS
 62
     0
 10
 7.82703138670331E+0000
 20
 6.05873472083476E+0000
 11
 7.81771162183577E+0000
 21
 6.06805448569503E+0000
  0
LINE
  8
1
  6
CONTINUOUS
 62
     0
 10
 7.80356504072552E+0000
 20
 5.92121708901686E+0000
 11
 7.79965804250969E+0000
 21
 5.91731009080831E+0000
  0
LINE
  8
1
  6
CONTINUOUS
 62
     0
 10
 7.80781469646172E+0000
 20
 5.94612094893819E+0000
 11
 7.79609370182152E+0000
 21
 5.93439995429799E+0000
  0
LINE
  8
1
  6
CONTINUOUS
 62
     0
 10
 7.81206435219792E+0000
 20
 5.97102480885951E+0000
 11
 7.79252936112607E+0000
 21
 5.95148981778766E+0000
  0
LINE
  8
1
  6
CONTINUOUS
 62
     0
 10
 7.81631400793412E+0000
 20
 5.99592866878083E+0000
 11
 7.78896502043062E+0000
 21
 5.96857968127733E+0000
  0
LINE
  8
1
  6
CONTINUOUS
 62
     0
 10
 7.82056366367033E+0000
 20
 6.02083252870216E+0000
 11
 7.78540067972790E+0000
 21
 5.98566954475973E+0000
  0
LINE
  8
1
  6
CONTINUOUS
 62
     0
 10
 7.82481331940653E+0000
 20
 6.04573638862348E+0000
 11
 7.78183633903245E+0000
 21
 6.00275940825668E+0000
  0
LINE
  8
1
  6
CONTINUOUS
 62
     0
 10
 7.82647721229296E+0000
 20
 6.06805448569503E+0000
 11
 7.77827199833700E+0000
 21
 6.01984927174635E+0000
  0
LINE
  8
1
  6
CONTINUOUS
 62
     0
 10
 7.80582300809328E+0000
 20
 6.06805448568775E+0000
 11
 7.77470765764883E+0000
 21
 6.03693913523603E+0000
  0
LINE
  8
1
  6
CONTINUOUS
 62
     0
 10
 7.78516880390816E+0000
 20
 6.06805448568775E+0000
 11
 7.77114331695338E+0000
 21
 6.05402899872570E+0000
  0
LINE
  8
1
  6
CONTINUOUS
 62
     0
 10
 5.91891927924007E+0000
 20
 4.61084389310417E+0000
 11
 5.89085692821391E+0000
 21
 4.58278154207073E+0000
  0
LINE
  8
1
  6
CONTINUOUS
 62
     0
 10
 5.91891927924007E+0000
 20
 4.66652159240766E+0000
 11
 5.83473222615430E+0000
 21
 4.58233453932189E+0000
  0
LINE
  8
1
  6
CONTINUOUS
 62
     0
 10
 5.91891927924007E+0000
 20
 4.72219929171115E+0000
 11
 5.77860752410197E+0000
 21
 4.58188753657305E+0000
  0
LINE
  8
1
  6
CONTINUOUS
 62
     0
 10
 5.91891927924007E+0000
 20
 4.77787699101464E+0000
 11
 5.76191181339527E+0000
 21
 4.62086952516984E+0000
  0
LINE
  8
1
  6
CONTINUOUS
 62
     0
 10
 5.91891927924735E+0000
 20
 4.83355469032540E+0000
 11
 5.76187637074327E+0000
 21
 4.67651178182132E+0000
  0
LINE
  8
1
  6
CONTINUOUS
 62
     0
 10
 5.91891927924735E+0000
 20
 4.88923238962889E+0000
 11
 5.76184092809126E+0000
 21
 4.73215403848008E+0000
  0
LINE
  8
1
  6
CONTINUOUS
 62
     0
 10
 5.91891927924735E+0000
 20
 4.94491008893965E+0000
 11
 5.76180548544653E+0000
 21
 4.78779629513883E+0000
  0
LINE
  8
1
  6
CONTINUOUS
 62
     0
 10
 5.91891927924007E+0000
 20
 5.00058778824314E+0000
 11
 5.76177004279452E+0000
 21
 4.84343855179759E+0000
  0
LINE
  8
1
  6
CONTINUOUS
 62
     0
 10
 5.91891927924007E+0000
 20
 5.05626548754663E+0000
 11
 5.76173460014979E+0000
 21
 4.89908080844907E+0000
  0
LINE
  8
1
  6
CONTINUOUS
 62
     0
 10
 5.91891927924007E+0000
 20
 5.11194318685011E+0000
 11
 5.76169915750506E+0000
 21
 4.95472306511510E+0000
  0
LINE
  8
1
  6
CONTINUOUS
 62
     0
 10
 5.91891927924007E+0000
 20
 5.16762088615360E+0000
 11
 5.76166371485306E+0000
 21
 5.01036532176659E+0000
  0
LINE
  8
1
  6
CONTINUOUS
 62
     0
 10
 5.91891927924007E+0000
 20
 5.22329858546436E+0000
 11
 5.76162827220105E+0000
 21
 5.06600757842534E+0000
  0
LINE
  8
1
  6
CONTINUOUS
 62
     0
 10
 5.91891927924735E+0000
 20
 5.27897628477513E+0000
 11
 5.76159282955632E+0000
 21
 5.12164983508410E+0000
  0
LINE
  8
1
  6
CONTINUOUS
 62
     0
 10
 5.91891927924735E+0000
 20
 5.33465398407861E+0000
 11
 5.76155738691159E+0000
 21
 5.17729209174286E+0000
  0
LINE
  8
1
  6
CONTINUOUS
 62
     0
 10
 5.91891927924735E+0000
 20
 5.39033168338210E+0000
 11
 5.76152194425958E+0000
 21
 5.23293434839434E+0000
  0
LINE
  8
1
  6
CONTINUOUS
 62
     0
 10
 5.91891927924007E+0000
 20
 5.44600938267831E+0000
 11
 5.76148650161485E+0000
 21
 5.28857660506037E+0000
  0
LINE
  8
1
  6
CONTINUOUS
 62
     0
 10
 5.91891927924735E+0000
 20
 5.50168708199635E+0000
 11
 5.76145105896285E+0000
 21
 5.34421886171185E+0000
  0
LINE
  8
1
  6
CONTINUOUS
 62
     0
 10
 5.91891927924735E+0000
 20
 5.55736478129984E+0000
 11
 5.76141561631084E+0000
 21
 5.39986111837061E+0000
  0
LINE
  8
1
  6
CONTINUOUS
 62
     0
 10
 5.91891927924735E+0000
 20
 5.61304248061060E+0000
 11
 5.76138017366611E+0000
 21
 5.45550337502937E+0000
  0
LINE
  8
1
  6
CONTINUOUS
 62
     0
 10
 5.91891927924735E+0000
 20
 5.66872017991409E+0000
 11
 5.76134473102138E+0000
 21
 5.51114563168812E+0000
  0
LINE
  8
1
  6
CONTINUOUS
 62
     0
 10
 5.91891927924735E+0000
 20
 5.72439787921758E+0000
 11
 5.76130928836938E+0000
 21
 5.56678788833960E+0000
  0
LINE
  8
1
  6
CONTINUOUS
 62
     0
 10
 5.91891927924735E+0000
 20
 5.78007557852106E+0000
 11
 5.76127384571737E+0000
 21
 5.62243014499836E+0000
  0
LINE
  8
1
  6
CONTINUOUS
 62
     0
 10
 5.91891927924735E+0000
 20
 5.83575327782455E+0000
 11
 5.76123840306536E+0000
 21
 5.67807240164984E+0000
  0
LINE
  8
1
  6
CONTINUOUS
 62
     0
 10
 5.91891927924007E+0000
 20
 5.89143097713531E+0000
 11
 5.76120296042791E+0000
 21
 5.73371465831588E+0000
  0
LINE
  8
1
  6
CONTINUOUS
 62
     0
 10
 5.91891927924007E+0000
 20
 5.94710867643880E+0000
 11
 5.76116751777590E+0000
 21
 5.78935691497463E+0000
  0
LINE
  8
1
  6
CONTINUOUS
 62
     0
 10
 5.87819808971108E+0000
 20
 5.96206518621329E+0000
 11
 5.76113207513117E+0000
 21
 5.84499917163339E+0000
  0
LINE
  8
1
  6
CONTINUOUS
 62
     0
 10
 5.82206152899744E+0000
 20
 5.96160632481042E+0000
 11
 5.76109663247917E+0000
 21
 5.90064142828487E+0000
  0
LINE
  8
1
  6
CONTINUOUS
 62
     0
 10
 5.76592496829107E+0000
 20
 5.96114746340754E+0000
 11
 5.76106118982716E+0000
 21
 5.95628368494363E+0000
  0
LINE
  8
1
  6
CONTINUOUS
 62
     0
 10
 6.40661042428837E+0000
 20
 4.61589034683857E+0000
 11
 6.37800076982239E+0000
 21
 4.58728069237259E+0000
  0
LINE
  8
1
  6
CONTINUOUS
 62
     0
 10
 6.40642832864251E+0000
 20
 4.67138595050346E+0000
 11
 6.32059936525911E+0000
 21
 4.58555698711280E+0000
  0
LINE
  8
1
  6
CONTINUOUS
 62
     0
 10
 7.17478816871153E+0000
 20
 5.49542348987598E+0000
 11
 7.16736354818568E+0000
 21
 5.48799886935012E+0000
  0
LINE
  8
1
  6
CONTINUOUS
 62
     0
 10
 6.40624623300391E+0000
 20
 4.72688155416836E+0000
 11
 6.26319796069583E+0000
 21
 4.58383328186028E+0000
  0
LINE
  8
1
  6
CONTINUOUS
 62
     0
 10
 7.17478816871153E+0000
 20
 5.55110118918674E+0000
 11
 7.11165016658197E+0000
 21
 5.48796318705718E+0000
  0
LINE
  8
1
  6
CONTINUOUS
 62
     0
 10
 6.40606413735804E+0000
 20
 4.78237715783325E+0000
 11
 6.23561665136367E+0000
 21
 4.61192967183160E+0000
  0
LINE
  8
1
  6
CONTINUOUS
 62
     0
 10
 7.17478816871153E+0000
 20
 5.60677888849023E+0000
 11
 7.05593678497098E+0000
 21
 5.48792750474968E+0000
  0
LINE
  8
1
  6
CONTINUOUS
 62
     0
 10
 6.40588204171945E+0000
 20
 4.83787276149815E+0000
 11
 6.23561665137095E+0000
 21
 4.66760737114237E+0000
  0
LINE
  8
1
  6
CONTINUOUS
 62
     0
 10
 7.17478816871153E+0000
 20
 5.66245658779371E+0000
 11
 7.00022340336727E+0000
 21
 5.48789182244946E+0000
  0
LINE
  8
1
  6
CONTINUOUS
 62
     0
 10
 6.40569994608086E+0000
 20
 4.89336836516304E+0000
 11
 6.23561665136367E+0000
 21
 4.72328507045313E+0000
  0
LINE
  8
1
  6
CONTINUOUS
 62
     0
 10
 7.17478816871153E+0000
 20
 5.71813428709720E+0000
 11
 6.94451002175629E+0000
 21
 5.48785614014196E+0000
  0
LINE
  8
1
  6
CONTINUOUS
 62
     0
 10
 6.40551785043499E+0000
 20
 4.94886396882794E+0000
 11
 6.23561665136367E+0000
 21
 4.77896276975662E+0000
  0
LINE
  8
1
  6
CONTINUOUS
 62
     0
 10
 7.17478816870425E+0000
 20
 5.77381198640796E+0000
 11
 6.88879664015258E+0000
 21
 5.48782045784901E+0000
  0
LINE
  8
1
  6
CONTINUOUS
 62
     0
 10
 6.40533575479640E+0000
 20
 5.00435957249283E+0000
 11
 6.23561665136367E+0000
 21
 4.83464046906010E+0000
  0
LINE
  8
1
  6
CONTINUOUS
 62
     0
 10
 7.17478816870425E+0000
 20
 5.82948968571145E+0000
 11
 6.83308325854887E+0000
 21
 5.48778477554879E+0000
  0
LINE
  8
1
  6
CONTINUOUS
 62
     0
 10
 6.40515365915053E+0000
 20
 5.05985517615773E+0000
 11
 6.23561665136367E+0000
 21
 4.89031816837087E+0000
  0
LINE
  8
1
  6
CONTINUOUS
 62
     0
 10
 7.17478816870425E+0000
 20
 5.88516738501494E+0000
 11
 6.77736987693061E+0000
 21
 5.48774909324129E+0000
  0
LINE
  8
1
  6
CONTINUOUS
 62
     0
 10
 6.40497156351194E+0000
 20
 5.11535077981534E+0000
 11
 6.23561665137095E+0000
 21
 4.94599586767436E+0000
  0
LINE
  8
1
  6
CONTINUOUS
 62
     0
 10
 7.15254846877360E+0000
 20
 5.91860538438777E+0000
 11
 6.72165649533417E+0000
 21
 5.48771341094834E+0000
  0
LINE
  8
1
  6
CONTINUOUS
 62
     0
 10
 6.40478946786607E+0000
 20
 5.17084638348024E+0000
 11
 6.23561665137095E+0000
 21
 5.00167356698512E+0000
  0
LINE
  8
1
  6
CONTINUOUS
 62
     0
 10
 7.09686475103081E+0000
 20
 5.91859936594847E+0000
 11
 6.66594311371591E+0000
 21
 5.48767772864085E+0000
  0
LINE
  8
1
  6
CONTINUOUS
 62
     0
 10
 6.40460737222747E+0000
 20
 5.22634198715241E+0000
 11
 6.23561665136367E+0000
 21
 5.05735126628861E+0000
  0
LINE
  8
1
  6
CONTINUOUS
 62
     0
 10
 7.04118103328801E+0000
 20
 5.91859334751643E+0000
 11
 6.61022973211220E+0000
 21
 5.48764204634062E+0000
  0
LINE
  8
1
  6
CONTINUOUS
 62
     0
 10
 6.40442527658161E+0000
 20
 5.28183759081003E+0000
 11
 6.23561665136367E+0000
 21
 5.11302896559209E+0000
  0
LINE
  8
1
  6
CONTINUOUS
 62
     0
 10
 6.98549731554522E+0000
 20
 5.91858732907713E+0000
 11
 6.55451635051577E+0000
 21
 5.48760636404768E+0000
  0
LINE
  8
1
  6
CONTINUOUS
 62
     0
 10
 6.40424318094301E+0000
 20
 5.33733319447492E+0000
 11
 6.23561665136367E+0000
 21
 5.16870666489558E+0000
  0
LINE
  8
1
  6
CONTINUOUS
 62
     0
 10
 6.92981359780242E+0000
 20
 5.91858131063782E+0000
 11
 6.49880296889751E+0000
 21
 5.48757068174018E+0000
  0
LINE
  8
1
  6
CONTINUOUS
 62
     0
 10
 6.40406108530442E+0000
 20
 5.39282879813982E+0000
 11
 6.23561665136367E+0000
 21
 5.22438436420634E+0000
  0
LINE
  8
1
  6
CONTINUOUS
 62
     0
 10
 6.87412988005963E+0000
 20
 5.91857529219851E+0000
 11
 6.44308958729380E+0000
 21
 5.48753499943996E+0000
  0
LINE
  8
1
  6
CONTINUOUS
 62
     0
 10
 6.40387898965855E+0000
 20
 5.44832440180471E+0000
 11
 6.23561665136367E+0000
 21
 5.28006206350983E+0000
  0
LINE
  8
1
  6
CONTINUOUS
 62
     0
 10
 6.81844616230228E+0000
 20
 5.91856927375193E+0000
 11
 6.23561665136367E+0000
 21
 5.33573976281332E+0000
  0
LINE
  8
1
  6
CONTINUOUS
 62
     0
 10
 6.76276244455948E+0000
 20
 5.91856325531262E+0000
 11
 6.23561665136367E+0000
 21
 5.39141746211681E+0000
  0
LINE
  8
1
  6
CONTINUOUS
 62
     0
 10
 6.70707872681669E+0000
 20
 5.91855723688059E+0000
 11
 6.23561665137095E+0000
 21
 5.44709516143485E+0000
  0
LINE
  8
1
  6
CONTINUOUS
 62
     0
 10
 6.65139500907389E+0000
 20
 5.91855121844128E+0000
 11
 6.23561665137095E+0000
 21
 5.50277286073833E+0000
  0
LINE
  8
1
  6
CONTINUOUS
 62
     0
 10
 6.59571129133110E+0000
 20
 5.91854520000197E+0000
 11
 6.23561665137095E+0000
 21
 5.55845056004182E+0000
  0
LINE
  8
1
  6
CONTINUOUS
 62
     0
 10
 6.54002757358830E+0000
 20
 5.91853918156266E+0000
 11
 6.23561665137095E+0000
 21
 5.61412825934531E+0000
  0
LINE
  8
1
  6
CONTINUOUS
 62
     0
 10
 6.48434385584551E+0000
 20
 5.91853316313063E+0000
 11
 6.23561665137095E+0000
 21
 5.66980595865607E+0000
  0
LINE
  8
1
  6
CONTINUOUS
 62
     0
 10
 6.42866013810271E+0000
 20
 5.91852714469132E+0000
 11
 6.23561665137095E+0000
 21
 5.72548365795956E+0000
  0
LINE
  8
1
  6
CONTINUOUS
 62
     0
 10
 6.40208336376963E+0000
 20
 5.94762806966173E+0000
 11
 6.40208336376963E+0000
 21
 5.94762806966173E+0000
  0
LINE
  8
1
  6
CONTINUOUS
 62
     0
 10
 6.37905016811419E+0000
 20
 5.92459487400629E+0000
 11
 6.23561665137095E+0000
 21
 5.78116135726304E+0000
  0
LINE
  8
1
  6
CONTINUOUS
 62
     0
 10
 6.33498597534344E+0000
 20
 5.93620838054630E+0000
 11
 6.23561665137095E+0000
 21
 5.83683905656653E+0000
  0
LINE
  8
1
  6
CONTINUOUS
 62
     0
 10
 6.29092178257270E+0000
 20
 5.94782188707904E+0000
 11
 6.23561665137095E+0000
 21
 5.89251675587730E+0000
  0
LINE
  8
1
  6
CONTINUOUS
 62
     0
 10
 6.24685758979467E+0000
 20
 5.95943539360451E+0000
 11
 6.23561665136367E+0000
 21
 5.94819445518078E+0000
  0
LINE
  8
1
  6
CONTINUOUS
 62
     0
 10
 7.54381095005374E+0000
 20
 5.51752463180310E+0000
 11
 7.51560025457002E+0000
 21
 5.48931393631938E+0000
  0
LINE
  8
1
  6
CONTINUOUS
 62
     0
 10
 7.54384557378216E+0000
 20
 5.57323695483501E+0000
 11
 7.45921348732372E+0000
 21
 5.48860486838385E+0000
  0
LINE
  8
1
  6
CONTINUOUS
 62
     0
 10
 7.54388019749604E+0000
 20
 5.62894927785965E+0000
 11
 7.41140114789596E+0000
 21
 5.49647022825957E+0000
  0
LINE
  8
1
  6
CONTINUOUS
 62
     0
 10
 7.54391482122446E+0000
 20
 5.68466160089156E+0000
 11
 7.41140114789596E+0000
 21
 5.55214792756306E+0000
  0
LINE
  8
1
  6
CONTINUOUS
 62
     0
 10
 7.54394944495289E+0000
 20
 5.74037392393075E+0000
 11
 7.41140114789596E+0000
 21
 5.60782562686654E+0000
  0
LINE
  8
1
  6
CONTINUOUS
 62
     0
 10
 7.54398406866676E+0000
 20
 5.79608624695538E+0000
 11
 7.41140114788868E+0000
 21
 5.66350332617731E+0000
  0
LINE
  8
1
  6
CONTINUOUS
 62
     0
 10
 7.54401869239518E+0000
 20
 5.85179856998730E+0000
 11
 7.41140114788868E+0000
 21
 5.71918102548079E+0000
  0
LINE
  8
1
  6
CONTINUOUS
 62
     0
 10
 7.54405331611633E+0000
 20
 5.90751089301193E+0000
 11
 7.41140114788868E+0000
 21
 5.77485872478428E+0000
  0
LINE
  8
1
  6
CONTINUOUS
 62
     0
 10
 7.49941710117855E+0000
 20
 5.91855237738491E+0000
 11
 7.41140114789596E+0000
 21
 5.83053642410232E+0000
  0
LINE
  8
1
  6
CONTINUOUS
 62
     0
 10
 7.44377443189296E+0000
 20
 5.91858740740281E+0000
 11
 7.41140114789596E+0000
 21
 5.88621412340581E+0000
  0
TEXT
  8
1
 62
     0
 10
 6.47971912438516E+0000
 20
 6.36501171501004E+0000
 40
 1.18110236219991E-0001
  1
M4
  7
STANDARD
 11
 6.47971912438516E+0000
 21
 6.48312195122708E+0000
 50
 0.00000000000000E+0000
 41
 3.46918492890381E-0001
  0
TEXT
  8
1
 62
     0
 10
 5.97522195196507E+0000
 20
 4.05638589704904E+0000
 40
 1.18110236219991E-0001
  1
16
  7
STANDARD
 11
 5.97522195196507E+0000
 21
 4.17449613326608E+0000
 50
 0.00000000000000E+0000
 41
 3.08371993680339E-0001
  0
TEXT
  8
1
 62
     0
 10
 4.16744041746279E+0000
 20
 6.48254175665352E+0000
 40
 1.18110236219991E-0001
  1
16
  7
STANDARD
 11
 4.16744041746279E+0000
 21
 6.60065199287055E+0000
 50
 0.00000000000000E+0000
 41
 3.08371993680339E-0001
  0
TEXT
  8
1
 62
     0
 10
 4.12142353105446E+0000
 20
 4.06906406480266E+0000
 40
 1.18110236219991E-0001
  1
8H7
  7
STANDARD
 11
 4.12142353105446E+0000
 21
 4.18717430101970E+0000
 50
 0.00000000000000E+0000
 41
 3.34069659820670E-0001
  0
TEXT
  8
1
 62
     0
 10
 4.59228755864751E+0000
 20
 1.18388381495060E+0000
 40
 1.18110236219991E-0001
  1
6H7
  7
STANDARD
 11
 4.59228755864751E+0000
 21
 1.30199405117128E+0000
 50
 0.00000000000000E+0000
 41
 3.34069659820670E-0001
  0
LINE
  8
1
  6
CONTINUOUS
 62
     0
 10
 4.54183784140332E+0000
 20
 1.17606900655301E+0000
 11
 4.84453614485392E+0000
 21
 1.17606900655301E+0000
  0
TEXT
  8
1
 62
     0
 10
 5.31540017244697E+0000
 20
 3.19028952582812E+0000
 40
 1.18110236219991E-0001
  1
8
  7
STANDARD
 11
 5.31540017244697E+0000
 21
 3.30839976204879E+0000
 50
 9.00000000000000E+0001
 41
 3.08371993680339E-0001
  0
TEXT
  8
1
 62
     0
 10
 5.00429358278780E+0000
 20
 2.34239422541577E+0000
 40
 1.18110236219991E-0001
  1
31
  7
STANDARD
 11
 5.00429358278780E+0000
 21
 2.46050446163645E+0000
 50
 9.00000000000000E+0001
 41
 3.08371993680339E-0001
  0
TEXT
  8
1
 62
     0
 10
 3.18810376208057E+0000
 20
 2.33399922243916E+0000
 40
 1.18110236219991E-0001
  1
45
  7
STANDARD
 11
 3.18810376208057E+0000
 21
 2.45210945865983E+0000
 50
 9.00000000000000E+0001
 41
 3.08371993680339E-0001
  0
LINE
  8
1
  6
CONTINUOUS
 62
     0
 10
 3.62533464484295E+0000
 20
 1.61260916122046E+0000
 11
 3.62533464484295E+0000
 21
 1.08372397383573E+0000
  0
TEXT
  8
1
 62
     0
 10
 3.48239377932259E+0000
 20
 1.05795877033233E+0000
 40
 1.18110236219991E-0001
  1
3x45
  7
STANDARD
 11
 3.48239377932259E+0000
 21
 1.17606900655301E+0000
 50
 9.00000000000000E+0001
 41
 2.89098744075545E-0001
  0
TEXT
  8
1
 62
     0
 10
 3.13765404483638E+0000
 20
 4.92745430870127E+0000
 40
 1.18110236219991E-0001
  1
35 -0.3
  7
STANDARD
 11
 3.13765404483638E+0000
 21
 5.04556454491831E+0000
 50
 9.00000000000000E+0001
 41
 2.42292280748870E-0001
  0
TEXT
  8
1
 62
     0
 10
 7.93037718281994E+0000
 20
 5.48991950798518E+0000
 40
 1.18110236219991E-0001
  1
11
  7
STANDARD
 11
 7.93037718281994E+0000
 21
 5.60802974420221E+0000
 50
 9.00000000000000E+0001
 41
 3.08371993661240E-0001
  0
TEXT
  8
1
 62
     0
 10
 7.66972031040495E+0000
 20
 5.62423955556733E+0000
 40
 1.18110236219991E-0001
  1
5.5
  7
STANDARD
 11
 7.66972031040495E+0000
 21
 5.74234979178436E+0000
 50
 9.00000000000000E+0001
 41
 2.56976661400131E-0001
  0
TEXT
  8
1
 62
     0
 10
 6.69435911039182E+0000
 20
 6.06077971024934E+0000
 40
 1.18110236219991E-0001
  1
1
  7
STANDARD
 11
 6.69435911039182E+0000
 21
 6.17888994646637E+0000
 50
 9.00000000000000E+0001
 41
 3.08371993680339E-0001
  0
LINE
  8
1
  6
CONTINUOUS
 62
     0
 10
 6.82889168970723E+0000
 20
 6.12851992862124E+0000
 11
 6.82889168970723E+0000
 21
 6.27962998214934E+0000
  0
TEXT
  8
1
 62
     0
 10
 9.08736386332021E+0000
 20
 3.91181628215236E-0001
 40
 1.18110236219991E-0001
  1
(c)
  7
STANDARD
 11
 9.08736386332021E+0000
 21
 5.09291864434999E-0001
 50
 0.00000000000000E+0000
 41
 2.05581329120378E-0001
0
ENDSEC
0
EOF
