0
SECTION
  2
HEADER
  9
$LTSCALE
 40
     10
  9
$LIMMIN
 10
     0.0
 20
     0.0
  9
$LIMMAX
 10
      11.5
 20
       8.0
  9
$EXTMIN
 10
     0.0
 20
     0.0
  9
$EXTMAX
 10
      11.5
 20
       8.0
   9
$CLAYER
   8
1
   9
$CECOLOR
  62
     7
   9
$CELTYPE
   6
CONTINUOUS
  0
ENDSEC
  0
SECTION
  2
TABLES
  0
TABLE
  2
LTYPE
 70
    10
  0
LTYPE
  2
CONTINUOUS
 70
    64
  3
Solid line
 72
    65
 73
     0
 40
0.0
  0
LTYPE
  2
DASHED
 70
     0
  3
__ __ __ __ __ __ __ __ __ __ __ __ __ __ __
 72
    65
 73
     2
 40
0.75
 49
0.5
 49
-0.25
  0
LTYPE
  2
HIDDEN
 70
     0
  3
_ _ _ _ _ _ _ _ _ _ _ _ _ _ _ _ _ _ _ _ _ _
 72
    65
 73
     2
 40
0.375
 49
0.25
 49
-0.125
  0
LTYPE
  2
CENTER
 70
     0
  3
____ _ ____ _ ____ _ ____ _ ____ _ ____ _ __
 72
    65
 73
     4
 40
2.0
 49
1.25
 49
-0.25
 49
0.25
 49
-0.25
  0
LTYPE
  2
PHANTOM
 70
     0
  3
_____ _ _ _____ _ _ _____ _ _ _____ _ _ ____
 72
    65
 73
     6
 40
2.5
 49
1.25
 49
-0.25
 49
0.25
 49
-0.25
 49
0.25
 49
-0.25
  0
LTYPE
  2
DOT
 70
     0
  3
............................................
 72
    65
 73
     2
 40
0.25
 49
0.0
 49
-0.25
  0
LTYPE
  2
DASHDOT
 70
     0
  3
__ . __ . __ . __ . __ . __ . __ . __ . __ .
 72
    65
 73
     4
 40
1.0
 49
0.5
 49
-0.25
 49
0.0
 49
-0.25
  0
LTYPE
  2
BORDER
 70
     0
  3
__ __ . __ __ . __ __ . __ __ . __ __ . __ _
 72
    65
 73
     6
 40
1.75
 49
0.5
 49
-0.25
 49
0.5
 49
-0.25
 49
0.0
 49
-0.25
  0
LTYPE
  2
DIVIDE
 70
     0
  3
__ . . __ . . __ . . __ . . __ . . __ . . __
 72
    65
 73
     6
 40
1.25
 49
0.5
 49
-0.25
 49
0.0
 49
-0.25
 49
0.0
 49
-0.25
  0
LTYPE
  2
DIVIDE2
 70
     0
  3
close
 72
    65
 73
     2
 40
0.1
 49
0.05
 49
-0.05
  0
ENDTAB
0
TABLE
  2
LAYER
 70
   256
  0
LAYER
  2
1
 70
     0
  6
CONTINUOUS
 62
1
  0
ENDTAB
  0
TABLE
  2
STYLE
 70
     8
  0
STYLE
  2
TXT
 70
0
 40
0.0
 41
1.0
 50
0.0
 71
0
 42
1.0
  3
TXT
  4

  0
STYLE
  2
COMPLEX
 70
0
 40
0.0
 41
1.0
 50
0.0
 71
0
 42
1.0
  3
COMPLEX
  4

  0
STYLE
  2
ITALIC
 70
0
 40
0.0
 41
1.0
 50
0.0
 71
0
 42
1.0
  3
ITALIC
  4

  0
STYLE
  2
SIMPLEX
70
0
 40
0.0
 41
1.0
 50
0.0
 71
0
 42
1.0
  3
SIMPLEX
  4

  0
STYLE
  2
MONOTXT
 70
0
 40
0.0
 41
1.0
 50
0.0
 71
0
 42
1.0
  3
MONOTXT
  4

  0
STYLE
  2
SCRIPTC
 70
0
 40
0.0
 41
1.0
 50
0.0
 71
0
 42
1.0
  3
SCRIPTC
  4

  0
STYLE
  2
GOTHICE
 70
0
 40
0.0
 41
1.0
 50
0.0
 71
0
 42
1.0
  3
GOTHICE
  4

  0
ENDTAB
  0
TABLE
  2
VIEW
 70
     0
  0
ENDTAB
  0
ENDSEC
  0
SECTION
  2
ENTITIES
  0
LINE
  8
1
  6
CONTINUOUS
 62
     1
 10
 1.10824245900876E+0001
 20
 3.66054472739052E-0001
 11
 8.90078496305796E+0000
 21
 3.66054472739052E-0001
  0
LINE
  8
1
  6
CONTINUOUS
 62
     1
 10
 8.90078496305796E+0000
 20
 3.66054472739052E-0001
 11
 8.90078496305796E+0000
 21
 1.55291635594767E+0000
  0
LINE
  8
1
  6
CONTINUOUS
 62
     1
 10
 8.90078496305796E+0000
 20
 1.55291635594767E+0000
 11
 1.10824245900876E+0001
 21
 1.55291635594767E+0000
  0
LINE
  8
1
  6
CONTINUOUS
 62
     1
 10
 1.10824245900876E+0001
 20
 1.55291635594767E+0000
 11
 1.10824245900876E+0001
 21
 3.66054472739052E-0001
  0
LINE
  8
1
  6
CONTINUOUS
 62
     1
 10
 8.90010336294654E+0000
 20
 1.23953147667635E+0000
 11
 1.10833476808330E+0001
 21
 1.23953147667635E+0000
  0
LINE
  8
1
  6
CONTINUOUS
 62
     1
 10
 8.90774062665878E+0000
 20
 5.23861750931246E-0001
 11
 1.10909849445452E+0001
 21
 5.23861750931246E-0001
  0
TEXT
  8
1
 62
     1
 10
 8.94823287868348E+0000
 20
 1.35143637997317E+0000
 40
 1.18110236219991E-0001
  1
Benennung
  7
STANDARD
 11
 8.94823287868348E+0000
 21
 1.46954661619384E+0000
 50
 0.00000000000000E+0000
 41
 3.42292912985158E-0001
  0
LINE
  8
1
  6
CONTINUOUS
 62
     1
 10
 9.57264299190138E+0000
 20
 1.55147486233909E+0000
 11
 9.57264299190138E+0000
 21
 1.23953147667635E+0000
  0
LINE
  8
1
  6
CONTINUOUS
 62
     1
 10
 8.90010336294654E+0000
 20
 1.07349709398113E+0000
 11
 1.10833476808330E+0001
 21
 1.07349709398113E+0000
  0
LINE
  8
1
  6
CONTINUOUS
 62
     1
 10
 8.90010336294654E+0000
 20
 9.07462711285916E-0001
 11
 1.10833476808330E+0001
 21
 9.07462711285916E-0001
  0
TEXT
  8
1
 62
     1
 10
 8.95298969198484E+0000
 20
 1.08890528919073E+0000
 40
 1.18110236219991E-0001
  1
Werkstoff
  7
STANDARD
 11
 8.95298969198484E+0000
 21
 1.20701552541141E+0000
 50
 0.00000000000000E+0000
 41
 2.77534794312487E-0001
  0
LINE
  8
1
  6
CONTINUOUS
 62
     1
 10
 9.57264299190138E+0000
 20
 1.23953147667635E+0000
 11
 9.57264299190138E+0000
 21
 1.07349709398113E+0000
  0
LINE
  8
1
  6
CONTINUOUS
 62
     1
 10
 1.05011491960613E+0001
 20
 1.23953147667635E+0000
 11
 1.05011491960613E+0001
 21
 1.07349709398113E+0000
  0
TEXT
  8
1
 62
     1
 10
 1.05670323736267E+0001
 20
 1.08890528919073E+0000
 40
 1.18110236219991E-0001
  1
M 1:1
  7
STANDARD
 11
 1.05670323736267E+0001
 21
 1.20701552541141E+0000
 50
 0.00000000000000E+0000
 41
 2.83085490198573E-0001
  0
LINE
  8
1
  6
CONTINUOUS
 62
     1
 10
 8.90078496305796E+0000
 20
 1.55291635594767E+0000
 11
 1.10883666332957E+0001
 21
 1.55291635594767E+0000
  0
LINE
  8
1
  6
CONTINUOUS
 62
     1
 10
 8.90078496305796E+0000
 20
 1.55291635594767E+0000
 11
 1.10824245900876E+0001
 21
 1.55291635594767E+0000
  0
LINE
  8
1
  6
CONTINUOUS
 62
     1
 10
 1.10824245900876E+0001
 20
 1.55291635594767E+0000
 11
 1.10824245900876E+0001
 21
 3.66054472739052E-0001
  0
LINE
  8
1
  6
CONTINUOUS
 62
     1
 10
 1.10824245900876E+0001
 20
 3.66054472739052E-0001
 11
 8.90078496305796E+0000
 21
 3.66054472739052E-0001
  0
LINE
  8
1
  6
CONTINUOUS
 62
     1
 10
 8.90078496305796E+0000
 20
 3.66054472739052E-0001
 11
 8.90078496305796E+0000
 21
 1.55291635594767E+0000
  0
TEXT
  8
1
 62
     1
 10
 8.94643199958955E+0000
 20
 9.29817355409796E-0001
 40
 1.18110236219991E-0001
  1
Bearb.
  7
STANDARD
 11
 8.94643199958955E+0000
 21
 1.04792759162956E+0000
 50
 0.00000000000000E+0000
 41
 2.91411534028157E-0001
  0
LINE
  8
1
  6
CONTINUOUS
 62
     1
 10
 9.57372805119667E+0000
 20
 1.07462383869279E+0000
 11
 9.57372805119667E+0000
 21
 9.08513856978971E-0001
  0
LINE
  8
1
  6
CONTINUOUS
 62
     1
 10
 8.90204784499656E+0000
 20
 7.36471375930705E-0001
 11
 1.10827893074456E+0001
 21
 7.36471375930705E-0001
  0
LINE
  8
1
  6
CONTINUOUS
 62
     1
 10
 9.57372805119667E+0000
 20
 9.08513856978971E-0001
 11
 9.57372805119667E+0000
 21
 7.36471375930705E-0001
  0
TEXT
  8
1
 62
     1
 10
 8.94643199958955E+0000
 20
 7.54808624687030E-0001
 40
 1.18110236219991E-0001
  1
Datum
  7
STANDARD
 11
 8.94643199958955E+0000
 21
 8.72918860906793E-0001
 50
 0.00000000000000E+0000
 41
 3.49693840833424E-0001
  0
LINE
  8
1
  6
CONTINUOUS
 62
     1
 10
 1.04998774104170E+0001
 20
 5.19935149772209E-0001
 11
 1.04998774104170E+0001
 21
 3.68656416430895E-0001
  0
TEXT
  8
1
 62
     1
 10
 9.62994798035652E+0000
 20
 9.20918606393570E-0001
 40
 1.18110236219991E-0001
  1
D.Freind
  7
STANDARD
 11
 9.62994798035652E+0000
 21
 1.03902884261333E+0000
 50
 0.00000000000000E+0000
 41
 2.81003979241177E-0001
  0
TEXT
  8
1
 62
     1
 10
 1.05235489595507E+0001
 20
 3.84027415512719E-0001
 40
 1.18110236219991E-0001
  1
Blatt
  7
STANDARD
 11
 1.05235489595507E+0001
 21
 5.02137651732482E-0001
 50
 0.00000000000000E+0000
 41
 2.49781314881147E-0001
  0
TEXT
  8
1
 62
     1
 10
 9.04969655426976E+0000
 20
 5.46297824291287E-0001
 40
 1.18110236219991E-0001
  1
für Revolver 8-fach 
  7
STANDARD
 11
 9.04969655426976E+0000
 21
 6.64408060511050E-0001
 50
 0.00000000000000E+0000
 41
 2.53944336795939E-0001
  0
TEXT
  8
1
 62
     1
 10
 9.24395880734664E+0000
 20
 3.96178239438086E-0001
 40
 1.18110236219991E-0001
  1
www.cnc-projects.de.vu
  7
STANDARD
 11
 9.24395880734664E+0000
 21
 5.14288475657850E-0001
 50
 0.00000000000000E+0000
 41
 2.87626968650784E-0001
  0
TEXT
  8
1
 62
     1
 10
 9.63511565663794E+0000
 20
 1.10198660545939E+0000
 40
 1.18110236219991E-0001
  1
Aluminium
  7
STANDARD
 11
 9.63511565663794E+0000
 21
 1.22009684168006E+0000
 50
 0.00000000000000E+0000
 41
 3.23790593364720E-0001
  0
TEXT
  8
1
 62
     1
 10
 9.62415454412985E+0000
 20
 7.61874205499225E-0001
 40
 1.18110236219991E-0001
  1
04.01.2004
  7
STANDARD
 11
 9.62415454412985E+0000
 21
 8.79984441718989E-0001
 50
 0.00000000000000E+0000
 41
 2.99737577857286E-0001
  0
TEXT
  8
1
 62
     1
 10
 1.08043752912636E+0001
 20
 3.81352449233418E-0001
 40
 1.18110236219991E-0001
  1
1
  7
STANDARD
 11
 1.08043752912636E+0001
 21
 4.99462685453182E-0001
 50
 0.00000000000000E+0000
 41
 3.33041753174712E-0001
  0
TEXT
  8
1
 62
     1
 10
 9.81554169231094E+0000
 20
 1.28749213150149E+0000
 40
 1.96850393699833E-0001
  1
Spannbock
  7
STANDARD
 11
 9.81554169231094E+0000
 21
 1.48434252520201E+0000
 50
 0.00000000000000E+0000
 41
 1.99825051905009E-0001
  0
LINE
  8
1
  6
CONTINUOUS
 62
     1
 10
 4.13286812764272E+0000
 20
 4.99312149331672E+0000
 11
 5.72086248878622E+0000
 21
 4.99312149331672E+0000
  0
LINE
  8
1
  6
CONTINUOUS
 62
     1
 10
 5.72086248878622E+0000
 20
 4.99312149331672E+0000
 11
 5.72086248878622E+0000
 21
 4.51116547450511E+0000
  0
LINE
  8
1
  6
CONTINUOUS
 62
     1
 10
 5.72086248878622E+0000
 20
 4.51116547450511E+0000
 11
 4.13286812764272E+0000
 21
 4.51116547450511E+0000
  0
LINE
  8
1
  6
CONTINUOUS
 62
     1
 10
 4.13286812764272E+0000
 20
 4.51116547450511E+0000
 11
 4.13286812764272E+0000
 21
 4.99312149331672E+0000
  0
LINE
  8
1
  6
CONTINUOUS
 62
     1
 10
 7.07932081988838E+0000
 20
 4.98889606456942E+0000
 11
 7.07932081988838E+0000
 21
 4.51405392060406E+0000
  0
LINE
  8
1
  6
CONTINUOUS
 62
     1
 10
 7.07932081988838E+0000
 20
 4.51405392060406E+0000
 11
 7.55299340192141E+0000
 21
 4.51405392060406E+0000
  0
LINE
  8
1
  6
CONTINUOUS
 62
     1
 10
 7.55299340192141E+0000
 20
 4.51405392060406E+0000
 11
 7.55299340192141E+0000
 21
 4.98889606456942E+0000
  0
LINE
  8
1
  6
CONTINUOUS
 62
     1
 10
 7.55299340192141E+0000
 20
 4.98889606456942E+0000
 11
 7.07932081988838E+0000
 21
 4.98889606456942E+0000
  0
LINE
  8
1
  6
CONTINUOUS
 62
     1
 10
 4.13286812764272E+0000
 20
 3.55996156788751E+0000
 11
 5.72086248878622E+0000
 21
 3.55996156788751E+0000
  0
LINE
  8
1
  6
CONTINUOUS
 62
     1
 10
 5.72086248878622E+0000
 20
 3.55996156788751E+0000
 11
 5.72086248878622E+0000
 21
 3.07800554907590E+0000
  0
LINE
  8
1
  6
CONTINUOUS
 62
     1
 10
 5.72086248878622E+0000
 20
 3.07800554907590E+0000
 11
 4.13286812764272E+0000
 21
 3.07800554907590E+0000
  0
LINE
  8
1
  6
CONTINUOUS
 62
     1
 10
 4.13286812764272E+0000
 20
 3.07800554907590E+0000
 11
 4.13286812764272E+0000
 21
 3.55996156788751E+0000
  0
LINE
  8
1
  6
DASHDOT
 62
     1
 10
 4.70113145285723E+0000
 20
 3.60254309103766E+0000
 11
 4.70113145285723E+0000
 21
 3.04050266245031E+0000
  0
LINE
  8
1
  6
DASHDOT
 62
     1
 10
 5.48714930810820E+0000
 20
 3.59703289075696E+0000
 11
 5.48714930810820E+0000
 21
 3.01295166104683E+0000
  0
LINE
  8
1
  6
DASHDOT
 62
     1
 10
 4.26140118417970E+0000
 20
 3.31601267646329E+0000
 11
 4.51424608867092E+0000
 21
 3.31601267646329E+0000
  0
LINE
  8
1
  6
DASHDOT
 62
     1
 10
 4.37133375135454E+0000
 20
 3.45376768346614E+0000
 11
 4.37133375135454E+0000
 21
 3.13417606721487E+0000
  0
LINE
  8
1
  6
DASHDOT
 62
     1
 10
 7.02070862009714E+0000
 20
 4.75417494960857E+0000
 11
 7.62533773951873E+0000
 21
 4.75417494960857E+0000
  0
LINE
  8
1
  6
DASHDOT
 62
     1
 10
 4.36583712299034E+0000
 20
 5.04621556446364E+0000
 11
 4.36583712299034E+0000
 21
 4.45111393419938E+0000
  0
LINE
  8
1
  6
DASHDOT
 62
     1
 10
 4.60219214240351E+0000
 20
 4.75417494960857E+0000
 11
 4.81656064838171E+0000
 21
 4.75417494960857E+0000
  0
LINE
  8
1
  6
DASHDOT
 62
     1
 10
 5.39920325436833E+0000
 20
 4.75417494960857E+0000
 11
 5.61906838871073E+0000
 21
 4.75417494960857E+0000
  0
LINE
  8
1
  6
DASHDOT
 62
     1
 10
 5.48714930810820E+0000
 20
 4.86988915549591E+0000
 11
 5.48714930810820E+0000
 21
 4.64948114428262E+0000
  0
LINE
  8
1
  6
DASHDOT
 62
     1
 10
 4.70113145285723E+0000
 20
 4.88090955605730E+0000
 11
 4.70113145285723E+0000
 21
 4.61090974232502E+0000
  0
CIRCLE
  8
1
  6
CONTINUOUS
 62
     1
 10
 4.70113145285723E+0000
 20
 4.75417494960857E+0000
 40
 1.97878620900156E-0001
  0
CIRCLE
  8
1
  6
CONTINUOUS
 62
     1
 10
 4.70113145285723E+0000
 20
 4.75417494960857E+0000
 40
 1.09932567167562E-0001
  0
CIRCLE
  8
1
  6
CONTINUOUS
 62
     1
 10
 5.48714930810820E+0000
 20
 4.75417494960857E+0000
 40
 1.09932567167562E-0001
  0
CIRCLE
  8
1
  6
CONTINUOUS
 62
     1
 10
 5.48714930810820E+0000
 20
 4.75417494960857E+0000
 40
 1.97878620900156E-0001
  0
CIRCLE
  8
1
  6
CONTINUOUS
 62
     1
 10
 4.37133375135454E+0000
 20
 3.31601267646329E+0000
 40
 9.89393104464398E-0002
  0
ARC
  8
1
  6
CONTINUOUS
 62
     1
 10
 4.37133375135454E+0000
 20
 3.31601267646329E+0000
 40
 1.20925823881407E-0001
 50
 4.69181060603005E+0001
 51
 3.20939888391178E+0002
  0
LINE
  8
1
  6
DASHDOT
 62
     1
 10
 4.50325283194979E+0000
 20
 3.07907406440791E+0000
 11
 4.50325283194979E+0000
 21
 3.23886987253354E+0000
  0
LINE
  8
1
  6
DASHDOT
 62
     1
 10
 4.50325283194979E+0000
 20
 3.23886987253354E+0000
 11
 4.89351344540046E+0000
 21
 3.23886987253354E+0000
  0
LINE
  8
1
  6
DASHDOT
 62
     1
 10
 4.89351344540046E+0000
 20
 3.23886987253354E+0000
 11
 4.89351344540046E+0000
 21
 3.07907406440791E+0000
  0
LINE
  8
1
  6
DASHDOT
 62
     1
 10
 5.28927068720805E+0000
 20
 3.07907406440791E+0000
 11
 5.28927068720805E+0000
 21
 3.23886987253354E+0000
  0
LINE
  8
1
  6
DASHDOT
 62
     1
 10
 5.28927068720805E+0000
 20
 3.23886987253354E+0000
 11
 5.67953130065143E+0000
 21
 3.23886987253354E+0000
  0
LINE
  8
1
  6
DASHDOT
 62
     1
 10
 5.67953130065143E+0000
 20
 3.23886987253354E+0000
 11
 5.67953130065143E+0000
 21
 3.07907406440791E+0000
  0
LINE
  8
1
  6
DASHDOT
 62
     1
 10
 4.59119888568966E+0000
 20
 3.23886987253354E+0000
 11
 4.59119888568966E+0000
 21
 3.55846148879573E+0000
  0
LINE
  8
1
  6
DASHDOT
 62
     1
 10
 4.80556739166786E+0000
 20
 3.23886987253354E+0000
 11
 4.80556739166786E+0000
 21
 3.55846148879573E+0000
  0
LINE
  8
1
  6
DASHDOT
 62
     1
 10
 5.37721674094064E+0000
 20
 3.23886987253354E+0000
 11
 5.37721674094064E+0000
 21
 3.55846148879573E+0000
  0
LINE
  8
1
  6
DASHDOT
 62
     1
 10
 5.59158524691884E+0000
 20
 3.23886987253354E+0000
 11
 5.59158524691884E+0000
 21
 3.55846148879573E+0000
  0
LINE
  8
1
  6
DASHDOT
 62
     1
 10
 7.55388157085690E+0000
 20
 4.95254215969908E+0000
 11
 7.39447934846976E+0000
 21
 4.95254215969908E+0000
  0
LINE
  8
1
  6
DASHDOT
 62
     1
 10
 7.39447934846976E+0000
 20
 4.95254215969908E+0000
 11
 7.39447934846976E+0000
 21
 4.56131793979876E+0000
  0
LINE
  8
1
  6
DASHDOT
 62
     1
 10
 7.39447934846976E+0000
 20
 4.56131793979876E+0000
 11
 7.55388157085690E+0000
 21
 4.56131793979876E+0000
  0
LINE
  8
1
  6
DASHDOT
 62
     1
 10
 7.38898272010556E+0000
 20
 4.85886875493452E+0000
 11
 7.08117153203784E+0000
 21
 4.85886875493452E+0000
  0
LINE
  8
1
  6
DASHDOT
 62
     1
 10
 7.39447934846976E+0000
 20
 4.64948114428262E+0000
 11
 7.08117153203784E+0000
 21
 4.64948114428262E+0000
  0
LINE
  8
1
  6
CONTINUOUS
 62
     1
 10
 4.13286812764272E+0000
 20
 4.99312149331672E+0000
 11
 4.13286812764272E+0000
 21
 5.33868823125522E+0000
  0
LINE
  8
1
  6
CONTINUOUS
 62
     1
 10
 4.13286812764272E+0000
 20
 5.33868823125522E+0000
 11
 5.72138491831720E+0000
 21
 5.33868823125522E+0000
  0
LINE
  8
1
  6
CONTINUOUS
 62
     1
 10
 5.72138491831720E+0000
 20
 5.33868823125522E+0000
 11
 5.72138491831720E+0000
 21
 4.99131707994820E+0000
  0
LINE
  8
1
  6
CONTINUOUS
 62
     1
 10
 5.72086248878622E+0000
 20
 3.55996156788751E+0000
 11
 5.72086248878622E+0000
 21
 3.79867612712405E+0000
  0
LINE
  8
1
  6
CONTINUOUS
 62
     1
 10
 5.72086248878622E+0000
 20
 3.79867612712405E+0000
 11
 5.48459928747616E+0000
 21
 3.79867612712405E+0000
  0
LINE
  8
1
  6
CONTINUOUS
 62
     1
 10
 5.48459928747616E+0000
 20
 3.79867612712405E+0000
 11
 5.48459928747616E+0000
 21
 3.58446391715188E+0000
  0
LINE
  8
1
  6
CONTINUOUS
 62
     1
 10
 5.48714930810820E+0000
 20
 3.01295166104683E+0000
 11
 5.48714930810820E+0000
 21
 2.84919498021191E+0000
  0
LINE
  8
1
  6
CONTINUOUS
 62
     1
 10
 5.48714930810820E+0000
 20
 2.84919498021191E+0000
 11
 4.69916402416857E+0000
 21
 2.84919498021191E+0000
  0
LINE
  8
1
  6
CONTINUOUS
 62
     1
 10
 4.69916402416857E+0000
 20
 2.84919498021191E+0000
 11
 4.69916402416857E+0000
 21
 3.05182815180888E+0000
  0
LINE
  8
1
  6
CONTINUOUS
 62
     1
 10
 7.07932081988838E+0000
 20
 4.98889606456942E+0000
 11
 7.07932081988838E+0000
 21
 5.33868823125522E+0000
  0
LINE
  8
1
  6
CONTINUOUS
 62
     1
 10
 7.07932081988838E+0000
 20
 5.33868823125522E+0000
 11
 7.55214211293060E+0000
 21
 5.33868823125522E+0000
  0
LINE
  8
1
  6
CONTINUOUS
 62
     1
 10
 7.55214211293060E+0000
 20
 5.33868823125522E+0000
 11
 7.55214211293060E+0000
 21
 4.99131707994820E+0000
  0
LINE
  8
1
  6
CONTINUOUS
 62
     1
 10
 7.07932081988838E+0000
 20
 4.98889606456942E+0000
 11
 6.66275218243391E+0000
 21
 4.98889606456942E+0000
  0
LINE
  8
1
  6
CONTINUOUS
 62
     1
 10
 6.66275218243391E+0000
 20
 4.98889606456942E+0000
 11
 6.66275218243391E+0000
 21
 4.51657650649577E+0000
  0
LINE
  8
1
  6
CONTINUOUS
 62
     1
 10
 6.66275218243391E+0000
 20
 4.51657650649577E+0000
 11
 7.07857085123396E+0000
 21
 4.51657650649577E+0000
  0
LINE
  8
1
  6
CONTINUOUS
 62
     1
 10
 4.13286812764272E+0000
 20
 4.51116547450511E+0000
 11
 4.13286812764272E+0000
 21
 4.16920535518875E+0000
  0
LINE
  8
1
  6
CONTINUOUS
 62
     1
 10
 4.13286812764272E+0000
 20
 4.16920535518875E+0000
 11
 4.36419898540771E+0000
 21
 4.16920535518875E+0000
  0
LINE
  8
1
  6
CONTINUOUS
 62
     1
 10
 4.36419898540771E+0000
 20
 4.16920535518875E+0000
 11
 4.36419898540771E+0000
 21
 4.47026035298768E+0000
  0
LINE
  8
1
  6
CONTINUOUS
 62
     1
 10
 5.37486936098867E+0000
 20
 4.75394679322198E+0000
 11
 5.37486936098867E+0000
 21
 4.19815295113222E+0000
  0
LINE
  8
1
  6
CONTINUOUS
 62
     1
 10
 5.37486936098867E+0000
 20
 4.19815295113222E+0000
 11
 5.58277869538870E+0000
 21
 4.19815295113222E+0000
  0
LINE
  8
1
  6
CONTINUOUS
 62
     1
 10
 5.58277869538870E+0000
 20
 4.19815295113222E+0000
 11
 5.58277869538870E+0000
 21
 4.75394679322198E+0000
  0
LINE
  8
1
  6
CONTINUOUS
 62
     1
 10
 5.48459928747616E+0000
 20
 4.56289266000385E+0000
 11
 6.12565306855686E+0000
 21
 4.56289266000385E+0000
  0
LINE
  8
1
  6
CONTINUOUS
 62
     1
 10
 6.12565306855686E+0000
 20
 4.56289266000385E+0000
 11
 6.12565306855686E+0000
 21
 4.95079044563317E+0000
  0
LINE
  8
1
  6
CONTINUOUS
 62
     1
 10
 6.12565306855686E+0000
 20
 4.95079044563317E+0000
 11
 5.48459928747616E+0000
 21
 4.95079044563317E+0000
  0
LINE
  8
1
  6
CONTINUOUS
 62
     1
 10
 7.55299340192141E+0000
 20
 4.51405392060406E+0000
 11
 7.55299340192141E+0000
 21
 4.19236343193916E+0000
  0
LINE
  8
1
  6
CONTINUOUS
 62
     1
 10
 7.55299340192141E+0000
 20
 4.19236343193916E+0000
 11
 7.39621011212148E+0000
 21
 4.19236343193916E+0000
  0
LINE
  8
1
  6
CONTINUOUS
 62
     1
 10
 7.39621011212148E+0000
 20
 4.19236343193916E+0000
 11
 7.39621011212148E+0000
 21
 4.55131362162501E+0000
  0
LINE
  8
1
  6
CONTINUOUS
 62
     1
 10
 4.36997424469882E+0000
 20
 3.43972593744184E+0000
 11
 3.79244831580218E+0000
 21
 3.43972593744184E+0000
  0
LINE
  8
1
  6
CONTINUOUS
 62
     1
 10
 3.79244831580218E+0000
 20
 3.43972593744184E+0000
 11
 3.79244831580218E+0000
 21
 3.20235565071562E+0000
  0
LINE
  8
1
  6
CONTINUOUS
 62
     1
 10
 3.79244831580218E+0000
 20
 3.20235565071562E+0000
 11
 4.36997424469882E+0000
 21
 3.20235565071562E+0000
  0
LINE
  8
1
  6
DASHDOT
 62
     1
 10
 4.27279447274486E+0000
 20
 4.99170970869454E+0000
 11
 4.27279447274486E+0000
 21
 4.51180336462858E+0000
  0
LINE
  8
1
  6
DASHDOT
 62
     1
 10
 4.25078415969620E+0000
 20
 4.99170970869454E+0000
 11
 4.25078415969620E+0000
 21
 4.51180336462858E+0000
  0
LINE
  8
1
  6
DASHDOT
 62
     1
 10
 4.48739502493845E+0000
 20
 4.99170970869454E+0000
 11
 4.48739502493845E+0000
 21
 4.51180336462858E+0000
  0
LINE
  8
1
  6
DASHDOT
 62
     1
 10
 4.46538471188978E+0000
 20
 4.99170970869454E+0000
 11
 4.46538471188978E+0000
 21
 4.51180336462858E+0000
  0
LINE
  8
1
  6
CONTINUOUS
 62
     1
 10
 5.47986820412189E+0000
 20
 3.79997376123720E+0000
 11
 5.47986820412189E+0000
 21
 3.79997376123720E+0000
  0
LINE
  8
1
  6
CONTINUOUS
 62
     1
 10
 5.47986820412189E+0000
 20
 3.79997376123720E+0000
 11
 5.32057887748670E+0000
 21
 3.82715528260087E+0000
  0
LINE
  8
1
  6
CONTINUOUS
 62
     1
 10
 5.32057887748670E+0000
 20
 3.82715528260087E+0000
 11
 5.32057887748670E+0000
 21
 3.76675164512926E+0000
  0
LINE
  8
1
  6
CONTINUOUS
 62
     1
 10
 5.32057887748670E+0000
 20
 3.76675164512926E+0000
 11
 5.47986820412189E+0000
 21
 3.79997376123720E+0000
  0
LINE
  8
1
  6
CONTINUOUS
 62
     1
 10
 5.32057887748670E+0000
 20
 3.82715528260087E+0000
 11
 5.32057887748670E+0000
 21
 3.76675164512926E+0000
  0
LINE
  8
1
  6
CONTINUOUS
 62
     1
 10
 5.32912380923517E+0000
 20
 3.76853381547699E+0000
 11
 5.32057887748670E+0000
 21
 3.77707874722182E+0000
  0
LINE
  8
1
  6
CONTINUOUS
 62
     1
 10
 5.34621367272484E+0000
 20
 3.77209815616879E+0000
 11
 5.32057887748670E+0000
 21
 3.79773295140694E+0000
  0
LINE
  8
1
  6
CONTINUOUS
 62
     1
 10
 5.36330353621452E+0000
 20
 3.77566249686424E+0000
 11
 5.32057887748670E+0000
 21
 3.81838715558843E+0000
  0
LINE
  8
1
  6
CONTINUOUS
 62
     1
 10
 5.38039339970419E+0000
 20
 3.77922683755969E+0000
 11
 5.33491054566548E+0000
 21
 3.82470969159476E+0000
  0
LINE
  8
1
  6
CONTINUOUS
 62
     1
 10
 5.39748326319386E+0000
 20
 3.78279117825514E+0000
 11
 5.35981440558680E+0000
 21
 3.82046003586220E+0000
  0
LINE
  8
1
  6
CONTINUOUS
 62
     1
 10
 5.41457312668354E+0000
 20
 3.78635551895059E+0000
 11
 5.38471826550813E+0000
 21
 3.81621038012599E+0000
  0
LINE
  8
1
  6
CONTINUOUS
 62
     1
 10
 5.43166299017321E+0000
 20
 3.78991985964603E+0000
 11
 5.40962212542945E+0000
 21
 3.81196072438979E+0000
  0
LINE
  8
1
  6
CONTINUOUS
 62
     1
 10
 5.44875285366288E+0000
 20
 3.79348420034148E+0000
 11
 5.43452598535077E+0000
 21
 3.80771106865723E+0000
  0
LINE
  8
1
  6
CONTINUOUS
 62
     1
 10
 5.46584271715255E+0000
 20
 3.79704854103329E+0000
 11
 5.45942984527210E+0000
 21
 3.80346141292102E+0000
  0
LINE
  8
1
  6
CONTINUOUS
 62
     1
 10
 5.47104646518710E+0000
 20
 3.80147912439497E+0000
 11
 5.46681963159790E+0000
 21
 3.79725229080941E+0000
  0
LINE
  8
1
  6
CONTINUOUS
 62
     1
 10
 5.45340298733208E+0000
 20
 3.80448985072871E+0000
 11
 5.44072248656448E+0000
 21
 3.79180934996111E+0000
  0
LINE
  8
1
  6
CONTINUOUS
 62
     1
 10
 5.43575950948434E+0000
 20
 3.80750057705882E+0000
 11
 5.41462534153834E+0000
 21
 3.78636640911645E+0000
  0
LINE
  8
1
  6
CONTINUOUS
 62
     1
 10
 5.41811603162932E+0000
 20
 3.81051130339620E+0000
 11
 5.38852819650492E+0000
 21
 3.78092346826816E+0000
  0
LINE
  8
1
  6
CONTINUOUS
 62
     1
 10
 5.40047255378158E+0000
 20
 3.81352202972994E+0000
 11
 5.36243105147878E+0000
 21
 3.77548052742713E+0000
  0
LINE
  8
1
  6
CONTINUOUS
 62
     1
 10
 5.38282907592657E+0000
 20
 3.81653275606004E+0000
 11
 5.33633390643809E+0000
 21
 3.77003758657884E+0000
  0
LINE
  8
1
  6
CONTINUOUS
 62
     1
 10
 5.36518559807155E+0000
 20
 3.81954348239378E+0000
 11
 5.32057887747942E+0000
 21
 3.77493676180165E+0000
  0
LINE
  8
1
  6
CONTINUOUS
 62
     1
 10
 5.34754212021653E+0000
 20
 3.82255420872389E+0000
 11
 5.32057887747942E+0000
 21
 3.79559096598678E+0000
  0
LINE
  8
1
  6
CONTINUOUS
 62
     1
 10
 5.32989864236151E+0000
 20
 3.82556493505763E+0000
 11
 5.32057887747942E+0000
 21
 3.81624517017190E+0000
  0
LINE
  8
1
  6
CONTINUOUS
 62
     1
 10
 5.47986820412189E+0000
 20
 3.79997376123720E+0000
 11
 5.47986820412189E+0000
 21
 3.79997376123720E+0000
  0
LINE
  8
1
  6
CONTINUOUS
 62
     1
 10
 5.47986820412189E+0000
 20
 3.79997376123720E+0000
 11
 5.32057887748670E+0000
 21
 3.82715528260087E+0000
  0
LINE
  8
1
  6
CONTINUOUS
 62
     1
 10
 5.32057887748670E+0000
 20
 3.82715528260087E+0000
 11
 5.32057887748670E+0000
 21
 3.76675164512926E+0000
  0
LINE
  8
1
  6
CONTINUOUS
 62
     1
 10
 5.32057887748670E+0000
 20
 3.76675164512926E+0000
 11
 5.47986820412189E+0000
 21
 3.79997376123720E+0000
  0
LINE
  8
1
  6
CONTINUOUS
 62
     1
 10
 5.32057887748670E+0000
 20
 3.82715528260087E+0000
 11
 5.32057887748670E+0000
 21
 3.76675164512926E+0000
  0
LINE
  8
1
  6
CONTINUOUS
 62
     1
 10
 5.32912380923517E+0000
 20
 3.76853381547699E+0000
 11
 5.32057887748670E+0000
 21
 3.77707874722182E+0000
  0
LINE
  8
1
  6
CONTINUOUS
 62
     1
 10
 5.34621367272484E+0000
 20
 3.77209815616879E+0000
 11
 5.32057887748670E+0000
 21
 3.79773295140694E+0000
  0
LINE
  8
1
  6
CONTINUOUS
 62
     1
 10
 5.36330353621452E+0000
 20
 3.77566249686424E+0000
 11
 5.32057887748670E+0000
 21
 3.81838715558843E+0000
  0
LINE
  8
1
  6
CONTINUOUS
 62
     1
 10
 5.38039339970419E+0000
 20
 3.77922683755969E+0000
 11
 5.33491054566548E+0000
 21
 3.82470969159476E+0000
  0
LINE
  8
1
  6
CONTINUOUS
 62
     1
 10
 5.39748326319386E+0000
 20
 3.78279117825514E+0000
 11
 5.35981440558680E+0000
 21
 3.82046003586220E+0000
  0
LINE
  8
1
  6
CONTINUOUS
 62
     1
 10
 5.41457312668354E+0000
 20
 3.78635551895059E+0000
 11
 5.38471826550813E+0000
 21
 3.81621038012599E+0000
  0
LINE
  8
1
  6
CONTINUOUS
 62
     1
 10
 5.43166299017321E+0000
 20
 3.78991985964603E+0000
 11
 5.40962212542945E+0000
 21
 3.81196072438979E+0000
  0
LINE
  8
1
  6
CONTINUOUS
 62
     1
 10
 5.44875285366288E+0000
 20
 3.79348420034148E+0000
 11
 5.43452598535077E+0000
 21
 3.80771106865723E+0000
  0
LINE
  8
1
  6
CONTINUOUS
 62
     1
 10
 5.46584271715255E+0000
 20
 3.79704854103329E+0000
 11
 5.45942984527210E+0000
 21
 3.80346141292102E+0000
  0
LINE
  8
1
  6
CONTINUOUS
 62
     1
 10
 5.47104646518710E+0000
 20
 3.80147912439497E+0000
 11
 5.46681963159790E+0000
 21
 3.79725229080941E+0000
  0
LINE
  8
1
  6
CONTINUOUS
 62
     1
 10
 5.45340298733208E+0000
 20
 3.80448985072871E+0000
 11
 5.44072248656448E+0000
 21
 3.79180934996111E+0000
  0
LINE
  8
1
  6
CONTINUOUS
 62
     1
 10
 5.43575950948434E+0000
 20
 3.80750057705882E+0000
 11
 5.41462534153834E+0000
 21
 3.78636640911645E+0000
  0
LINE
  8
1
  6
CONTINUOUS
 62
     1
 10
 5.41811603162932E+0000
 20
 3.81051130339620E+0000
 11
 5.38852819650492E+0000
 21
 3.78092346826816E+0000
  0
LINE
  8
1
  6
CONTINUOUS
 62
     1
 10
 5.40047255378158E+0000
 20
 3.81352202972994E+0000
 11
 5.36243105147878E+0000
 21
 3.77548052742713E+0000
  0
LINE
  8
1
  6
CONTINUOUS
 62
     1
 10
 5.38282907592657E+0000
 20
 3.81653275606004E+0000
 11
 5.33633390643809E+0000
 21
 3.77003758657884E+0000
  0
LINE
  8
1
  6
CONTINUOUS
 62
     1
 10
 5.36518559807155E+0000
 20
 3.81954348239378E+0000
 11
 5.32057887747942E+0000
 21
 3.77493676180165E+0000
  0
LINE
  8
1
  6
CONTINUOUS
 62
     1
 10
 5.34754212021653E+0000
 20
 3.82255420872389E+0000
 11
 5.32057887747942E+0000
 21
 3.79559096598678E+0000
  0
LINE
  8
1
  6
CONTINUOUS
 62
     1
 10
 5.32989864236151E+0000
 20
 3.82556493505763E+0000
 11
 5.32057887747942E+0000
 21
 3.81624517017190E+0000
  0
LINE
  8
1
  6
CONTINUOUS
 62
     1
 10
 5.72131464793347E+0000
 20
 3.79895086404940E+0000
 11
 5.72131464793347E+0000
 21
 3.79895086404940E+0000
  0
LINE
  8
1
  6
CONTINUOUS
 62
     1
 10
 5.72131464793347E+0000
 20
 3.79895086404940E+0000
 11
 5.88060397458321E+0000
 21
 3.77176934268573E+0000
  0
LINE
  8
1
  6
CONTINUOUS
 62
     1
 10
 5.88060397458321E+0000
 20
 3.77176934268573E+0000
 11
 5.88060397458321E+0000
 21
 3.83217298015734E+0000
  0
LINE
  8
1
  6
CONTINUOUS
 62
     1
 10
 5.88060397458321E+0000
 20
 3.83217298015734E+0000
 11
 5.72131464793347E+0000
 21
 3.79895086404940E+0000
  0
LINE
  8
1
  6
CONTINUOUS
 62
     1
 10
 5.88060397458321E+0000
 20
 3.77176934268573E+0000
 11
 5.88060397458321E+0000
 21
 3.83217298015734E+0000
  0
LINE
  8
1
  6
CONTINUOUS
 62
     1
 10
 5.73376657789777E+0000
 20
 3.79682603618494E+0000
 11
 5.72985957968194E+0000
 21
 3.80073303440076E+0000
  0
LINE
  8
1
  6
CONTINUOUS
 62
     1
 10
 5.75867043781909E+0000
 20
 3.79257638044874E+0000
 11
 5.74694944317162E+0000
 21
 3.80429737509621E+0000
  0
LINE
  8
1
  6
CONTINUOUS
 62
     1
 10
 5.78357429774042E+0000
 20
 3.78832672471617E+0000
 11
 5.76403930666129E+0000
 21
 3.80786171578802E+0000
  0
LINE
  8
1
  6
CONTINUOUS
 62
     1
 10
 5.80847815766174E+0000
 20
 3.78407706897997E+0000
 11
 5.78112917015824E+0000
 21
 3.81142605648347E+0000
  0
LINE
  8
1
  6
CONTINUOUS
 62
     1
 10
 5.83338201758306E+0000
 20
 3.77982741324377E+0000
 11
 5.79821903364791E+0000
 21
 3.81499039717892E+0000
  0
LINE
  8
1
  6
CONTINUOUS
 62
     1
 10
 5.85828587749711E+0000
 20
 3.77557775751120E+0000
 11
 5.81530889713758E+0000
 21
 3.81855473787073E+0000
  0
LINE
  8
1
  6
CONTINUOUS
 62
     1
 10
 5.88060397458321E+0000
 20
 3.77391386461022E+0000
 11
 5.83239876062726E+0000
 21
 3.82211907856617E+0000
  0
LINE
  8
1
  6
CONTINUOUS
 62
     1
 10
 5.88060397458321E+0000
 20
 3.79456806879534E+0000
 11
 5.84948862411693E+0000
 21
 3.82568341926162E+0000
  0
LINE
  8
1
  6
CONTINUOUS
 62
     1
 10
 5.88060397458321E+0000
 20
 3.81522227298046E+0000
 11
 5.86657848761388E+0000
 21
 3.82924775995343E+0000
  0
LINE
  8
1
  6
CONTINUOUS
 62
     1
 10
 5.88060397457593E+0000
 20
 3.78209644477829E+0000
 11
 5.87178223564842E+0000
 21
 3.77327470585078E+0000
  0
LINE
  8
1
  6
CONTINUOUS
 62
     1
 10
 5.88060397457593E+0000
 20
 3.80275064896341E+0000
 11
 5.85413875780068E+0000
 21
 3.77628543218088E+0000
  0
LINE
  8
1
  6
CONTINUOUS
 62
     1
 10
 5.88060397457593E+0000
 20
 3.82340485314853E+0000
 11
 5.83649527994567E+0000
 21
 3.77929615851463E+0000
  0
LINE
  8
1
  6
CONTINUOUS
 62
     1
 10
 5.86558559491823E+0000
 20
 3.82904067767595E+0000
 11
 5.81885180209065E+0000
 21
 3.78230688484473E+0000
  0
LINE
  8
1
  6
CONTINUOUS
 62
     1
 10
 5.83948844988481E+0000
 20
 3.82359773682765E+0000
 11
 5.80120832423563E+0000
 21
 3.78531761117847E+0000
  0
LINE
  8
1
  6
CONTINUOUS
 62
     1
 10
 5.81339130485867E+0000
 20
 3.81815479598299E+0000
 11
 5.78356484638061E+0000
 21
 3.78832833750857E+0000
  0
LINE
  8
1
  6
CONTINUOUS
 62
     1
 10
 5.78729415982525E+0000
 20
 3.81271185513469E+0000
 11
 5.76592136853287E+0000
 21
 3.79133906384232E+0000
  0
LINE
  8
1
  6
CONTINUOUS
 62
     1
 10
 5.76119701479183E+0000
 20
 3.80726891429003E+0000
 11
 5.74827789067785E+0000
 21
 3.79434979017242E+0000
  0
LINE
  8
1
  6
CONTINUOUS
 62
     1
 10
 5.73509986975841E+0000
 20
 3.80182597344174E+0000
 11
 5.73063441282284E+0000
 21
 3.79736051650616E+0000
  0
LINE
  8
1
  6
CONTINUOUS
 62
     1
 10
 5.72131464793347E+0000
 20
 3.79895086404940E+0000
 11
 5.72131464793347E+0000
 21
 3.79895086404940E+0000
  0
LINE
  8
1
  6
CONTINUOUS
 62
     1
 10
 5.72131464793347E+0000
 20
 3.79895086404940E+0000
 11
 5.88060397458321E+0000
 21
 3.77176934268573E+0000
  0
LINE
  8
1
  6
CONTINUOUS
 62
     1
 10
 5.88060397458321E+0000
 20
 3.77176934268573E+0000
 11
 5.88060397458321E+0000
 21
 3.83217298015734E+0000
  0
LINE
  8
1
  6
CONTINUOUS
 62
     1
 10
 5.88060397458321E+0000
 20
 3.83217298015734E+0000
 11
 5.72131464793347E+0000
 21
 3.79895086404940E+0000
  0
LINE
  8
1
  6
CONTINUOUS
 62
     1
 10
 5.88060397458321E+0000
 20
 3.77176934268573E+0000
 11
 5.88060397458321E+0000
 21
 3.83217298015734E+0000
  0
LINE
  8
1
  6
CONTINUOUS
 62
     1
 10
 5.73376657789777E+0000
 20
 3.79682603618494E+0000
 11
 5.72985957968194E+0000
 21
 3.80073303440076E+0000
  0
LINE
  8
1
  6
CONTINUOUS
 62
     1
 10
 5.75867043781909E+0000
 20
 3.79257638044874E+0000
 11
 5.74694944317162E+0000
 21
 3.80429737509621E+0000
  0
LINE
  8
1
  6
CONTINUOUS
 62
     1
 10
 5.78357429774042E+0000
 20
 3.78832672471617E+0000
 11
 5.76403930666129E+0000
 21
 3.80786171578802E+0000
  0
LINE
  8
1
  6
CONTINUOUS
 62
     1
 10
 5.80847815766174E+0000
 20
 3.78407706897997E+0000
 11
 5.78112917015824E+0000
 21
 3.81142605648347E+0000
  0
LINE
  8
1
  6
CONTINUOUS
 62
     1
 10
 5.83338201758306E+0000
 20
 3.77982741324377E+0000
 11
 5.79821903364791E+0000
 21
 3.81499039717892E+0000
  0
LINE
  8
1
  6
CONTINUOUS
 62
     1
 10
 5.85828587749711E+0000
 20
 3.77557775751120E+0000
 11
 5.81530889713758E+0000
 21
 3.81855473787073E+0000
  0
LINE
  8
1
  6
CONTINUOUS
 62
     1
 10
 5.88060397458321E+0000
 20
 3.77391386461022E+0000
 11
 5.83239876062726E+0000
 21
 3.82211907856617E+0000
  0
LINE
  8
1
  6
CONTINUOUS
 62
     1
 10
 5.88060397458321E+0000
 20
 3.79456806879534E+0000
 11
 5.84948862411693E+0000
 21
 3.82568341926162E+0000
  0
LINE
  8
1
  6
CONTINUOUS
 62
     1
 10
 5.88060397458321E+0000
 20
 3.81522227298046E+0000
 11
 5.86657848761388E+0000
 21
 3.82924775995343E+0000
  0
LINE
  8
1
  6
CONTINUOUS
 62
     1
 10
 5.88060397457593E+0000
 20
 3.78209644477829E+0000
 11
 5.87178223564842E+0000
 21
 3.77327470585078E+0000
  0
LINE
  8
1
  6
CONTINUOUS
 62
     1
 10
 5.88060397457593E+0000
 20
 3.80275064896341E+0000
 11
 5.85413875780068E+0000
 21
 3.77628543218088E+0000
  0
LINE
  8
1
  6
CONTINUOUS
 62
     1
 10
 5.88060397457593E+0000
 20
 3.82340485314853E+0000
 11
 5.83649527994567E+0000
 21
 3.77929615851463E+0000
  0
LINE
  8
1
  6
CONTINUOUS
 62
     1
 10
 5.86558559491823E+0000
 20
 3.82904067767595E+0000
 11
 5.81885180209065E+0000
 21
 3.78230688484473E+0000
  0
LINE
  8
1
  6
CONTINUOUS
 62
     1
 10
 5.83948844988481E+0000
 20
 3.82359773682765E+0000
 11
 5.80120832423563E+0000
 21
 3.78531761117847E+0000
  0
LINE
  8
1
  6
CONTINUOUS
 62
     1
 10
 5.81339130485867E+0000
 20
 3.81815479598299E+0000
 11
 5.78356484638061E+0000
 21
 3.78832833750857E+0000
  0
LINE
  8
1
  6
CONTINUOUS
 62
     1
 10
 5.78729415982525E+0000
 20
 3.81271185513469E+0000
 11
 5.76592136853287E+0000
 21
 3.79133906384232E+0000
  0
LINE
  8
1
  6
CONTINUOUS
 62
     1
 10
 5.76119701479183E+0000
 20
 3.80726891429003E+0000
 11
 5.74827789067785E+0000
 21
 3.79434979017242E+0000
  0
LINE
  8
1
  6
CONTINUOUS
 62
     1
 10
 5.73509986975841E+0000
 20
 3.80182597344174E+0000
 11
 5.73063441282284E+0000
 21
 3.79736051650616E+0000
  0
LINE
  8
1
  6
CONTINUOUS
 62
     1
 10
 5.58375019140658E+0000
 20
 4.19611473500845E+0000
 11
 5.58375019140658E+0000
 21
 4.19611473500845E+0000
  0
LINE
  8
1
  6
CONTINUOUS
 62
     1
 10
 5.58375019140658E+0000
 20
 4.19611473500845E+0000
 11
 5.74303951805632E+0000
 21
 4.16893321364478E+0000
  0
LINE
  8
1
  6
CONTINUOUS
 62
     1
 10
 5.74303951805632E+0000
 20
 4.16893321364478E+0000
 11
 5.74303951805632E+0000
 21
 4.22933685111639E+0000
  0
LINE
  8
1
  6
CONTINUOUS
 62
     1
 10
 5.74303951805632E+0000
 20
 4.22933685111639E+0000
 11
 5.58375019140658E+0000
 21
 4.19611473500845E+0000
  0
LINE
  8
1
  6
CONTINUOUS
 62
     1
 10
 5.74303951805632E+0000
 20
 4.16893321364478E+0000
 11
 5.74303951805632E+0000
 21
 4.22933685111639E+0000
  0
LINE
  8
1
  6
CONTINUOUS
 62
     1
 10
 5.59620212137088E+0000
 20
 4.19398990714399E+0000
 11
 5.59229512315505E+0000
 21
 4.19789690535254E+0000
  0
LINE
  8
1
  6
CONTINUOUS
 62
     1
 10
 5.62110598128493E+0000
 20
 4.18974025140778E+0000
 11
 5.60938498664473E+0000
 21
 4.20146124604798E+0000
  0
LINE
  8
1
  6
CONTINUOUS
 62
     1
 10
 5.64600984120625E+0000
 20
 4.18549059567158E+0000
 11
 5.62647485013440E+0000
 21
 4.20502558674343E+0000
  0
LINE
  8
1
  6
CONTINUOUS
 62
     1
 10
 5.67091370112757E+0000
 20
 4.18124093994265E+0000
 11
 5.64356471362407E+0000
 21
 4.20858992743888E+0000
  0
LINE
  8
1
  6
CONTINUOUS
 62
     1
 10
 5.69581756104890E+0000
 20
 4.17699128420645E+0000
 11
 5.66065457711375E+0000
 21
 4.21215426813433E+0000
  0
LINE
  8
1
  6
CONTINUOUS
 62
     1
 10
 5.72072142096295E+0000
 20
 4.17274162847025E+0000
 11
 5.67774444061070E+0000
 21
 4.21571860882977E+0000
  0
LINE
  8
1
  6
CONTINUOUS
 62
     1
 10
 5.74303951805632E+0000
 20
 4.17107773556199E+0000
 11
 5.69483430410037E+0000
 21
 4.21928294952522E+0000
  0
LINE
  8
1
  6
CONTINUOUS
 62
     1
 10
 5.74303951805632E+0000
 20
 4.19173193974711E+0000
 11
 5.71192416759004E+0000
 21
 4.22284729021339E+0000
  0
LINE
  8
1
  6
CONTINUOUS
 62
     1
 10
 5.74303951805632E+0000
 20
 4.21238614393224E+0000
 11
 5.72901403107971E+0000
 21
 4.22641163090884E+0000
  0
LINE
  8
1
  6
CONTINUOUS
 62
     1
 10
 5.74303951804905E+0000
 20
 4.17926031573006E+0000
 11
 5.73421777912154E+0000
 21
 4.17043857680255E+0000
  0
LINE
  8
1
  6
CONTINUOUS
 62
     1
 10
 5.74303951804905E+0000
 20
 4.19991451991518E+0000
 11
 5.71657430126652E+0000
 21
 4.17344930313993E+0000
  0
LINE
  8
1
  6
CONTINUOUS
 62
     1
 10
 5.74303951804905E+0000
 20
 4.22056872410030E+0000
 11
 5.69893082341878E+0000
 21
 4.17646002947004E+0000
  0
LINE
  8
1
  6
CONTINUOUS
 62
     1
 10
 5.72802113839862E+0000
 20
 4.22620454863500E+0000
 11
 5.68128734557104E+0000
 21
 4.17947075580742E+0000
  0
LINE
  8
1
  6
CONTINUOUS
 62
     1
 10
 5.70192399336520E+0000
 20
 4.22076160779397E+0000
 11
 5.66364386771602E+0000
 21
 4.18248148213752E+0000
  0
LINE
  8
1
  6
CONTINUOUS
 62
     1
 10
 5.67582684833178E+0000
 20
 4.21531866694568E+0000
 11
 5.64600038986100E+0000
 21
 4.18549220846762E+0000
  0
LINE
  8
1
  6
CONTINUOUS
 62
     1
 10
 5.64972970330564E+0000
 20
 4.20987572609738E+0000
 11
 5.62835691200598E+0000
 21
 4.18850293480500E+0000
  0
LINE
  8
1
  6
CONTINUOUS
 62
     1
 10
 5.62363255827222E+0000
 20
 4.20443278524908E+0000
 11
 5.61071343415097E+0000
 21
 4.19151366113510E+0000
  0
LINE
  8
1
  6
CONTINUOUS
 62
     1
 10
 5.59753541324608E+0000
 20
 4.19898984440806E+0000
 11
 5.59306995630322E+0000
 21
 4.19452438746521E+0000
  0
LINE
  8
1
  6
CONTINUOUS
 62
     1
 10
 5.58375019140658E+0000
 20
 4.19611473500845E+0000
 11
 5.58375019140658E+0000
 21
 4.19611473500845E+0000
  0
LINE
  8
1
  6
CONTINUOUS
 62
     1
 10
 5.58375019140658E+0000
 20
 4.19611473500845E+0000
 11
 5.74303951805632E+0000
 21
 4.16893321364478E+0000
  0
LINE
  8
1
  6
CONTINUOUS
 62
     1
 10
 5.74303951805632E+0000
 20
 4.16893321364478E+0000
 11
 5.74303951805632E+0000
 21
 4.22933685111639E+0000
  0
LINE
  8
1
  6
CONTINUOUS
 62
     1
 10
 5.74303951805632E+0000
 20
 4.22933685111639E+0000
 11
 5.58375019140658E+0000
 21
 4.19611473500845E+0000
  0
LINE
  8
1
  6
CONTINUOUS
 62
     1
 10
 5.74303951805632E+0000
 20
 4.16893321364478E+0000
 11
 5.74303951805632E+0000
 21
 4.22933685111639E+0000
  0
LINE
  8
1
  6
CONTINUOUS
 62
     1
 10
 5.59620212137088E+0000
 20
 4.19398990714399E+0000
 11
 5.59229512315505E+0000
 21
 4.19789690535254E+0000
  0
LINE
  8
1
  6
CONTINUOUS
 62
     1
 10
 5.62110598128493E+0000
 20
 4.18974025140778E+0000
 11
 5.60938498664473E+0000
 21
 4.20146124604798E+0000
  0
LINE
  8
1
  6
CONTINUOUS
 62
     1
 10
 5.64600984120625E+0000
 20
 4.18549059567158E+0000
 11
 5.62647485013440E+0000
 21
 4.20502558674343E+0000
  0
LINE
  8
1
  6
CONTINUOUS
 62
     1
 10
 5.67091370112757E+0000
 20
 4.18124093994265E+0000
 11
 5.64356471362407E+0000
 21
 4.20858992743888E+0000
  0
LINE
  8
1
  6
CONTINUOUS
 62
     1
 10
 5.69581756104890E+0000
 20
 4.17699128420645E+0000
 11
 5.66065457711375E+0000
 21
 4.21215426813433E+0000
  0
LINE
  8
1
  6
CONTINUOUS
 62
     1
 10
 5.72072142096295E+0000
 20
 4.17274162847025E+0000
 11
 5.67774444061070E+0000
 21
 4.21571860882977E+0000
  0
LINE
  8
1
  6
CONTINUOUS
 62
     1
 10
 5.74303951805632E+0000
 20
 4.17107773556199E+0000
 11
 5.69483430410037E+0000
 21
 4.21928294952522E+0000
  0
LINE
  8
1
  6
CONTINUOUS
 62
     1
 10
 5.74303951805632E+0000
 20
 4.19173193974711E+0000
 11
 5.71192416759004E+0000
 21
 4.22284729021339E+0000
  0
LINE
  8
1
  6
CONTINUOUS
 62
     1
 10
 5.74303951805632E+0000
 20
 4.21238614393224E+0000
 11
 5.72901403107971E+0000
 21
 4.22641163090884E+0000
  0
LINE
  8
1
  6
CONTINUOUS
 62
     1
 10
 5.74303951804905E+0000
 20
 4.17926031573006E+0000
 11
 5.73421777912154E+0000
 21
 4.17043857680255E+0000
  0
LINE
  8
1
  6
CONTINUOUS
 62
     1
 10
 5.74303951804905E+0000
 20
 4.19991451991518E+0000
 11
 5.71657430126652E+0000
 21
 4.17344930313993E+0000
  0
LINE
  8
1
  6
CONTINUOUS
 62
     1
 10
 5.74303951804905E+0000
 20
 4.22056872410030E+0000
 11
 5.69893082341878E+0000
 21
 4.17646002947004E+0000
  0
LINE
  8
1
  6
CONTINUOUS
 62
     1
 10
 5.72802113839862E+0000
 20
 4.22620454863500E+0000
 11
 5.68128734557104E+0000
 21
 4.17947075580742E+0000
  0
LINE
  8
1
  6
CONTINUOUS
 62
     1
 10
 5.70192399336520E+0000
 20
 4.22076160779397E+0000
 11
 5.66364386771602E+0000
 21
 4.18248148213752E+0000
  0
LINE
  8
1
  6
CONTINUOUS
 62
     1
 10
 5.67582684833178E+0000
 20
 4.21531866694568E+0000
 11
 5.64600038986100E+0000
 21
 4.18549220846762E+0000
  0
LINE
  8
1
  6
CONTINUOUS
 62
     1
 10
 5.64972970330564E+0000
 20
 4.20987572609738E+0000
 11
 5.62835691200598E+0000
 21
 4.18850293480500E+0000
  0
LINE
  8
1
  6
CONTINUOUS
 62
     1
 10
 5.62363255827222E+0000
 20
 4.20443278524908E+0000
 11
 5.61071343415097E+0000
 21
 4.19151366113510E+0000
  0
LINE
  8
1
  6
CONTINUOUS
 62
     1
 10
 5.59753541324608E+0000
 20
 4.19898984440806E+0000
 11
 5.59306995630322E+0000
 21
 4.19452438746521E+0000
  0
LINE
  8
1
  6
CONTINUOUS
 62
     1
 10
 5.37531921714981E+0000
 20
 4.19713763219625E+0000
 11
 5.37531921714981E+0000
 21
 4.19713763219625E+0000
  0
LINE
  8
1
  6
CONTINUOUS
 62
     1
 10
 5.37531921714981E+0000
 20
 4.19713763219625E+0000
 11
 5.21602989051462E+0000
 21
 4.22431915355992E+0000
  0
LINE
  8
1
  6
CONTINUOUS
 62
     1
 10
 5.21602989051462E+0000
 20
 4.22431915355992E+0000
 11
 5.21602989051462E+0000
 21
 4.16391551608831E+0000
  0
LINE
  8
1
  6
CONTINUOUS
 62
     1
 10
 5.21602989051462E+0000
 20
 4.16391551608831E+0000
 11
 5.37531921714981E+0000
 21
 4.19713763219625E+0000
  0
LINE
  8
1
  6
CONTINUOUS
 62
     1
 10
 5.21602989051462E+0000
 20
 4.22431915355992E+0000
 11
 5.21602989051462E+0000
 21
 4.16391551608831E+0000
  0
LINE
  8
1
  6
CONTINUOUS
 62
     1
 10
 5.22457482225582E+0000
 20
 4.16569768643240E+0000
 11
 5.21602989051462E+0000
 21
 4.17424261818087E+0000
  0
LINE
  8
1
  6
CONTINUOUS
 62
     1
 10
 5.24166468575277E+0000
 20
 4.16926202712784E+0000
 11
 5.21602989051462E+0000
 21
 4.19489682236599E+0000
  0
LINE
  8
1
  6
CONTINUOUS
 62
     1
 10
 5.25875454924244E+0000
 20
 4.17282636782329E+0000
 11
 5.21602989051462E+0000
 21
 4.21555102655111E+0000
  0
LINE
  8
1
  6
CONTINUOUS
 62
     1
 10
 5.27584441273211E+0000
 20
 4.17639070851874E+0000
 11
 5.23036155869340E+0000
 21
 4.22187356255745E+0000
  0
LINE
  8
1
  6
CONTINUOUS
 62
     1
 10
 5.29293427622179E+0000
 20
 4.17995504921419E+0000
 11
 5.25526541861473E+0000
 21
 4.21762390682125E+0000
  0
LINE
  8
1
  6
CONTINUOUS
 62
     1
 10
 5.31002413971146E+0000
 20
 4.18351938990963E+0000
 11
 5.28016927853605E+0000
 21
 4.21337425108504E+0000
  0
LINE
  8
1
  6
CONTINUOUS
 62
     1
 10
 5.32711400320113E+0000
 20
 4.18708373060508E+0000
 11
 5.30507313845737E+0000
 21
 4.20912459534884E+0000
  0
LINE
  8
1
  6
CONTINUOUS
 62
     1
 10
 5.34420386669080E+0000
 20
 4.19064807130053E+0000
 11
 5.32997699837870E+0000
 21
 4.20487493961264E+0000
  0
LINE
  8
1
  6
CONTINUOUS
 62
     1
 10
 5.36129373018048E+0000
 20
 4.19421241199598E+0000
 11
 5.35488085830002E+0000
 21
 4.20062528387643E+0000
  0
LINE
  8
1
  6
CONTINUOUS
 62
     1
 10
 5.36649747821502E+0000
 20
 4.19864299535402E+0000
 11
 5.36227064462582E+0000
 21
 4.19441616176482E+0000
  0
LINE
  8
1
  6
CONTINUOUS
 62
     1
 10
 5.34885400036001E+0000
 20
 4.20165372168412E+0000
 11
 5.33617349959241E+0000
 21
 4.18897322091652E+0000
  0
LINE
  8
1
  6
CONTINUOUS
 62
     1
 10
 5.33121052251227E+0000
 20
 4.20466444802150E+0000
 11
 5.31007635456626E+0000
 21
 4.18353028007550E+0000
  0
LINE
  8
1
  6
CONTINUOUS
 62
     1
 10
 5.31356704465725E+0000
 20
 4.20767517435888E+0000
 11
 5.28397920953284E+0000
 21
 4.17808733922720E+0000
  0
LINE
  8
1
  6
CONTINUOUS
 62
     1
 10
 5.29592356680951E+0000
 20
 4.21068590068899E+0000
 11
 5.25788206450670E+0000
 21
 4.17264439838618E+0000
  0
LINE
  8
1
  6
CONTINUOUS
 62
     1
 10
 5.27828008895449E+0000
 20
 4.21369662701909E+0000
 11
 5.23178491946601E+0000
 21
 4.16720145753789E+0000
  0
LINE
  8
1
  6
CONTINUOUS
 62
     1
 10
 5.26063661109947E+0000
 20
 4.21670735334919E+0000
 11
 5.21602989050734E+0000
 21
 4.17210063276434E+0000
  0
LINE
  8
1
  6
CONTINUOUS
 62
     1
 10
 5.24299313324445E+0000
 20
 4.21971807968657E+0000
 11
 5.21602989050734E+0000
 21
 4.19275483694946E+0000
  0
LINE
  8
1
  6
CONTINUOUS
 62
     1
 10
 5.22534965538944E+0000
 20
 4.22272880601668E+0000
 11
 5.21602989050734E+0000
 21
 4.21340904113458E+0000
  0
LINE
  8
1
  6
CONTINUOUS
 62
     1
 10
 5.37531921714981E+0000
 20
 4.19713763219625E+0000
 11
 5.37531921714981E+0000
 21
 4.19713763219625E+0000
  0
LINE
  8
1
  6
CONTINUOUS
 62
     1
 10
 5.37531921714981E+0000
 20
 4.19713763219625E+0000
 11
 5.21602989051462E+0000
 21
 4.22431915355992E+0000
  0
LINE
  8
1
  6
CONTINUOUS
 62
     1
 10
 5.21602989051462E+0000
 20
 4.22431915355992E+0000
 11
 5.21602989051462E+0000
 21
 4.16391551608831E+0000
  0
LINE
  8
1
  6
CONTINUOUS
 62
     1
 10
 5.21602989051462E+0000
 20
 4.16391551608831E+0000
 11
 5.37531921714981E+0000
 21
 4.19713763219625E+0000
  0
LINE
  8
1
  6
CONTINUOUS
 62
     1
 10
 5.21602989051462E+0000
 20
 4.22431915355992E+0000
 11
 5.21602989051462E+0000
 21
 4.16391551608831E+0000
  0
LINE
  8
1
  6
CONTINUOUS
 62
     1
 10
 5.22457482225582E+0000
 20
 4.16569768643240E+0000
 11
 5.21602989051462E+0000
 21
 4.17424261818087E+0000
  0
LINE
  8
1
  6
CONTINUOUS
 62
     1
 10
 5.24166468575277E+0000
 20
 4.16926202712784E+0000
 11
 5.21602989051462E+0000
 21
 4.19489682236599E+0000
  0
LINE
  8
1
  6
CONTINUOUS
 62
     1
 10
 5.25875454924244E+0000
 20
 4.17282636782329E+0000
 11
 5.21602989051462E+0000
 21
 4.21555102655111E+0000
  0
LINE
  8
1
  6
CONTINUOUS
 62
     1
 10
 5.27584441273211E+0000
 20
 4.17639070851874E+0000
 11
 5.23036155869340E+0000
 21
 4.22187356255745E+0000
  0
LINE
  8
1
  6
CONTINUOUS
 62
     1
 10
 5.29293427622179E+0000
 20
 4.17995504921419E+0000
 11
 5.25526541861473E+0000
 21
 4.21762390682125E+0000
  0
LINE
  8
1
  6
CONTINUOUS
 62
     1
 10
 5.31002413971146E+0000
 20
 4.18351938990963E+0000
 11
 5.28016927853605E+0000
 21
 4.21337425108504E+0000
  0
LINE
  8
1
  6
CONTINUOUS
 62
     1
 10
 5.32711400320113E+0000
 20
 4.18708373060508E+0000
 11
 5.30507313845737E+0000
 21
 4.20912459534884E+0000
  0
LINE
  8
1
  6
CONTINUOUS
 62
     1
 10
 5.34420386669080E+0000
 20
 4.19064807130053E+0000
 11
 5.32997699837870E+0000
 21
 4.20487493961264E+0000
  0
LINE
  8
1
  6
CONTINUOUS
 62
     1
 10
 5.36129373018048E+0000
 20
 4.19421241199598E+0000
 11
 5.35488085830002E+0000
 21
 4.20062528387643E+0000
  0
LINE
  8
1
  6
CONTINUOUS
 62
     1
 10
 5.36649747821502E+0000
 20
 4.19864299535402E+0000
 11
 5.36227064462582E+0000
 21
 4.19441616176482E+0000
  0
LINE
  8
1
  6
CONTINUOUS
 62
     1
 10
 5.34885400036001E+0000
 20
 4.20165372168412E+0000
 11
 5.33617349959241E+0000
 21
 4.18897322091652E+0000
  0
LINE
  8
1
  6
CONTINUOUS
 62
     1
 10
 5.33121052251227E+0000
 20
 4.20466444802150E+0000
 11
 5.31007635456626E+0000
 21
 4.18353028007550E+0000
  0
LINE
  8
1
  6
CONTINUOUS
 62
     1
 10
 5.31356704465725E+0000
 20
 4.20767517435888E+0000
 11
 5.28397920953284E+0000
 21
 4.17808733922720E+0000
  0
LINE
  8
1
  6
CONTINUOUS
 62
     1
 10
 5.29592356680951E+0000
 20
 4.21068590068899E+0000
 11
 5.25788206450670E+0000
 21
 4.17264439838618E+0000
  0
LINE
  8
1
  6
CONTINUOUS
 62
     1
 10
 5.27828008895449E+0000
 20
 4.21369662701909E+0000
 11
 5.23178491946601E+0000
 21
 4.16720145753789E+0000
  0
LINE
  8
1
  6
CONTINUOUS
 62
     1
 10
 5.26063661109947E+0000
 20
 4.21670735334919E+0000
 11
 5.21602989050734E+0000
 21
 4.17210063276434E+0000
  0
LINE
  8
1
  6
CONTINUOUS
 62
     1
 10
 5.24299313324445E+0000
 20
 4.21971807968657E+0000
 11
 5.21602989050734E+0000
 21
 4.19275483694946E+0000
  0
LINE
  8
1
  6
CONTINUOUS
 62
     1
 10
 5.22534965538944E+0000
 20
 4.22272880601668E+0000
 11
 5.21602989050734E+0000
 21
 4.21340904113458E+0000
  0
LINE
  8
1
  6
CONTINUOUS
 62
     1
 10
 5.49087336064258E+0000
 20
 2.85119340284655E+0000
 11
 5.49087336064258E+0000
 21
 2.85119340284655E+0000
  0
LINE
  8
1
  6
CONTINUOUS
 62
     1
 10
 5.49087336064258E+0000
 20
 2.85119340284655E+0000
 11
 5.33158403400739E+0000
 21
 2.87837492421022E+0000
  0
LINE
  8
1
  6
CONTINUOUS
 62
     1
 10
 5.33158403400739E+0000
 20
 2.87837492421022E+0000
 11
 5.33158403400739E+0000
 21
 2.81797128673861E+0000
  0
LINE
  8
1
  6
CONTINUOUS
 62
     1
 10
 5.33158403400739E+0000
 20
 2.81797128673861E+0000
 11
 5.49087336064258E+0000
 21
 2.85119340284655E+0000
  0
LINE
  8
1
  6
CONTINUOUS
 62
     1
 10
 5.33158403400739E+0000
 20
 2.87837492421022E+0000
 11
 5.33158403400739E+0000
 21
 2.81797128673861E+0000
  0
LINE
  8
1
  6
CONTINUOUS
 62
     1
 10
 5.34012896575587E+0000
 20
 2.81975345708634E+0000
 11
 5.33158403400739E+0000
 21
 2.82829838883117E+0000
  0
LINE
  8
1
  6
CONTINUOUS
 62
     1
 10
 5.35721882924554E+0000
 20
 2.82331779778178E+0000
 11
 5.33158403400739E+0000
 21
 2.84895259301629E+0000
  0
LINE
  8
1
  6
CONTINUOUS
 62
     1
 10
 5.37430869273521E+0000
 20
 2.82688213847723E+0000
 11
 5.33158403401467E+0000
 21
 2.86960679719778E+0000
  0
LINE
  8
1
  6
CONTINUOUS
 62
     1
 10
 5.39139855622489E+0000
 20
 2.83044647916904E+0000
 11
 5.34591570219345E+0000
 21
 2.87592933320411E+0000
  0
LINE
  8
1
  6
CONTINUOUS
 62
     1
 10
 5.40848841971456E+0000
 20
 2.83401081986449E+0000
 11
 5.37081956210750E+0000
 21
 2.87167967747155E+0000
  0
LINE
  8
1
  6
CONTINUOUS
 62
     1
 10
 5.42557828320423E+0000
 20
 2.83757516055994E+0000
 11
 5.39572342202882E+0000
 21
 2.86743002173534E+0000
  0
LINE
  8
1
  6
CONTINUOUS
 62
     1
 10
 5.44266814669390E+0000
 20
 2.84113950125538E+0000
 11
 5.42062728195015E+0000
 21
 2.86318036599914E+0000
  0
LINE
  8
1
  6
CONTINUOUS
 62
     1
 10
 5.45975801018358E+0000
 20
 2.84470384195083E+0000
 11
 5.44553114187147E+0000
 21
 2.85893071026658E+0000
  0
LINE
  8
1
  6
CONTINUOUS
 62
     1
 10
 5.47684787368053E+0000
 20
 2.84826818264628E+0000
 11
 5.47043500179279E+0000
 21
 2.85468105453037E+0000
  0
LINE
  8
1
  6
CONTINUOUS
 62
     1
 10
 5.48205162170780E+0000
 20
 2.85269876600796E+0000
 11
 5.47782478811860E+0000
 21
 2.84847193241876E+0000
  0
LINE
  8
1
  6
CONTINUOUS
 62
     1
 10
 5.46440814385278E+0000
 20
 2.85570949233806E+0000
 11
 5.45172764308518E+0000
 21
 2.84302899157046E+0000
  0
LINE
  8
1
  6
CONTINUOUS
 62
     1
 10
 5.44676466600504E+0000
 20
 2.85872021867181E+0000
 11
 5.42563049805904E+0000
 21
 2.83758605072944E+0000
  0
LINE
  8
1
  6
CONTINUOUS
 62
     1
 10
 5.42912118815730E+0000
 20
 2.86173094500919E+0000
 11
 5.39953335302562E+0000
 21
 2.83214310988114E+0000
  0
LINE
  8
1
  6
CONTINUOUS
 62
     1
 10
 5.41147771030228E+0000
 20
 2.86474167133929E+0000
 11
 5.37343620799948E+0000
 21
 2.82670016903649E+0000
  0
LINE
  8
1
  6
CONTINUOUS
 62
     1
 10
 5.39383423244726E+0000
 20
 2.86775239767303E+0000
 11
 5.34733906296606E+0000
 21
 2.82125722818819E+0000
  0
LINE
  8
1
  6
CONTINUOUS
 62
     1
 10
 5.37619075459224E+0000
 20
 2.87076312400313E+0000
 11
 5.33158403400012E+0000
 21
 2.82615640341464E+0000
  0
LINE
  8
1
  6
CONTINUOUS
 62
     1
 10
 5.35854727673723E+0000
 20
 2.87377385033687E+0000
 11
 5.33158403400012E+0000
 21
 2.84681060759976E+0000
  0
LINE
  8
1
  6
CONTINUOUS
 62
     1
 10
 5.34090379888949E+0000
 20
 2.87678457666698E+0000
 11
 5.33158403400012E+0000
 21
 2.86746481178488E+0000
  0
LINE
  8
1
  6
CONTINUOUS
 62
     1
 10
 5.49087336064258E+0000
 20
 2.85119340284655E+0000
 11
 5.49087336064258E+0000
 21
 2.85119340284655E+0000
  0
LINE
  8
1
  6
CONTINUOUS
 62
     1
 10
 5.49087336064258E+0000
 20
 2.85119340284655E+0000
 11
 5.33158403400739E+0000
 21
 2.87837492421022E+0000
  0
LINE
  8
1
  6
CONTINUOUS
 62
     1
 10
 5.33158403400739E+0000
 20
 2.87837492421022E+0000
 11
 5.33158403400739E+0000
 21
 2.81797128673861E+0000
  0
LINE
  8
1
  6
CONTINUOUS
 62
     1
 10
 5.33158403400739E+0000
 20
 2.81797128673861E+0000
 11
 5.49087336064258E+0000
 21
 2.85119340284655E+0000
  0
LINE
  8
1
  6
CONTINUOUS
 62
     1
 10
 5.33158403400739E+0000
 20
 2.87837492421022E+0000
 11
 5.33158403400739E+0000
 21
 2.81797128673861E+0000
  0
LINE
  8
1
  6
CONTINUOUS
 62
     1
 10
 5.34012896575587E+0000
 20
 2.81975345708634E+0000
 11
 5.33158403400739E+0000
 21
 2.82829838883117E+0000
  0
LINE
  8
1
  6
CONTINUOUS
 62
     1
 10
 5.35721882924554E+0000
 20
 2.82331779778178E+0000
 11
 5.33158403400739E+0000
 21
 2.84895259301629E+0000
  0
LINE
  8
1
  6
CONTINUOUS
 62
     1
 10
 5.37430869273521E+0000
 20
 2.82688213847723E+0000
 11
 5.33158403401467E+0000
 21
 2.86960679719778E+0000
  0
LINE
  8
1
  6
CONTINUOUS
 62
     1
 10
 5.39139855622489E+0000
 20
 2.83044647916904E+0000
 11
 5.34591570219345E+0000
 21
 2.87592933320411E+0000
  0
LINE
  8
1
  6
CONTINUOUS
 62
     1
 10
 5.40848841971456E+0000
 20
 2.83401081986449E+0000
 11
 5.37081956210750E+0000
 21
 2.87167967747155E+0000
  0
LINE
  8
1
  6
CONTINUOUS
 62
     1
 10
 5.42557828320423E+0000
 20
 2.83757516055994E+0000
 11
 5.39572342202882E+0000
 21
 2.86743002173534E+0000
  0
LINE
  8
1
  6
CONTINUOUS
 62
     1
 10
 5.44266814669390E+0000
 20
 2.84113950125538E+0000
 11
 5.42062728195015E+0000
 21
 2.86318036599914E+0000
  0
LINE
  8
1
  6
CONTINUOUS
 62
     1
 10
 5.45975801018358E+0000
 20
 2.84470384195083E+0000
 11
 5.44553114187147E+0000
 21
 2.85893071026658E+0000
  0
LINE
  8
1
  6
CONTINUOUS
 62
     1
 10
 5.47684787368053E+0000
 20
 2.84826818264628E+0000
 11
 5.47043500179279E+0000
 21
 2.85468105453037E+0000
  0
LINE
  8
1
  6
CONTINUOUS
 62
     1
 10
 5.48205162170780E+0000
 20
 2.85269876600796E+0000
 11
 5.47782478811860E+0000
 21
 2.84847193241876E+0000
  0
LINE
  8
1
  6
CONTINUOUS
 62
     1
 10
 5.46440814385278E+0000
 20
 2.85570949233806E+0000
 11
 5.45172764308518E+0000
 21
 2.84302899157046E+0000
  0
LINE
  8
1
  6
CONTINUOUS
 62
     1
 10
 5.44676466600504E+0000
 20
 2.85872021867181E+0000
 11
 5.42563049805904E+0000
 21
 2.83758605072944E+0000
  0
LINE
  8
1
  6
CONTINUOUS
 62
     1
 10
 5.42912118815730E+0000
 20
 2.86173094500919E+0000
 11
 5.39953335302562E+0000
 21
 2.83214310988114E+0000
  0
LINE
  8
1
  6
CONTINUOUS
 62
     1
 10
 5.41147771030228E+0000
 20
 2.86474167133929E+0000
 11
 5.37343620799948E+0000
 21
 2.82670016903649E+0000
  0
LINE
  8
1
  6
CONTINUOUS
 62
     1
 10
 5.39383423244726E+0000
 20
 2.86775239767303E+0000
 11
 5.34733906296606E+0000
 21
 2.82125722818819E+0000
  0
LINE
  8
1
  6
CONTINUOUS
 62
     1
 10
 5.37619075459224E+0000
 20
 2.87076312400313E+0000
 11
 5.33158403400012E+0000
 21
 2.82615640341464E+0000
  0
LINE
  8
1
  6
CONTINUOUS
 62
     1
 10
 5.35854727673723E+0000
 20
 2.87377385033687E+0000
 11
 5.33158403400012E+0000
 21
 2.84681060759976E+0000
  0
LINE
  8
1
  6
CONTINUOUS
 62
     1
 10
 5.34090379888949E+0000
 20
 2.87678457666698E+0000
 11
 5.33158403400012E+0000
 21
 2.86746481178488E+0000
  0
LINE
  8
1
  6
CONTINUOUS
 62
     1
 10
 4.70333766957629E+0000
 20
 2.85017050565875E+0000
 11
 4.70333766957629E+0000
 21
 2.85017050565875E+0000
  0
LINE
  8
1
  6
CONTINUOUS
 62
     1
 10
 4.70333766957629E+0000
 20
 2.85017050565875E+0000
 11
 4.86262699622603E+0000
 21
 2.82298898429508E+0000
  0
LINE
  8
1
  6
CONTINUOUS
 62
     1
 10
 4.86262699622603E+0000
 20
 2.82298898429508E+0000
 11
 4.86262699622603E+0000
 21
 2.88339262176669E+0000
  0
LINE
  8
1
  6
CONTINUOUS
 62
     1
 10
 4.86262699622603E+0000
 20
 2.88339262176669E+0000
 11
 4.70333766957629E+0000
 21
 2.85017050565875E+0000
  0
LINE
  8
1
  6
CONTINUOUS
 62
     1
 10
 4.86262699622603E+0000
 20
 2.82298898429508E+0000
 11
 4.86262699622603E+0000
 21
 2.88339262176669E+0000
  0
LINE
  8
1
  6
CONTINUOUS
 62
     1
 10
 4.71578959954059E+0000
 20
 2.84804567779429E+0000
 11
 4.71188260132476E+0000
 21
 2.85195267601011E+0000
  0
LINE
  8
1
  6
CONTINUOUS
 62
     1
 10
 4.74069345946191E+0000
 20
 2.84379602205809E+0000
 11
 4.72897246481443E+0000
 21
 2.85551701670556E+0000
  0
LINE
  8
1
  6
CONTINUOUS
 62
     1
 10
 4.76559731938323E+0000
 20
 2.83954636632552E+0000
 11
 4.74606232831138E+0000
 21
 2.85908135739737E+0000
  0
LINE
  8
1
  6
CONTINUOUS
 62
     1
 10
 4.79050117930456E+0000
 20
 2.83529671058932E+0000
 11
 4.76315219180105E+0000
 21
 2.86264569809282E+0000
  0
LINE
  8
1
  6
CONTINUOUS
 62
     1
 10
 4.81540503922588E+0000
 20
 2.83104705485312E+0000
 11
 4.78024205529073E+0000
 21
 2.86621003878827E+0000
  0
LINE
  8
1
  6
CONTINUOUS
 62
     1
 10
 4.84030889913993E+0000
 20
 2.82679739911691E+0000
 11
 4.79733191878040E+0000
 21
 2.86977437948008E+0000
  0
LINE
  8
1
  6
CONTINUOUS
 62
     1
 10
 4.86262699622603E+0000
 20
 2.82513350621957E+0000
 11
 4.81442178227007E+0000
 21
 2.87333872017552E+0000
  0
LINE
  8
1
  6
CONTINUOUS
 62
     1
 10
 4.86262699622603E+0000
 20
 2.84578771040469E+0000
 11
 4.83151164575975E+0000
 21
 2.87690306087097E+0000
  0
LINE
  8
1
  6
CONTINUOUS
 62
     1
 10
 4.86262699622603E+0000
 20
 2.86644191458981E+0000
 11
 4.84860150925670E+0000
 21
 2.88046740156278E+0000
  0
LINE
  8
1
  6
CONTINUOUS
 62
     1
 10
 4.86262699622603E+0000
 20
 2.83331608638764E+0000
 11
 4.85380525729852E+0000
 21
 2.82449434746013E+0000
  0
LINE
  8
1
  6
CONTINUOUS
 62
     1
 10
 4.86262699622603E+0000
 20
 2.85397029057276E+0000
 11
 4.83616177944350E+0000
 21
 2.82750507379023E+0000
  0
LINE
  8
1
  6
CONTINUOUS
 62
     1
 10
 4.86262699622603E+0000
 20
 2.87462449475788E+0000
 11
 4.81851830158848E+0000
 21
 2.83051580012398E+0000
  0
LINE
  8
1
  6
CONTINUOUS
 62
     1
 10
 4.84760861656105E+0000
 20
 2.88026031928530E+0000
 11
 4.80087482373347E+0000
 21
 2.83352652645408E+0000
  0
LINE
  8
1
  6
CONTINUOUS
 62
     1
 10
 4.82151147153490E+0000
 20
 2.87481737844064E+0000
 11
 4.78323134587845E+0000
 21
 2.83653725278782E+0000
  0
LINE
  8
1
  6
CONTINUOUS
 62
     1
 10
 4.79541432650149E+0000
 20
 2.86937443759234E+0000
 11
 4.76558786803071E+0000
 21
 2.83954797911792E+0000
  0
LINE
  8
1
  6
CONTINUOUS
 62
     1
 10
 4.76931718147534E+0000
 20
 2.86393149675132E+0000
 11
 4.74794439017569E+0000
 21
 2.84255870545167E+0000
  0
LINE
  8
1
  6
CONTINUOUS
 62
     1
 10
 4.74322003644193E+0000
 20
 2.85848855589938E+0000
 11
 4.73030091232067E+0000
 21
 2.84556943178177E+0000
  0
LINE
  8
1
  6
CONTINUOUS
 62
     1
 10
 4.71712289140851E+0000
 20
 2.85304561505836E+0000
 11
 4.71265743446565E+0000
 21
 2.84858015811551E+0000
  0
LINE
  8
1
  6
CONTINUOUS
 62
     1
 10
 4.70333766957629E+0000
 20
 2.85017050565875E+0000
 11
 4.70333766957629E+0000
 21
 2.85017050565875E+0000
  0
LINE
  8
1
  6
CONTINUOUS
 62
     1
 10
 4.70333766957629E+0000
 20
 2.85017050565875E+0000
 11
 4.86262699622603E+0000
 21
 2.82298898429508E+0000
  0
LINE
  8
1
  6
CONTINUOUS
 62
     1
 10
 4.86262699622603E+0000
 20
 2.82298898429508E+0000
 11
 4.86262699622603E+0000
 21
 2.88339262176669E+0000
  0
LINE
  8
1
  6
CONTINUOUS
 62
     1
 10
 4.86262699622603E+0000
 20
 2.88339262176669E+0000
 11
 4.70333766957629E+0000
 21
 2.85017050565875E+0000
  0
LINE
  8
1
  6
CONTINUOUS
 62
     1
 10
 4.86262699622603E+0000
 20
 2.82298898429508E+0000
 11
 4.86262699622603E+0000
 21
 2.88339262176669E+0000
  0
LINE
  8
1
  6
CONTINUOUS
 62
     1
 10
 4.71578959954059E+0000
 20
 2.84804567779429E+0000
 11
 4.71188260132476E+0000
 21
 2.85195267601011E+0000
  0
LINE
  8
1
  6
CONTINUOUS
 62
     1
 10
 4.74069345946191E+0000
 20
 2.84379602205809E+0000
 11
 4.72897246481443E+0000
 21
 2.85551701670556E+0000
  0
LINE
  8
1
  6
CONTINUOUS
 62
     1
 10
 4.76559731938323E+0000
 20
 2.83954636632552E+0000
 11
 4.74606232831138E+0000
 21
 2.85908135739737E+0000
  0
LINE
  8
1
  6
CONTINUOUS
 62
     1
 10
 4.79050117930456E+0000
 20
 2.83529671058932E+0000
 11
 4.76315219180105E+0000
 21
 2.86264569809282E+0000
  0
LINE
  8
1
  6
CONTINUOUS
 62
     1
 10
 4.81540503922588E+0000
 20
 2.83104705485312E+0000
 11
 4.78024205529073E+0000
 21
 2.86621003878827E+0000
  0
LINE
  8
1
  6
CONTINUOUS
 62
     1
 10
 4.84030889913993E+0000
 20
 2.82679739911691E+0000
 11
 4.79733191878040E+0000
 21
 2.86977437948008E+0000
  0
LINE
  8
1
  6
CONTINUOUS
 62
     1
 10
 4.86262699622603E+0000
 20
 2.82513350621957E+0000
 11
 4.81442178227007E+0000
 21
 2.87333872017552E+0000
  0
LINE
  8
1
  6
CONTINUOUS
 62
     1
 10
 4.86262699622603E+0000
 20
 2.84578771040469E+0000
 11
 4.83151164575975E+0000
 21
 2.87690306087097E+0000
  0
LINE
  8
1
  6
CONTINUOUS
 62
     1
 10
 4.86262699622603E+0000
 20
 2.86644191458981E+0000
 11
 4.84860150925670E+0000
 21
 2.88046740156278E+0000
  0
LINE
  8
1
  6
CONTINUOUS
 62
     1
 10
 4.86262699622603E+0000
 20
 2.83331608638764E+0000
 11
 4.85380525729852E+0000
 21
 2.82449434746013E+0000
  0
LINE
  8
1
  6
CONTINUOUS
 62
     1
 10
 4.86262699622603E+0000
 20
 2.85397029057276E+0000
 11
 4.83616177944350E+0000
 21
 2.82750507379023E+0000
  0
LINE
  8
1
  6
CONTINUOUS
 62
     1
 10
 4.86262699622603E+0000
 20
 2.87462449475788E+0000
 11
 4.81851830158848E+0000
 21
 2.83051580012398E+0000
  0
LINE
  8
1
  6
CONTINUOUS
 62
     1
 10
 4.84760861656105E+0000
 20
 2.88026031928530E+0000
 11
 4.80087482373347E+0000
 21
 2.83352652645408E+0000
  0
LINE
  8
1
  6
CONTINUOUS
 62
     1
 10
 4.82151147153490E+0000
 20
 2.87481737844064E+0000
 11
 4.78323134587845E+0000
 21
 2.83653725278782E+0000
  0
LINE
  8
1
  6
CONTINUOUS
 62
     1
 10
 4.79541432650149E+0000
 20
 2.86937443759234E+0000
 11
 4.76558786803071E+0000
 21
 2.83954797911792E+0000
  0
LINE
  8
1
  6
CONTINUOUS
 62
     1
 10
 4.76931718147534E+0000
 20
 2.86393149675132E+0000
 11
 4.74794439017569E+0000
 21
 2.84255870545167E+0000
  0
LINE
  8
1
  6
CONTINUOUS
 62
     1
 10
 4.74322003644193E+0000
 20
 2.85848855589938E+0000
 11
 4.73030091232067E+0000
 21
 2.84556943178177E+0000
  0
LINE
  8
1
  6
CONTINUOUS
 62
     1
 10
 4.71712289140851E+0000
 20
 2.85304561505836E+0000
 11
 4.71265743446565E+0000
 21
 2.84858015811551E+0000
  0
LINE
  8
1
  6
CONTINUOUS
 62
     1
 10
 3.79433393905128E+0000
 20
 3.44874940133377E+0000
 11
 3.79433393905128E+0000
 21
 3.44874940133377E+0000
  0
LINE
  8
1
  6
CONTINUOUS
 62
     1
 10
 3.79433393905128E+0000
 20
 3.44874940133377E+0000
 11
 3.82151546041496E+0000
 21
 3.60803872796168E+0000
  0
LINE
  8
1
  6
CONTINUOUS
 62
     1
 10
 3.82151546041496E+0000
 20
 3.60803872796168E+0000
 11
 3.76111182294335E+0000
 21
 3.60803872796168E+0000
  0
LINE
  8
1
  6
CONTINUOUS
 62
     1
 10
 3.76111182294335E+0000
 20
 3.60803872796168E+0000
 11
 3.79433393905128E+0000
 21
 3.44874940133377E+0000
  0
LINE
  8
1
  6
CONTINUOUS
 62
     1
 10
 3.82151546041496E+0000
 20
 3.60803872796168E+0000
 11
 3.76111182294335E+0000
 21
 3.60803872796168E+0000
  0
LINE
  8
1
  6
CONTINUOUS
 62
     1
 10
 3.79583930221997E+0000
 20
 3.45757114026128E+0000
 11
 3.79161246863077E+0000
 21
 3.46179797385048E+0000
  0
LINE
  8
1
  6
CONTINUOUS
 62
     1
 10
 3.79885002855008E+0000
 20
 3.47521461811630E+0000
 11
 3.78616952778248E+0000
 21
 3.48789511888390E+0000
  0
LINE
  8
1
  6
CONTINUOUS
 62
     1
 10
 3.80186075488382E+0000
 20
 3.49285809596768E+0000
 11
 3.78072658693418E+0000
 21
 3.51399226391732E+0000
  0
LINE
  8
1
  6
CONTINUOUS
 62
     1
 10
 3.80487148121756E+0000
 20
 3.51050157382269E+0000
 11
 3.77528364608952E+0000
 21
 3.54008940894710E+0000
  0
LINE
  8
1
  6
CONTINUOUS
 62
     1
 10
 3.80788220754766E+0000
 20
 3.52814505167407E+0000
 11
 3.76984070524122E+0000
 21
 3.56618655398051E+0000
  0
LINE
  8
1
  6
CONTINUOUS
 62
     1
 10
 3.81089293388141E+0000
 20
 3.54578852952545E+0000
 11
 3.76439776439656E+0000
 21
 3.59228369901393E+0000
  0
LINE
  8
1
  6
CONTINUOUS
 62
     1
 10
 3.81390366021515E+0000
 20
 3.56343200738047E+0000
 11
 3.76929693963029E+0000
 21
 3.60803872796168E+0000
  0
LINE
  8
1
  6
CONTINUOUS
 62
     1
 10
 3.81691438654525E+0000
 20
 3.58107548523185E+0000
 11
 3.78995114381541E+0000
 21
 3.60803872796168E+0000
  0
LINE
  8
1
  6
CONTINUOUS
 62
     1
 10
 3.81992511287899E+0000
 20
 3.59871896308687E+0000
 11
 3.81060534800417E+0000
 21
 3.60803872796168E+0000
  0
LINE
  8
1
  6
CONTINUOUS
 62
     1
 10
 3.79645876691211E+0000
 20
 3.46120133128716E+0000
 11
 3.79255176869992E+0000
 21
 3.45729433307497E+0000
  0
LINE
  8
1
  6
CONTINUOUS
 62
     1
 10
 3.80070842264831E+0000
 20
 3.48610519120848E+0000
 11
 3.78898742800448E+0000
 21
 3.47438419656464E+0000
  0
LINE
  8
1
  6
CONTINUOUS
 62
     1
 10
 3.80495807838452E+0000
 20
 3.51100905112980E+0000
 11
 3.78542308731267E+0000
 21
 3.49147406005795E+0000
  0
LINE
  8
1
  6
CONTINUOUS
 62
     1
 10
 3.80920773412072E+0000
 20
 3.53591291105113E+0000
 11
 3.78185874661722E+0000
 21
 3.50856392354763E+0000
  0
LINE
  8
1
  6
CONTINUOUS
 62
     1
 10
 3.81345738985692E+0000
 20
 3.56081677097245E+0000
 11
 3.77829440591813E+0000
 21
 3.52565378703730E+0000
  0
LINE
  8
1
  6
CONTINUOUS
 62
     1
 10
 3.81770704558949E+0000
 20
 3.58572063089377E+0000
 11
 3.77473006522632E+0000
 21
 3.54274365052697E+0000
  0
LINE
  8
1
  6
CONTINUOUS
 62
     1
 10
 3.81937093846864E+0000
 20
 3.60803872795441E+0000
 11
 3.77116572453087E+0000
 21
 3.55983351402028E+0000
  0
LINE
  8
1
  6
CONTINUOUS
 62
     1
 10
 3.79871673428715E+0000
 20
 3.60803872796168E+0000
 11
 3.76760138383906E+0000
 21
 3.57692337750996E+0000
  0
LINE
  8
1
  6
CONTINUOUS
 62
     1
 10
 3.77806253010203E+0000
 20
 3.60803872796168E+0000
 11
 3.76403704314362E+0000
 21
 3.59401324100327E+0000
  0
LINE
  8
1
  6
CONTINUOUS
 62
     1
 10
 3.79153263708940E+0000
 20
 3.20684583464754E+0000
 11
 3.79153263708940E+0000
 21
 3.20684583464754E+0000
  0
LINE
  8
1
  6
CONTINUOUS
 62
     1
 10
 3.79153263708940E+0000
 20
 3.20684583464754E+0000
 11
 3.76435111572573E+0000
 21
 3.04755650801962E+0000
  0
LINE
  8
1
  6
CONTINUOUS
 62
     1
 10
 3.76435111572573E+0000
 20
 3.04755650801962E+0000
 11
 3.82475475319734E+0000
 21
 3.04755650801962E+0000
  0
LINE
  8
1
  6
CONTINUOUS
 62
     1
 10
 3.82475475319734E+0000
 20
 3.04755650801962E+0000
 11
 3.79153263708940E+0000
 21
 3.20684583464754E+0000
  0
LINE
  8
1
  6
CONTINUOUS
 62
     1
 10
 3.76435111572573E+0000
 20
 3.04755650801962E+0000
 11
 3.82475475319734E+0000
 21
 3.04755650801962E+0000
  0
LINE
  8
1
  6
CONTINUOUS
 62
     1
 10
 3.77467821781829E+0000
 20
 3.04755650801962E+0000
 11
 3.76585647889078E+0000
 21
 3.05637824694350E+0000
  0
LINE
  8
1
  6
CONTINUOUS
 62
     1
 10
 3.79533242199977E+0000
 20
 3.04755650801962E+0000
 11
 3.76886720522452E+0000
 21
 3.07402172479851E+0000
  0
LINE
  8
1
  6
CONTINUOUS
 62
     1
 10
 3.81598662618489E+0000
 20
 3.04755650801962E+0000
 11
 3.77187793155463E+0000
 21
 3.09166520264989E+0000
  0
LINE
  8
1
  6
CONTINUOUS
 62
     1
 10
 3.82162245071959E+0000
 20
 3.06257488767005E+0000
 11
 3.77488865788837E+0000
 21
 3.10930868050127E+0000
  0
LINE
  8
1
  6
CONTINUOUS
 62
     1
 10
 3.81617950987493E+0000
 20
 3.08867203270347E+0000
 11
 3.77789938422211E+0000
 21
 3.12695215835629E+0000
  0
LINE
  8
1
  6
CONTINUOUS
 62
     1
 10
 3.81073656902663E+0000
 20
 3.11476917773325E+0000
 11
 3.78091011055585E+0000
 21
 3.14459563620767E+0000
  0
LINE
  8
1
  6
CONTINUOUS
 62
     1
 10
 3.80529362818197E+0000
 20
 3.14086632276667E+0000
 11
 3.78392083688595E+0000
 21
 3.16223911405905E+0000
  0
LINE
  8
1
  6
CONTINUOUS
 62
     1
 10
 3.79985068733367E+0000
 20
 3.16696346780009E+0000
 11
 3.78693156321970E+0000
 21
 3.17988259191407E+0000
  0
LINE
  8
1
  6
CONTINUOUS
 62
     1
 10
 3.79440774648538E+0000
 20
 3.19306061282987E+0000
 11
 3.78994228955344E+0000
 21
 3.19752606976544E+0000
  0
LINE
  8
1
  6
CONTINUOUS
 62
     1
 10
 3.82297258284962E+0000
 20
 3.05610143976446E+0000
 11
 3.81442765110478E+0000
 21
 3.04755650801962E+0000
  0
LINE
  8
1
  6
CONTINUOUS
 62
     1
 10
 3.81940824215417E+0000
 20
 3.07319130325777E+0000
 11
 3.79377344691966E+0000
 21
 3.04755650801962E+0000
  0
LINE
  8
1
  6
CONTINUOUS
 62
     1
 10
 3.81584390145872E+0000
 20
 3.09028116674381E+0000
 11
 3.77311924273454E+0000
 21
 3.04755650801962E+0000
  0
LINE
  8
1
  6
CONTINUOUS
 62
     1
 10
 3.81227956076327E+0000
 20
 3.10737103023348E+0000
 11
 3.76679670673184E+0000
 21
 3.06188817620205E+0000
  0
LINE
  8
1
  6
CONTINUOUS
 62
     1
 10
 3.80871522006782E+0000
 20
 3.12446089372679E+0000
 11
 3.77104636246804E+0000
 21
 3.08679203612337E+0000
  0
LINE
  8
1
  6
CONTINUOUS
 62
     1
 10
 3.80515087937601E+0000
 20
 3.14155075721646E+0000
 11
 3.77529601820061E+0000
 21
 3.11169589604469E+0000
  0
LINE
  8
1
  6
CONTINUOUS
 62
     1
 10
 3.80158653867693E+0000
 20
 3.15864062070614E+0000
 11
 3.77954567393681E+0000
 21
 3.13659975596602E+0000
  0
LINE
  8
1
  6
CONTINUOUS
 62
     1
 10
 3.79802219798512E+0000
 20
 3.17573048419581E+0000
 11
 3.78379532967301E+0000
 21
 3.16150361588734E+0000
  0
LINE
  8
1
  6
CONTINUOUS
 62
     1
 10
 3.79445785728967E+0000
 20
 3.19282034768912E+0000
 11
 3.78804498540921E+0000
 21
 3.18640747580503E+0000
  0
LINE
  8
1
  6
CONTINUOUS
 62
     1
 10
 4.36768039564049E+0000
 20
 4.16853391063341E+0000
 11
 4.36768039564049E+0000
 21
 4.16853391063341E+0000
  0
LINE
  8
1
  6
CONTINUOUS
 62
     1
 10
 4.36768039564049E+0000
 20
 4.16853391063341E+0000
 11
 4.52696972229023E+0000
 21
 4.14135238926974E+0000
  0
LINE
  8
1
  6
CONTINUOUS
 62
     1
 10
 4.52696972229023E+0000
 20
 4.14135238926974E+0000
 11
 4.52696972229023E+0000
 21
 4.20175602674135E+0000
  0
LINE
  8
1
  6
CONTINUOUS
 62
     1
 10
 4.52696972229023E+0000
 20
 4.20175602674135E+0000
 11
 4.36768039564049E+0000
 21
 4.16853391063341E+0000
  0
LINE
  8
1
  6
CONTINUOUS
 62
     1
 10
 4.52696972229023E+0000
 20
 4.14135238926974E+0000
 11
 4.52696972229023E+0000
 21
 4.20175602674135E+0000
  0
LINE
  8
1
  6
CONTINUOUS
 62
     1
 10
 4.38013232560479E+0000
 20
 4.16640908276895E+0000
 11
 4.37622532738897E+0000
 21
 4.17031608098478E+0000
  0
LINE
  8
1
  6
CONTINUOUS
 62
     1
 10
 4.40503618552611E+0000
 20
 4.16215942703275E+0000
 11
 4.39331519087864E+0000
 21
 4.17388042168022E+0000
  0
LINE
  8
1
  6
CONTINUOUS
 62
     1
 10
 4.42994004544016E+0000
 20
 4.15790977129654E+0000
 11
 4.41040505436831E+0000
 21
 4.17744476236840E+0000
  0
LINE
  8
1
  6
CONTINUOUS
 62
     1
 10
 4.45484390536149E+0000
 20
 4.15366011556034E+0000
 11
 4.42749491785798E+0000
 21
 4.18100910306384E+0000
  0
LINE
  8
1
  6
CONTINUOUS
 62
     1
 10
 4.47974776528281E+0000
 20
 4.14941045982414E+0000
 11
 4.44458478135493E+0000
 21
 4.18457344375929E+0000
  0
LINE
  8
1
  6
CONTINUOUS
 62
     1
 10
 4.50465162520413E+0000
 20
 4.14516080408794E+0000
 11
 4.46167464484461E+0000
 21
 4.18813778445474E+0000
  0
LINE
  8
1
  6
CONTINUOUS
 62
     1
 10
 4.52696972229023E+0000
 20
 4.14349691119423E+0000
 11
 4.47876450833428E+0000
 21
 4.19170212515019E+0000
  0
LINE
  8
1
  6
CONTINUOUS
 62
     1
 10
 4.52696972229023E+0000
 20
 4.16415111537935E+0000
 11
 4.49585437182395E+0000
 21
 4.19526646584563E+0000
  0
LINE
  8
1
  6
CONTINUOUS
 62
     1
 10
 4.52696972229023E+0000
 20
 4.18480531956448E+0000
 11
 4.51294423531363E+0000
 21
 4.19883080654108E+0000
  0
LINE
  8
1
  6
CONTINUOUS
 62
     1
 10
 4.52696972228296E+0000
 20
 4.15167949135503E+0000
 11
 4.51814798336272E+0000
 21
 4.14285775243479E+0000
  0
LINE
  8
1
  6
CONTINUOUS
 62
     1
 10
 4.52696972228296E+0000
 20
 4.17233369554015E+0000
 11
 4.50050450550771E+0000
 21
 4.14586847876490E+0000
  0
LINE
  8
1
  6
CONTINUOUS
 62
     1
 10
 4.52696972228296E+0000
 20
 4.19298789973254E+0000
 11
 4.48286102765269E+0000
 21
 4.14887920509500E+0000
  0
LINE
  8
1
  6
CONTINUOUS
 62
     1
 10
 4.51195134262525E+0000
 20
 4.19862372425268E+0000
 11
 4.46521754979767E+0000
 21
 4.15188993142510E+0000
  0
LINE
  8
1
  6
CONTINUOUS
 62
     1
 10
 4.48585419759911E+0000
 20
 4.19318078341166E+0000
 11
 4.44757407194265E+0000
 21
 4.15490065776248E+0000
  0
LINE
  8
1
  6
CONTINUOUS
 62
     1
 10
 4.45975705256569E+0000
 20
 4.18773784256337E+0000
 11
 4.42993059409491E+0000
 21
 4.15791138409259E+0000
  0
LINE
  8
1
  6
CONTINUOUS
 62
     1
 10
 4.43365990753955E+0000
 20
 4.18229490172234E+0000
 11
 4.41228711623990E+0000
 21
 4.16092211042269E+0000
  0
LINE
  8
1
  6
CONTINUOUS
 62
     1
 10
 4.40756276250613E+0000
 20
 4.17685196087405E+0000
 11
 4.39464363838488E+0000
 21
 4.16393283675279E+0000
  0
LINE
  8
1
  6
CONTINUOUS
 62
     1
 10
 4.38146561747271E+0000
 20
 4.17140902002575E+0000
 11
 4.37700016052986E+0000
 21
 4.16694356308290E+0000
  0
LINE
  8
1
  6
CONTINUOUS
 62
     1
 10
 4.36768039564049E+0000
 20
 4.16853391063341E+0000
 11
 4.36768039564049E+0000
 21
 4.16853391063341E+0000
  0
LINE
  8
1
  6
CONTINUOUS
 62
     1
 10
 4.36768039564049E+0000
 20
 4.16853391063341E+0000
 11
 4.52696972229023E+0000
 21
 4.14135238926974E+0000
  0
LINE
  8
1
  6
CONTINUOUS
 62
     1
 10
 4.52696972229023E+0000
 20
 4.14135238926974E+0000
 11
 4.52696972229023E+0000
 21
 4.20175602674135E+0000
  0
LINE
  8
1
  6
CONTINUOUS
 62
     1
 10
 4.52696972229023E+0000
 20
 4.20175602674135E+0000
 11
 4.36768039564049E+0000
 21
 4.16853391063341E+0000
  0
LINE
  8
1
  6
CONTINUOUS
 62
     1
 10
 4.52696972229023E+0000
 20
 4.14135238926974E+0000
 11
 4.52696972229023E+0000
 21
 4.20175602674135E+0000
  0
LINE
  8
1
  6
CONTINUOUS
 62
     1
 10
 4.38013232560479E+0000
 20
 4.16640908276895E+0000
 11
 4.37622532738897E+0000
 21
 4.17031608098478E+0000
  0
LINE
  8
1
  6
CONTINUOUS
 62
     1
 10
 4.40503618552611E+0000
 20
 4.16215942703275E+0000
 11
 4.39331519087864E+0000
 21
 4.17388042168022E+0000
  0
LINE
  8
1
  6
CONTINUOUS
 62
     1
 10
 4.42994004544016E+0000
 20
 4.15790977129654E+0000
 11
 4.41040505436831E+0000
 21
 4.17744476236840E+0000
  0
LINE
  8
1
  6
CONTINUOUS
 62
     1
 10
 4.45484390536149E+0000
 20
 4.15366011556034E+0000
 11
 4.42749491785798E+0000
 21
 4.18100910306384E+0000
  0
LINE
  8
1
  6
CONTINUOUS
 62
     1
 10
 4.47974776528281E+0000
 20
 4.14941045982414E+0000
 11
 4.44458478135493E+0000
 21
 4.18457344375929E+0000
  0
LINE
  8
1
  6
CONTINUOUS
 62
     1
 10
 4.50465162520413E+0000
 20
 4.14516080408794E+0000
 11
 4.46167464484461E+0000
 21
 4.18813778445474E+0000
  0
LINE
  8
1
  6
CONTINUOUS
 62
     1
 10
 4.52696972229023E+0000
 20
 4.14349691119423E+0000
 11
 4.47876450833428E+0000
 21
 4.19170212515019E+0000
  0
LINE
  8
1
  6
CONTINUOUS
 62
     1
 10
 4.52696972229023E+0000
 20
 4.16415111537935E+0000
 11
 4.49585437182395E+0000
 21
 4.19526646584563E+0000
  0
LINE
  8
1
  6
CONTINUOUS
 62
     1
 10
 4.52696972229023E+0000
 20
 4.18480531956448E+0000
 11
 4.51294423531363E+0000
 21
 4.19883080654108E+0000
  0
LINE
  8
1
  6
CONTINUOUS
 62
     1
 10
 4.52696972228296E+0000
 20
 4.15167949135503E+0000
 11
 4.51814798336272E+0000
 21
 4.14285775243479E+0000
  0
LINE
  8
1
  6
CONTINUOUS
 62
     1
 10
 4.52696972228296E+0000
 20
 4.17233369554015E+0000
 11
 4.50050450550771E+0000
 21
 4.14586847876490E+0000
  0
LINE
  8
1
  6
CONTINUOUS
 62
     1
 10
 4.52696972228296E+0000
 20
 4.19298789973254E+0000
 11
 4.48286102765269E+0000
 21
 4.14887920509500E+0000
  0
LINE
  8
1
  6
CONTINUOUS
 62
     1
 10
 4.51195134262525E+0000
 20
 4.19862372425268E+0000
 11
 4.46521754979767E+0000
 21
 4.15188993142510E+0000
  0
LINE
  8
1
  6
CONTINUOUS
 62
     1
 10
 4.48585419759911E+0000
 20
 4.19318078341166E+0000
 11
 4.44757407194265E+0000
 21
 4.15490065776248E+0000
  0
LINE
  8
1
  6
CONTINUOUS
 62
     1
 10
 4.45975705256569E+0000
 20
 4.18773784256337E+0000
 11
 4.42993059409491E+0000
 21
 4.15791138409259E+0000
  0
LINE
  8
1
  6
CONTINUOUS
 62
     1
 10
 4.43365990753955E+0000
 20
 4.18229490172234E+0000
 11
 4.41228711623990E+0000
 21
 4.16092211042269E+0000
  0
LINE
  8
1
  6
CONTINUOUS
 62
     1
 10
 4.40756276250613E+0000
 20
 4.17685196087405E+0000
 11
 4.39464363838488E+0000
 21
 4.16393283675279E+0000
  0
LINE
  8
1
  6
CONTINUOUS
 62
     1
 10
 4.38146561747271E+0000
 20
 4.17140902002575E+0000
 11
 4.37700016052986E+0000
 21
 4.16694356308290E+0000
  0
LINE
  8
1
  6
CONTINUOUS
 62
     1
 10
 4.13723910834960E+0000
 20
 4.16955680782121E+0000
 11
 4.13723910834960E+0000
 21
 4.16955680782121E+0000
  0
LINE
  8
1
  6
CONTINUOUS
 62
     1
 10
 4.13723910834960E+0000
 20
 4.16955680782121E+0000
 11
 3.97794978171441E+0000
 21
 4.19673832918488E+0000
  0
LINE
  8
1
  6
CONTINUOUS
 62
     1
 10
 3.97794978171441E+0000
 20
 4.19673832918488E+0000
 11
 3.97794978171441E+0000
 21
 4.13633469171327E+0000
  0
LINE
  8
1
  6
CONTINUOUS
 62
     1
 10
 3.97794978171441E+0000
 20
 4.13633469171327E+0000
 11
 4.13723910834960E+0000
 21
 4.16955680782121E+0000
  0
LINE
  8
1
  6
CONTINUOUS
 62
     1
 10
 3.97794978171441E+0000
 20
 4.19673832918488E+0000
 11
 3.97794978171441E+0000
 21
 4.13633469171327E+0000
  0
LINE
  8
1
  6
CONTINUOUS
 62
     1
 10
 3.98649471345925E+0000
 20
 4.13811686206463E+0000
 11
 3.97794978171441E+0000
 21
 4.14666179380583E+0000
  0
LINE
  8
1
  6
CONTINUOUS
 62
     1
 10
 4.00358457695256E+0000
 20
 4.14168120276008E+0000
 11
 3.97794978171805E+0000
 21
 4.16731599799095E+0000
  0
LINE
  8
1
  6
CONTINUOUS
 62
     1
 10
 4.02067444044224E+0000
 20
 4.14524554344825E+0000
 11
 3.97794978171805E+0000
 21
 4.18797020217607E+0000
  0
LINE
  8
1
  6
CONTINUOUS
 62
     1
 10
 4.03776430393191E+0000
 20
 4.14880988414370E+0000
 11
 3.99228144989684E+0000
 21
 4.19429273818241E+0000
  0
LINE
  8
1
  6
CONTINUOUS
 62
     1
 10
 4.05485416742158E+0000
 20
 4.15237422483915E+0000
 11
 4.01718530981452E+0000
 21
 4.19004308244621E+0000
  0
LINE
  8
1
  6
CONTINUOUS
 62
     1
 10
 4.07194403091125E+0000
 20
 4.15593856553460E+0000
 11
 4.04208916973585E+0000
 21
 4.18579342671001E+0000
  0
LINE
  8
1
  6
CONTINUOUS
 62
     1
 10
 4.08903389440093E+0000
 20
 4.15950290623005E+0000
 11
 4.06699302965717E+0000
 21
 4.18154377097380E+0000
  0
LINE
  8
1
  6
CONTINUOUS
 62
     1
 10
 4.10612375789788E+0000
 20
 4.16306724692549E+0000
 11
 4.09189688957849E+0000
 21
 4.17729411523760E+0000
  0
LINE
  8
1
  6
CONTINUOUS
 62
     1
 10
 4.12321362138755E+0000
 20
 4.16663158762094E+0000
 11
 4.11680074949982E+0000
 21
 4.17304445950867E+0000
  0
LINE
  8
1
  6
CONTINUOUS
 62
     1
 10
 4.12841736941482E+0000
 20
 4.17106217097898E+0000
 11
 4.12419053583289E+0000
 21
 4.16683533739706E+0000
  0
LINE
  8
1
  6
CONTINUOUS
 62
     1
 10
 4.11077389156708E+0000
 20
 4.17407289731636E+0000
 11
 4.09809339079948E+0000
 21
 4.16139239654876E+0000
  0
LINE
  8
1
  6
CONTINUOUS
 62
     1
 10
 4.09313041371206E+0000
 20
 4.17708362364647E+0000
 11
 4.07199624576606E+0000
 21
 4.15594945570047E+0000
  0
LINE
  8
1
  6
CONTINUOUS
 62
     1
 10
 4.07548693586432E+0000
 20
 4.18009434998385E+0000
 11
 4.04589910073264E+0000
 21
 4.15050651485217E+0000
  0
LINE
  8
1
  6
CONTINUOUS
 62
     1
 10
 4.05784345800930E+0000
 20
 4.18310507631395E+0000
 11
 4.01980195570650E+0000
 21
 4.14506357401115E+0000
  0
LINE
  8
1
  6
CONTINUOUS
 62
     1
 10
 4.04019998015428E+0000
 20
 4.18611580264405E+0000
 11
 3.99370481067308E+0000
 21
 4.13962063316285E+0000
  0
LINE
  8
1
  6
CONTINUOUS
 62
     1
 10
 4.02255650229927E+0000
 20
 4.18912652898143E+0000
 11
 3.97794978171078E+0000
 21
 4.14451980838930E+0000
  0
LINE
  8
1
  6
CONTINUOUS
 62
     1
 10
 4.00491302445153E+0000
 20
 4.19213725531154E+0000
 11
 3.97794978171078E+0000
 21
 4.16517401257443E+0000
  0
LINE
  8
1
  6
CONTINUOUS
 62
     1
 10
 3.98726954659651E+0000
 20
 4.19514798164164E+0000
 11
 3.97794978171078E+0000
 21
 4.18582821675955E+0000
  0
LINE
  8
1
  6
CONTINUOUS
 62
     1
 10
 4.13723910834960E+0000
 20
 4.16955680782121E+0000
 11
 4.13723910834960E+0000
 21
 4.16955680782121E+0000
  0
LINE
  8
1
  6
CONTINUOUS
 62
     1
 10
 4.13723910834960E+0000
 20
 4.16955680782121E+0000
 11
 3.97794978171441E+0000
 21
 4.19673832918488E+0000
  0
LINE
  8
1
  6
CONTINUOUS
 62
     1
 10
 3.97794978171441E+0000
 20
 4.19673832918488E+0000
 11
 3.97794978171441E+0000
 21
 4.13633469171327E+0000
  0
LINE
  8
1
  6
CONTINUOUS
 62
     1
 10
 3.97794978171441E+0000
 20
 4.13633469171327E+0000
 11
 4.13723910834960E+0000
 21
 4.16955680782121E+0000
  0
LINE
  8
1
  6
CONTINUOUS
 62
     1
 10
 3.97794978171441E+0000
 20
 4.19673832918488E+0000
 11
 3.97794978171441E+0000
 21
 4.13633469171327E+0000
  0
LINE
  8
1
  6
CONTINUOUS
 62
     1
 10
 3.98649471345925E+0000
 20
 4.13811686206463E+0000
 11
 3.97794978171441E+0000
 21
 4.14666179380583E+0000
  0
LINE
  8
1
  6
CONTINUOUS
 62
     1
 10
 4.00358457695256E+0000
 20
 4.14168120276008E+0000
 11
 3.97794978171805E+0000
 21
 4.16731599799095E+0000
  0
LINE
  8
1
  6
CONTINUOUS
 62
     1
 10
 4.02067444044224E+0000
 20
 4.14524554344825E+0000
 11
 3.97794978171805E+0000
 21
 4.18797020217607E+0000
  0
LINE
  8
1
  6
CONTINUOUS
 62
     1
 10
 4.03776430393191E+0000
 20
 4.14880988414370E+0000
 11
 3.99228144989684E+0000
 21
 4.19429273818241E+0000
  0
LINE
  8
1
  6
CONTINUOUS
 62
     1
 10
 4.05485416742158E+0000
 20
 4.15237422483915E+0000
 11
 4.01718530981452E+0000
 21
 4.19004308244621E+0000
  0
LINE
  8
1
  6
CONTINUOUS
 62
     1
 10
 4.07194403091125E+0000
 20
 4.15593856553460E+0000
 11
 4.04208916973585E+0000
 21
 4.18579342671001E+0000
  0
LINE
  8
1
  6
CONTINUOUS
 62
     1
 10
 4.08903389440093E+0000
 20
 4.15950290623005E+0000
 11
 4.06699302965717E+0000
 21
 4.18154377097380E+0000
  0
LINE
  8
1
  6
CONTINUOUS
 62
     1
 10
 4.10612375789788E+0000
 20
 4.16306724692549E+0000
 11
 4.09189688957849E+0000
 21
 4.17729411523760E+0000
  0
LINE
  8
1
  6
CONTINUOUS
 62
     1
 10
 4.12321362138755E+0000
 20
 4.16663158762094E+0000
 11
 4.11680074949982E+0000
 21
 4.17304445950867E+0000
  0
LINE
  8
1
  6
CONTINUOUS
 62
     1
 10
 4.12841736941482E+0000
 20
 4.17106217097898E+0000
 11
 4.12419053583289E+0000
 21
 4.16683533739706E+0000
  0
LINE
  8
1
  6
CONTINUOUS
 62
     1
 10
 4.11077389156708E+0000
 20
 4.17407289731636E+0000
 11
 4.09809339079948E+0000
 21
 4.16139239654876E+0000
  0
LINE
  8
1
  6
CONTINUOUS
 62
     1
 10
 4.09313041371206E+0000
 20
 4.17708362364647E+0000
 11
 4.07199624576606E+0000
 21
 4.15594945570047E+0000
  0
LINE
  8
1
  6
CONTINUOUS
 62
     1
 10
 4.07548693586432E+0000
 20
 4.18009434998385E+0000
 11
 4.04589910073264E+0000
 21
 4.15050651485217E+0000
  0
LINE
  8
1
  6
CONTINUOUS
 62
     1
 10
 4.05784345800930E+0000
 20
 4.18310507631395E+0000
 11
 4.01980195570650E+0000
 21
 4.14506357401115E+0000
  0
LINE
  8
1
  6
CONTINUOUS
 62
     1
 10
 4.04019998015428E+0000
 20
 4.18611580264405E+0000
 11
 3.99370481067308E+0000
 21
 4.13962063316285E+0000
  0
LINE
  8
1
  6
CONTINUOUS
 62
     1
 10
 4.02255650229927E+0000
 20
 4.18912652898143E+0000
 11
 3.97794978171078E+0000
 21
 4.14451980838930E+0000
  0
LINE
  8
1
  6
CONTINUOUS
 62
     1
 10
 4.00491302445153E+0000
 20
 4.19213725531154E+0000
 11
 3.97794978171078E+0000
 21
 4.16517401257443E+0000
  0
LINE
  8
1
  6
CONTINUOUS
 62
     1
 10
 3.98726954659651E+0000
 20
 4.19514798164164E+0000
 11
 3.97794978171078E+0000
 21
 4.18582821675955E+0000
  0
LINE
  8
1
  6
CONTINUOUS
 62
     1
 10
 5.98060282590450E+0000
 20
 4.10336282932985E+0000
 11
 5.98060282590450E+0000
 21
 4.10336282932985E+0000
  0
LINE
  8
1
  6
CONTINUOUS
 62
     1
 10
 5.98060282590450E+0000
 20
 4.10336282932985E+0000
 11
 5.98060282590450E+0000
 21
 4.10336282932985E+0000
  0
LINE
  8
1
  6
CONTINUOUS
 62
     1
 10
 6.12462581990985E+0000
 20
 4.55830622887152E+0000
 11
 6.12462581990985E+0000
 21
 4.55830622887152E+0000
  0
LINE
  8
1
  6
CONTINUOUS
 62
     1
 10
 6.12462581990985E+0000
 20
 4.55830622887152E+0000
 11
 6.09744429854618E+0000
 21
 4.39901690224360E+0000
  0
LINE
  8
1
  6
CONTINUOUS
 62
     1
 10
 6.09744429854618E+0000
 20
 4.39901690224360E+0000
 11
 6.15784793601779E+0000
 21
 4.39901690224360E+0000
  0
LINE
  8
1
  6
CONTINUOUS
 62
     1
 10
 6.15784793601779E+0000
 20
 4.39901690224360E+0000
 11
 6.12462581990985E+0000
 21
 4.55830622887152E+0000
  0
LINE
  8
1
  6
CONTINUOUS
 62
     1
 10
 6.09744429854618E+0000
 20
 4.39901690224360E+0000
 11
 6.15784793601779E+0000
 21
 4.39901690224360E+0000
  0
LINE
  8
1
  6
CONTINUOUS
 62
     1
 10
 6.10777140063874E+0000
 20
 4.39901690224360E+0000
 11
 6.09894966171123E+0000
 21
 4.40783864117111E+0000
  0
LINE
  8
1
  6
CONTINUOUS
 62
     1
 10
 6.12842560482386E+0000
 20
 4.39901690224360E+0000
 11
 6.10196038804861E+0000
 21
 4.42548211902613E+0000
  0
LINE
  8
1
  6
CONTINUOUS
 62
     1
 10
 6.14907980900898E+0000
 20
 4.39901690225088E+0000
 11
 6.10497111437871E+0000
 21
 4.44312559687387E+0000
  0
LINE
  8
1
  6
CONTINUOUS
 62
     1
 10
 6.15471563354367E+0000
 20
 4.41403528189403E+0000
 11
 6.10798184071609E+0000
 21
 4.46076907472889E+0000
  0
LINE
  8
1
  6
CONTINUOUS
 62
     1
 10
 6.14927269269538E+0000
 20
 4.44013242692745E+0000
 11
 6.11099256704620E+0000
 21
 4.47841255258390E+0000
  0
LINE
  8
1
  6
CONTINUOUS
 62
     1
 10
 6.14382975185435E+0000
 20
 4.46622957196087E+0000
 11
 6.11400329337630E+0000
 21
 4.49605603043165E+0000
  0
LINE
  8
1
  6
CONTINUOUS
 62
     1
 10
 6.13838681100606E+0000
 20
 4.49232671699428E+0000
 11
 6.11701401971368E+0000
 21
 4.51369950828666E+0000
  0
LINE
  8
1
  6
CONTINUOUS
 62
     1
 10
 6.13294387015776E+0000
 20
 4.51842386202770E+0000
 11
 6.12002474604378E+0000
 21
 4.53134298614168E+0000
  0
LINE
  8
1
  6
CONTINUOUS
 62
     1
 10
 6.12750092930946E+0000
 20
 4.54452100705385E+0000
 11
 6.12303547237389E+0000
 21
 4.54898646398942E+0000
  0
LINE
  8
1
  6
CONTINUOUS
 62
     1
 10
 6.15606576566643E+0000
 20
 4.40756183398480E+0000
 11
 6.14752083391795E+0000
 21
 4.39901690223633E+0000
  0
LINE
  8
1
  6
CONTINUOUS
 62
     1
 10
 6.15250142497098E+0000
 20
 4.42465169747447E+0000
 11
 6.12686662973283E+0000
 21
 4.39901690223633E+0000
  0
LINE
  8
1
  6
CONTINUOUS
 62
     1
 10
 6.14893708427553E+0000
 20
 4.44174156096415E+0000
 11
 6.10621242554771E+0000
 21
 4.39901690223633E+0000
  0
LINE
  8
1
  6
CONTINUOUS
 62
     1
 10
 6.14537274358008E+0000
 20
 4.45883142445382E+0000
 11
 6.09988988954865E+0000
 21
 4.41334857042966E+0000
  0
LINE
  8
1
  6
CONTINUOUS
 62
     1
 10
 6.14180840288464E+0000
 20
 4.47592128794349E+0000
 11
 6.10413954528485E+0000
 21
 4.43825243035099E+0000
  0
LINE
  8
1
  6
CONTINUOUS
 62
     1
 10
 6.13824406218919E+0000
 20
 4.49301115144044E+0000
 11
 6.10838920102105E+0000
 21
 4.46315629027231E+0000
  0
LINE
  8
1
  6
CONTINUOUS
 62
     1
 10
 6.13467972149374E+0000
 20
 4.51010101492284E+0000
 11
 6.11263885674998E+0000
 21
 4.48806015018636E+0000
  0
LINE
  8
1
  6
CONTINUOUS
 62
     1
 10
 6.13111538079829E+0000
 20
 4.52719087841979E+0000
 11
 6.11688851248618E+0000
 21
 4.51296401010768E+0000
  0
LINE
  8
1
  6
CONTINUOUS
 62
     1
 10
 6.12755104010284E+0000
 20
 4.54428074190946E+0000
 11
 6.12113816822239E+0000
 21
 4.53786787002900E+0000
  0
LINE
  8
1
  6
CONTINUOUS
 62
     1
 10
 6.65837591125455E+0000
 20
 4.98305092420196E+0000
 11
 6.65837591125455E+0000
 21
 4.98305092420196E+0000
  0
LINE
  8
1
  6
CONTINUOUS
 62
     1
 10
 6.65837591125455E+0000
 20
 4.98305092420196E+0000
 11
 6.63119438989088E+0000
 21
 4.82376159757405E+0000
  0
LINE
  8
1
  6
CONTINUOUS
 62
     1
 10
 6.63119438989088E+0000
 20
 4.82376159757405E+0000
 11
 6.69159802736249E+0000
 21
 4.82376159757405E+0000
  0
LINE
  8
1
  6
CONTINUOUS
 62
     1
 10
 6.69159802736249E+0000
 20
 4.82376159757405E+0000
 11
 6.65837591125455E+0000
 21
 4.98305092420196E+0000
  0
LINE
  8
1
  6
CONTINUOUS
 62
     1
 10
 6.63119438989088E+0000
 20
 4.82376159757405E+0000
 11
 6.69159802736249E+0000
 21
 4.82376159757405E+0000
  0
LINE
  8
1
  6
CONTINUOUS
 62
     1
 10
 6.64152149199072E+0000
 20
 4.82376159757405E+0000
 11
 6.63269975305593E+0000
 21
 4.83258333650883E+0000
  0
LINE
  8
1
  6
CONTINUOUS
 62
     1
 10
 6.66217569618311E+0000
 20
 4.82376159757405E+0000
 11
 6.63571047939331E+0000
 21
 4.85022681436385E+0000
  0
LINE
  8
1
  6
CONTINUOUS
 62
     1
 10
 6.68282990036823E+0000
 20
 4.82376159757405E+0000
 11
 6.63872120572341E+0000
 21
 4.86787029221159E+0000
  0
LINE
  8
1
  6
CONTINUOUS
 62
     1
 10
 6.68846572488110E+0000
 20
 4.83877997724630E+0000
 11
 6.64173193206079E+0000
 21
 4.88551377006661E+0000
  0
LINE
  8
1
  6
CONTINUOUS
 62
     1
 10
 6.68302278403280E+0000
 20
 4.86487712227245E+0000
 11
 6.64474265839090E+0000
 21
 4.90315724791435E+0000
  0
LINE
  8
1
  6
CONTINUOUS
 62
     1
 10
 6.67757984319178E+0000
 20
 4.89097426730586E+0000
 11
 6.64775338472100E+0000
 21
 4.92080072576937E+0000
  0
LINE
  8
1
  6
CONTINUOUS
 62
     1
 10
 6.67213690234348E+0000
 20
 4.91707141233201E+0000
 11
 6.65076411105838E+0000
 21
 4.93844420361711E+0000
  0
LINE
  8
1
  6
CONTINUOUS
 62
     1
 10
 6.66669396150246E+0000
 20
 4.94316855736542E+0000
 11
 6.65377483738848E+0000
 21
 4.95608768147213E+0000
  0
LINE
  8
1
  6
CONTINUOUS
 62
     1
 10
 6.66125102065416E+0000
 20
 4.96926570239157E+0000
 11
 6.65678556372586E+0000
 21
 4.97373115932714E+0000
  0
LINE
  8
1
  6
CONTINUOUS
 62
     1
 10
 6.68981585701113E+0000
 20
 4.83230652931525E+0000
 11
 6.68127092526993E+0000
 21
 4.82376159757405E+0000
  0
LINE
  8
1
  6
CONTINUOUS
 62
     1
 10
 6.68625151631568E+0000
 20
 4.84939639280492E+0000
 11
 6.66061672108481E+0000
 21
 4.82376159757405E+0000
  0
LINE
  8
1
  6
CONTINUOUS
 62
     1
 10
 6.68268717562023E+0000
 20
 4.86648625629459E+0000
 11
 6.63996251689969E+0000
 21
 4.82376159757405E+0000
  0
LINE
  8
1
  6
CONTINUOUS
 62
     1
 10
 6.67912283492478E+0000
 20
 4.88357611979154E+0000
 11
 6.63363998089335E+0000
 21
 4.83809326575283E+0000
  0
LINE
  8
1
  6
CONTINUOUS
 62
     1
 10
 6.67555849422206E+0000
 20
 4.90066598326666E+0000
 11
 6.63788963662955E+0000
 21
 4.86299712567416E+0000
  0
LINE
  8
1
  6
CONTINUOUS
 62
     1
 10
 6.67199415352661E+0000
 20
 4.91775584676361E+0000
 11
 6.64213929236575E+0000
 21
 4.88790098559548E+0000
  0
LINE
  8
1
  6
CONTINUOUS
 62
     1
 10
 6.66842981283844E+0000
 20
 4.93484571025328E+0000
 11
 6.64638894810196E+0000
 21
 4.91280484551680E+0000
  0
LINE
  8
1
  6
CONTINUOUS
 62
     1
 10
 6.66486547214299E+0000
 20
 4.95193557374296E+0000
 11
 6.65063860383816E+0000
 21
 4.93770870543813E+0000
  0
LINE
  8
1
  6
CONTINUOUS
 62
     1
 10
 6.66130113144754E+0000
 20
 4.96902543723991E+0000
 11
 6.65488825955981E+0000
 21
 4.96261256535217E+0000
  0
LINE
  8
1
  6
CONTINUOUS
 62
     1
 10
 6.12742712187173E+0000
 20
 4.96017857691913E+0000
 11
 6.12742712187173E+0000
 21
 4.96017857691913E+0000
  0
LINE
  8
1
  6
CONTINUOUS
 62
     1
 10
 6.12742712187173E+0000
 20
 4.96017857691913E+0000
 11
 6.15460864323541E+0000
 21
 5.11946790354705E+0000
  0
LINE
  8
1
  6
CONTINUOUS
 62
     1
 10
 6.15460864323541E+0000
 20
 5.11946790354705E+0000
 11
 6.09420500576380E+0000
 21
 5.11946790354705E+0000
  0
LINE
  8
1
  6
CONTINUOUS
 62
     1
 10
 6.09420500576380E+0000
 20
 5.11946790354705E+0000
 11
 6.12742712187173E+0000
 21
 4.96017857691913E+0000
  0
LINE
  8
1
  6
CONTINUOUS
 62
     1
 10
 6.15460864323541E+0000
 20
 5.11946790354705E+0000
 11
 6.09420500576380E+0000
 21
 5.11946790354705E+0000
  0
LINE
  8
1
  6
CONTINUOUS
 62
     1
 10
 6.12893248504406E+0000
 20
 4.96900031584664E+0000
 11
 6.12470565145486E+0000
 21
 4.97322714943584E+0000
  0
LINE
  8
1
  6
CONTINUOUS
 62
     1
 10
 6.13194321137416E+0000
 20
 4.98664379370166E+0000
 11
 6.11926271060656E+0000
 21
 4.99932429446926E+0000
  0
LINE
  8
1
  6
CONTINUOUS
 62
     1
 10
 6.13495393770427E+0000
 20
 5.00428727155668E+0000
 11
 6.11381976975827E+0000
 21
 5.02542143950268E+0000
  0
LINE
  8
1
  6
CONTINUOUS
 62
     1
 10
 6.13796466404165E+0000
 20
 5.02193074941169E+0000
 11
 6.10837682890997E+0000
 21
 5.05151858453610E+0000
  0
LINE
  8
1
  6
CONTINUOUS
 62
     1
 10
 6.14097539037175E+0000
 20
 5.03957422725944E+0000
 11
 6.10293388806167E+0000
 21
 5.07761572956952E+0000
  0
LINE
  8
1
  6
CONTINUOUS
 62
     1
 10
 6.14398611670185E+0000
 20
 5.05721770511445E+0000
 11
 6.09749094722065E+0000
 21
 5.10371287460293E+0000
  0
LINE
  8
1
  6
CONTINUOUS
 62
     1
 10
 6.14699684303923E+0000
 20
 5.07486118296947E+0000
 11
 6.10239012245438E+0000
 21
 5.11946790354705E+0000
  0
LINE
  8
1
  6
CONTINUOUS
 62
     1
 10
 6.15000756936934E+0000
 20
 5.09250466081721E+0000
 11
 6.12304432663950E+0000
 21
 5.11946790354705E+0000
  0
LINE
  8
1
  6
CONTINUOUS
 62
     1
 10
 6.15301829569944E+0000
 20
 5.11014813867223E+0000
 11
 6.14369853082462E+0000
 21
 5.11946790354705E+0000
  0
LINE
  8
1
  6
CONTINUOUS
 62
     1
 10
 6.12955194973620E+0000
 20
 4.97263050687616E+0000
 11
 6.12564495152037E+0000
 21
 4.96872350866033E+0000
  0
LINE
  8
1
  6
CONTINUOUS
 62
     1
 10
 6.13380160547240E+0000
 20
 4.99753436679748E+0000
 11
 6.12208061082492E+0000
 21
 4.98581337215001E+0000
  0
LINE
  8
1
  6
CONTINUOUS
 62
     1
 10
 6.13805126120133E+0000
 20
 5.02243822671880E+0000
 11
 6.11851627012948E+0000
 21
 5.00290323563968E+0000
  0
LINE
  8
1
  6
CONTINUOUS
 62
     1
 10
 6.14230091693753E+0000
 20
 5.04734208664013E+0000
 11
 6.11495192943403E+0000
 21
 5.01999309912935E+0000
  0
LINE
  8
1
  6
CONTINUOUS
 62
     1
 10
 6.14655057267373E+0000
 20
 5.07224594656145E+0000
 11
 6.11138758873858E+0000
 21
 5.03708296261902E+0000
  0
LINE
  8
1
  6
CONTINUOUS
 62
     1
 10
 6.15080022840993E+0000
 20
 5.09714980648278E+0000
 11
 6.10782324804313E+0000
 21
 5.05417282611597E+0000
  0
LINE
  8
1
  6
CONTINUOUS
 62
     1
 10
 6.15246412128909E+0000
 20
 5.11946790353977E+0000
 11
 6.10425890734768E+0000
 21
 5.07126268959837E+0000
  0
LINE
  8
1
  6
CONTINUOUS
 62
     1
 10
 6.13180991710396E+0000
 20
 5.11946790353977E+0000
 11
 6.10069456665224E+0000
 21
 5.08835255308804E+0000
  0
LINE
  8
1
  6
CONTINUOUS
 62
     1
 10
 6.11115571291884E+0000
 20
 5.11946790353977E+0000
 11
 6.09713022595679E+0000
 21
 5.10544241658499E+0000
  0
LINE
  8
1
  6
CONTINUOUS
 62
     1
 10
 6.66117721321643E+0000
 20
 4.51888538696221E+0000
 11
 6.66117721321643E+0000
 21
 4.51888538696221E+0000
  0
LINE
  8
1
  6
CONTINUOUS
 62
     1
 10
 6.66117721321643E+0000
 20
 4.51888538696221E+0000
 11
 6.68835873458011E+0000
 21
 4.67817471359012E+0000
  0
LINE
  8
1
  6
CONTINUOUS
 62
     1
 10
 6.68835873458011E+0000
 20
 4.67817471359012E+0000
 11
 6.62795509710850E+0000
 21
 4.67817471359012E+0000
  0
LINE
  8
1
  6
CONTINUOUS
 62
     1
 10
 6.62795509710850E+0000
 20
 4.67817471359012E+0000
 11
 6.66117721321643E+0000
 21
 4.51888538696221E+0000
  0
LINE
  8
1
  6
CONTINUOUS
 62
     1
 10
 6.68835873458011E+0000
 20
 4.67817471359012E+0000
 11
 6.62795509710850E+0000
 21
 4.67817471359012E+0000
  0
LINE
  8
1
  6
CONTINUOUS
 62
     1
 10
 6.66268257638148E+0000
 20
 4.52770712588972E+0000
 11
 6.65845574279228E+0000
 21
 4.53193395947892E+0000
  0
LINE
  8
1
  6
CONTINUOUS
 62
     1
 10
 6.66569330271886E+0000
 20
 4.54535060373746E+0000
 11
 6.65301280195126E+0000
 21
 4.55803110450506E+0000
  0
LINE
  8
1
  6
CONTINUOUS
 62
     1
 10
 6.66870402904897E+0000
 20
 4.56299408159248E+0000
 11
 6.64756986110297E+0000
 21
 4.58412824953848E+0000
  0
LINE
  8
1
  6
CONTINUOUS
 62
     1
 10
 6.67171475537907E+0000
 20
 4.58063755944750E+0000
 11
 6.64212692025467E+0000
 21
 4.61022539457190E+0000
  0
LINE
  8
1
  6
CONTINUOUS
 62
     1
 10
 6.67472548170917E+0000
 20
 4.59828103730251E+0000
 11
 6.63668397941365E+0000
 21
 4.63632253959804E+0000
  0
LINE
  8
1
  6
CONTINUOUS
 62
     1
 10
 6.67773620804655E+0000
 20
 4.61592451515025E+0000
 11
 6.63124103856535E+0000
 21
 4.66241968463146E+0000
  0
LINE
  8
1
  6
CONTINUOUS
 62
     1
 10
 6.68074693437666E+0000
 20
 4.63356799301255E+0000
 11
 6.63614021379908E+0000
 21
 4.67817471359012E+0000
  0
LINE
  8
1
  6
CONTINUOUS
 62
     1
 10
 6.68375766071404E+0000
 20
 4.65121147086757E+0000
 11
 6.65679441799148E+0000
 21
 4.67817471359012E+0000
  0
LINE
  8
1
  6
CONTINUOUS
 62
     1
 10
 6.68676838704414E+0000
 20
 4.66885494872258E+0000
 11
 6.67744862217660E+0000
 21
 4.67817471359012E+0000
  0
LINE
  8
1
  6
CONTINUOUS
 62
     1
 10
 6.66330204108090E+0000
 20
 4.53133731691923E+0000
 11
 6.65939504286507E+0000
 21
 4.52743031870341E+0000
  0
LINE
  8
1
  6
CONTINUOUS
 62
     1
 10
 6.66755169681710E+0000
 20
 4.55624117684056E+0000
 11
 6.65583070216962E+0000
 21
 4.54452018219308E+0000
  0
LINE
  8
1
  6
CONTINUOUS
 62
     1
 10
 6.67180135255330E+0000
 20
 4.58114503676188E+0000
 11
 6.65226636147418E+0000
 21
 4.56161004568276E+0000
  0
LINE
  8
1
  6
CONTINUOUS
 62
     1
 10
 6.67605100828223E+0000
 20
 4.60604889667593E+0000
 11
 6.64870202077873E+0000
 21
 4.57869990917243E+0000
  0
LINE
  8
1
  6
CONTINUOUS
 62
     1
 10
 6.68030066401843E+0000
 20
 4.63095275659725E+0000
 11
 6.64513768008328E+0000
 21
 4.59578977266938E+0000
  0
LINE
  8
1
  6
CONTINUOUS
 62
     1
 10
 6.68455031975463E+0000
 20
 4.65585661652585E+0000
 11
 6.64157333938783E+0000
 21
 4.61287963615905E+0000
  0
LINE
  8
1
  6
CONTINUOUS
 62
     1
 10
 6.68621421263379E+0000
 20
 4.67817471358285E+0000
 11
 6.63800899869238E+0000
 21
 4.62996949964145E+0000
  0
LINE
  8
1
  6
CONTINUOUS
 62
     1
 10
 6.66556000844867E+0000
 20
 4.67817471358285E+0000
 11
 6.63444465799694E+0000
 21
 4.64705936313840E+0000
  0
LINE
  8
1
  6
CONTINUOUS
 62
     1
 10
 6.64490580426354E+0000
 20
 4.67817471358285E+0000
 11
 6.63088031730877E+0000
 21
 4.66414922662807E+0000
  0
LINE
  8
1
  6
CONTINUOUS
 62
     1
 10
 7.08595405674714E+0000
 20
 5.33796086399525E+0000
 11
 7.08595405674714E+0000
 21
 5.33796086399525E+0000
  0
LINE
  8
1
  6
CONTINUOUS
 62
     1
 10
 7.08595405674714E+0000
 20
 5.33796086399525E+0000
 11
 7.24524338339688E+0000
 21
 5.31077934263158E+0000
  0
LINE
  8
1
  6
CONTINUOUS
 62
     1
 10
 7.24524338339688E+0000
 20
 5.31077934263158E+0000
 11
 7.24524338339688E+0000
 21
 5.37118298010319E+0000
  0
LINE
  8
1
  6
CONTINUOUS
 62
     1
 10
 7.24524338339688E+0000
 20
 5.37118298010319E+0000
 11
 7.08595405674714E+0000
 21
 5.33796086399525E+0000
  0
LINE
  8
1
  6
CONTINUOUS
 62
     1
 10
 7.24524338339688E+0000
 20
 5.31077934263158E+0000
 11
 7.24524338339688E+0000
 21
 5.37118298010319E+0000
  0
LINE
  8
1
  6
CONTINUOUS
 62
     1
 10
 7.09840598671872E+0000
 20
 5.33583603612351E+0000
 11
 7.09449898850289E+0000
 21
 5.33974303433934E+0000
  0
LINE
  8
1
  6
CONTINUOUS
 62
     1
 10
 7.12330984663276E+0000
 20
 5.33158638039458E+0000
 11
 7.11158885199256E+0000
 21
 5.34330737503478E+0000
  0
LINE
  8
1
  6
CONTINUOUS
 62
     1
 10
 7.14821370655409E+0000
 20
 5.32733672465838E+0000
 11
 7.12867871548224E+0000
 21
 5.34687171573023E+0000
  0
LINE
  8
1
  6
CONTINUOUS
 62
     1
 10
 7.17311756646814E+0000
 20
 5.32308706892945E+0000
 11
 7.14576857897191E+0000
 21
 5.35043605642568E+0000
  0
LINE
  8
1
  6
CONTINUOUS
 62
     1
 10
 7.19802142638946E+0000
 20
 5.31883741319325E+0000
 11
 7.16285844246158E+0000
 21
 5.35400039712113E+0000
  0
LINE
  8
1
  6
CONTINUOUS
 62
     1
 10
 7.22292528631078E+0000
 20
 5.31458775745705E+0000
 11
 7.17994830595126E+0000
 21
 5.35756473781657E+0000
  0
LINE
  8
1
  6
CONTINUOUS
 62
     1
 10
 7.24524338340416E+0000
 20
 5.31292386454879E+0000
 11
 7.19703816944093E+0000
 21
 5.36112907851202E+0000
  0
LINE
  8
1
  6
CONTINUOUS
 62
     1
 10
 7.24524338340416E+0000
 20
 5.33357806873391E+0000
 11
 7.21412803293060E+0000
 21
 5.36469341920747E+0000
  0
LINE
  8
1
  6
CONTINUOUS
 62
     1
 10
 7.24524338340416E+0000
 20
 5.35423227292631E+0000
 11
 7.23121789642028E+0000
 21
 5.36825775990292E+0000
  0
LINE
  8
1
  6
CONTINUOUS
 62
     1
 10
 7.24524338338961E+0000
 20
 5.32110644472414E+0000
 11
 7.23642164446210E+0000
 21
 5.31228470579663E+0000
  0
LINE
  8
1
  6
CONTINUOUS
 62
     1
 10
 7.24524338338961E+0000
 20
 5.34176064890926E+0000
 11
 7.21877816661436E+0000
 21
 5.31529543212673E+0000
  0
LINE
  8
1
  6
CONTINUOUS
 62
     1
 10
 7.24524338338961E+0000
 20
 5.36241485309438E+0000
 11
 7.20113468875934E+0000
 21
 5.31830615845683E+0000
  0
LINE
  8
1
  6
CONTINUOUS
 62
     1
 10
 7.23022500374645E+0000
 20
 5.36805067762907E+0000
 11
 7.18349121090432E+0000
 21
 5.32131688478694E+0000
  0
LINE
  8
1
  6
CONTINUOUS
 62
     1
 10
 7.20412785870576E+0000
 20
 5.36260773677350E+0000
 11
 7.16584773304930E+0000
 21
 5.32432761112432E+0000
  0
LINE
  8
1
  6
CONTINUOUS
 62
     1
 10
 7.17803071367962E+0000
 20
 5.35716479593248E+0000
 11
 7.14820425519429E+0000
 21
 5.32733833745442E+0000
  0
LINE
  8
1
  6
CONTINUOUS
 62
     1
 10
 7.15193356864620E+0000
 20
 5.35172185509145E+0000
 11
 7.13056077734655E+0000
 21
 5.33034906378452E+0000
  0
LINE
  8
1
  6
CONTINUOUS
 62
     1
 10
 7.12583642360551E+0000
 20
 5.34627891423588E+0000
 11
 7.11291729949153E+0000
 21
 5.33335979011463E+0000
  0
LINE
  8
1
  6
CONTINUOUS
 62
     1
 10
 7.09973927857936E+0000
 20
 5.34083597339486E+0000
 11
 7.09527382163651E+0000
 21
 5.33637051645201E+0000
  0
LINE
  8
1
  6
CONTINUOUS
 62
     1
 10
 7.08595405674714E+0000
 20
 5.33796086399525E+0000
 11
 7.08595405674714E+0000
 21
 5.33796086399525E+0000
  0
LINE
  8
1
  6
CONTINUOUS
 62
     1
 10
 7.08595405674714E+0000
 20
 5.33796086399525E+0000
 11
 7.24524338339688E+0000
 21
 5.31077934263158E+0000
  0
LINE
  8
1
  6
CONTINUOUS
 62
     1
 10
 7.24524338339688E+0000
 20
 5.31077934263158E+0000
 11
 7.24524338339688E+0000
 21
 5.37118298010319E+0000
  0
LINE
  8
1
  6
CONTINUOUS
 62
     1
 10
 7.24524338339688E+0000
 20
 5.37118298010319E+0000
 11
 7.08595405674714E+0000
 21
 5.33796086399525E+0000
  0
LINE
  8
1
  6
CONTINUOUS
 62
     1
 10
 7.24524338339688E+0000
 20
 5.31077934263158E+0000
 11
 7.24524338339688E+0000
 21
 5.37118298010319E+0000
  0
LINE
  8
1
  6
CONTINUOUS
 62
     1
 10
 7.09840598671872E+0000
 20
 5.33583603612351E+0000
 11
 7.09449898850289E+0000
 21
 5.33974303433934E+0000
  0
LINE
  8
1
  6
CONTINUOUS
 62
     1
 10
 7.12330984663276E+0000
 20
 5.33158638039458E+0000
 11
 7.11158885199256E+0000
 21
 5.34330737503478E+0000
  0
LINE
  8
1
  6
CONTINUOUS
 62
     1
 10
 7.14821370655409E+0000
 20
 5.32733672465838E+0000
 11
 7.12867871548224E+0000
 21
 5.34687171573023E+0000
  0
LINE
  8
1
  6
CONTINUOUS
 62
     1
 10
 7.17311756646814E+0000
 20
 5.32308706892945E+0000
 11
 7.14576857897191E+0000
 21
 5.35043605642568E+0000
  0
LINE
  8
1
  6
CONTINUOUS
 62
     1
 10
 7.19802142638946E+0000
 20
 5.31883741319325E+0000
 11
 7.16285844246158E+0000
 21
 5.35400039712113E+0000
  0
LINE
  8
1
  6
CONTINUOUS
 62
     1
 10
 7.22292528631078E+0000
 20
 5.31458775745705E+0000
 11
 7.17994830595126E+0000
 21
 5.35756473781657E+0000
  0
LINE
  8
1
  6
CONTINUOUS
 62
     1
 10
 7.24524338340416E+0000
 20
 5.31292386454879E+0000
 11
 7.19703816944093E+0000
 21
 5.36112907851202E+0000
  0
LINE
  8
1
  6
CONTINUOUS
 62
     1
 10
 7.24524338340416E+0000
 20
 5.33357806873391E+0000
 11
 7.21412803293060E+0000
 21
 5.36469341920747E+0000
  0
LINE
  8
1
  6
CONTINUOUS
 62
     1
 10
 7.24524338340416E+0000
 20
 5.35423227292631E+0000
 11
 7.23121789642028E+0000
 21
 5.36825775990292E+0000
  0
LINE
  8
1
  6
CONTINUOUS
 62
     1
 10
 7.24524338338961E+0000
 20
 5.32110644472414E+0000
 11
 7.23642164446210E+0000
 21
 5.31228470579663E+0000
  0
LINE
  8
1
  6
CONTINUOUS
 62
     1
 10
 7.24524338338961E+0000
 20
 5.34176064890926E+0000
 11
 7.21877816661436E+0000
 21
 5.31529543212673E+0000
  0
LINE
  8
1
  6
CONTINUOUS
 62
     1
 10
 7.24524338338961E+0000
 20
 5.36241485309438E+0000
 11
 7.20113468875934E+0000
 21
 5.31830615845683E+0000
  0
LINE
  8
1
  6
CONTINUOUS
 62
     1
 10
 7.23022500374645E+0000
 20
 5.36805067762907E+0000
 11
 7.18349121090432E+0000
 21
 5.32131688478694E+0000
  0
LINE
  8
1
  6
CONTINUOUS
 62
     1
 10
 7.20412785870576E+0000
 20
 5.36260773677350E+0000
 11
 7.16584773304930E+0000
 21
 5.32432761112432E+0000
  0
LINE
  8
1
  6
CONTINUOUS
 62
     1
 10
 7.17803071367962E+0000
 20
 5.35716479593248E+0000
 11
 7.14820425519429E+0000
 21
 5.32733833745442E+0000
  0
LINE
  8
1
  6
CONTINUOUS
 62
     1
 10
 7.15193356864620E+0000
 20
 5.35172185509145E+0000
 11
 7.13056077734655E+0000
 21
 5.33034906378452E+0000
  0
LINE
  8
1
  6
CONTINUOUS
 62
     1
 10
 7.12583642360551E+0000
 20
 5.34627891423588E+0000
 11
 7.11291729949153E+0000
 21
 5.33335979011463E+0000
  0
LINE
  8
1
  6
CONTINUOUS
 62
     1
 10
 7.09973927857936E+0000
 20
 5.34083597339486E+0000
 11
 7.09527382163651E+0000
 21
 5.33637051645201E+0000
  0
LINE
  8
1
  6
CONTINUOUS
 62
     1
 10
 7.54883763039106E+0000
 20
 5.33898376118304E+0000
 11
 7.54883763039106E+0000
 21
 5.33898376118304E+0000
  0
LINE
  8
1
  6
CONTINUOUS
 62
     1
 10
 7.54883763039106E+0000
 20
 5.33898376118304E+0000
 11
 7.38954830375587E+0000
 21
 5.36616528254672E+0000
  0
LINE
  8
1
  6
CONTINUOUS
 62
     1
 10
 7.38954830375587E+0000
 20
 5.36616528254672E+0000
 11
 7.38954830375587E+0000
 21
 5.30576164507511E+0000
  0
LINE
  8
1
  6
CONTINUOUS
 62
     1
 10
 7.38954830375587E+0000
 20
 5.30576164507511E+0000
 11
 7.54883763039106E+0000
 21
 5.33898376118304E+0000
  0
LINE
  8
1
  6
CONTINUOUS
 62
     1
 10
 7.38954830375587E+0000
 20
 5.36616528254672E+0000
 11
 7.38954830375587E+0000
 21
 5.30576164507511E+0000
  0
LINE
  8
1
  6
CONTINUOUS
 62
     1
 10
 7.39809323551162E+0000
 20
 5.30754381542647E+0000
 11
 7.38954830375587E+0000
 21
 5.31608874717494E+0000
  0
LINE
  8
1
  6
CONTINUOUS
 62
     1
 10
 7.41518309900130E+0000
 20
 5.31110815611464E+0000
 11
 7.38954830375587E+0000
 21
 5.33674295136007E+0000
  0
LINE
  8
1
  6
CONTINUOUS
 62
     1
 10
 7.43227296249097E+0000
 20
 5.31467249681009E+0000
 11
 7.38954830376315E+0000
 21
 5.35739715553791E+0000
  0
LINE
  8
1
  6
CONTINUOUS
 62
     1
 10
 7.44936282598064E+0000
 20
 5.31823683750554E+0000
 11
 7.40387997194193E+0000
 21
 5.36371969154425E+0000
  0
LINE
  8
1
  6
CONTINUOUS
 62
     1
 10
 7.46645268947032E+0000
 20
 5.32180117820099E+0000
 11
 7.42878383186326E+0000
 21
 5.35947003580804E+0000
  0
LINE
  8
1
  6
CONTINUOUS
 62
     1
 10
 7.48354255295999E+0000
 20
 5.32536551889643E+0000
 11
 7.45368769178458E+0000
 21
 5.35522038007184E+0000
  0
LINE
  8
1
  6
CONTINUOUS
 62
     1
 10
 7.50063241644966E+0000
 20
 5.32892985959188E+0000
 11
 7.47859155170590E+0000
 21
 5.35097072433564E+0000
  0
LINE
  8
1
  6
CONTINUOUS
 62
     1
 10
 7.51772227993933E+0000
 20
 5.33249420028733E+0000
 11
 7.50349541162723E+0000
 21
 5.34672106859944E+0000
  0
LINE
  8
1
  6
CONTINUOUS
 62
     1
 10
 7.53481214342901E+0000
 20
 5.33605854098278E+0000
 11
 7.52839927154855E+0000
 21
 5.34247141286323E+0000
  0
LINE
  8
1
  6
CONTINUOUS
 62
     1
 10
 7.54001589146355E+0000
 20
 5.34048912434810E+0000
 11
 7.53578905786708E+0000
 21
 5.33626229075162E+0000
  0
LINE
  8
1
  6
CONTINUOUS
 62
     1
 10
 7.52237241360854E+0000
 20
 5.34349985068548E+0000
 11
 7.50969191284094E+0000
 21
 5.33081934991060E+0000
  0
LINE
  8
1
  6
CONTINUOUS
 62
     1
 10
 7.50472893576080E+0000
 20
 5.34651057701558E+0000
 11
 7.48359476780752E+0000
 21
 5.32537640906958E+0000
  0
LINE
  8
1
  6
CONTINUOUS
 62
     1
 10
 7.48708545790578E+0000
 20
 5.34952130334568E+0000
 11
 7.45749762277410E+0000
 21
 5.31993346821400E+0000
  0
LINE
  8
1
  6
CONTINUOUS
 62
     1
 10
 7.46944198005076E+0000
 20
 5.35253202967579E+0000
 11
 7.43140047774068E+0000
 21
 5.31449052737298E+0000
  0
LINE
  8
1
  6
CONTINUOUS
 62
     1
 10
 7.45179850219574E+0000
 20
 5.35554275601316E+0000
 11
 7.40530333271454E+0000
 21
 5.30904758652468E+0000
  0
LINE
  8
1
  6
CONTINUOUS
 62
     1
 10
 7.43415502434073E+0000
 20
 5.35855348234327E+0000
 11
 7.38954830374860E+0000
 21
 5.31394676174386E+0000
  0
LINE
  8
1
  6
CONTINUOUS
 62
     1
 10
 7.41651154649298E+0000
 20
 5.36156420867337E+0000
 11
 7.38954830374860E+0000
 21
 5.33460096592898E+0000
  0
LINE
  8
1
  6
CONTINUOUS
 62
     1
 10
 7.39886806863797E+0000
 20
 5.36457493500347E+0000
 11
 7.38954830374860E+0000
 21
 5.35525517011411E+0000
  0
LINE
  8
1
  6
CONTINUOUS
 62
     1
 10
 7.54883763039106E+0000
 20
 5.33898376118304E+0000
 11
 7.54883763039106E+0000
 21
 5.33898376118304E+0000
  0
LINE
  8
1
  6
CONTINUOUS
 62
     1
 10
 7.54883763039106E+0000
 20
 5.33898376118304E+0000
 11
 7.38954830375587E+0000
 21
 5.36616528254672E+0000
  0
LINE
  8
1
  6
CONTINUOUS
 62
     1
 10
 7.38954830375587E+0000
 20
 5.36616528254672E+0000
 11
 7.38954830375587E+0000
 21
 5.30576164507511E+0000
  0
LINE
  8
1
  6
CONTINUOUS
 62
     1
 10
 7.38954830375587E+0000
 20
 5.30576164507511E+0000
 11
 7.54883763039106E+0000
 21
 5.33898376118304E+0000
  0
LINE
  8
1
  6
CONTINUOUS
 62
     1
 10
 7.38954830375587E+0000
 20
 5.36616528254672E+0000
 11
 7.38954830375587E+0000
 21
 5.30576164507511E+0000
  0
LINE
  8
1
  6
CONTINUOUS
 62
     1
 10
 7.39809323551162E+0000
 20
 5.30754381542647E+0000
 11
 7.38954830375587E+0000
 21
 5.31608874717494E+0000
  0
LINE
  8
1
  6
CONTINUOUS
 62
     1
 10
 7.41518309900130E+0000
 20
 5.31110815611464E+0000
 11
 7.38954830375587E+0000
 21
 5.33674295136007E+0000
  0
LINE
  8
1
  6
CONTINUOUS
 62
     1
 10
 7.43227296249097E+0000
 20
 5.31467249681009E+0000
 11
 7.38954830376315E+0000
 21
 5.35739715553791E+0000
  0
LINE
  8
1
  6
CONTINUOUS
 62
     1
 10
 7.44936282598064E+0000
 20
 5.31823683750554E+0000
 11
 7.40387997194193E+0000
 21
 5.36371969154425E+0000
  0
LINE
  8
1
  6
CONTINUOUS
 62
     1
 10
 7.46645268947032E+0000
 20
 5.32180117820099E+0000
 11
 7.42878383186326E+0000
 21
 5.35947003580804E+0000
  0
LINE
  8
1
  6
CONTINUOUS
 62
     1
 10
 7.48354255295999E+0000
 20
 5.32536551889643E+0000
 11
 7.45368769178458E+0000
 21
 5.35522038007184E+0000
  0
LINE
  8
1
  6
CONTINUOUS
 62
     1
 10
 7.50063241644966E+0000
 20
 5.32892985959188E+0000
 11
 7.47859155170590E+0000
 21
 5.35097072433564E+0000
  0
LINE
  8
1
  6
CONTINUOUS
 62
     1
 10
 7.51772227993933E+0000
 20
 5.33249420028733E+0000
 11
 7.50349541162723E+0000
 21
 5.34672106859944E+0000
  0
LINE
  8
1
  6
CONTINUOUS
 62
     1
 10
 7.53481214342901E+0000
 20
 5.33605854098278E+0000
 11
 7.52839927154855E+0000
 21
 5.34247141286323E+0000
  0
LINE
  8
1
  6
CONTINUOUS
 62
     1
 10
 7.54001589146355E+0000
 20
 5.34048912434810E+0000
 11
 7.53578905786708E+0000
 21
 5.33626229075162E+0000
  0
LINE
  8
1
  6
CONTINUOUS
 62
     1
 10
 7.52237241360854E+0000
 20
 5.34349985068548E+0000
 11
 7.50969191284094E+0000
 21
 5.33081934991060E+0000
  0
LINE
  8
1
  6
CONTINUOUS
 62
     1
 10
 7.50472893576080E+0000
 20
 5.34651057701558E+0000
 11
 7.48359476780752E+0000
 21
 5.32537640906958E+0000
  0
LINE
  8
1
  6
CONTINUOUS
 62
     1
 10
 7.48708545790578E+0000
 20
 5.34952130334568E+0000
 11
 7.45749762277410E+0000
 21
 5.31993346821400E+0000
  0
LINE
  8
1
  6
CONTINUOUS
 62
     1
 10
 7.46944198005076E+0000
 20
 5.35253202967579E+0000
 11
 7.43140047774068E+0000
 21
 5.31449052737298E+0000
  0
LINE
  8
1
  6
CONTINUOUS
 62
     1
 10
 7.45179850219574E+0000
 20
 5.35554275601316E+0000
 11
 7.40530333271454E+0000
 21
 5.30904758652468E+0000
  0
LINE
  8
1
  6
CONTINUOUS
 62
     1
 10
 7.43415502434073E+0000
 20
 5.35855348234327E+0000
 11
 7.38954830374860E+0000
 21
 5.31394676174386E+0000
  0
LINE
  8
1
  6
CONTINUOUS
 62
     1
 10
 7.41651154649298E+0000
 20
 5.36156420867337E+0000
 11
 7.38954830374860E+0000
 21
 5.33460096592898E+0000
  0
LINE
  8
1
  6
CONTINUOUS
 62
     1
 10
 7.39886806863797E+0000
 20
 5.36457493500347E+0000
 11
 7.38954830374860E+0000
 21
 5.35525517011411E+0000
  0
LINE
  8
1
  6
CONTINUOUS
 62
     1
 10
 7.55367320896767E+0000
 20
 4.19059857013053E+0000
 11
 7.55367320896767E+0000
 21
 4.19059857013053E+0000
  0
LINE
  8
1
  6
CONTINUOUS
 62
     1
 10
 7.55367320896767E+0000
 20
 4.19059857013053E+0000
 11
 7.71296253561741E+0000
 21
 4.16341704876686E+0000
  0
LINE
  8
1
  6
CONTINUOUS
 62
     1
 10
 7.71296253561741E+0000
 20
 4.16341704876686E+0000
 11
 7.71296253561741E+0000
 21
 4.22382068623847E+0000
  0
LINE
  8
1
  6
CONTINUOUS
 62
     1
 10
 7.71296253561741E+0000
 20
 4.22382068623847E+0000
 11
 7.55367320896767E+0000
 21
 4.19059857013053E+0000
  0
LINE
  8
1
  6
CONTINUOUS
 62
     1
 10
 7.71296253561741E+0000
 20
 4.16341704876686E+0000
 11
 7.71296253561741E+0000
 21
 4.22382068623847E+0000
  0
LINE
  8
1
  6
CONTINUOUS
 62
     1
 10
 7.56612513894652E+0000
 20
 4.18847374226607E+0000
 11
 7.56221814073069E+0000
 21
 4.19238074048189E+0000
  0
LINE
  8
1
  6
CONTINUOUS
 62
     1
 10
 7.59102899886784E+0000
 20
 4.18422408652987E+0000
 11
 7.57930800422037E+0000
 21
 4.19594508117734E+0000
  0
LINE
  8
1
  6
CONTINUOUS
 62
     1
 10
 7.61593285878917E+0000
 20
 4.17997443079366E+0000
 11
 7.59639786771004E+0000
 21
 4.19950942187279E+0000
  0
LINE
  8
1
  6
CONTINUOUS
 62
     1
 10
 7.64083671871049E+0000
 20
 4.17572477505746E+0000
 11
 7.61348773119971E+0000
 21
 4.20307376256824E+0000
  0
LINE
  8
1
  6
CONTINUOUS
 62
     1
 10
 7.66574057863181E+0000
 20
 4.17147511932126E+0000
 11
 7.63057759468938E+0000
 21
 4.20663810326369E+0000
  0
LINE
  8
1
  6
CONTINUOUS
 62
     1
 10
 7.69064443854586E+0000
 20
 4.16722546359233E+0000
 11
 7.64766745818633E+0000
 21
 4.21020244395186E+0000
  0
LINE
  8
1
  6
CONTINUOUS
 62
     1
 10
 7.71296253561741E+0000
 20
 4.16556157070590E+0000
 11
 7.66475732167601E+0000
 21
 4.21376678464731E+0000
  0
LINE
  8
1
  6
CONTINUOUS
 62
     1
 10
 7.71296253561741E+0000
 20
 4.18621577489102E+0000
 11
 7.68184718516568E+0000
 21
 4.21733112534275E+0000
  0
LINE
  8
1
  6
CONTINUOUS
 62
     1
 10
 7.71296253561741E+0000
 20
 4.20686997907615E+0000
 11
 7.69893704865535E+0000
 21
 4.22089546603820E+0000
  0
LINE
  8
1
  6
CONTINUOUS
 62
     1
 10
 7.71296253561013E+0000
 20
 4.17374415085214E+0000
 11
 7.70414079668262E+0000
 21
 4.16492241192464E+0000
  0
LINE
  8
1
  6
CONTINUOUS
 62
     1
 10
 7.71296253561013E+0000
 20
 4.19439835503726E+0000
 11
 7.68649731882761E+0000
 21
 4.16793313826201E+0000
  0
LINE
  8
1
  6
CONTINUOUS
 62
     1
 10
 7.71296253561013E+0000
 20
 4.21505255922239E+0000
 11
 7.66885384097259E+0000
 21
 4.17094386459212E+0000
  0
LINE
  8
1
  6
CONTINUOUS
 62
     1
 10
 7.69794415595970E+0000
 20
 4.22068838376435E+0000
 11
 7.65121036311757E+0000
 21
 4.17395459092222E+0000
  0
LINE
  8
1
  6
CONTINUOUS
 62
     1
 10
 7.67184701091901E+0000
 20
 4.21524544290878E+0000
 11
 7.63356688526255E+0000
 21
 4.17696531725232E+0000
  0
LINE
  8
1
  6
CONTINUOUS
 62
     1
 10
 7.64574986589287E+0000
 20
 4.20980250206776E+0000
 11
 7.61592340741481E+0000
 21
 4.17997604358970E+0000
  0
LINE
  8
1
  6
CONTINUOUS
 62
     1
 10
 7.61965272085217E+0000
 20
 4.20435956121219E+0000
 11
 7.59827992955979E+0000
 21
 4.18298676991981E+0000
  0
LINE
  8
1
  6
CONTINUOUS
 62
     1
 10
 7.59355557582603E+0000
 20
 4.19891662037116E+0000
 11
 7.58063645170478E+0000
 21
 4.18599749624991E+0000
  0
LINE
  8
1
  6
CONTINUOUS
 62
     1
 10
 7.56745843079261E+0000
 20
 4.19347367952287E+0000
 11
 7.56299297384976E+0000
 21
 4.18900822258001E+0000
  0
LINE
  8
1
  6
CONTINUOUS
 62
     1
 10
 7.55367320896767E+0000
 20
 4.19059857013053E+0000
 11
 7.55367320896767E+0000
 21
 4.19059857013053E+0000
  0
LINE
  8
1
  6
CONTINUOUS
 62
     1
 10
 7.55367320896767E+0000
 20
 4.19059857013053E+0000
 11
 7.71296253561741E+0000
 21
 4.16341704876686E+0000
  0
LINE
  8
1
  6
CONTINUOUS
 62
     1
 10
 7.71296253561741E+0000
 20
 4.16341704876686E+0000
 11
 7.71296253561741E+0000
 21
 4.22382068623847E+0000
  0
LINE
  8
1
  6
CONTINUOUS
 62
     1
 10
 7.71296253561741E+0000
 20
 4.22382068623847E+0000
 11
 7.55367320896767E+0000
 21
 4.19059857013053E+0000
  0
LINE
  8
1
  6
CONTINUOUS
 62
     1
 10
 7.71296253561741E+0000
 20
 4.16341704876686E+0000
 11
 7.71296253561741E+0000
 21
 4.22382068623847E+0000
  0
LINE
  8
1
  6
CONTINUOUS
 62
     1
 10
 7.56612513894652E+0000
 20
 4.18847374226607E+0000
 11
 7.56221814073069E+0000
 21
 4.19238074048189E+0000
  0
LINE
  8
1
  6
CONTINUOUS
 62
     1
 10
 7.59102899886784E+0000
 20
 4.18422408652987E+0000
 11
 7.57930800422037E+0000
 21
 4.19594508117734E+0000
  0
LINE
  8
1
  6
CONTINUOUS
 62
     1
 10
 7.61593285878917E+0000
 20
 4.17997443079366E+0000
 11
 7.59639786771004E+0000
 21
 4.19950942187279E+0000
  0
LINE
  8
1
  6
CONTINUOUS
 62
     1
 10
 7.64083671871049E+0000
 20
 4.17572477505746E+0000
 11
 7.61348773119971E+0000
 21
 4.20307376256824E+0000
  0
LINE
  8
1
  6
CONTINUOUS
 62
     1
 10
 7.66574057863181E+0000
 20
 4.17147511932126E+0000
 11
 7.63057759468938E+0000
 21
 4.20663810326369E+0000
  0
LINE
  8
1
  6
CONTINUOUS
 62
     1
 10
 7.69064443854586E+0000
 20
 4.16722546359233E+0000
 11
 7.64766745818633E+0000
 21
 4.21020244395186E+0000
  0
LINE
  8
1
  6
CONTINUOUS
 62
     1
 10
 7.71296253561741E+0000
 20
 4.16556157070590E+0000
 11
 7.66475732167601E+0000
 21
 4.21376678464731E+0000
  0
LINE
  8
1
  6
CONTINUOUS
 62
     1
 10
 7.71296253561741E+0000
 20
 4.18621577489102E+0000
 11
 7.68184718516568E+0000
 21
 4.21733112534275E+0000
  0
LINE
  8
1
  6
CONTINUOUS
 62
     1
 10
 7.71296253561741E+0000
 20
 4.20686997907615E+0000
 11
 7.69893704865535E+0000
 21
 4.22089546603820E+0000
  0
LINE
  8
1
  6
CONTINUOUS
 62
     1
 10
 7.71296253561013E+0000
 20
 4.17374415085214E+0000
 11
 7.70414079668262E+0000
 21
 4.16492241192464E+0000
  0
LINE
  8
1
  6
CONTINUOUS
 62
     1
 10
 7.71296253561013E+0000
 20
 4.19439835503726E+0000
 11
 7.68649731882761E+0000
 21
 4.16793313826201E+0000
  0
LINE
  8
1
  6
CONTINUOUS
 62
     1
 10
 7.71296253561013E+0000
 20
 4.21505255922239E+0000
 11
 7.66885384097259E+0000
 21
 4.17094386459212E+0000
  0
LINE
  8
1
  6
CONTINUOUS
 62
     1
 10
 7.69794415595970E+0000
 20
 4.22068838376435E+0000
 11
 7.65121036311757E+0000
 21
 4.17395459092222E+0000
  0
LINE
  8
1
  6
CONTINUOUS
 62
     1
 10
 7.67184701091901E+0000
 20
 4.21524544290878E+0000
 11
 7.63356688526255E+0000
 21
 4.17696531725232E+0000
  0
LINE
  8
1
  6
CONTINUOUS
 62
     1
 10
 7.64574986589287E+0000
 20
 4.20980250206776E+0000
 11
 7.61592340741481E+0000
 21
 4.17997604358970E+0000
  0
LINE
  8
1
  6
CONTINUOUS
 62
     1
 10
 7.61965272085217E+0000
 20
 4.20435956121219E+0000
 11
 7.59827992955979E+0000
 21
 4.18298676991981E+0000
  0
LINE
  8
1
  6
CONTINUOUS
 62
     1
 10
 7.59355557582603E+0000
 20
 4.19891662037116E+0000
 11
 7.58063645170478E+0000
 21
 4.18599749624991E+0000
  0
LINE
  8
1
  6
CONTINUOUS
 62
     1
 10
 7.56745843079261E+0000
 20
 4.19347367952287E+0000
 11
 7.56299297384976E+0000
 21
 4.18900822258001E+0000
  0
LINE
  8
1
  6
CONTINUOUS
 62
     1
 10
 7.40026801733620E+0000
 20
 4.19162146731833E+0000
 11
 7.40026801733620E+0000
 21
 4.19162146731833E+0000
  0
LINE
  8
1
  6
CONTINUOUS
 62
     1
 10
 7.40026801733620E+0000
 20
 4.19162146731833E+0000
 11
 7.24097869070101E+0000
 21
 4.21880298868200E+0000
  0
LINE
  8
1
  6
CONTINUOUS
 62
     1
 10
 7.24097869070101E+0000
 20
 4.21880298868200E+0000
 11
 7.24097869070101E+0000
 21
 4.15839935121039E+0000
  0
LINE
  8
1
  6
CONTINUOUS
 62
     1
 10
 7.24097869070101E+0000
 20
 4.15839935121039E+0000
 11
 7.40026801733620E+0000
 21
 4.19162146731833E+0000
  0
LINE
  8
1
  6
CONTINUOUS
 62
     1
 10
 7.24097869070101E+0000
 20
 4.21880298868200E+0000
 11
 7.24097869070101E+0000
 21
 4.15839935121039E+0000
  0
LINE
  8
1
  6
CONTINUOUS
 62
     1
 10
 7.24952362245676E+0000
 20
 4.16018152155448E+0000
 11
 7.24097869070101E+0000
 21
 4.16872645331023E+0000
  0
LINE
  8
1
  6
CONTINUOUS
 62
     1
 10
 7.26661348594644E+0000
 20
 4.16374586224993E+0000
 11
 7.24097869070829E+0000
 21
 4.18938065749535E+0000
  0
LINE
  8
1
  6
CONTINUOUS
 62
     1
 10
 7.28370334943611E+0000
 20
 4.16731020294537E+0000
 11
 7.24097869070829E+0000
 21
 4.21003486167319E+0000
  0
LINE
  8
1
  6
CONTINUOUS
 62
     1
 10
 7.30079321292578E+0000
 20
 4.17087454364082E+0000
 11
 7.25531035888707E+0000
 21
 4.21635739767953E+0000
  0
LINE
  8
1
  6
CONTINUOUS
 62
     1
 10
 7.31788307641546E+0000
 20
 4.17443888433627E+0000
 11
 7.28021421880840E+0000
 21
 4.21210774194333E+0000
  0
LINE
  8
1
  6
CONTINUOUS
 62
     1
 10
 7.33497293990513E+0000
 20
 4.17800322503172E+0000
 11
 7.30511807872972E+0000
 21
 4.20785808620712E+0000
  0
LINE
  8
1
  6
CONTINUOUS
 62
     1
 10
 7.35206280340208E+0000
 20
 4.18156756572716E+0000
 11
 7.33002193865104E+0000
 21
 4.20360843047092E+0000
  0
LINE
  8
1
  6
CONTINUOUS
 62
     1
 10
 7.36915266688447E+0000
 20
 4.18513190642261E+0000
 11
 7.35492579857237E+0000
 21
 4.19935877473472E+0000
  0
LINE
  8
1
  6
CONTINUOUS
 62
     1
 10
 7.38624253038142E+0000
 20
 4.18869624711806E+0000
 11
 7.37982965849369E+0000
 21
 4.19510911899852E+0000
  0
LINE
  8
1
  6
CONTINUOUS
 62
     1
 10
 7.39144627840869E+0000
 20
 4.19312683048338E+0000
 11
 7.38721944481222E+0000
 21
 4.18889999688690E+0000
  0
LINE
  8
1
  6
CONTINUOUS
 62
     1
 10
 7.37380280055368E+0000
 20
 4.19613755682076E+0000
 11
 7.36112229978608E+0000
 21
 4.18345705604588E+0000
  0
LINE
  8
1
  6
CONTINUOUS
 62
     1
 10
 7.35615932270593E+0000
 20
 4.19914828315086E+0000
 11
 7.33502515475266E+0000
 21
 4.17801411520486E+0000
  0
LINE
  8
1
  6
CONTINUOUS
 62
     1
 10
 7.33851584485092E+0000
 20
 4.20215900948097E+0000
 11
 7.30892800971196E+0000
 21
 4.17257117434929E+0000
  0
LINE
  8
1
  6
CONTINUOUS
 62
     1
 10
 7.32087236699590E+0000
 20
 4.20516973581107E+0000
 11
 7.28283086468582E+0000
 21
 4.16712823350827E+0000
  0
LINE
  8
1
  6
CONTINUOUS
 62
     1
 10
 7.30322888914088E+0000
 20
 4.20818046214845E+0000
 11
 7.25673371965968E+0000
 21
 4.16168529265997E+0000
  0
LINE
  8
1
  6
CONTINUOUS
 62
     1
 10
 7.28558541128587E+0000
 20
 4.21119118847855E+0000
 11
 7.24097869069374E+0000
 21
 4.16658446787915E+0000
  0
LINE
  8
1
  6
CONTINUOUS
 62
     1
 10
 7.26794193343812E+0000
 20
 4.21420191480865E+0000
 11
 7.24097869069374E+0000
 21
 4.18723867206427E+0000
  0
LINE
  8
1
  6
CONTINUOUS
 62
     1
 10
 7.25029845558311E+0000
 20
 4.21721264113876E+0000
 11
 7.24097869069374E+0000
 21
 4.20789287625666E+0000
  0
LINE
  8
1
  6
CONTINUOUS
 62
     1
 10
 7.40026801733620E+0000
 20
 4.19162146731833E+0000
 11
 7.40026801733620E+0000
 21
 4.19162146731833E+0000
  0
LINE
  8
1
  6
CONTINUOUS
 62
     1
 10
 7.40026801733620E+0000
 20
 4.19162146731833E+0000
 11
 7.24097869070101E+0000
 21
 4.21880298868200E+0000
  0
LINE
  8
1
  6
CONTINUOUS
 62
     1
 10
 7.24097869070101E+0000
 20
 4.21880298868200E+0000
 11
 7.24097869070101E+0000
 21
 4.15839935121039E+0000
  0
LINE
  8
1
  6
CONTINUOUS
 62
     1
 10
 7.24097869070101E+0000
 20
 4.15839935121039E+0000
 11
 7.40026801733620E+0000
 21
 4.19162146731833E+0000
  0
LINE
  8
1
  6
CONTINUOUS
 62
     1
 10
 7.24097869070101E+0000
 20
 4.21880298868200E+0000
 11
 7.24097869070101E+0000
 21
 4.15839935121039E+0000
  0
LINE
  8
1
  6
CONTINUOUS
 62
     1
 10
 7.24952362245676E+0000
 20
 4.16018152155448E+0000
 11
 7.24097869070101E+0000
 21
 4.16872645331023E+0000
  0
LINE
  8
1
  6
CONTINUOUS
 62
     1
 10
 7.26661348594644E+0000
 20
 4.16374586224993E+0000
 11
 7.24097869070829E+0000
 21
 4.18938065749535E+0000
  0
LINE
  8
1
  6
CONTINUOUS
 62
     1
 10
 7.28370334943611E+0000
 20
 4.16731020294537E+0000
 11
 7.24097869070829E+0000
 21
 4.21003486167319E+0000
  0
LINE
  8
1
  6
CONTINUOUS
 62
     1
 10
 7.30079321292578E+0000
 20
 4.17087454364082E+0000
 11
 7.25531035888707E+0000
 21
 4.21635739767953E+0000
  0
LINE
  8
1
  6
CONTINUOUS
 62
     1
 10
 7.31788307641546E+0000
 20
 4.17443888433627E+0000
 11
 7.28021421880840E+0000
 21
 4.21210774194333E+0000
  0
LINE
  8
1
  6
CONTINUOUS
 62
     1
 10
 7.33497293990513E+0000
 20
 4.17800322503172E+0000
 11
 7.30511807872972E+0000
 21
 4.20785808620712E+0000
  0
LINE
  8
1
  6
CONTINUOUS
 62
     1
 10
 7.35206280340208E+0000
 20
 4.18156756572716E+0000
 11
 7.33002193865104E+0000
 21
 4.20360843047092E+0000
  0
LINE
  8
1
  6
CONTINUOUS
 62
     1
 10
 7.36915266688447E+0000
 20
 4.18513190642261E+0000
 11
 7.35492579857237E+0000
 21
 4.19935877473472E+0000
  0
LINE
  8
1
  6
CONTINUOUS
 62
     1
 10
 7.38624253038142E+0000
 20
 4.18869624711806E+0000
 11
 7.37982965849369E+0000
 21
 4.19510911899852E+0000
  0
LINE
  8
1
  6
CONTINUOUS
 62
     1
 10
 7.39144627840869E+0000
 20
 4.19312683048338E+0000
 11
 7.38721944481222E+0000
 21
 4.18889999688690E+0000
  0
LINE
  8
1
  6
CONTINUOUS
 62
     1
 10
 7.37380280055368E+0000
 20
 4.19613755682076E+0000
 11
 7.36112229978608E+0000
 21
 4.18345705604588E+0000
  0
LINE
  8
1
  6
CONTINUOUS
 62
     1
 10
 7.35615932270593E+0000
 20
 4.19914828315086E+0000
 11
 7.33502515475266E+0000
 21
 4.17801411520486E+0000
  0
LINE
  8
1
  6
CONTINUOUS
 62
     1
 10
 7.33851584485092E+0000
 20
 4.20215900948097E+0000
 11
 7.30892800971196E+0000
 21
 4.17257117434929E+0000
  0
LINE
  8
1
  6
CONTINUOUS
 62
     1
 10
 7.32087236699590E+0000
 20
 4.20516973581107E+0000
 11
 7.28283086468582E+0000
 21
 4.16712823350827E+0000
  0
LINE
  8
1
  6
CONTINUOUS
 62
     1
 10
 7.30322888914088E+0000
 20
 4.20818046214845E+0000
 11
 7.25673371965968E+0000
 21
 4.16168529265997E+0000
  0
LINE
  8
1
  6
CONTINUOUS
 62
     1
 10
 7.28558541128587E+0000
 20
 4.21119118847855E+0000
 11
 7.24097869069374E+0000
 21
 4.16658446787915E+0000
  0
LINE
  8
1
  6
CONTINUOUS
 62
     1
 10
 7.26794193343812E+0000
 20
 4.21420191480865E+0000
 11
 7.24097869069374E+0000
 21
 4.18723867206427E+0000
  0
LINE
  8
1
  6
CONTINUOUS
 62
     1
 10
 7.25029845558311E+0000
 20
 4.21721264113876E+0000
 11
 7.24097869069374E+0000
 21
 4.20789287625666E+0000
  0
LINE
  8
1
  6
CONTINUOUS
 62
     1
 10
 4.14207468691893E+0000
 20
 5.33796086399525E+0000
 11
 4.14207468691893E+0000
 21
 5.33796086399525E+0000
  0
LINE
  8
1
  6
CONTINUOUS
 62
     1
 10
 4.14207468691893E+0000
 20
 5.33796086399525E+0000
 11
 4.30136401356867E+0000
 21
 5.31077934263158E+0000
  0
LINE
  8
1
  6
CONTINUOUS
 62
     1
 10
 4.30136401356867E+0000
 20
 5.31077934263158E+0000
 11
 4.30136401356867E+0000
 21
 5.37118298010319E+0000
  0
LINE
  8
1
  6
CONTINUOUS
 62
     1
 10
 4.30136401356867E+0000
 20
 5.37118298010319E+0000
 11
 4.14207468691893E+0000
 21
 5.33796086399525E+0000
  0
LINE
  8
1
  6
CONTINUOUS
 62
     1
 10
 4.30136401356867E+0000
 20
 5.31077934263158E+0000
 11
 4.30136401356867E+0000
 21
 5.37118298010319E+0000
  0
LINE
  8
1
  6
CONTINUOUS
 62
     1
 10
 4.15452661688323E+0000
 20
 5.33583603613079E+0000
 11
 4.15061961866741E+0000
 21
 5.33974303434661E+0000
  0
LINE
  8
1
  6
CONTINUOUS
 62
     1
 10
 4.17943047680455E+0000
 20
 5.33158638039458E+0000
 11
 4.16770948215708E+0000
 21
 5.34330737504206E+0000
  0
LINE
  8
1
  6
CONTINUOUS
 62
     1
 10
 4.20433433672588E+0000
 20
 5.32733672465838E+0000
 11
 4.18479934564675E+0000
 21
 5.34687171573751E+0000
  0
LINE
  8
1
  6
CONTINUOUS
 62
     1
 10
 4.22923819664720E+0000
 20
 5.32308706892945E+0000
 11
 4.20188920914370E+0000
 21
 5.35043605643295E+0000
  0
LINE
  8
1
  6
CONTINUOUS
 62
     1
 10
 4.25414205656853E+0000
 20
 5.31883741319325E+0000
 11
 4.21897907263337E+0000
 21
 5.35400039712113E+0000
  0
LINE
  8
1
  6
CONTINUOUS
 62
     1
 10
 4.27904591648985E+0000
 20
 5.31458775745705E+0000
 11
 4.23606893612305E+0000
 21
 5.35756473781657E+0000
  0
LINE
  8
1
  6
CONTINUOUS
 62
     1
 10
 4.30136401356867E+0000
 20
 5.31292386455607E+0000
 11
 4.25315879961272E+0000
 21
 5.36112907851202E+0000
  0
LINE
  8
1
  6
CONTINUOUS
 62
     1
 10
 4.30136401356867E+0000
 20
 5.33357806874119E+0000
 11
 4.27024866310239E+0000
 21
 5.36469341920747E+0000
  0
LINE
  8
1
  6
CONTINUOUS
 62
     1
 10
 4.30136401356867E+0000
 20
 5.35423227292631E+0000
 11
 4.28733852659934E+0000
 21
 5.36825775990292E+0000
  0
LINE
  8
1
  6
CONTINUOUS
 62
     1
 10
 4.30136401356140E+0000
 20
 5.32110644471686E+0000
 11
 4.29254227463389E+0000
 21
 5.31228470578935E+0000
  0
LINE
  8
1
  6
CONTINUOUS
 62
     1
 10
 4.30136401356140E+0000
 20
 5.34176064890198E+0000
 11
 4.27489879677887E+0000
 21
 5.31529543211946E+0000
  0
LINE
  8
1
  6
CONTINUOUS
 62
     1
 10
 4.30136401356867E+0000
 20
 5.36241485309438E+0000
 11
 4.25725531893113E+0000
 21
 5.31830615845683E+0000
  0
LINE
  8
1
  6
CONTINUOUS
 62
     1
 10
 4.28634563391097E+0000
 20
 5.36805067762180E+0000
 11
 4.23961184107611E+0000
 21
 5.32131688478694E+0000
  0
LINE
  8
1
  6
CONTINUOUS
 62
     1
 10
 4.26024848887755E+0000
 20
 5.36260773677350E+0000
 11
 4.22196836322837E+0000
 21
 5.32432761112432E+0000
  0
LINE
  8
1
  6
CONTINUOUS
 62
     1
 10
 4.23415134384413E+0000
 20
 5.35716479592520E+0000
 11
 4.20432488537335E+0000
 21
 5.32733833745442E+0000
  0
LINE
  8
1
  6
CONTINUOUS
 62
     1
 10
 4.20805419881799E+0000
 20
 5.35172185508418E+0000
 11
 4.18668140751834E+0000
 21
 5.33034906378452E+0000
  0
LINE
  8
1
  6
CONTINUOUS
 62
     1
 10
 4.18195705378457E+0000
 20
 5.34627891423588E+0000
 11
 4.16903792966332E+0000
 21
 5.33335979012190E+0000
  0
LINE
  8
1
  6
CONTINUOUS
 62
     1
 10
 4.15585990875843E+0000
 20
 5.34083597339486E+0000
 11
 4.15139445181558E+0000
 21
 5.33637051645201E+0000
  0
LINE
  8
1
  6
CONTINUOUS
 62
     1
 10
 4.14207468691893E+0000
 20
 5.33796086399525E+0000
 11
 4.14207468691893E+0000
 21
 5.33796086399525E+0000
  0
LINE
  8
1
  6
CONTINUOUS
 62
     1
 10
 4.14207468691893E+0000
 20
 5.33796086399525E+0000
 11
 4.30136401356867E+0000
 21
 5.31077934263158E+0000
  0
LINE
  8
1
  6
CONTINUOUS
 62
     1
 10
 4.30136401356867E+0000
 20
 5.31077934263158E+0000
 11
 4.30136401356867E+0000
 21
 5.37118298010319E+0000
  0
LINE
  8
1
  6
CONTINUOUS
 62
     1
 10
 4.30136401356867E+0000
 20
 5.37118298010319E+0000
 11
 4.14207468691893E+0000
 21
 5.33796086399525E+0000
  0
LINE
  8
1
  6
CONTINUOUS
 62
     1
 10
 4.30136401356867E+0000
 20
 5.31077934263158E+0000
 11
 4.30136401356867E+0000
 21
 5.37118298010319E+0000
  0
LINE
  8
1
  6
CONTINUOUS
 62
     1
 10
 4.15452661688323E+0000
 20
 5.33583603613079E+0000
 11
 4.15061961866741E+0000
 21
 5.33974303434661E+0000
  0
LINE
  8
1
  6
CONTINUOUS
 62
     1
 10
 4.17943047680455E+0000
 20
 5.33158638039458E+0000
 11
 4.16770948215708E+0000
 21
 5.34330737504206E+0000
  0
LINE
  8
1
  6
CONTINUOUS
 62
     1
 10
 4.20433433672588E+0000
 20
 5.32733672465838E+0000
 11
 4.18479934564675E+0000
 21
 5.34687171573751E+0000
  0
LINE
  8
1
  6
CONTINUOUS
 62
     1
 10
 4.22923819664720E+0000
 20
 5.32308706892945E+0000
 11
 4.20188920914370E+0000
 21
 5.35043605643295E+0000
  0
LINE
  8
1
  6
CONTINUOUS
 62
     1
 10
 4.25414205656853E+0000
 20
 5.31883741319325E+0000
 11
 4.21897907263337E+0000
 21
 5.35400039712113E+0000
  0
LINE
  8
1
  6
CONTINUOUS
 62
     1
 10
 4.27904591648985E+0000
 20
 5.31458775745705E+0000
 11
 4.23606893612305E+0000
 21
 5.35756473781657E+0000
  0
LINE
  8
1
  6
CONTINUOUS
 62
     1
 10
 4.30136401356867E+0000
 20
 5.31292386455607E+0000
 11
 4.25315879961272E+0000
 21
 5.36112907851202E+0000
  0
LINE
  8
1
  6
CONTINUOUS
 62
     1
 10
 4.30136401356867E+0000
 20
 5.33357806874119E+0000
 11
 4.27024866310239E+0000
 21
 5.36469341920747E+0000
  0
LINE
  8
1
  6
CONTINUOUS
 62
     1
 10
 4.30136401356867E+0000
 20
 5.35423227292631E+0000
 11
 4.28733852659934E+0000
 21
 5.36825775990292E+0000
  0
LINE
  8
1
  6
CONTINUOUS
 62
     1
 10
 4.30136401356140E+0000
 20
 5.32110644471686E+0000
 11
 4.29254227463389E+0000
 21
 5.31228470578935E+0000
  0
LINE
  8
1
  6
CONTINUOUS
 62
     1
 10
 4.30136401356140E+0000
 20
 5.34176064890198E+0000
 11
 4.27489879677887E+0000
 21
 5.31529543211946E+0000
  0
LINE
  8
1
  6
CONTINUOUS
 62
     1
 10
 4.30136401356867E+0000
 20
 5.36241485309438E+0000
 11
 4.25725531893113E+0000
 21
 5.31830615845683E+0000
  0
LINE
  8
1
  6
CONTINUOUS
 62
     1
 10
 4.28634563391097E+0000
 20
 5.36805067762180E+0000
 11
 4.23961184107611E+0000
 21
 5.32131688478694E+0000
  0
LINE
  8
1
  6
CONTINUOUS
 62
     1
 10
 4.26024848887755E+0000
 20
 5.36260773677350E+0000
 11
 4.22196836322837E+0000
 21
 5.32432761112432E+0000
  0
LINE
  8
1
  6
CONTINUOUS
 62
     1
 10
 4.23415134384413E+0000
 20
 5.35716479592520E+0000
 11
 4.20432488537335E+0000
 21
 5.32733833745442E+0000
  0
LINE
  8
1
  6
CONTINUOUS
 62
     1
 10
 4.20805419881799E+0000
 20
 5.35172185508418E+0000
 11
 4.18668140751834E+0000
 21
 5.33034906378452E+0000
  0
LINE
  8
1
  6
CONTINUOUS
 62
     1
 10
 4.18195705378457E+0000
 20
 5.34627891423588E+0000
 11
 4.16903792966332E+0000
 21
 5.33335979012190E+0000
  0
LINE
  8
1
  6
CONTINUOUS
 62
     1
 10
 4.15585990875843E+0000
 20
 5.34083597339486E+0000
 11
 4.15139445181558E+0000
 21
 5.33637051645201E+0000
  0
LINE
  8
1
  6
CONTINUOUS
 62
     1
 10
 5.71647906935686E+0000
 20
 5.33898376118304E+0000
 11
 5.71647906935686E+0000
 21
 5.33898376118304E+0000
  0
LINE
  8
1
  6
CONTINUOUS
 62
     1
 10
 5.71647906935686E+0000
 20
 5.33898376118304E+0000
 11
 5.55718974272168E+0000
 21
 5.36616528254672E+0000
  0
LINE
  8
1
  6
CONTINUOUS
 62
     1
 10
 5.55718974272168E+0000
 20
 5.36616528254672E+0000
 11
 5.55718974272168E+0000
 21
 5.30576164507511E+0000
  0
LINE
  8
1
  6
CONTINUOUS
 62
     1
 10
 5.55718974272168E+0000
 20
 5.30576164507511E+0000
 11
 5.71647906935686E+0000
 21
 5.33898376118304E+0000
  0
LINE
  8
1
  6
CONTINUOUS
 62
     1
 10
 5.55718974272168E+0000
 20
 5.36616528254672E+0000
 11
 5.55718974272168E+0000
 21
 5.30576164507511E+0000
  0
LINE
  8
1
  6
CONTINUOUS
 62
     1
 10
 5.56573467447015E+0000
 20
 5.30754381542647E+0000
 11
 5.55718974272168E+0000
 21
 5.31608874717494E+0000
  0
LINE
  8
1
  6
CONTINUOUS
 62
     1
 10
 5.58282453795982E+0000
 20
 5.31110815612192E+0000
 11
 5.55718974272168E+0000
 21
 5.33674295136007E+0000
  0
LINE
  8
1
  6
CONTINUOUS
 62
     1
 10
 5.59991440144950E+0000
 20
 5.31467249681737E+0000
 11
 5.55718974272168E+0000
 21
 5.35739715554519E+0000
  0
LINE
  8
1
  6
CONTINUOUS
 62
     1
 10
 5.61700426494644E+0000
 20
 5.31823683750554E+0000
 11
 5.57152141091501E+0000
 21
 5.36371969153697E+0000
  0
LINE
  8
1
  6
CONTINUOUS
 62
     1
 10
 5.63409412843612E+0000
 20
 5.32180117820099E+0000
 11
 5.59642527083633E+0000
 21
 5.35947003580077E+0000
  0
LINE
  8
1
  6
CONTINUOUS
 62
     1
 10
 5.65118399192579E+0000
 20
 5.32536551889643E+0000
 11
 5.62132913075766E+0000
 21
 5.35522038006457E+0000
  0
LINE
  8
1
  6
CONTINUOUS
 62
     1
 10
 5.66827385541546E+0000
 20
 5.32892985959188E+0000
 11
 5.64623299067898E+0000
 21
 5.35097072433564E+0000
  0
LINE
  8
1
  6
CONTINUOUS
 62
     1
 10
 5.68536371890514E+0000
 20
 5.33249420028733E+0000
 11
 5.67113685059303E+0000
 21
 5.34672106859944E+0000
  0
LINE
  8
1
  6
CONTINUOUS
 62
     1
 10
 5.70245358239481E+0000
 20
 5.33605854098278E+0000
 11
 5.69604071051435E+0000
 21
 5.34247141286323E+0000
  0
LINE
  8
1
  6
CONTINUOUS
 62
     1
 10
 5.70765733042936E+0000
 20
 5.34048912434810E+0000
 11
 5.70343049684016E+0000
 21
 5.33626229075890E+0000
  0
LINE
  8
1
  6
CONTINUOUS
 62
     1
 10
 5.69001385257434E+0000
 20
 5.34349985067820E+0000
 11
 5.67733335180674E+0000
 21
 5.33081934991060E+0000
  0
LINE
  8
1
  6
CONTINUOUS
 62
     1
 10
 5.67237037471932E+0000
 20
 5.34651057700830E+0000
 11
 5.65123620677332E+0000
 21
 5.32537640906230E+0000
  0
LINE
  8
1
  6
CONTINUOUS
 62
     1
 10
 5.65472689687158E+0000
 20
 5.34952130334568E+0000
 11
 5.62513906173990E+0000
 21
 5.31993346822128E+0000
  0
LINE
  8
1
  6
CONTINUOUS
 62
     1
 10
 5.63708341901656E+0000
 20
 5.35253202967579E+0000
 11
 5.59904191670648E+0000
 21
 5.31449052737298E+0000
  0
LINE
  8
1
  6
CONTINUOUS
 62
     1
 10
 5.61943994116154E+0000
 20
 5.35554275601316E+0000
 11
 5.57294477167306E+0000
 21
 5.30904758652468E+0000
  0
LINE
  8
1
  6
CONTINUOUS
 62
     1
 10
 5.60179646331380E+0000
 20
 5.35855348234327E+0000
 11
 5.55718974271440E+0000
 21
 5.31394676174386E+0000
  0
LINE
  8
1
  6
CONTINUOUS
 62
     1
 10
 5.58415298545879E+0000
 20
 5.36156420867337E+0000
 11
 5.55718974271440E+0000
 21
 5.33460096592898E+0000
  0
LINE
  8
1
  6
CONTINUOUS
 62
     1
 10
 5.56650950760377E+0000
 20
 5.36457493500347E+0000
 11
 5.55718974272168E+0000
 21
 5.35525517012138E+0000
  0
LINE
  8
1
  6
CONTINUOUS
 62
     1
 10
 5.71647906935686E+0000
 20
 5.33898376118304E+0000
 11
 5.71647906935686E+0000
 21
 5.33898376118304E+0000
  0
LINE
  8
1
  6
CONTINUOUS
 62
     1
 10
 5.71647906935686E+0000
 20
 5.33898376118304E+0000
 11
 5.55718974272168E+0000
 21
 5.36616528254672E+0000
  0
LINE
  8
1
  6
CONTINUOUS
 62
     1
 10
 5.55718974272168E+0000
 20
 5.36616528254672E+0000
 11
 5.55718974272168E+0000
 21
 5.30576164507511E+0000
  0
LINE
  8
1
  6
CONTINUOUS
 62
     1
 10
 5.55718974272168E+0000
 20
 5.30576164507511E+0000
 11
 5.71647906935686E+0000
 21
 5.33898376118304E+0000
  0
LINE
  8
1
  6
CONTINUOUS
 62
     1
 10
 5.55718974272168E+0000
 20
 5.36616528254672E+0000
 11
 5.55718974272168E+0000
 21
 5.30576164507511E+0000
  0
LINE
  8
1
  6
CONTINUOUS
 62
     1
 10
 5.56573467447015E+0000
 20
 5.30754381542647E+0000
 11
 5.55718974272168E+0000
 21
 5.31608874717494E+0000
  0
LINE
  8
1
  6
CONTINUOUS
 62
     1
 10
 5.58282453795982E+0000
 20
 5.31110815612192E+0000
 11
 5.55718974272168E+0000
 21
 5.33674295136007E+0000
  0
LINE
  8
1
  6
CONTINUOUS
 62
     1
 10
 5.59991440144950E+0000
 20
 5.31467249681737E+0000
 11
 5.55718974272168E+0000
 21
 5.35739715554519E+0000
  0
LINE
  8
1
  6
CONTINUOUS
 62
     1
 10
 5.61700426494644E+0000
 20
 5.31823683750554E+0000
 11
 5.57152141091501E+0000
 21
 5.36371969153697E+0000
  0
LINE
  8
1
  6
CONTINUOUS
 62
     1
 10
 5.63409412843612E+0000
 20
 5.32180117820099E+0000
 11
 5.59642527083633E+0000
 21
 5.35947003580077E+0000
  0
LINE
  8
1
  6
CONTINUOUS
 62
     1
 10
 5.65118399192579E+0000
 20
 5.32536551889643E+0000
 11
 5.62132913075766E+0000
 21
 5.35522038006457E+0000
  0
LINE
  8
1
  6
CONTINUOUS
 62
     1
 10
 5.66827385541546E+0000
 20
 5.32892985959188E+0000
 11
 5.64623299067898E+0000
 21
 5.35097072433564E+0000
  0
LINE
  8
1
  6
CONTINUOUS
 62
     1
 10
 5.68536371890514E+0000
 20
 5.33249420028733E+0000
 11
 5.67113685059303E+0000
 21
 5.34672106859944E+0000
  0
LINE
  8
1
  6
CONTINUOUS
 62
     1
 10
 5.70245358239481E+0000
 20
 5.33605854098278E+0000
 11
 5.69604071051435E+0000
 21
 5.34247141286323E+0000
  0
LINE
  8
1
  6
CONTINUOUS
 62
     1
 10
 5.70765733042936E+0000
 20
 5.34048912434810E+0000
 11
 5.70343049684016E+0000
 21
 5.33626229075890E+0000
  0
LINE
  8
1
  6
CONTINUOUS
 62
     1
 10
 5.69001385257434E+0000
 20
 5.34349985067820E+0000
 11
 5.67733335180674E+0000
 21
 5.33081934991060E+0000
  0
LINE
  8
1
  6
CONTINUOUS
 62
     1
 10
 5.67237037471932E+0000
 20
 5.34651057700830E+0000
 11
 5.65123620677332E+0000
 21
 5.32537640906230E+0000
  0
LINE
  8
1
  6
CONTINUOUS
 62
     1
 10
 5.65472689687158E+0000
 20
 5.34952130334568E+0000
 11
 5.62513906173990E+0000
 21
 5.31993346822128E+0000
  0
LINE
  8
1
  6
CONTINUOUS
 62
     1
 10
 5.63708341901656E+0000
 20
 5.35253202967579E+0000
 11
 5.59904191670648E+0000
 21
 5.31449052737298E+0000
  0
LINE
  8
1
  6
CONTINUOUS
 62
     1
 10
 5.61943994116154E+0000
 20
 5.35554275601316E+0000
 11
 5.57294477167306E+0000
 21
 5.30904758652468E+0000
  0
LINE
  8
1
  6
CONTINUOUS
 62
     1
 10
 5.60179646331380E+0000
 20
 5.35855348234327E+0000
 11
 5.55718974271440E+0000
 21
 5.31394676174386E+0000
  0
LINE
  8
1
  6
CONTINUOUS
 62
     1
 10
 5.58415298545879E+0000
 20
 5.36156420867337E+0000
 11
 5.55718974271440E+0000
 21
 5.33460096592898E+0000
  0
LINE
  8
1
  6
CONTINUOUS
 62
     1
 10
 5.56650950760377E+0000
 20
 5.36457493500347E+0000
 11
 5.55718974272168E+0000
 21
 5.35525517012138E+0000
  0
TEXT
  8
1
 62
     1
 10
 4.77903167279146E+0000
 20
 5.34798965167283E+0000
 40
 1.18110236219991E-0001
  1
40
  7
STANDARD
 11
 4.77903167279146E+0000
 21
 5.46609988788987E+0000
 50
 0.00000000000000E+0000
 41
 3.33041753174712E-0001
  0
TEXT
  8
1
 62
     1
 10
 5.55489520764240E+0000
 20
 3.79794732197115E+0000
 40
 1.18110236219991E-0001
  1
6
  7
STANDARD
 11
 5.55489520764240E+0000
 21
 3.91605755819182E+0000
 50
 0.00000000000000E+0000
 41
 3.33041753174712E-0001
  0
TEXT
  8
1
 62
     1
 10
 4.95511417715170E+0000
 20
 2.86571545820698E+0000
 40
 1.18110236219991E-0001
  1
20
  7
STANDARD
 11
 4.95511417715170E+0000
 21
 2.98382569442765E+0000
 50
 0.00000000000000E+0000
 41
 3.33041753174712E-0001
  0
TEXT
  8
1
 62
     1
 10
 7.22767899909377E+0000
 20
 5.40866746529355E+0000
 40
 1.18110236219991E-0001
  1
12
  7
STANDARD
 11
 7.22767899909377E+0000
 21
 5.52677770151058E+0000
 50
 0.00000000000000E+0000
 41
 3.33041753174712E-0001
  0
TEXT
  8
1
 62
     1
 10
 7.42026923825324E+0000
 20
 4.19511119293020E+0000
 40
 1.18110236219991E-0001
  1
4
  7
STANDARD
 11
 7.42026923825324E+0000
 21
 4.31322142914723E+0000
 50
 0.00000000000000E+0000
 41
 3.33041753174712E-0001
  0
TEXT
  8
1
 62
     1
 10
 5.39532043806685E+0000
 20
 4.21717585243459E+0000
 40
 1.18110236219991E-0001
  1
5,5
  7
STANDARD
 11
 5.39532043806685E+0000
 21
 4.33528608865163E+0000
 50
 0.00000000000000E+0000
 41
 2.77534794312487E-0001
  0
TEXT
  8
1
 62
     1
 10
 4.21226611187012E+0000
 20
 4.19511119293020E+0000
 40
 1.18110236219991E-0001
  1
6
  7
STANDARD
 11
 4.21226611187012E+0000
 21
 4.31322142914723E+0000
 50
 0.00000000000000E+0000
 41
 3.33041753174712E-0001
  0
TEXT
  8
1
 62
     1
 10
 5.99510146855027E+0000
 20
 4.56469423951785E+0000
 40
 1.18110236219991E-0001
  1
10
  7
STANDARD
 11
 5.99510146855027E+0000
 21
 4.68280447573488E+0000
 50
 9.00000000000000E+0001
 41
 3.33041753174712E-0001
  0
TEXT
  8
1
 62
     1
 10
 6.49583609032561E+0000
 20
 4.57021040438849E+0000
 40
 1.18110236219991E-0001
  1
12
  7
STANDARD
 11
 6.49583609032561E+0000
 21
 4.68832064060553E+0000
 50
 9.00000000000000E+0001
 41
 3.33041753174712E-0001
  0
TEXT
  8
1
 62
     1
 10
 3.64550055094514E+0000
 20
 3.09739438293036E+0000
 40
 1.18110236219991E-0001
  1
M6
  7
STANDARD
 11
 3.64550055094514E+0000
 21
 3.21550461915103E+0000
 50
 9.00000000000000E+0001
 41
 3.74671972321721E-0001
  0
TEXT
  8
1
 62
     1
 10
 9.10740510153119E+0000
 20
 3.92052128770047E-0001
 40
 1.18110236219991E-0001
  1
(c)
  7
STANDARD
 11
 9.10740510153119E+0000
 21
 5.10162364989810E-0001
 50
 0.00000000000000E+0000
 41
 2.22027835450035E-0001
0
ENDSEC
0
EOF
