0
SECTION
  2
HEADER
  9
$LTSCALE
 40
     10
  9
$LIMMIN
 10
     0.0
 20
     0.0
  9
$LIMMAX
 10
      11.5
 20
       8.0
  9
$EXTMIN
 10
     0.0
 20
     0.0
  9
$EXTMAX
 10
      11.5
 20
       8.0
   9
$CLAYER
   8
1
   9
$CECOLOR
  62
     7
   9
$CELTYPE
   6
CONTINUOUS
  0
ENDSEC
  0
SECTION
  2
TABLES
  0
TABLE
  2
LTYPE
 70
    10
  0
LTYPE
  2
CONTINUOUS
 70
    64
  3
Solid line
 72
    65
 73
     0
 40
0.0
  0
LTYPE
  2
DASHED
 70
     0
  3
__ __ __ __ __ __ __ __ __ __ __ __ __ __ __
 72
    65
 73
     2
 40
0.75
 49
0.5
 49
-0.25
  0
LTYPE
  2
HIDDEN
 70
     0
  3
_ _ _ _ _ _ _ _ _ _ _ _ _ _ _ _ _ _ _ _ _ _
 72
    65
 73
     2
 40
0.375
 49
0.25
 49
-0.125
  0
LTYPE
  2
CENTER
 70
     0
  3
____ _ ____ _ ____ _ ____ _ ____ _ ____ _ __
 72
    65
 73
     4
 40
2.0
 49
1.25
 49
-0.25
 49
0.25
 49
-0.25
  0
LTYPE
  2
PHANTOM
 70
     0
  3
_____ _ _ _____ _ _ _____ _ _ _____ _ _ ____
 72
    65
 73
     6
 40
2.5
 49
1.25
 49
-0.25
 49
0.25
 49
-0.25
 49
0.25
 49
-0.25
  0
LTYPE
  2
DOT
 70
     0
  3
............................................
 72
    65
 73
     2
 40
0.25
 49
0.0
 49
-0.25
  0
LTYPE
  2
DASHDOT
 70
     0
  3
__ . __ . __ . __ . __ . __ . __ . __ . __ .
 72
    65
 73
     4
 40
1.0
 49
0.5
 49
-0.25
 49
0.0
 49
-0.25
  0
LTYPE
  2
BORDER
 70
     0
  3
__ __ . __ __ . __ __ . __ __ . __ __ . __ _
 72
    65
 73
     6
 40
1.75
 49
0.5
 49
-0.25
 49
0.5
 49
-0.25
 49
0.0
 49
-0.25
  0
LTYPE
  2
DIVIDE
 70
     0
  3
__ . . __ . . __ . . __ . . __ . . __ . . __
 72
    65
 73
     6
 40
1.25
 49
0.5
 49
-0.25
 49
0.0
 49
-0.25
 49
0.0
 49
-0.25
  0
LTYPE
  2
DIVIDE2
 70
     0
  3
close
 72
    65
 73
     2
 40
0.1
 49
0.05
 49
-0.05
  0
ENDTAB
0
TABLE
  2
LAYER
 70
   256
  0
LAYER
  2
1
 70
     0
  6
CONTINUOUS
 62
1
  0
ENDTAB
  0
TABLE
  2
STYLE
 70
     8
  0
STYLE
  2
TXT
 70
0
 40
0.0
 41
1.0
 50
0.0
 71
0
 42
1.0
  3
TXT
  4

  0
STYLE
  2
COMPLEX
 70
0
 40
0.0
 41
1.0
 50
0.0
 71
0
 42
1.0
  3
COMPLEX
  4

  0
STYLE
  2
ITALIC
 70
0
 40
0.0
 41
1.0
 50
0.0
 71
0
 42
1.0
  3
ITALIC
  4

  0
STYLE
  2
SIMPLEX
70
0
 40
0.0
 41
1.0
 50
0.0
 71
0
 42
1.0
  3
SIMPLEX
  4

  0
STYLE
  2
MONOTXT
 70
0
 40
0.0
 41
1.0
 50
0.0
 71
0
 42
1.0
  3
MONOTXT
  4

  0
STYLE
  2
SCRIPTC
 70
0
 40
0.0
 41
1.0
 50
0.0
 71
0
 42
1.0
  3
SCRIPTC
  4

  0
STYLE
  2
GOTHICE
 70
0
 40
0.0
 41
1.0
 50
0.0
 71
0
 42
1.0
  3
GOTHICE
  4

  0
ENDTAB
  0
TABLE
  2
VIEW
 70
     0
  0
ENDTAB
  0
ENDSEC
  0
SECTION
  2
ENTITIES
  0
LINE
  8
1
  6
CONTINUOUS
 62
     1
 10
 1.10824245900876E+0001
 20
 3.66054472739052E-0001
 11
 8.90078496305796E+0000
 21
 3.66054472739052E-0001
  0
LINE
  8
1
  6
CONTINUOUS
 62
     1
 10
 8.90078496305796E+0000
 20
 3.66054472739052E-0001
 11
 8.90078496305796E+0000
 21
 1.55291635594767E+0000
  0
LINE
  8
1
  6
CONTINUOUS
 62
     1
 10
 8.90078496305796E+0000
 20
 1.55291635594767E+0000
 11
 1.10824245900876E+0001
 21
 1.55291635594767E+0000
  0
LINE
  8
1
  6
CONTINUOUS
 62
     1
 10
 1.10824245900876E+0001
 20
 1.55291635594767E+0000
 11
 1.10824245900876E+0001
 21
 3.66054472739052E-0001
  0
LINE
  8
1
  6
CONTINUOUS
 62
     1
 10
 8.90010336294654E+0000
 20
 1.23953147667635E+0000
 11
 1.10833476808330E+0001
 21
 1.23953147667635E+0000
  0
LINE
  8
1
  6
CONTINUOUS
 62
     1
 10
 8.90774062665878E+0000
 20
 5.23861750931246E-0001
 11
 1.10909849445452E+0001
 21
 5.23861750931246E-0001
  0
TEXT
  8
1
 62
     1
 10
 8.94823287868348E+0000
 20
 1.35143637997317E+0000
 40
 1.18110236219991E-0001
  1
Benennung
  7
STANDARD
 11
 8.94823287868348E+0000
 21
 1.46954661619384E+0000
 50
 0.00000000000000E+0000
 41
 3.16937882393631E-0001
  0
LINE
  8
1
  6
CONTINUOUS
 62
     1
 10
 9.57264299190138E+0000
 20
 1.55147486233909E+0000
 11
 9.57264299190138E+0000
 21
 1.23953147667635E+0000
  0
LINE
  8
1
  6
CONTINUOUS
 62
     1
 10
 8.90010336294654E+0000
 20
 1.07349709398113E+0000
 11
 1.10833476808330E+0001
 21
 1.07349709398113E+0000
  0
LINE
  8
1
  6
CONTINUOUS
 62
     1
 10
 8.90010336294654E+0000
 20
 9.07462711285916E-0001
 11
 1.10833476808330E+0001
 21
 9.07462711285916E-0001
  0
TEXT
  8
1
 62
     1
 10
 8.95298969198484E+0000
 20
 1.08890528919073E+0000
 40
 1.18110236219991E-0001
  1
Werkstoff
  7
STANDARD
 11
 8.95298969198484E+0000
 21
 1.20701552541141E+0000
 50
 0.00000000000000E+0000
 41
 2.56976661400131E-0001
  0
LINE
  8
1
  6
CONTINUOUS
 62
     1
 10
 9.57264299190138E+0000
 20
 1.23953147667635E+0000
 11
 9.57264299190138E+0000
 21
 1.07349709398113E+0000
  0
LINE
  8
1
  6
CONTINUOUS
 62
     1
 10
 1.05011491960613E+0001
 20
 1.23953147667635E+0000
 11
 1.05011491960613E+0001
 21
 1.07349709398113E+0000
  0
TEXT
  8
1
 62
     1
 10
 1.05670323736267E+0001
 20
 1.08890528919073E+0000
 40
 1.18110236219991E-0001
  1
M 1:1
  7
STANDARD
 11
 1.05670323736267E+0001
 21
 1.20701552541141E+0000
 50
 0.00000000000000E+0000
 41
 2.62116194628561E-0001
  0
LINE
  8
1
  6
CONTINUOUS
 62
     1
 10
 8.90078496305796E+0000
 20
 1.55291635594767E+0000
 11
 1.10883666332957E+0001
 21
 1.55291635594767E+0000
  0
LINE
  8
1
  6
CONTINUOUS
 62
     1
 10
 8.90078496305796E+0000
 20
 1.55291635594767E+0000
 11
 1.10824245900876E+0001
 21
 1.55291635594767E+0000
  0
LINE
  8
1
  6
CONTINUOUS
 62
     1
 10
 1.10824245900876E+0001
 20
 1.55291635594767E+0000
 11
 1.10824245900876E+0001
 21
 3.66054472739052E-0001
  0
LINE
  8
1
  6
CONTINUOUS
 62
     1
 10
 1.10824245900876E+0001
 20
 3.66054472739052E-0001
 11
 8.90078496305796E+0000
 21
 3.66054472739052E-0001
  0
LINE
  8
1
  6
CONTINUOUS
 62
     1
 10
 8.90078496305796E+0000
 20
 3.66054472739052E-0001
 11
 8.90078496305796E+0000
 21
 1.55291635594767E+0000
  0
TEXT
  8
1
 62
     1
 10
 8.94643199958955E+0000
 20
 9.29817355409796E-0001
 40
 1.18110236219991E-0001
  1
Bearb.
  7
STANDARD
 11
 8.94643199958955E+0000
 21
 1.04792759162956E+0000
 50
 0.00000000000000E+0000
 41
 2.69825494470297E-0001
  0
LINE
  8
1
  6
CONTINUOUS
 62
     1
 10
 9.57372805119667E+0000
 20
 1.07462383869279E+0000
 11
 9.57372805119667E+0000
 21
 9.08513856978971E-0001
  0
LINE
  8
1
  6
CONTINUOUS
 62
     1
 10
 8.90204784499656E+0000
 20
 7.36471375930705E-0001
 11
 1.10827893074456E+0001
 21
 7.36471375930705E-0001
  0
LINE
  8
1
  6
CONTINUOUS
 62
     1
 10
 9.57372805119667E+0000
 20
 9.08513856978971E-0001
 11
 9.57372805119667E+0000
 21
 7.36471375930705E-0001
  0
TEXT
  8
1
 62
     1
 10
 8.94643199958955E+0000
 20
 7.54808624687030E-0001
 40
 1.18110236219991E-0001
  1
Datum
  7
STANDARD
 11
 8.94643199958955E+0000
 21
 8.72918860906793E-0001
 50
 0.00000000000000E+0000
 41
 3.23790593364265E-0001
  0
LINE
  8
1
  6
CONTINUOUS
 62
     1
 10
 1.04998774104170E+0001
 20
 5.19935149772209E-0001
 11
 1.04998774104170E+0001
 21
 3.68656416430895E-0001
  0
TEXT
  8
1
 62
     1
 10
 9.62994798035652E+0000
 20
 9.20918606393570E-0001
 40
 1.18110236219991E-0001
  1
D.Freind
  7
STANDARD
 11
 9.62994798035652E+0000
 21
 1.03902884261333E+0000
 50
 0.00000000000000E+0000
 41
 2.60188869667672E-0001
  0
TEXT
  8
1
 62
     1
 10
 1.05235489595507E+0001
 20
 3.84027415512719E-0001
 40
 1.18110236219991E-0001
  1
Blatt
  7
STANDARD
 11
 1.05235489595507E+0001
 21
 5.02137651732482E-0001
 50
 0.00000000000000E+0000
 41
 2.31278995260254E-0001
  0
TEXT
  8
1
 62
     1
 10
 9.04969655426976E+0000
 20
 5.46297824291287E-0001
 40
 1.18110236219991E-0001
  1
für Revolver 8-fach 
  7
STANDARD
 11
 9.04969655426976E+0000
 21
 6.64408060511050E-0001
 50
 0.00000000000000E+0000
 41
 2.35133645181349E-0001
  0
TEXT
  8
1
 62
     1
 10
 9.23846217898245E+0000
 20
 3.96330595204745E-0001
 40
 1.18110236219991E-0001
  1
www.cnc-projects.de.vu
  7
STANDARD
 11
 9.23846217898245E+0000
 21
 5.14440831424508E-0001
 50
 0.00000000000000E+0000
 41
 2.66321267269177E-0001
  0
TEXT
  8
1
 62
     1
 10
 9.65700144939183E+0000
 20
 1.28222363262466E+0000
 40
 1.96850393699833E-0001
  1
Hauptwelle
  7
STANDARD
 11
 9.65700144939183E+0000
 21
 1.47907402632518E+0000
 50
 0.00000000000000E+0000
 41
 1.66520876587583E-0001
  0
TEXT
  8
1
 62
     1
 10
 9.63607879950723E+0000
 20
 1.08530142032396E+0000
 40
 1.18110236219991E-0001
  1
42CrMo4
  7
STANDARD
 11
 9.63607879950723E+0000
 21
 1.20341165654463E+0000
 50
 0.00000000000000E+0000
 41
 3.08371993680339E-0001
  0
TEXT
  8
1
 62
     1
 10
 9.63010089955060E+0000
 20
 7.55705108628717E-0001
 40
 1.18110236219991E-0001
  1
26.12.2003
  7
STANDARD
 11
 9.63010089955060E+0000
 21
 8.73815344848481E-0001
 50
 0.00000000000000E+0000
 41
 2.77534794312487E-0001
  0
TEXT
  8
1
 62
     1
 10
 1.08107361427974E+0001
 20
 3.84160175445686E-0001
 40
 1.18110236219991E-0001
  1
1
  7
STANDARD
 11
 1.08107361427974E+0001
 21
 5.02270411665450E-0001
 50
 0.00000000000000E+0000
 41
 3.08371993680339E-0001
  0
LINE
  8
1
  6
DASHDOT
 62
     1
 10
 1.64161091887581E+0000
 20
 4.13144255059160E+0000
 11
 1.05285518390301E+0001
 21
 4.13144255059160E+0000
  0
LINE
  8
1
  6
CONTINUOUS
 62
     1
 10
 1.72902345251714E+0000
 20
 4.13144255059160E+0000
 11
 1.72902345251714E+0000
 21
 5.51889169567585E+0000
  0
LINE
  8
1
  6
CONTINUOUS
 62
     1
 10
 1.72902345251714E+0000
 20
 5.51889169567585E+0000
 11
 2.22436114314769E+0000
 21
 5.51889169567585E+0000
  0
LINE
  8
1
  6
CONTINUOUS
 62
     1
 10
 2.22436114314769E+0000
 20
 5.51889169567585E+0000
 11
 2.22436114314769E+0000
 21
 4.93470258195157E+0000
  0
LINE
  8
1
  6
CONTINUOUS
 62
     1
 10
 2.22436114314769E+0000
 20
 4.93470258195157E+0000
 11
 2.38461745482709E+0000
 21
 4.93470258195157E+0000
  0
LINE
  8
1
  6
CONTINUOUS
 62
     1
 10
 2.38461745482709E+0000
 20
 4.93470258195157E+0000
 11
 2.38461745482709E+0000
 21
 4.54037493019132E+0000
  0
LINE
  8
1
  6
CONTINUOUS
 62
     1
 10
 2.38461745482709E+0000
 20
 4.54037493019132E+0000
 11
 3.01107394591600E+0000
 21
 4.54037493019132E+0000
  0
LINE
  8
1
  6
CONTINUOUS
 62
     1
 10
 6.70837478154863E+0000
 20
 4.48195601881889E+0000
 11
 6.75262844837562E+0000
 21
 4.44060968016129E+0000
  0
LINE
  8
1
  6
CONTINUOUS
 62
     1
 10
 6.75262844837562E+0000
 20
 4.44060968016129E+0000
 11
 6.75262844837562E+0000
 21
 4.13086927501718E+0000
  0
LINE
  8
1
  6
CONTINUOUS
 62
     1
 10
 6.70837478154863E+0000
 20
 4.48195601881889E+0000
 11
 6.70837478154863E+0000
 21
 4.13086927501718E+0000
  0
LINE
  8
1
  6
CONTINUOUS
 62
     1
 10
 2.22436114314769E+0000
 20
 4.93470258195157E+0000
 11
 2.22436114314769E+0000
 21
 4.12877540168120E+0000
  0
LINE
  8
1
  6
CONTINUOUS
 62
     1
 10
 2.38461745482709E+0000
 20
 4.54037493019132E+0000
 11
 2.38461745482709E+0000
 21
 4.12877540168120E+0000
  0
LINE
  8
1
  6
DASHDOT
 62
     1
 10
 1.61215106080999E+0000
 20
 5.23073645844124E+0000
 11
 2.34894355543292E+0000
 21
 5.23073645844124E+0000
  0
LINE
  8
1
  6
CONTINUOUS
 62
     1
 10
 1.72902345251714E+0000
 20
 4.12610825277079E+0000
 11
 1.72902345251714E+0000
 21
 2.73865910768654E+0000
  0
LINE
  8
1
  6
CONTINUOUS
 62
     1
 10
 1.72902345251714E+0000
 20
 2.73865910768654E+0000
 11
 2.22436114314769E+0000
 21
 2.73865910768654E+0000
  0
LINE
  8
1
  6
CONTINUOUS
 62
     1
 10
 2.22436114314769E+0000
 20
 2.73865910768654E+0000
 11
 2.22436114314769E+0000
 21
 3.32284822141082E+0000
  0
LINE
  8
1
  6
CONTINUOUS
 62
     1
 10
 2.22436114314769E+0000
 20
 3.32284822141082E+0000
 11
 2.38461745482709E+0000
 21
 3.32284822141082E+0000
  0
LINE
  8
1
  6
CONTINUOUS
 62
     1
 10
 2.38461745482709E+0000
 20
 3.32284822139627E+0000
 11
 2.38461745482709E+0000
 21
 3.71717587315652E+0000
  0
LINE
  8
1
  6
CONTINUOUS
 62
     1
 10
 2.38461745482709E+0000
 20
 3.71717587317107E+0000
 11
 3.01107394591600E+0000
 21
 3.71717587317107E+0000
  0
LINE
  8
1
  6
CONTINUOUS
 62
     1
 10
 6.70837478154863E+0000
 20
 3.77559478452895E+0000
 11
 6.75262844837562E+0000
 21
 3.81694112318655E+0000
  0
LINE
  8
1
  6
CONTINUOUS
 62
     1
 10
 6.75262844837562E+0000
 20
 3.81694112318655E+0000
 11
 6.75262844837562E+0000
 21
 4.12668152833066E+0000
  0
LINE
  8
1
  6
CONTINUOUS
 62
     1
 10
 6.70837478154863E+0000
 20
 3.77559478454350E+0000
 11
 6.70837478154863E+0000
 21
 4.12668152834522E+0000
  0
LINE
  8
1
  6
CONTINUOUS
 62
     1
 10
 2.22436114314769E+0000
 20
 3.32284822139627E+0000
 11
 2.22436114314769E+0000
 21
 4.12877540166664E+0000
  0
LINE
  8
1
  6
CONTINUOUS
 62
     1
 10
 2.38461745482709E+0000
 20
 3.71717587317107E+0000
 11
 2.38461745482709E+0000
 21
 4.12877540168120E+0000
  0
LINE
  8
1
  6
DASHDOT
 62
     1
 10
 1.61215106080999E+0000
 20
 3.02681434492115E+0000
 11
 2.34894355543292E+0000
 21
 3.02681434492115E+0000
  0
LINE
  8
1
  6
CONTINUOUS
 62
     1
 10
 3.01107394591600E+0000
 20
 4.54037493019132E+0000
 11
 3.40769356983219E+0000
 21
 4.54037493019132E+0000
  0
LINE
  8
1
  6
CONTINUOUS
 62
     1
 10
 3.40769356983219E+0000
 20
 4.54037493019132E+0000
 11
 3.40769356983219E+0000
 21
 4.48437269278656E+0000
  0
LINE
  8
1
  6
CONTINUOUS
 62
     1
 10
 3.01107394591600E+0000
 20
 3.71717587317107E+0000
 11
 3.40769356983219E+0000
 21
 3.71717587317107E+0000
  0
LINE
  8
1
  6
CONTINUOUS
 62
     1
 10
 3.40769356983219E+0000
 20
 3.71717587317107E+0000
 11
 3.40769356983219E+0000
 21
 3.77508549284175E+0000
  0
LINE
  8
1
  6
CONTINUOUS
 62
     1
 10
 3.40769223720781E+0000
 20
 4.48305922962754E+0000
 11
 3.40769223720781E+0000
 21
 3.77334329250152E+0000
  0
LINE
  8
1
  6
DASHDOT
 62
     1
 10
 3.64377388504727E+0000
 20
 4.48367796854291E+0000
 11
 3.64377388504727E+0000
 21
 4.34503421955742E+0000
  0
LINE
  8
1
  6
DASHDOT
 62
     1
 10
 3.64377388504727E+0000
 20
 4.34503421955742E+0000
 11
 4.90977151339757E+0000
 21
 4.34503421955742E+0000
  0
LINE
  8
1
  6
DASHDOT
 62
     1
 10
 4.90977151339757E+0000
 20
 4.34503421955742E+0000
 11
 4.90977151339757E+0000
 21
 4.48367796854291E+0000
  0
LINE
  8
1
  6
CONTINUOUS
 62
     1
 10
 5.80923322321178E+0000
 20
 3.77568212212645E+0000
 11
 5.80923322321178E+0000
 21
 4.48262738282938E+0000
  0
LINE
  8
1
  6
CONTINUOUS
 62
     1
 10
 5.85513407633698E+0000
 20
 3.77568212212645E+0000
 11
 5.85513407633698E+0000
 21
 4.48262738282938E+0000
  0
LINE
  8
1
  6
CONTINUOUS
 62
     1
 10
 5.80923322321178E+0000
 20
 4.45752873452147E+0000
 11
 5.85513407633698E+0000
 21
 4.45752873452147E+0000
  0
LINE
  8
1
  6
CONTINUOUS
 62
     1
 10
 5.80923322321178E+0000
 20
 3.79659766238547E+0000
 11
 5.85513407633698E+0000
 21
 3.79659766238547E+0000
  0
LINE
  8
1
  6
CONTINUOUS
 62
     1
 10
 6.70837478154863E+0000
 20
 4.48195601881889E+0000
 11
 5.85513407633698E+0000
 21
 4.48195601881889E+0000
  0
LINE
  8
1
  6
CONTINUOUS
 62
     1
 10
 6.70837478154863E+0000
 20
 3.77559478452895E+0000
 11
 5.85513407633698E+0000
 21
 3.77559478452895E+0000
  0
LINE
  8
1
  6
CONTINUOUS
 62
     1
 10
 5.80923322321178E+0000
 20
 3.77568212212645E+0000
 11
 3.40569764130851E+0000
 21
 3.77568212212645E+0000
  0
LINE
  8
1
  6
CONTINUOUS
 62
     1
 10
 5.80923322321178E+0000
 20
 4.48262738282938E+0000
 11
 3.40569764130851E+0000
 21
 4.48262738282938E+0000
  0
LINE
  8
1
  6
DOT
 62
     1
 10
 6.75228711472300E+0000
 20
 4.26510576414876E+0000
 11
 6.66048540846532E+0000
 21
 4.17307738701493E+0000
  0
LINE
  8
1
  6
DOT
 62
     1
 10
 6.66048540846532E+0000
 20
 4.17307738701493E+0000
 11
 6.66048540846532E+0000
 21
 4.08104900988110E+0000
  0
LINE
  8
1
  6
DOT
 62
     1
 10
 6.66048540846532E+0000
 20
 4.08104900988110E+0000
 11
 6.75228711472300E+0000
 21
 3.99320374080344E+0000
  0
LINE
  8
1
  6
DOT
 62
     1
 10
 6.66048540846532E+0000
 20
 4.17307738701493E+0000
 11
 6.48522760561900E+0000
 21
 4.17307738701493E+0000
  0
LINE
  8
1
  6
DOT
 62
     1
 10
 6.48522760561900E+0000
 20
 4.17307738701493E+0000
 11
 6.48522760561900E+0000
 21
 4.08104900988110E+0000
  0
LINE
  8
1
  6
DOT
 62
     1
 10
 6.48522760561900E+0000
 20
 4.08104900988110E+0000
 11
 6.66048540846532E+0000
 21
 4.08104900988110E+0000
  0
LINE
  8
1
  6
DOT
 62
     1
 10
 6.48522760561900E+0000
 20
 4.17307738701493E+0000
 11
 6.43932675249380E+0000
 21
 4.13124630650418E+0000
  0
LINE
  8
1
  6
DOT
 62
     1
 10
 6.43932675249380E+0000
 20
 4.13124630650418E+0000
 11
 6.48522760561900E+0000
 21
 4.08104900988110E+0000
  0
LINE
  8
1
  6
DASHDOT
 62
     1
 10
 9.06269536621403E+0000
 20
 5.78108621537831E+0000
 11
 9.06269536621403E+0000
 21
 2.54479829750926E+0000
  0
CIRCLE
  8
1
  6
CONTINUOUS
 62
     1
 10
 9.06269536621403E+0000
 20
 4.13018630585429E+0000
 40
 1.38885230483720E+0000
  0
CIRCLE
  8
1
  6
DOT
 62
     1
 10
 9.06269536621403E+0000
 20
 4.13018630585429E+0000
 40
 3.53764266328653E-0001
  0
CIRCLE
  8
1
  6
DOT
 62
     1
 10
 9.06269536621403E+0000
 20
 4.13018630585429E+0000
 40
 4.06173787268926E-0001
  0
CIRCLE
  8
1
  6
DOT
 62
     1
 10
 9.06269536643231E+0000
 20
 4.13018630585429E+0000
 40
 7.99245194291871E-0001
  0
LINE
  8
1
  6
DASHDOT
 62
     1
 10
 8.94891407257819E+0000
 20
 5.23537695374398E+0000
 11
 9.18813435207994E+0000
 21
 5.23537695374398E+0000
  0
CIRCLE
  8
1
  6
CONTINUOUS
 62
     1
 10
 9.06489966264053E+0000
 20
 5.23537695374398E+0000
 40
 7.97400931623997E-0002
  0
CIRCLE
  8
1
  6
CONTINUOUS
 62
     1
 10
 9.06489966262598E+0000
 20
 5.23537695373670E+0000
 40
 7.97400931623997E-0002
  0
CIRCLE
  8
1
  6
CONTINUOUS
 62
     1
 10
 8.64261692525179E+0000
 20
 5.15232249349356E+0000
 40
 7.97400931623997E-0002
  0
ARC
  8
1
  6
CONTINUOUS
 62
     1
 10
 8.64261692523723E+0000
 20
 5.15232249347901E+0000
 40
 1.01487391308183E-0001
 50
 4.17558429164346E+0002
 51
 6.88816899104975E+0002
  0
LINE
  8
1
  6
DASHDOT
 62
     1
 10
 8.53546021252987E+0000
 20
 5.10793672977888E+0000
 11
 8.75647093252337E+0000
 21
 5.19948236743221E+0000
  0
CIRCLE
  8
1
  6
CONTINUOUS
 62
     1
 10
 8.28426211317128E+0000
 20
 4.91398957021011E+0000
 40
 7.97400931623997E-0002
  0
ARC
  8
1
  6
CONTINUOUS
 62
     1
 10
 8.28426211315673E+0000
 20
 4.91398957018828E+0000
 40
 1.01487391308183E-0001
 50
 4.40058429164346E+0002
 51
 7.11316899104975E+0002
  0
LINE
  8
1
  6
DASHDOT
 62
     1
 10
 8.20224791592045E+0000
 20
 4.83197537295200E+0000
 11
 8.37140219775029E+0000
 21
 5.00112965478911E+0000
  0
CIRCLE
  8
1
  6
CONTINUOUS
 62
     1
 10
 8.04439149804239E+0000
 20
 4.55666221096908E+0000
 40
 7.97400931623997E-0002
  0
ARC
  8
1
  6
CONTINUOUS
 62
     1
 10
 8.04439149804239E+0000
 20
 4.55666221094725E+0000
 40
 1.01487391308183E-0001
 50
 4.62558429164346E+0002
 51
 7.33816899104975E+0002
  0
LINE
  8
1
  6
DASHDOT
 62
     1
 10
 8.00000573434227E+0000
 20
 4.44950549823989E+0000
 11
 8.09155137198104E+0000
 21
 4.67051621824066E+0000
  0
CIRCLE
  8
1
  6
CONTINUOUS
 62
     1
 10
 7.95952320659126E+0000
 20
 4.13474026704353E+0000
 40
 7.97400931623997E-0002
  0
ARC
  8
1
  6
CONTINUOUS
 62
     1
 10
 7.95952320659126E+0000
 20
 4.13474026702170E+0000
 40
 1.01487391308183E-0001
 50
 4.85058429164346E+0002
 51
 7.56316899104975E+0002
  0
LINE
  8
1
  6
DASHDOT
 62
     1
 10
 7.95952320659853E+0000
 20
 4.01875467698119E+0000
 11
 7.95952320658398E+0000
 21
 4.25797495648294E+0000
  0
CIRCLE
  8
1
  6
CONTINUOUS
 62
     1
 10
 8.04257766684168E+0000
 20
 3.71245752966206E+0000
 40
 7.97400931623997E-0002
  0
ARC
  8
1
  6
CONTINUOUS
 62
     1
 10
 8.04257766685623E+0000
 20
 3.71245752964023E+0000
 40
 1.01487391308183E-0001
 50
 5.07558429164812E+0002
 51
 7.78816899105906E+0002
  0
LINE
  8
1
  6
DASHDOT
 62
     1
 10
 8.08696343055635E+0000
 20
 3.60530081694014E+0000
 11
 7.99541779289575E+0000
 21
 3.82631153692637E+0000
  0
CIRCLE
  8
1
  6
CONTINUOUS
 62
     1
 10
 8.28091059012513E+0000
 20
 3.35410271758519E+0000
 40
 7.97400931623997E-0002
  0
ARC
  8
1
  6
CONTINUOUS
 62
     1
 10
 8.28091059013968E+0000
 20
 3.35410271756700E+0000
 40
 1.01487391308183E-0001
 50
 5.30058429164812E+0002
 51
 8.01316899105906E+0002
  0
LINE
  8
1
  6
DASHDOT
 62
     1
 10
 8.36292478737596E+0000
 20
 3.27208852033436E+0000
 11
 8.19377050554613E+0000
 21
 3.44124280215692E+0000
  0
CIRCLE
  8
1
  6
CONTINUOUS
 62
     1
 10
 8.63823794935888E+0000
 20
 3.11423210245630E+0000
 40
 7.97400931623997E-0002
  0
ARC
  8
1
  6
CONTINUOUS
 62
     1
 10
 8.63823794937343E+0000
 20
 3.11423210244538E+0000
 40
 1.01487391308183E-0001
 50
 5.52558429164812E+0002
 51
 8.23816899105906E+0002
  0
LINE
  8
1
  6
DASHDOT
 62
     1
 10
 8.74539466208080E+0000
 20
 3.06984633874890E+0000
 11
 8.52438394210185E+0000
 21
 3.16139197639131E+0000
  0
CIRCLE
  8
1
  6
CONTINUOUS
 62
     1
 10
 9.06015989328444E+0000
 20
 3.02936381099789E+0000
 40
 7.97400931623997E-0002
  0
ARC
  8
1
  6
CONTINUOUS
 62
     1
 10
 9.06015989329899E+0000
 20
 3.02936381099425E+0000
 40
 1.01487391308183E-0001
 50
 5.75058429164812E+0002
 51
 8.46316899104975E+0002
  0
LINE
  8
1
  6
DASHDOT
 62
     1
 10
 9.17614548334677E+0000
 20
 3.02936381099789E+0000
 11
 8.93692520385957E+0000
 21
 3.02936381099789E+0000
  0
CIRCLE
  8
1
  6
CONTINUOUS
 62
     1
 10
 9.48244263067318E+0000
 20
 3.11241827125195E+0000
 40
 7.97400931623997E-0002
  0
ARC
  8
1
  6
CONTINUOUS
 62
     1
 10
 9.48244263068773E+0000
 20
 3.11241827125559E+0000
 40
 1.01487391308183E-0001
 50
 5.97558429164812E+0002
 51
 8.68816899104975E+0002
  0
LINE
  8
1
  6
DASHDOT
 62
     1
 10
 9.58959934339509E+0000
 20
 3.15680403496299E+0000
 11
 9.36858862341614E+0000
 21
 3.06525839731694E+0000
  0
CIRCLE
  8
1
  6
CONTINUOUS
 62
     1
 10
 9.84079744275368E+0000
 20
 3.35075119453541E+0000
 40
 7.97400931623997E-0002
  0
ARC
  8
1
  6
CONTINUOUS
 62
     1
 10
 9.84079744276823E+0000
 20
 3.35075119454632E+0000
 40
 1.01487391308183E-0001
 50
 6.20058429164812E+0002
 51
 8.91316899104975E+0002
  0
LINE
  8
1
  6
DASHDOT
 62
     1
 10
 9.92281164000451E+0000
 20
 3.43276539178987E+0000
 11
 9.75365735817468E+0000
 21
 3.26361110996731E+0000
  0
CIRCLE
  8
1
  6
CONTINUOUS
 62
     1
 10
 1.00806680578826E+0001
 20
 3.70807855377279E+0000
 40
 7.97400931623997E-0002
  0
ARC
  8
1
  6
CONTINUOUS
 62
     1
 10
 1.00806680578826E+0001
 20
 3.70807855378735E+0000
 40
 1.01487391308183E-0001
 50
 6.42558429164812E+0002
 51
 9.13816899104975E+0002
  0
LINE
  8
1
  6
DASHDOT
 62
     1
 10
 1.01250538215827E+0001
 20
 3.81523526649835E+0000
 11
 1.00335081839294E+0001
 21
 3.59422454651576E+0000
  0
CIRCLE
  8
1
  6
CONTINUOUS
 62
     1
 10
 1.01655363493337E+0001
 20
 4.13000049770926E+0000
 40
 7.97400931623997E-0002
  0
ARC
  8
1
  6
CONTINUOUS
 62
     1
 10
 1.01655363493337E+0001
 20
 4.13000049771654E+0000
 40
 1.01487391308183E-0001
 50
 6.65058429164812E+0002
 51
 9.36316899104044E+0002
  0
LINE
  8
1
  6
DASHDOT
 62
     1
 10
 1.01655363493337E+0001
 20
 4.24598608775705E+0000
 11
 1.01655363493192E+0001
 21
 4.00676580826257E+0000
  0
CIRCLE
  8
1
  6
CONTINUOUS
 62
     1
 10
 1.00824818890687E+0001
 20
 4.55228323509073E+0000
 40
 7.97400931623997E-0002
  0
ARC
  8
1
  6
CONTINUOUS
 62
     1
 10
 1.00824818890687E+0001
 20
 4.55228323509800E+0000
 40
 1.01487391308183E-0001
 50
 6.87558429164812E+0002
 51
 9.58816899104975E+0002
  0
LINE
  8
1
  6
DASHDOT
 62
     1
 10
 1.00380961253686E+0001
 20
 4.65943994780537E+0000
 11
 1.01296417630074E+0001
 21
 4.43842922781187E+0000
  0
CIRCLE
  8
1
  6
CONTINUOUS
 62
     1
 10
 9.84414896578528E+0000
 20
 4.91063804716396E+0000
 40
 7.97400931623997E-0002
  0
ARC
  8
1
  6
CONTINUOUS
 62
     1
 10
 9.84414896577073E+0000
 20
 4.91063804717123E+0000
 40
 1.01487391308183E-0001
 50
 7.10058429164812E+0002
 51
 9.81316899104044E+0002
  0
LINE
  8
1
  6
DASHDOT
 62
     1
 10
 9.76213476853445E+0000
 20
 4.99265224440751E+0000
 11
 9.93128905036428E+0000
 21
 4.82349796257040E+0000
  0
CIRCLE
  8
1
  6
CONTINUOUS
 62
     1
 10
 9.48682160655153E+0000
 20
 5.15050866228557E+0000
 40
 7.97400931623997E-0002
  0
ARC
  8
1
  6
CONTINUOUS
 62
     1
 10
 9.48682160653698E+0000
 20
 5.15050866228557E+0000
 40
 1.01487391308183E-0001
 50
 7.32558429164812E+0002
 51
 1.00381689910498E+0003
  0
LINE
  8
1
  6
DASHDOT
 62
     1
 10
 9.37966489382961E+0000
 20
 5.19489442598569E+0000
 11
 9.60067561382311E+0000
 21
 5.10334878833237E+0000
  0
CIRCLE
  8
1
  6
CONTINUOUS
 62
     1
 10
 9.06489966262598E+0000
 20
 5.23537695373670E+0000
 40
 7.97400931623997E-0002
  0
ARC
  8
1
  6
CONTINUOUS
 62
     1
 10
 9.06489966261142E+0000
 20
 5.23537695373670E+0000
 40
 1.01487391308183E-0001
 50
 7.55058429164812E+0002
 51
 1.02631689910404E+0003
  0
LINE
  8
1
  6
DASHDOT
 62
     1
 10
 8.94891407256364E+0000
 20
 5.23537695372943E+0000
 11
 9.18813435206539E+0000
 21
 5.23537695372943E+0000
  0
LINE
  8
1
  6
CONTINUOUS
 62
     1
 10
 1.61215106080999E+0000
 20
 5.23073645844124E+0000
 11
 1.36902900289169E+0000
 21
 5.23073645844124E+0000
  0
LINE
  8
1
  6
CONTINUOUS
 62
     1
 10
 1.36902900289169E+0000
 20
 5.23073645844124E+0000
 11
 1.36902900289169E+0000
 21
 3.02584952384859E+0000
  0
LINE
  8
1
  6
CONTINUOUS
 62
     1
 10
 1.36902900289169E+0000
 20
 3.02584952384859E+0000
 11
 1.64968634026991E+0000
 21
 3.02584952384859E+0000
  0
LINE
  8
1
  6
CONTINUOUS
 62
     1
 10
 1.72902345251714E+0000
 20
 5.51889169567585E+0000
 11
 1.01119089773601E+0000
 21
 5.51889169567585E+0000
  0
LINE
  8
1
  6
CONTINUOUS
 62
     1
 10
 1.01119089773601E+0000
 20
 5.51889169567585E+0000
 11
 1.01119089773601E+0000
 21
 2.73746544742971E+0000
  0
LINE
  8
1
  6
CONTINUOUS
 62
     1
 10
 1.01119089773601E+0000
 20
 2.73746544742971E+0000
 11
 1.72686710804919E+0000
 21
 2.73746544742971E+0000
  0
LINE
  8
1
  6
CONTINUOUS
 62
     1
 10
 2.38461745482709E+0000
 20
 4.93470258195157E+0000
 11
 2.75828282291332E+0000
 21
 4.93470258195157E+0000
  0
LINE
  8
1
  6
CONTINUOUS
 62
     1
 10
 2.75828282291332E+0000
 20
 4.93470258195157E+0000
 11
 2.75828282291332E+0000
 21
 3.32126735823113E+0000
  0
LINE
  8
1
  6
CONTINUOUS
 62
     1
 10
 2.75828282291332E+0000
 20
 3.32126735823113E+0000
 11
 2.38641185088636E+0000
 21
 3.32126735823113E+0000
  0
LINE
  8
1
  6
CONTINUOUS
 62
     1
 10
 1.72686710804919E+0000
 20
 2.73746544742971E+0000
 11
 1.72686710804919E+0000
 21
 2.31543996974506E+0000
  0
LINE
  8
1
  6
CONTINUOUS
 62
     1
 10
 1.72686710804919E+0000
 20
 2.31543996974506E+0000
 11
 6.75063344711089E+0000
 21
 2.31543996974506E+0000
  0
LINE
  8
1
  6
CONTINUOUS
 62
     1
 10
 6.75063344711089E+0000
 20
 2.31543996974506E+0000
 11
 6.75063344711089E+0000
 21
 3.84879920533785E+0000
  0
LINE
  8
1
  6
CONTINUOUS
 62
     1
 10
 2.22503388189580E+0000
 20
 2.83593805889177E+0000
 11
 6.75063344711089E+0000
 21
 2.83593805889177E+0000
  0
LINE
  8
1
  6
CONTINUOUS
 62
     1
 10
 2.38641185088636E+0000
 20
 3.32126735823113E+0000
 11
 2.38641185088636E+0000
 21
 3.13838965123432E+0000
  0
LINE
  8
1
  6
CONTINUOUS
 62
     1
 10
 2.38641185088636E+0000
 20
 3.13838965123432E+0000
 11
 6.75063344711089E+0000
 21
 3.13838965123432E+0000
  0
LINE
  8
1
  6
CONTINUOUS
 62
     1
 10
 3.40769356983219E+0000
 20
 3.71717587317107E+0000
 11
 3.40769356983219E+0000
 21
 3.34940239007483E+0000
  0
LINE
  8
1
  6
CONTINUOUS
 62
     1
 10
 3.40769356983219E+0000
 20
 3.34940239007483E+0000
 11
 6.75063344711089E+0000
 21
 3.34940239007483E+0000
  0
LINE
  8
1
  6
CONTINUOUS
 62
     1
 10
 3.41081113231849E+0000
 20
 3.55338137095532E+0000
 11
 5.81043136689550E+0000
 21
 3.55338137095532E+0000
  0
LINE
  8
1
  6
CONTINUOUS
 62
     1
 10
 5.81043136689550E+0000
 20
 3.55338137095532E+0000
 11
 5.81043136689550E+0000
 21
 3.79252914164681E+0000
  0
LINE
  8
1
  6
CONTINUOUS
 62
     1
 10
 5.85513407633698E+0000
 20
 4.48262738282938E+0000
 11
 5.85513407633698E+0000
 21
 4.84055907790025E+0000
  0
LINE
  8
1
  6
CONTINUOUS
 62
     1
 10
 5.85513407633698E+0000
 20
 4.84055907790025E+0000
 11
 5.81043136689550E+0000
 21
 4.84055907790025E+0000
  0
LINE
  8
1
  6
CONTINUOUS
 62
     1
 10
 5.81043136689550E+0000
 20
 4.84055907790025E+0000
 11
 5.81043136689550E+0000
 21
 4.48183742186666E+0000
  0
LINE
  8
1
  6
CONTINUOUS
 62
     1
 10
 6.70837478154863E+0000
 20
 3.77559478452895E+0000
 11
 7.12571004177880E+0000
 21
 3.77559478452895E+0000
  0
LINE
  8
1
  6
CONTINUOUS
 62
     1
 10
 7.12571004177880E+0000
 20
 3.77559478452895E+0000
 11
 7.12571004177880E+0000
 21
 4.48401210198790E+0000
  0
LINE
  8
1
  6
CONTINUOUS
 62
     1
 10
 7.12571004177880E+0000
 20
 4.48401210198790E+0000
 11
 6.71174046913802E+0000
 21
 4.48401210198790E+0000
  0
LINE
  8
1
  6
CONTINUOUS
 62
     1
 10
 3.40769356983219E+0000
 20
 4.54037493019132E+0000
 11
 3.40769356983219E+0000
 21
 4.81459872617415E+0000
  0
LINE
  8
1
  6
CONTINUOUS
 62
     1
 10
 3.40769356983219E+0000
 20
 4.81459872617415E+0000
 11
 3.64555905830275E+0000
 21
 4.81459872617415E+0000
  0
LINE
  8
1
  6
CONTINUOUS
 62
     1
 10
 3.64555905830275E+0000
 20
 4.81459872617415E+0000
 11
 3.64555905830275E+0000
 21
 4.48401210198790E+0000
  0
LINE
  8
1
  6
CONTINUOUS
 62
     1
 10
 3.64555905830275E+0000
 20
 4.67392356694472E+0000
 11
 4.90851707650290E+0000
 21
 4.67392356694472E+0000
  0
LINE
  8
1
  6
CONTINUOUS
 62
     1
 10
 4.90851707650290E+0000
 20
 4.67392356694472E+0000
 11
 4.90851707650290E+0000
 21
 4.48401210198790E+0000
  0
LINE
  8
1
  6
CONTINUOUS
 62
     1
 10
 4.90977151339757E+0000
 20
 4.34503421955742E+0000
 11
 5.26635518165858E+0000
 21
 4.34503421955742E+0000
  0
LINE
  8
1
  6
CONTINUOUS
 62
     1
 10
 5.26635518165858E+0000
 20
 4.34503421955742E+0000
 11
 5.26635518165858E+0000
 21
 4.82163248413417E+0000
  0
LINE
  8
1
  6
CONTINUOUS
 62
     1
 10
 8.27538583688147E+0000
 20
 4.91130592313857E+0000
 11
 7.58433254749980E+0000
 21
 5.60406551692722E+0000
  0
LINE
  8
1
  6
CONTINUOUS
 62
     1
 10
 7.58433254749980E+0000
 20
 5.60406551692722E+0000
 11
 6.26997629123798E+0000
 21
 5.60406551692722E+0000
  0
LINE
  8
1
  6
CONTINUOUS
 62
     1
 10
 8.27704878099030E+0000
 20
 4.91522145344788E+0000
 11
 8.27704878099030E+0000
 21
 4.91522145344788E+0000
  0
LINE
  8
1
  6
CONTINUOUS
 62
     1
 10
 8.27704878099030E+0000
 20
 4.91522145344788E+0000
 11
 8.18363445604336E+0000
 21
 5.04707625455922E+0000
  0
LINE
  8
1
  6
CONTINUOUS
 62
     1
 10
 8.18363445604336E+0000
 20
 5.04707625455922E+0000
 11
 8.14092263436760E+0000
 21
 5.00436443289800E+0000
  0
LINE
  8
1
  6
CONTINUOUS
 62
     1
 10
 8.14092263436760E+0000
 20
 5.00436443289800E+0000
 11
 8.27704878099030E+0000
 21
 4.91522145344788E+0000
  0
LINE
  8
1
  6
CONTINUOUS
 62
     1
 10
 8.18363445604336E+0000
 20
 5.04707625455922E+0000
 11
 8.14092263436760E+0000
 21
 5.00436443289800E+0000
  0
LINE
  8
1
  6
CONTINUOUS
 62
     1
 10
 8.17084374654223E+0000
 20
 4.98477042283048E+0000
 11
 8.14608618542843E+0000
 21
 5.00952798395156E+0000
  0
LINE
  8
1
  6
CONTINUOUS
 62
     1
 10
 8.23068597081874E+0000
 20
 4.94558240273909E+0000
 11
 8.15641328752099E+0000
 21
 5.01985508604412E+0000
  0
LINE
  8
1
  6
CONTINUOUS
 62
     1
 10
 8.26574310654541E+0000
 20
 4.93117947120481E+0000
 11
 8.16674038961355E+0000
 21
 5.03018218813668E+0000
  0
LINE
  8
1
  6
CONTINUOUS
 62
     1
 10
 8.21555125841405E+0000
 20
 5.00202552351402E+0000
 11
 8.17706749170611E+0000
 21
 5.04050929022196E+0000
  0
LINE
  8
1
  6
CONTINUOUS
 62
     1
 10
 8.27276635095768E+0000
 20
 4.92126612550783E+0000
 11
 8.27080829592887E+0000
 21
 4.91930807048630E+0000
  0
LINE
  8
1
  6
CONTINUOUS
 62
     1
 10
 8.26420149089245E+0000
 20
 4.93335546962771E+0000
 11
 8.25832732583513E+0000
 21
 4.92748130457039E+0000
  0
LINE
  8
1
  6
CONTINUOUS
 62
     1
 10
 8.25563663082721E+0000
 20
 4.94544481375488E+0000
 11
 8.24584635572683E+0000
 21
 4.93565453865449E+0000
  0
LINE
  8
1
  6
CONTINUOUS
 62
     1
 10
 8.24707177076198E+0000
 20
 4.95753415786749E+0000
 11
 8.23336538561853E+0000
 21
 4.94382777273859E+0000
  0
LINE
  8
1
  6
CONTINUOUS
 62
     1
 10
 8.23850691069674E+0000
 20
 4.96962350199465E+0000
 11
 8.22088441552478E+0000
 21
 4.95200100682268E+0000
  0
LINE
  8
1
  6
CONTINUOUS
 62
     1
 10
 8.22994205063151E+0000
 20
 4.98171284610726E+0000
 11
 8.20840344541648E+0000
 21
 4.96017424090678E+0000
  0
LINE
  8
1
  6
CONTINUOUS
 62
     1
 10
 8.22137719056627E+0000
 20
 4.99380219023442E+0000
 11
 8.19592247532273E+0000
 21
 4.96834747499088E+0000
  0
LINE
  8
1
  6
CONTINUOUS
 62
     1
 10
 8.21281233051559E+0000
 20
 5.00589153436158E+0000
 11
 8.18344150521443E+0000
 21
 4.97652070907498E+0000
  0
LINE
  8
1
  6
CONTINUOUS
 62
     1
 10
 8.20424747043580E+0000
 20
 5.01798087848147E+0000
 11
 8.17096053512068E+0000
 21
 4.98469394315907E+0000
  0
LINE
  8
1
  6
CONTINUOUS
 62
     1
 10
 8.19568261038512E+0000
 20
 5.03007022260863E+0000
 11
 8.15847956501239E+0000
 21
 4.99286717724317E+0000
  0
LINE
  8
1
  6
CONTINUOUS
 62
     1
 10
 8.18711775031989E+0000
 20
 5.04215956672124E+0000
 11
 8.14599859491864E+0000
 21
 5.00104041132727E+0000
  0
LINE
  8
1
  6
CONTINUOUS
 62
     1
 10
 7.12234547641128E+0000
 20
 4.48757246386958E+0000
 11
 7.12234547641128E+0000
 21
 4.48757246386958E+0000
  0
LINE
  8
1
  6
CONTINUOUS
 62
     1
 10
 7.12234547641128E+0000
 20
 4.48757246386958E+0000
 11
 7.14952699777496E+0000
 21
 4.64686179049750E+0000
  0
LINE
  8
1
  6
CONTINUOUS
 62
     1
 10
 7.14952699777496E+0000
 20
 4.64686179049750E+0000
 11
 7.08912336030335E+0000
 21
 4.64686179049750E+0000
  0
LINE
  8
1
  6
CONTINUOUS
 62
     1
 10
 7.08912336030335E+0000
 20
 4.64686179049750E+0000
 11
 7.12234547641128E+0000
 21
 4.48757246386958E+0000
  0
LINE
  8
1
  6
CONTINUOUS
 62
     1
 10
 7.14952699777496E+0000
 20
 4.64686179049750E+0000
 11
 7.08912336030335E+0000
 21
 4.64686179049750E+0000
  0
LINE
  8
1
  6
CONTINUOUS
 62
     1
 10
 7.12385083957633E+0000
 20
 4.49639420280437E+0000
 11
 7.11962400598713E+0000
 21
 4.50062103640084E+0000
  0
LINE
  8
1
  6
CONTINUOUS
 62
     1
 10
 7.12686156591371E+0000
 20
 4.51403768065938E+0000
 11
 7.11418106513884E+0000
 21
 4.52671818143426E+0000
  0
LINE
  8
1
  6
CONTINUOUS
 62
     1
 10
 7.12987229224382E+0000
 20
 4.53168115851440E+0000
 11
 7.10873812429054E+0000
 21
 4.55281532646040E+0000
  0
LINE
  8
1
  6
CONTINUOUS
 62
     1
 10
 7.13288301858120E+0000
 20
 4.54932463636214E+0000
 11
 7.10329518344224E+0000
 21
 4.57891247149382E+0000
  0
LINE
  8
1
  6
CONTINUOUS
 62
     1
 10
 7.13589374491130E+0000
 20
 4.56696811421716E+0000
 11
 7.09785224260122E+0000
 21
 4.60500961652724E+0000
  0
LINE
  8
1
  6
CONTINUOUS
 62
     1
 10
 7.13890447124140E+0000
 20
 4.58461159207218E+0000
 11
 7.09240930175292E+0000
 21
 4.63110676156066E+0000
  0
LINE
  8
1
  6
CONTINUOUS
 62
     1
 10
 7.14191519757151E+0000
 20
 4.60225506991992E+0000
 11
 7.09730847700121E+0000
 21
 4.64686179049750E+0000
  0
LINE
  8
1
  6
CONTINUOUS
 62
     1
 10
 7.14492592390889E+0000
 20
 4.61989854777494E+0000
 11
 7.11796268118633E+0000
 21
 4.64686179049750E+0000
  0
LINE
  8
1
  6
CONTINUOUS
 62
     1
 10
 7.14793665023899E+0000
 20
 4.63754202562995E+0000
 11
 7.13861688537145E+0000
 21
 4.64686179049750E+0000
  0
LINE
  8
1
  6
CONTINUOUS
 62
     1
 10
 7.12447030427575E+0000
 20
 4.50002439382661E+0000
 11
 7.12056330605992E+0000
 21
 4.49611739561078E+0000
  0
LINE
  8
1
  6
CONTINUOUS
 62
     1
 10
 7.12871996001195E+0000
 20
 4.52492825374793E+0000
 11
 7.11699896536447E+0000
 21
 4.51320725910773E+0000
  0
LINE
  8
1
  6
CONTINUOUS
 62
     1
 10
 7.13296961574815E+0000
 20
 4.54983211366925E+0000
 11
 7.11343462466903E+0000
 21
 4.53029712259740E+0000
  0
LINE
  8
1
  6
CONTINUOUS
 62
     1
 10
 7.13721927147708E+0000
 20
 4.57473597359058E+0000
 11
 7.10987028398085E+0000
 21
 4.54738698608708E+0000
  0
LINE
  8
1
  6
CONTINUOUS
 62
     1
 10
 7.14146892721328E+0000
 20
 4.59963983351190E+0000
 11
 7.10630594327085E+0000
 21
 4.56447684956947E+0000
  0
LINE
  8
1
  6
CONTINUOUS
 62
     1
 10
 7.14571858294948E+0000
 20
 4.62454369343322E+0000
 11
 7.10274160258268E+0000
 21
 4.58156671305915E+0000
  0
LINE
  8
1
  6
CONTINUOUS
 62
     1
 10
 7.14738247582864E+0000
 20
 4.64686179049750E+0000
 11
 7.09917726188723E+0000
 21
 4.59865657655610E+0000
  0
LINE
  8
1
  6
CONTINUOUS
 62
     1
 10
 7.12672827164351E+0000
 20
 4.64686179049750E+0000
 11
 7.09561292119179E+0000
 21
 4.61574644004577E+0000
  0
LINE
  8
1
  6
CONTINUOUS
 62
     1
 10
 7.10607406745839E+0000
 20
 4.64686179049750E+0000
 11
 7.09204858049634E+0000
 21
 4.63283630353544E+0000
  0
LINE
  8
1
  6
CONTINUOUS
 62
     1
 10
 7.12504675271339E+0000
 20
 3.75957114730045E+0000
 11
 7.12504675271339E+0000
 21
 3.75957114730045E+0000
  0
LINE
  8
1
  6
CONTINUOUS
 62
     1
 10
 7.12504675271339E+0000
 20
 3.75957114730045E+0000
 11
 7.09786523134972E+0000
 21
 3.60028182067254E+0000
  0
LINE
  8
1
  6
CONTINUOUS
 62
     1
 10
 7.09786523134972E+0000
 20
 3.60028182067254E+0000
 11
 7.15826886882132E+0000
 21
 3.60028182067254E+0000
  0
LINE
  8
1
  6
CONTINUOUS
 62
     1
 10
 7.15826886882132E+0000
 20
 3.60028182067254E+0000
 11
 7.12504675271339E+0000
 21
 3.75957114730045E+0000
  0
LINE
  8
1
  6
CONTINUOUS
 62
     1
 10
 7.09786523134972E+0000
 20
 3.60028182067254E+0000
 11
 7.15826886882132E+0000
 21
 3.60028182067254E+0000
  0
LINE
  8
1
  6
CONTINUOUS
 62
     1
 10
 7.10819233344228E+0000
 20
 3.60028182067254E+0000
 11
 7.09937059451477E+0000
 21
 3.60910355960004E+0000
  0
LINE
  8
1
  6
CONTINUOUS
 62
     1
 10
 7.12884653762740E+0000
 20
 3.60028182067617E+0000
 11
 7.10238132085215E+0000
 21
 3.62674703745142E+0000
  0
LINE
  8
1
  6
CONTINUOUS
 62
     1
 10
 7.14950074181252E+0000
 20
 3.60028182067617E+0000
 11
 7.10539204718225E+0000
 21
 3.64439051530280E+0000
  0
LINE
  8
1
  6
CONTINUOUS
 62
     1
 10
 7.15513656634721E+0000
 20
 3.61530020032296E+0000
 11
 7.10840277351235E+0000
 21
 3.66203399315782E+0000
  0
LINE
  8
1
  6
CONTINUOUS
 62
     1
 10
 7.14969362549891E+0000
 20
 3.64139734535638E+0000
 11
 7.11141349984973E+0000
 21
 3.67967747100920E+0000
  0
LINE
  8
1
  6
CONTINUOUS
 62
     1
 10
 7.14425068465789E+0000
 20
 3.66749449038980E+0000
 11
 7.11442422617984E+0000
 21
 3.69732094886422E+0000
  0
LINE
  8
1
  6
CONTINUOUS
 62
     1
 10
 7.13880774380959E+0000
 20
 3.69359163542322E+0000
 11
 7.11743495251721E+0000
 21
 3.71496442671560E+0000
  0
LINE
  8
1
  6
CONTINUOUS
 62
     1
 10
 7.13336480296130E+0000
 20
 3.71968878045300E+0000
 11
 7.12044567884732E+0000
 21
 3.73260790456698E+0000
  0
LINE
  8
1
  6
CONTINUOUS
 62
     1
 10
 7.12792186211300E+0000
 20
 3.74578592548642E+0000
 11
 7.12345640517742E+0000
 21
 3.75025138242199E+0000
  0
LINE
  8
1
  6
CONTINUOUS
 62
     1
 10
 7.15648669846996E+0000
 20
 3.60882675241373E+0000
 11
 7.14794176672149E+0000
 21
 3.60028182066890E+0000
  0
LINE
  8
1
  6
CONTINUOUS
 62
     1
 10
 7.15292235777451E+0000
 20
 3.62591661590704E+0000
 11
 7.12728756253637E+0000
 21
 3.60028182066890E+0000
  0
LINE
  8
1
  6
CONTINUOUS
 62
     1
 10
 7.14935801707179E+0000
 20
 3.64300647939308E+0000
 11
 7.10663335835125E+0000
 21
 3.60028182066890E+0000
  0
LINE
  8
1
  6
CONTINUOUS
 62
     1
 10
 7.14579367638362E+0000
 20
 3.66009634288639E+0000
 11
 7.10031082235218E+0000
 21
 3.61461348885859E+0000
  0
LINE
  8
1
  6
CONTINUOUS
 62
     1
 10
 7.14222933568817E+0000
 20
 3.67718620637606E+0000
 11
 7.10456047808839E+0000
 21
 3.63951734877628E+0000
  0
LINE
  8
1
  6
CONTINUOUS
 62
     1
 10
 7.13866499499272E+0000
 20
 3.69427606986937E+0000
 11
 7.10881013381731E+0000
 21
 3.66442120869397E+0000
  0
LINE
  8
1
  6
CONTINUOUS
 62
     1
 10
 7.13510065429728E+0000
 20
 3.71136593335541E+0000
 11
 7.11305978955352E+0000
 21
 3.68932506861529E+0000
  0
LINE
  8
1
  6
CONTINUOUS
 62
     1
 10
 7.13153631360183E+0000
 20
 3.72845579684508E+0000
 11
 7.11730944528972E+0000
 21
 3.71422892853661E+0000
  0
LINE
  8
1
  6
CONTINUOUS
 62
     1
 10
 7.12797197290638E+0000
 20
 3.74554566033839E+0000
 11
 7.12155910102592E+0000
 21
 3.73913278845794E+0000
  0
LINE
  8
1
  6
CONTINUOUS
 62
     1
 10
 2.75667102262742E+0000
 20
 4.92880009709916E+0000
 11
 2.75667102262742E+0000
 21
 4.92880009709916E+0000
  0
LINE
  8
1
  6
CONTINUOUS
 62
     1
 10
 2.75667102262742E+0000
 20
 4.92880009709916E+0000
 11
 2.72948950126374E+0000
 21
 4.76951077047124E+0000
  0
LINE
  8
1
  6
CONTINUOUS
 62
     1
 10
 2.72948950126374E+0000
 20
 4.76951077047124E+0000
 11
 2.78989313873535E+0000
 21
 4.76951077047124E+0000
  0
LINE
  8
1
  6
CONTINUOUS
 62
     1
 10
 2.78989313873535E+0000
 20
 4.76951077047124E+0000
 11
 2.75667102262742E+0000
 21
 4.92880009709916E+0000
  0
LINE
  8
1
  6
CONTINUOUS
 62
     1
 10
 2.72948950126374E+0000
 20
 4.76951077047124E+0000
 11
 2.78989313873535E+0000
 21
 4.76951077047124E+0000
  0
LINE
  8
1
  6
CONTINUOUS
 62
     1
 10
 2.73981660335994E+0000
 20
 4.76951077047124E+0000
 11
 2.73099486443243E+0000
 21
 4.77833250939875E+0000
  0
LINE
  8
1
  6
CONTINUOUS
 62
     1
 10
 2.76047080754506E+0000
 20
 4.76951077047124E+0000
 11
 2.73400559076617E+0000
 21
 4.79597598725377E+0000
  0
LINE
  8
1
  6
CONTINUOUS
 62
     1
 10
 2.78112501173382E+0000
 20
 4.76951077047124E+0000
 11
 2.73701631709628E+0000
 21
 4.81361946510879E+0000
  0
LINE
  8
1
  6
CONTINUOUS
 62
     1
 10
 2.78676083625396E+0000
 20
 4.78452915013622E+0000
 11
 2.74002704343002E+0000
 21
 4.83126294296380E+0000
  0
LINE
  8
1
  6
CONTINUOUS
 62
     1
 10
 2.78131789540930E+0000
 20
 4.81062629516964E+0000
 11
 2.74303776976012E+0000
 21
 4.84890642081155E+0000
  0
LINE
  8
1
  6
CONTINUOUS
 62
     1
 10
 2.77587495456100E+0000
 20
 4.83672344019578E+0000
 11
 2.74604849609386E+0000
 21
 4.86654989866656E+0000
  0
LINE
  8
1
  6
CONTINUOUS
 62
     1
 10
 2.77043201371271E+0000
 20
 4.86282058522920E+0000
 11
 2.74905922242760E+0000
 21
 4.88419337652158E+0000
  0
LINE
  8
1
  6
CONTINUOUS
 62
     1
 10
 2.76498907286805E+0000
 20
 4.88891773026262E+0000
 11
 2.75206994875771E+0000
 21
 4.90183685436932E+0000
  0
LINE
  8
1
  6
CONTINUOUS
 62
     1
 10
 2.75954613201975E+0000
 20
 4.91501487529604E+0000
 11
 2.75508067509145E+0000
 21
 4.91948033222434E+0000
  0
LINE
  8
1
  6
CONTINUOUS
 62
     1
 10
 2.78811096838763E+0000
 20
 4.77805570221244E+0000
 11
 2.77956603664279E+0000
 21
 4.76951077047124E+0000
  0
LINE
  8
1
  6
CONTINUOUS
 62
     1
 10
 2.78454662769582E+0000
 20
 4.79514556570939E+0000
 11
 2.75891183245767E+0000
 21
 4.76951077047124E+0000
  0
LINE
  8
1
  6
CONTINUOUS
 62
     1
 10
 2.78098228699673E+0000
 20
 4.81223542919179E+0000
 11
 2.73825762827255E+0000
 21
 4.76951077047124E+0000
  0
LINE
  8
1
  6
CONTINUOUS
 62
     1
 10
 2.77741794630128E+0000
 20
 4.82932529268146E+0000
 11
 2.73193509226985E+0000
 21
 4.78384243865003E+0000
  0
LINE
  8
1
  6
CONTINUOUS
 62
     1
 10
 2.77385360560947E+0000
 20
 4.84641515617841E+0000
 11
 2.73618474800605E+0000
 21
 4.80874629857135E+0000
  0
LINE
  8
1
  6
CONTINUOUS
 62
     1
 10
 2.77028926491403E+0000
 20
 4.86350501966808E+0000
 11
 2.74043440374226E+0000
 21
 4.83365015849267E+0000
  0
LINE
  8
1
  6
CONTINUOUS
 62
     1
 10
 2.76672492421494E+0000
 20
 4.88059488315048E+0000
 11
 2.74468405947846E+0000
 21
 4.85855401841400E+0000
  0
LINE
  8
1
  6
CONTINUOUS
 62
     1
 10
 2.76316058352313E+0000
 20
 4.89768474664743E+0000
 11
 2.74893371521102E+0000
 21
 4.88345787833532E+0000
  0
LINE
  8
1
  6
CONTINUOUS
 62
     1
 10
 2.75959624282768E+0000
 20
 4.91477461013710E+0000
 11
 2.75318337094723E+0000
 21
 4.90836173825664E+0000
  0
LINE
  8
1
  6
CONTINUOUS
 62
     1
 10
 2.75396974632531E+0000
 20
 3.33286809730271E+0000
 11
 2.75396974632531E+0000
 21
 3.33286809730271E+0000
  0
LINE
  8
1
  6
CONTINUOUS
 62
     1
 10
 2.75396974632531E+0000
 20
 3.33286809730271E+0000
 11
 2.78115126768898E+0000
 21
 3.49215742393062E+0000
  0
LINE
  8
1
  6
CONTINUOUS
 62
     1
 10
 2.78115126768898E+0000
 20
 3.49215742393062E+0000
 11
 2.72074763021737E+0000
 21
 3.49215742393062E+0000
  0
LINE
  8
1
  6
CONTINUOUS
 62
     1
 10
 2.72074763021737E+0000
 20
 3.49215742393062E+0000
 11
 2.75396974632531E+0000
 21
 3.33286809730271E+0000
  0
LINE
  8
1
  6
CONTINUOUS
 62
     1
 10
 2.78115126768898E+0000
 20
 3.49215742393062E+0000
 11
 2.72074763021737E+0000
 21
 3.49215742393062E+0000
  0
LINE
  8
1
  6
CONTINUOUS
 62
     1
 10
 2.75547510949400E+0000
 20
 3.34168983623022E+0000
 11
 2.75124827590116E+0000
 21
 3.34591666981942E+0000
  0
LINE
  8
1
  6
CONTINUOUS
 62
     1
 10
 2.75848583582410E+0000
 20
 3.35933331408160E+0000
 11
 2.74580533505650E+0000
 21
 3.37201381485283E+0000
  0
LINE
  8
1
  6
CONTINUOUS
 62
     1
 10
 2.76149656215784E+0000
 20
 3.37697679193661E+0000
 11
 2.74036239420820E+0000
 21
 3.39811095988625E+0000
  0
LINE
  8
1
  6
CONTINUOUS
 62
     1
 10
 2.76450728849159E+0000
 20
 3.39462026978799E+0000
 11
 2.73491945336355E+0000
 21
 3.42420810491603E+0000
  0
LINE
  8
1
  6
CONTINUOUS
 62
     1
 10
 2.76751801482533E+0000
 20
 3.41226374763937E+0000
 11
 2.72947651251525E+0000
 21
 3.45030524994945E+0000
  0
LINE
  8
1
  6
CONTINUOUS
 62
     1
 10
 2.77052874115543E+0000
 20
 3.42990722549439E+0000
 11
 2.72403357166695E+0000
 21
 3.47640239498287E+0000
  0
LINE
  8
1
  6
CONTINUOUS
 62
     1
 10
 2.77353946748917E+0000
 20
 3.44755070334577E+0000
 11
 2.72893274690432E+0000
 21
 3.49215742393062E+0000
  0
LINE
  8
1
  6
CONTINUOUS
 62
     1
 10
 2.77655019382291E+0000
 20
 3.46519418119715E+0000
 11
 2.74958695108944E+0000
 21
 3.49215742393426E+0000
  0
LINE
  8
1
  6
CONTINUOUS
 62
     1
 10
 2.77956092015302E+0000
 20
 3.48283765905217E+0000
 11
 2.77024115527092E+0000
 21
 3.49215742393426E+0000
  0
LINE
  8
1
  6
CONTINUOUS
 62
     1
 10
 2.75609457419341E+0000
 20
 3.34532002726337E+0000
 11
 2.75218757597759E+0000
 21
 3.34141302904754E+0000
  0
LINE
  8
1
  6
CONTINUOUS
 62
     1
 10
 2.76034422992961E+0000
 20
 3.37022388718469E+0000
 11
 2.74862323528578E+0000
 21
 3.35850289254086E+0000
  0
LINE
  8
1
  6
CONTINUOUS
 62
     1
 10
 2.76459388566218E+0000
 20
 3.39512774710238E+0000
 11
 2.74505889458669E+0000
 21
 3.37559275602689E+0000
  0
LINE
  8
1
  6
CONTINUOUS
 62
     1
 10
 2.76884354139474E+0000
 20
 3.42003160702006E+0000
 11
 2.74149455389124E+0000
 21
 3.39268261951656E+0000
  0
LINE
  8
1
  6
CONTINUOUS
 62
     1
 10
 2.77309319713095E+0000
 20
 3.44493546694139E+0000
 11
 2.73793021319943E+0000
 21
 3.40977248300987E+0000
  0
LINE
  8
1
  6
CONTINUOUS
 62
     1
 10
 2.77734285286715E+0000
 20
 3.46983932686271E+0000
 11
 2.73436587250399E+0000
 21
 3.42686234649955E+0000
  0
LINE
  8
1
  6
CONTINUOUS
 62
     1
 10
 2.77900674574266E+0000
 20
 3.49215742392335E+0000
 11
 2.73080153181218E+0000
 21
 3.44395220999286E+0000
  0
LINE
  8
1
  6
CONTINUOUS
 62
     1
 10
 2.75835254156118E+0000
 20
 3.49215742393062E+0000
 11
 2.72723719111309E+0000
 21
 3.46104207347889E+0000
  0
LINE
  8
1
  6
CONTINUOUS
 62
     1
 10
 2.73769833737606E+0000
 20
 3.49215742393062E+0000
 11
 2.72367285041764E+0000
 21
 3.47813193697220E+0000
  0
LINE
  8
1
  6
CONTINUOUS
 62
     1
 10
 3.05453571049657E+0000
 20
 4.54313188629749E+0000
 11
 3.05453571049657E+0000
 21
 3.71523064234862E+0000
  0
LINE
  8
1
  6
CONTINUOUS
 62
     1
 10
 3.05369159465772E+0000
 20
 3.70147281439495E+0000
 11
 3.05369159465772E+0000
 21
 3.70147281439495E+0000
  0
LINE
  8
1
  6
CONTINUOUS
 62
     1
 10
 3.05369159465772E+0000
 20
 3.70147281439495E+0000
 11
 3.02651007329405E+0000
 21
 3.54218348776703E+0000
  0
LINE
  8
1
  6
CONTINUOUS
 62
     1
 10
 3.02651007329405E+0000
 20
 3.54218348776703E+0000
 11
 3.08691371076566E+0000
 21
 3.54218348776703E+0000
  0
LINE
  8
1
  6
CONTINUOUS
 62
     1
 10
 3.08691371076566E+0000
 20
 3.54218348776703E+0000
 11
 3.05369159465772E+0000
 21
 3.70147281439495E+0000
  0
LINE
  8
1
  6
CONTINUOUS
 62
     1
 10
 3.02651007329405E+0000
 20
 3.54218348776703E+0000
 11
 3.08691371076566E+0000
 21
 3.54218348776703E+0000
  0
LINE
  8
1
  6
CONTINUOUS
 62
     1
 10
 3.03683717538661E+0000
 20
 3.54218348776703E+0000
 11
 3.02801543645910E+0000
 21
 3.55100522669454E+0000
  0
LINE
  8
1
  6
CONTINUOUS
 62
     1
 10
 3.05749137957173E+0000
 20
 3.54218348776703E+0000
 11
 3.03102616279284E+0000
 21
 3.56864870454592E+0000
  0
LINE
  8
1
  6
CONTINUOUS
 62
     1
 10
 3.07814558375321E+0000
 20
 3.54218348777067E+0000
 11
 3.03403688912658E+0000
 21
 3.58629218239730E+0000
  0
LINE
  8
1
  6
CONTINUOUS
 62
     1
 10
 3.08378140829154E+0000
 20
 3.55720186741746E+0000
 11
 3.03704761545669E+0000
 21
 3.60393566025232E+0000
  0
LINE
  8
1
  6
CONTINUOUS
 62
     1
 10
 3.07833846744325E+0000
 20
 3.58329901245088E+0000
 11
 3.04005834179043E+0000
 21
 3.62157913810370E+0000
  0
LINE
  8
1
  6
CONTINUOUS
 62
     1
 10
 3.07289552659495E+0000
 20
 3.60939615748430E+0000
 11
 3.04306906812417E+0000
 21
 3.63922261595508E+0000
  0
LINE
  8
1
  6
CONTINUOUS
 62
     1
 10
 3.06745258575029E+0000
 20
 3.63549330251408E+0000
 11
 3.04607979445791E+0000
 21
 3.65686609380646E+0000
  0
LINE
  8
1
  6
CONTINUOUS
 62
     1
 10
 3.06200964490199E+0000
 20
 3.66159044754750E+0000
 11
 3.04909052078801E+0000
 21
 3.67450957166147E+0000
  0
LINE
  8
1
  6
CONTINUOUS
 62
     1
 10
 3.05656670405733E+0000
 20
 3.68768759258091E+0000
 11
 3.05210124712175E+0000
 21
 3.69215304951285E+0000
  0
LINE
  8
1
  6
CONTINUOUS
 62
     1
 10
 3.08513154041430E+0000
 20
 3.55072841950823E+0000
 11
 3.07658660866946E+0000
 21
 3.54218348776340E+0000
  0
LINE
  8
1
  6
CONTINUOUS
 62
     1
 10
 3.08156719971885E+0000
 20
 3.56781828299791E+0000
 11
 3.05593240448434E+0000
 21
 3.54218348776340E+0000
  0
LINE
  8
1
  6
CONTINUOUS
 62
     1
 10
 3.07800285902340E+0000
 20
 3.58490814648758E+0000
 11
 3.03527820029922E+0000
 21
 3.54218348776340E+0000
  0
LINE
  8
1
  6
CONTINUOUS
 62
     1
 10
 3.07443851832795E+0000
 20
 3.60199800997725E+0000
 11
 3.02895566430016E+0000
 21
 3.55651515594946E+0000
  0
LINE
  8
1
  6
CONTINUOUS
 62
     1
 10
 3.07087417763614E+0000
 20
 3.61908787347056E+0000
 11
 3.03320532003636E+0000
 21
 3.58141901587078E+0000
  0
LINE
  8
1
  6
CONTINUOUS
 62
     1
 10
 3.06730983694069E+0000
 20
 3.63617773696024E+0000
 11
 3.03745497577256E+0000
 21
 3.60632287579210E+0000
  0
LINE
  8
1
  6
CONTINUOUS
 62
     1
 10
 3.06374549624161E+0000
 20
 3.65326760044627E+0000
 11
 3.04170463150149E+0000
 21
 3.63122673570615E+0000
  0
LINE
  8
1
  6
CONTINUOUS
 62
     1
 10
 3.06018115554980E+0000
 20
 3.67035746393958E+0000
 11
 3.04595428723769E+0000
 21
 3.65613059562747E+0000
  0
LINE
  8
1
  6
CONTINUOUS
 62
     1
 10
 3.05661681485435E+0000
 20
 3.68744732742925E+0000
 11
 3.05020394297389E+0000
 21
 3.68103445554880E+0000
  0
LINE
  8
1
  6
CONTINUOUS
 62
     1
 10
 3.05099031835562E+0000
 20
 4.54567079677508E+0000
 11
 3.05099031835562E+0000
 21
 4.54567079677508E+0000
  0
LINE
  8
1
  6
CONTINUOUS
 62
     1
 10
 3.05099031835562E+0000
 20
 4.54567079677508E+0000
 11
 3.07817183971929E+0000
 21
 4.70496012340300E+0000
  0
LINE
  8
1
  6
CONTINUOUS
 62
     1
 10
 3.07817183971929E+0000
 20
 4.70496012340300E+0000
 11
 3.01776820224768E+0000
 21
 4.70496012340300E+0000
  0
LINE
  8
1
  6
CONTINUOUS
 62
     1
 10
 3.01776820224768E+0000
 20
 4.70496012340300E+0000
 11
 3.05099031835562E+0000
 21
 4.54567079677508E+0000
  0
LINE
  8
1
  6
CONTINUOUS
 62
     1
 10
 3.07817183971929E+0000
 20
 4.70496012340300E+0000
 11
 3.01776820224768E+0000
 21
 4.70496012340300E+0000
  0
LINE
  8
1
  6
CONTINUOUS
 62
     1
 10
 3.05249568152431E+0000
 20
 4.55449253570259E+0000
 11
 3.04826884793511E+0000
 21
 4.55871936929179E+0000
  0
LINE
  8
1
  6
CONTINUOUS
 62
     1
 10
 3.05550640785805E+0000
 20
 4.57213601355761E+0000
 11
 3.04282590708681E+0000
 21
 4.58481651432521E+0000
  0
LINE
  8
1
  6
CONTINUOUS
 62
     1
 10
 3.05851713418815E+0000
 20
 4.58977949141263E+0000
 11
 3.03738296624215E+0000
 21
 4.61091365935863E+0000
  0
LINE
  8
1
  6
CONTINUOUS
 62
     1
 10
 3.06152786052189E+0000
 20
 4.60742296926765E+0000
 11
 3.03194002539385E+0000
 21
 4.63701080439205E+0000
  0
LINE
  8
1
  6
CONTINUOUS
 62
     1
 10
 3.06453858685200E+0000
 20
 4.62506644711539E+0000
 11
 3.02649708454919E+0000
 21
 4.66310794942547E+0000
  0
LINE
  8
1
  6
CONTINUOUS
 62
     1
 10
 3.06754931318574E+0000
 20
 4.64270992497040E+0000
 11
 3.02105414370089E+0000
 21
 4.68920509445161E+0000
  0
LINE
  8
1
  6
CONTINUOUS
 62
     1
 10
 3.07056003951948E+0000
 20
 4.66035340282542E+0000
 11
 3.02595331893463E+0000
 21
 4.70496012340300E+0000
  0
LINE
  8
1
  6
CONTINUOUS
 62
     1
 10
 3.07357076584958E+0000
 20
 4.67799688067316E+0000
 11
 3.04660752311975E+0000
 21
 4.70496012340300E+0000
  0
LINE
  8
1
  6
CONTINUOUS
 62
     1
 10
 3.07658149218332E+0000
 20
 4.69564035852818E+0000
 11
 3.06726172730851E+0000
 21
 4.70496012340300E+0000
  0
LINE
  8
1
  6
CONTINUOUS
 62
     1
 10
 3.05311514622008E+0000
 20
 4.55812272673211E+0000
 11
 3.04920814800425E+0000
 21
 4.55421572851628E+0000
  0
LINE
  8
1
  6
CONTINUOUS
 62
     1
 10
 3.05736480195628E+0000
 20
 4.58302658665343E+0000
 11
 3.04564380731244E+0000
 21
 4.57130559200596E+0000
  0
LINE
  8
1
  6
CONTINUOUS
 62
     1
 10
 3.06161445769249E+0000
 20
 4.60793044657476E+0000
 11
 3.04207946661336E+0000
 21
 4.58839545549563E+0000
  0
LINE
  8
1
  6
CONTINUOUS
 62
     1
 10
 3.06586411342869E+0000
 20
 4.63283430649608E+0000
 11
 3.03851512591791E+0000
 21
 4.60548531898530E+0000
  0
LINE
  8
1
  6
CONTINUOUS
 62
     1
 10
 3.07011376916125E+0000
 20
 4.65773816641013E+0000
 11
 3.03495078522610E+0000
 21
 4.62257518247498E+0000
  0
LINE
  8
1
  6
CONTINUOUS
 62
     1
 10
 3.07436342489746E+0000
 20
 4.68264202633145E+0000
 11
 3.03138644453065E+0000
 21
 4.63966504597192E+0000
  0
LINE
  8
1
  6
CONTINUOUS
 62
     1
 10
 3.07602731777661E+0000
 20
 4.70496012339572E+0000
 11
 3.02782210383157E+0000
 21
 4.65675490945432E+0000
  0
LINE
  8
1
  6
CONTINUOUS
 62
     1
 10
 3.05537311359149E+0000
 20
 4.70496012339572E+0000
 11
 3.02425776313976E+0000
 21
 4.67384477294399E+0000
  0
LINE
  8
1
  6
CONTINUOUS
 62
     1
 10
 3.03471890940637E+0000
 20
 4.70496012339572E+0000
 11
 3.02069342244431E+0000
 21
 4.69093463644094E+0000
  0
LINE
  8
1
  6
CONTINUOUS
 62
     1
 10
 5.26323487439367E+0000
 20
 4.34055447639548E+0000
 11
 5.26323487439367E+0000
 21
 4.34055447639548E+0000
  0
LINE
  8
1
  6
CONTINUOUS
 62
     1
 10
 5.26323487439367E+0000
 20
 4.34055447639548E+0000
 11
 5.23605335303000E+0000
 21
 4.18126514976757E+0000
  0
LINE
  8
1
  6
CONTINUOUS
 62
     1
 10
 5.23605335303000E+0000
 20
 4.18126514976757E+0000
 11
 5.29645699050161E+0000
 21
 4.18126514976757E+0000
  0
LINE
  8
1
  6
CONTINUOUS
 62
     1
 10
 5.29645699050161E+0000
 20
 4.18126514976757E+0000
 11
 5.26323487439367E+0000
 21
 4.34055447639548E+0000
  0
LINE
  8
1
  6
CONTINUOUS
 62
     1
 10
 5.23605335303000E+0000
 20
 4.18126514976757E+0000
 11
 5.29645699050161E+0000
 21
 4.18126514976757E+0000
  0
LINE
  8
1
  6
CONTINUOUS
 62
     1
 10
 5.24638045512256E+0000
 20
 4.18126514976757E+0000
 11
 5.23755871619505E+0000
 21
 4.19008688869508E+0000
  0
LINE
  8
1
  6
CONTINUOUS
 62
     1
 10
 5.26703465930768E+0000
 20
 4.18126514976757E+0000
 11
 5.24056944253243E+0000
 21
 4.20773036655009E+0000
  0
LINE
  8
1
  6
CONTINUOUS
 62
     1
 10
 5.28768886350008E+0000
 20
 4.18126514976757E+0000
 11
 5.24358016886254E+0000
 21
 4.22537384439784E+0000
  0
LINE
  8
1
  6
CONTINUOUS
 62
     1
 10
 5.29332468802022E+0000
 20
 4.19628352942527E+0000
 11
 5.24659089519992E+0000
 21
 4.24301732225285E+0000
  0
LINE
  8
1
  6
CONTINUOUS
 62
     1
 10
 5.28788174717920E+0000
 20
 4.22238067445869E+0000
 11
 5.24960162153002E+0000
 21
 4.26066080010787E+0000
  0
LINE
  8
1
  6
CONTINUOUS
 62
     1
 10
 5.28243880633090E+0000
 20
 4.24847781949211E+0000
 11
 5.25261234786012E+0000
 21
 4.27830427795561E+0000
  0
LINE
  8
1
  6
CONTINUOUS
 62
     1
 10
 5.27699586548260E+0000
 20
 4.27457496451825E+0000
 11
 5.25562307419750E+0000
 21
 4.29594775581063E+0000
  0
LINE
  8
1
  6
CONTINUOUS
 62
     1
 10
 5.27155292464158E+0000
 20
 4.30067210955167E+0000
 11
 5.25863380052760E+0000
 21
 4.31359123366565E+0000
  0
LINE
  8
1
  6
CONTINUOUS
 62
     1
 10
 5.26610998379329E+0000
 20
 4.32676925458509E+0000
 11
 5.26164452685771E+0000
 21
 4.33123471151339E+0000
  0
LINE
  8
1
  6
CONTINUOUS
 62
     1
 10
 5.29467482015025E+0000
 20
 4.18981008150877E+0000
 11
 5.28612988840177E+0000
 21
 4.18126514976757E+0000
  0
LINE
  8
1
  6
CONTINUOUS
 62
     1
 10
 5.29111047945480E+0000
 20
 4.20689994499844E+0000
 11
 5.26547568421665E+0000
 21
 4.18126514976757E+0000
  0
LINE
  8
1
  6
CONTINUOUS
 62
     1
 10
 5.28754613875935E+0000
 20
 4.22398980848811E+0000
 11
 5.24482148003153E+0000
 21
 4.18126514976757E+0000
  0
LINE
  8
1
  6
CONTINUOUS
 62
     1
 10
 5.28398179806391E+0000
 20
 4.24107967197779E+0000
 11
 5.23849894403247E+0000
 21
 4.19559681794635E+0000
  0
LINE
  8
1
  6
CONTINUOUS
 62
     1
 10
 5.28041745736846E+0000
 20
 4.25816953547474E+0000
 11
 5.24274859976867E+0000
 21
 4.22050067786768E+0000
  0
LINE
  8
1
  6
CONTINUOUS
 62
     1
 10
 5.27685311668029E+0000
 20
 4.27525939896441E+0000
 11
 5.24699825550488E+0000
 21
 4.24540453778900E+0000
  0
LINE
  8
1
  6
CONTINUOUS
 62
     1
 10
 5.27328877597756E+0000
 20
 4.29234926244681E+0000
 11
 5.25124791124108E+0000
 21
 4.27030839771032E+0000
  0
LINE
  8
1
  6
CONTINUOUS
 62
     1
 10
 5.26972443528211E+0000
 20
 4.30943912594375E+0000
 11
 5.25549756697728E+0000
 21
 4.29521225763165E+0000
  0
LINE
  8
1
  6
CONTINUOUS
 62
     1
 10
 5.26616009459394E+0000
 20
 4.32652898943343E+0000
 11
 5.25974722271349E+0000
 21
 4.32011611755297E+0000
  0
LINE
  8
1
  6
CONTINUOUS
 62
     1
 10
 5.26053359809157E+0000
 20
 4.49483475548186E+0000
 11
 5.26053359809157E+0000
 21
 4.49483475548186E+0000
  0
LINE
  8
1
  6
CONTINUOUS
 62
     1
 10
 5.26053359809157E+0000
 20
 4.49483475548186E+0000
 11
 5.28771511945524E+0000
 21
 4.65412408210977E+0000
  0
LINE
  8
1
  6
CONTINUOUS
 62
     1
 10
 5.28771511945524E+0000
 20
 4.65412408210977E+0000
 11
 5.22731148198363E+0000
 21
 4.65412408210977E+0000
  0
LINE
  8
1
  6
CONTINUOUS
 62
     1
 10
 5.22731148198363E+0000
 20
 4.65412408210977E+0000
 11
 5.26053359809157E+0000
 21
 4.49483475548186E+0000
  0
LINE
  8
1
  6
CONTINUOUS
 62
     1
 10
 5.28771511945524E+0000
 20
 4.65412408210977E+0000
 11
 5.22731148198363E+0000
 21
 4.65412408210977E+0000
  0
LINE
  8
1
  6
CONTINUOUS
 62
     1
 10
 5.26203896125662E+0000
 20
 4.50365649440937E+0000
 11
 5.25781212766742E+0000
 21
 4.50788332799857E+0000
  0
LINE
  8
1
  6
CONTINUOUS
 62
     1
 10
 5.26504968759400E+0000
 20
 4.52129997226439E+0000
 11
 5.25236918681912E+0000
 21
 4.53398047303199E+0000
  0
LINE
  8
1
  6
CONTINUOUS
 62
     1
 10
 5.26806041392410E+0000
 20
 4.53894345011213E+0000
 11
 5.24692624597810E+0000
 21
 4.56007761806541E+0000
  0
LINE
  8
1
  6
CONTINUOUS
 62
     1
 10
 5.27107114025421E+0000
 20
 4.55658692796715E+0000
 11
 5.24148330512980E+0000
 21
 4.58617476309155E+0000
  0
LINE
  8
1
  6
CONTINUOUS
 62
     1
 10
 5.27408186659159E+0000
 20
 4.57423040582216E+0000
 11
 5.23604036428151E+0000
 21
 4.61227190812497E+0000
  0
LINE
  8
1
  6
CONTINUOUS
 62
     1
 10
 5.27709259292169E+0000
 20
 4.59187388366990E+0000
 11
 5.23059742343321E+0000
 21
 4.63836905315839E+0000
  0
LINE
  8
1
  6
CONTINUOUS
 62
     1
 10
 5.28010331925179E+0000
 20
 4.60951736152492E+0000
 11
 5.23549659866694E+0000
 21
 4.65412408210977E+0000
  0
LINE
  8
1
  6
CONTINUOUS
 62
     1
 10
 5.28311404558917E+0000
 20
 4.62716083937994E+0000
 11
 5.25615080285206E+0000
 21
 4.65412408210977E+0000
  0
LINE
  8
1
  6
CONTINUOUS
 62
     1
 10
 5.28612477191928E+0000
 20
 4.64480431722768E+0000
 11
 5.27680500703718E+0000
 21
 4.65412408210977E+0000
  0
LINE
  8
1
  6
CONTINUOUS
 62
     1
 10
 5.26265842595603E+0000
 20
 4.50728668543888E+0000
 11
 5.25875142774021E+0000
 21
 4.50337968722306E+0000
  0
LINE
  8
1
  6
CONTINUOUS
 62
     1
 10
 5.26690808169224E+0000
 20
 4.53219054536021E+0000
 11
 5.25518708704476E+0000
 21
 4.52046955072001E+0000
  0
LINE
  8
1
  6
CONTINUOUS
 62
     1
 10
 5.27115773742844E+0000
 20
 4.55709440528153E+0000
 11
 5.25162274634931E+0000
 21
 4.53755941420241E+0000
  0
LINE
  8
1
  6
CONTINUOUS
 62
     1
 10
 5.27540739315737E+0000
 20
 4.58199826519558E+0000
 11
 5.24805840565386E+0000
 21
 4.55464927769208E+0000
  0
LINE
  8
1
  6
CONTINUOUS
 62
     1
 10
 5.27965704889357E+0000
 20
 4.60690212511690E+0000
 11
 5.24449406495842E+0000
 21
 4.57173914118903E+0000
  0
LINE
  8
1
  6
CONTINUOUS
 62
     1
 10
 5.28390670462977E+0000
 20
 4.63180598503823E+0000
 11
 5.24092972427025E+0000
 21
 4.58882900467870E+0000
  0
LINE
  8
1
  6
CONTINUOUS
 62
     1
 10
 5.28557059750892E+0000
 20
 4.65412408210250E+0000
 11
 5.23736538356752E+0000
 21
 4.60591886816837E+0000
  0
LINE
  8
1
  6
CONTINUOUS
 62
     1
 10
 5.26491639332380E+0000
 20
 4.65412408210977E+0000
 11
 5.23380104287207E+0000
 21
 4.62300873165805E+0000
  0
LINE
  8
1
  6
CONTINUOUS
 62
     1
 10
 5.24426218913868E+0000
 20
 4.65412408210977E+0000
 11
 5.23023670218390E+0000
 21
 4.64009859514772E+0000
  0
LINE
  8
1
  6
CONTINUOUS
 62
     1
 10
 1.37028854491291E+0000
 20
 3.03511414114837E+0000
 11
 1.37028854491291E+0000
 21
 3.03511414114837E+0000
  0
LINE
  8
1
  6
CONTINUOUS
 62
     1
 10
 1.37028854491291E+0000
 20
 3.03511414114837E+0000
 11
 1.39747006627658E+0000
 21
 3.19440346777628E+0000
  0
LINE
  8
1
  6
CONTINUOUS
 62
     1
 10
 1.39747006627658E+0000
 20
 3.19440346777628E+0000
 11
 1.33706642880497E+0000
 21
 3.19440346777628E+0000
  0
LINE
  8
1
  6
CONTINUOUS
 62
     1
 10
 1.33706642880497E+0000
 20
 3.19440346777628E+0000
 11
 1.37028854491291E+0000
 21
 3.03511414114837E+0000
  0
LINE
  8
1
  6
CONTINUOUS
 62
     1
 10
 1.39747006627658E+0000
 20
 3.19440346777628E+0000
 11
 1.33706642880497E+0000
 21
 3.19440346777628E+0000
  0
LINE
  8
1
  6
CONTINUOUS
 62
     1
 10
 1.37179390807978E+0000
 20
 3.04393588007588E+0000
 11
 1.36756707449058E+0000
 21
 3.04816271366508E+0000
  0
LINE
  8
1
  6
CONTINUOUS
 62
     1
 10
 1.37480463441352E+0000
 20
 3.06157935793090E+0000
 11
 1.36212413364410E+0000
 21
 3.07425985869850E+0000
  0
LINE
  8
1
  6
CONTINUOUS
 62
     1
 10
 1.37781536074544E+0000
 20
 3.07922283578228E+0000
 11
 1.35668119279762E+0000
 21
 3.10035700373192E+0000
  0
LINE
  8
1
  6
CONTINUOUS
 62
     1
 10
 1.38082608707737E+0000
 20
 3.09686631363365E+0000
 11
 1.35123825194933E+0000
 21
 3.12645414876170E+0000
  0
LINE
  8
1
  6
CONTINUOUS
 62
     1
 10
 1.38383681341111E+0000
 20
 3.11450979148867E+0000
 11
 1.34579531110285E+0000
 21
 3.15255129379511E+0000
  0
LINE
  8
1
  6
CONTINUOUS
 62
     1
 10
 1.38684753974303E+0000
 20
 3.13215326934005E+0000
 11
 1.34035237025637E+0000
 21
 3.17864843882853E+0000
  0
LINE
  8
1
  6
CONTINUOUS
 62
     1
 10
 1.38985826607677E+0000
 20
 3.14979674719143E+0000
 11
 1.34525154549192E+0000
 21
 3.19440346777628E+0000
  0
LINE
  8
1
  6
CONTINUOUS
 62
     1
 10
 1.39286899240869E+0000
 20
 3.16744022504645E+0000
 11
 1.36590574967704E+0000
 21
 3.19440346777628E+0000
  0
LINE
  8
1
  6
CONTINUOUS
 62
     1
 10
 1.39587971874062E+0000
 20
 3.18508370289783E+0000
 11
 1.38655995386216E+0000
 21
 3.19440346777628E+0000
  0
LINE
  8
1
  6
CONTINUOUS
 62
     1
 10
 1.37241337277919E+0000
 20
 3.04756607110539E+0000
 11
 1.36850637456519E+0000
 21
 3.04365907289321E+0000
  0
LINE
  8
1
  6
CONTINUOUS
 62
     1
 10
 1.37666302851540E+0000
 20
 3.07246993102672E+0000
 11
 1.36494203386792E+0000
 21
 3.06074893638288E+0000
  0
LINE
  8
1
  6
CONTINUOUS
 62
     1
 10
 1.38091268424978E+0000
 20
 3.09737379094804E+0000
 11
 1.36137769317429E+0000
 21
 3.07783879987255E+0000
  0
LINE
  8
1
  6
CONTINUOUS
 62
     1
 10
 1.38516233998598E+0000
 20
 3.12227765086936E+0000
 11
 1.35781335247884E+0000
 21
 3.09492866336223E+0000
  0
LINE
  8
1
  6
CONTINUOUS
 62
     1
 10
 1.38941199572218E+0000
 20
 3.14718151079069E+0000
 11
 1.35424901178521E+0000
 21
 3.11201852685190E+0000
  0
LINE
  8
1
  6
CONTINUOUS
 62
     1
 10
 1.39366165145657E+0000
 20
 3.17208537071201E+0000
 11
 1.35068467108795E+0000
 21
 3.12910839034157E+0000
  0
LINE
  8
1
  6
CONTINUOUS
 62
     1
 10
 1.39532554433390E+0000
 20
 3.19440346777264E+0000
 11
 1.34712033039432E+0000
 21
 3.14619825383488E+0000
  0
LINE
  8
1
  6
CONTINUOUS
 62
     1
 10
 1.37467134014878E+0000
 20
 3.19440346777264E+0000
 11
 1.34355598970069E+0000
 21
 3.16328811732456E+0000
  0
LINE
  8
1
  6
CONTINUOUS
 62
     1
 10
 1.35401713596366E+0000
 20
 3.19440346777264E+0000
 11
 1.33999164900524E+0000
 21
 3.18037798081423E+0000
  0
LINE
  8
1
  6
CONTINUOUS
 62
     1
 10
 1.36574541701702E+0000
 20
 5.22655405326077E+0000
 11
 1.36574541701702E+0000
 21
 5.22655405326077E+0000
  0
LINE
  8
1
  6
CONTINUOUS
 62
     1
 10
 1.36574541701702E+0000
 20
 5.22655405326077E+0000
 11
 1.33856389565335E+0000
 21
 5.06726472663286E+0000
  0
LINE
  8
1
  6
CONTINUOUS
 62
     1
 10
 1.33856389565335E+0000
 20
 5.06726472663286E+0000
 11
 1.39896753312496E+0000
 21
 5.06726472663286E+0000
  0
LINE
  8
1
  6
CONTINUOUS
 62
     1
 10
 1.39896753312496E+0000
 20
 5.06726472663286E+0000
 11
 1.36574541701702E+0000
 21
 5.22655405326077E+0000
  0
LINE
  8
1
  6
CONTINUOUS
 62
     1
 10
 1.33856389565335E+0000
 20
 5.06726472663286E+0000
 11
 1.39896753312496E+0000
 21
 5.06726472663286E+0000
  0
LINE
  8
1
  6
CONTINUOUS
 62
     1
 10
 1.34889099774773E+0000
 20
 5.06726472664013E+0000
 11
 1.34006925882022E+0000
 21
 5.07608646556037E+0000
  0
LINE
  8
1
  6
CONTINUOUS
 62
     1
 10
 1.36954520193467E+0000
 20
 5.06726472663286E+0000
 11
 1.34307998515214E+0000
 21
 5.09372994341538E+0000
  0
LINE
  8
1
  6
CONTINUOUS
 62
     1
 10
 1.39019940611979E+0000
 20
 5.06726472663286E+0000
 11
 1.34609071148589E+0000
 21
 5.11137342127040E+0000
  0
LINE
  8
1
  6
CONTINUOUS
 62
     1
 10
 1.39583523064175E+0000
 20
 5.08228310629784E+0000
 11
 1.34910143781781E+0000
 21
 5.12901689911814E+0000
  0
LINE
  8
1
  6
CONTINUOUS
 62
     1
 10
 1.39039228979709E+0000
 20
 5.10838025133125E+0000
 11
 1.35211216414973E+0000
 21
 5.14666037697316E+0000
  0
LINE
  8
1
  6
CONTINUOUS
 62
     1
 10
 1.38494934895061E+0000
 20
 5.13447739635740E+0000
 11
 1.35512289048165E+0000
 21
 5.16430385482818E+0000
  0
LINE
  8
1
  6
CONTINUOUS
 62
     1
 10
 1.37950640810232E+0000
 20
 5.16057454139082E+0000
 11
 1.35813361681357E+0000
 21
 5.18194733268319E+0000
  0
LINE
  8
1
  6
CONTINUOUS
 62
     1
 10
 1.37406346725584E+0000
 20
 5.18667168642423E+0000
 11
 1.36114434314732E+0000
 21
 5.19959081053094E+0000
  0
LINE
  8
1
  6
CONTINUOUS
 62
     1
 10
 1.36862052640754E+0000
 20
 5.21276883145765E+0000
 11
 1.36415506947924E+0000
 21
 5.21723428838595E+0000
  0
LINE
  8
1
  6
CONTINUOUS
 62
     1
 10
 1.39718536277906E+0000
 20
 5.07580965837406E+0000
 11
 1.38864043103422E+0000
 21
 5.06726472663286E+0000
  0
LINE
  8
1
  6
CONTINUOUS
 62
     1
 10
 1.39362102208543E+0000
 20
 5.09289952187100E+0000
 11
 1.36798622684910E+0000
 21
 5.06726472663286E+0000
  0
LINE
  8
1
  6
CONTINUOUS
 62
     1
 10
 1.39005668138634E+0000
 20
 5.10998938535340E+0000
 11
 1.34733202266216E+0000
 21
 5.06726472663286E+0000
  0
LINE
  8
1
  6
CONTINUOUS
 62
     1
 10
 1.38649234069271E+0000
 20
 5.12707924884307E+0000
 11
 1.34100948666128E+0000
 21
 5.08159639481164E+0000
  0
LINE
  8
1
  6
CONTINUOUS
 62
     1
 10
 1.38292799999908E+0000
 20
 5.14416911234002E+0000
 11
 1.34525914239566E+0000
 21
 5.10650025473296E+0000
  0
LINE
  8
1
  6
CONTINUOUS
 62
     1
 10
 1.37936365930545E+0000
 20
 5.16125897582970E+0000
 11
 1.34950879813186E+0000
 21
 5.13140411465429E+0000
  0
LINE
  8
1
  6
CONTINUOUS
 62
     1
 10
 1.37579931860637E+0000
 20
 5.17834883931937E+0000
 11
 1.35375845386807E+0000
 21
 5.15630797457561E+0000
  0
LINE
  8
1
  6
CONTINUOUS
 62
     1
 10
 1.37223497791274E+0000
 20
 5.19543870280904E+0000
 11
 1.35800810960245E+0000
 21
 5.18121183449693E+0000
  0
LINE
  8
1
  6
CONTINUOUS
 62
     1
 10
 1.36867063721911E+0000
 20
 5.21252856629872E+0000
 11
 1.36225776533865E+0000
 21
 5.20611569441826E+0000
  0
LINE
  8
1
  6
CONTINUOUS
 62
     1
 10
 1.01076961142098E+0000
 20
 5.50978342619055E+0000
 11
 1.01076961142098E+0000
 21
 5.50978342619055E+0000
  0
LINE
  8
1
  6
CONTINUOUS
 62
     1
 10
 1.01076961142098E+0000
 20
 5.50978342619055E+0000
 11
 9.83588090057310E-0001
 21
 5.35049409956264E+0000
  0
LINE
  8
1
  6
CONTINUOUS
 62
     1
 10
 9.83588090057310E-0001
 20
 5.35049409956264E+0000
 11
 1.04399172752892E+0000
 21
 5.35049409956264E+0000
  0
LINE
  8
1
  6
CONTINUOUS
 62
     1
 10
 1.04399172752892E+0000
 20
 5.35049409956264E+0000
 11
 1.01076961142098E+0000
 21
 5.50978342619055E+0000
  0
LINE
  8
1
  6
CONTINUOUS
 62
     1
 10
 9.83588090057310E-0001
 20
 5.35049409956264E+0000
 11
 1.04399172752892E+0000
 21
 5.35049409956264E+0000
  0
LINE
  8
1
  6
CONTINUOUS
 62
     1
 10
 9.93915192152599E-0001
 20
 5.35049409956991E+0000
 11
 9.85093453226000E-0001
 21
 5.35931583849015E+0000
  0
LINE
  8
1
  6
CONTINUOUS
 62
     1
 10
 1.01456939634045E+0000
 20
 5.35049409956264E+0000
 11
 9.88104179557013E-0001
 21
 5.37695931634516E+0000
  0
LINE
  8
1
  6
CONTINUOUS
 62
     1
 10
 1.03522360052557E+0000
 20
 5.35049409956264E+0000
 11
 9.91114905891664E-0001
 21
 5.39460279420018E+0000
  0
LINE
  8
1
  6
CONTINUOUS
 62
     1
 10
 1.04085942504753E+0000
 20
 5.36551247922762E+0000
 11
 9.94125632223586E-0001
 21
 5.41224627204792E+0000
  0
LINE
  8
1
  6
CONTINUOUS
 62
     1
 10
 1.03541648420105E+0000
 20
 5.39160962426104E+0000
 11
 9.97136358555508E-0001
 21
 5.42988974990294E+0000
  0
LINE
  8
1
  6
CONTINUOUS
 62
     1
 10
 1.02997354335639E+0000
 20
 5.41770676928718E+0000
 11
 1.00014708488743E+0000
 21
 5.44753322775796E+0000
  0
LINE
  8
1
  6
CONTINUOUS
 62
     1
 10
 1.02453060250809E+0000
 20
 5.44380391432060E+0000
 11
 1.00315781121935E+0000
 21
 5.46517670561298E+0000
  0
LINE
  8
1
  6
CONTINUOUS
 62
     1
 10
 1.01908766166162E+0000
 20
 5.46990105935402E+0000
 11
 1.00616853755309E+0000
 21
 5.48282018346072E+0000
  0
LINE
  8
1
  6
CONTINUOUS
 62
     1
 10
 1.01364472081332E+0000
 20
 5.49599820438743E+0000
 11
 1.00917926388502E+0000
 21
 5.50046366131573E+0000
  0
LINE
  8
1
  6
CONTINUOUS
 62
     1
 10
 1.04220955717938E+0000
 20
 5.35903903130384E+0000
 11
 1.03366462543454E+0000
 21
 5.35049409955536E+0000
  0
LINE
  8
1
  6
CONTINUOUS
 62
     1
 10
 1.03864521648575E+0000
 20
 5.37612889479351E+0000
 11
 1.01301042124942E+0000
 21
 5.35049409955536E+0000
  0
LINE
  8
1
  6
CONTINUOUS
 62
     1
 10
 1.03508087579212E+0000
 20
 5.39321875828318E+0000
 11
 9.92356217063389E-0001
 21
 5.35049409955536E+0000
  0
LINE
  8
1
  6
CONTINUOUS
 62
     1
 10
 1.03151653509849E+0000
 20
 5.41030862177286E+0000
 11
 9.86033681066147E-0001
 21
 5.36482576774142E+0000
  0
LINE
  8
1
  6
CONTINUOUS
 62
     1
 10
 1.02795219439940E+0000
 20
 5.42739848526253E+0000
 11
 9.90283336802349E-0001
 21
 5.38972962766275E+0000
  0
LINE
  8
1
  6
CONTINUOUS
 62
     1
 10
 1.02438785370578E+0000
 20
 5.44448834875220E+0000
 11
 9.94532992537643E-0001
 21
 5.41463348758407E+0000
  0
LINE
  8
1
  6
CONTINUOUS
 62
     1
 10
 1.02082351301215E+0000
 20
 5.46157821224915E+0000
 11
 9.98782648272936E-0001
 21
 5.43953734750539E+0000
  0
LINE
  8
1
  6
CONTINUOUS
 62
     1
 10
 1.01725917231852E+0000
 20
 5.47866807573882E+0000
 11
 1.00303230400823E+0000
 21
 5.46444120742672E+0000
  0
LINE
  8
1
  6
CONTINUOUS
 62
     1
 10
 1.01369483162489E+0000
 20
 5.49575793922850E+0000
 11
 1.00728195974443E+0000
 21
 5.48934506734804E+0000
  0
LINE
  8
1
  6
CONTINUOUS
 62
     1
 10
 1.01531273931687E+0000
 20
 2.73736018499039E+0000
 11
 1.01531273931687E+0000
 21
 2.73736018499039E+0000
  0
LINE
  8
1
  6
CONTINUOUS
 62
     1
 10
 1.01531273931687E+0000
 20
 2.73736018499039E+0000
 11
 1.04249426068054E+0000
 21
 2.89664951161831E+0000
  0
LINE
  8
1
  6
CONTINUOUS
 62
     1
 10
 1.04249426068054E+0000
 20
 2.89664951161831E+0000
 11
 9.82090623208933E-0001
 21
 2.89664951161831E+0000
  0
LINE
  8
1
  6
CONTINUOUS
 62
     1
 10
 9.82090623208933E-0001
 20
 2.89664951161831E+0000
 11
 1.01531273931687E+0000
 21
 2.73736018499039E+0000
  0
LINE
  8
1
  6
CONTINUOUS
 62
     1
 10
 1.04249426068054E+0000
 20
 2.89664951161831E+0000
 11
 9.82090623208933E-0001
 21
 2.89664951161831E+0000
  0
LINE
  8
1
  6
CONTINUOUS
 62
     1
 10
 1.01681810248374E+0000
 20
 2.74618192391790E+0000
 11
 1.01259126889454E+0000
 21
 2.75040875750710E+0000
  0
LINE
  8
1
  6
CONTINUOUS
 62
     1
 10
 1.01982882881748E+0000
 20
 2.76382540176928E+0000
 11
 1.00714832804806E+0000
 21
 2.77650590254052E+0000
  0
LINE
  8
1
  6
CONTINUOUS
 62
     1
 10
 1.02283955514940E+0000
 20
 2.78146887962430E+0000
 11
 1.00170538720158E+0000
 21
 2.80260304757394E+0000
  0
LINE
  8
1
  6
CONTINUOUS
 62
     1
 10
 1.02585028148314E+0000
 20
 2.79911235747568E+0000
 11
 9.96262446354194E-0001
 21
 2.82870019260372E+0000
  0
LINE
  8
1
  6
CONTINUOUS
 62
     1
 10
 1.02886100781507E+0000
 20
 2.81675583533070E+0000
 11
 9.90819505506806E-0001
 21
 2.85479733763714E+0000
  0
LINE
  8
1
  6
CONTINUOUS
 62
     1
 10
 1.03187173414699E+0000
 20
 2.83439931318208E+0000
 11
 9.85376564659418E-0001
 21
 2.88089448267056E+0000
  0
LINE
  8
1
  6
CONTINUOUS
 62
     1
 10
 1.03488246048073E+0000
 20
 2.85204279103345E+0000
 11
 9.90275739894969E-0001
 21
 2.89664951161831E+0000
  0
LINE
  8
1
  6
CONTINUOUS
 62
     1
 10
 1.03789318681265E+0000
 20
 2.86968626888847E+0000
 11
 1.01092994408100E+0000
 21
 2.89664951161831E+0000
  0
LINE
  8
1
  6
CONTINUOUS
 62
     1
 10
 1.04090391314458E+0000
 20
 2.88732974673985E+0000
 11
 1.03158414826612E+0000
 21
 2.89664951161831E+0000
  0
LINE
  8
1
  6
CONTINUOUS
 62
     1
 10
 1.01743756718315E+0000
 20
 2.74981211494742E+0000
 11
 1.01353056896914E+0000
 21
 2.74590511673523E+0000
  0
LINE
  8
1
  6
CONTINUOUS
 62
     1
 10
 1.02168722291935E+0000
 20
 2.77471597486874E+0000
 11
 1.00996622827188E+0000
 21
 2.76299498022490E+0000
  0
LINE
  8
1
  6
CONTINUOUS
 62
     1
 10
 1.02593687865556E+0000
 20
 2.79961983479006E+0000
 11
 1.00640188757825E+0000
 21
 2.78008484371458E+0000
  0
LINE
  8
1
  6
CONTINUOUS
 62
     1
 10
 1.03018653438994E+0000
 20
 2.82452369471139E+0000
 11
 1.00283754688280E+0000
 21
 2.79717470720425E+0000
  0
LINE
  8
1
  6
CONTINUOUS
 62
     1
 10
 1.03443619012614E+0000
 20
 2.84942755463271E+0000
 11
 9.99273206189173E-0001
 21
 2.81426457069392E+0000
  0
LINE
  8
1
  6
CONTINUOUS
 62
     1
 10
 1.03868584586235E+0000
 20
 2.87433141455404E+0000
 11
 9.95708865492816E-0001
 21
 2.83135443418360E+0000
  0
LINE
  8
1
  6
CONTINUOUS
 62
     1
 10
 1.04034973873786E+0000
 20
 2.89664951161467E+0000
 11
 9.92144524799187E-0001
 21
 2.84844429767691E+0000
  0
LINE
  8
1
  6
CONTINUOUS
 62
     1
 10
 1.01969553455274E+0000
 20
 2.89664951161467E+0000
 11
 9.88580184105558E-0001
 21
 2.86553416116658E+0000
  0
LINE
  8
1
  6
CONTINUOUS
 62
     1
 10
 9.99041330367618E-0001
 20
 2.89664951161467E+0000
 11
 9.85015843409201E-0001
 21
 2.88262402465625E+0000
  0
LINE
  8
1
  6
CONTINUOUS
 62
     1
 10
 4.90187975450681E+0000
 20
 4.67720086273039E+0000
 11
 4.90187975450681E+0000
 21
 4.67720086273039E+0000
  0
LINE
  8
1
  6
CONTINUOUS
 62
     1
 10
 4.90187975450681E+0000
 20
 4.67720086273039E+0000
 11
 4.74259042787162E+0000
 21
 4.70438238409406E+0000
  0
LINE
  8
1
  6
CONTINUOUS
 62
     1
 10
 4.74259042787162E+0000
 20
 4.70438238409406E+0000
 11
 4.74259042787162E+0000
 21
 4.64397874662245E+0000
  0
LINE
  8
1
  6
CONTINUOUS
 62
     1
 10
 4.74259042787162E+0000
 20
 4.64397874662245E+0000
 11
 4.90187975450681E+0000
 21
 4.67720086273039E+0000
  0
LINE
  8
1
  6
CONTINUOUS
 62
     1
 10
 4.74259042787162E+0000
 20
 4.70438238409406E+0000
 11
 4.74259042787162E+0000
 21
 4.64397874662245E+0000
  0
LINE
  8
1
  6
CONTINUOUS
 62
     1
 10
 4.75113535962009E+0000
 20
 4.64576091697381E+0000
 11
 4.74259042787162E+0000
 21
 4.65430584871501E+0000
  0
LINE
  8
1
  6
CONTINUOUS
 62
     1
 10
 4.76822522310977E+0000
 20
 4.64932525766926E+0000
 11
 4.74259042787162E+0000
 21
 4.67496005290013E+0000
  0
LINE
  8
1
  6
CONTINUOUS
 62
     1
 10
 4.78531508659944E+0000
 20
 4.65288959835743E+0000
 11
 4.74259042787162E+0000
 21
 4.69561425708525E+0000
  0
LINE
  8
1
  6
CONTINUOUS
 62
     1
 10
 4.80240495008911E+0000
 20
 4.65645393905288E+0000
 11
 4.75692209605768E+0000
 21
 4.70193679309159E+0000
  0
LINE
  8
1
  6
CONTINUOUS
 62
     1
 10
 4.81949481357879E+0000
 20
 4.66001827974833E+0000
 11
 4.78182595597173E+0000
 21
 4.69768713735539E+0000
  0
LINE
  8
1
  6
CONTINUOUS
 62
     1
 10
 4.83658467706846E+0000
 20
 4.66358262044378E+0000
 11
 4.80672981589305E+0000
 21
 4.69343748161918E+0000
  0
LINE
  8
1
  6
CONTINUOUS
 62
     1
 10
 4.85367454055813E+0000
 20
 4.66714696113922E+0000
 11
 4.83163367581437E+0000
 21
 4.68918782588298E+0000
  0
LINE
  8
1
  6
CONTINUOUS
 62
     1
 10
 4.87076440405508E+0000
 20
 4.67071130183467E+0000
 11
 4.85653753573570E+0000
 21
 4.68493817014678E+0000
  0
LINE
  8
1
  6
CONTINUOUS
 62
     1
 10
 4.88785426754475E+0000
 20
 4.67427564253012E+0000
 11
 4.88144139565702E+0000
 21
 4.68068851441785E+0000
  0
LINE
  8
1
  6
CONTINUOUS
 62
     1
 10
 4.89305801557202E+0000
 20
 4.67870622588816E+0000
 11
 4.88883118199010E+0000
 21
 4.67447939230624E+0000
  0
LINE
  8
1
  6
CONTINUOUS
 62
     1
 10
 4.87541453772428E+0000
 20
 4.68171695222554E+0000
 11
 4.86273403695668E+0000
 21
 4.66903645145794E+0000
  0
LINE
  8
1
  6
CONTINUOUS
 62
     1
 10
 4.85777105986926E+0000
 20
 4.68472767855565E+0000
 11
 4.83663689192326E+0000
 21
 4.66359351060964E+0000
  0
LINE
  8
1
  6
CONTINUOUS
 62
     1
 10
 4.84012758202152E+0000
 20
 4.68773840489303E+0000
 11
 4.81053974688984E+0000
 21
 4.65815056976135E+0000
  0
LINE
  8
1
  6
CONTINUOUS
 62
     1
 10
 4.82248410416651E+0000
 20
 4.69074913122313E+0000
 11
 4.78444260186370E+0000
 21
 4.65270762892033E+0000
  0
LINE
  8
1
  6
CONTINUOUS
 62
     1
 10
 4.80484062631149E+0000
 20
 4.69375985755323E+0000
 11
 4.75834545683028E+0000
 21
 4.64726468807203E+0000
  0
LINE
  8
1
  6
CONTINUOUS
 62
     1
 10
 4.78719714845647E+0000
 20
 4.69677058389061E+0000
 11
 4.74259042787162E+0000
 21
 4.65216386329848E+0000
  0
LINE
  8
1
  6
CONTINUOUS
 62
     1
 10
 4.76955367060873E+0000
 20
 4.69978131022071E+0000
 11
 4.74259042787162E+0000
 21
 4.67281806748360E+0000
  0
LINE
  8
1
  6
CONTINUOUS
 62
     1
 10
 4.75191019275371E+0000
 20
 4.70279203655082E+0000
 11
 4.74259042787162E+0000
 21
 4.69347227166872E+0000
  0
LINE
  8
1
  6
CONTINUOUS
 62
     1
 10
 4.90187975450681E+0000
 20
 4.67720086273039E+0000
 11
 4.90187975450681E+0000
 21
 4.67720086273039E+0000
  0
LINE
  8
1
  6
CONTINUOUS
 62
     1
 10
 4.90187975450681E+0000
 20
 4.67720086273039E+0000
 11
 4.74259042787162E+0000
 21
 4.70438238409406E+0000
  0
LINE
  8
1
  6
CONTINUOUS
 62
     1
 10
 4.74259042787162E+0000
 20
 4.70438238409406E+0000
 11
 4.74259042787162E+0000
 21
 4.64397874662245E+0000
  0
LINE
  8
1
  6
CONTINUOUS
 62
     1
 10
 4.74259042787162E+0000
 20
 4.64397874662245E+0000
 11
 4.90187975450681E+0000
 21
 4.67720086273039E+0000
  0
LINE
  8
1
  6
CONTINUOUS
 62
     1
 10
 4.74259042787162E+0000
 20
 4.70438238409406E+0000
 11
 4.74259042787162E+0000
 21
 4.64397874662245E+0000
  0
LINE
  8
1
  6
CONTINUOUS
 62
     1
 10
 4.75113535962009E+0000
 20
 4.64576091697381E+0000
 11
 4.74259042787162E+0000
 21
 4.65430584871501E+0000
  0
LINE
  8
1
  6
CONTINUOUS
 62
     1
 10
 4.76822522310977E+0000
 20
 4.64932525766926E+0000
 11
 4.74259042787162E+0000
 21
 4.67496005290013E+0000
  0
LINE
  8
1
  6
CONTINUOUS
 62
     1
 10
 4.78531508659944E+0000
 20
 4.65288959835743E+0000
 11
 4.74259042787162E+0000
 21
 4.69561425708525E+0000
  0
LINE
  8
1
  6
CONTINUOUS
 62
     1
 10
 4.80240495008911E+0000
 20
 4.65645393905288E+0000
 11
 4.75692209605768E+0000
 21
 4.70193679309159E+0000
  0
LINE
  8
1
  6
CONTINUOUS
 62
     1
 10
 4.81949481357879E+0000
 20
 4.66001827974833E+0000
 11
 4.78182595597173E+0000
 21
 4.69768713735539E+0000
  0
LINE
  8
1
  6
CONTINUOUS
 62
     1
 10
 4.83658467706846E+0000
 20
 4.66358262044378E+0000
 11
 4.80672981589305E+0000
 21
 4.69343748161918E+0000
  0
LINE
  8
1
  6
CONTINUOUS
 62
     1
 10
 4.85367454055813E+0000
 20
 4.66714696113922E+0000
 11
 4.83163367581437E+0000
 21
 4.68918782588298E+0000
  0
LINE
  8
1
  6
CONTINUOUS
 62
     1
 10
 4.87076440405508E+0000
 20
 4.67071130183467E+0000
 11
 4.85653753573570E+0000
 21
 4.68493817014678E+0000
  0
LINE
  8
1
  6
CONTINUOUS
 62
     1
 10
 4.88785426754475E+0000
 20
 4.67427564253012E+0000
 11
 4.88144139565702E+0000
 21
 4.68068851441785E+0000
  0
LINE
  8
1
  6
CONTINUOUS
 62
     1
 10
 4.89305801557202E+0000
 20
 4.67870622588816E+0000
 11
 4.88883118199010E+0000
 21
 4.67447939230624E+0000
  0
LINE
  8
1
  6
CONTINUOUS
 62
     1
 10
 4.87541453772428E+0000
 20
 4.68171695222554E+0000
 11
 4.86273403695668E+0000
 21
 4.66903645145794E+0000
  0
LINE
  8
1
  6
CONTINUOUS
 62
     1
 10
 4.85777105986926E+0000
 20
 4.68472767855565E+0000
 11
 4.83663689192326E+0000
 21
 4.66359351060964E+0000
  0
LINE
  8
1
  6
CONTINUOUS
 62
     1
 10
 4.84012758202152E+0000
 20
 4.68773840489303E+0000
 11
 4.81053974688984E+0000
 21
 4.65815056976135E+0000
  0
LINE
  8
1
  6
CONTINUOUS
 62
     1
 10
 4.82248410416651E+0000
 20
 4.69074913122313E+0000
 11
 4.78444260186370E+0000
 21
 4.65270762892033E+0000
  0
LINE
  8
1
  6
CONTINUOUS
 62
     1
 10
 4.80484062631149E+0000
 20
 4.69375985755323E+0000
 11
 4.75834545683028E+0000
 21
 4.64726468807203E+0000
  0
LINE
  8
1
  6
CONTINUOUS
 62
     1
 10
 4.78719714845647E+0000
 20
 4.69677058389061E+0000
 11
 4.74259042787162E+0000
 21
 4.65216386329848E+0000
  0
LINE
  8
1
  6
CONTINUOUS
 62
     1
 10
 4.76955367060873E+0000
 20
 4.69978131022071E+0000
 11
 4.74259042787162E+0000
 21
 4.67281806748360E+0000
  0
LINE
  8
1
  6
CONTINUOUS
 62
     1
 10
 4.75191019275371E+0000
 20
 4.70279203655082E+0000
 11
 4.74259042787162E+0000
 21
 4.69347227166872E+0000
  0
LINE
  8
1
  6
CONTINUOUS
 62
     1
 10
 3.64832658347950E+0000
 20
 4.67617796554259E+0000
 11
 3.64832658347950E+0000
 21
 4.67617796554259E+0000
  0
LINE
  8
1
  6
CONTINUOUS
 62
     1
 10
 3.64832658347950E+0000
 20
 4.67617796554259E+0000
 11
 3.80761591012924E+0000
 21
 4.64899644417892E+0000
  0
LINE
  8
1
  6
CONTINUOUS
 62
     1
 10
 3.80761591012924E+0000
 20
 4.64899644417892E+0000
 11
 3.80761591012924E+0000
 21
 4.70940008165053E+0000
  0
LINE
  8
1
  6
CONTINUOUS
 62
     1
 10
 3.80761591012924E+0000
 20
 4.70940008165053E+0000
 11
 3.64832658347950E+0000
 21
 4.67617796554259E+0000
  0
LINE
  8
1
  6
CONTINUOUS
 62
     1
 10
 3.80761591012924E+0000
 20
 4.64899644417892E+0000
 11
 3.80761591012924E+0000
 21
 4.70940008165053E+0000
  0
LINE
  8
1
  6
CONTINUOUS
 62
     1
 10
 3.66077851344016E+0000
 20
 4.67405313767813E+0000
 11
 3.65687151522434E+0000
 21
 4.67796013589395E+0000
  0
LINE
  8
1
  6
CONTINUOUS
 62
     1
 10
 3.68568237336149E+0000
 20
 4.66980348194193E+0000
 11
 3.67396137871765E+0000
 21
 4.68152447658940E+0000
  0
LINE
  8
1
  6
CONTINUOUS
 62
     1
 10
 3.71058623327917E+0000
 20
 4.66555382620572E+0000
 11
 3.69105124220732E+0000
 21
 4.68508881727757E+0000
  0
LINE
  8
1
  6
CONTINUOUS
 62
     1
 10
 3.73549009320050E+0000
 20
 4.66130417047680E+0000
 11
 3.70814110570063E+0000
 21
 4.68865315797302E+0000
  0
LINE
  8
1
  6
CONTINUOUS
 62
     1
 10
 3.76039395311818E+0000
 20
 4.65705451474059E+0000
 11
 3.72523096919031E+0000
 21
 4.69221749866847E+0000
  0
LINE
  8
1
  6
CONTINUOUS
 62
     1
 10
 3.78529781303951E+0000
 20
 4.65280485900439E+0000
 11
 3.74232083267998E+0000
 21
 4.69578183936392E+0000
  0
LINE
  8
1
  6
CONTINUOUS
 62
     1
 10
 3.80761591013288E+0000
 20
 4.65114096609614E+0000
 11
 3.75941069617329E+0000
 21
 4.69934618005937E+0000
  0
LINE
  8
1
  6
CONTINUOUS
 62
     1
 10
 3.80761591013288E+0000
 20
 4.67179517028126E+0000
 11
 3.77650055966296E+0000
 21
 4.70291052075481E+0000
  0
LINE
  8
1
  6
CONTINUOUS
 62
     1
 10
 3.80761591013288E+0000
 20
 4.69244937446638E+0000
 11
 3.79359042315264E+0000
 21
 4.70647486145026E+0000
  0
LINE
  8
1
  6
CONTINUOUS
 62
     1
 10
 3.80761591012561E+0000
 20
 4.65932354626420E+0000
 11
 3.79879417119810E+0000
 21
 4.65050180734397E+0000
  0
LINE
  8
1
  6
CONTINUOUS
 62
     1
 10
 3.80761591012561E+0000
 20
 4.67997775044932E+0000
 11
 3.78115069334672E+0000
 21
 4.65351253367407E+0000
  0
LINE
  8
1
  6
CONTINUOUS
 62
     1
 10
 3.80761591012561E+0000
 20
 4.70063195463445E+0000
 11
 3.76350721549170E+0000
 21
 4.65652326000418E+0000
  0
LINE
  8
1
  6
CONTINUOUS
 62
     1
 10
 3.79259753046790E+0000
 20
 4.70626777916186E+0000
 11
 3.74586373764032E+0000
 21
 4.65953398633428E+0000
  0
LINE
  8
1
  6
CONTINUOUS
 62
     1
 10
 3.76650038543812E+0000
 20
 4.70082483832084E+0000
 11
 3.72822025978530E+0000
 21
 4.66254471266438E+0000
  0
LINE
  8
1
  6
CONTINUOUS
 62
     1
 10
 3.74040324040470E+0000
 20
 4.69538189747254E+0000
 11
 3.71057678193029E+0000
 21
 4.66555543900176E+0000
  0
LINE
  8
1
  6
CONTINUOUS
 62
     1
 10
 3.71430609537492E+0000
 20
 4.68993895663152E+0000
 11
 3.69293330407891E+0000
 21
 4.66856616533187E+0000
  0
LINE
  8
1
  6
CONTINUOUS
 62
     1
 10
 3.68820895034150E+0000
 20
 4.68449601578322E+0000
 11
 3.67528982622389E+0000
 21
 4.67157689166197E+0000
  0
LINE
  8
1
  6
CONTINUOUS
 62
     1
 10
 3.66211180531536E+0000
 20
 4.67905307493493E+0000
 11
 3.65764634837251E+0000
 21
 4.67458761799207E+0000
  0
LINE
  8
1
  6
CONTINUOUS
 62
     1
 10
 3.64832658347950E+0000
 20
 4.67617796554259E+0000
 11
 3.64832658347950E+0000
 21
 4.67617796554259E+0000
  0
LINE
  8
1
  6
CONTINUOUS
 62
     1
 10
 3.64832658347950E+0000
 20
 4.67617796554259E+0000
 11
 3.80761591012924E+0000
 21
 4.64899644417892E+0000
  0
LINE
  8
1
  6
CONTINUOUS
 62
     1
 10
 3.80761591012924E+0000
 20
 4.64899644417892E+0000
 11
 3.80761591012924E+0000
 21
 4.70940008165053E+0000
  0
LINE
  8
1
  6
CONTINUOUS
 62
     1
 10
 3.80761591012924E+0000
 20
 4.70940008165053E+0000
 11
 3.64832658347950E+0000
 21
 4.67617796554259E+0000
  0
LINE
  8
1
  6
CONTINUOUS
 62
     1
 10
 3.80761591012924E+0000
 20
 4.64899644417892E+0000
 11
 3.80761591012924E+0000
 21
 4.70940008165053E+0000
  0
LINE
  8
1
  6
CONTINUOUS
 62
     1
 10
 3.66077851344016E+0000
 20
 4.67405313767813E+0000
 11
 3.65687151522434E+0000
 21
 4.67796013589395E+0000
  0
LINE
  8
1
  6
CONTINUOUS
 62
     1
 10
 3.68568237336149E+0000
 20
 4.66980348194193E+0000
 11
 3.67396137871765E+0000
 21
 4.68152447658940E+0000
  0
LINE
  8
1
  6
CONTINUOUS
 62
     1
 10
 3.71058623327917E+0000
 20
 4.66555382620572E+0000
 11
 3.69105124220732E+0000
 21
 4.68508881727757E+0000
  0
LINE
  8
1
  6
CONTINUOUS
 62
     1
 10
 3.73549009320050E+0000
 20
 4.66130417047680E+0000
 11
 3.70814110570063E+0000
 21
 4.68865315797302E+0000
  0
LINE
  8
1
  6
CONTINUOUS
 62
     1
 10
 3.76039395311818E+0000
 20
 4.65705451474059E+0000
 11
 3.72523096919031E+0000
 21
 4.69221749866847E+0000
  0
LINE
  8
1
  6
CONTINUOUS
 62
     1
 10
 3.78529781303951E+0000
 20
 4.65280485900439E+0000
 11
 3.74232083267998E+0000
 21
 4.69578183936392E+0000
  0
LINE
  8
1
  6
CONTINUOUS
 62
     1
 10
 3.80761591013288E+0000
 20
 4.65114096609614E+0000
 11
 3.75941069617329E+0000
 21
 4.69934618005937E+0000
  0
LINE
  8
1
  6
CONTINUOUS
 62
     1
 10
 3.80761591013288E+0000
 20
 4.67179517028126E+0000
 11
 3.77650055966296E+0000
 21
 4.70291052075481E+0000
  0
LINE
  8
1
  6
CONTINUOUS
 62
     1
 10
 3.80761591013288E+0000
 20
 4.69244937446638E+0000
 11
 3.79359042315264E+0000
 21
 4.70647486145026E+0000
  0
LINE
  8
1
  6
CONTINUOUS
 62
     1
 10
 3.80761591012561E+0000
 20
 4.65932354626420E+0000
 11
 3.79879417119810E+0000
 21
 4.65050180734397E+0000
  0
LINE
  8
1
  6
CONTINUOUS
 62
     1
 10
 3.80761591012561E+0000
 20
 4.67997775044932E+0000
 11
 3.78115069334672E+0000
 21
 4.65351253367407E+0000
  0
LINE
  8
1
  6
CONTINUOUS
 62
     1
 10
 3.80761591012561E+0000
 20
 4.70063195463445E+0000
 11
 3.76350721549170E+0000
 21
 4.65652326000418E+0000
  0
LINE
  8
1
  6
CONTINUOUS
 62
     1
 10
 3.79259753046790E+0000
 20
 4.70626777916186E+0000
 11
 3.74586373764032E+0000
 21
 4.65953398633428E+0000
  0
LINE
  8
1
  6
CONTINUOUS
 62
     1
 10
 3.76650038543812E+0000
 20
 4.70082483832084E+0000
 11
 3.72822025978530E+0000
 21
 4.66254471266438E+0000
  0
LINE
  8
1
  6
CONTINUOUS
 62
     1
 10
 3.74040324040470E+0000
 20
 4.69538189747254E+0000
 11
 3.71057678193029E+0000
 21
 4.66555543900176E+0000
  0
LINE
  8
1
  6
CONTINUOUS
 62
     1
 10
 3.71430609537492E+0000
 20
 4.68993895663152E+0000
 11
 3.69293330407891E+0000
 21
 4.66856616533187E+0000
  0
LINE
  8
1
  6
CONTINUOUS
 62
     1
 10
 3.68820895034150E+0000
 20
 4.68449601578322E+0000
 11
 3.67528982622389E+0000
 21
 4.67157689166197E+0000
  0
LINE
  8
1
  6
CONTINUOUS
 62
     1
 10
 3.66211180531536E+0000
 20
 4.67905307493493E+0000
 11
 3.65764634837251E+0000
 21
 4.67458761799207E+0000
  0
LINE
  8
1
  6
CONTINUOUS
 62
     1
 10
 3.64832658347950E+0000
 20
 4.81416150619771E+0000
 11
 3.64832658347950E+0000
 21
 4.81416150619771E+0000
  0
LINE
  8
1
  6
CONTINUOUS
 62
     1
 10
 3.64832658347950E+0000
 20
 4.81416150619771E+0000
 11
 3.80761591012924E+0000
 21
 4.78697998483403E+0000
  0
LINE
  8
1
  6
CONTINUOUS
 62
     1
 10
 3.80761591012924E+0000
 20
 4.78697998483403E+0000
 11
 3.80761591012924E+0000
 21
 4.84738362230564E+0000
  0
LINE
  8
1
  6
CONTINUOUS
 62
     1
 10
 3.80761591012924E+0000
 20
 4.84738362230564E+0000
 11
 3.64832658347950E+0000
 21
 4.81416150619771E+0000
  0
LINE
  8
1
  6
CONTINUOUS
 62
     1
 10
 3.80761591012924E+0000
 20
 4.78697998483403E+0000
 11
 3.80761591012924E+0000
 21
 4.84738362230564E+0000
  0
LINE
  8
1
  6
CONTINUOUS
 62
     1
 10
 3.66077851344380E+0000
 20
 4.81203667833324E+0000
 11
 3.65687151522798E+0000
 21
 4.81594367654907E+0000
  0
LINE
  8
1
  6
CONTINUOUS
 62
     1
 10
 3.68568237336513E+0000
 20
 4.80778702259704E+0000
 11
 3.67396137871765E+0000
 21
 4.81950801724452E+0000
  0
LINE
  8
1
  6
CONTINUOUS
 62
     1
 10
 3.71058623328281E+0000
 20
 4.80353736686084E+0000
 11
 3.69105124221096E+0000
 21
 4.82307235793996E+0000
  0
LINE
  8
1
  6
CONTINUOUS
 62
     1
 10
 3.73549009320413E+0000
 20
 4.79928771112463E+0000
 11
 3.70814110570063E+0000
 21
 4.82663669862814E+0000
  0
LINE
  8
1
  6
CONTINUOUS
 62
     1
 10
 3.76039395312546E+0000
 20
 4.79503805539571E+0000
 11
 3.72523096919394E+0000
 21
 4.83020103932358E+0000
  0
LINE
  8
1
  6
CONTINUOUS
 62
     1
 10
 3.78529781304678E+0000
 20
 4.79078839965950E+0000
 11
 3.74232083268362E+0000
 21
 4.83376538001903E+0000
  0
LINE
  8
1
  6
CONTINUOUS
 62
     1
 10
 3.80761591012924E+0000
 20
 4.78912450675853E+0000
 11
 3.75941069617329E+0000
 21
 4.83732972071448E+0000
  0
LINE
  8
1
  6
CONTINUOUS
 62
     1
 10
 3.80761591012924E+0000
 20
 4.80977871094365E+0000
 11
 3.77650055966296E+0000
 21
 4.84089406140993E+0000
  0
LINE
  8
1
  6
CONTINUOUS
 62
     1
 10
 3.80761591013288E+0000
 20
 4.83043291512877E+0000
 11
 3.79359042315627E+0000
 21
 4.84445840210537E+0000
  0
LINE
  8
1
  6
CONTINUOUS
 62
     1
 10
 3.80761591012924E+0000
 20
 4.79730708692659E+0000
 11
 3.79879417120173E+0000
 21
 4.78848534799909E+0000
  0
LINE
  8
1
  6
CONTINUOUS
 62
     1
 10
 3.80761591012924E+0000
 20
 4.81796129111171E+0000
 11
 3.78115069334672E+0000
 21
 4.79149607432919E+0000
  0
LINE
  8
1
  6
CONTINUOUS
 62
     1
 10
 3.80761591012924E+0000
 20
 4.83861549529684E+0000
 11
 3.76350721549534E+0000
 21
 4.79450680065929E+0000
  0
LINE
  8
1
  6
CONTINUOUS
 62
     1
 10
 3.79259753046790E+0000
 20
 4.84425131982425E+0000
 11
 3.74586373764032E+0000
 21
 4.79751752698940E+0000
  0
LINE
  8
1
  6
CONTINUOUS
 62
     1
 10
 3.76650038544176E+0000
 20
 4.83880837897595E+0000
 11
 3.72822025978530E+0000
 21
 4.80052825332677E+0000
  0
LINE
  8
1
  6
CONTINUOUS
 62
     1
 10
 3.74040324040834E+0000
 20
 4.83336543812766E+0000
 11
 3.71057678193392E+0000
 21
 4.80353897965688E+0000
  0
LINE
  8
1
  6
CONTINUOUS
 62
     1
 10
 3.71430609537856E+0000
 20
 4.82792249728664E+0000
 11
 3.69293330407891E+0000
 21
 4.80654970598698E+0000
  0
LINE
  8
1
  6
CONTINUOUS
 62
     1
 10
 3.68820895034514E+0000
 20
 4.82247955643834E+0000
 11
 3.67528982622753E+0000
 21
 4.80956043231708E+0000
  0
LINE
  8
1
  6
CONTINUOUS
 62
     1
 10
 3.66211180531536E+0000
 20
 4.81703661559732E+0000
 11
 3.65764634837251E+0000
 21
 4.81257115865446E+0000
  0
LINE
  8
1
  6
CONTINUOUS
 62
     1
 10
 3.64832658347950E+0000
 20
 4.81416150619771E+0000
 11
 3.64832658347950E+0000
 21
 4.81416150619771E+0000
  0
LINE
  8
1
  6
CONTINUOUS
 62
     1
 10
 3.64832658347950E+0000
 20
 4.81416150619771E+0000
 11
 3.80761591012924E+0000
 21
 4.78697998483403E+0000
  0
LINE
  8
1
  6
CONTINUOUS
 62
     1
 10
 3.80761591012924E+0000
 20
 4.78697998483403E+0000
 11
 3.80761591012924E+0000
 21
 4.84738362230564E+0000
  0
LINE
  8
1
  6
CONTINUOUS
 62
     1
 10
 3.80761591012924E+0000
 20
 4.84738362230564E+0000
 11
 3.64832658347950E+0000
 21
 4.81416150619771E+0000
  0
LINE
  8
1
  6
CONTINUOUS
 62
     1
 10
 3.80761591012924E+0000
 20
 4.78697998483403E+0000
 11
 3.80761591012924E+0000
 21
 4.84738362230564E+0000
  0
LINE
  8
1
  6
CONTINUOUS
 62
     1
 10
 3.66077851344380E+0000
 20
 4.81203667833324E+0000
 11
 3.65687151522798E+0000
 21
 4.81594367654907E+0000
  0
LINE
  8
1
  6
CONTINUOUS
 62
     1
 10
 3.68568237336513E+0000
 20
 4.80778702259704E+0000
 11
 3.67396137871765E+0000
 21
 4.81950801724452E+0000
  0
LINE
  8
1
  6
CONTINUOUS
 62
     1
 10
 3.71058623328281E+0000
 20
 4.80353736686084E+0000
 11
 3.69105124221096E+0000
 21
 4.82307235793996E+0000
  0
LINE
  8
1
  6
CONTINUOUS
 62
     1
 10
 3.73549009320413E+0000
 20
 4.79928771112463E+0000
 11
 3.70814110570063E+0000
 21
 4.82663669862814E+0000
  0
LINE
  8
1
  6
CONTINUOUS
 62
     1
 10
 3.76039395312546E+0000
 20
 4.79503805539571E+0000
 11
 3.72523096919394E+0000
 21
 4.83020103932358E+0000
  0
LINE
  8
1
  6
CONTINUOUS
 62
     1
 10
 3.78529781304678E+0000
 20
 4.79078839965950E+0000
 11
 3.74232083268362E+0000
 21
 4.83376538001903E+0000
  0
LINE
  8
1
  6
CONTINUOUS
 62
     1
 10
 3.80761591012924E+0000
 20
 4.78912450675853E+0000
 11
 3.75941069617329E+0000
 21
 4.83732972071448E+0000
  0
LINE
  8
1
  6
CONTINUOUS
 62
     1
 10
 3.80761591012924E+0000
 20
 4.80977871094365E+0000
 11
 3.77650055966296E+0000
 21
 4.84089406140993E+0000
  0
LINE
  8
1
  6
CONTINUOUS
 62
     1
 10
 3.80761591013288E+0000
 20
 4.83043291512877E+0000
 11
 3.79359042315627E+0000
 21
 4.84445840210537E+0000
  0
LINE
  8
1
  6
CONTINUOUS
 62
     1
 10
 3.80761591012924E+0000
 20
 4.79730708692659E+0000
 11
 3.79879417120173E+0000
 21
 4.78848534799909E+0000
  0
LINE
  8
1
  6
CONTINUOUS
 62
     1
 10
 3.80761591012924E+0000
 20
 4.81796129111171E+0000
 11
 3.78115069334672E+0000
 21
 4.79149607432919E+0000
  0
LINE
  8
1
  6
CONTINUOUS
 62
     1
 10
 3.80761591012924E+0000
 20
 4.83861549529684E+0000
 11
 3.76350721549534E+0000
 21
 4.79450680065929E+0000
  0
LINE
  8
1
  6
CONTINUOUS
 62
     1
 10
 3.79259753046790E+0000
 20
 4.84425131982425E+0000
 11
 3.74586373764032E+0000
 21
 4.79751752698940E+0000
  0
LINE
  8
1
  6
CONTINUOUS
 62
     1
 10
 3.76650038544176E+0000
 20
 4.83880837897595E+0000
 11
 3.72822025978530E+0000
 21
 4.80052825332677E+0000
  0
LINE
  8
1
  6
CONTINUOUS
 62
     1
 10
 3.74040324040834E+0000
 20
 4.83336543812766E+0000
 11
 3.71057678193392E+0000
 21
 4.80353897965688E+0000
  0
LINE
  8
1
  6
CONTINUOUS
 62
     1
 10
 3.71430609537856E+0000
 20
 4.82792249728664E+0000
 11
 3.69293330407891E+0000
 21
 4.80654970598698E+0000
  0
LINE
  8
1
  6
CONTINUOUS
 62
     1
 10
 3.68820895034514E+0000
 20
 4.82247955643834E+0000
 11
 3.67528982622753E+0000
 21
 4.80956043231708E+0000
  0
LINE
  8
1
  6
CONTINUOUS
 62
     1
 10
 3.66211180531536E+0000
 20
 4.81703661559732E+0000
 11
 3.65764634837251E+0000
 21
 4.81257115865446E+0000
  0
LINE
  8
1
  6
CONTINUOUS
 62
     1
 10
 3.40228808596294E+0000
 20
 4.81518440338550E+0000
 11
 3.40228808596294E+0000
 21
 4.81518440338550E+0000
  0
LINE
  8
1
  6
CONTINUOUS
 62
     1
 10
 3.40228808596294E+0000
 20
 4.81518440338550E+0000
 11
 3.24299875932775E+0000
 21
 4.84236592474917E+0000
  0
LINE
  8
1
  6
CONTINUOUS
 62
     1
 10
 3.24299875932775E+0000
 20
 4.84236592474917E+0000
 11
 3.24299875932775E+0000
 21
 4.78196228727757E+0000
  0
LINE
  8
1
  6
CONTINUOUS
 62
     1
 10
 3.24299875932775E+0000
 20
 4.78196228727757E+0000
 11
 3.40228808596294E+0000
 21
 4.81518440338550E+0000
  0
LINE
  8
1
  6
CONTINUOUS
 62
     1
 10
 3.24299875932775E+0000
 20
 4.84236592474917E+0000
 11
 3.24299875932775E+0000
 21
 4.78196228727757E+0000
  0
LINE
  8
1
  6
CONTINUOUS
 62
     1
 10
 3.25154369107622E+0000
 20
 4.78374445762893E+0000
 11
 3.24299875933139E+0000
 21
 4.79228938937013E+0000
  0
LINE
  8
1
  6
CONTINUOUS
 62
     1
 10
 3.26863355456589E+0000
 20
 4.78730879832437E+0000
 11
 3.24299875932775E+0000
 21
 4.81294359356252E+0000
  0
LINE
  8
1
  6
CONTINUOUS
 62
     1
 10
 3.28572341805921E+0000
 20
 4.79087313901982E+0000
 11
 3.24299875932775E+0000
 21
 4.83359779774764E+0000
  0
LINE
  8
1
  6
CONTINUOUS
 62
     1
 10
 3.30281328154888E+0000
 20
 4.79443747970799E+0000
 11
 3.25733042751745E+0000
 21
 4.83992033373943E+0000
  0
LINE
  8
1
  6
CONTINUOUS
 62
     1
 10
 3.31990314503855E+0000
 20
 4.79800182040344E+0000
 11
 3.28223428743877E+0000
 21
 4.83567067800323E+0000
  0
LINE
  8
1
  6
CONTINUOUS
 62
     1
 10
 3.33699300853186E+0000
 20
 4.80156616109889E+0000
 11
 3.30713814736009E+0000
 21
 4.83142102226702E+0000
  0
LINE
  8
1
  6
CONTINUOUS
 62
     1
 10
 3.35408287202154E+0000
 20
 4.80513050179434E+0000
 11
 3.33204200728142E+0000
 21
 4.82717136653810E+0000
  0
LINE
  8
1
  6
CONTINUOUS
 62
     1
 10
 3.37117273551121E+0000
 20
 4.80869484248979E+0000
 11
 3.35694586720274E+0000
 21
 4.82292171080189E+0000
  0
LINE
  8
1
  6
CONTINUOUS
 62
     1
 10
 3.38826259900452E+0000
 20
 4.81225918318523E+0000
 11
 3.38184972712406E+0000
 21
 4.81867205506569E+0000
  0
LINE
  8
1
  6
CONTINUOUS
 62
     1
 10
 3.39346634703543E+0000
 20
 4.81668976655055E+0000
 11
 3.38923951344259E+0000
 21
 4.81246293295408E+0000
  0
LINE
  8
1
  6
CONTINUOUS
 62
     1
 10
 3.37582286918041E+0000
 20
 4.81970049288066E+0000
 11
 3.36314236841281E+0000
 21
 4.80701999211306E+0000
  0
LINE
  8
1
  6
CONTINUOUS
 62
     1
 10
 3.35817939132539E+0000
 20
 4.82271121921076E+0000
 11
 3.33704522337939E+0000
 21
 4.80157705126476E+0000
  0
LINE
  8
1
  6
CONTINUOUS
 62
     1
 10
 3.34053591347401E+0000
 20
 4.82572194554814E+0000
 11
 3.31094807834961E+0000
 21
 4.79613411042374E+0000
  0
LINE
  8
1
  6
CONTINUOUS
 62
     1
 10
 3.32289243561900E+0000
 20
 4.82873267187824E+0000
 11
 3.28485093331619E+0000
 21
 4.79069116957544E+0000
  0
LINE
  8
1
  6
CONTINUOUS
 62
     1
 10
 3.30524895776762E+0000
 20
 4.83174339820835E+0000
 11
 3.25875378828277E+0000
 21
 4.78524822872714E+0000
  0
LINE
  8
1
  6
CONTINUOUS
 62
     1
 10
 3.28760547991260E+0000
 20
 4.83475412453845E+0000
 11
 3.24299875932411E+0000
 21
 4.79014740395360E+0000
  0
LINE
  8
1
  6
CONTINUOUS
 62
     1
 10
 3.26996200205758E+0000
 20
 4.83776485087583E+0000
 11
 3.24299875932411E+0000
 21
 4.81080160813872E+0000
  0
LINE
  8
1
  6
CONTINUOUS
 62
     1
 10
 3.25231852420620E+0000
 20
 4.84077557720593E+0000
 11
 3.24299875932411E+0000
 21
 4.83145581232384E+0000
  0
LINE
  8
1
  6
CONTINUOUS
 62
     1
 10
 3.40228808596294E+0000
 20
 4.81518440338550E+0000
 11
 3.40228808596294E+0000
 21
 4.81518440338550E+0000
  0
LINE
  8
1
  6
CONTINUOUS
 62
     1
 10
 3.40228808596294E+0000
 20
 4.81518440338550E+0000
 11
 3.24299875932775E+0000
 21
 4.84236592474917E+0000
  0
LINE
  8
1
  6
CONTINUOUS
 62
     1
 10
 3.24299875932775E+0000
 20
 4.84236592474917E+0000
 11
 3.24299875932775E+0000
 21
 4.78196228727757E+0000
  0
LINE
  8
1
  6
CONTINUOUS
 62
     1
 10
 3.24299875932775E+0000
 20
 4.78196228727757E+0000
 11
 3.40228808596294E+0000
 21
 4.81518440338550E+0000
  0
LINE
  8
1
  6
CONTINUOUS
 62
     1
 10
 3.24299875932775E+0000
 20
 4.84236592474917E+0000
 11
 3.24299875932775E+0000
 21
 4.78196228727757E+0000
  0
LINE
  8
1
  6
CONTINUOUS
 62
     1
 10
 3.25154369107622E+0000
 20
 4.78374445762893E+0000
 11
 3.24299875933139E+0000
 21
 4.79228938937013E+0000
  0
LINE
  8
1
  6
CONTINUOUS
 62
     1
 10
 3.26863355456589E+0000
 20
 4.78730879832437E+0000
 11
 3.24299875932775E+0000
 21
 4.81294359356252E+0000
  0
LINE
  8
1
  6
CONTINUOUS
 62
     1
 10
 3.28572341805921E+0000
 20
 4.79087313901982E+0000
 11
 3.24299875932775E+0000
 21
 4.83359779774764E+0000
  0
LINE
  8
1
  6
CONTINUOUS
 62
     1
 10
 3.30281328154888E+0000
 20
 4.79443747970799E+0000
 11
 3.25733042751745E+0000
 21
 4.83992033373943E+0000
  0
LINE
  8
1
  6
CONTINUOUS
 62
     1
 10
 3.31990314503855E+0000
 20
 4.79800182040344E+0000
 11
 3.28223428743877E+0000
 21
 4.83567067800323E+0000
  0
LINE
  8
1
  6
CONTINUOUS
 62
     1
 10
 3.33699300853186E+0000
 20
 4.80156616109889E+0000
 11
 3.30713814736009E+0000
 21
 4.83142102226702E+0000
  0
LINE
  8
1
  6
CONTINUOUS
 62
     1
 10
 3.35408287202154E+0000
 20
 4.80513050179434E+0000
 11
 3.33204200728142E+0000
 21
 4.82717136653810E+0000
  0
LINE
  8
1
  6
CONTINUOUS
 62
     1
 10
 3.37117273551121E+0000
 20
 4.80869484248979E+0000
 11
 3.35694586720274E+0000
 21
 4.82292171080189E+0000
  0
LINE
  8
1
  6
CONTINUOUS
 62
     1
 10
 3.38826259900452E+0000
 20
 4.81225918318523E+0000
 11
 3.38184972712406E+0000
 21
 4.81867205506569E+0000
  0
LINE
  8
1
  6
CONTINUOUS
 62
     1
 10
 3.39346634703543E+0000
 20
 4.81668976655055E+0000
 11
 3.38923951344259E+0000
 21
 4.81246293295408E+0000
  0
LINE
  8
1
  6
CONTINUOUS
 62
     1
 10
 3.37582286918041E+0000
 20
 4.81970049288066E+0000
 11
 3.36314236841281E+0000
 21
 4.80701999211306E+0000
  0
LINE
  8
1
  6
CONTINUOUS
 62
     1
 10
 3.35817939132539E+0000
 20
 4.82271121921076E+0000
 11
 3.33704522337939E+0000
 21
 4.80157705126476E+0000
  0
LINE
  8
1
  6
CONTINUOUS
 62
     1
 10
 3.34053591347401E+0000
 20
 4.82572194554814E+0000
 11
 3.31094807834961E+0000
 21
 4.79613411042374E+0000
  0
LINE
  8
1
  6
CONTINUOUS
 62
     1
 10
 3.32289243561900E+0000
 20
 4.82873267187824E+0000
 11
 3.28485093331619E+0000
 21
 4.79069116957544E+0000
  0
LINE
  8
1
  6
CONTINUOUS
 62
     1
 10
 3.30524895776762E+0000
 20
 4.83174339820835E+0000
 11
 3.25875378828277E+0000
 21
 4.78524822872714E+0000
  0
LINE
  8
1
  6
CONTINUOUS
 62
     1
 10
 3.28760547991260E+0000
 20
 4.83475412453845E+0000
 11
 3.24299875932411E+0000
 21
 4.79014740395360E+0000
  0
LINE
  8
1
  6
CONTINUOUS
 62
     1
 10
 3.26996200205758E+0000
 20
 4.83776485087583E+0000
 11
 3.24299875932411E+0000
 21
 4.81080160813872E+0000
  0
LINE
  8
1
  6
CONTINUOUS
 62
     1
 10
 3.25231852420620E+0000
 20
 4.84077557720593E+0000
 11
 3.24299875932411E+0000
 21
 4.83145581232384E+0000
  0
LINE
  8
1
  6
CONTINUOUS
 62
     1
 10
 4.36643531051232E+0000
 20
 4.41241063725465E+0000
 11
 4.74314432869141E+0000
 21
 5.26209875604400E+0000
  0
LINE
  8
1
  6
CONTINUOUS
 62
     1
 10
 4.74314432869141E+0000
 20
 5.26209875604400E+0000
 11
 5.66318366156338E+0000
 21
 5.26209875604400E+0000
  0
LINE
  8
1
  6
CONTINUOUS
 62
     1
 10
 5.85786986321182E+0000
 20
 4.84321067265410E+0000
 11
 5.85786986321182E+0000
 21
 4.84321067265410E+0000
  0
LINE
  8
1
  6
CONTINUOUS
 62
     1
 10
 5.85786986321182E+0000
 20
 4.84321067265410E+0000
 11
 6.01715918986156E+0000
 21
 4.81602915129042E+0000
  0
LINE
  8
1
  6
CONTINUOUS
 62
     1
 10
 6.01715918986156E+0000
 20
 4.81602915129042E+0000
 11
 6.01715918986156E+0000
 21
 4.87643278876203E+0000
  0
LINE
  8
1
  6
CONTINUOUS
 62
     1
 10
 6.01715918986156E+0000
 20
 4.87643278876203E+0000
 11
 5.85786986321182E+0000
 21
 4.84321067265410E+0000
  0
LINE
  8
1
  6
CONTINUOUS
 62
     1
 10
 6.01715918986156E+0000
 20
 4.81602915129042E+0000
 11
 6.01715918986156E+0000
 21
 4.87643278876203E+0000
  0
LINE
  8
1
  6
CONTINUOUS
 62
     1
 10
 5.87032179317612E+0000
 20
 4.84108584478963E+0000
 11
 5.86641479496029E+0000
 21
 4.84499284300546E+0000
  0
LINE
  8
1
  6
CONTINUOUS
 62
     1
 10
 5.89522565309744E+0000
 20
 4.83683618905343E+0000
 11
 5.88350465844997E+0000
 21
 4.84855718370090E+0000
  0
LINE
  8
1
  6
CONTINUOUS
 62
     1
 10
 5.92012951301876E+0000
 20
 4.83258653331723E+0000
 11
 5.90059452193964E+0000
 21
 4.85212152438908E+0000
  0
LINE
  8
1
  6
CONTINUOUS
 62
     1
 10
 5.94503337293281E+0000
 20
 4.82833687758102E+0000
 11
 5.91768438543659E+0000
 21
 4.85568586508452E+0000
  0
LINE
  8
1
  6
CONTINUOUS
 62
     1
 10
 5.96993723285414E+0000
 20
 4.82408722185210E+0000
 11
 5.93477424892626E+0000
 21
 4.85925020577997E+0000
  0
LINE
  8
1
  6
CONTINUOUS
 62
     1
 10
 5.99484109277546E+0000
 20
 4.81983756611589E+0000
 11
 5.95186411241593E+0000
 21
 4.86281454647542E+0000
  0
LINE
  8
1
  6
CONTINUOUS
 62
     1
 10
 6.01715918986156E+0000
 20
 4.81817367321491E+0000
 11
 5.96895397590561E+0000
 21
 4.86637888717087E+0000
  0
LINE
  8
1
  6
CONTINUOUS
 62
     1
 10
 6.01715918986156E+0000
 20
 4.83882787740004E+0000
 11
 5.98604383939528E+0000
 21
 4.86994322786632E+0000
  0
LINE
  8
1
  6
CONTINUOUS
 62
     1
 10
 6.01715918986156E+0000
 20
 4.85948208158516E+0000
 11
 6.00313370288495E+0000
 21
 4.87350756856176E+0000
  0
LINE
  8
1
  6
CONTINUOUS
 62
     1
 10
 6.01715918985428E+0000
 20
 4.82635625338298E+0000
 11
 6.00833745092677E+0000
 21
 4.81753451445547E+0000
  0
LINE
  8
1
  6
CONTINUOUS
 62
     1
 10
 6.01715918985428E+0000
 20
 4.84701045756810E+0000
 11
 5.99069397307903E+0000
 21
 4.82054524078558E+0000
  0
LINE
  8
1
  6
CONTINUOUS
 62
     1
 10
 6.01715918985428E+0000
 20
 4.86766466175322E+0000
 11
 5.97305049522402E+0000
 21
 4.82355596711568E+0000
  0
LINE
  8
1
  6
CONTINUOUS
 62
     1
 10
 6.00214081019658E+0000
 20
 4.87330048628064E+0000
 11
 5.95540701736900E+0000
 21
 4.82656669344578E+0000
  0
LINE
  8
1
  6
CONTINUOUS
 62
     1
 10
 5.97604366516316E+0000
 20
 4.86785754543234E+0000
 11
 5.93776353951398E+0000
 21
 4.82957741978316E+0000
  0
LINE
  8
1
  6
CONTINUOUS
 62
     1
 10
 5.94994652013702E+0000
 20
 4.86241460458405E+0000
 11
 5.92012006165896E+0000
 21
 4.83258814611327E+0000
  0
LINE
  8
1
  6
CONTINUOUS
 62
     1
 10
 5.92384937510360E+0000
 20
 4.85697166374302E+0000
 11
 5.90247658381122E+0000
 21
 4.83559887244337E+0000
  0
LINE
  8
1
  6
CONTINUOUS
 62
     1
 10
 5.89775223007018E+0000
 20
 4.85152872289473E+0000
 11
 5.88483310595620E+0000
 21
 4.83860959877347E+0000
  0
LINE
  8
1
  6
CONTINUOUS
 62
     1
 10
 5.87165508504404E+0000
 20
 4.84608578205371E+0000
 11
 5.86718962810119E+0000
 21
 4.84162032511085E+0000
  0
LINE
  8
1
  6
CONTINUOUS
 62
     1
 10
 5.85786986321182E+0000
 20
 4.84321067265410E+0000
 11
 5.85786986321182E+0000
 21
 4.84321067265410E+0000
  0
LINE
  8
1
  6
CONTINUOUS
 62
     1
 10
 5.85786986321182E+0000
 20
 4.84321067265410E+0000
 11
 6.01715918986156E+0000
 21
 4.81602915129042E+0000
  0
LINE
  8
1
  6
CONTINUOUS
 62
     1
 10
 6.01715918986156E+0000
 20
 4.81602915129042E+0000
 11
 6.01715918986156E+0000
 21
 4.87643278876203E+0000
  0
LINE
  8
1
  6
CONTINUOUS
 62
     1
 10
 6.01715918986156E+0000
 20
 4.87643278876203E+0000
 11
 5.85786986321182E+0000
 21
 4.84321067265410E+0000
  0
LINE
  8
1
  6
CONTINUOUS
 62
     1
 10
 6.01715918986156E+0000
 20
 4.81602915129042E+0000
 11
 6.01715918986156E+0000
 21
 4.87643278876203E+0000
  0
LINE
  8
1
  6
CONTINUOUS
 62
     1
 10
 5.87032179317612E+0000
 20
 4.84108584478963E+0000
 11
 5.86641479496029E+0000
 21
 4.84499284300546E+0000
  0
LINE
  8
1
  6
CONTINUOUS
 62
     1
 10
 5.89522565309744E+0000
 20
 4.83683618905343E+0000
 11
 5.88350465844997E+0000
 21
 4.84855718370090E+0000
  0
LINE
  8
1
  6
CONTINUOUS
 62
     1
 10
 5.92012951301876E+0000
 20
 4.83258653331723E+0000
 11
 5.90059452193964E+0000
 21
 4.85212152438908E+0000
  0
LINE
  8
1
  6
CONTINUOUS
 62
     1
 10
 5.94503337293281E+0000
 20
 4.82833687758102E+0000
 11
 5.91768438543659E+0000
 21
 4.85568586508452E+0000
  0
LINE
  8
1
  6
CONTINUOUS
 62
     1
 10
 5.96993723285414E+0000
 20
 4.82408722185210E+0000
 11
 5.93477424892626E+0000
 21
 4.85925020577997E+0000
  0
LINE
  8
1
  6
CONTINUOUS
 62
     1
 10
 5.99484109277546E+0000
 20
 4.81983756611589E+0000
 11
 5.95186411241593E+0000
 21
 4.86281454647542E+0000
  0
LINE
  8
1
  6
CONTINUOUS
 62
     1
 10
 6.01715918986156E+0000
 20
 4.81817367321491E+0000
 11
 5.96895397590561E+0000
 21
 4.86637888717087E+0000
  0
LINE
  8
1
  6
CONTINUOUS
 62
     1
 10
 6.01715918986156E+0000
 20
 4.83882787740004E+0000
 11
 5.98604383939528E+0000
 21
 4.86994322786632E+0000
  0
LINE
  8
1
  6
CONTINUOUS
 62
     1
 10
 6.01715918986156E+0000
 20
 4.85948208158516E+0000
 11
 6.00313370288495E+0000
 21
 4.87350756856176E+0000
  0
LINE
  8
1
  6
CONTINUOUS
 62
     1
 10
 6.01715918985428E+0000
 20
 4.82635625338298E+0000
 11
 6.00833745092677E+0000
 21
 4.81753451445547E+0000
  0
LINE
  8
1
  6
CONTINUOUS
 62
     1
 10
 6.01715918985428E+0000
 20
 4.84701045756810E+0000
 11
 5.99069397307903E+0000
 21
 4.82054524078558E+0000
  0
LINE
  8
1
  6
CONTINUOUS
 62
     1
 10
 6.01715918985428E+0000
 20
 4.86766466175322E+0000
 11
 5.97305049522402E+0000
 21
 4.82355596711568E+0000
  0
LINE
  8
1
  6
CONTINUOUS
 62
     1
 10
 6.00214081019658E+0000
 20
 4.87330048628064E+0000
 11
 5.95540701736900E+0000
 21
 4.82656669344578E+0000
  0
LINE
  8
1
  6
CONTINUOUS
 62
     1
 10
 5.97604366516316E+0000
 20
 4.86785754543234E+0000
 11
 5.93776353951398E+0000
 21
 4.82957741978316E+0000
  0
LINE
  8
1
  6
CONTINUOUS
 62
     1
 10
 5.94994652013702E+0000
 20
 4.86241460458405E+0000
 11
 5.92012006165896E+0000
 21
 4.83258814611327E+0000
  0
LINE
  8
1
  6
CONTINUOUS
 62
     1
 10
 5.92384937510360E+0000
 20
 4.85697166374302E+0000
 11
 5.90247658381122E+0000
 21
 4.83559887244337E+0000
  0
LINE
  8
1
  6
CONTINUOUS
 62
     1
 10
 5.89775223007018E+0000
 20
 4.85152872289473E+0000
 11
 5.88483310595620E+0000
 21
 4.83860959877347E+0000
  0
LINE
  8
1
  6
CONTINUOUS
 62
     1
 10
 5.87165508504404E+0000
 20
 4.84608578205371E+0000
 11
 5.86718962810119E+0000
 21
 4.84162032511085E+0000
  0
LINE
  8
1
  6
CONTINUOUS
 62
     1
 10
 5.80743027899007E+0000
 20
 4.84423356984189E+0000
 11
 5.80743027899007E+0000
 21
 4.84423356984189E+0000
  0
LINE
  8
1
  6
CONTINUOUS
 62
     1
 10
 5.80743027899007E+0000
 20
 4.84423356984189E+0000
 11
 5.64814095235488E+0000
 21
 4.87141509120556E+0000
  0
LINE
  8
1
  6
CONTINUOUS
 62
     1
 10
 5.64814095235488E+0000
 20
 4.87141509120556E+0000
 11
 5.64814095235488E+0000
 21
 4.81101145373395E+0000
  0
LINE
  8
1
  6
CONTINUOUS
 62
     1
 10
 5.64814095235488E+0000
 20
 4.81101145373395E+0000
 11
 5.80743027899007E+0000
 21
 4.84423356984189E+0000
  0
LINE
  8
1
  6
CONTINUOUS
 62
     1
 10
 5.64814095235488E+0000
 20
 4.87141509120556E+0000
 11
 5.64814095235488E+0000
 21
 4.81101145373395E+0000
  0
LINE
  8
1
  6
CONTINUOUS
 62
     1
 10
 5.65668588410335E+0000
 20
 4.81279362408532E+0000
 11
 5.64814095235488E+0000
 21
 4.82133855582651E+0000
  0
LINE
  8
1
  6
CONTINUOUS
 62
     1
 10
 5.67377574759303E+0000
 20
 4.81635796478076E+0000
 11
 5.64814095235488E+0000
 21
 4.84199276001891E+0000
  0
LINE
  8
1
  6
CONTINUOUS
 62
     1
 10
 5.69086561108270E+0000
 20
 4.81992230547621E+0000
 11
 5.64814095235488E+0000
 21
 4.86264696420403E+0000
  0
LINE
  8
1
  6
CONTINUOUS
 62
     1
 10
 5.70795547457237E+0000
 20
 4.82348664616438E+0000
 11
 5.66247262054821E+0000
 21
 4.86896950019582E+0000
  0
LINE
  8
1
  6
CONTINUOUS
 62
     1
 10
 5.72504533806205E+0000
 20
 4.82705098685983E+0000
 11
 5.68737648046226E+0000
 21
 4.86471984445961E+0000
  0
LINE
  8
1
  6
CONTINUOUS
 62
     1
 10
 5.74213520155172E+0000
 20
 4.83061532755528E+0000
 11
 5.71228034038359E+0000
 21
 4.86047018873069E+0000
  0
LINE
  8
1
  6
CONTINUOUS
 62
     1
 10
 5.75922506504867E+0000
 20
 4.83417966825073E+0000
 11
 5.73718420030491E+0000
 21
 4.85622053299448E+0000
  0
LINE
  8
1
  6
CONTINUOUS
 62
     1
 10
 5.77631492853834E+0000
 20
 4.83774400894617E+0000
 11
 5.76208806022623E+0000
 21
 4.85197087725828E+0000
  0
LINE
  8
1
  6
CONTINUOUS
 62
     1
 10
 5.79340479202801E+0000
 20
 4.84130834964162E+0000
 11
 5.78699192014028E+0000
 21
 4.84772122152935E+0000
  0
LINE
  8
1
  6
CONTINUOUS
 62
     1
 10
 5.79860854005528E+0000
 20
 4.84573893300694E+0000
 11
 5.79438170647336E+0000
 21
 4.84151209941774E+0000
  0
LINE
  8
1
  6
CONTINUOUS
 62
     1
 10
 5.78096506220754E+0000
 20
 4.84874965933705E+0000
 11
 5.76828456143994E+0000
 21
 4.83606915856944E+0000
  0
LINE
  8
1
  6
CONTINUOUS
 62
     1
 10
 5.76332158435252E+0000
 20
 4.85176038566715E+0000
 11
 5.74218741639925E+0000
 21
 4.83062621772115E+0000
  0
LINE
  8
1
  6
CONTINUOUS
 62
     1
 10
 5.74567810650478E+0000
 20
 4.85477111200453E+0000
 11
 5.71609027137310E+0000
 21
 4.82518327687285E+0000
  0
LINE
  8
1
  6
CONTINUOUS
 62
     1
 10
 5.72803462864977E+0000
 20
 4.85778183833463E+0000
 11
 5.68999312633969E+0000
 21
 4.81974033602455E+0000
  0
LINE
  8
1
  6
CONTINUOUS
 62
     1
 10
 5.71039115079475E+0000
 20
 4.86079256466473E+0000
 11
 5.66389598130627E+0000
 21
 4.81429739517625E+0000
  0
LINE
  8
1
  6
CONTINUOUS
 62
     1
 10
 5.69274767293973E+0000
 20
 4.86380329100211E+0000
 11
 5.64814095234760E+0000
 21
 4.81919657040271E+0000
  0
LINE
  8
1
  6
CONTINUOUS
 62
     1
 10
 5.67510419509199E+0000
 20
 4.86681401733222E+0000
 11
 5.64814095234760E+0000
 21
 4.83985077458783E+0000
  0
LINE
  8
1
  6
CONTINUOUS
 62
     1
 10
 5.65746071723697E+0000
 20
 4.86982474366232E+0000
 11
 5.64814095235488E+0000
 21
 4.86050497878023E+0000
  0
LINE
  8
1
  6
CONTINUOUS
 62
     1
 10
 5.80743027899007E+0000
 20
 4.84423356984189E+0000
 11
 5.80743027899007E+0000
 21
 4.84423356984189E+0000
  0
LINE
  8
1
  6
CONTINUOUS
 62
     1
 10
 5.80743027899007E+0000
 20
 4.84423356984189E+0000
 11
 5.64814095235488E+0000
 21
 4.87141509120556E+0000
  0
LINE
  8
1
  6
CONTINUOUS
 62
     1
 10
 5.64814095235488E+0000
 20
 4.87141509120556E+0000
 11
 5.64814095235488E+0000
 21
 4.81101145373395E+0000
  0
LINE
  8
1
  6
CONTINUOUS
 62
     1
 10
 5.64814095235488E+0000
 20
 4.81101145373395E+0000
 11
 5.80743027899007E+0000
 21
 4.84423356984189E+0000
  0
LINE
  8
1
  6
CONTINUOUS
 62
     1
 10
 5.64814095235488E+0000
 20
 4.87141509120556E+0000
 11
 5.64814095235488E+0000
 21
 4.81101145373395E+0000
  0
LINE
  8
1
  6
CONTINUOUS
 62
     1
 10
 5.65668588410335E+0000
 20
 4.81279362408532E+0000
 11
 5.64814095235488E+0000
 21
 4.82133855582651E+0000
  0
LINE
  8
1
  6
CONTINUOUS
 62
     1
 10
 5.67377574759303E+0000
 20
 4.81635796478076E+0000
 11
 5.64814095235488E+0000
 21
 4.84199276001891E+0000
  0
LINE
  8
1
  6
CONTINUOUS
 62
     1
 10
 5.69086561108270E+0000
 20
 4.81992230547621E+0000
 11
 5.64814095235488E+0000
 21
 4.86264696420403E+0000
  0
LINE
  8
1
  6
CONTINUOUS
 62
     1
 10
 5.70795547457237E+0000
 20
 4.82348664616438E+0000
 11
 5.66247262054821E+0000
 21
 4.86896950019582E+0000
  0
LINE
  8
1
  6
CONTINUOUS
 62
     1
 10
 5.72504533806205E+0000
 20
 4.82705098685983E+0000
 11
 5.68737648046226E+0000
 21
 4.86471984445961E+0000
  0
LINE
  8
1
  6
CONTINUOUS
 62
     1
 10
 5.74213520155172E+0000
 20
 4.83061532755528E+0000
 11
 5.71228034038359E+0000
 21
 4.86047018873069E+0000
  0
LINE
  8
1
  6
CONTINUOUS
 62
     1
 10
 5.75922506504867E+0000
 20
 4.83417966825073E+0000
 11
 5.73718420030491E+0000
 21
 4.85622053299448E+0000
  0
LINE
  8
1
  6
CONTINUOUS
 62
     1
 10
 5.77631492853834E+0000
 20
 4.83774400894617E+0000
 11
 5.76208806022623E+0000
 21
 4.85197087725828E+0000
  0
LINE
  8
1
  6
CONTINUOUS
 62
     1
 10
 5.79340479202801E+0000
 20
 4.84130834964162E+0000
 11
 5.78699192014028E+0000
 21
 4.84772122152935E+0000
  0
LINE
  8
1
  6
CONTINUOUS
 62
     1
 10
 5.79860854005528E+0000
 20
 4.84573893300694E+0000
 11
 5.79438170647336E+0000
 21
 4.84151209941774E+0000
  0
LINE
  8
1
  6
CONTINUOUS
 62
     1
 10
 5.78096506220754E+0000
 20
 4.84874965933705E+0000
 11
 5.76828456143994E+0000
 21
 4.83606915856944E+0000
  0
LINE
  8
1
  6
CONTINUOUS
 62
     1
 10
 5.76332158435252E+0000
 20
 4.85176038566715E+0000
 11
 5.74218741639925E+0000
 21
 4.83062621772115E+0000
  0
LINE
  8
1
  6
CONTINUOUS
 62
     1
 10
 5.74567810650478E+0000
 20
 4.85477111200453E+0000
 11
 5.71609027137310E+0000
 21
 4.82518327687285E+0000
  0
LINE
  8
1
  6
CONTINUOUS
 62
     1
 10
 5.72803462864977E+0000
 20
 4.85778183833463E+0000
 11
 5.68999312633969E+0000
 21
 4.81974033602455E+0000
  0
LINE
  8
1
  6
CONTINUOUS
 62
     1
 10
 5.71039115079475E+0000
 20
 4.86079256466473E+0000
 11
 5.66389598130627E+0000
 21
 4.81429739517625E+0000
  0
LINE
  8
1
  6
CONTINUOUS
 62
     1
 10
 5.69274767293973E+0000
 20
 4.86380329100211E+0000
 11
 5.64814095234760E+0000
 21
 4.81919657040271E+0000
  0
LINE
  8
1
  6
CONTINUOUS
 62
     1
 10
 5.67510419509199E+0000
 20
 4.86681401733222E+0000
 11
 5.64814095234760E+0000
 21
 4.83985077458783E+0000
  0
LINE
  8
1
  6
CONTINUOUS
 62
     1
 10
 5.65746071723697E+0000
 20
 4.86982474366232E+0000
 11
 5.64814095235488E+0000
 21
 4.86050497878023E+0000
  0
LINE
  8
1
  6
CONTINUOUS
 62
     1
 10
 2.38780025340020E+0000
 20
 3.14383443507177E+0000
 11
 2.38780025340020E+0000
 21
 3.14383443507177E+0000
  0
LINE
  8
1
  6
CONTINUOUS
 62
     1
 10
 2.38780025340020E+0000
 20
 3.14383443507177E+0000
 11
 2.54708958004994E+0000
 21
 3.11665291370809E+0000
  0
LINE
  8
1
  6
CONTINUOUS
 62
     1
 10
 2.54708958004994E+0000
 20
 3.11665291370809E+0000
 11
 2.54708958004994E+0000
 21
 3.17705655117970E+0000
  0
LINE
  8
1
  6
CONTINUOUS
 62
     1
 10
 2.54708958004994E+0000
 20
 3.17705655117970E+0000
 11
 2.38780025340020E+0000
 21
 3.14383443507177E+0000
  0
LINE
  8
1
  6
CONTINUOUS
 62
     1
 10
 2.54708958004994E+0000
 20
 3.11665291370809E+0000
 11
 2.54708958004994E+0000
 21
 3.17705655117970E+0000
  0
LINE
  8
1
  6
CONTINUOUS
 62
     1
 10
 2.40025218336086E+0000
 20
 3.14170960720730E+0000
 11
 2.39634518514868E+0000
 21
 3.14561660541949E+0000
  0
LINE
  8
1
  6
CONTINUOUS
 62
     1
 10
 2.42515604328219E+0000
 20
 3.13745995147110E+0000
 11
 2.41343504863835E+0000
 21
 3.14918094611494E+0000
  0
LINE
  8
1
  6
CONTINUOUS
 62
     1
 10
 2.45005990319987E+0000
 20
 3.13321029573490E+0000
 11
 2.43052491212802E+0000
 21
 3.15274528680675E+0000
  0
LINE
  8
1
  6
CONTINUOUS
 62
     1
 10
 2.47496376312120E+0000
 20
 3.12896064000233E+0000
 11
 2.44761477562133E+0000
 21
 3.15630962750220E+0000
  0
LINE
  8
1
  6
CONTINUOUS
 62
     1
 10
 2.49986762304252E+0000
 20
 3.12471098426613E+0000
 11
 2.46470463911101E+0000
 21
 3.15987396819764E+0000
  0
LINE
  8
1
  6
CONTINUOUS
 62
     1
 10
 2.52477148296020E+0000
 20
 3.12046132853357E+0000
 11
 2.48179450260068E+0000
 21
 3.16343830888945E+0000
  0
LINE
  8
1
  6
CONTINUOUS
 62
     1
 10
 2.54708958004994E+0000
 20
 3.11879743563259E+0000
 11
 2.49888436609763E+0000
 21
 3.16700264958490E+0000
  0
LINE
  8
1
  6
CONTINUOUS
 62
     1
 10
 2.54708958004994E+0000
 20
 3.13945163982135E+0000
 11
 2.51597422958730E+0000
 21
 3.17056699028035E+0000
  0
LINE
  8
1
  6
CONTINUOUS
 62
     1
 10
 2.54708958004994E+0000
 20
 3.16010584400647E+0000
 11
 2.53306409308061E+0000
 21
 3.17413133097580E+0000
  0
LINE
  8
1
  6
CONTINUOUS
 62
     1
 10
 2.54708958004994E+0000
 20
 3.12698001580065E+0000
 11
 2.53826784112243E+0000
 21
 3.11815827687315E+0000
  0
LINE
  8
1
  6
CONTINUOUS
 62
     1
 10
 2.54708958004994E+0000
 20
 3.14763421998578E+0000
 11
 2.52062436327105E+0000
 21
 3.12116900320325E+0000
  0
LINE
  8
1
  6
CONTINUOUS
 62
     1
 10
 2.54708958004994E+0000
 20
 3.16828842417090E+0000
 11
 2.50298088541604E+0000
 21
 3.12417972953699E+0000
  0
LINE
  8
1
  6
CONTINUOUS
 62
     1
 10
 2.53207120039224E+0000
 20
 3.17392424869831E+0000
 11
 2.48533740756102E+0000
 21
 3.12719045586709E+0000
  0
LINE
  8
1
  6
CONTINUOUS
 62
     1
 10
 2.50597405536246E+0000
 20
 3.16848130785365E+0000
 11
 2.46769392970964E+0000
 21
 3.13020118220084E+0000
  0
LINE
  8
1
  6
CONTINUOUS
 62
     1
 10
 2.47987691032904E+0000
 20
 3.16303836700536E+0000
 11
 2.45005045185462E+0000
 21
 3.13321190853094E+0000
  0
LINE
  8
1
  6
CONTINUOUS
 62
     1
 10
 2.45377976529926E+0000
 20
 3.15759542616070E+0000
 11
 2.43240697400324E+0000
 21
 3.13622263486468E+0000
  0
LINE
  8
1
  6
CONTINUOUS
 62
     1
 10
 2.42768262026584E+0000
 20
 3.15215248531240E+0000
 11
 2.41476349615186E+0000
 21
 3.13923336119842E+0000
  0
LINE
  8
1
  6
CONTINUOUS
 62
     1
 10
 2.40158547523606E+0000
 20
 3.14670954447138E+0000
 11
 2.39712001829685E+0000
 21
 3.14224408752852E+0000
  0
LINE
  8
1
  6
CONTINUOUS
 62
     1
 10
 2.38780025340020E+0000
 20
 3.14383443507177E+0000
 11
 2.38780025340020E+0000
 21
 3.14383443507177E+0000
  0
LINE
  8
1
  6
CONTINUOUS
 62
     1
 10
 2.38780025340020E+0000
 20
 3.14383443507177E+0000
 11
 2.54708958004994E+0000
 21
 3.11665291370809E+0000
  0
LINE
  8
1
  6
CONTINUOUS
 62
     1
 10
 2.54708958004994E+0000
 20
 3.11665291370809E+0000
 11
 2.54708958004994E+0000
 21
 3.17705655117970E+0000
  0
LINE
  8
1
  6
CONTINUOUS
 62
     1
 10
 2.54708958004994E+0000
 20
 3.17705655117970E+0000
 11
 2.38780025340020E+0000
 21
 3.14383443507177E+0000
  0
LINE
  8
1
  6
CONTINUOUS
 62
     1
 10
 2.54708958004994E+0000
 20
 3.11665291370809E+0000
 11
 2.54708958004994E+0000
 21
 3.17705655117970E+0000
  0
LINE
  8
1
  6
CONTINUOUS
 62
     1
 10
 2.40025218336086E+0000
 20
 3.14170960720730E+0000
 11
 2.39634518514868E+0000
 21
 3.14561660541949E+0000
  0
LINE
  8
1
  6
CONTINUOUS
 62
     1
 10
 2.42515604328219E+0000
 20
 3.13745995147110E+0000
 11
 2.41343504863835E+0000
 21
 3.14918094611494E+0000
  0
LINE
  8
1
  6
CONTINUOUS
 62
     1
 10
 2.45005990319987E+0000
 20
 3.13321029573490E+0000
 11
 2.43052491212802E+0000
 21
 3.15274528680675E+0000
  0
LINE
  8
1
  6
CONTINUOUS
 62
     1
 10
 2.47496376312120E+0000
 20
 3.12896064000233E+0000
 11
 2.44761477562133E+0000
 21
 3.15630962750220E+0000
  0
LINE
  8
1
  6
CONTINUOUS
 62
     1
 10
 2.49986762304252E+0000
 20
 3.12471098426613E+0000
 11
 2.46470463911101E+0000
 21
 3.15987396819764E+0000
  0
LINE
  8
1
  6
CONTINUOUS
 62
     1
 10
 2.52477148296020E+0000
 20
 3.12046132853357E+0000
 11
 2.48179450260068E+0000
 21
 3.16343830888945E+0000
  0
LINE
  8
1
  6
CONTINUOUS
 62
     1
 10
 2.54708958004994E+0000
 20
 3.11879743563259E+0000
 11
 2.49888436609763E+0000
 21
 3.16700264958490E+0000
  0
LINE
  8
1
  6
CONTINUOUS
 62
     1
 10
 2.54708958004994E+0000
 20
 3.13945163982135E+0000
 11
 2.51597422958730E+0000
 21
 3.17056699028035E+0000
  0
LINE
  8
1
  6
CONTINUOUS
 62
     1
 10
 2.54708958004994E+0000
 20
 3.16010584400647E+0000
 11
 2.53306409308061E+0000
 21
 3.17413133097580E+0000
  0
LINE
  8
1
  6
CONTINUOUS
 62
     1
 10
 2.54708958004994E+0000
 20
 3.12698001580065E+0000
 11
 2.53826784112243E+0000
 21
 3.11815827687315E+0000
  0
LINE
  8
1
  6
CONTINUOUS
 62
     1
 10
 2.54708958004994E+0000
 20
 3.14763421998578E+0000
 11
 2.52062436327105E+0000
 21
 3.12116900320325E+0000
  0
LINE
  8
1
  6
CONTINUOUS
 62
     1
 10
 2.54708958004994E+0000
 20
 3.16828842417090E+0000
 11
 2.50298088541604E+0000
 21
 3.12417972953699E+0000
  0
LINE
  8
1
  6
CONTINUOUS
 62
     1
 10
 2.53207120039224E+0000
 20
 3.17392424869831E+0000
 11
 2.48533740756102E+0000
 21
 3.12719045586709E+0000
  0
LINE
  8
1
  6
CONTINUOUS
 62
     1
 10
 2.50597405536246E+0000
 20
 3.16848130785365E+0000
 11
 2.46769392970964E+0000
 21
 3.13020118220084E+0000
  0
LINE
  8
1
  6
CONTINUOUS
 62
     1
 10
 2.47987691032904E+0000
 20
 3.16303836700536E+0000
 11
 2.45005045185462E+0000
 21
 3.13321190853094E+0000
  0
LINE
  8
1
  6
CONTINUOUS
 62
     1
 10
 2.45377976529926E+0000
 20
 3.15759542616070E+0000
 11
 2.43240697400324E+0000
 21
 3.13622263486468E+0000
  0
LINE
  8
1
  6
CONTINUOUS
 62
     1
 10
 2.42768262026584E+0000
 20
 3.15215248531240E+0000
 11
 2.41476349615186E+0000
 21
 3.13923336119842E+0000
  0
LINE
  8
1
  6
CONTINUOUS
 62
     1
 10
 2.40158547523606E+0000
 20
 3.14670954447138E+0000
 11
 2.39712001829685E+0000
 21
 3.14224408752852E+0000
  0
LINE
  8
1
  6
CONTINUOUS
 62
     1
 10
 2.22117895689735E+0000
 20
 2.83881818729787E+0000
 11
 2.22117895689735E+0000
 21
 2.83881818729787E+0000
  0
LINE
  8
1
  6
CONTINUOUS
 62
     1
 10
 2.22117895689735E+0000
 20
 2.83881818729787E+0000
 11
 2.38046828354709E+0000
 21
 2.81163666593420E+0000
  0
LINE
  8
1
  6
CONTINUOUS
 62
     1
 10
 2.38046828354709E+0000
 20
 2.81163666593420E+0000
 11
 2.38046828354709E+0000
 21
 2.87204030340581E+0000
  0
LINE
  8
1
  6
CONTINUOUS
 62
     1
 10
 2.38046828354709E+0000
 20
 2.87204030340581E+0000
 11
 2.22117895689735E+0000
 21
 2.83881818729787E+0000
  0
LINE
  8
1
  6
CONTINUOUS
 62
     1
 10
 2.38046828354709E+0000
 20
 2.81163666593420E+0000
 11
 2.38046828354709E+0000
 21
 2.87204030340581E+0000
  0
LINE
  8
1
  6
CONTINUOUS
 62
     1
 10
 2.23363088685801E+0000
 20
 2.83669335942977E+0000
 11
 2.22972388864218E+0000
 21
 2.84060035764560E+0000
  0
LINE
  8
1
  6
CONTINUOUS
 62
     1
 10
 2.25853474677569E+0000
 20
 2.83244370369721E+0000
 11
 2.24681375213549E+0000
 21
 2.84416469834105E+0000
  0
LINE
  8
1
  6
CONTINUOUS
 62
     1
 10
 2.28343860669702E+0000
 20
 2.82819404796101E+0000
 11
 2.26390361562517E+0000
 21
 2.84772903903286E+0000
  0
LINE
  8
1
  6
CONTINUOUS
 62
     1
 10
 2.30834246661834E+0000
 20
 2.82394439222844E+0000
 11
 2.28099347911484E+0000
 21
 2.85129337972830E+0000
  0
LINE
  8
1
  6
CONTINUOUS
 62
     1
 10
 2.33324632653603E+0000
 20
 2.81969473649224E+0000
 11
 2.29808334260815E+0000
 21
 2.85485772042375E+0000
  0
LINE
  8
1
  6
CONTINUOUS
 62
     1
 10
 2.35815018645735E+0000
 20
 2.81544508075604E+0000
 11
 2.31517320609782E+0000
 21
 2.85842206111920E+0000
  0
LINE
  8
1
  6
CONTINUOUS
 62
     1
 10
 2.38046828354709E+0000
 20
 2.81378118785142E+0000
 11
 2.33226306958750E+0000
 21
 2.86198640181101E+0000
  0
LINE
  8
1
  6
CONTINUOUS
 62
     1
 10
 2.38046828354709E+0000
 20
 2.83443539204018E+0000
 11
 2.34935293308081E+0000
 21
 2.86555074250646E+0000
  0
LINE
  8
1
  6
CONTINUOUS
 62
     1
 10
 2.38046828354709E+0000
 20
 2.85508959622530E+0000
 11
 2.36644279657048E+0000
 21
 2.86911508320190E+0000
  0
LINE
  8
1
  6
CONTINUOUS
 62
     1
 10
 2.38046828354709E+0000
 20
 2.82196376802676E+0000
 11
 2.37164654461958E+0000
 21
 2.81314202909925E+0000
  0
LINE
  8
1
  6
CONTINUOUS
 62
     1
 10
 2.38046828354709E+0000
 20
 2.84261797221188E+0000
 11
 2.35400306676456E+0000
 21
 2.81615275542936E+0000
  0
LINE
  8
1
  6
CONTINUOUS
 62
     1
 10
 2.38046828354709E+0000
 20
 2.86327217639700E+0000
 11
 2.33635958891318E+0000
 21
 2.81916348176310E+0000
  0
LINE
  8
1
  6
CONTINUOUS
 62
     1
 10
 2.36544990388938E+0000
 20
 2.86890800092442E+0000
 11
 2.31871611106180E+0000
 21
 2.82217420809684E+0000
  0
LINE
  8
1
  6
CONTINUOUS
 62
     1
 10
 2.33935275885960E+0000
 20
 2.86346506007976E+0000
 11
 2.30107263320679E+0000
 21
 2.82518493442694E+0000
  0
LINE
  8
1
  6
CONTINUOUS
 62
     1
 10
 2.31325561382619E+0000
 20
 2.85802211923510E+0000
 11
 2.28342915535541E+0000
 21
 2.82819566076068E+0000
  0
LINE
  8
1
  6
CONTINUOUS
 62
     1
 10
 2.28715846879641E+0000
 20
 2.85257917838680E+0000
 11
 2.26578567750039E+0000
 21
 2.83120638709079E+0000
  0
LINE
  8
1
  6
CONTINUOUS
 62
     1
 10
 2.26106132376663E+0000
 20
 2.84713623754578E+0000
 11
 2.24814219964537E+0000
 21
 2.83421711342453E+0000
  0
LINE
  8
1
  6
CONTINUOUS
 62
     1
 10
 2.23496417873685E+0000
 20
 2.84169329669749E+0000
 11
 2.23049872179763E+0000
 21
 2.83722783975827E+0000
  0
LINE
  8
1
  6
CONTINUOUS
 62
     1
 10
 2.22117895689735E+0000
 20
 2.83881818729787E+0000
 11
 2.22117895689735E+0000
 21
 2.83881818729787E+0000
  0
LINE
  8
1
  6
CONTINUOUS
 62
     1
 10
 2.22117895689735E+0000
 20
 2.83881818729787E+0000
 11
 2.38046828354709E+0000
 21
 2.81163666593420E+0000
  0
LINE
  8
1
  6
CONTINUOUS
 62
     1
 10
 2.38046828354709E+0000
 20
 2.81163666593420E+0000
 11
 2.38046828354709E+0000
 21
 2.87204030340581E+0000
  0
LINE
  8
1
  6
CONTINUOUS
 62
     1
 10
 2.38046828354709E+0000
 20
 2.87204030340581E+0000
 11
 2.22117895689735E+0000
 21
 2.83881818729787E+0000
  0
LINE
  8
1
  6
CONTINUOUS
 62
     1
 10
 2.38046828354709E+0000
 20
 2.81163666593420E+0000
 11
 2.38046828354709E+0000
 21
 2.87204030340581E+0000
  0
LINE
  8
1
  6
CONTINUOUS
 62
     1
 10
 2.23363088685801E+0000
 20
 2.83669335942977E+0000
 11
 2.22972388864218E+0000
 21
 2.84060035764560E+0000
  0
LINE
  8
1
  6
CONTINUOUS
 62
     1
 10
 2.25853474677569E+0000
 20
 2.83244370369721E+0000
 11
 2.24681375213549E+0000
 21
 2.84416469834105E+0000
  0
LINE
  8
1
  6
CONTINUOUS
 62
     1
 10
 2.28343860669702E+0000
 20
 2.82819404796101E+0000
 11
 2.26390361562517E+0000
 21
 2.84772903903286E+0000
  0
LINE
  8
1
  6
CONTINUOUS
 62
     1
 10
 2.30834246661834E+0000
 20
 2.82394439222844E+0000
 11
 2.28099347911484E+0000
 21
 2.85129337972830E+0000
  0
LINE
  8
1
  6
CONTINUOUS
 62
     1
 10
 2.33324632653603E+0000
 20
 2.81969473649224E+0000
 11
 2.29808334260815E+0000
 21
 2.85485772042375E+0000
  0
LINE
  8
1
  6
CONTINUOUS
 62
     1
 10
 2.35815018645735E+0000
 20
 2.81544508075604E+0000
 11
 2.31517320609782E+0000
 21
 2.85842206111920E+0000
  0
LINE
  8
1
  6
CONTINUOUS
 62
     1
 10
 2.38046828354709E+0000
 20
 2.81378118785142E+0000
 11
 2.33226306958750E+0000
 21
 2.86198640181101E+0000
  0
LINE
  8
1
  6
CONTINUOUS
 62
     1
 10
 2.38046828354709E+0000
 20
 2.83443539204018E+0000
 11
 2.34935293308081E+0000
 21
 2.86555074250646E+0000
  0
LINE
  8
1
  6
CONTINUOUS
 62
     1
 10
 2.38046828354709E+0000
 20
 2.85508959622530E+0000
 11
 2.36644279657048E+0000
 21
 2.86911508320190E+0000
  0
LINE
  8
1
  6
CONTINUOUS
 62
     1
 10
 2.38046828354709E+0000
 20
 2.82196376802676E+0000
 11
 2.37164654461958E+0000
 21
 2.81314202909925E+0000
  0
LINE
  8
1
  6
CONTINUOUS
 62
     1
 10
 2.38046828354709E+0000
 20
 2.84261797221188E+0000
 11
 2.35400306676456E+0000
 21
 2.81615275542936E+0000
  0
LINE
  8
1
  6
CONTINUOUS
 62
     1
 10
 2.38046828354709E+0000
 20
 2.86327217639700E+0000
 11
 2.33635958891318E+0000
 21
 2.81916348176310E+0000
  0
LINE
  8
1
  6
CONTINUOUS
 62
     1
 10
 2.36544990388938E+0000
 20
 2.86890800092442E+0000
 11
 2.31871611106180E+0000
 21
 2.82217420809684E+0000
  0
LINE
  8
1
  6
CONTINUOUS
 62
     1
 10
 2.33935275885960E+0000
 20
 2.86346506007976E+0000
 11
 2.30107263320679E+0000
 21
 2.82518493442694E+0000
  0
LINE
  8
1
  6
CONTINUOUS
 62
     1
 10
 2.31325561382619E+0000
 20
 2.85802211923510E+0000
 11
 2.28342915535541E+0000
 21
 2.82819566076068E+0000
  0
LINE
  8
1
  6
CONTINUOUS
 62
     1
 10
 2.28715846879641E+0000
 20
 2.85257917838680E+0000
 11
 2.26578567750039E+0000
 21
 2.83120638709079E+0000
  0
LINE
  8
1
  6
CONTINUOUS
 62
     1
 10
 2.26106132376663E+0000
 20
 2.84713623754578E+0000
 11
 2.24814219964537E+0000
 21
 2.83421711342453E+0000
  0
LINE
  8
1
  6
CONTINUOUS
 62
     1
 10
 2.23496417873685E+0000
 20
 2.84169329669749E+0000
 11
 2.23049872179763E+0000
 21
 2.83722783975827E+0000
  0
LINE
  8
1
  6
CONTINUOUS
 62
     1
 10
 1.73580387577385E+0000
 20
 2.31593319111926E+0000
 11
 1.73580387577385E+0000
 21
 2.31593319111926E+0000
  0
LINE
  8
1
  6
CONTINUOUS
 62
     1
 10
 1.73580387577385E+0000
 20
 2.31593319111926E+0000
 11
 1.89509320242360E+0000
 21
 2.28875166975558E+0000
  0
LINE
  8
1
  6
CONTINUOUS
 62
     1
 10
 1.89509320242360E+0000
 20
 2.28875166975558E+0000
 11
 1.89509320242360E+0000
 21
 2.34915530722719E+0000
  0
LINE
  8
1
  6
CONTINUOUS
 62
     1
 10
 1.89509320242360E+0000
 20
 2.34915530722719E+0000
 11
 1.73580387577385E+0000
 21
 2.31593319111926E+0000
  0
LINE
  8
1
  6
CONTINUOUS
 62
     1
 10
 1.89509320242360E+0000
 20
 2.28875166975558E+0000
 11
 1.89509320242360E+0000
 21
 2.34915530722719E+0000
  0
LINE
  8
1
  6
CONTINUOUS
 62
     1
 10
 1.74825580573270E+0000
 20
 2.31380836325116E+0000
 11
 1.74434880751869E+0000
 21
 2.31771536146698E+0000
  0
LINE
  8
1
  6
CONTINUOUS
 62
     1
 10
 1.77315966565402E+0000
 20
 2.30955870751859E+0000
 11
 1.76143867101018E+0000
 21
 2.32127970216243E+0000
  0
LINE
  8
1
  6
CONTINUOUS
 62
     1
 10
 1.79806352557353E+0000
 20
 2.30530905178239E+0000
 11
 1.77852853449986E+0000
 21
 2.32484404285424E+0000
  0
LINE
  8
1
  6
CONTINUOUS
 62
     1
 10
 1.82296738549303E+0000
 20
 2.30105939604982E+0000
 11
 1.79561839799135E+0000
 21
 2.32840838354969E+0000
  0
LINE
  8
1
  6
CONTINUOUS
 62
     1
 10
 1.84787124541253E+0000
 20
 2.29680974031362E+0000
 11
 1.81270826148284E+0000
 21
 2.33197272424513E+0000
  0
LINE
  8
1
  6
CONTINUOUS
 62
     1
 10
 1.87277510533386E+0000
 20
 2.29256008457742E+0000
 11
 1.82979812497251E+0000
 21
 2.33553706493694E+0000
  0
LINE
  8
1
  6
CONTINUOUS
 62
     1
 10
 1.89509320242360E+0000
 20
 2.29089619167280E+0000
 11
 1.84688798846400E+0000
 21
 2.33910140563239E+0000
  0
LINE
  8
1
  6
CONTINUOUS
 62
     1
 10
 1.89509320242360E+0000
 20
 2.31155039585792E+0000
 11
 1.86397785195550E+0000
 21
 2.34266574632784E+0000
  0
LINE
  8
1
  6
CONTINUOUS
 62
     1
 10
 1.89509320242360E+0000
 20
 2.33220460004304E+0000
 11
 1.88106771544699E+0000
 21
 2.34623008701965E+0000
  0
LINE
  8
1
  6
CONTINUOUS
 62
     1
 10
 1.89509320242178E+0000
 20
 2.29907877184814E+0000
 11
 1.88627146349427E+0000
 21
 2.29025703292064E+0000
  0
LINE
  8
1
  6
CONTINUOUS
 62
     1
 10
 1.89509320242178E+0000
 20
 2.31973297603327E+0000
 11
 1.86862798564107E+0000
 21
 2.29326775925074E+0000
  0
LINE
  8
1
  6
CONTINUOUS
 62
     1
 10
 1.89509320242178E+0000
 20
 2.34038718021839E+0000
 11
 1.85098450778787E+0000
 21
 2.29627848558448E+0000
  0
LINE
  8
1
  6
CONTINUOUS
 62
     1
 10
 1.88007482276589E+0000
 20
 2.34602300474580E+0000
 11
 1.83334102993649E+0000
 21
 2.29928921191822E+0000
  0
LINE
  8
1
  6
CONTINUOUS
 62
     1
 10
 1.85397767773429E+0000
 20
 2.34058006390114E+0000
 11
 1.81569755208329E+0000
 21
 2.30229993824832E+0000
  0
LINE
  8
1
  6
CONTINUOUS
 62
     1
 10
 1.82788053270451E+0000
 20
 2.33513712305648E+0000
 11
 1.79805407423009E+0000
 21
 2.30531066458207E+0000
  0
LINE
  8
1
  6
CONTINUOUS
 62
     1
 10
 1.80178338767291E+0000
 20
 2.32969418220819E+0000
 11
 1.78041059637690E+0000
 21
 2.30832139091217E+0000
  0
LINE
  8
1
  6
CONTINUOUS
 62
     1
 10
 1.77568624264131E+0000
 20
 2.32425124136353E+0000
 11
 1.76276711852370E+0000
 21
 2.31133211724591E+0000
  0
LINE
  8
1
  6
CONTINUOUS
 62
     1
 10
 1.74958909760971E+0000
 20
 2.31880830051887E+0000
 11
 1.74512364067232E+0000
 21
 2.31434284357965E+0000
  0
LINE
  8
1
  6
CONTINUOUS
 62
     1
 10
 1.73580387577385E+0000
 20
 2.31593319111926E+0000
 11
 1.73580387577385E+0000
 21
 2.31593319111926E+0000
  0
LINE
  8
1
  6
CONTINUOUS
 62
     1
 10
 1.73580387577385E+0000
 20
 2.31593319111926E+0000
 11
 1.89509320242360E+0000
 21
 2.28875166975558E+0000
  0
LINE
  8
1
  6
CONTINUOUS
 62
     1
 10
 1.89509320242360E+0000
 20
 2.28875166975558E+0000
 11
 1.89509320242360E+0000
 21
 2.34915530722719E+0000
  0
LINE
  8
1
  6
CONTINUOUS
 62
     1
 10
 1.89509320242360E+0000
 20
 2.34915530722719E+0000
 11
 1.73580387577385E+0000
 21
 2.31593319111926E+0000
  0
LINE
  8
1
  6
CONTINUOUS
 62
     1
 10
 1.89509320242360E+0000
 20
 2.28875166975558E+0000
 11
 1.89509320242360E+0000
 21
 2.34915530722719E+0000
  0
LINE
  8
1
  6
CONTINUOUS
 62
     1
 10
 1.74825580573270E+0000
 20
 2.31380836325116E+0000
 11
 1.74434880751869E+0000
 21
 2.31771536146698E+0000
  0
LINE
  8
1
  6
CONTINUOUS
 62
     1
 10
 1.77315966565402E+0000
 20
 2.30955870751859E+0000
 11
 1.76143867101018E+0000
 21
 2.32127970216243E+0000
  0
LINE
  8
1
  6
CONTINUOUS
 62
     1
 10
 1.79806352557353E+0000
 20
 2.30530905178239E+0000
 11
 1.77852853449986E+0000
 21
 2.32484404285424E+0000
  0
LINE
  8
1
  6
CONTINUOUS
 62
     1
 10
 1.82296738549303E+0000
 20
 2.30105939604982E+0000
 11
 1.79561839799135E+0000
 21
 2.32840838354969E+0000
  0
LINE
  8
1
  6
CONTINUOUS
 62
     1
 10
 1.84787124541253E+0000
 20
 2.29680974031362E+0000
 11
 1.81270826148284E+0000
 21
 2.33197272424513E+0000
  0
LINE
  8
1
  6
CONTINUOUS
 62
     1
 10
 1.87277510533386E+0000
 20
 2.29256008457742E+0000
 11
 1.82979812497251E+0000
 21
 2.33553706493694E+0000
  0
LINE
  8
1
  6
CONTINUOUS
 62
     1
 10
 1.89509320242360E+0000
 20
 2.29089619167280E+0000
 11
 1.84688798846400E+0000
 21
 2.33910140563239E+0000
  0
LINE
  8
1
  6
CONTINUOUS
 62
     1
 10
 1.89509320242360E+0000
 20
 2.31155039585792E+0000
 11
 1.86397785195550E+0000
 21
 2.34266574632784E+0000
  0
LINE
  8
1
  6
CONTINUOUS
 62
     1
 10
 1.89509320242360E+0000
 20
 2.33220460004304E+0000
 11
 1.88106771544699E+0000
 21
 2.34623008701965E+0000
  0
LINE
  8
1
  6
CONTINUOUS
 62
     1
 10
 1.89509320242178E+0000
 20
 2.29907877184814E+0000
 11
 1.88627146349427E+0000
 21
 2.29025703292064E+0000
  0
LINE
  8
1
  6
CONTINUOUS
 62
     1
 10
 1.89509320242178E+0000
 20
 2.31973297603327E+0000
 11
 1.86862798564107E+0000
 21
 2.29326775925074E+0000
  0
LINE
  8
1
  6
CONTINUOUS
 62
     1
 10
 1.89509320242178E+0000
 20
 2.34038718021839E+0000
 11
 1.85098450778787E+0000
 21
 2.29627848558448E+0000
  0
LINE
  8
1
  6
CONTINUOUS
 62
     1
 10
 1.88007482276589E+0000
 20
 2.34602300474580E+0000
 11
 1.83334102993649E+0000
 21
 2.29928921191822E+0000
  0
LINE
  8
1
  6
CONTINUOUS
 62
     1
 10
 1.85397767773429E+0000
 20
 2.34058006390114E+0000
 11
 1.81569755208329E+0000
 21
 2.30229993824832E+0000
  0
LINE
  8
1
  6
CONTINUOUS
 62
     1
 10
 1.82788053270451E+0000
 20
 2.33513712305648E+0000
 11
 1.79805407423009E+0000
 21
 2.30531066458207E+0000
  0
LINE
  8
1
  6
CONTINUOUS
 62
     1
 10
 1.80178338767291E+0000
 20
 2.32969418220819E+0000
 11
 1.78041059637690E+0000
 21
 2.30832139091217E+0000
  0
LINE
  8
1
  6
CONTINUOUS
 62
     1
 10
 1.77568624264131E+0000
 20
 2.32425124136353E+0000
 11
 1.76276711852370E+0000
 21
 2.31133211724591E+0000
  0
LINE
  8
1
  6
CONTINUOUS
 62
     1
 10
 1.74958909760971E+0000
 20
 2.31880830051887E+0000
 11
 1.74512364067232E+0000
 21
 2.31434284357965E+0000
  0
LINE
  8
1
  6
CONTINUOUS
 62
     1
 10
 5.80018587479572E+0000
 20
 3.55880795423218E+0000
 11
 5.80018587479572E+0000
 21
 3.55880795423218E+0000
  0
LINE
  8
1
  6
CONTINUOUS
 62
     1
 10
 5.80018587479572E+0000
 20
 3.55880795423218E+0000
 11
 5.64089654816053E+0000
 21
 3.58598947559585E+0000
  0
LINE
  8
1
  6
CONTINUOUS
 62
     1
 10
 5.64089654816053E+0000
 20
 3.58598947559585E+0000
 11
 5.64089654816053E+0000
 21
 3.52558583812424E+0000
  0
LINE
  8
1
  6
CONTINUOUS
 62
     1
 10
 5.64089654816053E+0000
 20
 3.52558583812424E+0000
 11
 5.80018587479572E+0000
 21
 3.55880795423218E+0000
  0
LINE
  8
1
  6
CONTINUOUS
 62
     1
 10
 5.64089654816053E+0000
 20
 3.58598947559585E+0000
 11
 5.64089654816053E+0000
 21
 3.52558583812424E+0000
  0
LINE
  8
1
  6
CONTINUOUS
 62
     1
 10
 5.64944147990900E+0000
 20
 3.52736800847561E+0000
 11
 5.64089654816780E+0000
 21
 3.53591294022044E+0000
  0
LINE
  8
1
  6
CONTINUOUS
 62
     1
 10
 5.66653134339867E+0000
 20
 3.53093234917105E+0000
 11
 5.64089654816053E+0000
 21
 3.55656714440556E+0000
  0
LINE
  8
1
  6
CONTINUOUS
 62
     1
 10
 5.68362120689562E+0000
 20
 3.53449668986286E+0000
 11
 5.64089654816053E+0000
 21
 3.57722134859432E+0000
  0
LINE
  8
1
  6
CONTINUOUS
 62
     1
 10
 5.70071107038530E+0000
 20
 3.53806103055831E+0000
 11
 5.65522821635386E+0000
 21
 3.58354388458974E+0000
  0
LINE
  8
1
  6
CONTINUOUS
 62
     1
 10
 5.71780093387497E+0000
 20
 3.54162537125376E+0000
 11
 5.68013207627519E+0000
 21
 3.57929422885354E+0000
  0
LINE
  8
1
  6
CONTINUOUS
 62
     1
 10
 5.73489079736464E+0000
 20
 3.54518971194557E+0000
 11
 5.70503593619651E+0000
 21
 3.57504457311734E+0000
  0
LINE
  8
1
  6
CONTINUOUS
 62
     1
 10
 5.75198066085431E+0000
 20
 3.54875405264102E+0000
 11
 5.72993979611783E+0000
 21
 3.57079491738114E+0000
  0
LINE
  8
1
  6
CONTINUOUS
 62
     1
 10
 5.76907052434399E+0000
 20
 3.55231839333646E+0000
 11
 5.75484365603916E+0000
 21
 3.56654526164493E+0000
  0
LINE
  8
1
  6
CONTINUOUS
 62
     1
 10
 5.78616038784094E+0000
 20
 3.55588273403191E+0000
 11
 5.77974751595320E+0000
 21
 3.56229560591237E+0000
  0
LINE
  8
1
  6
CONTINUOUS
 62
     1
 10
 5.79136413586821E+0000
 20
 3.56031331739723E+0000
 11
 5.78713730227901E+0000
 21
 3.55608648380803E+0000
  0
LINE
  8
1
  6
CONTINUOUS
 62
     1
 10
 5.77372065801319E+0000
 20
 3.56332404372733E+0000
 11
 5.76104015724559E+0000
 21
 3.55064354295973E+0000
  0
LINE
  8
1
  6
CONTINUOUS
 62
     1
 10
 5.75607718015817E+0000
 20
 3.56633477006108E+0000
 11
 5.73494301221217E+0000
 21
 3.54520060211144E+0000
  0
LINE
  8
1
  6
CONTINUOUS
 62
     1
 10
 5.73843370231043E+0000
 20
 3.56934549639482E+0000
 11
 5.70884586717875E+0000
 21
 3.53975766126678E+0000
  0
LINE
  8
1
  6
CONTINUOUS
 62
     1
 10
 5.72079022445541E+0000
 20
 3.57235622272856E+0000
 11
 5.68274872214533E+0000
 21
 3.53431472041848E+0000
  0
LINE
  8
1
  6
CONTINUOUS
 62
     1
 10
 5.70314674660040E+0000
 20
 3.57536694905866E+0000
 11
 5.65665157711919E+0000
 21
 3.52887177957746E+0000
  0
LINE
  8
1
  6
CONTINUOUS
 62
     1
 10
 5.68550326875265E+0000
 20
 3.57837767539240E+0000
 11
 5.64089654815325E+0000
 21
 3.53377095479664E+0000
  0
LINE
  8
1
  6
CONTINUOUS
 62
     1
 10
 5.66785979089764E+0000
 20
 3.58138840172251E+0000
 11
 5.64089654815325E+0000
 21
 3.55442515898176E+0000
  0
LINE
  8
1
  6
CONTINUOUS
 62
     1
 10
 5.65021631304262E+0000
 20
 3.58439912805625E+0000
 11
 5.64089654816053E+0000
 21
 3.57507936317415E+0000
  0
LINE
  8
1
  6
CONTINUOUS
 62
     1
 10
 5.80018587479572E+0000
 20
 3.55880795423218E+0000
 11
 5.80018587479572E+0000
 21
 3.55880795423218E+0000
  0
LINE
  8
1
  6
CONTINUOUS
 62
     1
 10
 5.80018587479572E+0000
 20
 3.55880795423218E+0000
 11
 5.64089654816053E+0000
 21
 3.58598947559585E+0000
  0
LINE
  8
1
  6
CONTINUOUS
 62
     1
 10
 5.64089654816053E+0000
 20
 3.58598947559585E+0000
 11
 5.64089654816053E+0000
 21
 3.52558583812424E+0000
  0
LINE
  8
1
  6
CONTINUOUS
 62
     1
 10
 5.64089654816053E+0000
 20
 3.52558583812424E+0000
 11
 5.80018587479572E+0000
 21
 3.55880795423218E+0000
  0
LINE
  8
1
  6
CONTINUOUS
 62
     1
 10
 5.64089654816053E+0000
 20
 3.58598947559585E+0000
 11
 5.64089654816053E+0000
 21
 3.52558583812424E+0000
  0
LINE
  8
1
  6
CONTINUOUS
 62
     1
 10
 5.64944147990900E+0000
 20
 3.52736800847561E+0000
 11
 5.64089654816780E+0000
 21
 3.53591294022044E+0000
  0
LINE
  8
1
  6
CONTINUOUS
 62
     1
 10
 5.66653134339867E+0000
 20
 3.53093234917105E+0000
 11
 5.64089654816053E+0000
 21
 3.55656714440556E+0000
  0
LINE
  8
1
  6
CONTINUOUS
 62
     1
 10
 5.68362120689562E+0000
 20
 3.53449668986286E+0000
 11
 5.64089654816053E+0000
 21
 3.57722134859432E+0000
  0
LINE
  8
1
  6
CONTINUOUS
 62
     1
 10
 5.70071107038530E+0000
 20
 3.53806103055831E+0000
 11
 5.65522821635386E+0000
 21
 3.58354388458974E+0000
  0
LINE
  8
1
  6
CONTINUOUS
 62
     1
 10
 5.71780093387497E+0000
 20
 3.54162537125376E+0000
 11
 5.68013207627519E+0000
 21
 3.57929422885354E+0000
  0
LINE
  8
1
  6
CONTINUOUS
 62
     1
 10
 5.73489079736464E+0000
 20
 3.54518971194557E+0000
 11
 5.70503593619651E+0000
 21
 3.57504457311734E+0000
  0
LINE
  8
1
  6
CONTINUOUS
 62
     1
 10
 5.75198066085431E+0000
 20
 3.54875405264102E+0000
 11
 5.72993979611783E+0000
 21
 3.57079491738114E+0000
  0
LINE
  8
1
  6
CONTINUOUS
 62
     1
 10
 5.76907052434399E+0000
 20
 3.55231839333646E+0000
 11
 5.75484365603916E+0000
 21
 3.56654526164493E+0000
  0
LINE
  8
1
  6
CONTINUOUS
 62
     1
 10
 5.78616038784094E+0000
 20
 3.55588273403191E+0000
 11
 5.77974751595320E+0000
 21
 3.56229560591237E+0000
  0
LINE
  8
1
  6
CONTINUOUS
 62
     1
 10
 5.79136413586821E+0000
 20
 3.56031331739723E+0000
 11
 5.78713730227901E+0000
 21
 3.55608648380803E+0000
  0
LINE
  8
1
  6
CONTINUOUS
 62
     1
 10
 5.77372065801319E+0000
 20
 3.56332404372733E+0000
 11
 5.76104015724559E+0000
 21
 3.55064354295973E+0000
  0
LINE
  8
1
  6
CONTINUOUS
 62
     1
 10
 5.75607718015817E+0000
 20
 3.56633477006108E+0000
 11
 5.73494301221217E+0000
 21
 3.54520060211144E+0000
  0
LINE
  8
1
  6
CONTINUOUS
 62
     1
 10
 5.73843370231043E+0000
 20
 3.56934549639482E+0000
 11
 5.70884586717875E+0000
 21
 3.53975766126678E+0000
  0
LINE
  8
1
  6
CONTINUOUS
 62
     1
 10
 5.72079022445541E+0000
 20
 3.57235622272856E+0000
 11
 5.68274872214533E+0000
 21
 3.53431472041848E+0000
  0
LINE
  8
1
  6
CONTINUOUS
 62
     1
 10
 5.70314674660040E+0000
 20
 3.57536694905866E+0000
 11
 5.65665157711919E+0000
 21
 3.52887177957746E+0000
  0
LINE
  8
1
  6
CONTINUOUS
 62
     1
 10
 5.68550326875265E+0000
 20
 3.57837767539240E+0000
 11
 5.64089654815325E+0000
 21
 3.53377095479664E+0000
  0
LINE
  8
1
  6
CONTINUOUS
 62
     1
 10
 5.66785979089764E+0000
 20
 3.58138840172251E+0000
 11
 5.64089654815325E+0000
 21
 3.55442515898176E+0000
  0
LINE
  8
1
  6
CONTINUOUS
 62
     1
 10
 5.65021631304262E+0000
 20
 3.58439912805625E+0000
 11
 5.64089654816053E+0000
 21
 3.57507936317415E+0000
  0
LINE
  8
1
  6
CONTINUOUS
 62
     1
 10
 3.41650564920928E+0000
 20
 3.55778505704438E+0000
 11
 3.41650564920928E+0000
 21
 3.55778505704438E+0000
  0
LINE
  8
1
  6
CONTINUOUS
 62
     1
 10
 3.41650564920928E+0000
 20
 3.55778505704438E+0000
 11
 3.57579497585903E+0000
 21
 3.53060353568071E+0000
  0
LINE
  8
1
  6
CONTINUOUS
 62
     1
 10
 3.57579497585903E+0000
 20
 3.53060353568071E+0000
 11
 3.57579497585903E+0000
 21
 3.59100717315232E+0000
  0
LINE
  8
1
  6
CONTINUOUS
 62
     1
 10
 3.57579497585903E+0000
 20
 3.59100717315232E+0000
 11
 3.41650564920928E+0000
 21
 3.55778505704438E+0000
  0
LINE
  8
1
  6
CONTINUOUS
 62
     1
 10
 3.57579497585903E+0000
 20
 3.53060353568071E+0000
 11
 3.57579497585903E+0000
 21
 3.59100717315232E+0000
  0
LINE
  8
1
  6
CONTINUOUS
 62
     1
 10
 3.42895757916995E+0000
 20
 3.55566022917992E+0000
 11
 3.42505058095776E+0000
 21
 3.55956722739211E+0000
  0
LINE
  8
1
  6
CONTINUOUS
 62
     1
 10
 3.45386143909127E+0000
 20
 3.55141057344372E+0000
 11
 3.44214044444743E+0000
 21
 3.56313156808756E+0000
  0
LINE
  8
1
  6
CONTINUOUS
 62
     1
 10
 3.47876529900896E+0000
 20
 3.54716091771115E+0000
 11
 3.45923030793710E+0000
 21
 3.56669590878300E+0000
  0
LINE
  8
1
  6
CONTINUOUS
 62
     1
 10
 3.50366915892664E+0000
 20
 3.54291126197495E+0000
 11
 3.47632017143042E+0000
 21
 3.57026024947481E+0000
  0
LINE
  8
1
  6
CONTINUOUS
 62
     1
 10
 3.52857301884796E+0000
 20
 3.53866160624239E+0000
 11
 3.49341003492009E+0000
 21
 3.57382459017026E+0000
  0
LINE
  8
1
  6
CONTINUOUS
 62
     1
 10
 3.55347687876565E+0000
 20
 3.53441195050982E+0000
 11
 3.51049989840976E+0000
 21
 3.57738893086571E+0000
  0
LINE
  8
1
  6
CONTINUOUS
 62
     1
 10
 3.57579497586266E+0000
 20
 3.53274805759793E+0000
 11
 3.52758976190307E+0000
 21
 3.58095327156116E+0000
  0
LINE
  8
1
  6
CONTINUOUS
 62
     1
 10
 3.57579497586266E+0000
 20
 3.55340226178305E+0000
 11
 3.54467962539275E+0000
 21
 3.58451761225297E+0000
  0
LINE
  8
1
  6
CONTINUOUS
 62
     1
 10
 3.57579497586266E+0000
 20
 3.57405646597181E+0000
 11
 3.56176948888242E+0000
 21
 3.58808195294841E+0000
  0
LINE
  8
1
  6
CONTINUOUS
 62
     1
 10
 3.57579497585539E+0000
 20
 3.54093063776963E+0000
 11
 3.56697323692788E+0000
 21
 3.53210889884213E+0000
  0
LINE
  8
1
  6
CONTINUOUS
 62
     1
 10
 3.57579497585539E+0000
 20
 3.56158484195475E+0000
 11
 3.54932975907650E+0000
 21
 3.53511962517587E+0000
  0
LINE
  8
1
  6
CONTINUOUS
 62
     1
 10
 3.57579497585539E+0000
 20
 3.58223904613988E+0000
 11
 3.53168628122148E+0000
 21
 3.53813035150597E+0000
  0
LINE
  8
1
  6
CONTINUOUS
 62
     1
 10
 3.56077659620132E+0000
 20
 3.58787487067093E+0000
 11
 3.51404280337374E+0000
 21
 3.54114107784335E+0000
  0
LINE
  8
1
  6
CONTINUOUS
 62
     1
 10
 3.53467945117518E+0000
 20
 3.58243192982991E+0000
 11
 3.49639932551872E+0000
 21
 3.54415180417345E+0000
  0
LINE
  8
1
  6
CONTINUOUS
 62
     1
 10
 3.50858230613812E+0000
 20
 3.57698898898161E+0000
 11
 3.47875584766734E+0000
 21
 3.54716253050719E+0000
  0
LINE
  8
1
  6
CONTINUOUS
 62
     1
 10
 3.48248516111198E+0000
 20
 3.57154604813695E+0000
 11
 3.46111236981233E+0000
 21
 3.55017325683730E+0000
  0
LINE
  8
1
  6
CONTINUOUS
 62
     1
 10
 3.45638801607856E+0000
 20
 3.56610310728865E+0000
 11
 3.44346889195731E+0000
 21
 3.55318398317104E+0000
  0
LINE
  8
1
  6
CONTINUOUS
 62
     1
 10
 3.43029087104878E+0000
 20
 3.56066016644399E+0000
 11
 3.42582541410593E+0000
 21
 3.55619470950114E+0000
  0
LINE
  8
1
  6
CONTINUOUS
 62
     1
 10
 3.41650564920928E+0000
 20
 3.55778505704438E+0000
 11
 3.41650564920928E+0000
 21
 3.55778505704438E+0000
  0
LINE
  8
1
  6
CONTINUOUS
 62
     1
 10
 3.41650564920928E+0000
 20
 3.55778505704438E+0000
 11
 3.57579497585903E+0000
 21
 3.53060353568071E+0000
  0
LINE
  8
1
  6
CONTINUOUS
 62
     1
 10
 3.57579497585903E+0000
 20
 3.53060353568071E+0000
 11
 3.57579497585903E+0000
 21
 3.59100717315232E+0000
  0
LINE
  8
1
  6
CONTINUOUS
 62
     1
 10
 3.57579497585903E+0000
 20
 3.59100717315232E+0000
 11
 3.41650564920928E+0000
 21
 3.55778505704438E+0000
  0
LINE
  8
1
  6
CONTINUOUS
 62
     1
 10
 3.57579497585903E+0000
 20
 3.53060353568071E+0000
 11
 3.57579497585903E+0000
 21
 3.59100717315232E+0000
  0
LINE
  8
1
  6
CONTINUOUS
 62
     1
 10
 3.42895757916995E+0000
 20
 3.55566022917992E+0000
 11
 3.42505058095776E+0000
 21
 3.55956722739211E+0000
  0
LINE
  8
1
  6
CONTINUOUS
 62
     1
 10
 3.45386143909127E+0000
 20
 3.55141057344372E+0000
 11
 3.44214044444743E+0000
 21
 3.56313156808756E+0000
  0
LINE
  8
1
  6
CONTINUOUS
 62
     1
 10
 3.47876529900896E+0000
 20
 3.54716091771115E+0000
 11
 3.45923030793710E+0000
 21
 3.56669590878300E+0000
  0
LINE
  8
1
  6
CONTINUOUS
 62
     1
 10
 3.50366915892664E+0000
 20
 3.54291126197495E+0000
 11
 3.47632017143042E+0000
 21
 3.57026024947481E+0000
  0
LINE
  8
1
  6
CONTINUOUS
 62
     1
 10
 3.52857301884796E+0000
 20
 3.53866160624239E+0000
 11
 3.49341003492009E+0000
 21
 3.57382459017026E+0000
  0
LINE
  8
1
  6
CONTINUOUS
 62
     1
 10
 3.55347687876565E+0000
 20
 3.53441195050982E+0000
 11
 3.51049989840976E+0000
 21
 3.57738893086571E+0000
  0
LINE
  8
1
  6
CONTINUOUS
 62
     1
 10
 3.57579497586266E+0000
 20
 3.53274805759793E+0000
 11
 3.52758976190307E+0000
 21
 3.58095327156116E+0000
  0
LINE
  8
1
  6
CONTINUOUS
 62
     1
 10
 3.57579497586266E+0000
 20
 3.55340226178305E+0000
 11
 3.54467962539275E+0000
 21
 3.58451761225297E+0000
  0
LINE
  8
1
  6
CONTINUOUS
 62
     1
 10
 3.57579497586266E+0000
 20
 3.57405646597181E+0000
 11
 3.56176948888242E+0000
 21
 3.58808195294841E+0000
  0
LINE
  8
1
  6
CONTINUOUS
 62
     1
 10
 3.57579497585539E+0000
 20
 3.54093063776963E+0000
 11
 3.56697323692788E+0000
 21
 3.53210889884213E+0000
  0
LINE
  8
1
  6
CONTINUOUS
 62
     1
 10
 3.57579497585539E+0000
 20
 3.56158484195475E+0000
 11
 3.54932975907650E+0000
 21
 3.53511962517587E+0000
  0
LINE
  8
1
  6
CONTINUOUS
 62
     1
 10
 3.57579497585539E+0000
 20
 3.58223904613988E+0000
 11
 3.53168628122148E+0000
 21
 3.53813035150597E+0000
  0
LINE
  8
1
  6
CONTINUOUS
 62
     1
 10
 3.56077659620132E+0000
 20
 3.58787487067093E+0000
 11
 3.51404280337374E+0000
 21
 3.54114107784335E+0000
  0
LINE
  8
1
  6
CONTINUOUS
 62
     1
 10
 3.53467945117518E+0000
 20
 3.58243192982991E+0000
 11
 3.49639932551872E+0000
 21
 3.54415180417345E+0000
  0
LINE
  8
1
  6
CONTINUOUS
 62
     1
 10
 3.50858230613812E+0000
 20
 3.57698898898161E+0000
 11
 3.47875584766734E+0000
 21
 3.54716253050719E+0000
  0
LINE
  8
1
  6
CONTINUOUS
 62
     1
 10
 3.48248516111198E+0000
 20
 3.57154604813695E+0000
 11
 3.46111236981233E+0000
 21
 3.55017325683730E+0000
  0
LINE
  8
1
  6
CONTINUOUS
 62
     1
 10
 3.45638801607856E+0000
 20
 3.56610310728865E+0000
 11
 3.44346889195731E+0000
 21
 3.55318398317104E+0000
  0
LINE
  8
1
  6
CONTINUOUS
 62
     1
 10
 3.43029087104878E+0000
 20
 3.56066016644399E+0000
 11
 3.42582541410593E+0000
 21
 3.55619470950114E+0000
  0
LINE
  8
1
  6
CONTINUOUS
 62
     1
 10
 3.41650564920928E+0000
 20
 3.35444089186058E+0000
 11
 3.41650564920928E+0000
 21
 3.35444089186058E+0000
  0
LINE
  8
1
  6
CONTINUOUS
 62
     1
 10
 3.41650564920928E+0000
 20
 3.35444089186058E+0000
 11
 3.57579497585903E+0000
 21
 3.32725937049690E+0000
  0
LINE
  8
1
  6
CONTINUOUS
 62
     1
 10
 3.57579497585903E+0000
 20
 3.32725937049690E+0000
 11
 3.57579497585903E+0000
 21
 3.38766300796851E+0000
  0
LINE
  8
1
  6
CONTINUOUS
 62
     1
 10
 3.57579497585903E+0000
 20
 3.38766300796851E+0000
 11
 3.41650564920928E+0000
 21
 3.35444089186058E+0000
  0
LINE
  8
1
  6
CONTINUOUS
 62
     1
 10
 3.57579497585903E+0000
 20
 3.32725937049690E+0000
 11
 3.57579497585903E+0000
 21
 3.38766300796851E+0000
  0
LINE
  8
1
  6
CONTINUOUS
 62
     1
 10
 3.42895757916631E+0000
 20
 3.35231606399248E+0000
 11
 3.42505058095412E+0000
 21
 3.35622306220830E+0000
  0
LINE
  8
1
  6
CONTINUOUS
 62
     1
 10
 3.45386143908763E+0000
 20
 3.34806640825991E+0000
 11
 3.44214044444379E+0000
 21
 3.35978740290011E+0000
  0
LINE
  8
1
  6
CONTINUOUS
 62
     1
 10
 3.47876529900532E+0000
 20
 3.34381675252371E+0000
 11
 3.45923030793710E+0000
 21
 3.36335174359556E+0000
  0
LINE
  8
1
  6
CONTINUOUS
 62
     1
 10
 3.50366915892664E+0000
 20
 3.33956709679114E+0000
 11
 3.47632017142678E+0000
 21
 3.36691608429101E+0000
  0
LINE
  8
1
  6
CONTINUOUS
 62
     1
 10
 3.52857301884433E+0000
 20
 3.33531744105494E+0000
 11
 3.49341003491645E+0000
 21
 3.37048042498282E+0000
  0
LINE
  8
1
  6
CONTINUOUS
 62
     1
 10
 3.55347687876565E+0000
 20
 3.33106778532238E+0000
 11
 3.51049989840976E+0000
 21
 3.37404476567826E+0000
  0
LINE
  8
1
  6
CONTINUOUS
 62
     1
 10
 3.57579497585903E+0000
 20
 3.32940389241412E+0000
 11
 3.52758976189943E+0000
 21
 3.37760910637371E+0000
  0
LINE
  8
1
  6
CONTINUOUS
 62
     1
 10
 3.57579497585903E+0000
 20
 3.35005809659924E+0000
 11
 3.54467962538911E+0000
 21
 3.38117344706916E+0000
  0
LINE
  8
1
  6
CONTINUOUS
 62
     1
 10
 3.57579497585903E+0000
 20
 3.37071230078436E+0000
 11
 3.56176948888242E+0000
 21
 3.38473778776097E+0000
  0
LINE
  8
1
  6
CONTINUOUS
 62
     1
 10
 3.57579497585903E+0000
 20
 3.33758647258946E+0000
 11
 3.56697323693152E+0000
 21
 3.32876473366196E+0000
  0
LINE
  8
1
  6
CONTINUOUS
 62
     1
 10
 3.57579497585903E+0000
 20
 3.35824067677459E+0000
 11
 3.54932975907650E+0000
 21
 3.33177545999570E+0000
  0
LINE
  8
1
  6
CONTINUOUS
 62
     1
 10
 3.57579497585903E+0000
 20
 3.37889488095971E+0000
 11
 3.53168628122512E+0000
 21
 3.33478618632580E+0000
  0
LINE
  8
1
  6
CONTINUOUS
 62
     1
 10
 3.56077659620132E+0000
 20
 3.38453070548712E+0000
 11
 3.51404280337010E+0000
 21
 3.33779691265590E+0000
  0
LINE
  8
1
  6
CONTINUOUS
 62
     1
 10
 3.53467945117154E+0000
 20
 3.37908776464246E+0000
 11
 3.49639932551872E+0000
 21
 3.34080763898965E+0000
  0
LINE
  8
1
  6
CONTINUOUS
 62
     1
 10
 3.50858230613812E+0000
 20
 3.37364482379417E+0000
 11
 3.47875584766371E+0000
 21
 3.34381836531975E+0000
  0
LINE
  8
1
  6
CONTINUOUS
 62
     1
 10
 3.48248516110834E+0000
 20
 3.36820188295314E+0000
 11
 3.46111236980869E+0000
 21
 3.34682909165349E+0000
  0
LINE
  8
1
  6
CONTINUOUS
 62
     1
 10
 3.45638801607492E+0000
 20
 3.36275894210485E+0000
 11
 3.44346889195731E+0000
 21
 3.34983981798359E+0000
  0
LINE
  8
1
  6
CONTINUOUS
 62
     1
 10
 3.43029087104514E+0000
 20
 3.35731600126019E+0000
 11
 3.42582541410229E+0000
 21
 3.35285054431733E+0000
  0
LINE
  8
1
  6
CONTINUOUS
 62
     1
 10
 3.41650564920928E+0000
 20
 3.35444089186058E+0000
 11
 3.41650564920928E+0000
 21
 3.35444089186058E+0000
  0
LINE
  8
1
  6
CONTINUOUS
 62
     1
 10
 3.41650564920928E+0000
 20
 3.35444089186058E+0000
 11
 3.57579497585903E+0000
 21
 3.32725937049690E+0000
  0
LINE
  8
1
  6
CONTINUOUS
 62
     1
 10
 3.57579497585903E+0000
 20
 3.32725937049690E+0000
 11
 3.57579497585903E+0000
 21
 3.38766300796851E+0000
  0
LINE
  8
1
  6
CONTINUOUS
 62
     1
 10
 3.57579497585903E+0000
 20
 3.38766300796851E+0000
 11
 3.41650564920928E+0000
 21
 3.35444089186058E+0000
  0
LINE
  8
1
  6
CONTINUOUS
 62
     1
 10
 3.57579497585903E+0000
 20
 3.32725937049690E+0000
 11
 3.57579497585903E+0000
 21
 3.38766300796851E+0000
  0
LINE
  8
1
  6
CONTINUOUS
 62
     1
 10
 3.42895757916631E+0000
 20
 3.35231606399248E+0000
 11
 3.42505058095412E+0000
 21
 3.35622306220830E+0000
  0
LINE
  8
1
  6
CONTINUOUS
 62
     1
 10
 3.45386143908763E+0000
 20
 3.34806640825991E+0000
 11
 3.44214044444379E+0000
 21
 3.35978740290011E+0000
  0
LINE
  8
1
  6
CONTINUOUS
 62
     1
 10
 3.47876529900532E+0000
 20
 3.34381675252371E+0000
 11
 3.45923030793710E+0000
 21
 3.36335174359556E+0000
  0
LINE
  8
1
  6
CONTINUOUS
 62
     1
 10
 3.50366915892664E+0000
 20
 3.33956709679114E+0000
 11
 3.47632017142678E+0000
 21
 3.36691608429101E+0000
  0
LINE
  8
1
  6
CONTINUOUS
 62
     1
 10
 3.52857301884433E+0000
 20
 3.33531744105494E+0000
 11
 3.49341003491645E+0000
 21
 3.37048042498282E+0000
  0
LINE
  8
1
  6
CONTINUOUS
 62
     1
 10
 3.55347687876565E+0000
 20
 3.33106778532238E+0000
 11
 3.51049989840976E+0000
 21
 3.37404476567826E+0000
  0
LINE
  8
1
  6
CONTINUOUS
 62
     1
 10
 3.57579497585903E+0000
 20
 3.32940389241412E+0000
 11
 3.52758976189943E+0000
 21
 3.37760910637371E+0000
  0
LINE
  8
1
  6
CONTINUOUS
 62
     1
 10
 3.57579497585903E+0000
 20
 3.35005809659924E+0000
 11
 3.54467962538911E+0000
 21
 3.38117344706916E+0000
  0
LINE
  8
1
  6
CONTINUOUS
 62
     1
 10
 3.57579497585903E+0000
 20
 3.37071230078436E+0000
 11
 3.56176948888242E+0000
 21
 3.38473778776097E+0000
  0
LINE
  8
1
  6
CONTINUOUS
 62
     1
 10
 3.57579497585903E+0000
 20
 3.33758647258946E+0000
 11
 3.56697323693152E+0000
 21
 3.32876473366196E+0000
  0
LINE
  8
1
  6
CONTINUOUS
 62
     1
 10
 3.57579497585903E+0000
 20
 3.35824067677459E+0000
 11
 3.54932975907650E+0000
 21
 3.33177545999570E+0000
  0
LINE
  8
1
  6
CONTINUOUS
 62
     1
 10
 3.57579497585903E+0000
 20
 3.37889488095971E+0000
 11
 3.53168628122512E+0000
 21
 3.33478618632580E+0000
  0
LINE
  8
1
  6
CONTINUOUS
 62
     1
 10
 3.56077659620132E+0000
 20
 3.38453070548712E+0000
 11
 3.51404280337010E+0000
 21
 3.33779691265590E+0000
  0
LINE
  8
1
  6
CONTINUOUS
 62
     1
 10
 3.53467945117154E+0000
 20
 3.37908776464246E+0000
 11
 3.49639932551872E+0000
 21
 3.34080763898965E+0000
  0
LINE
  8
1
  6
CONTINUOUS
 62
     1
 10
 3.50858230613812E+0000
 20
 3.37364482379417E+0000
 11
 3.47875584766371E+0000
 21
 3.34381836531975E+0000
  0
LINE
  8
1
  6
CONTINUOUS
 62
     1
 10
 3.48248516110834E+0000
 20
 3.36820188295314E+0000
 11
 3.46111236980869E+0000
 21
 3.34682909165349E+0000
  0
LINE
  8
1
  6
CONTINUOUS
 62
     1
 10
 3.45638801607492E+0000
 20
 3.36275894210485E+0000
 11
 3.44346889195731E+0000
 21
 3.34983981798359E+0000
  0
LINE
  8
1
  6
CONTINUOUS
 62
     1
 10
 3.43029087104514E+0000
 20
 3.35731600126019E+0000
 11
 3.42582541410229E+0000
 21
 3.35285054431733E+0000
  0
LINE
  8
1
  6
CONTINUOUS
 62
     1
 10
 6.73471401605639E+0000
 20
 3.35546378904837E+0000
 11
 6.73471401605639E+0000
 21
 3.35546378904837E+0000
  0
LINE
  8
1
  6
CONTINUOUS
 62
     1
 10
 6.73471401605639E+0000
 20
 3.35546378904837E+0000
 11
 6.57542468942120E+0000
 21
 3.38264531041204E+0000
  0
LINE
  8
1
  6
CONTINUOUS
 62
     1
 10
 6.57542468942120E+0000
 20
 3.38264531041204E+0000
 11
 6.57542468942120E+0000
 21
 3.32224167294044E+0000
  0
LINE
  8
1
  6
CONTINUOUS
 62
     1
 10
 6.57542468942120E+0000
 20
 3.32224167294044E+0000
 11
 6.73471401605639E+0000
 21
 3.35546378904837E+0000
  0
LINE
  8
1
  6
CONTINUOUS
 62
     1
 10
 6.57542468942120E+0000
 20
 3.38264531041204E+0000
 11
 6.57542468942120E+0000
 21
 3.32224167294044E+0000
  0
LINE
  8
1
  6
CONTINUOUS
 62
     1
 10
 6.58396962116967E+0000
 20
 3.32402384328816E+0000
 11
 6.57542468942120E+0000
 21
 3.33256877503663E+0000
  0
LINE
  8
1
  6
CONTINUOUS
 62
     1
 10
 6.60105948465934E+0000
 20
 3.32758818398725E+0000
 11
 6.57542468942120E+0000
 21
 3.35322297922175E+0000
  0
LINE
  8
1
  6
CONTINUOUS
 62
     1
 10
 6.61814934814902E+0000
 20
 3.33115252467906E+0000
 11
 6.57542468942120E+0000
 21
 3.37387718340688E+0000
  0
LINE
  8
1
  6
CONTINUOUS
 62
     1
 10
 6.63523921163869E+0000
 20
 3.33471686537450E+0000
 11
 6.58975635760726E+0000
 21
 3.38019971940230E+0000
  0
LINE
  8
1
  6
CONTINUOUS
 62
     1
 10
 6.65232907512836E+0000
 20
 3.33828120606995E+0000
 11
 6.61466021752858E+0000
 21
 3.37595006366973E+0000
  0
LINE
  8
1
  6
CONTINUOUS
 62
     1
 10
 6.66941893862531E+0000
 20
 3.34184554676176E+0000
 11
 6.63956407744990E+0000
 21
 3.37170040793353E+0000
  0
LINE
  8
1
  6
CONTINUOUS
 62
     1
 10
 6.68650880210771E+0000
 20
 3.34540988745721E+0000
 11
 6.66446793737123E+0000
 21
 3.36745075220097E+0000
  0
LINE
  8
1
  6
CONTINUOUS
 62
     1
 10
 6.70359866560466E+0000
 20
 3.34897422815266E+0000
 11
 6.68937179729255E+0000
 21
 3.36320109646476E+0000
  0
LINE
  8
1
  6
CONTINUOUS
 62
     1
 10
 6.72068852909433E+0000
 20
 3.35253856884810E+0000
 11
 6.71427565720660E+0000
 21
 3.35895144073220E+0000
  0
LINE
  8
1
  6
CONTINUOUS
 62
     1
 10
 6.72589227712160E+0000
 20
 3.35696915220979E+0000
 11
 6.72166544353240E+0000
 21
 3.35274231862422E+0000
  0
LINE
  8
1
  6
CONTINUOUS
 62
     1
 10
 6.70824879926658E+0000
 20
 3.35997987854353E+0000
 11
 6.69556829849898E+0000
 21
 3.34729937777593E+0000
  0
LINE
  8
1
  6
CONTINUOUS
 62
     1
 10
 6.69060532141157E+0000
 20
 3.36299060487363E+0000
 11
 6.66947115347284E+0000
 21
 3.34185643693127E+0000
  0
LINE
  8
1
  6
CONTINUOUS
 62
     1
 10
 6.67296184356383E+0000
 20
 3.36600133120737E+0000
 11
 6.64337400843942E+0000
 21
 3.33641349608297E+0000
  0
LINE
  8
1
  6
CONTINUOUS
 62
     1
 10
 6.65531836571608E+0000
 20
 3.36901205754475E+0000
 11
 6.61727686340600E+0000
 21
 3.33097055523467E+0000
  0
LINE
  8
1
  6
CONTINUOUS
 62
     1
 10
 6.63767488786107E+0000
 20
 3.37202278387485E+0000
 11
 6.59117971837259E+0000
 21
 3.32552761439001E+0000
  0
LINE
  8
1
  6
CONTINUOUS
 62
     1
 10
 6.62003141000605E+0000
 20
 3.37503351020860E+0000
 11
 6.57542468941392E+0000
 21
 3.33042678961647E+0000
  0
LINE
  8
1
  6
CONTINUOUS
 62
     1
 10
 6.60238793215103E+0000
 20
 3.37804423653870E+0000
 11
 6.57542468941392E+0000
 21
 3.35108099380159E+0000
  0
LINE
  8
1
  6
CONTINUOUS
 62
     1
 10
 6.58474445429601E+0000
 20
 3.38105496287244E+0000
 11
 6.57542468941392E+0000
 21
 3.37173519798671E+0000
  0
LINE
  8
1
  6
CONTINUOUS
 62
     1
 10
 6.73471401605639E+0000
 20
 3.35546378904837E+0000
 11
 6.73471401605639E+0000
 21
 3.35546378904837E+0000
  0
LINE
  8
1
  6
CONTINUOUS
 62
     1
 10
 6.73471401605639E+0000
 20
 3.35546378904837E+0000
 11
 6.57542468942120E+0000
 21
 3.38264531041204E+0000
  0
LINE
  8
1
  6
CONTINUOUS
 62
     1
 10
 6.57542468942120E+0000
 20
 3.38264531041204E+0000
 11
 6.57542468942120E+0000
 21
 3.32224167294044E+0000
  0
LINE
  8
1
  6
CONTINUOUS
 62
     1
 10
 6.57542468942120E+0000
 20
 3.32224167294044E+0000
 11
 6.73471401605639E+0000
 21
 3.35546378904837E+0000
  0
LINE
  8
1
  6
CONTINUOUS
 62
     1
 10
 6.57542468942120E+0000
 20
 3.38264531041204E+0000
 11
 6.57542468942120E+0000
 21
 3.32224167294044E+0000
  0
LINE
  8
1
  6
CONTINUOUS
 62
     1
 10
 6.58396962116967E+0000
 20
 3.32402384328816E+0000
 11
 6.57542468942120E+0000
 21
 3.33256877503663E+0000
  0
LINE
  8
1
  6
CONTINUOUS
 62
     1
 10
 6.60105948465934E+0000
 20
 3.32758818398725E+0000
 11
 6.57542468942120E+0000
 21
 3.35322297922175E+0000
  0
LINE
  8
1
  6
CONTINUOUS
 62
     1
 10
 6.61814934814902E+0000
 20
 3.33115252467906E+0000
 11
 6.57542468942120E+0000
 21
 3.37387718340688E+0000
  0
LINE
  8
1
  6
CONTINUOUS
 62
     1
 10
 6.63523921163869E+0000
 20
 3.33471686537450E+0000
 11
 6.58975635760726E+0000
 21
 3.38019971940230E+0000
  0
LINE
  8
1
  6
CONTINUOUS
 62
     1
 10
 6.65232907512836E+0000
 20
 3.33828120606995E+0000
 11
 6.61466021752858E+0000
 21
 3.37595006366973E+0000
  0
LINE
  8
1
  6
CONTINUOUS
 62
     1
 10
 6.66941893862531E+0000
 20
 3.34184554676176E+0000
 11
 6.63956407744990E+0000
 21
 3.37170040793353E+0000
  0
LINE
  8
1
  6
CONTINUOUS
 62
     1
 10
 6.68650880210771E+0000
 20
 3.34540988745721E+0000
 11
 6.66446793737123E+0000
 21
 3.36745075220097E+0000
  0
LINE
  8
1
  6
CONTINUOUS
 62
     1
 10
 6.70359866560466E+0000
 20
 3.34897422815266E+0000
 11
 6.68937179729255E+0000
 21
 3.36320109646476E+0000
  0
LINE
  8
1
  6
CONTINUOUS
 62
     1
 10
 6.72068852909433E+0000
 20
 3.35253856884810E+0000
 11
 6.71427565720660E+0000
 21
 3.35895144073220E+0000
  0
LINE
  8
1
  6
CONTINUOUS
 62
     1
 10
 6.72589227712160E+0000
 20
 3.35696915220979E+0000
 11
 6.72166544353240E+0000
 21
 3.35274231862422E+0000
  0
LINE
  8
1
  6
CONTINUOUS
 62
     1
 10
 6.70824879926658E+0000
 20
 3.35997987854353E+0000
 11
 6.69556829849898E+0000
 21
 3.34729937777593E+0000
  0
LINE
  8
1
  6
CONTINUOUS
 62
     1
 10
 6.69060532141157E+0000
 20
 3.36299060487363E+0000
 11
 6.66947115347284E+0000
 21
 3.34185643693127E+0000
  0
LINE
  8
1
  6
CONTINUOUS
 62
     1
 10
 6.67296184356383E+0000
 20
 3.36600133120737E+0000
 11
 6.64337400843942E+0000
 21
 3.33641349608297E+0000
  0
LINE
  8
1
  6
CONTINUOUS
 62
     1
 10
 6.65531836571608E+0000
 20
 3.36901205754475E+0000
 11
 6.61727686340600E+0000
 21
 3.33097055523467E+0000
  0
LINE
  8
1
  6
CONTINUOUS
 62
     1
 10
 6.63767488786107E+0000
 20
 3.37202278387485E+0000
 11
 6.59117971837259E+0000
 21
 3.32552761439001E+0000
  0
LINE
  8
1
  6
CONTINUOUS
 62
     1
 10
 6.62003141000605E+0000
 20
 3.37503351020860E+0000
 11
 6.57542468941392E+0000
 21
 3.33042678961647E+0000
  0
LINE
  8
1
  6
CONTINUOUS
 62
     1
 10
 6.60238793215103E+0000
 20
 3.37804423653870E+0000
 11
 6.57542468941392E+0000
 21
 3.35108099380159E+0000
  0
LINE
  8
1
  6
CONTINUOUS
 62
     1
 10
 6.58474445429601E+0000
 20
 3.38105496287244E+0000
 11
 6.57542468941392E+0000
 21
 3.37173519798671E+0000
  0
LINE
  8
1
  6
CONTINUOUS
 62
     1
 10
 6.73471401605639E+0000
 20
 3.14485733225956E+0000
 11
 6.73471401605639E+0000
 21
 3.14485733225956E+0000
  0
LINE
  8
1
  6
CONTINUOUS
 62
     1
 10
 6.73471401605639E+0000
 20
 3.14485733225956E+0000
 11
 6.57542468942120E+0000
 21
 3.17203885362323E+0000
  0
LINE
  8
1
  6
CONTINUOUS
 62
     1
 10
 6.57542468942120E+0000
 20
 3.17203885362323E+0000
 11
 6.57542468942120E+0000
 21
 3.11163521615163E+0000
  0
LINE
  8
1
  6
CONTINUOUS
 62
     1
 10
 6.57542468942120E+0000
 20
 3.11163521615163E+0000
 11
 6.73471401605639E+0000
 21
 3.14485733225956E+0000
  0
LINE
  8
1
  6
CONTINUOUS
 62
     1
 10
 6.57542468942120E+0000
 20
 3.17203885362323E+0000
 11
 6.57542468942120E+0000
 21
 3.11163521615163E+0000
  0
LINE
  8
1
  6
CONTINUOUS
 62
     1
 10
 6.58396962116967E+0000
 20
 3.11341738649935E+0000
 11
 6.57542468942847E+0000
 21
 3.12196231824419E+0000
  0
LINE
  8
1
  6
CONTINUOUS
 62
     1
 10
 6.60105948465934E+0000
 20
 3.11698172719480E+0000
 11
 6.57542468942120E+0000
 21
 3.14261652243295E+0000
  0
LINE
  8
1
  6
CONTINUOUS
 62
     1
 10
 6.61814934814902E+0000
 20
 3.12054606789025E+0000
 11
 6.57542468942120E+0000
 21
 3.16327072661807E+0000
  0
LINE
  8
1
  6
CONTINUOUS
 62
     1
 10
 6.63523921164597E+0000
 20
 3.12411040858206E+0000
 11
 6.58975635761453E+0000
 21
 3.16959326261349E+0000
  0
LINE
  8
1
  6
CONTINUOUS
 62
     1
 10
 6.65232907513564E+0000
 20
 3.12767474927750E+0000
 11
 6.61466021753586E+0000
 21
 3.16534360687729E+0000
  0
LINE
  8
1
  6
CONTINUOUS
 62
     1
 10
 6.66941893862531E+0000
 20
 3.13123908997295E+0000
 11
 6.63956407745718E+0000
 21
 3.16109395114108E+0000
  0
LINE
  8
1
  6
CONTINUOUS
 62
     1
 10
 6.68650880211499E+0000
 20
 3.13480343066840E+0000
 11
 6.66446793737123E+0000
 21
 3.15684429540852E+0000
  0
LINE
  8
1
  6
CONTINUOUS
 62
     1
 10
 6.70359866560466E+0000
 20
 3.13836777136385E+0000
 11
 6.68937179729255E+0000
 21
 3.15259463967232E+0000
  0
LINE
  8
1
  6
CONTINUOUS
 62
     1
 10
 6.72068852909433E+0000
 20
 3.14193211205566E+0000
 11
 6.71427565721388E+0000
 21
 3.14834498393611E+0000
  0
LINE
  8
1
  6
CONTINUOUS
 62
     1
 10
 6.72589227712160E+0000
 20
 3.14636269542098E+0000
 11
 6.72166544353968E+0000
 21
 3.14213586183178E+0000
  0
LINE
  8
1
  6
CONTINUOUS
 62
     1
 10
 6.70824879927386E+0000
 20
 3.14937342175108E+0000
 11
 6.69556829849898E+0000
 21
 3.13669292098348E+0000
  0
LINE
  8
1
  6
CONTINUOUS
 62
     1
 10
 6.69060532141884E+0000
 20
 3.15238414808482E+0000
 11
 6.66947115346557E+0000
 21
 3.13124998013518E+0000
  0
LINE
  8
1
  6
CONTINUOUS
 62
     1
 10
 6.67296184357110E+0000
 20
 3.15539487442220E+0000
 11
 6.64337400843942E+0000
 21
 3.12580703929416E+0000
  0
LINE
  8
1
  6
CONTINUOUS
 62
     1
 10
 6.65531836571608E+0000
 20
 3.15840560075230E+0000
 11
 6.61727686340600E+0000
 21
 3.12036409844586E+0000
  0
LINE
  8
1
  6
CONTINUOUS
 62
     1
 10
 6.63767488786107E+0000
 20
 3.16141632708604E+0000
 11
 6.59117971837986E+0000
 21
 3.11492115760120E+0000
  0
LINE
  8
1
  6
CONTINUOUS
 62
     1
 10
 6.62003141000605E+0000
 20
 3.16442705341615E+0000
 11
 6.57542468941392E+0000
 21
 3.11982033282038E+0000
  0
LINE
  8
1
  6
CONTINUOUS
 62
     1
 10
 6.60238793215103E+0000
 20
 3.16743777974989E+0000
 11
 6.57542468941392E+0000
 21
 3.14047453700550E+0000
  0
LINE
  8
1
  6
CONTINUOUS
 62
     1
 10
 6.58474445430329E+0000
 20
 3.17044850607999E+0000
 11
 6.57542468941392E+0000
 21
 3.16112874119426E+0000
  0
LINE
  8
1
  6
CONTINUOUS
 62
     1
 10
 6.73471401605639E+0000
 20
 3.14485733225956E+0000
 11
 6.73471401605639E+0000
 21
 3.14485733225956E+0000
  0
LINE
  8
1
  6
CONTINUOUS
 62
     1
 10
 6.73471401605639E+0000
 20
 3.14485733225956E+0000
 11
 6.57542468942120E+0000
 21
 3.17203885362323E+0000
  0
LINE
  8
1
  6
CONTINUOUS
 62
     1
 10
 6.57542468942120E+0000
 20
 3.17203885362323E+0000
 11
 6.57542468942120E+0000
 21
 3.11163521615163E+0000
  0
LINE
  8
1
  6
CONTINUOUS
 62
     1
 10
 6.57542468942120E+0000
 20
 3.11163521615163E+0000
 11
 6.73471401605639E+0000
 21
 3.14485733225956E+0000
  0
LINE
  8
1
  6
CONTINUOUS
 62
     1
 10
 6.57542468942120E+0000
 20
 3.17203885362323E+0000
 11
 6.57542468942120E+0000
 21
 3.11163521615163E+0000
  0
LINE
  8
1
  6
CONTINUOUS
 62
     1
 10
 6.58396962116967E+0000
 20
 3.11341738649935E+0000
 11
 6.57542468942847E+0000
 21
 3.12196231824419E+0000
  0
LINE
  8
1
  6
CONTINUOUS
 62
     1
 10
 6.60105948465934E+0000
 20
 3.11698172719480E+0000
 11
 6.57542468942120E+0000
 21
 3.14261652243295E+0000
  0
LINE
  8
1
  6
CONTINUOUS
 62
     1
 10
 6.61814934814902E+0000
 20
 3.12054606789025E+0000
 11
 6.57542468942120E+0000
 21
 3.16327072661807E+0000
  0
LINE
  8
1
  6
CONTINUOUS
 62
     1
 10
 6.63523921164597E+0000
 20
 3.12411040858206E+0000
 11
 6.58975635761453E+0000
 21
 3.16959326261349E+0000
  0
LINE
  8
1
  6
CONTINUOUS
 62
     1
 10
 6.65232907513564E+0000
 20
 3.12767474927750E+0000
 11
 6.61466021753586E+0000
 21
 3.16534360687729E+0000
  0
LINE
  8
1
  6
CONTINUOUS
 62
     1
 10
 6.66941893862531E+0000
 20
 3.13123908997295E+0000
 11
 6.63956407745718E+0000
 21
 3.16109395114108E+0000
  0
LINE
  8
1
  6
CONTINUOUS
 62
     1
 10
 6.68650880211499E+0000
 20
 3.13480343066840E+0000
 11
 6.66446793737123E+0000
 21
 3.15684429540852E+0000
  0
LINE
  8
1
  6
CONTINUOUS
 62
     1
 10
 6.70359866560466E+0000
 20
 3.13836777136385E+0000
 11
 6.68937179729255E+0000
 21
 3.15259463967232E+0000
  0
LINE
  8
1
  6
CONTINUOUS
 62
     1
 10
 6.72068852909433E+0000
 20
 3.14193211205566E+0000
 11
 6.71427565721388E+0000
 21
 3.14834498393611E+0000
  0
LINE
  8
1
  6
CONTINUOUS
 62
     1
 10
 6.72589227712160E+0000
 20
 3.14636269542098E+0000
 11
 6.72166544353968E+0000
 21
 3.14213586183178E+0000
  0
LINE
  8
1
  6
CONTINUOUS
 62
     1
 10
 6.70824879927386E+0000
 20
 3.14937342175108E+0000
 11
 6.69556829849898E+0000
 21
 3.13669292098348E+0000
  0
LINE
  8
1
  6
CONTINUOUS
 62
     1
 10
 6.69060532141884E+0000
 20
 3.15238414808482E+0000
 11
 6.66947115346557E+0000
 21
 3.13124998013518E+0000
  0
LINE
  8
1
  6
CONTINUOUS
 62
     1
 10
 6.67296184357110E+0000
 20
 3.15539487442220E+0000
 11
 6.64337400843942E+0000
 21
 3.12580703929416E+0000
  0
LINE
  8
1
  6
CONTINUOUS
 62
     1
 10
 6.65531836571608E+0000
 20
 3.15840560075230E+0000
 11
 6.61727686340600E+0000
 21
 3.12036409844586E+0000
  0
LINE
  8
1
  6
CONTINUOUS
 62
     1
 10
 6.63767488786107E+0000
 20
 3.16141632708604E+0000
 11
 6.59117971837986E+0000
 21
 3.11492115760120E+0000
  0
LINE
  8
1
  6
CONTINUOUS
 62
     1
 10
 6.62003141000605E+0000
 20
 3.16442705341615E+0000
 11
 6.57542468941392E+0000
 21
 3.11982033282038E+0000
  0
LINE
  8
1
  6
CONTINUOUS
 62
     1
 10
 6.60238793215103E+0000
 20
 3.16743777974989E+0000
 11
 6.57542468941392E+0000
 21
 3.14047453700550E+0000
  0
LINE
  8
1
  6
CONTINUOUS
 62
     1
 10
 6.58474445430329E+0000
 20
 3.17044850607999E+0000
 11
 6.57542468941392E+0000
 21
 3.16112874119426E+0000
  0
LINE
  8
1
  6
CONTINUOUS
 62
     1
 10
 6.74195842025074E+0000
 20
 2.83984108448567E+0000
 11
 6.74195842025074E+0000
 21
 2.83984108448567E+0000
  0
LINE
  8
1
  6
CONTINUOUS
 62
     1
 10
 6.74195842025074E+0000
 20
 2.83984108448567E+0000
 11
 6.58266909361555E+0000
 21
 2.86702260584934E+0000
  0
LINE
  8
1
  6
CONTINUOUS
 62
     1
 10
 6.58266909361555E+0000
 20
 2.86702260584934E+0000
 11
 6.58266909361555E+0000
 21
 2.80661896837773E+0000
  0
LINE
  8
1
  6
CONTINUOUS
 62
     1
 10
 6.58266909361555E+0000
 20
 2.80661896837773E+0000
 11
 6.74195842025074E+0000
 21
 2.83984108448567E+0000
  0
LINE
  8
1
  6
CONTINUOUS
 62
     1
 10
 6.58266909361555E+0000
 20
 2.86702260584934E+0000
 11
 6.58266909361555E+0000
 21
 2.80661896837773E+0000
  0
LINE
  8
1
  6
CONTINUOUS
 62
     1
 10
 6.59121402536402E+0000
 20
 2.80840113872546E+0000
 11
 6.58266909361555E+0000
 21
 2.81694607047029E+0000
  0
LINE
  8
1
  6
CONTINUOUS
 62
     1
 10
 6.60830388885370E+0000
 20
 2.81196547942091E+0000
 11
 6.58266909361555E+0000
 21
 2.83760027465178E+0000
  0
LINE
  8
1
  6
CONTINUOUS
 62
     1
 10
 6.62539375234337E+0000
 20
 2.81552982011272E+0000
 11
 6.58266909361555E+0000
 21
 2.85825447883690E+0000
  0
LINE
  8
1
  6
CONTINUOUS
 62
     1
 10
 6.64248361583304E+0000
 20
 2.81909416080816E+0000
 11
 6.59700076179433E+0000
 21
 2.86457701484687E+0000
  0
LINE
  8
1
  6
CONTINUOUS
 62
     1
 10
 6.65957347932272E+0000
 20
 2.82265850150361E+0000
 11
 6.62190462171566E+0000
 21
 2.86032735911067E+0000
  0
LINE
  8
1
  6
CONTINUOUS
 62
     1
 10
 6.67666334281239E+0000
 20
 2.82622284219906E+0000
 11
 6.64680848163698E+0000
 21
 2.85607770337447E+0000
  0
LINE
  8
1
  6
CONTINUOUS
 62
     1
 10
 6.69375320630206E+0000
 20
 2.82978718289451E+0000
 11
 6.67171234155830E+0000
 21
 2.85182804763826E+0000
  0
LINE
  8
1
  6
CONTINUOUS
 62
     1
 10
 6.71084306979901E+0000
 20
 2.83335152358632E+0000
 11
 6.69661620147963E+0000
 21
 2.84757839190206E+0000
  0
LINE
  8
1
  6
CONTINUOUS
 62
     1
 10
 6.72793293328141E+0000
 20
 2.83691586428540E+0000
 11
 6.72152006140095E+0000
 21
 2.84332873616586E+0000
  0
LINE
  8
1
  6
CONTINUOUS
 62
     1
 10
 6.73313668131595E+0000
 20
 2.84134644765072E+0000
 11
 6.72890984773403E+0000
 21
 2.83711961406516E+0000
  0
LINE
  8
1
  6
CONTINUOUS
 62
     1
 10
 6.71549320346821E+0000
 20
 2.84435717398446E+0000
 11
 6.70281270270061E+0000
 21
 2.83167667321686E+0000
  0
LINE
  8
1
  6
CONTINUOUS
 62
     1
 10
 6.69784972561320E+0000
 20
 2.84736790031457E+0000
 11
 6.67671555766719E+0000
 21
 2.82623373236856E+0000
  0
LINE
  8
1
  6
CONTINUOUS
 62
     1
 10
 6.68020624775818E+0000
 20
 2.85037862664831E+0000
 11
 6.65061841263378E+0000
 21
 2.82079079152027E+0000
  0
LINE
  8
1
  6
CONTINUOUS
 62
     1
 10
 6.66256276990316E+0000
 20
 2.85338935297841E+0000
 11
 6.62452126760036E+0000
 21
 2.81534785067561E+0000
  0
LINE
  8
1
  6
CONTINUOUS
 62
     1
 10
 6.64491929204814E+0000
 20
 2.85640007931215E+0000
 11
 6.59842412256694E+0000
 21
 2.80990490982731E+0000
  0
LINE
  8
1
  6
CONTINUOUS
 62
     1
 10
 6.62727581420040E+0000
 20
 2.85941080564226E+0000
 11
 6.58266909360827E+0000
 21
 2.81480408505377E+0000
  0
LINE
  8
1
  6
CONTINUOUS
 62
     1
 10
 6.60963233634538E+0000
 20
 2.86242153197600E+0000
 11
 6.58266909360827E+0000
 21
 2.83545828923889E+0000
  0
LINE
  8
1
  6
CONTINUOUS
 62
     1
 10
 6.59198885849037E+0000
 20
 2.86543225830610E+0000
 11
 6.58266909360827E+0000
 21
 2.85611249342401E+0000
  0
LINE
  8
1
  6
CONTINUOUS
 62
     1
 10
 6.74195842025074E+0000
 20
 2.83984108448567E+0000
 11
 6.74195842025074E+0000
 21
 2.83984108448567E+0000
  0
LINE
  8
1
  6
CONTINUOUS
 62
     1
 10
 6.74195842025074E+0000
 20
 2.83984108448567E+0000
 11
 6.58266909361555E+0000
 21
 2.86702260584934E+0000
  0
LINE
  8
1
  6
CONTINUOUS
 62
     1
 10
 6.58266909361555E+0000
 20
 2.86702260584934E+0000
 11
 6.58266909361555E+0000
 21
 2.80661896837773E+0000
  0
LINE
  8
1
  6
CONTINUOUS
 62
     1
 10
 6.58266909361555E+0000
 20
 2.80661896837773E+0000
 11
 6.74195842025074E+0000
 21
 2.83984108448567E+0000
  0
LINE
  8
1
  6
CONTINUOUS
 62
     1
 10
 6.58266909361555E+0000
 20
 2.86702260584934E+0000
 11
 6.58266909361555E+0000
 21
 2.80661896837773E+0000
  0
LINE
  8
1
  6
CONTINUOUS
 62
     1
 10
 6.59121402536402E+0000
 20
 2.80840113872546E+0000
 11
 6.58266909361555E+0000
 21
 2.81694607047029E+0000
  0
LINE
  8
1
  6
CONTINUOUS
 62
     1
 10
 6.60830388885370E+0000
 20
 2.81196547942091E+0000
 11
 6.58266909361555E+0000
 21
 2.83760027465178E+0000
  0
LINE
  8
1
  6
CONTINUOUS
 62
     1
 10
 6.62539375234337E+0000
 20
 2.81552982011272E+0000
 11
 6.58266909361555E+0000
 21
 2.85825447883690E+0000
  0
LINE
  8
1
  6
CONTINUOUS
 62
     1
 10
 6.64248361583304E+0000
 20
 2.81909416080816E+0000
 11
 6.59700076179433E+0000
 21
 2.86457701484687E+0000
  0
LINE
  8
1
  6
CONTINUOUS
 62
     1
 10
 6.65957347932272E+0000
 20
 2.82265850150361E+0000
 11
 6.62190462171566E+0000
 21
 2.86032735911067E+0000
  0
LINE
  8
1
  6
CONTINUOUS
 62
     1
 10
 6.67666334281239E+0000
 20
 2.82622284219906E+0000
 11
 6.64680848163698E+0000
 21
 2.85607770337447E+0000
  0
LINE
  8
1
  6
CONTINUOUS
 62
     1
 10
 6.69375320630206E+0000
 20
 2.82978718289451E+0000
 11
 6.67171234155830E+0000
 21
 2.85182804763826E+0000
  0
LINE
  8
1
  6
CONTINUOUS
 62
     1
 10
 6.71084306979901E+0000
 20
 2.83335152358632E+0000
 11
 6.69661620147963E+0000
 21
 2.84757839190206E+0000
  0
LINE
  8
1
  6
CONTINUOUS
 62
     1
 10
 6.72793293328141E+0000
 20
 2.83691586428540E+0000
 11
 6.72152006140095E+0000
 21
 2.84332873616586E+0000
  0
LINE
  8
1
  6
CONTINUOUS
 62
     1
 10
 6.73313668131595E+0000
 20
 2.84134644765072E+0000
 11
 6.72890984773403E+0000
 21
 2.83711961406516E+0000
  0
LINE
  8
1
  6
CONTINUOUS
 62
     1
 10
 6.71549320346821E+0000
 20
 2.84435717398446E+0000
 11
 6.70281270270061E+0000
 21
 2.83167667321686E+0000
  0
LINE
  8
1
  6
CONTINUOUS
 62
     1
 10
 6.69784972561320E+0000
 20
 2.84736790031457E+0000
 11
 6.67671555766719E+0000
 21
 2.82623373236856E+0000
  0
LINE
  8
1
  6
CONTINUOUS
 62
     1
 10
 6.68020624775818E+0000
 20
 2.85037862664831E+0000
 11
 6.65061841263378E+0000
 21
 2.82079079152027E+0000
  0
LINE
  8
1
  6
CONTINUOUS
 62
     1
 10
 6.66256276990316E+0000
 20
 2.85338935297841E+0000
 11
 6.62452126760036E+0000
 21
 2.81534785067561E+0000
  0
LINE
  8
1
  6
CONTINUOUS
 62
     1
 10
 6.64491929204814E+0000
 20
 2.85640007931215E+0000
 11
 6.59842412256694E+0000
 21
 2.80990490982731E+0000
  0
LINE
  8
1
  6
CONTINUOUS
 62
     1
 10
 6.62727581420040E+0000
 20
 2.85941080564226E+0000
 11
 6.58266909360827E+0000
 21
 2.81480408505377E+0000
  0
LINE
  8
1
  6
CONTINUOUS
 62
     1
 10
 6.60963233634538E+0000
 20
 2.86242153197600E+0000
 11
 6.58266909360827E+0000
 21
 2.83545828923889E+0000
  0
LINE
  8
1
  6
CONTINUOUS
 62
     1
 10
 6.59198885849037E+0000
 20
 2.86543225830610E+0000
 11
 6.58266909360827E+0000
 21
 2.85611249342401E+0000
  0
LINE
  8
1
  6
CONTINUOUS
 62
     1
 10
 6.74195842025074E+0000
 20
 2.31695608830705E+0000
 11
 6.74195842025074E+0000
 21
 2.31695608830705E+0000
  0
LINE
  8
1
  6
CONTINUOUS
 62
     1
 10
 6.74195842025074E+0000
 20
 2.31695608830705E+0000
 11
 6.58266909361555E+0000
 21
 2.34413760967072E+0000
  0
LINE
  8
1
  6
CONTINUOUS
 62
     1
 10
 6.58266909361555E+0000
 20
 2.34413760967072E+0000
 11
 6.58266909361555E+0000
 21
 2.28373397219912E+0000
  0
LINE
  8
1
  6
CONTINUOUS
 62
     1
 10
 6.58266909361555E+0000
 20
 2.28373397219912E+0000
 11
 6.74195842025074E+0000
 21
 2.31695608830705E+0000
  0
LINE
  8
1
  6
CONTINUOUS
 62
     1
 10
 6.58266909361555E+0000
 20
 2.34413760967072E+0000
 11
 6.58266909361555E+0000
 21
 2.28373397219912E+0000
  0
LINE
  8
1
  6
CONTINUOUS
 62
     1
 10
 6.59121402536402E+0000
 20
 2.28551614254684E+0000
 11
 6.58266909361555E+0000
 21
 2.29406107429168E+0000
  0
LINE
  8
1
  6
CONTINUOUS
 62
     1
 10
 6.60830388885370E+0000
 20
 2.28908048324229E+0000
 11
 6.58266909361555E+0000
 21
 2.31471527848043E+0000
  0
LINE
  8
1
  6
CONTINUOUS
 62
     1
 10
 6.62539375234337E+0000
 20
 2.29264482393774E+0000
 11
 6.58266909361555E+0000
 21
 2.33536948266556E+0000
  0
LINE
  8
1
  6
CONTINUOUS
 62
     1
 10
 6.64248361583304E+0000
 20
 2.29620916462954E+0000
 11
 6.59700076180889E+0000
 21
 2.34169201866098E+0000
  0
LINE
  8
1
  6
CONTINUOUS
 62
     1
 10
 6.65957347932272E+0000
 20
 2.29977350532499E+0000
 11
 6.62190462172293E+0000
 21
 2.33744236292841E+0000
  0
LINE
  8
1
  6
CONTINUOUS
 62
     1
 10
 6.67666334281967E+0000
 20
 2.30333784602044E+0000
 11
 6.64680848164426E+0000
 21
 2.33319270719221E+0000
  0
LINE
  8
1
  6
CONTINUOUS
 62
     1
 10
 6.69375320630934E+0000
 20
 2.30690218671589E+0000
 11
 6.67171234156558E+0000
 21
 2.32894305145965E+0000
  0
LINE
  8
1
  6
CONTINUOUS
 62
     1
 10
 6.71084306979901E+0000
 20
 2.31046652741134E+0000
 11
 6.69661620148690E+0000
 21
 2.32469339572344E+0000
  0
LINE
  8
1
  6
CONTINUOUS
 62
     1
 10
 6.72793293328868E+0000
 20
 2.31403086810678E+0000
 11
 6.72152006140095E+0000
 21
 2.32044373999088E+0000
  0
LINE
  8
1
  6
CONTINUOUS
 62
     1
 10
 6.73313668131595E+0000
 20
 2.31846145146847E+0000
 11
 6.72890984772675E+0000
 21
 2.31423461788290E+0000
  0
LINE
  8
1
  6
CONTINUOUS
 62
     1
 10
 6.71549320346094E+0000
 20
 2.32147217780221E+0000
 11
 6.70281270269334E+0000
 21
 2.30879167703461E+0000
  0
LINE
  8
1
  6
CONTINUOUS
 62
     1
 10
 6.69784972560592E+0000
 20
 2.32448290413231E+0000
 11
 6.67671555766719E+0000
 21
 2.30334873618995E+0000
  0
LINE
  8
1
  6
CONTINUOUS
 62
     1
 10
 6.68020624775818E+0000
 20
 2.32749363046969E+0000
 11
 6.65061841263378E+0000
 21
 2.29790579534165E+0000
  0
LINE
  8
1
  6
CONTINUOUS
 62
     1
 10
 6.66256276991044E+0000
 20
 2.33050435680343E+0000
 11
 6.62452126760036E+0000
 21
 2.29246285449699E+0000
  0
LINE
  8
1
  6
CONTINUOUS
 62
     1
 10
 6.64491929205542E+0000
 20
 2.33351508313353E+0000
 11
 6.59842412256694E+0000
 21
 2.28701991364869E+0000
  0
LINE
  8
1
  6
CONTINUOUS
 62
     1
 10
 6.62727581420040E+0000
 20
 2.33652580946728E+0000
 11
 6.58266909360827E+0000
 21
 2.29191908887515E+0000
  0
LINE
  8
1
  6
CONTINUOUS
 62
     1
 10
 6.60963233634538E+0000
 20
 2.33953653579738E+0000
 11
 6.58266909360827E+0000
 21
 2.31257329306027E+0000
  0
LINE
  8
1
  6
CONTINUOUS
 62
     1
 10
 6.59198885849037E+0000
 20
 2.34254726212748E+0000
 11
 6.58266909360827E+0000
 21
 2.33322749724539E+0000
  0
LINE
  8
1
  6
CONTINUOUS
 62
     1
 10
 6.74195842025074E+0000
 20
 2.31695608830705E+0000
 11
 6.74195842025074E+0000
 21
 2.31695608830705E+0000
  0
LINE
  8
1
  6
CONTINUOUS
 62
     1
 10
 6.74195842025074E+0000
 20
 2.31695608830705E+0000
 11
 6.58266909361555E+0000
 21
 2.34413760967072E+0000
  0
LINE
  8
1
  6
CONTINUOUS
 62
     1
 10
 6.58266909361555E+0000
 20
 2.34413760967072E+0000
 11
 6.58266909361555E+0000
 21
 2.28373397219912E+0000
  0
LINE
  8
1
  6
CONTINUOUS
 62
     1
 10
 6.58266909361555E+0000
 20
 2.28373397219912E+0000
 11
 6.74195842025074E+0000
 21
 2.31695608830705E+0000
  0
LINE
  8
1
  6
CONTINUOUS
 62
     1
 10
 6.58266909361555E+0000
 20
 2.34413760967072E+0000
 11
 6.58266909361555E+0000
 21
 2.28373397219912E+0000
  0
LINE
  8
1
  6
CONTINUOUS
 62
     1
 10
 6.59121402536402E+0000
 20
 2.28551614254684E+0000
 11
 6.58266909361555E+0000
 21
 2.29406107429168E+0000
  0
LINE
  8
1
  6
CONTINUOUS
 62
     1
 10
 6.60830388885370E+0000
 20
 2.28908048324229E+0000
 11
 6.58266909361555E+0000
 21
 2.31471527848043E+0000
  0
LINE
  8
1
  6
CONTINUOUS
 62
     1
 10
 6.62539375234337E+0000
 20
 2.29264482393774E+0000
 11
 6.58266909361555E+0000
 21
 2.33536948266556E+0000
  0
LINE
  8
1
  6
CONTINUOUS
 62
     1
 10
 6.64248361583304E+0000
 20
 2.29620916462954E+0000
 11
 6.59700076180889E+0000
 21
 2.34169201866098E+0000
  0
LINE
  8
1
  6
CONTINUOUS
 62
     1
 10
 6.65957347932272E+0000
 20
 2.29977350532499E+0000
 11
 6.62190462172293E+0000
 21
 2.33744236292841E+0000
  0
LINE
  8
1
  6
CONTINUOUS
 62
     1
 10
 6.67666334281967E+0000
 20
 2.30333784602044E+0000
 11
 6.64680848164426E+0000
 21
 2.33319270719221E+0000
  0
LINE
  8
1
  6
CONTINUOUS
 62
     1
 10
 6.69375320630934E+0000
 20
 2.30690218671589E+0000
 11
 6.67171234156558E+0000
 21
 2.32894305145965E+0000
  0
LINE
  8
1
  6
CONTINUOUS
 62
     1
 10
 6.71084306979901E+0000
 20
 2.31046652741134E+0000
 11
 6.69661620148690E+0000
 21
 2.32469339572344E+0000
  0
LINE
  8
1
  6
CONTINUOUS
 62
     1
 10
 6.72793293328868E+0000
 20
 2.31403086810678E+0000
 11
 6.72152006140095E+0000
 21
 2.32044373999088E+0000
  0
LINE
  8
1
  6
CONTINUOUS
 62
     1
 10
 6.73313668131595E+0000
 20
 2.31846145146847E+0000
 11
 6.72890984772675E+0000
 21
 2.31423461788290E+0000
  0
LINE
  8
1
  6
CONTINUOUS
 62
     1
 10
 6.71549320346094E+0000
 20
 2.32147217780221E+0000
 11
 6.70281270269334E+0000
 21
 2.30879167703461E+0000
  0
LINE
  8
1
  6
CONTINUOUS
 62
     1
 10
 6.69784972560592E+0000
 20
 2.32448290413231E+0000
 11
 6.67671555766719E+0000
 21
 2.30334873618995E+0000
  0
LINE
  8
1
  6
CONTINUOUS
 62
     1
 10
 6.68020624775818E+0000
 20
 2.32749363046969E+0000
 11
 6.65061841263378E+0000
 21
 2.29790579534165E+0000
  0
LINE
  8
1
  6
CONTINUOUS
 62
     1
 10
 6.66256276991044E+0000
 20
 2.33050435680343E+0000
 11
 6.62452126760036E+0000
 21
 2.29246285449699E+0000
  0
LINE
  8
1
  6
CONTINUOUS
 62
     1
 10
 6.64491929205542E+0000
 20
 2.33351508313353E+0000
 11
 6.59842412256694E+0000
 21
 2.28701991364869E+0000
  0
LINE
  8
1
  6
CONTINUOUS
 62
     1
 10
 6.62727581420040E+0000
 20
 2.33652580946728E+0000
 11
 6.58266909360827E+0000
 21
 2.29191908887515E+0000
  0
LINE
  8
1
  6
CONTINUOUS
 62
     1
 10
 6.60963233634538E+0000
 20
 2.33953653579738E+0000
 11
 6.58266909360827E+0000
 21
 2.31257329306027E+0000
  0
LINE
  8
1
  6
CONTINUOUS
 62
     1
 10
 6.59198885849037E+0000
 20
 2.34254726212748E+0000
 11
 6.58266909360827E+0000
 21
 2.33322749724539E+0000
  0
TEXT
  8
1
 62
     1
 10
 6.44930026912334E+0000
 20
 5.66366656062019E+0000
 40
 1.18110236219991E-0001
  1
16 x M5
  7
STANDARD
 11
 6.44930026912334E+0000
 21
 5.78177679683722E+0000
 50
 0.00000000000000E+0000
 41
 2.64318851725875E-0001
  0
TEXT
  8
1
 62
     1
 10
 4.77389337434579E+0000
 20
 5.32775782023964E+0000
 40
 1.18110236219991E-0001
  1
Nutbreite 5.02mm
  7
STANDARD
 11
 4.77389337434579E+0000
 21
 5.44586805645667E+0000
 50
 0.00000000000000E+0000
 41
 2.74643806869335E-0001
  0
TEXT
  8
1
 62
     1
 10
 5.74123859102838E+0000
 20
 4.87787158654828E+0000
 40
 1.18110236219991E-0001
  1
1,1
  7
STANDARD
 11
 5.74123859102838E+0000
 21
 4.99598182276532E+0000
 50
 0.00000000000000E+0000
 41
 2.56976661400131E-0001
  0
TEXT
  8
1
 62
     1
 10
 4.87145414600673E+0000
 20
 3.33351734302050E+0000
 40
 1.18110236219991E-0001
  1
85
  7
STANDARD
 11
 4.87145414600673E+0000
 21
 3.45162757924118E+0000
 50
 0.00000000000000E+0000
 41
 3.08371993680339E-0001
  0
TEXT
  8
1
 62
     1
 10
 4.44393297811621E+0000
 20
 3.14139671942394E+0000
 40
 1.18110236219991E-0001
  1
110
  7
STANDARD
 11
 4.44393297811621E+0000
 21
 3.25950695564461E+0000
 50
 0.00000000000000E+0000
 41
 3.08371993680339E-0001
  0
TEXT
  8
1
 62
     1
 10
 4.34073821345373E+0000
 20
 2.83843727452040E+0000
 40
 1.18110236219991E-0001
  1
116
  7
STANDARD
 11
 4.34073821345373E+0000
 21
 2.95654751074107E+0000
 50
 0.00000000000000E+0000
 41
 3.08371993680339E-0001
  0
TEXT
  8
1
 62
     1
 10
 3.98692759174810E+0000
 20
 2.35813571553081E+0000
 40
 1.18110236219991E-0001
  1
127
  7
STANDARD
 11
 3.98692759174810E+0000
 21
 2.47624595175148E+0000
 50
 0.00000000000000E+0000
 41
 3.08371993673973E-0001
  0
TEXT
  8
1
 62
     1
 10
 4.14909079336212E+0000
 20
 4.69314021770697E+0000
 40
 1.18110236219991E-0001
  1
32
  7
STANDARD
 11
 4.14909079336212E+0000
 21
 4.81125045392400E+0000
 50
 0.00000000000000E+0000
 41
 3.08371993680339E-0001
  0
TEXT
  8
1
 62
     1
 10
 3.48569587766542E+0000
 20
 4.84092531277565E+0000
 40
 1.18110236219991E-0001
  1
6
  7
STANDARD
 11
 3.48569587766542E+0000
 21
 4.95903554899269E+0000
 50
 0.00000000000000E+0000
 41
 3.08371993680339E-0001
  0
TEXT
  8
1
 62
     1
 10
 5.12944105766655E+0000
 20
 4.60446916065848E+0000
 40
 1.18110236219991E-0001
  1
3,5
  7
STANDARD
 11
 5.12944105766655E+0000
 21
 4.72257939687552E+0000
 50
 9.00000000000000E+0001
 41
 2.56976661400131E-0001
  0
TEXT
  8
1
 62
     1
 10
 6.97220471237961E+0000
 20
 3.86554368528596E+0000
 40
 1.18110236219991E-0001
  1
17 -0.01
  7
STANDARD
 11
 6.97220471237961E+0000
 21
 3.98365392150663E+0000
 50
 9.00000000000000E+0001
 41
 2.50552244865503E-0001
  0
TEXT
  8
1
 62
     1
 10
 2.89601150815724E+0000
 20
 3.83598666627222E+0000
 40
 1.18110236219991E-0001
  1
20 -0.01
  7
STANDARD
 11
 2.89601150815724E+0000
 21
 3.95409690249289E+0000
 50
 9.00000000000000E+0001
 41
 2.50552244862774E-0001
  0
TEXT
  8
1
 62
     1
 10
 2.58642721416618E+0000
 20
 3.78426188299636E+0000
 40
 1.18110236219991E-0001
  1
40 -0.02
  7
STANDARD
 11
 2.58642721416618E+0000
 21
 3.90237211921703E+0000
 50
 9.00000000000000E+0001
 41
 2.50552244862774E-0001
  0
TEXT
  8
1
 62
     1
 10
 1.18218436950701E+0000
 20
 3.79541489666371E+0000
 40
 1.18110236219991E-0001
  1
TK 56
  7
STANDARD
 11
 1.18218436950701E+0000
 21
 3.91352513288439E+0000
 50
 9.00000000000000E+0001
 41
 3.08371993678520E-0001
  0
TEXT
  8
1
 62
     1
 10
 8.57857966277152E-0001
 20
 3.78802564190846E+0000
 40
 1.18110236219991E-0001
  1
70 -0.01
  7
STANDARD
 11
 8.57857966277152E-0001
 21
 3.90613587812913E+0000
 50
 9.00000000000000E+0001
 41
 2.50552244864593E-0001
  0
TEXT
  8
1
 62
     1
 10
 4.45338075099426E+0000
 20
 3.57519047908136E+0000
 40
 1.18110236219991E-0001
  1
63
  7
STANDARD
 11
 4.45338075099426E+0000
 21
 3.69330071530203E+0000
 50
 0.00000000000000E+0000
 41
 3.08371993680339E-0001
  0
TEXT
  8
1
 62
     1
 10
 9.07593049293791E+0000
 20
 3.95127011263867E-0001
 40
 1.18110236219991E-0001
  1
(c)
  7
STANDARD
 11
 9.07593049293791E+0000
 21
 5.13237247483630E-0001
 50
 0.00000000000000E+0000
 41
 2.05581329120378E-0001
0
ENDSEC
0
EOF
