0
SECTION
  2
HEADER
  9
$LTSCALE
 40
     10
  9
$LIMMIN
 10
     0.0
 20
     0.0
  9
$LIMMAX
 10
      11.5
 20
       8.0
  9
$EXTMIN
 10
     0.0
 20
     0.0
  9
$EXTMAX
 10
      11.5
 20
       8.0
   9
$CLAYER
   8
1
   9
$CECOLOR
  62
     7
   9
$CELTYPE
   6
CONTINUOUS
  0
ENDSEC
  0
SECTION
  2
TABLES
  0
TABLE
  2
LTYPE
 70
    10
  0
LTYPE
  2
CONTINUOUS
 70
    64
  3
Solid line
 72
    65
 73
     0
 40
0.0
  0
LTYPE
  2
DASHED
 70
     0
  3
__ __ __ __ __ __ __ __ __ __ __ __ __ __ __
 72
    65
 73
     2
 40
0.75
 49
0.5
 49
-0.25
  0
LTYPE
  2
HIDDEN
 70
     0
  3
_ _ _ _ _ _ _ _ _ _ _ _ _ _ _ _ _ _ _ _ _ _
 72
    65
 73
     2
 40
0.375
 49
0.25
 49
-0.125
  0
LTYPE
  2
CENTER
 70
     0
  3
____ _ ____ _ ____ _ ____ _ ____ _ ____ _ __
 72
    65
 73
     4
 40
2.0
 49
1.25
 49
-0.25
 49
0.25
 49
-0.25
  0
LTYPE
  2
PHANTOM
 70
     0
  3
_____ _ _ _____ _ _ _____ _ _ _____ _ _ ____
 72
    65
 73
     6
 40
2.5
 49
1.25
 49
-0.25
 49
0.25
 49
-0.25
 49
0.25
 49
-0.25
  0
LTYPE
  2
DOT
 70
     0
  3
............................................
 72
    65
 73
     2
 40
0.25
 49
0.0
 49
-0.25
  0
LTYPE
  2
DASHDOT
 70
     0
  3
__ . __ . __ . __ . __ . __ . __ . __ . __ .
 72
    65
 73
     4
 40
1.0
 49
0.5
 49
-0.25
 49
0.0
 49
-0.25
  0
LTYPE
  2
BORDER
 70
     0
  3
__ __ . __ __ . __ __ . __ __ . __ __ . __ _
 72
    65
 73
     6
 40
1.75
 49
0.5
 49
-0.25
 49
0.5
 49
-0.25
 49
0.0
 49
-0.25
  0
LTYPE
  2
DIVIDE
 70
     0
  3
__ . . __ . . __ . . __ . . __ . . __ . . __
 72
    65
 73
     6
 40
1.25
 49
0.5
 49
-0.25
 49
0.0
 49
-0.25
 49
0.0
 49
-0.25
  0
LTYPE
  2
DIVIDE2
 70
     0
  3
close
 72
    65
 73
     2
 40
0.1
 49
0.05
 49
-0.05
  0
ENDTAB
0
TABLE
  2
LAYER
 70
   256
  0
LAYER
  2
1
 70
     0
  6
CONTINUOUS
 62
1
  0
ENDTAB
  0
TABLE
  2
STYLE
 70
     8
  0
STYLE
  2
TXT
 70
0
 40
0.0
 41
1.0
 50
0.0
 71
0
 42
1.0
  3
TXT
  4

  0
STYLE
  2
COMPLEX
 70
0
 40
0.0
 41
1.0
 50
0.0
 71
0
 42
1.0
  3
COMPLEX
  4

  0
STYLE
  2
ITALIC
 70
0
 40
0.0
 41
1.0
 50
0.0
 71
0
 42
1.0
  3
ITALIC
  4

  0
STYLE
  2
SIMPLEX
70
0
 40
0.0
 41
1.0
 50
0.0
 71
0
 42
1.0
  3
SIMPLEX
  4

  0
STYLE
  2
MONOTXT
 70
0
 40
0.0
 41
1.0
 50
0.0
 71
0
 42
1.0
  3
MONOTXT
  4

  0
STYLE
  2
SCRIPTC
 70
0
 40
0.0
 41
1.0
 50
0.0
 71
0
 42
1.0
  3
SCRIPTC
  4

  0
STYLE
  2
GOTHICE
 70
0
 40
0.0
 41
1.0
 50
0.0
 71
0
 42
1.0
  3
GOTHICE
  4

  0
ENDTAB
  0
TABLE
  2
VIEW
 70
     0
  0
ENDTAB
  0
ENDSEC
  0
SECTION
  2
ENTITIES
  0
LINE
  8
1
  6
CONTINUOUS
 62
     1
 10
 1.10824245900876E+0001
 20
 3.66054472739052E-0001
 11
 8.90078496305796E+0000
 21
 3.66054472739052E-0001
  0
LINE
  8
1
  6
CONTINUOUS
 62
     1
 10
 8.90078496305796E+0000
 20
 3.66054472739052E-0001
 11
 8.90078496305796E+0000
 21
 1.55291635594767E+0000
  0
LINE
  8
1
  6
CONTINUOUS
 62
     1
 10
 8.90078496305796E+0000
 20
 1.55291635594767E+0000
 11
 1.10824245900876E+0001
 21
 1.55291635594767E+0000
  0
LINE
  8
1
  6
CONTINUOUS
 62
     1
 10
 1.10824245900876E+0001
 20
 1.55291635594767E+0000
 11
 1.10824245900876E+0001
 21
 3.66054472739052E-0001
  0
LINE
  8
1
  6
CONTINUOUS
 62
     1
 10
 8.90010336294654E+0000
 20
 1.23953147667635E+0000
 11
 1.10833476808330E+0001
 21
 1.23953147667635E+0000
  0
LINE
  8
1
  6
CONTINUOUS
 62
     1
 10
 8.90774062665878E+0000
 20
 5.23861750931246E-0001
 11
 1.10909849445452E+0001
 21
 5.23861750931246E-0001
  0
TEXT
  8
1
 62
     1
 10
 8.94823287868348E+0000
 20
 1.35143637997317E+0000
 40
 1.18110236219991E-0001
  1
Benennung
  7
STANDARD
 11
 8.94823287868348E+0000
 21
 1.46954661619384E+0000
 50
 0.00000000000000E+0000
 41
 3.42292912985158E-0001
  0
LINE
  8
1
  6
CONTINUOUS
 62
     1
 10
 9.57264299190138E+0000
 20
 1.55147486233909E+0000
 11
 9.57264299190138E+0000
 21
 1.23953147667635E+0000
  0
LINE
  8
1
  6
CONTINUOUS
 62
     1
 10
 8.90010336294654E+0000
 20
 1.07349709398113E+0000
 11
 1.10833476808330E+0001
 21
 1.07349709398113E+0000
  0
LINE
  8
1
  6
CONTINUOUS
 62
     1
 10
 8.90010336294654E+0000
 20
 9.07462711285916E-0001
 11
 1.10833476808330E+0001
 21
 9.07462711285916E-0001
  0
TEXT
  8
1
 62
     1
 10
 8.95298969198484E+0000
 20
 1.08890528919073E+0000
 40
 1.18110236219991E-0001
  1
Werkstoff
  7
STANDARD
 11
 8.95298969198484E+0000
 21
 1.20701552541141E+0000
 50
 0.00000000000000E+0000
 41
 2.77534794312487E-0001
  0
LINE
  8
1
  6
CONTINUOUS
 62
     1
 10
 9.57264299190138E+0000
 20
 1.23953147667635E+0000
 11
 9.57264299190138E+0000
 21
 1.07349709398113E+0000
  0
LINE
  8
1
  6
CONTINUOUS
 62
     1
 10
 1.05011491960613E+0001
 20
 1.23953147667635E+0000
 11
 1.05011491960613E+0001
 21
 1.07349709398113E+0000
  0
TEXT
  8
1
 62
     1
 10
 1.05670323736267E+0001
 20
 1.08890528919073E+0000
 40
 1.18110236219991E-0001
  1
M 1:1
  7
STANDARD
 11
 1.05670323736267E+0001
 21
 1.20701552541141E+0000
 50
 0.00000000000000E+0000
 41
 2.83085490198573E-0001
  0
LINE
  8
1
  6
CONTINUOUS
 62
     1
 10
 8.90078496305796E+0000
 20
 1.55291635594767E+0000
 11
 1.10883666332957E+0001
 21
 1.55291635594767E+0000
  0
LINE
  8
1
  6
CONTINUOUS
 62
     1
 10
 8.90078496305796E+0000
 20
 1.55291635594767E+0000
 11
 1.10824245900876E+0001
 21
 1.55291635594767E+0000
  0
LINE
  8
1
  6
CONTINUOUS
 62
     1
 10
 1.10824245900876E+0001
 20
 1.55291635594767E+0000
 11
 1.10824245900876E+0001
 21
 3.66054472739052E-0001
  0
LINE
  8
1
  6
CONTINUOUS
 62
     1
 10
 1.10824245900876E+0001
 20
 3.66054472739052E-0001
 11
 8.90078496305796E+0000
 21
 3.66054472739052E-0001
  0
LINE
  8
1
  6
CONTINUOUS
 62
     1
 10
 8.90078496305796E+0000
 20
 3.66054472739052E-0001
 11
 8.90078496305796E+0000
 21
 1.55291635594767E+0000
  0
TEXT
  8
1
 62
     1
 10
 8.94643199958955E+0000
 20
 9.29817355409796E-0001
 40
 1.18110236219991E-0001
  1
Bearb.
  7
STANDARD
 11
 8.94643199958955E+0000
 21
 1.04792759162956E+0000
 50
 0.00000000000000E+0000
 41
 2.91411534028157E-0001
  0
LINE
  8
1
  6
CONTINUOUS
 62
     1
 10
 9.57372805119667E+0000
 20
 1.07462383869279E+0000
 11
 9.57372805119667E+0000
 21
 9.08513856978971E-0001
  0
LINE
  8
1
  6
CONTINUOUS
 62
     1
 10
 8.90204784499656E+0000
 20
 7.36471375930705E-0001
 11
 1.10827893074456E+0001
 21
 7.36471375930705E-0001
  0
LINE
  8
1
  6
CONTINUOUS
 62
     1
 10
 9.57372805119667E+0000
 20
 9.08513856978971E-0001
 11
 9.57372805119667E+0000
 21
 7.36471375930705E-0001
  0
TEXT
  8
1
 62
     1
 10
 8.94643199958955E+0000
 20
 7.54808624687030E-0001
 40
 1.18110236219991E-0001
  1
Datum
  7
STANDARD
 11
 8.94643199958955E+0000
 21
 8.72918860906793E-0001
 50
 0.00000000000000E+0000
 41
 3.49693840833424E-0001
  0
LINE
  8
1
  6
CONTINUOUS
 62
     1
 10
 1.04998774104170E+0001
 20
 5.19935149772209E-0001
 11
 1.04998774104170E+0001
 21
 3.68656416430895E-0001
  0
TEXT
  8
1
 62
     1
 10
 9.62994798035652E+0000
 20
 9.20918606393570E-0001
 40
 1.18110236219991E-0001
  1
D.Freind
  7
STANDARD
 11
 9.62994798035652E+0000
 21
 1.03902884261333E+0000
 50
 0.00000000000000E+0000
 41
 2.81003979241177E-0001
  0
TEXT
  8
1
 62
     1
 10
 1.05235489595507E+0001
 20
 3.84027415512719E-0001
 40
 1.18110236219991E-0001
  1
Blatt
  7
STANDARD
 11
 1.05235489595507E+0001
 21
 5.02137651732482E-0001
 50
 0.00000000000000E+0000
 41
 2.49781314881147E-0001
  0
TEXT
  8
1
 62
     1
 10
 9.04969655426976E+0000
 20
 5.46297824291287E-0001
 40
 1.18110236219991E-0001
  1
für Revolver 8-fach 
  7
STANDARD
 11
 9.04969655426976E+0000
 21
 6.64408060511050E-0001
 50
 0.00000000000000E+0000
 41
 2.53944336795939E-0001
  0
TEXT
  8
1
 62
     1
 10
 9.20532805070980E+0000
 20
 3.96612220787574E-0001
 40
 1.18110236219991E-0001
  1
www.cnc-projects.de.vu
  7
STANDARD
 11
 9.20532805070980E+0000
 21
 5.14722457007338E-0001
 50
 0.00000000000000E+0000
 41
 2.87626968650784E-0001
  0
TEXT
  8
1
 62
     1
 10
 9.62615454762999E+0000
 20
 7.51556989552228E-0001
 40
 1.18110236219991E-0001
  1
28.12.2003
  7
STANDARD
 11
 9.62615454762999E+0000
 21
 8.69667225771991E-0001
 50
 0.00000000000000E+0000
 41
 2.99737577857286E-0001
  0
TEXT
  8
1
 62
     1
 10
 1.08105639734713E+0001
 20
 3.87477489009143E-0001
 40
 1.18110236219991E-0001
  1
1
  7
STANDARD
 11
 1.08105639734713E+0001
 21
 5.05587725228906E-0001
 50
 0.00000000000000E+0000
 41
 3.33041753174712E-0001
  0
TEXT
  8
1
 62
     1
 10
 9.62073390952719E+0000
 20
 1.08846637811621E+0000
 40
 1.18110236219991E-0001
  1
42CrMo4
  7
STANDARD
 11
 9.62073390952719E+0000
 21
 1.20657661433688E+0000
 50
 0.00000000000000E+0000
 41
 3.33041753174712E-0001
  0
LINE
  8
1
  6
DASHDOT
 62
     1
 10
 2.10781109828895E+0000
 20
 4.24828037333646E+0000
 11
 6.08508137894387E+0000
 21
 4.24828037333646E+0000
  0
LINE
  8
1
  6
DASHDOT
 62
     1
 10
 4.08916186081478E+0000
 20
 6.33675645486801E+0000
 11
 4.08916186081478E+0000
 21
 2.58334139924409E+0000
  0
CIRCLE
  8
1
  6
CONTINUOUS
 62
     1
 10
 4.08641907809215E+0000
 20
 4.25018840990379E+0000
 40
 1.38005899931159E+0000
  0
CIRCLE
  8
1
  6
CONTINUOUS
 62
     1
 10
 4.08641907809215E+0000
 20
 4.25018840990379E+0000
 40
 7.93262259445328E-0001
  0
LINE
  8
1
  6
CONTINUOUS
 62
     1
 10
 4.86248229588819E+0000
 20
 4.09581983801763E+0000
 11
 5.43823164058267E+0000
 21
 3.98129617284576E+0000
  0
LINE
  8
1
  6
CONTINUOUS
 62
     1
 10
 4.85939415760367E+0000
 20
 4.40394271289551E+0000
 11
 5.44031197686127E+0000
 21
 4.51949445157516E+0000
  0
LINE
  8
1
  6
CONTINUOUS
 62
     1
 10
 4.86799474518193E+0000
 20
 4.12125681453472E+0000
 11
 5.44336431058764E+0000
 21
 4.00936581343558E+0000
  0
LINE
  8
1
  6
CONTINUOUS
 62
     1
 10
 5.44493635858089E+0000
 20
 4.49160026886238E+0000
 11
 4.86799474518193E+0000
 21
 4.37655740858463E+0000
  0
LINE
  8
1
  6
CONTINUOUS
 62
     1
 10
 4.52292696198128E+0000
 20
 4.90060967674799E+0000
 11
 4.85199047328933E+0000
 21
 5.39308802405139E+0000
  0
LINE
  8
1
  6
CONTINUOUS
 62
     1
 10
 4.87498457071342E+0000
 20
 5.37663378997240E+0000
 11
 4.54837283016241E+0000
 21
 4.88732687615993E+0000
  0
LINE
  8
1
  6
CONTINUOUS
 62
     1
 10
 4.72889761145780E+0000
 20
 4.70680209486454E+0000
 11
 5.21486421847658E+0000
 21
 5.03453093062126E+0000
  0
LINE
  8
1
  6
CONTINUOUS
 62
     1
 10
 4.74298637976608E+0000
 20
 4.68491754600109E+0000
 11
 5.23108310591488E+0000
 21
 5.01105335164902E+0000
  0
LINE
  8
1
  6
CONTINUOUS
 62
     1
 10
 3.93381214817782E+0000
 20
 5.01388801920257E+0000
 11
 3.81826040949818E+0000
 21
 5.59480583846016E+0000
  0
LINE
  8
1
  6
CONTINUOUS
 62
     1
 10
 3.84615459221095E+0000
 20
 5.59943022017978E+0000
 11
 3.96119745248870E+0000
 21
 5.02248860678083E+0000
  0
LINE
  8
1
  6
CONTINUOUS
 62
     1
 10
 4.21649804654589E+0000
 20
 5.02248860678083E+0000
 11
 4.32838904764503E+0000
 21
 5.59785817218653E+0000
  0
LINE
  8
1
  6
CONTINUOUS
 62
     1
 10
 4.24193502305570E+0000
 20
 5.01697615748708E+0000
 11
 4.35645868822758E+0000
 21
 5.59272550218157E+0000
  0
LINE
  8
1
  6
CONTINUOUS
 62
     1
 10
 3.43714518432898E+0000
 20
 4.67742082358018E+0000
 11
 2.94466683702194E+0000
 21
 5.00648433488823E+0000
  0
LINE
  8
1
  6
CONTINUOUS
 62
     1
 10
 2.96112107110093E+0000
 20
 5.02947843231232E+0000
 11
 3.45042798491340E+0000
 21
 4.70286669176130E+0000
  0
LINE
  8
1
  6
CONTINUOUS
 62
     1
 10
 3.63095276621243E+0000
 20
 4.88339147305669E+0000
 11
 3.30322393045572E+0000
 21
 5.36935808007547E+0000
  0
LINE
  8
1
  6
CONTINUOUS
 62
     1
 10
 3.65283731507225E+0000
 20
 4.89748024136497E+0000
 11
 3.32670150942431E+0000
 21
 5.38557696751377E+0000
  0
LINE
  8
1
  6
CONTINUOUS
 62
     1
 10
 3.32386684187077E+0000
 20
 4.08830600977672E+0000
 11
 2.74294902261681E+0000
 21
 3.97275427109707E+0000
  0
LINE
  8
1
  6
CONTINUOUS
 62
     1
 10
 2.73832464089719E+0000
 20
 4.00064845380984E+0000
 11
 3.31526625429251E+0000
 21
 4.11569131408760E+0000
  0
LINE
  8
1
  6
CONTINUOUS
 62
     1
 10
 3.31526625429615E+0000
 20
 4.37099190814479E+0000
 11
 2.73989668889044E+0000
 21
 4.48288290924393E+0000
  0
LINE
  8
1
  6
CONTINUOUS
 62
     1
 10
 3.32077870358989E+0000
 20
 4.39642888465460E+0000
 11
 2.74502935889177E+0000
 21
 4.51095254982647E+0000
  0
LINE
  8
1
  6
CONTINUOUS
 62
     1
 10
 3.66033403749316E+0000
 20
 3.59163904592788E+0000
 11
 3.33127052618511E+0000
 21
 3.09916069862447E+0000
  0
LINE
  8
1
  6
CONTINUOUS
 62
     1
 10
 3.30827642876102E+0000
 20
 3.11561493270347E+0000
 11
 3.63488816931203E+0000
 21
 3.60492184651230E+0000
  0
LINE
  8
1
  6
CONTINUOUS
 62
     1
 10
 3.45436338801665E+0000
 20
 3.78544662781133E+0000
 11
 2.96839678099786E+0000
 21
 3.45771779205825E+0000
  0
LINE
  8
1
  6
CONTINUOUS
 62
     1
 10
 3.44027461971200E+0000
 20
 3.80733117667114E+0000
 11
 2.95217789356320E+0000
 21
 3.48119537102320E+0000
  0
LINE
  8
1
  6
CONTINUOUS
 62
     1
 10
 4.24944885129662E+0000
 20
 3.47836070346966E+0000
 11
 4.36500058997626E+0000
 21
 2.89744288421571E+0000
  0
LINE
  8
1
  6
CONTINUOUS
 62
     1
 10
 4.33710640726349E+0000
 20
 2.89281850249972E+0000
 11
 4.22206354698574E+0000
 21
 3.46976011589140E+0000
  0
LINE
  8
1
  6
CONTINUOUS
 62
     1
 10
 3.96676295292855E+0000
 20
 3.46976011589504E+0000
 11
 3.85487195182941E+0000
 21
 2.89439055048933E+0000
  0
LINE
  8
1
  6
CONTINUOUS
 62
     1
 10
 3.94132597642238E+0000
 20
 3.47527256518879E+0000
 11
 3.82680231124687E+0000
 21
 2.89952322049430E+0000
  0
LINE
  8
1
  6
CONTINUOUS
 62
     1
 10
 4.74611581514910E+0000
 20
 3.81482789909205E+0000
 11
 5.23859416245250E+0000
 21
 3.48576438778400E+0000
  0
LINE
  8
1
  6
CONTINUOUS
 62
     1
 10
 5.22213992837351E+0000
 20
 3.46277029036355E+0000
 11
 4.73283301456104E+0000
 21
 3.78938203091093E+0000
  0
LINE
  8
1
  6
CONTINUOUS
 62
     1
 10
 4.55230823325837E+0000
 20
 3.60885724961554E+0000
 11
 4.88003706901509E+0000
 21
 3.12289064259676E+0000
  0
LINE
  8
1
  6
CONTINUOUS
 62
     1
 10
 4.53042368440219E+0000
 20
 3.59476848131089E+0000
 11
 4.85655949005013E+0000
 21
 3.10667175516210E+0000
  0
LINE
  8
1
  6
CONTINUOUS
 62
     1
 10
 4.85939415760367E+0000
 20
 4.40394271289551E+0000
 11
 5.44031197686127E+0000
 21
 4.51949445157516E+0000
  0
LINE
  8
1
  6
CONTINUOUS
 62
     1
 10
 5.44493635857361E+0000
 20
 4.49160026886238E+0000
 11
 4.86799474518193E+0000
 21
 4.37655740858463E+0000
  0
LINE
  8
1
  6
CONTINUOUS
 62
     1
 10
 4.86799474517466E+0000
 20
 4.12125681452744E+0000
 11
 5.44336431058764E+0000
 21
 4.00936581342830E+0000
  0
LINE
  8
1
  6
CONTINUOUS
 62
     1
 10
 4.86248229588091E+0000
 20
 4.09581983801763E+0000
 11
 5.43823164058267E+0000
 21
 3.98129617284576E+0000
  0
CIRCLE
  8
1
  6
DASHDOT
 62
     1
 10
 4.08641907809215E+0000
 20
 4.25018840990379E+0000
 40
 1.10096160691864E+0000
  0
LINE
  8
1
  6
DASHDOT
 62
     1
 10
 4.92900783968071E+0000
 20
 4.59929291912704E+0000
 11
 5.28483544016490E+0000
 21
 4.74715040603041E+0000
  0
CIRCLE
  8
1
  6
CONTINUOUS
 62
     1
 10
 5.10231247411139E+0000
 20
 4.67137344399089E+0000
 40
 1.99115962968790E-0001
  0
CIRCLE
  8
1
  6
CONTINUOUS
 62
     1
 10
 5.10231247411139E+0000
 20
 4.67137344399089E+0000
 40
 1.08776313107228E-0001
  0
CIRCLE
  8
1
  6
CONTINUOUS
 62
     1
 10
 4.50579762516281E+0000
 20
 5.26241952164128E+0000
 40
 1.08776313107228E-0001
  0
LINE
  8
1
  6
DASHDOT
 62
     1
 10
 4.43422137086600E+0000
 20
 5.08890601150051E+0000
 11
 4.58127844846604E+0000
 21
 5.44506515238027E+0000
  0
CIRCLE
  8
1
  6
CONTINUOUS
 62
     1
 10
 4.50579762516281E+0000
 20
 5.26241952164128E+0000
 40
 1.99115962968790E-0001
  0
CIRCLE
  8
1
  6
CONTINUOUS
 62
     1
 10
 3.66606524089366E+0000
 20
 5.25855251637404E+0000
 40
 1.08776313107228E-0001
  0
LINE
  8
1
  6
DASHDOT
 62
     1
 10
 3.73814576575387E+0000
 20
 5.08524788194336E+0000
 11
 3.59028827885049E+0000
 21
 5.44107548243483E+0000
  0
CIRCLE
  8
1
  6
CONTINUOUS
 62
     1
 10
 3.66606524089366E+0000
 20
 5.25855251637404E+0000
 40
 1.99115962968790E-0001
  0
CIRCLE
  8
1
  6
CONTINUOUS
 62
     1
 10
 3.07501916323963E+0000
 20
 4.66203766742547E+0000
 40
 1.08776313107228E-0001
  0
LINE
  8
1
  6
DASHDOT
 62
     1
 10
 3.24853267337676E+0000
 20
 4.59046141312865E+0000
 11
 2.89237353250064E+0000
 21
 4.73751849073597E+0000
  0
CIRCLE
  8
1
  6
CONTINUOUS
 62
     1
 10
 3.07501916323963E+0000
 20
 4.66203766742547E+0000
 40
 1.99115962968790E-0001
  0
CIRCLE
  8
1
  6
CONTINUOUS
 62
     1
 10
 3.07888616850687E+0000
 20
 3.82230528315631E+0000
 40
 1.08776313107228E-0001
  0
LINE
  8
1
  6
DASHDOT
 62
     1
 10
 3.25219080293755E+0000
 20
 3.89438580801652E+0000
 11
 2.89636320244608E+0000
 21
 3.74652832111678E+0000
  0
CIRCLE
  8
1
  6
CONTINUOUS
 62
     1
 10
 3.07888616850687E+0000
 20
 3.82230528315995E+0000
 40
 1.99115962968790E-0001
  0
CIRCLE
  8
1
  6
CONTINUOUS
 62
     1
 10
 3.67540101745544E+0000
 20
 3.23125920550228E+0000
 40
 1.08776313107228E-0001
  0
LINE
  8
1
  6
DASHDOT
 62
     1
 10
 3.74697727175226E+0000
 20
 3.40477271563941E+0000
 11
 3.59992019414494E+0000
 21
 3.04861357476329E+0000
  0
CIRCLE
  8
1
  6
CONTINUOUS
 62
     1
 10
 3.67540101745180E+0000
 20
 3.23125920550592E+0000
 40
 1.99115962968790E-0001
  0
CIRCLE
  8
1
  6
CONTINUOUS
 62
     1
 10
 4.51513340172824E+0000
 20
 3.23512621076952E+0000
 40
 1.08776313107228E-0001
  0
LINE
  8
1
  6
DASHDOT
 62
     1
 10
 4.44305287686439E+0000
 20
 3.40843084520020E+0000
 11
 4.59091036376776E+0000
 21
 3.05260324470873E+0000
  0
CIRCLE
  8
1
  6
CONTINUOUS
 62
     1
 10
 4.51513340172096E+0000
 20
 3.23512621076952E+0000
 40
 1.99115962968790E-0001
  0
CIRCLE
  8
1
  6
CONTINUOUS
 62
     1
 10
 5.10617947937862E+0000
 20
 3.83164105971809E+0000
 40
 1.08776313107228E-0001
  0
LINE
  8
1
  6
DASHDOT
 62
     1
 10
 4.93266596923786E+0000
 20
 3.90321731401491E+0000
 11
 5.28882511011761E+0000
 21
 3.75616023641123E+0000
  0
CIRCLE
  8
1
  6
CONTINUOUS
 62
     1
 10
 5.10617947937862E+0000
 20
 3.83164105971809E+0000
 40
 1.99115962968790E-0001
  0
CIRCLE
  8
1
  6
CONTINUOUS
 62
     1
 10
 5.10231247411139E+0000
 20
 4.67137344399089E+0000
 40
 1.08776313107228E-0001
  0
LINE
  8
1
  6
DASHDOT
 62
     1
 10
 4.92900783968071E+0000
 20
 4.59929291912704E+0000
 11
 5.28483544017217E+0000
 21
 4.74715040603041E+0000
  0
CIRCLE
  8
1
  6
CONTINUOUS
 62
     1
 10
 5.10231247411139E+0000
 20
 4.67137344399089E+0000
 40
 1.99115962968790E-0001
  0
LINE
  8
1
  6
DASHDOT
 62
     1
 10
 6.08508137894387E+0000
 20
 4.24828037333646E+0000
 11
 9.38120887213154E+0000
 21
 4.24828037333646E+0000
  0
LINE
  8
1
  6
CONTINUOUS
 62
     1
 10
 7.64029966159433E+0000
 20
 5.63061649778683E+0000
 11
 7.64029966159433E+0000
 21
 2.88048449019334E+0000
  0
LINE
  8
1
  6
DASHDOT
 62
     1
 10
 7.63944803417689E+0000
 20
 5.04295286873094E+0000
 11
 8.07742008226342E+0000
 21
 5.04295286873094E+0000
  0
LINE
  8
1
  6
DASHDOT
 62
     1
 10
 7.63944803417689E+0000
 20
 3.45779881635826E+0000
 11
 8.07742008226342E+0000
 21
 3.45779881635826E+0000
  0
LINE
  8
1
  6
DASHDOT
 62
     1
 10
 7.55412880403310E+0000
 20
 4.67232332411368E+0000
 11
 8.02054059550574E+0000
 21
 4.67232332411368E+0000
  0
ARC
  8
1
  6
CONTINUOUS
 62
     1
 10
 7.74560356308939E+0000
 20
 3.49196327952814E+0000
 40
 1.19307731525623E+0000
 50
 3.53011961835902E+0002
 51
 1.66343272213999E+0001
  0
LINE
  8
1
  6
CONTINUOUS
 62
     1
 10
 3.81826040949818E+0000
 20
 5.59480583846016E+0000
 11
 3.62480637297267E+0000
 21
 6.60453385765140E+0000
  0
LINE
  8
1
  6
CONTINUOUS
 62
     1
 10
 4.35645868822758E+0000
 20
 5.59272550218157E+0000
 11
 4.55171026655444E+0000
 21
 6.62330542421842E+0000
  0
ARC
  8
1
  6
CONTINUOUS
 62
     1
 10
 4.08824243178969E+0000
 20
 4.24768116333144E+0000
 40
 2.28351095167454E+0000
 50
 6.93804912656778E+0001
 51
 1.10249964497983E+0002
  0
LINE
  8
1
  6
CONTINUOUS
 62
     1
 10
 3.64062310790905E+0000
 20
 6.48479997663526E+0000
 11
 3.64062310790905E+0000
 21
 6.48479997663526E+0000
  0
LINE
  8
1
  6
CONTINUOUS
 62
     1
 10
 3.64062310790905E+0000
 20
 6.48479997663526E+0000
 11
 3.47909162926953E+0000
 21
 6.48038340666244E+0000
  0
LINE
  8
1
  6
CONTINUOUS
 62
     1
 10
 3.47909162926953E+0000
 20
 6.48038340666244E+0000
 11
 3.49087579435582E+0000
 21
 6.42114040814340E+0000
  0
LINE
  8
1
  6
CONTINUOUS
 62
     1
 10
 3.49087579435582E+0000
 20
 6.42114040814340E+0000
 11
 3.64062310790905E+0000
 21
 6.48479997663526E+0000
  0
LINE
  8
1
  6
CONTINUOUS
 62
     1
 10
 3.47909162926953E+0000
 20
 6.48038340666244E+0000
 11
 3.49087579435582E+0000
 21
 6.42114040814340E+0000
  0
LINE
  8
1
  6
CONTINUOUS
 62
     1
 10
 3.49812230759562E+0000
 20
 6.42422099700343E+0000
 11
 3.48831154515210E+0000
 21
 6.43403175944695E+0000
  0
LINE
  8
1
  6
CONTINUOUS
 62
     1
 10
 3.51261533406432E+0000
 20
 6.43038217472349E+0000
 11
 3.48318304673739E+0000
 21
 6.45981446204678E+0000
  0
LINE
  8
1
  6
CONTINUOUS
 62
     1
 10
 3.52710836053302E+0000
 20
 6.43654335243627E+0000
 11
 3.48315714750424E+0000
 21
 6.48049456546869E+0000
  0
LINE
  8
1
  6
CONTINUOUS
 62
     1
 10
 3.54160138700536E+0000
 20
 6.44270453014906E+0000
 11
 3.50326165713705E+0000
 21
 6.48104426002101E+0000
  0
LINE
  8
1
  6
CONTINUOUS
 62
     1
 10
 3.55609441347406E+0000
 20
 6.44886570786912E+0000
 11
 3.52336616677349E+0000
 21
 6.48159395456605E+0000
  0
LINE
  8
1
  6
CONTINUOUS
 62
     1
 10
 3.57058743994276E+0000
 20
 6.45502688558190E+0000
 11
 3.54347067640629E+0000
 21
 6.48214364911837E+0000
  0
LINE
  8
1
  6
CONTINUOUS
 62
     1
 10
 3.58508046641509E+0000
 20
 6.46118806329468E+0000
 11
 3.56357518604273E+0000
 21
 6.48269334367069E+0000
  0
LINE
  8
1
  6
CONTINUOUS
 62
     1
 10
 3.59957349288379E+0000
 20
 6.46734924101474E+0000
 11
 3.58367969567553E+0000
 21
 6.48324303822301E+0000
  0
LINE
  8
1
  6
CONTINUOUS
 62
     1
 10
 3.61406651935249E+0000
 20
 6.47351041872753E+0000
 11
 3.60378420530833E+0000
 21
 6.48379273277533E+0000
  0
LINE
  8
1
  6
CONTINUOUS
 62
     1
 10
 3.62855954582483E+0000
 20
 6.47967159644759E+0000
 11
 3.62388871494477E+0000
 21
 6.48434242732765E+0000
  0
LINE
  8
1
  6
CONTINUOUS
 62
     1
 10
 3.63000570637814E+0000
 20
 6.48450967719691E+0000
 11
 3.62265939200006E+0000
 21
 6.47716336281883E+0000
  0
LINE
  8
1
  6
CONTINUOUS
 62
     1
 10
 3.60877090332724E+0000
 20
 6.48392907832749E+0000
 11
 3.58673196019299E+0000
 21
 6.46189013519324E+0000
  0
LINE
  8
1
  6
CONTINUOUS
 62
     1
 10
 3.58753610027634E+0000
 20
 6.48334847946535E+0000
 11
 3.55080452838229E+0000
 21
 6.44661690756766E+0000
  0
LINE
  8
1
  6
CONTINUOUS
 62
     1
 10
 3.56630129721816E+0000
 20
 6.48276788058865E+0000
 11
 3.51487709657522E+0000
 21
 6.43134367994935E+0000
  0
LINE
  8
1
  6
CONTINUOUS
 62
     1
 10
 3.54506649416726E+0000
 20
 6.48218728172651E+0000
 11
 3.48973828189264E+0000
 21
 6.42685906944826E+0000
  0
LINE
  8
1
  6
CONTINUOUS
 62
     1
 10
 3.52383169111636E+0000
 20
 6.48160668285709E+0000
 11
 3.48631152880625E+0000
 21
 6.44408652055427E+0000
  0
LINE
  8
1
  6
CONTINUOUS
 62
     1
 10
 3.50259688805818E+0000
 20
 6.48102608398767E+0000
 11
 3.48288477572351E+0000
 21
 6.46131397165300E+0000
  0
LINE
  8
1
  6
CONTINUOUS
 62
     1
 10
 3.48136208500728E+0000
 20
 6.48044548511825E+0000
 11
 3.47945802264076E+0000
 21
 6.47854142275173E+0000
  0
LINE
  8
1
  6
CONTINUOUS
 62
     1
 10
 3.64062310790905E+0000
 20
 6.48479997663526E+0000
 11
 3.64062310790905E+0000
 21
 6.48479997663526E+0000
  0
LINE
  8
1
  6
CONTINUOUS
 62
     1
 10
 3.64062310790905E+0000
 20
 6.48479997663526E+0000
 11
 3.47909162926953E+0000
 21
 6.48038340666244E+0000
  0
LINE
  8
1
  6
CONTINUOUS
 62
     1
 10
 3.47909162926953E+0000
 20
 6.48038340666244E+0000
 11
 3.49087579435582E+0000
 21
 6.42114040814340E+0000
  0
LINE
  8
1
  6
CONTINUOUS
 62
     1
 10
 3.49087579435582E+0000
 20
 6.42114040814340E+0000
 11
 3.64062310790905E+0000
 21
 6.48479997663526E+0000
  0
LINE
  8
1
  6
CONTINUOUS
 62
     1
 10
 3.47909162926953E+0000
 20
 6.48038340666244E+0000
 11
 3.49087579435582E+0000
 21
 6.42114040814340E+0000
  0
LINE
  8
1
  6
CONTINUOUS
 62
     1
 10
 3.49812230759562E+0000
 20
 6.42422099700343E+0000
 11
 3.48831154515210E+0000
 21
 6.43403175944695E+0000
  0
LINE
  8
1
  6
CONTINUOUS
 62
     1
 10
 3.51261533406432E+0000
 20
 6.43038217472349E+0000
 11
 3.48318304673739E+0000
 21
 6.45981446204678E+0000
  0
LINE
  8
1
  6
CONTINUOUS
 62
     1
 10
 3.52710836053302E+0000
 20
 6.43654335243627E+0000
 11
 3.48315714750424E+0000
 21
 6.48049456546869E+0000
  0
LINE
  8
1
  6
CONTINUOUS
 62
     1
 10
 3.54160138700536E+0000
 20
 6.44270453014906E+0000
 11
 3.50326165713705E+0000
 21
 6.48104426002101E+0000
  0
LINE
  8
1
  6
CONTINUOUS
 62
     1
 10
 3.55609441347406E+0000
 20
 6.44886570786912E+0000
 11
 3.52336616677349E+0000
 21
 6.48159395456605E+0000
  0
LINE
  8
1
  6
CONTINUOUS
 62
     1
 10
 3.57058743994276E+0000
 20
 6.45502688558190E+0000
 11
 3.54347067640629E+0000
 21
 6.48214364911837E+0000
  0
LINE
  8
1
  6
CONTINUOUS
 62
     1
 10
 3.58508046641509E+0000
 20
 6.46118806329468E+0000
 11
 3.56357518604273E+0000
 21
 6.48269334367069E+0000
  0
LINE
  8
1
  6
CONTINUOUS
 62
     1
 10
 3.59957349288379E+0000
 20
 6.46734924101474E+0000
 11
 3.58367969567553E+0000
 21
 6.48324303822301E+0000
  0
LINE
  8
1
  6
CONTINUOUS
 62
     1
 10
 3.61406651935249E+0000
 20
 6.47351041872753E+0000
 11
 3.60378420530833E+0000
 21
 6.48379273277533E+0000
  0
LINE
  8
1
  6
CONTINUOUS
 62
     1
 10
 3.62855954582483E+0000
 20
 6.47967159644759E+0000
 11
 3.62388871494477E+0000
 21
 6.48434242732765E+0000
  0
LINE
  8
1
  6
CONTINUOUS
 62
     1
 10
 3.63000570637814E+0000
 20
 6.48450967719691E+0000
 11
 3.62265939200006E+0000
 21
 6.47716336281883E+0000
  0
LINE
  8
1
  6
CONTINUOUS
 62
     1
 10
 3.60877090332724E+0000
 20
 6.48392907832749E+0000
 11
 3.58673196019299E+0000
 21
 6.46189013519324E+0000
  0
LINE
  8
1
  6
CONTINUOUS
 62
     1
 10
 3.58753610027634E+0000
 20
 6.48334847946535E+0000
 11
 3.55080452838229E+0000
 21
 6.44661690756766E+0000
  0
LINE
  8
1
  6
CONTINUOUS
 62
     1
 10
 3.56630129721816E+0000
 20
 6.48276788058865E+0000
 11
 3.51487709657522E+0000
 21
 6.43134367994935E+0000
  0
LINE
  8
1
  6
CONTINUOUS
 62
     1
 10
 3.54506649416726E+0000
 20
 6.48218728172651E+0000
 11
 3.48973828189264E+0000
 21
 6.42685906944826E+0000
  0
LINE
  8
1
  6
CONTINUOUS
 62
     1
 10
 3.52383169111636E+0000
 20
 6.48160668285709E+0000
 11
 3.48631152880625E+0000
 21
 6.44408652055427E+0000
  0
LINE
  8
1
  6
CONTINUOUS
 62
     1
 10
 3.50259688805818E+0000
 20
 6.48102608398767E+0000
 11
 3.48288477572351E+0000
 21
 6.46131397165300E+0000
  0
LINE
  8
1
  6
CONTINUOUS
 62
     1
 10
 3.48136208500728E+0000
 20
 6.48044548511825E+0000
 11
 3.47945802264076E+0000
 21
 6.47854142275173E+0000
  0
LINE
  8
1
  6
CONTINUOUS
 62
     1
 10
 4.52700552435272E+0000
 20
 6.48208543812507E+0000
 11
 4.52700552435272E+0000
 21
 6.48208543812507E+0000
  0
LINE
  8
1
  6
CONTINUOUS
 62
     1
 10
 4.52700552435272E+0000
 20
 6.48208543812507E+0000
 11
 4.67793129949860E+0000
 21
 6.42435039604607E+0000
  0
LINE
  8
1
  6
CONTINUOUS
 62
     1
 10
 4.67793129949860E+0000
 20
 6.42435039604607E+0000
 11
 4.68971546457760E+0000
 21
 6.48359339455783E+0000
  0
LINE
  8
1
  6
CONTINUOUS
 62
     1
 10
 4.68971546457760E+0000
 20
 6.48359339455783E+0000
 11
 4.52700552435272E+0000
 21
 6.48208543812507E+0000
  0
LINE
  8
1
  6
CONTINUOUS
 62
     1
 10
 4.67793129949860E+0000
 20
 6.42435039604607E+0000
 11
 4.68971546457760E+0000
 21
 6.48359339455783E+0000
  0
LINE
  8
1
  6
CONTINUOUS
 62
     1
 10
 4.54373064108222E+0000
 20
 6.47568742349540E+0000
 11
 4.53723779622669E+0000
 21
 6.48218026835093E+0000
  0
LINE
  8
1
  6
CONTINUOUS
 62
     1
 10
 4.57718087453395E+0000
 20
 6.46289139422879E+0000
 11
 4.55770233996009E+0000
 21
 6.48236992880265E+0000
  0
LINE
  8
1
  6
CONTINUOUS
 62
     1
 10
 4.61063110799296E+0000
 20
 6.45009536496218E+0000
 11
 4.57816688369348E+0000
 21
 6.48255958925438E+0000
  0
LINE
  8
1
  6
CONTINUOUS
 62
     1
 10
 4.64408134144469E+0000
 20
 6.43729933568829E+0000
 11
 4.59863142743416E+0000
 21
 6.48274924969883E+0000
  0
LINE
  8
1
  6
CONTINUOUS
 62
     1
 10
 4.67753157489642E+0000
 20
 6.42450330642168E+0000
 11
 4.61909597116755E+0000
 21
 6.48293891015055E+0000
  0
LINE
  8
1
  6
CONTINUOUS
 62
     1
 10
 4.68131710346643E+0000
 20
 6.44137198203680E+0000
 11
 4.63956051490823E+0000
 21
 6.48312857060228E+0000
  0
LINE
  8
1
  6
CONTINUOUS
 62
     1
 10
 4.68474385654554E+0000
 20
 6.45859943314281E+0000
 11
 4.66002505864162E+0000
 21
 6.48331823104672E+0000
  0
LINE
  8
1
  6
CONTINUOUS
 62
     1
 10
 4.68817060962465E+0000
 20
 6.47582688424882E+0000
 11
 4.68048960237502E+0000
 21
 6.48350789149845E+0000
  0
LINE
  8
1
  6
CONTINUOUS
 62
     1
 10
 4.68049554869503E+0000
 20
 6.43724174733507E+0000
 11
 4.67046163696068E+0000
 21
 6.42720783560071E+0000
  0
LINE
  8
1
  6
CONTINUOUS
 62
     1
 10
 4.68562404710246E+0000
 20
 6.46302444992762E+0000
 11
 4.65552231189940E+0000
 21
 6.43292271472455E+0000
  0
LINE
  8
1
  6
CONTINUOUS
 62
     1
 10
 4.68549971701577E+0000
 20
 6.48355432402604E+0000
 11
 4.64058298683813E+0000
 21
 6.43863759384112E+0000
  0
LINE
  8
1
  6
CONTINUOUS
 62
     1
 10
 4.66465230403992E+0000
 20
 6.48336111523531E+0000
 11
 4.62564366176957E+0000
 21
 6.44435247296497E+0000
  0
LINE
  8
1
  6
CONTINUOUS
 62
     1
 10
 4.64380489106406E+0000
 20
 6.48316790644458E+0000
 11
 4.61070433670830E+0000
 21
 6.45006735208881E+0000
  0
LINE
  8
1
  6
CONTINUOUS
 62
     1
 10
 4.62295747809549E+0000
 20
 6.48297469766112E+0000
 11
 4.59576501164702E+0000
 21
 6.45578223120538E+0000
  0
LINE
  8
1
  6
CONTINUOUS
 62
     1
 10
 4.60211006511236E+0000
 20
 6.48278148886311E+0000
 11
 4.58082568657846E+0000
 21
 6.46149711032194E+0000
  0
LINE
  8
1
  6
CONTINUOUS
 62
     1
 10
 4.58126265214378E+0000
 20
 6.48258828007238E+0000
 11
 4.56588636150991E+0000
 21
 6.46721198944579E+0000
  0
LINE
  8
1
  6
CONTINUOUS
 62
     1
 10
 4.56041523916792E+0000
 20
 6.48239507128892E+0000
 11
 4.55094703644863E+0000
 21
 6.47292686856963E+0000
  0
LINE
  8
1
  6
CONTINUOUS
 62
     1
 10
 4.53956782619207E+0000
 20
 6.48220186249819E+0000
 11
 4.53600771138736E+0000
 21
 6.47864174769347E+0000
  0
LINE
  8
1
  6
CONTINUOUS
 62
     1
 10
 4.52700552435272E+0000
 20
 6.48208543812507E+0000
 11
 4.52700552435272E+0000
 21
 6.48208543812507E+0000
  0
LINE
  8
1
  6
CONTINUOUS
 62
     1
 10
 4.52700552435272E+0000
 20
 6.48208543812507E+0000
 11
 4.67793129949860E+0000
 21
 6.42435039604607E+0000
  0
LINE
  8
1
  6
CONTINUOUS
 62
     1
 10
 4.67793129949860E+0000
 20
 6.42435039604607E+0000
 11
 4.68971546457760E+0000
 21
 6.48359339455783E+0000
  0
LINE
  8
1
  6
CONTINUOUS
 62
     1
 10
 4.68971546457760E+0000
 20
 6.48359339455783E+0000
 11
 4.52700552435272E+0000
 21
 6.48208543812507E+0000
  0
LINE
  8
1
  6
CONTINUOUS
 62
     1
 10
 4.67793129949860E+0000
 20
 6.42435039604607E+0000
 11
 4.68971546457760E+0000
 21
 6.48359339455783E+0000
  0
LINE
  8
1
  6
CONTINUOUS
 62
     1
 10
 4.54373064108222E+0000
 20
 6.47568742349540E+0000
 11
 4.53723779622669E+0000
 21
 6.48218026835093E+0000
  0
LINE
  8
1
  6
CONTINUOUS
 62
     1
 10
 4.57718087453395E+0000
 20
 6.46289139422879E+0000
 11
 4.55770233996009E+0000
 21
 6.48236992880265E+0000
  0
LINE
  8
1
  6
CONTINUOUS
 62
     1
 10
 4.61063110799296E+0000
 20
 6.45009536496218E+0000
 11
 4.57816688369348E+0000
 21
 6.48255958925438E+0000
  0
LINE
  8
1
  6
CONTINUOUS
 62
     1
 10
 4.64408134144469E+0000
 20
 6.43729933568829E+0000
 11
 4.59863142743416E+0000
 21
 6.48274924969883E+0000
  0
LINE
  8
1
  6
CONTINUOUS
 62
     1
 10
 4.67753157489642E+0000
 20
 6.42450330642168E+0000
 11
 4.61909597116755E+0000
 21
 6.48293891015055E+0000
  0
LINE
  8
1
  6
CONTINUOUS
 62
     1
 10
 4.68131710346643E+0000
 20
 6.44137198203680E+0000
 11
 4.63956051490823E+0000
 21
 6.48312857060228E+0000
  0
LINE
  8
1
  6
CONTINUOUS
 62
     1
 10
 4.68474385654554E+0000
 20
 6.45859943314281E+0000
 11
 4.66002505864162E+0000
 21
 6.48331823104672E+0000
  0
LINE
  8
1
  6
CONTINUOUS
 62
     1
 10
 4.68817060962465E+0000
 20
 6.47582688424882E+0000
 11
 4.68048960237502E+0000
 21
 6.48350789149845E+0000
  0
LINE
  8
1
  6
CONTINUOUS
 62
     1
 10
 4.68049554869503E+0000
 20
 6.43724174733507E+0000
 11
 4.67046163696068E+0000
 21
 6.42720783560071E+0000
  0
LINE
  8
1
  6
CONTINUOUS
 62
     1
 10
 4.68562404710246E+0000
 20
 6.46302444992762E+0000
 11
 4.65552231189940E+0000
 21
 6.43292271472455E+0000
  0
LINE
  8
1
  6
CONTINUOUS
 62
     1
 10
 4.68549971701577E+0000
 20
 6.48355432402604E+0000
 11
 4.64058298683813E+0000
 21
 6.43863759384112E+0000
  0
LINE
  8
1
  6
CONTINUOUS
 62
     1
 10
 4.66465230403992E+0000
 20
 6.48336111523531E+0000
 11
 4.62564366176957E+0000
 21
 6.44435247296497E+0000
  0
LINE
  8
1
  6
CONTINUOUS
 62
     1
 10
 4.64380489106406E+0000
 20
 6.48316790644458E+0000
 11
 4.61070433670830E+0000
 21
 6.45006735208881E+0000
  0
LINE
  8
1
  6
CONTINUOUS
 62
     1
 10
 4.62295747809549E+0000
 20
 6.48297469766112E+0000
 11
 4.59576501164702E+0000
 21
 6.45578223120538E+0000
  0
LINE
  8
1
  6
CONTINUOUS
 62
     1
 10
 4.60211006511236E+0000
 20
 6.48278148886311E+0000
 11
 4.58082568657846E+0000
 21
 6.46149711032194E+0000
  0
LINE
  8
1
  6
CONTINUOUS
 62
     1
 10
 4.58126265214378E+0000
 20
 6.48258828007238E+0000
 11
 4.56588636150991E+0000
 21
 6.46721198944579E+0000
  0
LINE
  8
1
  6
CONTINUOUS
 62
     1
 10
 4.56041523916792E+0000
 20
 6.48239507128892E+0000
 11
 4.55094703644863E+0000
 21
 6.47292686856963E+0000
  0
LINE
  8
1
  6
CONTINUOUS
 62
     1
 10
 4.53956782619207E+0000
 20
 6.48220186249819E+0000
 11
 4.53600771138736E+0000
 21
 6.47864174769347E+0000
  0
LINE
  8
1
  6
CONTINUOUS
 62
     1
 10
 8.90261299241683E+0000
 20
 3.71469740482280E+0000
 11
 8.90261299241683E+0000
 21
 3.71469740482280E+0000
  0
LINE
  8
1
  6
CONTINUOUS
 62
     1
 10
 8.90261299241683E+0000
 20
 3.71469740482280E+0000
 11
 8.89819642245129E+0000
 21
 3.87622888346232E+0000
  0
LINE
  8
1
  6
CONTINUOUS
 62
     1
 10
 8.89819642245129E+0000
 20
 3.87622888346232E+0000
 11
 8.83895342392498E+0000
 21
 3.86444471837603E+0000
  0
LINE
  8
1
  6
CONTINUOUS
 62
     1
 10
 8.83895342392498E+0000
 20
 3.86444471837603E+0000
 11
 8.90261299241683E+0000
 21
 3.71469740482280E+0000
  0
LINE
  8
1
  6
CONTINUOUS
 62
     1
 10
 8.89819642245129E+0000
 20
 3.87622888346232E+0000
 11
 8.83895342392498E+0000
 21
 3.86444471837603E+0000
  0
LINE
  8
1
  6
CONTINUOUS
 62
     1
 10
 8.90232269298576E+0000
 20
 3.72531480635735E+0000
 11
 8.89497637859313E+0000
 21
 3.73266112074270E+0000
  0
LINE
  8
1
  6
CONTINUOUS
 62
     1
 10
 8.90174209412362E+0000
 20
 3.74654960940461E+0000
 11
 8.87970315097482E+0000
 21
 3.76858855254977E+0000
  0
LINE
  8
1
  6
CONTINUOUS
 62
     1
 10
 8.90116149524692E+0000
 20
 3.76778441245551E+0000
 11
 8.86442992335651E+0000
 21
 3.80451598435684E+0000
  0
LINE
  8
1
  6
CONTINUOUS
 62
     1
 10
 8.90058089638478E+0000
 20
 3.78901921550641E+0000
 11
 8.84915669572365E+0000
 21
 3.84044341616755E+0000
  0
LINE
  8
1
  6
CONTINUOUS
 62
     1
 10
 8.90000029752264E+0000
 20
 3.81025401855732E+0000
 11
 8.84467208523711E+0000
 21
 3.86558223083921E+0000
  0
LINE
  8
1
  6
CONTINUOUS
 62
     1
 10
 8.89941969866049E+0000
 20
 3.83148882160822E+0000
 11
 8.86189953635039E+0000
 21
 3.86900898392196E+0000
  0
LINE
  8
1
  6
CONTINUOUS
 62
     1
 10
 8.89883909979835E+0000
 20
 3.85272362465548E+0000
 11
 8.87912698744913E+0000
 21
 3.87243573700471E+0000
  0
LINE
  8
1
  6
CONTINUOUS
 62
     1
 10
 8.89825850092166E+0000
 20
 3.87395842771002E+0000
 11
 8.89635443854786E+0000
 21
 3.87586249008746E+0000
  0
LINE
  8
1
  6
CONTINUOUS
 62
     1
 10
 8.90233814514067E+0000
 20
 3.72474965963920E+0000
 11
 8.89953240354953E+0000
 21
 3.72194391805533E+0000
  0
LINE
  8
1
  6
CONTINUOUS
 62
     1
 10
 8.90178845058836E+0000
 20
 3.74485416927564E+0000
 11
 8.89337122582947E+0000
 21
 3.73643694452039E+0000
  0
LINE
  8
1
  6
CONTINUOUS
 62
     1
 10
 8.90123875603604E+0000
 20
 3.76495867890844E+0000
 11
 8.88721004810941E+0000
 21
 3.75092997098909E+0000
  0
LINE
  8
1
  6
CONTINUOUS
 62
     1
 10
 8.90068906148372E+0000
 20
 3.78506318854488E+0000
 11
 8.88104887040390E+0000
 21
 3.76542299746507E+0000
  0
LINE
  8
1
  6
CONTINUOUS
 62
     1
 10
 8.90013936693140E+0000
 20
 3.80516769817768E+0000
 11
 8.87488769268384E+0000
 21
 3.77991602393013E+0000
  0
LINE
  8
1
  6
CONTINUOUS
 62
     1
 10
 8.89958967237908E+0000
 20
 3.82527220781412E+0000
 11
 8.86872651496378E+0000
 21
 3.79440905039883E+0000
  0
LINE
  8
1
  6
CONTINUOUS
 62
     1
 10
 8.89903997782676E+0000
 20
 3.84537671744692E+0000
 11
 8.86256533725827E+0000
 21
 3.80890207687480E+0000
  0
LINE
  8
1
  6
CONTINUOUS
 62
     1
 10
 8.89849028328899E+0000
 20
 3.86548122708336E+0000
 11
 8.85640415953822E+0000
 21
 3.82339510333986E+0000
  0
LINE
  8
1
  6
CONTINUOUS
 62
     1
 10
 8.88619687760365E+0000
 20
 3.87384202559042E+0000
 11
 8.85024298183271E+0000
 21
 3.83788812981948E+0000
  0
LINE
  8
1
  6
CONTINUOUS
 62
     1
 10
 8.86041417501110E+0000
 20
 3.86871352717571E+0000
 11
 8.84408180411265E+0000
 21
 3.85238115628454E+0000
  0
LINE
  8
1
  6
CONTINUOUS
 62
     1
 10
 8.93145771835407E+0000
 20
 3.48091560773901E+0000
 11
 8.93145771835407E+0000
 21
 3.48091560773901E+0000
  0
LINE
  8
1
  6
CONTINUOUS
 62
     1
 10
 8.93145771835407E+0000
 20
 3.48091560773901E+0000
 11
 8.90427619699039E+0000
 21
 3.32162628111109E+0000
  0
LINE
  8
1
  6
CONTINUOUS
 62
     1
 10
 8.90427619699039E+0000
 20
 3.32162628111109E+0000
 11
 8.96467983446200E+0000
 21
 3.32162628111109E+0000
  0
LINE
  8
1
  6
CONTINUOUS
 62
     1
 10
 8.96467983446200E+0000
 20
 3.32162628111109E+0000
 11
 8.93145771835407E+0000
 21
 3.48091560773901E+0000
  0
LINE
  8
1
  6
CONTINUOUS
 62
     1
 10
 8.90427619699039E+0000
 20
 3.32162628111109E+0000
 11
 8.96467983446200E+0000
 21
 3.32162628111109E+0000
  0
LINE
  8
1
  6
CONTINUOUS
 62
     1
 10
 8.91460329909751E+0000
 20
 3.32162628111837E+0000
 11
 8.90578156017000E+0000
 21
 3.33044802005315E+0000
  0
LINE
  8
1
  6
CONTINUOUS
 62
     1
 10
 8.93525750328263E+0000
 20
 3.32162628111473E+0000
 11
 8.90879228650010E+0000
 21
 3.34809149790453E+0000
  0
LINE
  8
1
  6
CONTINUOUS
 62
     1
 10
 8.95591170746775E+0000
 20
 3.32162628111473E+0000
 11
 8.91180301283021E+0000
 21
 3.36573497575955E+0000
  0
LINE
  8
1
  6
CONTINUOUS
 62
     1
 10
 8.96154753198789E+0000
 20
 3.33664466079063E+0000
 11
 8.91481373916031E+0000
 21
 3.38337845361093E+0000
  0
LINE
  8
1
  6
CONTINUOUS
 62
     1
 10
 8.95610459113959E+0000
 20
 3.36274180582041E+0000
 11
 8.91782446549041E+0000
 21
 3.40102193146595E+0000
  0
LINE
  8
1
  6
CONTINUOUS
 62
     1
 10
 8.95066165029129E+0000
 20
 3.38883895085382E+0000
 11
 8.92083519183507E+0000
 21
 3.41866540931733E+0000
  0
LINE
  8
1
  6
CONTINUOUS
 62
     1
 10
 8.94521870944300E+0000
 20
 3.41493609588724E+0000
 11
 8.92384591816517E+0000
 21
 3.43630888716871E+0000
  0
LINE
  8
1
  6
CONTINUOUS
 62
     1
 10
 8.93977576859470E+0000
 20
 3.44103324091702E+0000
 11
 8.92685664449527E+0000
 21
 3.45395236502372E+0000
  0
LINE
  8
1
  6
CONTINUOUS
 62
     1
 10
 8.93433282774640E+0000
 20
 3.46713038595044E+0000
 11
 8.92986737082538E+0000
 21
 3.47159584287874E+0000
  0
LINE
  8
1
  6
CONTINUOUS
 62
     1
 10
 8.96289766411064E+0000
 20
 3.33017121285593E+0000
 11
 8.95435273235489E+0000
 21
 3.32162628110746E+0000
  0
LINE
  8
1
  6
CONTINUOUS
 62
     1
 10
 8.95933332342247E+0000
 20
 3.34726107634924E+0000
 11
 8.93369852816977E+0000
 21
 3.32162628110746E+0000
  0
LINE
  8
1
  6
CONTINUOUS
 62
     1
 10
 8.95576898271975E+0000
 20
 3.36435093984255E+0000
 11
 8.91304432398465E+0000
 21
 3.32162628110746E+0000
  0
LINE
  8
1
  6
CONTINUOUS
 62
     1
 10
 8.95220464203157E+0000
 20
 3.38144080333223E+0000
 11
 8.90672178799286E+0000
 21
 3.33595794928988E+0000
  0
LINE
  8
1
  6
CONTINUOUS
 62
     1
 10
 8.94864030132885E+0000
 20
 3.39853066681462E+0000
 11
 8.91097144372179E+0000
 21
 3.36086180921120E+0000
  0
LINE
  8
1
  6
CONTINUOUS
 62
     1
 10
 8.94507596062613E+0000
 20
 3.41562053030430E+0000
 11
 8.91522109946527E+0000
 21
 3.38576566913252E+0000
  0
LINE
  8
1
  6
CONTINUOUS
 62
     1
 10
 8.94151161993796E+0000
 20
 3.43271039379761E+0000
 11
 8.91947075519420E+0000
 21
 3.41066952905385E+0000
  0
LINE
  8
1
  6
CONTINUOUS
 62
     1
 10
 8.93794727924978E+0000
 20
 3.44980025728728E+0000
 11
 8.92372041093768E+0000
 21
 3.43557338897517E+0000
  0
LINE
  8
1
  6
CONTINUOUS
 62
     1
 10
 8.93438293854706E+0000
 20
 3.46689012078059E+0000
 11
 8.92797006666660E+0000
 21
 3.46047724889286E+0000
  0
LINE
  8
1
  6
CONTINUOUS
 62
     1
 10
 7.64029966159433E+0000
 20
 5.63061649778683E+0000
 11
 6.75908886224352E+0000
 21
 5.63061649778683E+0000
  0
LINE
  8
1
  6
CONTINUOUS
 62
     1
 10
 6.75908886224352E+0000
 20
 5.63061649778683E+0000
 11
 6.75908886224352E+0000
 21
 2.88091307664581E+0000
  0
LINE
  8
1
  6
CONTINUOUS
 62
     1
 10
 6.75908886224352E+0000
 20
 2.88091307664581E+0000
 11
 7.63985755772592E+0000
 21
 2.88091307664581E+0000
  0
LINE
  8
1
  6
CONTINUOUS
 62
     1
 10
 7.63944803417689E+0000
 20
 5.04295286873094E+0000
 11
 7.20305357053439E+0000
 21
 5.04295286873094E+0000
  0
LINE
  8
1
  6
CONTINUOUS
 62
     1
 10
 7.20305357053439E+0000
 20
 5.04295286873094E+0000
 11
 7.20305357053439E+0000
 21
 3.45518522819475E+0000
  0
LINE
  8
1
  6
CONTINUOUS
 62
     1
 10
 7.20305357053439E+0000
 20
 3.45518522819475E+0000
 11
 7.65417899993190E+0000
 21
 3.45518522819475E+0000
  0
LINE
  8
1
  6
CONTINUOUS
 62
     1
 10
 7.64029966159433E+0000
 20
 5.63061649778683E+0000
 11
 7.64029966159433E+0000
 21
 6.46236629770283E+0000
  0
LINE
  8
1
  6
CONTINUOUS
 62
     1
 10
 7.64029966159433E+0000
 20
 6.46236629770283E+0000
 11
 8.07735137983400E+0000
 21
 6.46236629770283E+0000
  0
LINE
  8
1
  6
CONTINUOUS
 62
     1
 10
 8.07735137983400E+0000
 20
 6.46236629770283E+0000
 11
 8.07735137983400E+0000
 21
 5.62249327605969E+0000
  0
LINE
  8
1
  6
CONTINUOUS
 62
     1
 10
 7.91544379472180E+0000
 20
 5.58831190434285E+0000
 11
 7.91544379472180E+0000
 21
 5.97423496888223E+0000
  0
LINE
  8
1
  6
CONTINUOUS
 62
     1
 10
 7.91544379472180E+0000
 20
 5.97423496888223E+0000
 11
 8.07735137983400E+0000
 21
 5.97423496888223E+0000
  0
LINE
  8
1
  6
CONTINUOUS
 62
     1
 10
 4.90663280787703E+0000
 20
 3.83611570833455E+0000
 11
 4.90663280787703E+0000
 21
 2.56385852152744E+0000
  0
LINE
  8
1
  6
CONTINUOUS
 62
     1
 10
 4.90663280787703E+0000
 20
 2.56385852152744E+0000
 11
 5.30377351010247E+0000
 21
 2.56385852152744E+0000
  0
LINE
  8
1
  6
CONTINUOUS
 62
     1
 10
 5.30377351010247E+0000
 20
 2.56385852152744E+0000
 11
 5.30377351010247E+0000
 21
 3.84044311373509E+0000
  0
LINE
  8
1
  6
CONTINUOUS
 62
     1
 10
 4.40589018332685E+0000
 20
 3.22162414191553E+0000
 11
 4.40589018332685E+0000
 21
 2.07486171162600E+0000
  0
LINE
  8
1
  6
CONTINUOUS
 62
     1
 10
 4.40589018332685E+0000
 20
 2.07486171162600E+0000
 11
 4.62172752149490E+0000
 21
 2.07486171162600E+0000
  0
LINE
  8
1
  6
CONTINUOUS
 62
     1
 10
 4.62172752149490E+0000
 20
 2.07486171162600E+0000
 11
 4.62172752149490E+0000
 21
 3.22595154731243E+0000
  0
LINE
  8
1
  6
CONTINUOUS
 62
     1
 10
 3.07888616850687E+0000
 20
 3.82230528315631E+0000
 11
 5.10231247411139E+0000
 21
 4.67137344399089E+0000
  0
LINE
  8
1
  6
CONTINUOUS
 62
     1
 10
 5.09298474175012E+0000
 20
 4.66041137730645E+0000
 11
 5.09298474175012E+0000
 21
 4.66041137730645E+0000
  0
LINE
  8
1
  6
CONTINUOUS
 62
     1
 10
 5.09298474175012E+0000
 20
 4.66041137730645E+0000
 11
 4.93541867523891E+0000
 21
 4.62456644229678E+0000
  0
LINE
  8
1
  6
CONTINUOUS
 62
     1
 10
 4.93541867523891E+0000
 20
 4.62456644229678E+0000
 11
 4.95853414654994E+0000
 21
 4.56876075795299E+0000
  0
LINE
  8
1
  6
CONTINUOUS
 62
     1
 10
 4.95853414654994E+0000
 20
 4.56876075795299E+0000
 11
 5.09298474175012E+0000
 21
 4.66041137730645E+0000
  0
LINE
  8
1
  6
CONTINUOUS
 62
     1
 10
 4.93541867523891E+0000
 20
 4.62456644229678E+0000
 11
 4.95853414654994E+0000
 21
 4.56876075795299E+0000
  0
LINE
  8
1
  6
CONTINUOUS
 62
     1
 10
 4.96467513533571E+0000
 20
 4.57294687125977E+0000
 11
 4.95123178263020E+0000
 21
 4.58639022396528E+0000
  0
LINE
  8
1
  6
CONTINUOUS
 62
     1
 10
 4.97695711290726E+0000
 20
 4.58131909787335E+0000
 11
 4.93662705479073E+0000
 21
 4.62164915599715E+0000
  0
LINE
  8
1
  6
CONTINUOUS
 62
     1
 10
 4.98923909048608E+0000
 20
 4.58969132448692E+0000
 11
 4.95085283344088E+0000
 21
 4.62807758153212E+0000
  0
LINE
  8
1
  6
CONTINUOUS
 62
     1
 10
 5.00152106805763E+0000
 20
 4.59806355110049E+0000
 11
 4.96767918605474E+0000
 21
 4.63190543310338E+0000
  0
LINE
  8
1
  6
CONTINUOUS
 62
     1
 10
 5.01380304562917E+0000
 20
 4.60643577771407E+0000
 11
 4.98450553866132E+0000
 21
 4.63573328467464E+0000
  0
LINE
  8
1
  6
CONTINUOUS
 62
     1
 10
 5.02608502320072E+0000
 20
 4.61480800432764E+0000
 11
 5.00133189127519E+0000
 21
 4.63956113625318E+0000
  0
LINE
  8
1
  6
CONTINUOUS
 62
     1
 10
 5.03836700077227E+0000
 20
 4.62318023094122E+0000
 11
 5.01815824388905E+0000
 21
 4.64338898782444E+0000
  0
LINE
  8
1
  6
CONTINUOUS
 62
     1
 10
 5.05064897834382E+0000
 20
 4.63155245755479E+0000
 11
 5.03498459649563E+0000
 21
 4.64721683940297E+0000
  0
LINE
  8
1
  6
CONTINUOUS
 62
     1
 10
 5.06293095591536E+0000
 20
 4.63992468416836E+0000
 11
 5.05181094910949E+0000
 21
 4.65104469097423E+0000
  0
LINE
  8
1
  6
CONTINUOUS
 62
     1
 10
 5.07521293348691E+0000
 20
 4.64829691078194E+0000
 11
 5.06863730171608E+0000
 21
 4.65487254255277E+0000
  0
LINE
  8
1
  6
CONTINUOUS
 62
     1
 10
 5.08749491105846E+0000
 20
 4.65666913739551E+0000
 11
 5.08546365432994E+0000
 21
 4.65870039412403E+0000
  0
LINE
  8
1
  6
CONTINUOUS
 62
     1
 10
 5.07961647252523E+0000
 20
 4.65737021018140E+0000
 11
 5.06054348457837E+0000
 21
 4.63829722222727E+0000
  0
LINE
  8
1
  6
CONTINUOUS
 62
     1
 10
 5.05287993409729E+0000
 20
 4.65128787593130E+0000
 11
 4.99566097024945E+0000
 21
 4.59406891208346E+0000
  0
LINE
  8
1
  6
CONTINUOUS
 62
     1
 10
 5.02614339566207E+0000
 20
 4.64520554168121E+0000
 11
 4.95594627837272E+0000
 21
 4.57500842439185E+0000
  0
LINE
  8
1
  6
CONTINUOUS
 62
     1
 10
 4.99940685723413E+0000
 20
 4.63912320743839E+0000
 11
 4.94989680202707E+0000
 21
 4.58961315223132E+0000
  0
LINE
  8
1
  6
CONTINUOUS
 62
     1
 10
 4.97267031879892E+0000
 20
 4.63304087318829E+0000
 11
 4.94384732568142E+0000
 21
 4.60421788007079E+0000
  0
LINE
  8
1
  6
CONTINUOUS
 62
     1
 10
 4.94593378037098E+0000
 20
 4.62695853894547E+0000
 11
 4.93779784933577E+0000
 21
 4.61882260791026E+0000
  0
LINE
  8
1
  6
CONTINUOUS
 62
     1
 10
 5.09298474175012E+0000
 20
 4.66041137730645E+0000
 11
 5.09298474175012E+0000
 21
 4.66041137730645E+0000
  0
LINE
  8
1
  6
CONTINUOUS
 62
     1
 10
 5.09298474175012E+0000
 20
 4.66041137730645E+0000
 11
 4.93541867523891E+0000
 21
 4.62456644229678E+0000
  0
LINE
  8
1
  6
CONTINUOUS
 62
     1
 10
 4.93541867523891E+0000
 20
 4.62456644229678E+0000
 11
 4.95853414654994E+0000
 21
 4.56876075795299E+0000
  0
LINE
  8
1
  6
CONTINUOUS
 62
     1
 10
 4.95853414654994E+0000
 20
 4.56876075795299E+0000
 11
 5.09298474175012E+0000
 21
 4.66041137730645E+0000
  0
LINE
  8
1
  6
CONTINUOUS
 62
     1
 10
 4.93541867523891E+0000
 20
 4.62456644229678E+0000
 11
 4.95853414654994E+0000
 21
 4.56876075795299E+0000
  0
LINE
  8
1
  6
CONTINUOUS
 62
     1
 10
 4.96467513533571E+0000
 20
 4.57294687125977E+0000
 11
 4.95123178263020E+0000
 21
 4.58639022396528E+0000
  0
LINE
  8
1
  6
CONTINUOUS
 62
     1
 10
 4.97695711290726E+0000
 20
 4.58131909787335E+0000
 11
 4.93662705479073E+0000
 21
 4.62164915599715E+0000
  0
LINE
  8
1
  6
CONTINUOUS
 62
     1
 10
 4.98923909048608E+0000
 20
 4.58969132448692E+0000
 11
 4.95085283344088E+0000
 21
 4.62807758153212E+0000
  0
LINE
  8
1
  6
CONTINUOUS
 62
     1
 10
 5.00152106805763E+0000
 20
 4.59806355110049E+0000
 11
 4.96767918605474E+0000
 21
 4.63190543310338E+0000
  0
LINE
  8
1
  6
CONTINUOUS
 62
     1
 10
 5.01380304562917E+0000
 20
 4.60643577771407E+0000
 11
 4.98450553866132E+0000
 21
 4.63573328467464E+0000
  0
LINE
  8
1
  6
CONTINUOUS
 62
     1
 10
 5.02608502320072E+0000
 20
 4.61480800432764E+0000
 11
 5.00133189127519E+0000
 21
 4.63956113625318E+0000
  0
LINE
  8
1
  6
CONTINUOUS
 62
     1
 10
 5.03836700077227E+0000
 20
 4.62318023094122E+0000
 11
 5.01815824388905E+0000
 21
 4.64338898782444E+0000
  0
LINE
  8
1
  6
CONTINUOUS
 62
     1
 10
 5.05064897834382E+0000
 20
 4.63155245755479E+0000
 11
 5.03498459649563E+0000
 21
 4.64721683940297E+0000
  0
LINE
  8
1
  6
CONTINUOUS
 62
     1
 10
 5.06293095591536E+0000
 20
 4.63992468416836E+0000
 11
 5.05181094910949E+0000
 21
 4.65104469097423E+0000
  0
LINE
  8
1
  6
CONTINUOUS
 62
     1
 10
 5.07521293348691E+0000
 20
 4.64829691078194E+0000
 11
 5.06863730171608E+0000
 21
 4.65487254255277E+0000
  0
LINE
  8
1
  6
CONTINUOUS
 62
     1
 10
 5.08749491105846E+0000
 20
 4.65666913739551E+0000
 11
 5.08546365432994E+0000
 21
 4.65870039412403E+0000
  0
LINE
  8
1
  6
CONTINUOUS
 62
     1
 10
 5.07961647252523E+0000
 20
 4.65737021018140E+0000
 11
 5.06054348457837E+0000
 21
 4.63829722222727E+0000
  0
LINE
  8
1
  6
CONTINUOUS
 62
     1
 10
 5.05287993409729E+0000
 20
 4.65128787593130E+0000
 11
 4.99566097024945E+0000
 21
 4.59406891208346E+0000
  0
LINE
  8
1
  6
CONTINUOUS
 62
     1
 10
 5.02614339566207E+0000
 20
 4.64520554168121E+0000
 11
 4.95594627837272E+0000
 21
 4.57500842439185E+0000
  0
LINE
  8
1
  6
CONTINUOUS
 62
     1
 10
 4.99940685723413E+0000
 20
 4.63912320743839E+0000
 11
 4.94989680202707E+0000
 21
 4.58961315223132E+0000
  0
LINE
  8
1
  6
CONTINUOUS
 62
     1
 10
 4.97267031879892E+0000
 20
 4.63304087318829E+0000
 11
 4.94384732568142E+0000
 21
 4.60421788007079E+0000
  0
LINE
  8
1
  6
CONTINUOUS
 62
     1
 10
 4.94593378037098E+0000
 20
 4.62695853894547E+0000
 11
 4.93779784933577E+0000
 21
 4.61882260791026E+0000
  0
LINE
  8
1
  6
CONTINUOUS
 62
     1
 10
 3.08137205392632E+0000
 20
 3.82426140109237E+0000
 11
 3.08137205392632E+0000
 21
 3.82426140109237E+0000
  0
LINE
  8
1
  6
CONTINUOUS
 62
     1
 10
 3.08137205392632E+0000
 20
 3.82426140109237E+0000
 11
 3.23893812045208E+0000
 21
 3.86010633610204E+0000
  0
LINE
  8
1
  6
CONTINUOUS
 62
     1
 10
 3.23893812045208E+0000
 20
 3.86010633610204E+0000
 11
 3.21582264914105E+0000
 21
 3.91591202045311E+0000
  0
LINE
  8
1
  6
CONTINUOUS
 62
     1
 10
 3.21582264914105E+0000
 20
 3.91591202045311E+0000
 11
 3.08137205392632E+0000
 21
 3.82426140109237E+0000
  0
LINE
  8
1
  6
CONTINUOUS
 62
     1
 10
 3.23893812045208E+0000
 20
 3.86010633610204E+0000
 11
 3.21582264914105E+0000
 21
 3.91591202045311E+0000
  0
LINE
  8
1
  6
CONTINUOUS
 62
     1
 10
 3.08978523022961E+0000
 20
 3.82617532687800E+0000
 11
 3.08751304271209E+0000
 21
 3.82844751439916E+0000
  0
LINE
  8
1
  6
CONTINUOUS
 62
     1
 10
 3.10661158284347E+0000
 20
 3.83000317845290E+0000
 11
 3.09979502028364E+0000
 21
 3.83681974101273E+0000
  0
LINE
  8
1
  6
CONTINUOUS
 62
     1
 10
 3.12343793545369E+0000
 20
 3.83383103002780E+0000
 11
 3.11207699785518E+0000
 21
 3.84519196762631E+0000
  0
LINE
  8
1
  6
CONTINUOUS
 62
     1
 10
 3.14026428806392E+0000
 20
 3.83765888160269E+0000
 11
 3.12435897542673E+0000
 21
 3.85356419423624E+0000
  0
LINE
  8
1
  6
CONTINUOUS
 62
     1
 10
 3.15709064067414E+0000
 20
 3.84148673317395E+0000
 11
 3.13664095299828E+0000
 21
 3.86193642084982E+0000
  0
LINE
  8
1
  6
CONTINUOUS
 62
     1
 10
 3.17391699328437E+0000
 20
 3.84531458474885E+0000
 11
 3.14892293056982E+0000
 21
 3.87030864746339E+0000
  0
LINE
  8
1
  6
CONTINUOUS
 62
     1
 10
 3.19074334589823E+0000
 20
 3.84914243632375E+0000
 11
 3.16120490814137E+0000
 21
 3.87868087407696E+0000
  0
LINE
  8
1
  6
CONTINUOUS
 62
     1
 10
 3.20756969850845E+0000
 20
 3.85297028789864E+0000
 11
 3.17348688571292E+0000
 21
 3.88705310069054E+0000
  0
LINE
  8
1
  6
CONTINUOUS
 62
     1
 10
 3.22439605111867E+0000
 20
 3.85679813947354E+0000
 11
 3.18576886328810E+0000
 21
 3.89542532730411E+0000
  0
LINE
  8
1
  6
CONTINUOUS
 62
     1
 10
 3.23695543672147E+0000
 20
 3.86489295805586E+0000
 11
 3.19805084085965E+0000
 21
 3.90379755391768E+0000
  0
LINE
  8
1
  6
CONTINUOUS
 62
     1
 10
 3.22235070888564E+0000
 20
 3.90015189007318E+0000
 11
 3.21033281843120E+0000
 21
 3.91216978053126E+0000
  0
LINE
  8
1
  6
CONTINUOUS
 62
     1
 10
 3.23591338227925E+0000
 20
 3.86740870001813E+0000
 11
 3.22556985123447E+0000
 21
 3.85706516897699E+0000
  0
LINE
  8
1
  6
CONTINUOUS
 62
     1
 10
 3.22986390592996E+0000
 20
 3.88201342785760E+0000
 11
 3.19883331280289E+0000
 21
 3.85098283473053E+0000
  0
LINE
  8
1
  6
CONTINUOUS
 62
     1
 10
 3.22381442958431E+0000
 20
 3.89661815569707E+0000
 11
 3.17209677436767E+0000
 21
 3.84490050048043E+0000
  0
LINE
  8
1
  6
CONTINUOUS
 62
     1
 10
 3.21776495324593E+0000
 20
 3.91122288354381E+0000
 11
 3.14536023593973E+0000
 21
 3.83881816623762E+0000
  0
LINE
  8
1
  6
CONTINUOUS
 62
     1
 10
 3.17177195010663E+0000
 20
 3.88588408458963E+0000
 11
 3.11862369750452E+0000
 21
 3.83273583198752E+0000
  0
LINE
  8
1
  6
CONTINUOUS
 62
     1
 10
 3.10688943577770E+0000
 20
 3.84165577444583E+0000
 11
 3.09188715907658E+0000
 21
 3.82665349774470E+0000
  0
LINE
  8
1
  6
CONTINUOUS
 62
     1
 10
 3.08137205392632E+0000
 20
 3.82426140109237E+0000
 11
 3.08137205392632E+0000
 21
 3.82426140109237E+0000
  0
LINE
  8
1
  6
CONTINUOUS
 62
     1
 10
 3.08137205392632E+0000
 20
 3.82426140109237E+0000
 11
 3.23893812045208E+0000
 21
 3.86010633610204E+0000
  0
LINE
  8
1
  6
CONTINUOUS
 62
     1
 10
 3.23893812045208E+0000
 20
 3.86010633610204E+0000
 11
 3.21582264914105E+0000
 21
 3.91591202045311E+0000
  0
LINE
  8
1
  6
CONTINUOUS
 62
     1
 10
 3.21582264914105E+0000
 20
 3.91591202045311E+0000
 11
 3.08137205392632E+0000
 21
 3.82426140109237E+0000
  0
LINE
  8
1
  6
CONTINUOUS
 62
     1
 10
 3.23893812045208E+0000
 20
 3.86010633610204E+0000
 11
 3.21582264914105E+0000
 21
 3.91591202045311E+0000
  0
LINE
  8
1
  6
CONTINUOUS
 62
     1
 10
 3.08978523022961E+0000
 20
 3.82617532687800E+0000
 11
 3.08751304271209E+0000
 21
 3.82844751439916E+0000
  0
LINE
  8
1
  6
CONTINUOUS
 62
     1
 10
 3.10661158284347E+0000
 20
 3.83000317845290E+0000
 11
 3.09979502028364E+0000
 21
 3.83681974101273E+0000
  0
LINE
  8
1
  6
CONTINUOUS
 62
     1
 10
 3.12343793545369E+0000
 20
 3.83383103002780E+0000
 11
 3.11207699785518E+0000
 21
 3.84519196762631E+0000
  0
LINE
  8
1
  6
CONTINUOUS
 62
     1
 10
 3.14026428806392E+0000
 20
 3.83765888160269E+0000
 11
 3.12435897542673E+0000
 21
 3.85356419423624E+0000
  0
LINE
  8
1
  6
CONTINUOUS
 62
     1
 10
 3.15709064067414E+0000
 20
 3.84148673317395E+0000
 11
 3.13664095299828E+0000
 21
 3.86193642084982E+0000
  0
LINE
  8
1
  6
CONTINUOUS
 62
     1
 10
 3.17391699328437E+0000
 20
 3.84531458474885E+0000
 11
 3.14892293056982E+0000
 21
 3.87030864746339E+0000
  0
LINE
  8
1
  6
CONTINUOUS
 62
     1
 10
 3.19074334589823E+0000
 20
 3.84914243632375E+0000
 11
 3.16120490814137E+0000
 21
 3.87868087407696E+0000
  0
LINE
  8
1
  6
CONTINUOUS
 62
     1
 10
 3.20756969850845E+0000
 20
 3.85297028789864E+0000
 11
 3.17348688571292E+0000
 21
 3.88705310069054E+0000
  0
LINE
  8
1
  6
CONTINUOUS
 62
     1
 10
 3.22439605111867E+0000
 20
 3.85679813947354E+0000
 11
 3.18576886328810E+0000
 21
 3.89542532730411E+0000
  0
LINE
  8
1
  6
CONTINUOUS
 62
     1
 10
 3.23695543672147E+0000
 20
 3.86489295805586E+0000
 11
 3.19805084085965E+0000
 21
 3.90379755391768E+0000
  0
LINE
  8
1
  6
CONTINUOUS
 62
     1
 10
 3.22235070888564E+0000
 20
 3.90015189007318E+0000
 11
 3.21033281843120E+0000
 21
 3.91216978053126E+0000
  0
LINE
  8
1
  6
CONTINUOUS
 62
     1
 10
 3.23591338227925E+0000
 20
 3.86740870001813E+0000
 11
 3.22556985123447E+0000
 21
 3.85706516897699E+0000
  0
LINE
  8
1
  6
CONTINUOUS
 62
     1
 10
 3.22986390592996E+0000
 20
 3.88201342785760E+0000
 11
 3.19883331280289E+0000
 21
 3.85098283473053E+0000
  0
LINE
  8
1
  6
CONTINUOUS
 62
     1
 10
 3.22381442958431E+0000
 20
 3.89661815569707E+0000
 11
 3.17209677436767E+0000
 21
 3.84490050048043E+0000
  0
LINE
  8
1
  6
CONTINUOUS
 62
     1
 10
 3.21776495324593E+0000
 20
 3.91122288354381E+0000
 11
 3.14536023593973E+0000
 21
 3.83881816623762E+0000
  0
LINE
  8
1
  6
CONTINUOUS
 62
     1
 10
 3.17177195010663E+0000
 20
 3.88588408458963E+0000
 11
 3.11862369750452E+0000
 21
 3.83273583198752E+0000
  0
LINE
  8
1
  6
CONTINUOUS
 62
     1
 10
 3.10688943577770E+0000
 20
 3.84165577444583E+0000
 11
 3.09188715907658E+0000
 21
 3.82665349774470E+0000
  0
LINE
  8
1
  6
CONTINUOUS
 62
     1
 10
 8.07584127796872E+0000
 20
 6.45992661579658E+0000
 11
 8.07584127796872E+0000
 21
 6.45992661579658E+0000
  0
LINE
  8
1
  6
CONTINUOUS
 62
     1
 10
 8.07584127796872E+0000
 20
 6.45992661579658E+0000
 11
 8.23513060461846E+0000
 21
 6.43274509443290E+0000
  0
LINE
  8
1
  6
CONTINUOUS
 62
     1
 10
 8.23513060461846E+0000
 20
 6.43274509443290E+0000
 11
 8.23513060461846E+0000
 21
 6.49314873190451E+0000
  0
LINE
  8
1
  6
CONTINUOUS
 62
     1
 10
 8.23513060461846E+0000
 20
 6.49314873190451E+0000
 11
 8.07584127796872E+0000
 21
 6.45992661579658E+0000
  0
LINE
  8
1
  6
CONTINUOUS
 62
     1
 10
 8.23513060461846E+0000
 20
 6.43274509443290E+0000
 11
 8.23513060461846E+0000
 21
 6.49314873190451E+0000
  0
LINE
  8
1
  6
CONTINUOUS
 62
     1
 10
 8.08829320795485E+0000
 20
 6.45780178793211E+0000
 11
 8.08438620972447E+0000
 21
 6.46170878615521E+0000
  0
LINE
  8
1
  6
CONTINUOUS
 62
     1
 10
 8.11319706786890E+0000
 20
 6.45355213219591E+0000
 11
 8.10147607322142E+0000
 21
 6.46527312684339E+0000
  0
LINE
  8
1
  6
CONTINUOUS
 62
     1
 10
 8.13810092779750E+0000
 20
 6.44930247645971E+0000
 11
 8.11856593671837E+0000
 21
 6.46883746753883E+0000
  0
LINE
  8
1
  6
CONTINUOUS
 62
     1
 10
 8.16300478771154E+0000
 20
 6.44505282073078E+0000
 11
 8.13565580020077E+0000
 21
 6.47240180823428E+0000
  0
LINE
  8
1
  6
CONTINUOUS
 62
     1
 10
 8.18790864762559E+0000
 20
 6.44080316499458E+0000
 11
 8.15274566369771E+0000
 21
 6.47596614892973E+0000
  0
LINE
  8
1
  6
CONTINUOUS
 62
     1
 10
 8.21281250755419E+0000
 20
 6.43655350925837E+0000
 11
 8.16983552718011E+0000
 21
 6.47953048962518E+0000
  0
LINE
  8
1
  6
CONTINUOUS
 62
     1
 10
 8.23513060461846E+0000
 20
 6.43488961637195E+0000
 11
 8.18692539067706E+0000
 21
 6.48309483031335E+0000
  0
LINE
  8
1
  6
CONTINUOUS
 62
     1
 10
 8.23513060461846E+0000
 20
 6.45554382055707E+0000
 11
 8.20401525417401E+0000
 21
 6.48665917100880E+0000
  0
LINE
  8
1
  6
CONTINUOUS
 62
     1
 10
 8.23513060461846E+0000
 20
 6.47619802474219E+0000
 11
 8.22110511765641E+0000
 21
 6.49022351170424E+0000
  0
LINE
  8
1
  6
CONTINUOUS
 62
     1
 10
 8.23513060461846E+0000
 20
 6.44307219651819E+0000
 11
 8.22630886569095E+0000
 21
 6.43425045759068E+0000
  0
LINE
  8
1
  6
CONTINUOUS
 62
     1
 10
 8.23513060461846E+0000
 20
 6.46372640070331E+0000
 11
 8.20866538783594E+0000
 21
 6.43726118392806E+0000
  0
LINE
  8
1
  6
CONTINUOUS
 62
     1
 10
 8.23513060461846E+0000
 20
 6.48438060488843E+0000
 11
 8.19102190998092E+0000
 21
 6.44027191025816E+0000
  0
LINE
  8
1
  6
CONTINUOUS
 62
     1
 10
 8.22011222496803E+0000
 20
 6.49001642943040E+0000
 11
 8.17337843212590E+0000
 21
 6.44328263658826E+0000
  0
LINE
  8
1
  6
CONTINUOUS
 62
     1
 10
 8.19401507992006E+0000
 20
 6.48457348857482E+0000
 11
 8.15573495427088E+0000
 21
 6.44629336291837E+0000
  0
LINE
  8
1
  6
CONTINUOUS
 62
     1
 10
 8.16791793490120E+0000
 20
 6.47913054773380E+0000
 11
 8.13809147641587E+0000
 21
 6.44930408925575E+0000
  0
LINE
  8
1
  6
CONTINUOUS
 62
     1
 10
 8.14182078986778E+0000
 20
 6.47368760688551E+0000
 11
 8.12044799856085E+0000
 21
 6.45231481558585E+0000
  0
LINE
  8
1
  6
CONTINUOUS
 62
     1
 10
 8.11572364483436E+0000
 20
 6.46824466603721E+0000
 11
 8.10280452070583E+0000
 21
 6.45532554191595E+0000
  0
LINE
  8
1
  6
CONTINUOUS
 62
     1
 10
 8.08962649980094E+0000
 20
 6.46280172518891E+0000
 11
 8.08516104285081E+0000
 21
 6.45833626824606E+0000
  0
LINE
  8
1
  6
CONTINUOUS
 62
     1
 10
 8.07584127796872E+0000
 20
 6.45992661579658E+0000
 11
 8.07584127796872E+0000
 21
 6.45992661579658E+0000
  0
LINE
  8
1
  6
CONTINUOUS
 62
     1
 10
 8.07584127796872E+0000
 20
 6.45992661579658E+0000
 11
 8.23513060461846E+0000
 21
 6.43274509443290E+0000
  0
LINE
  8
1
  6
CONTINUOUS
 62
     1
 10
 8.23513060461846E+0000
 20
 6.43274509443290E+0000
 11
 8.23513060461846E+0000
 21
 6.49314873190451E+0000
  0
LINE
  8
1
  6
CONTINUOUS
 62
     1
 10
 8.23513060461846E+0000
 20
 6.49314873190451E+0000
 11
 8.07584127796872E+0000
 21
 6.45992661579658E+0000
  0
LINE
  8
1
  6
CONTINUOUS
 62
     1
 10
 8.23513060461846E+0000
 20
 6.43274509443290E+0000
 11
 8.23513060461846E+0000
 21
 6.49314873190451E+0000
  0
LINE
  8
1
  6
CONTINUOUS
 62
     1
 10
 8.08829320795485E+0000
 20
 6.45780178793211E+0000
 11
 8.08438620972447E+0000
 21
 6.46170878615521E+0000
  0
LINE
  8
1
  6
CONTINUOUS
 62
     1
 10
 8.11319706786890E+0000
 20
 6.45355213219591E+0000
 11
 8.10147607322142E+0000
 21
 6.46527312684339E+0000
  0
LINE
  8
1
  6
CONTINUOUS
 62
     1
 10
 8.13810092779750E+0000
 20
 6.44930247645971E+0000
 11
 8.11856593671837E+0000
 21
 6.46883746753883E+0000
  0
LINE
  8
1
  6
CONTINUOUS
 62
     1
 10
 8.16300478771154E+0000
 20
 6.44505282073078E+0000
 11
 8.13565580020077E+0000
 21
 6.47240180823428E+0000
  0
LINE
  8
1
  6
CONTINUOUS
 62
     1
 10
 8.18790864762559E+0000
 20
 6.44080316499458E+0000
 11
 8.15274566369771E+0000
 21
 6.47596614892973E+0000
  0
LINE
  8
1
  6
CONTINUOUS
 62
     1
 10
 8.21281250755419E+0000
 20
 6.43655350925837E+0000
 11
 8.16983552718011E+0000
 21
 6.47953048962518E+0000
  0
LINE
  8
1
  6
CONTINUOUS
 62
     1
 10
 8.23513060461846E+0000
 20
 6.43488961637195E+0000
 11
 8.18692539067706E+0000
 21
 6.48309483031335E+0000
  0
LINE
  8
1
  6
CONTINUOUS
 62
     1
 10
 8.23513060461846E+0000
 20
 6.45554382055707E+0000
 11
 8.20401525417401E+0000
 21
 6.48665917100880E+0000
  0
LINE
  8
1
  6
CONTINUOUS
 62
     1
 10
 8.23513060461846E+0000
 20
 6.47619802474219E+0000
 11
 8.22110511765641E+0000
 21
 6.49022351170424E+0000
  0
LINE
  8
1
  6
CONTINUOUS
 62
     1
 10
 8.23513060461846E+0000
 20
 6.44307219651819E+0000
 11
 8.22630886569095E+0000
 21
 6.43425045759068E+0000
  0
LINE
  8
1
  6
CONTINUOUS
 62
     1
 10
 8.23513060461846E+0000
 20
 6.46372640070331E+0000
 11
 8.20866538783594E+0000
 21
 6.43726118392806E+0000
  0
LINE
  8
1
  6
CONTINUOUS
 62
     1
 10
 8.23513060461846E+0000
 20
 6.48438060488843E+0000
 11
 8.19102190998092E+0000
 21
 6.44027191025816E+0000
  0
LINE
  8
1
  6
CONTINUOUS
 62
     1
 10
 8.22011222496803E+0000
 20
 6.49001642943040E+0000
 11
 8.17337843212590E+0000
 21
 6.44328263658826E+0000
  0
LINE
  8
1
  6
CONTINUOUS
 62
     1
 10
 8.19401507992006E+0000
 20
 6.48457348857482E+0000
 11
 8.15573495427088E+0000
 21
 6.44629336291837E+0000
  0
LINE
  8
1
  6
CONTINUOUS
 62
     1
 10
 8.16791793490120E+0000
 20
 6.47913054773380E+0000
 11
 8.13809147641587E+0000
 21
 6.44930408925575E+0000
  0
LINE
  8
1
  6
CONTINUOUS
 62
     1
 10
 8.14182078986778E+0000
 20
 6.47368760688551E+0000
 11
 8.12044799856085E+0000
 21
 6.45231481558585E+0000
  0
LINE
  8
1
  6
CONTINUOUS
 62
     1
 10
 8.11572364483436E+0000
 20
 6.46824466603721E+0000
 11
 8.10280452070583E+0000
 21
 6.45532554191595E+0000
  0
LINE
  8
1
  6
CONTINUOUS
 62
     1
 10
 8.08962649980094E+0000
 20
 6.46280172518891E+0000
 11
 8.08516104285081E+0000
 21
 6.45833626824606E+0000
  0
LINE
  8
1
  6
CONTINUOUS
 62
     1
 10
 8.08374855798320E+0000
 20
 5.97639156211517E+0000
 11
 8.08374855798320E+0000
 21
 5.97639156211517E+0000
  0
LINE
  8
1
  6
CONTINUOUS
 62
     1
 10
 8.08374855798320E+0000
 20
 5.97639156211517E+0000
 11
 8.24303788463294E+0000
 21
 5.94921004075150E+0000
  0
LINE
  8
1
  6
CONTINUOUS
 62
     1
 10
 8.24303788463294E+0000
 20
 5.94921004075150E+0000
 11
 8.24303788463294E+0000
 21
 6.00961367822310E+0000
  0
LINE
  8
1
  6
CONTINUOUS
 62
     1
 10
 8.24303788463294E+0000
 20
 6.00961367822310E+0000
 11
 8.08374855798320E+0000
 21
 5.97639156211517E+0000
  0
LINE
  8
1
  6
CONTINUOUS
 62
     1
 10
 8.24303788463294E+0000
 20
 5.94921004075150E+0000
 11
 8.24303788463294E+0000
 21
 6.00961367822310E+0000
  0
LINE
  8
1
  6
CONTINUOUS
 62
     1
 10
 8.09620048795477E+0000
 20
 5.97426673425070E+0000
 11
 8.09229348973895E+0000
 21
 5.97817373247381E+0000
  0
LINE
  8
1
  6
CONTINUOUS
 62
     1
 10
 8.12110434788337E+0000
 20
 5.97001707851450E+0000
 11
 8.10938335323590E+0000
 21
 5.98173807316198E+0000
  0
LINE
  8
1
  6
CONTINUOUS
 62
     1
 10
 8.14600820779742E+0000
 20
 5.96576742277830E+0000
 11
 8.12647321673285E+0000
 21
 5.98530241385743E+0000
  0
LINE
  8
1
  6
CONTINUOUS
 62
     1
 10
 8.17091206772602E+0000
 20
 5.96151776704210E+0000
 11
 8.14356308021524E+0000
 21
 5.98886675455287E+0000
  0
LINE
  8
1
  6
CONTINUOUS
 62
     1
 10
 8.19581592764007E+0000
 20
 5.95726811131317E+0000
 11
 8.16065294371219E+0000
 21
 5.99243109524832E+0000
  0
LINE
  8
1
  6
CONTINUOUS
 62
     1
 10
 8.22071978756867E+0000
 20
 5.95301845557697E+0000
 11
 8.17774280719459E+0000
 21
 5.99599543593649E+0000
  0
LINE
  8
1
  6
CONTINUOUS
 62
     1
 10
 8.24303788463294E+0000
 20
 5.95135456269054E+0000
 11
 8.19483267069154E+0000
 21
 5.99955977663194E+0000
  0
LINE
  8
1
  6
CONTINUOUS
 62
     1
 10
 8.24303788463294E+0000
 20
 5.97200876687566E+0000
 11
 8.21192253418849E+0000
 21
 6.00312411732739E+0000
  0
LINE
  8
1
  6
CONTINUOUS
 62
     1
 10
 8.24303788463294E+0000
 20
 5.99266297106078E+0000
 11
 8.22901239767089E+0000
 21
 6.00668845802284E+0000
  0
LINE
  8
1
  6
CONTINUOUS
 62
     1
 10
 8.24303788461839E+0000
 20
 5.95953714283678E+0000
 11
 8.23421614569088E+0000
 21
 5.95071540390927E+0000
  0
LINE
  8
1
  6
CONTINUOUS
 62
     1
 10
 8.24303788461839E+0000
 20
 5.98019134702190E+0000
 11
 8.21657266785041E+0000
 21
 5.95372613023937E+0000
  0
LINE
  8
1
  6
CONTINUOUS
 62
     1
 10
 8.24303788461839E+0000
 20
 6.00084555120702E+0000
 11
 8.19892918999540E+0000
 21
 5.95673685657675E+0000
  0
LINE
  8
1
  6
CONTINUOUS
 62
     1
 10
 8.22801950498251E+0000
 20
 6.00648137574899E+0000
 11
 8.18128571214038E+0000
 21
 5.95974758290686E+0000
  0
LINE
  8
1
  6
CONTINUOUS
 62
     1
 10
 8.20192235993454E+0000
 20
 6.00103843489342E+0000
 11
 8.16364223428536E+0000
 21
 5.96275830923696E+0000
  0
LINE
  8
1
  6
CONTINUOUS
 62
     1
 10
 8.17582521491568E+0000
 20
 5.99559549405240E+0000
 11
 8.14599875643034E+0000
 21
 5.96576903556706E+0000
  0
LINE
  8
1
  6
CONTINUOUS
 62
     1
 10
 8.14972806988226E+0000
 20
 5.99015255320410E+0000
 11
 8.12835527857533E+0000
 21
 5.96877976190444E+0000
  0
LINE
  8
1
  6
CONTINUOUS
 62
     1
 10
 8.12363092483429E+0000
 20
 5.98470961234852E+0000
 11
 8.11071180072031E+0000
 21
 5.97179048823455E+0000
  0
LINE
  8
1
  6
CONTINUOUS
 62
     1
 10
 8.09753377981542E+0000
 20
 5.97926667150750E+0000
 11
 8.09306832286529E+0000
 21
 5.97480121456465E+0000
  0
LINE
  8
1
  6
CONTINUOUS
 62
     1
 10
 8.08374855798320E+0000
 20
 5.97639156211517E+0000
 11
 8.08374855798320E+0000
 21
 5.97639156211517E+0000
  0
LINE
  8
1
  6
CONTINUOUS
 62
     1
 10
 8.08374855798320E+0000
 20
 5.97639156211517E+0000
 11
 8.24303788463294E+0000
 21
 5.94921004075150E+0000
  0
LINE
  8
1
  6
CONTINUOUS
 62
     1
 10
 8.24303788463294E+0000
 20
 5.94921004075150E+0000
 11
 8.24303788463294E+0000
 21
 6.00961367822310E+0000
  0
LINE
  8
1
  6
CONTINUOUS
 62
     1
 10
 8.24303788463294E+0000
 20
 6.00961367822310E+0000
 11
 8.08374855798320E+0000
 21
 5.97639156211517E+0000
  0
LINE
  8
1
  6
CONTINUOUS
 62
     1
 10
 8.24303788463294E+0000
 20
 5.94921004075150E+0000
 11
 8.24303788463294E+0000
 21
 6.00961367822310E+0000
  0
LINE
  8
1
  6
CONTINUOUS
 62
     1
 10
 8.09620048795477E+0000
 20
 5.97426673425070E+0000
 11
 8.09229348973895E+0000
 21
 5.97817373247381E+0000
  0
LINE
  8
1
  6
CONTINUOUS
 62
     1
 10
 8.12110434788337E+0000
 20
 5.97001707851450E+0000
 11
 8.10938335323590E+0000
 21
 5.98173807316198E+0000
  0
LINE
  8
1
  6
CONTINUOUS
 62
     1
 10
 8.14600820779742E+0000
 20
 5.96576742277830E+0000
 11
 8.12647321673285E+0000
 21
 5.98530241385743E+0000
  0
LINE
  8
1
  6
CONTINUOUS
 62
     1
 10
 8.17091206772602E+0000
 20
 5.96151776704210E+0000
 11
 8.14356308021524E+0000
 21
 5.98886675455287E+0000
  0
LINE
  8
1
  6
CONTINUOUS
 62
     1
 10
 8.19581592764007E+0000
 20
 5.95726811131317E+0000
 11
 8.16065294371219E+0000
 21
 5.99243109524832E+0000
  0
LINE
  8
1
  6
CONTINUOUS
 62
     1
 10
 8.22071978756867E+0000
 20
 5.95301845557697E+0000
 11
 8.17774280719459E+0000
 21
 5.99599543593649E+0000
  0
LINE
  8
1
  6
CONTINUOUS
 62
     1
 10
 8.24303788463294E+0000
 20
 5.95135456269054E+0000
 11
 8.19483267069154E+0000
 21
 5.99955977663194E+0000
  0
LINE
  8
1
  6
CONTINUOUS
 62
     1
 10
 8.24303788463294E+0000
 20
 5.97200876687566E+0000
 11
 8.21192253418849E+0000
 21
 6.00312411732739E+0000
  0
LINE
  8
1
  6
CONTINUOUS
 62
     1
 10
 8.24303788463294E+0000
 20
 5.99266297106078E+0000
 11
 8.22901239767089E+0000
 21
 6.00668845802284E+0000
  0
LINE
  8
1
  6
CONTINUOUS
 62
     1
 10
 8.24303788461839E+0000
 20
 5.95953714283678E+0000
 11
 8.23421614569088E+0000
 21
 5.95071540390927E+0000
  0
LINE
  8
1
  6
CONTINUOUS
 62
     1
 10
 8.24303788461839E+0000
 20
 5.98019134702190E+0000
 11
 8.21657266785041E+0000
 21
 5.95372613023937E+0000
  0
LINE
  8
1
  6
CONTINUOUS
 62
     1
 10
 8.24303788461839E+0000
 20
 6.00084555120702E+0000
 11
 8.19892918999540E+0000
 21
 5.95673685657675E+0000
  0
LINE
  8
1
  6
CONTINUOUS
 62
     1
 10
 8.22801950498251E+0000
 20
 6.00648137574899E+0000
 11
 8.18128571214038E+0000
 21
 5.95974758290686E+0000
  0
LINE
  8
1
  6
CONTINUOUS
 62
     1
 10
 8.20192235993454E+0000
 20
 6.00103843489342E+0000
 11
 8.16364223428536E+0000
 21
 5.96275830923696E+0000
  0
LINE
  8
1
  6
CONTINUOUS
 62
     1
 10
 8.17582521491568E+0000
 20
 5.99559549405240E+0000
 11
 8.14599875643034E+0000
 21
 5.96576903556706E+0000
  0
LINE
  8
1
  6
CONTINUOUS
 62
     1
 10
 8.14972806988226E+0000
 20
 5.99015255320410E+0000
 11
 8.12835527857533E+0000
 21
 5.96877976190444E+0000
  0
LINE
  8
1
  6
CONTINUOUS
 62
     1
 10
 8.12363092483429E+0000
 20
 5.98470961234852E+0000
 11
 8.11071180072031E+0000
 21
 5.97179048823455E+0000
  0
LINE
  8
1
  6
CONTINUOUS
 62
     1
 10
 8.09753377981542E+0000
 20
 5.97926667150750E+0000
 11
 8.09306832286529E+0000
 21
 5.97480121456465E+0000
  0
LINE
  8
1
  6
CONTINUOUS
 62
     1
 10
 7.90759705870005E+0000
 20
 5.97741445930296E+0000
 11
 7.90759705870005E+0000
 21
 5.97741445930296E+0000
  0
LINE
  8
1
  6
CONTINUOUS
 62
     1
 10
 7.90759705870005E+0000
 20
 5.97741445930296E+0000
 11
 7.74830773206486E+0000
 21
 6.00459598066664E+0000
  0
LINE
  8
1
  6
CONTINUOUS
 62
     1
 10
 7.74830773206486E+0000
 20
 6.00459598066664E+0000
 11
 7.74830773206486E+0000
 21
 5.94419234319503E+0000
  0
LINE
  8
1
  6
CONTINUOUS
 62
     1
 10
 7.74830773206486E+0000
 20
 5.94419234319503E+0000
 11
 7.90759705870005E+0000
 21
 5.97741445930296E+0000
  0
LINE
  8
1
  6
CONTINUOUS
 62
     1
 10
 7.74830773206486E+0000
 20
 6.00459598066664E+0000
 11
 7.74830773206486E+0000
 21
 5.94419234319503E+0000
  0
LINE
  8
1
  6
CONTINUOUS
 62
     1
 10
 7.75685266382061E+0000
 20
 5.94597451354639E+0000
 11
 7.74830773207213E+0000
 21
 5.95451944530214E+0000
  0
LINE
  8
1
  6
CONTINUOUS
 62
     1
 10
 7.77394252731028E+0000
 20
 5.94953885424184E+0000
 11
 7.74830773206486E+0000
 21
 5.97517364948726E+0000
  0
LINE
  8
1
  6
CONTINUOUS
 62
     1
 10
 7.79103239079996E+0000
 20
 5.95310319493728E+0000
 11
 7.74830773206486E+0000
 21
 5.99582785367238E+0000
  0
LINE
  8
1
  6
CONTINUOUS
 62
     1
 10
 7.80812225429690E+0000
 20
 5.95666753563273E+0000
 11
 7.76263940026547E+0000
 21
 6.00215038965689E+0000
  0
LINE
  8
1
  6
CONTINUOUS
 62
     1
 10
 7.82521211778658E+0000
 20
 5.96023187632818E+0000
 11
 7.78754326018679E+0000
 21
 5.99790073392069E+0000
  0
LINE
  8
1
  6
CONTINUOUS
 62
     1
 10
 7.84230198127625E+0000
 20
 5.96379621702363E+0000
 11
 7.81244712010812E+0000
 21
 5.99365107819176E+0000
  0
LINE
  8
1
  6
CONTINUOUS
 62
     1
 10
 7.85939184476592E+0000
 20
 5.96736055771908E+0000
 11
 7.83735098002944E+0000
 21
 5.98940142245556E+0000
  0
LINE
  8
1
  6
CONTINUOUS
 62
     1
 10
 7.87648170825560E+0000
 20
 5.97092489841452E+0000
 11
 7.86225483994349E+0000
 21
 5.98515176671935E+0000
  0
LINE
  8
1
  6
CONTINUOUS
 62
     1
 10
 7.89357157174527E+0000
 20
 5.97448923910997E+0000
 11
 7.88715869986481E+0000
 21
 5.98090211098315E+0000
  0
LINE
  8
1
  6
CONTINUOUS
 62
     1
 10
 7.89877531976526E+0000
 20
 5.97891982246801E+0000
 11
 7.89454848616879E+0000
 21
 5.97469298886426E+0000
  0
LINE
  8
1
  6
CONTINUOUS
 62
     1
 10
 7.88113184191752E+0000
 20
 5.98193054879812E+0000
 11
 7.86845134114265E+0000
 21
 5.96925004802324E+0000
  0
LINE
  8
1
  6
CONTINUOUS
 62
     1
 10
 7.86348836406250E+0000
 20
 5.98494127512822E+0000
 11
 7.84235419610923E+0000
 21
 5.96380710718222E+0000
  0
LINE
  8
1
  6
CONTINUOUS
 62
     1
 10
 7.84584488620749E+0000
 20
 5.98795200145832E+0000
 11
 7.81625705108308E+0000
 21
 5.95836416634120E+0000
  0
LINE
  8
1
  6
CONTINUOUS
 62
     1
 10
 7.82820140835247E+0000
 20
 5.99096272779570E+0000
 11
 7.79015990605694E+0000
 21
 5.95292122549290E+0000
  0
LINE
  8
1
  6
CONTINUOUS
 62
     1
 10
 7.81055793049745E+0000
 20
 5.99397345412581E+0000
 11
 7.76406276102352E+0000
 21
 5.94747828465188E+0000
  0
LINE
  8
1
  6
CONTINUOUS
 62
     1
 10
 7.79291445264971E+0000
 20
 5.99698418045591E+0000
 11
 7.74830773206486E+0000
 21
 5.95237745987106E+0000
  0
LINE
  8
1
  6
CONTINUOUS
 62
     1
 10
 7.77527097479469E+0000
 20
 5.99999490678601E+0000
 11
 7.74830773206486E+0000
 21
 5.97303166405618E+0000
  0
LINE
  8
1
  6
CONTINUOUS
 62
     1
 10
 7.75762749694695E+0000
 20
 6.00300563313067E+0000
 11
 7.74830773206486E+0000
 21
 5.99368586824130E+0000
  0
LINE
  8
1
  6
CONTINUOUS
 62
     1
 10
 7.90759705870005E+0000
 20
 5.97741445930296E+0000
 11
 7.90759705870005E+0000
 21
 5.97741445930296E+0000
  0
LINE
  8
1
  6
CONTINUOUS
 62
     1
 10
 7.90759705870005E+0000
 20
 5.97741445930296E+0000
 11
 7.74830773206486E+0000
 21
 6.00459598066664E+0000
  0
LINE
  8
1
  6
CONTINUOUS
 62
     1
 10
 7.74830773206486E+0000
 20
 6.00459598066664E+0000
 11
 7.74830773206486E+0000
 21
 5.94419234319503E+0000
  0
LINE
  8
1
  6
CONTINUOUS
 62
     1
 10
 7.74830773206486E+0000
 20
 5.94419234319503E+0000
 11
 7.90759705870005E+0000
 21
 5.97741445930296E+0000
  0
LINE
  8
1
  6
CONTINUOUS
 62
     1
 10
 7.74830773206486E+0000
 20
 6.00459598066664E+0000
 11
 7.74830773206486E+0000
 21
 5.94419234319503E+0000
  0
LINE
  8
1
  6
CONTINUOUS
 62
     1
 10
 7.75685266382061E+0000
 20
 5.94597451354639E+0000
 11
 7.74830773207213E+0000
 21
 5.95451944530214E+0000
  0
LINE
  8
1
  6
CONTINUOUS
 62
     1
 10
 7.77394252731028E+0000
 20
 5.94953885424184E+0000
 11
 7.74830773206486E+0000
 21
 5.97517364948726E+0000
  0
LINE
  8
1
  6
CONTINUOUS
 62
     1
 10
 7.79103239079996E+0000
 20
 5.95310319493728E+0000
 11
 7.74830773206486E+0000
 21
 5.99582785367238E+0000
  0
LINE
  8
1
  6
CONTINUOUS
 62
     1
 10
 7.80812225429690E+0000
 20
 5.95666753563273E+0000
 11
 7.76263940026547E+0000
 21
 6.00215038965689E+0000
  0
LINE
  8
1
  6
CONTINUOUS
 62
     1
 10
 7.82521211778658E+0000
 20
 5.96023187632818E+0000
 11
 7.78754326018679E+0000
 21
 5.99790073392069E+0000
  0
LINE
  8
1
  6
CONTINUOUS
 62
     1
 10
 7.84230198127625E+0000
 20
 5.96379621702363E+0000
 11
 7.81244712010812E+0000
 21
 5.99365107819176E+0000
  0
LINE
  8
1
  6
CONTINUOUS
 62
     1
 10
 7.85939184476592E+0000
 20
 5.96736055771908E+0000
 11
 7.83735098002944E+0000
 21
 5.98940142245556E+0000
  0
LINE
  8
1
  6
CONTINUOUS
 62
     1
 10
 7.87648170825560E+0000
 20
 5.97092489841452E+0000
 11
 7.86225483994349E+0000
 21
 5.98515176671935E+0000
  0
LINE
  8
1
  6
CONTINUOUS
 62
     1
 10
 7.89357157174527E+0000
 20
 5.97448923910997E+0000
 11
 7.88715869986481E+0000
 21
 5.98090211098315E+0000
  0
LINE
  8
1
  6
CONTINUOUS
 62
     1
 10
 7.89877531976526E+0000
 20
 5.97891982246801E+0000
 11
 7.89454848616879E+0000
 21
 5.97469298886426E+0000
  0
LINE
  8
1
  6
CONTINUOUS
 62
     1
 10
 7.88113184191752E+0000
 20
 5.98193054879812E+0000
 11
 7.86845134114265E+0000
 21
 5.96925004802324E+0000
  0
LINE
  8
1
  6
CONTINUOUS
 62
     1
 10
 7.86348836406250E+0000
 20
 5.98494127512822E+0000
 11
 7.84235419610923E+0000
 21
 5.96380710718222E+0000
  0
LINE
  8
1
  6
CONTINUOUS
 62
     1
 10
 7.84584488620749E+0000
 20
 5.98795200145832E+0000
 11
 7.81625705108308E+0000
 21
 5.95836416634120E+0000
  0
LINE
  8
1
  6
CONTINUOUS
 62
     1
 10
 7.82820140835247E+0000
 20
 5.99096272779570E+0000
 11
 7.79015990605694E+0000
 21
 5.95292122549290E+0000
  0
LINE
  8
1
  6
CONTINUOUS
 62
     1
 10
 7.81055793049745E+0000
 20
 5.99397345412581E+0000
 11
 7.76406276102352E+0000
 21
 5.94747828465188E+0000
  0
LINE
  8
1
  6
CONTINUOUS
 62
     1
 10
 7.79291445264971E+0000
 20
 5.99698418045591E+0000
 11
 7.74830773206486E+0000
 21
 5.95237745987106E+0000
  0
LINE
  8
1
  6
CONTINUOUS
 62
     1
 10
 7.77527097479469E+0000
 20
 5.99999490678601E+0000
 11
 7.74830773206486E+0000
 21
 5.97303166405618E+0000
  0
LINE
  8
1
  6
CONTINUOUS
 62
     1
 10
 7.75762749694695E+0000
 20
 6.00300563313067E+0000
 11
 7.74830773206486E+0000
 21
 5.99368586824130E+0000
  0
LINE
  8
1
  6
CONTINUOUS
 62
     1
 10
 7.63874953833874E+0000
 20
 6.46094951298437E+0000
 11
 7.63874953833874E+0000
 21
 6.46094951298437E+0000
  0
LINE
  8
1
  6
CONTINUOUS
 62
     1
 10
 7.63874953833874E+0000
 20
 6.46094951298437E+0000
 11
 7.47946021170355E+0000
 21
 6.48813103434804E+0000
  0
LINE
  8
1
  6
CONTINUOUS
 62
     1
 10
 7.47946021170355E+0000
 20
 6.48813103434804E+0000
 11
 7.47946021170355E+0000
 21
 6.42772739687643E+0000
  0
LINE
  8
1
  6
CONTINUOUS
 62
     1
 10
 7.47946021170355E+0000
 20
 6.42772739687643E+0000
 11
 7.63874953833874E+0000
 21
 6.46094951298437E+0000
  0
LINE
  8
1
  6
CONTINUOUS
 62
     1
 10
 7.47946021170355E+0000
 20
 6.48813103434804E+0000
 11
 7.47946021170355E+0000
 21
 6.42772739687643E+0000
  0
LINE
  8
1
  6
CONTINUOUS
 62
     1
 10
 7.48800514345203E+0000
 20
 6.42950956722052E+0000
 11
 7.47946021170355E+0000
 21
 6.43805449897627E+0000
  0
LINE
  8
1
  6
CONTINUOUS
 62
     1
 10
 7.50509500694898E+0000
 20
 6.43307390791597E+0000
 11
 7.47946021170355E+0000
 21
 6.45870870316139E+0000
  0
LINE
  8
1
  6
CONTINUOUS
 62
     1
 10
 7.52218487043865E+0000
 20
 6.43663824861142E+0000
 11
 7.47946021171083E+0000
 21
 6.47936290733924E+0000
  0
LINE
  8
1
  6
CONTINUOUS
 62
     1
 10
 7.53927473392832E+0000
 20
 6.44020258930686E+0000
 11
 7.49379187988961E+0000
 21
 6.48568544334557E+0000
  0
LINE
  8
1
  6
CONTINUOUS
 62
     1
 10
 7.55636459741800E+0000
 20
 6.44376693000231E+0000
 11
 7.51869573981094E+0000
 21
 6.48143578760937E+0000
  0
LINE
  8
1
  6
CONTINUOUS
 62
     1
 10
 7.57345446090767E+0000
 20
 6.44733127069776E+0000
 11
 7.54359959973226E+0000
 21
 6.47718613187317E+0000
  0
LINE
  8
1
  6
CONTINUOUS
 62
     1
 10
 7.59054432439734E+0000
 20
 6.45089561139321E+0000
 11
 7.56850345965358E+0000
 21
 6.47293647613697E+0000
  0
LINE
  8
1
  6
CONTINUOUS
 62
     1
 10
 7.60763418788702E+0000
 20
 6.45445995208865E+0000
 11
 7.59340731957491E+0000
 21
 6.46868682040076E+0000
  0
LINE
  8
1
  6
CONTINUOUS
 62
     1
 10
 7.62472405137669E+0000
 20
 6.45802429278410E+0000
 11
 7.61831117949623E+0000
 21
 6.46443716466456E+0000
  0
LINE
  8
1
  6
CONTINUOUS
 62
     1
 10
 7.62992779941123E+0000
 20
 6.46245487614942E+0000
 11
 7.62570096581476E+0000
 21
 6.45822804255295E+0000
  0
LINE
  8
1
  6
CONTINUOUS
 62
     1
 10
 7.61228432155622E+0000
 20
 6.46546560248680E+0000
 11
 7.59960382078862E+0000
 21
 6.45278510171192E+0000
  0
LINE
  8
1
  6
CONTINUOUS
 62
     1
 10
 7.59464084370848E+0000
 20
 6.46847632881691E+0000
 11
 7.57350667575520E+0000
 21
 6.44734216086363E+0000
  0
LINE
  8
1
  6
CONTINUOUS
 62
     1
 10
 7.57699736585346E+0000
 20
 6.47148705514701E+0000
 11
 7.54740953071450E+0000
 21
 6.44189922001533E+0000
  0
LINE
  8
1
  6
CONTINUOUS
 62
     1
 10
 7.55935388799844E+0000
 20
 6.47449778147711E+0000
 11
 7.52131238568836E+0000
 21
 6.43645627916703E+0000
  0
LINE
  8
1
  6
CONTINUOUS
 62
     1
 10
 7.54171041014342E+0000
 20
 6.47750850780722E+0000
 11
 7.49521524066222E+0000
 21
 6.43101333832601E+0000
  0
LINE
  8
1
  6
CONTINUOUS
 62
     1
 10
 7.52406693228841E+0000
 20
 6.48051923414459E+0000
 11
 7.47946021169628E+0000
 21
 6.43591251354519E+0000
  0
LINE
  8
1
  6
CONTINUOUS
 62
     1
 10
 7.50642345444066E+0000
 20
 6.48352996047470E+0000
 11
 7.47946021169628E+0000
 21
 6.45656671773031E+0000
  0
LINE
  8
1
  6
CONTINUOUS
 62
     1
 10
 7.48877997658565E+0000
 20
 6.48654068680480E+0000
 11
 7.47946021169628E+0000
 21
 6.47722092191543E+0000
  0
LINE
  8
1
  6
CONTINUOUS
 62
     1
 10
 7.63874953833874E+0000
 20
 6.46094951298437E+0000
 11
 7.63874953833874E+0000
 21
 6.46094951298437E+0000
  0
LINE
  8
1
  6
CONTINUOUS
 62
     1
 10
 7.63874953833874E+0000
 20
 6.46094951298437E+0000
 11
 7.47946021170355E+0000
 21
 6.48813103434804E+0000
  0
LINE
  8
1
  6
CONTINUOUS
 62
     1
 10
 7.47946021170355E+0000
 20
 6.48813103434804E+0000
 11
 7.47946021170355E+0000
 21
 6.42772739687643E+0000
  0
LINE
  8
1
  6
CONTINUOUS
 62
     1
 10
 7.47946021170355E+0000
 20
 6.42772739687643E+0000
 11
 7.63874953833874E+0000
 21
 6.46094951298437E+0000
  0
LINE
  8
1
  6
CONTINUOUS
 62
     1
 10
 7.47946021170355E+0000
 20
 6.48813103434804E+0000
 11
 7.47946021170355E+0000
 21
 6.42772739687643E+0000
  0
LINE
  8
1
  6
CONTINUOUS
 62
     1
 10
 7.48800514345203E+0000
 20
 6.42950956722052E+0000
 11
 7.47946021170355E+0000
 21
 6.43805449897627E+0000
  0
LINE
  8
1
  6
CONTINUOUS
 62
     1
 10
 7.50509500694898E+0000
 20
 6.43307390791597E+0000
 11
 7.47946021170355E+0000
 21
 6.45870870316139E+0000
  0
LINE
  8
1
  6
CONTINUOUS
 62
     1
 10
 7.52218487043865E+0000
 20
 6.43663824861142E+0000
 11
 7.47946021171083E+0000
 21
 6.47936290733924E+0000
  0
LINE
  8
1
  6
CONTINUOUS
 62
     1
 10
 7.53927473392832E+0000
 20
 6.44020258930686E+0000
 11
 7.49379187988961E+0000
 21
 6.48568544334557E+0000
  0
LINE
  8
1
  6
CONTINUOUS
 62
     1
 10
 7.55636459741800E+0000
 20
 6.44376693000231E+0000
 11
 7.51869573981094E+0000
 21
 6.48143578760937E+0000
  0
LINE
  8
1
  6
CONTINUOUS
 62
     1
 10
 7.57345446090767E+0000
 20
 6.44733127069776E+0000
 11
 7.54359959973226E+0000
 21
 6.47718613187317E+0000
  0
LINE
  8
1
  6
CONTINUOUS
 62
     1
 10
 7.59054432439734E+0000
 20
 6.45089561139321E+0000
 11
 7.56850345965358E+0000
 21
 6.47293647613697E+0000
  0
LINE
  8
1
  6
CONTINUOUS
 62
     1
 10
 7.60763418788702E+0000
 20
 6.45445995208865E+0000
 11
 7.59340731957491E+0000
 21
 6.46868682040076E+0000
  0
LINE
  8
1
  6
CONTINUOUS
 62
     1
 10
 7.62472405137669E+0000
 20
 6.45802429278410E+0000
 11
 7.61831117949623E+0000
 21
 6.46443716466456E+0000
  0
LINE
  8
1
  6
CONTINUOUS
 62
     1
 10
 7.62992779941123E+0000
 20
 6.46245487614942E+0000
 11
 7.62570096581476E+0000
 21
 6.45822804255295E+0000
  0
LINE
  8
1
  6
CONTINUOUS
 62
     1
 10
 7.61228432155622E+0000
 20
 6.46546560248680E+0000
 11
 7.59960382078862E+0000
 21
 6.45278510171192E+0000
  0
LINE
  8
1
  6
CONTINUOUS
 62
     1
 10
 7.59464084370848E+0000
 20
 6.46847632881691E+0000
 11
 7.57350667575520E+0000
 21
 6.44734216086363E+0000
  0
LINE
  8
1
  6
CONTINUOUS
 62
     1
 10
 7.57699736585346E+0000
 20
 6.47148705514701E+0000
 11
 7.54740953071450E+0000
 21
 6.44189922001533E+0000
  0
LINE
  8
1
  6
CONTINUOUS
 62
     1
 10
 7.55935388799844E+0000
 20
 6.47449778147711E+0000
 11
 7.52131238568836E+0000
 21
 6.43645627916703E+0000
  0
LINE
  8
1
  6
CONTINUOUS
 62
     1
 10
 7.54171041014342E+0000
 20
 6.47750850780722E+0000
 11
 7.49521524066222E+0000
 21
 6.43101333832601E+0000
  0
LINE
  8
1
  6
CONTINUOUS
 62
     1
 10
 7.52406693228841E+0000
 20
 6.48051923414459E+0000
 11
 7.47946021169628E+0000
 21
 6.43591251354519E+0000
  0
LINE
  8
1
  6
CONTINUOUS
 62
     1
 10
 7.50642345444066E+0000
 20
 6.48352996047470E+0000
 11
 7.47946021169628E+0000
 21
 6.45656671773031E+0000
  0
LINE
  8
1
  6
CONTINUOUS
 62
     1
 10
 7.48877997658565E+0000
 20
 6.48654068680480E+0000
 11
 7.47946021169628E+0000
 21
 6.47722092191543E+0000
  0
LINE
  8
1
  6
CONTINUOUS
 62
     1
 10
 7.20283981525426E+0000
 20
 3.45350794799378E+0000
 11
 7.20283981525426E+0000
 21
 3.45350794799378E+0000
  0
LINE
  8
1
  6
CONTINUOUS
 62
     1
 10
 7.20283981525426E+0000
 20
 3.45350794799378E+0000
 11
 7.23002133661794E+0000
 21
 3.61279727462170E+0000
  0
LINE
  8
1
  6
CONTINUOUS
 62
     1
 10
 7.23002133661794E+0000
 20
 3.61279727462170E+0000
 11
 7.16961769914633E+0000
 21
 3.61279727462170E+0000
  0
LINE
  8
1
  6
CONTINUOUS
 62
     1
 10
 7.16961769914633E+0000
 20
 3.61279727462170E+0000
 11
 7.20283981525426E+0000
 21
 3.45350794799378E+0000
  0
LINE
  8
1
  6
CONTINUOUS
 62
     1
 10
 7.23002133661794E+0000
 20
 3.61279727462170E+0000
 11
 7.16961769914633E+0000
 21
 3.61279727462170E+0000
  0
LINE
  8
1
  6
CONTINUOUS
 62
     1
 10
 7.20434517842659E+0000
 20
 3.46232968692129E+0000
 11
 7.20011834483012E+0000
 21
 3.46655652051049E+0000
  0
LINE
  8
1
  6
CONTINUOUS
 62
     1
 10
 7.20735590475670E+0000
 20
 3.47997316477267E+0000
 11
 7.19467540398909E+0000
 21
 3.49265366554027E+0000
  0
LINE
  8
1
  6
CONTINUOUS
 62
     1
 10
 7.21036663108680E+0000
 20
 3.49761664262405E+0000
 11
 7.18923246314080E+0000
 21
 3.51875081057733E+0000
  0
LINE
  8
1
  6
CONTINUOUS
 62
     1
 10
 7.21337735742418E+0000
 20
 3.51526012047907E+0000
 11
 7.18378952229250E+0000
 21
 3.54484795560711E+0000
  0
LINE
  8
1
  6
CONTINUOUS
 62
     1
 10
 7.21638808375428E+0000
 20
 3.53290359833045E+0000
 11
 7.17834658144420E+0000
 21
 3.57094510063689E+0000
  0
LINE
  8
1
  6
CONTINUOUS
 62
     1
 10
 7.21939881008439E+0000
 20
 3.55054707618183E+0000
 11
 7.17290364059591E+0000
 21
 3.59704224567031E+0000
  0
LINE
  8
1
  6
CONTINUOUS
 62
     1
 10
 7.22240953642176E+0000
 20
 3.56819055403685E+0000
 11
 7.17780281583691E+0000
 21
 3.61279727462170E+0000
  0
LINE
  8
1
  6
CONTINUOUS
 62
     1
 10
 7.22542026275187E+0000
 20
 3.58583403188823E+0000
 11
 7.19845702002203E+0000
 21
 3.61279727462170E+0000
  0
LINE
  8
1
  6
CONTINUOUS
 62
     1
 10
 7.22843098908197E+0000
 20
 3.60347750973961E+0000
 11
 7.21911122419988E+0000
 21
 3.61279727462534E+0000
  0
LINE
  8
1
  6
CONTINUOUS
 62
     1
 10
 7.20496464311873E+0000
 20
 3.46595987795081E+0000
 11
 7.20105764490290E+0000
 21
 3.46205287973862E+0000
  0
LINE
  8
1
  6
CONTINUOUS
 62
     1
 10
 7.20921429885493E+0000
 20
 3.49086373787213E+0000
 11
 7.19749330420746E+0000
 21
 3.47914274322829E+0000
  0
LINE
  8
1
  6
CONTINUOUS
 62
     1
 10
 7.21346395459113E+0000
 20
 3.51576759779346E+0000
 11
 7.19392896351201E+0000
 21
 3.49623260671433E+0000
  0
LINE
  8
1
  6
CONTINUOUS
 62
     1
 10
 7.21771361032006E+0000
 20
 3.54067145771114E+0000
 11
 7.19036462281656E+0000
 21
 3.51332247020764E+0000
  0
LINE
  8
1
  6
CONTINUOUS
 62
     1
 10
 7.22196326605626E+0000
 20
 3.56557531763247E+0000
 11
 7.18680028212111E+0000
 21
 3.53041233370095E+0000
  0
LINE
  8
1
  6
CONTINUOUS
 62
     1
 10
 7.22621292179247E+0000
 20
 3.59047917755379E+0000
 11
 7.18323594143294E+0000
 21
 3.54750219719062E+0000
  0
LINE
  8
1
  6
CONTINUOUS
 62
     1
 10
 7.22787681467162E+0000
 20
 3.61279727461806E+0000
 11
 7.17967160073022E+0000
 21
 3.56459206067666E+0000
  0
LINE
  8
1
  6
CONTINUOUS
 62
     1
 10
 7.20722261048650E+0000
 20
 3.61279727461806E+0000
 11
 7.17610726003477E+0000
 21
 3.58168192416997E+0000
  0
LINE
  8
1
  6
CONTINUOUS
 62
     1
 10
 7.18656840630138E+0000
 20
 3.61279727461806E+0000
 11
 7.17254291934660E+0000
 21
 3.59877178765964E+0000
  0
LINE
  8
1
  6
CONTINUOUS
 62
     1
 10
 6.76003213464719E+0000
 20
 2.88277804855534E+0000
 11
 6.76003213464719E+0000
 21
 2.88277804855534E+0000
  0
LINE
  8
1
  6
CONTINUOUS
 62
     1
 10
 6.76003213464719E+0000
 20
 2.88277804855534E+0000
 11
 6.78721365601086E+0000
 21
 3.04206737518325E+0000
  0
LINE
  8
1
  6
CONTINUOUS
 62
     1
 10
 6.78721365601086E+0000
 20
 3.04206737518325E+0000
 11
 6.72681001853925E+0000
 21
 3.04206737518325E+0000
  0
LINE
  8
1
  6
CONTINUOUS
 62
     1
 10
 6.72681001853925E+0000
 20
 3.04206737518325E+0000
 11
 6.76003213464719E+0000
 21
 2.88277804855534E+0000
  0
LINE
  8
1
  6
CONTINUOUS
 62
     1
 10
 6.78721365601086E+0000
 20
 3.04206737518325E+0000
 11
 6.72681001853925E+0000
 21
 3.04206737518325E+0000
  0
LINE
  8
1
  6
CONTINUOUS
 62
     1
 10
 6.76153749781224E+0000
 20
 2.89159978748285E+0000
 11
 6.75731066422304E+0000
 21
 2.89582662107205E+0000
  0
LINE
  8
1
  6
CONTINUOUS
 62
     1
 10
 6.76454822414962E+0000
 20
 2.90924326533423E+0000
 11
 6.75186772338202E+0000
 21
 2.92192376610183E+0000
  0
LINE
  8
1
  6
CONTINUOUS
 62
     1
 10
 6.76755895047972E+0000
 20
 2.92688674318561E+0000
 11
 6.74642478253372E+0000
 21
 2.94802091113888E+0000
  0
LINE
  8
1
  6
CONTINUOUS
 62
     1
 10
 6.77056967680983E+0000
 20
 2.94453022104062E+0000
 11
 6.74098184168543E+0000
 21
 2.97411805616866E+0000
  0
LINE
  8
1
  6
CONTINUOUS
 62
     1
 10
 6.77358040314721E+0000
 20
 2.96217369889200E+0000
 11
 6.73553890083713E+0000
 21
 3.00021520119844E+0000
  0
LINE
  8
1
  6
CONTINUOUS
 62
     1
 10
 6.77659112947731E+0000
 20
 2.97981717674338E+0000
 11
 6.73009595998883E+0000
 21
 3.02631234623186E+0000
  0
LINE
  8
1
  6
CONTINUOUS
 62
     1
 10
 6.77960185581469E+0000
 20
 2.99746065459840E+0000
 11
 6.73499513522984E+0000
 21
 3.04206737518325E+0000
  0
LINE
  8
1
  6
CONTINUOUS
 62
     1
 10
 6.78261258214479E+0000
 20
 3.01510413244978E+0000
 11
 6.75564933941496E+0000
 21
 3.04206737518325E+0000
  0
LINE
  8
1
  6
CONTINUOUS
 62
     1
 10
 6.78562330847490E+0000
 20
 3.03274761030116E+0000
 11
 6.77630354359280E+0000
 21
 3.04206737518689E+0000
  0
LINE
  8
1
  6
CONTINUOUS
 62
     1
 10
 6.76215696251165E+0000
 20
 2.89522997851600E+0000
 11
 6.75824996429583E+0000
 21
 2.89132298030017E+0000
  0
LINE
  8
1
  6
CONTINUOUS
 62
     1
 10
 6.76640661824786E+0000
 20
 2.92013383843732E+0000
 11
 6.75468562360038E+0000
 21
 2.90841284379349E+0000
  0
LINE
  8
1
  6
CONTINUOUS
 62
     1
 10
 6.77065627398406E+0000
 20
 2.94503769835501E+0000
 11
 6.75112128290493E+0000
 21
 2.92550270727952E+0000
  0
LINE
  8
1
  6
CONTINUOUS
 62
     1
 10
 6.77490592971299E+0000
 20
 2.96994155827269E+0000
 11
 6.74755694220948E+0000
 21
 2.94259257076919E+0000
  0
LINE
  8
1
  6
CONTINUOUS
 62
     1
 10
 6.77915558544919E+0000
 20
 2.99484541819402E+0000
 11
 6.74399260151404E+0000
 21
 2.95968243426250E+0000
  0
LINE
  8
1
  6
CONTINUOUS
 62
     1
 10
 6.78340524118539E+0000
 20
 3.01974927811534E+0000
 11
 6.74042826081859E+0000
 21
 2.97677229775218E+0000
  0
LINE
  8
1
  6
CONTINUOUS
 62
     1
 10
 6.78506913406454E+0000
 20
 3.04206737518325E+0000
 11
 6.73686392012314E+0000
 21
 2.99386216123821E+0000
  0
LINE
  8
1
  6
CONTINUOUS
 62
     1
 10
 6.76441492987942E+0000
 20
 3.04206737518325E+0000
 11
 6.73329957942769E+0000
 21
 3.01095202473152E+0000
  0
LINE
  8
1
  6
CONTINUOUS
 62
     1
 10
 6.74376072569430E+0000
 20
 3.04206737518325E+0000
 11
 6.72973523873225E+0000
 21
 3.02804188822483E+0000
  0
LINE
  8
1
  6
CONTINUOUS
 62
     1
 10
 6.76273341094929E+0000
 20
 5.63175063880772E+0000
 11
 6.76273341094929E+0000
 21
 5.63175063880772E+0000
  0
LINE
  8
1
  6
CONTINUOUS
 62
     1
 10
 6.76273341094929E+0000
 20
 5.63175063880772E+0000
 11
 6.73555188958562E+0000
 21
 5.47246131217980E+0000
  0
LINE
  8
1
  6
CONTINUOUS
 62
     1
 10
 6.73555188958562E+0000
 20
 5.47246131217980E+0000
 11
 6.79595552705723E+0000
 21
 5.47246131217980E+0000
  0
LINE
  8
1
  6
CONTINUOUS
 62
     1
 10
 6.79595552705723E+0000
 20
 5.47246131217980E+0000
 11
 6.76273341094929E+0000
 21
 5.63175063880772E+0000
  0
LINE
  8
1
  6
CONTINUOUS
 62
     1
 10
 6.73555188958562E+0000
 20
 5.47246131217980E+0000
 11
 6.79595552705723E+0000
 21
 5.47246131217980E+0000
  0
LINE
  8
1
  6
CONTINUOUS
 62
     1
 10
 6.74587899169273E+0000
 20
 5.47246131218708E+0000
 11
 6.73705725275795E+0000
 21
 5.48128305112186E+0000
  0
LINE
  8
1
  6
CONTINUOUS
 62
     1
 10
 6.76653319587786E+0000
 20
 5.47246131217980E+0000
 11
 6.74006797908805E+0000
 21
 5.49892652896960E+0000
  0
LINE
  8
1
  6
CONTINUOUS
 62
     1
 10
 6.78718740006298E+0000
 20
 5.47246131217980E+0000
 11
 6.74307870542543E+0000
 21
 5.51657000682462E+0000
  0
LINE
  8
1
  6
CONTINUOUS
 62
     1
 10
 6.79282322457584E+0000
 20
 5.48747969185933E+0000
 11
 6.74608943175554E+0000
 21
 5.53421348467964E+0000
  0
LINE
  8
1
  6
CONTINUOUS
 62
     1
 10
 6.78738028372754E+0000
 20
 5.51357683689275E+0000
 11
 6.74910015808564E+0000
 21
 5.55185696253466E+0000
  0
LINE
  8
1
  6
CONTINUOUS
 62
     1
 10
 6.78193734288652E+0000
 20
 5.53967398191890E+0000
 11
 6.75211088442302E+0000
 21
 5.56950044038240E+0000
  0
LINE
  8
1
  6
CONTINUOUS
 62
     1
 10
 6.77649440203822E+0000
 20
 5.56577112695231E+0000
 11
 6.75512161075312E+0000
 21
 5.58714391823742E+0000
  0
LINE
  8
1
  6
CONTINUOUS
 62
     1
 10
 6.77105146118993E+0000
 20
 5.59186827198573E+0000
 11
 6.75813233708323E+0000
 21
 5.60478739609243E+0000
  0
LINE
  8
1
  6
CONTINUOUS
 62
     1
 10
 6.76560852034163E+0000
 20
 5.61796541701915E+0000
 11
 6.76114306342060E+0000
 21
 5.62243087394745E+0000
  0
LINE
  8
1
  6
CONTINUOUS
 62
     1
 10
 6.79417335670587E+0000
 20
 5.48100624392100E+0000
 11
 6.78562842495739E+0000
 21
 5.47246131217253E+0000
  0
LINE
  8
1
  6
CONTINUOUS
 62
     1
 10
 6.79060901601770E+0000
 20
 5.49809610741795E+0000
 11
 6.76497422077227E+0000
 21
 5.47246131217253E+0000
  0
LINE
  8
1
  6
CONTINUOUS
 62
     1
 10
 6.78704467532225E+0000
 20
 5.51518597090762E+0000
 11
 6.74432001658715E+0000
 21
 5.47246131217253E+0000
  0
LINE
  8
1
  6
CONTINUOUS
 62
     1
 10
 6.78348033462680E+0000
 20
 5.53227583439730E+0000
 11
 6.73799748058082E+0000
 21
 5.48679298035859E+0000
  0
LINE
  8
1
  6
CONTINUOUS
 62
     1
 10
 6.77991599392408E+0000
 20
 5.54936569787969E+0000
 11
 6.74224713631702E+0000
 21
 5.51169684027991E+0000
  0
LINE
  8
1
  6
CONTINUOUS
 62
     1
 10
 6.77635165322863E+0000
 20
 5.56645556136937E+0000
 11
 6.74649679205322E+0000
 21
 5.53660070020123E+0000
  0
LINE
  8
1
  6
CONTINUOUS
 62
     1
 10
 6.77278731253318E+0000
 20
 5.58354542486632E+0000
 11
 6.75074644778942E+0000
 21
 5.56150456012256E+0000
  0
LINE
  8
1
  6
CONTINUOUS
 62
     1
 10
 6.76922297184501E+0000
 20
 5.60063528835599E+0000
 11
 6.75499610352563E+0000
 21
 5.58640842004388E+0000
  0
LINE
  8
1
  6
CONTINUOUS
 62
     1
 10
 6.76565863114956E+0000
 20
 5.61772515184566E+0000
 11
 6.75924575926183E+0000
 21
 5.61131227995793E+0000
  0
LINE
  8
1
  6
CONTINUOUS
 62
     1
 10
 7.38000063702202E+0000
 20
 4.57334722599626E+0000
 11
 7.38000063702202E+0000
 21
 4.57334722599626E+0000
  0
LINE
  8
1
  6
CONTINUOUS
 62
     1
 10
 7.38000063702202E+0000
 20
 4.57334722599626E+0000
 11
 7.38000063702202E+0000
 21
 4.57334722599626E+0000
  0
LINE
  8
1
  6
CONTINUOUS
 62
     1
 10
 7.20554109155637E+0000
 20
 5.02931352272572E+0000
 11
 7.20554109155637E+0000
 21
 5.02931352272572E+0000
  0
LINE
  8
1
  6
CONTINUOUS
 62
     1
 10
 7.20554109155637E+0000
 20
 5.02931352272572E+0000
 11
 7.17835957019270E+0000
 21
 4.87002419609780E+0000
  0
LINE
  8
1
  6
CONTINUOUS
 62
     1
 10
 7.17835957019270E+0000
 20
 4.87002419609780E+0000
 11
 7.23876320766431E+0000
 21
 4.87002419609780E+0000
  0
LINE
  8
1
  6
CONTINUOUS
 62
     1
 10
 7.23876320766431E+0000
 20
 4.87002419609780E+0000
 11
 7.20554109155637E+0000
 21
 5.02931352272572E+0000
  0
LINE
  8
1
  6
CONTINUOUS
 62
     1
 10
 7.17835957019270E+0000
 20
 4.87002419609780E+0000
 11
 7.23876320766431E+0000
 21
 4.87002419609780E+0000
  0
LINE
  8
1
  6
CONTINUOUS
 62
     1
 10
 7.18868667229981E+0000
 20
 4.87002419609780E+0000
 11
 7.17986493335775E+0000
 21
 4.87884593503259E+0000
  0
LINE
  8
1
  6
CONTINUOUS
 62
     1
 10
 7.20934087648493E+0000
 20
 4.87002419609780E+0000
 11
 7.18287565969513E+0000
 21
 4.89648941288760E+0000
  0
LINE
  8
1
  6
CONTINUOUS
 62
     1
 10
 7.22999508067005E+0000
 20
 4.87002419609780E+0000
 11
 7.18588638602523E+0000
 21
 4.91413289074262E+0000
  0
LINE
  8
1
  6
CONTINUOUS
 62
     1
 10
 7.23563090518292E+0000
 20
 4.88504257577006E+0000
 11
 7.18889711236261E+0000
 21
 4.93177636859036E+0000
  0
LINE
  8
1
  6
CONTINUOUS
 62
     1
 10
 7.23018796433462E+0000
 20
 4.91113972080348E+0000
 11
 7.19190783869271E+0000
 21
 4.94941984644538E+0000
  0
LINE
  8
1
  6
CONTINUOUS
 62
     1
 10
 7.22474502348632E+0000
 20
 4.93723686583689E+0000
 11
 7.19491856502282E+0000
 21
 4.96706332430040E+0000
  0
LINE
  8
1
  6
CONTINUOUS
 62
     1
 10
 7.21930208263802E+0000
 20
 4.96333401087031E+0000
 11
 7.19792929135292E+0000
 21
 4.98470680214814E+0000
  0
LINE
  8
1
  6
CONTINUOUS
 62
     1
 10
 7.21385914178973E+0000
 20
 4.98943115589645E+0000
 11
 7.20094001769030E+0000
 21
 5.00235028000316E+0000
  0
LINE
  8
1
  6
CONTINUOUS
 62
     1
 10
 7.20841620094870E+0000
 20
 5.01552830092987E+0000
 11
 7.20395074402040E+0000
 21
 5.01999375785817E+0000
  0
LINE
  8
1
  6
CONTINUOUS
 62
     1
 10
 7.23698103731294E+0000
 20
 4.87856912783900E+0000
 11
 7.22843610557175E+0000
 21
 4.87002419609780E+0000
  0
LINE
  8
1
  6
CONTINUOUS
 62
     1
 10
 7.23341669661750E+0000
 20
 4.89565899132867E+0000
 11
 7.20778190138662E+0000
 21
 4.87002419609780E+0000
  0
LINE
  8
1
  6
CONTINUOUS
 62
     1
 10
 7.22985235592205E+0000
 20
 4.91274885481835E+0000
 11
 7.18712769720150E+0000
 21
 4.87002419609780E+0000
  0
LINE
  8
1
  6
CONTINUOUS
 62
     1
 10
 7.22628801522660E+0000
 20
 4.92983871831530E+0000
 11
 7.18080516119517E+0000
 21
 4.88435586428386E+0000
  0
LINE
  8
1
  6
CONTINUOUS
 62
     1
 10
 7.22272367452388E+0000
 20
 4.94692858179769E+0000
 11
 7.18505481693137E+0000
 21
 4.90925972420519E+0000
  0
LINE
  8
1
  6
CONTINUOUS
 62
     1
 10
 7.21915933382843E+0000
 20
 4.96401844528737E+0000
 11
 7.18930447266757E+0000
 21
 4.93416358411923E+0000
  0
LINE
  8
1
  6
CONTINUOUS
 62
     1
 10
 7.21559499314026E+0000
 20
 4.98110830877704E+0000
 11
 7.19355412840378E+0000
 21
 4.95906744404056E+0000
  0
LINE
  8
1
  6
CONTINUOUS
 62
     1
 10
 7.21203065244481E+0000
 20
 4.99819817226671E+0000
 11
 7.19780378413998E+0000
 21
 4.98397130396188E+0000
  0
LINE
  8
1
  6
CONTINUOUS
 62
     1
 10
 7.20846631174936E+0000
 20
 5.01528803576366E+0000
 11
 7.20205343986163E+0000
 21
 5.00887516387593E+0000
  0
LINE
  8
1
  6
CONTINUOUS
 62
     1
 10
 5.30694435749319E+0000
 20
 2.56786577378807E+0000
 11
 5.30694435749319E+0000
 21
 2.56786577378807E+0000
  0
LINE
  8
1
  6
CONTINUOUS
 62
     1
 10
 5.30694435749319E+0000
 20
 2.56786577378807E+0000
 11
 5.46623368414294E+0000
 21
 2.54068425242440E+0000
  0
LINE
  8
1
  6
CONTINUOUS
 62
     1
 10
 5.46623368414294E+0000
 20
 2.54068425242440E+0000
 11
 5.46623368414294E+0000
 21
 2.60108788989601E+0000
  0
LINE
  8
1
  6
CONTINUOUS
 62
     1
 10
 5.46623368414294E+0000
 20
 2.60108788989601E+0000
 11
 5.30694435749319E+0000
 21
 2.56786577378807E+0000
  0
LINE
  8
1
  6
CONTINUOUS
 62
     1
 10
 5.46623368414294E+0000
 20
 2.54068425242440E+0000
 11
 5.46623368414294E+0000
 21
 2.60108788989601E+0000
  0
LINE
  8
1
  6
CONTINUOUS
 62
     1
 10
 5.31939628745022E+0000
 20
 2.56574094591997E+0000
 11
 5.31548928924167E+0000
 21
 2.56964794413216E+0000
  0
LINE
  8
1
  6
CONTINUOUS
 62
     1
 10
 5.34430014737154E+0000
 20
 2.56149129018377E+0000
 11
 5.33257915273134E+0000
 21
 2.57321228482760E+0000
  0
LINE
  8
1
  6
CONTINUOUS
 62
     1
 10
 5.36920400729286E+0000
 20
 2.55724163445120E+0000
 11
 5.34966901622101E+0000
 21
 2.57677662552305E+0000
  0
LINE
  8
1
  6
CONTINUOUS
 62
     1
 10
 5.39410786721419E+0000
 20
 2.55299197871864E+0000
 11
 5.36675887971069E+0000
 21
 2.58034096621850E+0000
  0
LINE
  8
1
  6
CONTINUOUS
 62
     1
 10
 5.41901172712824E+0000
 20
 2.54874232298243E+0000
 11
 5.38384874320036E+0000
 21
 2.58390530691031E+0000
  0
LINE
  8
1
  6
CONTINUOUS
 62
     1
 10
 5.44391558704956E+0000
 20
 2.54449266724987E+0000
 11
 5.40093860669003E+0000
 21
 2.58746964760576E+0000
  0
LINE
  8
1
  6
CONTINUOUS
 62
     1
 10
 5.46623368414294E+0000
 20
 2.54282877434161E+0000
 11
 5.41802847018698E+0000
 21
 2.59103398829757E+0000
  0
LINE
  8
1
  6
CONTINUOUS
 62
     1
 10
 5.46623368414294E+0000
 20
 2.56348297852674E+0000
 11
 5.43511833367666E+0000
 21
 2.59459832899302E+0000
  0
LINE
  8
1
  6
CONTINUOUS
 62
     1
 10
 5.46623368414294E+0000
 20
 2.58413718271186E+0000
 11
 5.45220819716633E+0000
 21
 2.59816266968846E+0000
  0
LINE
  8
1
  6
CONTINUOUS
 62
     1
 10
 5.46623368413566E+0000
 20
 2.55101135451696E+0000
 11
 5.45741194521543E+0000
 21
 2.54218961558945E+0000
  0
LINE
  8
1
  6
CONTINUOUS
 62
     1
 10
 5.46623368413566E+0000
 20
 2.57166555870208E+0000
 11
 5.43976846736041E+0000
 21
 2.54520034192319E+0000
  0
LINE
  8
1
  6
CONTINUOUS
 62
     1
 10
 5.46623368413566E+0000
 20
 2.59231976288720E+0000
 11
 5.42212498950539E+0000
 21
 2.54821106825329E+0000
  0
LINE
  8
1
  6
CONTINUOUS
 62
     1
 10
 5.45121530447796E+0000
 20
 2.59795558741462E+0000
 11
 5.40448151165037E+0000
 21
 2.55122179458340E+0000
  0
LINE
  8
1
  6
CONTINUOUS
 62
     1
 10
 5.42511815945181E+0000
 20
 2.59251264656996E+0000
 11
 5.38683803379536E+0000
 21
 2.55423252091714E+0000
  0
LINE
  8
1
  6
CONTINUOUS
 62
     1
 10
 5.39902101441839E+0000
 20
 2.58706970572166E+0000
 11
 5.36919455594762E+0000
 21
 2.55724324724724E+0000
  0
LINE
  8
1
  6
CONTINUOUS
 62
     1
 10
 5.37292386939225E+0000
 20
 2.58162676488064E+0000
 11
 5.35155107809260E+0000
 21
 2.56025397358098E+0000
  0
LINE
  8
1
  6
CONTINUOUS
 62
     1
 10
 5.34682672435883E+0000
 20
 2.57618382402870E+0000
 11
 5.33390760023758E+0000
 21
 2.56326469991109E+0000
  0
LINE
  8
1
  6
CONTINUOUS
 62
     1
 10
 5.32072957932542E+0000
 20
 2.57074088318768E+0000
 11
 5.31626412238256E+0000
 21
 2.56627542624483E+0000
  0
LINE
  8
1
  6
CONTINUOUS
 62
     1
 10
 5.30694435749319E+0000
 20
 2.56786577378807E+0000
 11
 5.30694435749319E+0000
 21
 2.56786577378807E+0000
  0
LINE
  8
1
  6
CONTINUOUS
 62
     1
 10
 5.30694435749319E+0000
 20
 2.56786577378807E+0000
 11
 5.46623368414294E+0000
 21
 2.54068425242440E+0000
  0
LINE
  8
1
  6
CONTINUOUS
 62
     1
 10
 5.46623368414294E+0000
 20
 2.54068425242440E+0000
 11
 5.46623368414294E+0000
 21
 2.60108788989601E+0000
  0
LINE
  8
1
  6
CONTINUOUS
 62
     1
 10
 5.46623368414294E+0000
 20
 2.60108788989601E+0000
 11
 5.30694435749319E+0000
 21
 2.56786577378807E+0000
  0
LINE
  8
1
  6
CONTINUOUS
 62
     1
 10
 5.46623368414294E+0000
 20
 2.54068425242440E+0000
 11
 5.46623368414294E+0000
 21
 2.60108788989601E+0000
  0
LINE
  8
1
  6
CONTINUOUS
 62
     1
 10
 5.31939628745022E+0000
 20
 2.56574094591997E+0000
 11
 5.31548928924167E+0000
 21
 2.56964794413216E+0000
  0
LINE
  8
1
  6
CONTINUOUS
 62
     1
 10
 5.34430014737154E+0000
 20
 2.56149129018377E+0000
 11
 5.33257915273134E+0000
 21
 2.57321228482760E+0000
  0
LINE
  8
1
  6
CONTINUOUS
 62
     1
 10
 5.36920400729286E+0000
 20
 2.55724163445120E+0000
 11
 5.34966901622101E+0000
 21
 2.57677662552305E+0000
  0
LINE
  8
1
  6
CONTINUOUS
 62
     1
 10
 5.39410786721419E+0000
 20
 2.55299197871864E+0000
 11
 5.36675887971069E+0000
 21
 2.58034096621850E+0000
  0
LINE
  8
1
  6
CONTINUOUS
 62
     1
 10
 5.41901172712824E+0000
 20
 2.54874232298243E+0000
 11
 5.38384874320036E+0000
 21
 2.58390530691031E+0000
  0
LINE
  8
1
  6
CONTINUOUS
 62
     1
 10
 5.44391558704956E+0000
 20
 2.54449266724987E+0000
 11
 5.40093860669003E+0000
 21
 2.58746964760576E+0000
  0
LINE
  8
1
  6
CONTINUOUS
 62
     1
 10
 5.46623368414294E+0000
 20
 2.54282877434161E+0000
 11
 5.41802847018698E+0000
 21
 2.59103398829757E+0000
  0
LINE
  8
1
  6
CONTINUOUS
 62
     1
 10
 5.46623368414294E+0000
 20
 2.56348297852674E+0000
 11
 5.43511833367666E+0000
 21
 2.59459832899302E+0000
  0
LINE
  8
1
  6
CONTINUOUS
 62
     1
 10
 5.46623368414294E+0000
 20
 2.58413718271186E+0000
 11
 5.45220819716633E+0000
 21
 2.59816266968846E+0000
  0
LINE
  8
1
  6
CONTINUOUS
 62
     1
 10
 5.46623368413566E+0000
 20
 2.55101135451696E+0000
 11
 5.45741194521543E+0000
 21
 2.54218961558945E+0000
  0
LINE
  8
1
  6
CONTINUOUS
 62
     1
 10
 5.46623368413566E+0000
 20
 2.57166555870208E+0000
 11
 5.43976846736041E+0000
 21
 2.54520034192319E+0000
  0
LINE
  8
1
  6
CONTINUOUS
 62
     1
 10
 5.46623368413566E+0000
 20
 2.59231976288720E+0000
 11
 5.42212498950539E+0000
 21
 2.54821106825329E+0000
  0
LINE
  8
1
  6
CONTINUOUS
 62
     1
 10
 5.45121530447796E+0000
 20
 2.59795558741462E+0000
 11
 5.40448151165037E+0000
 21
 2.55122179458340E+0000
  0
LINE
  8
1
  6
CONTINUOUS
 62
     1
 10
 5.42511815945181E+0000
 20
 2.59251264656996E+0000
 11
 5.38683803379536E+0000
 21
 2.55423252091714E+0000
  0
LINE
  8
1
  6
CONTINUOUS
 62
     1
 10
 5.39902101441839E+0000
 20
 2.58706970572166E+0000
 11
 5.36919455594762E+0000
 21
 2.55724324724724E+0000
  0
LINE
  8
1
  6
CONTINUOUS
 62
     1
 10
 5.37292386939225E+0000
 20
 2.58162676488064E+0000
 11
 5.35155107809260E+0000
 21
 2.56025397358098E+0000
  0
LINE
  8
1
  6
CONTINUOUS
 62
     1
 10
 5.34682672435883E+0000
 20
 2.57618382402870E+0000
 11
 5.33390760023758E+0000
 21
 2.56326469991109E+0000
  0
LINE
  8
1
  6
CONTINUOUS
 62
     1
 10
 5.32072957932542E+0000
 20
 2.57074088318768E+0000
 11
 5.31626412238256E+0000
 21
 2.56627542624483E+0000
  0
LINE
  8
1
  6
CONTINUOUS
 62
     1
 10
 4.89357445789210E+0000
 20
 2.56888867097587E+0000
 11
 4.89357445789210E+0000
 21
 2.56888867097587E+0000
  0
LINE
  8
1
  6
CONTINUOUS
 62
     1
 10
 4.89357445789210E+0000
 20
 2.56888867097587E+0000
 11
 4.73428513125691E+0000
 21
 2.59607019233954E+0000
  0
LINE
  8
1
  6
CONTINUOUS
 62
     1
 10
 4.73428513125691E+0000
 20
 2.59607019233954E+0000
 11
 4.73428513125691E+0000
 21
 2.53566655486793E+0000
  0
LINE
  8
1
  6
CONTINUOUS
 62
     1
 10
 4.73428513125691E+0000
 20
 2.53566655486793E+0000
 11
 4.89357445789210E+0000
 21
 2.56888867097587E+0000
  0
LINE
  8
1
  6
CONTINUOUS
 62
     1
 10
 4.73428513125691E+0000
 20
 2.59607019233954E+0000
 11
 4.73428513125691E+0000
 21
 2.53566655486793E+0000
  0
LINE
  8
1
  6
CONTINUOUS
 62
     1
 10
 4.74283006300539E+0000
 20
 2.53744872521565E+0000
 11
 4.73428513125691E+0000
 21
 2.54599365696049E+0000
  0
LINE
  8
1
  6
CONTINUOUS
 62
     1
 10
 4.75991992649506E+0000
 20
 2.54101306591110E+0000
 11
 4.73428513125691E+0000
 21
 2.56664786114561E+0000
  0
LINE
  8
1
  6
CONTINUOUS
 62
     1
 10
 4.77700978998473E+0000
 20
 2.54457740660655E+0000
 11
 4.73428513125691E+0000
 21
 2.58730206533073E+0000
  0
LINE
  8
1
  6
CONTINUOUS
 62
     1
 10
 4.79409965347440E+0000
 20
 2.54814174729836E+0000
 11
 4.74861679944297E+0000
 21
 2.59362460133343E+0000
  0
LINE
  8
1
  6
CONTINUOUS
 62
     1
 10
 4.81118951696408E+0000
 20
 2.55170608799381E+0000
 11
 4.77352065935702E+0000
 21
 2.58937494560087E+0000
  0
LINE
  8
1
  6
CONTINUOUS
 62
     1
 10
 4.82827938045375E+0000
 20
 2.55527042868925E+0000
 11
 4.79842451927834E+0000
 21
 2.58512528986466E+0000
  0
LINE
  8
1
  6
CONTINUOUS
 62
     1
 10
 4.84536924394342E+0000
 20
 2.55883476938470E+0000
 11
 4.82332837919967E+0000
 21
 2.58087563412846E+0000
  0
LINE
  8
1
  6
CONTINUOUS
 62
     1
 10
 4.86245910744037E+0000
 20
 2.56239911008015E+0000
 11
 4.84823223912099E+0000
 21
 2.57662597839590E+0000
  0
LINE
  8
1
  6
CONTINUOUS
 62
     1
 10
 4.87954897093005E+0000
 20
 2.56596345077196E+0000
 11
 4.87313609904231E+0000
 21
 2.57237632265969E+0000
  0
LINE
  8
1
  6
CONTINUOUS
 62
     1
 10
 4.88475271895732E+0000
 20
 2.57039403413728E+0000
 11
 4.88052588536812E+0000
 21
 2.56616720055172E+0000
  0
LINE
  8
1
  6
CONTINUOUS
 62
     1
 10
 4.86710924110230E+0000
 20
 2.57340476047102E+0000
 11
 4.85442874033470E+0000
 21
 2.56072425969978E+0000
  0
LINE
  8
1
  6
CONTINUOUS
 62
     1
 10
 4.84946576325456E+0000
 20
 2.57641548680112E+0000
 11
 4.82833159530855E+0000
 21
 2.55528131885876E+0000
  0
LINE
  8
1
  6
CONTINUOUS
 62
     1
 10
 4.83182228539954E+0000
 20
 2.57942621313850E+0000
 11
 4.80223445027514E+0000
 21
 2.54983837801046E+0000
  0
LINE
  8
1
  6
CONTINUOUS
 62
     1
 10
 4.81417880755180E+0000
 20
 2.58243693946861E+0000
 11
 4.77613730524899E+0000
 21
 2.54439543716580E+0000
  0
LINE
  8
1
  6
CONTINUOUS
 62
     1
 10
 4.79653532969678E+0000
 20
 2.58544766580235E+0000
 11
 4.75004016021558E+0000
 21
 2.53895249631751E+0000
  0
LINE
  8
1
  6
CONTINUOUS
 62
     1
 10
 4.77889185184176E+0000
 20
 2.58845839213245E+0000
 11
 4.73428513124964E+0000
 21
 2.54385167154396E+0000
  0
LINE
  8
1
  6
CONTINUOUS
 62
     1
 10
 4.76124837398675E+0000
 20
 2.59146911846619E+0000
 11
 4.73428513124964E+0000
 21
 2.56450587572908E+0000
  0
LINE
  8
1
  6
CONTINUOUS
 62
     1
 10
 4.74360489613900E+0000
 20
 2.59447984479630E+0000
 11
 4.73428513124964E+0000
 21
 2.58516007991420E+0000
  0
LINE
  8
1
  6
CONTINUOUS
 62
     1
 10
 4.89357445789210E+0000
 20
 2.56888867097587E+0000
 11
 4.89357445789210E+0000
 21
 2.56888867097587E+0000
  0
LINE
  8
1
  6
CONTINUOUS
 62
     1
 10
 4.89357445789210E+0000
 20
 2.56888867097587E+0000
 11
 4.73428513125691E+0000
 21
 2.59607019233954E+0000
  0
LINE
  8
1
  6
CONTINUOUS
 62
     1
 10
 4.73428513125691E+0000
 20
 2.59607019233954E+0000
 11
 4.73428513125691E+0000
 21
 2.53566655486793E+0000
  0
LINE
  8
1
  6
CONTINUOUS
 62
     1
 10
 4.73428513125691E+0000
 20
 2.53566655486793E+0000
 11
 4.89357445789210E+0000
 21
 2.56888867097587E+0000
  0
LINE
  8
1
  6
CONTINUOUS
 62
     1
 10
 4.73428513125691E+0000
 20
 2.59607019233954E+0000
 11
 4.73428513125691E+0000
 21
 2.53566655486793E+0000
  0
LINE
  8
1
  6
CONTINUOUS
 62
     1
 10
 4.74283006300539E+0000
 20
 2.53744872521565E+0000
 11
 4.73428513125691E+0000
 21
 2.54599365696049E+0000
  0
LINE
  8
1
  6
CONTINUOUS
 62
     1
 10
 4.75991992649506E+0000
 20
 2.54101306591110E+0000
 11
 4.73428513125691E+0000
 21
 2.56664786114561E+0000
  0
LINE
  8
1
  6
CONTINUOUS
 62
     1
 10
 4.77700978998473E+0000
 20
 2.54457740660655E+0000
 11
 4.73428513125691E+0000
 21
 2.58730206533073E+0000
  0
LINE
  8
1
  6
CONTINUOUS
 62
     1
 10
 4.79409965347440E+0000
 20
 2.54814174729836E+0000
 11
 4.74861679944297E+0000
 21
 2.59362460133343E+0000
  0
LINE
  8
1
  6
CONTINUOUS
 62
     1
 10
 4.81118951696408E+0000
 20
 2.55170608799381E+0000
 11
 4.77352065935702E+0000
 21
 2.58937494560087E+0000
  0
LINE
  8
1
  6
CONTINUOUS
 62
     1
 10
 4.82827938045375E+0000
 20
 2.55527042868925E+0000
 11
 4.79842451927834E+0000
 21
 2.58512528986466E+0000
  0
LINE
  8
1
  6
CONTINUOUS
 62
     1
 10
 4.84536924394342E+0000
 20
 2.55883476938470E+0000
 11
 4.82332837919967E+0000
 21
 2.58087563412846E+0000
  0
LINE
  8
1
  6
CONTINUOUS
 62
     1
 10
 4.86245910744037E+0000
 20
 2.56239911008015E+0000
 11
 4.84823223912099E+0000
 21
 2.57662597839590E+0000
  0
LINE
  8
1
  6
CONTINUOUS
 62
     1
 10
 4.87954897093005E+0000
 20
 2.56596345077196E+0000
 11
 4.87313609904231E+0000
 21
 2.57237632265969E+0000
  0
LINE
  8
1
  6
CONTINUOUS
 62
     1
 10
 4.88475271895732E+0000
 20
 2.57039403413728E+0000
 11
 4.88052588536812E+0000
 21
 2.56616720055172E+0000
  0
LINE
  8
1
  6
CONTINUOUS
 62
     1
 10
 4.86710924110230E+0000
 20
 2.57340476047102E+0000
 11
 4.85442874033470E+0000
 21
 2.56072425969978E+0000
  0
LINE
  8
1
  6
CONTINUOUS
 62
     1
 10
 4.84946576325456E+0000
 20
 2.57641548680112E+0000
 11
 4.82833159530855E+0000
 21
 2.55528131885876E+0000
  0
LINE
  8
1
  6
CONTINUOUS
 62
     1
 10
 4.83182228539954E+0000
 20
 2.57942621313850E+0000
 11
 4.80223445027514E+0000
 21
 2.54983837801046E+0000
  0
LINE
  8
1
  6
CONTINUOUS
 62
     1
 10
 4.81417880755180E+0000
 20
 2.58243693946861E+0000
 11
 4.77613730524899E+0000
 21
 2.54439543716580E+0000
  0
LINE
  8
1
  6
CONTINUOUS
 62
     1
 10
 4.79653532969678E+0000
 20
 2.58544766580235E+0000
 11
 4.75004016021558E+0000
 21
 2.53895249631751E+0000
  0
LINE
  8
1
  6
CONTINUOUS
 62
     1
 10
 4.77889185184176E+0000
 20
 2.58845839213245E+0000
 11
 4.73428513124964E+0000
 21
 2.54385167154396E+0000
  0
LINE
  8
1
  6
CONTINUOUS
 62
     1
 10
 4.76124837398675E+0000
 20
 2.59146911846619E+0000
 11
 4.73428513124964E+0000
 21
 2.56450587572908E+0000
  0
LINE
  8
1
  6
CONTINUOUS
 62
     1
 10
 4.74360489613900E+0000
 20
 2.59447984479630E+0000
 11
 4.73428513124964E+0000
 21
 2.58516007991420E+0000
  0
LINE
  8
1
  6
CONTINUOUS
 62
     1
 10
 4.39541581721278E+0000
 20
 2.07742681312811E+0000
 11
 4.39541581721278E+0000
 21
 2.07742681312811E+0000
  0
LINE
  8
1
  6
CONTINUOUS
 62
     1
 10
 4.39541581721278E+0000
 20
 2.07742681312811E+0000
 11
 4.23612649057759E+0000
 21
 2.10460833449179E+0000
  0
LINE
  8
1
  6
CONTINUOUS
 62
     1
 10
 4.23612649057759E+0000
 20
 2.10460833449179E+0000
 11
 4.23612649057759E+0000
 21
 2.04420469702018E+0000
  0
LINE
  8
1
  6
CONTINUOUS
 62
     1
 10
 4.23612649057759E+0000
 20
 2.04420469702018E+0000
 11
 4.39541581721278E+0000
 21
 2.07742681312811E+0000
  0
LINE
  8
1
  6
CONTINUOUS
 62
     1
 10
 4.23612649057759E+0000
 20
 2.10460833449179E+0000
 11
 4.23612649057759E+0000
 21
 2.04420469702018E+0000
  0
LINE
  8
1
  6
CONTINUOUS
 62
     1
 10
 4.24467142232606E+0000
 20
 2.04598686736790E+0000
 11
 4.23612649057759E+0000
 21
 2.05453179911274E+0000
  0
LINE
  8
1
  6
CONTINUOUS
 62
     1
 10
 4.26176128581574E+0000
 20
 2.04955120806335E+0000
 11
 4.23612649057759E+0000
 21
 2.07518600329786E+0000
  0
LINE
  8
1
  6
CONTINUOUS
 62
     1
 10
 4.27885114930541E+0000
 20
 2.05311554875516E+0000
 11
 4.23612649058487E+0000
 21
 2.09584020747934E+0000
  0
LINE
  8
1
  6
CONTINUOUS
 62
     1
 10
 4.29594101279508E+0000
 20
 2.05667988945061E+0000
 11
 4.25045815876365E+0000
 21
 2.10216274348568E+0000
  0
LINE
  8
1
  6
CONTINUOUS
 62
     1
 10
 4.31303087628476E+0000
 20
 2.06024423014605E+0000
 11
 4.27536201867770E+0000
 21
 2.09791308775311E+0000
  0
LINE
  8
1
  6
CONTINUOUS
 62
     1
 10
 4.33012073977443E+0000
 20
 2.06380857084150E+0000
 11
 4.30026587859902E+0000
 21
 2.09366343201691E+0000
  0
LINE
  8
1
  6
CONTINUOUS
 62
     1
 10
 4.34721060326410E+0000
 20
 2.06737291153695E+0000
 11
 4.32516973852034E+0000
 21
 2.08941377628071E+0000
  0
LINE
  8
1
  6
CONTINUOUS
 62
     1
 10
 4.36430046676105E+0000
 20
 2.07093725223240E+0000
 11
 4.35007359844167E+0000
 21
 2.08516412054814E+0000
  0
LINE
  8
1
  6
CONTINUOUS
 62
     1
 10
 4.38139033025072E+0000
 20
 2.07450159292785E+0000
 11
 4.37497745836299E+0000
 21
 2.08091446481194E+0000
  0
LINE
  8
1
  6
CONTINUOUS
 62
     1
 10
 4.38659407827799E+0000
 20
 2.07893217628953E+0000
 11
 4.38236724468879E+0000
 21
 2.07470534270396E+0000
  0
LINE
  8
1
  6
CONTINUOUS
 62
     1
 10
 4.36895060042298E+0000
 20
 2.08194290262327E+0000
 11
 4.35627009965538E+0000
 21
 2.06926240185567E+0000
  0
LINE
  8
1
  6
CONTINUOUS
 62
     1
 10
 4.35130712257524E+0000
 20
 2.08495362895337E+0000
 11
 4.33017295462923E+0000
 21
 2.06381946101101E+0000
  0
LINE
  8
1
  6
CONTINUOUS
 62
     1
 10
 4.33366364472749E+0000
 20
 2.08796435529075E+0000
 11
 4.30407580959582E+0000
 21
 2.05837652016271E+0000
  0
LINE
  8
1
  6
CONTINUOUS
 62
     1
 10
 4.31602016687248E+0000
 20
 2.09097508162085E+0000
 11
 4.27797866456967E+0000
 21
 2.05293357931805E+0000
  0
LINE
  8
1
  6
CONTINUOUS
 62
     1
 10
 4.29837668901746E+0000
 20
 2.09398580795460E+0000
 11
 4.25188151953625E+0000
 21
 2.04749063846975E+0000
  0
LINE
  8
1
  6
CONTINUOUS
 62
     1
 10
 4.28073321116244E+0000
 20
 2.09699653428470E+0000
 11
 4.23612649057031E+0000
 21
 2.05238981369621E+0000
  0
LINE
  8
1
  6
CONTINUOUS
 62
     1
 10
 4.26308973330742E+0000
 20
 2.10000726061844E+0000
 11
 4.23612649057031E+0000
 21
 2.07304401788133E+0000
  0
LINE
  8
1
  6
CONTINUOUS
 62
     1
 10
 4.24544625545968E+0000
 20
 2.10301798694854E+0000
 11
 4.23612649057031E+0000
 21
 2.09369822206645E+0000
  0
LINE
  8
1
  6
CONTINUOUS
 62
     1
 10
 4.39541581721278E+0000
 20
 2.07742681312811E+0000
 11
 4.39541581721278E+0000
 21
 2.07742681312811E+0000
  0
LINE
  8
1
  6
CONTINUOUS
 62
     1
 10
 4.39541581721278E+0000
 20
 2.07742681312811E+0000
 11
 4.23612649057759E+0000
 21
 2.10460833449179E+0000
  0
LINE
  8
1
  6
CONTINUOUS
 62
     1
 10
 4.23612649057759E+0000
 20
 2.10460833449179E+0000
 11
 4.23612649057759E+0000
 21
 2.04420469702018E+0000
  0
LINE
  8
1
  6
CONTINUOUS
 62
     1
 10
 4.23612649057759E+0000
 20
 2.04420469702018E+0000
 11
 4.39541581721278E+0000
 21
 2.07742681312811E+0000
  0
LINE
  8
1
  6
CONTINUOUS
 62
     1
 10
 4.23612649057759E+0000
 20
 2.10460833449179E+0000
 11
 4.23612649057759E+0000
 21
 2.04420469702018E+0000
  0
LINE
  8
1
  6
CONTINUOUS
 62
     1
 10
 4.24467142232606E+0000
 20
 2.04598686736790E+0000
 11
 4.23612649057759E+0000
 21
 2.05453179911274E+0000
  0
LINE
  8
1
  6
CONTINUOUS
 62
     1
 10
 4.26176128581574E+0000
 20
 2.04955120806335E+0000
 11
 4.23612649057759E+0000
 21
 2.07518600329786E+0000
  0
LINE
  8
1
  6
CONTINUOUS
 62
     1
 10
 4.27885114930541E+0000
 20
 2.05311554875516E+0000
 11
 4.23612649058487E+0000
 21
 2.09584020747934E+0000
  0
LINE
  8
1
  6
CONTINUOUS
 62
     1
 10
 4.29594101279508E+0000
 20
 2.05667988945061E+0000
 11
 4.25045815876365E+0000
 21
 2.10216274348568E+0000
  0
LINE
  8
1
  6
CONTINUOUS
 62
     1
 10
 4.31303087628476E+0000
 20
 2.06024423014605E+0000
 11
 4.27536201867770E+0000
 21
 2.09791308775311E+0000
  0
LINE
  8
1
  6
CONTINUOUS
 62
     1
 10
 4.33012073977443E+0000
 20
 2.06380857084150E+0000
 11
 4.30026587859902E+0000
 21
 2.09366343201691E+0000
  0
LINE
  8
1
  6
CONTINUOUS
 62
     1
 10
 4.34721060326410E+0000
 20
 2.06737291153695E+0000
 11
 4.32516973852034E+0000
 21
 2.08941377628071E+0000
  0
LINE
  8
1
  6
CONTINUOUS
 62
     1
 10
 4.36430046676105E+0000
 20
 2.07093725223240E+0000
 11
 4.35007359844167E+0000
 21
 2.08516412054814E+0000
  0
LINE
  8
1
  6
CONTINUOUS
 62
     1
 10
 4.38139033025072E+0000
 20
 2.07450159292785E+0000
 11
 4.37497745836299E+0000
 21
 2.08091446481194E+0000
  0
LINE
  8
1
  6
CONTINUOUS
 62
     1
 10
 4.38659407827799E+0000
 20
 2.07893217628953E+0000
 11
 4.38236724468879E+0000
 21
 2.07470534270396E+0000
  0
LINE
  8
1
  6
CONTINUOUS
 62
     1
 10
 4.36895060042298E+0000
 20
 2.08194290262327E+0000
 11
 4.35627009965538E+0000
 21
 2.06926240185567E+0000
  0
LINE
  8
1
  6
CONTINUOUS
 62
     1
 10
 4.35130712257524E+0000
 20
 2.08495362895337E+0000
 11
 4.33017295462923E+0000
 21
 2.06381946101101E+0000
  0
LINE
  8
1
  6
CONTINUOUS
 62
     1
 10
 4.33366364472749E+0000
 20
 2.08796435529075E+0000
 11
 4.30407580959582E+0000
 21
 2.05837652016271E+0000
  0
LINE
  8
1
  6
CONTINUOUS
 62
     1
 10
 4.31602016687248E+0000
 20
 2.09097508162085E+0000
 11
 4.27797866456967E+0000
 21
 2.05293357931805E+0000
  0
LINE
  8
1
  6
CONTINUOUS
 62
     1
 10
 4.29837668901746E+0000
 20
 2.09398580795460E+0000
 11
 4.25188151953625E+0000
 21
 2.04749063846975E+0000
  0
LINE
  8
1
  6
CONTINUOUS
 62
     1
 10
 4.28073321116244E+0000
 20
 2.09699653428470E+0000
 11
 4.23612649057031E+0000
 21
 2.05238981369621E+0000
  0
LINE
  8
1
  6
CONTINUOUS
 62
     1
 10
 4.26308973330742E+0000
 20
 2.10000726061844E+0000
 11
 4.23612649057031E+0000
 21
 2.07304401788133E+0000
  0
LINE
  8
1
  6
CONTINUOUS
 62
     1
 10
 4.24544625545968E+0000
 20
 2.10301798694854E+0000
 11
 4.23612649057031E+0000
 21
 2.09369822206645E+0000
  0
LINE
  8
1
  6
CONTINUOUS
 62
     1
 10
 4.62691827657545E+0000
 20
 2.07640391594032E+0000
 11
 4.62691827657545E+0000
 21
 2.07640391594032E+0000
  0
LINE
  8
1
  6
CONTINUOUS
 62
     1
 10
 4.62691827657545E+0000
 20
 2.07640391594032E+0000
 11
 4.78620760322519E+0000
 21
 2.04922239457665E+0000
  0
LINE
  8
1
  6
CONTINUOUS
 62
     1
 10
 4.78620760322519E+0000
 20
 2.04922239457665E+0000
 11
 4.78620760322519E+0000
 21
 2.10962603204825E+0000
  0
LINE
  8
1
  6
CONTINUOUS
 62
     1
 10
 4.78620760322519E+0000
 20
 2.10962603204825E+0000
 11
 4.62691827657545E+0000
 21
 2.07640391594032E+0000
  0
LINE
  8
1
  6
CONTINUOUS
 62
     1
 10
 4.78620760322519E+0000
 20
 2.04922239457665E+0000
 11
 4.78620760322519E+0000
 21
 2.10962603204825E+0000
  0
LINE
  8
1
  6
CONTINUOUS
 62
     1
 10
 4.63937020653975E+0000
 20
 2.07427908807585E+0000
 11
 4.63546320832393E+0000
 21
 2.07818608629168E+0000
  0
LINE
  8
1
  6
CONTINUOUS
 62
     1
 10
 4.66427406646108E+0000
 20
 2.07002943233965E+0000
 11
 4.65255307181360E+0000
 21
 2.08175042698349E+0000
  0
LINE
  8
1
  6
CONTINUOUS
 62
     1
 10
 4.68917792638240E+0000
 20
 2.06577977660709E+0000
 11
 4.66964293531055E+0000
 21
 2.08531476767894E+0000
  0
LINE
  8
1
  6
CONTINUOUS
 62
     1
 10
 4.71408178630372E+0000
 20
 2.06153012087088E+0000
 11
 4.68673279880022E+0000
 21
 2.08887910837439E+0000
  0
LINE
  8
1
  6
CONTINUOUS
 62
     1
 10
 4.73898564622505E+0000
 20
 2.05728046513468E+0000
 11
 4.70382266228989E+0000
 21
 2.09244344906983E+0000
  0
LINE
  8
1
  6
CONTINUOUS
 62
     1
 10
 4.76388950613909E+0000
 20
 2.05303080939848E+0000
 11
 4.72091252577957E+0000
 21
 2.09600778976164E+0000
  0
LINE
  8
1
  6
CONTINUOUS
 62
     1
 10
 4.78620760322519E+0000
 20
 2.05136691650114E+0000
 11
 4.73800238926924E+0000
 21
 2.09957213045709E+0000
  0
LINE
  8
1
  6
CONTINUOUS
 62
     1
 10
 4.78620760322519E+0000
 20
 2.07202112068626E+0000
 11
 4.75509225275891E+0000
 21
 2.10313647115254E+0000
  0
LINE
  8
1
  6
CONTINUOUS
 62
     1
 10
 4.78620760322519E+0000
 20
 2.09267532487138E+0000
 11
 4.77218211624859E+0000
 21
 2.10670081184435E+0000
  0
LINE
  8
1
  6
CONTINUOUS
 62
     1
 10
 4.78620760322519E+0000
 20
 2.05954949666921E+0000
 11
 4.77738586429768E+0000
 21
 2.05072775774170E+0000
  0
LINE
  8
1
  6
CONTINUOUS
 62
     1
 10
 4.78620760322519E+0000
 20
 2.08020370085433E+0000
 11
 4.75974238644267E+0000
 21
 2.05373848407180E+0000
  0
LINE
  8
1
  6
CONTINUOUS
 62
     1
 10
 4.78620760322519E+0000
 20
 2.10085790503945E+0000
 11
 4.74209890858765E+0000
 21
 2.05674921040554E+0000
  0
LINE
  8
1
  6
CONTINUOUS
 62
     1
 10
 4.77118922356021E+0000
 20
 2.10649372956686E+0000
 11
 4.72445543073263E+0000
 21
 2.05975993673565E+0000
  0
LINE
  8
1
  6
CONTINUOUS
 62
     1
 10
 4.74509207853407E+0000
 20
 2.10105078872220E+0000
 11
 4.70681195287762E+0000
 21
 2.06277066306939E+0000
  0
LINE
  8
1
  6
CONTINUOUS
 62
     1
 10
 4.71899493350065E+0000
 20
 2.09560784787391E+0000
 11
 4.68916847502987E+0000
 21
 2.06578138939949E+0000
  0
LINE
  8
1
  6
CONTINUOUS
 62
     1
 10
 4.69289778847451E+0000
 20
 2.09016490702925E+0000
 11
 4.67152499717486E+0000
 21
 2.06879211573323E+0000
  0
LINE
  8
1
  6
CONTINUOUS
 62
     1
 10
 4.66680064344109E+0000
 20
 2.08472196618095E+0000
 11
 4.65388151931984E+0000
 21
 2.07180284206333E+0000
  0
LINE
  8
1
  6
CONTINUOUS
 62
     1
 10
 4.64070349840767E+0000
 20
 2.07927902533993E+0000
 11
 4.63623804146482E+0000
 21
 2.07481356839708E+0000
  0
LINE
  8
1
  6
CONTINUOUS
 62
     1
 10
 4.62691827657545E+0000
 20
 2.07640391594032E+0000
 11
 4.62691827657545E+0000
 21
 2.07640391594032E+0000
  0
LINE
  8
1
  6
CONTINUOUS
 62
     1
 10
 4.62691827657545E+0000
 20
 2.07640391594032E+0000
 11
 4.78620760322519E+0000
 21
 2.04922239457665E+0000
  0
LINE
  8
1
  6
CONTINUOUS
 62
     1
 10
 4.78620760322519E+0000
 20
 2.04922239457665E+0000
 11
 4.78620760322519E+0000
 21
 2.10962603204825E+0000
  0
LINE
  8
1
  6
CONTINUOUS
 62
     1
 10
 4.78620760322519E+0000
 20
 2.10962603204825E+0000
 11
 4.62691827657545E+0000
 21
 2.07640391594032E+0000
  0
LINE
  8
1
  6
CONTINUOUS
 62
     1
 10
 4.78620760322519E+0000
 20
 2.04922239457665E+0000
 11
 4.78620760322519E+0000
 21
 2.10962603204825E+0000
  0
LINE
  8
1
  6
CONTINUOUS
 62
     1
 10
 4.63937020653975E+0000
 20
 2.07427908807585E+0000
 11
 4.63546320832393E+0000
 21
 2.07818608629168E+0000
  0
LINE
  8
1
  6
CONTINUOUS
 62
     1
 10
 4.66427406646108E+0000
 20
 2.07002943233965E+0000
 11
 4.65255307181360E+0000
 21
 2.08175042698349E+0000
  0
LINE
  8
1
  6
CONTINUOUS
 62
     1
 10
 4.68917792638240E+0000
 20
 2.06577977660709E+0000
 11
 4.66964293531055E+0000
 21
 2.08531476767894E+0000
  0
LINE
  8
1
  6
CONTINUOUS
 62
     1
 10
 4.71408178630372E+0000
 20
 2.06153012087088E+0000
 11
 4.68673279880022E+0000
 21
 2.08887910837439E+0000
  0
LINE
  8
1
  6
CONTINUOUS
 62
     1
 10
 4.73898564622505E+0000
 20
 2.05728046513468E+0000
 11
 4.70382266228989E+0000
 21
 2.09244344906983E+0000
  0
LINE
  8
1
  6
CONTINUOUS
 62
     1
 10
 4.76388950613909E+0000
 20
 2.05303080939848E+0000
 11
 4.72091252577957E+0000
 21
 2.09600778976164E+0000
  0
LINE
  8
1
  6
CONTINUOUS
 62
     1
 10
 4.78620760322519E+0000
 20
 2.05136691650114E+0000
 11
 4.73800238926924E+0000
 21
 2.09957213045709E+0000
  0
LINE
  8
1
  6
CONTINUOUS
 62
     1
 10
 4.78620760322519E+0000
 20
 2.07202112068626E+0000
 11
 4.75509225275891E+0000
 21
 2.10313647115254E+0000
  0
LINE
  8
1
  6
CONTINUOUS
 62
     1
 10
 4.78620760322519E+0000
 20
 2.09267532487138E+0000
 11
 4.77218211624859E+0000
 21
 2.10670081184435E+0000
  0
LINE
  8
1
  6
CONTINUOUS
 62
     1
 10
 4.78620760322519E+0000
 20
 2.05954949666921E+0000
 11
 4.77738586429768E+0000
 21
 2.05072775774170E+0000
  0
LINE
  8
1
  6
CONTINUOUS
 62
     1
 10
 4.78620760322519E+0000
 20
 2.08020370085433E+0000
 11
 4.75974238644267E+0000
 21
 2.05373848407180E+0000
  0
LINE
  8
1
  6
CONTINUOUS
 62
     1
 10
 4.78620760322519E+0000
 20
 2.10085790503945E+0000
 11
 4.74209890858765E+0000
 21
 2.05674921040554E+0000
  0
LINE
  8
1
  6
CONTINUOUS
 62
     1
 10
 4.77118922356021E+0000
 20
 2.10649372956686E+0000
 11
 4.72445543073263E+0000
 21
 2.05975993673565E+0000
  0
LINE
  8
1
  6
CONTINUOUS
 62
     1
 10
 4.74509207853407E+0000
 20
 2.10105078872220E+0000
 11
 4.70681195287762E+0000
 21
 2.06277066306939E+0000
  0
LINE
  8
1
  6
CONTINUOUS
 62
     1
 10
 4.71899493350065E+0000
 20
 2.09560784787391E+0000
 11
 4.68916847502987E+0000
 21
 2.06578138939949E+0000
  0
LINE
  8
1
  6
CONTINUOUS
 62
     1
 10
 4.69289778847451E+0000
 20
 2.09016490702925E+0000
 11
 4.67152499717486E+0000
 21
 2.06879211573323E+0000
  0
LINE
  8
1
  6
CONTINUOUS
 62
     1
 10
 4.66680064344109E+0000
 20
 2.08472196618095E+0000
 11
 4.65388151931984E+0000
 21
 2.07180284206333E+0000
  0
LINE
  8
1
  6
CONTINUOUS
 62
     1
 10
 4.64070349840767E+0000
 20
 2.07927902533993E+0000
 11
 4.63623804146482E+0000
 21
 2.07481356839708E+0000
  0
TEXT
  8
1
 62
     1
 10
 4.97450425617717E+0000
 20
 2.58347188118569E+0000
 40
 1.18110236219991E-0001
  1
10
  7
STANDARD
 11
 4.97450425617717E+0000
 21
 2.70158211740636E+0000
 50
 0.00000000000000E+0000
 41
 3.33041753174712E-0001
  0
TEXT
  8
1
 62
     1
 10
 4.42099465542560E+0000
 20
 2.09201002333066E+0000
 40
 1.18110236219991E-0001
  1
5.5
  7
STANDARD
 11
 4.42099465542560E+0000
 21
 2.21012025955133E+0000
 50
 0.00000000000000E+0000
 41
 2.77534794312487E-0001
  0
TEXT
  8
1
 62
     1
 10
 7.94108317692735E+0000
 20
 5.99992447366822E+0000
 40
 1.18110236219991E-0001
  1
4
  7
STANDARD
 11
 7.94108317692735E+0000
 21
 6.11803470988525E+0000
 50
 0.00000000000000E+0000
 41
 3.33041753174712E-0001
  0
TEXT
  8
1
 62
     1
 10
 3.90256520230469E+0000
 20
 6.56932996830437E+0000
 40
 1.18110236219991E-0001
  1
22.5
  7
STANDARD
 11
 3.90256520230469E+0000
 21
 6.68744020452141E+0000
 50
 0.00000000000000E+0000
 41
 2.91411534028157E-0001
  0
CIRCLE
  8
1
  6
CONTINUOUS
 62
     1
 10
 4.13978360262263E+0000
 20
 6.68744020452141E+0000
 40
 2.37218400361598E-0002
  0
TEXT
  8
1
 62
     1
 10
 8.97693684347905E+0000
 20
 3.51863838349163E+0000
 40
 1.18110236219991E-0001
  1
20
  7
STANDARD
 11
 8.97693684347905E+0000
 21
 3.63674861971231E+0000
 50
 0.00000000000000E+0000
 41
 3.33041753174712E-0001
  0
CIRCLE
  8
1
  6
CONTINUOUS
 62
     1
 10
 4.13978360262263E+0000
 20
 6.68744020452141E+0000
 40
 2.37218400361598E-0002
  0
CIRCLE
  8
1
  6
CONTINUOUS
 62
     1
 10
 9.14092960701964E+0000
 20
 3.60985149411135E+0000
 40
 2.37218400361598E-0002
  0
TEXT
  8
1
 62
     1
 10
 3.82882028459062E+0000
 20
 4.15631267961726E+0000
 40
 1.18110236219991E-0001
  1
56
  7
STANDARD
 11
 3.82882028459062E+0000
 21
 4.27442291583429E+0000
 50
 2.25000000000000E+0001
 41
 3.33041753174712E-0001
  0
TEXT
  8
1
 62
     1
 10
 6.59012740229809E+0000
 20
 4.00491217856325E+0000
 40
 1.18110236219991E-0001
  1
70
  7
STANDARD
 11
 6.59012740229809E+0000
 21
 4.12302241478028E+0000
 50
 9.00000000000000E+0001
 41
 3.33041753174712E-0001
  0
TEXT
  8
1
 62
     1
 10
 7.07197734319925E+0000
 20
 3.99770263089522E+0000
 40
 1.18110236219991E-0001
  1
40H7
  7
STANDARD
 11
 7.07197734319925E+0000
 21
 4.11581286711589E+0000
 50
 9.00000000000000E+0001
 41
 3.53856862748216E-0001
  0
TEXT
  8
1
 62
     1
 10
 9.78830561209179E+0000
 20
 1.29779637168031E+0000
 40
 1.96850393699833E-0001
  1
Zahnkranz B
  7
STANDARD
 11
 9.78830561209179E+0000
 21
 1.49464676538082E+0000
 50
 0.00000000000000E+0000
 41
 1.77117659643272E-0001
  0
LINE
  8
1
  6
CONTINUOUS
 62
     1
 10
 7.91384589744848E+0000
 20
 4.48704556182201E+0000
 11
 7.91384589744848E+0000
 21
 4.01047815057973E+0000
  0
LINE
  8
1
  6
CONTINUOUS
 62
     1
 10
 7.91384589744848E+0000
 20
 3.46216940860177E+0000
 11
 7.91384589744848E+0000
 21
 3.12908465880537E+0000
  0
LINE
  8
1
  6
CONTINUOUS
 62
     1
 10
 7.91384589744848E+0000
 20
 5.03535430379998E+0000
 11
 7.91384589744848E+0000
 21
 5.37356343436113E+0000
  0
LINE
  8
1
  6
CONTINUOUS
 62
     1
 10
 8.07742218987551E+0000
 20
 4.99948363843578E+0000
 11
 8.07742218987551E+0000
 21
 4.51779184641782E+0000
  0
LINE
  8
1
  6
CONTINUOUS
 62
     1
 10
 8.07742218987551E+0000
 20
 3.97973186598028E+0000
 11
 8.07742218987551E+0000
 21
 3.49804007396597E+0000
  0
LINE
  8
1
  6
CONTINUOUS
 62
     1
 10
 8.07742218987551E+0000
 20
 3.10858713574271E+0000
 11
 8.07742218987551E+0000
 21
 2.90361190509793E+0000
  0
LINE
  8
1
  6
CONTINUOUS
 62
     1
 10
 8.07742218987551E+0000
 20
 5.39406095742743E+0000
 11
 8.07742218987551E+0000
 21
 5.59903618806129E+0000
  0
LINE
  8
1
  6
CONTINUOUS
 62
     1
 10
 7.91384589744848E+0000
 20
 4.48704556182201E+0000
 11
 8.07742218987551E+0000
 21
 4.51779184641782E+0000
  0
LINE
  8
1
  6
CONTINUOUS
 62
     1
 10
 7.91384589744848E+0000
 20
 4.01047815057973E+0000
 11
 8.07742218987551E+0000
 21
 3.97973186598028E+0000
  0
LINE
  8
1
  6
CONTINUOUS
 62
     1
 10
 8.07742218987551E+0000
 20
 3.49804007396597E+0000
 11
 7.91384589744848E+0000
 21
 3.46216940860177E+0000
  0
LINE
  8
1
  6
CONTINUOUS
 62
     1
 10
 8.07742218987551E+0000
 20
 4.99948363843578E+0000
 11
 7.91384589744848E+0000
 21
 5.03535430379998E+0000
  0
LINE
  8
1
  6
CONTINUOUS
 62
     1
 10
 7.91384589744848E+0000
 20
 5.37356343436113E+0000
 11
 8.07742218987551E+0000
 21
 5.39406095742743E+0000
  0
LINE
  8
1
  6
CONTINUOUS
 62
     1
 10
 7.91384589744848E+0000
 20
 3.12908465880537E+0000
 11
 8.07742218987551E+0000
 21
 3.10858713574271E+0000
  0
LINE
  8
1
  6
CONTINUOUS
 62
     1
 10
 8.07742218987551E+0000
 20
 2.90361190509793E+0000
 11
 7.91384589744848E+0000
 21
 2.87799000127052E+0000
  0
LINE
  8
1
  6
CONTINUOUS
 62
     1
 10
 7.91384589744848E+0000
 20
 2.87799000127052E+0000
 11
 7.63781090395787E+0000
 21
 2.87799000127052E+0000
  0
LINE
  8
1
  6
CONTINUOUS
 62
     1
 10
 8.07742218987551E+0000
 20
 5.59903618806129E+0000
 11
 7.91768962485367E+0000
 21
 5.62820859657950E+0000
  0
LINE
  8
1
  6
CONTINUOUS
 62
     1
 10
 7.91768962485367E+0000
 20
 5.62820859657950E+0000
 11
 7.64165463137033E+0000
 21
 5.62820859657950E+0000
  0
LINE
  8
1
  6
CONTINUOUS
 62
     1
 10
 8.07735137983400E+0000
 20
 5.62249327605969E+0000
 11
 8.07742218987551E+0000
 21
 5.59903618806129E+0000
  0
LINE
  8
1
  6
CONTINUOUS
 62
     1
 10
 8.07742218987551E+0000
 20
 5.39406095742743E+0000
 11
 8.07742218987551E+0000
 21
 4.99948363843578E+0000
  0
LINE
  8
1
  6
CONTINUOUS
 62
     1
 10
 8.07742218987551E+0000
 20
 3.49804007396597E+0000
 11
 8.07742218987551E+0000
 21
 3.10858713574271E+0000
  0
LINE
  8
1
  6
DASHDOT
 62
     1
 10
 8.07647007156629E+0000
 20
 4.87248791927414E+0000
 11
 7.87859145065886E+0000
 21
 4.87248791927414E+0000
  0
LINE
  8
1
  6
DASHDOT
 62
     1
 10
 7.87859145065886E+0000
 20
 4.87248791927414E+0000
 11
 7.87859145065886E+0000
 21
 4.53242984483222E+0000
  0
LINE
  8
1
  6
DASHDOT
 62
     1
 10
 7.87859145065886E+0000
 20
 4.53242984483222E+0000
 11
 8.07647007156629E+0000
 21
 4.53242984483222E+0000
  0
LINE
  8
1
  6
DASHDOT
 62
     1
 10
 7.87859145065886E+0000
 20
 4.77330431422888E+0000
 11
 7.63831026813568E+0000
 21
 4.77330431422888E+0000
  0
LINE
  8
1
  6
DASHDOT
 62
     1
 10
 7.87859145065886E+0000
 20
 4.56785256092553E+0000
 11
 7.63831026813568E+0000
 21
 4.56785256092553E+0000
  0
LINE
  8
1
  6
CONTINUOUS
 62
     1
 10
 7.87859145065886E+0000
 20
 4.53242984483222E+0000
 11
 7.87859145065886E+0000
 21
 4.30572446187580E+0000
  0
LINE
  8
1
  6
CONTINUOUS
 62
     1
 10
 7.87859145065886E+0000
 20
 4.30572446187580E+0000
 11
 8.07647007156629E+0000
 21
 4.30572446187580E+0000
  0
LINE
  8
1
  6
CONTINUOUS
 62
     1
 10
 8.07647007156629E+0000
 20
 4.30572446187580E+0000
 11
 8.07647007156629E+0000
 21
 4.53242984483222E+0000
  0
LINE
  8
1
  6
CONTINUOUS
 62
     1
 10
 8.08374855798320E+0000
 20
 4.30443936279335E+0000
 11
 8.08374855798320E+0000
 21
 4.30443936279335E+0000
  0
LINE
  8
1
  6
CONTINUOUS
 62
     1
 10
 8.08374855798320E+0000
 20
 4.30443936279335E+0000
 11
 8.24303788463294E+0000
 21
 4.27725784142967E+0000
  0
LINE
  8
1
  6
CONTINUOUS
 62
     1
 10
 8.24303788463294E+0000
 20
 4.27725784142967E+0000
 11
 8.24303788463294E+0000
 21
 4.33766147890128E+0000
  0
LINE
  8
1
  6
CONTINUOUS
 62
     1
 10
 8.24303788463294E+0000
 20
 4.33766147890128E+0000
 11
 8.08374855798320E+0000
 21
 4.30443936279335E+0000
  0
LINE
  8
1
  6
CONTINUOUS
 62
     1
 10
 8.24303788463294E+0000
 20
 4.27725784142967E+0000
 11
 8.24303788463294E+0000
 21
 4.33766147890128E+0000
  0
LINE
  8
1
  6
CONTINUOUS
 62
     1
 10
 8.09620048795477E+0000
 20
 4.30231453492161E+0000
 11
 8.09229348973895E+0000
 21
 4.30622153314471E+0000
  0
LINE
  8
1
  6
CONTINUOUS
 62
     1
 10
 8.12110434786882E+0000
 20
 4.29806487919268E+0000
 11
 8.10938335323590E+0000
 21
 4.30978587383288E+0000
  0
LINE
  8
1
  6
CONTINUOUS
 62
     1
 10
 8.14600820779742E+0000
 20
 4.29381522345648E+0000
 11
 8.12647321671830E+0000
 21
 4.31335021452833E+0000
  0
LINE
  8
1
  6
CONTINUOUS
 62
     1
 10
 8.17091206771147E+0000
 20
 4.28956556772755E+0000
 11
 8.14356308021524E+0000
 21
 4.31691455522378E+0000
  0
LINE
  8
1
  6
CONTINUOUS
 62
     1
 10
 8.19581592762552E+0000
 20
 4.28531591199135E+0000
 11
 8.16065294369764E+0000
 21
 4.32047889591922E+0000
  0
LINE
  8
1
  6
CONTINUOUS
 62
     1
 10
 8.22071978753957E+0000
 20
 4.28106625626242E+0000
 11
 8.17774280719459E+0000
 21
 4.32404323661467E+0000
  0
LINE
  8
1
  6
CONTINUOUS
 62
     1
 10
 8.24303788463294E+0000
 20
 4.27940236335417E+0000
 11
 8.19483267067699E+0000
 21
 4.32760757731012E+0000
  0
LINE
  8
1
  6
CONTINUOUS
 62
     1
 10
 8.24303788463294E+0000
 20
 4.30005656753929E+0000
 11
 8.21192253417394E+0000
 21
 4.33117191800557E+0000
  0
LINE
  8
1
  6
CONTINUOUS
 62
     1
 10
 8.24303788463294E+0000
 20
 4.32071077172441E+0000
 11
 8.22901239765633E+0000
 21
 4.33473625870101E+0000
  0
LINE
  8
1
  6
CONTINUOUS
 62
     1
 10
 8.24303788461839E+0000
 20
 4.28758494351496E+0000
 11
 8.23421614570543E+0000
 21
 4.27876320459472E+0000
  0
LINE
  8
1
  6
CONTINUOUS
 62
     1
 10
 8.24303788461839E+0000
 20
 4.30823914770008E+0000
 11
 8.21657266785041E+0000
 21
 4.28177393092483E+0000
  0
LINE
  8
1
  6
CONTINUOUS
 62
     1
 10
 8.24303788461839E+0000
 20
 4.32889335188520E+0000
 11
 8.19892918999540E+0000
 21
 4.28478465726221E+0000
  0
LINE
  8
1
  6
CONTINUOUS
 62
     1
 10
 8.22801950496796E+0000
 20
 4.33452917641989E+0000
 11
 8.18128571214038E+0000
 21
 4.28779538359231E+0000
  0
LINE
  8
1
  6
CONTINUOUS
 62
     1
 10
 8.20192235993454E+0000
 20
 4.32908623556432E+0000
 11
 8.16364223428536E+0000
 21
 4.29080610992241E+0000
  0
LINE
  8
1
  6
CONTINUOUS
 62
     1
 10
 8.17582521490112E+0000
 20
 4.32364329472330E+0000
 11
 8.14599875643034E+0000
 21
 4.29381683625252E+0000
  0
LINE
  8
1
  6
CONTINUOUS
 62
     1
 10
 8.14972806986771E+0000
 20
 4.31820035388228E+0000
 11
 8.12835527857533E+0000
 21
 4.29682756258262E+0000
  0
LINE
  8
1
  6
CONTINUOUS
 62
     1
 10
 8.12363092484884E+0000
 20
 4.31275741303398E+0000
 11
 8.11071180072031E+0000
 21
 4.29983828892000E+0000
  0
LINE
  8
1
  6
CONTINUOUS
 62
     1
 10
 8.09753377981542E+0000
 20
 4.30731447219296E+0000
 11
 8.09306832286529E+0000
 21
 4.30284901525010E+0000
  0
LINE
  8
1
  6
CONTINUOUS
 62
     1
 10
 8.08374855798320E+0000
 20
 4.30443936279335E+0000
 11
 8.08374855798320E+0000
 21
 4.30443936279335E+0000
  0
LINE
  8
1
  6
CONTINUOUS
 62
     1
 10
 8.08374855798320E+0000
 20
 4.30443936279335E+0000
 11
 8.24303788463294E+0000
 21
 4.27725784142967E+0000
  0
LINE
  8
1
  6
CONTINUOUS
 62
     1
 10
 8.24303788463294E+0000
 20
 4.27725784142967E+0000
 11
 8.24303788463294E+0000
 21
 4.33766147890128E+0000
  0
LINE
  8
1
  6
CONTINUOUS
 62
     1
 10
 8.24303788463294E+0000
 20
 4.33766147890128E+0000
 11
 8.08374855798320E+0000
 21
 4.30443936279335E+0000
  0
LINE
  8
1
  6
CONTINUOUS
 62
     1
 10
 8.24303788463294E+0000
 20
 4.27725784142967E+0000
 11
 8.24303788463294E+0000
 21
 4.33766147890128E+0000
  0
LINE
  8
1
  6
CONTINUOUS
 62
     1
 10
 8.09620048795477E+0000
 20
 4.30231453492161E+0000
 11
 8.09229348973895E+0000
 21
 4.30622153314471E+0000
  0
LINE
  8
1
  6
CONTINUOUS
 62
     1
 10
 8.12110434786882E+0000
 20
 4.29806487919268E+0000
 11
 8.10938335323590E+0000
 21
 4.30978587383288E+0000
  0
LINE
  8
1
  6
CONTINUOUS
 62
     1
 10
 8.14600820779742E+0000
 20
 4.29381522345648E+0000
 11
 8.12647321671830E+0000
 21
 4.31335021452833E+0000
  0
LINE
  8
1
  6
CONTINUOUS
 62
     1
 10
 8.17091206771147E+0000
 20
 4.28956556772755E+0000
 11
 8.14356308021524E+0000
 21
 4.31691455522378E+0000
  0
LINE
  8
1
  6
CONTINUOUS
 62
     1
 10
 8.19581592762552E+0000
 20
 4.28531591199135E+0000
 11
 8.16065294369764E+0000
 21
 4.32047889591922E+0000
  0
LINE
  8
1
  6
CONTINUOUS
 62
     1
 10
 8.22071978753957E+0000
 20
 4.28106625626242E+0000
 11
 8.17774280719459E+0000
 21
 4.32404323661467E+0000
  0
LINE
  8
1
  6
CONTINUOUS
 62
     1
 10
 8.24303788463294E+0000
 20
 4.27940236335417E+0000
 11
 8.19483267067699E+0000
 21
 4.32760757731012E+0000
  0
LINE
  8
1
  6
CONTINUOUS
 62
     1
 10
 8.24303788463294E+0000
 20
 4.30005656753929E+0000
 11
 8.21192253417394E+0000
 21
 4.33117191800557E+0000
  0
LINE
  8
1
  6
CONTINUOUS
 62
     1
 10
 8.24303788463294E+0000
 20
 4.32071077172441E+0000
 11
 8.22901239765633E+0000
 21
 4.33473625870101E+0000
  0
LINE
  8
1
  6
CONTINUOUS
 62
     1
 10
 8.24303788461839E+0000
 20
 4.28758494351496E+0000
 11
 8.23421614570543E+0000
 21
 4.27876320459472E+0000
  0
LINE
  8
1
  6
CONTINUOUS
 62
     1
 10
 8.24303788461839E+0000
 20
 4.30823914770008E+0000
 11
 8.21657266785041E+0000
 21
 4.28177393092483E+0000
  0
LINE
  8
1
  6
CONTINUOUS
 62
     1
 10
 8.24303788461839E+0000
 20
 4.32889335188520E+0000
 11
 8.19892918999540E+0000
 21
 4.28478465726221E+0000
  0
LINE
  8
1
  6
CONTINUOUS
 62
     1
 10
 8.22801950496796E+0000
 20
 4.33452917641989E+0000
 11
 8.18128571214038E+0000
 21
 4.28779538359231E+0000
  0
LINE
  8
1
  6
CONTINUOUS
 62
     1
 10
 8.20192235993454E+0000
 20
 4.32908623556432E+0000
 11
 8.16364223428536E+0000
 21
 4.29080610992241E+0000
  0
LINE
  8
1
  6
CONTINUOUS
 62
     1
 10
 8.17582521490112E+0000
 20
 4.32364329472330E+0000
 11
 8.14599875643034E+0000
 21
 4.29381683625252E+0000
  0
LINE
  8
1
  6
CONTINUOUS
 62
     1
 10
 8.14972806986771E+0000
 20
 4.31820035388228E+0000
 11
 8.12835527857533E+0000
 21
 4.29682756258262E+0000
  0
LINE
  8
1
  6
CONTINUOUS
 62
     1
 10
 8.12363092484884E+0000
 20
 4.31275741303398E+0000
 11
 8.11071180072031E+0000
 21
 4.29983828892000E+0000
  0
LINE
  8
1
  6
CONTINUOUS
 62
     1
 10
 8.09753377981542E+0000
 20
 4.30731447219296E+0000
 11
 8.09306832286529E+0000
 21
 4.30284901525010E+0000
  0
LINE
  8
1
  6
CONTINUOUS
 62
     1
 10
 7.87226159068086E+0000
 20
 4.30546225998114E+0000
 11
 7.87226159068086E+0000
 21
 4.30546225998114E+0000
  0
LINE
  8
1
  6
CONTINUOUS
 62
     1
 10
 7.87226159068086E+0000
 20
 4.30546225998114E+0000
 11
 7.71297226404567E+0000
 21
 4.33264378134481E+0000
  0
LINE
  8
1
  6
CONTINUOUS
 62
     1
 10
 7.71297226404567E+0000
 20
 4.33264378134481E+0000
 11
 7.71297226404567E+0000
 21
 4.27224014387320E+0000
  0
LINE
  8
1
  6
CONTINUOUS
 62
     1
 10
 7.71297226404567E+0000
 20
 4.27224014387320E+0000
 11
 7.87226159068086E+0000
 21
 4.30546225998114E+0000
  0
LINE
  8
1
  6
CONTINUOUS
 62
     1
 10
 7.71297226404567E+0000
 20
 4.33264378134481E+0000
 11
 7.71297226404567E+0000
 21
 4.27224014387320E+0000
  0
LINE
  8
1
  6
CONTINUOUS
 62
     1
 10
 7.72151719580143E+0000
 20
 4.27402231422457E+0000
 11
 7.71297226405295E+0000
 21
 4.28256724598032E+0000
  0
LINE
  8
1
  6
CONTINUOUS
 62
     1
 10
 7.73860705929837E+0000
 20
 4.27758665492001E+0000
 11
 7.71297226404567E+0000
 21
 4.30322145016544E+0000
  0
LINE
  8
1
  6
CONTINUOUS
 62
     1
 10
 7.75569692278805E+0000
 20
 4.28115099561546E+0000
 11
 7.71297226404567E+0000
 21
 4.32387565435056E+0000
  0
LINE
  8
1
  6
CONTINUOUS
 62
     1
 10
 7.77278678627772E+0000
 20
 4.28471533631091E+0000
 11
 7.72730393225356E+0000
 21
 4.33019819033507E+0000
  0
LINE
  8
1
  6
CONTINUOUS
 62
     1
 10
 7.78987664976739E+0000
 20
 4.28827967700636E+0000
 11
 7.75220779216761E+0000
 21
 4.32594853459887E+0000
  0
LINE
  8
1
  6
CONTINUOUS
 62
     1
 10
 7.80696651325707E+0000
 20
 4.29184401770181E+0000
 11
 7.77711165208893E+0000
 21
 4.32169887886266E+0000
  0
LINE
  8
1
  6
CONTINUOUS
 62
     1
 10
 7.82405637674674E+0000
 20
 4.29540835838998E+0000
 11
 7.80201551201026E+0000
 21
 4.31744922313374E+0000
  0
LINE
  8
1
  6
CONTINUOUS
 62
     1
 10
 7.84114624023641E+0000
 20
 4.29897269909270E+0000
 11
 7.82691937193158E+0000
 21
 4.31319956739753E+0000
  0
LINE
  8
1
  6
CONTINUOUS
 62
     1
 10
 7.85823610373336E+0000
 20
 4.30253703978087E+0000
 11
 7.85182323184563E+0000
 21
 4.30894991166133E+0000
  0
LINE
  8
1
  6
CONTINUOUS
 62
     1
 10
 7.86343985174608E+0000
 20
 4.30696762314619E+0000
 11
 7.85921301814960E+0000
 21
 4.30274078954972E+0000
  0
LINE
  8
1
  6
CONTINUOUS
 62
     1
 10
 7.84579637389834E+0000
 20
 4.30997834947630E+0000
 11
 7.83311587312346E+0000
 21
 4.29729784870142E+0000
  0
LINE
  8
1
  6
CONTINUOUS
 62
     1
 10
 7.82815289604332E+0000
 20
 4.31298907580640E+0000
 11
 7.80701872809732E+0000
 21
 4.29185490786040E+0000
  0
LINE
  8
1
  6
CONTINUOUS
 62
     1
 10
 7.81050941818830E+0000
 20
 4.31599980213650E+0000
 11
 7.78092158306390E+0000
 21
 4.28641196701938E+0000
  0
LINE
  8
1
  6
CONTINUOUS
 62
     1
 10
 7.79286594033329E+0000
 20
 4.31901052847388E+0000
 11
 7.75482443803776E+0000
 21
 4.28096902617108E+0000
  0
LINE
  8
1
  6
CONTINUOUS
 62
     1
 10
 7.77522246247827E+0000
 20
 4.32202125480399E+0000
 11
 7.72872729301162E+0000
 21
 4.27552608533006E+0000
  0
LINE
  8
1
  6
CONTINUOUS
 62
     1
 10
 7.75757898463053E+0000
 20
 4.32503198113409E+0000
 11
 7.71297226404567E+0000
 21
 4.28042526054924E+0000
  0
LINE
  8
1
  6
CONTINUOUS
 62
     1
 10
 7.73993550678279E+0000
 20
 4.32804270747874E+0000
 11
 7.71297226404567E+0000
 21
 4.30107946473436E+0000
  0
LINE
  8
1
  6
CONTINUOUS
 62
     1
 10
 7.72229202892777E+0000
 20
 4.33105343380885E+0000
 11
 7.71297226404567E+0000
 21
 4.32173366891948E+0000
  0
LINE
  8
1
  6
CONTINUOUS
 62
     1
 10
 7.87226159068086E+0000
 20
 4.30546225998114E+0000
 11
 7.87226159068086E+0000
 21
 4.30546225998114E+0000
  0
LINE
  8
1
  6
CONTINUOUS
 62
     1
 10
 7.87226159068086E+0000
 20
 4.30546225998114E+0000
 11
 7.71297226404567E+0000
 21
 4.33264378134481E+0000
  0
LINE
  8
1
  6
CONTINUOUS
 62
     1
 10
 7.71297226404567E+0000
 20
 4.33264378134481E+0000
 11
 7.71297226404567E+0000
 21
 4.27224014387320E+0000
  0
LINE
  8
1
  6
CONTINUOUS
 62
     1
 10
 7.71297226404567E+0000
 20
 4.27224014387320E+0000
 11
 7.87226159068086E+0000
 21
 4.30546225998114E+0000
  0
LINE
  8
1
  6
CONTINUOUS
 62
     1
 10
 7.71297226404567E+0000
 20
 4.33264378134481E+0000
 11
 7.71297226404567E+0000
 21
 4.27224014387320E+0000
  0
LINE
  8
1
  6
CONTINUOUS
 62
     1
 10
 7.72151719580143E+0000
 20
 4.27402231422457E+0000
 11
 7.71297226405295E+0000
 21
 4.28256724598032E+0000
  0
LINE
  8
1
  6
CONTINUOUS
 62
     1
 10
 7.73860705929837E+0000
 20
 4.27758665492001E+0000
 11
 7.71297226404567E+0000
 21
 4.30322145016544E+0000
  0
LINE
  8
1
  6
CONTINUOUS
 62
     1
 10
 7.75569692278805E+0000
 20
 4.28115099561546E+0000
 11
 7.71297226404567E+0000
 21
 4.32387565435056E+0000
  0
LINE
  8
1
  6
CONTINUOUS
 62
     1
 10
 7.77278678627772E+0000
 20
 4.28471533631091E+0000
 11
 7.72730393225356E+0000
 21
 4.33019819033507E+0000
  0
LINE
  8
1
  6
CONTINUOUS
 62
     1
 10
 7.78987664976739E+0000
 20
 4.28827967700636E+0000
 11
 7.75220779216761E+0000
 21
 4.32594853459887E+0000
  0
LINE
  8
1
  6
CONTINUOUS
 62
     1
 10
 7.80696651325707E+0000
 20
 4.29184401770181E+0000
 11
 7.77711165208893E+0000
 21
 4.32169887886266E+0000
  0
LINE
  8
1
  6
CONTINUOUS
 62
     1
 10
 7.82405637674674E+0000
 20
 4.29540835838998E+0000
 11
 7.80201551201026E+0000
 21
 4.31744922313374E+0000
  0
LINE
  8
1
  6
CONTINUOUS
 62
     1
 10
 7.84114624023641E+0000
 20
 4.29897269909270E+0000
 11
 7.82691937193158E+0000
 21
 4.31319956739753E+0000
  0
LINE
  8
1
  6
CONTINUOUS
 62
     1
 10
 7.85823610373336E+0000
 20
 4.30253703978087E+0000
 11
 7.85182323184563E+0000
 21
 4.30894991166133E+0000
  0
LINE
  8
1
  6
CONTINUOUS
 62
     1
 10
 7.86343985174608E+0000
 20
 4.30696762314619E+0000
 11
 7.85921301814960E+0000
 21
 4.30274078954972E+0000
  0
LINE
  8
1
  6
CONTINUOUS
 62
     1
 10
 7.84579637389834E+0000
 20
 4.30997834947630E+0000
 11
 7.83311587312346E+0000
 21
 4.29729784870142E+0000
  0
LINE
  8
1
  6
CONTINUOUS
 62
     1
 10
 7.82815289604332E+0000
 20
 4.31298907580640E+0000
 11
 7.80701872809732E+0000
 21
 4.29185490786040E+0000
  0
LINE
  8
1
  6
CONTINUOUS
 62
     1
 10
 7.81050941818830E+0000
 20
 4.31599980213650E+0000
 11
 7.78092158306390E+0000
 21
 4.28641196701938E+0000
  0
LINE
  8
1
  6
CONTINUOUS
 62
     1
 10
 7.79286594033329E+0000
 20
 4.31901052847388E+0000
 11
 7.75482443803776E+0000
 21
 4.28096902617108E+0000
  0
LINE
  8
1
  6
CONTINUOUS
 62
     1
 10
 7.77522246247827E+0000
 20
 4.32202125480399E+0000
 11
 7.72872729301162E+0000
 21
 4.27552608533006E+0000
  0
LINE
  8
1
  6
CONTINUOUS
 62
     1
 10
 7.75757898463053E+0000
 20
 4.32503198113409E+0000
 11
 7.71297226404567E+0000
 21
 4.28042526054924E+0000
  0
LINE
  8
1
  6
CONTINUOUS
 62
     1
 10
 7.73993550678279E+0000
 20
 4.32804270747874E+0000
 11
 7.71297226404567E+0000
 21
 4.30107946473436E+0000
  0
LINE
  8
1
  6
CONTINUOUS
 62
     1
 10
 7.72229202892777E+0000
 20
 4.33105343380885E+0000
 11
 7.71297226404567E+0000
 21
 4.32173366891948E+0000
  0
LINE
  8
1
  6
CONTINUOUS
 62
     1
 10
 7.91544379472180E+0000
 20
 5.58831190434285E+0000
 11
 7.91384589744848E+0000
 21
 5.37356343436113E+0000
  0
TEXT
  8
1
 62
     1
 10
 8.27138226984243E+0000
 20
 4.31827573732880E+0000
 40
 1.18110236219991E-0001
  1
5
  7
STANDARD
 11
 8.27138226984243E+0000
 21
 4.43638597354584E+0000
 50
 0.00000000000000E+0000
 41
 3.33041753174712E-0001
  0
LINE
  8
1
  6
CONTINUOUS
 62
     1
 10
 8.23604680181597E+0000
 20
 4.30886419563467E+0000
 11
 8.40565704830806E+0000
 21
 4.30886419563467E+0000
  0
LINE
  8
1
  6
CONTINUOUS
 62
     1
 10
 7.91384589744848E+0000
 20
 3.46216940860177E+0000
 11
 9.03808979815221E+0000
 21
 3.46216940860177E+0000
  0
LINE
  8
1
  6
CONTINUOUS
 62
     1
 10
 8.07742218987551E+0000
 20
 3.49804007396597E+0000
 11
 9.05222398535989E+0000
 21
 3.74250213043342E+0000
  0
TEXT
  8
1
 62
     1
 10
 7.74591951812909E+0000
 20
 6.53995023119205E+0000
 40
 1.18110236219991E-0001
  1
12
  7
STANDARD
 11
 7.74591951812909E+0000
 21
 6.65806046740909E+0000
 50
 0.00000000000000E+0000
 41
 3.33041753174712E-0001
  0
TEXT
  8
1
 62
     1
 10
 9.05071302903525E+0000
 20
 4.01112006905350E-0001
 40
 1.18110236219991E-0001
  1
(c)
  7
STANDARD
 11
 9.05071302903525E+0000
 21
 5.19222243125114E-0001
 50
 0.00000000000000E+0000
 41
 2.22027835450035E-0001
0
ENDSEC
0
EOF
